<svg width="460" height="360" viewBox="0 0 460 360" fill="none" xmlns="http://www.w3.org/2000/svg"><path fill="#1B2129" d="M0 0h460v360H0z"/><path d="M326.231 46.317l-4.188-8.949-1.702-.16-37.95 48.416c-1.463-2.061-2.739-3.803-2.939-3.923-.505-.293-2.127 1.649-2.127 1.649s-2.753 3.91-4.149 5.784c-1.396 1.875.771 4.228.771 4.228l-3.298 4.402-5.638 5.319s-1.156.532-1.688.758c-.532.226-1.25.691-1.849.93-.598.253-1.848 2.088-1.848 2.088s-.465-2.3-.598-2.779c-.12-.479-.373-1.09-1.503-.479-1.143.612-1.516 4.309-1.742 4.907-.213.612-.705 1.609-.917 2.088-.559 1.289-1.609 5.265-1.503 5.784l.359 2.899-6.236 5.571c-.08 0-.147.013-.147.013s-2.832-3.67-3.43-4.454a1.648 1.648 0 0 0-.253-.266c2.035-2.859 4.016-7.367 3.59-13.669 1.982-1.45 3.271-3.152 3.032-5.173l-2.207-4.295c-1.423-11.968-10.891-20.65-21.156-19.387-10.265 1.263-17.432 12.007-16.01 23.974l-1.01 4.694c.199 1.689 1.609 3.085 3.75 4.136.319 5.731 2.127 10.411 5.465 13.496.385.359.824.639 1.25.944-.12.094-.24.187-.333.28-.492.545-1.024 2.061-1.223 3.231-.2 1.17-.678 2.5-1.077 3.125-.399.638-.931 1.077-1.131 1.516-.199.438.147.877.439 1.17.293.292.931.837.931.837l-4.694 7.633s-2.154 2.3-5.438 7.433c-3.271 5.146-4.654 13.018-4.654 13.018s-1.955-.492-3.085.785c-1.131 1.276-1.37 4.893-1.37 5.239 0 .345-.838.93-.838.93l-.053.785.678.638s-.053 2.54-.053 3.032c0 .359-.226 2.221-.359 3.205-1.941 1.954-3.723 3.989-5.026 5.717-5.399 7.194-6.715 15.332-2.926 18.164 1.304.971 3.032 1.197 4.96.771-.133.413-.212.665-.212.665s-2.155 1.809-3.085 2.846c-.931 1.024-2.593 5.133-2.593 5.133s-1.516.837-2.394 1.715c-.877.878-4.84 7.087-6.023 8.51-1.171 1.423-7.54 7.247-7.925 7.978-.386.732.292 1.809.292 1.809l-5.04 4.162-4.84-12.433s-.731-.199-.824-.585c-.093-.399.239-.346 1.024-.785.784-.438 2.446-1.077 2.101-2.007-.625-1.689-4.216-.984-4.216-.984l-.824-2.155-3.284.692-.931-1.862s-.492-.146-1.569.24c-1.077.385-1.077.877-1.077.877l.545 1.862.386.292 3.178 8.617-.825 1.223.532 1.37c.386-.053 1.423.877 1.609 1.369.199.492.931 2.992.931 2.992l-.931.878.492 1.223 1.276.253 1.862 4.654s-1.569 3.032-1.569 4.016.878 2.207.931 2.686c.053.492.931 1.023 1.223 1.569.293.532-.199 1.462 0 2.008.2.531.984 1.462.984 1.462l.984.878s.532 1.901 1.13 1.901c.585 0 1.463-.345 1.463-.345l1.662 4.693s-.439.094-.678.532c-.239.439-.106.785-.106.785s-1.569 2.247-1.569 3.524c0 1.276 1.276 3.816 1.276 3.816l9.202 47.271-.492 1.277 1.17 5.771h5.186s-.585-1.755-.878-3.231c-.292-1.463 0-3.232 0-3.232s-.678-.784-.678-1.861-7.141-38.456-7.141-38.456l10.279 30.438v1.662s-.984 1.276-1.861 1.662c-.878.385 0 5.877 0 7.832s1.861 5.186 1.861 5.186h26.036l-.492-6.755s1.463-1.37 1.715-2.101c.24-.732-.292-1.955-.439-4.162-.146-2.207.147-4.694.147-6.502 0-1.809-1.024-2.008-1.024-2.979 0-.984 1.223-.638 1.223-1.569 0-.931-1.329-2.247-1.954-2.832-.639-.585-.2-1.224.438-1.516.639-.293 2.301-.732 3.085-1.37.785-.638.053-3.085-.585-4.601s.492-3.178 1.077-4.507c.585-1.317 3.471-7.194 4.162-8.883.692-1.689 7.194-12.592 8.324-14.746 1.131-2.155 6.064-9.84 6.064-9.84s2.207 9.401 2.646 11.794c.439 2.394 3.67 20.159 4.893 24.028 1.224 3.87 4.016 7.633 5.04 9.056 1.024 1.422.385 1.861-.093 2.061-.492.199-.585.438-.585 1.077 0 .638.345 2.539.345 3.816 0 1.276.293 5.678.386 6.994.093 1.317.492 2.194.984 2.447.492.239.545.824.545 1.276v.984c0 .586.2 1.769.346 1.955.146.2.492.492.492 1.277 0 .784-.293 5.624-.293 5.624h22.699s-.439-8.124-.386-8.47c.053-.346.253-.638.253-1.37 0-.731-.2-2.646-.2-2.646s1.622-1.569 1.809-2.593c.199-1.024-.732-2.539-1.171-4.494-.438-1.955-.438-2.992-.438-3.816 0-.838-.532-3.524-.532-4.747 0-1.224-2.593-1.769-2.593-1.769v-1.37s.877-1.077 1.024-2.393c.146-1.316-.2-4.508-.2-7.247s-1.915-6.502-2.393-8.125c-.492-1.608-1.516-4.401-1.516-5.624 0-1.224.239-13.404.239-13.949 0-.532.532-4.348.532-5.385 0-1.024-1.423-1.569-1.423-3.138s1.756-3.178 1.756-4.349c0-1.17-1.609-4.015-1.609-4.401 0-.385.585-.492.837-1.276.253-.785.253-2.048.253-2.048s4.694.931 5.864 1.024c1.17.093 6.117 1.755 6.356 1.808.253.053.838.146 1.316 0 .492-.146 2.74-1.276 3.431-2.992.692-1.715-.838-3.43-.838-3.869 0-.439.253-2.939.253-4.215 0-1.277-1.901-5.133-1.901-5.133s.199-1.769.199-2.394c0-.625-.785-1.17-.785-1.17l-.877-4.601s.585-.053 1.17-.146 1.17-.931 1.769-1.808c.585-.878 1.369-1.955 1.223-3.285-.146-1.316-2.048-2.938-4.455-5.239-2.393-2.3-6.209-4.069-6.209-4.069l-.054-3.031 3.178-2.008s.293.439.639.638c.345.2.678-.386 1.316-.984.638-.585.439-.878.439-1.609s0-.385.146-.984c.146-.585 0-1.609 0-2.978 0-1.37.545-1.317.545-1.769 0-.439 1.277-1.17 1.463-1.808.199-.639-.239-1.423-.239-1.609 0-.2-.785-.692-.785-.692s.678-3.524.825-4.84c.146-1.316.239-2.447.438-3.617.2-1.17 2.008-2.446 2.886-3.031.877-.586 3.324-4.801 3.763-6.117.439-1.317.292-2.301.106-3.178-.199-.878.386-4.601 0-6.808-.385-2.208-1.516-5.093-2.446-7.234-.931-2.154-4.109-3.231-5.04-3.763-.931-.545-2.154-1.516-3.377-2.54-1.224-1.024-4.176-.665-4.176-.665s-2.526-6.076-4.76-9.055c-.053-.173-.12-.346-.186-.519-.08-.172-.253-.252-.466-.266a7.198 7.198 0 0 0-.665-.625l8.431-10.877c.944-.904 1.915-1.848 2.912-2.819.545.187 1.064.306 1.37.227.864-.24 1.994-3.152 2.154-3.458.053-.08.146-.252.266-.452.704-.678 1.422-1.369 2.127-2.061.093.359.625 2.38 1.197 2.34.612-.04 2.766-5.106 2.779-5.704 0-.053-.053-.173-.146-.333 10.903-10.557 21.608-20.93 22.326-21.714.944-1.024.851-2.034.704-2.62-.106-.412-1.25-4.6-1.901-6.994 9.428-12.153 18.337-23.642 18.855-24.333 1.104-1.476.851-2.633.545-3.285zm-109.874 65.329c.013 0 .013 0 0 0 .04.027.067.053.093.067.213.119.519.079.825 0 .465.119.93.226 1.422.319.359 1.263.931 3.351 1.078 4.414.106.798.305 2.886.492 4.761-2.168-2.367-3.484-5.558-3.91-9.561zm-22.312 130.086c-.2.585 0 4.601 0 5.571 0 .984-.147 2.793-.679 4.654-.545 1.862-2.247 10.332-2.991 13.949-.732 3.617-2.833 17.034-2.833 17.034l-.345-2.008s.199-1.17.053-1.662c-.147-.492-1.463-.692-1.463-.692l-1.463-3.55.532-1.197-.691-1.808-1.716-.386-8.855-22.459s.93-.784 1.369-1.13c.439-.346.638-1.17.638-1.17s.293-.053.732-.346c.439-.292 2.885-2.992 3.47-3.67.585-.678 1.17-1.954 1.17-1.954s1.423 1.422 1.915 1.808c.492.386 2.793 1.862 3.817 1.13 1.023-.731 7.047-7.247 7.047-7.247s-.053 3.285-.053 3.577c0 .279.545.971.346 1.556zm47.763-124.209c-.12-.771-.226-1.622-.239-2.287-.054-1.609.492-4.401.492-4.401h1.954c.346 0 .492-.412.585-.798-.319 3.404-1.449 6.05-2.672 7.965-.054-.159-.08-.319-.12-.479z" fill="#537B8D"/><path d="M241.555 193.743c.08 1.25-.292 6.063.811 7.579 1.104 1.516 3.085 3.723 4.987 3.723 1.915 0 3.444.665 5.066 1.104 1.609.439 2.274 1.25 3.59 1.25 1.317 0 5.292-1.024 8.072 0 2.792 1.024 7.552 3.59 9.321 3.457 1.768-.146 2.194.386 3.377 0 1.17-.372 1.609-2.061 1.17-3.231-.438-1.17-4.627-5.944-7.552-7.26-2.939-1.317-6.675-2.646-9.029-3.67s-7.925-2.793-9.694-2.939c-1.755-.159-10.119-.013-10.119-.013zm9.175 21.953v3.152l4.255.585v-3.152l-4.255-.585zm0 5.066v3.524s.585.811 1.316.811c.732 0 2.567.519 2.567 0v-3.59s-2.926-.745-3.883-.745zm23.19-.585s.439 3.006.811 3.006c.373 0 2.5.731 2.793.372.292-.372-.399-3.005-.572-3.085-.16-.08-3.032-.293-3.032-.293zm0 4.548s-.731 3.816-.585 4.175c.146.373 3.71 2.567 3.617 1.915-.093-.665 0-5.731 0-5.731l-3.032-.359zm-23.562-16.887v4.321s2.127-.079 2.5 0c.372.08 1.103 0 1.103 0v-2.858c0 .013-2.207-1.237-3.603-1.463zm22.618 6.09s-.106 2.646.346 2.646c.465 0 2.739.811 2.739.811s-.665-4.255-.917-4.255c-.253 0-2.194-.811-2.181 0l.013.798zm-.306-71.632c.519.226 7.194 3.231 7.487 3.896.292.665-.811 13.364-.811 13.364s-1.862-4.335-2.913-6.822c-1.037-2.513-3.763-10.438-3.763-10.438zm4.123 28.336s-1.609 15.93-1.982 16.582c-.372.665-7.34-1.755-8.59-2.354-1.25-.585-2.194-.665-2.194-1.462 0-.812.439-1.769.439-3.085 0-1.317 1.543-6.968 1.543-6.968s4.547.585 6.09-.293c1.529-.877 4.694-2.42 4.694-2.42zm-20.797-28.974c-.652-.865 2.247.731 3.178.731s4.069.638 5.039 1.277c.984.638 4.455 2.978 6.197 5.332 1.742 2.353 4.281 5.585 4.281 5.585s-6.648-3.524-9.148-3.524 1.609-.293 1.609-.293-4.109-1.861-5.571-1.223c-1.476.638-3.232-.239-3.232-.239l1.277-1.171s-3.67-.292-3.91-.585c-.239-.292-.239-.531.692-.531.931 0 6.901.784 9.148 1.662 2.248.877 4.455 2.247 4.455 2.247s-4.8-4.84-8.178-6.17c-3.391-1.33-5.545-2.699-5.837-3.098z" fill="#fff"/><path d="M259.054 136.113c.146 1.423.519 2.713-.12 2.766-.638.053-1.954 1.423-.93 1.423 1.023 0 5.092.266 6.848 1.103 1.755.851 5.478 4.415 6.515 6.277 1.024 1.861 2.886 4.361 2.886 4.361s-3.431-8.962-5.186-12.632-2.38-5.984-3.936-7.739c-.386-.426-6.223 3.018-6.077 4.441zm-14.268 16.369c-.97-.187 3.577 0 4.202 0h1.662c.585 0 2.886-.679 3.617-.679.731 0 2.008.346 2.447.679.439.345 9.294 8.217 9.64 8.47.346.239 3.67 2.686 3.67 3.271s-.385.878-1.369.878c-.971 0-6.263-1.915-6.609-1.915-.346 0-.2 2.353-.2 2.353l-.837 2.394s6.994.585 10.624.346c3.617-.24 6.024-.293 6.463-.732.438-.439 1.808.266.877.798s-5.438 1.503-11.249 1.556c-5.824.053-12.287-.2-13.457 0-1.17.199-2.832-.093-2.832-1.184 0-1.077-.386-5.624-1.17-8.124-.785-2.5-1.663-4.255-2.54-5.279-.891-1.024-2.447-2.739-2.939-2.832z" fill="#fff"/><path d="M257.605 152.229s2.792 2.061 3.271 2.447c.492.385 6.117 5.585 6.954 6.196.825.612 4.202 2.367 5.093 2.513.878.147 2.247 1.516 2.354 0 .093-1.516-1.809-6.994-3.085-7.832-1.277-.824-9.002-4.361-9.734-4.361-.731 0-2.446.239-2.446.239s3.909.931 6.063 2.54 6.356 7.832 6.356 7.832-5.279-5.877-6.502-6.702c-1.224-.824-5.186-3.178-6.17-3.324-.984-.133-2.154.452-2.154.452zm-2.62 88.958c.359 3.417.997 6.848 1.596 10.571.585 3.723 1.369 10.957 2.539 10.758 1.171-.2 1.343-3.817 1.304-6.649-.027-2.846.039-9.002 0-10.478-.027-1.463-5.559-5.359-5.439-4.202zm4.282 50.303c-2.261-2.38-7.38-6.755-7.579-8.51-.2-1.769-6.357-10.079-7.048-13.404-.691-3.324-3.71-13.603-2.354-14.573 1.37-.984 7.247 8.031 7.832 10.371.586 2.354 4.987 6.755 4.801 9.202-.2 2.447-1.077 3.923.585 3.923s2.832.292 3.763 2.048c.931 1.768 5.438 5.97 5.438 8.124 0 2.154 1.37 2.247-.585 2.846-1.968.558-4.029.851-4.853-.027zm-.678 21.874c2.114-.186 7.725-.346 8.47 0 .731.346.731 8.271.731 8.271s-3.617-1.955-5.279-2.154c-1.662-.2-2.101-1.277-2.3-2.647-.213-1.369-2.753-3.377-1.622-3.47zm9.587-1.13c-.785-.2-9.933-.692-11.795 0-1.861.678-1.808-1.078-1.476-1.516.346-.439.014-1.131 3.391-1.609 3.364-.492 9.095-.386 9.481-.2.399.2.399 3.325.399 3.325zm.492-4.934c-.638 0-10.811-.053-12.965.678-2.154.732-.838-1.954.545-1.954 1.37 0 5.346-1.769 5.213-2.394-.133-.638-1.503-4.694-2.62-4.946-1.13-.24-4.109-2.394-6.316-2.394s-3.431-.346-3.962-.346c-.546 0-.785-.731.585-1.023 1.369-.293 4.574-.785 5.584-.785 1.024 0 4.003.053 5.519 0s2.792.093 4.202 0c1.422-.093 1.954-.199 2.5.638.531.838.877 1.915.824 2.74-.053.837-.093 2.406.199 3.576.293 1.171 1.024 3.418 1.024 4.295 0 .878.599 1.915-.332 1.915zm-97.973-70.501c-.532.585-1.144 1.316-1.144 1.915 0 .598.133 1.741-.16 2.526-.305.771-.944 2.181-.944 2.686 0 .505-.399 1.875-.399 2.088 0 .199-.372 1.01.439 1.476.811.465 2.354.04 2.686-.572.333-.599 1.037-2.38 1.077-2.859.027-.465.466-1.077.532-1.649.067-.572 1.144-1.582 1.144-1.955 0-.372.638-1.143.638-1.874 0-.745 1.542-3.232 1.689-4.136.133-.904-.984-1.476-1.689-1.276-.718.212-3.617 3.35-3.869 3.63zm29.453-6.768c.026-.785.279-6.157 0-9.002-.28-2.846 1.821-8.444 1.821-9.734 0-1.29 2.061-7.233 2.886-7.526.824-.292 3.75-1.941 5.212-2.167 1.463-.213.971 1.409.878 1.981-.093.572-.386 2.885-.386 4.76s-.452 11.941-.731 12.686c-.279.744-1.277 2.539-2.287 2.978-1.011.426-3.657.838-4.574 2.713-.905 1.875-2.873 5.093-2.819 3.311zm1.821 4.986c-.611 1.409-3.909 10.664-4.401 13.31-.492 2.647-2.739 12.327-2.739 12.726 0 .385-.2 3.909.585 2.048.784-1.862 3.005-4.894 2.978-7.34-.039-2.447 2.407-9.295 3.577-13.018 1.171-3.724 4.309-8.511 4.309-9.003 0-.478-4.003.586-4.309 1.277zm-5.278-13.404c-.785 1.237-4.508 7.726-3.724 7.726.785 0 2.447-.293 3.232-1.662.784-1.37 1.289-7.327.492-6.064zm46.194-68.4c-1.862-.106-4.601-.386-5.093-.386s-5.385-1.928-6.954-1.901c-1.57.04-3.139-.239-3.431 0-.279.226-3.617 1.888-3.617 1.888s-3.803.638-3.989 2.832c-.2 2.208 1.795 1.835 1.795 2.354 0 .519-.731 1.609-.731 1.981 0 .373 1.835 1.104 1.981 1.609.146.519-.439 2.859.066 3.298.519.439 1.024.731 1.543 1.17.518.439 1.25 1.689 2.048 1.689.811 0 3.005-.146 5.505-1.689 2.5-1.542 13.283-6.728 13.51-8.43.226-1.676-.346-4.295-2.633-4.415zm-12.287-35.556c-.252-.027.984-.413 2.035-.466 1.05-.053 2.3.147 3.643-.385s2.686-1.463 3.099-2.208c.412-.731.851-1.103.851-1.103s-.413 1.289-.293 2.207c.12.904.319 3.63.319 3.63s-1.795-.253-4.188.186c-2.394.439-3.405 1.197-4.043.466-.611-.732-1.197-2.301-1.423-2.327zm-7.14 6.874c.851.319 2.18 1.25 3.085 2.075.904.824 1.595 2.127 3.909 1.316 2.327-.811 4.84-1.862 7.686-2.247 2.832-.386 4.202-.505 4.92-.439s1.861.106 1.861.106-2.18-3.351-3.178-3.989c-.452-.292-1.609-.824-3.257-.758-1.636.08-3.498.439-4.841.811-1.356.386-10.185 3.125-10.185 3.125zm14.866-11.954c-1.543-.439-4.601-1.835-5.705-1.928-1.103-.093-2.473-1.317-2.393-2.181.08-.851-.093-1.689.332-1.689.426 0 2.939.32 3.378.559.438.239.638-.08.638-.426 0-.359-.957-1.555-1.902-1.742-.957-.199-2.473-.226-3.005-.146-.532.067-1.928.24-2.274.386-.345.146-.824.093-.292-.426.545-.518 1.223-1.037 2.034-1.037.812 0 .665.053 1.25 0s1.024-.173 1.37-.12c.346.054 1.928.586 2.5 1.29.558.705.904.811.904.811s-.066-.89-.386-1.196c-.319-.319-1.635-1.25-1.928-1.397-.292-.146-1.449-.585-1.449-.997 0-.412-.306-1.901-.16-1.954.147-.054.585.412 1.024.412.439 0 1.25-.014 1.25-.426s-.319-1.928-.319-1.928.984.2 2.221.997c1.25.812 5.385 3.617 5.651 4.601s.319 2.128.292 2.979c-.026.851-.239 3.058-.757 3.816-.506.758-1.623 1.928-2.274 1.742zM190.84 299.96c1.689-.518 6.236-.731 8.364-.731 2.127 0 8.949 1.024 9.401 1.542.439.519 1.316 1.25 1.396 1.769.067.519-.146 3.377 0 4.481s.027 4.189.013 4.548c-.013.372.28 2.353-.824 2.353s-10.053-1.037-13.723-.744c-3.67.306-3.816-1.689-2.938-1.982.877-.292 6.169-2.273 6.755-3.59.585-1.316 3.896-4.255 1.17-4.547-2.713-.32-9.614-3.099-9.614-3.099zm17.619 15.771c0 .957.439 4.547.439 4.547s-8.963-1.25-11.01-1.25c-2.062 0-.586-2.5.585-2.5 1.17 0 2.273-.665 3.882-.811 1.623-.133 6.104.014 6.104.014zm112.48-275.078L284.571 87.1l.692 1.104 36.062-46.74-.386-.81zm-47.55 60.874l-36.554 46.686 2.247.851 35.158-46.207-.851-1.33zm-74.491 91.684c-2.021-1.409-2.247-6.343-.08-11.09.412-.917-.492-.638-1.436.439a43.43 43.43 0 0 0-2.074 2.553c-4.96 6.622-5.372 12.898-3.484 14.321.385.279.891.426 1.529.426 2.274 0 6.117-1.875 9.733-5.944.333-.372.24-.904-.119-.785-.944.293-1.795.439-2.5.439-.652 0-1.197-.106-1.569-.359zm17.552-15.943c-1.25 1.755-5.438 6.967-5.438 12.845 0 5.877 6.462 11.595 7.858 11.595 1.397 0 1.25-1.157 1.25-1.383 0-.226-2.048-5-2.048-9.92v-10.638s-.079-4.667-1.622-2.499zm-3.391-82.762c1.53-7.752 6.915-14.161 14.109-15.052a15.766 15.766 0 0 1 1.768-.107c8.67 0 16.13 7.686 17.353 17.885 0 0-.053-.106 0 0 1.436 1.941.346 1.57-.652.332-9.972-12.392-23.589-7.964-29.745-1.569-1.051 1.104-3.338 1.078-2.833-1.489z" fill="#fff"/><path d="M165.11 265.494c-15.571-26.381-24.414-61.393-24.414-97.534 0-37.764 9.627-74.318 26.528-101.045h125.552c.226.359.425.731.651 1.077l4.801-6.117c-.492-.758-.971-1.556-1.476-2.3H163.248C144.845 86.86 133.37 125.329 133.37 167.96c0 42.63 11.475 81.086 29.878 108.385h4.535l-1.383-7.141c-.373-.785-1.064-2.354-1.29-3.71zm59.252 3.511c-1.689 2.912-3.537 6.143-3.816 6.848-.054.133-.12.305-.2.478h15.624c-.425-2.14-.891-4.587-1.409-7.326h-10.199zm80.221-178.993c9.481 23.044 14.707 50.157 14.707 77.934 0 38.336-9.388 74.039-26.514 101.045h-26.502c.226.878.612 2.101.838 2.806.16.492.306.944.426 1.33.119.399.345.93.585 1.555.199.506.425 1.051.638 1.636h27.977c18.417-27.299 29.892-65.754 29.892-108.385 0-30.969-6.077-59.717-16.448-83.599-.16.24-.333.479-.546.705-.146.173-.452.505-5.053 4.973z" fill="#92B6C7"/></svg>