<svg width="164" height="165" viewBox="0 0 164 165" fill="none" xmlns="http://www.w3.org/2000/svg"><path d="M51.52 41.326l.024.04 1.471-.82 1.666-.919-.024-.04-3.284-5.901c-.26-.455-.512-.935-.967-1.666l.032-.017c1.78.52 2.796.772 4.219 1.098 1.837.43 4.495.991 8.868 1.845l.439-.244-4.666-8.405-3.333-5.99-.024-.04-1.455.812-1.682.935.024.032 3.13 5.625c.316.569.625 1.114 1.154 2.04l-.033.016a70.204 70.204 0 0 0-3.958-1.048c-1.862-.472-4.568-1.032-9.136-1.926l-.44.235 4.447 7.99 3.527 6.348zM38.978 82.032c0 23.791 19.28 43.071 43.063 43.071 23.791 0 43.071-19.28 43.071-43.07 0-23.792-19.28-43.064-43.071-43.072-23.783.008-43.063 19.28-43.063 43.071zM82.04 43.805c10.574 0 20.117 4.276 27.042 11.2 6.917 6.926 11.193 16.46 11.193 27.027s-4.276 20.109-11.193 27.043c-6.925 6.917-16.468 11.2-27.042 11.2-10.559 0-20.11-4.283-27.026-11.2-6.926-6.926-11.201-16.468-11.201-27.043 0-10.566 4.275-20.109 11.2-27.026 6.918-6.925 16.468-11.2 27.027-11.2zm-44.444-1.869l1.463 1.504 5.064 5.218.024.024 3.47-3.365 2.854-2.763-2.276-2.341-.033.032-1.137 1.106-2.374 2.3-.284-.3-2.057-2.114 1.772-1.723 1.244-1.203.032-.033-1.162-1.195-1.097-1.13-.033.025-1.276 1.243-1.731 1.691-2.236-2.3 1.61-1.56 1.812-1.756.033-.025-2.252-2.332-2.958 2.877-3.276 3.162.033.04 4.77 4.918zm-7.567 10.437l1.73 1.17 6.016 4.088.04.025.951-1.398 1.106-1.626-.033-.024-3.609-2.463-.504-.35c.407-.634.789-1.3 1.065-2a7.66 7.66 0 0 0 .488-1.869 5.179 5.179 0 0 0-.537-2.86 5.9 5.9 0 0 0-1.959-2.171c-1.918-1.309-3.803-1.146-5.29-.415-.92.464-1.708 1.187-2.31 1.87a22.623 22.623 0 0 0-1.365 1.829 33.496 33.496 0 0 0-1.439 2.333l.033.024 5.617 3.837zm-.618-5.6c.333-.489.731-.822 1.186-1.017a2.198 2.198 0 0 1 2.073.252l.025.008c.382.26.642.545.837.878.203.333.276.715.276 1.049-.008.447-.162.967-.447 1.455-.081.154-.3.487-.358.577l-3.942-2.683c.139-.203.252-.382.35-.52zm94.685 6.932l-.041.017.732 1.528.821 1.723.032-.016 6.088-2.926a25.4 25.4 0 0 0 1.715-.878l.016.049c-.634 1.739-.934 2.747-1.349 4.145-.536 1.812-1.252 4.43-2.365 8.746l.211.455 8.673-4.162 6.177-2.967.041-.016-.723-1.503-.838-1.74-.04.025-5.804 2.78c-.585.292-1.146.56-2.097 1.04l-.024-.04c.52-1.431.902-2.659 1.284-3.886.577-1.837 1.301-4.495 2.471-9.006l-.211-.455-8.242 3.958-6.527 3.13zm-19.857-17.069l1.17-3.04-.04-.024-1.48-.56-3.097-1.18.155-.398 1.056-2.747 2.301.886 1.617.61.049.024.593-1.569.561-1.463-.032-.016-1.667-.642-2.259-.862 1.146-2.983 2.089.797 2.365.91.033.008 1.162-3.015-3.845-1.48-4.259-1.633-.008.04-2.455 6.405-.756 1.943-2.609 6.795-.016.04 4.519 1.732 3.707 1.422zm-17.695-4.787l.008-.04.634-5.17.114-1.016.374.048c1.072 2.3 1.771 4.707 2.706 6.706l4.219.658s-3.203-7.437-3.325-7.664l.008-.065c.269-.065.756-.326 1.17-.61.7-.447 1.708-1.626 1.935-3.414.358-2.99-1.406-4.405-2.747-4.95-.91-.357-1.926-.61-3.26-.772a106.17 106.17 0 0 0-2.015-.203 18.532 18.532 0 0 0-1.488-.073l-.008.04-.82 6.747-.253 2.072-.878 7.226v.04l1.821.22 1.805.22zM88.12 18.81c.195.008.382.008.74.049 1.243.146 1.926.983 1.771 2.26v.016c-.114.894-.642 1.439-1.04 1.642a2.425 2.425 0 0 1-1.423.244c-.178-.025-.398-.05-.544-.082l.496-4.129zm-18.085 4.447l.252 2.081.854 7.153v.049c.569-.049 1.073-.049 1.3-.073.683-.057 1.106-.09 1.74-.163 2.747-.325 4.072-.805 5.12-1.601 1.04-.805 1.87-2.268 1.675-3.894v-.016a3.937 3.937 0 0 0-3.536-3.52v-.04c1.512-.642 2.195-2.195 2.016-3.658-.333-2.804-2.52-3.462-3.536-3.641-.878-.146-2.04-.154-3-.04-.771.089-1.698.202-2.3.316-.536.081-1.048.187-1.39.268l.009.066.796 6.713zm6.99 3.504v.024c.106.87-.357 1.43-.829 1.715-.357.236-.788.341-1.13.382-.251.024-.544.065-.73.065-.033 0-.033-.016-.033-.032l-.423-3.552c.187-.025.56-.09.699-.106a4.273 4.273 0 0 1 1.016.032c.65.114 1.325.626 1.43 1.472zm-3.161-7.746c1.056-.13 1.812.349 1.942 1.365v.024a1.53 1.53 0 0 1-.845 1.593c-.341.163-.585.22-.837.244-.163.017-.374.041-.61.05l-.382-3.163c.203-.032.545-.09.732-.113zm51.354 24.969l-5.625 4.568-.049.049 1.284 1.569 1.171 1.447.032-.033 5.641-4.6 1.618-1.31 5.299-4.331.049-.033-1.227-1.512-1.228-1.504-.065.05-5.283 4.307-1.617 1.333zm-16.761-4.519c7.73-3.73 8.714-4.3 9.64-4.918l.017.017c-.301 1.04-.569 2.145-1.919 10.615l.423.309 8.461-6.3c4.511-3.373 5.202-3.877 5.414-4.055l.024-.041-1.52-1.122-1.414-1.064-.033.04c-.17.13-.951.553-4.299 3.186a56.605 56.605 0 0 0-1.984 1.626l-.049-.033c.228-.95.48-2.218.602-2.99.382-2.919.553-4.56.675-5.463l-.431-.317c-.862.374-2.487 1.073-4.836 2.22-1.008.47-2.057 1.056-2.878 1.527l-.057-.04a58.54 58.54 0 0 0 1.049-2.683c1.373-3.747 1.593-4.616 1.682-4.844l.025-.033-1.504-1.105-1.691-1.252-.024.033c-.089.22-.398 1.065-2.276 6.405l-3.503 9.949.406.333zm16.167 84.866l-.301-.309-.577-2.503c-1.349-5.828-1.544-6.69-1.601-6.885l-.041-.04-1.211 1.129-1.487 1.39.024.033c.008.13.252 1.122.594 2.601.268 1.17.495 2.219.772 3.024l-.033.024c-.788-.317-1.918-.667-3.023-1.032-1.358-.431-2.268-.716-2.447-.773l-.016-.024-1.293 1.187-1.577 1.471.025.024c.219.074 1.105.325 6.811 2.065l2.674.821.204.219 3.877 4.129.04.041 1.309-1.211 1.236-1.146-.025-.024-3.934-4.211zm-13.655.081l-.016-.032-1.325.707-1.528.813.024.04 2.739 5.072c.285.521.553 1.008 1.024 1.837l-.04.017a91.507 91.507 0 0 0-3.544-.992c-1.675-.439-4.097-.975-8.202-1.829l-.39.212 3.894 7.201 3.113 5.739.008.032 1.333-.723 1.52-.813-.024-.033-2.886-5.315a22.899 22.899 0 0 0-.853-1.504l.032-.016c1.585.479 2.504.715 3.788 1.024 1.658.414 4.039.943 7.957 1.747l.399-.211-4.113-7.584-2.91-5.389zm-23.962 9.38c-.821-.422-1.772-.617-2.585-.674-.699-.057-1.471-.033-2.056-.025a26.24 26.24 0 0 0-2.455.195l.008.041.212 6.072.065 1.869.235 6.657 3.292-.065-.146-4.096-.016-.537c.666-.049 1.373-.122 2.023-.292.578-.155 1.138-.358 1.61-.643.731-.414 1.357-1.056 1.796-1.902.358-.707.57-1.568.529-2.56-.066-2.081-1.187-3.357-2.512-4.04zm-.845 4.178c.008.415-.05.748-.187 1.073a1.803 1.803 0 0 1-.618.756c-.317.228-.788.398-1.292.455-.155.025-.513.033-.61.041l-.138-4.267c.22-.025.406-.033.56-.041.529-.016.984.097 1.366.333.537.333.894.927.919 1.634v.016zm13.305.585l-5.486-7.225-.48.121-1.642 8.925c-1.113 5.974-1.284 6.868-1.308 7.007l.008.048 3.487-.569s.138-1.324.333-2.487l4.324-1.032c.675.959 1.301 1.894 1.358 2.016l3.722-1.065-.008-.049c-.089-.122-.626-.853-4.308-5.69zm-4.722 2.886l-.008-.041c.317-2.024.406-2.926.414-3.43h.025c.244.439.715 1.211 1.885 2.878l.009.04-2.325.553z" fill="#000"/><path d="M159.673 82.17c-.073-4.12 4.665-4.584 4.308-9.176-.772-4.6-5.275-3.877-6.251-8.055l-.016-.082c-1.146-4.129 3.804-5.576 2.138-9.94-1.626-4.382-5.926-2.618-7.868-6.454l-.049-.09h.008c-1.609-3.812 2.365-6.088-.033-10.022-2.365-4.031-6.559-1.089-9.071-4.56l-.057-.065c-2.641-3.365.765-6.437-2.332-9.932-3.463-3.13-6.617.292-9.941-2.406-3.259-2.512-.537-6.706-4.487-9.08-4.007-2.397-6.267 1.626-10.176-.146l-.09-.048c-3.82-1.935-2.04-6.283-6.421-7.885-4.365-1.674-5.812 3.235-9.94 2.106l-.106-.025c-3.967-1.097-3.3-5.47-7.852-6.234-4.641-.447-4.958 4.478-9.234 4.243h-.09c-4.275.179-4.567-4.658-9.216-4.3-4.601.756-3.918 5.275-8.088 6.25l-.049.017c-3.99.975-5.454-3.829-9.762-2.187-4.38 1.626-2.633 5.918-6.462 7.868l-.08.041c-3.903 1.78-6.178-2.308-10.177.114-4.032 2.365-1.081 6.575-4.56 9.079l-.082.065c-3.3 2.463-6.34-.83-9.786 2.227-3.145 3.446.317 6.592-2.406 9.908l-.049.065c-2.511 3.471-6.69.52-9.095 4.528-2.406 3.999 1.61 6.307-.163 10.209l-.056.122c-1.984 3.625-6.243 1.934-7.82 6.266-1.674 4.365 3.219 5.812 2.097 9.95l-.016.089C5.311 68.783.848 68.052.068 72.652c-.43 4.641 4.479 4.942 4.251 9.226v.097c.073 4.113-4.657 4.446-4.3 9.039.764 4.6 5.284 3.885 6.235 8.047l.032.09c1.146 4.128-3.804 5.567-2.138 9.932 1.618 4.381 5.983 2.731 7.925 6.551l.017.033-.09.04c1.601 3.804-2.357 6.088.033 10.022 2.373 4.032 6.575 1.081 9.079 4.56l.057.073c2.65 3.357-.756 6.438 2.34 9.925 3.463 3.121 6.584-.317 9.909 2.381l.081.065c3.26 2.504.431 6.609 4.381 8.982 4.008 2.406 6.275-1.618 10.177.163l.081.032c3.828 1.943 2.032 6.291 6.43 7.892 4.348 1.659 6.047-3.137 10.119-2.097.024.009 0 .033 0 .033v.008c3.967 1.097 3.316 5.47 7.852 6.234 4.65.447 4.95-4.478 9.225-4.251h.09c4.283-.195 4.568 4.674 9.217 4.292 4.593-.764 3.877-5.275 8.039-6.242l.097-.033c3.999-.975 5.462 3.82 9.762 2.187 4.381-1.626 2.634-5.91 6.462-7.86l.081-.041c3.902-1.788 6.178 2.308 10.169-.122 3.999-2.341 1.357-6.673 4.69-9.185.024-.016.008.008.008.008 3.3-2.463 6.348.821 9.786-2.235 3.138-3.446-.317-6.592 2.39-9.908l.057-.073c2.511-3.471 6.689-.521 9.087-4.528 2.406-3.999-1.634-6.267.146-10.176l.041-.081c1.975-3.634 6.242-1.927 7.811-6.267 1.675-4.365-3.202-5.812-2.089-9.95l.025-.08c1.032-4.162 5.494-3.422 6.275-8.031.447-4.609-4.463-4.958-4.235-9.234zm-11.111 31.944c-4.82 9.892-11.851 18.987-20.565 25.791-8.664 6.844-18.825 11.753-29.586 14.232-10.721 2.512-22.182 2.495-32.92 0v-.008c-10.777-2.479-20.978-7.405-29.65-14.281-8.73-6.787-15.623-15.769-20.451-25.661l.057-.024c-4.812-9.965-7.389-21.1-7.413-32.196.032-11.03 2.609-22.125 7.38-32.041l.024.016c4.837-9.932 11.754-18.955 20.516-25.766C44.627 17.308 54.81 12.39 65.573 9.91c10.721-2.471 22.166-2.48 32.87.024 10.738 2.471 20.971 7.43 29.627 14.257l-.016.016c8.762 6.812 15.688 15.842 20.516 25.767 4.795 9.94 7.339 21.052 7.38 32.114a74.659 74.659 0 0 1-7.388 32.025z" fill="#000"/><path d="M148.212 74.294c-.878-5.844-5.015-9.022-9.713-8.315l-.016.008c-5.129.764-7.73 5.227-6.999 10.169.317 2.153.821 3.51 1.333 4.389l1.951-.293 1.935-.292 3.308-.488.065-.016-.277-1.886-.284-1.902-.065.008-3.284.496-1.122.162a7.994 7.994 0 0 1-.17-.837c-.407-2.78 1.268-4.95 4.275-5.397 3.081-.471 5.251 1.642 5.747 4.99.138.887.162 1.602.146 2.179-.032.471-.057.87-.106 1.138l.009.065c1.625-.203 2.414-.276 3.454-.39a19.29 19.29 0 0 0 .033-1.675c-.049-.634-.098-1.3-.22-2.113zm-7.494 21.126c-.35.267-.65.544-.943.812a40.99 40.99 0 0 0 .732-3.755c.585-.659 1.162-1.829 1.381-3.284.309-2.008-.219-3.682-.845-4.235-.715.455-1.504 1.91-1.804 3.837-.228 1.552-.065 2.91.3 3.714-.024.098-.032.22-.065.31-.138.593-.276 1.194-.414 1.78a42.52 42.52 0 0 1-.691 2.389 6.365 6.365 0 0 0-.699-2.308c-.87-1.626-2.146-2.415-2.967-2.406-.333.78-.203 2.373.593 3.974.724 1.398 1.675 2.317 2.455 2.552a55.085 55.085 0 0 1-1.39 3.488 6.697 6.697 0 0 0-.414-1.74c-.716-1.707-1.927-2.6-2.731-2.674-.391.748-.423 2.325.211 3.991.512 1.276 1.244 2.227 1.918 2.642a50.547 50.547 0 0 1-1.528 2.885 5.053 5.053 0 0 0-.195-1.227c-.528-1.78-1.626-2.796-2.414-2.951-.471.683-.658 2.227-.236 3.942.325 1.211.87 2.162 1.431 2.707a70.411 70.411 0 0 1-1.715 2.666c.024-.358 0-.723-.049-1.097-.293-1.813-1.252-2.943-2.024-3.211-.561.585-.886 2.105-.731 3.828.195 1.65.877 2.967 1.56 3.366-.008.008-.016.024-.024.032l.349.276c0-.008.008-.016.017-.024.577.577 1.934.918 3.673.463 1.927-.471 3.301-1.845 3.691-2.771-.553-.602-2.106-.789-3.894-.22-.561.179-1.073.398-1.552.634a53.44 53.44 0 0 0 1.999-3.113c.74.325 1.992.358 3.373-.244 1.813-.748 3.024-2.227 3.252-3.194-.626-.52-2.179-.512-3.861.276a7.864 7.864 0 0 0-1.423.813 63.263 63.263 0 0 0 1.626-3.259c.78.178 1.992.032 3.211-.683 1.69-.943 2.739-2.536 2.853-3.512-.675-.438-2.227-.276-3.812.708a7.49 7.49 0 0 0-1.09.739 43.32 43.32 0 0 0 1.146-3.227c.789.05 1.902-.227 3-1.016 1.585-1.113 2.438-2.771 2.487-3.747-.732-.341-2.251-.04-3.747 1.073zm-93.572 27.57c.35.333.675.683.903.984.178.243.317.43.439.625l.04.041c1-.975 1.56-1.528 2.235-2.178a7.365 7.365 0 0 0-.682-.878 9.28 9.28 0 0 0-.846-.878c-4.08-3.869-8.583-3.568-11.436-.593l-.008.008c-3.21 3.349-2.756 7.835.593 11.022.447.414.78.707 1.374 1.146.309.219.788.512 1.024.634.423-.472 1.626-1.829 2.024-2.268l-.032-.025a6.42 6.42 0 0 1-.765-.455c-.438-.292-.796-.634-1.243-1.048-2.081-1.983-2.122-4.495-.277-6.413 1.821-1.919 4.43-1.845 6.657.276zm-11.038-10.916c.163-1.723-.154-3.243-.731-3.829-.764.269-1.723 1.399-2.016 3.211-.057.374-.081.74-.057 1.097a65.698 65.698 0 0 1-1.715-2.666c.553-.544 1.09-1.495 1.422-2.706.415-1.715.236-3.26-.243-3.942-.789.154-1.886 1.17-2.414 2.95a6.03 6.03 0 0 0-.195 1.227 62.128 62.128 0 0 1-1.512-2.885c.674-.415 1.382-1.366 1.918-2.642.626-1.666.585-3.243.203-3.99-.805.073-2 .967-2.73 2.673a7.023 7.023 0 0 0-.415 1.74 52.306 52.306 0 0 1-1.382-3.487c.772-.236 1.723-1.154 2.454-2.552.797-1.602.919-3.195.586-3.975-.805-.016-2.09.78-2.959 2.406a6.498 6.498 0 0 0-.69 2.308 42.207 42.207 0 0 1-.692-2.39c-.138-.593-.284-1.186-.422-1.78-.017-.097-.033-.21-.057-.308.374-.805.528-2.162.3-3.715-.292-1.926-1.089-3.381-1.812-3.836-.61.552-1.138 2.227-.837 4.234.211 1.455.788 2.626 1.382 3.284.138 1.057.381 2.317.723 3.755a9.447 9.447 0 0 0-.943-.812c-1.496-1.122-3.016-1.415-3.739-1.049.04.976.902 2.634 2.487 3.747 1.098.789 2.211 1.065 3 1.016a50.955 50.955 0 0 0 1.146 3.227 7.704 7.704 0 0 0-1.081-.74c-1.602-.983-3.138-1.146-3.82-.707.113.976 1.162 2.569 2.86 3.512 1.22.715 2.423.861 3.211.682a58.087 58.087 0 0 0 1.634 3.26 9.14 9.14 0 0 0-1.43-.813c-1.691-.797-3.244-.805-3.87-.276.228.967 1.447 2.454 3.252 3.194 1.381.601 2.633.561 3.373.244a51.455 51.455 0 0 0 2.007 3.113 12.33 12.33 0 0 0-1.552-.634c-1.788-.569-3.349-.382-3.902.219.399.927 1.756 2.301 3.69 2.772 1.74.455 3.097.114 3.675-.463.008.008.016.016.016.024l.35-.276c-.017-.016-.017-.025-.017-.033.675-.422 1.365-1.747 1.544-3.389zM31.32 82.991l.066.008.252-2.032.236-1.91-.065-.008c-.139-.081-1-.569-2.146-1.211l.617-4.918c1.26-.333 2.228-.585 2.374-.61l.057.009.293-2.325.251-1.991-.056-.016c-.155.048-1.122.333-7.625 2.251l-9.689 2.877-.073.537 8.69 5.218c5.827 3.504 6.689 4.04 6.819 4.121zm-8.038-8.51c.561-.073 1.544-.268 3.747-.829h.04l-.332 2.633-.041-.008c-1.983-1.105-2.902-1.56-3.422-1.772l.008-.024zm37.081 62.286c2.064-3.649.886-7.982-2.95-10.128-3.902-2.186-8.454-.951-10.535 2.715-2.064 3.666-.772 8.177 3.032 10.307 3.86 2.162 8.323.878 10.445-2.878l.008-.016zm-3.138-1.658l-.008.016c-1.203 2.122-3.535 3-5.698 1.789-2.178-1.22-2.739-3.699-1.536-5.828 1.22-2.162 3.65-2.91 5.804-1.707 2.056 1.154 2.617 3.641 1.438 5.73zm12.046 5.397l-.04-.008c-.31-1.26-.707-2.56-3.447-10.071l-.422-.089-3.048 7.673c-2.057 5.218-2.317 5.836-2.382 5.958l3.227.959.008-.041c.049-.122.398-1.081 1.244-3.446.26-.691.642-1.772.942-2.869h.025a25.5 25.5 0 0 0 .674 2.609c.293.91.862 2.536 1.675 4.576l.439.106a93.524 93.524 0 0 0 3.39-3.341 24.514 24.514 0 0 0 1.812-2.13l.008.008a46.94 46.94 0 0 0-.39 2.959c-.228 2.52-.309 3.56-.317 3.674l-.016.041 3.454.626s.073-.87.52-6.454l.642-8.234-.439-.098c-5.811 5.641-6.738 6.617-7.559 7.592zM23.233 63.524c1.715.529 3.211-.008 4.34-.593a22.782 22.782 0 0 0 1.87-1.138c.724-.48 1.333-.715 1.878-.545.894.277 1.122 1.106.837 2.073-.211.707-.488 1.252-.796 1.683a6.734 6.734 0 0 1-.586.69l-.008.041c1.723.594 2.114.732 3.276 1.106.585-.65 1.154-1.878 1.48-2.96.926-3.039-.163-5.778-2.756-6.567l-.025-.016c-1.764-.536-3.145-.081-4.682.805-1.04.61-1.78 1.121-2.275 1.35-.48.218-.862.349-1.382.186-.862-.26-1.122-1.17-.805-2.227.114-.382.244-.667.39-.935.139-.244.342-.528.472-.699l.024-.04c-1.707-.561-2.048-.691-3.251-1.106-.35.504-.74 1.414-.96 2.138-1.162 3.796.627 6.039 2.96 6.754zm32.342 22.751a5.365 5.365 0 0 0 1.293 1.707l.032.016c.18.146.358.268.529.374a3.296 3.296 0 0 0-.561.033 2.433 2.433 0 0 0-.691.243.938.938 0 0 0-.463.862c.016.22.065.447.146.675.065.227.179.447.309.674.26.447.617.894 1.105 1.285.317.26.683.487 1.106.658h.008c.211.09.422.162.626.22a3.59 3.59 0 0 0-.52.186 2.41 2.41 0 0 0-.627.447.88.88 0 0 0-.203.91c.09.228.195.423.342.618.146.204.309.382.504.561.39.358.886.667 1.47.894.375.139.79.244 1.236.293h.025l.292.024c.122.009.244.009.366.009a2.64 2.64 0 0 0-.601.487 2.195 2.195 0 0 0-.293.399c-.146.292-.146.625.032.894.147.22.334.398.537.544.203.155.439.277.69.39.505.212 1.09.35 1.716.382.358.017.723.009 1.105-.057h.033c.179-.04.35-.08.504-.121a3.38 3.38 0 0 0-.431.552 1.632 1.632 0 0 0-.187.439.81.81 0 0 0 .284.902c.13.09.26.171.407.244.146.065.293.13.455.171a4.64 4.64 0 0 0 1.065.187 5.085 5.085 0 0 0 2.219-.39h.016c.138-.057.268-.122.398-.179-.113.203-.22.382-.284.593a1.646 1.646 0 0 0-.114.447.82.82 0 0 0 .463.846c.163.081.342.138.545.187.195.04.398.073.61.081.43.024.902-.016 1.381-.138a5.23 5.23 0 0 0 1.496-.634h.016s0-.008.008-.008h.017c.089-.057.17-.114.26-.171a2.553 2.553 0 0 0-.228 1c.016.349.236.65.561.764a2.4 2.4 0 0 0 .683.122c.236.008.487 0 .74-.033a5.26 5.26 0 0 0 .812-.187c.049-.016.098-.04.155-.065-1.211 3.674-3.162 8.462-4.39 10.469 1.707.537 3.731.943 5.658 1 .723-2.081 2.178-6.795 3.194-11.29.081.041.17.089.26.13.26.122.52.203.764.268.252.065.496.106.732.114.235.016.463 0 .69-.049a.916.916 0 0 0 .716-.691c.016-.073.024-.154.032-.235.033-.269 0-.521-.048-.781.065.065.146.139.22.195h.015v.017a4.78 4.78 0 0 0 1.35.78c.455.171.918.26 1.333.276.22.017.43 0 .634-.016.195-.024.39-.065.569-.13a.939.939 0 0 0 .634-.788 2.13 2.13 0 0 0-.008-.456 2.566 2.566 0 0 0-.171-.617 3.178 3.178 0 0 0 .366.227c.699.399 1.43.586 2.105.618a4.85 4.85 0 0 0 1.097-.065c.163-.041.333-.081.471-.13.163-.049.301-.114.448-.195.317-.179.512-.512.471-.87a1.563 1.563 0 0 0-.09-.447 2.379 2.379 0 0 0-.308-.609c.146.065.309.13.48.178l.024.008c.374.098.731.155 1.089.171a5.166 5.166 0 0 0 1.772-.195 3.76 3.76 0 0 0 .764-.317c.236-.122.455-.276.658-.488.22-.235.3-.577.203-.886a1.565 1.565 0 0 0-.203-.422 2.388 2.388 0 0 0-.496-.537c.114.008.244.025.366.04h.317c.447 0 .878-.056 1.284-.162a5.182 5.182 0 0 0 1.634-.731c.22-.146.423-.317.61-.496s.333-.366.471-.577a.864.864 0 0 0-.008-.935 1.907 1.907 0 0 0-.52-.504c-.138-.09-.309-.162-.472-.235.22-.041.439-.09.675-.147.455-.13.87-.317 1.236-.536a5.511 5.511 0 0 0 1.357-1.154c.179-.212.325-.423.447-.635.122-.21.228-.43.293-.65a.826.826 0 0 0-.285-.894 1.867 1.867 0 0 0-.626-.309 2.364 2.364 0 0 0-.552-.097c.203-.09.406-.187.609-.317l.033-.008a6.013 6.013 0 0 0 1.633-1.561 4.63 4.63 0 0 0 .496-.87c.13-.284.22-.577.26-.877.008-.114.008-.22.008-.334a.828.828 0 0 0-.512-.715 2.258 2.258 0 0 0-.65-.138 2.796 2.796 0 0 0-.455.024c.122-.097.252-.195.374-.317l.032-.032a5.352 5.352 0 0 0 1.09-1.57 5.39 5.39 0 0 0 .438-1.592c.025-.212.033-.407.017-.61a2.06 2.06 0 0 0-.106-.585.808.808 0 0 0-.691-.553c-.032 0-.065 0-.097-.008-.171 0-.325.008-.48.04a3.469 3.469 0 0 0-.707.245 4.94 4.94 0 0 0 .39-.61v-.008a5.426 5.426 0 0 0 .626-1.992 4.483 4.483 0 0 0-.033-1.202 3.615 3.615 0 0 0-.13-.537 2.314 2.314 0 0 0-.227-.471.82.82 0 0 0-.862-.366 3.088 3.088 0 0 0-.447.13 2.566 2.566 0 0 0-.544.317c.056-.13.105-.26.146-.398v.008a5.25 5.25 0 0 0 .26-1.187 4.609 4.609 0 0 0-.081-1.585 3.454 3.454 0 0 0-.22-.658 2.215 2.215 0 0 0-.357-.553.826.826 0 0 0-.911-.22c-.3.098-.561.26-.78.456-.041.032-.073.056-.098.09.025-.107.057-.212.082-.318v-.008c.032-.211.073-.415.097-.618a4.84 4.84 0 0 0-.138-1.845 3.77 3.77 0 0 0-.293-.74 2.19 2.19 0 0 0-.463-.601.851.851 0 0 0-.926-.122c-.285.122-.521.317-.74.528l-.04.041c.016-.065.024-.138.032-.211a.754.754 0 0 0 .024-.195c.081-.773 0-1.472-.187-2.065a3.41 3.41 0 0 0-.601-1.13 2.007 2.007 0 0 0-.301-.284.895.895 0 0 0-.943-.065 2.806 2.806 0 0 0-.69.577c-.017.008-.025.032-.042.04.009-.016.009-.04.017-.065 0-.056 0-.097.008-.138.065-.813-.04-1.552-.268-2.154a3.17 3.17 0 0 0-.407-.813c-.081-.121-.178-.227-.26-.34a1.882 1.882 0 0 0-.333-.277c-.276-.195-.642-.195-.951 0-.252.154-.455.35-.634.569-.016.024-.025.032-.04.048a.888.888 0 0 0 .007-.146 4.906 4.906 0 0 0-.365-2.121 3.704 3.704 0 0 0-.44-.789c-.08-.114-.186-.22-.276-.317a3.861 3.861 0 0 0-.341-.268.895.895 0 0 0-.951.04 2.305 2.305 0 0 0-.569.553c-.032.033-.065.082-.09.114v-.17c-.008-.805-.178-1.52-.446-2.098a3.53 3.53 0 0 0-.48-.772 2.11 2.11 0 0 0-.3-.3 2.063 2.063 0 0 0-.342-.252c-.293-.171-.675-.122-.951.08a2.138 2.138 0 0 0-.52.53 4.096 4.096 0 0 0-.504.958c.04-2.39-1.236-4.308-3.024-4.405-1.788-.098-3.454 1.674-3.91 4.031a3.372 3.372 0 0 0-.292-1.008 1.965 1.965 0 0 0-.407-.577.857.857 0 0 0-.926-.178c-.138.056-.269.13-.398.203-.122.081-.244.17-.358.276a3.864 3.864 0 0 0-.634.715 5.496 5.496 0 0 0-.878 2.024c-.016.057-.024.122-.032.171-.025-.032-.033-.081-.057-.122a2.063 2.063 0 0 0-.456-.61.867.867 0 0 0-.934-.13c-.138.057-.269.13-.39.228a3.72 3.72 0 0 0-.35.276 5.452 5.452 0 0 0-.602.732 5.643 5.643 0 0 0-.804 2.056v.008c-.008.05-.008.098-.016.147-.017-.017-.017-.033-.033-.049a2.12 2.12 0 0 0-.504-.634.835.835 0 0 0-.935-.098 3.153 3.153 0 0 0-.39.244 2.287 2.287 0 0 0-.333.301c-.203.22-.398.471-.569.764a5.556 5.556 0 0 0-.707 2.097c0 .049-.008.09-.016.138v.065c-.017-.016-.033-.032-.033-.048a2.25 2.25 0 0 0-.569-.642c-.26-.196-.634-.204-.943-.041a3.555 3.555 0 0 0-.357.252c-.114.097-.212.203-.31.3-.186.228-.365.48-.52.757a5.384 5.384 0 0 0-.617 2.023c0 .065-.008.13-.016.204-.009.073-.009.146-.009.219-.008-.008-.024-.04-.04-.057a2.026 2.026 0 0 0-.61-.593.911.911 0 0 0-.95.024 2.7 2.7 0 0 0-.586.553c-.17.211-.317.439-.447.699a5.31 5.31 0 0 0-.52 1.813 4.247 4.247 0 0 0-.025.951c-.024-.025-.048-.057-.081-.098a2.13 2.13 0 0 0-.683-.536c-.292-.147-.666-.098-.943.121a2.752 2.752 0 0 0-.463.513c-.138.195-.26.406-.358.625-.203.456-.35.976-.414 1.561-.033.374-.033.78.008 1.195.024.146.04.276.065.414a3.04 3.04 0 0 0-.48-.373 2.01 2.01 0 0 0-.422-.188.91.91 0 0 0-.91.277 1.764 1.764 0 0 0-.318.439 3.7 3.7 0 0 0-.243.512c-.13.358-.228.748-.277 1.195a5.251 5.251 0 0 0 .195 2.032c.073.227.155.447.252.642a2.485 2.485 0 0 0-.642-.317c-.146-.04-.3-.073-.463-.081h-.098a.934.934 0 0 0-.796.48c-.098.178-.17.365-.228.56-.057.195-.09.398-.114.618a5.072 5.072 0 0 0 .114 1.617 4.61 4.61 0 0 0 .74 1.666l.032.033c.09.13.196.244.317.35a2.922 2.922 0 0 0-.455-.066c-.22-.008-.447 0-.666.066a.919.919 0 0 0-.659.65c-.032.114-.057.22-.065.325-.024.309 0 .61.065.902.139.325.244.626.382.943zm7.12-3.65c1.106-10.493 21.215-22.14 21.215-22.14s17.451 13.614 16.346 24.108c-1 9.55-8.453 13.671-17.614 13.907.244-3.276.293-7.17-.496-7.17-.796 0-1.975 3.837-2.975 7.088-10.005-.723-17.548-5.551-16.475-15.793z" fill="#000"/></svg>