<svg width="873" height="148" fill="none" xmlns="http://www.w3.org/2000/svg"><path d="M257.911 88.502L212.013 134.4a291.129 291.129 0 0 1-7.281-5.125l.95-.95-1.534-1.097-.932.932a251.788 251.788 0 0 1-7.062-5.399l.859-.859a253.034 253.034 0 0 1-14.033-11.693l-.767.767a251.744 251.744 0 0 1-6.486-6.048l.749-.749a266.055 266.055 0 0 1-7.19-7.19l-.749.75a251.421 251.421 0 0 1-6.048-6.487l.767-.767a252.91 252.91 0 0 1-11.693-14.033l-.859.86a288.59 288.59 0 0 1-5.399-7.063l.932-.931-1.097-1.535-.95.95a289.67 289.67 0 0 1-5.125-7.281l1.033-1.033 43.823-43.823 1.033-1.033a291.133 291.133 0 0 1 7.281 5.125l-.95.95 1.534 1.097.932-.932a251.413 251.413 0 0 1 7.062 5.4l-.859.858a253.09 253.09 0 0 1 14.033 11.694l.767-.768a253.517 253.517 0 0 1 6.486 6.048l-.749.749c2.44 2.348 4.842 4.75 7.19 7.19l.749-.75a251.421 251.421 0 0 1 6.048 6.487l-.767.767a252.91 252.91 0 0 1 11.693 14.033l.859-.859a288.584 288.584 0 0 1 5.399 7.062l-.932.932 1.097 1.534.95-.95a254.235 254.235 0 0 1 5.134 7.272zm-69.778-67.476l-2.924-2.083-12.214 12.215c.795.868 1.59 1.754 2.384 2.622l12.754-12.754zm8.569 6.523l-2.814-2.229-18.938 18.938s1.389 1.974 2.193 2.85l19.559-19.559zm57.792 60.68l-2.083-2.924-12.753 12.753a314.5 314.5 0 0 0 2.622 2.385l12.214-12.215zm-6.386-8.689l-2.229-2.814-19.559 19.56c.886.795 2.85 2.192 2.85 2.192l18.938-18.938zm-30.915-34.222l-2.612-2.448-23.57 23.57s1.534 1.845 2.366 2.695l23.816-23.817zm13.375 13.54l-2.448-2.614-23.817 23.817c.85.831 2.695 2.366 2.695 2.366l23.57-23.57zm-33.327-28.12L180.678 47.3a252.992 252.992 0 0 0 11.675 14.05l18.948-18.947a251.714 251.714 0 0 0-14.06-11.666zm33.784 31.39l-18.957 18.956a251.731 251.731 0 0 0 14.051 11.675l16.572-16.572a251.72 251.72 0 0 0-11.666-14.06zm-9.584-10.132a216.005 216.005 0 0 0-3.636-3.544l-19.422 19.422a219.424 219.424 0 0 0 3.545 3.636 215.23 215.23 0 0 0 3.636 3.545l19.422-19.423a219.815 219.815 0 0 0-3.545-3.636z" fill="#DE5947"/><path fill-rule="evenodd" clip-rule="evenodd" d="M435.069 79.453l-4.302 4.303 2.704 4.44-3.307 3.307-4.44-2.704-44.911 44.91 2.704 4.44-3.307 3.307-4.44-2.704-4.303 4.303-1.288 1.288-11.136-12.287 1.288-1.288-14.316-15.796-1.288 1.288-5.673-6.258 1.288-1.288-5.134-5.664-1.289 1.288-5.673-6.258 1.288-1.288-5.134-5.664-1.288 1.288-5.673-6.258 1.288-1.288-5.134-5.664-1.288 1.288-5.674-6.258 1.288-1.288-5.134-5.664-1.288 1.288-5.673-6.258 1.288-1.288 55.901-55.9 1.288-1.29 6.258 5.674-1.288 1.288 5.664 5.134 1.288-1.288 6.258 5.674-1.288 1.288 5.664 5.134 1.288-1.288 6.258 5.673-1.288 1.288 5.664 5.135 1.288-1.289 6.258 5.674-1.288 1.288 5.664 5.134 1.288-1.288 6.258 5.673-1.288 1.288 15.796 14.316 1.288-1.288 12.287 11.136-1.261 1.26zm-80.951-71.87l-20.089 20.089 2.43 2.43 20.09-20.09-2.431-2.43zm47.753 43.129l-23.041 23.04 2.43 2.43 23.041-23.04-2.43-2.43zm-11.84-10.871l-22.556 22.556 2.43 2.43 22.556-22.556-2.43-2.43zm-11.886-10.845L356.11 51.032l2.43 2.43 22.035-22.035-2.43-2.43zm-12.077-10.633l-21.314 21.313 2.43 2.43 21.314-21.313-2.43-2.43zm64.205 57.5l-24.666 24.666 2.43 2.43 24.666-24.666-2.43-2.43zm-6.294-5.217l-24.127 24.127 2.43 2.43 24.127-24.127-2.43-2.43zm-34.533 16.298c-4.257-4.257-10.049-5.353-12.945-2.457-2.896 2.895-1.791 8.697 2.457 12.945 4.257 4.257 10.05 5.353 12.946 2.457 2.896-2.896 1.79-8.697-2.458-12.945zm-10.223-17.111l19.322-19.322-5.655-5.143-19.011 19.01 5.344 5.455zm20.802 21.24l20.519-20.518-15.759-14.353-19.66 19.66 14.9 15.211zm-32.03-32.705l18.674-18.674-5.664-5.152-18.363 18.362 5.353 5.464zm-10.78-45.496l-17.074 17.075 5.344 5.454 17.376-17.376-5.646-5.153zm-.484 34.012l18.025-18.024-5.655-5.144-17.714 17.714 5.344 5.454z" fill="#C64375"/><path fill-rule="evenodd" clip-rule="evenodd" d="M501.641 37.911l.146-.146c.128-.128.265-.247.411-.375.256-.219.521-.43.795-.63a10.903 10.903 0 0 1 2.558-1.352 10.746 10.746 0 0 1 3.545-.64 10.628 10.628 0 0 1 3.553.558c.96.32 1.873.776 2.695 1.36a10.814 10.814 0 0 1 4.029 5.327c.411 1.197.612 2.476.576 3.755a10.614 10.614 0 0 1-.831 3.9 11.86 11.86 0 0 1-1.042 1.919c-.018.018-.036.055-.055.073a1.735 1.735 0 0 0 .256 2.266 3.212 3.212 0 0 0 3.17.776c4.385-1.224 16.243-3.142 26.969 7.583l12.954 12.954s11.356 12.032 5.527 25.206c3.325 4.147-5.015 14.224-11.529 20.737-6.523 6.523-16.591 14.855-20.738 11.53-13.174 5.828-25.205-5.527-25.205-5.527L496.47 114.23c-10.725-10.725-8.807-22.583-7.582-26.968a3.213 3.213 0 0 0-.777-3.17 153.65 153.65 0 0 1-3.024-3.39 4.394 4.394 0 0 1-1.087-3.48c1.809-14.837-8.834-24.84-10.57-26.375a.529.529 0 0 0-.539-.1c-.374.118-1.005.328-1.498.493a1.076 1.076 0 0 1-1.151-.31 8656.354 8656.354 0 0 1-8.88-9.83 1.277 1.277 0 0 1 .046-1.764l.411-.411a1.143 1.143 0 0 1-1.215-.265 1.153 1.153 0 0 1-.028-1.599l-.438-.438s-2.302-1.407-3.782-2.32a1.145 1.145 0 0 1-.53-.823 1.137 1.137 0 0 1 .329-.932l4.238-4.239-.009.01 2.367-2.367-2.358 2.357 6.359-6.358a1.14 1.14 0 0 1 .932-.329c.347.037.648.228.822.53.914 1.48 2.32 3.782 2.32 3.782l.439.439a1.154 1.154 0 0 1 1.599.027c.329.329.42.804.265 1.215l.411-.411a1.278 1.278 0 0 1 1.763-.046c2.256 2.037 8.058 7.272 9.83 8.88.32.283.448.74.31 1.151-.155.484-.374 1.124-.493 1.498a.545.545 0 0 0 .101.54c.429.484 1.507 1.653 3.151 3.06a2.651 2.651 0 0 0 2.823.393c3.244-1.434 10.616-4.769 10.616-4.769zm17.157 23.497c-1.124 3.992-2.723 14.306 6.742 23.77l12.909 12.91c.593.538 10.908 9.629 21.615 4.896l3.846-3.846c4.75-10.725-4.395-21.058-4.897-21.615l-12.909-12.908c-9.446-9.447-19.778-7.866-23.707-6.77l-3.599 3.563zm-13.32-19.514a3.95 3.95 0 0 0-.502.612 4.815 4.815 0 0 0-.64 1.243 5.228 5.228 0 0 0 .484 4.503 5.35 5.35 0 0 0 1.343 1.453c.411.302.868.54 1.343.703.612.21 1.243.311 1.882.293a5.246 5.246 0 0 0 1.864-.402 5.265 5.265 0 0 0 2.814-2.832 5.045 5.045 0 0 0 .374-1.873 5.082 5.082 0 0 0-.311-1.882 4.856 4.856 0 0 0-.73-1.334 5.213 5.213 0 0 0-1.49-1.343 4.878 4.878 0 0 0-1.37-.566 5.213 5.213 0 0 0-3.124.164 4.916 4.916 0 0 0-1.224.658 5.373 5.373 0 0 0-.613.52c-.036.02-.063.047-.1.083zm-23.899-5.024l-6.751-6.149a.666.666 0 0 0-.914.018l-3.115 3.116a.661.661 0 0 0 0 .931l6.45 6.45a.662.662 0 0 0 .932 0l3.416-3.416c.274-.256.256-.695-.018-.95z" fill="#B22F9E"/><path fill-rule="evenodd" clip-rule="evenodd" d="M717.015 101.366c3.398 3.398-.466 12.762-8.615 20.911-8.149 8.149-17.513 12.014-20.912 8.615-3.115-3.115-.128-11.255 6.688-18.874l-27.389-27.389a5.555 5.555 0 0 0-4.12-1.617l-21.889.768a12.38 12.38 0 0 1-10.397-5.007l-28.421-38.36 24.575-24.575 38.361 28.421a12.368 12.368 0 0 1 5.006 10.396l-.767 21.89a5.554 5.554 0 0 0 1.617 4.12l27.388 27.388c7.62-6.815 15.759-9.802 18.875-6.687zm-91.668-79.48l-6.294 6.294 34.195 34.195 8.67-8.67-36.571-31.82z" fill="#9C1BC8"/><path fill-rule="evenodd" clip-rule="evenodd" d="M3.746 59.015c-.43.43-1.014.32-1.435-.1a1.092 1.092 0 0 1 0-1.535l32.277-32.276a1.094 1.094 0 0 1 1.544-.01c.42.42.52 1.015.1 1.435l8.268 4.138c.402.201.776.466 1.096.786L98.053 83.91a4.637 4.637 0 0 1 .75 5.59 4.626 4.626 0 0 1-.202 4.55c-6.989 11.155-16.106 20.236-27.306 27.307a4.644 4.644 0 0 1-4.559.21 4.66 4.66 0 0 1-5.61-.749L8.68 68.37a4.226 4.226 0 0 1-.786-1.096l-4.147-8.259zM31.81 42.041l9.556-9.556-6.989-3.426-7.774 7.775 5.207 5.207zM94.07 85.19l-50-50-9.556 9.556 53.033 53.033c3.974-3.974 6.057-7.39 7.062-9.383.53-1.06.31-2.356-.54-3.206z" fill="#FD760A"/><path d="M817.279 56.214l49.588 49.589a8.226 8.226 0 0 1 0 11.639l-15.668 15.667a8.226 8.226 0 0 1-11.639 0l-49.588-49.588a17.81 17.81 0 0 1-3.782-5.573l-9.666-22.492a23.394 23.394 0 0 0-4.239-6.56l-14.078-15.338-.548.018a2.2 2.2 0 0 1-2.275-2.037l-.146-2.083a.977.977 0 0 0-.612-.831l-.813-.302a1.407 1.407 0 0 1-.502-2.311l6.449-6.45a1.407 1.407 0 0 1 2.312.503l.301.813a.956.956 0 0 0 .832.612l2.083.146a2.187 2.187 0 0 1 2.037 2.275l-.018.548 15.338 14.078a23.49 23.49 0 0 0 6.56 4.239l22.492 9.665a17.626 17.626 0 0 1 5.582 3.773zm-6.87-.767l-22.492-9.666a26.195 26.195 0 0 1-7.473-4.841l-16.463-15.11.037-1.006-1.033-.064a4.15 4.15 0 0 1-2.622-1.16l-1.343 1.343c.695.676 1.508 1.197 2.321 1.462l.831.265.183.785 16.17 15.385a43.63 43.63 0 0 0 6.925 5.39l19.815 12.342a24.017 24.017 0 0 1 4.257 3.398l49.589 49.589c1.937 1.937 2.594 4.422 1.461 5.554l3.984-3.983a4.964 4.964 0 0 0 0-7.016l-49.589-49.588a14.346 14.346 0 0 0-4.558-3.079z" fill="#8001FF"/></svg>