<svg width="968" height="189" fill="none" xmlns="http://www.w3.org/2000/svg"><path d="M295.677 111.465l1.169-1.169-.929-1.369a329.036 329.036 0 0 0-6.142-8.735l-.318-.436.003-.003-.313-.424-.749-1.029-.006.006a328.616 328.616 0 0 0-6.425-8.414l-1.393-1.766-1.016 1.016a303.98 303.98 0 0 0-11.377-13.638l.929-.93-1.274-1.41a329.383 329.383 0 0 0-7.259-7.78l-1.414-1.467-.901.901a305.544 305.544 0 0 0-5.741-5.74l.901-.902-1.467-1.413a326.805 326.805 0 0 0-7.779-7.26l-1.411-1.274-.93.93a304.2 304.2 0 0 0-13.637-11.378l1.015-1.016-1.766-1.393a329.228 329.228 0 0 0-8.414-6.425l.006-.006-1.067-.776-.385-.284-.002.002-.438-.319a328.8 328.8 0 0 0-8.735-6.142l-1.369-.929-1.169 1.17-1.236 1.236-52.306 52.306-1.237 1.237-1.17 1.17.93 1.368a332.654 332.654 0 0 0 6.142 8.734l.318.438-.003.003.331.447.73 1.004.007-.006a332.835 332.835 0 0 0 6.425 8.413l1.394 1.766 1.014-1.013a304.66 304.66 0 0 0 11.378 13.637l-.929.929 1.275 1.41a331.432 331.432 0 0 0 7.257 7.78l1.414 1.468.902-.901a307.625 307.625 0 0 0 5.741 5.74l-.902.902 1.468 1.414a333.617 333.617 0 0 0 7.78 7.258l1.41 1.274.929-.929a305.47 305.47 0 0 0 13.637 11.379l-1.013 1.013 1.766 1.394a333.425 333.425 0 0 0 8.413 6.426l-.006.006 1.004.731.443.327.003-.003.442.322a325.082 325.082 0 0 0 8.735 6.141l1.368.93 1.17-1.17 54.779-54.779z" stroke="#fff" stroke-width="4"/><path fill-rule="evenodd" clip-rule="evenodd" d="M260.781 74.114L257.856 71l-28.423 28.423c1.019.995 3.217 2.822 3.217 2.822l28.131-28.131zm-14.907-15.096l-3.113-2.924-28.131 28.131s1.827 2.198 2.821 3.216l28.423-28.423zM282.43 99.35L279.777 96l-23.344 23.345c1.051.95 3.397 2.605 3.397 2.605l22.6-22.6zm7.705 10.136L287.65 106l-15.217 15.217c1.041.951 2.083 1.9 3.125 2.846l14.577-14.577zM221.777 38l-3.347-2.652-22.601 22.6s1.653 2.345 2.604 3.396L221.777 38zm-10.141-9.015L208.15 26.5l-14.577 14.577c.946 1.042 1.894 2.084 2.846 3.125l15.217-15.217z" fill="#DE5947"/><path d="M485.875 84.925L469.95 70.5l.055-.054 1.485-1.486-1.557-1.41-7.48-6.777-1.411-1.278-1.346 1.346-.194.195-3.805-3.445.055-.055 1.486-1.486-1.558-1.411-7.48-6.773-1.411-1.278-1.346 1.346-.193.193-3.805-3.447.054-.054 1.486-1.486-1.558-1.41-7.479-6.775-1.41-1.278-1.346 1.346-.194.193-3.804-3.445.054-.054 1.486-1.486-1.558-1.41-7.479-6.776-1.411-1.278-1.346 1.346-.194.194-3.804-3.445.054-.055 1.486-1.486-1.558-1.41-7.481-6.775-1.411-1.278-1.346 1.346-1.539 1.539-66.971 66.97-1.54 1.54-1.346 1.347 1.278 1.41 6.776 7.482 1.41 1.557 1.486-1.486.054-.054 3.446 3.804-.193.193-1.346 1.346 1.278 1.411 6.776 7.479 1.411 1.557 1.485-1.485.053-.053 3.446 3.803-.194.194-1.346 1.346 1.278 1.411 6.775 7.479 1.411 1.557 1.486-1.486.054-.054 3.447 3.805-.194.194-1.346 1.346 1.278 1.411 6.774 7.479 1.411 1.558 1.486-1.486.053-.053 3.446 3.803-.194.194-1.346 1.346 1.278 1.411 6.777 7.48 1.411 1.557 1.485-1.486.053-.053 14.425 15.923-.194.194-1.346 1.347 1.278 1.41 13.314 14.698 1.411 1.557 1.485-1.486 1.539-1.539 4.05-4.049 3.97 2.418 1.343.818 1.111-1.112 3.96-3.959 1.111-1.112-.817-1.343-2.418-3.97 51.59-51.591 3.971 2.418 1.343.818 1.111-1.112 3.96-3.96 1.112-1.112-.818-1.343-2.418-3.969 4.048-4.049 1.54-1.539 1.485-1.486-1.557-1.41-14.698-13.314-1.411-1.278-1.346 1.346-.192.193z" stroke="#fff" stroke-width="4"/><path d="M431.941 108.511c1.132-1.132 2.987-1.645 5.359-1.198 2.36.444 5.014 1.822 7.31 4.118 2.295 2.295 3.673 4.949 4.118 7.309.446 2.372-.067 4.227-1.198 5.359-1.132 1.132-2.986 1.644-5.357 1.197-2.36-.445-5.014-1.823-7.309-4.119-2.296-2.296-3.675-4.95-4.12-7.309-.447-2.372.066-4.226 1.197-5.357z" stroke="#C64375" stroke-width="4"/><path fill-rule="evenodd" clip-rule="evenodd" d="M461.372 122.287l28.907-28.908-2.904-2.904-28.907 28.908 2.904 2.904zm6.879 6.878l29.55-29.55-2.904-2.904-29.55 29.55 2.904 2.904zm-72.752-72.75l25.533-25.533-2.904-2.904-25.533 25.533 2.904 2.904zm13.581 13.581l26.404-26.403-2.904-2.904-26.404 26.403 2.904 2.904zm13.582 13.581l27.029-27.03-2.904-2.904-27.029 27.03 2.904 2.904zm13.579 13.582l27.608-27.609-2.904-2.904-27.608 27.608 2.904 2.905zm-53.554-55.095l24.07-24.07-2.904-2.904-24.07 24.07 2.904 2.904z" fill="#C64375"/><path clip-rule="evenodd" d="M568.496 50.755c.058-.058.117-.117.176-.173.16-.152.322-.3.485-.445a12.762 12.762 0 0 1 4.021-2.368 12.865 12.865 0 0 1 4.241-.77 12.79 12.79 0 0 1 7.481 2.29 12.921 12.921 0 0 1 2.976 2.887 12.802 12.802 0 0 1 1.835 3.48 12.9 12.9 0 0 1-.306 9.15 12.72 12.72 0 0 1-1.249 2.286l-.064.093a2.064 2.064 0 0 0 .307 2.71 3.803 3.803 0 0 0 3.778.928c5.243-1.464 19.411-3.75 32.227 9.067l15.478 15.477s13.569 14.379 6.596 30.119c3.968 4.956-5.99 16.99-13.78 24.78-7.789 7.79-19.825 17.749-24.78 13.78-15.74 6.972-30.119-6.597-30.119-6.597l-15.477-15.477c-12.816-12.816-10.53-26.984-9.054-32.222a3.822 3.822 0 0 0-.932-3.792 189.08 189.08 0 0 1-3.614-4.044 5.262 5.262 0 0 1-1.298-4.154c2.165-17.734-10.547-29.683-12.628-31.51-1.099-.924-2.641 1.387-3.809.094L520.378 54.59c-1.378-1.533.472-1.54-.91-2.922-.917-.916.252-1.616-.56-2.428l-4.515-2.77c-.732-.447-.854-1.495-.248-2.1L526.8 31.713a1.36 1.36 0 0 1 2.103.247l2.77 4.515c.812.811 1.512-.355 2.428.56 1.379 1.38 1.395-.467 2.921.911 2.693 2.43 9.626 8.69 11.754 10.608 1.289 1.17-1.024 2.716-.093 3.808.507.58 1.797 1.978 3.771 3.656a3.18 3.18 0 0 0 3.373.476l12.669-5.74z" stroke="#fff" stroke-width="4"/><path fill-rule="evenodd" clip-rule="evenodd" d="M543.873 49.242l-8.065-7.352a.792.792 0 0 0-1.094.026l-3.721 3.721a.791.791 0 0 0-.001 1.12l7.709 7.709a.793.793 0 0 0 1.12 0l4.079-4.079a.792.792 0 0 0-.027-1.145zm29.265 6.622c-.2.208-.385.43-.551.667-.295.416-.53.87-.7 1.35a5.756 5.756 0 0 0-.107 3.506 5.627 5.627 0 0 0 2.097 2.99c.448.33.944.59 1.467.774a5.733 5.733 0 0 0 4.089-.123 5.664 5.664 0 0 0 1.836-1.246 5.674 5.674 0 0 0 1.219-1.844 5.731 5.731 0 0 0 .074-4.09 5.717 5.717 0 0 0-2.42-2.924 5.569 5.569 0 0 0-1.487-.62 5.767 5.767 0 0 0-3.407.173c-.477.176-.93.418-1.34.717a5.864 5.864 0 0 0-.77.67z" fill="#B22F9E"/><path d="M599.968 106.084c-9.071-9.071-7.952-18.836-6.867-23.083l3.119-3.09c4.187-1.058 13.971-2.162 23.027 6.894l13.831 13.832c.348.39 2.667 3.075 4.365 6.939 1.722 3.922 2.707 8.823.654 13.767l-3.593 3.592c-4.933 2.049-9.822 1.072-13.74-.644-3.871-1.696-6.566-4.021-6.967-4.378l-13.829-13.829z" stroke="#B22F9E" stroke-width="4"/><path clip-rule="evenodd" d="M814.127 125.53c4.07 4.07-.502 15.241-10.212 24.951-9.712 9.711-20.883 14.284-24.952 10.214-3.734-3.734-.189-13.445 7.922-22.523l-32.815-32.814a6.67 6.67 0 0 0-4.924-1.953l-26.146.844a14.903 14.903 0 0 1-12.44-6.022l-34.095-45.93 29.264-29.265 45.931 34.095a14.909 14.909 0 0 1 6.022 12.44l-.843 26.145a6.664 6.664 0 0 0 1.951 4.925l32.815 32.815c9.078-8.11 18.789-11.656 22.522-7.922z" stroke="#fff" stroke-width="4"/><path d="M737.424 75.454l-34.678-35.439 4.764-4.764 37.299 32.818-7.385 7.385z" stroke="#9C1BC8" stroke-width="4"/><path d="M6.307 73.83l-.585-1.176 35.93-35.93 1.178.584 9.896 4.922.002.001c.293.146.559.337.789.567l.01.01c5.66 5.66 50.477 50.477 62.669 62.677v.001c1.128 1.127 1.361 2.888.55 4.301l-.535.932.481.96a3.592 3.592 0 0 1-.177 3.511c-8.3 13.181-19.082 23.933-32.324 32.318a3.6 3.6 0 0 1-3.523.18l-.96-.48-.93.534c-1.415.811-3.178.578-4.307-.551L11.798 84.517a2.958 2.958 0 0 1-.564-.784l-.004-.007-4.923-9.896z" stroke="#fff" stroke-width="4"/><path d="M44.368 57.404L50 51.77l58.342 58.343c.146.145.295.287.428.414l.046.044c.119.113.226.215.33.316.202.199.342.349.438.47l-.176.353c-.473.948-.842 1.688-1.503 2.645-.624.903-1.522 2.014-3.006 3.579l-60.531-60.53zm-7.204-4.49L43.75 46" stroke="#FD760A" stroke-width="4"/><path d="M845.723 73.12l11.479 26.856a23.19 23.19 0 0 0 4.928 7.286l59.099 59.099c4.622 4.622 12.12 4.591 16.75-.038l18.776-18.776c4.627-4.628 4.661-12.128.038-16.75l-59.098-59.099a23.206 23.206 0 0 0-7.287-4.926l-26.857-11.479a25.613 25.613 0 0 1-7.253-4.682h-.001L838.691 34.46a4.601 4.601 0 0 0-4.306-4.507h-.001l-1.924-.123-.16-.431-.001-.002c-.941-2.525-4.166-3.19-6.051-1.305l-7.726 7.726c-1.884 1.883-1.221 5.11 1.307 6.052h.001l.43.16.124 1.923v.001a4.598 4.598 0 0 0 4.505 4.306l16.153 17.605a25.622 25.622 0 0 1 4.681 7.255z" stroke="#fff" stroke-width="4"/><path d="M886.966 73.517a15.228 15.228 0 0 1 4.812 3.252l59.099 59.099c1.519 1.52 1.524 4.019-.022 5.565l-1.395 1.395c-.518-1.151-1.303-2.272-2.287-3.256l-59.098-59.099a30.326 30.326 0 0 0-5.434-4.33l-23.159-14.381a37.733 37.733 0 0 0 .629.276l26.855 11.479z" stroke="#8001FF" stroke-width="4"/></svg>