<svg width="191" height="158" viewBox="0 0 191 158" fill="none" xmlns="http://www.w3.org/2000/svg"><path d="M160.526 2.057h-36.91v153.72h36.91V2.057z" fill="#DE4828"/><path d="M160.526 157.834h-36.91a2.06 2.06 0 0 1-2.058-2.057V2.057A2.06 2.06 0 0 1 123.616 0h36.91c1.135 0 2.057.923 2.057 2.057v153.72a2.055 2.055 0 0 1-2.057 2.057zm-34.853-4.114h32.796V4.114h-32.796V153.72z" fill="#101D32"/><path d="M160.526 2.057h-36.91v153.72h36.91V2.057z" fill="#DE4828"/><path d="M160.526 157.834h-36.91a2.06 2.06 0 0 1-2.058-2.057V2.057A2.06 2.06 0 0 1 123.616 0h36.91c1.135 0 2.057.923 2.057 2.057v153.72a2.055 2.055 0 0 1-2.057 2.057zm-34.853-4.114h32.796V4.114h-32.796V153.72z" fill="#101D32"/><path fill-rule="evenodd" clip-rule="evenodd" d="M129.17 5.207c.64 5.137.64 12.079.64 14.23s.488 11.05.488 12.296c0 1.246 1.746 6.894 1.317 9.586-.435 2.692-.065 28.935-.065 30.328 0 1.393-.599 20.353-.17 23.468.429 3.116 2.592 13.137 2.592 14.53 0 1.393-1.029 17.044-.711 20.471.323 3.427 1.293 12.825 1.293 14.106 0 1.281.963 11.555.963 11.555h16.745s.958-15.916 1.282-20.618c.323-4.702-.465-20.677-.465-25.173 0-4.497-.27-8.811-.27-12.12 0-3.309.635-12.437.635-16.615 0-4.18 1.81-9.463 1.81-11.468 0-2.004 1.07-21.37 1.07-23.38 0-2.01-1.376-15.51-1.376-20.113 0-4.602.823-16.428.823-16.428l-.011-7.805h-7.512s-1.187 7.958-1.187 10.374c0 2.416-.27 13.824-.27 15.593 0 1.769-1.587 40.713-1.587 43.558 0 2.845.135 14.476.135 15.54 0 1.064-1.193 33.561-1.193 33.561l-4.579-39.35.106-9.798.411-28.67s-.905-7.389-.905-11.144c0-3.756-.646-11.367-.646-11.367l.399-18.303h-9.915c.006.006-.488-1.986.153 3.156z" fill="#DF4928"/><path opacity=".5" d="M136.852.535c.023 0 .047 0 .07.006.976.211 1.093 1.869-.135 1.963h-.006s-.876-.159-.976-.847c-.082-.581.4-1.122 1.041-1.122h.006zm-3.95 0h.071c.969.211 1.157 1.863-.136 1.963h-.006s-.769-.112-.946-.711c-.176-.6.306-1.258 1.011-1.258l.006.006zm15.787 0c.023 0 .047 0 .076.006.982.211 1.029 1.875-.135 1.963h-.006s-.47-.024-.746-.341c-.494-.57-.077-1.622.799-1.628h.012zm3.955 0h.071c.97.211 1.158 1.863-.135 1.963h-.006s-.77-.112-.946-.711c-.177-.6.305-1.258 1.011-1.258l.005.006zm1.969 2.627a.29.29 0 0 1 .071.006c.97.212 1.158 1.863-.135 1.963h-.006s-.67-.082-.899-.576c-.282-.611.205-1.387.958-1.387h.011v-.006zm-3.949 0c.023 0 .047 0 .076.006.964.212 1.158 1.863-.135 1.963h-.006s-.47-.023-.746-.34c-.494-.57-.077-1.623.799-1.629h.012zm-15.787 0c.023 0 .047 0 .07.006.976.212 1.094 1.869-.135 1.963h-.006s-.67-.082-.899-.576c-.282-.611.206-1.387.958-1.387h.012v-.006zm-3.973 0c.029 0 .064 0 .1.006.981.212 1.028 1.875-.136 1.963h-.006s-1.739-.782-.646-1.734c.182-.158.423-.235.682-.235h.006zm21.811 2.604c.97.211 1.158 1.869-.141 1.963 0 0-.67-.076-.899-.576-.288-.635.247-1.446 1.04-1.387zm-3.95 0c.982.211 1.029 1.88-.141 1.963 0 0-.57-.047-.828-.453-.394-.61.082-1.575.969-1.51zm-11.843 0c.976.211 1.093 1.875-.141 1.963 0 0-.987-.206-.987-.987 0-.565.499-1.023 1.128-.976zm-3.949 0c.969.211 1.157 1.869-.142 1.963 0 0-.769-.112-.946-.711-.182-.623.347-1.305 1.088-1.252zm21.717 2.627c.958.206 1.234 1.863-.141 1.963 0 0-1.74-.787-.647-1.734.206-.182.488-.252.788-.229zm-3.95 0c.952.206 1.093 1.875-.141 1.963 0 0-.67-.076-.899-.576-.288-.635.247-1.446 1.04-1.387zm-15.793 0c.976.212 1.094 1.875-.141 1.963 0 0-.77-.111-.946-.711-.182-.623.347-1.305 1.087-1.252zm-3.949 0c.958.206 1.234 1.863-.141 1.963 0 0-.77-.111-.947-.711-.182-.623.347-1.305 1.088-1.252zm21.717 2.598c.97.212 1.158 1.869-.141 1.963 0 0-.47-.024-.746-.34-.512-.589-.053-1.688.887-1.623zm-3.95 0c.976.212 1.094 1.875-.141 1.963 0 0-.875-.159-.975-.846-.089-.6.435-1.164 1.116-1.117zm-11.843 0c.97.212 1.158 1.869-.141 1.963 0 0-1.74-.788-.646-1.734.211-.176.487-.247.787-.23zm-3.949 0c.981.212 1.028 1.88-.142 1.963 0 0-.67-.076-.899-.576-.288-.635.247-1.44 1.041-1.387zm21.717 2.627c.97.212 1.158 1.87-.141 1.963 0 0-1.74-.781-.647-1.734.206-.176.488-.246.788-.229zm-3.95 0c.929.206 1.158 1.87-.141 1.963 0 0-.57-.047-.829-.452-.393-.612.083-1.575.97-1.51zm-15.793 0c.97.212 1.158 1.87-.141 1.963 0 0-.987-.205-.987-.987 0-.558.505-1.017 1.128-.976zm-3.949 0c.958.206 1.234 1.863-.141 1.963 0 0-.571-.047-.829-.452-.394-.612.088-1.575.97-1.51zm21.717 2.604c.97.211 1.158 1.869-.141 1.963 0 0-.47-.023-.746-.34-.512-.589-.053-1.694.887-1.623zm-3.95 0c.97.211 1.158 1.869-.141 1.963 0 0-1.739-.788-.646-1.734.211-.182.488-.253.787-.23zm-11.843 0c.97.211 1.158 1.869-.141 1.963 0 0-1.875-.952-.535-1.816.194-.13.429-.165.676-.147zm-3.949 0c.975.211 1.093 1.875-.142 1.963 0 0-.769-.112-.946-.711-.182-.623.347-1.305 1.088-1.252zm-1.975 2.627c.969.212 1.158 1.87-.141 1.963 0 0-.77-.111-.947-.71-.182-.624.347-1.306 1.088-1.253zm3.949 0c.958.206 1.235 1.863-.141 1.963 0 0-.77-.111-.946-.71-.182-.624.347-1.306 1.087-1.253zm15.793 0c.976.212 1.093 1.875-.141 1.963 0 0-.57-.047-.829-.452-.393-.617.083-1.575.97-1.51zm3.95 0c.97.212 1.158 1.87-.141 1.963 0 0-.47-.023-.747-.34-.511-.594-.053-1.693.888-1.623zm-21.717 2.598c.958.206 1.234 1.863-.142 1.963 0 0-.67-.076-.899-.576-.288-.635.247-1.44 1.041-1.387zm3.949 0c.976.212.999 1.88-.141 1.963 0 0-1.74-.782-.646-1.734.211-.176.487-.247.787-.229zm11.843 0c.958.206 1.235 1.863-.141 1.963 0 0-.47-.023-.746-.34-.511-.589-.053-1.688.887-1.623zm3.95 0c.97.212 1.158 1.87-.141 1.963 0 0-.47-.023-.746-.34-.512-.589-.053-1.688.887-1.623zm1.975 2.627c.97.212 1.158 1.87-.141 1.963 0 0-1.74-.787-.647-1.733.206-.177.488-.253.788-.23zm-3.95 0c.97.212 1.158 1.87-.141 1.963 0 0-.57-.047-.829-.452-.393-.611.083-1.575.97-1.51zm-15.793 0c.97.212 1.158 1.87-.141 1.963 0 0-.77-.111-.946-.71-.182-.624.347-1.306 1.087-1.253zm-3.949 0c.975.212 1.093 1.875-.141 1.963 0 0-.471-.023-.747-.34-.505-.588-.047-1.687.888-1.623zm21.717 2.604c.97.212 1.158 1.869-.141 1.963 0 0-.67-.076-.899-.576-.288-.64.247-1.446 1.04-1.387zm-3.95 0c.97.212 1.158 1.869-.141 1.963 0 0-.47-.023-.746-.34-.511-.595-.053-1.694.887-1.623zm-15.792 0c.969.212 1.157 1.869-.142 1.963 0 0-.67-.076-.899-.576-.288-.64.247-1.446 1.041-1.387zm3.949 0c.958.206 1.234 1.863-.141 1.963 0 0-1.74-.782-.646-1.734.211-.182.487-.253.787-.229zm17.768 2.621c.97.212 1.158 1.87-.141 1.963 0 0-.47-.023-.747-.34-.511-.588-.053-1.687.888-1.623zm-3.95 0c.976.212 1.093 1.875-.141 1.963 0 0-1.74-.781-.646-1.733.211-.177.487-.247.787-.23zm-15.793 0c.976.212 1.094 1.875-.141 1.963 0 0-.57-.047-.828-.452-.394-.611.088-1.57.969-1.51zm-3.949 0c.975.212 1.093 1.875-.141 1.963 0 0-.876-.158-.976-.846-.088-.6.441-1.164 1.117-1.117zm21.717 2.604c.97.212 1.158 1.87-.141 1.963 0 0-.77-.111-.946-.711-.183-.623.341-1.305 1.087-1.252zm-3.95 0c.97.212 1.158 1.87-.141 1.963 0 0-.77-.111-.946-.711-.182-.623.341-1.305 1.087-1.252zm-11.843 0c.976.212 1.093 1.875-.141 1.963 0 0-.67-.082-.899-.576-.288-.635.247-1.446 1.04-1.387zm-3.949 0c.969.212 1.157 1.87-.142 1.963 0 0-.987-.206-.987-.987 0-.564.506-1.023 1.129-.976zm21.717 2.627c.976.212 1.093 1.875-.141 1.963 0 0-.47-.023-.747-.34-.511-.588-.053-1.693.888-1.623zm-3.95 0c.976.212 1.093 1.875-.141 1.963 0 0-.57-.047-.829-.452-.393-.617.083-1.575.97-1.51zm-15.793 0c.97.212 1.158 1.87-.141 1.963 0 0-.77-.111-.946-.71-.182-.624.347-1.306 1.087-1.253zm-3.949 0c.975.212.999 1.881-.141 1.963 0 0-1.74-.781-.647-1.733.212-.183.488-.253.788-.23zm21.717 2.598c.97.212 1.158 1.87-.141 1.963 0 0-.47-.023-.746-.34-.512-.588-.053-1.688.887-1.623zm-3.95 0c.976.212 1.094 1.875-.141 1.963 0 0-.77-.111-.946-.71-.182-.618.341-1.306 1.087-1.253zm-11.843 0c.982.212 1.029 1.881-.141 1.963 0 0-.67-.076-.899-.576-.288-.635.247-1.44 1.04-1.387zm-3.949 0c.975.212 1.093 1.875-.142 1.963 0 0-.987-.2-.987-.987 0-.559.506-1.017 1.129-.976zm21.717 2.627c.976.212.999 1.881-.141 1.963 0 0-.988-.205-.988-.987 0-.558.5-1.017 1.129-.976zm-3.95 0c.97.212 1.158 1.87-.141 1.963 0 0-.57-.047-.829-.452-.393-.611.083-1.575.97-1.51zm-3.949 0c.969.212 1.157 1.87-.142 1.963 0 0-.987-.205-.987-.987 0-.558.506-1.017 1.129-.976zm-7.894 0c.958.206 1.234 1.864-.141 1.963 0 0-1.74-.787-.647-1.733.212-.177.488-.253.788-.23zm-3.95 0c.97.212 1.158 1.87-.141 1.963 0 0-.67-.082-.899-.576-.288-.634.247-1.445 1.04-1.387zm-3.949 0c.958.206 1.234 1.864-.141 1.963 0 0-1.74-.787-.647-1.733.212-.177.488-.253.788-.23zm1.975 2.604c.958.206 1.234 1.863-.142 1.963 0 0-.769-.111-.946-.711-.182-.623.347-1.305 1.088-1.252zm3.949 0c.958.206 1.234 1.863-.141 1.963 0 0-.77-.111-.946-.711-.182-.623.341-1.305 1.087-1.252zm11.843 0c.982.212 1.029 1.88-.141 1.963 0 0-.77-.111-.946-.711-.182-.623.341-1.305 1.087-1.252zm3.95 0c.97.212 1.158 1.87-.141 1.963 0 0-.77-.111-.946-.711-.183-.623.341-1.305 1.087-1.252zm1.975 2.627c.97.212 1.158 1.87-.141 1.964 0 0-.67-.077-.899-.577-.288-.64.241-1.445 1.04-1.387zm-3.95 0c.97.212 1.158 1.87-.141 1.964 0 0-.57-.048-.829-.453-.393-.617.083-1.575.97-1.51zm-3.949 0c.958.206 1.234 1.864-.142 1.964 0 0-.47-.024-.746-.341-.511-.594-.047-1.693.888-1.623zm-7.894 0c.958.206 1.234 1.864-.141 1.964 0 0-.47-.024-.746-.341-.512-.594-.053-1.693.887-1.623zm-3.95 0c.958.206 1.235 1.864-.141 1.964 0 0-.57-.048-.828-.453-.394-.617.088-1.575.969-1.51zm-3.949 0c.969.212 1.058 1.881-.141 1.964 0 0-.571-.048-.829-.453-.394-.617.088-1.575.97-1.51zm5.924 2.598c.958.206 1.234 1.863-.141 1.963 0 0-.57-.047-.829-.452-.399-.611.083-1.575.97-1.51zm-3.949 0c.969.212 1.157 1.87-.142 1.963 0 0-.769-.111-.946-.71-.182-.618.347-1.306 1.088-1.253zm15.792 0c.97.212 1.158 1.87-.141 1.963 0 0-.57-.047-.828-.452-.394-.611.082-1.575.969-1.51zm3.95 0c.952.206 1.093 1.875-.141 1.963 0 0-.77-.111-.946-.71-.183-.618.341-1.306 1.087-1.253zm1.975 2.627c.97.212 1.158 1.87-.141 1.964 0 0-.77-.112-.946-.712-.189-.623.34-1.304 1.087-1.252zm-3.95 0c.97.212 1.158 1.87-.141 1.964 0 0-.57-.047-.829-.453-.393-.617.083-1.575.97-1.51zm-3.949 0c.958.206 1.234 1.864-.142 1.964 0 0-.77-.112-.946-.712-.182-.623.347-1.304 1.088-1.252zm-7.894 0c.976.212 1.093 1.875-.141 1.964 0 0-.876-.16-.976-.847-.088-.605.435-1.164 1.117-1.117zm-3.95 0c.976.212 1 1.881-.141 1.964 0 0-.875-.16-.975-.847-.089-.605.44-1.164 1.116-1.117zm-3.949 0c.952.206 1.093 1.875-.141 1.964 0 0-1.875-.953-.535-1.817.2-.123.435-.164.676-.146zm21.717 2.598c.97.212 1.158 1.87-.141 1.963 0 0-.77-.111-.946-.71-.183-.618.341-1.306 1.087-1.253zm-3.95 0c.976.212 1.094 1.875-.141 1.963 0 0-.77-.111-.946-.71-.182-.618.341-1.306 1.087-1.253zm-11.843 0c.97.212 1.058 1.881-.141 1.963 0 0-.77-.111-.946-.71-.182-.618.341-1.306 1.087-1.253zm-3.949 0c.969.212 1.157 1.87-.142 1.963 0 0-.987-.205-.987-.987 0-.558.506-1.017 1.129-.976zm21.717 2.628c.97.211 1.158 1.869-.141 1.963 0 0-1.74-.788-.647-1.734.206-.176.488-.247.788-.23zm-3.95 0c.958.205 1.234 1.863-.141 1.963 0 0-.57-.047-.829-.453-.393-.611.083-1.57.97-1.51zm-3.949 0c.958.205 1.234 1.863-.142 1.963 0 0-.987-.206-.987-.988 0-.558.506-1.017 1.129-.975zm-7.894 0c.976.211 1.093 1.875-.141 1.963 0 0-.77-.112-.946-.712-.183-.617.341-1.304 1.087-1.251zm-3.95 0c.97.211 1.158 1.869-.141 1.963 0 0-.57-.047-.828-.453-.394-.611.088-1.57.969-1.51zm-3.949 0c.958.205 1.234 1.863-.141 1.963 0 0-.571-.047-.829-.453-.394-.611.088-1.57.97-1.51zm21.717 2.603c.97.212 1.158 1.87-.141 1.963 0 0-.77-.111-.946-.71-.183-.624.341-1.306 1.087-1.253zm-3.95 0c.976.212 1.094 1.875-.141 1.963 0 0-.77-.111-.946-.71-.182-.624.341-1.306 1.087-1.253zm-15.792 0c.952.206 1.093 1.875-.142 1.963 0 0-.769-.111-.946-.71-.182-.624.347-1.306 1.088-1.253zm3.949 0c.97.212 1.058 1.875-.141 1.963 0 0-.67-.076-.899-.576-.288-.634.247-1.446 1.04-1.387zm17.768 2.627c.958.206 1.234 1.864-.141 1.964 0 0-.67-.083-.899-.576-.288-.641.241-1.446 1.04-1.388zm-3.95 0c.958.206 1.234 1.864-.141 1.964 0 0-.57-.047-.829-.453-.393-.617.083-1.575.97-1.51zm-3.949 0c.975.212 1.093 1.875-.142 1.964 0 0-.47-.024-.746-.341-.511-.594-.047-1.693.888-1.623zm-7.894 0c.976.212 1.093 1.875-.141 1.964 0 0-.77-.112-.946-.712-.183-.623.341-1.304 1.087-1.252zm-3.95 0c.953.206 1.094 1.875-.141 1.964 0 0-.67-.083-.899-.576-.288-.641.247-1.446 1.04-1.388zm-3.949 0c.975.212.999 1.881-.141 1.964 0 0-1.875-.953-.535-1.816.2-.13.435-.165.676-.148zm21.646 2.745a.28.28 0 0 1 .071.006c.97.212 1.158 1.863-.135 1.963h-.006s-.77-.111-.946-.71c-.177-.6.305-1.259 1.011-1.259h.005zm-3.955 0c.023 0 .047 0 .076.006.982.212 1.029 1.875-.135 1.963h-.006s-.47-.023-.746-.34c-.494-.57-.077-1.623.799-1.629h.012zm-15.787 0c.023 0 .047 0 .071.006.969.212 1.157 1.863-.136 1.963h-.006s-.769-.111-.946-.71c-.176-.6.306-1.259 1.011-1.259h.006zm3.95 0a.28.28 0 0 1 .07.006c.976.212 1.093 1.87-.135 1.963h-.006s-.876-.158-.976-.846c-.082-.582.4-1.123 1.041-1.123h.006zm17.761 2.628h.071c.97.211 1.158 1.863-.135 1.963h-.006s-.67-.077-.899-.576c-.282-.612.205-1.387.958-1.387h.011zm-3.949 0h.076c.964.211 1.158 1.863-.135 1.963h-.006s-.47-.024-.746-.341c-.494-.57-.077-1.622.799-1.628h.012v.006zm-3.944 0h.071c.952.205 1.234 1.857-.136 1.963h-.006s-.57-.047-.828-.453c-.382-.593.059-1.516.887-1.51h.012zm-7.899 0h.076c.97.211 1.158 1.863-.135 1.963h-.006s-.47-.024-.746-.341c-.494-.57-.077-1.622.799-1.628h.012v.006zm-3.944 0h.07c.976.211 1.094 1.869-.135 1.963h-.006s-.67-.077-.899-.576c-.282-.612.206-1.387.958-1.387h.012zm-3.973 0a.61.61 0 0 1 .1.005c.981.212 1.028 1.875-.136 1.963h-.006s-1.739-.781-.646-1.733c.182-.159.423-.235.682-.235h.006zm2.069 2.603c.969.212 1.157 1.87-.142 1.963 0 0-.769-.111-.946-.71-.182-.618.347-1.306 1.088-1.253zm3.949 0c.976.212 1.093 1.875-.141 1.963 0 0-.987-.205-.987-.987 0-.558.499-1.017 1.128-.976zm11.843 0c.982.212 1.029 1.881-.141 1.963 0 0-.57-.047-.828-.452-.394-.611.082-1.57.969-1.51zm3.95 0c.97.212 1.158 1.87-.141 1.963 0 0-.67-.082-.899-.576-.288-.634.247-1.44 1.04-1.387zm1.975 2.628c.958.205 1.234 1.863-.141 1.963 0 0-1.74-.782-.647-1.734.206-.177.488-.253.788-.23zm-3.95 0c.952.205 1.093 1.874-.141 1.963 0 0-.67-.077-.899-.576-.288-.635.247-1.446 1.04-1.387zm-3.949 0c.975.211 1.093 1.874-.142 1.963 0 0-.987-.206-.987-.988 0-.558.506-1.017 1.129-.975zm-7.894 0c.976.211 1.093 1.874-.141 1.963 0 0-.77-.112-.946-.712-.183-.617.341-1.304 1.087-1.251zm-3.95 0c.976.211 1.094 1.874-.141 1.963 0 0-.77-.112-.946-.712-.182-.617.347-1.304 1.087-1.251zm-3.949 0c.958.205 1.234 1.863-.141 1.963 0 0-.77-.112-.947-.712-.182-.617.347-1.304 1.088-1.251zm21.717 2.603c.97.212 1.158 1.87-.141 1.963 0 0-.47-.023-.746-.34-.512-.594-.053-1.693.887-1.623zm-3.95 0c.976.212 1.094 1.875-.141 1.963 0 0-.875-.158-.975-.846-.089-.605.435-1.17 1.116-1.117zm-11.843 0c.97.212 1.158 1.87-.141 1.963 0 0-1.74-.787-.646-1.734.211-.182.487-.252.787-.229zm-3.949 0c.981.212 1.028 1.881-.142 1.963 0 0-.67-.082-.899-.576-.288-.64.247-1.445 1.041-1.387zm21.717 2.627c.97.212 1.158 1.87-.141 1.964 0 0-1.74-.788-.647-1.734.206-.182.488-.253.788-.23zm-3.95 0c.929.2 1.158 1.87-.141 1.964 0 0-.57-.047-.829-.453-.393-.617.083-1.575.97-1.51zm-3.949 0c.958.206 1.234 1.864-.142 1.964 0 0-.875-.16-.975-.847-.088-.605.441-1.17 1.117-1.117zm-7.894 0c.97.212 1.058 1.875-.141 1.964 0 0-.77-.112-.946-.712-.183-.623.341-1.31 1.087-1.252zm-3.95 0c.97.212 1.158 1.87-.141 1.964 0 0-.987-.206-.987-.988 0-.564.505-1.023 1.128-.976zm-3.949 0c.958.206 1.234 1.864-.141 1.964 0 0-.571-.047-.829-.453-.394-.617.088-1.575.97-1.51zm21.717 2.598c.97.212 1.158 1.87-.141 1.963 0 0-.47-.023-.746-.34-.512-.588-.053-1.687.887-1.623zm-3.95 0c.97.212 1.158 1.87-.141 1.963 0 0-1.739-.787-.646-1.733.211-.177.488-.253.787-.23zm-11.843 0c.97.212 1.158 1.87-.141 1.963 0 0-1.875-.952-.535-1.816.194-.123.429-.164.676-.147zm-3.949 0c.975.212 1.093 1.875-.142 1.963 0 0-.769-.111-.946-.71-.182-.624.347-1.306 1.088-1.253zm17.767 2.628c.976.211 1.093 1.875-.141 1.963 0 0-.57-.047-.829-.453-.393-.617.083-1.575.97-1.51zm-3.949 0c.981.211 1.028 1.88-.142 1.963 0 0-.57-.047-.828-.453-.394-.617.088-1.575.97-1.51zm-7.894 0c.976.211 1.093 1.875-.141 1.963 0 0-.57-.047-.829-.453-.399-.617.083-1.575.97-1.51zm-3.95 0c.958.205 1.235 1.863-.141 1.963 0 0-.77-.112-.946-.712-.182-.622.347-1.304 1.087-1.251zm-3.949 0c.969.211 1.158 1.869-.141 1.963 0 0-.77-.112-.947-.712-.182-.622.347-1.304 1.088-1.251zm17.767 2.597c.958.206 1.235 1.864-.141 1.964 0 0-.47-.024-.746-.341-.511-.588-.053-1.687.887-1.623zm-15.792 0c.958.206 1.234 1.864-.142 1.964 0 0-.67-.077-.899-.576-.288-.635.247-1.44 1.041-1.388zm3.949 0c.976.212.999 1.881-.141 1.964 0 0-1.74-.782-.646-1.734.211-.177.487-.247.787-.23zm15.793 0c.97.212 1.158 1.87-.141 1.964 0 0-.47-.024-.746-.341-.512-.588-.053-1.687.887-1.623zm-21.717 2.628c.975.211 1.093 1.875-.141 1.963 0 0-.471-.024-.747-.341-.505-.588-.047-1.687.888-1.622zm3.949 0c.97.211 1.158 1.869-.141 1.963 0 0-.77-.112-.946-.711-.182-.617.347-1.305 1.087-1.252zm3.95 0c.976.211 1.093 1.875-.141 1.963 0 0-.77-.112-.946-.711-.183-.617.341-1.305 1.087-1.252zm7.894 0c.981.211 1.028 1.88-.142 1.963 0 0-1.739-.788-.646-1.734.212-.176.488-.247.788-.23zm3.949 0c.97.211 1.158 1.869-.141 1.963 0 0-.57-.047-.829-.453-.393-.611.083-1.575.97-1.51zm-17.767 2.603c.969.212 1.157 1.87-.142 1.963 0 0-.67-.082-.899-.576-.288-.634.247-1.445 1.041-1.386zm15.792 0c.97.212 1.158 1.87-.141 1.963 0 0-.47-.023-.746-.34-.511-.588-.053-1.693.887-1.623zm3.95 0c.97.212 1.158 1.87-.141 1.963 0 0-.67-.082-.899-.576-.288-.634.247-1.445 1.04-1.386zm-15.793 0c.958.206 1.234 1.864-.141 1.963 0 0-1.74-.787-.646-1.733.211-.182.487-.253.787-.23zm13.818 2.628c.976.211 1.093 1.875-.141 1.963 0 0-1.74-.782-.646-1.734.211-.182.487-.253.787-.23zm-19.742 0c.975.211 1.093 1.875-.141 1.963 0 0-.876-.159-.976-.847-.088-.605.441-1.17 1.117-1.116zm3.949 0c.976.211 1.094 1.875-.141 1.963 0 0-.57-.047-.828-.453-.394-.617.088-1.575.969-1.51zm3.95 0c.976.211 1.093 1.875-.141 1.963 0 0-.67-.077-.899-.576-.288-.64.247-1.446 1.04-1.387zm7.894 0c.958.205 1.234 1.863-.142 1.963 0 0-.47-.024-.746-.341-.511-.594-.047-1.693.888-1.622zm-13.818 2.597c.969.212 1.157 1.87-.142 1.964 0 0-.987-.206-.987-.988 0-.558.506-1.017 1.129-.975zm15.792 0c.97.212 1.158 1.87-.141 1.964 0 0-.77-.112-.946-.712-.182-.617.341-1.304 1.087-1.251zm3.95 0c.97.212 1.158 1.87-.141 1.964 0 0-.77-.112-.946-.712-.183-.617.341-1.304 1.087-1.251zm-15.793 0c.976.212 1.093 1.876-.141 1.964 0 0-.67-.077-.899-.576-.288-.635.247-1.44 1.04-1.388zm9.869 2.628c.958.206 1.234 1.863-.142 1.963 0 0-.47-.024-.746-.341-.511-.588-.047-1.687.888-1.622zm3.949 0c.976.211 1.093 1.875-.141 1.963 0 0-.57-.047-.829-.453-.393-.61.083-1.575.97-1.51zm-11.843 0c.976.211 1.093 1.875-.141 1.963 0 0-.57-.047-.829-.453-.399-.61.083-1.575.97-1.51zm-3.95 0c.97.211 1.158 1.869-.141 1.963 0 0-.77-.112-.946-.711-.182-.623.347-1.305 1.087-1.252zm5.925 2.604c.97.211 1.158 1.869-.141 1.963 0 0-.57-.047-.829-.453-.4-.617.082-1.575.97-1.51zm-3.95 0c.982.211 1.029 1.88-.141 1.963 0 0-.67-.077-.899-.576-.288-.641.247-1.446 1.04-1.387zm11.843 0c.976.211 1.094 1.874-.141 1.963 0 0-.77-.112-.946-.712-.182-.623.341-1.31 1.087-1.251zm3.95 0c.97.211 1.158 1.869-.141 1.963 0 0-.47-.024-.746-.341-.512-.594-.053-1.693.887-1.622zm-1.975 2.621c.97.211 1.158 1.869-.141 1.963 0 0-.57-.047-.829-.453-.393-.611.083-1.569.97-1.51zm-3.949 0c.969.211 1.157 1.869-.142 1.963 0 0-.987-.2-.987-.987 0-.559.506-1.017 1.129-.976zm-7.894 0c.958.206 1.234 1.863-.141 1.963 0 0-1.74-.788-.647-1.734.212-.176.488-.247.788-.229zm-3.95 0c.97.211 1.158 1.869-.141 1.963 0 0-.67-.076-.899-.576-.288-.635.247-1.44 1.04-1.387zm1.975 2.604c.958.205 1.234 1.863-.141 1.963 0 0-.77-.112-.946-.711-.182-.623.341-1.305 1.087-1.252zm3.95 0c.981.211 1.028 1.88-.141 1.963 0 0-.57-.047-.829-.453-.4-.617.082-1.575.97-1.51zm3.944 0c.969.211 1.158 1.869-.141 1.963 0 0-.988-.2-.988-.988 0-.564.506-1.022 1.129-.975zm3.949 0c.982.211 1.029 1.88-.141 1.963 0 0-.77-.112-.946-.711-.182-.623.341-1.305 1.087-1.252zm3.95 0c.97.211 1.158 1.869-.141 1.963 0 0-.77-.112-.946-.711-.183-.623.341-1.305 1.087-1.252zm-1.975 2.627c.97.211 1.158 1.869-.141 1.963 0 0-.57-.047-.829-.453-.393-.617.083-1.575.97-1.51zm-3.949 0c.958.206 1.234 1.863-.142 1.963 0 0-.47-.024-.746-.341-.511-.594-.047-1.693.888-1.622zm-7.894 0c.958.206 1.234 1.863-.141 1.963 0 0-.47-.024-.746-.341-.512-.594-.053-1.693.887-1.622zm-3.95 0c.958.206 1.235 1.863-.141 1.963 0 0-.57-.047-.828-.453-.394-.617.088-1.575.969-1.51zm7.9 0c.969.211 1.158 1.869-.141 1.963 0 0-.67-.076-.9-.576-.293-.641.241-1.446 1.041-1.387zm-5.925 2.598c.958.205 1.234 1.863-.141 1.963 0 0-.57-.047-.829-.453-.399-.611.083-1.569.97-1.51zm3.95 0c.976.211 1.093 1.875-.141 1.963 0 0-1.74-.782-.647-1.734.206-.176.482-.247.788-.229zm3.944 0c.969.211 1.058 1.881-.141 1.963 0 0-1.74-.782-.647-1.734.212-.176.488-.247.788-.229zm3.949 0c.97.211 1.158 1.869-.141 1.963 0 0-.57-.047-.828-.453-.394-.611.082-1.569.969-1.51zm3.95 0c.952.205 1.093 1.875-.141 1.963 0 0-.77-.112-.946-.711-.183-.618.341-1.305 1.087-1.252zm-17.768 2.627c.976.212 1 1.881-.141 1.963 0 0-.875-.159-.975-.846-.089-.606.44-1.164 1.116-1.117zm3.95 0c.976.212 1.093 1.875-.141 1.963 0 0-.876-.159-.976-.846-.088-.606.435-1.164 1.117-1.117zm3.95 0c.952.206 1.093 1.875-.141 1.963 0 0-.471-.023-.747-.341-.511-.588-.053-1.687.888-1.622zm7.893 0c.97.212 1.158 1.869-.141 1.963 0 0-.57-.047-.829-.453-.393-.611.083-1.575.97-1.51zm-3.949 0c.958.206 1.234 1.863-.142 1.963 0 0-.77-.112-.946-.711-.182-.617.347-1.305 1.088-1.252zm5.924 2.604c.97.211 1.158 1.869-.141 1.963 0 0-.77-.112-.946-.711-.183-.623.341-1.305 1.087-1.252zm-3.95 0c.976.211 1.094 1.875-.141 1.963 0 0-.77-.112-.946-.711-.182-.623.341-1.305 1.087-1.252zm-3.949 0c.969.211 1.158 1.869-.141 1.963 0 0-.77-.112-.947-.711-.182-.623.347-1.305 1.088-1.252zm-3.944 0c.976.211 1.093 1.875-.141 1.963 0 0-.876-.159-.976-.847-.088-.605.435-1.169 1.117-1.116zm-3.95 0c.97.211 1.058 1.88-.141 1.963 0 0-.77-.112-.946-.711-.182-.623.341-1.305 1.087-1.252zm13.818 2.621c.958.206 1.234 1.863-.141 1.963 0 0-.57-.047-.829-.452-.393-.612.083-1.57.97-1.511zm-3.949 0c.958.206 1.234 1.863-.142 1.963 0 0-.987-.2-.987-.987 0-.559.506-1.017 1.129-.976zm-3.944 0c.969.212 1.158 1.869-.141 1.963 0 0-.57-.047-.829-.452-.4-.612.082-1.57.97-1.511zm-3.95 0c.976.212 1.093 1.875-.141 1.963 0 0-.77-.112-.946-.711-.183-.617.341-1.305 1.087-1.252zm-3.95 0c.97.212 1.158 1.869-.141 1.963 0 0-.57-.047-.828-.452-.394-.612.088-1.57.969-1.511zm1.975 2.604c.97.211 1.058 1.881-.141 1.963 0 0-.67-.077-.899-.576-.288-.635.247-1.446 1.04-1.387zm3.95 0c.976.211 1.093 1.875-.141 1.963 0 0-.876-.159-.976-.846-.088-.606.435-1.164 1.117-1.117zm3.944 0c.969.211 1.158 1.869-.141 1.963 0 0-.77-.112-.947-.711-.182-.623.347-1.305 1.088-1.252zm3.949 0c.976.211 1.094 1.875-.141 1.963 0 0-.77-.112-.946-.711-.182-.623.341-1.305 1.087-1.252zm3.95 0c.97.211 1.158 1.869-.141 1.963 0 0-.77-.112-.946-.711-.183-.623.341-1.305 1.087-1.252zm-1.975 2.627c.958.206 1.234 1.863-.141 1.963 0 0-.57-.047-.829-.452-.393-.618.083-1.576.97-1.511zm-3.949 0c.975.212 1.093 1.875-.142 1.963 0 0-.47-.023-.746-.341-.511-.588-.047-1.693.888-1.622zm-3.944 0c.958.206 1.234 1.863-.141 1.963 0 0-1.74-.787-.647-1.734.206-.182.482-.252.788-.229zm-3.95 0c.976.212 1.093 1.875-.141 1.963 0 0-.77-.112-.946-.711-.183-.623.341-1.305 1.087-1.252zm-3.95 0c.953.206 1.094 1.875-.141 1.963 0 0-.67-.076-.899-.576-.288-.635.247-1.446 1.04-1.387zm17.697 2.551h.071c.97.211 1.158 1.863-.135 1.963h-.006s-.77-.112-.946-.711c-.177-.6.305-1.258 1.011-1.258l.005.006zm-3.955 0h.076c.982.211 1.029 1.875-.135 1.963h-.006s-.47-.024-.746-.341c-.494-.57-.077-1.622.799-1.628h.012v.006zm-3.95 0c.024 0 .053 0 .083.006.963.211 1.157 1.863-.136 1.963h-.006s-.987-.2-.987-.988c0-.534.459-.975 1.04-.981h.006zm-3.938 0h.071c.976.211 1.093 1.869-.135 1.963h-.006s-.77-.112-.946-.711c-.177-.6.305-1.258 1.01-1.258l.006.006zm-3.949 0h.07c.976.211 1.093 1.869-.135 1.963h-.006s-.876-.159-.976-.846c-.082-.582.4-1.123 1.041-1.123l.006.006zm-1.975 2.627h.07c.976.212 1.094 1.869-.135 1.963h-.006s-.67-.076-.899-.576c-.282-.611.206-1.387.958-1.387h.012zm3.944 0h.076c.97.212 1.158 1.863-.135 1.963h-.006s-.47-.023-.746-.341c-.494-.57-.077-1.622.799-1.628h.012v.006zm3.955 0h.071c.969.212 1.158 1.863-.135 1.963h-.006s-.77-.111-.947-.711c-.176-.599.306-1.258 1.011-1.258l.006.006zm3.944 0h.071c.952.206 1.234 1.857-.136 1.963h-.006s-.57-.047-.828-.452c-.382-.594.059-1.517.887-1.517l.012.006zm3.944 0h.076c.964.212 1.158 1.863-.135 1.963h-.006s-.47-.023-.746-.341c-.494-.57-.077-1.622.799-1.628h.012v.006zm2.051 2.604c.97.211 1.158 1.869-.141 1.963 0 0-.67-.076-.899-.576-.288-.641.247-1.446 1.04-1.387zm-3.95 0c.982.211 1.029 1.881-.141 1.963 0 0-.57-.047-.828-.453-.394-.617.082-1.575.969-1.51zm-3.949 0c.969.211 1.158 1.869-.141 1.963 0 0-.471-.024-.747-.341-.511-.594-.047-1.693.888-1.622zm-3.944 0c.976.211 1.093 1.875-.141 1.963 0 0-.67-.076-.899-.576-.294-.641.241-1.446 1.04-1.387zm-3.95 0c.976.211 1.093 1.875-.141 1.963 0 0-.987-.2-.987-.987 0-.565.499-1.023 1.128-.976zm13.818 2.627c.952.206 1.093 1.875-.141 1.963 0 0-.67-.076-.899-.576-.288-.64.247-1.446 1.04-1.387zm-7.893 0c.969.212 1.158 1.869-.141 1.963 0 0-.77-.112-.947-.711-.188-.623.341-1.311 1.088-1.252zm3.944 0c.975.212 1.093 1.875-.142 1.963 0 0-.987-.2-.987-.987 0-.564.506-1.023 1.129-.976zm-7.894 0c.976.212 1.093 1.875-.141 1.963 0 0-.77-.112-.946-.711-.183-.623.341-1.311 1.087-1.252zm-3.95 0c.976.212 1.094 1.875-.141 1.963 0 0-.77-.112-.946-.711-.182-.623.347-1.311 1.087-1.252zm17.768 2.598c.97.212 1.158 1.869-.141 1.963 0 0-.47-.023-.746-.341-.512-.588-.053-1.687.887-1.622zm-3.95 0c.976.212 1.094 1.875-.141 1.963 0 0-.875-.159-.975-.846-.089-.606.435-1.164 1.116-1.117zm-3.949 0c.952.206 1.093 1.875-.141 1.963 0 0-.77-.112-.947-.711-.182-.617.347-1.305 1.088-1.252zm-3.944 0c.97.212 1.158 1.869-.141 1.963 0 0-.57-.047-.829-.453-.4-.611.082-1.575.97-1.51zm-3.95 0c.97.212 1.158 1.869-.141 1.963 0 0-1.74-.788-.646-1.734.211-.176.487-.253.787-.229zm13.818 2.627c.929.2 1.158 1.869-.141 1.963 0 0-.57-.047-.829-.452-.393-.617.083-1.575.97-1.511zm-3.949 0c.958.206 1.234 1.863-.142 1.963 0 0-.875-.158-.975-.846-.088-.605.441-1.164 1.117-1.117zm-3.944 0c.958.206 1.234 1.863-.141 1.963 0 0-.57-.047-.829-.452-.4-.617.082-1.575.97-1.511zm-3.95 0c.97.212 1.058 1.881-.141 1.963 0 0-.77-.111-.946-.711-.183-.623.341-1.305 1.087-1.252zm-3.95 0c.97.212 1.158 1.869-.141 1.963 0 0-.987-.2-.987-.987 0-.564.505-1.023 1.128-.976zm17.768 2.598c.97.212 1.158 1.869-.141 1.963 0 0-.47-.023-.746-.341-.512-.588-.053-1.687.887-1.622zm-3.95 0c.97.212 1.158 1.869-.141 1.963 0 0-1.739-.787-.646-1.734.211-.176.488-.247.787-.229zm-3.949 0c.969.212 1.058 1.881-.141 1.963 0 0-.77-.112-.947-.711-.182-.617.347-1.305 1.088-1.252zm-3.944 0c.976.212 1.093 1.875-.141 1.963 0 0-.57-.047-.829-.452-.4-.612.082-1.57.97-1.511zm-3.95 0c.97.212 1.158 1.869-.141 1.963 0 0-1.875-.952-.535-1.816.194-.123.429-.159.676-.147zm-1.975 2.627c.958.206 1.235 1.863-.141 1.963 0 0-.77-.111-.946-.711-.182-.617.347-1.305 1.087-1.252zm3.95 0c.976.212 1.093 1.875-.141 1.963 0 0-.57-.047-.829-.452-.399-.611.083-1.57.97-1.511zm3.95 0c.969.212 1.158 1.869-.141 1.963 0 0-.77-.111-.947-.711-.188-.617.341-1.305 1.088-1.252zm3.944 0c.981.212 1.028 1.881-.142 1.963 0 0-.57-.047-.828-.452-.394-.611.088-1.57.97-1.511zm3.949 0c.976.212 1.093 1.875-.141 1.963 0 0-.57-.047-.829-.452-.393-.611.083-1.57.97-1.511zm-13.818 2.604c.976.212.999 1.881-.141 1.963 0 0-1.74-.788-.646-1.734.211-.182.487-.253.787-.229zm3.95 0c.97.212 1.158 1.869-.141 1.963 0 0-.57-.047-.829-.452-.4-.618.082-1.576.97-1.511zm7.893 0c.958.206 1.235 1.863-.141 1.963 0 0-.47-.023-.746-.341-.511-.588-.053-1.693.887-1.622zm3.95 0c.97.212 1.158 1.869-.141 1.963 0 0-.47-.023-.746-.341-.512-.588-.053-1.693.887-1.622zm-7.899 0c.969.212 1.158 1.869-.141 1.963 0 0-.77-.112-.947-.711-.182-.623.347-1.305 1.088-1.252zm5.924 2.627c.97.212 1.158 1.869-.141 1.963 0 0-.57-.047-.829-.452-.393-.617.083-1.575.97-1.511zm-3.949 0c.981.212 1.028 1.881-.142 1.963 0 0-1.739-.781-.646-1.734.212-.182.488-.252.788-.229zm-3.944 0c.981.212 1.028 1.881-.141 1.963 0 0-.57-.047-.829-.452-.4-.617.082-1.575.97-1.511zm-3.95 0c.976.212 1.093 1.875-.141 1.963 0 0-.77-.111-.946-.711-.183-.623.341-1.305 1.087-1.252zm-3.95 0c.97.212 1.158 1.869-.141 1.963 0 0-.77-.111-.946-.711-.182-.623.347-1.305 1.087-1.252zm1.975 2.598c.958.206 1.234 1.863-.141 1.963 0 0-1.74-.782-.646-1.734.211-.176.487-.247.787-.229zm15.793 0c.97.212 1.158 1.869-.141 1.963 0 0-.67-.076-.899-.576-.288-.635.247-1.44 1.04-1.387zm-3.95 0c.97.212 1.158 1.869-.141 1.963 0 0-.47-.023-.746-.341-.511-.587-.053-1.687.887-1.622zm-3.949 0c.969.212 1.158 1.869-.141 1.963 0 0-.77-.111-.947-.711-.182-.617.347-1.305 1.088-1.252zm-3.944 0c.97.212 1.158 1.869-.141 1.963 0 0-.77-.111-.946-.711-.189-.617.34-1.305 1.087-1.252zm9.868 2.627c.976.212 1.093 1.875-.141 1.963 0 0-1.74-.781-.646-1.733.211-.177.487-.253.787-.23zm-3.949 0c.958.206 1.234 1.864-.142 1.963 0 0-.47-.023-.746-.34-.511-.588-.047-1.687.888-1.623zm-3.944 0c.958.206 1.234 1.864-.141 1.963 0 0-.57-.047-.829-.452-.4-.611.082-1.575.97-1.511zm-3.95 0c.976.212 1.093 1.875-.141 1.963 0 0-.67-.076-.899-.576-.288-.634.247-1.445 1.04-1.387zm-3.95 0c.976.212 1.094 1.875-.141 1.963 0 0-.57-.047-.828-.452-.394-.611.088-1.575.969-1.511z" fill="#101D32"/><path d="M152.257 157.247h-16.745a1.47 1.47 0 0 1-1.464-1.335c-.1-1.058-.97-10.373-.97-11.69 0-.876-.558-6.524-.922-10.268a499.258 499.258 0 0 1-.359-3.703c-.223-2.386.135-9.609.517-16.798.1-1.857.188-3.461.188-3.808-.006-.653-.752-4.508-1.299-7.324-.558-2.862-1.081-5.572-1.275-7-.312-2.274-.141-11.379.094-20.877.035-1.475.065-2.503.065-2.791 0-.212-.006-1-.024-2.199-.194-17.955-.164-26.701.106-28.364.241-1.505-.417-4.532-.846-6.536-.318-1.47-.482-2.263-.482-2.816 0-.505-.094-2.527-.194-4.666-.135-2.986-.294-6.371-.294-7.63 0-2.227 0-8.998-.635-14.046a68.487 68.487 0 0 1-.317-2.91c-.041-.593-.141-1.992 1.205-2.245.217-.041.781-.088 1.257.353h9.075a1.461 1.461 0 0 1 1.47 1.498l-.4 18.226c.07.864.646 7.8.646 11.415 0 3.62.882 10.89.894 10.961.006.065.012.135.012.2l-.412 28.67-.106 9.698 2.345 20.125c.265-7.382.494-13.818.494-14.259 0-.406-.017-2.328-.047-4.714-.041-3.826-.094-9.057-.094-10.832 0-1.616.494-14.494.935-25.86.335-8.717.652-16.946.652-17.698 0-.835.059-3.738.123-6.812.071-3.515.153-7.5.153-8.787 0-2.492 1.152-10.262 1.205-10.591a1.451 1.451 0 0 1 1.44-1.246h7.512a1.47 1.47 0 0 1 1.469 1.47l.006 7.804c0 .036 0 .071-.006.1-.006.118-.817 11.832-.817 16.328 0 2.71.494 8.646.887 13.418.271 3.262.482 5.837.482 6.695 0 1.04-.258 6.254-.534 11.773-.259 5.23-.529 10.638-.529 11.602 0 .981-.306 2.368-.694 4.126-.5 2.239-1.117 5.03-1.117 7.34 0 2.246-.176 5.82-.346 9.27-.147 2.997-.288 5.824-.288 7.346 0 1.505.058 3.251.117 5.096.071 2.145.153 4.579.153 7.024 0 1.581.1 4.614.212 8.122.205 6.26.458 14.054.246 17.151-.317 4.643-1.275 20.448-1.281 20.606a1.47 1.47 0 0 1-1.463 1.388zm-15.405-2.939h14.023c.241-3.979.935-15.411 1.199-19.249.2-2.95-.047-10.656-.252-16.851-.118-3.538-.218-6.588-.218-8.222 0-2.398-.076-4.696-.153-6.924-.064-1.875-.123-3.644-.123-5.196 0-1.593.141-4.46.288-7.494.17-3.414.341-6.947.341-9.121 0-2.628.658-5.596 1.187-7.976.323-1.458.629-2.827.629-3.492 0-1.04.259-6.241.535-11.749.264-5.242.535-10.661.535-11.631 0-.74-.23-3.515-.476-6.454-.4-4.825-.9-10.826-.9-13.659 0-4.49.759-15.516.823-16.48V3.526h-4.772c-.382 2.704-.988 7.306-.988 8.905 0 1.31-.076 5.143-.153 8.846-.058 3.056-.117 5.948-.117 6.753 0 .81-.306 8.687-.658 17.814-.435 11.338-.935 24.186-.935 25.744 0 1.757.053 6.982.094 10.803.024 2.398.047 4.337.047 4.743 0 1.081-1.146 32.285-1.199 33.613a1.473 1.473 0 0 1-1.41 1.417 1.48 1.48 0 0 1-1.517-1.299l-4.578-39.35a1.86 1.86 0 0 1-.012-.188l.106-9.798.405-28.576c-.112-.935-.899-7.617-.899-11.22 0-3.65-.635-11.168-.641-11.244-.006-.053-.006-.106-.006-.159l.377-16.803h-6.983c.047.4.1.887.176 1.498.653 5.231.653 12.137.653 14.412 0 1.187.158 4.684.288 7.494.123 2.627.194 4.26.194 4.802.006.282.235 1.34.417 2.198.541 2.48 1.205 5.572.876 7.623-.229 1.434-.253 10.809-.071 27.865.012 1.21.024 2.016.024 2.228 0 .294-.024 1.346-.065 2.862-.135 5.401-.447 18.056-.123 20.407.188 1.352.729 4.143 1.252 6.841.917 4.737 1.351 7.065 1.351 7.888 0 .405-.064 1.64-.188 3.967-.264 4.89-.746 14-.529 16.369.083.905.212 2.216.359 3.691.535 5.401.94 9.61.94 10.556.012.793.471 6.048.847 10.08z" fill="#101D32"/><path d="M2.057 73.551h55.366c.453 0 .893-.13 1.282-.364 1.998-1.205 8.763-5.09 15.94-7.053 15.992-4.38 71.47 3.926 103.937-8.84 2.845-1.117 14.341-6.6 8.951-16.804-6.347-12.02-12.96-7.4-15.346-5.12-6.101 5.837-18.584 13.742-41.724 13.742-36.652 0-69.725-2.098-93.928 3.51-.353 1.627-34.472 1.41-34.472 1.41V73.55h-.006z" fill="#D2B565"/><path d="M57.423 75.608H2.057A2.06 2.06 0 0 1 0 73.551v-19.52c0-.546.217-1.075.605-1.457a2.072 2.072 0 0 1 1.464-.6c14.388.095 30.404-.246 33.178-.963a2.05 2.05 0 0 1 .812-.394c19.119-4.426 43.058-4.12 70.782-3.762 7.647.1 15.552.2 23.61.2 12.108 0 28.923-2.286 40.302-13.171 2.71-2.592 5.836-3.75 8.81-3.268 3.68.593 6.965 3.597 9.775 8.91 1.816 3.433 2.145 6.765.981 9.904-2.198 5.924-8.975 8.98-10.997 9.774-20.806 8.181-50.211 7.876-73.839 7.623-13.23-.14-24.656-.258-30.304 1.287-6.959 1.905-13.56 5.713-15.422 6.83a4.372 4.372 0 0 1-2.334.664zM4.114 71.494h53.31a.386.386 0 0 0 .193-.053c1.998-1.205 9.016-5.249 16.48-7.294 6.207-1.699 17.34-1.581 31.433-1.434 23.275.247 52.234.552 72.294-7.341.711-.276 6.97-2.85 8.646-7.376.746-2.016.499-4.162-.765-6.548-2.145-4.055-4.496-6.4-6.794-6.77-2.257-.365-4.296 1.21-5.307 2.18-6.824 6.53-19.849 14.312-43.147 14.312-8.082 0-16.004-.1-23.663-.2-27.195-.353-50.717-.653-69.272 3.532-1.081.658-3.062.864-6.395 1.076-2.903.188-6.918.323-11.931.411-5.99.106-12.02.112-15.082.106v15.399z" fill="#101D32"/><path d="M54.608 88.586H8.71V65.458L4.972 61.72l3.68-3.674-4.42-41.066h14.74v-4.55l3.95.636 1.91 4.96 6.495 2.351 5.884-.981 9.985 6.253h17.539l-8.852 7.33-9.85 10.973-2.052 1.634.318 3.12-3.603 11.274v10.685L54.455 81.85l.153 6.736z" fill="#B5B7BC"/><path opacity=".5" d="M27.806 31.586h.071c.976.211 1.093 1.869-.135 1.963h-.006s-.876-.159-.976-.847c-.082-.581.4-1.122 1.04-1.122h.006v.006zm-19.742 0h.07c.97.211 1.158 1.863-.135 1.963h-.006s-.875-.159-.975-.847c-.083-.581.4-1.122 1.04-1.122h.006v.006zm3.95 0h.07c.97.211 1.158 1.863-.135 1.963h-.006s-.77-.112-.946-.711c-.177-.6.305-1.258 1.01-1.258l.007.006zm3.943 0h.077c.97.211 1.158 1.863-.135 1.963h-.006s-.47-.024-.747-.341c-.493-.57-.076-1.622.8-1.628h.011v.006zm3.92-.006c.036 0 .071 0 .1.006.97.211 1.159 1.863-.135 1.963h-.005s-1.875-.952-.535-1.816c.164-.106.358-.147.558-.153h.018zm3.98.006h.07c.97.211 1.158 1.863-.135 1.963h-.006s-.77-.112-.946-.711c-.176-.6.306-1.258 1.01-1.258l.007.006zm7.9 0h.07c.975.211 1.093 1.869-.136 1.963h-.005s-.77-.112-.947-.711c-.176-.6.306-1.258 1.011-1.258l.006.006zm3.931 0h.082c.97.211 1.158 1.863-.135 1.963h-.006s-.987-.206-.987-.988c0-.535.458-.981 1.04-.981h.006v.006zm3.956 0h.076c.982.211 1.029 1.875-.135 1.963h-.006s-.47-.024-.746-.341c-.494-.57-.077-1.622.799-1.628h.012v.006zm3.955 0h.07c.97.211 1.159 1.863-.134 1.963h-.006s-.77-.112-.947-.711c-.176-.6.306-1.258 1.011-1.258l.006.006zm9.84 2.621c.029 0 .064 0 .1.006.969.212 1.157 1.863-.136 1.963h-.006s-1.74-.788-.646-1.734a1.02 1.02 0 0 1 .681-.235h.006zm-3.921 0a.36.36 0 0 1 .076.006c.97.212 1.158 1.863-.135 1.963h-.006s-.67-.082-.899-.576c-.282-.611.206-1.387.958-1.387h.006v-.006zm-3.95 0a.36.36 0 0 1 .077.006c.97.212 1.157 1.863-.136 1.963h-.005s-.67-.082-.9-.576c-.282-.611.206-1.387.958-1.387h.006v-.006zm-3.95 0c.024 0 .053 0 .077.006.97.212 1.158 1.863-.135 1.963h-.006s-.47-.023-.747-.34c-.493-.571-.076-1.623.8-1.629h.012zm-3.943 0c.023 0 .047 0 .07.006.953.206 1.235 1.857-.135 1.963h-.006s-.57-.047-.828-.453c-.383-.593.058-1.516.887-1.516h.012zm-3.944 0c.023 0 .047 0 .07.006.97.212 1.158 1.863-.135 1.963h-.006s-.77-.112-.946-.711c-.176-.6.306-1.258 1.011-1.258h.006zm-3.956 0c.024 0 .053 0 .077.006.97.212 1.158 1.863-.135 1.963h-.006s-.47-.023-.747-.34c-.493-.571-.076-1.623.8-1.629h.011zm-3.95 0a.36.36 0 0 1 .077.006c.976.212 1.093 1.869-.135 1.963h-.006s-.67-.082-.9-.576c-.281-.611.206-1.387.959-1.387h.006v-.006zm-3.967 0c.03 0 .065 0 .1.006.982.212 1.029 1.875-.135 1.963h-.006s-1.74-.788-.646-1.734a1.02 1.02 0 0 1 .681-.235h.006zm-3.92 0c.024 0 .047 0 .07.006.953.206 1.235 1.857-.134 1.963h-.006s-.77-.112-.947-.711c-.176-.6.306-1.258 1.011-1.258h.006zm-3.955 0a.36.36 0 0 1 .076.006c.97.212 1.158 1.863-.135 1.963h-.006s-.67-.082-.9-.576c-.282-.611.206-1.387.959-1.387h.006v-.006zm-3.944 0c.023 0 .047 0 .07.006.97.212 1.158 1.863-.135 1.963h-.006s-.57-.047-.828-.453c-.383-.593.058-1.516.887-1.516h.012zm-3.944 0c.023 0 .047 0 .07.006.97.212 1.158 1.863-.135 1.963h-.006s-.77-.112-.946-.711c-.176-.6.306-1.258 1.011-1.258h.006zm45.468 2.604c.958.206 1.235 1.863-.14 1.963 0 0-.57-.047-.83-.453-.393-.611.083-1.569.97-1.51zm-3.95 0c.982.211 1.03 1.88-.14 1.963 0 0-.47-.024-.747-.341-.511-.588-.047-1.687.888-1.622zm-3.95 0c.97.211 1.159 1.869-.14 1.963 0 0-.67-.083-.9-.576-.287-.635.248-1.44 1.04-1.387zm-3.943 0c.982.211 1.029 1.88-.14 1.963 0 0-.571-.047-.83-.453-.4-.611.083-1.569.97-1.51zm-3.95 0c.97.211 1.158 1.869-.14 1.963 0 0-.47-.024-.747-.341-.511-.588-.053-1.687.887-1.622zm-3.95 0c.982.217 1.094 1.88-.14 1.969 0 0-.67-.083-.9-.576-.288-.64.247-1.446 1.04-1.393zm-3.943 0c.976.211 1.093 1.875-.141 1.963 0 0-.988-.206-.988-.988 0-.558.5-1.016 1.129-.975zm-3.95 0c.97.211 1.158 1.869-.14 1.963 0 0-.77-.112-.947-.711-.182-.617.34-1.305 1.087-1.252zm-3.95 0c.97.211 1.159 1.869-.14 1.963 0 0-.67-.083-.9-.576-.288-.635.247-1.44 1.04-1.387zm-3.95 0c.97.211 1.159 1.869-.14 1.963 0 0-.47-.024-.747-.341-.505-.588-.047-1.687.888-1.622zm-3.943 0c.958.206 1.234 1.863-.14 1.963 0 0-.77-.112-.947-.711-.182-.617.34-1.305 1.087-1.252zm-3.95 0c.97.211 1.158 1.869-.14 1.963 0 0-.57-.047-.83-.453-.393-.611.083-1.569.97-1.51zm25.662 2.627c.97.212 1.157 1.869-.141 1.963 0 0-.77-.112-.947-.711-.182-.617.347-1.305 1.088-1.252zm15.793 0c.97.212 1.057 1.88-.142 1.963 0 0-.987-.206-.987-.987 0-.559.505-1.017 1.129-.976zm-3.95 0c.958.206 1.234 1.863-.141 1.963 0 0-1.74-.788-.647-1.734.212-.176.488-.247.788-.229zm-3.944 0c.952.206 1.093 1.875-.141 1.963 0 0-.67-.082-.9-.576-.287-.635.247-1.44 1.041-1.387zm-3.95 0c.976.212 1.094 1.875-.14 1.963 0 0-.988-.206-.988-.987 0-.559.505-1.017 1.128-.976zm-27.636 0c.976.212 1.094 1.875-.14 1.963 0 0-.77-.112-.947-.711-.182-.617.34-1.305 1.087-1.252zm19.743 0c.976.212 1.093 1.875-.141 1.963 0 0-.77-.112-.946-.711-.189-.617.34-1.305 1.087-1.252zm-3.95 0c.976.212 1.093 1.875-.14 1.963 0 0-.77-.112-.947-.711-.182-.617.34-1.305 1.087-1.252zm-3.95 0c.958.206 1.235 1.863-.14 1.963 0 0-.77-.112-.947-.711-.182-.617.347-1.305 1.088-1.252zm-3.95 0c.959.206 1.235 1.863-.14 1.963 0 0-.67-.082-.9-.576-.288-.635.247-1.44 1.04-1.387zm-3.943 0c.976.212 1.093 1.875-.141 1.963 0 0-.47-.023-.746-.34-.512-.589-.053-1.688.887-1.623zm-7.9 0c.959.206 1.235 1.863-.14 1.963 0 0-.67-.082-.9-.576-.288-.635.247-1.44 1.04-1.387zm41.455 2.604c.975.211 1.093 1.875-.141 1.963 0 0-.77-.112-.947-.711-.182-.623.347-1.305 1.088-1.252zm-3.95 0c.97.211 1.158 1.869-.141 1.963 0 0-.47-.024-.747-.341-.505-.588-.047-1.693.888-1.622zm-3.944 0c.976.211 1.093 1.875-.14 1.963 0 0-.877-.159-.977-.847-.088-.605.435-1.163 1.117-1.116zm-3.95 0c.953.205 1.094 1.875-.14 1.963 0 0-.77-.112-.947-.711-.182-.623.341-1.305 1.087-1.252zm-3.95 0c.97.211 1.159 1.869-.14 1.963 0 0-.57-.047-.829-.453-.394-.617.088-1.575.97-1.51zm-3.943 0c.97.211 1.158 1.869-.141 1.963 0 0-1.74-.782-.647-1.734.206-.182.482-.253.788-.23zm-3.95 0c.982.211 1.029 1.88-.14 1.963 0 0-.67-.077-.9-.576-.288-.635.247-1.446 1.04-1.387zm-3.95 0c.97.211 1.159 1.869-.14 1.963 0 0-.988-.2-.988-.988 0-.564.506-1.022 1.129-.975zm-3.95 0c.953.205 1.094 1.875-.14 1.963 0 0-.77-.112-.946-.711-.183-.623.346-1.305 1.087-1.252zm-3.943 0c.982.211 1.029 1.88-.14 1.963 0 0-.671-.077-.9-.576-.288-.635.24-1.446 1.04-1.387zm-3.95 0c.97.211 1.158 1.869-.14 1.963 0 0-1.74-.782-.647-1.734.211-.182.488-.253.787-.23zm33.561 2.627c.929.2 1.158 1.869-.141 1.963 0 0-.57-.047-.829-.453-.4-.617.082-1.575.97-1.51zm-3.95 0c.958.206 1.235 1.863-.14 1.963 0 0-.877-.159-.976-.846-.089-.606.434-1.17 1.116-1.117zm-3.95 0c.959.206 1.235 1.863-.14 1.963 0 0-.57-.047-.83-.453-.393-.617.089-1.575.97-1.51zm-3.943 0c.97.212 1.058 1.88-.141 1.963 0 0-.77-.112-.946-.711-.189-.623.34-1.305 1.087-1.252zm-3.95 0c.97.212 1.158 1.869-.14 1.963 0 0-.988-.206-.988-.987 0-.565.505-1.023 1.128-.976zm-3.95 0c.958.206 1.235 1.863-.14 1.963 0 0-.57-.047-.83-.453-.393-.617.089-1.575.97-1.51zm-3.95 0c.959.206 1.235 1.863-.14 1.963 0 0-.876-.159-.976-.846-.088-.606.44-1.17 1.117-1.117zm-3.943 0c.97.212 1.158 1.869-.141 1.963 0 0-.876-.159-.976-.846-.088-.606.435-1.17 1.117-1.117zm-3.95 0c.97.212 1.058 1.88-.14 1.963 0 0-.77-.112-.947-.711-.182-.623.34-1.305 1.087-1.252zm-3.95 0c.976.212 1 1.88-.14 1.963 0 0-.47-.023-.747-.34-.511-.595-.047-1.694.888-1.623zm33.561 2.598c.97.211 1.158 1.869-.14 1.963 0 0-1.74-.788-.647-1.734.205-.176.487-.247.787-.23zm-3.95 0c.97.211 1.058 1.875-.14 1.963 0 0-.77-.112-.947-.711-.182-.617.341-1.305 1.087-1.252zm-3.95 0c.976.211 1.094 1.875-.14 1.963 0 0-.57-.047-.829-.453-.394-.61.088-1.575.97-1.51zm-3.943 0c.97.211 1.158 1.869-.141 1.963 0 0-1.875-.952-.535-1.816.194-.124.43-.165.676-.147zm-3.95 0c.976.211 1.093 1.875-.14 1.963 0 0-.77-.112-.947-.711-.182-.617.34-1.305 1.087-1.252zm-3.95 0c.982.211 1.03 1.88-.14 1.963 0 0-.57-.047-.83-.453-.393-.61.089-1.575.97-1.51zm-3.95 0c.97.211 1.159 1.869-.14 1.963 0 0-.77-.112-.946-.711-.183-.617.346-1.305 1.087-1.252zm-3.943 0c.976.211 1.093 1.875-.14 1.963 0 0-.77-.112-.947-.711-.182-.617.34-1.305 1.087-1.252zm-3.95 0c.982.211 1.029 1.88-.14 1.963 0 0-1.876-.952-.535-1.816.194-.124.434-.165.675-.147zm1.975 2.627c.97.212 1.158 1.87-.14 1.963 0 0-.57-.047-.83-.452-.393-.612.083-1.576.97-1.51zm3.95 0c.97.212 1.158 1.87-.141 1.963 0 0-.77-.111-.946-.711-.188-.623.34-1.305 1.087-1.252zm3.944 0c.975.212 1.093 1.875-.141 1.963 0 0-.47-.023-.747-.34-.505-.589-.047-1.688.888-1.623zm3.95 0c.97.212 1.157 1.87-.142 1.963 0 0-.77-.111-.946-.711-.182-.623.347-1.305 1.088-1.252zm3.95 0c.957.206 1.233 1.863-.142 1.963 0 0-.77-.111-.946-.711-.182-.623.34-1.305 1.087-1.252zm3.949 0c.976.212 1.093 1.875-.141 1.963 0 0-.57-.047-.829-.452-.4-.612.082-1.576.97-1.51zm3.944 0c.97.212 1.157 1.87-.141 1.963 0 0-.77-.111-.947-.711-.182-.623.347-1.305 1.088-1.252zm3.95 0c.98.212 1.028 1.88-.142 1.963 0 0-.57-.047-.828-.452-.394-.612.088-1.576.97-1.51zm3.949 0c.976.212 1.093 1.875-.141 1.963 0 0-.57-.047-.829-.452-.4-.612.082-1.576.97-1.51zm-29.61 2.604c.957.206 1.233 1.863-.142 1.963 0 0-.67-.082-.9-.576-.287-.64.242-1.446 1.041-1.387zm3.943 0c.97.211 1.058 1.88-.141 1.963 0 0-.77-.112-.946-.711-.183-.623.346-1.305 1.087-1.252zm3.95 0c.981.211 1.028 1.88-.141 1.963 0 0-.77-.112-.947-.711-.182-.623.347-1.305 1.088-1.252zm3.95 0c.957.206 1.234 1.863-.142 1.963 0 0-.67-.082-.899-.576-.288-.64.247-1.446 1.04-1.387zm3.949 0c.976.211 1 1.88-.141 1.963 0 0-1.74-.788-.647-1.734.206-.182.482-.253.788-.23zm3.944 0c.97.211 1.158 1.869-.141 1.963 0 0-.57-.047-.829-.453-.394-.617.088-1.575.97-1.51zm7.9 0c.957.206 1.233 1.863-.142 1.963 0 0-.47-.024-.746-.341-.512-.594-.053-1.693.887-1.622zm-3.95 0c.97.211 1.157 1.869-.142 1.963 0 0-.77-.112-.946-.711-.182-.623.341-1.305 1.087-1.252zm-27.637 0c.982.211 1.029 1.88-.14 1.963 0 0-1.74-.788-.647-1.734.211-.182.488-.253.787-.23zm1.975 2.621c.982.212 1.029 1.881-.14 1.963 0 0-.77-.111-.947-.71-.182-.618.34-1.306 1.087-1.253zm31.586 0c.97.212 1.158 1.87-.141 1.963 0 0-.57-.047-.829-.452-.4-.612.082-1.57.97-1.51zm-3.95 0c.982.212 1.029 1.881-.14 1.963 0 0-1.74-.787-.647-1.734.211-.176.488-.246.787-.229zm-3.95 0c.982.212 1.03 1.881-.14 1.963 0 0-.57-.047-.83-.452-.393-.612.089-1.57.97-1.51zm-3.943 0c.976.212 1.093 1.875-.141 1.963 0 0-.77-.111-.946-.71-.189-.618.34-1.306 1.087-1.253zm-3.95 0c.97.212 1.158 1.87-.14 1.963 0 0-.77-.111-.947-.71-.182-.618.34-1.306 1.087-1.253zm-3.95 0c.976.212 1.094 1.875-.14 1.963 0 0-.47-.023-.747-.34-.511-.588-.047-1.688.887-1.623zm-3.95 0c.976.212 1.094 1.875-.14 1.963 0 0-1.74-.787-.647-1.734.212-.176.488-.246.788-.229zm-3.943 0c.97.212 1.158 1.87-.141 1.963 0 0-.57-.047-.829-.452-.4-.612.082-1.57.97-1.51zm25.661 2.604c.97.212 1.158 1.869-.14 1.963 0 0-.471-.023-.747-.34-.512-.589-.053-1.688.887-1.623zm-3.95 0c.97.212 1.158 1.869-.14 1.963 0 0-.77-.112-.947-.711-.182-.623.341-1.305 1.087-1.252zm-3.95 0c.97.212 1.159 1.869-.14 1.963 0 0-.77-.112-.947-.711-.182-.623.347-1.305 1.088-1.252zm-7.893 0c.97.212 1.158 1.869-.14 1.963 0 0-.67-.076-.9-.576-.288-.635.247-1.446 1.04-1.387zm-3.95 0c.959.206 1.235 1.863-.14 1.963 0 0-.77-.112-.947-.711-.182-.623.347-1.305 1.088-1.252zm-3.95 0c.97.212 1.059 1.88-.14 1.963 0 0-.77-.112-.946-.711-.183-.623.346-1.305 1.087-1.252zm-3.943 0c.97.212 1.158 1.869-.14 1.963 0 0-.671-.076-.9-.576-.288-.635.24-1.446 1.04-1.387zm-3.95 0c.958.206 1.235 1.863-.14 1.963 0 0-.47-.023-.747-.34-.511-.589-.053-1.688.887-1.623zm19.743 0c.958.206 1.234 1.863-.141 1.963 0 0-1.74-.788-.647-1.734.206-.182.482-.253.788-.23zm13.818 2.627c.976.212 1.093 1.875-.141 1.963 0 0-1.74-.787-.647-1.734.206-.182.488-.252.788-.229zm-3.95 0c.958.206 1.235 1.863-.14 1.963 0 0-.471-.023-.747-.34-.511-.588-.053-1.693.887-1.623zm-3.95 0c.959.206 1.235 1.863-.14 1.963 0 0-.57-.047-.83-.452-.393-.617.089-1.575.97-1.51zm-3.943 0c.976.212 1.093 1.875-.141 1.963 0 0-.67-.076-.9-.576-.293-.635.241-1.446 1.04-1.387zm-3.95 0c.976.212 1.093 1.875-.14 1.963 0 0-.571-.047-.83-.452-.393-.617.083-1.575.97-1.51zm-3.95 0c.976.212 1.094 1.875-.14 1.963 0 0-.876-.159-.976-.846-.088-.605.44-1.164 1.117-1.117zm-3.95 0c.97.212 1.159 1.87-.14 1.963 0 0-1.74-.787-.647-1.734.212-.182.488-.252.788-.229zm-3.943 0c.97.212 1.158 1.87-.141 1.963 0 0-.57-.047-.829-.452-.4-.617.082-1.575.97-1.51zm-3.95 0c.976.212 1.094 1.875-.14 1.963 0 0-.67-.076-.9-.576-.288-.635.247-1.446 1.04-1.387zm-1.975 2.598c.976.212 1.094 1.875-.14 1.963 0 0-.67-.076-.9-.576-.288-.635.247-1.44 1.04-1.387zm3.95 0c.97.212 1.158 1.869-.14 1.963 0 0-.671-.076-.9-.576-.288-.635.24-1.44 1.04-1.387zm3.944 0c.976.212 1.093 1.875-.141 1.963 0 0-.57-.047-.829-.453-.394-.61.088-1.569.97-1.51zm3.95 0c.97.212 1.157 1.869-.141 1.963 0 0-.988-.206-.988-.987 0-.559.506-1.017 1.129-.976zm3.95 0c.97.212 1.157 1.869-.142 1.963 0 0-.987-.206-.987-.987 0-.559.505-1.017 1.128-.976zm3.949 0c.976.212 1.093 1.875-.141 1.963 0 0-.67-.076-.9-.576-.293-.635.242-1.44 1.041-1.387zm3.944 0c.97.212 1.158 1.869-.141 1.963 0 0-.57-.047-.829-.453-.394-.61.088-1.569.97-1.51zm3.95 0c.981.212 1.028 1.88-.142 1.963 0 0-.57-.047-.828-.453-.394-.61.088-1.569.97-1.51zm3.95 0c.969.212 1.157 1.869-.142 1.963 0 0-.77-.112-.946-.711-.182-.617.34-1.305 1.087-1.252zm1.974 2.627c.976.212 1.093 1.875-.141 1.963 0 0-.57-.047-.829-.452-.4-.611.082-1.575.97-1.51zm-7.9 0c.982.212 1.03 1.881-.14 1.963 0 0-.77-.111-.947-.71-.182-.618.347-1.306 1.088-1.253zm-3.943 0c.976.212 1.093 1.875-.141 1.963 0 0-.57-.047-.829-.452-.4-.611.082-1.575.97-1.51zm-3.95 0c.97.212 1.158 1.87-.14 1.963 0 0-.77-.111-.947-.71-.182-.618.34-1.306 1.087-1.253zm-3.95 0c.976.212 1 1.881-.14 1.963 0 0-1.74-.781-.647-1.734.212-.176.488-.246.788-.229zm-3.95 0c.97.212 1.159 1.87-.14 1.963 0 0-.77-.111-.947-.71-.182-.618.347-1.306 1.088-1.253zm-3.943 0c.982.212 1.029 1.881-.141 1.963 0 0-.77-.111-.946-.71-.188-.618.34-1.306 1.087-1.253zm-3.95 0c.976.212 1.094 1.875-.14 1.963 0 0-.57-.047-.83-.452-.393-.611.083-1.575.97-1.51zm27.636 0c.958.206 1.235 1.863-.14 1.963 0 0-.471-.023-.747-.34-.511-.588-.053-1.687.887-1.623zm1.975 2.604c.976.212 1.093 1.875-.14 1.963 0 0-.77-.112-.947-.711-.182-.623.34-1.305 1.087-1.252zm-3.95 0c.97.212 1.158 1.869-.14 1.963 0 0-1.74-.787-.647-1.734.212-.182.488-.253.788-.229zm-7.893 0c.982.212 1.029 1.88-.141 1.963 0 0-.67-.076-.9-.576-.293-.64.242-1.446 1.041-1.387zm-3.95 0c.976.212 1.093 1.875-.14 1.963 0 0-.988-.2-.988-.987 0-.565.505-1.023 1.128-.976zm-3.95 0c.97.212 1.159 1.869-.14 1.963 0 0-.57-.047-.83-.453-.393-.617.089-1.575.97-1.51zm-3.95 0c.97.212 1.159 1.869-.14 1.963 0 0-.57-.047-.829-.453-.394-.617.088-1.575.97-1.51zm-3.943 0c.976.212 1.093 1.875-.14 1.963 0 0-.988-.2-.988-.987 0-.565.5-1.023 1.128-.976zm-3.95 0c.982.212 1.029 1.88-.14 1.963 0 0-.67-.076-.9-.576-.288-.64.247-1.446 1.04-1.387zm23.687 0c.97.212 1.158 1.869-.141 1.963 0 0-.57-.047-.829-.453-.394-.617.088-1.575.97-1.51zm1.975 2.627c.97.212 1.157 1.87-.141 1.963 0 0-.77-.111-.947-.71-.182-.624.347-1.312 1.088-1.253zm7.899 0c.97.212 1.158 1.87-.141 1.963 0 0-.57-.047-.829-.452-.4-.617.082-1.575.97-1.51zm-3.95 0c.97.212 1.158 1.87-.14 1.963 0 0-.988-.205-.988-.987 0-.564.505-1.023 1.128-.976zm-7.893 0c.958.206 1.234 1.863-.141 1.963 0 0-1.74-.781-.647-1.734.206-.182.482-.252.788-.229zm-3.95 0c.97.212 1.158 1.87-.14 1.963 0 0-.671-.076-.9-.576-.288-.64.247-1.446 1.04-1.387zm-3.95 0c.958.206 1.235 1.863-.14 1.963 0 0-1.74-.781-.647-1.734.212-.182.488-.252.788-.229zm-3.95 0c.93.206 1.159 1.87-.14 1.963 0 0-.77-.111-.947-.71-.182-.624.347-1.312 1.088-1.253zm-3.943 0c.97.212 1.158 1.87-.141 1.963 0 0-1.74-.781-.647-1.734.206-.182.488-.252.788-.229zm-3.95 0c.976.212 1 1.881-.14 1.963 0 0-.67-.076-.9-.576-.288-.64.247-1.446 1.04-1.387zm-1.975 2.598c.97.212 1.158 1.87-.14 1.963 0 0-.77-.112-.947-.711-.182-.617.341-1.305 1.087-1.252zm3.95 0c.958.206 1.234 1.863-.14 1.963 0 0-.571-.047-.83-.452-.4-.612.083-1.576.97-1.51zm3.944 0c.97.212 1.058 1.88-.141 1.963 0 0-.77-.112-.946-.711-.183-.617.346-1.305 1.087-1.252zm3.95 0c.928.2 1.157 1.87-.141 1.963 0 0-1.74-.787-.647-1.734a1.08 1.08 0 0 1 .788-.229zm3.95 0c.957.206 1.234 1.863-.142 1.963 0 0-.77-.112-.946-.711-.182-.617.34-1.305 1.087-1.252zm3.949 0c.958.206 1.234 1.863-.141 1.963 0 0-.77-.112-.946-.711-.188-.617.34-1.305 1.087-1.252zm3.944 0c.981.212 1.028 1.88-.141 1.963 0 0-.57-.047-.829-.452-.394-.612.088-1.576.97-1.51zm3.95 0c.97.212 1.157 1.87-.142 1.963 0 0-.987-.206-.987-.987 0-.559.505-1.017 1.128-.976zm3.95 0c.98.212 1.028 1.88-.142 1.963 0 0-.77-.112-.946-.711-.182-.617.34-1.305 1.087-1.252zm3.943 0c.97.212 1.158 1.87-.141 1.963 0 0-.77-.112-.946-.711-.183-.617.346-1.305 1.087-1.252zm3.95 0c.981.212 1.028 1.88-.141 1.963 0 0-.47-.023-.747-.34-.511-.588-.047-1.688.888-1.623zm-1.975 2.627c.97.212 1.158 1.87-.141 1.963 0 0-.67-.076-.9-.576-.288-.634.247-1.446 1.04-1.387zm-3.944 0c.97.212 1.158 1.87-.141 1.963 0 0-.57-.047-.829-.452-.4-.617.082-1.575.97-1.51zm-3.95 0c.958.206 1.235 1.863-.14 1.963 0 0-.471-.023-.747-.34-.511-.588-.053-1.687.887-1.623zm-3.95 0c.97.212 1.158 1.87-.14 1.963 0 0-.67-.076-.9-.576-.288-.634.247-1.446 1.04-1.387zm-3.943 0c.958.206 1.234 1.863-.141 1.963 0 0-.47-.023-.747-.34-.511-.588-.053-1.687.888-1.623zm-3.95 0c.958.206 1.234 1.863-.14 1.963 0 0-.571-.047-.83-.452-.393-.617.083-1.575.97-1.51zm-3.95 0c.97.212 1.058 1.881-.14 1.963 0 0-.57-.047-.83-.452-.393-.617.089-1.575.97-1.51zm-3.95 0c.959.206 1.235 1.863-.14 1.963 0 0-.57-.047-.829-.452-.394-.617.088-1.575.97-1.51zm-3.943 0c.958.206 1.234 1.863-.141 1.963 0 0-.77-.111-.946-.71-.188-.624.34-1.306 1.087-1.253zm-3.95 0c.976.212 1.094 1.875-.14 1.963 0 0-.471-.023-.747-.34-.512-.588-.053-1.687.887-1.623zm17.768 2.598c.958.206 1.234 1.863-.141 1.963 0 0-.57-.047-.829-.452-.4-.612.082-1.57.97-1.51zm-19.743 0c.97.212 1.158 1.87-.14 1.963 0 0-.57-.047-.83-.452-.393-.612.083-1.57.97-1.51zm3.95 0c.97.212 1.158 1.87-.14 1.963 0 0-.77-.111-.947-.71-.182-.618.34-1.306 1.087-1.253zm3.944 0c.97.212 1.058 1.88-.141 1.963 0 0-.47-.023-.747-.34-.505-.588-.047-1.688.888-1.623zm3.95 0c.97.212 1.157 1.87-.141 1.963 0 0-.47-.023-.747-.34-.511-.588-.047-1.688.888-1.623zm3.95 0c.97.212 1.157 1.87-.142 1.963 0 0-.77-.111-.946-.71-.182-.618.34-1.306 1.087-1.253zm7.893 0c.975.212 1.093 1.875-.141 1.963 0 0-1.74-.781-.647-1.734.212-.176.488-.246.788-.229zm3.95 0c.97.212 1.057 1.88-.142 1.963 0 0-1.74-.781-.646-1.734.212-.176.488-.246.788-.229zm3.95 0c.969.212 1.157 1.87-.142 1.963 0 0-.57-.047-.829-.452-.4-.612.083-1.57.97-1.51zm3.943 0c.952.206 1.093 1.875-.141 1.963 0 0-.77-.111-.946-.71-.183-.618.346-1.306 1.087-1.253zm3.95 0c.981.212 1.028 1.88-.141 1.963 0 0-1.74-.781-.647-1.734.212-.176.488-.246.788-.229zm3.95 0c.952.206 1.093 1.875-.142 1.963 0 0-.77-.111-.946-.71-.182-.618.34-1.306 1.087-1.253zm1.974 2.627c.97.212 1.158 1.87-.14 1.963 0 0-1.876-.952-.536-1.816.194-.123.435-.164.676-.147zm-3.95 0c.97.212 1.158 1.87-.14 1.963 0 0-.57-.046-.83-.452-.393-.611.089-1.57.97-1.51zm-3.95 0c.97.212 1.159 1.87-.14 1.963 0 0-.77-.111-.947-.71-.182-.618.347-1.305 1.088-1.253zm-3.943 0c.97.212 1.158 1.87-.141 1.963 0 0-.57-.046-.829-.452-.4-.611.082-1.57.97-1.51zm-3.95 0c.958.206 1.235 1.864-.14 1.963 0 0-.77-.111-.947-.71-.182-.618.34-1.305 1.087-1.253zm-3.95 0c.953.206 1.094 1.875-.14 1.963 0 0-.47-.023-.747-.34-.511-.588-.047-1.687.888-1.623zm-3.943 0c.976.212 1.093 1.875-.141 1.963 0 0-.876-.158-.976-.846-.088-.6.435-1.164 1.117-1.117zm-3.95 0c.976.212 1 1.881-.14 1.963 0 0-.877-.158-.977-.846-.088-.6.435-1.164 1.117-1.117zm-3.95 0c.953.206 1.094 1.875-.14 1.963 0 0-1.876-.952-.535-1.816.2-.123.434-.164.675-.147zm-3.95 0c.976.212 1.094 1.875-.14 1.963 0 0-.77-.111-.947-.71-.182-.618.347-1.305 1.088-1.253zm-3.943 0c.976.212 1.093 1.875-.141 1.963 0 0-1.74-.781-.647-1.733.206-.177.488-.247.788-.23zm-3.95 0c.976.212 1.094 1.875-.14 1.963 0 0-.67-.076-.9-.575-.288-.635.247-1.44 1.04-1.388zm45.404 2.604c.97.212 1.158 1.87-.141 1.963 0 0-.57-.047-.829-.452-.4-.617.083-1.575.97-1.51zm-3.95 0c.958.206 1.235 1.863-.14 1.963 0 0-.77-.111-.947-.711-.182-.623.34-1.305 1.087-1.252zm-3.95 0c.97.212 1.159 1.87-.14 1.963 0 0-.67-.082-.9-.576-.288-.635.247-1.446 1.04-1.387zm-3.95 0c.97.212 1.159 1.87-.14 1.963 0 0-.77-.111-.946-.711-.183-.623.346-1.305 1.087-1.252zm-3.943 0c.976.212 1.093 1.875-.14 1.963 0 0-.77-.111-.947-.711-.182-.623.34-1.305 1.087-1.252zm-3.95 0c.97.212 1.158 1.87-.14 1.963 0 0-.77-.111-.947-.711-.182-.623.341-1.305 1.087-1.252zm-3.95 0c.976.212 1.094 1.875-.14 1.963 0 0-.876-.158-.976-.846-.088-.606.44-1.164 1.117-1.117zm-3.943 0c.97.212 1.058 1.88-.141 1.963 0 0-.77-.111-.946-.711-.188-.623.34-1.305 1.087-1.252zm-3.95 0c.97.212 1.158 1.87-.14 1.963 0 0-.988-.205-.988-.987 0-.564.505-1.023 1.128-.976zm-3.95 0c.97.212 1.159 1.87-.14 1.963 0 0-.47-.023-.747-.34-.511-.588-.047-1.693.888-1.623zm-3.95 0c.977.212 1.094 1.875-.14 1.963 0 0-.47-.023-.747-.34-.505-.588-.047-1.693.888-1.623zm-3.943 0c.976.212 1.093 1.875-.14 1.963 0 0-.988-.205-.988-.987 0-.564.5-1.023 1.128-.976zm-3.95 0c.97.212 1.158 1.87-.14 1.963 0 0-.77-.111-.947-.711-.182-.623.341-1.305 1.087-1.252zm41.455 2.627c.952.206 1.093 1.875-.142 1.964 0 0-.77-.112-.946-.712-.182-.623.347-1.305 1.088-1.252zm-3.95 0c.97.212 1.158 1.87-.141 1.964 0 0-1.74-.782-.647-1.734.212-.183.488-.253.788-.23zm-3.944 0c.958.206 1.234 1.864-.141 1.964 0 0-.57-.048-.829-.453-.4-.617.082-1.575.97-1.51zm-3.95 0c.958.206 1.235 1.864-.14 1.964 0 0-.988-.206-.988-.988 0-.564.505-1.023 1.128-.976zm-3.95 0c.97.212 1.158 1.87-.14 1.964 0 0-.57-.048-.83-.453-.393-.617.089-1.575.97-1.51zm-3.943 0c.976.212 1.093 1.875-.141 1.964 0 0-.77-.112-.946-.712-.189-.623.34-1.305 1.087-1.252zm23.686 0c.97.212 1.058 1.881-.14 1.964 0 0-.571-.048-.83-.453-.393-.617.083-1.575.97-1.51zm-27.636 0c.97.212 1.158 1.87-.14 1.964 0 0-.571-.048-.83-.453-.393-.617.083-1.575.97-1.51zm-3.95 0c.958.206 1.235 1.864-.14 1.964 0 0-.57-.048-.83-.453-.393-.617.089-1.575.97-1.51zm-3.95 0c.959.206 1.235 1.864-.14 1.964 0 0-.67-.077-.9-.576-.288-.641.247-1.446 1.04-1.388zm-3.943 0c.982.212 1.029 1.881-.141 1.964 0 0-.57-.048-.829-.453-.4-.617.082-1.575.97-1.51zm-3.95 0c.953.206 1.094 1.875-.14 1.964 0 0-.77-.112-.947-.712-.182-.623.34-1.305 1.087-1.252z" fill="#101D32"/><path d="M7.124 30.11L6 18.667l12.02.488 3.914-2.24 1.78 2.469 8.306 2.91 4.72-.612 5.066 3.444 7.035 2.58 10.48-.434-8.899 8.393c-14.676-6.618-29.1-8.229-43.3-5.555z" fill="#E3E4E5"/><path d="M54.608 90.643H8.71a2.06 2.06 0 0 1-2.057-2.057V66.304l-3.132-3.133a2.054 2.054 0 0 1 0-2.909l2.98-2.98-4.309-40.084a2.032 2.032 0 0 1 .518-1.593 2.049 2.049 0 0 1 1.528-.682H16.92v-2.492c0-.6.265-1.176.723-1.563a2.046 2.046 0 0 1 1.658-.465l3.95.635a2.057 2.057 0 0 1 1.592 1.293l1.57 4.085 5.107 1.851 5.354-.893a2.056 2.056 0 0 1 1.434.288l9.48 5.936h16.946c.87 0 1.64.547 1.933 1.358a2.051 2.051 0 0 1-.623 2.28l-8.733 7.23-9.745 10.861a1.606 1.606 0 0 1-.253.235l-1.17.935.2 1.998c.03.282 0 .565-.088.835l-3.503 10.973v9.386l12.995 10.568c.464.382.747.947.758 1.546l.159 6.742c.012.552-.2 1.087-.588 1.486a2.062 2.062 0 0 1-1.47.612zm-43.84-4.115h41.736l-.088-3.685-13.02-10.585a2.047 2.047 0 0 1-.757-1.599V59.974c0-.212.035-.423.1-.623l3.473-10.867-.27-2.692c-.07-.7.217-1.382.764-1.817l1.916-1.522 9.733-10.85c.07-.076.141-.147.218-.211l4.455-3.691H47.196c-.388 0-.764-.112-1.093-.312l-9.322-5.836-5.119.858a2.092 2.092 0 0 1-1.04-.094l-6.495-2.351a2.085 2.085 0 0 1-1.222-1.2l-1.482-3.855-.4-.064v2.139a2.06 2.06 0 0 1-2.056 2.057H6.524l4.173 38.786a2.083 2.083 0 0 1-.588 1.675l-2.221 2.221 2.28 2.281c.388.388.6.911.6 1.452v21.07z" fill="#101D32"/><path d="M50.423 37.134c-.2 0-.4-.041-.594-.13-14.006-6.224-27.7-8.01-41.865-5.448A1.464 1.464 0 0 1 6.26 30.37a1.464 1.464 0 0 1 1.187-1.704c14.558-2.634 29.223-.73 43.581 5.654a1.471 1.471 0 0 1 .747 1.94 1.494 1.494 0 0 1-1.352.875z" fill="#101D32"/><path d="M175.555 42.712a3.02 3.02 0 1 1-3.021 3.021 3.032 3.032 0 0 1 3.021-3.021z" fill="#D2D2D2"/><path d="M175.555 50.223a4.497 4.497 0 0 1-4.49-4.49 4.497 4.497 0 0 1 4.49-4.49 4.497 4.497 0 0 1 4.49 4.49c0 2.474-2.01 4.49-4.49 4.49zm0-6.042a1.55 1.55 0 1 0 0 3.103 1.55 1.55 0 1 0 0-3.103zM24.386 109.339a8.278 8.278 0 0 0-2.569-2.175c-.993-.54-1.98-.811-2.95-.811-1.123 0-2.14.282-3.062.841-.923.558-1.646 1.334-2.175 2.316-.53.981-.794 2.08-.794 3.285s.265 2.304.794 3.286c.529.981 1.252 1.757 2.175 2.315.922.559 1.94.841 3.062.841.91 0 1.863-.235 2.856-.7a9.095 9.095 0 0 0 2.669-1.904l3.397 3.65c-1.205 1.27-2.64 2.28-4.303 3.033-1.663.752-3.303 1.128-4.937 1.128-2.198 0-4.19-.505-5.965-1.522a11.2 11.2 0 0 1-4.19-4.155c-1.018-1.758-1.523-3.727-1.523-5.901 0-2.157.517-4.103 1.557-5.843 1.04-1.739 2.463-3.097 4.267-4.096 1.81-.994 3.832-1.493 6.078-1.493 1.651 0 3.28.341 4.89 1.034 1.61.688 2.974 1.622 4.096 2.81l-3.373 4.061zm15.111 6.318h6.16l-3.045-7.934-3.115 7.934zm9.392 8.382l-1.522-3.938H37.75l-1.557 3.938h-5.966l9.55-22.247h5.967l9.333 22.247h-6.189zm10.726-22.253h6.319l6.442 13.013 6.412-13.013h6.318v22.253h-5.143l-.035-14.095-5.678 11.873h-3.743l-5.714-11.873v14.095h-5.178v-22.253zm41.837 11.462c1.187 0 2.098-.294 2.744-.888.647-.594.97-1.452.97-2.568 0-1.082-.323-1.911-.97-2.492-.646-.582-1.557-.876-2.744-.876h-3.68v6.824h3.68zm.282-11.462c2.833 0 5.037.682 6.6 2.046 1.563 1.363 2.351 3.285 2.351 5.76 0 2.621-.782 4.661-2.351 6.112-1.563 1.452-3.767 2.175-6.6 2.175h-3.968v6.16H91.96v-22.247h9.775v-.006zM8.299 133.525h6.312l6.442 13.013 6.412-13.013h6.319v22.252H28.64l-.03-14.094-5.683 11.872h-3.744l-5.713-11.872v14.094H8.3v-22.252zm47.543 0h5.396v22.252H56.16l-10.092-13.301v13.301h-5.431v-22.252h5.113l10.121 13.395-.029-13.395zm12.825 1.44v1.205h2.486v1.334h-2.486v1.375h2.945v1.382h-4.655v-6.683h4.672v1.387h-2.962zm6.313 2.604a7.164 7.164 0 0 1-1.17-.5 2.4 2.4 0 0 1-.806-.688c-.211-.276-.311-.611-.311-1.005 0-.387.112-.722.335-1.005.223-.282.535-.505.934-.658.4-.153.847-.229 1.346-.229.488 0 .923.082 1.3.247.381.164.675.405.893.717.217.311.323.687.323 1.122h-1.71c0-.229-.07-.405-.218-.54-.147-.136-.353-.2-.629-.2-.182 0-.34.023-.476.076a.72.72 0 0 0-.3.206.442.442 0 0 0-.1.276c0 .171.1.312.294.429.194.118.494.247.894.376.74.241 1.299.535 1.675.894.376.352.564.811.564 1.357 0 .406-.106.747-.305 1.035-.206.282-.494.5-.87.646a3.588 3.588 0 0 1-1.317.224 3.86 3.86 0 0 1-1.387-.247 2.354 2.354 0 0 1-1.052-.77c-.27-.347-.406-.788-.406-1.311h1.722c0 .247.042.447.124.588a.695.695 0 0 0 .364.306c.165.058.37.088.63.088.264 0 .463-.053.587-.159a.478.478 0 0 0 .188-.388.674.674 0 0 0-.082-.335c-.053-.088-.165-.182-.324-.27a5.297 5.297 0 0 0-.71-.282zm9.444-2.604h-1.992v5.296h-1.716v-5.296H78.77v-1.387h5.654v1.387zm.841 3.65c.176 0 .329.035.464.112a.828.828 0 0 1 .435.734.83.83 0 0 1-.435.741.94.94 0 0 1-.464.112.94.94 0 0 1-.465-.112.836.836 0 0 1-.434-.741.833.833 0 0 1 .435-.734.9.9 0 0 1 .464-.112zm-16.515 11.05v-4.744l-1.5.4v-1.287l3.004-1.046h.14v6.677H68.75zm6.423-1.241c.206 0 .376-.07.506-.205.129-.135.194-.324.194-.559 0-.241-.065-.429-.188-.558a.697.697 0 0 0-.518-.194c-.217 0-.394.065-.523.194-.13.129-.194.312-.194.558 0 .235.065.418.2.559a.69.69 0 0 0 .523.205zm-.011-4.208c-.189 0-.33.059-.424.171-.094.117-.147.282-.147.493 0 .218.047.388.147.518.1.123.241.188.435.188.188 0 .335-.065.43-.188.093-.124.146-.3.146-.518 0-.211-.047-.376-.147-.493-.1-.112-.247-.171-.44-.171zm1.357 2.004c.317.159.564.371.74.641.177.27.265.588.265.952 0 .423-.1.782-.3 1.07-.2.288-.476.511-.828.652-.353.147-.764.218-1.223.218-.464 0-.876-.071-1.228-.218a1.846 1.846 0 0 1-.84-.652c-.206-.288-.306-.647-.306-1.07 0-.358.088-.676.27-.952.182-.27.43-.488.752-.646a1.787 1.787 0 0 1-.652-.6 1.554 1.554 0 0 1-.23-.84c0-.406.095-.747.283-1.035.188-.282.447-.499.788-.646a2.835 2.835 0 0 1 1.151-.218c.441 0 .83.071 1.164.218.335.147.594.358.788.646.188.282.282.629.282 1.035 0 .317-.076.593-.23.84a1.642 1.642 0 0 1-.646.605zm2.71-3.238h3.973v1.311h-2.64l-.146 1.205c.094-.053.23-.106.406-.159a1.83 1.83 0 0 1 .534-.077c.67 0 1.182.194 1.54.576.359.382.535.941.535 1.664 0 .388-.088.758-.258 1.099a1.992 1.992 0 0 1-.788.834c-.353.212-.788.318-1.299.318-.406 0-.8-.088-1.17-.259-.37-.17-.67-.411-.899-.723a1.673 1.673 0 0 1-.33-1.052h1.664a.753.753 0 0 0 .212.506c.13.129.3.194.511.194.27 0 .453-.1.559-.294.105-.194.152-.453.152-.77 0-.318-.07-.553-.211-.711-.141-.159-.37-.241-.688-.241-.194 0-.358.035-.488.105a.722.722 0 0 0-.282.23l-1.31-.324.423-3.432zm7.834 5.442c.206 0 .376-.07.506-.205.13-.135.194-.324.194-.559 0-.241-.065-.429-.188-.558a.697.697 0 0 0-.517-.194.72.72 0 0 0-.524.194c-.129.129-.194.312-.194.558 0 .235.065.418.2.559a.682.682 0 0 0 .523.205zm-.017-4.208c-.188 0-.33.059-.423.171-.095.117-.147.282-.147.493 0 .218.047.388.147.518.1.123.24.188.434.188.189 0 .335-.065.43-.188.094-.124.147-.3.147-.518 0-.211-.047-.376-.147-.493-.094-.112-.241-.171-.441-.171zm1.363 2.004c.318.159.565.371.74.641.177.27.265.588.265.952 0 .423-.1.782-.3 1.07a1.8 1.8 0 0 1-.828.652c-.353.147-.764.218-1.223.218-.464 0-.875-.071-1.228-.218a1.845 1.845 0 0 1-.84-.652c-.206-.288-.306-.647-.306-1.07 0-.358.088-.676.27-.952.182-.27.43-.488.753-.646a1.724 1.724 0 0 1-.647-.6 1.558 1.558 0 0 1-.235-.84c0-.406.094-.747.282-1.035.188-.282.447-.499.788-.646a2.856 2.856 0 0 1 1.152-.218c.44 0 .828.071 1.163.218.335.147.594.358.788.646.188.282.282.629.282 1.035 0 .317-.076.593-.23.84-.152.253-.37.453-.646.605z" fill="#101D32"/><path d="M99.124 49.395h-6.036v14.329h6.036v-14.33z" fill="#DE4828"/><path d="M99.124 65.193h-6.036a1.47 1.47 0 0 1-1.47-1.47V49.395c0-.81.659-1.469 1.47-1.469h6.036a1.47 1.47 0 0 1 1.469 1.47v14.329a1.47 1.47 0 0 1-1.469 1.47zm-4.567-2.939h3.098v-11.39h-3.098v11.39z" fill="#101D32"/><path d="M110.203 49.395h-6.036v14.329h6.036v-14.33z" fill="#DE4828"/><path d="M110.203 65.193h-6.036a1.47 1.47 0 0 1-1.469-1.47V49.395c0-.81.658-1.469 1.469-1.469h6.036a1.47 1.47 0 0 1 1.469 1.47v14.329c0 .81-.652 1.47-1.469 1.47zm-4.567-2.939h3.098v-11.39h-3.098v11.39z" fill="#101D32"/></svg>