<svg width="686" height="187" fill="none" xmlns="http://www.w3.org/2000/svg"><path d="M47.153 16h89.694l44.842 77.5-44.842 77.5H47.153L2.311 93.5 47.153 16z" stroke="#fff" stroke-width="4"/><g clip-path="url(#a)"><path fill-rule="evenodd" clip-rule="evenodd" d="M106.546 80.392c.551-.552.551-1.469-.038-1.978-4.461-3.862-10.558-5.876-17.115-4.787-8.61 1.435-15.552 8.377-16.985 16.987-1.091 6.557.923 12.655 4.784 17.115.51.589 1.429.587 1.978.038l27.376-27.375zm22.185-18.737a1.37 1.37 0 0 1 0 1.938L110.803 81.52c-.457.457-.515 1.16-.174 1.709 2.537 4.089 3.704 9.11 2.823 14.432-1.429 8.638-8.373 15.581-17.011 17.011-5.322.881-10.344-.286-14.432-2.823-.55-.341-1.253-.282-1.71.174l-19.203 19.205a1.373 1.373 0 0 1-1.94 0l-.754-.754a1.37 1.37 0 0 1 0-1.94l9.427-9.426a1.366 1.366 0 0 0 .02-1.901c-6.7-7.26-10.343-17.373-8.662-28.375 2.22-14.548 13.88-26.206 28.428-28.427 10.764-1.64 20.672 1.81 27.895 8.233.822.73 2.055.733 2.832-.044l7.695-7.694a1.37 1.37 0 0 1 1.94 0l.754.754z" fill="#00E0FF"/></g><g clip-path="url(#b)"><path fill-rule="evenodd" clip-rule="evenodd" d="M370.546 69.392c.551-.552.551-1.469-.038-1.978-4.461-3.862-10.558-5.876-17.116-4.787-8.609 1.435-15.552 8.377-16.984 16.987-1.091 6.557.923 12.655 4.784 17.115.51.59 1.429.587 1.978.038l27.376-27.375zm22.185-18.737a1.37 1.37 0 0 1 0 1.938L374.803 70.52c-.457.457-.515 1.16-.174 1.709 2.537 4.089 3.704 9.11 2.823 14.432-1.429 8.638-8.373 15.581-17.011 17.011-5.322.881-10.343-.286-14.432-2.823-.55-.341-1.253-.282-1.709.174l-19.204 19.205a1.373 1.373 0 0 1-1.94 0l-.754-.754a1.371 1.371 0 0 1 0-1.94l9.426-9.426a1.365 1.365 0 0 0 .021-1.901c-6.699-7.26-10.343-17.373-8.662-28.375 2.22-14.548 13.88-26.206 28.428-28.427 10.764-1.64 20.672 1.81 27.895 8.233.822.73 2.055.733 2.832-.044l7.695-7.694a1.37 1.37 0 0 1 1.94 0l.754.754z" fill="#63ED79"/></g><path d="M426 150V2H309c-13.255 0-24 10.745-24 24v142.5" stroke="#fff" stroke-width="4"/><path d="M428 152H301.5c-9.113 0-16.5 7.387-16.5 16.5s7.387 16.5 16.5 16.5H428" stroke="#fff" stroke-width="4"/><g clip-path="url(#c)"><path fill-rule="evenodd" clip-rule="evenodd" d="M621.546 76.392c.551-.552.551-1.469-.038-1.978-4.461-3.862-10.558-5.876-17.116-4.787-8.609 1.435-15.552 8.377-16.984 16.987-1.091 6.557.923 12.655 4.784 17.115.51.589 1.429.587 1.978.038l27.376-27.375zm22.185-18.737a1.37 1.37 0 0 1 0 1.938L625.803 77.52c-.457.457-.515 1.16-.174 1.709 2.537 4.089 3.704 9.11 2.823 14.432-1.429 8.638-8.373 15.581-17.011 17.011-5.322.881-10.343-.286-14.432-2.823-.55-.341-1.253-.282-1.709.174l-19.204 19.205a1.373 1.373 0 0 1-1.94 0l-.754-.754a1.371 1.371 0 0 1 0-1.94l9.426-9.426a1.365 1.365 0 0 0 .021-1.901c-6.699-7.26-10.343-17.373-8.662-28.375 2.22-14.548 13.88-26.206 28.428-28.427 10.764-1.64 20.672 1.81 27.895 8.233.822.73 2.055.733 2.832-.044l7.695-7.694a1.37 1.37 0 0 1 1.94 0l.754.754z" fill="#FFDC21"/></g><path stroke="#fff" stroke-width="4" d="M601 7h14v14h-14z"/><path d="M682 90c0 40.869-33.131 74-74 74v4c43.078 0 78-34.922 78-78h-4zm-74 74c-40.869 0-74-33.131-74-74h-4c0 43.078 34.922 78 78 78v-4zm-74-74c0-38.57 29.51-70.25 67.182-73.69l-.364-3.984C561.105 15.953 530 49.343 530 90h4zm80.818-73.69C652.49 19.75 682 51.43 682 90h4c0-40.657-31.105-74.047-70.818-77.674l-.364 3.984z" fill="#fff"/><path d="M615 14h65.5" stroke="#fff" stroke-width="4"/><circle cx="681" cy="14" r="5" fill="#fff"/><path d="M601 14h-65.5" stroke="#fff" stroke-width="4"/><circle r="5" transform="matrix(-1 0 0 1 535 14)" fill="#fff"/><defs><clipPath id="a"><path fill="#fff" transform="translate(58 60)" d="M0 0h72v72H0z"/></clipPath><clipPath id="b"><path fill="#fff" transform="translate(322 49)" d="M0 0h72v72H0z"/></clipPath><clipPath id="c"><path fill="#fff" transform="translate(573 56)" d="M0 0h72v72H0z"/></clipPath></defs></svg>