<svg xmlns="http://www.w3.org/2000/svg" width="366" height="136" viewBox="0 0 366 136"><path d="M323.943 11.45V8h11.465v3.449c2.072.38 4.084.906 6.022 1.433h17.322c.428-2 1.698-2.44 3.216-2.44 1.869 0 3.384 1.459 3.384 3.327 0 1.869-1.515 3.422-3.384 3.422-1.518 0-2.787-1.31-3.216-2.31h-12.698c11.44 6 19.278 17.842 19.278 31.6 0 19.66-15.995 35.6-35.656 35.6S294.02 66.124 294.02 46.46c0-13.756 7.838-25.58 19.278-31.58H300.6c-.429 1-1.698 2.328-3.216 2.328-1.869 0-3.384-1.571-3.384-3.44 0-1.868 1.515-3.346 3.384-3.346 1.518 0 2.788.459 3.216 2.459h17.322c1.937-.526 3.95-1.052 6.021-1.433zm0 5.838c-13.619 2.678-23.923 14.708-23.923 29.1 0 16.352 13.303 29.656 29.656 29.656 16.353 0 29.656-13.304 29.656-29.656 0-14.392-10.305-26.423-23.924-29.1v2.177h-11.465v-2.177zm3.001-.823h5.465V11h-5.465v5.465zm10.541 22.272L322.12 54.102c-.309.31-.824.31-1.11-.02-2.168-2.505-3.298-5.927-2.686-9.607.804-4.833 4.701-8.73 9.534-9.534 3.68-.613 7.102.518 9.606 2.686.33.286.33.801.021 1.11zm12.029-10.94a.77.77 0 0 0-1.089 0l-4.319 4.32c-.436.435-1.129.433-1.59.023-4.053-3.605-9.615-5.542-15.656-4.62-8.166 1.246-14.71 7.79-15.957 15.955-.943 6.176 1.102 11.851 4.862 15.926a.766.766 0 0 1-.011 1.067l-5.291 5.291a.768.768 0 0 0 0 1.088l.423.424c.301.3.788.3 1.089 0l10.779-10.779a.77.77 0 0 1 .959-.098 11.638 11.638 0 0 0 8.1 1.585c4.849-.803 8.746-4.7 9.548-9.549.495-2.987-.161-5.805-1.584-8.1a.77.77 0 0 1 .098-.959l10.062-10.063a.768.768 0 0 0 0-1.088l-.423-.423zM163 12.131C163 8.822 165.691 6 169 6h52v58h-52c-2.184 0-4.234.718-6 1.741v-53.61zM169 70c-3.309 0-6 2.692-6 6 0 3.309 2.691 6 6 6h58v6h-58c-6.617 0-12-5.252-12-11.869v-64C157 5.514 162.383 0 169 0h58v70h-58zm13.833-35.878a10.933 10.933 0 0 0 2.526 9.033c.269.31.753.31 1.044.02l14.447-14.448c.29-.291.29-.775-.02-1.044a10.938 10.938 0 0 0-9.032-2.526c-4.544.757-8.21 4.42-8.965 8.965zm-6.994 21.435a.724.724 0 0 0 1.024 0l10.135-10.135a.726.726 0 0 1 .902-.092 10.947 10.947 0 0 0 7.617 1.49c4.559-.755 8.224-4.42 8.979-8.98a10.94 10.94 0 0 0-1.491-7.615.725.725 0 0 1 .093-.902l9.46-9.462a.724.724 0 0 0 0-1.024l-.397-.398a.724.724 0 0 0-1.023 0l-4.062 4.062c-.41.41-1.061.408-1.495.023-3.811-3.39-9.041-5.212-14.721-4.345-7.68 1.172-13.833 7.325-15.005 15.003-.887 5.807 1.037 11.144 4.572 14.976a.721.721 0 0 1-.01 1.003l-4.976 4.975a.724.724 0 0 0 0 1.023l.398.398zM72.889 10l20.963 36-20.963 36H30.963L10 46l20.963-36h41.926zm-3.464 66l17.499-30-17.499-30H34.427L16.928 46l17.499 30h34.998zm2.06-46.058a.722.722 0 0 1 0 1.023l-9.462 9.462a.726.726 0 0 0-.092.902c1.34 2.158 1.955 4.808 1.49 7.617-.754 4.56-4.419 8.223-8.978 8.978-2.809.465-5.459-.15-7.617-1.49a.726.726 0 0 0-.902.092L35.79 66.662a.725.725 0 0 1-1.024 0l-.398-.398a.724.724 0 0 1 0-1.024l4.975-4.975a.72.72 0 0 0 .011-1.003c-3.536-3.832-5.459-9.169-4.572-14.976 1.172-7.678 7.326-13.83 15.004-15.003 5.681-.866 10.91.955 14.722 4.345.434.385 1.085.387 1.495-.023l4.061-4.06a.724.724 0 0 1 1.024 0l.398.397zm-11.709 9.89c.291-.292.291-.776-.02-1.045a10.939 10.939 0 0 0-9.033-2.526c-4.544.757-8.208 4.421-8.964 8.965a10.935 10.935 0 0 0 2.525 9.033c.27.311.754.31 1.044.02l14.448-14.448zm-52.128 76.39c-.086.91-.422 1.62-1.008 2.13-.586.51-1.365.765-2.338.765-.68 0-1.278-.16-1.796-.483a3.172 3.172 0 0 1-1.198-1.374c-.281-.594-.428-1.283-.44-2.069v-.796c0-.805.143-1.514.428-2.127.285-.614.695-1.086 1.228-1.418.533-.332 1.15-.498 1.848-.498.942 0 1.7.255 2.274.767.574.512.908 1.235 1.002 2.168H6.17c-.07-.613-.249-1.056-.536-1.327-.287-.272-.708-.407-1.263-.407-.644 0-1.14.235-1.485.706-.346.47-.522 1.16-.53 2.071v.756c0 .922.165 1.625.495 2.11.33.484.813.726 1.45.726.582 0 1.02-.131 1.313-.393.293-.261.478-.697.556-1.306h1.477zm1.289-.45c0-.622.123-1.181.37-1.68a2.69 2.69 0 0 1 1.036-1.148c.446-.267.957-.401 1.535-.401.856 0 1.55.275 2.083.826.534.55.822 1.281.865 2.192l.005.334c0 .625-.12 1.183-.36 1.675-.24.493-.584.873-1.031 1.143-.447.27-.964.404-1.55.404-.894 0-1.61-.298-2.147-.893-.537-.596-.806-1.39-.806-2.382v-.07zm1.424.123c0 .652.135 1.163.404 1.532.27.369.645.553 1.125.553s.855-.187 1.122-.562c.268-.375.402-.924.402-1.647 0-.64-.138-1.148-.414-1.523a1.319 1.319 0 0 0-1.122-.562c-.464 0-.834.184-1.107.553-.273.37-.41.921-.41 1.656zm9.363-1.934a3.523 3.523 0 0 0-.58-.047c-.652 0-1.092.25-1.318.75V119h-1.424v-6.34h1.36l.034.71c.344-.552.82-.827 1.43-.827.203 0 .371.027.504.082l-.006 1.336zm3.95 5.156c-.903 0-1.634-.284-2.195-.852-.56-.569-.84-1.326-.84-2.27v-.177c0-.632.121-1.198.366-1.696a2.787 2.787 0 0 1 1.028-1.163 2.719 2.719 0 0 1 1.476-.416c.864 0 1.53.275 2.001.826.471.55.706 1.33.706 2.338v.574h-4.142c.043.524.218.938.524 1.242.307.305.693.457 1.157.457.653 0 1.184-.263 1.594-.79l.768.732a2.563 2.563 0 0 1-1.017.882c-.424.209-.9.313-1.427.313zm-.17-5.431c-.391 0-.707.136-.947.41-.24.273-.393.654-.46 1.142h2.713v-.105c-.031-.477-.158-.837-.38-1.081-.223-.244-.532-.366-.926-.366zm12.597 1.699h-3.433V119h-1.483v-8.531h5.42v1.195h-3.937v2.537H36.1v1.184zm5.075-1.424a3.523 3.523 0 0 0-.58-.047c-.653 0-1.092.25-1.319.75V119h-1.424v-6.34h1.36l.035.71c.344-.552.82-.827 1.43-.827.203 0 .37.027.504.082l-.006 1.336zm4.88 5.039c-.062-.121-.117-.318-.163-.592a2.216 2.216 0 0 1-1.664.71c-.637 0-1.157-.182-1.56-.546a1.743 1.743 0 0 1-.603-1.347c0-.676.251-1.195.753-1.556s1.22-.542 2.154-.542h.873v-.416c0-.328-.092-.59-.276-.788-.183-.197-.463-.296-.838-.296-.324 0-.59.081-.796.243a.753.753 0 0 0-.311.618h-1.424c0-.347.115-.673.346-.975a2.3 2.3 0 0 1 .94-.712 3.303 3.303 0 0 1 1.327-.258c.743 0 1.334.186 1.776.56.441.373.668.897.68 1.573v2.86c0 .57.08 1.025.24 1.364v.1h-1.453zm-1.564-1.025c.281 0 .546-.069.794-.205a1.37 1.37 0 0 0 .56-.551v-1.196h-.768c-.527 0-.924.092-1.19.276a.892.892 0 0 0-.398.78c0 .273.091.49.273.652.181.163.424.244.73.244zm5.977-5.315l.04.662c.446-.52 1.056-.779 1.829-.779.848 0 1.428.324 1.74.973.461-.649 1.11-.973 1.946-.973.699 0 1.22.193 1.561.58.342.387.517.957.524 1.711V119h-1.423v-4.125c0-.402-.088-.697-.264-.885-.176-.187-.467-.281-.873-.281-.324 0-.589.087-.794.26a1.375 1.375 0 0 0-.43.683L54.33 119h-1.424v-4.172c-.02-.746-.4-1.119-1.142-1.119-.57 0-.975.232-1.213.697V119h-1.424v-6.34h1.342zm12.264 6.457c-.903 0-1.634-.284-2.195-.852-.56-.569-.84-1.326-.84-2.27v-.177c0-.632.122-1.198.366-1.696a2.787 2.787 0 0 1 1.028-1.163 2.719 2.719 0 0 1 1.477-.416c.863 0 1.53.275 2 .826.471.55.707 1.33.707 2.338v.574h-4.143c.043.524.218.938.524 1.242.307.305.693.457 1.158.457.652 0 1.183-.263 1.593-.79l.768.732a2.563 2.563 0 0 1-1.017.882 3.18 3.18 0 0 1-1.426.313zm-.17-5.431c-.39 0-.706.136-.947.41-.24.273-.393.654-.46 1.142h2.713v-.105c-.03-.477-.158-.837-.38-1.081-.223-.244-.532-.366-.926-.366zm9.756 3.351l1.007-4.377h1.39l-1.73 6.34h-1.171l-1.36-4.354L69.12 119h-1.171l-1.735-6.34h1.389l1.025 4.33 1.301-4.33H71l1.319 4.377zm3.45-1.266c0-.62.124-1.18.37-1.678s.592-.881 1.037-1.149c.445-.267.957-.401 1.535-.401.856 0 1.55.275 2.083.826.534.55.822 1.281.865 2.192l.005.334c0 .625-.12 1.183-.36 1.675-.24.493-.584.873-1.031 1.143-.447.27-.964.404-1.55.404-.895 0-1.61-.298-2.147-.893-.538-.596-.806-1.39-.806-2.382v-.07zm1.425.124c0 .652.134 1.163.404 1.532s.645.553 1.125.553.855-.187 1.122-.562c.268-.375.401-.924.401-1.647 0-.64-.137-1.148-.413-1.523a1.319 1.319 0 0 0-1.122-.562c-.465 0-.834.184-1.107.553-.274.37-.41.921-.41 1.656zm9.363-1.934a3.523 3.523 0 0 0-.58-.047c-.652 0-1.092.25-1.318.75V119h-1.424v-6.34h1.36l.034.71c.344-.552.82-.827 1.43-.827.203 0 .371.027.504.082l-.006 1.336zm3.328 2.32l-.633.65V119H87.83v-9h1.423v5.191l.446-.556 1.752-1.975h1.71l-2.355 2.643L93.413 119h-1.647l-1.88-2.719zm74.854-.058c-.086.91-.422 1.62-1.008 2.13-.586.51-1.365.764-2.338.764-.68 0-1.278-.16-1.796-.483a3.172 3.172 0 0 1-1.198-1.374c-.281-.594-.428-1.283-.44-2.069v-.796c0-.805.143-1.514.428-2.127.285-.614.695-1.086 1.228-1.418.533-.332 1.15-.498 1.848-.498.942 0 1.7.255 2.274.767.574.512.908 1.235 1.002 2.168h-1.477c-.07-.613-.249-1.056-.536-1.327-.287-.272-.708-.407-1.263-.407-.644 0-1.14.235-1.485.706-.346.47-.522 1.16-.53 2.071v.756c0 .922.165 1.625.495 2.11.33.484.813.726 1.45.726.582 0 1.02-.131 1.313-.393.293-.261.478-.697.556-1.306h1.477zm1.289-.452c0-.62.123-1.18.37-1.678.245-.498.59-.881 1.036-1.149.445-.267.957-.401 1.535-.401.856 0 1.55.275 2.083.826.534.55.822 1.281.865 2.192l.005.334c0 .625-.12 1.183-.36 1.675-.24.493-.584.873-1.031 1.143-.447.27-.964.404-1.55.404-.894 0-1.61-.298-2.147-.893-.538-.596-.806-1.39-.806-2.382v-.07zm1.424.124c0 .652.135 1.163.404 1.532.27.369.645.553 1.125.553s.855-.187 1.122-.562c.268-.375.401-.924.401-1.647 0-.64-.137-1.148-.413-1.523a1.319 1.319 0 0 0-1.122-.562c-.465 0-.834.184-1.107.553-.274.37-.41.921-.41 1.656zm9.363-1.934a3.523 3.523 0 0 0-.58-.047c-.652 0-1.092.25-1.318.75V119h-1.424v-6.34h1.36l.034.71c.344-.552.82-.827 1.43-.827.203 0 .371.027.504.082l-.006 1.336zm3.95 5.156c-.903 0-1.634-.284-2.195-.852-.56-.569-.84-1.326-.84-2.27v-.177c0-.632.121-1.198.365-1.696a2.787 2.787 0 0 1 1.029-1.163 2.719 2.719 0 0 1 1.476-.416c.864 0 1.53.275 2.001.826.471.55.706 1.33.706 2.338v.574h-4.142c.043.524.218.938.524 1.242.307.305.693.457 1.157.457.653 0 1.184-.263 1.594-.79l.768.732a2.563 2.563 0 0 1-1.017.882c-.424.209-.9.313-1.427.313zm-.17-5.431c-.391 0-.707.136-.947.41-.24.273-.393.654-.46 1.142h2.713v-.105c-.031-.477-.158-.837-.38-1.081-.223-.244-.532-.366-.926-.366zm7.681 5.314v-8.531h2.52c.754 0 1.423.168 2.007.504a3.436 3.436 0 0 1 1.356 1.43c.32.617.48 1.324.48 2.12v.428c0 .809-.16 1.52-.483 2.133a3.395 3.395 0 0 1-1.377 1.418c-.595.332-1.278.498-2.048.498h-2.455zm1.483-7.336v6.152h.967c.777 0 1.374-.243 1.79-.73.416-.485.628-1.184.635-2.094v-.474c0-.926-.2-1.633-.603-2.122-.403-.488-.987-.732-1.752-.732h-1.037zm9.38 7.453c-.902 0-1.633-.284-2.194-.852-.56-.569-.84-1.326-.84-2.27v-.177c0-.632.122-1.198.366-1.696a2.787 2.787 0 0 1 1.028-1.163 2.719 2.719 0 0 1 1.477-.416c.863 0 1.53.275 2 .826.471.55.707 1.33.707 2.338v.574h-4.143c.043.524.218.938.524 1.242.307.305.693.457 1.158.457.652 0 1.183-.263 1.593-.79l.768.732a2.563 2.563 0 0 1-1.017.882 3.178 3.178 0 0 1-1.426.313zm-.17-5.431c-.39 0-.705.136-.946.41-.24.273-.393.654-.46 1.142h2.713v-.105c-.03-.477-.158-.837-.38-1.081-.223-.244-.532-.366-.926-.366zm7.741 3.591a.645.645 0 0 0-.313-.58c-.21-.133-.556-.25-1.04-.351a5.346 5.346 0 0 1-1.213-.387c-.711-.344-1.067-.842-1.067-1.494 0-.547.23-1.004.692-1.371.46-.367 1.047-.551 1.758-.551.757 0 1.37.187 1.836.562.467.375.7.862.7 1.46h-1.423a.877.877 0 0 0-.305-.683c-.203-.182-.473-.273-.808-.273-.313 0-.568.073-.765.217a.683.683 0 0 0-.296.58c0 .219.092.389.275.51.184.121.555.243 1.114.366.558.123.997.27 1.315.44.318.17.555.374.709.612.154.238.231.527.231.867 0 .57-.236 1.032-.708 1.386-.473.353-1.092.53-1.858.53-.52 0-.982-.094-1.389-.281a2.285 2.285 0 0 1-.949-.773 1.83 1.83 0 0 1-.34-1.061h1.383c.02.336.147.595.381.776.234.182.545.273.932.273.375 0 .66-.072.855-.214a.662.662 0 0 0 .293-.56zm4.524 1.723h-1.424v-6.34h1.424V119zm-1.512-7.986c0-.22.07-.4.208-.545.139-.145.337-.217.595-.217.257 0 .457.072.597.217a.75.75 0 0 1 .211.545c0 .215-.07.393-.21.536-.141.142-.34.214-.598.214-.258 0-.456-.072-.595-.214a.738.738 0 0 1-.208-.536zm3.182 4.77c0-.985.231-1.771.694-2.36.463-.587 1.077-.881 1.843-.881.722 0 1.29.252 1.705.756l.064-.639h1.283v6.147c0 .832-.258 1.488-.776 1.968-.517.48-1.216.721-2.095.721-.464 0-.919-.097-1.362-.29-.443-.193-.78-.446-1.01-.759l.673-.855c.438.52.977.78 1.617.78.473 0 .846-.129 1.12-.385.273-.256.41-.632.41-1.128v-.427c-.41.457-.957.685-1.641.685-.742 0-1.349-.295-1.82-.885-.47-.59-.705-1.406-.705-2.449zm1.418.122c0 .637.13 1.138.39 1.503.259.365.62.548 1.08.548.575 0 1-.246 1.278-.738v-2.79c-.27-.48-.692-.72-1.266-.72-.469 0-.833.186-1.093.557-.26.37-.39.918-.39 1.64zm7.324-3.246l.04.733c.47-.567 1.085-.85 1.847-.85 1.32 0 1.992.756 2.015 2.268V119h-1.424v-4.107c0-.403-.086-.7-.26-.894-.174-.193-.458-.29-.853-.29-.574 0-1.002.26-1.283.78V119h-1.424v-6.34h1.342zm-52.36 21.233c-.309.402-.737.707-1.284.914-.546.207-1.167.31-1.863.31-.715 0-1.347-.162-1.898-.486a3.24 3.24 0 0 1-1.275-1.392c-.298-.603-.454-1.307-.465-2.112v-.668c0-1.29.308-2.296.925-3.02.617-.725 1.479-1.087 2.584-1.087.95 0 1.703.234 2.262.703.559.468.895 1.144 1.008 2.027h-1.453c-.164-1.027-.76-1.541-1.787-1.541-.664 0-1.17.24-1.515.718-.346.478-.524 1.18-.536 2.106v.656c0 .922.194 1.638.583 2.148.388.51.929.765 1.62.765.758 0 1.297-.172 1.617-.516v-1.67h-1.758v-1.125h3.235v3.27zm5.7.486c-.417.492-1.01.738-1.78.738-.688 0-1.208-.201-1.562-.603-.353-.403-.53-.985-.53-1.746v-4.108h1.424v4.09c0 .805.334 1.207 1.002 1.207.691 0 1.158-.248 1.4-.744v-4.553h1.424V135h-1.342l-.035-.621zm4.712.621h-1.424v-6.34h1.424V135zm-1.512-7.986c0-.22.07-.4.208-.545.139-.145.337-.217.595-.217.258 0 .457.072.598.217a.75.75 0 0 1 .21.545c0 .215-.07.393-.21.536-.141.142-.34.214-.598.214-.258 0-.456-.072-.595-.214a.738.738 0 0 1-.208-.536zm3.164 4.77c0-.977.227-1.762.68-2.353.453-.592 1.06-.888 1.822-.888.672 0 1.215.234 1.63.703V126h1.423v9h-1.289l-.07-.656c-.426.515-.994.773-1.705.773-.743 0-1.343-.299-1.802-.896-.46-.598-.689-1.41-.689-2.438zm1.424.122c0 .645.124 1.148.372 1.509s.6.542 1.058.542c.582 0 1.008-.26 1.277-.78v-2.706c-.261-.508-.683-.762-1.265-.762-.461 0-.817.183-1.067.548-.25.365-.375.915-.375 1.65zm8.778 3.211c-.903 0-1.634-.284-2.195-.852-.56-.569-.84-1.326-.84-2.27v-.177c0-.632.122-1.198.366-1.696a2.787 2.787 0 0 1 1.028-1.163 2.719 2.719 0 0 1 1.477-.416c.863 0 1.53.275 2 .826.471.55.707 1.33.707 2.338v.574h-4.143c.043.524.218.938.524 1.242.307.305.693.457 1.158.457.652 0 1.183-.263 1.593-.79l.768.732a2.563 2.563 0 0 1-1.017.882 3.178 3.178 0 0 1-1.426.313zm-.17-5.431c-.39 0-.706.136-.947.41-.24.273-.393.654-.46 1.142h2.713v-.105c-.03-.477-.158-.837-.38-1.081-.223-.244-.532-.366-.926-.366zm5.701 5.314h-1.424v-9h1.424v9zm3.434 0h-1.424v-6.34h1.424V135zm-1.512-7.986c0-.22.07-.4.208-.545.139-.145.337-.217.595-.217.258 0 .457.072.597.217a.75.75 0 0 1 .211.545c0 .215-.07.393-.21.536-.141.142-.34.214-.598.214-.258 0-.456-.072-.595-.214a.738.738 0 0 1-.208-.536zm4.752 1.646l.041.733c.469-.567 1.084-.85 1.846-.85 1.32 0 1.992.756 2.015 2.268V135h-1.423v-4.107c0-.403-.087-.7-.261-.894-.174-.193-.458-.29-.853-.29-.574 0-1.002.26-1.283.78V135h-1.424v-6.34h1.342zm8.514 6.457c-.903 0-1.634-.284-2.195-.852-.56-.569-.84-1.326-.84-2.27v-.177c0-.632.122-1.198.366-1.696a2.787 2.787 0 0 1 1.028-1.163 2.719 2.719 0 0 1 1.477-.416c.863 0 1.53.275 2 .826.471.55.707 1.33.707 2.338v.574h-4.143c.043.524.218.938.525 1.242.306.305.692.457 1.157.457.652 0 1.183-.263 1.594-.79l.767.732a2.563 2.563 0 0 1-1.016.882c-.424.209-.9.313-1.427.313zm-.17-5.431c-.39 0-.706.136-.946.41-.24.273-.394.654-.46 1.142h2.712v-.105c-.03-.477-.158-.837-.38-1.081-.223-.244-.532-.366-.926-.366zm7.74 3.591a.645.645 0 0 0-.313-.58c-.21-.133-.556-.25-1.04-.351a5.346 5.346 0 0 1-1.213-.387c-.711-.344-1.067-.842-1.067-1.494 0-.547.23-1.004.692-1.371.46-.367 1.047-.551 1.758-.551.757 0 1.37.187 1.837.562.466.375.7.862.7 1.46h-1.424a.877.877 0 0 0-.305-.683c-.203-.182-.472-.273-.808-.273-.313 0-.568.073-.765.217a.683.683 0 0 0-.296.58c0 .219.092.389.275.51.184.121.555.243 1.114.366.558.123.997.27 1.315.44.319.17.555.374.71.612.153.238.23.527.23.867 0 .57-.236 1.032-.708 1.386-.473.353-1.092.53-1.858.53-.52 0-.982-.094-1.389-.281a2.285 2.285 0 0 1-.949-.774 1.83 1.83 0 0 1-.34-1.06h1.383c.02.336.147.595.381.776.234.182.545.273.932.273.375 0 .66-.072.855-.214a.662.662 0 0 0 .293-.56zm96.539-17.054c-.086.91-.422 1.62-1.008 2.13-.586.51-1.365.764-2.338.764-.68 0-1.278-.16-1.796-.483-.518-.322-.917-.78-1.198-1.374-.282-.594-.428-1.283-.44-2.069v-.796c0-.805.143-1.514.428-2.127.285-.614.694-1.086 1.228-1.418.533-.332 1.149-.498 1.848-.498.942 0 1.7.255 2.274.767.574.512.908 1.235 1.002 2.168h-1.477c-.07-.613-.249-1.056-.536-1.327-.287-.272-.708-.407-1.263-.407-.644 0-1.14.235-1.485.706-.346.47-.523 1.16-.53 2.071v.756c0 .922.165 1.625.495 2.11.33.484.813.726 1.45.726.582 0 1.02-.131 1.312-.393.293-.261.479-.697.557-1.306h1.477zm1.289-.452c0-.62.123-1.18.369-1.678s.592-.881 1.037-1.149c.445-.267.957-.401 1.535-.401.856 0 1.55.275 2.083.826.533.55.821 1.281.864 2.192l.006.334c0 .625-.12 1.183-.36 1.675-.24.493-.584.873-1.031 1.143-.448.27-.964.404-1.55.404-.895 0-1.61-.298-2.148-.893-.537-.596-.805-1.39-.805-2.382v-.07zm1.424.124c0 .652.134 1.163.404 1.532s.644.553 1.125.553c.48 0 .854-.187 1.122-.562.267-.375.401-.924.401-1.647 0-.64-.137-1.148-.413-1.523a1.319 1.319 0 0 0-1.122-.562c-.465 0-.834.184-1.107.553-.274.37-.41.921-.41 1.656zm9.363-1.934a3.523 3.523 0 0 0-.58-.047c-.653 0-1.092.25-1.319.75V119h-1.423v-6.34h1.359l.035.71c.344-.552.82-.827 1.43-.827.203 0 .371.027.504.082l-.006 1.336zm3.95 5.156c-.903 0-1.635-.284-2.195-.852-.56-.569-.84-1.326-.84-2.27v-.177c0-.632.121-1.198.365-1.696a2.787 2.787 0 0 1 1.029-1.163 2.719 2.719 0 0 1 1.476-.416c.863 0 1.53.275 2.001.826.47.55.706 1.33.706 2.338v.574h-4.142c.043.524.217.938.524 1.242.307.305.692.457 1.157.457.653 0 1.184-.263 1.594-.79l.768.732a2.563 2.563 0 0 1-1.017.882c-.424.209-.9.313-1.427.313zm-.17-5.431c-.391 0-.707.136-.947.41-.24.273-.394.654-.46 1.142h2.713v-.105c-.031-.477-.158-.837-.38-1.081-.224-.244-.532-.366-.927-.366zm13.921-3.217v5.7c0 .907-.29 1.625-.87 2.154-.58.53-1.352.794-2.317.794-.977 0-1.752-.26-2.326-.782-.575-.522-.862-1.245-.862-2.17v-5.696h1.477v5.707c0 .57.144 1.006.434 1.306.289.301.714.452 1.277.452 1.14 0 1.71-.602 1.71-1.805v-5.66h1.477zm3.516 8.531h-1.476v-8.531h1.476V119z" fill="#222" fill-rule="evenodd"/></svg>