<svg width="790" height="185" viewBox="0 0 790 185" fill="none" xmlns="http://www.w3.org/2000/svg"><path d="M96.956 152.31c-.404 1.463-1.975 2.639-3.447 2.639H7.862c-1.479 0-3.042-1.176-3.446-2.639a88.98 88.98 0 0 1 0-46.944c.404-1.463 1.974-2.639 3.446-2.639h85.647c1.479 0 3.043 1.176 3.447 2.639a89.117 89.117 0 0 1 0 46.944z" fill="#2D2A26"/><path d="M7.862 153.969a1.71 1.71 0 0 1-1.707-1.711v-46.84a1.71 1.71 0 0 1 1.707-1.711h85.647a1.71 1.71 0 0 1 1.707 1.711v46.84a1.71 1.71 0 0 1-1.707 1.711H7.862z" fill="#fff"/><path d="M93.502 104.686a.73.73 0 0 1 .73.732v46.84a.729.729 0 0 1-.73.731H7.862a.729.729 0 0 1-.73-.731v-46.84a.73.73 0 0 1 .73-.732h85.64zm0-1.959H7.862a2.688 2.688 0 0 0-2.684 2.691v46.84a2.684 2.684 0 0 0 2.684 2.691H93.51a2.688 2.688 0 0 0 2.684-2.691v-46.84a2.694 2.694 0 0 0-2.69-2.691z" fill="#2D2A26"/><path d="M117.723 11.815l-26.554 8.251 14.347 46.426 26.555-8.25-14.348-46.427z" fill="#fff"/><path d="M116.429 14.267l13.193 42.678-22.816 7.089-13.193-42.679 22.816-7.088zm2.573-4.9l-30.288 9.408 15.506 50.171 30.288-9.407-15.506-50.171z" fill="#2D2A26"/><path d="M207.229 67.568c19.071 0 34.53-10.041 34.53-22.427s-15.459-22.427-34.53-22.427c-19.07 0-34.529 10.041-34.529 22.427s15.459 22.427 34.529 22.427z" fill="#fff"/><path d="M207.229 24.668c8.985 0 17.376 2.306 23.631 6.486 5.765 3.855 8.945 8.82 8.945 13.987s-3.18 10.126-8.945 13.986c-6.255 4.181-14.646 6.487-23.631 6.487-8.984 0-17.375-2.306-23.63-6.487-5.766-3.854-8.945-8.819-8.945-13.986s3.179-10.126 8.945-13.986c6.255-4.181 14.646-6.488 23.63-6.488zm0-3.92c-20.151 0-36.484 10.916-36.484 24.386 0 13.47 16.333 24.387 36.484 24.387 20.151 0 36.485-10.916 36.485-24.387 0-13.463-16.334-24.386-36.485-24.386z" fill="#2D2A26"/><path d="M207.229 50.315c2.85 0 5.16-2.317 5.16-5.174a5.167 5.167 0 0 0-5.16-5.174 5.167 5.167 0 0 0-5.16 5.174c0 2.857 2.311 5.174 5.16 5.174zm3.48 16.763h-6.952v4.9h6.952v-4.9zm-38.231-19.99c.424 1.875 3.01 4.128 1.798 5.585l-.632 2.006c-2.111 0-6.639-1.745-7.746-5.795a14.32 14.32 0 0 1 0-7.493c1.114-4.05 5.512-5.866 7.746-5.794l.456 1.914c1.206 1.457-1.205 3.808-1.628 5.683a7.516 7.516 0 0 0 .006 3.894zm69.431 0c-.423 1.875-3.01 4.128-1.798 5.585l.632 2.006c2.111 0 6.639-1.745 7.746-5.795a14.32 14.32 0 0 0 0-7.493c-1.114-4.05-5.511-5.866-7.746-5.794l-.456 1.914c-1.205 1.457 1.205 3.808 1.629 5.683a7.527 7.527 0 0 1-.007 3.894zM228.071 26.81a1.13 1.13 0 0 1-.287-.039.983.983 0 0 1-.651-1.222c3.961-13.098 17.819-20.519 30.881-16.547a.98.98 0 0 1-.567 1.875c-12.033-3.658-24.789 3.175-28.444 15.24a.976.976 0 0 1-.932.693z" fill="#2D2A26"/><path d="M603.11 116.164c-3.537 0-6.417-2.887-6.417-6.434s2.88-6.435 6.417-6.435c3.538 0 6.418 2.888 6.418 6.435 0 3.554-2.88 6.434-6.418 6.434z" fill="#fff"/><path d="M603.111 104.281c2.997 0 5.44 2.444 5.44 5.455 0 3.005-2.437 5.455-5.44 5.455-2.997 0-5.441-2.443-5.441-5.455.007-3.005 2.444-5.455 5.441-5.455zm0-1.959c-4.085 0-7.395 3.318-7.395 7.414s3.31 7.415 7.395 7.415c4.085 0 7.394-3.319 7.394-7.415s-3.309-7.414-7.394-7.414z" fill="#2D2A26"/><path d="M620.297 116.164c-3.537 0-6.417-2.887-6.417-6.434s2.88-6.435 6.417-6.435c3.538 0 6.411 2.888 6.411 6.435 0 3.554-2.88 6.434-6.411 6.434z" fill="#fff"/><path d="M620.297 104.281c2.997 0 5.434 2.444 5.434 5.455 0 3.005-2.437 5.455-5.434 5.455-2.997 0-5.44-2.443-5.44-5.455 0-3.005 2.437-5.455 5.44-5.455zm0-1.959c-4.085 0-7.394 3.318-7.394 7.414s3.309 7.415 7.394 7.415 7.388-3.319 7.388-7.415-3.309-7.414-7.388-7.414z" fill="#2D2A26"/><path d="M603.11 133.208c3.545 0 6.418-2.881 6.418-6.434 0-3.554-2.873-6.435-6.418-6.435-3.544 0-6.417 2.881-6.417 6.435 0 3.553 2.873 6.434 6.417 6.434z" fill="#fff"/><path d="M603.111 121.325c2.997 0 5.44 2.444 5.44 5.455 0 3.005-2.437 5.455-5.44 5.455-2.997 0-5.441-2.443-5.441-5.455.007-3.011 2.444-5.455 5.441-5.455zm0-1.96c-4.085 0-7.395 3.319-7.395 7.415s3.31 7.415 7.395 7.415c4.085 0 7.394-3.319 7.394-7.415s-3.309-7.415-7.394-7.415z" fill="#2D2A26"/><path d="M620.297 133.208c-3.537 0-6.417-2.887-6.417-6.434 0-3.548 2.88-6.435 6.417-6.435 3.538 0 6.411 2.887 6.411 6.435 0 3.547-2.88 6.434-6.411 6.434z" fill="#fff"/><path d="M620.297 121.325c2.997 0 5.434 2.444 5.434 5.455 0 3.005-2.437 5.455-5.434 5.455-2.997 0-5.44-2.443-5.44-5.455 0-3.011 2.437-5.455 5.44-5.455zm0-1.96c-4.085 0-7.394 3.319-7.394 7.415s3.309 7.415 7.394 7.415 7.388-3.319 7.388-7.415-3.309-7.415-7.388-7.415z" fill="#2D2A26"/><path d="M603.11 150.762c-3.537 0-6.417-2.888-6.417-6.435 0-3.547 2.88-6.435 6.417-6.435 3.538 0 6.418 2.888 6.418 6.435 0 3.547-2.88 6.435-6.418 6.435z" fill="#fff"/><path d="M603.111 138.879c2.997 0 5.44 2.443 5.44 5.454 0 3.005-2.437 5.455-5.44 5.455-2.997 0-5.441-2.443-5.441-5.455.007-3.011 2.444-5.454 5.441-5.454zm0-1.96c-4.085 0-7.395 3.318-7.395 7.414s3.31 7.415 7.395 7.415c4.085 0 7.394-3.319 7.394-7.415s-3.309-7.414-7.394-7.414z" fill="#2D2A26"/><path d="M625.092 154.368c-3.537 0-6.417-2.888-6.417-6.435 0-3.547 2.88-6.435 6.417-6.435 3.538 0 6.418 2.888 6.418 6.435 0 3.554-2.88 6.435-6.418 6.435z" fill="#fff"/><path d="M625.092 142.485c2.997 0 5.44 2.443 5.44 5.455 0 3.005-2.436 5.454-5.44 5.454-3.003 0-5.44-2.443-5.44-5.454.007-3.006 2.443-5.455 5.44-5.455zm0-1.96c-4.085 0-7.394 3.319-7.394 7.415s3.309 7.414 7.394 7.414 7.395-3.318 7.395-7.414-3.31-7.415-7.395-7.415z" fill="#2D2A26"/><path d="M310.369 69.43c6.179 0 11.187-5.022 11.187-11.217s-5.008-11.217-11.187-11.217c-6.178 0-11.186 5.022-11.186 11.217s5.008 11.217 11.186 11.217z" fill="#fff"/><path d="M310.369 47.983c5.629 0 10.21 4.592 10.21 10.236 0 5.645-4.581 10.237-10.21 10.237-5.629 0-10.209-4.592-10.209-10.237 0-5.644 4.587-10.236 10.209-10.236zm0-1.96c-6.717 0-12.163 5.461-12.163 12.196 0 6.736 5.446 12.197 12.163 12.197 6.717 0 12.164-5.461 12.164-12.197 0-6.735-5.447-12.196-12.164-12.196zm40.361-18.71c-.502 0-1.003-.19-1.381-.575l-5.095-5.108a1.964 1.964 0 0 1 0-2.77 1.95 1.95 0 0 1 2.762 0l5.095 5.108a1.964 1.964 0 0 1 0 2.77 1.973 1.973 0 0 1-1.381.575z" fill="#2D2A26"/><path d="M342.495 23.198a6.04 6.04 0 0 1-4.3-1.784 6.07 6.07 0 0 1-1.778-4.311 6.07 6.07 0 0 1 1.778-4.312 6.04 6.04 0 0 1 4.3-1.783 6.04 6.04 0 0 1 4.3 1.783 6.07 6.07 0 0 1 1.779 4.312 6.07 6.07 0 0 1-1.779 4.311 6.028 6.028 0 0 1-4.3 1.784z" fill="#fff"/><path d="M342.495 12.96c1.101 0 2.137.432 2.919 1.21a4.152 4.152 0 0 1 0 5.853 4.09 4.09 0 0 1-2.919 1.208 4.117 4.117 0 0 1-2.919-1.208 4.152 4.152 0 0 1 0-5.854 4.117 4.117 0 0 1 2.919-1.208zm0-3.919a7.988 7.988 0 0 0-5.681 2.359c-3.14 3.148-3.14 8.25 0 11.393a8 8 0 0 0 5.681 2.358 8 8 0 0 0 5.681-2.358c3.14-3.15 3.14-8.251 0-11.393a8.003 8.003 0 0 0-5.681-2.359z" fill="#2D2A26"/><path d="M342.593 60.31c5.638 0 10.209-4.583 10.209-10.237 0-5.653-4.571-10.237-10.209-10.237s-10.209 4.584-10.209 10.237c0 5.654 4.571 10.237 10.209 10.237z" fill="#fff"/><path d="M342.593 41.796c4.547 0 8.254 3.71 8.254 8.277 0 4.56-3.7 8.277-8.254 8.277-4.548 0-8.255-3.71-8.255-8.277.007-4.566 3.707-8.277 8.255-8.277zm0-3.92c-6.717 0-12.164 5.462-12.164 12.197 0 6.735 5.447 12.197 12.164 12.197s12.163-5.462 12.163-12.197c0-6.735-5.446-12.196-12.163-12.196z" fill="#2D2A26"/><path d="M305.574 32.239c8.287 0 15.004-6.736 15.004-15.045 0-8.309-6.717-15.045-15.004-15.045-8.286 0-15.004 6.736-15.004 15.045 0 8.31 6.718 15.045 15.004 15.045z" fill="#fff"/><path d="M305.574 4.116c7.193 0 13.05 5.866 13.05 13.085 0 7.212-5.857 13.085-13.05 13.085-7.192 0-13.049-5.867-13.049-13.085 0-7.219 5.857-13.085 13.049-13.085zm0-3.927c-9.368 0-16.958 7.611-16.958 17.005 0 9.394 7.59 17.005 16.958 17.005 9.369 0 16.959-7.61 16.959-17.005 0-9.387-7.59-17.005-16.959-17.005z" fill="#2D2A26"/><path d="M305.574 26.686c5.228 0 9.467-4.25 9.467-9.492 0-5.242-4.239-9.492-9.467-9.492-5.228 0-9.466 4.25-9.466 9.492 0 5.242 4.238 9.492 9.466 9.492z" fill="#fff"/><path d="M305.574 8.689c4.678 0 8.489 3.815 8.489 8.512 0 4.69-3.804 8.512-8.489 8.512-4.678 0-8.489-3.815-8.489-8.512 0-4.697 3.811-8.512 8.489-8.512zm0-1.96c-5.766 0-10.443 4.69-10.443 10.472 0 5.781 4.677 10.471 10.443 10.471s10.444-4.69 10.444-10.471c0-5.788-4.678-10.472-10.444-10.472zM15.973 58.07L10.058 64a1.34 1.34 0 0 1-.945.393A1.33 1.33 0 0 1 8.168 64l-4.417-4.43a1.347 1.347 0 0 1 0-1.894l5.916-5.931-1.896-1.902-5.916 5.932a4.033 4.033 0 0 0 0 5.697l4.417 4.429a4.006 4.006 0 0 0 5.681 0l5.916-5.932-1.896-1.9zm32.302-45.05a1.34 1.34 0 0 1 .945-.392c.208 0 .605.052.944.392l4.417 4.429a1.347 1.347 0 0 1 0 1.894l-5.915 5.932 1.896 1.901 5.915-5.932a4.033 4.033 0 0 0 0-5.696l-4.417-4.43a4.006 4.006 0 0 0-5.68 0l-5.917 5.932 1.896 1.901 5.916-5.931z" fill="#2D2A26"/><path d="M29.166 65.294c14.753 0 26.712-11.991 26.712-26.784 0-14.792-11.96-26.784-26.712-26.784-14.752 0-26.711 11.992-26.711 26.784 0 14.793 11.959 26.784 26.711 26.784z" fill="#fff"/><path d="M29.166 13.686c13.65 0 24.757 11.138 24.757 24.824 0 13.686-11.108 24.825-24.757 24.825-13.649 0-24.757-11.139-24.757-24.825s11.108-24.824 24.757-24.824zm0-3.92C13.335 9.766.5 22.636.5 38.51c0 15.875 12.835 28.744 28.666 28.744 15.832 0 28.667-12.87 28.667-28.744S44.998 9.766 29.166 9.766z" fill="#2D2A26"/><path d="M29.166 59.245c11.42 0 20.679-9.283 20.679-20.735 0-11.451-9.258-20.734-20.679-20.734-11.42 0-20.679 9.283-20.679 20.734 0 11.452 9.259 20.735 20.68 20.735z" fill="#fff"/><path d="M29.166 18.762c10.86 0 19.702 8.858 19.702 19.755 0 10.89-8.835 19.755-19.702 19.755S9.465 49.407 9.465 38.51c0-10.89 8.84-19.748 19.701-19.748zm0-1.96c-11.961 0-21.656 9.72-21.656 21.715 0 11.994 9.695 21.714 21.656 21.714 11.962 0 21.656-9.72 21.656-21.714 0-11.994-9.694-21.715-21.656-21.715z" fill="#2D2A26"/><path d="M35.336 35.185c.47.869.143 1.96-.73 2.43l-9.186 4.959a1.784 1.784 0 0 1-2.424-.732 1.794 1.794 0 0 1 .73-2.43l9.186-4.959a1.784 1.784 0 0 1 2.424.732zm299.81 98.992l-4.57 13.345 9.465 3.259 4.57-13.346-9.465-3.258zm-49.038-16.683l-4.569 13.346 9.465 3.258 4.569-13.346-9.465-3.258z" fill="#2D2A26"/><path d="M291.433 123.371l-.634 1.853 45.309 15.597.634-1.853-45.309-15.597zm.317 4.858l-.635 1.854 45.309 15.597.635-1.854-45.309-15.597z" fill="#2D2A26"/><path d="M313.099 150.409c-1.798 0-3.583-.301-5.303-.889-8.515-2.933-13.063-12.261-10.138-20.793 2.268-6.611 8.47-11.06 15.441-11.06 1.798 0 3.583.3 5.303.888 4.125 1.418 7.447 4.364 9.363 8.29a16.31 16.31 0 0 1 .775 12.504c-2.267 6.611-8.476 11.06-15.441 11.06z" fill="#fff"/><path d="M313.093 119.62c1.583 0 3.153.262 4.664.784a14.27 14.27 0 0 1 8.242 7.297 14.358 14.358 0 0 1 .684 11.008c-1.994 5.82-7.453 9.734-13.59 9.734a14.26 14.26 0 0 1-4.665-.784c-7.492-2.581-11.499-10.792-8.926-18.305 1.994-5.821 7.453-9.734 13.591-9.734zm0-3.919c-7.59 0-14.685 4.782-17.285 12.379-3.277 9.57 1.805 19.997 11.356 23.283 1.968.679 3.968.999 5.935.999 7.59 0 14.685-4.782 17.285-12.379 3.277-9.571-1.805-19.997-11.356-23.283a18.128 18.128 0 0 0-5.935-.999zm18.776-7.271c.365-.784-.072-1.96-.879-2.587-.815-.621-2.059-.738-2.717-.183-2.43 2.228-4.228 5.102-5.466 8.238-.281.842-.098 1.835.358 2.182.456.346 1.453.274 2.196-.223 2.697-2.005 4.997-4.494 6.508-7.427z" fill="#2D2A26"/><path d="M313.021 130.334a.98.98 0 0 1-.775-1.575l10.567-13.823a.974.974 0 0 1 1.368-.183c.43.327.508.948.183 1.372l-10.568 13.823a.987.987 0 0 1-.775.386zm22.327-19.226c.365-.784-.072-1.96-.879-2.587-.815-.62-2.059-.738-2.717-.183-2.43 2.228-4.229 5.102-5.466 8.238-.281.843-.098 1.836.358 2.182.456.346 1.453.274 2.196-.222 2.697-2.012 4.997-4.495 6.508-7.428z" fill="#2D2A26"/><path d="M316.5 133.006a.98.98 0 0 1-.775-1.575l10.567-13.823a.974.974 0 0 1 1.368-.183.98.98 0 0 1 .183 1.372l-10.568 13.823a.961.961 0 0 1-.775.386zm28.855-10.453c.632-.581.678-1.842.163-2.724-.515-.888-1.629-1.47-2.443-1.208-3.095 1.13-5.844 3.103-8.183 5.533-.58.673-.782 1.659-.495 2.156.287.496 1.244.81 2.111.633 3.264-.836 6.339-2.253 8.847-4.39z" fill="#2D2A26"/><path d="M319.986 135.684a.981.981 0 0 1-.496-1.829l15.024-8.747a.983.983 0 0 1 1.336.352.983.983 0 0 1-.352 1.34l-15.024 8.747a.976.976 0 0 1-.488.137zm120.606-6.807v-.078c.007-1.085.339-2.313.698-3.613.573-2.09 1.218-4.468.482-6.742-.769-2.371-2.73-3.932-4.457-5.304-1.029-.817-1.993-1.588-2.593-2.411-.606-.836-1.049-2.012-1.518-3.26-.768-2.057-1.641-4.39-3.629-5.84-1.961-1.43-4.436-1.548-6.619-1.653-1.335-.065-2.599-.124-3.603-.45-.931-.3-1.948-.98-3.023-1.692-1.85-1.235-3.948-2.626-6.476-2.626-2.527 0-4.625 1.398-6.476 2.626-1.075.712-2.091 1.391-3.023 1.692-1.003.326-2.267.385-3.602.45-2.183.105-4.652.216-6.62 1.653-1.98 1.45-2.853 3.783-3.629 5.84-.462 1.248-.905 2.424-1.511 3.26-.593.823-1.564 1.594-2.593 2.411-1.727 1.378-3.688 2.933-4.456 5.304-.737 2.28-.092 4.652.482 6.742.352 1.3.684 2.528.697 3.613v.078c-.007 1.085-.339 2.313-.697 3.613-.574 2.09-1.219 4.468-.482 6.741.768 2.372 2.729 3.933 4.456 5.305 1.029.817 1.993 1.587 2.593 2.411.606.836 1.049 2.012 1.518 3.259.769 2.058 1.642 4.39 3.629 5.841 1.961 1.43 4.437 1.548 6.619 1.652 1.336.066 2.6.124 3.603.451.932.301 1.948.98 3.023 1.692 1.85 1.235 3.948 2.626 6.476 2.626s4.626-1.398 6.476-2.626c1.075-.712 2.091-1.391 3.023-1.692 1.003-.327 2.267-.385 3.603-.451 2.182-.104 4.651-.215 6.619-1.652 1.981-1.451 2.854-3.783 3.629-5.841.462-1.247.905-2.423 1.511-3.259.593-.824 1.564-1.594 2.593-2.411 1.727-1.378 3.688-2.933 4.457-5.305.736-2.279.091-4.651-.482-6.741-.359-1.3-.691-2.528-.698-3.613z" fill="#2D2A26"/><path d="M437.796 130.575c.96-15.455-10.759-28.764-26.173-29.726-15.414-.962-28.687 10.788-29.646 26.244-.959 15.456 10.759 28.765 26.173 29.726 15.414.962 28.687-10.788 29.646-26.244z" fill="#fff"/><path d="M409.861 146.836c-9.897 0-17.949-8.075-17.949-17.998 0-9.923 8.052-17.998 17.949-17.998 9.896 0 17.949 8.075 17.949 17.998.006 9.923-8.046 17.998-17.949 17.998z" fill="#fff"/><path d="M409.861 111.814c9.362 0 16.972 7.636 16.972 17.017s-7.617 17.018-16.972 17.018c-9.356 0-16.972-7.637-16.972-17.018s7.616-17.017 16.972-17.017zm0-1.96c-10.457 0-18.926 8.499-18.926 18.977 0 10.479 8.476 18.978 18.926 18.978 10.457 0 18.926-8.499 18.926-18.978 0-10.478-8.469-18.977-18.926-18.977zm-180.76 41.3h-6.952v4.899h6.952v-4.899zm-20.627-16.509c.423 1.875 3.01 4.129 1.798 5.586l-.632 2.005c-2.111 0-6.639-1.744-7.746-5.794a14.32 14.32 0 0 1 0-7.493c1.114-4.05 5.511-5.866 7.746-5.795l.456 1.915c1.205 1.456-1.205 3.808-1.629 5.683a7.503 7.503 0 0 0 .007 3.893zm34.223 0c-.423 1.875-3.01 4.129-1.798 5.586l.632 2.005c2.111 0 6.639-1.744 7.747-5.794.664-2.45.664-5.043 0-7.493-1.115-4.05-5.512-5.866-7.747-5.795l-.456 1.915c-1.205 1.456 1.205 3.808 1.629 5.683a7.503 7.503 0 0 1-.007 3.893z" fill="#2D2A26"/><path d="M225.621 151.644c10.435 0 18.894-8.482 18.894-18.945 0-10.463-8.459-18.945-18.894-18.945-10.434 0-18.893 8.482-18.893 18.945 0 10.463 8.459 18.945 18.893 18.945z" fill="#fff"/><path d="M225.621 115.714c9.343 0 16.94 7.617 16.94 16.985 0 9.368-7.597 16.985-16.94 16.985-9.342 0-16.939-7.617-16.939-16.985 0-9.368 7.603-16.985 16.939-16.985zm0-3.92c-11.512 0-20.848 9.361-20.848 20.905 0 11.543 9.336 20.904 20.848 20.904 11.513 0 20.849-9.361 20.849-20.904 0-11.544-9.33-20.905-20.849-20.905z" fill="#2D2A26"/><path d="M229.269 136.36a5.184 5.184 0 0 0 0-7.317 5.149 5.149 0 0 0-7.297 0 5.184 5.184 0 0 0 0 7.317 5.15 5.15 0 0 0 7.297 0zm-3.648-22.502a.977.977 0 0 1-.977-.979c0-6.749 5.473-12.236 12.203-12.236 5.492 0 9.961 4.481 9.961 9.988a.977.977 0 1 1-1.954 0c0-4.422-3.59-8.028-8.007-8.028-5.649 0-10.248 4.612-10.248 10.276a.977.977 0 0 1-.978.979z" fill="#2D2A26"/><path d="M397.95 20.203l-9.567 23.159 23.096 9.592 9.567-23.158-23.096-9.593z" fill="#fff"/><path d="M398.466 21.493l21.291 8.845-8.821 21.349-21.291-8.846 8.821-21.348zm-1.055-2.561L387.091 43.9l24.9 10.341 10.314-24.968-24.894-10.341z" fill="#2D2A26"/><path d="M404.701 18.863l-17.677 17.724 17.677 17.725 17.676-17.724-17.676-17.725z" fill="#fff"/><path d="M404.701 20.245l16.301 16.338-16.295 16.338-16.3-16.338 16.294-16.338zm0-2.77l-19.057 19.108 19.063 19.115 19.057-19.115-19.063-19.108z" fill="#2D2A26"/><path d="M411.477 20.203l-23.096 9.592 9.567 23.159 23.096-9.593-9.567-23.158z" fill="#fff"/><path d="M410.936 21.493l8.821 21.348-21.291 8.846-8.821-21.356 21.291-8.838zm1.062-2.561l-24.901 10.341 10.314 24.968 24.9-10.341-10.313-24.968z" fill="#2D2A26"/><path d="M417.203 24.053h-24.998V49.12h24.998V24.053z" fill="#fff"/><path d="M416.226 25.033V48.14h-23.044V25.033h23.044zm1.955-1.96h-26.953V50.1h26.953V23.074zm85.073.275c-.677 3.737-6.319 5.775-9.323 5.723h-27.539c-3.01.052-8.652-1.986-9.323-5.723a9.21 9.21 0 0 1 0-2.927c.677-3.736 6.32-5.775 9.323-5.722h27.539c3.01-.053 8.652 1.986 9.323 5.722a9.151 9.151 0 0 1 0 2.927z" fill="#2D2A26"/><path d="M499.788 23.191c0 3.247-2.625 5.88-5.863 5.88h-27.539c-3.238 0-5.864-2.633-5.864-5.88v-2.613c0-3.247 2.626-5.88 5.864-5.88h27.539c3.238 0 5.863 2.633 5.863 5.88v2.613z" fill="#fff"/><path d="M493.925 30.05h-27.54c-3.772 0-6.84-3.076-6.84-6.859v-2.613c0-3.782 3.068-6.86 6.84-6.86h27.54c3.772 0 6.84 3.078 6.84 6.86v2.613c0 3.783-3.068 6.86-6.84 6.86zm-27.54-14.372c-2.697 0-4.886 2.195-4.886 4.9v2.613c0 2.705 2.189 4.9 4.886 4.9h27.54c2.697 0 4.886-2.195 4.886-4.9v-2.613c0-2.704-2.189-4.9-4.886-4.9h-27.54z" fill="#2D2A26"/><path d="M492.563 42.913a5.884 5.884 0 0 1-3.316 7.624l-25.63 10.1a5.857 5.857 0 0 1-7.603-3.326l-.952-2.43a5.885 5.885 0 0 1 3.317-7.623l25.63-10.1c3.016-1.189 6.417.3 7.603 3.325l.951 2.43z" fill="#fff"/><path d="M461.467 62.028a6.76 6.76 0 0 1-2.73-.575 6.827 6.827 0 0 1-3.636-3.782l-.951-2.43a6.828 6.828 0 0 1 .098-5.253 6.825 6.825 0 0 1 3.772-3.645l25.63-10.1c3.512-1.385 7.493.36 8.867 3.874l.952 2.43a6.811 6.811 0 0 1-.098 5.246 6.825 6.825 0 0 1-3.772 3.645l-25.631 10.1a6.658 6.658 0 0 1-2.501.49zm24.679-24.295c-.593 0-1.199.111-1.779.34l-25.63 10.1a4.85 4.85 0 0 0-2.691 2.6 4.86 4.86 0 0 0-.065 3.749l.951 2.43a4.873 4.873 0 0 0 2.593 2.698 4.824 4.824 0 0 0 3.74.065l25.63-10.1a4.85 4.85 0 0 0 2.691-2.6 4.862 4.862 0 0 0 .065-3.749l-.951-2.43a4.905 4.905 0 0 0-4.554-3.103z" fill="#2D2A26"/><path d="M464.933 53.372a.984.984 0 0 1-.912-.62.98.98 0 0 1 .553-1.268l17.754-6.99a.98.98 0 0 1 .717 1.823l-17.754 6.99a.988.988 0 0 1-.358.065z" fill="#2D2A26"/><path d="M169.638 113.813c0-3.247-2.626-5.88-5.864-5.88h-29.969c-3.238 0-5.864 2.633-5.864 5.88v30.05c0 3.247 2.626 5.88 5.864 5.88h29.969c3.238 0 5.864-2.633 5.864-5.88v-30.05z" fill="#fff"/><path d="M163.774 150.722h-29.969c-3.773 0-6.841-3.076-6.841-6.859v-30.05c0-3.783 3.068-6.86 6.841-6.86h29.969c3.772 0 6.841 3.077 6.841 6.86v30.05c0 3.783-3.069 6.859-6.841 6.859zm-29.969-41.809a4.895 4.895 0 0 0-4.887 4.9v30.05c0 2.705 2.189 4.9 4.887 4.9h29.969c2.697 0 4.886-2.195 4.886-4.9v-30.05c0-2.705-2.189-4.9-4.886-4.9h-29.969z" fill="#2D2A26"/><path d="M133.805 145.98a2.114 2.114 0 0 1-2.111-2.117v-30.05c0-1.17.945-2.117 2.111-2.117h29.969c1.166 0 2.111.947 2.111 2.117v30.05a2.114 2.114 0 0 1-2.111 2.117h-29.969z" fill="#fff"/><path d="M163.774 146.96h-29.969a3.099 3.099 0 0 1-3.088-3.097v-30.05a3.099 3.099 0 0 1 3.088-3.097h29.969a3.1 3.1 0 0 1 3.088 3.097v30.05a3.095 3.095 0 0 1-3.088 3.097zm-29.969-34.284c-.626 0-1.134.51-1.134 1.137v30.05c0 .627.508 1.137 1.134 1.137h29.969c.625 0 1.134-.51 1.134-1.137v-30.05c0-.627-.509-1.137-1.134-1.137h-29.969zm387.314 61.963h-4.339l-1.303-15.829h6.945l-1.303 15.829z" fill="#2D2A26"/><path d="M521.464 167.204l.019-2.802 10.177-.764-.033 4.488-10.163-.922zm-40.53-42.371c.423 1.875 3.01 4.129 1.798 5.586l-.632 2.005c-2.111 0-6.639-1.744-7.746-5.794a14.32 14.32 0 0 1 0-7.493c1.114-4.05 5.511-5.867 7.746-5.795l.462 1.914c1.206 1.457-1.205 3.809-1.628 5.684a7.43 7.43 0 0 0 0 3.893zm75.952 0c-.423 1.875-3.01 4.129-1.798 5.586l.632 2.005c2.104 0 6.639-1.744 7.747-5.794.664-2.45.664-5.043 0-7.493-1.115-4.05-5.512-5.867-7.747-5.795l-.462 1.914c-1.206 1.457 1.205 3.809 1.628 5.684a7.43 7.43 0 0 1 0 3.893z" fill="#2D2A26"/><path d="M518.949 160.776c20.869 0 37.787-16.964 37.787-37.889 0-20.926-16.918-37.89-37.787-37.89s-37.787 16.964-37.787 37.89c0 20.925 16.918 37.889 37.787 37.889z" fill="#fff"/><path d="M518.949 86.957c19.76 0 35.833 16.116 35.833 35.93 0 19.813-16.073 35.929-35.833 35.929-19.76 0-35.833-16.116-35.833-35.929 0-19.814 16.073-35.93 35.833-35.93zm0-3.92c-21.949 0-39.742 17.841-39.742 39.85 0 22.008 17.793 39.849 39.742 39.849 21.949 0 39.742-17.841 39.742-39.849 0-22.009-17.793-39.85-39.742-39.85z" fill="#2D2A26"/><path d="M523.347 165.538a4.402 4.402 0 0 0-4.398-4.409 4.402 4.402 0 0 0-4.398 4.409 4.402 4.402 0 0 0 4.398 4.41 4.41 4.41 0 0 0 4.398-4.41zM649.433 34.016a.553.553 0 0 1 .091-.046h.006a4 4 0 0 0 2.274-3.606 36.278 36.278 0 0 0-.86-7.879.553.553 0 0 0-1.088.138 102.655 102.655 0 0 1 .176 4.416c.013.692.02 1.444.02 2.254a.693.693 0 0 1-.691.692.691.691 0 0 1-.684-.614c0-.026-.007-.052-.007-.072v-.006l-.13-2.849-.176-3.815a.54.54 0 1 0-1.081 0l-.176 3.815-.13 2.855v.065a.693.693 0 0 1-1.382-.072c0-.803.007-1.554.02-2.247.045-2.28.143-3.9.169-4.318.007-.059.007-.091.007-.104a.556.556 0 0 0-1.088-.15v.006l-.02.078a36.263 36.263 0 0 0-.84 7.807c0 1.594.931 2.972 2.28 3.613.026.013.059.02.085.039a.688.688 0 0 1 .358.6v.033a1305.69 1305.69 0 0 1-.378 8.565 337.671 337.671 0 0 1-.247 4.73v.058c-.013.47.195.928.54 1.268a1.93 1.93 0 0 0 1.329.574h.026a1.905 1.905 0 0 0 1.33-.574c.345-.34.553-.797.54-1.268v-.059c-.058-.875-.15-2.671-.247-4.73-.144-2.978-.293-6.5-.378-8.564v-.032c0-.255.143-.484.352-.601zm-8.561-1.764v-9.655a.554.554 0 0 0-.964-.373c-1.323 1.424-3.525 5.043-3.525 13.36 0 2.43 1.29 2.809 1.218 4.677v.026c-.13 2.927-.404 6.48-.488 7.67v.058c-.026.948.853 1.836 1.87 1.843h.026c1.016-.007 1.896-.902 1.869-1.843v-.059c-.013-.006.007-15.103-.006-15.704zM659.87 34.5c0-.04.006-.08.013-.118a.689.689 0 0 1 .345-.49c.026-.02.059-.027.091-.04h.007c.352-.17.677-.391.964-.653.801-.731 1.446-2.143 1.446-3.318 0-3.96-1.817-7.755-4.124-7.755-2.306 0-4.124 3.79-4.124 7.755 0 1.169.645 2.587 1.447 3.318.286.262.612.484.964.653h.007c.032.014.058.027.091.04.176.098.312.28.345.49a.665.665 0 0 1 .013.117v.033c-.085 2.064-.235 5.657-.378 8.636a335.306 335.306 0 0 1-.247 4.723v.059c-.013.47.195.928.54 1.267.346.346.821.569 1.329.575h.026c.509 0 .984-.229 1.33-.575.338-.34.553-.797.54-1.267v-.059a320.26 320.26 0 0 1-.247-4.723c-.144-2.979-.293-6.578-.378-8.636v-.033zM107.041 165.003c.045.013.091.033.13.046 0 0 .007 0 .007.006 1.98.706 6.078 2.064 7.544.366 2.104-2.45 4.489-5.533 6.326-8.088.117-.163.202-.352.3-.529.039-.065.072-.137.111-.202a2.296 2.296 0 0 0-.287-2.437c-.033-.033-.059-.065-.091-.104-.02-.027-.046-.046-.065-.072-.02-.02-.033-.033-.053-.046.007 0 .013.007.02.007a56.07 56.07 0 0 0-2.945-3.188 55.708 55.708 0 0 0-3.179-2.953c0 .006.006.013.006.019-.013-.019-.032-.032-.045-.052a.604.604 0 0 0-.072-.065c-.032-.033-.065-.059-.104-.092a2.278 2.278 0 0 0-2.43-.287c-.065.039-.137.072-.202.111-.176.098-.365.176-.528.3-2.547 1.836-5.622 4.234-8.066 6.344-1.7 1.463-.338 5.579.365 7.565 0 0 0 .006.007.006.019.046.032.085.045.131a.98.98 0 0 1-.247.96l-.039.039a2924.46 2924.46 0 0 1-8.9 8.173c-2.143 1.953-4.02 3.658-4.958 4.468l-.059.059c-.482.457-.73 1.123-.723 1.809a2.753 2.753 0 0 0 .782 1.934c.515.51 1.212.758 1.903.758.684 0 1.348-.242 1.798-.725a447.759 447.759 0 0 1 4.515-5.03c2.827-3.117 6.182-6.781 8.15-8.931a.812.812 0 0 1 .033-.032.93.93 0 0 1 .951-.268zm7.707-12.817l-6.372 6.154-.006.006a.64.64 0 0 1-.078.065c-.404.288-1.18.046-1.707-.483-.567-.568-.86-1.483-.482-1.862.801-.803 6.404-5.579 6.73-5.866a.201.201 0 0 1 .052-.053.757.757 0 0 1 .163-.13c.358-.235.821-.196 1.185.052.176.124.456.34.698.621.351.392.332.993-.033 1.372l-.02.019c-.045.033-.084.072-.13.105zm-4.352 8.348c.02-.026.039-.052.072-.078l.006-.006 6.144-6.389a.958.958 0 0 1 .104-.125l.02-.019a1.003 1.003 0 0 1 1.368-.026c.273.248.495.522.619.699.247.366.286.829.052 1.189a1.045 1.045 0 0 1-.13.163l-.053.052c-.286.327-5.049 5.938-5.85 6.749-.378.378-1.29.084-1.857-.484-.541-.542-.782-1.326-.495-1.725zm465.436-120.75c-.039.033-.078.059-.117.085a.859.859 0 0 1-.736.065c-.04-.013-.072-.032-.111-.052l-.007-.006a4.98 4.98 0 0 0-1.381-.399c-1.322-.176-3.173.34-4.274 1.274-3.726 3.155-5.844 7.892-4.007 10.073 1.838 2.182 6.848.882 10.574-2.273 1.101-.934 1.922-2.672 1.968-4.011.02-.477-.033-.96-.156-1.43v-.007c-.013-.04-.026-.079-.033-.118a.836.836 0 0 1 .189-.712 1.24 1.24 0 0 1 .098-.104c.013-.007.019-.02.032-.027 2.007-1.56 18.581-15.345 21.493-17.586a339.64 339.64 0 0 1 4.646-3.527c.019-.013.039-.026.058-.046.456-.36.717-.928.763-1.522a2.357 2.357 0 0 0-.522-1.712l-.013-.013-.013-.013a2.392 2.392 0 0 0-1.596-.803c-.593-.053-1.192.11-1.622.503a.192.192 0 0 0-.052.052c-.776.758-2.391 2.273-4.248 3.998-2.691 2.509-19.024 16.573-20.894 18.298-.019-.007-.032.007-.039.013z" fill="#2D2A26"/><path d="M554.782 29.887l-.085.02a.687.687 0 0 0 .17 1.346c.013 0 .058 0 .123-.007a129.456 129.456 0 0 1 8.086-.235c.469 0 .846.379.846.849a.855.855 0 0 1-.755.85c-.026 0-.059.006-.091.006h-.014l-3.505.163-4.697.216a.666.666 0 1 0 0 1.333l4.697.215 3.519.163h.006c.026 0 .052 0 .078.007h.007c.43.045.769.405.769.849 0 .47-.385.856-.854.856a126.627 126.627 0 0 1-8.085-.242c-.072-.006-.111-.006-.124-.006a.688.688 0 0 0-.671.692c0 .307.202.568.482.66h.007a.498.498 0 0 1 .097.026 44.384 44.384 0 0 0 9.61 1.045 4.908 4.908 0 0 0 4.443-2.822.839.839 0 0 1 .789-.549h.045c2.541.105 23.982.294 27.644.464 2.528.118 4.743.229 5.818.307h.071c.58.013 1.14-.248 1.564-.673a2.388 2.388 0 0 0 .71-1.646v-.026a2.377 2.377 0 0 0-.704-1.646c-.423-.425-.983-.686-1.563-.667h-.072c-1.081.079-3.29.19-5.818.307-3.668.177-25.109.36-27.643.464h-.046a.841.841 0 0 1-.743-.444.614.614 0 0 1-.052-.111v-.007a4.907 4.907 0 0 0-4.443-2.809 44.82 44.82 0 0 0-9.616 1.052z" fill="#2D2A26"/><path d="M560.053 70.553c-16.914 0-30.68-13.797-30.68-30.762 0-16.966 13.76-30.763 30.68-30.763 16.919 0 30.679 13.797 30.679 30.763 0 16.965-13.766 30.762-30.679 30.762zm0-58.905c-15.48 0-28.074 12.628-28.074 28.15 0 15.52 12.594 28.142 28.074 28.142 15.479 0 28.073-12.628 28.073-28.15 0-15.521-12.6-28.142-28.073-28.142z" fill="#2D2A26"/><path d="M672.614 104.234l-7.185 24.008 23.944 7.204 7.184-24.008-23.943-7.204z" fill="#fff"/><path d="M673.297 105.457l22.073 6.644-6.625 22.133-22.073-6.644 6.625-22.133zm-1.309-2.443l-7.747 25.889 25.82 7.768 7.746-25.889-25.819-7.768z" fill="#2D2A26"/><path d="M681.024 112.532c-4.423 0-8.007 2.927-8.007 6.533 0 .026.007-3.358.007.085s3.694 6.957 5.59 7.865h.013a.975.975 0 0 1 .625.908v.053c-.117 2.913-.332 13.117-.534 17.318-.137 2.9-.267 5.435-.352 6.676v.085c-.019.66.28 1.307.762 1.79.482.49 1.16.804 1.877.81h.039a2.704 2.704 0 0 0 1.876-.81c.482-.483.782-1.13.762-1.79v-.085a402.24 402.24 0 0 1-.351-6.67c-.196-4.207-.411-14.411-.535-17.324v-.053c0-.365.202-.686.502-.855.039-.027.085-.04.13-.059 0 0 .007 0 .013-.007 1.896-.901 5.597-4.337 5.597-7.944-.013-3.599-3.596-6.526-8.014-6.526zm25.077-97.65h-7.994c-4.567 14.58-5.962 30.004-2.691 44.69h4.28V46.644h-4c-.397-8.539.574-17.462 2.932-26.484h6.945c2.358 9.021 3.336 17.952 2.932 26.484h-4v12.928h4.28c3.277-14.68 1.883-30.11-2.684-44.69z" fill="#2D2A26"/><path d="M759.531 152.748c15.472 0 28.014-12.577 28.014-28.091 0-15.514-12.542-28.09-28.014-28.09s-28.015 12.576-28.015 28.09 12.543 28.091 28.015 28.091z" fill="#fff"/><path d="M759.531 98.526c14.372 0 26.06 11.72 26.06 26.131s-11.688 26.131-26.06 26.131c-14.373 0-26.061-11.72-26.061-26.131s11.688-26.13 26.061-26.13zm0-3.92c-16.555 0-29.97 13.451-29.97 30.051 0 16.593 13.415 30.05 29.97 30.05 16.554 0 29.969-13.457 29.969-30.05 0-16.6-13.421-30.05-29.969-30.05z" fill="#2D2A26"/><path d="M759.531 120.946c-4.424 0-8.007 2.927-8.007 6.533 0 .026.006-3.358.006.085s3.694 6.957 5.59 7.865h.013c.046.02.085.04.124.059.3.17.502.484.502.849v.053c-.118 2.913-.333 13.117-.535 17.318-.136 2.9-.267 5.435-.351 6.676v.085c-.02.66.28 1.307.762 1.79a2.69 2.69 0 0 0 1.876.81h.039a2.709 2.709 0 0 0 1.877-.81c.482-.483.781-1.13.762-1.79v-.085c-.085-1.234-.215-3.769-.352-6.67-.195-4.207-.41-14.411-.534-17.324v-.053c0-.365.202-.686.501-.855.04-.027.085-.04.131-.059 0 0 .006 0 .013-.007 1.896-.901 5.596-4.337 5.596-7.943-.013-3.607-3.596-6.527-8.013-6.527z" fill="#2D2A26"/><path d="M763.622 80.202c-11.141 0-20.203-9.087-20.203-20.258V22.218c0-11.171 9.062-20.258 20.203-20.258h2.463c11.141 0 20.203 9.087 20.203 20.258V59.95c0 11.17-9.062 20.258-20.203 20.258h-2.463v-.007z" fill="#fff"/><path d="M766.085 3.92c10.059 0 18.249 8.205 18.249 18.298V59.95c0 10.086-8.183 18.298-18.249 18.298h-2.463c-10.059 0-18.248-8.205-18.248-18.298V22.218c0-10.087 8.182-18.298 18.248-18.298h2.463zm0-3.92h-2.463c-12.235 0-22.158 9.943-22.158 22.218V59.95c0 12.268 9.923 22.217 22.158 22.217h2.463c12.235 0 22.158-9.949 22.158-22.217V22.218C788.243 9.943 778.32 0 766.085 0z" fill="#2D2A26"/><path d="M772.385 72.356h-15.069a1.955 1.955 0 0 1-1.955-1.96c0-1.084.873-1.96 1.955-1.96h15.069c1.081 0 1.954.876 1.954 1.96 0 1.085-.873 1.96-1.954 1.96zm0-58.631h-15.069a1.955 1.955 0 0 1-1.955-1.96c0-1.084.873-1.96 1.955-1.96h15.069c1.081 0 1.954.876 1.954 1.96 0 1.085-.873 1.96-1.954 1.96zm5.14 49.564a.981.981 0 0 1-.69-.288L751.491 37.59a.977.977 0 0 1 0-1.385.97.97 0 0 1 1.381 0l25.344 25.412a.977.977 0 0 1 0 1.385.982.982 0 0 1-.691.288zm-8.456.019a.982.982 0 0 1-.691-.287l-16.887-16.933a.976.976 0 0 1 0-1.385.97.97 0 0 1 1.381 0l16.887 16.933a.975.975 0 0 1 0 1.385.98.98 0 0 1-.69.287zm-8.059.419a.982.982 0 0 1-.691-.288l-8.828-8.852a.977.977 0 0 1 0-1.385.97.97 0 0 1 1.381 0l8.828 8.852a.981.981 0 1 1-.69 1.672zm16.515-8.937a.981.981 0 0 1-.69-.288L751.491 29.09a.976.976 0 0 1 0-1.385.97.97 0 0 1 1.381 0l25.344 25.412a.982.982 0 1 1-.691 1.672zm0-8.506a.981.981 0 0 1-.69-.287l-25.344-25.413a.976.976 0 0 1 0-1.384.97.97 0 0 1 1.381 0l25.344 25.412a.976.976 0 0 1 0 1.385.955.955 0 0 1-.691.287zm0-8.499a.981.981 0 0 1-.69-.287l-16.868-16.913a.976.976 0 0 1 0-1.385.97.97 0 0 1 1.381 0l16.868 16.913a.977.977 0 0 1 0 1.385.955.955 0 0 1-.691.287zm0-8.499a.981.981 0 0 1-.69-.287l-8.867-8.891a.975.975 0 0 1 0-1.385.975.975 0 0 1 1.381 0l8.867 8.89a.977.977 0 0 1 0 1.386.955.955 0 0 1-.691.287z" fill="#2D2A26"/><path d="M182.993 166.185c-2.56 0-4.645-2.09-4.645-4.657 0-2.568 2.085-4.658 4.645-4.658a4.663 4.663 0 0 1 4.652 4.658 4.66 4.66 0 0 1-4.652 4.657z" fill="#fff"/><path d="M182.993 157.843a3.678 3.678 0 1 1 0 7.356 3.677 3.677 0 0 1-3.668-3.678 3.681 3.681 0 0 1 3.668-3.678zm0-1.96c-3.107 0-5.622 2.528-5.622 5.638 0 3.116 2.521 5.638 5.622 5.638a5.636 5.636 0 0 0 5.629-5.638 5.636 5.636 0 0 0-5.629-5.638z" fill="#2D2A26"/><path d="M185.873 182.648h-5.753V165.61h5.753v17.038zm-1.915-2.613a.961.961 0 0 0-.958-.961.961.961 0 0 0 0 1.921.96.96 0 0 0 .958-.96z" fill="#2D2A26"/><path d="M195.307 171.346c-.977 0-1.89-.379-2.58-1.071a3.675 3.675 0 0 1 0-5.174 3.613 3.613 0 0 1 2.58-1.071c.977 0 1.889.379 2.58 1.071a3.675 3.675 0 0 1 0 5.174 3.625 3.625 0 0 1-2.58 1.071z" fill="#fff"/><path d="M195.307 165.016c.71 0 1.381.281 1.889.784a2.685 2.685 0 0 1 0 3.789 2.666 2.666 0 0 1-3.779 0 2.687 2.687 0 0 1 0-3.789 2.625 2.625 0 0 1 1.89-.784zm0-1.96a4.597 4.597 0 0 0-3.271 1.359 4.651 4.651 0 0 0 0 6.559 4.597 4.597 0 0 0 3.271 1.359 4.593 4.593 0 0 0 3.27-1.359 4.65 4.65 0 0 0 0-6.559 4.605 4.605 0 0 0-3.27-1.359z" fill="#2D2A26"/><path d="M182.589 183.327l-2.879-2.887 12.014-12.047 2.879 2.888-12.014 12.046zm1.089-2.613a.963.963 0 0 0 0-1.359.957.957 0 0 0-1.356 0 .969.969 0 0 0 0 1.359.963.963 0 0 0 1.356 0z" fill="#2D2A26"/><path d="M198.564 183.02a2.992 2.992 0 0 1 0-5.984 2.992 2.992 0 0 1 2.984 2.992 2.987 2.987 0 0 1-2.984 2.992z" fill="#fff"/><path d="M198.564 178.023a2.01 2.01 0 0 1 2.007 2.012 2.01 2.01 0 0 1-2.007 2.012 2.01 2.01 0 0 1-2.006-2.012 2.01 2.01 0 0 1 2.006-2.012zm0-1.96a3.965 3.965 0 0 0-3.961 3.972 3.965 3.965 0 0 0 3.961 3.972 3.966 3.966 0 0 0 3.962-3.972 3.966 3.966 0 0 0-3.962-3.972z" fill="#2D2A26"/><path d="M180.387 181.635v-3.207h15.584v3.207h-15.584zm2.613-.64a.96.96 0 0 0 0-1.921.961.961 0 0 0-.958.961.953.953 0 0 0 .958.96z" fill="#2D2A26"/></svg>