<svg width="164" height="164" viewBox="0 0 164 164" fill="none" xmlns="http://www.w3.org/2000/svg"><path d="M139.983 139.983c32.023-32.023 32.023-83.943 0-115.966-32.023-32.023-83.943-32.023-115.966 0-32.023 32.023-32.023 83.943 0 115.966 32.023 32.023 83.943 32.023 115.966 0z" fill="#DD4A29"/><path d="M15.764 75l7.043.617-.194 2.252-7.044-.618-.229 2.641-1.82-.16.669-7.56 1.82.16L15.764 75zm9.05-9.66l-3.344-.864-.915 3.564 3.344.864-.559 2.193-8.61-2.219.568-2.192 3.539.914.914-3.564-3.539-.914.567-2.193 8.61 2.218-.575 2.193zm-4.047-9.685l1.608.728 1.744-3.87 1.617.729-1.744 3.869 1.634.736 1.99-4.41 1.617.728-2.92 6.468-8.103-3.658 2.862-6.34 1.617.727-1.922 4.293zm7.518-13.097l1.642 1.236 2.396-3.192 1.422 1.067-2.396 3.192 2.616 1.972-1.363 1.803-7.103-5.342 3.962-5.265 1.423 1.066-2.6 3.463zM41.33 32.382c1.787 1.87 1.66 4.715-.338 6.62-1.981 1.888-4.817 1.897-6.62.017-1.787-1.87-1.617-4.681.364-6.57 1.998-1.913 4.817-1.938 6.595-.067zm-5.265 5.037c1.033 1.084 2.666 1.126 3.649.186.99-.948.982-2.531-.051-3.615-1.033-1.083-2.608-1.151-3.598-.203-.99.948-1.033 2.548 0 3.632zm12.038-7.365l-.05.034-1.431.948 1.38 2.082-1.888 1.245-4.902-7.416 3.319-2.193c1.955-1.295 3.7-1.109 4.791.55.745 1.135.813 2.26.229 3.277l3.175 1.413-2.142 1.414-2.48-1.354zm-1.032-1.448c.812-.542 1.015-1.27.499-2.049-.508-.77-1.245-.846-2.066-.313l-1.43.948 1.557 2.362 1.44-.948zm12.952-6.908l1.389 3.175c-.601.999-1.778 2.04-2.921 2.54-2.472 1.083-5.13.11-6.172-2.261-1.033-2.362.11-4.978 2.676-6.104 1.21-.525 2.692-.626 3.852-.245l-.55 1.913c-.83-.288-1.804-.263-2.557.068-1.338.584-1.905 2.082-1.304 3.437.61 1.38 2.1 1.972 3.445 1.388.415-.186.89-.567 1.27-1.024l-.923-2.108 1.795-.78zm11.92-3.073c.593 2.523-.956 4.91-3.64 5.545-2.667.635-5.122-.804-5.723-3.336-.593-2.523.965-4.86 3.64-5.494 2.684-.635 5.13.77 5.723 3.285zm-7.103 1.684c.347 1.457 1.736 2.32 3.057 2.007 1.337-.313 2.133-1.693 1.786-3.15-.347-1.456-1.668-2.31-3.006-1.989-1.329.313-2.184 1.676-1.837 3.133zm13.563-4.825l.5 7.06-2.253.161-.5-7.06-2.649.186-.127-1.829 7.577-.533.127 1.829-2.675.186zm9.727.195l-.525 7.052-2.252-.17.525-7.052-2.641-.194.135-1.82 7.569.567-.136 1.82-2.675-.203zm7.831 1.143l-.398 1.718 4.132.957-.398 1.735-4.132-.956-.406 1.744 4.716 1.083-.398 1.736-6.917-1.592 1.998-8.66 6.781 1.566-.398 1.735-4.58-1.067zm11.107 11.132l-1.642-6.637-2.125 5.046-1.956-.822 3.454-8.195 1.838.78 1.65 6.645 2.134-5.054 1.939.821-3.455 8.195-1.837-.779zm16.348-.406c1.6 1.194 2.1 2.65 1.278 3.733-.558.754-1.481 1-2.396.652.762.847.813 1.973.119 2.895-.906 1.211-2.531 1.177-4.208-.076l-3.488-2.607 5.326-7.12 3.369 2.523zm-5.85 4.546l1.465 1.092c.668.5 1.312.517 1.693.009.355-.474.161-1.084-.508-1.584l-1.465-1.092-1.185 1.575zm2.159-2.878l1.464 1.1c.525.398 1.076.364 1.423-.093.347-.457.203-.973-.322-1.371l-1.465-1.093-1.1 1.457zm5.443 9.414l-1.633.652-1.592-1.694 9.101-3.301 1.591 1.693-3.902 8.821-1.651-1.76.753-1.584-2.667-2.827zm4.987-2.007l-3.285 1.313 1.761 1.87 1.524-3.183zm3.869 11.599l-.034-.051-.94-1.43-2.091 1.37-1.244-1.887 7.424-4.885 2.184 3.318c1.287 1.965 1.101 3.7-.558 4.792-1.135.745-2.269.804-3.277.22l-1.422 3.175-1.414-2.142 1.372-2.48zm1.447-1.033c.534.813 1.262 1.024 2.049.508.771-.508.855-1.245.313-2.058l-.939-1.43-2.362 1.557.939 1.423zm3.514 10.277l-.026-.059-.685-1.575-2.295 1-.905-2.075 8.144-3.564 1.591 3.64c.94 2.15.458 3.836-1.363 4.631-1.244.542-2.37.415-3.267-.33l-1.939 2.887-1.025-2.354 1.77-2.2zm1.6-.77c.389.897 1.075 1.219 1.939.846.846-.372 1.049-1.083.66-1.98l-.686-1.575-2.599 1.134.686 1.575zm5.757 7.89l-1.71.432 1.032 4.114-1.727.432-1.032-4.114-1.736.44 1.177 4.69-1.727.432-1.736-6.883 8.619-2.167 1.701 6.747-1.727.432-1.134-4.555zm-2.896 14.629l-1.879.186-.593-6.002 8.847-.88.22 2.252-6.967.694.372 3.75zM19.489 97.527c-1.414.296-2.642-.491-2.93-1.913-.288-1.397.517-2.608 1.94-2.896 1.396-.287 2.598.5 2.886 1.897.288 1.414-.5 2.624-1.896 2.912zm2.726 18.676l3.217-3.09-4.335 1.05-.787-1.431 4.47-4.783.813 1.481-3.42 3.276 4.588-1.168.745 1.355-3.42 3.276 4.588-1.16.779 1.414-6.443 1.202-.795-1.422zm3.183 5.037l5.07-3.606.915 1.286-5.07 3.607-.915-1.287zm6.205 5.782l-1.016.847-2.709-3.243 4.783-3.987 1.016 1.219-3.767 3.141 1.693 2.023zm6.849-.008c1.414 1.354 1.507 3.208.22 4.537-1.278 1.33-3.149 1.296-4.588-.101l-1.88-1.812 4.326-4.487 1.922 1.863zm-4.233 2.819l.813.787c.703.669 1.719.618 2.472-.169.762-.796.762-1.846.042-2.54l-.762-.736-2.565 2.658zm11.412 10.684l2.235-3.37-3.14 2.024-.856-.567.652-3.675-2.243 3.37-1.177-.779 3.454-5.19 1.448.957-.644 4.021 3.463-2.15 1.44.957-3.455 5.189-1.177-.787zm3.691 2.116l2.896-5.502 1.397.736-2.896 5.503-1.397-.737zm7.891 3.649l-1.194-4.639-1.456 3.547-1.372-.567 2.37-5.757 1.296.533 1.194 4.648 1.464-3.555 1.363.558-2.37 5.757-1.295-.525zm8.415-3.809c1.888.507 2.87 2.074 2.387 3.86-.474 1.778-2.125 2.65-4.063 2.133l-2.523-.677 1.608-6.011 2.59.695zm-2.345 4.512l1.092.296c.94.254 1.803-.288 2.082-1.346.288-1.067-.22-1.981-1.193-2.243l-1.025-.271-.956 3.564zm11.157 2.32l-.558 1.1-1.626-.144 3.234-5.96 1.626.144 2.057 6.443-1.684-.153-.34-1.185-2.708-.245zm1.686-3.37l-1.118 2.218 1.786.161-.668-2.379zm8.161 3.133h-.043l-1.202.033.051 1.753-1.583.051-.186-6.223 2.785-.084c1.642-.051 2.607.702 2.65 2.091.025.948-.347 1.65-1.067 2.031l1.372 2.015-1.795.06-.982-1.727zm-.085-1.245c.686-.025 1.075-.381 1.05-1.041-.017-.652-.432-.965-1.118-.948l-1.202.033.06 1.981 1.21-.025zm7.568-2.658l.695 4.91-1.567.22-.694-4.91-1.837.262-.178-1.27 5.266-.745.178 1.27-1.862.263zm4.564 4.207l-1.355-6.078 1.55-.347 1.354 6.078-1.55.347zm7.103-7.78l-.204 1.355c-.745-.17-1.608-.178-2.091-.026-.389.119-.609.347-.516.635.322 1.025 3.276-.542 3.953 1.6.373 1.185-.482 2.151-1.803 2.565a4.634 4.634 0 0 1-3.014-.101l.22-1.346c.779.347 1.804.415 2.43.22.474-.153.72-.423.61-.762-.33-1.05-3.277.559-3.937-1.541-.347-1.092.381-2.083 1.803-2.531.855-.271 1.812-.28 2.549-.068zm4.927 2.811l.05 1.227-1.481.669-.093-6.773 1.481-.66 4.936 4.606-1.541.685-.872-.863-2.48 1.109zm-.187-3.759l.11 2.472 1.643-.737-1.753-1.735zm10.905-.593l-4.445-1.778 1.998 3.277-1.27.77-3.242-5.316 1.193-.729 4.453 1.787-2.006-3.285 1.261-.77 3.243 5.316-1.185.728zm6.51-6.222l.415 1.16-1.219 1.075-2.092-6.443 1.22-1.075 6.078 2.946-1.27 1.118-1.092-.567-2.04 1.786zm-1.287-3.53l.838 2.328 1.346-1.186-2.184-1.142zm9.101-4.445l.982.897-2.853 3.116-4.597-4.208 1.067-1.168 3.615 3.31 1.786-1.947zm-.576-5.164l.991.736 1.769-2.387.999.745-1.769 2.387 1.007.745 2.023-2.717.999.745-2.963 3.996-5.003-3.717 2.912-3.911.999.745-1.964 2.633zm5.097-9l.762 1.143c-.661.373-1.313.957-1.567 1.389-.203.355-.211.669.043.821.931.542 2.065-2.608 4.004-1.465 1.075.627 1.084 1.914.381 3.107a4.701 4.701 0 0 1-2.294 1.956l-.745-1.143c.804-.271 1.617-.906 1.947-1.473.254-.432.246-.796-.059-.974-.948-.558-2.049 2.616-3.954 1.499-.99-.584-1.117-1.803-.364-3.09.466-.779 1.168-1.431 1.846-1.77zm7.534-18.726c1.414.296 2.218 1.507 1.922 2.93-.296 1.396-1.524 2.175-2.938 1.878-1.397-.296-2.184-1.498-1.888-2.895.305-1.422 1.507-2.21 2.904-1.913z" fill="#fff"/><path d="M60.531 117.735l-.736 1.533c-.813-.475-1.837-.805-2.464-.805-.508 0-.846.186-.846.559 0 1.329 4.072.576 4.072 3.361 0 1.541-1.363 2.353-3.082 2.353-1.287 0-2.607-.482-3.522-1.236l.762-1.506c.796.694 1.981 1.159 2.785 1.159.618 0 1-.228 1-.668 0-1.363-4.073-.551-4.073-3.277 0-1.422 1.22-2.319 3.074-2.319 1.109-.017 2.243.33 3.03.846zm10.236 3.065c0 2.243-1.787 3.953-4.174 3.953-2.379 0-4.157-1.693-4.157-3.953 0-2.244 1.786-3.911 4.157-3.911 2.396.008 4.174 1.676 4.174 3.911zm-6.324.017c0 1.304.999 2.303 2.175 2.303 1.186 0 2.134-.999 2.134-2.303 0-1.295-.948-2.278-2.134-2.278-1.185 0-2.175.974-2.175 2.278zm15.255-2.625l-1.134 1.346c-.508-.618-1.253-.999-1.939-.999-1.22 0-2.15.965-2.15 2.235 0 1.287.922 2.269 2.15 2.269.652 0 1.397-.355 1.939-.906l1.143 1.211c-.83.847-2.05 1.405-3.184 1.405-2.32 0-4.046-1.701-4.046-3.962 0-2.226 1.77-3.894 4.114-3.894 1.143 0 2.337.508 3.107 1.295zm2.218 6.477v-7.704h1.956v7.704h-1.956zm6.781-6.163v1.532h3.675v1.541h-3.675v1.549h4.191v1.541h-6.155v-7.704h6.028v1.541h-4.064zm10.346.033v6.13h-1.956v-6.13h-2.303v-1.583h6.578v1.583h-2.32zm8.449 6.13h-1.948v-2.43l-2.853-5.274h1.956l1.863 3.361 1.82-3.361h1.955l-2.793 5.215v2.489z" fill="#383F48"/><path d="M75.05 41.457c0 1.236-1.278 2.074-3.7 3.471l1.787-.076c.83-.034 1.202-.305 1.625-.965l.195.05-.88 1.728h-3.912l-.033-.263 2.489-1.913c.872-.669 1.354-1.109 1.354-1.837 0-.415-.262-.83-.821-.83-.838 0-1.236.593-1.236 1.177 0 .06 0 .136.008.178a1.238 1.238 0 0 1-.355.068c-.296 0-.491-.178-.491-.474 0-.66.99-1.567 2.455-1.567.94 0 1.515.542 1.515 1.253zm7.823.873c0 1.718-1.55 3.513-3.75 3.513-1.254 0-2.15-.796-2.15-2.117 0-1.701 1.574-3.522 3.775-3.522 1.236 0 2.125.805 2.125 2.125zm-1.143.16c0-1.168-.627-1.845-1.397-1.845-1.591 0-2.193 1.718-2.193 2.929 0 1.168.602 1.828 1.389 1.828 1.566 0 2.2-1.65 2.2-2.912zm6.214-1.71c-.55.229-.796.576-.982 1.397l-.542 2.455c-.102.415.085.635.466.669l.49.042-.076.322s-.651-.034-1.54-.034c-.872 0-1.6.034-1.6.034l.076-.322.33-.042c.508-.068.923-.356 1.092-1.1l.516-2.303c.119-.55-.033-.745-.364-.796l-.575-.076.076-.322s.838-.034 1.608-.153c.89-.144 1.44-.321 1.44-.321l-.009.364-.406.186zm7.366-.44l.058.186-3.047 3.522c-.618.711-1.296 1.617-1.296 2.497 0 .297.068.627.246.88a1.265 1.265 0 0 1-.711.23c-.415 0-.711-.39-.711-.915 0-.779.338-1.261 1.87-2.861l2.71-2.828-2.48.102c-.847.033-1.406.558-1.685 1.109l-.212-.043.846-1.88h4.411z" fill="#383F48" stroke="#383F48" stroke-width=".5" stroke-miterlimit="10"/><path d="M123.848 95.555c-2.193-.923-6.477 1.498-7.179-2.05-.22-1.1 1.253-1.405 1.151-1.989-.178-1.007-4.825.534-5.579-.449-.11-.143.847-.981.838-1.413-.034-1.44-1.845-1.126-2.184-1.99-.127-.338-.186-.914-.212-1.54.678-2.506 1.067-5.343 1.067-8.34 0-7.416-2.345-13.807-5.723-16.787-.474-.602-.999-1.059-1.592-1.27-.643-.22-6.459-1.897-4.359 1.151.668.965 2.531 1.88 3.394 2.946.009.017 2.963 2.447 1.287 2.692-.355.051-2.743-2.379-3.53-2.887-.703-.448-.897-2.565-1.668-2.819-.542-.177-.669.39-1.219.381-1.041 0-2.76-3.708-3.522-2.751-.28.347.711 1.727.898 1.922 2.556 2.793 4.58 5.46 5.257 10.828.355 2.81-.99-.051-1.346-.703-1.16-2.176-2.125-5.266-3.784-6.857-.915-.873-5.588-4.987-7.366-2.82-.863 1.05 1.643 2.752 1.795 3.336.237.931-.423.948-.127 2.116.432 1.71 2.243 3.598 2.498 6.087.101.965.6 3.725.126 3.844-.82.203-1.092-2.912-1.083-2.879-1.042-4.275-3.539-6.831-5.19-10.057-.956-1.87-2.582-6.13-5.003-6.028-1.592.068-1.702.271-.322 1.092 3.962 2.354 3.099 8.61 5.384 12.69.305.543 1.042.932 1.22 1.6.33 1.27 2.014 7.256 1.219 7.942-1.964 1.693-2.38-1.583-2.498-2.625-.5-4.486-1.608-9.66-3.462-13.325-.83-1.642-2.21-2.514-3.141-3.911-.144-.212-2.168-4.369-3.014-2.692-.381.753 2.218 2.599 2.692 3.267 1.118 1.575 3.166 5.723 3.2 7.434.017.584.076 5.011-.39 5.062-.981.11-1.447-4.19-1.989-5.57-.457-1.194-1.77-2.777-2.624-4.487-.466-.931-3.082-4.91-3.97-4.741-1.592.305.33 1.617.643 1.862 2.023 1.592 3.327 5.385 2.565 7.56-.762 2.185 1.448 4.631 1.668 6.79.118 1.134-.627 2.049-.644 2.887-.008.474 1.397 5.046-.516 3.716-.356-.245.178-2.92.068-3.59-1.169-7.043-2.354-15.729-8.077-17.752-4.148-1.465 1.66 4.317 1.922 5.444.482 2.057 1.515 3.428 1.54 5.384.035 3.606-1.278-2.032-1.472-2.625-.204-.61-1.194-2.395-1.6-2.946-.906-1.219-6.18-.677-5.317-3.649.127-.423 2.108-.6 1.922-1.54-.186-.965-2.548-.136-2.625-.127-1.693.169-4.25-.534-6.027.321-2.718 1.304-8.678 3.742-9.999 16.145-.059.584-.94.872-1.024 1.278-.339 1.55.432 6.02 1.092 6.984.88 1.296 2.167-1.236 3.522-.575 1.067.516.39 3.708 1.024 5.13.906 2.023 2.98 5.57 5.317 5.892 3.767.525.406-3.293 0-3.784-2.15-2.565-2.176-4.326-2.946-8.584-1.05-5.79-.288-16.847 4.74-18.837 2.642-1.05 4.462 2.43 5.258 3.776 4.478 7.628 5.342 21.427-1.092 27.167-.694.618-.779 1.608-1.22 2.049-.406.406-4.605-.534-5.189-.703-.99-.28-2.887-1.414-3.268-2.176-1.312-2.599-3.191-3.174-3.784-6.214-.5-2.582-2.743-2.336-2.946.322-.102 1.33 1.727 2.802 1.151 3.97-.423.864-2.353.06-2.624 1.152-.144.601.339 1.253.127 1.6-.711 1.177-5.833-.889-6.477 1.024-.55 1.643 3.522 4.267 4.555 4.614 1.854.635 5.291.407 6.79 1.346.677.424.33 1.55 1.346 1.727 1.87.339 3.276-1.32 5.384-1.151.914.076 1.837 1.448 2.76 1.6 3.107.533 6.544-1.939 9.93-1.151.72.169.94.948 1.795 1.151 1.744.423 4.513-1.041 5.444-.254.482.407.254 1.422.83 1.668 1.447.618 4.02-.965 4.867-1.219 6.782-2.049 16.932-2.548 24.221-4.292 2.583-.618 8.932 1.507 9.931.127.33-.458-.119-1.27.195-1.727 1.083-1.617 6.044.279 6.857-1.346.339-.652-.11-1.66-.567-1.855zm-42.812-.06c-.805.517.66-.415 0 0zm8.203-9.482c.068-.296.178-.245.517-.321 3.098-.703-1.143 2.997-.517.321zm4.614-18.904c-.576-1.1-3.928-5.435-3.395-5.706 1.245-.627 2.091 1.346 2.498 1.99 1.16 1.828 2.903 4.783 3.14 6.984.34 3.158-1.794-2.413-2.243-3.268zm3.014 14.096c-.322.322.533-.534 0 0zm3.716-6.536c2.21-.821.712 3.268-.321 1.99-.432-.542.068-1.897.321-1.99z" fill="#383F48"/></svg>