<svg width="148" height="148" viewBox="0 0 148 148" fill="none" xmlns="http://www.w3.org/2000/svg"><path d="M147.885 78.656a1.892 1.892 0 0 0-1.578-2l-2.309-.424 2.309-.308A1.92 1.92 0 0 0 148 74c0-1-.731-1.77-1.693-1.924l-2.309-.308 2.309-.423a1.952 1.952 0 0 0 1.578-2.001 1.977 1.977 0 0 0-1.809-1.809l-2.347-.154 2.27-.577c.924-.23 1.539-1.154 1.424-2.117a1.921 1.921 0 0 0-1.924-1.693h-2.348l2.232-.73c.924-.309 1.463-1.232 1.309-2.194-.193-.924-.962-1.578-1.886-1.578h-.115l-2.309.23 2.155-.846c.885-.346 1.385-1.347 1.154-2.27-.231-.847-1-1.462-1.847-1.462h-.231l-2.309.307 2.117-1a1.92 1.92 0 0 0 1-2.348 1.94 1.94 0 0 0-1.847-1.346c-.115 0-.231 0-.346.038l-2.309.423 2.039-1.116c.847-.461 1.232-1.5.847-2.385-.308-.732-1.001-1.232-1.77-1.232-.154 0-.308.039-.462.077l-2.27.616 1.962-1.232c.808-.5 1.116-1.577.731-2.462a1.894 1.894 0 0 0-1.731-1.116c-.193 0-.385.038-.578.077l-2.231.73 1.885-1.385c.77-.577 1.039-1.616.539-2.5-.346-.578-1.001-.924-1.693-.924-.231 0-.462.038-.693.154l-2.193.846 1.808-1.5c.731-.616.924-1.694.385-2.502-.346-.577-1-.885-1.616-.885-.27 0-.539.077-.808.192l-2.117.962 1.693-1.616a1.934 1.934 0 0 0 .231-2.54c-.385-.5-.962-.808-1.577-.808a2.05 2.05 0 0 0-.924.231l-2.04 1.116 1.617-1.693a1.933 1.933 0 0 0 .077-2.54 1.916 1.916 0 0 0-1.501-.693 2.04 2.04 0 0 0-1.039.308l-1.924 1.309 1.501-1.809a1.933 1.933 0 0 0-.077-2.54c-.385-.384-.885-.615-1.386-.615-.385 0-.808.115-1.116.384l-1.885 1.386 1.385-1.886c.577-.77.462-1.886-.231-2.54-.385-.346-.846-.538-1.308-.538-.424 0-.885.154-1.232.423l-1.808 1.5 1.27-1.962c.538-.808.346-1.886-.385-2.501-.462-.308-.885-.462-1.309-.462a1.9 1.9 0 0 0-1.308.539l-1.693 1.616 1.116-2.04a1.967 1.967 0 0 0-.539-2.5c-.346-.232-.731-.386-1.116-.386-.5 0-1.039.193-1.385.616l-1.578 1.693 1.001-2.116a1.946 1.946 0 0 0-.693-2.463 2.04 2.04 0 0 0-1.039-.308c-.539 0-1.116.231-1.501.693l-1.578 1.847.847-2.194c.346-.885 0-1.924-.847-2.385a2.044 2.044 0 0 0-.923-.231 1.9 1.9 0 0 0-1.578.808l-1.347 1.847.731-2.232a1.92 1.92 0 0 0-1-2.347c-.27-.116-.539-.193-.808-.193-.654 0-1.27.308-1.616.885l-1.232 1.963.577-2.27c.231-.924-.269-1.925-1.154-2.271-.231-.077-.462-.154-.693-.154-.692 0-1.347.385-1.693 1L97.743 8.12l.423-2.31c.193-.961-.384-1.885-1.308-2.193-.192-.077-.385-.077-.577-.077-.731 0-1.424.424-1.732 1.116l-1 2.117.307-2.31c.116-.961-.5-1.846-1.423-2.116-.154-.038-.308-.077-.462-.077-.77 0-1.5.462-1.77 1.232l-.924 2.155.154-2.348a1.891 1.891 0 0 0-1.578-2c-.115-.04-.23-.04-.346-.04-.808 0-1.578.54-1.847 1.348l-.731 2.232V2.5c0-.962-.731-1.77-1.693-1.924h-.231c-.885 0-1.655.577-1.847 1.463l-.578 2.27-.154-2.347a1.977 1.977 0 0 0-1.808-1.81h-.116c-.923 0-1.731.655-1.885 1.579l-.424 2.309-.307-2.31C75.809.732 75 0 74 0c-.962 0-1.77.731-1.924 1.693l-.308 2.31-.423-2.31A1.901 1.901 0 0 0 69.459.115h-.115a1.977 1.977 0 0 0-1.809 1.81l-.154 2.346-.577-2.27c-.23-.847-1-1.462-1.847-1.462h-.231a1.92 1.92 0 0 0-1.693 1.924V4.81l-.693-2.193a1.94 1.94 0 0 0-1.847-1.347c-.116 0-.23 0-.346.038a1.951 1.951 0 0 0-1.578 2.001l.154 2.348-.847-2.194c-.308-.73-1-1.231-1.77-1.231-.154 0-.308.038-.462.077-.923.23-1.539 1.154-1.423 2.116l.307 2.31-1.039-2.117a1.895 1.895 0 0 0-1.731-1.116c-.193 0-.385.038-.578.077-.923.308-1.462 1.231-1.308 2.193l.423 2.31-1.116-2.04c-.346-.616-1-1-1.693-1-.23 0-.462.038-.692.153-.886.346-1.386 1.347-1.155 2.27l.539 2.27-1.232-1.962c-.346-.577-1-.885-1.616-.885-.27 0-.538.077-.808.193a1.92 1.92 0 0 0-1 2.347l.73 2.232-1.385-1.886c-.384-.5-.962-.808-1.577-.808a2.05 2.05 0 0 0-.924.231c-.846.423-1.231 1.462-.885 2.348l.847 2.154-1.463-1.77a1.895 1.895 0 0 0-1.462-.692 2.04 2.04 0 0 0-1.039.307c-.808.5-1.116 1.54-.731 2.425l1 2.116-1.577-1.693c-.385-.385-.885-.616-1.386-.616-.385 0-.808.116-1.116.385-.846.539-1.077 1.616-.615 2.463l1.116 2.04-1.655-1.617a1.954 1.954 0 0 0-1.347-.5c-.423 0-.885.154-1.231.423-.732.616-.924 1.694-.385 2.502l1.27 2-1.809-1.5a2.072 2.072 0 0 0-1.231-.423 1.9 1.9 0 0 0-1.309.538c-.73.654-.808 1.732-.23 2.502l1.385 1.885-1.924-1.347c-.347-.23-.731-.384-1.116-.384-.5 0-1.04.192-1.386.615-.692.693-.73 1.77-.115 2.54l1.5 1.809-1.962-1.27c-.346-.193-.693-.308-1.039-.308-.539 0-1.116.23-1.5.693-.616.77-.578 1.847.076 2.54l1.616 1.693-2.039-1.116a2.05 2.05 0 0 0-.923-.231c-.616 0-1.194.27-1.54.808-.577.77-.462 1.886.231 2.54l1.693 1.577-2.116-1a2.009 2.009 0 0 0-.808-.154c-.654 0-1.27.308-1.617.885a1.862 1.862 0 0 0 .385 2.501l1.809 1.501-2.194-.885a2.18 2.18 0 0 0-.692-.115c-.693 0-1.347.384-1.693 1a1.968 1.968 0 0 0 .538 2.501l1.886 1.386-2.232-.731c-.192-.077-.385-.077-.577-.077-.731 0-1.424.423-1.732 1.116a1.945 1.945 0 0 0 .693 2.462l2 1.155-2.27-.577a1.93 1.93 0 0 0-.461-.077c-.77 0-1.501.461-1.77 1.231-.347.885 0 1.924.846 2.386l2.04 1.116-2.31-.423c-.115-.039-.23-.039-.346-.039-.808 0-1.577.539-1.847 1.347a1.92 1.92 0 0 0 1 2.347l2.117 1-2.309-.307h-.23c-.886 0-1.655.577-1.848 1.462-.23.924.27 1.924 1.155 2.27l2.155.847-2.348-.154h-.115c-.924 0-1.732.655-1.886 1.578-.192.962.385 1.886 1.309 2.194l2.232.73H2.5c-.962 0-1.77.732-1.924 1.694-.115.962.5 1.847 1.424 2.116l2.27.578-2.347.153a1.977 1.977 0 0 0-1.809 1.81 1.891 1.891 0 0 0 1.578 2l2.31.424-2.31.307C.731 72.23 0 73.038 0 74s.731 1.77 1.693 1.924l2.31.308-2.31.423a1.951 1.951 0 0 0-1.578 2.001c.039.962.847 1.732 1.81 1.809l2.346.154-2.27.577c-.924.23-1.54 1.154-1.424 2.117a1.92 1.92 0 0 0 1.924 1.693H4.85l-2.232.73c-.924.309-1.463 1.232-1.309 2.194.193.924.962 1.578 1.886 1.578h.115l2.348-.154-2.194.808c-.885.347-1.385 1.347-1.154 2.27.23.847 1 1.463 1.847 1.463h.23l2.31-.308-2.078.962a1.92 1.92 0 0 0-1 2.347c.269.809 1 1.347 1.846 1.347.116 0 .231 0 .347-.038l2.309-.423-2.04 1.116c-.847.461-1.231 1.5-.847 2.385.308.732 1.001 1.232 1.77 1.232.155 0 .308-.039.462-.077l2.27-.577-1.962 1.231c-.808.5-1.116 1.578-.692 2.463.307.693 1 1.116 1.731 1.116.193 0 .385-.039.578-.077l2.231-.731-1.885 1.385c-.808.5-1.04 1.578-.577 2.424.346.616 1 1.001 1.693 1.001.23 0 .462-.039.692-.154l2.155-.847-1.77 1.501c-.73.616-.923 1.693-.385 2.501.347.578 1.001.886 1.617.886.27 0 .538-.077.808-.193l2.116-1-1.693 1.616a1.935 1.935 0 0 0-.23 2.54c.384.5.961.808 1.538.808.308 0 .616-.077.924-.231l2.04-1.116-1.617 1.693a1.932 1.932 0 0 0-.077 2.54c.385.462.924.693 1.501.693.346 0 .731-.116 1.04-.308l1.962-1.27-1.501 1.808a1.932 1.932 0 0 0 .077 2.54c.385.385.885.616 1.385.616.385 0 .808-.116 1.116-.385l1.886-1.385-1.309 1.924c-.577.769-.461 1.885.231 2.54.385.346.847.538 1.309.538.423 0 .885-.154 1.231-.423l1.809-1.501-1.27 1.924c-.539.808-.347 1.886.385 2.502.346.307.808.423 1.231.423.462 0 .962-.192 1.308-.539l1.694-1.616-1.116 2.04a1.967 1.967 0 0 0 .538 2.501c.347.231.732.385 1.116.385.5 0 1.04-.193 1.386-.616l1.654-1.655-1 2.117a1.946 1.946 0 0 0 .692 2.463c.308.192.693.307 1.04.307.538 0 1.115-.231 1.5-.692l1.501-1.809-.846 2.155c-.347.885 0 1.924.846 2.386.308.154.616.231.924.231.615 0 1.193-.27 1.539-.808l1.385-1.886-.73 2.232a1.92 1.92 0 0 0 1 2.347c.269.116.538.193.808.193.654 0 1.27-.308 1.616-.885l1.27-2.001-.577 2.27c-.231.924.269 1.924 1.154 2.27.231.077.462.154.693.154.692 0 1.347-.384 1.693-1l1.116-2.04-.423 2.309c-.193.962.384 1.886 1.308 2.194.192.077.385.077.577.077.731 0 1.424-.424 1.732-1.116l1-2.117-.307 2.309c-.116.962.5 1.847 1.423 2.117.154.038.308.077.462.077.77 0 1.5-.462 1.77-1.232l.924-2.193-.154 2.347a1.891 1.891 0 0 0 1.578 2.001c.115.039.23.039.346.039.808 0 1.578-.539 1.847-1.347l.731-2.232v2.347c0 .962.731 1.77 1.693 1.924h.231c.885 0 1.655-.577 1.847-1.462l.578-2.27.154 2.347a1.977 1.977 0 0 0 1.808 1.809h.116c.923 0 1.731-.655 1.885-1.578l.424-2.309.307 2.309A1.92 1.92 0 0 0 74.038 148c.963 0 1.77-.731 1.925-1.693l.307-2.309.424 2.309c.192.923.962 1.578 1.885 1.578h.116a1.977 1.977 0 0 0 1.808-1.809l.154-2.347.578 2.27c.23.847 1 1.462 1.847 1.462h.23a1.92 1.92 0 0 0 1.694-1.924v-2.347l.73 2.232a1.942 1.942 0 0 0 1.848 1.347c.115 0 .23 0 .346-.039a1.951 1.951 0 0 0 1.578-2.001l-.23-2.347.846 2.155c.308.731 1 1.231 1.77 1.231.154 0 .308-.038.462-.077.923-.231 1.539-1.154 1.424-2.116l-.308-2.309 1 2.116c.308.693 1 1.116 1.732 1.116.192 0 .385-.038.577-.077.924-.308 1.462-1.231 1.308-2.193l-.423-2.309 1.116 2.039c.346.616 1 1.001 1.693 1.001.231 0 .462-.039.693-.154.885-.346 1.385-1.347 1.154-2.27l-.577-2.271 1.232 1.963c.346.577 1 .885 1.616.885.269 0 .539-.077.808-.193a1.92 1.92 0 0 0 1-2.347l-.731-2.232 1.386 1.886c.384.5.962.808 1.577.808.308 0 .616-.077.924-.231.847-.462 1.231-1.501.847-2.386l-.732-2.116 1.501 1.808c.385.462.924.693 1.501.693.346 0 .731-.116 1.039-.308a1.946 1.946 0 0 0 .693-2.463l-1.001-2.116 1.578 1.693c.385.385.885.616 1.385.616.385 0 .808-.116 1.116-.385.77-.577 1.039-1.616.539-2.501l-1.116-2.04 1.693 1.616c.385.347.847.539 1.308.539.424 0 .886-.154 1.232-.423.731-.616.923-1.694.385-2.502l-1.27-1.962 1.808 1.501c.347.307.809.423 1.232.423a1.9 1.9 0 0 0 1.308-.539 1.935 1.935 0 0 0 .231-2.54l-1.385-1.885 1.885 1.385c.347.231.732.385 1.116.385.501 0 1.039-.193 1.386-.616a1.933 1.933 0 0 0 .077-2.54l-1.501-1.808 1.962 1.27c.308.192.693.308 1.039.308.578 0 1.116-.231 1.501-.693.616-.731.577-1.847-.077-2.54l-1.616-1.693 2.04 1.116c.307.154.615.231.923.231.616 0 1.193-.27 1.578-.808.577-.77.462-1.886-.231-2.54l-1.693-1.616 2.116 1c.27.116.539.193.808.193.655 0 1.27-.308 1.617-.886.538-.808.346-1.885-.385-2.501l-1.693-1.501 2.155.847c.23.077.461.154.692.154.693 0 1.347-.385 1.693-1.001a1.968 1.968 0 0 0-.538-2.501l-1.886-1.385 2.232.731c.192.077.385.077.577.077.731 0 1.424-.423 1.732-1.116.423-.885.115-1.924-.731-2.463l-1.963-1.231 2.271.577c.154.038.307.077.461.077.77 0 1.501-.462 1.771-1.232.346-.885 0-1.924-.847-2.385l-2.04-1.116 2.309.423c.116.038.231.038.347.038.808 0 1.577-.538 1.847-1.346.308-.924-.154-1.924-1.001-2.348l-2.116-1 2.309.308h.231c.885 0 1.654-.578 1.847-1.463.231-.923-.27-1.924-1.155-2.27l-2.116-.77 2.347.154h.116c.923 0 1.731-.654 1.885-1.578.193-.962-.385-1.885-1.308-2.193l-2.232-.731h2.347c.962 0 1.77-.731 1.924-1.693.116-.963-.5-1.848-1.424-2.117l-2.27-.577 2.347-.154c.924 0 1.694-.77 1.771-1.732z" fill="#383F48"/><path opacity=".4" d="M45.177 112.289v-5.772l3.887-.77c2.424-.462 5.657-1.847 5.657-8.85v-36.02H42.79c-1.808 0-1.808.616-1.808 1.117v10.775h1.924c1.924 0 2.81-.693 3.079-2.502l.538-3.617h4.657l-.077 1.54s-.193 3.386-.193 6.618c0 2.886.193 6.08.193 6.08l.115 1.54H46.6l-.577-2.425c-.192-.885-.5-1.578-2.424-1.578H41.02v9.505c0 1.27.116 1.694 2.925 2.155l2.886.462v4.618l-1.5-.039s-5.888-.192-9.583-.192c-4.079 0-7.927.192-7.927.192l-1.5.077v-4.579l2.385-.5c1.078-.231 2.194-.808 2.194-3.387V62.763c0-1.885-.039-1.885-1.693-2.116l-2.848-.462v-4.618l1.5.077s4.965.193 8.62.193c2.502 0 10.275-.039 18.28-.077v-7.89c0-4.04-1.155-4.849-4.85-5.387l-4.694-.693v-5.85l1.54.078c.038 0 5.848.308 14.7.308 2.924 0 5.04-.077 6.964-.193 1.655-.077 3.194-.154 4.964-.154 14.392 0 23.32 6.812 23.32 17.779 0 9.966-6.003 15.046-10.929 17.509 7.466 2.424 13.046 7.388 15.355 13.815.038.038.192.308.269.577 1.039 3.232 3.271 4.772 7.004 4.772 3.232 0 5.118-1.54 5.118-4.118 0-3.194-3.079-5.08-6.619-7.273-4.426-2.732-9.89-6.118-9.89-13.238 0-6.541 5.349-10.928 13.353-10.928 1.809 0 3.54.269 5.195.577 1.616.27 3.194.539 4.81.539h1.54l-.693 11.929h-4.387l-.154-1.308c-.423-3.926-2.924-6.196-6.927-6.196-2.347 0-4.04 1.462-4.04 3.463 0 2.617 3.04 4.503 6.58 6.658 4.656 2.847 10.429 6.388 10.429 13.314 0 7.581-5.234 12.122-13.969 12.122-2.54 0-4.695-.5-6.619-.962-.077 0-.154-.039-.231-.039-1.731 10.814-10.775 17.24-24.513 17.24-2.462 0-4.771-.077-7.196-.154-2.732-.077-5.618-.154-9.158-.154-8.735 0-14.2.308-14.277.308l-1.578.077zm15.778-3.271c3.579 0 6.503.077 9.235.154 2.386.077 4.657.154 7.081.154 12.93 0 20.895-5.926 21.819-16.24l.154-1.615 1.578.307c.615.116 1.193.27 1.808.424.308.077.655.154 1.001.23-2.424-1.038-4.156-3.04-5.08-5.887l-.27-.5c-2.385-6.658-8.965-11.545-17.624-13.046l-3.424-.577-.077.039-.54-.077c-.038 0-5.848-.578-10.312 0l-1.617.192v-31.94l1.078-.307c1.231-.347 3.156-.77 5.81-.77 8.928 0 14.97 5.772 14.97 14.315 0 6.696-2.386 12.545-6.657 16.509l.654-.193c4.926-1.424 13.2-5.464 13.2-16.431 0-9.313-7.659-14.893-20.435-14.893-1.77 0-3.232.077-4.848.154-1.963.077-4.118.193-7.08.193-6.273 0-11.045-.154-13.316-.231v.27l2.232.345c4.503.655 7.312 2.27 7.312 8.236v49.102c0 8.427-4.349 11.006-8.004 11.698l-1.54.308v.347c2.232-.116 6.773-.27 12.892-.27zm45.6-50.834c-4.194 1-6.734 3.771-6.734 7.62 0 5.502 4.156 8.08 8.543 10.774 3.925 2.425 8.004 4.964 8.004 9.736 0 3.31-2.001 5.734-5.195 6.619 5.542-.693 8.543-3.887 8.543-9.082 0-5.31-4.579-8.12-9.043-10.852-4.118-2.5-7.966-4.887-7.966-9.12.039-2.54 1.54-4.694 3.848-5.695zm-74.384.462c1.116.77 1.577 2.04 1.577 4.117v23.974c0 2.964-1.154 4.541-2.385 5.388 2.424-.077 5.618-.077 8.966 0-1.232-.654-2.232-1.847-2.232-4.118V62.071c0-.847.23-2.463 1.77-3.348h-3.425c-1.347 0-2.886-.039-4.271-.077zm11.967 17.009c1.77.115 3.079.77 3.887 1.962-.038-.885-.038-1.808-.038-2.732v-1.693c-.77 1.347-2.078 2.193-3.849 2.463zm27.091-6.427c2.348 0 4.349.154 5.272.27 4.58-3.31 7.196-8.967 7.196-15.585 0-6.965-4.733-11.43-12.083-11.43-1.654 0-2.963.193-4.002.424v12.776l9.467-.077v11.467h-4.426l-.154-1.231c-.423-2.925-2.655-4.156-4.887-4.618v8.12a58.677 58.677 0 0 1 3.617-.116zm41.445-11.275c2.694.731 4.733 2.424 5.849 4.887l.231-4.002c-1.308-.115-2.54-.308-3.771-.5-.77-.154-1.539-.308-2.309-.385zm-43.907.577c2.462.616 4.348 1.886 5.464 3.695v-3.733l-5.464.038zm5.502 50.142c-5.849 0-9.505-3.156-9.505-8.235V72.884l1.27-.154s.924-.115 2.155-.115c3.926 0 13.661.73 19.241 7.58l1.578 1.925-2.386.384c2.155.347 3.156 1.732 3.54 2.617.808 2.31 1.155 4.58 1.155 7.042 0 9.698-7.004 16.509-17.048 16.509zm-6.618-33.21v24.936c0 4.849 4.617 5.349 6.618 5.349 8.466 0 14.162-5.464 14.162-13.622 0-2.155-.308-4.08-.962-5.965-.27-.615-.885-.962-2.04-.885-1.462.039-2.617.654-3.425 1.847-1.193 1.693-1.462 3.04-.692 3.579.307.192.615.308.615.308l1.309.346-.231 1.347a5.376 5.376 0 0 1-.808 1.924c-1.309 1.886-4.002 3.04-6.042 1.616-3.194-2.232-2.078-7.003.346-10.467 1.847-2.655 4.233-4.502 7.004-5.503-5.118-4.463-12.891-4.81-15.354-4.81h-.5zm10.467 13.315c-1.078 2.078-1.424 4.31-.27 5.118.462.346 1.386-.115 1.886-.77l-.039-.038c-.461-.308-2.116-1.655-1.577-4.31z" fill="#5D5E5E"/><path fill-rule="evenodd" clip-rule="evenodd" d="M74.462 141.035c-36.904 0-66.92-30.016-66.92-66.92 0-36.903 30.016-66.919 66.92-66.919s66.919 30.016 66.919 66.92c0 36.903-30.054 66.919-66.92 66.919z" fill="#FBFAF6"/><path d="M74.462 11.044c34.787 0 63.071 28.284 63.071 63.071 0 34.788-28.284 63.072-63.071 63.072-34.788 0-63.071-28.284-63.071-63.072 0-34.787 28.284-63.07 63.07-63.07zm0-7.696c-39.097 0-70.768 31.709-70.768 70.767 0 39.098 31.67 70.768 70.768 70.768 39.097 0 70.767-31.67 70.767-70.768-.038-39.058-31.708-70.767-70.767-70.767z" fill="#384049"/><path d="M74.462 7.196c36.904 0 66.919 30.016 66.919 66.92 0 36.903-30.015 66.919-66.92 66.919-36.903 0-66.919-30.016-66.919-66.92 0-36.903 30.016-66.919 66.92-66.919zm0-3.848c-39.097 0-70.768 31.709-70.768 70.767 0 39.098 31.67 70.768 70.768 70.768 39.097 0 70.767-31.67 70.767-70.768-.038-39.058-31.708-70.767-70.767-70.767z" fill="#FBFAF6"/><path d="M74.462 146.807c-40.098 0-72.692-32.594-72.692-72.692 0-40.097 32.594-72.691 72.692-72.691 40.098 0 72.691 32.594 72.691 72.691 0 40.098-32.632 72.692-72.691 72.692zm0-141.535c-37.981 0-68.844 30.9-68.844 68.843 0 37.943 30.863 68.844 68.844 68.844 37.943 0 68.843-30.862 68.843-68.844-.038-37.942-30.9-68.843-68.843-68.843z" fill="#384049"/><path d="M111.712 71.422c-3.771-2.31-7.042-4.31-7.042-7.466 0-2.578 2.116-4.425 5.002-4.425 4.464 0 7.427 2.655 7.889 7.042l.039.423h2.616l.578-10.005h-.501c-1.693 0-3.348-.27-4.964-.539-1.616-.269-3.309-.538-5.041-.538-7.388 0-12.39 4.002-12.39 9.966 0 6.58 5.002 9.698 9.427 12.43 3.81 2.347 7.081 4.387 7.081 8.12 0 3.117-2.348 5.08-6.08 5.08-4.156 0-6.735-1.771-7.889-5.427-.077-.23-.193-.423-.27-.577-2.424-6.85-8.85-11.968-17.316-13.93 4.887-1.809 12.853-6.465 12.853-17.702 0-10.39-8.582-16.816-22.358-16.816-1.77 0-3.31.077-4.926.154-1.885.077-4.04.192-7.003.192-8.89 0-14.7-.308-14.739-.308l-.539-.154v3.964l3.849.577c3.925.577 5.656 1.616 5.656 6.35v8.85c-8.312.039-16.624.077-19.24.077-3.656 0-8.62-.192-8.659-.192h-.462v2.809l2.04.308c2.04.308 2.54.654 2.54 3.078v23.974c0 2.54-.962 3.964-2.963 4.349l-1.655.346v2.77l.5-.038c.039 0 3.925-.192 7.966-.192 3.656 0 9.582.192 9.62.192h.5v-2.809l-2.077-.308c-2.771-.423-3.733-.962-3.733-3.078V77.502h3.54c2.001 0 2.963.654 3.348 2.309l.423 1.693h2.848l-.038-.5c0-.039-.193-3.271-.193-6.157 0-3.233.193-6.62.193-6.658l.038-.5h-2.848l-.423 2.81c-.346 2.27-1.655 3.309-4.04 3.309H40.02V62.07c0-.962.308-2.078 2.77-2.078h12.892v36.98c0 5.773-2.078 9.005-6.427 9.775l-3.117.616v3.963l.5-.038c.04 0 5.542-.308 14.316-.308 3.54 0 6.426.077 9.197.154 2.424.077 4.695.154 7.157.154 13.623 0 22.435-6.504 23.705-17.433.423.078.847.193 1.27.308 1.847.424 3.964.924 6.388.924 8.273 0 13.007-4.08 13.007-11.16 0-6.426-5.311-9.659-9.967-12.506z" fill="#383F48"/><path d="M76.77 70.498a50.716 50.716 0 0 0-5.54-.308c-1.463 0-3.08.077-4.541.27V60.147c4.002.423 6.349 2.347 6.772 5.58l.077.423h2.617v-9.582l-9.466.038V42.1c1.193-.308 2.809-.616 4.964-.616 7.811 0 13.045 5.003 13.045 12.391 0 7.12-2.886 13.16-7.927 16.624z" fill="#FBFAF6"/><path d="M71.653 41.983c7.619 0 12.545 4.695 12.545 11.93 0 6.85-2.732 12.699-7.543 16.085a57.676 57.676 0 0 0-5.387-.27 49.24 49.24 0 0 0-4.08.193v-9.236c2.58.385 5.35 1.617 5.85 5.118l.077.809h3.54V56.106h-.962l-8.504.039V42.484c1.116-.231 2.54-.5 4.464-.5zm0-.962c-2.502 0-4.31.424-5.426.731v15.355c5.464-.039 9.466-.077 9.466-.077v8.581h-1.731c-.5-3.425-3.079-5.695-7.735-6.042V70.96a45.976 45.976 0 0 1 5.04-.308c3.156 0 5.658.308 5.658.308 5.118-3.463 8.273-9.62 8.273-17.086-.038-7.812-5.58-12.853-13.545-12.853z" fill="#383F48"/><path d="M101.36 64.841c.501 4.464 4.618 7.004 8.62 9.428 5.041 3.079 8.351 5.426 8.351 9.582 0 1.193-.193 2.27-.539 3.194 0-.23.039-.462.039-.73 0-5.62-4.618-8.467-8.697-10.968-4.887-3.002-7.851-5.157-7.851-9.544 0-.346 0-.654.077-.962zM56.606 40.636c1.463 0 3.079.039 4.772.039h1.924v59.8c0 3.04 1.155 5.542 3.194 7.235a233.176 233.176 0 0 0-5.541-.077c-2.155 0-4.118 0-5.81.038 2.231-1.924 3.886-5.195 3.886-10.66v-49.14c0-3.579-.924-5.81-2.425-7.235zm25.706.924c6.388 1.963 10.005 6.234 10.005 12.237 0 7.196-3.925 11.121-7.773 13.238 2.27-3.694 3.502-8.197 3.502-13.122 0-5.234-2.117-9.582-5.734-12.353zM34.903 60.147h2.077a6.442 6.442 0 0 0-.308 1.885V87.97c0 1.039.154 1.885.462 2.617h-2.655c.5-1.116.77-2.386.77-3.887V62.725c-.038-.962-.154-1.847-.346-2.578zm49.295 15.2c15.816 4.772 19.125 23.858 1.154 31.593 4.656-3.117 7.427-8.389 7.427-14.815 0-6.08-2.424-10.852-4.194-12.891-1.81-2.04-2.81-2.848-4.387-3.887z" fill="#FBFAF6"/><path d="M74.27 106.748c-4.734 0-7.581-2.386-7.581-6.311v-25.86c.346-.038.885-.038 1.5-.038 2.771 0 11.93.462 17.202 6.234-3.233.731-6.004 2.655-8.082 5.618-1.077 1.578-1.847 3.348-2.078 4.887-.269 1.886.231 3.348 1.463 4.195.423.308.923.462 1.462.462 1.154 0 2.424-.732 3.194-1.848.346-.461.539-.962.654-1.577l.077-.462-.462-.115s-.461-.116-.962-.424c-.615-.423-1.77-1.77.462-4.925 1-1.424 2.424-2.194 4.195-2.27h.038c1.578 0 2.501.538 2.963 1.577.654 1.924 1 4.002 1 6.234.078 8.735-6.002 14.623-15.046 14.623z" fill="#FBFAF6"/><path d="M68.19 74.962c2.616 0 11.082.423 16.277 5.503-3.002.885-5.58 2.81-7.542 5.58-2.348 3.386-3.271 7.811-.462 9.774.5.346 1.116.539 1.77.539 1.308 0 2.732-.808 3.617-2.078a4.286 4.286 0 0 0 .731-1.732l.154-.885-.885-.23s-.385-.116-.77-.386c-1.038-.73-.808-2.27.578-4.233.923-1.308 2.193-2 3.81-2.04h.23c1.155 0 1.925.424 2.27 1.194.655 1.924.963 3.925.963 6.118 0 8.466-5.888 14.123-14.623 14.123-2.117 0-7.12-.577-7.12-5.849V74.962c.27.039.617 0 1.001 0zm0-.962a16.49 16.49 0 0 0-2.002.115v26.283c0 4.503 3.348 6.812 8.081 6.812 9.62 0 15.585-6.388 15.585-15.085 0-2.501-.384-4.58-1.039-6.427-.77-1.693-2.385-1.847-3.194-1.847h-.269c-1.963.077-3.502.962-4.54 2.463-2.194 3.156-1.348 4.887-.309 5.58.54.385 1.116.5 1.116.5-.115.5-.269.962-.577 1.385-.654.963-1.77 1.655-2.809 1.655a1.92 1.92 0 0 1-1.193-.385c-2.309-1.616-1.308-5.58.731-8.427 2.31-3.31 5.388-5.041 8.582-5.58C81.158 74.732 71.845 74 68.189 74zM57.953 42.407s1.347-.27 2.694-.424c.654-.115 1.347-.192 1.847 0 .5.154.847.385.847.385v.116s-.347.269-.847.384c-.5.193-1.154.154-1.847 0a55.72 55.72 0 0 1-2.694-.384v-.077zm.885 2.732s1.116-.27 2.232-.385c.577-.115 1.116-.192 1.54 0 .423.154.692.385.692.385v.115s-.27.27-.693.385c-.423.192-1 .154-1.539 0-1.116-.154-2.232-.385-2.232-.385v-.115zm.192 2.732s1.078-.27 2.156-.385c.538-.115 1.077-.192 1.462 0 .385.154.654.385.654.385v.115s-.27.27-.654.385c-.385.193-.924.154-1.462 0-1.078-.154-2.155-.385-2.155-.385v-.115zm0 2.732s1.078-.27 2.156-.385c.538-.115 1.077-.192 1.462 0 .385.154.654.385.654.385v.116s-.27.27-.654.384c-.385.193-.924.154-1.462 0a24.118 24.118 0 0 1-2.155-.423v-.077zm0 2.694s1.078-.27 2.156-.423c.538-.116 1.077-.193 1.462 0 .385.154.654.384.654.384v.116s-.27.27-.654.385c-.385.192-.924.154-1.462 0-1.078-.154-2.155-.385-2.155-.385v-.077zm0 2.733s1.078-.27 2.156-.386c.538-.115 1.077-.192 1.462 0 .385.154.654.385.654.385v.115s-.27.27-.654.385c-.385.193-.924.154-1.462 0-1.078-.154-2.155-.385-2.155-.385v-.115zm0 2.731s1.078-.269 2.156-.385c.538-.115 1.077-.192 1.462 0 .385.155.654.385.654.385v.116s-.27.27-.654.385c-.385.192-.924.154-1.462 0-1.078-.154-2.155-.385-2.155-.385v-.116zm0 2.732s1.078-.269 2.156-.384c.538-.116 1.077-.193 1.462 0 .385.154.654.384.654.384v.116s-.27.27-.654.385c-.385.192-.924.154-1.462 0-1.078-.154-2.155-.423-2.155-.423v-.078zm0 2.733s1.078-.27 2.156-.424c.538-.115 1.077-.192 1.462 0 .385.154.654.385.654.385v.116s-.27.27-.654.385c-.385.192-.924.153-1.462 0-1.078-.154-2.155-.385-2.155-.385v-.077zm0 2.732s1.078-.27 2.156-.385c.538-.115 1.077-.192 1.462 0 .385.154.654.385.654.385v.115s-.27.27-.654.385c-.385.192-.924.154-1.462 0-1.078-.154-2.155-.385-2.155-.385v-.115zm0 2.694s1.078-.27 2.156-.385c.538-.116 1.077-.193 1.462 0 .385.154.654.385.654.385v.115s-.27.27-.654.385c-.385.192-.924.154-1.462 0-1.078-.154-2.155-.385-2.155-.385v-.115zm0 2.732s1.078-.27 2.156-.385c.538-.115 1.077-.192 1.462 0 .385.154.654.385.654.385v.115s-.27.27-.654.385c-.385.192-.924.154-1.462 0-1.078-.154-2.155-.423-2.155-.423v-.077zm0 2.732s1.078-.27 2.156-.423c.538-.116 1.077-.193 1.462 0 .385.154.654.385.654.385v.115s-.27.27-.654.385c-.385.192-.924.154-1.462 0-1.078-.154-2.155-.385-2.155-.385v-.077zm0 2.732s1.078-.27 2.156-.385c.538-.115 1.077-.192 1.462 0 .385.154.654.385.654.385v.116s-.27.269-.654.384c-.385.193-.924.154-1.462 0a35.744 35.744 0 0 1-2.155-.384v-.116zm0 2.732s1.078-.269 2.156-.385c.538-.115 1.077-.192 1.462 0 .385.154.654.385.654.385v.116s-.27.27-.654.385c-.385.192-.924.153-1.462 0-1.078-.154-2.155-.385-2.155-.385v-.116zm0 2.733s1.078-.27 2.156-.385c.538-.116 1.077-.193 1.462 0 .385.154.654.385.654.385v.115s-.27.27-.654.385c-.385.192-.924.154-1.462 0-1.078-.154-2.155-.424-2.155-.424v-.076zm0 2.693s1.078-.27 2.156-.423c.538-.115 1.077-.192 1.462 0 .385.154.654.385.654.385v.115s-.27.27-.654.385c-.385.192-.924.154-1.462 0-1.078-.154-2.155-.385-2.155-.385v-.077zm0 2.732s1.078-.269 2.156-.384c.538-.116 1.077-.193 1.462 0 .385.153.654.384.654.384v.116s-.27.27-.654.385c-.385.192-.924.154-1.462 0-1.078-.154-2.155-.385-2.155-.385v-.116zm0 2.732s1.078-.269 2.156-.384c.538-.116 1.077-.193 1.462 0 .385.154.654.385.654.385v.115s-.27.27-.654.385c-.385.192-.924.154-1.462 0-1.078-.154-2.155-.385-2.155-.385v-.115zm0 2.733s1.078-.27 2.156-.385c.538-.115 1.077-.192 1.462 0 .385.154.654.385.654.385v.115s-.27.27-.654.385c-.385.192-.924.154-1.462 0a24.476 24.476 0 0 1-2.155-.423v-.077zm0 2.732s1.078-.27 2.156-.423c.538-.116 1.077-.193 1.462 0 .385.154.654.385.654.385v.115s-.27.27-.654.385c-.385.192-.924.154-1.462 0-1.078-.154-2.155-.424-2.155-.424v-.038zm-.153 2.732s1.116-.27 2.232-.385c.538-.115 1.116-.192 1.539 0 .423.154.693.385.693.385v.116s-.27.269-.693.384c-.423.193-.962.154-1.54 0-1.115-.153-2.231-.384-2.231-.384v-.116zm-.539 2.694s1.308-.269 2.578-.385c.654-.115 1.309-.192 1.77 0 .5.154.809.385.809.385v.115s-.308.27-.809.385c-.5.193-1.116.154-1.77 0-1.308-.154-2.578-.385-2.578-.385v-.115zm-1.154 2.732s1.808-.269 3.655-.385c.924-.115 1.809-.192 2.502 0 .692.154 1.154.385 1.154.385v.115s-.462.27-1.154.385c-.693.193-1.578.154-2.502 0a71.006 71.006 0 0 1-3.655-.423v-.077zm28.437-59.954s.193-.27.5-.385c.309-.192.693-.154 1.117 0 .808.154 1.616.385 1.616.385v.115s-.808.27-1.616.385c-.385.116-.808.193-1.116 0a1.712 1.712 0 0 1-.5-.385v-.115zm1.386 2.732s.23-.27.615-.385c.385-.192.847-.154 1.347 0 .962.154 1.963.385 1.963.385v.115s-.962.27-1.963.385c-.5.116-.962.193-1.347 0-.384-.154-.615-.385-.615-.385v-.115zm.731 2.732s.27-.27.654-.385c.385-.192.924-.153 1.462 0a38.79 38.79 0 0 1 2.117.385v.116s-1.04.27-2.117.423c-.538.115-1.039.192-1.462 0a2.58 2.58 0 0 1-.654-.385v-.154zm.308 2.694s.27-.27.692-.385c.424-.192.963-.154 1.501 0 1.078.154 2.155.423 2.155.423v.116s-1.077.27-2.155.385c-.538.115-1.077.192-1.5 0a2.442 2.442 0 0 1-.693-.385v-.154zm-.077 2.733s.27-.27.654-.386c.385-.192.923-.154 1.462 0 1.04.154 2.117.385 2.117.385v.116s-1.04.269-2.117.384c-.538.116-1.039.193-1.462 0a2.595 2.595 0 0 1-.654-.384v-.116zm-.346 2.731s.23-.269.615-.384c.385-.193.885-.154 1.347 0 1 .154 2.001.384 2.001.384v.116s-1 .27-2 .385c-.501.115-1.001.192-1.348 0a1.976 1.976 0 0 1-.615-.385v-.116zm-.616 2.732s.23-.269.538-.384c.308-.193.732-.154 1.155 0 .846.154 1.693.384 1.693.384v.116s-.847.27-1.693.423c-.423.116-.847.193-1.154 0-.308-.154-.54-.384-.54-.384v-.155zm-1.001 2.733s.154-.27.424-.385c.23-.193.577-.154.884 0a9.955 9.955 0 0 1 1.309.423v.116s-.654.269-1.309.384c-.307.116-.654.193-.884 0-.231-.153-.424-.384-.424-.384v-.154zm1.309 13.622s.154-.27.384-.385c.231-.192.54-.154.886 0 .615.154 1.27.385 1.27.385v.116s-.616.269-1.27.385c-.308.115-.616.192-.886 0a1.573 1.573 0 0 1-.384-.385v-.116zm2.347 2.732s.23-.269.539-.384c.308-.193.73-.154 1.154 0 .847.154 1.693.384 1.693.384v.116s-.846.27-1.693.385c-.423.115-.847.192-1.154 0-.308-.154-.54-.385-.54-.385v-.116zm1.347 2.733s.27-.27.654-.385c.385-.193.924-.154 1.424 0a33.88 33.88 0 0 1 2.078.385v.115s-1.04.27-2.078.423c-.539.116-1.04.193-1.424 0a2.58 2.58 0 0 1-.654-.385v-.153zm.923 2.693s.27-.27.732-.385c.423-.192 1-.153 1.577 0 1.155.154 2.27.424 2.27.424v.115s-1.154.27-2.27.385c-.577.115-1.154.192-1.577 0a3.137 3.137 0 0 1-.732-.385v-.154zm.578 2.732s.307-.269.73-.384c.463-.193 1.04-.154 1.617 0a44.09 44.09 0 0 1 2.386.384v.116s-1.193.27-2.386.385c-.577.115-1.193.192-1.616 0a2.353 2.353 0 0 1-.731-.385v-.116zm.23 2.732s.308-.269.732-.384c.461-.193 1.039-.154 1.616 0a39.31 39.31 0 0 1 2.347.385v.115s-1.193.27-2.347.385c-.577.115-1.193.192-1.616 0-.462-.154-.732-.385-.732-.385v-.115zm-.115 2.733s.27-.27.731-.385c.424-.192 1-.154 1.578 0 1.154.154 2.27.385 2.27.385v.115s-1.154.27-2.27.424c-.577.115-1.154.192-1.578 0-.423-.154-.73-.385-.73-.385v-.154zm-.423 2.732s.27-.27.654-.385c.385-.192.885-.154 1.424 0 1.039.154 2.04.424 2.04.424v.115s-1.04.27-2.04.423c-.5.116-1.04.193-1.424 0a2.587 2.587 0 0 1-.654-.385v-.192zm-.924 2.732s.231-.27.539-.385c.308-.192.77-.153 1.193 0 .885.154 1.731.385 1.731.385v.116s-.885.269-1.731.385c-.424.115-.885.192-1.193 0a2.328 2.328 0 0 1-.539-.385v-.116zm-1.385 2.694s.154-.269.423-.385c.231-.192.577-.154.924 0a14.51 14.51 0 0 1 1.308.385v.115s-.654.27-1.308.385c-.347.116-.654.193-.924 0-.23-.154-.423-.385-.423-.385v-.115z" fill="#383F48"/><path d="M89.046 138.072s-1.847-.27-4.502-.808a153.05 153.05 0 0 1-4.58-.885c-1.692-.347-3.501-.462-5.348-.347-3.656.231-7.235.693-9.928 1.078-2.694.423-4.503.692-4.503.692l-.038-.077s1.693-.769 4.387-1.423c2.693-.693 6.387-1.078 10.082-.77 1.847.192 3.656.308 5.387.346 1.732.077 3.348.27 4.656.654 2.694.655 4.349 1.463 4.349 1.463l.038.077z" fill="#384049"/><path d="M94.203 136.071s-2.502-.731-6.234-1.693c-1.886-.424-4.08-.924-6.427-1.463a30.469 30.469 0 0 0-7.542-.5c-5.157.308-10.198 1.193-13.969 2.116-3.733.924-6.234 1.732-6.234 1.732l-.038-.077s.577-.269 1.616-.769c1.039-.462 2.54-1.116 4.425-1.655 1.847-.654 4.118-1.078 6.542-1.462 2.424-.308 5.041-.424 7.658-.347 2.578.193 5.195.347 7.62.5 1.192.154 2.385.193 3.501.462 1.116.193 2.117.462 3.079.731 1.885.501 3.424 1.155 4.463 1.617 1.04.5 1.617.769 1.617.769l-.077.039z" fill="#384049"/><path d="M98.975 134.224s-3.04-1.193-7.581-2.579c-2.31-.692-5.003-1.385-7.928-2.078-2.962-.615-6.156-.885-9.389-.769-6.426.308-12.699 1.539-17.278 2.963a80.979 80.979 0 0 0-5.503 1.847c-1.308.5-2.078.77-2.078.77l-.039-.077s.732-.385 1.963-1.039a39.746 39.746 0 0 1 5.387-2.271c2.27-.885 5.041-1.539 8.043-2.078 3.002-.462 6.273-.693 9.505-.577 3.233.154 6.427.462 9.466.77 1.501.269 2.964.384 4.31.731 1.347.308 2.617.654 3.772 1.077 2.308.731 4.194 1.578 5.425 2.232a78.44 78.44 0 0 1 1.963 1.039l-.038.039zm-28.977-9.12s-6.504.615-12.66 2.616c-3.079 1.001-6.042 2.232-8.313 3.079-2.27.885-3.77 1.501-3.77 1.501l-.04-.077s1.31-.962 3.503-2.117c2.155-1.154 5.233-2.347 8.427-3.155 6.311-1.809 12.853-1.963 12.853-1.963v.116zm32.979 7.119s-1.424-.539-3.58-1.386c-2.116-.808-4.925-1.962-7.81-2.963-5.773-1.962-11.892-2.655-11.892-2.655v-.077s6.157.308 12.084 2.039c2.963.77 5.887 1.886 7.927 3.002 2.039 1.078 3.309 2.001 3.309 2.001l-.038.039zm-47.217-8.158s-3.733 1.308-7.273 3.04c-1.77.885-3.502 1.808-4.849 2.385-1.347.578-2.309.924-2.309.924l-.038-.077s.73-.693 2-1.501c1.232-.846 3.04-1.693 4.926-2.386 3.694-1.5 7.543-2.424 7.543-2.424v.039z" fill="#384049"/><path d="M107.518 130.606s-2.848-1.5-7.235-3.348c-4.387-1.847-10.428-3.848-16.701-4.887-6.272-1.039-12.66-.962-17.394-.384-2.386.23-4.348.615-5.695.885a68.315 68.315 0 0 1-2.155.461l-.038-.077s.77-.192 2.116-.538c1.347-.308 3.31-.77 5.695-1.078 4.734-.731 11.198-.923 17.548-.038 6.388.808 12.545 2.809 16.893 4.964 2.155 1.039 3.925 2.001 5.118 2.77a38.867 38.867 0 0 1 1.848 1.193v.077zm-40.983-12.429s-7.658 1-14.816 3.771c-3.579 1.385-7.004 3.002-9.62 4.233-2.578 1.27-4.31 2.116-4.31 2.116l-.039-.077s1.501-1.231 4.002-2.693c2.463-1.501 6.042-3.117 9.698-4.31 3.656-1.232 7.427-2.117 10.274-2.54 2.848-.462 4.772-.616 4.772-.616l.039.116z" fill="#384049"/><path d="M110.557 128.221s-2.424-1.309-6.118-3.002c-3.694-1.693-8.774-3.733-14.007-5.157-5.272-1.385-10.698-2.039-14.816-2.155-4.079-.153-6.811.077-6.811.077v-.115s2.732-.308 6.85-.308c4.117-.038 9.62.5 14.969 1.77 5.388 1.193 10.544 3.233 14.161 5.234 1.809.962 3.31 1.885 4.272 2.54 1 .692 1.539 1.077 1.539 1.077l-.039.039zm-53.373-12.045s-5.927 1.616-11.43 4.194c-2.732 1.309-5.425 2.732-7.465 3.771a143.326 143.326 0 0 1-3.425 1.694l-.038-.077s1.154-1.039 3.078-2.271c1.924-1.308 4.657-2.693 7.543-3.809 5.695-2.386 11.698-3.579 11.698-3.579l.038.077zm24.012-1.77s-1.27-.039-3.232-.077c-1.924-.077-4.503-.039-7.043.115a81.38 81.38 0 0 0-7.042.539l-3.194.385s1.232-.347 3.156-.693c1.924-.308 4.464-.654 7.042-.808 2.578-.077 5.157 0 7.12.154 1.923.154 3.193.385 3.193.385zm11.814 2.155s-.654-.039-1.578-.154c-.923-.154-2.193-.347-3.463-.539-1.232-.308-2.463-.577-3.386-.808-.924-.231-1.54-.462-1.54-.462s.654.039 1.578.154c.924.154 2.193.346 3.463.539 1.232.308 2.463.577 3.387.808.923.231 1.539.462 1.539.462zm20.818 9.389s-1.077-.346-2.462-1.154c-.732-.347-1.501-.885-2.309-1.501a9.718 9.718 0 0 0-2.809-1.462c-2.04-.732-4.003-1.54-5.465-2.271-1.462-.693-2.386-1.308-2.386-1.308l.039-.077s1.116.115 2.655.615c1.578.462 3.579 1.386 5.387 2.579 1.771 1.308 4.003 1.731 5.272 2.77 1.386.886 2.117 1.732 2.117 1.732l-.039.077zm-58.646-13.045s-6.233 1.77-12.006 4.579c-2.886 1.424-5.695 2.963-7.812 4.118-2.154 1.116-3.578 1.885-3.578 1.885l-.039-.077s1.232-1.077 3.233-2.463c2-1.385 4.887-2.924 7.888-4.156 5.965-2.616 12.314-3.963 12.314-3.963v.077zm61.532 10.582s-1.616-.846-4.04-2.155c-2.424-1.27-5.657-3.001-8.966-4.541-6.658-3.04-13.854-4.694-13.854-4.694l.039-.077s7.311 1.231 14.161 4.079c3.463 1.347 6.773 3.04 9.043 4.579 2.309 1.539 3.733 2.732 3.733 2.732l-.116.077zM43.33 113.059s-3.694 1.77-7.196 3.848c-1.731 1.077-3.463 2.155-4.81 2.847-1.347.732-2.309 1.155-2.309 1.155l-.077-.077s.731-.77 1.963-1.693c1.193-.962 3.001-2.001 4.848-2.886 3.656-1.886 7.543-3.271 7.543-3.271l.038.077zm76.309 7.965s-1.501-.846-3.771-2.078c-2.271-1.231-5.234-2.924-8.312-4.463-6.157-3.04-12.814-4.965-12.814-4.965l.038-.076s6.773 1.5 13.122 4.348c3.194 1.347 6.273 3.001 8.389 4.502 2.155 1.463 3.425 2.655 3.425 2.655l-.077.077zM42.83 109.249s-4.31 1.924-8.389 4.31c-2.001 1.231-4.002 2.463-5.541 3.309a83.684 83.684 0 0 1-2.617 1.386l-.039-.077s.847-.847 2.27-1.924c1.386-1.116 3.464-2.309 5.58-3.348 4.234-2.194 8.697-3.733 8.697-3.733l.039.077zm79.272 8.928s-1.231-.693-3.117-1.693c-1.847-1.039-4.271-2.463-6.696-3.849-4.925-2.732-10.236-4.733-10.236-4.733l.039-.077s5.425 1.616 10.544 4.156c2.578 1.193 5.041 2.617 6.772 3.887 1.732 1.27 2.771 2.27 2.771 2.27l-.077.039zm-70.267-15.739s-7.543 2.078-14.546 5.541c-3.464 1.732-6.85 3.656-9.39 5.08a958.443 958.443 0 0 1-4.233 2.424l-.038-.077s1.462-1.308 3.886-3.001c2.386-1.694 5.85-3.618 9.467-5.157 7.157-3.271 14.854-4.926 14.854-4.926v.116zm72.768 12.93s-1.424-.808-3.579-2.001c-2.116-1.193-4.925-2.848-7.773-4.426-5.772-3.04-11.968-5.195-11.968-5.195l.039-.077s6.349 1.732 12.276 4.58c3.001 1.346 5.887 3.001 7.85 4.463 2.001 1.424 3.194 2.579 3.194 2.579l-.039.077zM52.489 98.513s-8.197 2.039-15.778 5.618c-3.77 1.809-7.426 3.81-10.159 5.349-2.732 1.578-4.54 2.617-4.54 2.617l-.078-.077s1.578-1.386 4.195-3.156c2.617-1.808 6.35-3.809 10.275-5.387 3.886-1.655 7.888-2.963 10.967-3.771 3.04-.808 5.118-1.232 5.118-1.232v.039zm52.604 2.578c0 .038-.423 0-.846-.077-.385-.154-.732-.423-.732-.462 0-.038.424 0 .847.077.385.193.731.424.731.462zm21.742 11.237s-1.27-.693-3.117-1.732a1049.779 1049.779 0 0 1-6.734-3.964c-4.964-2.809-10.275-4.925-10.275-4.925l.039-.077s5.464 1.731 10.582 4.348c2.578 1.232 5.08 2.694 6.773 4.002 1.732 1.27 2.771 2.271 2.771 2.271l-.039.077zM52.489 94.742s-8.774 2.04-16.932 5.81c-4.04 1.886-7.966 4.002-10.89 5.657-2.925 1.655-4.849 2.771-4.849 2.771l-.039-.077s1.694-1.501 4.503-3.348c2.809-1.924 6.811-4.002 11.006-5.695 4.156-1.732 8.466-3.117 11.737-3.925 3.27-.847 5.464-1.27 5.464-1.27v.077zm66.265 8.196s-.924-.269-2.27-.77c-1.347-.5-3.04-1.308-4.734-2.116a121.57 121.57 0 0 0-7.003-2.925l.038-.077s3.694.963 7.273 2.31c1.809.615 3.579 1.385 4.772 2.154 1.231.731 1.962 1.347 1.962 1.347l-.038.077zm9.928 6.042s-.577-.116-1.347-.462c-.769-.308-1.693-.924-2.578-1.616a214.717 214.717 0 0 1-3.579-2.655l.039-.077s2.001 1 3.925 2.078c1 .5 1.963 1.077 2.578 1.616a5.809 5.809 0 0 1 1.001 1.039l-.039.077zM35.788 96.011s-4.733 2.078-9.197 4.657c-2.232 1.308-4.387 2.655-6.08 3.617-1.694.962-2.848 1.539-2.848 1.539l-.038-.077s.923-.923 2.5-2.078c1.54-1.193 3.81-2.501 6.12-3.655 4.617-2.386 9.504-4.08 9.504-4.08l.039.077zm17.47-5.195s-1 .308-1.962.655c-.5.192-1 .307-1.386.307-.384.039-.654-.038-.654-.038v-.038s.231-.193.578-.308c.346-.193.885-.27 1.385-.347a63.476 63.476 0 0 0 2.078-.27l-.039.04zm77.541 14.97s-1.116-.539-2.694-1.424c-1.616-.885-3.656-2.155-5.695-3.425-4.156-2.463-8.582-4.502-8.582-4.502l.039-.077s4.579 1.654 8.928 3.886c2.193 1.078 4.31 2.309 5.772 3.464 1.462 1.116 2.347 1.962 2.347 1.962l-.115.116zM25.513 96.55s-2.347 1.616-4.656 3.194c-1.154.808-2.347 1.578-3.348 2.001-.962.424-1.655.616-1.655.616l-.077-.077s.5-.539 1.347-1.193 2.078-1.385 3.31-2.001l5.002-2.617.077.077zm27.284-9.39s-2.155.616-4.272 1.232c-1.077.308-2.155.616-2.963.693-.808.154-1.385.154-1.385.154V89.2s.5-.27 1.308-.5c.77-.308 1.886-.539 2.963-.731l4.387-.847-.038.039zm55.528 3.272s-.923-.154-1.847-.347c-.461-.077-.923-.192-1.231-.384-.308-.154-.5-.347-.5-.347v-.038s.269-.039.615 0c.385 0 .809.154 1.232.346.885.346 1.731.731 1.731.731v.039zm24.398 12.006s-.924-.385-2.194-1.078c-1.308-.654-2.924-1.731-4.54-2.77-3.271-2.04-6.735-3.848-6.735-3.848l.039-.077s3.617 1.423 7.08 3.27c1.732.886 3.425 1.886 4.58 2.81a24.532 24.532 0 0 1 1.847 1.616l-.077.077zM24.359 92.817s-2.425 1.617-4.887 3.233c-1.193.847-2.463 1.616-3.464 2.04-1 .461-1.731.654-1.731.654l-.039-.077s.539-.54 1.424-1.193c.885-.693 2.155-1.386 3.463-2.04 2.617-1.347 5.234-2.655 5.234-2.655v.038zm28.284-9.351s-2.425.655-4.887 1.347c-1.232.347-2.425.654-3.387.77-.923.154-1.578.192-1.578.192v-.038s.578-.27 1.501-.539c.885-.346 2.117-.577 3.387-.808 2.462-.462 4.964-.924 4.964-.924zm58.684 4.003s-2.116-.5-4.233-1.04c-1.077-.23-2.116-.538-2.847-.846-.77-.27-1.27-.577-1.27-.577v-.039s.538.039 1.346.193c.809.115 1.848.461 2.887.808a456.39 456.39 0 0 0 4.117 1.423v.078zm22.935 11.275s-.885-.347-2.116-1c-1.27-.617-2.809-1.617-4.387-2.618a152.062 152.062 0 0 0-6.465-3.694l.038-.077s3.502 1.347 6.812 3.079c1.693.808 3.309 1.77 4.425 2.655 1.116.847 1.77 1.578 1.77 1.578l-.077.077zM28.861 86.545s-4.002 1.847-7.85 4.04c-1.886 1.117-3.771 2.233-5.272 2.964a31.433 31.433 0 0 1-2.501 1.193l-.077-.077s.808-.77 2.155-1.77c1.347-1.001 3.309-2.078 5.31-3.002 4.002-1.963 8.158-3.425 8.158-3.425l.077.077zm16.894-5.425c0 .037-.693.345-1.424.538-.731.154-1.501.192-1.501.192s.693-.346 1.424-.538c.73-.193 1.5-.231 1.5-.193zm8.619-1.733c0 .039-.615.27-1.27.424-.654.077-1.308.077-1.308.038 0-.038.616-.27 1.27-.423.654-.077 1.308-.039 1.308-.039zm57.415 4.272l-5.618-1.309c-1.424-.307-2.81-.654-3.81-1.038a17.06 17.06 0 0 1-1.693-.655v-.038s.731.077 1.77.308c1.077.154 2.463.577 3.809 1 2.771.847 5.503 1.693 5.503 1.693l.039.039zm24.128 11.506s-.847-.308-2.001-.885c-1.155-.577-2.617-1.463-4.079-2.424-2.963-1.81-6.003-3.464-6.003-3.464l.038-.077s3.233 1.27 6.35 2.848c1.577.77 3.078 1.616 4.117 2.424a15.84 15.84 0 0 1 1.655 1.462l-.077.116zM28.823 82.427s-4.464 1.925-8.697 4.195c-2.117 1.193-4.195 2.386-5.81 3.156a79.354 79.354 0 0 1-2.733 1.308l-.039-.077s.924-.847 2.425-1.886c1.5-1.077 3.656-2.193 5.849-3.194 4.387-2.078 9.005-3.617 9.005-3.617v.115zm25.821-6.772c0 .038-.693.27-1.386.423-.73.077-1.462.077-1.462.038 0-.038.693-.269 1.386-.423.73-.077 1.462-.077 1.462-.038zm48.256 1.693s-.424 0-1.078-.039c-.616-.077-1.462-.192-2.309-.308-.808-.192-1.616-.423-2.232-.577-.615-.192-1-.346-1-.346s.423 0 1.077.038c.616.077 1.463.193 2.31.308.807.193 1.615.424 2.231.577a7.087 7.087 0 0 1 1.001.347zm34.133 13.853s-.885-.308-2.078-.923c-1.232-.578-2.771-1.501-4.31-2.425-3.117-1.808-6.35-3.463-6.35-3.463l.039-.077s3.386 1.27 6.657 2.886c1.655.77 3.233 1.616 4.349 2.463 1.116.808 1.731 1.462 1.731 1.462l-.038.077zM29.17 78.233s-4.773 1.924-9.314 4.233c-2.27 1.193-4.502 2.386-6.234 3.232a41.565 41.565 0 0 1-2.924 1.309l-.039-.077s1.001-.847 2.617-1.924c1.616-1.078 3.925-2.232 6.273-3.233 4.694-2.116 9.62-3.617 9.62-3.617v.077zm25.012-6.196c0 .039-.654.27-1.347.385-.693.077-1.385.039-1.385.039 0-.039.654-.27 1.347-.385.654-.115 1.347-.077 1.385-.039zm42.715.385s-.462.039-1.193 0c-.693-.077-1.655-.154-2.579-.23a54.569 54.569 0 0 0-2.578-.462 12.83 12.83 0 0 1-1.154-.308s.5-.039 1.192 0c.693.077 1.655.154 2.579.23.923.193 1.847.347 2.578.462a12.84 12.84 0 0 1 1.154.308zm41.059 14.662s-.923-.308-2.193-.924c-1.308-.577-2.925-1.5-4.579-2.463a127.361 127.361 0 0 0-6.735-3.463l.039-.077s3.579 1.231 7.042 2.886c1.732.77 3.425 1.655 4.579 2.501 1.193.809 1.886 1.501 1.886 1.501l-.039.039zM29.17 74.154S24.242 76 19.51 78.27c-2.347 1.155-4.695 2.348-6.465 3.156-1.808.808-3.04 1.308-3.04 1.308l-.038-.077s1.039-.846 2.732-1.885c1.693-1.078 4.079-2.232 6.542-3.194 4.887-2.078 9.928-3.54 9.928-3.54v.115zm16.007-4.31c0 .038-.692.308-1.423.5-.732.116-1.501.154-1.501.116 0-.039.692-.308 1.423-.5.77-.116 1.501-.154 1.501-.116zm9.236-1.539c0 .038-.616.23-1.27.385-.654.038-1.308.038-1.308 0 0-.039.615-.231 1.27-.385.615-.077 1.308-.039 1.308 0zm41.867.308c0 .038-1 .115-2 .038-.962-.192-1.924-.5-1.924-.539 0-.038 1-.115 2-.038.963.154 1.925.5 1.925.539zm42.215 14.161s-1.193-.462-2.924-1.232c-1.732-.77-3.964-1.924-6.235-3.078-4.54-2.194-9.274-4.04-9.274-4.04l.039-.078s4.887 1.424 9.543 3.425c2.348.962 4.657 2.04 6.273 3.079 1.616 1 2.617 1.847 2.617 1.847l-.039.077zM29.285 70.113s-5.08 1.809-9.967 4.002c-2.425 1.155-4.849 2.31-6.696 3.079-1.847.808-3.117 1.27-3.117 1.27l-.038-.077s1.077-.847 2.847-1.847c1.732-1.04 4.233-2.155 6.734-3.117 5.042-2.001 10.237-3.387 10.237-3.387v.077zm15.892-4.079c0 .039-.692.308-1.423.5-.732.116-1.501.154-1.501.116 0-.038.692-.308 1.423-.5.77-.116 1.501-.116 1.501-.116zm7.427-1.193s-.27.116-.615.193c-.385.077-.886.192-1.424.308-.54.038-1.04.077-1.424.115h-.654s.269-.115.615-.192c.385-.077.886-.193 1.424-.308a54.794 54.794 0 0 0 1.424-.116c.385-.038.654 0 .654 0zm86.622 13.739l-4.425-1.925c-2.655-1.154-6.157-2.732-9.736-4.194-7.158-2.886-14.7-4.849-14.7-4.849l.039-.077s7.619 1.578 14.93 4.233c3.695 1.27 7.273 2.81 9.813 4.233 2.578 1.385 4.156 2.54 4.156 2.54l-.077.038zM29.285 66.073s-4.926 1.655-9.698 3.694c-2.386 1.039-4.733 2.117-6.542 2.77a82.485 82.485 0 0 1-3.078 1.117l-.039-.077s1.078-.77 2.77-1.732c1.694-.962 4.119-1.963 6.581-2.81 4.887-1.808 9.928-3.04 9.928-3.04l.078.078zm19.163-4.31s-1.539.385-3.04.731c-.77.192-1.54.385-2.116.346-.578.039-1 0-1 0v-.038s.346-.193.923-.346c.577-.231 1.347-.308 2.116-.385 1.578-.193 3.117-.347 3.117-.347v.039zm65.457 2.809s-.385 0-.885-.038c-.539-.077-1.231-.193-1.924-.308-.693-.193-1.385-.424-1.885-.578-.501-.192-.847-.346-.847-.346s.385 0 .885.039c.539.077 1.231.192 1.924.307.693.193 1.347.424 1.886.578.5.192.846.346.846.346zm25.36 9.466s-.924-.23-2.232-.73c-1.309-.462-3.002-1.309-4.695-2.117a155.326 155.326 0 0 0-6.85-3.04l.039-.077s3.617 1.039 7.119 2.424c1.77.654 3.502 1.385 4.695 2.155 1.231.731 1.962 1.347 1.962 1.347l-.038.038zM27.707 62.532s-4.503 1.501-8.89 3.31c-2.193.924-4.348 1.847-6.041 2.424-1.655.578-2.848.924-2.848.924l-.038-.077s1-.693 2.578-1.54c1.578-.846 3.81-1.731 6.08-2.462 4.503-1.578 9.12-2.655 9.12-2.655l.039.076zm111.596 7.043s-1-.27-2.424-.77-3.271-1.308-5.08-2.155a179.549 179.549 0 0 0-7.465-3.04l.038-.077s3.925 1.039 7.697 2.386c1.924.654 3.809 1.385 5.118 2.155 1.347.731 2.155 1.347 2.155 1.347l-.039.154zM24.359 59.53s-3.348 1.386-6.734 2.81c-1.655.731-3.387 1.385-4.695 1.693a18.671 18.671 0 0 1-2.232.462l-.039-.077s.77-.5 2.04-1.077c1.231-.616 2.963-1.193 4.695-1.694 3.463-1.077 6.965-2.155 6.965-2.155v.039zm28.245-5.771l-5.926 1.077c-1.462.27-2.963.539-4.079.577-1.116.116-1.885.116-1.885.116v-.039s.73-.23 1.847-.461c1.116-.27 2.578-.462 4.079-.616l6.003-.693-.039.039zm51.566 1.154c0 .039-1.309.039-2.579-.077-1.27-.23-2.501-.616-2.501-.654 0-.038 1.308-.038 2.578.077 1.27.23 2.54.577 2.502.654zm34.556 9.967s-.962-.192-2.347-.654c-1.386-.424-3.194-1.155-4.964-1.924-3.579-1.463-7.274-2.771-7.274-2.771l.039-.077s3.81.924 7.504 2.155c1.885.577 3.694 1.27 5.002 1.962 1.309.693 2.117 1.27 2.117 1.27l-.077.039zM46.678 50.834s-9.005 1.424-17.74 3.771c-4.387 1.193-8.697 2.54-11.93 3.54a859.337 859.337 0 0 1-5.464 1.655l-.038-.077s2.04-1.039 5.233-2.27c3.194-1.27 7.543-2.578 12.007-3.579 8.85-2.155 17.932-3.117 17.932-3.117v.077zm5.926-.769c0 .038-.692.23-1.385.346-.731.038-1.424 0-1.424-.039 0-.038.693-.23 1.386-.346.692-.039 1.423 0 1.423.038zm62.687 3.155s-1.078-.077-2.733-.308c-1.616-.23-3.771-.539-5.926-.885-2.155-.423-4.271-.808-5.887-1.116-1.617-.346-2.656-.616-2.656-.616s1.078.077 2.733.308c1.616.231 3.771.539 5.926.885 2.155.424 4.271.808 5.887 1.116 1.617.347 2.656.616 2.656.616zm22.742 7.004s-.808-.077-2.001-.347c-1.193-.27-2.655-.808-4.117-1.424a450.984 450.984 0 0 1-5.888-2.424l.039-.077s3.078.885 6.118 1.77c1.539.424 3.04.924 4.118 1.424 1.077.5 1.77.962 1.77.962l-.039.116zM41.214 47.91s-7.273 1.346-14.354 3.27c-3.54 1-7.08 2.002-9.736 2.771-2.693.693-4.464 1.154-4.464 1.154v-.076s1.655-.809 4.272-1.81c2.578-1 6.157-2 9.774-2.77 7.196-1.693 14.508-2.616 14.508-2.616v.077zm11.39-1.54s-.654.154-1.616.308c-.962.154-2.27.346-3.54.539-1.309.154-2.617.27-3.58.385-.961.077-1.615.115-1.615.115s.654-.154 1.616-.308c.962-.154 2.27-.346 3.54-.538 1.309-.154 2.617-.27 3.579-.385.962-.116 1.616-.116 1.616-.116zm84.467 9.197s-2.463-.692-6.195-1.77c-3.733-1.039-8.659-2.424-13.661-3.655-10.005-2.386-20.28-3.618-20.28-3.618v-.077s10.313.808 20.434 2.963c5.079 1 10.082 2.348 13.738 3.656 3.655 1.308 6.003 2.386 6.003 2.386l-.039.115zM51.027 42.868s-9.313 1.116-18.472 3.117c-9.12 2.155-18.24 4.349-18.24 4.349l-.038-.077s2.155-.924 5.541-2.001c3.348-1.116 7.927-2.194 12.583-3.002 9.236-1.77 18.626-2.462 18.626-2.462v.076zm84.197 7.812s-2.386-.577-5.964-1.462c-3.579-.885-8.351-2.078-13.123-3.156-9.62-2.116-19.433-3.232-19.433-3.232v-.077s9.851.693 19.549 2.578c4.848.847 9.697 2.001 13.199 3.194 3.54 1.155 5.811 2.117 5.811 2.117l-.039.038zM44.138 39.982s-7.042 1.078-14.007 2.656c-3.463.808-6.927 1.654-9.543 2.193-2.617.539-4.387.847-4.387.847l-.039-.077s1.655-.693 4.233-1.501c2.54-.808 6.042-1.616 9.582-2.194C37.02 40.598 44.1 39.944 44.1 39.944l.038.038zm88.585 5.773s-2.463-.54-6.157-1.309c-3.694-.77-8.62-1.885-13.546-2.847-9.928-1.886-19.972-2.81-19.972-2.81v-.077s10.121.5 20.088 2.155c5.002.732 9.966 1.77 13.622 2.848 3.656 1.039 6.003 1.963 6.003 1.963l-.038.077zm-90.778-9.236s-5.734.962-11.39 2.155c-2.81.654-5.657 1.27-7.812 1.616-2.155.346-3.618.5-3.618.5l-.038-.076s1.347-.578 3.463-1.155c2.078-.616 4.964-1.193 7.812-1.616 5.772-1 11.583-1.501 11.583-1.501v.077zm22.819-1.924l-1.539.192c-.923.077-2.193.193-3.425.27-1.27.038-2.501.077-3.425.115h-1.577s.615-.115 1.539-.192c.923-.077 2.193-.193 3.425-.27a335.22 335.22 0 0 0 3.425-.115c.962-.039 1.577 0 1.577 0zm5.003-.154c0 .038-.616.154-1.231.23-.616-.038-1.27-.153-1.27-.192 0-.038.615-.154 1.231-.23.654.038 1.27.154 1.27.192zm16.239.231s-.846.038-2.155.077h-4.695c-1.693-.077-3.424-.116-4.694-.193-1.27-.076-2.117-.153-2.117-.153s.847-.039 2.155-.077h4.695c1.693.077 3.425.115 4.695.192 1.27.077 2.116.154 2.116.154zm43.908 6.272l-20.549-3.694c-10.313-1.654-20.742-2.386-20.742-2.386v-.077s10.467.308 20.857 1.732c5.195.654 10.352 1.578 14.161 2.54 3.81.962 6.311 1.808 6.311 1.808l-.038.077zm-67.228-9.889s-10.236.577-20.356 2a7391.98 7391.98 0 0 1-20.203 3.04v-.076s2.463-.77 6.195-1.578c3.733-.847 8.813-1.616 13.93-2.117 10.198-1.154 20.434-1.308 20.434-1.308v.039zm65.111 5.387s-3.925-.654-9.813-1.655c-5.926-.846-13.776-1.962-21.703-2.732-15.855-1.54-31.824-1.077-31.824-1.077V30.9s3.963-.231 9.966-.27c5.965-.077 13.97.077 21.935.693 7.965.539 15.893 1.54 21.742 2.81 5.888 1.115 9.736 2.231 9.736 2.231l-.039.077zm-59.261-9.159s-10.775.385-21.435 1.578c-10.697 1.27-21.357 2.617-21.357 2.617V31.4s2.617-.693 6.58-1.462c3.964-.77 9.313-1.424 14.7-1.848 10.737-.962 21.512-.885 21.512-.885v.077zm15.662.039s-.885.038-2.194.077c-1.308 0-3.04.038-4.772.038-1.731-.038-3.463-.115-4.771-.154-1.309-.077-2.155-.115-2.155-.115s.885-.038 2.193-.077c1.309 0 3.04-.039 4.772-.039 1.732.039 3.463.116 4.772.154 1.308.077 2.155.116 2.155.116zm40.213 4.464s-2.425-.193-6.003-.731c-1.809-.231-3.887-.616-6.08-1.078a45.728 45.728 0 0 0-7.043-.885c-4.848-.23-9.658-.616-13.276-.962-3.617-.346-6.003-.693-6.003-.693v-.077s2.424-.154 6.08-.077c3.618.077 8.466.5 13.276 1.309 4.772.923 9.659.885 13.2 1.693 3.578.654 5.887 1.424 5.887 1.424l-.038.077zm-68.19-7.658s-6.464.846-12.89 1.693c-3.233.462-6.466.808-8.89.924-2.463.115-4.118.077-4.118.077v-.077s1.578-.385 4.002-.77c2.425-.385 5.657-.693 8.89-.924 6.503-.5 12.968-1.038 12.968-1.038l.038.115zm13.546-.538s-.731.076-1.847.153-2.578.154-4.04.231c-1.463 0-2.964.038-4.08.038-1.116-.038-1.847-.038-1.847-.038s.731-.077 1.847-.154 2.579-.154 4.04-.23c1.463 0 2.964-.04 4.08-.04s1.847.04 1.847.04zm49.872 3.463s-11.583-1.155-23.127-2.31c-11.583-1.038-23.243-1.154-23.243-1.154v-.077s11.66-.308 23.281.462c5.811.308 11.622.885 15.931 1.616 4.31.693 7.158 1.386 7.158 1.386v.077zM68.766 20.01s-8.273.308-16.508 1.04c-4.118.384-8.235.808-11.314.961-3.078.193-5.156.27-5.156.27v-.077s2.04-.462 5.118-.924c3.078-.462 7.196-.808 11.352-1 8.273-.462 16.547-.347 16.547-.347l-.039.077zm44.177 2.31s-2.232-.116-5.618-.309c-3.348-.192-7.812-.654-12.276-1.039-8.927-.73-17.932-1-17.932-1v-.077s9.005-.154 17.97.308c4.503.192 8.967.539 12.315 1.039 3.348.462 5.541.962 5.541.962v.115zm-5.772-4.388s-4.079-.192-10.198-.461a544.9 544.9 0 0 1-10.428-.654c-3.81-.308-7.889-.27-11.968-.231l-32.632 1.308v-.077s4.04-.654 10.16-1.154c6.118-.578 14.314-.847 22.472-.578 4.08.116 8.158.27 12.007.231 3.848 0 7.426.116 10.466.385 6.119.462 10.16 1.154 10.16 1.154l-.039.077zm-8.697-4.425s-2.886.077-7.157-.038c-2.155-.039-4.657-.193-7.35-.385a61.178 61.178 0 0 0-8.428-.116c-5.734.27-11.467.385-15.739.424-4.31.038-7.157-.039-7.157-.039v-.077s2.847-.423 7.157-.731c4.31-.308 10.044-.423 15.778-.115 2.886.153 5.733.192 8.427.115s5.195-.038 7.35.115c4.31.27 7.158.732 7.158.732l-.039.115z" fill="#384049"/></svg>