<svg width="423" height="232" viewBox="0 0 423 232" fill="none" xmlns="http://www.w3.org/2000/svg"><path d="M125.67 23.52H115.1v15.93h10.57V23.52z" fill="#AEAFB3"/><path d="M123.16 15.25V2.64h-5.55v12.61c-3.26 1.15-5.61 4.26-5.61 7.9v27.24h16.77V23.15c0-3.64-2.36-6.75-5.61-7.9zM410 15.01h-20l2 34.87h16l2-34.87z" stroke="#50504F" stroke-width="2" stroke-miterlimit="10"/><path d="M393.31 22.46L394.72 47h10.56l1.41-24.54h-13.38z" fill="#AEAFB3"/><path d="M201 15.01v11.2c0 7.17 5.86 13.03 13.03 13.03 7.17 0 13.03-5.86 13.03-13.03v-11.2H201z" stroke="#50504F" stroke-width="2" stroke-miterlimit="10"/><path d="M214.03 36.35c-5.6 0-10.15-4.55-10.15-10.15v-3.32h20.3v3.32c0 5.6-4.55 10.15-10.15 10.15z" fill="#AEAFB3"/><path d="M214.03 39.23v10.65m-9.25 0h18.5" stroke="#50504F" stroke-width="2" stroke-miterlimit="10"/><path d="M311.97 18.78l-1.78-16.21h-5.57l-1.78 16.21c-3.26 1.16-3.84 4.27-3.84 7.92v23.75h16.81V26.7c0-3.64-.57-6.76-3.84-7.92z" stroke="#50504F" stroke-width="1.869" stroke-miterlimit="10"/><path d="M307.53 32.82a4.4 4.4 0 1 0 0-8.8 4.4 4.4 0 0 0 0 8.8z" fill="#AEAFB3"/><path d="M13.99 49.62c7.174 0 12.99-5.816 12.99-12.99s-5.816-12.99-12.99-12.99S1 29.456 1 36.63s5.816 12.99 12.99 12.99z" stroke="#50504F" stroke-width="2" stroke-miterlimit="10"/><path d="M39.97 49.62c7.174 0 12.99-5.816 12.99-12.99s-5.816-12.99-12.99-12.99-12.99 5.816-12.99 12.99 5.816 12.99 12.99 12.99zM26.98 26.98c7.174 0 12.99-5.816 12.99-12.99S34.154 1 26.98 1 13.99 6.816 13.99 13.99s5.816 12.99 12.99 12.99z" stroke="#50504F" stroke-width="2" stroke-miterlimit="10"/><path d="M19.37 20.63h15.21c.58-.66 1.07-1.4 1.46-2.19H17.91c.39.79.88 1.52 1.46 2.19zm-2.06-3.7h19.34c.21-.7.35-1.44.4-2.19H16.91c.05.76.18 1.49.4 2.19zm19.34-5.88H17.31c-.21.7-.35 1.44-.4 2.19h20.14c-.06-.76-.19-1.49-.4-2.19zM26.98 24.1c2.24 0 4.3-.74 5.97-1.97H21c1.68 1.23 3.74 1.97 5.98 1.97zm7.6-16.75H19.37c-.58.66-1.07 1.4-1.46 2.19h18.13c-.39-.79-.88-1.53-1.46-2.19zm-7.6-3.47c-2.24 0-4.3.74-5.97 1.97h11.94a10.077 10.077 0 0 0-5.97-1.97zM6.38 43.26h15.21c.58-.66 1.07-1.4 1.46-2.19H4.92c.39.79.88 1.53 1.46 2.19zm-2.06-3.69h19.34c.21-.7.35-1.44.4-2.19H3.92c.05.75.19 1.49.4 2.19zm19.34-5.89H4.32c-.21.7-.35 1.44-.4 2.19h20.14c-.06-.75-.19-1.49-.4-2.19zm-9.67 13.05c2.24 0 4.3-.74 5.97-1.97H8.02a9.965 9.965 0 0 0 5.97 1.97zm7.6-16.74H6.38c-.58.66-1.07 1.4-1.46 2.19h18.13c-.39-.79-.88-1.53-1.46-2.19zm-7.6-3.47c-2.24 0-4.3.74-5.97 1.97h11.94a9.988 9.988 0 0 0-5.97-1.97zm18.37 16.74h15.21c.58-.66 1.07-1.4 1.46-2.19H30.9c.39.79.88 1.53 1.46 2.19zm-2.06-3.69h19.34c.21-.7.35-1.44.4-2.19H29.9c.05.75.18 1.49.4 2.19zm19.33-5.89H30.3c-.21.7-.35 1.44-.4 2.19h20.14c-.06-.75-.19-1.49-.41-2.19zm-9.66 13.05c2.24 0 4.3-.74 5.97-1.97H33.99c1.68 1.24 3.74 1.97 5.98 1.97zm7.6-16.74H32.36c-.58.66-1.07 1.4-1.46 2.19h18.13c-.39-.79-.88-1.53-1.46-2.19zm-7.6-3.47c-2.24 0-4.3.74-5.97 1.97h11.94a10.01 10.01 0 0 0-5.97-1.97z" fill="#AEAFB3"/><path d="M227.16 100.81C226.74 93.69 220.81 88 213.6 88c-7.21 0-13.14 5.7-13.56 12.81-.03.17-.04.35-.04.53v7.37c0 1.27.68 2.45 1.79 3.08l10.03 5.77c1.1.64 2.47.64 3.57 0l10.03-5.77c1.1-.64 1.79-1.81 1.79-3.08v-7.37c-.01-.18-.02-.36-.05-.53z" stroke="#50504F" stroke-width="2" stroke-miterlimit="10"/><path d="M213.65 135.01c-1.36 0-2.47-1.11-2.47-2.47v-17.79c0-1.36 1.11-2.47 2.47-2.47s2.47 1.11 2.47 2.47v17.79c0 1.36-1.11 2.47-2.47 2.47z" fill="#AEAFB3" stroke="#50504F" stroke-width="2" stroke-miterlimit="10"/><path d="M120.62 131.24c13.045 0 23.62-10.575 23.62-23.62 0-13.045-10.575-23.62-23.62-23.62C107.575 84 97 94.575 97 107.62c0 13.045 10.575 23.62 23.62 23.62z" stroke="#50504F" stroke-width="2" stroke-miterlimit="10"/><path d="M120.62 126.85c10.62 0 19.23-8.61 19.23-19.23 0-10.62-8.61-19.23-19.23-19.23-10.62 0-19.23 8.61-19.23 19.23 0 10.62 8.61 19.23 19.23 19.23z" stroke="#50504F" stroke-width="2" stroke-miterlimit="10"/><path d="M131.93 95.85c-2.94-2.83-6.93-4.58-11.32-4.58v15.9l11.32-11.32zm-17.81 5.9a2.53 2.53 0 1 0 0-5.06 2.53 2.53 0 0 0 0 5.06zm20.34 5.87a2.53 2.53 0 1 0 0-5.06 2.53 2.53 0 0 0 0 5.06zm-13.85 15.79a2.53 2.53 0 1 0 0-5.06 2.53 2.53 0 0 0 0 5.06zm10.21-5.05a2.53 2.53 0 1 0 0-5.06 2.53 2.53 0 0 0 0 5.06zm-23.04-8.66a2.53 2.53 0 1 0 0-5.06 2.53 2.53 0 0 0 0 5.06zm4.5 8.66a2.53 2.53 0 1 0 0-5.06 2.53 2.53 0 0 0 0 5.06zm13.49-6.07a2.53 2.53 0 1 0 0-5.06 2.53 2.53 0 0 0 0 5.06zm-9.13 0a2.53 2.53 0 1 0 0-5.06 2.53 2.53 0 0 0 0 5.06z" fill="#AEAFB3"/><path d="M330.98 137.34v-8.92c0-12.92-10.57-23.49-23.49-23.49-12.92 0-23.49 10.57-23.49 23.49v8.92h46.98z" stroke="#50504F" stroke-width="2" stroke-miterlimit="10"/><path d="M325.04 137.34v-8.48c0-9.65-7.9-17.55-17.55-17.55s-17.55 7.9-17.55 17.55v8.48h35.1z" fill="#fff" stroke="#50504F" stroke-width="2" stroke-miterlimit="10"/><path d="M292.82 134.46v-5.6c0-8.09 6.58-14.67 14.67-14.67s14.67 6.58 14.67 14.67v5.6h-29.34z" fill="#AEAFB3"/><path d="M318.08 107.15V90H296.9v17.15m10.59 4.15v-6.38m12.1 10.91l4.42-4.42m-28.62 4.42l-4.42-4.42m-1.03 14.45l-5.7-.86m40.8.86l5.69-.86" stroke="#50504F" stroke-width="2" stroke-miterlimit="10"/><path d="M312.12 124.81c-.16 1.75-1.11 2.85-2.43 3.39.61-.57 1-1.43 1-2.68 0-2.44-3.2-5.32-3.2-5.32s-3.2 2.88-3.2 5.32c0 1.25.4 2.11 1 2.68-1.33-.54-2.27-1.63-2.43-3.39-1.12 1.48-2.01 3.13-2.01 4.69 0 3.64 2.17 5.54 5.09 6.01-.65-.38-1.08-1.04-1.08-2.06 0-1.69 2.63-3.68 2.63-3.68s2.63 2 2.63 3.68c0 1.01-.43 1.68-1.08 2.06 2.92-.48 5.09-2.37 5.09-6.01-.01-1.55-.89-3.21-2.01-4.69z" fill="#fff"/><path d="M309.75 92.99h-9.81v3.12h9.81v-3.12zm4.9 5.58h-9.81v3.12h9.81v-3.12z" fill="#AEAFB3"/><path d="M410.81 117.08a2.19 2.19 0 0 1-.85-.72l-6.68-9.86-.59-.41a8.62 8.62 0 0 1-3.79.88c-4.78 0-8.66-3.88-8.66-8.66 0-.28.02-.57.04-.84l-.67-.47-8.76 11.82c-.69.93-.5 2.24.43 2.93l19.6 14.66c.36.27.8.42 1.26.42h19.14v-3.5c0-.81-.47-1.55-1.21-1.9l-9.26-4.35z" stroke="#50504F" stroke-width="2" stroke-miterlimit="10" stroke-linecap="round" stroke-linejoin="round"/><path d="M381.21 108.35l-2.66 3.6a2.83 2.83 0 0 0 .58 3.94l18.75 14.03c.54.41 1.2.62 1.88.62h19.41c1.17 0 2.12-.95 2.12-2.12v-1.59" stroke="#50504F" stroke-width="2" stroke-miterlimit="10" stroke-linecap="round" stroke-linejoin="round"/><path d="M402.61 110.64l-12.13 4.38 3.81 2.86 10.63-3.84-2.31-3.4zm5.87 8.66l-2.3-3.4-9.8 3.54 3.81 2.85 8.29-2.99z" fill="#AEAFB3"/><path d="M28.56 133.07h-3.01l-.92-7.61h4.85l-.92 7.61z" fill="#AEAFB3" stroke="#50504F" stroke-width="2" stroke-miterlimit="10"/><path d="M27.06 122.11a3.7 3.7 0 1 0 0-7.4 3.7 3.7 0 0 0 0 7.4zm-2.55 2.44v-3.35m5.09 3.35v-3.35m1.15-9.76h-7.4v3.26h7.4v-3.26z" stroke="#50504F" stroke-width="2" stroke-miterlimit="10"/><path d="M29.48 108.18h-4.85v3.26h4.85v-3.26zM33.39 84H20.72v24.16h12.67V84z" stroke="#50504F" stroke-width="2" stroke-miterlimit="10"/><path d="M30.512 93.792v-6.91h-6.91v6.91h6.91z" fill="#AEAFB3"/><path d="M10.84 133.07h-3l-.93-7.61h4.86l-.93 7.61z" fill="#AEAFB3" stroke="#50504F" stroke-width="2" stroke-miterlimit="10"/><path d="M9.34 122.11a3.7 3.7 0 1 0 0-7.4 3.7 3.7 0 0 0 0 7.4zm-2.55 2.44v-3.35m5.09 3.35v-3.35m1.16-9.76h-7.4v3.26h7.4v-3.26z" stroke="#50504F" stroke-width="2" stroke-miterlimit="10"/><path d="M11.76 108.18H6.91v3.26h4.85v-3.26zM14.68 86H4l2 22.16h6.68l2-22.16z" stroke="#50504F" stroke-width="2" stroke-miterlimit="10"/><path d="M8.64 105.28l-1.48-16.4h4.37l-1.48 16.4H8.64z" fill="#AEAFB3"/><path d="M46.14 133.07h-3.01l-.92-7.61h4.85l-.92 7.61z" fill="#AEAFB3" stroke="#50504F" stroke-width="2" stroke-miterlimit="10"/><path d="M44.64 122.11a3.7 3.7 0 1 0 0-7.4 3.7 3.7 0 0 0 0 7.4z" stroke="#50504F" stroke-width="2" stroke-miterlimit="10"/><path d="M44.64 92.59c-1.3 0-2.35-1.06-2.35-2.35a2.36 2.36 0 0 1 2.35-2.35 2.36 2.36 0 0 1 2.35 2.35 2.36 2.36 0 0 1-2.35 2.35z" fill="#AEAFB3"/><path d="M42.09 124.55v-3.35m5.09 3.35v-3.35m1.15-9.76h-7.4v3.26h7.4v-3.26z" stroke="#50504F" stroke-width="2" stroke-miterlimit="10"/><path d="M47.06 108.18h-4.85v3.26h4.85v-3.26zm2.81-17.95c0-2.89-2.34-5.23-5.23-5.23-2.89 0-5.23 2.34-5.23 5.23 0 2.01 1.15 3.73 2.81 4.61v13.32h4.85V94.84c1.65-.87 2.8-2.6 2.8-4.61zm343.35 122.76a9.54 9.54 0 0 0-2.68 6.63v5.83h19.21v-5.83c0-2.57-1.03-4.91-2.68-6.63h-13.85z" stroke="#50504F" stroke-width="2" stroke-miterlimit="10"/><path d="M393.42 222.57v-2.95c0-1.35.41-2.65 1.16-3.75h11.13a6.617 6.617 0 0 1 1.16 3.75v2.95h-13.45z" fill="#AEAFB3"/><path d="M407.44 206.63h-14.58v5.91h14.58v-5.91z" fill="#50504F"/><path d="M409.75 191.1h-19.21v16.21h19.21V191.1zm0-3.87h-19.21v3.87h19.21v-3.87zm0-6.77h-19.21l-2 3.87h23.21l-2-3.87z" stroke="#50504F" stroke-width="2" stroke-miterlimit="10"/><path d="M406.7 184.33h-13.12v2.9h13.12v-2.9zm-4.58-7.33h-3.95v2.9h3.95V177z" fill="#50504F"/><path d="M400.14 212.26a1.97 1.97 0 1 0 0-3.94 1.97 1.97 0 0 0 0 3.94zm1.56-18.23h-3.12v10.39h3.12v-10.39zm-5 0h-3.12v10.39h3.12v-10.39zm10 0h-3.12v10.39h3.12v-10.39z" fill="#AEAFB3"/><path d="M386.63 191.1h27.03m-23.12 3.23H385v7.08c0 2.48.67 3.28.67 5.21 0 1.93-.67 3.43-.67 6.01 0 2.58 2.66 6.98 5.54 6.98m19.21-25.28h5.54v7.08c0 2.48-.67 3.28-.67 5.21 0 1.93.67 3.43.67 6.01 0 2.58-2.66 6.98-5.54 6.98M41.93 229.96H11.06S3 226.33 3 221.9v-21.68c0-6.6 5.4-12 12-12h22.99c6.6 0 12 5.4 12 12v21.68c0 4.43-8.06 8.06-8.06 8.06zM3 221.9h46.99" stroke="#50504F" stroke-width="2" stroke-miterlimit="10"/><path d="M11.71 227.08a20.82 20.82 0 0 1-3.62-2.3h36.82a19.98 19.98 0 0 1-3.63 2.3H11.71z" fill="#AEAFB3"/><path d="M3 215.39a4.27 4.27 0 0 1 4.26-4.26h38.46a4.27 4.27 0 0 1 4.26 4.26m-23.49-4.26v10.77m-12-10.77v10.77m24-10.77v10.77m-3.47-33.68s-5.32-6.42-6.12-7.82c-.8-1.4-2.41-3.21-2.41-6.82v-6.52m-6.74-.06h13.5m-8.36 21.22c2.76 0 4.99-2.23 4.99-4.99v-1.37" stroke="#50504F" stroke-width="2" stroke-miterlimit="10"/><path d="M213.73 218.51c8.549 0 15.48-6.931 15.48-15.48s-6.931-15.48-15.48-15.48-15.48 6.931-15.48 15.48 6.931 15.48 15.48 15.48z" fill="#fff" stroke="#50504F" stroke-width="2" stroke-miterlimit="10"/><path d="M213.73 215.62c-6.94 0-12.59-5.65-12.59-12.6 0-6.95 5.65-12.6 12.59-12.6 6.95 0 12.6 5.65 12.6 12.6 0 6.95-5.66 12.6-12.6 12.6z" fill="#AEAFB3"/><path d="M213.73 203.5c-1.36 0-2.47-1.11-2.47-2.47v-17.79c0-1.36 1.11-2.47 2.47-2.47s2.47 1.11 2.47 2.47v17.79c0 1.36-1.11 2.47-2.47 2.47z" fill="#fff" stroke="#50504F" stroke-width="2" stroke-miterlimit="10"/><path d="M213.73 192.56c5.401 0 9.78-4.379 9.78-9.78s-4.379-9.78-9.78-9.78-9.78 4.379-9.78 9.78 4.379 9.78 9.78 9.78z" fill="#fff" stroke="#50504F" stroke-width="2" stroke-miterlimit="10"/><path d="M242.46 203.03l-8.46 4.88v-9.77l8.46 4.89zm-57.46 0l8.46-4.89v9.77l-8.46-4.88zm28.73 28.78l-4.88-8.46h9.76l-4.88 8.46z" fill="#AEAFB3"/><path d="M332.95 178H281v48.61h51.95V178z" stroke="#50504F" stroke-width="2" stroke-miterlimit="10"/><path d="M323.12 191.37l-4.67 4.72-13.08-11.55-10.92 9.83-7-3.83-3.57 2.49v13.45l6.57-1.61 4.5-4.83 12.03-9.34 10.47 14.67 6.84-8.08 3.66 6.08 2.13 1.7v-7.92l-6.96-5.78z" fill="#AEAFB3"/><path d="M306.31 195.29l-3.52 3.19-11.67 12.75 9.67-6.97 9.16 3.14-5.24-6.83 1.6-5.28zm-4.94 21.58l12.75-4.83 6.67 6.83-6.5-3.42-12.92 1.42zm22.75-14.56l3.17 4.88 2.5 4.04h-8l4.5-1.19-4.5-2.85h3.33l-1-4.88z" fill="#AEAFB3"/><path d="M104.15 191.5h32.08l9.39 2.75v29.25l-9.39 2.75h-32.08l-9.39-2.75v-29.25l9.39-2.75z" stroke="#50504F" stroke-width="2" stroke-miterlimit="10"/><path d="M147.38 211.61H93v7.53h54.38v-7.53z" fill="#fff" stroke="#50504F" stroke-width="2" stroke-miterlimit="10"/><path d="M136.23 226.25h-32.08v3.96h32.08v-3.96zm0-38.7h-32.08v3.96h32.08v-3.96z" fill="#AEAFB3" stroke="#50504F" stroke-width="2" stroke-miterlimit="10"/><path d="M144.494 216.254v-1.77h-48.62v1.77h48.62z" fill="#AEAFB3"/><path d="M104.15 191.5v20.11m32.08-20.11v20.11m-41.47-9.67h50.86m-25.43-14.39v-12.44m-16.04 4l32.08-7" stroke="#50504F" stroke-width="2" stroke-miterlimit="10"/><path d="M115.44 173.57a2.75 2.75 0 1 0 0-5.5 2.75 2.75 0 0 0 0 5.5zm9.5-2.07a2.75 2.75 0 1 0 0-5.5 2.75 2.75 0 0 0 0 5.5z" fill="#AEAFB3" stroke="#50504F" stroke-width="2" stroke-miterlimit="10"/></svg>