<svg width="852" height="183" fill="none" xmlns="http://www.w3.org/2000/svg"><path clip-rule="evenodd" d="M74.07 63.798a7.28 7.28 0 0 0-10.29 0 7.28 7.28 0 0 0 0 10.29l44.841 44.842a7.279 7.279 0 0 0 10.29 0 7.279 7.279 0 0 0 0-10.29L74.07 63.798z" stroke="#FD760A" stroke-width="4"/><path d="M61.656 104.689a7.259 7.259 0 0 0 2.123 5.435l8.807 8.806a7.279 7.279 0 0 0 10.29 0 7.28 7.28 0 0 0 0-10.29l-21.22-21.22m59.359-9.06a7.26 7.26 0 0 0-2.104-5.756l-8.806-8.806a7.28 7.28 0 0 0-10.29 0 7.28 7.28 0 0 0 0 10.29l21.226 21.226-.026-16.954z" stroke="#FD760A" stroke-width="4" stroke-linecap="round"/><path d="M61.65 69.444v35.54m59.391-26.739v35.54-35.54z" stroke="#FD760A" stroke-width="4"/><path d="M118.911 61.668l2.622 2.622m-59.884 54.64l2.623 2.622m27.073-79.197c27.049 0 49.01 21.96 49.01 49.01 0 27.048-21.961 49.008-49.01 49.008-27.048 0-49.01-21.96-49.01-49.009 0-27.05 21.962-49.01 49.01-49.01z" stroke="#fff" stroke-width="4" stroke-linecap="round"/><path clip-rule="evenodd" d="M91.345 14.015c42.697 0 77.361 34.664 77.361 77.36 0 42.697-34.664 77.361-77.36 77.361-42.697 0-77.361-34.664-77.361-77.36 0-42.697 34.664-77.361 77.36-77.361z" stroke="#fff" stroke-width="4" stroke-linecap="round"/><path d="M141.075 91.364h27.638" stroke="#fff" stroke-width="4"/><path fill-rule="evenodd" clip-rule="evenodd" d="M3.474 89.801A2.036 2.036 0 0 0 .596 92.68a2.036 2.036 0 0 0 2.878-2.878zm175.75 0a2.036 2.036 0 0 1 2.878 2.878 2.036 2.036 0 0 1-2.878-2.878z" fill="#fff"/><path d="M2.95 78.167C9.355 35.017 46.637 1.907 91.54 2c44.75.093 81.794 33.13 88.207 76.09M2.951 104.584c6.403 43.15 43.685 76.26 88.589 76.167 44.75-.093 81.794-33.13 88.207-76.091" stroke="#fff" stroke-width="4" stroke-linecap="round"/><path d="M13.985 91.364h27.638" stroke="#fff" stroke-width="4"/><path clip-rule="evenodd" d="M319.445 151.94c0 13.831-11.268 25.059-25.148 25.06v-25.06h25.148zm.769-16.163a77.799 77.799 0 0 1-25.917 16.163v-17.756C267.77 127.957 248 104.197 248 75.874V6l46.297 46.135v-45.1c29.378 11.042 50.297 39.332 50.297 72.452 0 6.959-.923 13.705-2.655 20.123l31.865 31.753c.207.179.402.372.581.58l.047.047v.008a5.506 5.506 0 0 1 1.303 3.563v6.465l-6.272-6.249h-49.249z" stroke="#fff" stroke-width="4"/><path fill-rule="evenodd" clip-rule="evenodd" d="M355.133 123.434a3.434 3.434 0 1 1-.003 6.869 3.434 3.434 0 0 1 .003-6.869z" fill="#FFDC21"/><path fill-rule="evenodd" clip-rule="evenodd" d="M511.305 19.46a53.683 53.683 0 0 1 6.36-1.207 69.28 69.28 0 0 1 6.773-.535 85.48 85.48 0 0 1 2.332-.04l.515-.001c.854.004 1.707.018 2.56.044 2.627.082 5.25.275 7.863.556 2.495.27 4.981.62 7.455 1.042 2.325.397 4.639.857 6.938 1.381.832.19 1.663.388 2.49.597.794.2 1.586.409 2.373.633l.107.03 2.809.824.155 2.378c-.982.433-1.966.864-2.947 1.3a163.733 163.733 0 0 0-7.56 3.639c-.907.466-1.809.942-2.704 1.429l.225.15a69.474 69.474 0 0 1 13.977 12.251 69.275 69.275 0 0 1 8.131 11.51 68.737 68.737 0 0 1 5.143 11.472 68.677 68.677 0 0 1 3.168 13.757 69.647 69.647 0 0 1 .527 8.342l.005 2.533c-.918-.002-1.836-.002-2.754-.006l-.668-.007a69.036 69.036 0 0 1-13.852-1.623c1.513 3.577 2.53 7.355 3.14 11.188.369 2.324.589 4.672.682 7.023a69.651 69.651 0 0 1-.148 7.887 73.559 73.559 0 0 1-1.23 8.994c-.167.822-.351 1.64-.558 2.452l-.033.125-.025.094-.62 2.273c-.779-.203-1.559-.404-2.336-.612-.12-.032-.24-.066-.359-.099a59.788 59.788 0 0 1-4.55-1.522 74.11 74.11 0 0 1-5.791-2.468 70.688 70.688 0 0 1-5.25-2.777c.191 1.057.337 2.122.443 3.191.227 2.293.268 4.604.154 6.905a50.9 50.9 0 0 1-.459 4.741 40.26 40.26 0 0 1-.619 3.36l-.021.087-.029.118-.569 2.253-2.265-.546a21.19 21.19 0 0 1-.34-.087 42.043 42.043 0 0 1-3.358-1.061 50.49 50.49 0 0 1-3.61-1.457c-.179.359-.361.717-.544 1.074a101.332 101.332 0 0 1-5.422 9.226 127.411 127.411 0 0 1-6.331 8.762 139.675 139.675 0 0 1-5.551 6.618c-.735.822-1.48 1.635-2.236 2.438a90.249 90.249 0 0 1-2.09 2.152l-.106.105L509 172c-.601-.586-1.203-1.17-1.801-1.759a90.29 90.29 0 0 1-2.091-2.152c-.756-.803-1.5-1.616-2.235-2.438a139.101 139.101 0 0 1-5.39-6.414 127.363 127.363 0 0 1-6.492-8.966 101.101 101.101 0 0 1-5.422-9.226 90.069 90.069 0 0 1-.544-1.074 50.672 50.672 0 0 1-4.088 1.626c-.541.188-1.085.367-1.633.534-.526.16-1.054.312-1.588.445l-2.264.545c-.2-.79-.404-1.578-.598-2.37a23.063 23.063 0 0 1-.071-.306 43.445 43.445 0 0 1-.659-3.793 50.868 50.868 0 0 1-.389-4.53 45.926 45.926 0 0 1 .215-6.858c.101-.936.235-1.87.402-2.796a73.54 73.54 0 0 1-11.876 5.552c-.749.271-1.502.529-2.26.772-.625.2-1.253.391-1.887.561l-2.263.592c-.215-.789-.435-1.576-.646-2.367l-.072-.28a59.582 59.582 0 0 1-.984-4.843 74.33 74.33 0 0 1-.765-6.448 72.588 72.588 0 0 1-.186-3.984c-.067-3.577.139-7.164.686-10.7.493-3.19 1.265-6.338 2.371-9.371a43.71 43.71 0 0 1 .804-2.043 68.45 68.45 0 0 1-6.401 1.104 69.464 69.464 0 0 1-8.341.527l-2.532.005c.002-.919.001-1.837.005-2.756.002-.222.004-.445.008-.667a69.335 69.335 0 0 1 .631-8.314 68.644 68.644 0 0 1 3.264-13.494 68.862 68.862 0 0 1 7.199-14.61 69.471 69.471 0 0 1 20.069-20.174 138.162 138.162 0 0 0-4.465-2.32 160.572 160.572 0 0 0-6.06-2.863l-2.686-1.184.154-2.379c.973-.285 1.944-.573 2.917-.854a80.449 80.449 0 0 1 2.373-.633 111.05 111.05 0 0 1 2.49-.597c2.167-.494 4.348-.931 6.538-1.312 2.606-.453 5.225-.827 7.855-1.11 2.445-.264 4.898-.45 7.355-.54a95.368 95.368 0 0 1 3.583-.06 85.55 85.55 0 0 1 2.332.04c2.526.08 5.05.282 7.551.642 1.878.27 3.744.63 5.582 1.1V11h4.61v8.46zm8.316 111.251l-.051.061a157.487 157.487 0 0 1-5.106 5.847c-.671.731-1.35 1.455-2.037 2.17a91.329 91.329 0 0 1-1.719 1.747L509 142.203l-1.708-1.667a76.746 76.746 0 0 1-.495-.493 128.606 128.606 0 0 1-4.646-4.953 160.164 160.164 0 0 1-3.772-4.379c-1.638 1.772-3.477 3.354-5.439 4.758a43.153 43.153 0 0 1-3.8 2.423 90.766 90.766 0 0 0 4.113 7.356 113.656 113.656 0 0 0 4.986 7.373c1.68 2.293 3.438 4.53 5.263 6.71a127.79 127.79 0 0 0 5.484 6.147l.014.014a126.518 126.518 0 0 0 4.237-4.677 134.087 134.087 0 0 0 5.719-7.107 116 116 0 0 0 5.633-8.207 91.191 91.191 0 0 0 4.271-7.609 43.153 43.153 0 0 1-3.8-2.423c-1.946-1.392-3.77-2.959-5.398-4.714l-.041-.044zm-40.563-8.292c-.45 2.15-.68 4.346-.739 6.541a43.847 43.847 0 0 0 .051 3.571 46.1 46.1 0 0 0 .51 4.791l.016.1a46.263 46.263 0 0 0 4.192-1.635c-1.179-2.757-2.191-5.588-2.968-8.485a50.552 50.552 0 0 1-1.062-4.883zm59.884-.001a50.03 50.03 0 0 1-.979 4.569c-.787 3.007-1.83 5.943-3.051 8.8a46.629 46.629 0 0 0 4.073 1.595l.119.04c.221-1.365.38-2.74.478-4.119.097-1.371.134-2.747.104-4.122-.049-2.268-.279-4.54-.744-6.763zm-.111-37.653a68.587 68.587 0 0 1-21.313 6.253 69.661 69.661 0 0 1-15.843.137 68.547 68.547 0 0 1-22.506-6.39c.488 2.776 1.212 5.512 2.101 8.186a74.408 74.408 0 0 0 2.432 6.305 92.434 92.434 0 0 0 3.464 7.056 115.626 115.626 0 0 0 4.668 7.817 139.616 139.616 0 0 0 5.651 8.037 156.334 156.334 0 0 0 5.492 6.852 148.15 148.15 0 0 0 5.734 6.383l.186.195.103.106.484-.506a149.128 149.128 0 0 0 5.869-6.569 156.052 156.052 0 0 0 5.348-6.709 138.361 138.361 0 0 0 5.651-8.076 114.09 114.09 0 0 0 4.651-7.843 92.043 92.043 0 0 0 3.222-6.58 74.234 74.234 0 0 0 2.561-6.636c.863-2.62 1.567-5.3 2.045-8.018zm-52.793 28.814l-.019.018a50.605 50.605 0 0 1-2.918 2.696 36.5 36.5 0 0 0 .135 2.474c.235 2.629.747 5.23 1.454 7.771a57.613 57.613 0 0 0 1.875 5.578c.206.526.42 1.049.639 1.57a37.335 37.335 0 0 0 3.875-2.572 30.258 30.258 0 0 0 3.879-3.495c.166-.178.329-.359.489-.542a151.05 151.05 0 0 1-5.14-6.959 132.08 132.08 0 0 1-4.269-6.539zm45.924-.001a137.36 137.36 0 0 1-6.027 9.015 153.247 153.247 0 0 1-3.382 4.483c.365.416.742.82 1.131 1.213 2.103 2.119 4.532 3.901 7.111 5.397.24-.567.472-1.138.695-1.712a57.281 57.281 0 0 0 1.78-5.292c.727-2.587 1.254-5.236 1.493-7.915.074-.823.119-1.648.136-2.474a50.629 50.629 0 0 1-2.937-2.715zm11.708-29.913c-.646 4.65-1.919 9.202-3.578 13.59a88.011 88.011 0 0 1-3.651 8.277 104.96 104.96 0 0 1-2.067 3.912 44.743 44.743 0 0 0 1.94 1.932 50.627 50.627 0 0 0 5.664 4.56 61.43 61.43 0 0 0 6.46 3.919 68.965 68.965 0 0 0 10.183 4.361l.004.001a65.35 65.35 0 0 0 .699-4.077c.192-1.376.343-2.756.453-4.14.107-1.352.175-2.708.2-4.063.074-3.943-.205-7.901-.957-11.775-.639-3.294-1.626-6.527-3.034-9.575a36.608 36.608 0 0 0-1.142-2.258 68.683 68.683 0 0 1-11.174-4.664zm-69.341 0a68.677 68.677 0 0 1-11.174 4.664 36.762 36.762 0 0 0-1.545 3.164c-1.252 2.91-2.133 5.972-2.709 9.084-.681 3.681-.941 7.434-.882 11.174a69.347 69.347 0 0 0 .618 8.109c.198 1.46.442 2.914.738 4.357a68.71 68.71 0 0 0 11.593-5.126 59.335 59.335 0 0 0 6.212-3.984 49.13 49.13 0 0 0 5.18-4.375 42.75 42.75 0 0 0 1.267-1.288 100.582 100.582 0 0 1-3.216-6.28 82.974 82.974 0 0 1-3.087-7.507c-1.373-3.89-2.427-7.904-2.995-11.992zm43.642-23.33a64.046 64.046 0 0 0-4.338 11.067 64.104 64.104 0 0 0-2.413 14.376c.018.37.033.742.046 1.113a64.342 64.342 0 0 0 10.744-1.278 63.924 63.924 0 0 0 15.735-5.45 69.376 69.376 0 0 1-19.774-19.828zm48.649.153a69.398 69.398 0 0 1-19.674 19.675 63.88 63.88 0 0 0 17.352 5.76 64.63 64.63 0 0 0 9.046.965l-.022-.554a64.464 64.464 0 0 0-.741-7.3 63.89 63.89 0 0 0-5.961-18.546zm-115.24 0a63.95 63.95 0 0 0-5.929 18.346 64.722 64.722 0 0 0-.795 8.054 67.816 67.816 0 0 0 3.014-.178 63.953 63.953 0 0 0 23.384-6.547 69.397 69.397 0 0 1-19.674-19.675zm48.548 0a69.386 69.386 0 0 1-19.673 19.675 63.992 63.992 0 0 0 26.303 6.721c.012-.369.027-.737.046-1.106a64.114 64.114 0 0 0-2.718-15.4 64.065 64.065 0 0 0-3.958-9.89zm41.121-25.592l-.021-.034a64.51 64.51 0 0 0-5.853 4.2 62.4 62.4 0 0 1 2.833 5.845 71.226 71.226 0 0 1 2.525 7.003 80.52 80.52 0 0 1 2.086 8.568 88.604 88.604 0 0 1 1.297 10.228 92.521 92.521 0 0 1 .218 5.788 64.926 64.926 0 0 0 19.211-19.43c.248-.39.492-.783.732-1.178a64.811 64.811 0 0 0-21.765-21.753l-1.263.763zm-65.395-.743a64.866 64.866 0 0 0-21.732 21.733l.076.124a64.879 64.879 0 0 0 3.166 4.71 64.823 64.823 0 0 0 16.702 15.773l.001-.087a91.823 91.823 0 0 1 .217-5.7c.236-3.43.664-6.848 1.297-10.228a80.235 80.235 0 0 1 2.179-8.872c.73-2.367 1.576-4.7 2.55-6.977a62.408 62.408 0 0 1 2.66-5.469 64.913 64.913 0 0 0-7.116-5.007zm10.68 8.113a57.141 57.141 0 0 0-1.985 4.177 66 66 0 0 0-2.383 6.521 75.562 75.562 0 0 0-2.054 8.363 84.061 84.061 0 0 0-1.229 9.696 88.263 88.263 0 0 0-.185 4.05c-.006.242-.01.484-.014.726l.131-.09a64.823 64.823 0 0 0 18.754-19.794l.017-.029a64.781 64.781 0 0 0-11.052-13.62zm45.274-.11a64.813 64.813 0 0 0-11.082 13.586A64.896 64.896 0 0 0 530.86 68.74a64.901 64.901 0 0 0 8.656 7.06 87.899 87.899 0 0 0-.223-5.11 83.944 83.944 0 0 0-1.264-9.674 75.362 75.362 0 0 0-2.083-8.336 65.774 65.774 0 0 0-2.406-6.495 57.23 57.23 0 0 0-1.932-4.03zm-16.411 13.571A68.658 68.658 0 0 1 509 40.274l-.143.53a68.227 68.227 0 0 1-2.113 6.437 68.626 68.626 0 0 1-4.029 8.645 68.559 68.559 0 0 1 6.197 15.283 68.584 68.584 0 0 1 6.285-15.443zM506.649 25a18.225 18.225 0 0 0-2.98.655 19.47 19.47 0 0 0-1.431.504c-2.957 1.168-5.604 3.024-7.901 5.206-.352.334-.696.676-1.033 1.026-.452.47-.89.952-1.316 1.446-.544.63-1.066 1.28-1.568 1.944a43.354 43.354 0 0 0-1.697 2.416 69.536 69.536 0 0 1 11.205 13.089 63.793 63.793 0 0 0 5.962-18.546 64.251 64.251 0 0 0 .758-7.713l.001-.027zm4.702 0l.001.027a64.31 64.31 0 0 0 .79 7.912 63.963 63.963 0 0 0 5.854 18.194 69.514 69.514 0 0 1 11.215-13.037 43.76 43.76 0 0 0-1.704-2.411 38.42 38.42 0 0 0-1.572-1.936 34.846 34.846 0 0 0-2.272-2.384c-2.297-2.182-4.944-4.038-7.901-5.206a19.47 19.47 0 0 0-1.431-.503 18.615 18.615 0 0 0-2.98-.656zm-19.13 2.055a63.785 63.785 0 0 0-11.966 4.556 69.283 69.283 0 0 1 4.931 3.576 47.975 47.975 0 0 1 2.547-3.449c.415-.51.842-1.01 1.281-1.501a37.35 37.35 0 0 1 3.207-3.182zm33.558 0a37.333 37.333 0 0 1 3.294 3.28 43.893 43.893 0 0 1 2.748 3.428c.318.439.628.883.931 1.333a69.621 69.621 0 0 1 4.892-3.536 63.997 63.997 0 0 0-11.865-4.504zm16.502 1.734a134.313 134.313 0 0 1 7.243-3.85l.122-.06a120.338 120.338 0 0 0-4.492-.882 119.994 119.994 0 0 0-6.159-.93 105.995 105.995 0 0 0-6.182-.587 88.379 88.379 0 0 0-7.015-.183c1.93.483 3.84 1.052 5.722 1.701a68.704 68.704 0 0 1 10.761 4.791zm-50.079-6.492a79.212 79.212 0 0 0-.987-.01c-3.483-.01-6.966.201-10.429.574-3.155.34-6.295.815-9.413 1.406-.898.17-1.793.351-2.687.54l-.309.066-.024.005a130.61 130.61 0 0 1 7.365 3.91 68.793 68.793 0 0 1 10.562-4.72 68.29 68.29 0 0 1 5.922-1.771z" fill="#fff"/><path d="M507.581 119.622h4.61V98.468h-7.396v4.61h2.786v16.544z" fill="#00CD21"/><path d="M741.328 153.059s-13.701 1.402-16.775 1.772c-3.073.363-6.841 2.817-6.841 7.2s4.137 7.2 7.847 8.139c3.71.94 9.208 1.453 11.276 1.766 2.068.313 3.309-.563 3.946-1.766.311-.582 3.239-7.732 3.239-7.732m8.418-138.81c-2.131-1.404-9.445-1.404-11.575 0m11.11 129.431s13.701 1.402 16.774 1.772c3.074.363 6.841 2.817 6.841 7.2s-4.136 7.2-7.846 8.139c-3.71.94-9.208 1.453-11.276 1.766-2.069.313-3.309-.563-3.946-1.766-.312-.582-3.239-7.732-3.239-7.732" stroke="#fff" stroke-width="4" stroke-miterlimit="10"/><path d="M746.65 12.32c1.464.549 5.445 7.162 5.445 10.278l-.013.595.464.392c1.444 1.294 4.183 6.469 4.183 16.767 0 4.535 0 10.18 5.177 10.18h74.95c6.882 0 12.144.628 12.144 8.495 0 15.715-13.51 19.172-14.092 19.316-.588.143-58.721 14.283-62.924 15.362l-.549.137c-4.653 1.17-15.562 3.914-17.085 15.604-.693 5.325-1.503 17.466-2.216 28.176-.562 8.409-1.085 16.355-1.366 17.812-.484 2.496-2.993 7.306-4.111 9.331-1.111-2.019-3.628-6.835-4.111-9.331-.281-1.45-.811-9.396-1.366-17.812-.713-10.71-1.517-22.851-2.216-28.176-1.523-11.69-12.432-14.434-17.086-15.604l-.549-.137c-4.209-1.079-62.342-15.219-62.93-15.362-.15-.04-14.092-3.542-14.092-19.316 0-7.867 5.262-8.495 12.144-8.495h74.95c5.177 0 5.177-5.645 5.177-10.18 0-10.298 2.732-15.473 4.17-16.754l.464-.392v-.608c-.006-3.11 3.974-9.73 5.438-10.278zm0-1.32c-2.176 0-6.752 8.116-6.752 11.598 0 0-4.627 3.921-4.627 17.754 0 4.574 0 8.874-3.87 8.874h-74.95c-5.719 0-13.451.052-13.451 9.801 0 16.99 15.085 20.583 15.085 20.583s58.662 14.265 62.911 15.356c4.248 1.091 15.196 3.378 16.667 14.65 1.262 9.684 2.941 42.688 3.595 46.067.654 3.378 4.523 10.239 4.791 10.67.216.346.471.386.562.386h.079c.091 0 .346-.033.562-.386.274-.438 4.137-7.299 4.791-10.67.653-3.372 2.333-36.383 3.595-46.067 1.47-11.272 12.418-13.559 16.667-14.65 4.248-1.091 62.91-15.356 62.91-15.356s15.086-3.594 15.086-20.583c0-9.75-7.733-9.801-13.452-9.801h-74.95c-3.869 0-3.869-4.3-3.869-8.874 0-13.833-4.628-17.754-4.628-17.754.007-3.482-4.569-11.598-6.752-11.598z" fill="#fff" stroke="#fff" stroke-width="3"/><path d="M747.176 165.686v-59.98m-9.47 0h17.889m-13.68 61.033h-15.609v-5.262h-8.594m33.674 5.262h15.609v-5.262h8.593" stroke="#fff" stroke-width="2" stroke-miterlimit="10"/><path d="M741.915 17.314h-24.203m58.929 0h-24.203" stroke="#fff" stroke-width="4" stroke-miterlimit="10"/><path d="M691.405 83.608l31.472 4.209h13.777m-45.249-1.052v-5.379l-35.778-5.144v2.088m146.268 5.278l-31.465 4.209h-13.783m45.248-1.052v-5.379l35.778-5.144v2.088" stroke="#fff" stroke-width="2" stroke-miterlimit="10"/><path d="M704.033 49.935v-8.419m10.523 8.419v-8.419m65.241 8.419v-8.419m9.471 8.419v-8.419" stroke="#fff" stroke-width="4" stroke-miterlimit="10"/><path d="M771.379 87.817V49.935m-48.405 37.882V49.935" stroke="#fff" stroke-width="2" stroke-miterlimit="10"/><path d="M791.373 59.405l1.89 5.817h6.116l-4.948 3.595 1.89 5.817-4.948-3.595-4.949 3.595 1.89-5.817-4.948-3.595h6.117l1.89-5.817z" fill="#C4C4C4"/></svg>