<svg xmlns="http://www.w3.org/2000/svg" width="200" height="120" viewBox="0 0 200 120" xmlns:xlink="http://www.w3.org/1999/xlink"><defs><path id="a" d="M0 3h17v65H0z"/><mask id="n" width="17" height="65" x="0" y="0" fill="#fff"><use xlink:href="#a"/></mask><path id="b" d="M1 16h15v39H1z"/><mask id="o" width="15" height="39" x="0" y="0" fill="#fff"><use xlink:href="#b"/></mask><path id="c" d="M19 0h14v68H19z"/><mask id="p" width="14" height="68" x="0" y="0" fill="#fff"><use xlink:href="#c"/></mask><path id="d" d="M35 10h19v58H35z"/><mask id="q" width="19" height="58" x="0" y="0" fill="#fff"><use xlink:href="#d"/></mask><path id="e" d="M36 20h17v10H36z"/><mask id="r" width="17" height="10" x="0" y="0" fill="#fff"><use xlink:href="#e"/></mask><path id="f" d="M36 46h17v10H36z"/><mask id="s" width="17" height="10" x="0" y="0" fill="#fff"><use xlink:href="#f"/></mask><path id="g" d="M9 12h86v25H9z"/><mask id="t" width="86" height="25" x="0" y="0" fill="#fff"><use xlink:href="#g"/></mask><path id="h" d="M5 0h94v66H5z"/><mask id="u" width="94" height="66" x="0" y="0" fill="#fff"><use xlink:href="#h"/></mask><path id="i" d="M9 4h86v52H9z"/><mask id="v" width="86" height="52" x="0" y="0" fill="#fff"><use xlink:href="#i"/></mask><path id="j" d="M0 58h105v8H0z"/><mask id="w" width="105" height="8" x="0" y="0" fill="#fff"><use xlink:href="#j"/></mask><rect id="k" width="20" height="35" rx="3"/><mask id="x" width="20" height="35" x="0" y="0" fill="#fff"><use xlink:href="#k"/></mask><path id="l" d="M3 3h14v29H3z"/><mask id="y" width="14" height="29" x="0" y="0" fill="#fff"><use xlink:href="#l"/></mask><path id="m" d="M3 7h14v12H3z"/><mask id="z" width="14" height="12" x="0" y="0" fill="#fff"><use xlink:href="#m"/></mask></defs><g fill="none" fill-rule="evenodd"><path fill="#00CBED" d="M0 92h200v2H0z"/><g transform="translate(17 26)"><use stroke="#00CBED" stroke-width="4" mask="url(#n)" xlink:href="#a"/><use fill="#DFF8FC" stroke="#00CBED" stroke-width="2" mask="url(#o)" xlink:href="#b"/><use stroke="#00CBED" stroke-width="4" mask="url(#p)" xlink:href="#c"/><use stroke="#00CBED" stroke-width="4" mask="url(#q)" xlink:href="#d"/><use fill="#DFF8FC" stroke="#00CBED" stroke-width="2" mask="url(#r)" xlink:href="#e"/><use fill="#DFF8FC" stroke="#00CBED" stroke-width="2" mask="url(#s)" xlink:href="#f"/><path fill="#00CBED" d="M21 8h10v1H21zm0 6h10v1H21z"/></g><g transform="translate(74 28)"><use fill="#DFF8FC" stroke="#00CBED" stroke-width="2" mask="url(#t)" xlink:href="#g"/><use stroke="#00CBED" stroke-width="4" mask="url(#u)" xlink:href="#h"/><use stroke="#00CBED" stroke-width="2" mask="url(#v)" xlink:href="#i"/><use fill="#FFF" stroke="#00CBED" stroke-width="4" mask="url(#w)" xlink:href="#j"/><path d="M27 41h22v2H27zm0 5h22v1H27zm0 2h22v1H27zm0 2h18v1H27zm28-9h22v2H55zm0 5h22v1H55zm0 2h22v1H55zm0 2h18v1H55z" fill="#00CBED"/></g><g stroke="#00CBED" transform="translate(163 59)"><use fill="#FFF" stroke-width="4" mask="url(#x)" xlink:href="#k"/><use stroke-width="2" mask="url(#y)" xlink:href="#l"/><use fill="#DFF8FC" stroke-width="2" mask="url(#z)" xlink:href="#m"/></g></g></svg>