<svg width="240" height="144" viewBox="0 0 240 144" fill="none" xmlns="http://www.w3.org/2000/svg"><path d="M117.957 116.702c-22.933 0-41.588-18.655-41.588-41.588s18.655-41.588 41.588-41.588c10.731 0 20.918 4.087 28.695 11.496l.529.515-8.173 8.173-.515-.485c-5.615-5.278-12.907-8.174-20.551-8.174-16.568 0-30.063 13.48-30.063 30.063 0 16.582 13.481 30.062 30.063 30.062 14.259 0 26.49-9.996 29.386-23.888h-21.095V70.204h33.017l.074.647a40.98 40.98 0 0 1 .22 4.263c0 22.933-18.655 41.588-41.587 41.588z" fill="#E42F28"/><path d="M117.957 34.247c10.937 0 20.86 4.307 28.195 11.304l-7.159 7.16c-5.513-5.175-12.892-8.38-21.036-8.38-16.965 0-30.783 13.804-30.783 30.783 0 16.964 13.804 30.783 30.783 30.783 15.112 0 27.681-10.952 30.268-25.33h-21.272v-9.643h31.65c.147 1.382.221 2.779.221 4.19 0 22.565-18.302 40.867-40.867 40.867-22.566 0-40.868-18.302-40.868-40.867 0-22.565 18.302-40.867 40.868-40.867zm0-1.44c-23.33 0-42.308 18.977-42.308 42.307 0 23.33 18.978 42.308 42.308 42.308 23.329 0 42.308-18.978 42.308-42.308 0-1.455-.074-2.91-.221-4.337l-.132-1.293h-34.399v12.524h20.933a29.283 29.283 0 0 1-28.489 22.448c-16.171 0-29.342-13.157-29.342-29.342 0-16.17 13.156-29.342 29.342-29.342 7.453 0 14.568 2.837 20.051 7.982l1.014.956.985-.985 7.159-7.16 1.044-1.043-1.073-1.014a42.093 42.093 0 0 0-29.18-11.702z" fill="#EDD6BD"/><path d="M158.603 70.924h-31.65v9.644h21.257c-2.572 14.377-15.141 25.329-30.253 25.329-16.965 0-30.783-13.804-30.783-30.783 0-16.964 13.804-30.783 30.783-30.783 8.144 0 15.523 3.19 21.036 8.38l7.159-7.16c-7.335-6.997-17.258-11.304-28.195-11.304-22.566 0-40.868 18.302-40.868 40.867 0 22.565 18.302 40.867 40.868 40.867 22.565 0 40.867-18.302 40.867-40.867 0-1.411-.073-2.808-.221-4.19z" stroke="#B5121B" stroke-width=".49" stroke-miterlimit="10"/><path d="M.72 96.283v-40.78h10.1v31.46h19.61v9.32H.72z" fill="#E42F28"/><path d="M10.1 56.224v31.474h19.61v7.864H1.44V56.224h8.66zm1.44-1.44H0v42.219h31.15V86.257H11.54V54.784z" fill="#EDD6BD"/><path d="M1.44 56.224h8.66v31.474h19.61v7.864H1.44V56.224z" stroke="#B5121B" stroke-width=".49" stroke-miterlimit="10"/><path d="M66.152 96.283l-3.602-8.82H46.88l-3.602 8.82H32.885l17.479-41.059h8.938L76.78 96.283H66.152zm-7.277-17.861L54.73 68.278l-4.16 10.144h8.305z" fill="#E42F28"/><path d="M58.817 55.93l16.861 39.618h-9.055l-3.602-8.82H46.395l-3.602 8.82h-8.82L50.834 55.93h7.983zm-9.32 23.212h10.452l-5.22-12.76-5.233 12.76zm10.275-24.653H49.88l-.368.882L32.65 94.99l-.853 2h11.966l.368-.897 3.234-7.924h14.7l3.234 7.924.368.896h12.201l-.852-1.999-16.862-39.618-.382-.882zm-8.13 23.212l3.088-7.512 3.072 7.512h-6.16z" fill="#EDD6BD"/><path d="M50.834 55.93h7.983l16.861 39.618h-9.055l-3.602-8.82H46.395l-3.602 8.82h-8.82L50.834 55.93zm9.114 23.212l-5.218-12.76-5.233 12.76h10.452z" stroke="#B5121B" stroke-width=".49" stroke-miterlimit="10"/><path d="M164.895 96.283v-40.78h31.062v9.13h-21.08v6.541h18.552v9.144h-18.552v6.821h21.36v9.144h-31.342z" fill="#E42F28"/><path d="M195.237 56.224v7.703h-21.081v7.982h18.553v7.703h-18.553v8.262h21.36v7.703h-29.9V56.224h29.621zm1.441-1.44h-32.503v42.219h32.782V86.42h-21.36v-5.38h18.552V70.453h-18.552v-5.101h21.081v-10.57z" fill="#EDD6BD"/><path d="M165.615 56.224h29.622v7.703h-21.081v7.982h18.552v7.703h-18.552v8.262h21.36v7.703h-29.901V56.224z" stroke="#B5121B" stroke-width=".49" stroke-miterlimit="10"/><path d="M226.77 96.283l-8.424-12.584h-5.689v12.584h-10.099v-40.78h18.699c5.16 0 9.188 1.412 11.981 4.205 2.381 2.381 3.587 5.571 3.587 9.496 0 3.44-.838 6.219-2.485 8.336-1.455 1.867-3.322 3.322-5.571 4.307l9.879 14.436H226.77zm-6.072-21.625c1.941 0 3.44-.455 4.44-1.337.985-.882 1.47-2.044 1.47-3.528 0-1.78-.5-2.985-1.529-3.779-1.058-.837-2.587-1.264-4.557-1.264h-7.88v9.908h8.056z" fill="#E42F28"/><path d="M221.257 56.224c4.983 0 8.805 1.323 11.466 3.984 2.249 2.249 3.367 5.248 3.367 8.996v.118c0 3.19-.779 5.777-2.338 7.777-1.558 1.999-3.587 3.484-6.1 4.41l9.614 14.053h-10.114l-8.424-12.598h-6.806v12.584h-8.658V56.224h17.993zm-9.32 19.155h8.761c2.132 0 3.778-.515 4.91-1.53 1.147-1.014 1.72-2.366 1.72-4.071v-.118c0-1.882-.603-3.293-1.793-4.233-1.191-.941-2.867-1.412-4.998-1.412h-8.6V75.38zm9.32-20.596h-19.419v42.22h11.539V84.42h4.587l7.997 11.952.426.647H240l-1.544-2.25-8.629-12.612a14.775 14.775 0 0 0 5.057-4.146c1.75-2.25 2.632-5.175 2.632-8.659v-.117c0-4.131-1.279-7.497-3.793-10.011-2.911-2.97-7.1-4.44-12.466-4.44zm-7.88 10.688h7.16c1.793 0 3.175.367 4.116 1.102.838.662 1.249 1.676 1.249 3.102v.118c0 1.278-.397 2.249-1.235 2.984-.867.764-2.205 1.161-3.954 1.161h-7.321v-8.467h-.015z" fill="#EDD6BD"/><path d="M203.278 56.224h17.979c4.983 0 8.805 1.323 11.466 3.984 2.249 2.249 3.367 5.248 3.367 8.996v.118c0 3.19-.779 5.777-2.338 7.777-1.558 1.999-3.587 3.484-6.1 4.41l9.614 14.053h-10.114l-8.424-12.598h-6.806v12.584h-8.659V56.224h.015zm17.42 19.155c2.132 0 3.778-.515 4.91-1.53 1.147-1.014 1.72-2.366 1.72-4.071v-.118c0-1.882-.603-3.293-1.793-4.233-1.191-.941-2.867-1.412-4.998-1.412h-8.6v11.349h8.761v.015z" stroke="#B5121B" stroke-width=".49" stroke-miterlimit="10"/><path d="M57.376 4.993l4.38-.53c.589 5.087 1.177 10.159 1.78 15.23 3.204-.367 6.409-.72 9.628-1.029.118 1.28.25 2.543.368 3.822-4.587.441-9.173.956-13.76 1.53-.794-6.351-1.602-12.687-2.396-19.023zm18.331-1.955A466.83 466.83 0 0 1 90.746 1.95l.22 3.748c-3.542.206-7.085.441-10.613.72l.309 3.867c3.087-.25 6.174-.456 9.275-.647l.221 3.749c-3.072.19-6.13.397-9.203.632.103 1.338.206 2.675.324 4.013a419.24 419.24 0 0 1 10.496-.706c.074 1.25.147 2.5.206 3.75a476.07 476.07 0 0 0-14.583 1.058c-.573-6.38-1.132-12.746-1.69-19.096zm30.004 17.787c-1.499.044-2.881-.162-4.131-.602a9.62 9.62 0 0 1-3.278-1.926 9.439 9.439 0 0 1-2.234-3.029c-.559-1.176-.868-2.484-.941-3.895v-.059a9.52 9.52 0 0 1 .588-3.881 9.464 9.464 0 0 1 2.029-3.249c.882-.94 1.97-1.69 3.234-2.264 1.264-.573 2.66-.867 4.16-.911.897-.03 1.705.015 2.455.118.735.102 1.426.264 2.058.47a9.25 9.25 0 0 1 1.779.794c.558.323 1.088.69 1.602 1.102a295.432 295.432 0 0 0-2.705 3.25 8.942 8.942 0 0 0-1.146-.795 6.374 6.374 0 0 0-1.191-.573c-.412-.162-.853-.265-1.323-.353a8.86 8.86 0 0 0-1.573-.103c-.794.03-1.529.206-2.205.559a5.879 5.879 0 0 0-1.764 1.352c-.5.515-.882 1.162-1.147 1.897a6.154 6.154 0 0 0-.353 2.322v.06c.03.867.206 1.675.529 2.395a5.631 5.631 0 0 0 3.205 3.087c.735.28 1.514.412 2.367.383a7.934 7.934 0 0 0 2.176-.338 5.783 5.783 0 0 0 1.808-.897c-.015-.912-.03-1.823-.059-2.735-1.441.03-2.881.06-4.322.103 0-1.22-.044-2.425-.073-3.645 2.851-.074 5.703-.133 8.54-.162l.089 8.32c-.985.853-2.161 1.573-3.514 2.19-1.352.633-2.91.971-4.66 1.015zm19.816-19.772c1.353.015 2.705.044 4.058.074a669.825 669.825 0 0 1 7.82 19.551c-1.47-.059-2.954-.117-4.424-.162a514.358 514.358 0 0 0-1.647-4.35 508.657 508.657 0 0 0-8.203-.148c-.602 1.426-1.205 2.852-1.793 4.293a210.324 210.324 0 0 0-4.307 0 599.083 599.083 0 0 1 8.496-19.258zm4.366 11.393c-.823-2.088-1.646-4.175-2.484-6.263-.911 2.059-1.823 4.117-2.705 6.175 1.72.014 3.455.044 5.189.088zm18.905 9.158c-1.411-.088-2.705-.426-3.881-1a9.872 9.872 0 0 1-3.028-2.248 9.557 9.557 0 0 1-1.926-3.235 10.116 10.116 0 0 1-.588-3.895v-.06a9.754 9.754 0 0 1 .926-3.806 9.693 9.693 0 0 1 2.264-3.043 10.032 10.032 0 0 1 3.381-1.97c1.294-.441 2.735-.618 4.278-.53.956.06 1.808.192 2.558.383.75.205 1.426.455 2.029.75a8.666 8.666 0 0 1 1.661 1.058c.5.397.97.838 1.382 1.323-1.015.955-2.014 1.91-3.014 2.866a10.124 10.124 0 0 0-2.249-1.749c-.779-.44-1.661-.69-2.661-.75a5.573 5.573 0 0 0-2.337.324 5.5 5.5 0 0 0-1.897 1.176 5.859 5.859 0 0 0-1.293 1.837c-.324.706-.5 1.47-.544 2.294v.058a6.48 6.48 0 0 0 .294 2.338c.235.75.588 1.396 1.044 1.97a5.27 5.27 0 0 0 1.705 1.396 5.681 5.681 0 0 0 2.249.618c1.103.073 2.058-.074 2.852-.427.794-.352 1.588-.838 2.396-1.455.838.97 1.676 1.94 2.499 2.91a14.46 14.46 0 0 1-1.646 1.294 8.917 8.917 0 0 1-1.823.941 9.709 9.709 0 0 1-2.117.53c-.735.132-1.588.161-2.514.102zm17.817-6.454a492.852 492.852 0 0 0-6.512-12.26c1.705.148 3.425.295 5.13.456a457.921 457.921 0 0 1 3.955 8.13 520.106 520.106 0 0 1 5.63-7.115c1.661.19 3.322.382 4.969.588a458.136 458.136 0 0 0-8.894 10.57c-.279 2.528-.544 5.056-.823 7.585l-4.219-.441c.264-2.5.514-5.013.764-7.512z" fill="#00529C" stroke="#DDB68B" stroke-width=".49" stroke-miterlimit="10"/><path d="M134.847 80.656l7.851-.353 7.864-9.379-5.557-.147-10.158 9.88z" fill="#B5121B"/><path d="M81.955 103.839c-1.382-1.603.059-11.643 7.894-24.006 4.543-7.16 38.677-42.367 41.867-45.292 3.19-2.926 7.586-4.16 11.496-.868 3.925 3.293 13.01 13.275 13.671 18.347.647 5.057-2.675 8.54-6.703 12.157-4.028 3.616-28.49 28.96-44.395 35.634-15.906 6.674-20.346 6.101-21.154 5.983-.824-.118-2.676-1.955-2.676-1.955z" fill="#F4E7D8"/><path d="M80.588 104.985l-.206-.308a9.201 9.201 0 0 1-.28-.53c-.102-.279-.175-.499-.205-.705-.103-.426-.118-.779-.147-1.147-.03-.705 0-1.352.059-1.984.132-1.265.367-2.455.647-3.631.573-2.352 1.352-4.602 2.264-6.792a65.157 65.157 0 0 1 3.087-6.365 76.986 76.986 0 0 1 1.764-3.058l.926-1.5c.323-.5.735-1.058 1.073-1.514 2.881-3.763 5.954-7.159 9.026-10.613a676.005 676.005 0 0 1 9.335-10.202 1167.236 1167.236 0 0 1 19.081-19.978c.809-.824 1.617-1.647 2.455-2.455.412-.397.838-.824 1.323-1.25a13.573 13.573 0 0 1 1.588-1.19c2.175-1.441 5.145-2.294 7.953-1.53 1.382.368 2.631 1.059 3.675 1.897.985.808 1.823 1.646 2.646 2.484a83.249 83.249 0 0 1 4.704 5.234c1.47 1.822 2.911 3.675 4.219 5.689.647 1 1.264 2.043 1.794 3.175.264.573.499 1.161.69 1.808a9.01 9.01 0 0 1 .353 2c.236 2.69-.602 5.424-1.984 7.585-1.367 2.19-3.073 3.94-4.793 5.513l-9.922 9.51a324.757 324.757 0 0 1-10.276 9.32 178.687 178.687 0 0 1-10.893 8.704c-3.778 2.748-7.674 5.365-11.996 7.482-2.219 1.058-4.336 1.852-6.512 2.705-2.176.823-4.366 1.617-6.615 2.308-2.25.691-4.528 1.323-6.939 1.72-1.235.176-2.425.367-3.954.191l-.133-.015-.205-.044-.06-.015c-.014 0-.308-.088-.47-.161-.323-.147-.455-.235-.646-.338a8.858 8.858 0 0 1-.868-.618 19.442 19.442 0 0 1-1.426-1.279l-.132-.103zm2.72-2.337c.338.309.705.647 1.058.926.191.147.382.294.53.382.058.044.176.103.117.074-.03-.03-.206-.044-.074-.015l.06.015c-.06-.015.19.044-.104-.015l.074.015c.764.088 1.881-.03 2.91-.206 2.117-.367 4.278-.985 6.41-1.676 2.146-.691 4.263-1.47 6.38-2.308 2.087-.838 4.278-1.69 6.189-2.631 3.939-1.97 7.673-4.528 11.304-7.233 3.631-2.72 7.13-5.63 10.57-8.614a314.63 314.63 0 0 0 10.158-9.203l9.996-9.57c1.676-1.5 3.367-2.91 4.646-4.498 1.279-1.573 2.102-3.41 1.955-5.336-.059-1.838-1.235-3.764-2.396-5.616-1.206-1.852-2.588-3.631-4.072-5.322a77.132 77.132 0 0 0-4.646-4.895c-.808-.779-1.631-1.529-2.44-2.146-.764-.573-1.588-.985-2.44-1.176-1.691-.397-3.543.073-5.16 1.176a9.638 9.638 0 0 0-1.147.897c-.382.338-.764.735-1.176 1.132l-2.411 2.425c-6.453 6.513-12.818 13.142-19.14 19.802a764.162 764.162 0 0 0-9.393 10.055c-3.073 3.381-6.19 6.791-8.938 10.305-.338.47-.618.838-.912 1.308l-.882 1.44a71.145 71.145 0 0 0-1.66 2.941 64.985 64.985 0 0 0-2.823 6.086c-.823 2.073-1.53 4.19-2.014 6.306a22.162 22.162 0 0 0-.53 3.161 9.805 9.805 0 0 0-.029 1.455 4 4 0 0 0 .074.559c.014.074.044.132.03.118a.497.497 0 0 0-.074-.118z" fill="#F1DECB"/><path d="M146.137 41.215c-4.777-4.102-9.819-6.645-15.788-5.322-3.69 3.72-11.687 11.937-18.611 19.243-1.308 6.939.794 14.142 6.248 18.817 4.984 4.278 11.613 5.483 17.802 3.88 7.057-6.438 12.643-12.083 14.392-13.656a45.522 45.522 0 0 0 1.5-1.382c2.513-7.732.632-16.273-5.543-21.58z" fill="#B5121B"/><path d="M140.786 61.075c-1.778 1.632-3.557 3.146-5.35 4.704l-5.396 4.602-5.409 4.571c-1.823 1.514-3.602 3.043-5.484 4.513l-.25-.029.015-.25.015-.015c1.764-1.543 3.484-3.175 5.204-4.777l5.16-4.851 5.13-4.881c1.691-1.632 3.425-3.278 5.042-4.925l.015-.014a.945.945 0 0 1 1.323-.015.945.945 0 0 1 .015 1.323l-.03.044z" fill="#383739"/><path d="M148.534 62.472L134.98 74.173c-4.557 3.896-9.188 7.718-13.98 11.334-4.793 3.617-9.717 7.086-14.951 10.085-5.218 2.94-10.76 5.601-16.773 6.468a.226.226 0 0 1-.25-.176.204.204 0 0 1 .176-.236c5.837-1.161 11.129-4.086 16.097-7.262 4.969-3.234 9.644-6.909 14.172-10.746 4.527-3.851 8.894-7.88 13.201-11.995l12.892-12.451a2.21 2.21 0 0 1 3.131.058 2.21 2.21 0 0 1-.059 3.131c-.029.03-.058.06-.088.074l-.014.015z" fill="#383739"/><path d="M131.716 34.54c3.19-2.925 7.586-4.16 11.496-.867 3.925 3.293 13.01 13.275 13.671 18.347.647 5.057.956 4.351-2.807 8.261-2.735 2.837-15.465 1.397-20.272-3.822-6.454-7.056-3.911-20.228-2.088-21.918z" fill="#E53F2F"/><path d="M146.211 49.256c2.161.72 3.998 2.631 3.381 3.807-.5.941-2.234.838-4.395.118-2.161-.72-3.69-1.955-3.426-2.75.28-.793 2.294-1.895 4.44-1.175z" fill="#383739"/><path d="M146.373 44.125c-1.617-1.867-4.19-2.293-5.719-.955-1.382 1.205-1.455 3.41-.294 5.204-.059.03-.117.03-.162.073-.426.368-.323 1.162.221 1.78.544.617 1.323.822 1.735.47.147-.118.205-.31.235-.5 1.426.735 3.043.69 4.145-.265 1.529-1.338 1.456-3.94-.161-5.807zm-1.603 4.278c-.617.53-1.749.236-2.528-.676-.794-.897-.926-2.073-.309-2.602.618-.53 1.749-.235 2.529.662.779.911.926 2.072.308 2.616z" fill="#383739"/><path d="M143.815 49.491c-.03.25-.765.353-1.617.235-.868-.117-1.544-.397-1.514-.646.029-.25.764-.353 1.617-.236.867.118 1.543.412 1.514.647zm2.381-3.763c-.279-.618-.794-1.132-1.235-1.514.059-.06.118-.103.133-.177.103-.382-.5-.867-1.338-1.102-.838-.236-1.602-.118-1.705.264-.103.383.499.868 1.337 1.103 1.632.44 2.691 2.175 2.602 3.322-.088 1.161.779-.647.206-1.896z" fill="#fff"/><path d="M89.82 98.694c9.658-9.982 19.302-19.993 28.842-30.063 2.382-2.514 4.778-5.042 7.071-7.615.28-.308.574-.661.794-.926.206-.309.529-.735.779-1.073.544-.706 1.059-1.352 1.397-2 .661-1.249.705-2.734.588-4.395-.28-3.337-.838-6.938-.485-10.51.161-1.78.529-3.587 1.293-5.249.765-1.66 2-3.116 3.543-4.042l.279.411c-1.337 1.044-2.264 2.485-2.778 4.043-.529 1.558-.735 3.234-.735 4.91-.015 3.396.617 6.674 1.176 10.217.118.882.162 1.852.059 2.837-.118.985-.456 2.014-1.015 2.881-.543.868-1.19 1.514-1.734 2.161-.294.338-.5.603-.809.985-.338.397-.617.691-.926 1.03-2.44 2.528-4.91 4.953-7.379 7.394-9.953 9.731-19.949 19.375-29.96 29.004z" fill="#383739"/><path d="M119.265 54.578c.073-1.441.911-5.837 2.955-6.057 2.043-.22 2.793 4.44 2.631 5.983-.22 2.205-1.147 3.88-2.94 3.807-1.793-.058-2.734-1.867-2.646-3.733z" fill="#fff"/><path d="M120.691 54.445c.029-.676.397-2.734 1.426-2.866 1.029-.133 1.455 2.014 1.396 2.734-.088 1.029-.544 1.837-1.455 1.823-.897 0-1.397-.824-1.367-1.69zm34.531 4.631c-.661 1.176-1.852 2-3.057 2.528-1.221.544-2.514.824-3.808.956a18.675 18.675 0 0 1-7.732-.867 17.61 17.61 0 0 1-3.602-1.632c-.573-.338-1.117-.735-1.646-1.132a3.378 3.378 0 0 0-.574-.368 3.299 3.299 0 0 0-.646-.206c-1.867-.323-4.234.838-5.748 2.353l-1.367-1.176c.882-1.118 1.999-1.956 3.248-2.558 1.25-.603 2.72-.985 4.278-.662a5 5 0 0 1 1.117.382 4.88 4.88 0 0 1 1 .647c.441.368.897.735 1.397 1.044.97.647 2.043 1.176 3.145 1.602 2.22.823 4.631 1.264 7.027 1.176a12.747 12.747 0 0 0 3.499-.602c1.103-.383 2.146-.97 2.808-1.94l.661.455z" fill="#383739"/><path d="M130.525 45.36c.339 4.44 4.175 13.054 11.599 15.054 7.409 1.999-.353.926-.353.926l-6.732-3.984-5.175.397.25-3.131-.147-5.41.558-3.852zM82.999 98.635c-.456 2.661.603 6.439 4.998 5.586 4.395-.853 1.779.941 1.779.941s-4.425.691-4.528.691c-.088 0-3.278-2-3.278-2s-.235-1.793-.235-1.881c0-.088.5-2.264.5-2.264l.764-1.073z" fill="#383739"/><path d="M81.014 104.618l-.176-.25c-.074-.132-.147-.279-.22-.426a3.109 3.109 0 0 1-.177-.618c-.088-.382-.103-.72-.132-1.043-.03-.662.014-1.294.073-1.897.132-1.22.368-2.396.647-3.543.573-2.308 1.367-4.527 2.264-6.688 1.852-4.322 4.042-8.38 6.82-12.246 2.897-3.675 6.028-7.027 9.145-10.422a766.124 766.124 0 0 1 9.481-10.04c6.366-6.645 12.775-13.246 19.273-19.744l2.455-2.44c.808-.809 1.676-1.646 2.675-2.279 1.955-1.308 4.469-2.014 6.851-1.41a8.628 8.628 0 0 1 3.204 1.587c.926.735 1.764 1.529 2.602 2.323a81.47 81.47 0 0 1 4.749 5.056c1.514 1.75 2.954 3.573 4.248 5.513.647.97 1.25 1.97 1.764 3.043.5 1.044.941 2.279 1.014 3.499.236 2.47-.646 4.954-2.028 6.91-1.367 1.984-3.087 3.6-4.763 5.188-6.468 6.44-12.966 13.054-19.861 19.2-6.924 6.115-14.009 12.142-22.477 16.537-2.175 1.088-4.307 1.867-6.483 2.72-2.16.852-4.38 1.573-6.63 2.234-2.249.662-4.527 1.235-6.923 1.588-1.206.162-2.397.309-3.823.132l-.132-.014c-.25-.045-.103-.015-.161-.03l-.06-.015c-.029 0-.25-.073-.396-.147-.265-.117-.397-.205-.559-.308a9.643 9.643 0 0 1-.808-.603 22.119 22.119 0 0 1-1.367-1.264l-.089-.103zm1.867-1.588c.368.338.765.676 1.147.97.411.309.867.574.882.515.867.074 1.984-.073 3.043-.279 2.146-.412 4.307-1.088 6.439-1.808 4.219-1.5 8.57-3.176 12.598-4.984 3.984-1.911 7.791-4.425 11.466-7.086 3.705-2.646 7.277-5.483 10.791-8.408 7.056-5.851 13.7-12.128 20.492-18.405 1.72-1.485 3.381-3.043 4.675-4.822 1.293-1.764 2.073-3.88 1.926-6.027-.089-2.117-1.294-4.146-2.455-6.057-1.221-1.91-2.602-3.734-4.058-5.498a79.07 79.07 0 0 0-4.601-5.071c-1.632-1.588-3.234-3.293-5.41-3.793-2.131-.559-4.425.073-6.277 1.294-.941.602-1.749 1.367-2.558 2.19l-2.425 2.455a1158.38 1158.38 0 0 0-18.935 20.037 1029.564 1029.564 0 0 0-9.246 10.216c-3.028 3.44-6.086 6.895-8.82 10.497-2.514 3.645-4.631 7.79-6.292 11.951-.824 2.102-1.53 4.248-2.014 6.41a23.071 23.071 0 0 0-.515 3.234 10.922 10.922 0 0 0-.03 1.543c.045.426.09.75.177.926z" fill="#383739"/><path d="M81.646 103.016c-.69.294-1.705 1.984-1.205 2.954.5.985 2.16 1.75 2.16 1.75s1.677 1.661 2.588 1.896c.912.235 6.204-.235 7.453-1.044 1.25-.808 2.984-1.602 2.984-1.602s1.368 1.573 2.852.5c1.47-1.073.941-2.646.941-2.646l2.352-2.926-6.733 1.941-7.658 2.249-3.837-.25-1.897-2.822zm39.897-11.937c2.676-2.161 8.63-6.792 10.144-8.203 1.514-1.411 3.454-2.91 3.984-3.616.529-.706 2.278-.118 1.426 1.102 0 0 1.132 1.838-.236 2.881-1.352 1.044-3.263.206-3.263.206s.941 4.234-1.896 6.292c-2.852 2.058-4.337.235-4.337.235s-.75 1.985-1.926 2.426c-1.176.44-3.249.25-3.249.25s-.588.485-1.029-.06c-.441-.558-.161-1.072.382-1.513z" fill="#383739"/><path d="M143.874 105.206a.62.62 0 0 0-.618.617c0 1.088 0 2.161.044 3.234-.073.662-.22 1.368-.397 2.029-.308 1.059-.676 2.146-1.205 3.102v.015c-.044.073-.015.161.044.22a.166.166 0 0 0 .235-.029c.603-.823 1.059-1.706 1.47-2.617.015.147.015.294.03.441.044.529.103 1.088.161 1.602.059.486.074.971.044 1.456-.058.955-.264 1.896-.69 2.69-.853 1.617-2.676 2.367-4.661 2.499-.882.059-1.808-.088-2.572-.544-.779-.441-1.426-1.132-1.955-1.94-1.044-1.632-1.603-3.646-1.911-5.645-.265-1.985-.309-4.161-.427-6.248l-.558-12.569c.382-1.264.705-2.514.705-3.925 0-.367-.029-.735-.147-1.147-.117-.382-.323-.852-.779-1.16-.22-.163-.455-.25-.764-.31-.118-.014-.177-.014-.265-.029-.206 0-.25 0-.382.015-.47.044-1.029.353-1.308.779-.53.852-.471 1.632-.456 2.337.044.706.162 1.382.323 2.044l.25.97c.074.294.221.72.235.823.059.559.074 1.25.103 1.882.133 5.16.162 10.363-.117 15.494-.133 2.484-.735 4.998-2.205 6.792-.735.882-1.691 1.528-2.764 1.749-1.044.235-2.308.162-3.234-.309-1.941-.941-2.867-3.543-2.734-5.895 0-.676.044-1.352.073-2.028.324.852.676 1.69 1.117 2.499.044.088.162.132.25.088a.2.2 0 0 0 .103-.265c-.47-1.146-.808-2.352-1.058-3.557a15.17 15.17 0 0 1-.265-1.985c.044-.838.074-1.661.03-2.602a.627.627 0 0 0-.618-.588.621.621 0 0 0-.617.618v.073c0 1.147-.177 2.514-.28 3.793a85.494 85.494 0 0 0-.279 3.91c-.015.632-.059 1.382.074 2.102.117.691.294 1.382.573 2.058.529 1.324 1.514 2.602 2.911 3.293 1.411.677 2.881.779 4.366.471 1.47-.324 2.778-1.235 3.689-2.352a10.143 10.143 0 0 0 1.485-2.588c-.015 1.485-.015 2.955.015 4.44.073 1.985.132 3.954.338 5.939.029.294.25.529.559.559a.626.626 0 0 0 .691-.559c.22-1.97.308-3.94.396-5.924.059-1.853.089-3.72.074-5.572.338 1.176.794 2.308 1.47 3.396.617.97 1.426 1.882 2.499 2.499 1.073.632 2.323.853 3.543.779 1.073-.073 2.293-.309 3.352-.867 1.073-.544 2.028-1.426 2.587-2.514.573-1.073.823-2.264.853-3.41a9.498 9.498 0 0 0-.103-1.706c-.074-.544-.147-1.014-.206-1.543a110.238 110.238 0 0 1-.456-6.277c-.059-.338-.338-.603-.661-.603zM129.261 91.77a13.19 13.19 0 0 1-.323-1.794c-.059-.573 0-1.176.176-1.44a.407.407 0 0 1 .309-.192c.029 0 .147 0 .103-.014.073 0 .191.014.22.014.015.015.089.015.133.06.206.088.367.646.382 1.205.015 1.146-.25 2.425-.603 3.587-.059-.177-.103-.338-.162-.53l-.235-.896zm-30.827 33.09a.568.568 0 0 0-.573.588c0 .618.015 1.221.03 1.823-.03.221-.074.485-.118.706-.088.412-.191.823-.294 1.235-.22.823-.456 1.661-.78 2.425v.015c-.014.059 0 .118.045.147a.135.135 0 0 0 .162-.029 18.59 18.59 0 0 0 1.073-1.985c.029.691.044 1.367.103 2.058.147 1.867-.706 3.852-2.28 4.778-.778.485-1.69.72-2.66.779-.94.073-1.823-.118-2.528-.603-1.441-.999-2.073-3.057-2.367-5.027-.162-1.015-.22-2-.191-3.043a75.27 75.27 0 0 1 .117-3.132c.118-2.102.28-4.204.47-6.306l.28-3.161.162-1.573c0-.294.235-.72.44-1.234a28.43 28.43 0 0 0 1.162-3.058c.074-.221.191-.603.22-.956.03-.367.045-.867-.323-1.382-.382-.514-.97-.661-1.338-.69a3.44 3.44 0 0 0-1.058.088 6.92 6.92 0 0 0-1.705.647c-.265.147-.544.279-.882.602-.427.456-.485.912-.53 1.25-.088 1.382.265 2.411.56 3.484l.234.72s.03.353.03.559c0 .5-.03 1.014-.044 1.529-.06 1.043-.147 2.087-.236 3.131a222.6 222.6 0 0 1-.661 6.292 225.512 225.512 0 0 1-.412 3.131c-.161 1.058-.294 2.029-.617 2.94a8.74 8.74 0 0 1-.353.867c-.044-.22-.088-.426-.132-.647l-.382-1.528c0-.015-.015-.03-.015-.044a.584.584 0 0 0-1.161.088v.029c0 1.485-.015 2.97 0 4.469-.441.397-.927.735-1.456.926-.794.294-1.69.28-2.514.015-.911-.294-1.705-.765-2.293-1.411-1.19-1.309-1.367-3.352-1.088-5.322.06-.47.162-.955.265-1.426.162.515.338 1.014.53 1.514.043.103.16.177.264.147a.225.225 0 0 0 .176-.279c-.147-.735-.294-1.455-.367-2.176a8.826 8.826 0 0 1-.06-1.058c0-.059.016-.118.016-.191.102-.338.205-.662.323-1 .162-.514.353-.941.53-1.588a.595.595 0 0 0-.383-.705.576.576 0 0 0-.735.367l-.015.059c-.117.368-.382.912-.588 1.397a45.24 45.24 0 0 0-.602 1.499 18.795 18.795 0 0 0-.897 3.175c-.191 1.103-.309 2.25-.132 3.411.161 1.161.632 2.367 1.455 3.308.823.94 1.926 1.573 3.013 1.955a5.572 5.572 0 0 0 3.72-.015c.323-.118.617-.265.896-.426.06 1.293.133 2.602.28 3.925.073.455.132.911.308 1.426.044.132.103.264.206.441.059.088.118.176.235.294.133.103.25.25.677.279h.073c.044 0 .22-.029.309-.059.28-.103.28-.161.411-.25.162-.147.265-.294.339-.426.543-1 .676-1.838.896-2.734.368-1.764.603-3.514.809-5.263l.22-2.161c.177.941.412 1.867.809 2.778.456 1.059 1.147 2.103 2.19 2.823 1.044.72 2.367.955 3.528.853 1.147-.089 2.338-.412 3.352-1.074 2.088-1.323 3.073-3.836 2.852-6.174-.191-2.073-.309-4.189-.412-6.292v-.014c-.014-.294-.279-.53-.588-.53zm-9.878-15.773a2.63 2.63 0 0 1 .529-.059h.03v.103a2.424 2.424 0 0 1-.133.588 29.492 29.492 0 0 1-1.073 2.881l-.324.765c-.014.029-.029.073-.044.103l-.22-.691c-.28-.941-.544-2.014-.485-2.749-.294-.162.97-.765 1.72-.941zm-3.47 25.388c-.25 1.72-.5 3.454-.867 5.115a15.78 15.78 0 0 1-.426 1.544 3.989 3.989 0 0 1-.074-.412c-.22-1.558-.338-3.131-.411-4.733a7.41 7.41 0 0 0 .646-.721c.544-.691.97-1.455 1.309-2.234-.06.485-.103.97-.177 1.441z" fill="#383739"/><path d="M117.957 105.177c-16.568 0-30.063-13.48-30.063-30.063 0-1.044.059-2.073.162-3.102H76.5a43.393 43.393 0 0 0-.132 3.102c0 22.933 18.655 41.588 41.588 41.588.999 0 1.984-.044 2.969-.118v-11.569c-.985.103-1.97.162-2.969.162z" fill="#E42F28"/><path d="M117.957 115.981c-22.566 0-40.868-18.302-40.868-40.867 0-1.044.06-2.073.133-3.102H75.78a43.393 43.393 0 0 0-.132 3.102c0 23.33 18.978 42.308 42.308 42.308.999 0 1.984-.044 2.969-.118v-1.44c-.985.073-1.97.117-2.969.117z" fill="#EDD6BD"/><path d="M117.957 104.456c-16.171 0-29.342-13.157-29.342-29.342 0-1.044.058-2.073.161-3.102h-1.455a30.625 30.625 0 0 0-.162 3.102c0 16.964 13.804 30.783 30.783 30.783 1 0 1.985-.059 2.969-.147v-1.455c-.97.088-1.955.161-2.954.161z" fill="#EDD6BD"/><path d="M117.957 115.629c-22.33 0-40.5-18.17-40.5-40.5 0-1.044.059-2.073.132-3.102h-.72a43.393 43.393 0 0 0-.132 3.102c0 22.727 18.493 41.22 41.22 41.22.999 0 1.984-.044 2.969-.118v-.72c-.985.059-1.97.118-2.969.118z" fill="#B5121B"/><path d="M117.957 105.529c-16.774 0-30.416-13.642-30.416-30.415 0-1.044.06-2.073.162-3.102h-.72a30.852 30.852 0 0 0-.162 3.102c0 17.17 13.966 31.136 31.136 31.136.999 0 1.984-.059 2.969-.147v-.735c-.985.103-1.97.161-2.969.161z" fill="#B5121B"/></svg>