<svg xmlns="http://www.w3.org/2000/svg" width="24" height="23" viewBox="0 0 24 23"><path fill="#FFF" fill-rule="evenodd" d="M.304 22.94h5.142V7.463H.304V22.94zM2.876 5.35c1.793 0 2.909-1.188 2.909-2.674C5.754 1.157 4.669 0 2.909 0 1.149 0 0 1.157 0 2.675c0 1.486 1.115 2.674 2.84 2.674h.036zm5.42 17.592s.067-14.027 0-15.478h5.144v2.243h-.034C14.082 8.651 15.3 7.1 18.076 7.1 21.46 7.1 24 9.31 24 14.066v8.875h-5.145v-8.28c0-2.082-.745-3.5-2.607-3.5-1.42 0-2.267.955-2.638 1.88-.139.331-.17.794-.17 1.257v8.643H8.295z"/></svg>