<svg width="185" height="122" viewBox="0 0 185 122" fill="none" xmlns="http://www.w3.org/2000/svg"><path fill-rule="evenodd" clip-rule="evenodd" d="M4.643 88.098v-8.4h5.545c6.175 0 9.224-3.432 9.224-9.549 0-6.075-3.05-9.072-9.224-9.072H.248v27.02h4.395zM14.9 70.149c0 3.748-1.466 5.758-4.751 5.758H4.643V64.863h5.505c3.285 0 4.752 1.58 4.752 5.286zm24.074-9.072h-8.75l-6.694 27.02h4.399l1.463-5.8h10.413l1.465 5.8h4.436l-6.732-27.02zm-.038 17.356h-8.672l3.364-13.688h1.98l3.328 13.688zm18.212 9.665v-9.626h6.377l3.918 9.626h4.832l-4.473-10.612c2.89-1.341 4.432-3.985 4.432-7.81 0-5.994-3.206-8.6-9.185-8.6H52.753v27.022h4.395zm0-23.235h5.901c3.166 0 4.672 1.776 4.672 4.853 0 2.8-1.267 4.968-4.593 4.968h-5.98v-9.821zm36.076-3.786h-8.752l-6.694 27.02h4.396l1.467-5.8h10.413l1.464 5.8h4.435l-6.73-27.02zm-.041 17.356H84.51l3.364-13.688h1.982l3.326 13.688z" fill="#302008"/><path d="M125.336 73.897h-7.722v3.867h3.365v6.588c-.475.117-2.534.353-4.316.353-5.544 0-6.691-2.76-6.691-10.1 0-7.612 1.386-10.058 6.812-10.058 3.602 0 8.392.631 8.392.631l.16-3.47s-5.069-1.066-9.227-1.066c-8.076 0-10.691 4.498-10.691 13.963 0 8.956 2.219 13.925 10.85 13.925 3.286 0 8.711-.826 9.068-.906V73.897z" fill="#302008"/><path fill-rule="evenodd" clip-rule="evenodd" d="M143.866 60.642c-8.472 0-11.047 5.05-11.047 14.085 0 9.11 2.535 13.803 11.047 13.803 8.474 0 11.008-4.612 11.008-13.803 0-9.077-2.534-14.085-11.008-14.085zm0 3.828c5.226 0 6.456 3.548 6.456 10.257 0 6.862-1.189 9.978-6.456 9.978s-6.495-3.234-6.495-9.978c0-6.709 1.267-10.257 6.495-10.257zm-50.722 51.601c1.446-.422 2.48-1.706 3.17-2.985.855 1.088 2.27 1.418 3.736 1.019 2.232-.603 3.507-2.001 4.214-3.379.178-.307.33-.679.461-1.108.126-.383.211-.745.267-1.066.087-.424.162-.883.23-1.374.178-1.2.25-2.401.267-3.061l.282-.064a130.37 130.37 0 0 1 1.959-.437c-.825 2.384-1.288 4.314-1.288 5.956 0 2.26 1.443 2.601 2.654 2.362 1.087-.213 1.883-.911 2.466-1.777.46.776 1.22 1.148 2.224 1.005 1.108-.153 1.906-.986 2.526-2.077v3.262c-1.702 1.658-3.197 3.199-3.197 5.793 0 1.644 1.031 2.792 2.475 2.627 1.315-.151 2.681-1.196 2.681-3.891v-4.442c1.392-1.306 2.885-2.858 3.762-5.833.025-.104.025-.23.025-.257 0-.487-.489-1.052-.902-1.044-.259.005-.463.241-.619.783-.516 1.786-1.34 3.104-2.266 4.195v-9.012c0-.614-.542-1.094-1.393-1.017-.36.034-.67.245-.67.504 0 .067.015.129.033.207.031.128.071.299.071.603v4.134c-.309 1.829-1.085 3.577-2.114 3.714-.746.101-1.184-.575-1.184-1.963 0-2.128.277-3.301.731-5.222l.016-.071c.019-.075.061-.176.108-.289.204-.488.504-1.209-.522-1.065-1.112.167-1.199.526-1.29.904a1.83 1.83 0 0 1-.075.258s-.927 3.211-.927 5.935l.002.143c-.278.977-.747 1.963-1.627 2.133-.695.136-1.029-.46-1.029-1.179 0-1.909.64-4.2.969-5.378.114-.407.19-.68.19-.759.103-.612-.928-1.255-1.236-1.191-.447.093-.894.188-1.342.289-.257.056-.516.111-1.365.205-.283-.986-1.004-1.122-1.623-.97-.672.165-1.29.787-1.29 1.506 0 .743.464 1.164 1.109 1.363-.017.843-.065 2.03-.172 3.063-.173 1.309-.277 2.021-.887 3.252-.499.895-1.264 1.646-2.421 1.957-1.339.365-2.035-.155-2.396-.927 2.499-1.45 3.814-4.045 3.814-5.946 0-1.538-.877-2.364-2.32-1.969-1.983.547-3.942 3.555-3.942 6.815 0 .401.034.771.1 1.111-.35 1.153-1.142 2.58-2.162 2.877-1.003.294-1.572-.568-1.828-1.595 1.03-1.046 2.473-2.932 2.473-4.907 0-1.439-.696-2.572-2.293-2.102-1.16.337-2.192 1.64-3.015 3.006v-8.008c0-.617-.541-.974-1.391-.731-.36.101-.826.336-.826.515 0 .059.028.097.066.147.076.102.192.256.192.756v11.72a2.024 2.024 0 0 0-.104.376c-.23 1.194-.695 2.969-1.726 3.253-.617.173-.876-.375-.876-.939v-4.236c0-.616-.541-.983-1.392-.76-.36.096-.668.355-.668.613 0 .067.014.128.032.203.03.124.07.288.07.592v3.954c-.284.792-.747 1.529-1.444 1.702-.901.224-1.469-.414-1.469-1.748 0-3.694 2.294-5.913 4.253-6.444.132-.035.263-.057.392-.079.122-.02.242-.041.355-.071.258-.07.336-.245.336-.682 0-.669-.49-.943-1.186-.758-3.145.851-6.133 4.128-6.133 8.411 0 2.181 1.056 3.655 3.066 3.162.979-.243 1.7-.892 2.216-1.618.387.515 1.083.769 1.984.522.979-.269 1.726-.93 2.294-1.74.015.921.727.894 1.237.75.724-.209.722-.786.722-1.266v-4.463c.8-2.952 1.958-4.111 2.578-4.292.489-.143.824.194.824.836 0 1.495-.96 2.652-1.665 3.503-.409.494-.733.884-.733 1.177 0 1.695 1.34 3.614 3.376 3.019zm6.597-10.047c0 1.541-.825 3.101-2.114 4.056 0-.077-.006-.153-.012-.228-.006-.075-.013-.15-.013-.227-.052-1.064.335-4 1.598-4.351.334-.091.54.185.54.75zm16.571 8.274v2.746l.002.149c.009.594.028 1.874-.724 1.957-.412.047-.671-.536-.671-1.333 0-1.539.568-2.587 1.393-3.519z" fill="#302008"/><path d="M170.832 61.077h-7.683v27.02h4.396V64.902h.555l8.434 23.197h7.523V61.077h-4.395v23.156h-.594l-8.236-23.156zM84.157 48.78c0 .819.666 1.483 1.49 1.483.82 0 1.487-.664 1.487-1.483V18.282c0-4.249-3.47-7.706-7.733-7.706a7.738 7.738 0 0 0-5.18 1.983 1.48 1.48 0 0 0-.108 2.095c.55.607 1.49.656 2.102.108a4.759 4.759 0 0 1 3.186-1.22c2.622 0 4.756 2.127 4.756 4.74V48.78zm6.57 0c0 .819.666 1.483 1.49 1.483.82 0 1.487-.664 1.487-1.483V9.918c0-3.815 3.116-6.92 6.947-6.92 3.828 0 6.942 3.1 6.947 6.912-.005 3.812-3.119 6.912-6.947 6.912-.822 0-1.489.664-1.489 1.483 0 .819.667 1.483 1.489 1.483 5.463 0 9.909-4.42 9.924-9.859v-.038c-.015-5.439-4.461-9.859-9.924-9.859-5.472 0-9.924 4.435-9.924 9.886V48.78z" fill="#302008"/><path d="M97.296 37.47c0 2.453 2.004 4.449 4.465 4.449 2.458 0 4.46-1.989 4.467-4.436v-.023a4.458 4.458 0 0 0-1.79-3.546 1.493 1.493 0 0 0-2.083.3 1.479 1.479 0 0 0 .3 2.075c.379.282.595.713.597 1.182a1.491 1.491 0 0 1-1.491 1.483 1.488 1.488 0 0 1-1.489-1.485V25.727c0-.819-.665-1.483-1.488-1.483-.822 0-1.488.664-1.488 1.483V37.47zm-44.234 71.88H.248v.917h52.814v-.917zm130.995 0h-52.814v.917h52.814v-.917zm-117.164-2.144c.03.129.07.3.07.602v9.32c0 3.141 1.004 5.257 4.38 4.769 2.55-.385 4.51-2.683 4.51-5.249 0-2.208-1.211-3.236-2.706-3.413 1.88-1.329 3.325-3.367 3.325-6.162 0-3.661-2.55-5.235-6.444-4.707-4.586.612-7.758 3.658-7.758 8.47 0 3.01 1.471 4.534 1.883 4.898.747.539 1.444-1.201 1.444-1.663 0-.258-.105-.43-.388-.337-.004-.006-.014-.016-.03-.032-.168-.174-.95-.981-.95-3.055 0-3.157 1.677-5.832 5.825-6.357 3.17-.44 4.433 1.268 4.433 3.232 0 3.736-2.963 5.059-4.173 5.205-.775.102-.337 1.971.127 1.909 1.624-.221 3.403.145 3.403 2.455 0 1.488-1.084 2.821-2.528 3.039-1.519.227-2.344-.664-2.344-3.126v-9.525c0-.617-.592-1.058-1.444-.978-.36.035-.668.24-.668.494 0 .069.014.132.033.211z" fill="#302008"/></svg>