<svg width="240" height="183" viewBox="0 0 240 183" fill="none" xmlns="http://www.w3.org/2000/svg"><path d="M81.561 167.281c-4.579-.72-7.807-1.79-7.807-2.632 0-.824 2.807-2.281 7.807-3.281v5.913z" fill="#D9CEB8"/><path d="M90.737 177.754c-.58 1.702-1.351 2.281-1.877 2.246-.421-.018-.79-.439-.913-1.018-.122-.631-.263-1.473-.438-2.456.649-1.017 2.35-3.14 5.561-4.158-.947 1.509-1.684 3.492-2.333 5.386z" fill="#A39168"/><path d="M97.263 160.772c.632.088 1.263.193 1.895.298.561.158 1.088.298 1.474.404 1.666.438 2.087.842 2.105 1.824v3.123c-2.754.947-7.474 1.632-11.088 1.632-3.333 0-6.596-.264-9.403-.667v-6.158a59.51 59.51 0 0 1 5.93-.754 88.913 88.913 0 0 1 3.052-.106c1 0 2.018.035 3.018.106 1.017.07 2.017.158 3.017.298z" fill="#EAE3D6"/><path d="M.842 8.298l.737-.105c2.754-.35 5.526-.684 8.28-1.018.51-.052 1-.087 1.474-.087.737 0 1.439.07 2.088.21 1.088.246 2.053.667 2.86 1.246a6.932 6.932 0 0 1 1.982 2.228c.491.877.807 1.895.93 3 .14 1.316.035 2.456-.333 3.474a7.163 7.163 0 0 1-1.667 2.649 8.72 8.72 0 0 1-2.65 1.754c-1 .439-2.122.72-3.315.86l-2.579.316.72 5.93-5.86.736L.842 8.298zm7.14 9.21l2.755-.333c.93-.105 1.579-.403 2-.894.403-.491.579-1.035.491-1.667-.088-.807-.368-1.316-.877-1.632-.404-.245-.948-.385-1.58-.385-.21 0-.42.017-.648.035l-2.684.333.543 4.544z" fill="#F58025"/><path d="M11.333 7.842c.684 0 1.316.07 1.93.193 1 .228 1.86.597 2.58 1.123a6.2 6.2 0 0 1 1.771 1.982c.439.79.72 1.702.842 2.72v.052c.123 1.14.018 2.176-.298 3.088a6.4 6.4 0 0 1-1.491 2.368c-.667.667-1.474 1.193-2.421 1.597-.948.403-1.983.667-3.106.807-1.105.14-2.228.263-3.333.403.246 1.965.474 3.948.72 5.93-1.457.176-2.913.351-4.352.544-.842-6.561-1.666-13.14-2.508-19.702 2.772-.35 5.526-.684 8.28-1.017.474-.053.93-.088 1.386-.088zm-4 10.491l3.492-.42c1.105-.141 1.93-.51 2.473-1.159.544-.649.772-1.386.667-2.228v-.052c-.105-.983-.509-1.684-1.21-2.123-.545-.334-1.194-.491-1.983-.491-.228 0-.491.017-.737.052-1.14.14-2.28.263-3.421.404.228 2 .474 4.017.72 6.017zm4-11.982c-.508 0-1.035.035-1.561.088-2.772.333-5.526.666-8.28 1.017L0 7.65l.193 1.474L2.368 26.28l.316 2.561.193 1.474 1.474-.176.754-.087c1.193-.14 2.404-.299 3.597-.439l1.491-.175-.175-1.492-.316-2.649-.228-1.79 1.842-.227a12.434 12.434 0 0 0 3.509-.913 9.248 9.248 0 0 0 2.894-1.912 7.844 7.844 0 0 0 1.842-2.93c.404-1.122.527-2.386.386-3.754v-.087c-.14-1.21-.473-2.298-1.017-3.263a7.829 7.829 0 0 0-2.193-2.474c-.877-.649-1.947-1.105-3.14-1.368a11.82 11.82 0 0 0-2.264-.228zm-3.07 7.263c.65-.07 1.298-.158 1.93-.228.193-.018.386-.035.561-.035.492 0 .895.088 1.193.28.193.123.439.351.527 1.018.07.474-.035.825-.316 1.14-.28.351-.79.562-1.509.65-.667.07-1.333.157-2.017.245l-.369-3.07z" fill="#E9E3DC"/><path d="M20.912 5.982l.737-.105c3.088-.316 6.175-.631 9.28-.93.457-.035.878-.07 1.299-.07 2.158 0 3.965.562 5.333 1.702 1.404 1.158 2.21 2.807 2.404 4.895.158 1.824-.176 3.333-.965 4.543a7.85 7.85 0 0 1-2.368 2.316 730.82 730.82 0 0 1 4.912 5.948l.895 1.105-6.913.614-.245-.316c-1.527-1.877-3.07-3.754-4.614-5.631l-2.316.228.631 6.333-5.842.596-2.228-21.228zm6.895 9l3.737-.368c.912-.088 1.561-.35 1.965-.772.386-.42.544-.895.49-1.544-.07-.772-.315-1.245-.771-1.544-.404-.263-.947-.386-1.614-.386-.175 0-.368 0-.561.035-1.229.123-2.439.229-3.667.351l.421 4.229z" fill="#F58025"/><path d="M32.228 5.65c2 0 3.614.508 4.86 1.525 1.263 1.035 1.965 2.492 2.123 4.386v.053c.14 1.596-.14 2.947-.86 4.018-.702 1.07-1.667 1.912-2.912 2.49a647.7 647.7 0 0 1 5.49 6.65c-1.7.14-3.403.298-5.105.456a746.629 746.629 0 0 0-4.86-5.93h-.052c-1.14.106-2.263.21-3.403.334l.631 6.333c-1.456.14-2.912.298-4.368.439-.684-6.58-1.386-13.176-2.07-19.772 3.087-.316 6.175-.632 9.263-.93.456-.035.86-.053 1.263-.053zM27.14 15.806c1.492-.14 2.983-.298 4.474-.439 1.088-.105 1.895-.438 2.439-1 .544-.561.772-1.28.684-2.122v-.053c-.088-.947-.456-1.632-1.123-2.053-.526-.333-1.193-.508-2-.508-.193 0-.404.017-.632.035-1.473.14-2.947.28-4.42.438.21 1.895.385 3.79.578 5.702zM32.228 4.14c-.439 0-.895.018-1.368.07-3.106.299-6.193.597-9.281.93l-1.491.158.158 1.491.245 2.351 1.825 17.421.158 1.492 1.49-.158c1.457-.158 2.913-.299 4.352-.439l1.491-.14-.14-1.491-.369-3.667-.123-1.176c.386-.035.772-.07 1.176-.105 1.456 1.772 2.912 3.544 4.35 5.316l.51.614.789-.07c1.702-.158 3.404-.298 5.105-.456l2.825-.246-1.825-2.228a1171.85 1171.85 0 0 0-4.403-5.316 8.107 8.107 0 0 0 1.895-2.052c.894-1.351 1.263-3.036 1.087-4.965v-.088C40.474 9.088 39.58 7.28 38.018 6c-1.51-1.228-3.457-1.86-5.79-1.86zm-4.018 7.3c.965-.088 1.948-.193 2.913-.281.175-.018.333-.018.491-.018.526 0 .93.088 1.21.263.106.07.369.229.422.913.052.596-.106.842-.281 1.017-.28.299-.772.474-1.491.544-1 .088-1.983.193-2.983.28l-.21-2.052-.07-.666z" fill="#E9E3DC"/><path d="M42.596 3.93l.737-.07a950.03 950.03 0 0 1 15.299-1.123l.754-.053.35 5.369-.753.052c-3.369.21-6.72.456-10.088.702l.193 2.526c2.912-.21 5.842-.42 8.754-.631l.755-.053.35 5.368-.754.053c-2.895.193-5.807.404-8.702.614l.21 2.667c3.37-.263 6.738-.491 10.106-.72l.754-.052.334 5.246-.737.175c-5.053.333-10.123.702-15.105 1.105l-.737.07-1.72-21.245z" fill="#F58025"/><path d="M58.684 3.491c.088 1.298.176 2.58.246 3.877-3.614.228-7.228.492-10.842.772.105 1.334.21 2.684.316 4.018a862.19 862.19 0 0 1 9.49-.684l.264 3.877c-3.158.21-6.298.438-9.456.666l.316 4.158c3.614-.28 7.228-.526 10.842-.771.087 1.298.158 2.578.245 3.877-5.035.333-10.07.701-15.105 1.105-.544-6.596-1.07-13.21-1.614-19.807 5.105-.386 10.21-.754 15.298-1.088zm1.404-1.596L58.596 2c-5.052.333-10.21.702-15.315 1.123l-1.492.123.123 1.49.86 10.668.737 9.14.123 1.491 1.49-.123c4.966-.403 10.053-.772 15.089-1.105l1.49-.105-.105-1.492v-.122c-.087-1.246-.157-2.51-.245-3.755l-.088-1.49-1.491.104c-3.298.21-6.386.439-9.368.65l-.088-1.176a1211.6 1211.6 0 0 1 7.947-.561l1.491-.106-.087-1.49-.123-1.948-.123-1.948-.123-1.473-1.491.105c-2.667.175-5.35.368-8.018.561l-.087-1.035c3.105-.228 6.228-.456 9.333-.649l1.491-.105-.105-1.491-.193-2.93-.053-.965-.087-1.491z" fill="#E9E3DC"/><path d="M71.175 23.684c-1.333 0-2.684-.193-4.017-.579a13.073 13.073 0 0 1-4.386-2.263l-.579-.456 3.28-4.421.597.42a12.54 12.54 0 0 0 2.755 1.51c.754.298 1.579.438 2.456.438.14 0 .28 0 .42-.017.755-.035 1.334-.193 1.703-.456.28-.21.403-.439.386-.772-.018-.228-.053-.369-.106-.474-.017-.035-.105-.158-.35-.298a6 6 0 0 0-1.106-.439 20.78 20.78 0 0 0-2.017-.474 34.86 34.86 0 0 1-2.878-.701c-.894-.264-1.701-.632-2.368-1.088a5.1 5.1 0 0 1-1.667-1.842c-.403-.737-.649-1.667-.719-2.755-.07-1.07.07-2.017.421-2.86.35-.841.86-1.596 1.526-2.227a7.362 7.362 0 0 1 2.421-1.509c.93-.368 1.965-.579 3.07-.632.281-.017.544-.017.808-.017 1.263 0 2.473.158 3.579.491 1.35.386 2.614 1 3.754 1.807l.579.421-2.947 4.597-.632-.369a13.124 13.124 0 0 0-2.579-1.228 6.193 6.193 0 0 0-2.053-.368h-.298c-.684.035-1.193.193-1.474.42-.298.264-.333.474-.315.667.017.264.052.422.123.544.052.07.157.193.42.316.281.14.685.28 1.211.404.561.14 1.28.298 2.158.473 1.07.228 2.035.492 2.877.79.895.316 1.65.737 2.28 1.21.65.51 1.176 1.123 1.527 1.825s.562 1.561.597 2.526c.052 1.14-.106 2.14-.474 3.018a6.318 6.318 0 0 1-1.597 2.263c-.684.614-1.508 1.088-2.49 1.456-.948.35-2 .544-3.159.596a5.204 5.204 0 0 1-.737.053z" fill="#F58025"/><path d="M70.842 2.509c1.193 0 2.316.158 3.368.456 1.264.368 2.44.947 3.527 1.702-.72 1.122-1.439 2.263-2.158 3.386-.93-.562-1.842-1-2.737-1.299a7.049 7.049 0 0 0-2.298-.403c-.105 0-.228 0-.334.017-.86.053-1.508.246-1.93.597-.42.35-.613.772-.578 1.28v.053c.017.316.105.597.228.825.14.228.368.438.72.596.332.176.789.334 1.367.474.58.14 1.299.298 2.194.474 1.035.21 1.947.473 2.772.754.806.298 1.508.667 2.07 1.105.561.439 1 .965 1.315 1.58.299.613.474 1.35.51 2.227v.053c.034.982-.106 1.877-.422 2.65-.333.788-.79 1.455-1.42 2-.615.543-1.37.981-2.246 1.297-.878.316-1.86.51-2.93.562-.228.017-.457.017-.702.017-1.28 0-2.544-.175-3.807-.544-1.491-.42-2.86-1.14-4.123-2.14.807-1.088 1.614-2.158 2.421-3.246a13.64 13.64 0 0 0 2.912 1.597c.86.333 1.772.491 2.737.491.158 0 .299 0 .456-.017.913-.053 1.614-.246 2.106-.597.49-.35.719-.824.684-1.42v-.054c-.018-.28-.07-.526-.193-.736-.123-.21-.334-.404-.632-.58-.298-.175-.719-.35-1.263-.508-.526-.158-1.228-.316-2.088-.474A34.805 34.805 0 0 1 67.561 14c-.842-.246-1.561-.579-2.158-.982a4.764 4.764 0 0 1-1.438-1.58c-.351-.649-.562-1.456-.632-2.438v-.053c-.052-.912.07-1.736.369-2.49a5.403 5.403 0 0 1 1.35-1.966 6.629 6.629 0 0 1 2.176-1.35c.86-.334 1.807-.527 2.842-.58a5.54 5.54 0 0 1 .772-.052zm0-1.491c-.28 0-.561 0-.86.017-1.21.07-2.315.298-3.315.684-1.035.404-1.93.965-2.65 1.667a7.331 7.331 0 0 0-1.701 2.491c-.386.948-.544 2.018-.474 3.14v.123c.07 1.176.351 2.193.807 3.018a6.183 6.183 0 0 0 1.895 2.088c.737.508 1.614.894 2.596 1.193.843.245 1.807.49 2.93.719.825.158 1.474.316 1.948.456.543.158.807.298.947.368.035.018.052.035.07.053v.175c-.017 0-.035.018-.088.053-.14.105-.49.28-1.298.316-.123 0-.263.017-.386.017-.79 0-1.526-.14-2.193-.386-.86-.333-1.737-.824-2.596-1.42l-1.193-.843-.878 1.176c-.807 1.087-1.614 2.158-2.42 3.245l-.86 1.176 1.14.895a13.448 13.448 0 0 0 4.632 2.403c1.386.404 2.807.614 4.228.614.263 0 .509 0 .772-.017 1.228-.07 2.35-.281 3.368-.65 1.053-.386 1.965-.912 2.72-1.596a6.847 6.847 0 0 0 1.789-2.544c.403-.982.596-2.088.544-3.28v-.142c-.035-1-.263-1.965-.667-2.754-.35-.842-.93-1.544-1.684-2.123a8.698 8.698 0 0 0-2.474-1.316 22.38 22.38 0 0 0-2.965-.825 52.532 52.532 0 0 1-2.14-.473c-.579-.14-.895-.263-1.053-.351a.61.61 0 0 1-.123-.07V8.21c-.017-.035 0-.052.053-.105.035-.035.28-.21 1.035-.245h.263c.597 0 1.176.105 1.807.315.772.264 1.597.667 2.439 1.176l1.246.754.79-1.228C77.56 7.754 78.28 6.614 79 5.491l.772-1.21-1.175-.842a13.81 13.81 0 0 0-3.965-1.913 14.022 14.022 0 0 0-3.79-.508z" fill="#E9E3DC"/><path d="M82.105 1.509l.755-.035c5.157-.21 10.315-.369 15.333-.474l.754-.018.123 5.386-.754.018c-3.369.07-6.737.175-10.106.28l.088 2.544c2.93-.105 5.842-.192 8.772-.245l.755-.018.122 5.386-.754.018c-2.912.07-5.807.158-8.72.245l.088 2.685c3.369-.123 6.755-.21 10.123-.281l.755-.018.122 5.386-.754.018c-4.983.123-10.07.28-15.123.474l-.754.035-.825-21.386z" fill="#F58025"/><path d="M98.21 1.754c.036 1.299.053 2.597.088 3.895-3.614.088-7.228.193-10.86.316.053 1.35.088 2.684.14 4.035 3.176-.105 6.334-.21 9.51-.28.035 1.298.07 2.596.087 3.894-3.157.07-6.315.175-9.473.28.052 1.387.088 2.773.14 4.176 3.614-.123 7.246-.228 10.86-.316.035 1.299.052 2.597.088 3.895-5.053.123-10.088.28-15.14.474l-.79-19.86c5.14-.228 10.245-.403 15.35-.509zM99.667.211l-1.492.035C93.158.368 88 .526 82.842.719l-1.491.053.052 1.491.51 12.86.28 7 .053 1.491 1.49-.053c5.053-.193 10.124-.35 15.106-.473l1.491-.035-.035-1.492-.087-3.894-.036-1.474-1.49.035c-3.018.07-6.106.158-9.387.263l-.017-.508-.018-.667c2.65-.088 5.316-.158 7.965-.228l1.491-.035-.035-1.492-.052-2.368-.035-1.526-.036-1.492-1.49.036c-2.685.07-5.352.14-8.036.228v-.053L89 7.404c3.386-.106 6.456-.193 9.35-.264l1.492-.035-.035-1.491-.088-3.895-.052-1.508z" fill="#E9E3DC"/><path d="M102.333.912l.755-.017c3.105-.053 6.21-.088 9.316-.123 2.824 0 4.964.737 6.456 2.193 1.298 1.28 1.965 2.982 1.965 5.088 0 1.824-.457 3.298-1.351 4.456a7.425 7.425 0 0 1-2.562 2.088c1.474 2.105 2.93 4.228 4.386 6.35l.807 1.176h-2.544l-4.403.017-.228-.333c-1.351-2-2.719-4-4.105-6l-2.316.018.088 6.368-.755.017c-1.456.018-2.912.036-4.386.07l-.754.018-.369-21.386zm6.106 9.597l3.736-.035c.913 0 1.579-.21 2.036-.597.421-.368.614-.86.614-1.491 0-1-.369-1.386-.65-1.597-.473-.35-1.157-.543-2.052-.543v-.772l-.07.754c-1.228 0-2.456.018-3.685.035l.071 4.246z" fill="#F58025"/><path d="M112.509 1.526c2.526 0 4.473.667 5.824 1.983 1.158 1.14 1.737 2.649 1.737 4.544v.052c0 1.614-.403 2.913-1.193 3.93-.789 1.018-1.824 1.755-3.105 2.246a633.625 633.625 0 0 1 4.895 7.087h-1.123c-1.333 0-2.667 0-4 .018-1.439-2.105-2.877-4.228-4.333-6.333h-.053c-1.14 0-2.263.017-3.404.035.035 2.123.053 4.245.088 6.368-1.456.018-2.93.035-4.386.07-.123-6.631-.245-13.245-.351-19.877 3.106-.052 6.211-.088 9.299-.123h.105zm-4.807 9.737l4.491-.053c1.088 0 1.93-.263 2.509-.789.579-.509.877-1.21.859-2.053v-.052c0-.948-.315-1.667-.929-2.14-.597-.457-1.439-.685-2.492-.685h-.087c-1.474 0-2.948.018-4.439.053.035 1.895.053 3.807.088 5.72zM112.509.035h-.123c-3.105.035-6.211.07-9.316.123l-1.509.017.035 1.492.351 19.877.035 1.491 1.492-.035c1.456-.017 2.912-.053 4.368-.07l1.491-.018-.017-1.49-.035-3.176-.018-1.685c.386 0 .772-.017 1.176-.017 1.298 1.895 2.596 3.772 3.877 5.666l.438.667h.79c1.333 0 2.667-.017 4-.017h3.965l-1.614-2.351c-1.299-1.895-2.614-3.79-3.913-5.684a8.442 8.442 0 0 0 2.071-1.878c1-1.28 1.508-2.912 1.508-4.86 0-2.368-.736-4.245-2.193-5.666-1.631-1.579-3.947-2.386-6.859-2.386zM109.14 7c.983-.018 1.948-.018 2.93-.035.79 0 1.334.14 1.667.386.105.088.351.263.351.947 0 .597-.176.842-.369 1-.298.263-.824.404-1.544.404l-.912.017c-.702 0-1.386.018-2.088.018L109.14 7z" fill="#E9E3DC"/><path d="M130 22.316l-.175-.474a1655.713 1655.713 0 0 0-8-20.053l-.421-1.035s4.421.018 6.052.035h.509l.175.492c1.509 4.052 3 8.122 4.456 12.193 1.579-4.018 3.176-8.053 4.79-12.07l.193-.474 6.456.14-.456 1.018a1223.287 1223.287 0 0 0-8.526 19.842l-.193.456-4.86-.07z" fill="#F58025"/><path d="M122.509 1.509c1.649 0 3.298.017 4.947.017 1.737 4.685 3.456 9.369 5.14 14.053 1.808-4.65 3.65-9.28 5.509-13.912l4.825.105a1299.12 1299.12 0 0 0-8.544 19.86l-3.877-.053a1408.1 1408.1 0 0 0-8-20.07zM120.281 0l.842 2.07c2.737 6.72 5.421 13.474 8 20.053l.368.947 1.018.018 3.842.052 1 .018.421-.93a1321.84 1321.84 0 0 1 8.526-19.824l.895-2.053-2.228-.053-4.825-.105-1.035-.018-.386.965a1626.11 1626.11 0 0 0-4.07 10.228 1518.242 1518.242 0 0 0-3.789-10.333l-.351-.965h-1.035c-1.667-.052-3.316-.07-4.965-.07h-2.228z" fill="#E9E3DC"/><path d="M157.667 22.895s-1.141-3.176-1.632-4.527a527.429 527.429 0 0 0-7.456-.263l-1.947 4.404-6.106-.158.474-1.035a1254.33 1254.33 0 0 1 9.193-19.772l.211-.439 5.087.176.193.456a1219.146 1219.146 0 0 1 7.79 20.368l.403 1.053-6.21-.263zm-3.632-9.948c-.474-1.263-.947-2.543-1.421-3.807-.561 1.228-1.123 2.457-1.684 3.702l3.105.105z" fill="#F58025"/><path d="M150.86 1.86c1.368.035 2.754.087 4.122.14a1099.138 1099.138 0 0 1 7.79 20.368l-4.579-.21a483.255 483.255 0 0 0-1.649-4.526 1375.26 1375.26 0 0 0-8.456-.299c-.649 1.474-1.299 2.93-1.948 4.404l-4.473-.105c3-6.615 6.07-13.193 9.193-19.772zm4.263 11.877c-.807-2.176-1.632-4.369-2.439-6.544-.965 2.123-1.93 4.228-2.895 6.35 1.772.071 3.562.141 5.334.194zM149.93.333l-.421.878A1247.142 1247.142 0 0 0 140.316 21l-.93 2.07 2.263.053 4.456.105 1 .035.404-.912c.509-1.158 1.035-2.316 1.544-3.474 2.14.07 4.298.14 6.438.228.439 1.193.86 2.386 1.298 3.58l.334.947 1 .035 4.579.21 2.263.105-.79-2.122a1252.811 1252.811 0 0 0-7.807-20.386l-.35-.913-.983-.035c-1.386-.052-2.754-.105-4.14-.14l-.965-.053zm2.14 11.807c.158-.35.316-.684.474-1.035.14.351.263.72.403 1.07-.298-.017-.579-.035-.877-.035z" fill="#E9E3DC"/><path d="M167.86 23.369l.842-15.825-5.404-.263-.754-.035.245-5.527.737.035c5.562.264 11.228.58 16.86.93l.754.053-.351 5.509-.736-.053a558.157 558.157 0 0 0-5.404-.333l-.912 15.824-5.877-.316z" fill="#F58025"/><path d="M163.491 2.491c5.614.263 11.228.58 16.842.93l-.263 4.018c-2.052-.123-4.105-.264-6.158-.369A4675.7 4675.7 0 0 1 173 22.895c-1.456-.088-2.912-.158-4.386-.246l.842-15.824a702.832 702.832 0 0 0-6.158-.299c.07-1.35.141-2.684.193-4.035zM162.07.93L162 2.42l-.105 2.263-.088 1.772-.053 1.491 1.492.07c1.544.07 3.105.14 4.649.229l-.246 4.807-.509 9.526-.07 1.491 1.491.088c1.457.07 2.913.158 4.369.245l1.491.088.088-1.491.824-14.28v-.053c1.544.087 3.106.193 4.65.28l1.491.088.087-1.491.141-2.316.105-1.72.088-1.49-1.491-.088c-5.632-.351-11.299-.667-16.878-.93L162.07.93z" fill="#E9E3DC"/><path d="M182.526 24.246L184 2.912l5.965.439-1.562 21.316-5.877-.421z" fill="#F58025"/><path d="M184.702 3.72l4.473.315c-.491 6.614-.964 13.21-1.456 19.825l-4.368-.316c.439-6.614.895-13.21 1.351-19.825zm-1.404-1.597l-.105 1.491-.667 9.702-.701 10.123-.106 1.49 1.492.106 4.368.316 1.491.105.105-1.491 1.457-19.825.105-1.49-1.491-.106-4.474-.316-1.474-.105z" fill="#E9E3DC"/><path d="M204.14 26.246c-.386 0-.789-.018-1.193-.053-1.631-.14-3.122-.579-4.438-1.263-1.316-.684-2.456-1.561-3.369-2.632a10.71 10.71 0 0 1-2.087-3.666 10.82 10.82 0 0 1-.509-4.334c.123-1.579.526-3 1.21-4.263a10.889 10.889 0 0 1 2.685-3.298 11.03 11.03 0 0 1 3.859-2.053 11.882 11.882 0 0 1 3.474-.509c.403 0 .807.018 1.228.053 1.649.158 3.175.58 4.526 1.28a11.264 11.264 0 0 1 3.404 2.685 10.649 10.649 0 0 1 2.052 3.702c.439 1.368.579 2.842.421 4.35-.157 1.562-.596 2.966-1.298 4.229a11.055 11.055 0 0 1-2.719 3.245 11.248 11.248 0 0 1-3.825 2.018c-1.087.35-2.245.509-3.421.509zm-.263-16.544c-.579 0-1.123.088-1.649.263a4.902 4.902 0 0 0-1.772 1 5.685 5.685 0 0 0-1.246 1.632 5.866 5.866 0 0 0-.578 2.087c-.071.807 0 1.527.21 2.228.211.684.526 1.281.947 1.825a5.36 5.36 0 0 0 1.597 1.333 4.824 4.824 0 0 0 2.088.614c.193.018.386.018.561.018a5.27 5.27 0 0 0 1.614-.246c.667-.228 1.246-.544 1.737-1 .509-.456.93-1 1.246-1.631a5.896 5.896 0 0 0 .596-2.07c.07-.825.018-1.527-.175-2.229a5.11 5.11 0 0 0-.948-1.842 5.355 5.355 0 0 0-1.596-1.333c-.614-.351-1.334-.561-2.123-.632-.14 0-.333-.017-.509-.017z" fill="#F58025"/><path d="M203.754 4.93c.386 0 .755.017 1.158.052 1.562.14 2.983.544 4.246 1.21 1.263.668 2.316 1.492 3.193 2.51a9.86 9.86 0 0 1 1.895 3.438c.403 1.281.526 2.632.386 4.053v.053a9.753 9.753 0 0 1-1.211 3.877 10.57 10.57 0 0 1-2.526 3.035 10.344 10.344 0 0 1-3.562 1.877c-1.017.316-2.07.474-3.193.474-.368 0-.754-.018-1.122-.053-1.527-.14-2.913-.526-4.158-1.175a10.744 10.744 0 0 1-3.158-2.456 9.904 9.904 0 0 1-1.93-3.404 10.35 10.35 0 0 1-.474-4.035v-.053c.106-1.42.474-2.719 1.123-3.912a9.912 9.912 0 0 1 2.509-3.07c1.035-.86 2.228-1.491 3.596-1.93a10.278 10.278 0 0 1 3.228-.491zm.299 16.544c.649 0 1.263-.088 1.842-.281.754-.263 1.421-.632 2-1.158a6.173 6.173 0 0 0 1.421-1.842c.368-.72.596-1.491.666-2.35v-.054a6.283 6.283 0 0 0-.21-2.438 5.98 5.98 0 0 0-1.07-2.105 6.114 6.114 0 0 0-1.807-1.527c-.72-.403-1.527-.631-2.421-.719a7.439 7.439 0 0 0-.614-.035 6.1 6.1 0 0 0-1.878.298 5.706 5.706 0 0 0-2.035 1.158 6.121 6.121 0 0 0-1.403 1.86 6.237 6.237 0 0 0-.649 2.35v.053c-.07.842.017 1.667.245 2.439a6.012 6.012 0 0 0 2.895 3.596 6.314 6.314 0 0 0 2.386.72c.228.017.421.035.632.035zm-.299-18.035c-1.28 0-2.526.175-3.701.543-1.544.474-2.93 1.21-4.106 2.193a11.406 11.406 0 0 0-2.859 3.527c-.737 1.368-1.158 2.877-1.299 4.491-.122 1.667.053 3.228.544 4.684a11.13 11.13 0 0 0 2.228 3.912c.983 1.14 2.193 2.07 3.597 2.807 1.403.737 2.982 1.193 4.719 1.351.439.035.86.053 1.263.053 1.264 0 2.474-.175 3.632-.526 1.526-.474 2.895-1.193 4.07-2.158a12.219 12.219 0 0 0 2.895-3.456 11.426 11.426 0 0 0 1.386-4.456c.175-1.667.017-3.246-.439-4.702a11.534 11.534 0 0 0-2.193-3.965 12.27 12.27 0 0 0-3.631-2.86c-1.439-.754-3.053-1.21-4.807-1.368-.439-.053-.878-.07-1.299-.07zm-4.368 11.438l.018-.105c.052-.684.21-1.263.491-1.825a4.792 4.792 0 0 1 1.07-1.42 4.057 4.057 0 0 1 1.491-.86 4.64 4.64 0 0 1 1.421-.21c.158 0 .316 0 .491.017.702.07 1.299.245 1.825.543.544.299 1 .685 1.368 1.158.369.457.632.983.807 1.58.176.596.229 1.227.158 1.894-.07.702-.245 1.316-.526 1.86a4.785 4.785 0 0 1-1.088 1.403 4.058 4.058 0 0 1-1.491.86 4.3 4.3 0 0 1-1.368.21c-.158 0-.334 0-.492-.017a4.342 4.342 0 0 1-1.789-.526 4.562 4.562 0 0 1-2.193-2.72 5.42 5.42 0 0 1-.193-1.842z" fill="#E9E3DC"/><path d="M231.667 28.895l-.193-.316a1006.541 1006.541 0 0 0-7.053-11.807l-1.246 11.123-5.789-.632 2.263-21.245 5.228.561.193.316a757.806 757.806 0 0 1 6.895 11.386l1.298-10.72 5.877.737-2.684 21.21-4.789-.613z" fill="#F58025"/><path d="M220.316 6.842c1.368.14 2.737.298 4.105.439a957.108 957.108 0 0 1 8.018 13.245l1.473-12.158c1.456.176 2.93.369 4.404.544-.825 6.58-1.667 13.14-2.491 19.72a268.91 268.91 0 0 0-3.702-.457 907.09 907.09 0 0 0-8.193-13.684c-.474 4.193-.93 8.369-1.404 12.562l-4.315-.474c.701-6.561 1.403-13.14 2.105-19.737zM219 5.193l-.158 1.491-1.386 12.93-.737 6.842-.158 1.491 1.492.158c1.421.158 2.842.316 4.263.456l1.491.158.211-1.473.912-8.193c1.982 3.28 3.965 6.614 5.912 9.912l.369.631.736.088c1.228.14 2.474.299 3.702.456l1.474.193.193-1.473.175-1.386 2.316-18.334.193-1.49-1.491-.194-.913-.123c-1.157-.14-2.315-.298-3.491-.438l-1.491-.176-.175 1.492-.141 1.14-.807 6.667a815.276 815.276 0 0 0-5.789-9.51l-.386-.613-.72-.088c-1.368-.158-2.736-.298-4.122-.456L219 5.193zm-35.947 38.246l39.438 92.684h-22.386l-8.28-20.334h-37.369l-8.281 20.316h-21.877l39.439-92.684h19.316v.018zm-16.79 53.526H181l-1.035-2.158-1.035-1.158-2.421-1.561.21-2.825-.491-.526 1.544-1.79.035-2.14 2.86-3.035 3.649-2.421-.772-.07-2-.351-.526-.334-1.404.702-1.386-.895-.982.229-1.807-1.369-1.842.105-2.176-.877-.333-2.07h-1.527v1.474l-4.894.017 1.754 11.755-1.07 1.42.93 1.141v6.737h-.018zm17.772-55.035h-21.281l-.386.912-39.438 92.684-.877 2.088h25.122l.386-.93 7.913-19.386h35.368l7.912 19.386.386.93h25.65l-.878-2.088-39.438-92.684-.439-.912zm-17.631 35.456h3.631l.035.175.79.316 2.175.877.316.123.333-.017 1.298-.07 1.369 1.017.561.421.685-.158.368-.088.86.562.596.386-2.684 2.842-.404.421-.017.579-.035 1.614-1.193 1.386-.877 1.017.912.983.052.052-.157 2.176-.071.877.737.474 2.246 1.456.596.667h-10.789v-5.79l-.333-.42-.193-.229.368-.491.368-.491-.087-.614-1.456-10.053z" fill="#E9E3DC"/><path d="M182.123 44.842h-17.456l-38.246 89.877h18.789l8.299-20.333h39.263l8.281 20.333h19.315l-38.245-89.877zm-5.404 44.421l-.21 2.825 2.421 1.561 1.035 1.158L181 96.965h-14.737v-6.772l-.93-1.14 1.07-1.421-1.754-11.755 4.895-.017v-1.474h1.526l.333 2.07 2.176.877 1.842-.105 1.807 1.35.983-.227 1.385.895 1.404-.702.526.333 2 .351.772.07-3.649 2.421-2.86 3.035-.035 2.14-1.543 1.79.508.58z" fill="#C7B99B"/><path d="M56.807 44.088v92.035h-21.35V44.088h21.35zm1.491-1.492H33.965v95.018h24.333V42.596zm17.877-4.859c1.228 0 2.21 1 2.21 2.21v13.21c.404-1.14 1.124-2.841 2.054-3.859.508-.737 1.263-1.316 2.087-1.666.018-3.14.386-3.772 3.51-3.772h23.894c8.842 0 17.333 3 22.333 7.614A18.969 18.969 0 0 1 138 58.56c1.088 2.351 1.667 4.913 1.825 7.492h1.456v2.333l-1.421-.035v.228a20.693 20.693 0 0 1-3.053 9.86 20.813 20.813 0 0 1-7.544 7.263c-1.544.86-3.21 1.579-4.965 1.965-.877.21-1.754.35-2.649.438-.438.035-.877.07-1.351.088l-.351.017h-1.929l-.211 3.053h-13.123c-.316 3.14-2.175 21.228-3.789 33.772-.492 3.825.263 7.035 2.245 9.509 3.579 4.474 10.018 5.158 10.088 5.175l.333.035 3.544 9.281H98.228L97 159.947c.123 0 .228.018.35.035a58 58 0 0 1 3.036.404c.789.123 2.368.403 2.368.403l.649.158h.018c.684-1 3.632-5.21 4.772-6.912.684-1 1.667-1.684 2.333-1.684.597 0 .93.579.509 2.017-.789 2.632-2.035 7.299-2.316 8.421 1.597.772 2.684 1.65 2.684 2.562 0 .912-1.087 1.772-2.684 2.561.299 1.123 1.527 5.772 2.316 8.404.439 1.438.105 2.017-.509 2.017-.666 0-1.649-.684-2.333-1.684a830.46 830.46 0 0 0-4.772-6.912h-.018l-.649.158v-.018c-2.07.474-4.14.807-6.245 1v.035c-2.14.263-3.544 3.597-4.772 7.176-.895 2.614-2.21 2.965-2.842 2.965h-.105c-.913-.053-1.65-.807-1.86-1.86-.298-1.474-.667-3.86-1.123-6.895l-.228-1.509a36.668 36.668 0 0 1-2.456-.333c-2.246-.368-4.456-.877-6.632-1.596-1.088-.369-2.14-.79-3.175-1.351-.509-.281-1.018-.579-1.474-1.018-.228-.228-.456-.456-.579-.877a.775.775 0 0 1-.035-.175v-.158c0-.123.035-.211.07-.316.07-.193.176-.333.28-.474.422-.509.93-.824 1.422-1.123a12.923 12.923 0 0 1 1.561-.771 27.037 27.037 0 0 1 3.228-1.141 47.652 47.652 0 0 1 6.614-1.351v-21.666c0-1.527-3-3.018-4.052-3.439a.513.513 0 0 1-.334-.474c0-.21.106-.403.299-.491 1.579-.737 4.087-2.333 4.087-3.509v-17.824c-.386.123-.771.228-1.175.316-1.14.245-2.28.333-3.403.368h-.878v-7.368h2.825c-.053-.772-.105-1.544-.175-2.316h-6.334v1.965H70.44l-.035-.492-.088-1.473h-1.053v3.895c0 .789-.912 1.456-1.666 1.456-.702 0-1.281-.562-.948-2.088.404-1.895.912-3 1.263-3.597v-1.157c-.35-.597-.86-1.702-1.263-3.597-.316-1.561.263-2.123.965-2.123.772 0 1.667.667 1.667 1.456v3.895h.965l-.158-3.193c-.018-.28-.035-.526-.035-.824 0-.299 0-.58.052-.878.088-.579.28-1.175.597-1.684A4.56 4.56 0 0 1 71.965 94a6.038 6.038 0 0 1 1.579-.702c.544-.158 1.105-.245 1.631-.35l1.158-.194c.176-.228.123-.526 0-.79h-.21c-.948 0-1.895-.35-2.597-.964a4.312 4.312 0 0 1-1.456-2.684 3.782 3.782 0 0 1-.035-.772l.035-.667.07-1.333.158-2.684.316-5.369 1.228-21.42h-1.28v-1.667h1.403V39.947a2.2 2.2 0 0 1 2.21-2.21zm0-1.509a3.721 3.721 0 0 0-3.719 3.72v12.964h-1.403v4.649h1.193l-1.123 19.842-.316 5.369-.158 2.684-.07 1.334-.035.684c-.018.42.017.772.053 1.052a5.927 5.927 0 0 0 1.894 3.562 7.648 7.648 0 0 0-1.316.649 5.603 5.603 0 0 0-1.736 1.72 4.597 4.597 0 0 0-.457.876A3.205 3.205 0 0 0 67.614 95c-.79 0-1.474.316-1.93.895-.579.72-.754 1.737-.474 3 .387 1.754.843 2.93 1.229 3.666v.404c-.386.737-.86 1.93-1.228 3.667-.281 1.263-.106 2.28.473 3 .474.579 1.158.894 1.93.894 1.491 0 3.175-1.263 3.175-2.947v-.421h6.001v-1.965h.684v9.667l1.473.017h.877c1.158-.017 2.158-.105 3.088-.28v15.807c-.245.438-1.561 1.491-3.228 2.263a1.991 1.991 0 0 0-1.158 1.912 1.984 1.984 0 0 0 1.316 1.807c1.333.526 2.93 1.596 3.07 2.088v20.316a44.225 44.225 0 0 0-5.509 1.21c-1.263.368-2.386.754-3.403 1.193-.632.263-1.21.544-1.72.842-.49.298-1.21.737-1.824 1.456a3.304 3.304 0 0 0-.526.877l-.018.036-.017.052c-.07.193-.123.421-.14.719l-.018.123.017.088v.105c.018.106.035.246.053.351l.017.07.018.07c.228.79.667 1.246.948 1.527.649.614 1.28.982 1.824 1.28.965.527 2.018.965 3.403 1.439 2.106.719 4.351 1.246 6.86 1.667.439.07.895.14 1.404.21l.052.386c.457 2.913.842 5.439 1.14 6.965.352 1.719 1.65 2.948 3.246 3.053h.21c.878 0 3.036-.386 4.246-3.965 1.351-3.965 2.544-6.053 3.527-6.176l1.508-.193v-.017a60.638 60.638 0 0 0 3.053-.474v.088l1.526-.368a583.206 583.206 0 0 1 4.158 6.052c.737 1.088 2.106 2.351 3.562 2.351.702 0 1.333-.316 1.737-.842.543-.737.614-1.737.21-3.088a229.002 229.002 0 0 1-2-7.228c1.632-1 2.439-2.088 2.439-3.298 0-1.211-.807-2.298-2.439-3.298.509-1.913 1.404-5.193 2.018-7.228.403-1.351.333-2.369-.211-3.088-.421-.562-1.052-.86-1.754-.86-1.456 0-2.825 1.263-3.562 2.351-.929 1.386-3.052 4.439-4.175 6.07-.474-.087-1.544-.263-2.158-.368-.667-.105-1.316-.211-1.947-.281l.912-8.088h19.719l-.772-2.035-3.544-9.28-.333-.86-.912-.088-.334-.035c-.228-.035-5.964-.737-9.052-4.614-1.719-2.158-2.369-4.982-1.93-8.386 1.474-11.491 3.175-27.684 3.667-32.456h13.175l.088-1.386.105-1.667h.562l.368-.017c.491-.018.965-.053 1.439-.105 1.052-.123 1.964-.264 2.842-.474 1.736-.386 3.491-1.07 5.351-2.123a22.226 22.226 0 0 0 8.087-7.79 22.49 22.49 0 0 0 3.176-9.315l1.526.052v-5.421h-1.579c-.281-2.386-.895-4.596-1.825-6.614-1.368-2.965-3.491-5.596-6.122-7.614-5.369-4.912-14.281-7.965-23.299-7.965H86.035c-3.877 0-4.825 1.351-4.982 4.351a6.694 6.694 0 0 0-1.176.93v-7.702a3.695 3.695 0 0 0-3.702-3.719z" fill="#E9E3DC"/><path d="M56.105 44.79H36.158v90.631h19.947V44.79z" fill="#C7B99B"/><path d="M56.807 136.105h-21.35V44.088h21.35v92.017zm-19.947-1.386h18.544V45.491H36.86v89.228zm185.631 1.386h-22.386l-8.28-20.315h-37.369l-8.281 20.333h-21.877l39.439-92.684h19.316l39.438 92.666zm-21.438-1.386h19.315l-38.245-89.877h-17.456l-38.246 89.877h18.79l8.298-20.333h39.263l8.281 20.333z" fill="#4B3900"/><path d="M171.088 74.403l.333 2.07 2.175.878 1.843-.105 1.807 1.35.982-.228 1.386.895 1.404-.702.526.334 2 .35.772.07-3.649 2.422-2.86 3.035-.035 2.14-1.544 1.79.491.526-.21 2.825 2.421 1.561 1.035 1.158L181 96.93h-14.737v-6.772l-.93-1.14 1.07-1.421-1.754-11.755 4.895-.017V74.35h1.544v.052zm1.123-1.315h-4v1.472h-5.106l.228 1.527L165 87.28l-.737.982-.614.825.649.807.614.772v7.631h18.193l-.93-1.912-1.035-2.14-.087-.158-.123-.14-1.035-1.158-.123-.14-.158-.106-1.754-1.14.158-2.053.035-.58-.071-.087.755-.877.316-.368.017-.474.035-1.632 2.404-2.543 3.509-2.334 3.14-2.088-3.755-.35-.719-.07-1.684-.299-.316-.193-.631-.403-.667.333-.719.368-.72-.49-.473-.3-.544.124-.386.087-1.298-.965-.386-.298-.492.035-1.543.088-1.211-.491-.211-1.334-.192-1.122z" fill="#4B3900"/><path d="M77.175 40.526v13.86h-1V42.544s0-1.421-1.14-2.28c-.684-.527 2.14-.948 2.14.262z" fill="#EAE3D6"/><path d="M76.386 90.561a3.255 3.255 0 0 1-2.07-.561c-.597-.421-1.07-1.088-1.193-1.842a2.003 2.003 0 0 1-.035-.561l.035-.667.07-1.334.14-2.684.281-5.368 1.14-20.983h2.772l1.685 31.123c0 .79-.334 1.509-.878 2.035a3.266 3.266 0 0 1-1.947.842z" fill="#D9CEB8"/><path d="M75.28 101.825v-1.299h5.983c.053.263.088.527.123.807l.053.492H75.28z" fill="#C7B99B"/><path d="M82.947 111.474a15.53 15.53 0 0 1-2.228.158v-3.878h2.965l-.087-.947c-.14-1.263-.281-2.526-.457-3.789a81.18 81.18 0 0 0-.28-1.913c-.106-.631-.246-1.316-.527-2-.158-.333-.35-.702-.631-1a2.805 2.805 0 0 0-1.053-.684c-.386-.14-.772-.175-1.123-.193h-.509l-.473.018c-1.28.052-2.544.122-3.807.21l-.509.035v7.105h-2.79c-.175-2-.333-4.017-.473-6.017-.035-.561-.088-1.053-.018-1.544.053-.491.21-.965.456-1.368.51-.825 1.404-1.369 2.386-1.685.492-.157 1-.263 1.544-.35l1.597-.281c1.07-.176 2.14-.334 3.228-.456l1.614-.176c.544-.052 1.088-.14 1.596-.158 1.035-.052 2.07.158 2.825.79.772.614 1.246 1.579 1.544 2.579.14.509.246 1.017.333 1.544.035.263.07.526.088.79l.07.806c.21 2.158.456 4.316.263 6.421-.105 1.035-.333 2.053-.79 2.93a5.116 5.116 0 0 1-1.947 2.105 5.734 5.734 0 0 1-.807.404.564.564 0 0 0-.368.14c-.526.176-1.088.316-1.632.404z" fill="#A39168"/><path d="M89.105 99.193c.351-.07 1.439-.246 2.842-.333v10.684H88.51c.105-.193.21-.386.298-.597.491-1.087.702-2.245.772-3.368.123-2.193-.193-4.298-.474-6.386z" fill="#C7B99B"/><path d="M86.509 150.825v9.052l-1.053.105v-9.35c.316.052.667.122 1.053.193z" fill="#A39168"/><path d="M85.456 147.982v-9.333c-.017-.438.386-.86 1.053-1.245v8.929s0 1.263-.807 1.632h-.246v.017z" fill="#C7B99B"/><path d="M88.561 159.737v-8.474c2.123.526 4.86 1.439 8 3.228l-.596 5.369c-.544-.035-1.105-.088-1.667-.123a58.66 58.66 0 0 0-3.052-.07c-.895 0-1.79.035-2.685.07z" fill="#A39168"/><path d="M99.877 124.912a18.94 18.94 0 0 0-.14 1.702c-1 13.702 7.544 15.404 9.017 17.193 1.106 1.351.404 3.053.404 3.053h3.965l-1.895-4.807s-7.667-.527-10.474-9.509c.404.965.948 1.86 1.597 2.667 3.421 4.28 9.035 5.315 10.474 5.508l2.772 7.263h-26.07c-.966-.368-.966-1.684-.966-1.684v-9.701c2.58-.79 6.264-1.316 8.948-1.351.631-.018.42-.667.052-.667H81.947c-.07-.035-.122-.07-.193-.105 1.404-.772 3.702-2.316 3.702-3.948v-18.245c.351-.176.702-.369 1.035-.579v19.824c0 .579-.614.878-.614.878h4.246s-1.58-.386-1.58-1.386v-19.895h4.089v-12.28c1.543-.071 3.35 0 5 .385 3.333.772 4.649 3.053 4.719 4.246a1101.444 1101.444 0 0 1-2.474 21.438z" fill="#C7B99B"/><path d="M116.86 90.21H80.632c.315-.456 1.21-1.86 3.368-2h32.982l-.122 2z" fill="#A39168"/><path d="M86.07 44.912h23.895c5.544 0 10.982 1.158 15.439 3.176a21.543 21.543 0 0 0-3.316-.737c-1.649-.263-3.334-.333-4.983-.316h-4.912l-9.825.018H86.386c-.403 0-.825 0-1.263.017-.491.035-1 .105-1.509.21.018-2.368.193-2.368 2.456-2.368zm48.562 32.053a18.152 18.152 0 0 1-6.878 5.807c-1.35.667-2.789 1.105-4.228 1.456-.719.175-1.456.298-2.21.369-.369.035-.755.07-1.105.07l-.264.017H93.544C82.28 84.58 80.28 79.456 80.28 76.912v-9.438l3.473.228v4.842c0 3.14 2.544 5.684 5.667 5.684h25.088c5.561 0 10.158-4.14 10.912-9.474 10.176.316 11.386 3.07 11.404 4.106a17.119 17.119 0 0 1-2.193 4.105z" fill="#C7B99B"/><path d="M124.719 68.737c-.737 4.982-5.035 8.807-10.21 8.807H89.421a4.972 4.972 0 0 1-4.965-4.965v-5.912l40.351 1.228c-.017.228-.035.473-.07.719l-.035.14.017-.017z" fill="#EAE3D6"/><path d="M80.263 66.053l-.035-.492-.017-8.772v-2.456c0-.79.052-1.579.21-2.35.158-.755.421-1.474.842-2.07a3.99 3.99 0 0 1 1.684-1.352 6.646 6.646 0 0 1 2.228-.473c.386-.018.79-.018 1.193-.018h6.141l9.842.018h14.737a27.343 27.343 0 0 1 4.807.35 23.44 23.44 0 0 1 4.631 1.246 18.946 18.946 0 0 1 4.193 2.263c1.281.913 2.456 2 3.439 3.228a16.785 16.785 0 0 1 2.386 4.036 18.691 18.691 0 0 1 1.403 6.842H80.263z" fill="#C7B99B"/><path d="M77.474 87.35a1.333 1.333 0 1 0-1.334 1.334c.755 0 1.334-.596 1.334-1.333zm7.491 7.44a1.39 1.39 0 0 0-1.386-1.387 1.39 1.39 0 0 0-1.386 1.386c0 .772.614 1.386 1.386 1.386.772 0 1.386-.631 1.386-1.385zm29.456-38.299H93.035c-.579 0-.684-.21-.684-.824v-2.65h-2.948a5.316 5.316 0 0 0-5.315 5.334v8.07h41.052c-.351-5.93-4.666-9.93-10.719-9.93z" fill="#EAE3D6"/><path d="M114.421 56.193H93.035c-.333 0-.333 0-.333-.491v-3h-3.299c-3.122 0-5.684 2.544-5.684 5.666v5.614h.702v-5.614c0-2.736 2.228-4.982 4.965-4.982h2.597v2.298c0 .58.07 1.193 1.034 1.193h21.387c4.947 0 8.771 2.755 9.982 7.193l.684-.193c-1.298-4.737-5.386-7.684-10.649-7.684zM85.579 94.947a1.841 1.841 0 0 0-.65-1.333 2.01 2.01 0 0 0-1.332-.509c-.474-.017-.965.176-1.334.509a1.923 1.923 0 0 0-.631 1.333 2.002 2.002 0 0 0 .526 1.456c.368.404.895.65 1.474.65.245 0 .543-.053.789-.158a2.56 2.56 0 0 0 .667-.474c.35-.421.526-.965.49-1.474zm-1.193.772a1.54 1.54 0 0 1-.368.21c-.14.036-.246.071-.421.071-.527.017-1.123-.421-1.176-1.053-.035-.315.07-.649.28-.894.211-.246.545-.404.896-.421.35-.018.684.157.912.42a1.3 1.3 0 0 1 .28.895 1.052 1.052 0 0 1-.403.772zm-7.088-9.298a1.896 1.896 0 0 0-1.158-.439c-.824-.035-1.666.65-1.719 1.58-.035.438.123.93.439 1.28.316.351.79.58 1.28.58a1.67 1.67 0 0 0 1.299-.58c.315-.368.473-.842.438-1.298v-.018c-.017-.403-.245-.824-.579-1.105zm-.07 1.158c-.035.28-.175.526-.386.684a1.25 1.25 0 0 1-.684.246 1.075 1.075 0 0 1-1.088-.948 1.143 1.143 0 0 1 .246-.824 1.21 1.21 0 0 1 .842-.404c.316 0 .649.14.842.386.175.281.263.562.228.86z" fill="#4B3900"/><path d="M139.825 66.053c-.158-2.58-.72-5.14-1.825-7.492a18.832 18.832 0 0 0-5.737-7.087c-4.982-4.614-13.491-7.614-22.316-7.614H86.035c-3.123 0-3.491.631-3.509 3.772-.824.35-1.561.93-2.087 1.666-.93 1.018-1.65 2.737-2.053 3.86v-13.21c0-1.229-1-2.211-2.21-2.211a2.2 2.2 0 0 0-2.211 2.21v14.456H72.56v1.667h1.281l-1.228 21.421-.316 5.369-.158 2.684-.07 1.333-.035.667c-.017.28 0 .526.035.79.14 1.017.65 2 1.456 2.666a3.978 3.978 0 0 0 2.807.965c.123.263.176.561 0 .79l-1.158.192c-.526.088-1.105.176-1.631.351a6.037 6.037 0 0 0-1.58.702c-.49.316-.947.737-1.262 1.263a3.969 3.969 0 0 0-.597 1.684 7.578 7.578 0 0 0-.052.878c0 .298.017.543.035.824l.158 3.193h-.965v-3.895c0-1.508-3.316-2.579-2.614.632.403 1.895.912 3.018 1.263 3.614v1.158c-.351.596-.86 1.702-1.263 3.596-.702 3.211 2.614 2.141 2.614.632v-3.895h1.052l.088 1.474.035.491h4.825v-1.965h6.333c.07.772.123 1.544.175 2.316h-2.824v7.368l.877.018a17.495 17.495 0 0 0 3.404-.368c.386-.088.79-.193 1.175-.316v17.824c0 1.158-2.509 2.772-4.088 3.509a.498.498 0 0 0-.298.491c0 .211.14.404.333.474 1.053.404 4.053 1.912 4.053 3.439v21.684a47.51 47.51 0 0 0-6.614 1.351 27.22 27.22 0 0 0-3.228 1.14c-.526.228-1.053.474-1.561.772-.51.298-1 .614-1.421 1.123-.106.14-.211.281-.281.473a.84.84 0 0 0-.07.316v.158c0 .018.017.105.035.176.122.421.35.649.579.877.456.438.965.737 1.473 1.017 1.018.562 2.088.965 3.176 1.334 2.158.737 4.386 1.245 6.631 1.596.825.141 1.65.228 2.457.334l.228 1.508c.473 3.035.824 5.421 1.122 6.895.21 1.053.965 1.789 1.86 1.86h.105c.632 0 1.948-.351 2.842-2.965 1.21-3.562 2.632-6.895 4.772-7.158v-.035a53.352 53.352 0 0 0 6.246-1v.017l.649-.158h.018c.684 1 3.614 5.228 4.772 6.913 1.298 1.93 3.736 2.684 2.824-.334-.789-2.631-2.035-7.298-2.316-8.403 1.597-.772 2.685-1.649 2.685-2.562 0-.894-1.088-1.771-2.685-2.561.299-1.123 1.527-5.772 2.316-8.421.912-3-1.526-2.246-2.824-.333a881.98 881.98 0 0 1-4.772 6.912h-.018s-2.228-.439-3.017-.561a59.571 59.571 0 0 0-3.036-.404c-.105-.018-.228-.018-.35-.035l1.228-10.912h18.877l-3.544-9.281-.333-.035c-.071 0-6.509-.684-10.088-5.176-1.983-2.473-2.737-5.684-2.246-9.508 1.614-12.544 3.474-30.632 3.79-33.772h13.123l.21-3.053h1.93l.351-.017c.473-.018.895-.053 1.351-.088a22.55 22.55 0 0 0 2.649-.439c1.754-.386 3.403-1.105 4.965-1.965a20.812 20.812 0 0 0 7.544-7.263c1.824-2.982 2.894-6.403 3.052-9.86v-.228l1.421.053v-2.35h-1.473v-.018zm-53.79-21.14h23.895c5.544 0 10.982 1.157 15.438 3.175a21.52 21.52 0 0 0-3.315-.737c-1.649-.263-3.334-.333-4.983-.316h-4.912l-9.825.018H86.351c-.404 0-.825 0-1.263.017-.509.035-1 .105-1.51.21.019-2.368.212-2.368 2.457-2.368zm-8.86-4.387v13.86h-1V42.544s0-1.421-1.14-2.28c-.684-.527 2.14-.948 2.14.262zm-.789 50.035a3.254 3.254 0 0 1-2.07-.561c-.597-.421-1.07-1.088-1.193-1.842a2.019 2.019 0 0 1-.035-.561l.035-.667.07-1.334.14-2.684.281-5.368 1.14-20.983h2.772l1.684 31.123c0 .79-.333 1.509-.877 2.035a3.265 3.265 0 0 1-1.947.842zm-1.105 11.264v-1.299h5.982c.053.264.088.527.123.807l.053.492H75.28zm7.666 9.649a15.53 15.53 0 0 1-2.228.158v-3.878h2.965l-.087-.947c-.14-1.263-.281-2.526-.457-3.789a81.18 81.18 0 0 0-.28-1.913c-.106-.631-.246-1.316-.527-2-.158-.333-.35-.702-.631-1a2.803 2.803 0 0 0-1.053-.684c-.386-.14-.772-.175-1.123-.193h-.509l-.473.018c-1.28.052-2.544.123-3.807.21l-.509.035v7.106h-2.79c-.175-2-.333-4.018-.473-6.018-.035-.561-.088-1.053-.018-1.544.053-.491.21-.965.456-1.368.51-.825 1.404-1.369 2.386-1.684.492-.158 1-.264 1.544-.351l1.597-.281a64.98 64.98 0 0 1 3.228-.456l1.614-.176c.544-.052 1.088-.14 1.596-.158 1.035-.052 2.07.158 2.825.79.772.614 1.246 1.579 1.544 2.579.14.509.246 1.017.333 1.544.035.263.07.526.088.79l.07.806c.21 2.158.456 4.316.263 6.421-.105 1.035-.333 2.053-.79 2.93a5.116 5.116 0 0 1-1.947 2.105 5.734 5.734 0 0 1-.807.404.565.565 0 0 0-.368.14c-.526.176-1.088.316-1.632.404zm6.158-12.281c.351-.07 1.439-.246 2.842-.333v10.684H88.51c.105-.193.21-.386.298-.597.491-1.087.702-2.245.772-3.368.123-2.193-.193-4.298-.474-6.386zm-7.544 68.088c-4.579-.72-7.807-1.79-7.807-2.632 0-.824 2.807-2.281 7.807-3.281v5.913zm9.176 10.473c-.58 1.702-1.351 2.281-1.877 2.246-.421-.018-.79-.439-.913-1.018-.122-.631-.263-1.473-.438-2.456.649-1.017 2.35-3.14 5.561-4.158-.947 1.509-1.684 3.492-2.333 5.386zm6.526-16.982c.632.088 1.263.193 1.895.298.561.158 1.088.298 1.474.404 1.666.438 2.087.842 2.105 1.824v3.123c-2.754.947-7.474 1.632-11.088 1.632a67.27 67.27 0 0 1-9.403-.667v-6.158a59.513 59.513 0 0 1 5.93-.754 88.92 88.92 0 0 1 3.052-.106c1 0 2.018.036 3.018.106 1.017.07 2.017.158 3.017.298zm-10.754-9.947v9.052l-1.053.105v-9.35c.316.052.667.122 1.053.193zm-1.053-2.843v-9.333c-.017-.438.386-.859 1.053-1.245v8.929s0 1.264-.807 1.632h-.246v.017zm3.105 11.755v-8.474c2.123.527 4.86 1.439 8 3.228l-.596 5.369c-.544-.035-1.105-.088-1.667-.123a58.66 58.66 0 0 0-3.052-.07c-.895 0-1.79.035-2.685.07zm11.316-34.825a18.94 18.94 0 0 0-.14 1.702c-1 13.702 7.544 15.404 9.017 17.193 1.106 1.351.404 3.053.404 3.053h3.965l-1.895-4.807s-7.667-.527-10.474-9.509c.404.965.948 1.86 1.597 2.667 3.421 4.28 9.035 5.315 10.474 5.508l2.771 7.263h-26.07c-.965-.368-.965-1.684-.965-1.684v-9.701c2.58-.79 6.264-1.316 8.948-1.351.631-.018.42-.667.052-.667H81.947c-.07-.035-.122-.07-.193-.105 1.386-.772 3.702-2.316 3.702-3.948v-18.245c.351-.176.702-.369 1.035-.579v19.824c0 .579-.614.878-.614.878h4.246s-1.58-.386-1.58-1.386v-19.895h4.089v-12.28c1.543-.071 3.35 0 5 .385 3.333.772 4.649 3.053 4.719 4.246a1101.444 1101.444 0 0 1-2.474 21.438zm16.983-34.701H80.632c.315-.457 1.21-1.86 3.368-2h32.982l-.122 2zm17.754-13.246a18.15 18.15 0 0 1-6.877 5.807c-1.351.667-2.79 1.105-4.228 1.456-.72.175-1.456.298-2.211.369-.368.035-.754.07-1.105.07l-.263.017H93.526c-11.263-.105-13.263-5.228-13.263-7.772v-9.438l3.474.228v4.842a5.683 5.683 0 0 0 5.684 5.684h25.088c5.561 0 10.158-4.14 10.912-9.474 10.175.316 11.386 3.07 11.404 4.106a19.238 19.238 0 0 1-2.211 4.105zm-9.912-8.228c-.737 4.982-5.035 8.807-10.211 8.807H89.403a4.972 4.972 0 0 1-4.964-4.965v-5.912l40.35 1.228c-.017.228-.035.474-.07.72l-.017.122c-.018 0-.018 0 0 0zm-44.474-2.684l-.035-.492-.018-8.772v-2.456c0-.79.053-1.579.211-2.35.158-.755.421-1.474.842-2.07a3.99 3.99 0 0 1 1.684-1.352 6.643 6.643 0 0 1 2.228-.473c.386-.018.79-.018 1.193-.018h6.141l9.842.018h14.737a27.343 27.343 0 0 1 4.807.35c1.579.264 3.14.667 4.631 1.246a19.364 19.364 0 0 1 4.193 2.263c1.298.913 2.456 2 3.439 3.228a16.783 16.783 0 0 1 2.386 4.036 18.69 18.69 0 0 1 1.403 6.842H80.228zm44.07 74.351h1.474v8.368h-1.474v-8.368zm3.702 0h1.368l4.492 5.789v-5.789h1.456v8.368h-1.228l-4.614-5.965v5.965h-1.456v-8.368H128zm9.456 0h3.123c.667 0 1.263.105 1.807.315a4.236 4.236 0 0 1 1.403.877c.386.369.702.808.913 1.316.21.509.316 1.053.316 1.649v.018c0 .596-.106 1.14-.316 1.649a4.108 4.108 0 0 1-.913 1.333 4.222 4.222 0 0 1-1.403.878c-.544.21-1.14.315-1.807.315h-3.123v-8.35zm3.123 7.017c.439 0 .842-.07 1.193-.21.351-.141.667-.334.912-.579a2.62 2.62 0 0 0 .579-.895 2.96 2.96 0 0 0 .211-1.123v-.018c0-.403-.07-.789-.211-1.14a2.62 2.62 0 0 0-.579-.895 2.738 2.738 0 0 0-.912-.596 3.282 3.282 0 0 0-1.193-.211h-1.649v5.667h1.649zm6.316-7.017h1.473v8.368h-1.473v-8.368zm6.684-.053h1.368l3.685 8.438h-1.562l-.842-2.017h-3.965l-.86 2.017h-1.508l3.684-8.438zm2.105 5.088l-1.456-3.351-1.421 3.351h2.877zm7.965-5.035h3.298c.492 0 .93.07 1.316.192.404.141.737.316 1 .562a2.4 2.4 0 0 1 .632.877c.14.351.228.737.228 1.158v.018c0 .473-.088.877-.263 1.245a2.751 2.751 0 0 1-.72.895 3.09 3.09 0 0 1-1.07.544 4.457 4.457 0 0 1-1.298.193h-1.667v2.684h-1.473v-8.368h.017zm3.193 4.368c.562 0 1-.14 1.316-.421.316-.281.491-.632.491-1.07v-.018c0-.491-.158-.877-.491-1.123-.333-.245-.772-.368-1.316-.368h-1.702v3.017h1.702v-.017zm6.93-4.421h1.368l3.685 8.438h-1.562l-.842-2.017h-3.965l-.859 2.017h-1.509l3.684-8.438zm2.105 5.088l-1.456-3.351-1.439 3.351h2.895zm4.386-5.035h1.474v7.017h4.403v1.351h-5.877v-8.368zm7.404 0h6.21v1.315h-4.737v2.176h4.193v1.316h-4.193v2.245h4.79v1.316h-6.263v-8.368zm14.579-.053h1.368l3.684 8.438h-1.561l-.842-2.017h-3.965l-.86 2.017h-1.509l3.685-8.438zm2.105 5.088l-1.456-3.351-1.439 3.351h2.895zm4.386-5.035h1.474v7.017h4.403v1.351h-5.877v-8.368zm7.403 0h6.211v1.315h-4.737v2.176h4.193v1.316h-4.193v2.245h4.79v1.316h-6.264v-8.368z" fill="#4B3900"/></svg>