<svg width="858" height="310" fill="none" xmlns="http://www.w3.org/2000/svg"><path stroke="#fff" stroke-width="4" d="M2 2h266v306H2zm294 0h266v306H296zm294 0h266v306H590z"/><rect x="370" y="234" width="118" height="36" rx="3" fill="#00E0FF"/><mask id="a" fill="#fff"><rect x="76" y="234" width="118" height="36" rx="3"/></mask><rect x="76" y="234" width="118" height="36" rx="3" stroke="#fff" stroke-width="8" mask="url(#a)"/><mask id="b" fill="#fff"><rect x="664" y="234" width="118" height="36" rx="3"/></mask><rect x="664" y="234" width="118" height="36" rx="3" stroke="#fff" stroke-width="8" mask="url(#b)"/><rect x="387" y="107" width="84" height="20" rx="10" fill="#00E0FF"/><path fill="#fff" d="M74 39h120v20H74zm294 0h120v20H368zm295 0h120v20H663zM44 75h180v8H44zm295 0h180v8H339zm294 0h180v8H633z"/></svg>