<svg width="886" height="96" viewBox="0 0 886 96" fill="none" xmlns="http://www.w3.org/2000/svg"><path fill-rule="evenodd" clip-rule="evenodd" d="M580.673 54c.54.61 1.04 1.26 1.46 1.98l5.86 10.22h-6.25l-4.31-7.51a6.783 6.783 0 0 0-5.87-3.39h-9.53v-5.42h13.06c4.07 0 7.39-3.32 7.39-7.39s-3.31-7.39-7.39-7.39h-13.06v-5.42h13.06c7.06 0 12.81 5.75 12.81 12.81 0 5.06-2.96 9.43-7.23 11.51zm-63.17-8.29h15.27c4.65 0 13.39-4.82 16.41-7.84l3.78-3.79v27.71l-3.78-3.79c-4.26-4.25-11.78-7.85-16.42-7.85h-15.27v3.39h-4.43V42.32h4.44v3.39zm24.13 2.13c2.45 1.05 4.83 2.41 6.91 3.88v-7.7a45.827 45.827 0 0 1-6.91 3.82z" fill="#000"/><path d="M797.863 50.65h-.07l-5.54-15.45h-3.53v25.63h3.67v-15.4h.07l5.62 15.4h3.46V35.2h-3.68v15.45zm25.67-5.26h-.07l-2.95-10.19h-3.89l5.04 14.8v10.83h3.67V50l5.04-14.8h-3.89l-2.95 10.19zm22.07 15.44h10.94v-3.67h-7.27v-7.52h6.33v-3.46h-6.33v-7.52h7.27V35.2h-10.94v25.63zm-64.17-15.87c0-1.52-.72-2.86-2.42-2.86-1.36 0-2.45 1.12-2.45 2.48v.9h1.63v-.93c0-.53.32-.82.8-.82.8 0 .8.69.8 1.26 0 .62 0 .94-.29 1.5l-2.94 5.55v1.54h4.87v-1.63h-2.95l2.4-4.63c.52-.96.55-1.25.55-2.36zm28.74-2.86c-1.3 0-2.43.93-2.43 2.45v6.69c0 1.52 1.14 2.45 2.43 2.45 1.3 0 2.43-.93 2.43-2.45v-6.69c0-1.52-1.14-2.45-2.43-2.45zm.8 9.14c0 .46-.34.82-.8.82s-.8-.35-.8-.82v-6.69c0-.46.34-.82.8-.82s.8.35.8.82v6.69zm23.32-7.84v1.72l1.63-1.2v9.67h1.63V42.2h-1.63l-1.63 1.2zm31.27 5.61c.35 0 .58-.06.69-.14l.03.03-1.86 4.79h1.83l2.14-5.73c.22-.61.3-.93.3-2.34 0-1.49-.06-1.81-.38-2.32-.43-.69-1.17-1.1-2.05-1.1-.9 0-1.65.4-2.06 1.1-.3.51-.37.83-.37 2.32 0 1.81.06 2.21.35 2.66.27.41.8.73 1.38.73zm-.1-4.37c0-.5.38-.82.8-.82.42 0 .8.32.8.82v2.11c0 .5-.38.82-.8.82-.42 0-.8-.32-.8-.82v-2.11z" fill="#000"/><path d="M822.653 21.11h-.13c-16.44 0-31.93 2.58-43.63 7.27-12.45 4.99-19.32 11.92-19.32 19.51-.01 7.59 6.84 14.53 19.29 19.54 11.72 4.72 27.26 7.33 43.75 7.34h.13c16.44 0 31.93-2.58 43.63-7.27 12.45-4.99 19.32-11.92 19.32-19.51.01-15.04-27.68-26.85-63.04-26.88zm41.86 41.75c-11.12 4.46-25.95 6.91-41.77 6.91h-.13c-15.86-.01-30.74-2.49-41.89-6.98-10.27-4.14-16.16-9.57-16.16-14.9s5.9-10.75 16.18-14.87c11.12-4.46 25.95-6.91 41.77-6.91h.13c34.73.03 58.05 11.34 58.04 21.88.01 5.33-5.89 10.75-16.17 14.87z" fill="#000"/><path fill-rule="evenodd" clip-rule="evenodd" d="M148.463 47.94c0-21.05 17.12-38.17 38.17-38.17 21.04 0 38.17 17.12 38.17 38.17s-17.12 38.17-38.17 38.17-38.17-17.12-38.17-38.17zm5 0c0 18.29 14.88 33.17 33.17 33.17s33.17-14.88 33.17-33.17-14.88-33.17-33.17-33.17-33.17 14.88-33.17 33.17zm50.2-.19c0 5.06-2.96 9.43-7.23 11.51.55.61 1.05 1.26 1.46 1.97l5.86 10.22h-6.25l-4.31-7.51a6.783 6.783 0 0 0-5.87-3.39h-9.53v10.9h-5.42V34.93h13.25V19.07h2v15.87h3.23c7.06 0 12.81 5.75 12.81 12.81zm-25.86 7.39h13.06c4.07 0 7.4-3.32 7.4-7.39s-3.31-7.39-7.39-7.39h-3.23v4.39c1.36.43 2.36 1.69 2.36 3.2 0 1.86-1.51 3.37-3.37 3.37s-3.37-1.51-3.37-3.37c0-1.51 1-2.77 2.37-3.2v-4.39h-7.83v14.78zM451.873.15l.45 1.94c1.81 7.87 2.76 16.81 2.74 25.87-.01 9.04-.97 17.98-2.79 25.83l-.45 1.94h-39.49l-.45-1.94c-1.81-7.86-2.76-16.81-2.75-25.87.01-9.05.97-17.98 2.79-25.83l.45-1.94h39.5zm-22.64 9.25h19.41c-.23-1.44-.49-2.87-.76-4.25h-18.65V9.4zm8.34 11.76v20.32h5.04V14.4h-13.4v20.32h-2.52V14.4h-5.04v27.08h13.4V21.16h2.52zm5.05 29.57v-4.25h-5.04v4.25h5.04zm-20.97-45.58V9.4h5.04V5.15h-5.04zm-2.52 4.25V5.15h-2.76c-.28 1.38-.54 2.81-.77 4.25h3.53zm0 5h-4.21c-.5 4.38-.77 8.93-.77 13.53-.01 4.6.26 9.16.75 13.55h4.23V14.4zm15.92 32.08h-19.47c.23 1.44.48 2.87.77 4.25h18.7v-4.25zm10.09 0v4.25h2.7c.28-1.38.54-2.81.77-4.25h-3.47zm0-5h4.16c.5-4.38.77-8.93.77-13.53.01-4.6-.26-9.16-.75-13.55h-4.18v27.08zm1.77 19.77l-4.27 4.27c-4.21 4.22-7.77 11.64-7.77 16.22v8.99h9.1v5h-23.2v-5h9.1v-8.99c0-4.58-4.77-13.22-7.77-16.22l-4.27-4.27h29.08zm-11.3 5.01h-6.64c1.17 1.78 2.33 3.83 3.3 5.94.94-2.09 2.09-4.12 3.34-5.94z" fill="#000"/><path d="M86.203 30.63c-5.85 5.85-22.12 14.81-31.12 14.81h-8.45v-4.45h2.71v-5h-27.07v5h2.71v4.45H5.243v-2.69h-5v10.37h5v-2.69h7.67c-1.21 1.8-1.92 3.97-1.92 6.3 0 6.23 5.07 11.29 11.29 11.29h27.04c6.23 0 11.29-5.07 11.29-11.29 0-2.18-.63-4.22-1.71-5.95 8.77 1.45 20.2 7.38 27.29 14.47l4.27 4.27V26.36l-4.26 4.27zm-44.56 14.82h-3.33V41h3.33v4.45zM29.983 41h3.33v4.45h-3.33V41zm19.35 22.04h-27.04c-3.47 0-6.29-2.82-6.29-6.29s2.82-6.3 6.29-6.3h27.04a6.295 6.295 0 1 1 0 12.59zm36.14-5.08c-5.17-4.08-11.79-7.86-18.37-10.18 6.61-2.49 13.48-6.37 18.37-10.01v20.19z" fill="#000"/><path fill-rule="evenodd" clip-rule="evenodd" d="M339.093 45.31h12.04v5.25h-12.04l8.51 8.52-3.71 3.71-8.52-8.51v12.04h-5.25V29.56h5.25V41.6l8.52-8.51 3.71 3.71-8.51 8.51zm-14.56-2.93c0 5.06-2.96 9.43-7.23 11.51.54.6 1.05 1.25 1.46 1.98l5.86 10.21h-6.25l-4.31-7.51a6.783 6.783 0 0 0-5.87-3.39h-4.39v11.14h-5.25V54.28l-8.51 8.51-3.71-3.71 8.51-8.51h-12.04v-5.25h12.04l-8.51-8.51 3.71-3.71 8.51 8.51V29.57h13.17c7.06 0 12.81 5.75 12.81 12.81zm-20.73 7.38h7.92c4.08 0 7.39-3.32 7.39-7.39s-3.31-7.39-7.39-7.39h-7.92v14.78z" fill="#000"/><path d="M699.653 44.654c-7.14-1.64-15.16-2.56-23.35-2.72v-6.67c0-3.49 2.84-6.33 6.33-6.33s6.33 2.84 6.33 6.33h5c0-6.25-5.08-11.33-11.33-11.33-1.14 0-2.25.17-3.29.49l9.22-9.22-3.54-3.54-8.73 8.73V8.054h-5v12.34l-8.73-8.73-3.54 3.54 9.22 9.22c-1.04-.32-2.14-.49-3.29-.49-6.25 0-11.33 5.08-11.33 11.33h5c0-3.49 2.84-6.33 6.33-6.33s6.33 2.84 6.33 6.33v6.67c-8.19.17-16.22 1.1-23.35 2.75l-1.94.45v39.49l1.94.45c7.83 1.8 16.74 2.75 25.77 2.75h.1c9.04-.01 17.98-.97 25.83-2.79l1.94-.45v-39.5l-1.92-.43zm-3.06 23.16h-4.25v-19.47c1.44.23 2.87.48 4.25.76v18.71zm-36.33-5.83h20.32v-2.52h-20.32v-5.04h27.08v13.4h-20.32v2.52h20.32v5.04h-27.08v-13.4zm-5-2.53h-4.25v-5.04h4.25v5.04zm32.08-11.78v4.22h-27.08v-4.21c4.38-.5 8.93-.77 13.52-.77 4.62.01 9.17.27 13.56.76zm5 22.66h4.25v5.04h-4.25v-5.04zm-37.08-21.97v3.52h-4.25v-2.75c1.39-.28 2.81-.54 4.25-.77zm-4.25 13.62h4.25v19.42a89.18 89.18 0 0 1-4.25-.77v-18.65zm22.81 20.85h-.09c-4.57 0-9.1-.26-13.46-.75v-4.18h27.08v4.16c-4.39.5-8.94.76-13.53.77zm18.52-1.46v-3.47h4.25v2.7c-1.38.28-2.81.53-4.25.77z" fill="#000"/></svg>