<svg width="113" height="170" viewBox="0 0 113 170" fill="none" xmlns="http://www.w3.org/2000/svg"><path fill-rule="evenodd" clip-rule="evenodd" d="M112.348 19.525C112.348 8.741 103.604 0 92.846 0H19.502C8.743 0 0 8.754 0 19.525v130.95C0 161.259 8.743 170 19.502 170h73.331c10.771 0 19.502-8.754 19.502-19.525V19.525h.013z" fill="#B93C41"/><path fill-rule="evenodd" clip-rule="evenodd" d="M72.828 11.405v24.892a5.71 5.71 0 0 0-.272-.298c-5.398-5.392-14.103-5.483-19.604-.272l19.863 19.888c11.907-.323 21.478-10.099 21.478-22.111.012-12-9.558-21.776-21.465-22.1zm-6.91 44.21c-15.407 0-27.974 12.323-28.387 27.646h33.954v7.293c0 5.857 4.417 10.693 10.1 11.34v21.918h2.62v-21.905c5.683-.647 10.1-5.483 10.1-11.34v-7.293c-.413-15.336-12.98-27.659-28.387-27.659z" fill="#fff"/><path fill-rule="evenodd" clip-rule="evenodd" d="M82.901 90.334a2.292 2.292 0 0 1 2.286 2.289 2.292 2.292 0 0 1-2.285 2.288 2.292 2.292 0 0 1-2.287-2.288 2.275 2.275 0 0 1 2.287-2.29z" fill="#B93C41"/><path fill-rule="evenodd" clip-rule="evenodd" d="M37.531 83.274v21.891c-11.804-.323-21.284-10.008-21.284-21.891h21.284z" fill="#fff"/><path d="M34.109 140.686c4.688-.866 9.247-2.948 11.533-5.327 1.601-1.681 2.195-3.699 1.304-5.69-1.007-2.25-2.867-2.741-5.024-2.677-2.828.104-5.992 1.462-9.544 1.785-.543.065-.672.233-.465.556.504.724 1.266 1.228 2.7 1.319-3.72 4.564-7.685 10.849-8.744 13.862-.633 1.784-.207 2.78.374 3.271.297.233.504.194.672-.129 1.395-2.716 2.622-4.798 3.758-6.543 1.99 1.72 4.185 3.866 6.974 6.84.259.298.465.194.672-.065.555-.659.374-1.784-.207-2.676-.878-1.384-2.402-2.974-4.003-4.526zm1.472-6.478c1.136-1.655 1.601-2.806 1.601-3.737 2.79-.595 7.013-2.315 7.943-.466 1.227 2.354-3.551 7.177-12.876 8.793 1.136-1.616 2.195-3 3.332-4.59zm37.634 8.366c2.325-4.034 2.157-7.939-1.433-7.939-1.098 0-2.403.53-3.63 1.383 1.305-1.823 3.126-4.099 3.759-5.03 1.73-2.483 1.73-3.97 1.098-4.901-.336-.465-.672-.465-1.06-.038-2.892 3.142-11.042 15.193-12.295 18.077-1.407 1.642-2.983 2.948-4.352 3-1.524.064-1.692-1.319-.594-3.207.969-1.681 3.087-4.164 4.017-5.651 1.02-1.655.671-3.103.038-3.698-.335-.336-.633-.259-1.059.194-1.356 1.422-2.57 3.698-5.23 7.073-2.286 2.871-4.598 5.185-6.251 5.095-.969-.065-1.098-1.255-.207-2.871.891-1.59 1.73-2.909 3.294-4.862 1.523-1.888 1.73-3.375.8-4.461-.335-.297-.762-.336-1.097.039-2.751 3.013-4.895 6.245-5.825 8.431-.93 2.185-.84 4.629 2.157 4.797 2.363.129 4.597-1.552 6.083-3.104-.336 1.914.762 3.272 3.5 3.272 1.485 0 3.009-.608 4.274-1.487.104.504.336.879.633 1.19.259.258.504.232.672-.104.374-.698.84-1.487 1.227-2.185.762 1.448 2.195 2.353 4.43 2.353 2.44-.013 5.062-1.901 7.051-5.366zm-8.872 3.802c-1.137-.194-1.692-1.255-1.77-2.212 1.563-2.547 3.59-5.288 5.49-6.84 1.265-1.021 2.195-1.383 3.086-1.319.968.065 1.472 2.082-.93 5.819-2.454 3.827-4.391 4.823-5.876 4.552zm27.625-3.931c-.09-.337-.465-.298-.672-.065-1.692 1.823-4.184 3.698-7.478 5.095 1.77-3.207 4.353-7.177 5.618-9.091 1.098-1.681.762-3.103.168-3.698-.374-.271-.671-.194-1.059.233-1.472 1.681-3.293 4.668-5.114 7.112-2.157 2.883-4.262 4.991-5.915 4.901-.969-.065-1.06-1.229-.207-2.845.801-1.552 1.73-2.91 3.255-4.823 1.563-1.953 1.82-3.336.8-4.397-.296-.336-.723-.362-1.058 0-2.738 2.974-4.818 6.246-5.748 8.366-.968 2.186-.89 4.591 2.157 4.798 1.692.103 3.294-.763 4.598-1.823-.465.788-.891 1.616-1.304 2.379-4.185 1.293-7.775 3.271-9.04 6.245-.84 1.953 0 3.104.839 4.099.8.931 1.601.931 2.402.699 3.5-1.061 6.509-6.388 8.872-10.81 3.5-1.125 6.458-2.38 8.111-4.436.736-.879.852-1.642.775-1.939zM72.66 157.78c-.762-.827 1.136-5.353 6.625-7.836-2.608 4.862-6.07 8.47-6.625 7.836zm-56-140.582h.362c3.578 5.573 4.133 6.543 4.61 7.5h.026c.478-.931 1.034-1.888 4.689-7.5h.374l.995 6.763c.671 4.59.787 5.301.8 5.392v.026h-2.918v-.026c-.013-.09-.142-.944-.414-3.026a36.308 36.308 0 0 1-.232-2.47h-.013c-.44.944-.71 1.448-1.072 2.043-.387.673-1.137 1.862-2.105 3.323h-.375a64.297 64.297 0 0 1-2.182-3.4 23.194 23.194 0 0 1-1.02-1.992h-.014a36.409 36.409 0 0 1-.232 2.496c-.245 2.056-.362 2.896-.375 3.013v.026h-2.789v-.013c.026-.104.155-.802.852-5.392l1.033-6.763zm17.926 5.211V17.34c.4-.052 1.33-.09 2.028-.09.478 0 1.11.012 1.692.077.672.078 1.446.259 2.105.634 1.072.608 1.95 1.694 1.95 3.414a4.38 4.38 0 0 1-.516 2.107 3.836 3.836 0 0 1-1.537 1.513c-.4.22-.866.375-1.343.479-.543.129-1.111.168-1.667.18v3.726h-2.711v-6.971zm4.998-1.022a1.66 1.66 0 0 0-.71-1.383c-.31-.207-.684-.31-1.11-.31-.13 0-.285 0-.466.012v3.543c.078 0 .375 0 .491-.012a2.335 2.335 0 0 0 1.085-.337c.207-.142.4-.336.53-.607.129-.272.18-.544.18-.88v-.026zM17.255 41.03v-5.121h2.867v9.607c0 .065 0 .078.064.078h3.526v2.418h-6.445v-6.983h-.012zm23.505 3.788c0 2.017-1.705 3.375-4.055 3.375-.84 0-1.834-.142-2.416-.414.013-.905.026-1.216.078-2.56h.026a4.18 4.18 0 0 0 1.989.465c.749 0 1.291-.336 1.291-1.034 0-.414-.297-.802-.788-1.216a18.958 18.958 0 0 1-1.214-1.086c-.671-.672-1.369-1.616-1.369-2.948 0-1.81 1.214-3.569 4.146-3.569.555 0 1.291.078 1.718.22-.026.944-.052 1.215-.078 2.547h-.026a3.379 3.379 0 0 0-.607-.18 3.178 3.178 0 0 0-.749-.078c-.826 0-1.407.387-1.407 1.06 0 .4.168.646.439.944.258.297.788.711 1.446 1.319.956.905 1.576 1.784 1.576 3.142v.013z" fill="#fff"/></svg>