<svg width="460" height="360" viewBox="0 0 460 360" fill="none" xmlns="http://www.w3.org/2000/svg"><path fill="#fff" d="M0 0h460v360H0z"/><path d="M413.456 117.235l-.044-.473-.061-.377c-.079-.509-.193-.973-.307-1.438-.456-1.859-.999-3.621-1.525-5.392-.518-1.753-1.07-3.533-1.394-5.216-.062-.456-.123-.894-.158-1.315l-.105-1.333c-.062-.894-.097-1.806-.132-2.718l-.149-5.497a75.77 75.77 0 0 0-.114-2.788c-.053-.587-.079-.885-.202-1.481a8.416 8.416 0 0 0-.403-1.49 17.355 17.355 0 0 0-1.201-2.701c-.228-.43-.465-.85-.719-1.271a27.48 27.48 0 0 0-.824-1.245l-.351-.5-.657.061-8.925.798-4.463.377c-1.49.132-2.972.237-4.462.395l-.403.035-.325.272a31.34 31.34 0 0 1-4.69 3.2 25 25 0 0 1-2.543 1.218c-.876.36-1.701.605-2.7.86l-11.52 3.06-23.04 6.119-46.081 12.239-90.564 24.048-.185-3.972.132-.07c.061-.026.359-.236.447-.324a3.103 3.103 0 0 0 1-1.85 2.943 2.943 0 0 0-.036-1.07 2.457 2.457 0 0 0-.157-.508c-.079-.202-.106-.228-.149-.342l-.509-1.113-.026-.053-.035-.061c-.544-.956-1.657-1.57-2.762-1.5-.123 0-.307.027-.377.044l-.228.035-.456.079-.92.158-3.682.623-7.365 1.253-1.841.316-.921.158-.175.035-.053.017-.113.027-.228.061c-.114.017-.369.114-.605.219-.237.105-.465.211-.64.351-.184.14-.377.245-.535.429a3.827 3.827 0 0 0-.833 1.131c-.412.86-.482 1.947-.053 2.885.412.955 1.298 1.595 2.131 1.867.85.289 1.639.246 2.376.167.71-.097 1.253-.211 1.893-.307l.737-.123c.105 1.149.219 2.288.289 3.446l.018.289.008.14.009.07v.044s0 .009-.009.009c-.008.017-.008.026-.026.053-.105.166-.351.394-.614.596-.543.421-1.209.762-1.876 1.096-1.35.648-2.796 1.183-4.243 1.63-.728.22-1.464.43-2.192.588-.71.158-1.499.272-2.262.412l-18.463 3.226-36.919 6.444-36.919 6.444-18.463 3.226-9.232 1.613-4.612.789-.613.114a4.858 4.858 0 0 0-1.938.833 4.781 4.781 0 0 0-1.683 2.271l-.026.07-.01.079-4.883 29.309c-.184 1.429.22 2.928 1.026 4.111.833 1.175 2.07 2.078 3.48 2.42.352.105.71.14 1.07.176l.544.017.473-.009 1.85-.052 3.709-.097 14.825-.421c6.146-.184 12.292-.377 18.437-.596 2.753 2.245 23.698 19.279 33.079 25.662 8.864 6.032 37.839 26.091 44.406 30.641-.018.018-.044.035-.07.053a9.882 9.882 0 0 0-2.254 2.568 10.149 10.149 0 0 0-.754 1.543 9.095 9.095 0 0 0-.473 1.649 10.034 10.034 0 0 0-.175 1.709v.263l.008.184.018.369c0 .219.061.561.096.859.035.307.106.596.176.868.07.28.14.552.245.824.184.543.43 1.061.702 1.569.28.5.613.965.964 1.42l.579.64c.201.202.42.386.631.588.438.368.903.71 1.394.991.237.157.5.271.763.403.254.131.517.237.789.333.534.21 1.096.351 1.657.456.491.096.99.131 1.499.149 2.823.842 5.663 1.315 8.495 1.674 2.893.36 5.787.579 8.671.737 1.447.079 2.884.131 4.331.184l2.192.061 2.156.009c1.429.018 2.867.018 4.34-.052l2.192-.071c.728-.026 1.455-.105 2.183-.157 5.795-.456 11.678-1.473 17.149-3.823 3.016-1.245 5.821-2.893 8.46-4.76a55.095 55.095 0 0 0 2.499-1.868c.534-.46.732-.596 1.008-.824a74.174 74.174 0 0 0 2.656-2.288 150.36 150.36 0 0 0 6.295-5.988 312.625 312.625 0 0 0 5.997-6.216c3.971-4.182 7.882-8.373 11.8-12.581l23.409-25.285 46.597-50.761 23.242-25.425 2.902-3.183 1.429-1.569c.474-.5.982-1 1.482-1.49a45.71 45.71 0 0 1 3.112-2.78c.535-.412 1.078-.815 1.604-1.122.255-.14.509-.263.676-.307l.026-.009c.009 0 .026-.008.026-.008l.132-.027.263-.052.447-.062c2.683-.315 5.602-.359 8.46-.491l2.183-.105c.36-.026.728-.052 1.122-.096h.062l.131-.009c.07 0 .219-.017.228 0 .062.026.079 0 .211.044.841.175 1.92 1.131 2.586 2.034l.456.614.719-.053 23.671-1.753 1.026-.079.166-.991.93-5.506.228-1.376.245-1.482c.018-.245.035-.438 0-.798zm-210.605 19.008l-.701.131a7.948 7.948 0 0 1-.158-.745 18.585 18.585 0 0 1-.237-2.139 19.377 19.377 0 0 1 .009-2.157l.026-.246.824-.14.237 5.296zm-9.468.964v-.105l-.009-.149-.009-.298a125.01 125.01 0 0 1-.105-4.06l.727-.131c.036.149.071.333.114.543.106.579.193 1.359.237 2.14.035.78.035 1.56-.009 2.156-.017.237-.043.43-.061.588l-1.131.219c0-.009.009-.009.009-.018.035-.07.079-.131.123-.263.035-.105.078-.271.087-.333l.018-.149c.017-.219.009-.079.009-.14zm1.578.552c-.035-.14-.062-.298-.097-.482a18.585 18.585 0 0 1-.237-2.139c-.035-.78-.035-1.561.009-2.157.018-.263.044-.482.07-.649l.719-.122c.035.14.062.289.097.473a19.158 19.158 0 0 1 .228 4.296 7.425 7.425 0 0 1-.07.64l-.719.14zm1.437-.272c-.035-.149-.07-.324-.114-.534a18.597 18.597 0 0 1-.236-2.14 19.36 19.36 0 0 1 .009-2.156c.017-.228.035-.412.061-.561l.745-.132c.026.114.053.254.079.395.105.578.193 1.359.237 2.139.035.78.035 1.56-.009 2.157-.026.289-.053.526-.07.701l-.702.131zm1.438-.28c-.035-.158-.079-.351-.122-.588a18.315 18.315 0 0 1-.237-2.139 19.36 19.36 0 0 1 .009-2.156c.017-.185.035-.342.043-.483l.772-.131c.017.096.044.202.061.324.105.579.193 1.359.237 2.139.035.781.035 1.561-.009 2.157-.026.325-.061.588-.079.754l-.675.123zm1.438-.272c-.035-.166-.088-.377-.131-.64a18.365 18.365 0 0 1-.237-2.139c-.035-.78-.035-1.561.009-2.157.008-.149.026-.28.035-.403l.798-.14c.017.079.035.157.052.245.105.579.193 1.359.237 2.139.035.781.035 1.561-.009 2.157a9.548 9.548 0 0 1-.088.815l-.666.123zm1.438-.28a9.246 9.246 0 0 1-.149-.693 18.585 18.585 0 0 1-.237-2.139 19.377 19.377 0 0 1 .009-2.157c.009-.123.017-.228.026-.324l.816-.141c.008.062.026.106.035.167.105.579.193 1.359.236 2.139.035.78.035 1.561-.008 2.157-.035.412-.079.719-.097.868l-.631.123zm-12.94-7.26c.447 0 .806.36.806.807a.804.804 0 0 1-.806.807.805.805 0 0 1-.807-.807.81.81 0 0 1 .807-.807zm2.393 1.71c-.342.026-.71.07-1.061.105.219-.28.351-.631.351-1.008 0-.526-.254-.991-.631-1.306l1.683-.29 7.364-1.253 3.683-.623 1.7-.289a.406.406 0 0 1 .351.184l.465 1.008c.035.079.105.228.096.219a.724.724 0 0 0 .026.07c.009.053.009.097.009.15a.454.454 0 0 1-.14.263c-.061.043.07-.036-.044.035l-.061.035-.009.008-.132.071-.543.289-.728.386v.008l-9.31 1.64-1.193.114-1.876.184zm1.376 6.128v-.009l-.008.062c0 .035 0-.035.008-.053zm-6.724 127.256a8.916 8.916 0 0 0-.421-1.438l2.999-2.507-2.578 3.945zm2.779-4.252l-3.524 2.034c-.167-.351-.36-.684-.561-1.009l6.54-5.058a6.193 6.193 0 0 1-.579 1.157l-1.876 2.876zm2.683-4.656c-.053.184-.123.36-.193.535l-7.075 4.463a8.643 8.643 0 0 0-.745-.851l8.679-6.566-.666 2.419zm.684-2.49l-9.337 6.023a8.365 8.365 0 0 0-.947-.701l11.082-8.259-.798 2.937zm.815-2.98l-11.914 7.82.008.009a9.335 9.335 0 0 0-1.218-.526l13.931-10.249-.807 2.946zm.815-2.99l-10.985 7.303a10.953 10.953 0 0 0 1.482-2.534l10.31-7.706-.807 2.937zm.825-2.998l-9.828 6.417.561-1.806 10.073-7.548-.806 2.937zm.815-2.99l-9.688 6.321.561-1.806 9.934-7.452-.807 2.937zm.824-2.99l-9.556 6.225.561-1.806 9.793-7.356-.798 2.937zm.815-2.989l-9.416 6.128.562-1.806 9.661-7.259-.807 2.937zm.825-2.99l-9.276 6.032.561-1.806 9.521-7.163-.806 2.937zm.815-2.989l-9.144 5.944.561-1.806 9.381-7.067-.798 2.929zm.815-2.99l-9.004 5.848.561-1.806 9.25-6.97-.807 2.928zm.824-2.99l-8.872 5.752.561-1.815 9.109-6.874-.798 2.937zm.816-2.998l-8.732 5.655.561-1.815 8.977-6.777-.806 2.937zm.824-2.99l-8.592 5.559.561-1.815 8.837-6.681-.806 2.937zm.815-2.989l-8.46 5.47.561-1.814 8.697-6.576-.798 2.92zm.816-2.99l-8.321 5.374.562-1.814 8.556-6.479-.797 2.919zm1.201-4.375l-.377 1.386-8.189 5.277.561-1.814 8.259-6.269a8.406 8.406 0 0 1-.254 1.42zm-7.68 3.63a8.18 8.18 0 0 0 .14-1.517l7.662-5.856c.158.727.211 1.49.141 2.27l-7.943 5.103zm.087-2.507a8.373 8.373 0 0 0-.228-1.237l7.216-5.532c.333.588.57 1.21.719 1.859l-7.707 4.91zm-.508-2.07a7.632 7.632 0 0 0-.491-1.043l6.786-5.234c.192.193.385.395.552.605.237.298.438.605.622.921l-7.469 4.751zm-.956-1.762c-.035-.052-.061-.105-.096-.149a8.991 8.991 0 0 0-.64-.771l6.286-4.875a7.727 7.727 0 0 1 1.657 1.236l-7.207 4.559zm-1.368-1.525a8.138 8.138 0 0 0-.999-.737l5.628-4.392c.79.184 1.535.456 2.21.824l-6.839 4.305zm-1.806-1.184a8.365 8.365 0 0 0-1.376-.517l4.638-3.656.57-.017h.008a9.567 9.567 0 0 1 2.473.21l-6.321 3.954.008.026zm-2.209-.692a8.15 8.15 0 0 0-1.394-.132l-.596-.009c-.079-.008-.158-.026-.246-.035l3.99-3.173 3.427-.114-5.312 3.278.131.185zm-3.393-.29a22.689 22.689 0 0 0-1.078-.052c-.36-.009-.702-.018-1.052-.018l3.577-2.858 3.419-.114-4.892 2.998.026.044zm-3.48-.105c-.702-.017-1.403-.026-2.105-.044l3.314-2.656 3.42-.114-4.629 2.814zm-3.402-.079c-.535-.017-1.07-.026-1.613-.044l-.5-.017 3.016-2.437 3.419-.114-4.322 2.612zm-3.358-.105l-2.157-.07 2.709-2.201 3.42-.114-3.972 2.385zm-3.349-.114l-2.218-.07 2.402-1.964 3.419-.114-3.603 2.148zm-3.34-.105l-2.288-.079 2.095-1.718 3.419-.114-3.226 1.911zm-3.332-.114l-2.358-.079 1.788-1.482 3.42-.114-2.85 1.675zm-3.34-.114l-2.437-.079 1.49-1.245 3.419-.114-2.472 1.438zm-3.332-.105c-.841-.027-1.683-.053-2.516-.088l1.193-1.008 3.419-.114-2.096 1.21zm-3.322-.114c-.868-.027-1.745-.062-2.613-.088l.903-.772 3.41-.113-1.7.973zm-3.314-.114c-.912-.027-1.815-.062-2.727-.088l.614-.535 3.41-.114-1.297.737zm-3.314-.106c-.947-.026-1.903-.061-2.85-.087l.342-.298 3.411-.114-.903.499zm-3.323-.105l-2.946-.079.088-.087 3.366-.114-.508.28zm-3.428-.096l-.815-.026.929-.036-.114.062zm-27.871 1.56c1.21-.026 2.446-.017 3.682-.008 4.927.026 9.863.14 14.799.28 9.872.281 19.753.658 29.633 1.035l14.826.561c2.454.087 4.988.158 7.408.201l.929.036c.307.008.561.061.842.087.543.044 1.105.184 1.639.307 1.07.281 2.026.754 2.727 1.429 1.411 1.341 1.534 3.63.903 5.786l-2.218 7.032-4.489 14.132-4.401 13.888c-.517-.263-1.14-.597-1.894-.982-1.087-.57-2.402-1.272-3.919-2.069-1.508-.807-3.217-1.71-5.076-2.701-3.7-2.007-8.013-4.357-12.642-6.864-4.594-2.56-9.495-5.305-14.361-8.084a159.648 159.648 0 0 1-7.154-4.313 381.851 381.851 0 0 1-6.786-4.419c-4.383-2.893-8.381-5.742-11.827-8.171-3.445-2.42-6.251-4.524-8.232-5.97a181.79 181.79 0 0 1-1.201-.903l3.112-.184 1.85-.088 1.85-.018zm57.846 55.751c-.368.14-.728.298-1.07.473-.07-.052-.149-.105-.236-.166l5.313-3.849c-1.254 1.262-2.613 2.428-4.007 3.542zm-65.456-53.98l-5.742 4.165c-.219-.176-.439-.351-.649-.517l5.69-4.13c.219.14.456.307.701.482zm1.14.798c.254.176.517.36.789.553l-5.865 4.252c-.246-.202-.5-.395-.737-.588l5.813-4.217zm1.745 1.219c.289.201.578.403.885.622l-5.979 4.331c-.281-.219-.552-.438-.833-.657l5.927-4.296zm1.832 1.289c.316.219.649.455.982.683l-6.093 4.419c-.307-.245-.614-.491-.921-.728l6.032-4.374zm1.736 1.227c.351.245.71.5 1.069.754l-6.198 4.498c-.342-.263-.675-.535-1.008-.798l6.137-4.454zm1.832 1.28c.351.245.71.5 1.079.754l-6.304 4.568c-.342-.263-.675-.535-1.017-.798l6.242-4.524zm1.841 1.289c.351.245.71.5 1.079.754l-6.409 4.646a88.379 88.379 0 0 1-1.017-.797l6.347-4.603zm1.841 1.28c.351.245.719.5 1.079.754l-6.505 4.717c-.342-.264-.676-.527-1.017-.79l6.443-4.681zm1.841 1.289c.36.245.711.499 1.079.754l-6.602 4.786-1.026-.789 6.549-4.751zm1.842 1.28c.359.245.719.499 1.078.754l-6.689 4.848-1.026-.789 6.637-4.813zm1.832 1.28c.359.245.719.499 1.078.754l-6.768 4.909c-.342-.254-.684-.517-1.034-.78l6.724-4.883zm1.841 1.28c.36.245.719.499 1.078.754l-6.829 4.953c-.342-.254-.684-.517-1.044-.78l6.795-4.927zm1.841 1.288c.018.009.035.018.044.035.342.237.693.474 1.043.711l-6.899 4.997c-.342-.254-.693-.509-1.053-.772l6.865-4.971zm1.859 1.272c.359.245.719.491 1.087.745l-6.952 5.041c-.342-.246-.693-.5-1.061-.763l6.926-5.023zm1.858 1.262c.36.246.737.491 1.096.737l-6.987 5.067c-.342-.237-.701-.491-1.078-.754l6.969-5.05zm1.877 1.263c.368.245.727.491 1.096.736l-7.005 5.085c-.386-.263-.746-.509-1.088-.745l6.997-5.076zm1.893 1.244c.369.246.746.483 1.123.719l-7.058 5.12c-.377-.254-.736-.508-1.087-.745l7.022-5.094zm1.912 1.228c.377.237.745.482 1.122.719l-7.119 5.164c-.368-.255-.737-.509-1.087-.746l7.084-5.137zm1.92 1.227l1.131.71-7.198 5.217-1.087-.745 7.154-5.182zm1.928 1.21c.211.132.412.263.623.395.175.105.342.21.517.315l-7.285 5.287c-.369-.254-.728-.5-1.088-.745l7.233-5.252zm1.947 1.21c.377.237.762.473 1.139.701l-7.382 5.357c-.368-.254-.727-.5-1.087-.745l7.33-5.313zm1.946 1.201c.386.237.763.465 1.148.702l-7.487 5.426c-.368-.254-.727-.499-1.087-.745l7.426-5.383zm1.964 1.201c.386.237.763.465 1.148.702l-7.592 5.505c-.36-.254-.728-.499-1.087-.745l7.531-5.462zm1.955 1.201c.386.237.763.465 1.148.702l-7.706 5.584c-.359-.254-.728-.499-1.087-.745l7.645-5.541zm1.964 1.193c.386.236.771.464 1.148.701l-7.82 5.672a52.05 52.05 0 0 0-1.087-.745l7.759-5.628zm1.964 1.192c.385.237.771.465 1.148.693l-7.934 5.751c-.36-.246-.719-.5-1.087-.745l7.873-5.699zm1.963 1.192l1.017.614a3.2 3.2 0 0 1 .141.088l-8.057 5.839c-.36-.246-.719-.5-1.079-.746l7.978-5.795zm1.964 1.193c.386.236.772.473 1.149.701l-8.171 5.918c-.36-.246-.719-.5-1.079-.745l8.101-5.874zm1.964 1.192c.386.237.763.465 1.149.701l-8.277 6.006c-.359-.246-.718-.5-1.078-.745l8.206-5.962zm1.955 1.201c.386.237.763.465 1.149.701l-8.39 6.085c-.36-.246-.719-.5-1.079-.745l8.32-6.041zm1.955 1.192c.386.237.772.474 1.149.702l-8.496 6.163c-.359-.245-.718-.5-1.078-.745l8.425-6.12zm1.964 1.202c.386.236.772.473 1.149.701l-8.61 6.242c-.359-.245-.719-.5-1.078-.745l8.539-6.198zm1.955 1.192c.386.237.772.473 1.149.701l-8.724 6.321c-.359-.245-.719-.499-1.078-.745l8.653-6.277zm1.955 1.201c.386.237.772.473 1.14.71l-8.82 6.4a77.307 77.307 0 0 1-1.078-.745l8.758-6.365zm1.947 1.21c.385.245.771.473 1.139.701l-8.925 6.47c-.35-.245-.71-.491-1.078-.745l8.864-6.426zm1.946 1.201c.394.245.771.482 1.14.71l-9.022 6.54c-.35-.245-.71-.491-1.078-.745l8.96-6.505zm1.955 1.201c.395.246.78.482 1.14.701l-9.127 6.62c-.351-.237-.71-.491-1.078-.746l9.065-6.575zm1.946 1.21c.412.254.798.491 1.14.71l-9.223 6.689c-.342-.236-.701-.482-1.078-.745l9.161-6.654zm1.947 1.201c.315.202.596.368.833.517-.158.263-.334.526-.509.781l-8.513 6.172c-.324-.219-.684-.474-1.078-.746l9.267-6.724zm-73.478-47.632l.079.053-5.62 4.076c-.184-.149-.377-.307-.561-.447l4.997-3.621c.369-.017.737-.043 1.105-.061zm-7.338 2.683a23.55 23.55 0 0 0-.623-.5l2.806-1.955 1.271-.053-3.454 2.508zm-2.034-1.648l-.745-.605c.57-.018 1.14-.044 1.71-.062l-.965.667zm272.527-81.5l1.745 1.639a.872.872 0 0 0 .211.965l.271.254-.368.061-.263.053-.131.026-.167.035-.123.035c-.044.018-.087.027-.131.044l-1.92-1.797a.88.88 0 0 0-.956-.158l-1.517-1.42c.202-.026.412-.044.614-.053.929-.044 1.832-.087 2.7-.131a.348.348 0 0 0 .035.447zm-4.076-.14c.017.043.026.096.061.14l1.745 1.639a.87.87 0 0 0 .21.965l1.412 1.324c-.325.201-.632.403-.912.613l-2.192-2.042a.877.877 0 0 0-.956-.158l-1.683-1.578a8.072 8.072 0 0 1 2.315-.903zm-2.858 1.236c.017.026.008.052.035.07l1.744 1.639a.872.872 0 0 0 .211.965l1.999 1.867c-.369.307-.728.614-1.079.921l-4.857-3.647c.404-.456.798-.886 1.21-1.254.237-.211.482-.386.737-.561zm-1.991 1.858l3.893 4.533c-.272.263-.552.517-.824.78l-.316.316-4.664-3.507c.368-.403.745-.824 1.105-1.219.28-.306.543-.605.806-.903zm-1.955 2.175l3.779 4.401c-.114.114-.219.228-.333.342l-.745.824-4.603-3.463c.298-.333.614-.675.903-1 .333-.377.657-.736.999-1.104zm-1.963 2.165l3.769 4.393-1.069 1.183-4.603-3.463c.64-.728 1.271-1.42 1.903-2.113zm-1.964 2.166l3.77 4.392-.772.85-.298.325-4.603-3.463c.649-.71 1.28-1.412 1.903-2.104zm-1.964 2.174l3.77 4.392-1.061 1.175-4.603-3.463c.64-.719 1.271-1.42 1.894-2.104zm-1.955 2.165l3.761 4.384-1.052 1.166-4.603-3.463c.64-.693 1.271-1.394 1.894-2.087zm-1.964 2.175l3.761 4.383-1.052 1.166-4.594-3.454a231.34 231.34 0 0 1 1.885-2.095zm-1.955 2.165l3.761 4.384-1.052 1.157-4.594-3.463c.631-.693 1.262-1.385 1.885-2.078zm-1.964 2.174l3.761 4.384-1.043 1.157-4.603-3.463c.631-.701 1.263-1.394 1.885-2.078zm-1.964 2.166l3.761 4.383-1.043 1.149-4.612-3.463a364.25 364.25 0 0 0 1.894-2.069zm-1.972 2.157l3.769 4.392-1.034 1.148-4.62-3.471c.64-.693 1.262-1.386 1.885-2.069zm-1.964 2.165l3.778 4.401-1.034 1.14-4.629-3.481c.131-.149.272-.298.412-.447.491-.543.973-1.078 1.473-1.613zm-1.973 2.148l3.787 4.41-1.025 1.14-4.647-3.498c.631-.684 1.254-1.368 1.885-2.052zm-1.981 2.157l3.805 4.427-1.026 1.131-4.664-3.507c.631-.684 1.262-1.367 1.885-2.051zm-1.973 2.157l3.814 4.444-1.017 1.131-4.673-3.515c.622-.693 1.254-1.377 1.876-2.06zm-1.973 2.147l3.823 4.454-.342.377-.684.745-4.69-3.524c.64-.684 1.262-1.368 1.893-2.052zm-1.972 2.157l3.84 4.471-1.017 1.123-4.699-3.534c.622-.692 1.245-1.376 1.876-2.06zm-1.982 2.157l3.84 4.48-1.017 1.113-4.707-3.542a329.58 329.58 0 0 0 1.884-2.051zm-1.972 2.148l3.849 4.489-1.009 1.113-4.716-3.551c.631-.683 1.253-1.367 1.876-2.051zm-1.973 2.157l3.858 4.497-1.008 1.114-4.735-3.56c.632-.684 1.263-1.368 1.885-2.051zm-1.972 2.156l3.866 4.507-1.008 1.104-4.743-3.568c.631-.684 1.262-1.359 1.885-2.043zm-1.973 2.157l3.875 4.515-.999 1.105-4.752-3.577c.622-.684 1.245-1.368 1.876-2.043zm-1.981 2.148l3.883 4.524-.999 1.096-4.761-3.586c.632-.666 1.254-1.35 1.877-2.034zm-1.973 2.157l3.893 4.541-1 1.096-4.778-3.594c.307-.325.605-.658.912-.982.324-.36.649-.711.973-1.061zm-1.981 2.148l3.91 4.559-.991 1.096-4.804-3.613c.631-.692 1.253-1.367 1.885-2.042zm-1.982 2.139l3.928 4.576-.991 1.087-4.83-3.638 1.893-2.025zm-1.99 2.139l3.954 4.603-.991 1.087-4.857-3.656c.632-.675 1.263-1.359 1.894-2.034zm-1.99 2.139l3.971 4.629-.981 1.079-4.884-3.674c.631-.675 1.263-1.359 1.894-2.034zm-1.981 2.139l3.997 4.656-.982 1.078-4.909-3.691a138.8 138.8 0 0 1 1.894-2.043zm-1.991 2.131l4.016 4.682-.973 1.078-4.936-3.717c.622-.675 1.253-1.359 1.893-2.043zm-1.99 2.139l4.042 4.708-.973 1.07-4.962-3.735c.622-.675 1.262-1.359 1.893-2.043zm-1.99 2.139l4.059 4.726-.973 1.069-4.988-3.752c.64-.675 1.271-1.35 1.902-2.043zm-1.981 2.139l4.085 4.752-.964 1.07-5.015-3.77c.622-.684 1.254-1.359 1.894-2.052zm-1.99 2.14l4.103 4.778-.965 1.061-5.041-3.797c.631-.666 1.263-1.35 1.903-2.042zm-1.991 2.139l4.121 4.804-.964 1.061-5.068-3.814c.64-.675 1.28-1.359 1.911-2.051zm-1.981 2.139l4.147 4.831-.956 1.052-5.093-3.831 1.429-1.535c.149-.166.306-.342.473-.517zm-1.99 2.139l4.164 4.857-.955 1.052-5.129-3.857c.64-.675 1.28-1.359 1.92-2.052zm-1.99 2.139l4.19 4.884-.955 1.052-5.164-3.884a428.9 428.9 0 0 0 1.929-2.052zm-1.999 2.131l4.217 4.918-.947 1.044-5.199-3.911c.64-.683 1.28-1.359 1.929-2.051zm-1.99 2.121l4.252 4.954-.956 1.043-5.234-3.936c.64-.684 1.28-1.368 1.938-2.061zm-2.008 2.131l4.278 4.98-.955 1.034-5.269-3.963a228.44 228.44 0 0 0 1.946-2.051zm-1.999 2.122l4.305 5.014-.947 1.035-5.304-3.989c.64-.675 1.297-1.368 1.946-2.06zm-1.999 2.121l4.331 5.041-.947 1.035-5.339-4.015c.649-.676 1.298-1.368 1.955-2.061zm-2.007 2.122l4.357 5.076-.947 1.035-5.366-4.042c.649-.684 1.298-1.368 1.956-2.069zm-1.999 2.122l4.383 5.111-.947 1.034-5.4-4.059c.649-.692 1.297-1.385 1.964-2.086zm-1.999 2.121l4.41 5.138-.947 1.034-5.427-4.085c.324-.342.631-.675.964-1.017.325-.351.667-.71 1-1.07zm-1.999 2.122l4.436 5.172-.947 1.035-5.462-4.112c.649-.684 1.306-1.376 1.973-2.095zm-1.999 2.122l4.471 5.207-.947 1.026-5.506-4.138c.64-.684 1.298-1.377 1.982-2.095zm-2.008 2.121l4.498 5.243-.938 1.026-5.55-4.173c.64-.684 1.306-1.377 1.99-2.096zm-2.016 2.104l4.541 5.287-.938 1.026-5.602-4.217c.64-.667 1.306-1.368 1.999-2.096zm-2.017 2.113l4.577 5.331-.938 1.025-5.655-4.252c.649-.675 1.324-1.376 2.016-2.104zm138.872-106.609l-5.909.544c-1.525.131-3.06.28-4.585.412-.289-.289-.579-.57-.921-.842-.754-.605-1.683-1.21-2.954-1.516a1.795 1.795 0 0 0-.289-.062l-.825-.771a.878.878 0 0 0-.955-.158l-1.745-1.64a.33.33 0 0 0-.464.018.332.332 0 0 0 .017.465l1.745 1.639a.884.884 0 0 0-.044.456c-.123.009-.237.018-.368.026l-1.473.079-.903-.877a.879.879 0 0 0-.965-.166l-1.753-1.64a.332.332 0 0 0-.465.018.332.332 0 0 0 .018.465l1.744 1.639a.864.864 0 0 0 .018.675l-1.49.062-1.14-1.061a.88.88 0 0 0-.956-.158l-1.744-1.64a.332.332 0 0 0-.465.018.332.332 0 0 0 .017.465l1.745 1.639a.852.852 0 0 0 .149.868c-.429.026-.868.061-1.315.096l-1.368-1.28a.877.877 0 0 0-.955-.157l-1.736-1.631c2.244-.105 4.261-.21 6.023-.289 5.102-.272 8.022-.421 8.022-.421s-2.92.026-8.031.088c-2.551.035-5.655.087-9.214.14a8.83 8.83 0 0 0-5.462 1.972c-.833.675-1.464 1.465-2.201 2.218-.719.763-1.455 1.544-2.2 2.341-5.997 6.392-13.046 13.791-20.498 21.813-7.452 8.022-15.404 16.579-23.356 25.136-7.89 8.609-15.789 17.218-23.189 25.293-7.408 8.066-14.211 15.693-20.103 22.172-5.883 6.488-10.705 11.976-14.124 15.772a3582.64 3582.64 0 0 1-5.322 6.014s2.026-2.104 5.576-5.786a628 628 0 0 1 3.551-3.717l4.612 5.374c-.316.342-.632.684-.947 1.017l-5.655-4.252 4.62 5.374-.947 1.026-5.654-4.252 4.611 5.374-.947 1.026-5.646-4.252 4.603 5.365c-.316.342-.631.676-.956 1.017l-5.637-4.234 4.594 5.348c-.316.342-.64.684-.956 1.026l-5.619-4.226 4.585 5.339c-.281.298-.552.596-.824.886a1.799 1.799 0 0 0-.132.14l-5.602-4.217 4.568 5.313c-.325.342-.64.684-.965 1.025l-5.576-4.19 4.542 5.286c-.325.342-.658.684-.991 1.017l-5.532-4.155 4.489 5.234c-.246.254-.482.508-.728.754l-.272.271-5.462-4.111 4.419 5.146c-.351.342-.693.684-1.043 1.026l-5.357-4.033 4.322 5.032c-.368.351-.736.684-1.096 1.026l-5.199-3.91 4.174 4.866c-.211.193-.412.385-.614.578-.175.158-.36.316-.535.474l-5.006-3.77 3.998 4.655c-.412.36-.833.702-1.245 1.052l-4.734-3.559 3.743 4.357c-.456.359-.912.719-1.376 1.061l-4.349-3.27 3.393 3.954c-2.411 1.718-4.953 3.209-7.671 4.339-5.076 2.21-10.635 3.227-16.254 3.691-.702.053-1.403.132-2.105.167l-2.112.079c-1.394.079-2.832.079-4.27.07h-2.157l-2.113-.044a167.547 167.547 0 0 1-4.269-.158c-5.664-.306-11.424-.727-16.702-2.288l-.166-.052-.219-.009a8.604 8.604 0 0 1-1.254-.123 6.336 6.336 0 0 1-1.21-.333 3.291 3.291 0 0 1-.579-.246c-.184-.096-.377-.175-.552-.289a7.006 7.006 0 0 1-1.026-.728c-.149-.14-.315-.28-.464-.429l-.421-.465a10.13 10.13 0 0 1-.71-1.034 7.07 7.07 0 0 1-.518-1.14c-.079-.193-.131-.395-.184-.596a3.136 3.136 0 0 1-.123-.588c-.026-.193-.07-.342-.078-.622l-.018-.368-.009-.184v-.106c.009-.42.044-.841.132-1.245a6.27 6.27 0 0 1 .342-1.201c.14-.394.333-.762.543-1.131a7.039 7.039 0 0 1 1.64-1.885 6.45 6.45 0 0 1 1.043-.701c.368-.21.754-.368 1.149-.517l.227-.088.158-.123c1.973-1.578 3.884-3.252 5.594-5.207.85-.982 1.657-2.026 2.323-3.227.167-.28.333-.657.491-.982l.167-.438.078-.219.097-.298.552-1.771 4.428-14.15 4.427-14.151 2.209-7.119c.351-1.297.553-2.691.36-4.129a6.796 6.796 0 0 0-1.14-3.016c.202.219.395.447.57.684a7.336 7.336 0 0 1 1.113 6.61l-12.23 39.479c-.079.254-.184.491-.28.737l-.044.026.017.026c-.569 1.42-1.437 2.718-2.568 3.752l-1.903 1.754-.158.105.018.026-.859.789.78.202a8.609 8.609 0 0 1 6.444 7.689c-.026.272-.044.57-.105.789-.044.245-.132.508-.211.771a8.886 8.886 0 0 1-.719 1.491 13.48 13.48 0 0 1-.982 1.368c-.359.429-.754.85-1.157 1.209l-.017.018a.477.477 0 0 0-.141.272.426.426 0 0 0 .377.473c2.42.272 4.831.509 7.259.684 1.21.088 2.42.158 3.639.202 1.21.044 2.428.061 3.638-.009-1.21 0-2.419-.105-3.621-.211a100.365 100.365 0 0 1-3.603-.42 170.323 170.323 0 0 1-6.312-.973c.21-.228.421-.456.622-.693.386-.465.737-.956 1.061-1.473.316-.517.587-1.07.798-1.657.088-.298.193-.587.245-.912.07-.289.079-.535.106-.789l5.242-8.013a7.067 7.067 0 0 0 .912-2.034l13.344-48.728c.745-2.709.236-5.33-1.421-7.399-1.779-2.227-4.725-3.455-7.872-3.306l-68.902 2.306a657.59 657.59 0 0 0-8.32-.088c-1.236-.008-2.481 0-3.735.027l-1.876.035-1.85.087c-2.507.15-4.918.316-7.399.43-9.863.473-19.744.815-29.624 1.157l-14.817.483-3.708.113-1.85.053-.421.009-.386-.009c-.254-.026-.517-.044-.754-.123-1-.236-1.876-.885-2.472-1.718-.57-.85-.868-1.894-.728-2.928l4.857-29.107c.21-.553.57-1.044 1.043-1.385.509-.369 1.017-.518 1.806-.632l4.612-.806 9.232-1.613 18.464-3.227 36.918-6.444 36.919-6.444 18.463-3.226c.772-.14 1.526-.254 2.341-.429a28.586 28.586 0 0 0 2.332-.623 33.924 33.924 0 0 0 4.489-1.727l.053-.026 13.098-2.517v.027l.403-.105.254-.053v-.018l.921-.245 92.152-24.487 46.08-12.221 23.04-6.11 11.52-3.052a25.246 25.246 0 0 0 2.981-.938c.982-.386 1.937-.807 2.902-1.227 1.692-.798 3.314-1.631 4.866-2.753 1.332-.07 2.656-.21 3.989-.307l4.462-.368c.745-.053 1.482-.15 2.227-.228l2.227-.255 3.323-.377.026.035c.237.342.456.693.675 1.044.465.692.868 1.42 1.21 2.165.175.36.324.78.412 1.122.105.281.193.912.245 1.228.097.885.176 1.797.255 2.709.131 1.823.315 3.656.394 5.497.053.921.123 1.85.167 2.779l.096 1.412c.044.491.097.964.149 1.411v.018c.123.999.316 1.92.509 2.84l.57 2.744c.35 1.815.71 3.648.938 5.383.052.43.105.86.114 1.237l.017.289-.017.114c.008 0-.027.298-.062.517.035-.394.009-.105.018-.193v.018l-.009.017-.009.044-.026.079-.044.167-.096.333-.184.666c-.132.439-.237.886-.351 1.324-.219.886-.456 1.771-.649 2.656-.035.167-.079.342-.114.509-1.289.07-2.569.131-3.857.21l-5.936.491z" fill="#1F2B6B"/><path d="M355.724 108.065c-.903-.947-2.139-1.552-3.568-1.569-.193 0-.386.008-.578.017-.202.009-.237.035-.36.053l-.316.052-.219.044-.079.018-.149.044-1.227.315-9.811 2.543-19.629 5.085-39.251 10.17-39.251 10.169-19.629 5.077-9.819 2.533c-.789.211-1.701.404-2.604.816-.886.403-1.824 1.034-2.42 1.99-.605.947-.807 2.025-.842 2.946-.052.938.009 1.797.009 2.603v.053l.009.044c.324 3.358.614 6.716.929 10.082l-.096.009a2.097 2.097 0 0 0-1.955 2.253l1.709 21.366c.079 1.096 1.008 1.946 2.113 1.946h.123l.245-.026c.114 1.639.22 3.279.316 4.927.096 1.701.184 3.358.228 5.05l.026 1.271-.052 1.201c-.027.807-.158 1.648-.237 2.472-.412 3.332-.991 6.672-1.569 10.004-.193 1.078-.404 2.148-.605 3.226l-12.564 43.626a2.435 2.435 0 0 0 .272 2.446 2.438 2.438 0 0 0 2.244.973l11.301-1.008v-.009c.044 0 .097-.009.141-.009.236-.018.447-.053.666-.079 1.736-.254 3.393-.622 5.067-.982 1.666-.368 3.323-.754 4.98-1.157 1.622-.368 3.402-.851 5.006-1.543a24.02 24.02 0 0 0 8.531-6.12l13.405-15.36 6.698-7.662 6.847-7.522 13.721-15.054 27.458-30.089 27.459-30.089 13.73-15.044c2.314-2.49 4.471-5.111 6.759-7.61 2.402-2.393 4.673-4.91 6.952-7.408.851-.912 1.394-2.262 1.342-3.577a5.052 5.052 0 0 0-1.456-3.507zm-146.972 77.791a1.237 1.237 0 0 1-1.298-1.14l-1.71-21.356a1.188 1.188 0 0 1 .298-.895 1.27 1.27 0 0 1 .851-.421l.105-.008c.281 3.103.587 6.207.859 9.319.412 4.822.807 9.653 1.149 14.484l-.254.017zm-5.804 74.653l-.895.078.421-.306c.158.087.316.157.474.228zm-2.183.192l-1.131.106 1.718-1.307c.167.149.342.281.526.412l-1.113.789zm-2.368.22l-1.192.105 3.253-2.446c.131.166.263.324.403.473l-2.464 1.868zm-2.709-.412l4.06-3.06c.096.201.21.394.324.587l-3.831 2.885a1.479 1.479 0 0 1-.553-.412zm8.215-28.906a1265.733 1265.733 0 0 1-4.261 19.902l-.271 1.245-.132.631c-.035.245-.088.482-.114.728-.088.92.044 1.858.36 2.717l-4.121 3.104a1.643 1.643 0 0 1 .07-1.149l9.942-34.49c-.482 2.438-.973 4.875-1.473 7.312zm149.244-118.909l-.018.018c-2.262 2.524-4.541 5.041-6.68 7.68-2.253 2.533-4.647 4.953-6.891 7.504l-13.572 15.176-27.152 30.361-27.152 30.361-13.58 15.176-6.795 7.601-6.628 7.724-13.264 15.421a21.906 21.906 0 0 1-7.856 5.673c-1.516.657-3.024 1.069-4.708 1.464-1.639.403-3.287.789-4.936 1.166-1.639.359-3.305.727-4.927.973-.201.026-.403.061-.596.07a6.088 6.088 0 0 1-.596.044l-1.271.079c-.886.07-1.578.079-2.236-.106-1.368-.35-2.542-1.393-3.068-2.717a4.444 4.444 0 0 1-.307-2.078c.017-.175.052-.351.079-.526.035-.184.087-.412.131-.614l.272-1.245 4.261-19.928c1.385-6.645 2.735-13.308 3.954-19.998.596-3.349 1.183-6.698 1.613-10.108.079-.868.21-1.701.254-2.595.018-.447.053-.877.061-1.342l-.026-1.271a141.862 141.862 0 0 0-.219-5.12c-.368-6.794-.929-13.563-1.438-20.34a2622.884 2622.884 0 0 0-1.683-20.252c-.009-1.727-.132-3.349.526-4.287.298-.491.824-.859 1.464-1.148.64-.29 1.394-.448 2.236-.667l9.836-2.455 19.674-4.9 39.356-9.785 39.356-9.784 19.673-4.892 9.837-2.446 1.227-.307c.044-.035.947-.184.798-.114.018-.017.14.027.219.027.088.008.167.061.255.078.157.097.324.176.456.334.28.28.455.692.455 1.06.009.36-.096.702-.394 1.035z" fill="#1F2B6B"/><path d="M355.874 115.123l-.018.017v.009l.018-.026zm-153.408 31.324a21.18 21.18 0 0 0-2.385.263c-.859.15-1.71.351-2.341.544-.631.193-1.043.368-1.043.368s.447.027 1.104 0a20.325 20.325 0 0 0 4.726-.806 11.461 11.461 0 0 0 1.043-.369s-.438-.026-1.104 0zm-.009 1.105c-.649.027-1.5.114-2.341.263-.842.149-1.675.342-2.297.535-.614.193-1.026.368-1.026.368s.438.027 1.087.009a18.313 18.313 0 0 0 2.341-.263 19.972 19.972 0 0 0 2.297-.535c.614-.193 1.026-.368 1.026-.368s-.439-.035-1.087-.009zm-.009 1.096c-.631.026-1.473.114-2.297.254a19.07 19.07 0 0 0-2.253.535c-.605.193-1 .368-1 .368s.43.027 1.07.009a19.262 19.262 0 0 0 2.297-.254 19.07 19.07 0 0 0 2.253-.535c.605-.193 1-.368 1-.368s-.439-.026-1.07-.009zm-.018 1.096a18.777 18.777 0 0 0-4.471.78c-.596.193-.982.36-.982.36s.421.026 1.052.009a18.753 18.753 0 0 0 4.471-.781c.597-.193.982-.359.982-.359s-.421-.026-1.052-.009zm-.008 1.105c-.614.026-1.421.105-2.218.245-.798.141-1.587.333-2.166.526s-.964.36-.964.36.421.026 1.025.009a17.992 17.992 0 0 0 2.219-.246c.797-.14 1.586-.333 2.165-.526s.964-.359.964-.359-.412-.027-1.025-.009zm-.009 1.096a15.5 15.5 0 0 0-2.174.245 17.87 17.87 0 0 0-2.131.517c-.57.193-.947.36-.947.36s.412.026 1.009.009a16.995 16.995 0 0 0 2.174-.246c.78-.14 1.552-.333 2.13-.517.57-.193.947-.359.947-.359s-.412-.027-1.008-.009zm-.018 1.104c-.587.018-1.367.106-2.13.237-.763.14-1.526.333-2.087.517-.561.184-.929.36-.929.36s.403.035.991.017a16.534 16.534 0 0 0 2.139-.236 17.042 17.042 0 0 0 2.087-.518c.561-.184.92-.359.92-.359s-.394-.035-.991-.018zm-.008 1.096a16.145 16.145 0 0 0-4.139.745 8.768 8.768 0 0 0-.903.351s.395.035.974.018a15.965 15.965 0 0 0 4.138-.746c.552-.184.903-.35.903-.35s-.395-.027-.973-.018zm-.009 1.105a14.78 14.78 0 0 0-2.052.228c-.736.14-1.464.324-1.999.508a9.393 9.393 0 0 0-.885.351s.386.035.956.017a14.906 14.906 0 0 0 2.051-.227 15.488 15.488 0 0 0 1.999-.509c.535-.184.885-.351.885-.351s-.385-.035-.955-.017zm-.018 1.096c-.552.017-1.289.096-2.007.227-.719.132-1.429.325-1.956.5a8.711 8.711 0 0 0-.867.351s.377.035.938.017a14.209 14.209 0 0 0 2.007-.228 14.97 14.97 0 0 0 1.955-.499c.526-.184.868-.351.868-.351s-.377-.026-.938-.017zm-.008 1.104c-.544.018-1.263.097-1.973.22-.71.131-1.403.315-1.92.499-.517.184-.85.351-.85.351s.368.035.92.018a15.231 15.231 0 0 0 1.973-.22c.71-.131 1.403-.315 1.92-.499.517-.184.85-.351.85-.351s-.377-.035-.92-.018zm-.009 1.096c-.535.018-1.236.088-1.929.219a14.13 14.13 0 0 0-1.876.491c-.5.184-.824.342-.824.342s.368.035.903.027a13.125 13.125 0 0 0 1.928-.22 13.885 13.885 0 0 0 1.877-.491c.499-.184.824-.35.824-.35s-.369-.027-.903-.018zm-.018 1.105c-.526.017-1.209.087-1.885.21-.675.132-1.341.316-1.832.491a9.114 9.114 0 0 0-.806.342s.359.035.876.026c.526-.017 1.21-.087 1.885-.21.675-.132 1.342-.307 1.833-.491.49-.184.806-.342.806-.342s-.351-.035-.877-.026zm-1.85 1.306c-.657.132-1.306.307-1.788.482-.482.176-.789.342-.789.342s.35.035.859.027a13.081 13.081 0 0 0 1.841-.211 12.91 12.91 0 0 0 1.788-.482c.483-.184.79-.342.79-.342s-.351-.035-.86-.026a12.92 12.92 0 0 0-1.841.21zm.027 1.096a12.04 12.04 0 0 0-1.745.482c-.465.176-.772.342-.772.342s.342.035.842.027c.5-.009 1.157-.079 1.806-.202a10.99 10.99 0 0 0 1.745-.482c.464-.176.771-.342.771-.342s-.342-.035-.841-.026c-.5.008-1.158.078-1.806.201zm1.788.894c-.491.009-1.131.079-1.762.202-.631.123-1.245.307-1.701.474a6.464 6.464 0 0 0-.754.341s.333.036.824.027a10.748 10.748 0 0 0 1.762-.202 10.656 10.656 0 0 0 1.701-.473c.456-.176.754-.342.754-.342s-.333-.035-.824-.027zm-.009 1.105c-.482.009-1.104.079-1.718.202-.614.122-1.219.298-1.666.473a6.373 6.373 0 0 0-.728.333s.325.035.807.035a10.958 10.958 0 0 0 1.718-.193 10.327 10.327 0 0 0 1.666-.473c.447-.175.728-.333.728-.333s-.333-.053-.807-.044zm-.008 1.096c-.465.009-1.079.079-1.675.193-.596.123-1.183.298-1.622.464-.429.176-.71.334-.71.334s.325.035.789.035a10.584 10.584 0 0 0 1.675-.193 10.75 10.75 0 0 0 1.622-.465c.429-.175.71-.333.71-.333s-.325-.035-.789-.035zm-.018 1.105a9.18 9.18 0 0 0-1.64.193 9.211 9.211 0 0 0-1.578.464c-.42.176-.692.333-.692.333s.315.044.771.035a9.264 9.264 0 0 0 1.64-.192 9.297 9.297 0 0 0 1.578-.465c.421-.175.692-.333.692-.333s-.315-.044-.771-.035zm-.009 1.096a9.402 9.402 0 0 0-1.595.184 9.427 9.427 0 0 0-1.535.456c-.412.175-.675.333-.675.333s.307.044.754.035a9.504 9.504 0 0 0 1.596-.184 9.584 9.584 0 0 0 1.534-.456c.412-.175.675-.333.675-.333s-.307-.035-.754-.035zm-.009 1.104a9.137 9.137 0 0 0-1.551.184 8.429 8.429 0 0 0-1.491.456c-.394.176-.657.325-.657.325s.298.044.727.035c.43-.009 1-.07 1.552-.184a8.416 8.416 0 0 0 1.49-.456c.395-.176.649-.333.649-.333s-.289-.027-.719-.027zm-.017 1.096c-.421 0-.973.061-1.508.175a8.136 8.136 0 0 0-1.455.448c-.386.166-.632.324-.632.324s.29.044.711.044c.42 0 .973-.062 1.508-.176a8.19 8.19 0 0 0 1.455-.447c.386-.166.631-.324.631-.324s-.289-.044-.71-.044zm-.009 1.105c-.412 0-.947.061-1.473.175a7.708 7.708 0 0 0-1.411.447c-.377.167-.614.325-.614.325s.28.043.692.043c.413 0 .947-.061 1.473-.175a7.643 7.643 0 0 0 1.412-.447c.377-.167.614-.324.614-.324s-.281-.044-.693-.044zm-.017 1.096a7.177 7.177 0 0 0-2.797.613c-.359.167-.596.325-.596.325s.272.044.675.044.92-.062 1.429-.167a7.884 7.884 0 0 0 1.368-.438c.359-.167.596-.325.596-.325s-.272-.052-.675-.052zm-1.394 1.271a6.936 6.936 0 0 0-1.324.438c-.351.167-.579.325-.579.325s.272.043.658.043.894-.052 1.385-.166a6.864 6.864 0 0 0 1.324-.439c.35-.166.578-.324.578-.324s-.271-.044-.657-.044a6.44 6.44 0 0 0-1.385.167zm189.546-83.253a53.754 53.754 0 0 0 3.761-.193 49.433 49.433 0 0 0 3.735-.474c1.017-.175 1.683-.341 1.683-.341s-.692-.044-1.718-.035a53.791 53.791 0 0 0-3.761.192 49.433 49.433 0 0 0-3.735.474c-1.017.175-1.683.342-1.683.342s.692.044 1.718.035zm3.84 1.578a46.06 46.06 0 0 0 3.586-.456c.973-.175 1.622-.333 1.622-.333s-.667-.044-1.648-.044c-.991 0-2.297.07-3.613.184a50.73 50.73 0 0 0-3.585.456c-.973.175-1.622.333-1.622.333s.666.044 1.648.044a48.88 48.88 0 0 0 3.612-.184zm.088 1.78a47.1 47.1 0 0 0 3.436-.439c.93-.166 1.552-.324 1.552-.324s-.64-.044-1.587-.053c-.947 0-2.209.053-3.463.167a42.44 42.44 0 0 0-3.437.447c-.929.167-1.551.324-1.551.324s.64.044 1.586.053a55.15 55.15 0 0 0 3.464-.175zm.087 1.77a36.22 36.22 0 0 0 3.288-.43 26.246 26.246 0 0 0 1.482-.315s-.605-.052-1.517-.061a36.315 36.315 0 0 0-3.314.149 36.355 36.355 0 0 0-3.288.43 26 26 0 0 0-1.481.315s.605.053 1.516.053a36.39 36.39 0 0 0 3.314-.14zm.079 1.78a33.344 33.344 0 0 0 3.139-.412 22.26 22.26 0 0 0 1.42-.307s-.578-.052-1.446-.061a35.597 35.597 0 0 0-3.165.131 33.388 33.388 0 0 0-3.139.412c-.85.158-1.42.307-1.42.307s.578.053 1.446.062c.868.008 2.017-.035 3.165-.132zm.088 1.771c1.096-.096 2.183-.236 2.989-.394.816-.158 1.351-.307 1.351-.307s-.553-.052-1.386-.07a31.88 31.88 0 0 0-3.016.114 33.534 33.534 0 0 0-2.989.394c-.815.158-1.35.307-1.35.307s.552.053 1.385.07a31.88 31.88 0 0 0 3.016-.114zm.088 1.78a29.255 29.255 0 0 0 2.849-.377c.771-.149 1.28-.298 1.28-.298s-.526-.061-1.315-.079a30.981 30.981 0 0 0-2.867.097 29.117 29.117 0 0 0-2.849.377c-.772.149-1.28.298-1.28.298s.526.061 1.315.079c.78.017 1.823-.018 2.867-.097zm.078 1.771a26.589 26.589 0 0 0 2.701-.359c.727-.149 1.218-.29 1.218-.29s-.499-.061-1.245-.087c-.745-.027-1.735 0-2.717.078-.982.079-1.964.22-2.701.36-.727.149-1.218.289-1.218.289s.499.062 1.245.088c.745.026 1.736 0 2.717-.079zm.088 1.78a23.927 23.927 0 0 0 2.551-.342c.693-.14 1.149-.281 1.149-.281s-.474-.061-1.175-.096a22.217 22.217 0 0 0-2.569.07c-.929.079-1.858.211-2.551.342-.693.14-1.148.281-1.148.281s.473.061 1.174.096c.702.018 1.64 0 2.569-.07zm.088 1.771c.877-.07 1.753-.193 2.402-.325.649-.14 1.078-.271 1.078-.271s-.447-.071-1.113-.106a19.396 19.396 0 0 0-2.42.053c-.876.07-1.753.193-2.402.333-.649.14-1.078.272-1.078.272s.447.07 1.113.105a23.65 23.65 0 0 0 2.42-.061zm.315 1.727a24.513 24.513 0 0 0 2.578-.342c.701-.14 1.157-.281 1.157-.281s-.482-.061-1.192-.096a22.65 22.65 0 0 0-2.595.07c-.938.079-1.876.211-2.578.342-.701.14-1.157.281-1.157.281s.482.061 1.192.096c.71.018 1.649 0 2.595-.07zm.316 1.727c1-.079 1.999-.219 2.744-.36a17.492 17.492 0 0 0 1.236-.289s-.508-.061-1.271-.088c-.763-.026-1.771 0-2.77.079-1 .079-1.999.22-2.744.36-.746.149-1.237.289-1.237.289s.509.062 1.272.088c.754.026 1.762 0 2.77-.079zm.316 1.727a29.842 29.842 0 0 0 2.919-.377c.789-.149 1.315-.298 1.315-.298s-.543-.061-1.35-.079a33.041 33.041 0 0 0-2.946.097c-1.069.087-2.13.227-2.919.377-.789.149-1.315.298-1.315.298s.543.061 1.35.079c.806.017 1.876-.018 2.946-.097zm.315 1.727a33.272 33.272 0 0 0 3.095-.394c.842-.158 1.394-.307 1.394-.307s-.57-.053-1.429-.07c-.85-.018-1.99.026-3.121.114a36.28 36.28 0 0 0-3.095.394c-.841.158-1.394.298-1.394.298s.57.053 1.429.07c.86.018 1.99-.017 3.121-.105zm.316 1.719a37.27 37.27 0 0 0 3.27-.412c.886-.158 1.473-.307 1.473-.307s-.605-.053-1.508-.07a38.5 38.5 0 0 0-6.558.543c-.885.158-1.473.307-1.473.307s.605.053 1.508.061c.903.018 2.096-.026 3.288-.122zm.316 1.727a43.228 43.228 0 0 0 3.436-.421c.938-.167 1.552-.316 1.552-.316s-.64-.052-1.587-.061a39.61 39.61 0 0 0-3.463.149 39.146 39.146 0 0 0-3.437.43c-.938.166-1.551.315-1.551.315s.64.053 1.586.062c.947-.009 2.21-.053 3.464-.158zm.315 1.727a47.365 47.365 0 0 0 3.612-.439c.982-.166 1.631-.324 1.631-.324s-.666-.044-1.666-.053c-.999 0-2.314.053-3.638.158-1.315.114-2.63.281-3.612.439-.982.166-1.631.324-1.631.324s.666.044 1.666.053c.999.008 2.323-.053 3.638-.158zm.325 1.727a51.07 51.07 0 0 0 3.787-.456 33.226 33.226 0 0 0 1.71-.333s-.702-.044-1.745-.044c-1.043 0-2.429.061-3.814.175a51.07 51.07 0 0 0-3.787.456c-1.026.176-1.71.333-1.71.333s.702.044 1.745.044a49.29 49.29 0 0 0 3.814-.175zm.254 1.069a55.392 55.392 0 0 0-3.963.474c-1.078.175-1.789.342-1.789.342s.728.044 1.824.035a54.385 54.385 0 0 0 3.98-.193 55.44 55.44 0 0 0 3.963-.473c1.079-.176 1.789-.342 1.789-.342s-.728-.044-1.824-.035a59.485 59.485 0 0 0-3.98.192zm-344.69 73.487a2.814 2.814 0 0 0-2.806 2.806 2.813 2.813 0 0 0 2.806 2.805 2.813 2.813 0 0 0 2.805-2.805 2.809 2.809 0 0 0-2.805-2.806zm0 4.954a2.152 2.152 0 0 1-2.148-2.148c0-1.184.964-2.148 2.148-2.148 1.183 0 2.148.964 2.148 2.148a2.152 2.152 0 0 1-2.148 2.148z" fill="#1F2B6B"/><path d="M52.968 195.254c-.807 0-1.456.658-1.456 1.456a1.47 1.47 0 0 0 1.456 1.464c.797 0 1.455-.658 1.455-1.464 0-.807-.649-1.456-1.455-1.456zm0 2.482a1.02 1.02 0 0 1-1.017-1.026 1.018 1.018 0 0 1 2.034 0 1.009 1.009 0 0 1-1.017 1.026zm5.681-29.546a2.475 2.475 0 0 0-2.473-2.472 2.48 2.48 0 0 0-2.472 2.472 2.488 2.488 0 0 0 2.472 2.481 2.488 2.488 0 0 0 2.473-2.481zm-2.473 1.815a1.82 1.82 0 0 1 0-3.638 1.818 1.818 0 0 1 0 3.638z" fill="#1F2B6B"/><path d="M56.176 166.893a1.3 1.3 0 0 0-1.297 1.297c0 .719.579 1.298 1.297 1.298.72 0 1.298-.579 1.298-1.298a1.3 1.3 0 0 0-1.298-1.297zm0 2.148a.86.86 0 0 1 0-1.719c.474 0 .86.395.86.868a.859.859 0 0 1-.86.851zm144.492 15.351c-.394.193-.833.394-1.315.526a4.602 4.602 0 0 1-1.499.166 1206.58 1206.58 0 0 0-3.551-.157c-.815-.035-1.639-.07-2.437-.106a7.789 7.789 0 0 0 2.639-3.883c.079-.246.14-.5.184-.763.061-.254.087-.535.114-.833.035-.324.026-.544.026-.78l-.009-.421-.017-.368c-.053-.982-.097-2.034-.158-3.139-.219-4.419-.482-9.784-.78-15.939-.079-1.543-.158-3.13-.237-4.76l-.035-.623c-.026-.245-.044-.491-.088-.736a6.963 6.963 0 0 0-.421-1.447 6.728 6.728 0 0 0-1.797-2.472 6.48 6.48 0 0 0-2.779-1.429c-.535-.123-1.026-.202-1.622-.184-.14 0-.298 0-.43.008l-.333.036-.166.017-.141.018-.087.017-.333.062c-1.789.306-3.621.622-5.489.946L70.274 167.05l-3.735.675-1.867.334c-.316.061-.605.096-.956.175a6.92 6.92 0 0 0-1.026.289c-1.359.465-2.48 1.421-3.349 2.56a6.626 6.626 0 0 0-1.087 1.912l-.158.578-.079.474-.096.99c-.228 2.508-.465 5.015-.658 7.514-.096 1.245-.201 2.498-.298 3.743l-.14 1.868c-.026.64-.14 1.157-.088 2.051.123 1.631 1.175 3.104 2.622 3.805a4.7 4.7 0 0 0 1.14.386c.201.026.385.07.613.079.228.009.456.017.579 0l.228-.018.29-.035.455-.052.92-.114c2.447-.298 4.884-.588 7.304-.886 4.848-.552 9.635-1.104 14.334-1.639 9.416-1.026 18.542-1.894 27.187-2.481 4.322-.307 8.548-.404 12.633-.561 4.086-.15 8.04-.29 11.827-.43 30.326-1.07 50.543-1.789 50.543-1.789l.281-.026c.184-.026.464-.026.824-.105.035-.009.07-.018.114-.026 1.665-.097 3.673-.211 5.681-.316 1.21-.07 2.411-.131 3.542-.202a4.987 4.987 0 0 0 1.666-.385 8.148 8.148 0 0 0 1.315-.719 12.551 12.551 0 0 0 1.709-1.394c.377-.368.579-.596.579-.596s-.228.201-.64.526c-.412.315-1.026.754-1.815 1.157zm-63.86 1.885c-7.584.377-15.772.719-24.478 1.201-8.706.552-17.832 1.438-27.275 2.376-4.716.491-9.512.999-14.37 1.508a6052.2 6052.2 0 0 1-7.32.815l-.92.105-.465.053-.114.017c-.009 0-.061.009-.079.009l-.21.009c-.184.018-.263 0-.342-.009-.079 0-.202-.026-.307-.044a2.505 2.505 0 0 1-.614-.219c-.78-.394-1.341-1.21-1.394-2.086-.035-.36.062-1.079.114-1.675l.167-1.867c.114-1.245.22-2.49.333-3.735.228-2.499.412-5.006.614-7.514l.07-.894.044-.456.044-.342a4.859 4.859 0 0 1 .438-1.534c.5-.982 1.447-1.692 2.464-2.095.263-.097.526-.167.797-.219.272-.062.614-.106.912-.158l1.876-.298 3.744-.597c39.908-6.654 79.816-13.317 109.739-18.305 1.867-.316 3.699-.614 5.488-.921l.333-.053.053-.008a.672.672 0 0 0 .052-.009l.167-.018.333-.035c.096-.008.166 0 .245 0a4.34 4.34 0 0 1 1.026.123 4.29 4.29 0 0 1 1.841.964 4.482 4.482 0 0 1 1.175 1.64c.132.307.21.631.272.956.026.166.035.333.052.49l.027.605a33301.828 33301.828 0 0 1 .912 20.708c.052 1.105.096 2.148.14 3.139l.017.368v.298c0 .246-.008.491-.035.623a5.264 5.264 0 0 1-2.332 3.752c-.798.518-1.508.719-1.981.798-.237.061-.43.053-.552.07-.123.009-.185.018-.185.018s-20.208.973-50.516 2.446zm-5.813 6.014a1.4 1.4 0 0 0-1.481-1.183c-8.013.613-27.775 2.139-38.032 3.007-11.66.991-29.099 2.691-31.045 2.875a1.252 1.252 0 0 0-1.122 1.105l-.079.649c-.044.368.079.745.333 1.008.237.254.561.395.903.395h.08c3.857-.246 23.486-1.5 31.263-2.21 7.75-.719 33.184-1.438 38.207-1.569a1.4 1.4 0 0 0 1.035-.5c.254-.307.368-.71.307-1.113l-.369-2.464zm-.605 2.999a.494.494 0 0 1-.385.184c-5.024.14-30.484.859-38.26 1.578-7.768.719-27.389 1.964-31.238 2.209a.363.363 0 0 1-.298-.114.373.373 0 0 1-.105-.307l.079-.648a.374.374 0 0 1 .333-.334c1.946-.192 19.384-1.885 31.036-2.875 10.257-.877 30.01-2.394 38.023-3.007h.044a.51.51 0 0 1 .508.447l.369 2.455a.467.467 0 0 1-.106.412zm89.43-57.7l-.11-1.36.49-.13.12 2.18-.52.14-.59-1.1.05 1.25-.52.13-.99-1.94.49-.13.58 1.23-.06-1.37.42-.11.64 1.21zm3.71-1.24c.05.2.07.39.03.56a.87.87 0 0 1-.22.45c-.11.12-.26.2-.43.25-.18.05-.34.05-.5.01a.93.93 0 0 1-.42-.26c-.12-.13-.2-.29-.26-.48l-.03-.12c-.05-.2-.06-.39-.03-.57.03-.17.11-.32.22-.44.12-.12.26-.21.44-.25.17-.05.34-.05.5 0 .16.05.3.14.42.27s.2.3.26.5l.02.08zm-.53.06c-.06-.21-.13-.36-.23-.44a.352.352 0 0 0-.34-.08c-.24.06-.33.29-.24.66l.04.15c.05.2.13.35.23.44.1.09.21.12.34.08.12-.03.21-.11.25-.24.04-.13.03-.28-.03-.48l-.02-.09zm3.63-.89c.05.2.06.39.03.56a.87.87 0 0 1-.22.45c-.11.12-.26.2-.43.25-.18.05-.34.05-.5 0a.851.851 0 0 1-.42-.26c-.12-.13-.2-.29-.26-.48l-.03-.12c-.05-.2-.06-.39-.03-.56a.894.894 0 0 1 .66-.7.87.87 0 0 1 .91.27c.11.13.2.3.26.5l.03.09zm-.53.05c-.05-.2-.13-.35-.23-.44a.352.352 0 0 0-.34-.08c-.24.07-.33.29-.24.67l.04.15c.05.2.13.35.23.44.09.09.21.12.34.08.12-.03.21-.11.25-.24.04-.13.03-.29-.02-.49l-.03-.09zm2.15.57l-.55-2.06.66-.18c.18-.05.36-.05.52-.01.17.04.31.13.44.26.12.13.21.29.26.47l.03.09c.05.19.06.37.02.54-.04.17-.12.32-.24.44s-.27.21-.45.26l-.69.19zm.04-1.81l.35 1.29.17-.05c.14-.04.24-.12.29-.24.05-.12.05-.28-.01-.48l-.02-.09c-.05-.2-.13-.34-.24-.42a.418.418 0 0 0-.38-.06l-.16.05zm3.85.18a.23.23 0 0 0-.12-.15.93.93 0 0 0-.31-.06c-.14-.01-.26-.02-.35-.04-.3-.06-.48-.2-.54-.43a.47.47 0 0 1 .01-.33c.04-.11.12-.2.23-.28.11-.08.24-.14.39-.18.15-.04.29-.05.42-.03.13.02.24.07.33.15.09.08.15.18.19.31l-.5.13a.257.257 0 0 0-.13-.17.298.298 0 0 0-.23-.01c-.09.02-.15.06-.19.12-.04.05-.05.11-.04.17.01.05.06.09.12.12.07.03.18.04.33.05.15.01.29.03.39.05.26.07.42.22.48.44.05.18.02.34-.09.48-.11.14-.28.24-.52.3-.17.04-.33.06-.48.03a.7.7 0 0 1-.37-.16c-.1-.09-.16-.2-.2-.33l.5-.13c.03.11.08.18.15.22.07.04.17.04.3 0 .08-.02.14-.06.18-.11.05-.04.07-.1.05-.16zm2.09-2.19l.85 1.31.07-1.56.65-.18.56 2.06-.5.13-.13-.48-.22-1-.1 1.6-.33.1-.89-1.33.31.97.13.48-.5.13-.55-2.05.65-.18zm5.02-.2c.05.2.07.39.03.56-.04.17-.11.32-.22.44s-.26.2-.43.25c-.18.05-.34.05-.5 0a.824.824 0 0 1-.41-.26c-.12-.13-.2-.29-.26-.48l-.03-.12c-.05-.2-.07-.39-.03-.56.03-.17.11-.32.22-.44s.26-.21.44-.25c.17-.05.34-.05.5 0 .16.05.3.13.42.27.12.13.2.3.26.5l.01.09zm-.52.05c-.05-.2-.13-.35-.23-.44a.352.352 0 0 0-.34-.08c-.25.07-.33.29-.24.67l.04.15c.05.2.13.35.23.44.1.09.21.12.34.08.12-.03.21-.11.25-.24.04-.13.02-.29-.03-.49l-.02-.09zm2.64-.39l-.14.28.15.54-.5.13-.55-2.06.5-.13.25.91.1-.31.27-.77.61-.17-.45 1.1 1 .96-.59.16-.65-.64zm3.5-1.06l-.78.21.13.49.92-.25.1.38-1.42.38-.55-2.06 1.43-.37.1.38-.92.25.12.43.78-.21.09.37z" fill="#1F2B6B"/></svg>