<svg width="873" height="149" viewBox="0 0 873 149" fill="none" xmlns="http://www.w3.org/2000/svg"><path d="M257.911 89.434l-45.898 45.897a288.53 288.53 0 0 1-7.281-5.125l.95-.95-1.534-1.096-.932.932a251.788 251.788 0 0 1-7.062-5.399l.859-.859a253.494 253.494 0 0 1-14.033-11.694l-.767.768a255.33 255.33 0 0 1-6.486-6.048l.749-.749a266.219 266.219 0 0 1-7.19-7.19l-.749.749a251.421 251.421 0 0 1-6.048-6.486l.767-.768a252.91 252.91 0 0 1-11.693-14.032l-.859.859a288.59 288.59 0 0 1-5.399-7.062l.932-.932-1.097-1.535-.95.95a289.848 289.848 0 0 1-5.125-7.28l1.033-1.033 43.823-43.824 1.033-1.032a290.61 290.61 0 0 1 7.281 5.125l-.95.95 1.534 1.096.932-.932a251.413 251.413 0 0 1 7.062 5.4l-.859.858a253.09 253.09 0 0 1 14.033 11.694l.767-.767a253.517 253.517 0 0 1 6.486 6.047l-.749.75c2.44 2.347 4.842 4.75 7.19 7.19l.749-.75a251.26 251.26 0 0 1 6.048 6.486l-.767.768a252.871 252.871 0 0 1 11.693 14.032l.859-.858a288.584 288.584 0 0 1 5.399 7.061l-.932.932 1.097 1.535.95-.95a254.235 254.235 0 0 1 5.134 7.272zm-69.778-67.476l-2.924-2.083-12.214 12.214c.795.868 1.59 1.754 2.384 2.622l12.754-12.753zm8.569 6.523l-2.814-2.23L174.95 45.19s1.389 1.973 2.193 2.85l19.559-19.56zm57.792 60.679l-2.083-2.924-12.753 12.754a314.32 314.32 0 0 0 2.622 2.384l12.214-12.214zm-6.386-8.688l-2.229-2.814-19.559 19.56c.886.794 2.85 2.192 2.85 2.192l18.938-18.938zM217.193 46.25l-2.612-2.449-23.57 23.57s1.534 1.846 2.366 2.695l23.816-23.816zm13.375 13.539l-2.448-2.613-23.817 23.817c.85.83 2.695 2.366 2.695 2.366l23.57-23.57zm-33.327-28.12l-16.563 16.563a252.992 252.992 0 0 0 11.675 14.05l18.948-18.947a251.714 251.714 0 0 0-14.06-11.666zm33.784 31.39l-18.957 18.957a251.731 251.731 0 0 0 14.051 11.675l16.572-16.572a251.757 251.757 0 0 0-11.666-14.06zm-9.584-10.131a216.005 216.005 0 0 0-3.636-3.545l-19.422 19.422a219.424 219.424 0 0 0 3.545 3.636 215.23 215.23 0 0 0 3.636 3.545l19.422-19.422a219.815 219.815 0 0 0-3.545-3.636z" fill="#DE5947"/><path fill-rule="evenodd" clip-rule="evenodd" d="M435.069 80.384l-4.302 4.303 2.704 4.44-3.307 3.307-4.44-2.704-44.911 44.911 2.704 4.44-3.307 3.307-4.44-2.704-4.303 4.303-1.288 1.288-11.136-12.288 1.288-1.288-14.316-15.795-1.288 1.288-5.673-6.258 1.288-1.288-5.134-5.664-1.289 1.288-5.673-6.258 1.288-1.288-5.134-5.664-1.288 1.288-5.673-6.258 1.288-1.288-5.134-5.664-1.288 1.288-5.674-6.258 1.288-1.288-5.134-5.664-1.288 1.288-5.673-6.258 1.288-1.288 55.901-55.901 1.288-1.289 6.258 5.674-1.288 1.288 5.664 5.134 1.288-1.288 6.258 5.673-1.288 1.288 5.664 5.135 1.288-1.289 6.258 5.674-1.288 1.288 5.664 5.134 1.288-1.288 6.258 5.673-1.288 1.288 5.664 5.134 1.288-1.288 6.258 5.674-1.288 1.288 15.796 14.315 1.288-1.288 12.287 11.137-1.261 1.26zm-80.951-71.87l-20.089 20.09 2.43 2.43 20.09-20.09-2.431-2.43zm47.753 43.13l-23.041 23.04 2.43 2.43 23.041-23.04-2.43-2.43zm-11.84-10.872l-22.556 22.556 2.43 2.43 22.556-22.556-2.43-2.43zm-11.886-10.844L356.11 51.963l2.43 2.43 22.035-22.035-2.43-2.43zm-12.077-10.634l-21.314 21.314 2.43 2.43 21.314-21.314-2.43-2.43zm64.205 57.5l-24.666 24.666 2.43 2.43 24.666-24.666-2.43-2.43zm-6.294-5.216l-24.127 24.127 2.43 2.43 24.127-24.127-2.43-2.43zm-34.533 16.297c-4.257-4.257-10.049-5.353-12.945-2.457-2.896 2.896-1.791 8.697 2.457 12.945 4.257 4.257 10.05 5.354 12.946 2.458 2.896-2.896 1.79-8.697-2.458-12.945zm-10.223-17.11l19.322-19.322-5.655-5.144-19.011 19.012 5.344 5.453zm20.802 21.24l20.519-20.519-15.759-14.352-19.66 19.66 14.9 15.21zm-32.03-32.706l18.674-18.673-5.664-5.153-18.363 18.363 5.353 5.463zm-10.78-45.495l-17.074 17.074 5.344 5.454 17.376-17.376-5.646-5.152zm-.484 34.012l18.025-18.025-5.655-5.143-17.714 17.714 5.344 5.454z" fill="#C64375"/><path fill-rule="evenodd" clip-rule="evenodd" d="M501.641 38.843l.146-.147c.128-.128.265-.246.411-.374.256-.22.521-.43.795-.63a10.903 10.903 0 0 1 2.558-1.353 10.746 10.746 0 0 1 3.545-.64 10.628 10.628 0 0 1 3.553.558c.96.32 1.873.777 2.695 1.361.951.658 1.8 1.49 2.495 2.421a10.686 10.686 0 0 1 2.11 6.66 10.615 10.615 0 0 1-.831 3.901 11.86 11.86 0 0 1-1.042 1.919c-.018.018-.036.054-.055.073a1.735 1.735 0 0 0 .256 2.265 3.212 3.212 0 0 0 3.17.777c4.385-1.224 16.243-3.143 26.969 7.582l12.954 12.955s11.356 12.031 5.527 25.205c3.325 4.148-5.015 14.224-11.529 20.738-6.523 6.523-16.591 14.855-20.738 11.529-13.174 5.829-25.205-5.527-25.205-5.527l-12.955-12.954c-10.725-10.726-8.807-22.584-7.582-26.969a3.213 3.213 0 0 0-.777-3.17 153.65 153.65 0 0 1-3.024-3.39 4.394 4.394 0 0 1-1.087-3.48c1.809-14.836-8.834-24.84-10.57-26.374a.529.529 0 0 0-.539-.1c-.374.118-1.005.328-1.498.492a1.075 1.075 0 0 1-1.151-.31 8571.215 8571.215 0 0 1-8.88-9.83 1.277 1.277 0 0 1 .046-1.763l.411-.412a1.143 1.143 0 0 1-1.215-.264 1.153 1.153 0 0 1-.028-1.6l-.438-.438s-2.302-1.407-3.782-2.32a1.145 1.145 0 0 1-.53-.822 1.137 1.137 0 0 1 .329-.932l4.238-4.24-.009.01 2.367-2.366-2.358 2.357 6.359-6.358a1.14 1.14 0 0 1 .932-.33c.347.037.648.229.822.53.914 1.48 2.32 3.783 2.32 3.783l.439.438a1.154 1.154 0 0 1 1.599.027c.329.33.42.805.265 1.216l.411-.412a1.278 1.278 0 0 1 1.763-.045c2.256 2.037 8.058 7.272 9.83 8.88.32.283.448.74.31 1.15-.155.485-.374 1.124-.493 1.499a.545.545 0 0 0 .101.539c.429.484 1.507 1.654 3.151 3.06a2.651 2.651 0 0 0 2.823.393c3.244-1.434 10.616-4.768 10.616-4.768zm17.157 23.496c-1.124 3.993-2.723 14.307 6.742 23.771l12.909 12.909c.593.539 10.908 9.629 21.615 4.897l3.846-3.846c4.75-10.726-4.395-21.058-4.897-21.615l-12.909-12.909c-9.446-9.446-19.778-7.866-23.707-6.77l-3.599 3.563zm-13.32-19.513a3.96 3.96 0 0 0-.502.612 4.814 4.814 0 0 0-.64 1.242 5.228 5.228 0 0 0 .484 4.504 5.35 5.35 0 0 0 1.343 1.453 5.1 5.1 0 0 0 1.343.703c.612.21 1.243.31 1.882.292a5.246 5.246 0 0 0 1.864-.402 5.266 5.266 0 0 0 2.814-2.832 5.046 5.046 0 0 0 .374-1.872 5.083 5.083 0 0 0-.311-1.882 4.857 4.857 0 0 0-.73-1.334 5.211 5.211 0 0 0-1.49-1.343 4.875 4.875 0 0 0-1.37-.566 5.212 5.212 0 0 0-3.124.164 4.913 4.913 0 0 0-1.224.658 5.372 5.372 0 0 0-.613.52.426.426 0 0 0-.1.083zM481.579 37.8l-6.751-6.148a.666.666 0 0 0-.914.018l-3.115 3.115a.661.661 0 0 0 0 .932l6.45 6.45a.662.662 0 0 0 .932 0l3.416-3.417c.274-.256.256-.694-.018-.95z" fill="#B22F9E"/><path fill-rule="evenodd" clip-rule="evenodd" d="M717.015 102.297c3.398 3.399-.466 12.763-8.615 20.912-8.149 8.149-17.513 12.013-20.912 8.615-3.115-3.115-.128-11.255 6.688-18.874l-27.389-27.39a5.555 5.555 0 0 0-4.12-1.616l-21.889.767a12.38 12.38 0 0 1-10.397-5.006l-28.421-38.36 24.575-24.576 38.361 28.422a12.368 12.368 0 0 1 5.006 10.396l-.767 21.889a5.554 5.554 0 0 0 1.617 4.12l27.388 27.389c7.62-6.815 15.759-9.803 18.875-6.688zm-91.668-79.48l-6.294 6.295 34.195 34.195 8.67-8.67-36.571-31.82z" fill="#9C1BC8"/><path fill-rule="evenodd" clip-rule="evenodd" d="M3.746 59.947c-.43.43-1.014.32-1.435-.1a1.092 1.092 0 0 1 0-1.535l32.277-32.277a1.093 1.093 0 0 1 1.544-.009c.42.42.52 1.014.1 1.434L44.5 31.6a4.2 4.2 0 0 1 1.096.786L98.053 84.84a4.637 4.637 0 0 1 .75 5.592 4.626 4.626 0 0 1-.202 4.549c-6.989 11.155-16.106 20.235-27.306 27.306a4.644 4.644 0 0 1-4.559.211 4.66 4.66 0 0 1-5.61-.75L8.68 69.302a4.226 4.226 0 0 1-.786-1.097l-4.147-8.258zM31.81 42.973l9.556-9.556-6.989-3.426-7.774 7.774 5.207 5.208zM94.07 86.12l-50-49.999-9.556 9.556 53.033 53.032c3.974-3.974 6.057-7.39 7.062-9.382.53-1.06.31-2.357-.54-3.207z" fill="#FD760A"/><path d="M817.279 57.146l49.588 49.588a8.226 8.226 0 0 1 0 11.639l-15.668 15.668a8.226 8.226 0 0 1-11.639 0l-49.588-49.588a17.808 17.808 0 0 1-3.782-5.573l-9.666-22.492a23.394 23.394 0 0 0-4.239-6.56L758.207 34.49l-.548.019a2.2 2.2 0 0 1-2.274-2.038l-.147-2.082a.977.977 0 0 0-.612-.832l-.813-.301a1.407 1.407 0 0 1-.502-2.311l6.45-6.45a1.406 1.406 0 0 1 2.311.502l.301.813a.956.956 0 0 0 .832.612l2.083.146a2.187 2.187 0 0 1 2.037 2.275l-.018.548 15.338 14.078a23.49 23.49 0 0 0 6.56 4.24l22.492 9.665a17.626 17.626 0 0 1 5.582 3.773zm-6.87-.767l-22.492-9.666a26.19 26.19 0 0 1-7.473-4.842l-16.463-15.11.037-1.005-1.033-.064a4.15 4.15 0 0 1-2.622-1.16l-1.342 1.343c.694.676 1.507 1.196 2.32 1.461l.831.265.183.786 16.17 15.384a43.63 43.63 0 0 0 6.925 5.39l19.815 12.343a24.017 24.017 0 0 1 4.257 3.398l49.589 49.589c1.937 1.936 2.594 4.421 1.461 5.554l3.984-3.983a4.964 4.964 0 0 0 0-7.016l-49.589-49.589a14.346 14.346 0 0 0-4.558-3.078z" fill="#8001FF"/></svg>