<svg width="164" height="182" viewBox="0 0 164 182" fill="none" xmlns="http://www.w3.org/2000/svg"><path d="M15.48 115.282h2.86c2.38 0 3.57 1.31 3.57 3.18 0 1.23-.51 2.21-1.63 2.73l2.29 3.02h-1.84l-1.89-2.63c-.25.03-.52.04-.8.04h-.98v2.59h-1.58v-8.93zm1.57 1.45v3.5h1.17c1.47 0 1.98-.79 1.98-1.77s-.5-1.73-1.98-1.73h-1.17zm14.21-1.6c2.77 0 4.78 1.94 4.78 4.61 0 2.63-2.05 4.61-4.78 4.61-2.73 0-4.77-1.97-4.77-4.61 0-2.58 2.09-4.61 4.77-4.61zm.01 7.84c1.73 0 3.08-1.39 3.08-3.2 0-1.83-1.28-3.22-3.08-3.22-1.77 0-3.08 1.39-3.08 3.22.01 1.79 1.35 3.2 3.08 3.2zm13.85-7.84c2.77 0 4.78 1.94 4.78 4.61 0 2.63-2.05 4.61-4.78 4.61-2.73 0-4.77-1.97-4.77-4.61 0-2.58 2.09-4.61 4.77-4.61zm.01 7.84c1.73 0 3.08-1.39 3.08-3.2 0-1.83-1.28-3.22-3.08-3.22-1.77 0-3.08 1.39-3.08 3.22.01 1.79 1.35 3.2 3.08 3.2zm8.27-7.69h7.51v1.45h-2.94v7.49h-1.59v-7.49H53.4v-1.45zm54.21 0h2.86c2.3 0 3.33.95 3.33 2.36 0 .97-.56 1.65-1.56 2.01 1.23.36 1.8 1.08 1.8 2.03 0 1.59-1.54 2.53-3.57 2.53h-2.86v-8.93zm1.57 1.45v2.43h1.13c1.28.01 1.84-.65 1.84-1.32 0-.61-.46-1.11-1.61-1.11h-1.36zm0 3.56v2.48h1.36c1.33 0 1.79-.58 1.79-1.25 0-.61-.51-1.23-2.17-1.23h-.98zm9.84-5.01h5.81v1.45h-4.23v2.5h3.84v1.4h-3.84v2.14h4.23v1.45h-5.81v-8.94zm10.94 0h5.81v1.45h-4.23v2.5h3.84v1.4h-3.84v2.14h4.23v1.45h-5.81v-8.94zm10.94 0h2.86c2.38 0 3.57 1.31 3.57 3.18 0 1.23-.51 2.21-1.63 2.73l2.29 3.02h-1.84l-1.89-2.63c-.25.03-.52.04-.8.04h-.98v2.59h-1.58v-8.93zm1.57 1.45v3.5h1.17c1.47 0 1.98-.79 1.98-1.77s-.5-1.73-1.98-1.73h-1.17zM22.14 25.882l-.98.32-8.49-9.23-1.4 12.43-.96.31L0 15.102l3.13-1.01 6.35 9.24.95-11.79.94-.3 7.72 8.95-.3-11.18 3.08-1 .27 17.87zm9.42-19.98l2.91-.63 3.59 16.49-2.91.63-3.59-16.49zm14.19-2.93l.93-.12 11.74 9.46-1.37-10.69 2.95-.38 2.16 16.85-.79.1-11.84-9.14 1.33 10.38-2.95.38-2.16-16.84zm41.08 5.23l.11 7.22s-2.49 1.96-6.5 2.02c-5.71.09-9.56-3.6-9.64-8.59-.07-4.87 3.98-8.77 8.97-8.85 3.77-.06 5.97 1.28 5.97 1.28l-.99 2.56s-2.2-1.07-4.43-1.04c-3.96.06-6.35 2.59-6.29 6.05.05 3.38 2.68 5.84 6.19 5.79 1.56-.02 2.92-.38 3.83-.73l-.05-3-4.7.07-.04-2.66 7.57-.12zm26.25 10.97l-2.91-.3.92-9.65-6.19 9.26-1.03-.11-4.24-10.16-1.02 9.48-2.89-.3L97.93.582l1.31.14 5.71 12.94 8.06-11.53 1.31.14-1.24 16.9zm10.53 1.9l-3.05-.67 11.39-14.92.66.14 4.08 18.32-3.12-.69-.73-3.6-7.08-1.56-2.15 2.98zm3.7-5.06l5.02 1.1-1.26-6.22-3.76 5.12zm22.37-5.97l.89.3 6.41 13.64 3.45-10.21 2.82.95-5.43 16.1-.75-.25-6.64-13.41-3.35 9.91-2.82-.95 5.42-16.08z" fill="#B53238"/><path d="M143.12 66.322H92.65c-2.6 0-2.6-2.9-2.6-5.98 0-9.32-3.12-11.96-3.12-11.96 0-.55-.18-1.28-.46-2.07h16.16v-2H85.59c-1.02-1.96-2.38-3.74-3.21-3.74-.83 0-2.2 1.78-3.21 3.74H62.33v2h15.96c-.28.79-.46 1.52-.46 2.07 0 0-3.12 2.64-3.12 11.96 0 3.08 0 5.98-2.6 5.98H21.64c-3.85 0-9.06.04-9.06 6.6 0 11.44 10.16 13.86 10.16 13.86s39.5 9.61 42.36 10.34c2.86.73 10.23 2.27 11.22 9.87.69 5.26 1.55 20.75 2.1 27.73-1.77.18-9.37.98-11.24 1.21-2.72.33-5.61 2.56-5.61 6.05 0 3.52 3.1 5.9 6.18 6.69 1.97.51 4.64.84 6.41 1.06.61.08 1.13.14 1.49.2.24.04.48.06.71.06 1.35 0 2.44-.64 3.06-1.82.17-.32 1.14-2.71 1.8-4.33.4.75.7 1.28.76 1.38.15.23.32.26.38.26h.04c.06 0 .23-.02.38-.26.06-.09.36-.63.76-1.38.66 1.63 1.63 4.01 1.8 4.33.62 1.18 1.71 1.82 3.06 1.82.23 0 .46-.02.71-.06.36-.06.88-.12 1.49-.2 1.77-.22 4.44-.56 6.4-1.06 3.08-.79 6.18-3.17 6.18-6.69 0-3.49-2.89-5.73-5.61-6.05-1.87-.23-9.47-1.02-11.24-1.21.54-6.98 1.41-22.46 2.1-27.73.99-7.59 8.36-9.13 11.22-9.87 2.86-.73 42.36-10.34 42.36-10.34s10.16-2.42 10.16-13.86c0-6.56-5.2-6.6-9.05-6.6zm-60.74-23.36c.95 1.14 2.28 3.69 2.5 5.06a32.1 32.1 0 0 0-5 0c.22-1.37 1.55-3.92 2.5-5.06zm-5.66 17.38c0-7.58 2.18-10.18 2.44-10.45l.68-.5v-.37c1.45-.14 3.56-.14 5.03-.01l-.03.29.78.58c.25.27 2.44 2.86 2.44 10.45 0 2.98 0 7.98 4.6 7.98h11.08v19.95l-5.26.84H89.5v-7.45c0-2.11-1.72-3.83-3.83-3.83h-7.18c-2.11 0-3.83 1.72-3.83 3.83v7.45l-8.3.01-5.34-.86v-19.93H72.1c4.62 0 4.62-4.99 4.62-7.98zm11.78 21.33v9.9c0 1.56-1.27 2.83-2.83 2.83h-7.18c-1.56 0-2.83-1.27-2.83-2.83v-9.9c0-1.56 1.27-2.83 2.83-2.83h7.18c1.56 0 2.83 1.27 2.83 2.83zm-73.91-8.75c0-4.15 2.26-4.6 7.06-4.6h38.38v19.79l-14.51-2.33v-1.29l-24.77-3.73v3.08c-2.55-1.38-6.16-4.47-6.16-10.92zm7.16 11.41v-2.41l22.77 3.43v4.68c-10.23-2.49-20.48-4.99-21.31-5.19-.09-.02-.65-.16-1.46-.51zm56.03 20.08h4.1v36.28c-.54-1.15-1.02-2.32-1.17-3.06-.18-.91-.55-6.48-.9-11.86-.48-7.23-1.02-15.42-1.5-19.05-.11-.82-.3-1.59-.53-2.31zm-1.82 43.54c-.38-.06-.91-.13-1.55-.2-1.72-.22-4.31-.54-6.16-1.01-2.19-.56-4.38-2.12-4.63-4.34h4.47v2.7h10.45c-.46 1.13-.82 2-.9 2.15-.32.61-.85.83-1.68.7zm3.88-6.05c-.29.73-.6 1.48-.89 2.19h-9.86v-2.7h-5.45c.33-2.22 2.41-3.31 3.78-3.48 1.84-.22 9.32-1.01 11.17-1.2.06.62.11 1.07.16 1.31.21 1.07.89 2.66 1.58 4.07l-.49-.19zm16.67 4.84c-1.84.47-4.44.8-6.16 1.01-.63.08-1.17.15-1.55.2-.83.13-1.37-.1-1.69-.71-.08-.16-.44-1.02-.9-2.16H96.7v-2.7h4.44c-.25 2.24-2.44 3.79-4.63 4.36zm.82-8.83c1.37.17 3.46 1.26 3.78 3.48H95.7v2.7h-9.89c-.29-.71-.59-1.46-.89-2.19l-.49.2c.69-1.41 1.37-3 1.58-4.07.05-.23.1-.69.16-1.31 1.85.19 9.32.97 11.16 1.19zm-12.38-12.13c-.36 5.38-.73 10.95-.9 11.86-.14.74-.63 1.91-1.17 3.05v-36.28h4.1c-.23.72-.43 1.48-.53 2.32-.47 3.63-1.02 11.82-1.5 19.05zm14.21-30.59l-.37.09c-2.63.66-8.96 2.27-11.44 8.13h-9.94c-2.48-5.86-8.82-7.47-11.44-8.13l-.37-.09c-1.35-.35-10.58-2.6-20.09-4.92v-3.48l20.77 3.32h8.38v1.45c0 2.11 1.72 3.83 3.83 3.83h7.18c2.11 0 3.83-1.72 3.83-3.83v-1.45l9.06-.01 20.69-3.32v3.48c-9.51 2.33-18.74 4.59-20.09 4.93zm42.38-10.35c-.82.2-11.07 2.69-21.3 5.19v-4.68l22.77-3.43v2.39c-.81.36-1.38.51-1.47.53zm2.47-1.03v-3.05l-24.77 3.73v1.29l-14.51 2.33v-19.79h38.38c4.8 0 7.06.45 7.06 4.6 0 6.39-3.6 9.49-6.16 10.89z" fill="#B53238"/><path d="M27.37 79.692c2.61 0 4.73-2.12 4.73-4.73 0-2.61-2.12-4.73-4.73-4.73-2.61 0-4.73 2.12-4.73 4.73 0 2.61 2.12 4.73 4.73 4.73zm0-7.47c1.51 0 2.73 1.23 2.73 2.73 0 1.51-1.23 2.73-2.73 2.73a2.74 2.74 0 0 1-2.73-2.73c0-1.51 1.22-2.73 2.73-2.73zm110.02-1.83c-2.61 0-4.73 2.04-4.73 4.56 0 2.52 2.12 4.56 4.73 4.56 2.61 0 4.73-2.04 4.73-4.56.01-2.52-2.11-4.56-4.73-4.56zm0 7.12c-1.51 0-2.73-1.15-2.73-2.56 0-1.41 1.23-2.56 2.73-2.56s2.73 1.15 2.73 2.56c.01 1.41-1.22 2.56-2.73 2.56zM35.52 181.402c-1.5 0-2.99-.5-4.14-1.21l.77-2.02c1.04.7 2.3 1.13 3.44 1.13 1.5 0 2.18-.74 2.18-1.55 0-.85-.47-1.35-2.75-2.2-2.47-.9-3.31-2.07-3.31-3.58 0-1.91 1.55-3.67 4.25-3.67 1.35 0 2.68.4 3.49.86l-.72 1.98c-.74-.41-1.85-.85-2.83-.85-1.33 0-1.94.74-1.94 1.62 0 .81.68 1.31 2.47 1.96 2.83 1.1 3.64 2.21 3.64 3.87-.01 2.28-1.72 3.66-4.55 3.66zm22.59-1.06s-1.64 1.06-4.21 1.06c-4.29 0-7.13-2.81-7.13-6.55 0-3.66 3.08-6.54 6.82-6.54 2.77 0 4.46 1.03 4.46 1.03l-.77 1.91s-1.67-.83-3.31-.83c-2.97 0-4.79 1.87-4.79 4.47 0 2.54 1.95 4.41 4.57 4.41 2.14 0 3.67-.86 3.67-.86l.69 1.9zm15.88-4.14h-6.18v4.99h-2.23v-12.66h2.23v5.69h6.18v-5.67h2.23v12.64h-2.23v-4.99zm10.72-7.67h4.05c3.37 0 5.06 1.86 5.06 4.5 0 1.75-.72 3.13-2.3 3.87l3.24 4.29h-2.61l-2.68-3.73c-.36.04-.74.05-1.13.05h-1.39v3.67h-2.23v-12.65h-.01zm2.24 2.05v4.95h1.66c2.09 0 2.81-1.12 2.81-2.5s-.7-2.45-2.81-2.45h-1.66zm15.8 10.61h-2.34l5.94-12.77h.5l5.94 12.77h-2.39l-1.12-2.52h-5.44l-1.09 2.52zm1.89-4.31h3.85l-1.93-4.36-1.92 4.36zm27.99 4.31h-2.2l-.05-7.27-3.91 7.38h-.77l-3.94-7.26-.04 7.15h-2.18l.36-12.71h.99l5.26 9.22 5.13-9.22h.99l.36 12.71z" fill="#B53238"/></svg>