<svg width="96" height="221" viewBox="0 0 96 221" fill="none" xmlns="http://www.w3.org/2000/svg"><path fill-rule="evenodd" clip-rule="evenodd" d="M44.566 8.4c-.26.426-.776.621-1.255.485a1.116 1.116 0 0 1-.812-1.072c-.006 0-.006 0-.006-.006 0-2.091 2.985-5.692 4.514-7.398A1.17 1.17 0 0 1 47.895 0c.338 0 .664.148.883.409 1.528 1.712 4.513 5.307 4.513 7.398v.006c0 .503-.331.942-.817 1.078a1.128 1.128 0 0 1-1.262-.492 26.58 26.58 0 0 0-2.452-3.37 1.158 1.158 0 0 0-.87-.385 1.19 1.19 0 0 0-.871.385 28.808 28.808 0 0 0-2.453 3.37zm3.33-1.132c.088.089 2.12 2.132 3.24 5.04a1.158 1.158 0 0 0 1.735.575 8.811 8.811 0 0 1 2.239-1.048.33.33 0 0 1 .248.023c.077.042.13.113.154.19v.006a8.776 8.776 0 0 1-.592 6.148.32.32 0 0 1-.23.178c-.007 0-.007 0-.013.006-.48.118-.947.266-1.41.444-.195.077-.39.16-.586.249l-.23.106-.03.012-.06.03c-.012.006-.017.006-.03.012a.716.716 0 0 1-.094.047c-.053-.148-.113-.29-.166-.432a14.165 14.165 0 0 0-1.433-2.613c-.231-.337-.48-.663-.735-.977-.207-.249-.42-.497-.645-.728-.024-.03-.03-.03-.054-.054l-.012-.012-.462-.462a1.176 1.176 0 0 0-1.658 0c-.231.237-.433.433-.462.462l-.006.006a11.17 11.17 0 0 0-.61.676 15.11 15.11 0 0 0-.711.924 15.19 15.19 0 0 0-.604.912 13.4 13.4 0 0 0-1.072 2.168.116.116 0 0 1-.077.07.134.134 0 0 1-.107-.005 11.206 11.206 0 0 0-1.972-.752 1.198 1.198 0 0 1-.764-.652 8.831 8.831 0 0 1-.41-5.77v-.005a.34.34 0 0 1 .155-.196.33.33 0 0 1 .249-.023c.811.248 1.558.61 2.239 1.054a1.158 1.158 0 0 0 1.736-.575c1.125-2.914 3.162-4.963 3.24-5.034zm.011 22.42a2.282 2.282 0 0 1-.012.011l-.012-.012v.012c-5.23-.006-9.47-4.253-9.47-9.483v-.006a.344.344 0 0 1 .355-.338 9.476 9.476 0 0 1 4.554 1.369c.314.201.705.237 1.049.094.343-.136.604-.432.687-.793.444-1.564 1.285-2.879 1.93-3.738.22-.278.552-.438.907-.438.356 0 .687.16.906.438.652.859 1.487 2.174 1.943 3.738a1.147 1.147 0 0 0 1.73.693 9.573 9.573 0 0 1 4.56-1.357.338.338 0 0 1 .25.095.341.341 0 0 1 .106.243v.012c-.006 5.23-4.247 9.471-9.471 9.477l-.012-.018zm.432 2.226a.45.45 0 0 1 .45.45v5.823a.45.45 0 0 1-.45.45h-.894a.45.45 0 0 1-.45-.45v-5.823a.45.45 0 0 1 .45-.45h.894zm-3.773 46.575a1.114 1.114 0 0 0-1.255-.486c-.48.136-.812.574-.812 1.072-.006 0-.006.006-.006.006 0 2.09 2.985 5.692 4.514 7.398a1.155 1.155 0 0 0 1.765 0c1.528-1.712 4.513-5.307 4.513-7.398v-.006c0-.504-.331-.942-.817-1.078a1.128 1.128 0 0 0-1.262.492 27.015 27.015 0 0 1-2.452 3.37c-.22.249-.539.385-.87.385-.332 0-.646-.142-.871-.385a29.062 29.062 0 0 1-2.447-3.37zm3.33 1.137c0-.006 0-.006 0 0 .088-.09 2.12-2.133 3.24-5.04a1.158 1.158 0 0 1 1.735-.575 9.02 9.02 0 0 0 2.239 1.048.33.33 0 0 0 .248-.024.324.324 0 0 0 .154-.19v-.005a8.776 8.776 0 0 0-.592-6.148.336.336 0 0 0-.23-.178c-.007 0-.007 0-.013-.006a10.84 10.84 0 0 1-1.41-.45c-.195-.077-.39-.16-.586-.249l-.23-.107-.03-.011-.06-.03c-.012-.006-.017-.012-.03-.012a.729.729 0 0 0-.094-.047c-.053.148-.113.29-.166.432-.379.918-.87 1.795-1.433 2.612a14.852 14.852 0 0 1-1.38 1.712c-.024.03-.03.03-.054.053l-.012.012-.462.462a1.176 1.176 0 0 1-1.658 0l-.462-.462-.006-.006a11.017 11.017 0 0 1-.61-.675 15.11 15.11 0 0 1-.711-.924 15.157 15.157 0 0 1-.604-.912 13.649 13.649 0 0 1-1.072-2.168.116.116 0 0 0-.077-.071.134.134 0 0 0-.107.006 11.207 11.207 0 0 1-1.972.752 1.181 1.181 0 0 0-.764.651 8.831 8.831 0 0 0-.41 5.77v.006a.34.34 0 0 0 .155.195.328.328 0 0 0 .249.024 8.831 8.831 0 0 0 2.239-1.055 1.159 1.159 0 0 1 1.736.575c1.125 2.914 3.162 4.958 3.24 5.035zm.011-22.426l-.012-.011-.012.011v-.011c-5.23.006-9.47 4.252-9.47 9.483v.006a.344.344 0 0 0 .355.338 9.411 9.411 0 0 0 4.554-1.369 1.136 1.136 0 0 1 1.049-.095c.343.136.604.433.687.794.444 1.564 1.285 2.879 1.93 3.737.22.279.552.439.907.439.356 0 .687-.16.906-.439.652-.858 1.487-2.173 1.943-3.737a1.147 1.147 0 0 1 1.73-.693 9.571 9.571 0 0 0 4.56 1.356.338.338 0 0 0 .25-.094.341.341 0 0 0 .106-.243v-.012c-.006-5.23-4.247-9.471-9.471-9.477l-.012.017zm.432-2.227a.45.45 0 0 0 .45-.45v-5.822a.45.45 0 0 0-.45-.45h-.894a.45.45 0 0 0-.45.45v5.822c0 .249.201.45.45.45h.894zm28.242-31.932a1.115 1.115 0 1 1-.527-2.079v-.006c1.813-1.042 6.42-.26 8.666.214.337.059.628.266.793.562.172.296.202.652.09.972-.717 2.18-2.34 6.563-4.153 7.611h-.006a1.124 1.124 0 0 1-1.552-1.505 27.027 27.027 0 0 0 1.694-3.808 1.18 1.18 0 0 0-.1-.948 1.16 1.16 0 0 0-.77-.557c-.96-.19-2.417-.402-4.135-.456zm2.648 2.316c-.036.125-.788 2.897-2.748 5.325a1.159 1.159 0 0 0 .373 1.79 8.986 8.986 0 0 1 2.025 1.415.303.303 0 0 1 .101.225c0 .083-.03.172-.089.23a8.78 8.78 0 0 1-5.62 2.56.346.346 0 0 1-.273-.113l-.006-.006a11.538 11.538 0 0 0-1.09-.995c-.166-.136-.338-.26-.51-.385-.07-.047-.136-.095-.207-.142l-.023-.018-.054-.035c-.006-.006-.017-.012-.023-.018-.03-.018-.06-.042-.09-.06.101-.118.196-.242.29-.36a13.98 13.98 0 0 0 1.547-2.548c.172-.367.332-.746.48-1.125.112-.302.219-.61.308-.924.011-.036.011-.042.017-.071 0-.006 0-.006.006-.012.006-.03.083-.308.172-.634a1.181 1.181 0 0 0-.83-1.44 19.08 19.08 0 0 1-.627-.171h-.006a11.58 11.58 0 0 0-.888-.19 15.379 15.379 0 0 0-2.251-.219c-.806-.017-1.617.03-2.41.16a.128.128 0 0 1-.102-.03.124.124 0 0 1-.047-.094 11.479 11.479 0 0 0-.077-.788 10.45 10.45 0 0 0-.255-1.291 1.181 1.181 0 0 1 .184-.99 8.818 8.818 0 0 1 4.792-3.24h.006a.318.318 0 0 1 .243.042.363.363 0 0 1 .148.202c.19.823.254 1.652.207 2.464a1.16 1.16 0 0 0 .385.941c.266.237.628.338.977.279 3.069-.51 5.858.237 5.965.266 0-.006 0 0 0 0zM59.813 36.576c-.012 0-.018-.006-.018-.006s0-.006.006-.018l-.012.006c-2.606-4.531-1.054-10.33 3.477-12.948h.006a.338.338 0 0 1 .26-.03.36.36 0 0 1 .208.166 9.5 9.5 0 0 1 1.096 4.626c-.018.373.148.729.438.96.29.23.675.302 1.036.201 1.576-.397 3.134-.332 4.206-.195a1.146 1.146 0 0 1 .906 1.564c-.42.995-1.137 2.375-2.263 3.547-.266.255-.39.622-.343.99.053.367.278.68.604.852a9.54 9.54 0 0 1 3.453 3.27.336.336 0 0 1 .042.26.354.354 0 0 1-.154.214l-.006.006c-4.531 2.612-10.324 1.06-12.948-3.465h.006zM58.1 38.068a.447.447 0 0 1-.166.61l-5.04 2.909a.447.447 0 0 1-.61-.166l-.45-.776a.447.447 0 0 1 .165-.61l5.04-2.908a.447.447 0 0 1 .61.166l.45.776zM15.88 58.089a1.106 1.106 0 0 0-.207-1.327 1.11 1.11 0 0 0-1.333-.166l-.006-.006c-1.812 1.043-3.435 5.432-4.152 7.612a1.165 1.165 0 0 0 .883 1.534c2.245.474 6.853 1.255 8.665.213h.006a1.12 1.12 0 1 0-.527-2.09 27.324 27.324 0 0 1-4.146-.44 1.179 1.179 0 0 1-.77-.556 1.177 1.177 0 0 1-.1-.948c.33-.941.876-2.316 1.687-3.826zm.681 3.447c.006 0 .006 0 0 0 .125.036 2.903.77 5.989.285.35-.066.71.041.977.272.267.237.409.586.385.942a8.961 8.961 0 0 0 .213 2.464.316.316 0 0 0 .148.201c.072.048.16.06.243.042h.006a8.767 8.767 0 0 0 5.029-3.59.334.334 0 0 0 .041-.29c0-.006 0-.006-.005-.012a10.954 10.954 0 0 1-.391-2.073c-.006-.083-.012-.172-.024-.255v-.03l-.006-.064v-.03c0-.036-.006-.071-.006-.107l-.462.071c-.99.13-1.99.143-2.98.06a13.77 13.77 0 0 1-2.174-.344c-.035-.006-.04-.012-.07-.018-.006 0-.006 0-.012-.006-.03-.006-.308-.083-.634-.171a1.17 1.17 0 0 1-.83-1.44c.084-.32.16-.592.167-.627v-.007c.083-.29.177-.58.278-.864a15.1 15.1 0 0 1 .936-2.055 13.05 13.05 0 0 1 1.345-2.009c.023-.03.03-.065.023-.1a.127.127 0 0 0-.059-.09 10.759 10.759 0 0 1-1.641-1.326 1.17 1.17 0 0 0-.947-.332 8.836 8.836 0 0 0-5.201 2.53v.005a.322.322 0 0 0 .012.457 8.89 8.89 0 0 0 2.031 1.415c.32.16.551.456.622.806.072.35-.017.71-.248.989-1.973 2.41-2.725 5.195-2.755 5.301 0-.006 0 0 0 0zM35.99 50.33c.006-.012.006-.018.006-.018s-.005 0-.017-.006l.011-.006c-2.618-4.525-8.416-6.077-12.948-3.465l-.006.006a.332.332 0 0 0-.154.213.336.336 0 0 0 .042.26 9.47 9.47 0 0 0 3.459 3.258 1.151 1.151 0 0 1 .267 1.854c-1.132 1.167-1.854 2.553-2.269 3.542-.13.326-.107.7.071 1.007.178.308.486.516.835.563 1.066.136 2.63.202 4.206-.183.355-.101.734-.03 1.024.195.29.225.45.58.439.948a9.512 9.512 0 0 0 1.107 4.626.324.324 0 0 0 .208.165.332.332 0 0 0 .26-.03c.006 0 .006-.005.006-.005 4.526-2.618 6.083-8.411 3.471-12.942l-.017.018zm2.145-.735c.124.213.397.29.61.166l5.04-2.908a.447.447 0 0 0 .166-.61l-.45-.776a.447.447 0 0 0-.61-.166l-5.04 2.908a.447.447 0 0 0-.166.61l.45.776zm41.775 8.494a1.106 1.106 0 0 1 .207-1.327c.356-.35.9-.415 1.333-.166l.006-.006c1.813 1.043 3.435 5.432 4.152 7.612a1.165 1.165 0 0 1-.882 1.534c-2.245.474-6.853 1.255-8.666.213h-.006a1.119 1.119 0 0 1-.527-1.244c.124-.486.55-.83 1.054-.847a27.258 27.258 0 0 0 4.147-.438c.325-.071.604-.273.77-.557.165-.284.2-.628.1-.948a27.423 27.423 0 0 0-1.688-3.826zm-.687 3.447c-.124.036-2.902.77-5.988.285a1.172 1.172 0 0 0-.978.272 1.16 1.16 0 0 0-.385.942 8.961 8.961 0 0 1-.213 2.464.328.328 0 0 1-.142.201.318.318 0 0 1-.243.042h-.006a8.767 8.767 0 0 1-5.029-3.59.334.334 0 0 1-.041-.29c0-.006 0-.006.006-.012a10.954 10.954 0 0 0 .39-2.073l.019-.255v-.03l.005-.064v-.03c0-.036.006-.071.006-.107l.462.071c.99.13 1.99.143 2.98.06a13.767 13.767 0 0 0 2.174-.344c.035-.006.041-.012.07-.018.007 0 .007 0 .012-.006.03-.006.308-.083.634-.171a1.17 1.17 0 0 0 .83-1.44 19.08 19.08 0 0 0-.172-.627v-.007a14.7 14.7 0 0 0-.279-.864 15.818 15.818 0 0 0-.444-1.078 12.59 12.59 0 0 0-.492-.978 13.498 13.498 0 0 0-1.344-2.008.124.124 0 0 1-.024-.1.127.127 0 0 1 .06-.09c.219-.147.432-.301.645-.461.35-.267.681-.557.995-.865a1.17 1.17 0 0 1 .948-.332 8.836 8.836 0 0 1 5.2 2.53v.005a.322.322 0 0 1-.011.457 9.018 9.018 0 0 1-2.032 1.415 1.165 1.165 0 0 0-.373 1.795c1.984 2.41 2.736 5.195 2.76 5.301.006-.006.006 0 0 0zM59.801 50.33a.047.047 0 0 1-.006-.018s.006 0 .018-.006L59.8 50.3c2.618-4.525 8.417-6.077 12.948-3.465l.006.006a.332.332 0 0 1 .154.213.363.363 0 0 1-.042.26 9.47 9.47 0 0 1-3.459 3.258 1.151 1.151 0 0 0-.266 1.854c1.131 1.167 1.854 2.553 2.268 3.542.13.326.107.7-.07 1.007a1.142 1.142 0 0 1-.836.563c-1.066.136-2.63.202-4.206-.183a1.152 1.152 0 0 0-1.024.195c-.29.225-.45.58-.439.948a9.573 9.573 0 0 1-1.101 4.626.324.324 0 0 1-.208.165.332.332 0 0 1-.26-.03l-.006-.005c-4.525-2.618-6.083-8.411-3.471-12.942l.012.018zm-2.144-.735a.447.447 0 0 1-.61.166l-5.041-2.908a.447.447 0 0 1-.166-.61l.45-.776a.447.447 0 0 1 .61-.166l5.04 2.908a.447.447 0 0 1 .167.61l-.45.776zM19.209 23.041a1.118 1.118 0 0 0 1.048-.84 1.107 1.107 0 0 0-.52-1.239v-.006c-1.813-1.042-6.422-.26-8.666.214a1.132 1.132 0 0 0-.794.562 1.165 1.165 0 0 0-.09.972c.718 2.18 2.34 6.563 4.153 7.611h.006a1.124 1.124 0 1 0 1.552-1.505 27.015 27.015 0 0 1-1.694-3.808c-.1-.314-.065-.658.1-.948a1.16 1.16 0 0 1 .77-.557 25.87 25.87 0 0 1 4.135-.456zm-2.648 2.316c.036.125.788 2.897 2.749 5.325a1.162 1.162 0 0 1-.373 1.789 8.986 8.986 0 0 0-2.026 1.416.306.306 0 0 0-.1.225c0 .083.029.172.088.23a8.766 8.766 0 0 0 5.621 2.56c.1.005.201-.036.273-.113l.005-.006a11.551 11.551 0 0 1 1.6-1.38c.07-.047.142-.095.207-.142l.03-.018.053-.035c.006-.006.018-.012.024-.018.03-.018.059-.042.088-.06-.1-.118-.195-.242-.29-.36a13.986 13.986 0 0 1-1.546-2.548 18.882 18.882 0 0 1-.48-1.125 12.35 12.35 0 0 1-.308-.924c-.011-.036-.011-.042-.017-.071 0-.006 0-.006-.006-.012-.006-.03-.083-.308-.172-.634a1.176 1.176 0 0 1 .83-1.44c.32-.082.592-.16.627-.171h.006c.296-.077.592-.136.889-.19a15.388 15.388 0 0 1 2.25-.219c.806-.017 1.617.03 2.411.16a.128.128 0 0 0 .1-.03.124.124 0 0 0 .048-.094c.018-.267.042-.527.077-.788.06-.438.142-.87.255-1.291a1.182 1.182 0 0 0-.184-.99 8.818 8.818 0 0 0-4.792-3.24h-.006a.318.318 0 0 0-.242.042.363.363 0 0 0-.148.202 8.714 8.714 0 0 0-.208 2.464 1.16 1.16 0 0 1-.385.941 1.176 1.176 0 0 1-.977.279c-3.074-.51-5.864.237-5.97.266 0-.006 0 0 0 0zm19.417 11.219c.011 0 .017-.006.017-.006s0-.006-.006-.018l.012.006c2.607-4.531 1.055-10.33-3.477-12.948h-.006a.35.35 0 0 0-.266-.03.36.36 0 0 0-.207.166 9.499 9.499 0 0 0-1.096 4.626c.017.373-.148.729-.439.96a1.16 1.16 0 0 1-1.036.201c-1.576-.397-3.134-.332-4.206-.195a1.146 1.146 0 0 0-.906 1.564c.415.995 1.137 2.375 2.263 3.547.266.255.39.622.343.99a1.149 1.149 0 0 1-.604.852 9.539 9.539 0 0 0-3.453 3.27.336.336 0 0 0-.042.26.354.354 0 0 0 .154.214l.006.006c4.532 2.612 10.325 1.06 12.949-3.465zm1.706 1.492a.447.447 0 0 0 .165.61l5.041 2.909a.447.447 0 0 0 .61-.166l.45-.776a.447.447 0 0 0-.166-.61l-5.04-2.908a.447.447 0 0 0-.61.166l-.45.776zm-9.045-24.907a.549.549 0 0 0 .58-.195.547.547 0 0 0 .042-.61c-.504-.877-1.18-2.044-1.546-2.683a.551.551 0 0 1 .201-.753c.071-.041.142-.083.207-.124a.553.553 0 0 1 .753.201c.373.64 1.042 1.807 1.546 2.684.112.19.325.302.55.272a.56.56 0 0 0 .462-.403c.125-.462.255-.96.356-1.327a.555.555 0 0 1 .675-.39c.077.023.16.041.237.065.142.035.26.13.332.254a.536.536 0 0 1 .053.415c-.26.977-.806 3.015-.99 3.684a.56.56 0 0 0 .054.415c.071.118.16.284.267.456a.547.547 0 0 0 .55.272.56.56 0 0 0 .463-.402c.124-.462.254-.96.355-1.327a.555.555 0 0 1 .675-.391c.077.018.16.041.237.065a.548.548 0 0 1 .385.675c-.26.978-.805 3.015-.989 3.685a.56.56 0 0 0 .053.414c.06.1.13.225.214.367a.548.548 0 0 0 .55.273.56.56 0 0 0 .462-.403c.125-.462.255-.96.356-1.327a.55.55 0 0 1 .675-.39c.077.017.16.04.237.065.142.035.26.13.332.254a.536.536 0 0 1 .053.415c-.26.977-.806 3.015-.99 3.684a.56.56 0 0 0 .054.415c.344.592 1.368 2.375 1.866 3.234a.536.536 0 0 1 .053.414.534.534 0 0 1-.255.332 8.15 8.15 0 0 1-.207.119.536.536 0 0 1-.414.053.534.534 0 0 1-.332-.255 876.824 876.824 0 0 1-1.866-3.234.55.55 0 0 0-.332-.255c-.669-.177-2.707-.728-3.684-.989a.534.534 0 0 1-.332-.254.536.536 0 0 1-.053-.415c.018-.077.042-.16.065-.237a.55.55 0 0 1 .676-.39c.36.094.858.23 1.326.355a.549.549 0 0 0 .58-.196.546.546 0 0 0 .042-.61l-.213-.367a.55.55 0 0 0-.332-.255c-.669-.178-2.707-.729-3.684-.99a.547.547 0 0 1-.385-.675c.018-.076.042-.153.065-.236a.555.555 0 0 1 .675-.391c.362.095.86.23 1.327.355a.549.549 0 0 0 .622-.806c-.1-.177-.195-.337-.266-.456a.55.55 0 0 0-.332-.254c-.67-.178-2.707-.729-3.684-.99a.534.534 0 0 1-.332-.254.536.536 0 0 1-.053-.415c.023-.077.041-.16.065-.237a.555.555 0 0 1 .675-.39c.308.13.806.26 1.268.384zM64.29 74.91a.552.552 0 0 1 .462-.402c.22-.03.439.077.546.273.509.876 1.178 2.043 1.545 2.683.154.26.486.355.753.201.07-.041.142-.083.207-.124a.551.551 0 0 0 .201-.752c-.373-.64-1.042-1.807-1.546-2.684a.547.547 0 0 1 .042-.61.545.545 0 0 1 .58-.195c.462.124.96.255 1.327.355a.555.555 0 0 0 .675-.39c.018-.078.042-.155.066-.238a.56.56 0 0 0-.054-.414.55.55 0 0 0-.331-.255c-.978-.26-3.015-.806-3.685-.99a.534.534 0 0 1-.331-.254c-.072-.118-.16-.278-.267-.456a.546.546 0 0 1 .041-.61.545.545 0 0 1 .581-.195c.462.124.96.254 1.327.355a.555.555 0 0 0 .675-.391c.018-.077.041-.154.065-.231a.579.579 0 0 0-.053-.42.55.55 0 0 0-.332-.255c-.977-.261-3.015-.806-3.684-.99a.534.534 0 0 1-.332-.254l-.213-.367a.546.546 0 0 1 .041-.61.545.545 0 0 1 .58-.196c.463.124.96.255 1.328.355a.553.553 0 0 0 .675-.39c.018-.078.041-.16.065-.237a.578.578 0 0 0-.053-.421.55.55 0 0 0-.332-.255c-.977-.26-3.015-.805-3.684-.989a.534.534 0 0 1-.332-.255 936.751 936.751 0 0 1-1.866-3.234.55.55 0 0 0-.746-.201c-.071.041-.142.083-.213.118a.56.56 0 0 0-.201.752c.497.86 1.528 2.642 1.865 3.235a.537.537 0 0 1 .054.414c-.178.676-.729 2.707-.99 3.685a.578.578 0 0 0 .054.42.55.55 0 0 0 .331.255c.077.023.16.041.237.065a.556.556 0 0 0 .676-.39c.094-.362.23-.86.355-1.328a.552.552 0 0 1 1.013-.13l.213.367a.548.548 0 0 1 .053.42c-.177.67-.728 2.708-.989 3.685a.56.56 0 0 0 .053.415.55.55 0 0 0 .332.254c.077.024.154.042.237.066a.553.553 0 0 0 .675-.392c.095-.36.231-.858.356-1.326a.553.553 0 0 1 1.013-.13c.1.177.195.337.266.456a.547.547 0 0 1 .053.42c-.177.67-.728 2.707-.989 3.684a.579.579 0 0 0 .054.42.55.55 0 0 0 .331.255c.077.024.154.042.237.066a.555.555 0 0 0 .675-.391c.048-.362.184-.86.308-1.321zm-32.861 0a.552.552 0 0 0-1.013-.13c-.504.877-1.179 2.044-1.546 2.684a.551.551 0 0 1-.753.201 6.49 6.49 0 0 1-.207-.124.551.551 0 0 1-.201-.752c.373-.64 1.042-1.807 1.546-2.684a.547.547 0 0 0-.042-.61.545.545 0 0 0-.58-.195c-.462.124-.96.255-1.327.355a.553.553 0 0 1-.675-.39c-.018-.078-.042-.155-.065-.238a.56.56 0 0 1 .053-.414.55.55 0 0 1 .332-.255c.977-.26 3.014-.806 3.684-.99a.534.534 0 0 0 .332-.254c.07-.118.16-.278.266-.456a.546.546 0 0 0-.041-.61.545.545 0 0 0-.58-.195c-.463.124-.96.254-1.328.355a.553.553 0 0 1-.675-.391 3.326 3.326 0 0 0-.065-.231.578.578 0 0 1 .053-.42.55.55 0 0 1 .332-.255c.977-.261 3.015-.806 3.684-.99a.534.534 0 0 0 .332-.254c.06-.1.13-.225.213-.367a.547.547 0 0 0-.041-.61.545.545 0 0 0-.58-.196c-.463.124-.96.255-1.328.355a.553.553 0 0 1-.675-.39 3.541 3.541 0 0 0-.065-.237.58.58 0 0 1 .053-.421.55.55 0 0 1 .332-.255c.977-.26 3.015-.805 3.684-.989a.534.534 0 0 0 .332-.255c.344-.592 1.368-2.375 1.866-3.234a.55.55 0 0 1 .746-.201c.071.041.142.083.207.118a.56.56 0 0 1 .201.752c-.497.86-1.527 2.642-1.865 3.235a.536.536 0 0 0-.053.414c.177.676.728 2.707.989 3.685a.58.58 0 0 1-.053.42.55.55 0 0 1-.332.255c-.077.023-.16.041-.237.065a.553.553 0 0 1-.675-.39c-.095-.362-.231-.86-.356-1.328a.552.552 0 0 0-1.013-.13l-.213.367a.547.547 0 0 0-.053.42c.178.67.728 2.708.99 3.685a.56.56 0 0 1-.054.415.55.55 0 0 1-.332.254c-.077.024-.16.042-.237.066a.553.553 0 0 1-.675-.392c-.095-.36-.231-.858-.355-1.326a.553.553 0 0 0-1.013-.13 27 27 0 0 1-.267.456.547.547 0 0 0-.053.42c.177.67.728 2.707.989 3.684a.578.578 0 0 1-.053.42.55.55 0 0 1-.332.255c-.077.024-.16.042-.237.066a.553.553 0 0 1-.675-.391c-.036-.362-.172-.86-.296-1.321zM67.08 13.161a.549.549 0 0 1-.58-.195.547.547 0 0 1-.042-.61c.504-.877 1.18-2.044 1.546-2.683a.551.551 0 0 0-.201-.753 6.294 6.294 0 0 1-.207-.124.552.552 0 0 0-.753.201c-.373.64-1.042 1.807-1.546 2.684a.553.553 0 0 1-.544.272.56.56 0 0 1-.463-.403c-.124-.462-.26-.96-.355-1.327a.555.555 0 0 0-.675-.39c-.077.023-.154.041-.237.065a.534.534 0 0 0-.332.254.536.536 0 0 0-.053.415c.26.977.806 3.015.99 3.684a.56.56 0 0 1-.054.415c-.071.118-.16.284-.267.456a.547.547 0 0 1-.55.272.56.56 0 0 1-.463-.402c-.124-.462-.26-.96-.355-1.327a.555.555 0 0 0-.675-.391 3.48 3.48 0 0 0-.237.065.547.547 0 0 0-.385.675c.26.978.805 3.015.989 3.685a.56.56 0 0 1-.053.414c-.06.1-.13.225-.214.367a.547.547 0 0 1-.55.273.56.56 0 0 1-.462-.403c-.125-.462-.261-.96-.356-1.327a.55.55 0 0 0-.675-.39 2.61 2.61 0 0 0-.237.065.534.534 0 0 0-.332.254.536.536 0 0 0-.053.415c.26.977.806 3.015.99 3.684a.56.56 0 0 1-.054.415c-.344.592-1.374 2.375-1.866 3.234a.536.536 0 0 0-.053.414.53.53 0 0 0 .254.332 4.2 4.2 0 0 0 .214.119.536.536 0 0 0 .414.053.534.534 0 0 0 .332-.255c.498-.859 1.528-2.642 1.866-3.234a.55.55 0 0 1 .331-.255c.67-.177 2.707-.728 3.685-.989a.534.534 0 0 0 .331-.254.536.536 0 0 0 .054-.415 3.479 3.479 0 0 0-.065-.237.55.55 0 0 0-.676-.39c-.361.094-.859.23-1.327.355a.549.549 0 0 1-.58-.196.546.546 0 0 1-.041-.61l.213-.367a.55.55 0 0 1 .332-.255c.669-.178 2.706-.729 3.684-.99a.548.548 0 0 0 .385-.675c-.018-.076-.042-.153-.065-.236a.555.555 0 0 0-.676-.391c-.36.095-.859.23-1.326.355a.549.549 0 0 1-.58-.195.547.547 0 0 1-.042-.61c.1-.178.195-.338.266-.457a.55.55 0 0 1 .332-.254c.67-.178 2.707-.729 3.684-.99a.534.534 0 0 0 .332-.254.536.536 0 0 0 .053-.415 3.479 3.479 0 0 0-.065-.237.555.555 0 0 0-.675-.39c-.32.13-.818.26-1.28.384zM12.214 44.839a.54.54 0 0 0 .118-.599.543.543 0 0 0-.51-.337H8.726a.554.554 0 0 1-.55-.551v-.243c0-.302.248-.55.55-.55h3.098a.56.56 0 0 0 .51-.338.556.556 0 0 0-.12-.599l-.97-.971a.55.55 0 0 1 0-.776l.171-.172c.1-.106.243-.16.391-.16.148 0 .284.06.39.16.718.711 2.204 2.204 2.696 2.695.1.107.243.16.39.16h.528a.56.56 0 0 0 .51-.337.556.556 0 0 0-.119-.599l-.971-.971a.55.55 0 0 1 0-.776l.171-.172a.535.535 0 0 1 .391-.16c.148 0 .285.06.391.16.717.711 2.204 2.204 2.695 2.695.101.107.243.16.391.16h.42a.558.558 0 0 0 .51-.337.556.556 0 0 0-.118-.599l-.972-.971a.55.55 0 0 1 0-.776l.172-.172c.1-.106.243-.16.391-.16a.57.57 0 0 1 .391.16c.717.711 2.203 2.204 2.695 2.695.1.107.243.16.391.16h3.738c.148 0 .284.06.39.16.101.107.16.243.16.391v.243a.547.547 0 0 1-.55.55h-3.738a.567.567 0 0 0-.391.16l-2.695 2.696a.556.556 0 0 1-.782 0l-.172-.172a.55.55 0 0 1 0-.776l.972-.971a.539.539 0 0 0 .118-.599.542.542 0 0 0-.51-.337h-.42a.567.567 0 0 0-.39.16l-2.696 2.695a.556.556 0 0 1-.782 0l-.171-.172a.55.55 0 0 1 0-.776l.971-.971a.539.539 0 0 0 .119-.599.542.542 0 0 0-.51-.337h-.527a.566.566 0 0 0-.391.16l-2.695 2.695a.556.556 0 0 1-.782 0l-.172-.172a.55.55 0 0 1 0-.776l.972-.971zm71.297 0a.539.539 0 0 1-.118-.599.542.542 0 0 1 .51-.337H87a.554.554 0 0 0 .551-.551v-.243a.554.554 0 0 0-.55-.55h-3.099a.558.558 0 0 1-.51-.338.545.545 0 0 1 .12-.599l.97-.971a.55.55 0 0 0 0-.776c-.058-.06-.112-.112-.171-.172a.532.532 0 0 0-.391-.16.567.567 0 0 0-.39.16c-.718.711-2.204 2.204-2.696 2.695a.532.532 0 0 1-.39.16h-.528a.558.558 0 0 1-.51-.337.556.556 0 0 1 .119-.599l.971-.971a.55.55 0 0 0 0-.776l-.171-.172a.532.532 0 0 0-.391-.16.566.566 0 0 0-.391.16c-.717.711-2.204 2.204-2.695 2.695a.541.541 0 0 1-.391.16h-.42a.558.558 0 0 1-.51-.337.556.556 0 0 1 .118-.599l.972-.971a.55.55 0 0 0 0-.776l-.172-.172a.532.532 0 0 0-.391-.16.566.566 0 0 0-.39.16l-2.696 2.695a.532.532 0 0 1-.39.16H68.84a.567.567 0 0 0-.391.16.567.567 0 0 0-.16.391v.243a.549.549 0 0 0 .55.55h3.738a.57.57 0 0 1 .391.16l2.695 2.696c.107.1.243.16.391.16a.57.57 0 0 0 .391-.16l.172-.172a.55.55 0 0 0 0-.776l-.972-.971a.55.55 0 0 1 .391-.936h.42c.149 0 .285.06.392.16l2.695 2.695a.556.556 0 0 0 .782 0l.171-.172a.55.55 0 0 0 0-.776l-.971-.971a.55.55 0 0 1 .391-.936h.527a.57.57 0 0 1 .391.16l2.695 2.695a.556.556 0 0 0 .782 0l.172-.172a.55.55 0 0 0 0-.776 73.916 73.916 0 0 1-.972-.971zm-42.866 91.472c.498-.13.847-.581.847-1.096v-10.253a1.12 1.12 0 0 0-.124-.515c-1.422-2.778-14.613-28.544-18.102-35.362a1.131 1.131 0 0 1 1.007-1.647h11.118c.445 0 .847.261 1.03.664 1.464 3.234 7.879 17.39 10.408 22.976a1.133 1.133 0 0 0 2.061 0c2.53-5.586 8.938-19.742 10.407-22.976a1.134 1.134 0 0 1 1.031-.663h11.118a1.132 1.132 0 0 1 1.007 1.646c-3.489 6.818-16.68 32.584-18.102 35.362a1.13 1.13 0 0 0-.124.515v9.892c0 .533.373.995.9 1.107 1.754.374 3.394.919 4.928 1.629 3.258 1.511 5.782 3.631 7.57 6.368 1.588 2.422 2.47 5.159 2.648 8.203a1.124 1.124 0 0 1-1.125 1.185c-2.423.006-7.979.006-10.313.006a1.127 1.127 0 0 1-1.125-1.025c-.178-1.984-.942-3.595-2.28-4.839-1.564-1.457-3.85-2.186-6.871-2.186-1.925 0-3.56.279-4.905.841-1.35.563-2.363 1.327-3.044 2.305a5.565 5.565 0 0 0-1.02 3.263c0 1.789.925 3.305 2.767 4.549 1.842 1.244 4.703 2.464 8.57 3.667 6.546 2.002 11.409 4.507 14.602 7.51 3.192 3.003 4.785 6.859 4.785 11.557 0 3.394-.87 6.308-2.606 8.754-1.735 2.446-4.2 4.306-7.392 5.586-3.193 1.279-6.936 1.925-11.236 1.925-4.11 0-7.979-.705-11.598-2.121-3.619-1.415-6.563-3.583-8.831-6.509-2.056-2.648-3.181-5.841-3.377-9.572a1.127 1.127 0 0 1 1.126-1.179c2.422-.006 8.014-.006 10.377-.006.593 0 1.09.462 1.132 1.054.177 2.796 1.13 4.857 2.86 6.178 1.937 1.481 4.71 2.222 8.31 2.222 2.856 0 5.012-.575 6.469-1.724 1.457-1.149 2.186-2.66 2.186-4.525 0-1.387-.297-2.553-.883-3.483-.586-.936-1.67-1.831-3.246-2.684-1.575-.852-3.897-1.777-6.971-2.766-3.951-1.279-7.351-2.707-10.194-4.264-2.843-1.564-5.124-3.519-6.83-5.87-1.712-2.352-2.565-5.142-2.565-8.37 0-3.234.93-6.083 2.784-8.553 1.854-2.47 4.425-4.377 7.712-5.728a23.05 23.05 0 0 1 3.104-1.048z" fill="#27235E"/><path d="M9.465 91.603v2.239l-5.923-3.015H.202V88.73h3.34l5.923-3.015v2.245l-4.069 1.824 4.07 1.819zm-1.67 9.767H5.763v3.589h-1.61v-3.589H1.86v4.229H.2v-6.296h9.264v6.296h-1.67v-4.229zm-3.749 12.995a9.631 9.631 0 0 1 .675-1.617c.249-.45.557-.817.93-1.09.373-.278.823-.414 1.344-.414.516 0 .972.148 1.363.45.39.296.693.711.912 1.244.213.527.32 1.131.32 1.801 0 .675-.119 1.273-.356 1.788a2.788 2.788 0 0 1-1.007 1.209c-.432.284-.936.426-1.504.426v-2.061c.379 0 .675-.119.9-.361.225-.237.332-.593.332-1.055 0-.444-.095-.788-.279-1.03a.86.86 0 0 0-.704-.362c-.273 0-.504.142-.7.433-.195.29-.384.734-.568 1.338-.32 1.037-.723 1.813-1.202 2.328-.48.51-1.09.764-1.837.764-.545 0-1.007-.136-1.397-.414-.391-.279-.688-.67-.889-1.179-.201-.509-.308-1.108-.308-1.795 0-.657.113-1.273.338-1.854a3.203 3.203 0 0 1 1.036-1.41c.468-.361 1.043-.544 1.73-.544v2.067c-.527 0-.906.148-1.132.444-.23.296-.343.729-.343 1.297 0 .439.089.764.266.989a.834.834 0 0 0 .688.332c.213 0 .39-.041.533-.136.142-.089.284-.255.414-.504.142-.237.285-.604.445-1.084zm3.749 16.846v-2.808H.201v-2.067h7.594v-2.766h1.67v7.641h-1.67zm0 7.771H5.763v3.59h-1.61v-3.59H1.86v4.229H.2v-6.296h9.264v6.296h-1.67v-4.229zm-2.618 12.007v1.475c0 .456.118.799.35 1.036.23.237.55.355.959.355.415 0 .74-.118.971-.355.231-.237.35-.58.35-1.042v-1.475h-2.63v.006zm-4.88 5.265H.2v-2.215l3.311-1.67v-1.38H.202v-2.068h9.263v3.543c0 .71-.106 1.326-.32 1.848-.213.521-.533.918-.947 1.196-.42.278-.93.415-1.528.415-.67 0-1.215-.142-1.63-.421-.414-.278-.746-.687-.983-1.214l-3.76 1.966zm4.743 10.828c.9 0 1.582-.184 2.05-.551.468-.367.705-.906.705-1.611v-.847H1.86v.847c0 .699.237 1.238.705 1.605.474.373 1.16.557 2.061.557h.415zm4.425-2.162c0 .829-.19 1.564-.562 2.209a3.899 3.899 0 0 1-1.57 1.511c-.675.361-1.44.545-2.304.545h-.403c-.865 0-1.635-.178-2.304-.539a3.92 3.92 0 0 1-1.564-1.511c-.373-.645-.563-1.386-.563-2.209v-2.914H9.46v2.908h.006zm-5.662 14.719l3.222-1.291-3.364-.853.142 2.144zm-1.623.652l-.213-3.228-1.825-.462L0 174.409l9.471 2.819.09 1.392.035.534-9.021 4.039-.143-2.197 1.748-.705zm9.886 8.5l.781 2.096-6.604-.764-3.127 1.161-.729-1.96 3.127-1.161 4.508-4.893.782 2.109-3.18 3.121 4.442.291zm.924 11.562a9.25 9.25 0 0 1-.528-1.677c-.1-.503-.1-.983.012-1.433.107-.45.361-.847.758-1.179a2.204 2.204 0 0 1 1.333-.533c.492-.024.99.095 1.493.362.503.266.971.657 1.41 1.172.432.516.728 1.049.882 1.6.154.55.154 1.078.006 1.575-.148.498-.438.93-.877 1.297l-1.326-1.575c.29-.243.438-.527.456-.853.017-.326-.125-.67-.42-1.019-.285-.344-.581-.545-.872-.61a.85.85 0 0 0-.77.178c-.207.177-.29.432-.254.781.035.344.177.806.426 1.387.42 1.001.616 1.854.58 2.552-.035.699-.343 1.292-.912 1.771-.414.35-.858.545-1.338.581-.48.041-.96-.071-1.44-.332-.485-.26-.947-.651-1.392-1.178a5.054 5.054 0 0 1-.935-1.635 3.273 3.273 0 0 1-.119-1.748c.125-.58.45-1.09.972-1.528l1.332 1.582c-.402.337-.598.693-.58 1.072.018.373.207.782.574 1.214.285.332.563.527.841.586a.835.835 0 0 0 .74-.189c.16-.136.273-.284.32-.444.054-.16.054-.379-.005-.658-.053-.278-.178-.651-.367-1.119zm14.126 11.041a9.845 9.845 0 0 1-1.16-1.321 3.401 3.401 0 0 1-.575-1.315c-.083-.456-.012-.918.22-1.386a2.196 2.196 0 0 1 1-1.031c.439-.219.948-.314 1.517-.272.568.041 1.155.207 1.759.503.604.296 1.09.663 1.45 1.108.362.444.581.918.647 1.439a2.686 2.686 0 0 1-.273 1.54l-1.854-.906c.166-.338.19-.664.071-.966-.118-.308-.385-.556-.8-.764-.402-.195-.746-.26-1.042-.201a.852.852 0 0 0-.634.474c-.118.243-.088.515.083.817.172.302.492.664.954 1.096.794.746 1.315 1.445 1.564 2.103.248.657.207 1.315-.119 1.99-.237.486-.569.847-.989 1.078-.42.231-.906.326-1.451.284-.545-.041-1.132-.213-1.748-.509a5.054 5.054 0 0 1-1.516-1.114 3.261 3.261 0 0 1-.817-1.552c-.119-.58-.03-1.178.272-1.794l1.86.906c-.231.474-.26.877-.095 1.214.166.338.504.628 1.02.877.39.189.728.254 1.006.195a.85.85 0 0 0 .604-.474.975.975 0 0 0 .113-.539c-.018-.165-.107-.367-.273-.598-.172-.243-.432-.527-.794-.882zm12.836 8.049l-2.351-6.421-1.096 5.764-2.032-.385 1.73-9.098 2.031.385 2.352 6.42 1.09-5.769 2.026.385-1.724 9.104-2.026-.385zm13.517-4.555c-.071-.924-.29-1.617-.658-2.079-.367-.462-.858-.669-1.463-.622-.616.048-1.066.326-1.356.841-.284.51-.391 1.232-.32 2.156l.03.397c.07.924.29 1.617.657 2.085.367.468.859.675 1.475.628.604-.047 1.054-.332 1.339-.853.29-.521.396-1.238.325-2.156l-.03-.397zm2.12.243c.071.924-.035 1.747-.314 2.458-.284.711-.71 1.274-1.279 1.688-.575.415-1.25.652-2.026.711-.782.059-1.486-.071-2.12-.391-.634-.32-1.143-.811-1.534-1.469-.391-.657-.622-1.451-.693-2.375l-.03-.385c-.071-.924.03-1.747.314-2.458.278-.711.705-1.28 1.28-1.694.574-.415 1.25-.652 2.031-.711.776-.059 1.487.071 2.115.391.633.32 1.143.812 1.534 1.475.39.663.622 1.457.693 2.381l.03.379zm12.569-9.169l1.481 9.359-1.226.479-.74.285-3.406-4.964.847 5.959-1.09.42-.877.344-5.236-7.908 1.913-.74 3.37 5.467-.977-6.397 1.635-.634 3.602 5.379-1.203-6.315 1.907-.734zm9.46-5.497l1.605 1.523 2.5-2.636 1.202 1.143-2.5 2.636 2.701 2.564-1.421 1.499-6.723-6.373 4.211-4.437 1.209 1.149-2.784 2.932zm5.923-7.724l1.795.96 1.682-3.175 1.421.758-1.682 3.169 2.026 1.072 1.978-3.731 1.47.782-2.305 4.341-.645 1.214-8.186-4.341 2.955-5.562 1.47.782-1.979 3.731zm6.16-8.511l.273-1.451c.082-.445.03-.806-.154-1.084-.184-.279-.474-.451-.877-.528-.409-.077-.746-.017-1.019.172-.272.19-.45.51-.533.96l-.272 1.451 2.582.48zm5.763-4.289l.095.018-.403 2.18-3.56 1.042-.254 1.357 3.252.604-.38 2.032-9.11-1.694.646-3.483c.13-.699.35-1.286.652-1.76.308-.473.687-.805 1.149-1.001.462-.195.99-.242 1.581-.13.658.125 1.167.361 1.523.711.355.349.604.811.746 1.374l4.063-1.25zm.107-15.631v2.067h-2.28l-4.484-.201 6.764 2.381v1.386l-6.764 2.381 4.484-.207h2.28v2.061h-9.264v-2.701l6.528-2.227-6.528-2.227v-2.713h9.264zm-7.599-8.322h2.037v-3.584h1.611v3.584h2.287v-4.223h1.664v6.296h-9.264v-6.296h1.665v4.223zm7.599-15.501l-5.864 3.5h5.864v2.074h-9.264v-2.074l5.87-3.5h-5.87v-2.062h9.264v2.062zm-7.599-15.401v2.808h7.599v2.067h-7.6v2.76h-1.664v-7.635h1.665zm2.76-11.052c-.924 0-1.635.166-2.12.497-.492.332-.735.8-.735 1.416 0 .616.243 1.09.734 1.416.486.325 1.197.485 2.127.485h.403c.923 0 1.634-.166 2.126-.497.492-.332.74-.806.74-1.422 0-.604-.249-1.072-.746-1.404-.498-.325-1.202-.491-2.126-.491h-.403zm.403-2.097c.93 0 1.735.172 2.422.503.687.338 1.214.806 1.582 1.41.367.604.55 1.291.55 2.073s-.183 1.481-.55 2.085c-.368.604-.895 1.078-1.582 1.416-.687.337-1.498.503-2.422.503h-.386c-.93 0-1.735-.166-2.428-.503-.687-.332-1.22-.806-1.587-1.404-.368-.604-.551-1.297-.551-2.079 0-.782.183-1.475.55-2.079.368-.604.9-1.078 1.588-1.416.687-.337 1.499-.503 2.428-.503h.386v-.006zm-.539-8.02v-1.475c0-.456-.119-.8-.35-1.037-.23-.237-.55-.355-.96-.355-.414 0-.74.118-.97.355-.232.237-.35.581-.35 1.043v1.475h2.63v-.006zm4.88-5.266h.095v2.215l-3.311 1.677v1.38h3.311v2.067h-9.264v-3.542c0-.711.107-1.327.32-1.848.213-.521.527-.918.948-1.197.42-.278.93-.414 1.528-.414.67 0 1.214.142 1.629.42.414.279.746.687.989 1.215l3.755-1.973zm-9.169-10.33v-2.239l5.923 3.015h3.341v2.097h-3.34l-5.924 3.015v-2.245l4.064-1.819-4.064-1.824z" fill="#27235E"/></svg>