<svg width="141" height="153" viewBox="0 0 141 153" fill="none" xmlns="http://www.w3.org/2000/svg"><path fill-rule="evenodd" clip-rule="evenodd" d="M63.413 136.159a1.445 1.445 0 0 0-1.476-.712 1.449 1.449 0 0 0-1.197 1.116 9.99 9.99 0 0 0-.206 1.939c0 3.921 5.948 10.854 8.445 13.586a1.443 1.443 0 0 0 2.16 0c2.496-2.732 8.445-9.665 8.445-13.586 0-.668-.074-1.315-.22-1.939a1.442 1.442 0 0 0-1.183-1.101 1.424 1.424 0 0 0-1.454.705 49.946 49.946 0 0 1-5.603 7.777 1.441 1.441 0 0 1-2.115 0 48.364 48.364 0 0 1-5.596-7.785zm6.653 3.298c.14-.14 4.054-4.061 5.963-9.591.14-.441.492-.786.933-.926a1.45 1.45 0 0 1 1.292.213 15.572 15.572 0 0 0 4.531 2.248.576.576 0 0 0 .712-.382v-.008a15.454 15.454 0 0 0-1.042-10.846.6.6 0 0 0-.411-.316h-.015a18.926 18.926 0 0 1-2.49-.793c-.352-.14-.69-.287-1.035-.441-.14-.059-.272-.125-.404-.191l-.051-.022-.103-.051a.274.274 0 0 0-.052-.022c-.058-.03-.11-.059-.169-.088-.095.257-.19.514-.3.771a24.412 24.412 0 0 1-2.534 4.604 27.12 27.12 0 0 1-1.3 1.726c-.367.441-.742.874-1.138 1.292-.052.052-.052.052-.096.103l-.014.015L71.094 128a1.462 1.462 0 0 1-1.028.426c-.382 0-.756-.154-1.028-.426l-1.248-1.248-.008-.007a18.447 18.447 0 0 1-1.072-1.197 26.842 26.842 0 0 1-2.32-3.246 23.16 23.16 0 0 1-1.888-3.826.237.237 0 0 0-.132-.133.226.226 0 0 0-.184.008 19.656 19.656 0 0 1-3.723 1.395 1.46 1.46 0 0 0-.955.793 15.531 15.531 0 0 0-.859 10.465v.015a.564.564 0 0 0 .705.382 15.707 15.707 0 0 0 4.531-2.255 1.445 1.445 0 0 1 2.233.72c1.91 5.53 5.823 9.451 5.963 9.591h-.015zm.015-39.553l-.022-.023-.022.022v-.022c-9.224.008-16.707 7.506-16.707 16.729v.008a.624.624 0 0 0 .19.426c.118.11.28.169.441.169a16.675 16.675 0 0 0 8.666-2.813c.396-.279.91-.338 1.358-.154.448.183.779.58.874 1.057.823 3.518 2.85 6.419 4.113 7.975a1.434 1.434 0 0 0 2.174 0c1.27-1.556 3.297-4.457 4.127-7.975.095-.47.418-.866.866-1.043a1.452 1.452 0 0 1 1.352.155 16.778 16.778 0 0 0 8.672 2.805.573.573 0 0 0 .434-.169.62.62 0 0 0 .19-.426v-.007c0-9.224-7.49-16.715-16.706-16.73v.015zm.77-3.922a.795.795 0 0 0 .794-.793V84.922a.795.795 0 0 0-.793-.793h-1.579a.788.788 0 0 0-.786.793V95.19c0 .433.353.793.786.793h1.579zm48.293-56.355c-.602 0-1.138-.36-1.359-.918a1.455 1.455 0 0 1 .368-1.601 9.857 9.857 0 0 1 1.578-1.146c3.393-1.96 12.375-.272 15.988.521.404.081.756.338.962.69.205.36.249.786.117 1.176-1.116 3.525-4.149 12.146-7.542 14.107a8.774 8.774 0 0 1-1.792.778 1.432 1.432 0 0 1-1.659-2.086 49.275 49.275 0 0 0 3.929-8.738 1.453 1.453 0 0 0-1.058-1.836 48.475 48.475 0 0 0-9.532-.947zm6.183 4.112c-.051.184-1.49 5.544-5.324 9.958a1.457 1.457 0 0 0-.338 1.27c.103.456.412.83.838 1.014a15.577 15.577 0 0 1 4.207 2.798.55.55 0 0 1 .177.396.566.566 0 0 1-.155.412l-.007.007a15.446 15.446 0 0 1-9.914 4.516.587.587 0 0 1-.485-.198c0-.007-.007-.007-.007-.015a20.654 20.654 0 0 0-1.924-1.755 19.278 19.278 0 0 0-.896-.675l-.367-.257-.044-.03-.096-.059c-.014-.007-.029-.022-.044-.029a1.978 1.978 0 0 0-.161-.103 41.1 41.1 0 0 0 .514-.639 24.365 24.365 0 0 0 2.724-4.494 25.442 25.442 0 0 0 1.396-3.62c.022-.066.022-.074.036-.133 0-.007 0-.014.008-.014.022-.088.249-.925.455-1.704a1.432 1.432 0 0 0-.147-1.109 1.429 1.429 0 0 0-.881-.676c-.793-.212-1.638-.44-1.711-.455h-.007a23.079 23.079 0 0 0-3.614-.61 24.097 24.097 0 0 0-1.931-.117 23.636 23.636 0 0 0-4.259.28h-.008a.219.219 0 0 1-.176-.052.224.224 0 0 1-.088-.162 17.339 17.339 0 0 0-.14-1.395 19.814 19.814 0 0 0-.514-2.54 1.464 1.464 0 0 1 .206-1.22 15.53 15.53 0 0 1 8.636-5.978h.015a.57.57 0 0 1 .69.419c.389 1.696.478 3.4.316 5.045a1.447 1.447 0 0 0 1.733 1.579c5.743-1.138 11.104.286 11.287.345 0-.007 0-.007 0 0zM91.084 63.53c-.022-.007-.03-.007-.03-.007s0-.008.008-.03l-.015.008c-4.605-7.99-1.858-18.22 6.132-22.839 0 0 .007 0 .007-.007a.613.613 0 0 1 .47-.052.599.599 0 0 1 .36.294 16.713 16.713 0 0 1 1.895 8.908 1.432 1.432 0 0 0 1.894 1.483c3.459-1.05 6.984-.741 8.967-.426.411.081.771.33.977.69.213.36.25.801.11 1.198-.712 1.872-2.218 5.081-4.84 7.564a1.42 1.42 0 0 0-.47 1.278c.067.477.375.888.808 1.094a16.764 16.764 0 0 1 6.764 6.11.612.612 0 0 1-.198.837s-.008 0-.008.007c-7.99 4.612-18.22 1.873-22.839-6.11h.008zm-3.011 2.63a.791.791 0 0 1-.287 1.079l-8.893 5.133a.792.792 0 0 1-1.08-.286l-.793-1.366a.792.792 0 0 1 .287-1.08l8.893-5.133a.792.792 0 0 1 1.08.286l.793 1.366zm-73.738 33.986a1.455 1.455 0 0 0-.118-1.638 1.437 1.437 0 0 0-1.564-.477c-.61.206-1.204.462-1.784.793-3.393 1.961-6.426 10.582-7.542 14.107a1.43 1.43 0 0 0 .117 1.175c.206.36.558.61.962.69 3.613.794 12.587 2.483 15.987.522a8.596 8.596 0 0 0 1.565-1.16 1.42 1.42 0 0 0 .36-1.572 1.434 1.434 0 0 0-1.337-.911 49.298 49.298 0 0 1-9.532-.969 1.424 1.424 0 0 1-.925-.69 1.455 1.455 0 0 1-.133-1.146 47.401 47.401 0 0 1 3.944-8.724zm.462 7.41c.184.051 5.545 1.476 11.288.367.455-.096.925.029 1.27.345.345.308.514.771.463 1.226a15.882 15.882 0 0 0 .316 5.045.57.57 0 0 0 .69.419h.007a15.475 15.475 0 0 0 8.872-6.323.583.583 0 0 0 .066-.514c0-.007 0-.007-.008-.015a20.224 20.224 0 0 1-.734-4.112l-.008-.059-.007-.11c0-.022 0-.037-.007-.059-.008-.066-.008-.125-.008-.191a32.77 32.77 0 0 1-.815.125c-1.74.235-3.51.257-5.25.11a26.185 26.185 0 0 1-2.145-.264 22.733 22.733 0 0 1-1.689-.345h-.007c-.066-.015-.074-.015-.132-.037-.008 0-.015 0-.015-.007-.088-.022-.925-.25-1.704-.456a1.458 1.458 0 0 1-.881-.675 1.499 1.499 0 0 1-.147-1.109c.213-.793.44-1.63.455-1.711v-.008c.14-.514.316-1.028.5-1.527.235-.646.5-1.278.786-1.902.264-.588.558-1.16.866-1.726a23.476 23.476 0 0 1 2.365-3.547.223.223 0 0 0 .044-.176.205.205 0 0 0-.103-.154c-.39-.257-.764-.529-1.13-.815a19.551 19.551 0 0 1-1.94-1.712 1.453 1.453 0 0 0-1.16-.433 15.54 15.54 0 0 0-9.495 4.487l-.008.008a.568.568 0 0 0 .022.8 15.726 15.726 0 0 0 4.216 2.798c.426.184.734.566.837 1.02.095.456-.03.926-.338 1.271-3.84 4.414-5.287 9.775-5.332 9.966 0-.008-.007-.008 0 0zm34.266-19.762c.008-.022.008-.03.008-.03s-.008 0-.03-.007l.022-.007c-4.619-7.983-14.849-10.722-22.839-6.11 0 0-.007 0-.007.007a.641.641 0 0 0-.28.382.634.634 0 0 0 .074.463 16.638 16.638 0 0 0 6.771 6.095c.44.206.75.617.815 1.101.066.485-.11.962-.477 1.286-2.636 2.467-4.134 5.676-4.847 7.549a1.432 1.432 0 0 0 1.087 1.887c1.983.323 5.508.624 8.967-.411a1.41 1.41 0 0 1 1.336.228c.382.301.58.763.544 1.248a16.712 16.712 0 0 0 1.909 8.908.6.6 0 0 0 .822.242s.008 0 .008-.007c7.99-4.612 10.736-14.842 6.132-22.839l-.015.015zm3.782-1.3a.792.792 0 0 0 1.08.286l8.893-5.133a.792.792 0 0 0 .286-1.08l-.793-1.365a.792.792 0 0 0-1.08-.287l-8.893 5.133a.792.792 0 0 0-.286 1.08l.793 1.366zm72.945 13.652a1.455 1.455 0 0 1 .117-1.638c.375-.47.992-.66 1.565-.477.609.206 1.204.462 1.784.793 3.393 1.961 6.426 10.582 7.542 14.107a1.435 1.435 0 0 1-1.079 1.865c-3.613.794-12.587 2.483-15.988.522a8.651 8.651 0 0 1-1.571-1.16 1.434 1.434 0 0 1 .977-2.483 49.312 49.312 0 0 0 9.532-.969c.389-.088.727-.338.925-.69.198-.345.25-.764.132-1.146-.595-1.821-1.843-5.126-3.936-8.724zm-.463 7.41c-.191.051-5.544 1.476-11.287.367a1.434 1.434 0 0 0-1.27.345 1.432 1.432 0 0 0-.463 1.226 15.865 15.865 0 0 1-.316 5.045.571.571 0 0 1-.69.419h-.007a15.477 15.477 0 0 1-8.872-6.323.614.614 0 0 1-.073-.514c0-.007.007-.007.007-.015.243-.837.426-1.689.558-2.548a19.322 19.322 0 0 0 .177-1.564v-.059l.007-.11c0-.022 0-.037.007-.059.008-.066.008-.125.008-.191.271.044.543.088.815.125 1.74.235 3.51.257 5.251.11a26.192 26.192 0 0 0 2.144-.264 22.764 22.764 0 0 0 1.689-.345c.066-.015.073-.015.132-.037.007 0 .007 0 .015-.007.088-.022.925-.25 1.704-.456a1.46 1.46 0 0 0 .881-.675c.191-.338.242-.735.147-1.109-.213-.793-.441-1.63-.456-1.711v-.008a18.191 18.191 0 0 0-.499-1.527 25.016 25.016 0 0 0-.786-1.902 25.272 25.272 0 0 0-.866-1.726 23.47 23.47 0 0 0-2.365-3.547.197.197 0 0 1-.044-.176.204.204 0 0 1 .103-.154 17.98 17.98 0 0 0 1.131-.815 19.52 19.52 0 0 0 1.938-1.712c.301-.308.735-.47 1.161-.433a15.54 15.54 0 0 1 9.495 4.487l.007.008a.568.568 0 0 1-.022.8 15.71 15.71 0 0 1-4.215 2.798 1.455 1.455 0 0 0-.837 1.02c-.096.456.029.926.338 1.271 3.863 4.414 5.309 9.775 5.353 9.966 0-.008.008-.008 0 0zM91.062 87.794c-.008-.022-.008-.03-.008-.03s.008 0 .03-.007l-.022-.007c4.619-7.983 14.849-10.722 22.839-6.11 0 0 .007 0 .007.007.139.088.235.22.279.382a.632.632 0 0 1-.074.463 16.632 16.632 0 0 1-6.77 6.095 1.43 1.43 0 0 0-.816 1.101 1.45 1.45 0 0 0 .478 1.286c2.636 2.467 4.134 5.676 4.847 7.549.139.396.102.83-.111 1.197a1.408 1.408 0 0 1-.976.69c-1.983.323-5.508.624-8.967-.411a1.41 1.41 0 0 0-1.336.228c-.382.301-.58.763-.544 1.248a16.714 16.714 0 0 1-1.91 8.908.6.6 0 0 1-.822.242s-.007 0-.007-.007c-7.99-4.612-10.737-14.842-6.132-22.839l.015.015zm-3.782-1.3a.792.792 0 0 1-1.08.286l-8.893-5.133a.792.792 0 0 1-.287-1.08l.794-1.365a.792.792 0 0 1 1.08-.287l8.892 5.133c.375.22.507.706.287 1.08l-.793 1.366zm-66.3-46.867a1.46 1.46 0 0 0 1.36-.918c.22-.559.073-1.19-.368-1.601a9.86 9.86 0 0 0-1.579-1.146c-3.392-1.96-12.374-.272-15.987.521a1.435 1.435 0 0 0-1.08 1.865c1.117 3.526 4.15 12.147 7.543 14.108a8.77 8.77 0 0 0 1.792.778 1.433 1.433 0 0 0 1.66-2.086 49.243 49.243 0 0 1-3.93-8.738 1.454 1.454 0 0 1 1.058-1.836 48.477 48.477 0 0 1 9.532-.947zm-6.183 4.112c.052.184 1.491 5.544 5.325 9.958.308.345.433.815.337 1.27-.095.456-.41.83-.837 1.014a15.575 15.575 0 0 0-4.208 2.798.551.551 0 0 0-.176.396.565.565 0 0 0 .154.412l.008.007a15.447 15.447 0 0 0 9.914 4.516.585.585 0 0 0 .484-.198c0-.007.008-.007.008-.015a20.73 20.73 0 0 1 1.924-1.755c.293-.235.595-.462.896-.675l.367-.257.044-.03.095-.059c.015-.007.03-.022.044-.029a2.08 2.08 0 0 1 .162-.103 41.1 41.1 0 0 1-.514-.639 24.367 24.367 0 0 1-2.725-4.494 27.877 27.877 0 0 1-.844-1.99c-.198-.536-.39-1.08-.55-1.63-.023-.066-.023-.074-.038-.133 0-.007 0-.014-.007-.014-.022-.088-.25-.925-.455-1.704a1.465 1.465 0 0 1 .147-1.109c.19-.338.514-.58.88-.676.794-.212 1.631-.44 1.712-.455h.007a22.11 22.11 0 0 1 1.572-.338 23.869 23.869 0 0 1 2.041-.271 24.124 24.124 0 0 1 1.932-.118c1.424-.03 2.85.052 4.26.28a.22.22 0 0 0 .175-.052.195.195 0 0 0 .081-.162 19.97 19.97 0 0 1 .654-3.936 1.461 1.461 0 0 0-.206-1.219 15.556 15.556 0 0 0-8.636-5.978h-.015a.541.541 0 0 0-.426.066.597.597 0 0 0-.257.353 15.707 15.707 0 0 0-.316 5.045 1.446 1.446 0 0 1-1.732 1.579c-5.736-1.138-11.097.286-11.28.345 0-.007 0-.007 0 0zM49.041 63.53c.022-.007.03-.007.03-.007s0-.008-.008-.03l.022.008c4.605-7.99 1.858-18.22-6.132-22.839 0 0-.007 0-.007-.007a.613.613 0 0 0-.837.242 16.712 16.712 0 0 0-1.895 8.908c.044.485-.162.955-.543 1.256a1.42 1.42 0 0 1-1.352.227c-3.451-1.05-6.984-.741-8.966-.426a1.44 1.44 0 0 0-.977.69c-.213.36-.25.801-.11 1.198.712 1.872 2.218 5.081 4.84 7.564a1.436 1.436 0 0 1-.338 2.372 16.76 16.76 0 0 0-6.764 6.11.6.6 0 0 0-.074.462.616.616 0 0 0 .28.382c7.99 4.612 18.22 1.873 22.838-6.11h-.007zm3.011 2.63a.792.792 0 0 0 .286 1.079l8.894 5.133a.793.793 0 0 0 1.08-.286l.792-1.366a.792.792 0 0 0-.286-1.08l-8.893-5.133a.792.792 0 0 0-1.08.286l-.793 1.366zM36.77 22.406a.68.68 0 0 0 .72-.243.678.678 0 0 0 .05-.756c-.968-1.682-2.533-4.392-3.223-5.581a.685.685 0 0 1 .25-.933c.272-.162.595-.345.874-.5a.685.685 0 0 1 .932.25c.69 1.19 2.255 3.907 3.224 5.581a.69.69 0 0 0 .683.338.694.694 0 0 0 .573-.499c.294-1.094.668-2.482.881-3.29a.662.662 0 0 1 .316-.411.665.665 0 0 1 .514-.066c.308.08.668.176.97.257a.679.679 0 0 1 .477.837c-.434 1.63-1.55 5.787-1.85 6.896a.694.694 0 0 0 .065.514c.191.33.544.932.874 1.512.14.235.404.368.683.338a.694.694 0 0 0 .573-.5c.294-1.093.668-2.481.881-3.282a.662.662 0 0 1 .316-.411.665.665 0 0 1 .514-.066c.308.08.668.176.97.257a.679.679 0 0 1 .477.837c-.434 1.63-1.55 5.787-1.851 6.896a.718.718 0 0 0 .066.521c.176.301.485.83.779 1.352a.7.7 0 0 0 .682.337.694.694 0 0 0 .573-.5c.294-1.093.669-2.481.882-3.29a.661.661 0 0 1 .315-.41.665.665 0 0 1 .514-.066c.309.08.669.176.97.257a.678.678 0 0 1 .477.837c-.433 1.63-1.55 5.787-1.85 6.896a.694.694 0 0 0 .066.514c.565.976 2.665 4.619 3.502 6.058a.678.678 0 0 1 .067.521.662.662 0 0 1-.316.412c-.272.154-.595.345-.874.5a.665.665 0 0 1-.514.065.662.662 0 0 1-.411-.316c-.83-1.439-2.938-5.081-3.503-6.058a.682.682 0 0 0-.412-.316c-1.101-.294-5.265-1.41-6.895-1.843a.679.679 0 0 1-.477-.837c.08-.309.176-.669.256-.97a.662.662 0 0 1 .316-.41.665.665 0 0 1 .514-.067c.808.213 2.196.588 3.29.881a.68.68 0 0 0 .72-.242.677.677 0 0 0 .051-.757c-.3-.52-.61-1.05-.778-1.35a.681.681 0 0 0-.411-.317c-1.102-.293-5.266-1.41-6.896-1.843a.679.679 0 0 1-.477-.837c.08-.308.176-.668.257-.97a.662.662 0 0 1 .315-.41.665.665 0 0 1 .514-.067c.808.213 2.196.588 3.29.882a.68.68 0 0 0 .72-.243.677.677 0 0 0 .051-.756c-.33-.58-.682-1.183-.873-1.513a.682.682 0 0 0-.412-.316c-1.101-.294-5.265-1.41-6.895-1.843a.679.679 0 0 1-.477-.837l.256-.97a.662.662 0 0 1 .316-.41.665.665 0 0 1 .514-.067c.823.162 2.218.536 3.305.823zm62.392 108.062a.685.685 0 0 1 1.256-.162c.969 1.682 2.54 4.392 3.223 5.582.191.323.603.44.933.249.272-.154.595-.345.874-.499a.684.684 0 0 0 .25-.933c-.683-1.189-2.255-3.907-3.224-5.581a.676.676 0 0 1 .051-.756.676.676 0 0 1 .72-.243c1.094.294 2.482.669 3.29.882a.69.69 0 0 0 .514-.067.682.682 0 0 0 .316-.411c.08-.301.176-.668.257-.969a.694.694 0 0 0-.066-.514.686.686 0 0 0-.412-.316c-1.63-.433-5.786-1.55-6.895-1.851a.66.66 0 0 1-.412-.315c-.19-.331-.543-.933-.874-1.513a.681.681 0 1 1 .771-.999c1.095.294 2.483.668 3.283.881a.72.72 0 0 0 .522-.066.655.655 0 0 0 .315-.411l.257-.969a.694.694 0 0 0-.066-.514.678.678 0 0 0-.411-.316c-1.63-.434-5.787-1.55-6.896-1.851a.66.66 0 0 1-.41-.316 93.742 93.742 0 0 1-.78-1.351.677.677 0 0 1 .052-.756.68.68 0 0 1 .72-.243c1.094.294 2.482.669 3.29.882.176.044.36.022.521-.066a.686.686 0 0 0 .316-.412c.081-.301.176-.668.257-.969a.694.694 0 0 0-.066-.514.682.682 0 0 0-.411-.316c-1.63-.433-5.787-1.549-6.896-1.851a.66.66 0 0 1-.411-.315 6662.22 6662.22 0 0 1-3.496-6.059.683.683 0 0 0-.933-.25c-.271.155-.594.346-.866.5a.68.68 0 0 0-.25.925c.83 1.439 2.938 5.082 3.503 6.059a.664.664 0 0 1 .066.514c-.294 1.101-1.41 5.265-1.843 6.895a.697.697 0 0 0 .066.515.681.681 0 0 0 .411.315l.97.257c.176.044.36.022.521-.066a.68.68 0 0 0 .316-.411c.213-.808.587-2.196.881-3.29a.684.684 0 0 1 1.256-.162c.3.522.61 1.051.778 1.352a.664.664 0 0 1 .066.514c-.293 1.101-1.41 5.265-1.843 6.895a.696.696 0 0 0 .066.515.681.681 0 0 0 .411.315l.97.257c.176.044.36.022.521-.066a.655.655 0 0 0 .316-.411c.213-.808.587-2.196.881-3.29a.684.684 0 0 1 1.256-.162c.33.581.683 1.183.874 1.513a.664.664 0 0 1 .066.514c-.294 1.102-1.41 5.266-1.843 6.896a.694.694 0 0 0 .066.514.682.682 0 0 0 .411.316l.97.257c.176.044.36.022.52-.066a.683.683 0 0 0 .317-.411c.168-.823.543-2.211.837-3.305zm-58.324 0a.684.684 0 1 0-1.256-.162 3093.97 3093.97 0 0 1-3.223 5.582.683.683 0 0 1-.933.249c-.272-.154-.595-.345-.874-.499a.684.684 0 0 1-.25-.933c.69-1.189 2.255-3.907 3.224-5.581a.677.677 0 0 0-.051-.756.676.676 0 0 0-.72-.243c-1.094.294-2.482.669-3.29.882a.69.69 0 0 1-.514-.067.68.68 0 0 1-.316-.411c-.08-.301-.176-.668-.257-.969a.694.694 0 0 1 .066-.514.683.683 0 0 1 .412-.316c1.63-.433 5.786-1.55 6.895-1.851a.661.661 0 0 0 .412-.315c.19-.331.543-.933.873-1.513a.679.679 0 0 0-.05-.757.677.677 0 0 0-.72-.242c-1.095.294-2.483.668-3.29.881a.694.694 0 0 1-.515-.066.68.68 0 0 1-.315-.411l-.257-.969a.692.692 0 0 1 .066-.514.679.679 0 0 1 .41-.316c1.631-.434 5.788-1.55 6.897-1.851a.66.66 0 0 0 .41-.316c.177-.301.486-.829.78-1.351a.677.677 0 0 0-.052-.756.676.676 0 0 0-.72-.243c-1.094.294-2.482.669-3.29.882a.695.695 0 0 1-.514-.066.686.686 0 0 1-.316-.412c-.08-.301-.176-.668-.257-.969a.694.694 0 0 1 .067-.514.683.683 0 0 1 .41-.316c1.631-.433 5.788-1.549 6.896-1.851a.661.661 0 0 0 .412-.315c.565-.977 2.665-4.619 3.503-6.059a.683.683 0 0 1 .925-.25c.272.155.595.346.874.5a.68.68 0 0 1 .25.925c-.83 1.439-2.938 5.082-3.503 6.059a.664.664 0 0 0-.066.514c.293 1.101 1.41 5.265 1.85 6.895a.696.696 0 0 1-.066.515.681.681 0 0 1-.411.315l-.97.257a.695.695 0 0 1-.514-.066.68.68 0 0 1-.315-.411c-.213-.808-.588-2.196-.882-3.29a.684.684 0 1 0-1.256-.162c-.3.522-.609 1.051-.778 1.352a.664.664 0 0 0-.066.514c.294 1.101 1.41 5.265 1.85 6.895a.696.696 0 0 1-.066.515.681.681 0 0 1-.41.315c-.31.081-.669.177-.97.257a.694.694 0 0 1-.514-.066.68.68 0 0 1-.316-.411c-.213-.808-.587-2.196-.881-3.29a.684.684 0 0 0-1.256-.162c-.33.581-.683 1.183-.874 1.513a.664.664 0 0 0-.066.514c.294 1.102 1.41 5.266 1.85 6.896a.694.694 0 0 1-.065.514.682.682 0 0 1-.412.316c-.308.081-.668.176-.969.257a.695.695 0 0 1-.514-.066.684.684 0 0 1-.316-.411c-.227-.823-.602-2.211-.896-3.305zM103.23 22.406a.679.679 0 0 1-.719-.243.68.68 0 0 1-.052-.756c.969-1.682 2.541-4.392 3.224-5.581a.685.685 0 0 0-.25-.933 32.497 32.497 0 0 0-.874-.5.684.684 0 0 0-.932.25 2623.76 2623.76 0 0 1-3.224 5.581.691.691 0 0 1-.683.338.694.694 0 0 1-.573-.499c-.294-1.094-.66-2.482-.881-3.29a.679.679 0 0 0-.837-.477c-.301.08-.669.176-.97.257a.679.679 0 0 0-.477.837c.433 1.63 1.55 5.787 1.843 6.896a.693.693 0 0 1-.066.514c-.19.33-.543.932-.874 1.512a.703.703 0 0 1-.683.338.694.694 0 0 1-.573-.5c-.293-1.093-.66-2.481-.88-3.282a.679.679 0 0 0-.837-.477c-.302.08-.67.176-.97.257a.678.678 0 0 0-.477.837c.433 1.63 1.549 5.787 1.843 6.896a.717.717 0 0 1-.067.521c-.176.301-.484.83-.778 1.352a.704.704 0 0 1-.683.337.694.694 0 0 1-.573-.5c-.293-1.093-.66-2.481-.88-3.29a.679.679 0 0 0-.837-.477c-.31.081-.67.177-.97.258a.679.679 0 0 0-.477.837c.432 1.63 1.549 5.787 1.842 6.896a.694.694 0 0 1-.066.514c-.565.976-2.665 4.619-3.503 6.058a.679.679 0 0 0-.066.521.662.662 0 0 0 .316.412c.272.154.595.345.867.5a.678.678 0 0 0 .521.065.662.662 0 0 0 .411-.316c.83-1.439 2.938-5.081 3.496-6.058a.682.682 0 0 1 .411-.316c1.102-.294 5.266-1.41 6.896-1.843a.677.677 0 0 0 .477-.837c-.081-.309-.176-.669-.257-.97a.678.678 0 0 0-.837-.477c-.808.213-2.196.588-3.29.881a.68.68 0 0 1-.72-.242.691.691 0 0 1-.051-.757c.301-.52.61-1.05.778-1.35a.681.681 0 0 1 .412-.317c1.101-.293 5.265-1.41 6.895-1.843a.68.68 0 0 0 .478-.837l-.257-.97a.68.68 0 0 0-.838-.477c-.807.213-2.195.588-3.282.882a.68.68 0 0 1-.72-.243.691.691 0 0 1-.051-.756c.33-.58.683-1.183.874-1.513a.682.682 0 0 1 .411-.316c1.109-.294 5.265-1.41 6.896-1.843a.68.68 0 0 0 .477-.837c-.081-.301-.176-.668-.257-.97a.663.663 0 0 0-.316-.41.664.664 0 0 0-.514-.067c-.764.162-2.152.536-3.246.823zM7.615 77.615a.668.668 0 0 0 .147-.741.673.673 0 0 0-.631-.419H.683A.686.686 0 0 1 0 75.772v-1.006c0-.375.308-.683.683-.683h6.448a.691.691 0 0 0 .631-.418.69.69 0 0 0-.147-.742l-2.408-2.409a.69.69 0 0 1 0-.97l.712-.712a.66.66 0 0 1 .485-.198.7.7 0 0 1 .484.198l5.046 5.046a.69.69 0 0 0 .484.198h1.748a.691.691 0 0 0 .631-.419.69.69 0 0 0-.146-.742l-2.41-2.408a.69.69 0 0 1 0-.97l.713-.712a.66.66 0 0 1 .485-.198c.184 0 .352.073.485.198l5.045 5.045a.69.69 0 0 0 .484.198h1.565a.69.69 0 0 0 .631-.418.69.69 0 0 0-.147-.742L19.094 70.5a.69.69 0 0 1 0-.969l.712-.712a.66.66 0 0 1 .485-.199c.183 0 .352.074.484.199l5.045 5.045a.69.69 0 0 0 .485.198h6.999a.7.7 0 0 1 .484.198.69.69 0 0 1 .199.485v1.006a.703.703 0 0 1-.199.485.69.69 0 0 1-.484.198h-6.999a.703.703 0 0 0-.485.198l-5.045 5.046a.69.69 0 0 1-.97 0l-.711-.713a.689.689 0 0 1 0-.97l2.408-2.408a.668.668 0 0 0 .147-.742.673.673 0 0 0-.631-.418h-1.565a.703.703 0 0 0-.484.198l-5.045 5.045a.689.689 0 0 1-.97 0l-.712-.712a.69.69 0 0 1 0-.97l2.409-2.408a.668.668 0 0 0 .146-.742.672.672 0 0 0-.631-.419h-1.748a.702.702 0 0 0-.484.199l-5.046 5.045a.69.69 0 0 1-.969 0l-.712-.713a.69.69 0 0 1 0-.969c.587-.55 1.608-1.572 2.408-2.365zm124.777 0a.67.67 0 0 1-.147-.741.673.673 0 0 1 .632-.419h6.447a.686.686 0 0 0 .683-.683v-1.006a.682.682 0 0 0-.683-.683h-6.447a.692.692 0 0 1-.632-.418.69.69 0 0 1 .147-.742l2.409-2.409a.693.693 0 0 0 0-.97l-.713-.712a.659.659 0 0 0-.484-.198.702.702 0 0 0-.485.198l-5.045 5.046a.69.69 0 0 1-.485.198h-1.748a.69.69 0 0 1-.631-.419.675.675 0 0 1 .147-.742l2.408-2.408a.69.69 0 0 0 0-.97l-.712-.712a.67.67 0 0 0-.485-.198.702.702 0 0 0-.484.198l-5.045 5.045a.69.69 0 0 1-.485.198h-1.564a.692.692 0 0 1-.632-.418.69.69 0 0 1 .147-.742l2.409-2.409a.688.688 0 0 0 0-.969l-.713-.712a.657.657 0 0 0-.484-.199.702.702 0 0 0-.485.199l-5.045 5.045a.69.69 0 0 1-.485.198h-6.998a.702.702 0 0 0-.485.198.688.688 0 0 0-.198.485v1.006c0 .184.073.353.198.485a.69.69 0 0 0 .485.198h6.998c.184 0 .353.073.485.198l5.045 5.046a.702.702 0 0 0 .485.198.702.702 0 0 0 .484-.198l.713-.713a.688.688 0 0 0 0-.97 5352.55 5352.55 0 0 1-2.409-2.408.681.681 0 0 1-.147-.742.692.692 0 0 1 .632-.418h1.564c.184 0 .352.073.485.198l5.045 5.045a.689.689 0 0 0 .969 0l.712-.712a.69.69 0 0 0 0-.97l-2.408-2.408a.667.667 0 0 1-.147-.742.672.672 0 0 1 .631-.419h1.748c.184 0 .353.074.485.199l5.045 5.045a.69.69 0 0 0 .969 0l.713-.713a.692.692 0 0 0 0-.969c-.595-.55-1.609-1.572-2.409-2.365zM65.344 28.684c.595-.176.999-.727.999-1.344v-5.25c0-.22-.052-.44-.154-.64-1.065-2.085-7.403-14.459-9.936-19.408a1.408 1.408 0 0 1 .051-1.374A1.42 1.42 0 0 1 57.501 0h4.803c.55 0 1.05.323 1.278.822.969 2.145 3.605 7.968 5.199 11.486a1.406 1.406 0 0 0 2.556 0c1.593-3.525 4.23-9.341 5.199-11.486A1.406 1.406 0 0 1 77.814 0h4.803c.492 0 .94.257 1.197.668.257.419.271.933.05 1.374-2.533 4.95-8.863 17.323-9.935 19.409a1.39 1.39 0 0 0-.154.639v5.008c0 .646.44 1.205 1.064 1.359.823.205 1.602.477 2.343.822 1.902.881 3.378 2.123 4.421 3.716a9.48 9.48 0 0 1 1.454 3.892 1.395 1.395 0 0 1-1.373 1.579c-1.351.015-3.334.015-4.605.015a1.4 1.4 0 0 1-1.373-1.124 3.909 3.909 0 0 0-1.226-2.298c-.91-.852-2.248-1.278-4.01-1.278-1.123 0-2.078.162-2.864.492-.786.33-1.38.778-1.777 1.344a3.252 3.252 0 0 0-.595 1.91c0 1.042.536 1.93 1.616 2.658 1.08.727 2.746 1.439 5.008 2.144 3.819 1.168 6.66 2.629 8.526 4.384 1.865 1.755 2.798 4.002 2.798 6.749 0 1.983-.507 3.687-1.52 5.111-1.014 1.425-2.453 2.512-4.318 3.26-1.866.75-4.054 1.124-6.558 1.124-2.402 0-4.656-.41-6.771-1.24-2.115-.83-3.834-2.094-5.155-3.805-1.036-1.336-1.667-2.9-1.895-4.707a1.363 1.363 0 0 1 .338-1.087c.264-.294.639-.47 1.035-.47a494.21 494.21 0 0 1 4.62-.015c.69 0 1.277.507 1.387 1.19.162 1.351.698 2.357 1.587 3.033 1.13.867 2.746 1.3 4.854 1.3 1.667 0 2.93-.338 3.775-1.006.851-.669 1.277-1.55 1.277-2.644 0-.808-.169-1.49-.514-2.034-.345-.544-.977-1.065-1.894-1.564-.918-.5-2.277-1.036-4.069-1.616-2.306-.749-4.296-1.579-5.956-2.49-1.66-.91-2.989-2.056-3.987-3.429-.999-1.373-1.498-3.003-1.498-4.89 0-1.888.543-3.555 1.623-4.994 1.087-1.44 2.585-2.556 4.501-3.342.419-.176.852-.33 1.3-.463z" fill="#313131"/></svg>