<svg width="460" height="360" viewBox="0 0 460 360" fill="none" xmlns="http://www.w3.org/2000/svg">
<rect width="460" height="360" fill="#1B2129"/>
<path d="M326.231 46.3173C325.926 45.6657 322.043 37.3683 322.043 37.3683L320.341 37.2087L282.391 85.6236C280.928 83.5626 279.652 81.8206 279.452 81.701C278.947 81.4084 277.325 83.3498 277.325 83.3498C277.325 83.3498 274.572 87.2592 273.176 89.1341C271.78 91.0089 273.947 93.3625 273.947 93.3625L270.649 97.7639L265.011 103.083C265.011 103.083 263.855 103.615 263.323 103.841C262.791 104.067 262.073 104.532 261.474 104.771C260.876 105.024 259.626 106.859 259.626 106.859C259.626 106.859 259.161 104.559 259.028 104.08C258.908 103.601 258.655 102.99 257.525 103.601C256.382 104.213 256.009 107.91 255.783 108.508C255.57 109.12 255.078 110.117 254.866 110.596C254.307 111.885 253.257 115.861 253.363 116.38L253.722 119.279L247.486 124.85C247.406 124.85 247.339 124.863 247.339 124.863C247.339 124.863 244.507 121.193 243.909 120.409C243.829 120.303 243.749 120.223 243.656 120.143C245.691 117.284 247.672 112.776 247.246 106.474C249.228 105.024 250.517 103.322 250.278 101.301L248.071 97.006C246.648 85.0385 237.18 76.3555 226.915 77.6187C216.65 78.882 209.483 89.626 210.905 101.593L209.895 106.287C210.094 107.976 211.504 109.372 213.645 110.423C213.964 116.154 215.772 120.834 219.11 123.919C219.495 124.278 219.934 124.558 220.36 124.863C220.24 124.957 220.12 125.05 220.027 125.143C219.535 125.688 219.003 127.204 218.804 128.374C218.604 129.544 218.126 130.874 217.727 131.499C217.328 132.137 216.796 132.576 216.596 133.015C216.397 133.453 216.743 133.892 217.035 134.185C217.328 134.477 217.966 135.022 217.966 135.022L213.272 142.655C213.272 142.655 211.118 144.955 207.834 150.088C204.563 155.234 203.18 163.106 203.18 163.106C203.18 163.106 201.225 162.614 200.095 163.891C198.964 165.167 198.725 168.784 198.725 169.13C198.725 169.475 197.887 170.06 197.887 170.06L197.834 170.845L198.512 171.483C198.512 171.483 198.459 174.023 198.459 174.515C198.459 174.874 198.233 176.736 198.1 177.72C196.159 179.674 194.377 181.709 193.074 183.437C187.675 190.631 186.359 198.769 190.148 201.601C191.452 202.572 193.18 202.798 195.108 202.372C194.975 202.785 194.896 203.037 194.896 203.037C194.896 203.037 192.741 204.846 191.811 205.883C190.88 206.907 189.218 211.016 189.218 211.016C189.218 211.016 187.702 211.853 186.824 212.731C185.947 213.609 181.984 219.818 180.801 221.241C179.63 222.664 173.261 228.488 172.876 229.219C172.49 229.951 173.168 231.028 173.168 231.028L168.128 235.19L163.288 222.757C163.288 222.757 162.557 222.558 162.464 222.172C162.371 221.773 162.703 221.826 163.488 221.387C164.272 220.949 165.934 220.31 165.589 219.38C164.964 217.691 161.373 218.396 161.373 218.396L160.549 216.241L157.265 216.933L156.334 215.071C156.334 215.071 155.842 214.925 154.765 215.311C153.688 215.696 153.688 216.188 153.688 216.188L154.233 218.05L154.619 218.342L157.797 226.959L156.972 228.182L157.504 229.552C157.89 229.499 158.927 230.429 159.113 230.921C159.312 231.413 160.044 233.913 160.044 233.913L159.113 234.791L159.605 236.014L160.881 236.267L162.743 240.921C162.743 240.921 161.174 243.953 161.174 244.937C161.174 245.921 162.052 247.144 162.105 247.623C162.158 248.115 163.036 248.646 163.328 249.192C163.621 249.724 163.129 250.654 163.328 251.2C163.528 251.731 164.312 252.662 164.312 252.662L165.296 253.54C165.296 253.54 165.828 255.441 166.426 255.441C167.011 255.441 167.889 255.096 167.889 255.096L169.551 259.789C169.551 259.789 169.112 259.883 168.873 260.321C168.634 260.76 168.767 261.106 168.767 261.106C168.767 261.106 167.198 263.353 167.198 264.63C167.198 265.906 168.474 268.446 168.474 268.446L177.676 315.717L177.184 316.994L178.354 322.765H183.54C183.54 322.765 182.955 321.01 182.662 319.534C182.37 318.071 182.662 316.302 182.662 316.302C182.662 316.302 181.984 315.518 181.984 314.441C181.984 313.364 174.843 275.985 174.843 275.985L185.122 306.423V308.085C185.122 308.085 184.138 309.361 183.261 309.747C182.383 310.132 183.261 315.624 183.261 317.579C183.261 319.534 185.122 322.765 185.122 322.765H211.158L210.666 316.01C210.666 316.01 212.129 314.64 212.381 313.909C212.621 313.177 212.089 311.954 211.942 309.747C211.796 307.54 212.089 305.053 212.089 303.245C212.089 301.436 211.065 301.237 211.065 300.266C211.065 299.282 212.288 299.628 212.288 298.697C212.288 297.766 210.959 296.45 210.334 295.865C209.695 295.28 210.134 294.641 210.772 294.349C211.411 294.056 213.073 293.617 213.857 292.979C214.642 292.341 213.91 289.894 213.272 288.378C212.634 286.862 213.764 285.2 214.349 283.871C214.934 282.554 217.82 276.677 218.511 274.988C219.203 273.299 225.705 262.396 226.835 260.242C227.966 258.087 232.899 250.402 232.899 250.402C232.899 250.402 235.106 259.803 235.545 262.196C235.984 264.59 239.215 282.355 240.438 286.224C241.662 290.094 244.454 293.857 245.478 295.28C246.502 296.702 245.863 297.141 245.385 297.341C244.893 297.54 244.8 297.779 244.8 298.418C244.8 299.056 245.145 300.957 245.145 302.234C245.145 303.51 245.438 307.912 245.531 309.228C245.624 310.545 246.023 311.422 246.515 311.675C247.007 311.914 247.06 312.499 247.06 312.951C247.06 313.39 247.06 313.337 247.06 313.935C247.06 314.521 247.26 315.704 247.406 315.89C247.552 316.09 247.898 316.382 247.898 317.167C247.898 317.951 247.605 322.791 247.605 322.791H270.304C270.304 322.791 269.865 314.667 269.918 314.321C269.971 313.975 270.171 313.683 270.171 312.951C270.171 312.22 269.971 310.305 269.971 310.305C269.971 310.305 271.593 308.736 271.78 307.712C271.979 306.688 271.048 305.173 270.609 303.218C270.171 301.263 270.171 300.226 270.171 299.402C270.171 298.564 269.639 295.878 269.639 294.655C269.639 293.431 267.046 292.886 267.046 292.886V291.516C267.046 291.516 267.923 290.439 268.07 289.123C268.216 287.807 267.87 284.615 267.87 281.876C267.87 279.137 265.955 275.374 265.477 273.751C264.985 272.143 263.961 269.35 263.961 268.127C263.961 266.903 264.2 254.723 264.2 254.178C264.2 253.646 264.732 249.83 264.732 248.793C264.732 247.769 263.309 247.224 263.309 245.655C263.309 244.086 265.065 242.477 265.065 241.306C265.065 240.136 263.456 237.291 263.456 236.905C263.456 236.52 264.041 236.413 264.293 235.629C264.546 234.844 264.546 233.581 264.546 233.581C264.546 233.581 269.24 234.512 270.41 234.605C271.58 234.698 276.527 236.36 276.766 236.413C277.019 236.466 277.604 236.559 278.082 236.413C278.574 236.267 280.822 235.137 281.513 233.421C282.205 231.706 280.675 229.991 280.675 229.552C280.675 229.113 280.928 226.613 280.928 225.337C280.928 224.06 279.027 220.204 279.027 220.204C279.027 220.204 279.226 218.435 279.226 217.81C279.226 217.185 278.441 216.64 278.441 216.64L277.564 212.039C277.564 212.039 278.149 211.986 278.734 211.893C279.319 211.8 279.904 210.962 280.503 210.085C281.088 209.207 281.872 208.13 281.726 206.8C281.58 205.484 279.678 203.862 277.271 201.561C274.878 199.261 271.062 197.492 271.062 197.492L271.008 194.461L274.186 192.453C274.186 192.453 274.479 192.892 274.825 193.091C275.17 193.291 275.503 192.705 276.141 192.107C276.779 191.522 276.58 191.229 276.58 190.498C276.58 189.767 276.58 190.113 276.726 189.514C276.872 188.929 276.726 187.905 276.726 186.536C276.726 185.166 277.271 185.219 277.271 184.767C277.271 184.328 278.548 183.597 278.734 182.959C278.933 182.32 278.495 181.536 278.495 181.35C278.495 181.15 277.71 180.658 277.71 180.658C277.71 180.658 278.388 177.134 278.535 175.818C278.681 174.502 278.774 173.371 278.973 172.201C279.173 171.031 280.981 169.755 281.859 169.17C282.736 168.584 285.183 164.369 285.622 163.053C286.061 161.736 285.914 160.752 285.728 159.875C285.529 158.997 286.114 155.274 285.728 153.067C285.343 150.859 284.212 147.974 283.282 145.833C282.351 143.679 279.173 142.602 278.242 142.07C277.311 141.525 276.088 140.554 274.865 139.53C273.641 138.506 270.689 138.865 270.689 138.865C270.689 138.865 268.163 132.789 265.929 129.81C265.876 129.637 265.809 129.464 265.743 129.291C265.663 129.119 265.49 129.039 265.277 129.025C265.051 128.786 264.839 128.587 264.612 128.4L273.043 117.523C273.987 116.619 274.958 115.675 275.955 114.704C276.5 114.891 277.019 115.01 277.325 114.931C278.189 114.691 279.319 111.779 279.479 111.473C279.532 111.393 279.625 111.221 279.745 111.021C280.449 110.343 281.167 109.652 281.872 108.96C281.965 109.319 282.497 111.34 283.069 111.3C283.681 111.26 285.835 106.194 285.848 105.596C285.848 105.543 285.795 105.423 285.702 105.263C296.605 94.7056 307.31 84.3338 308.028 83.5493C308.972 82.5254 308.879 81.5148 308.732 80.9297C308.626 80.5175 307.482 76.3289 306.831 73.9354C316.259 61.7818 325.168 50.2931 325.686 49.6017C326.79 48.1257 326.537 46.9688 326.231 46.3173ZM216.357 111.646C216.37 111.646 216.37 111.646 216.357 111.646C216.397 111.673 216.424 111.699 216.45 111.713C216.663 111.832 216.969 111.792 217.275 111.713C217.74 111.832 218.205 111.939 218.697 112.032C219.056 113.295 219.628 115.383 219.775 116.446C219.881 117.244 220.08 119.332 220.267 121.207C218.099 118.84 216.783 115.649 216.357 111.646ZM194.045 241.732C193.845 242.317 194.045 246.333 194.045 247.303C194.045 248.287 193.898 250.096 193.366 251.957C192.821 253.819 191.119 262.289 190.375 265.906C189.643 269.523 187.542 282.94 187.542 282.94L187.197 280.932C187.197 280.932 187.396 279.762 187.25 279.27C187.103 278.778 185.787 278.578 185.787 278.578L184.324 275.028L184.856 273.831L184.165 272.023L182.449 271.637L173.594 249.178C173.594 249.178 174.524 248.394 174.963 248.048C175.402 247.702 175.601 246.878 175.601 246.878C175.601 246.878 175.894 246.825 176.333 246.532C176.772 246.24 179.218 243.54 179.803 242.862C180.388 242.184 180.973 240.908 180.973 240.908C180.973 240.908 182.396 242.33 182.888 242.716C183.38 243.102 185.681 244.578 186.705 243.846C187.728 243.115 193.752 236.599 193.752 236.599C193.752 236.599 193.699 239.884 193.699 240.176C193.699 240.455 194.244 241.147 194.045 241.732ZM241.808 117.523C241.688 116.752 241.582 115.901 241.569 115.236C241.515 113.627 242.061 110.835 242.061 110.835C242.061 110.835 243.483 110.835 244.015 110.835C244.361 110.835 244.507 110.423 244.6 110.037C244.281 113.441 243.151 116.087 241.928 118.002C241.874 117.843 241.848 117.683 241.808 117.523Z" fill="#537B8D"/>
<path d="M241.555 193.743C241.635 194.993 241.263 199.806 242.366 201.322C243.47 202.838 245.451 205.045 247.353 205.045C249.268 205.045 250.797 205.71 252.419 206.149C254.028 206.588 254.693 207.399 256.009 207.399C257.326 207.399 261.301 206.375 264.081 207.399C266.873 208.423 271.633 210.989 273.402 210.856C275.17 210.71 275.596 211.242 276.779 210.856C277.949 210.484 278.388 208.795 277.949 207.625C277.511 206.455 273.322 201.681 270.397 200.365C267.458 199.048 263.722 197.719 261.368 196.695C259.014 195.671 253.443 193.902 251.674 193.756C249.919 193.597 241.555 193.743 241.555 193.743Z" fill="white"/>
<path d="M250.73 215.696V218.848L254.985 219.433V216.281L250.73 215.696Z" fill="white"/>
<path d="M250.73 220.762V224.286C250.73 224.286 251.315 225.097 252.046 225.097C252.778 225.097 254.613 225.616 254.613 225.097C254.613 224.579 254.613 221.507 254.613 221.507C254.613 221.507 251.687 220.762 250.73 220.762Z" fill="white"/>
<path d="M273.92 220.177C273.92 220.177 274.359 223.183 274.731 223.183C275.104 223.183 277.231 223.914 277.524 223.555C277.816 223.183 277.125 220.55 276.952 220.47C276.792 220.39 273.92 220.177 273.92 220.177Z" fill="white"/>
<path d="M273.92 224.725C273.92 224.725 273.189 228.541 273.335 228.9C273.481 229.273 277.045 231.467 276.952 230.815C276.859 230.15 276.952 225.084 276.952 225.084L273.92 224.725Z" fill="white"/>
<path d="M250.358 207.838V212.159C250.358 212.159 252.485 212.08 252.858 212.159C253.23 212.239 253.961 212.159 253.961 212.159V209.301C253.961 209.314 251.754 208.064 250.358 207.838Z" fill="white"/>
<path d="M272.976 213.928C272.976 213.928 272.87 216.574 273.322 216.574C273.787 216.574 276.061 217.385 276.061 217.385C276.061 217.385 275.396 213.13 275.144 213.13C274.891 213.13 272.95 212.319 272.963 213.13C272.976 213.928 272.976 213.928 272.976 213.928Z" fill="white"/>
<path d="M272.67 142.296C273.189 142.522 279.864 145.527 280.157 146.192C280.449 146.857 279.346 159.556 279.346 159.556C279.346 159.556 277.484 155.221 276.433 152.734C275.396 150.221 272.67 142.296 272.67 142.296Z" fill="white"/>
<path d="M276.793 170.632C276.793 170.632 275.184 186.562 274.811 187.214C274.439 187.879 267.471 185.459 266.221 184.86C264.971 184.275 264.027 184.195 264.027 183.398C264.027 182.586 264.466 181.629 264.466 180.313C264.466 178.996 266.009 173.345 266.009 173.345C266.009 173.345 270.556 173.93 272.099 173.052C273.628 172.175 276.793 170.632 276.793 170.632Z" fill="white"/>
<path d="M255.996 141.658C255.344 140.793 258.243 142.389 259.174 142.389C260.105 142.389 263.243 143.027 264.213 143.666C265.197 144.304 268.668 146.644 270.41 148.998C272.152 151.351 274.691 154.583 274.691 154.583C274.691 154.583 268.043 151.059 265.543 151.059C263.043 151.059 267.152 150.766 267.152 150.766C267.152 150.766 263.043 148.905 261.581 149.543C260.105 150.181 258.349 149.304 258.349 149.304L259.626 148.133C259.626 148.133 255.956 147.841 255.716 147.548C255.477 147.256 255.477 147.017 256.408 147.017C257.339 147.017 263.309 147.801 265.556 148.679C267.804 149.556 270.011 150.926 270.011 150.926C270.011 150.926 265.211 146.086 261.833 144.756C258.442 143.426 256.288 142.057 255.996 141.658Z" fill="white"/>
<path d="M259.054 136.113C259.2 137.536 259.573 138.826 258.934 138.879C258.296 138.932 256.98 140.302 258.004 140.302C259.027 140.302 263.096 140.568 264.852 141.405C266.607 142.256 270.33 145.82 271.367 147.682C272.391 149.543 274.253 152.043 274.253 152.043C274.253 152.043 270.822 143.081 269.067 139.411C267.312 135.741 266.687 133.427 265.131 131.672C264.745 131.246 258.908 134.69 259.054 136.113Z" fill="white"/>
<path d="M244.786 152.482C243.816 152.295 248.363 152.482 248.988 152.482C249.626 152.482 250.065 152.482 250.65 152.482C251.235 152.482 253.536 151.803 254.267 151.803C254.998 151.803 256.275 152.149 256.714 152.482C257.153 152.827 266.008 160.699 266.354 160.952C266.7 161.191 270.024 163.638 270.024 164.223C270.024 164.808 269.639 165.101 268.655 165.101C267.684 165.101 262.392 163.186 262.046 163.186C261.7 163.186 261.846 165.539 261.846 165.539L261.009 167.933C261.009 167.933 268.003 168.518 271.633 168.279C275.25 168.039 277.657 167.986 278.096 167.547C278.534 167.108 279.904 167.813 278.973 168.345C278.042 168.877 273.535 169.848 267.724 169.901C261.9 169.954 255.437 169.701 254.267 169.901C253.097 170.1 251.435 169.808 251.435 168.717C251.435 167.64 251.049 163.093 250.265 160.593C249.48 158.093 248.602 156.338 247.725 155.314C246.834 154.29 245.278 152.575 244.786 152.482Z" fill="white"/>
<path d="M257.605 152.229C257.605 152.229 260.397 154.29 260.876 154.676C261.368 155.061 266.993 160.261 267.83 160.872C268.655 161.484 272.032 163.239 272.923 163.385C273.801 163.532 275.17 164.901 275.277 163.385C275.37 161.869 273.468 156.391 272.192 155.553C270.915 154.729 263.19 151.192 262.458 151.192C261.727 151.192 260.012 151.431 260.012 151.431C260.012 151.431 263.921 152.362 266.075 153.971C268.229 155.58 272.431 161.803 272.431 161.803C272.431 161.803 267.152 155.926 265.929 155.101C264.705 154.277 260.743 151.923 259.759 151.777C258.775 151.644 257.605 152.229 257.605 152.229Z" fill="white"/>
<path d="M254.985 241.187C255.344 244.604 255.982 248.035 256.581 251.758C257.166 255.481 257.95 262.715 259.12 262.516C260.291 262.316 260.463 258.699 260.424 255.867C260.397 253.021 260.463 246.865 260.424 245.389C260.397 243.926 254.865 240.03 254.985 241.187Z" fill="white"/>
<path d="M259.267 291.49C257.006 289.11 251.887 284.735 251.688 282.98C251.488 281.211 245.331 272.901 244.64 269.576C243.949 266.252 240.93 255.973 242.286 255.003C243.656 254.019 249.533 263.034 250.118 265.374C250.704 267.728 255.105 272.129 254.919 274.576C254.719 277.023 253.842 278.499 255.504 278.499C257.166 278.499 258.336 278.791 259.267 280.547C260.198 282.315 264.705 286.517 264.705 288.671C264.705 290.825 266.075 290.918 264.12 291.517C262.152 292.075 260.091 292.368 259.267 291.49Z" fill="white"/>
<path d="M258.589 313.364C260.703 313.178 266.314 313.018 267.059 313.364C267.79 313.71 267.79 321.635 267.79 321.635C267.79 321.635 264.173 319.68 262.511 319.481C260.849 319.281 260.41 318.204 260.211 316.834C259.998 315.465 257.458 313.457 258.589 313.364Z" fill="white"/>
<path d="M268.176 312.234C267.391 312.034 258.243 311.542 256.381 312.234C254.52 312.912 254.573 311.156 254.905 310.718C255.251 310.279 254.919 309.587 258.296 309.109C261.66 308.617 267.391 308.723 267.777 308.909C268.176 309.109 268.176 312.234 268.176 312.234Z" fill="white"/>
<path d="M268.668 307.3C268.03 307.3 257.857 307.247 255.703 307.978C253.549 308.71 254.865 306.024 256.248 306.024C257.618 306.024 261.594 304.255 261.461 303.63C261.328 302.992 259.958 298.936 258.841 298.684C257.711 298.444 254.732 296.29 252.525 296.29C250.318 296.29 249.094 295.944 248.563 295.944C248.017 295.944 247.778 295.213 249.148 294.921C250.517 294.628 253.722 294.136 254.732 294.136C255.756 294.136 258.735 294.189 260.251 294.136C261.767 294.083 263.043 294.229 264.453 294.136C265.875 294.043 266.407 293.937 266.953 294.774C267.484 295.612 267.83 296.689 267.777 297.514C267.724 298.351 267.684 299.92 267.976 301.09C268.269 302.261 269 304.508 269 305.385C269 306.263 269.599 307.3 268.668 307.3Z" fill="white"/>
<path d="M170.695 236.799C170.163 237.384 169.551 238.115 169.551 238.714C169.551 239.312 169.684 240.455 169.391 241.24C169.086 242.011 168.447 243.421 168.447 243.926C168.447 244.431 168.048 245.801 168.048 246.014C168.048 246.213 167.676 247.024 168.487 247.49C169.298 247.955 170.841 247.53 171.173 246.918C171.506 246.319 172.21 244.538 172.25 244.059C172.277 243.594 172.716 242.982 172.782 242.41C172.849 241.838 173.926 240.828 173.926 240.455C173.926 240.083 174.564 239.312 174.564 238.581C174.564 237.836 176.106 235.349 176.253 234.445C176.386 233.541 175.269 232.969 174.564 233.169C173.846 233.381 170.947 236.519 170.695 236.799Z" fill="white"/>
<path d="M200.148 230.031C200.174 229.246 200.427 223.874 200.148 221.029C199.868 218.183 201.969 212.585 201.969 211.295C201.969 210.005 204.03 204.062 204.855 203.769C205.679 203.477 208.605 201.828 210.067 201.602C211.53 201.389 211.038 203.011 210.945 203.583C210.852 204.155 210.559 206.468 210.559 208.343C210.559 210.218 210.107 220.284 209.828 221.029C209.549 221.773 208.551 223.568 207.541 224.007C206.53 224.433 203.884 224.845 202.967 226.72C202.062 228.595 200.094 231.813 200.148 230.031Z" fill="white"/>
<path d="M201.969 235.017C201.358 236.426 198.06 245.681 197.568 248.327C197.076 250.974 194.829 260.654 194.829 261.053C194.829 261.438 194.629 264.962 195.414 263.101C196.198 261.239 198.419 258.207 198.392 255.761C198.353 253.314 200.799 246.466 201.969 242.743C203.14 239.019 206.278 234.232 206.278 233.74C206.278 233.262 202.275 234.326 201.969 235.017Z" fill="white"/>
<path d="M196.691 221.613C195.906 222.85 192.183 229.339 192.967 229.339C193.752 229.339 195.414 229.046 196.199 227.677C196.983 226.307 197.488 220.35 196.691 221.613Z" fill="white"/>
<path d="M242.885 153.213C241.023 153.107 238.284 152.827 237.792 152.827C237.3 152.827 232.407 150.899 230.838 150.926C229.268 150.966 227.699 150.687 227.407 150.926C227.128 151.152 223.79 152.814 223.79 152.814C223.79 152.814 219.987 153.452 219.801 155.646C219.601 157.854 221.596 157.481 221.596 158C221.596 158.519 220.865 159.609 220.865 159.981C220.865 160.354 222.7 161.085 222.846 161.59C222.992 162.109 222.407 164.449 222.912 164.888C223.431 165.327 223.936 165.619 224.455 166.058C224.973 166.497 225.705 167.747 226.503 167.747C227.314 167.747 229.508 167.601 232.008 166.058C234.508 164.516 245.291 159.33 245.518 157.628C245.744 155.952 245.172 153.333 242.885 153.213Z" fill="white"/>
<path d="M230.598 117.657C230.346 117.63 231.582 117.244 232.633 117.191C233.683 117.138 234.933 117.338 236.276 116.806C237.619 116.274 238.962 115.343 239.375 114.598C239.787 113.867 240.226 113.495 240.226 113.495C240.226 113.495 239.813 114.784 239.933 115.702C240.053 116.606 240.252 119.332 240.252 119.332C240.252 119.332 238.457 119.079 236.064 119.518C233.67 119.957 232.659 120.715 232.021 119.984C231.41 119.252 230.824 117.683 230.598 117.657Z" fill="white"/>
<path d="M223.458 124.531C224.309 124.85 225.638 125.781 226.543 126.606C227.447 127.43 228.138 128.733 230.452 127.922C232.779 127.111 235.292 126.06 238.138 125.675C240.97 125.289 242.34 125.17 243.058 125.236C243.776 125.302 244.919 125.342 244.919 125.342C244.919 125.342 242.739 121.991 241.741 121.353C241.289 121.061 240.132 120.529 238.484 120.595C236.848 120.675 234.986 121.034 233.643 121.406C232.287 121.792 223.458 124.531 223.458 124.531Z" fill="white"/>
<path d="M238.324 112.577C236.781 112.138 233.723 110.742 232.619 110.649C231.516 110.556 230.146 109.332 230.226 108.468C230.306 107.617 230.133 106.779 230.558 106.779C230.984 106.779 233.497 107.099 233.936 107.338C234.374 107.577 234.574 107.258 234.574 106.912C234.574 106.553 233.617 105.357 232.672 105.17C231.715 104.971 230.199 104.944 229.667 105.024C229.135 105.091 227.739 105.264 227.393 105.41C227.048 105.556 226.569 105.503 227.101 104.984C227.646 104.466 228.324 103.947 229.135 103.947C229.947 103.947 229.8 104 230.385 103.947C230.97 103.894 231.409 103.774 231.755 103.827C232.101 103.881 233.683 104.413 234.255 105.117C234.813 105.822 235.159 105.928 235.159 105.928C235.159 105.928 235.093 105.038 234.773 104.732C234.454 104.413 233.138 103.482 232.845 103.335C232.553 103.189 231.396 102.75 231.396 102.338C231.396 101.926 231.09 100.437 231.236 100.384C231.383 100.33 231.821 100.796 232.26 100.796C232.699 100.796 233.51 100.782 233.51 100.37C233.51 99.958 233.191 98.4421 233.191 98.4421C233.191 98.4421 234.175 98.6416 235.412 99.4394C236.662 100.251 240.797 103.056 241.063 104.04C241.329 105.024 241.382 106.168 241.355 107.019C241.329 107.87 241.116 110.077 240.598 110.835C240.092 111.593 238.975 112.763 238.324 112.577Z" fill="white"/>
<path d="M190.84 299.96C192.529 299.442 197.076 299.229 199.204 299.229C201.331 299.229 208.153 300.253 208.605 300.771C209.044 301.29 209.921 302.021 210.001 302.54C210.068 303.059 209.855 305.917 210.001 307.021C210.147 308.125 210.028 311.21 210.014 311.569C210.001 311.941 210.294 313.922 209.19 313.922C208.086 313.922 199.137 312.885 195.467 313.178C191.797 313.484 191.651 311.489 192.529 311.196C193.406 310.904 198.698 308.923 199.284 307.606C199.869 306.29 203.18 303.351 200.454 303.059C197.741 302.739 190.84 299.96 190.84 299.96Z" fill="white"/>
<path d="M208.459 315.731C208.459 316.688 208.898 320.278 208.898 320.278C208.898 320.278 199.935 319.028 197.888 319.028C195.826 319.028 197.302 316.528 198.473 316.528C199.643 316.528 200.746 315.863 202.355 315.717C203.978 315.584 208.459 315.731 208.459 315.731Z" fill="white"/>
<path d="M320.939 40.6531L284.571 87.1L285.263 88.2036L321.325 41.4642L320.939 40.6531Z" fill="white"/>
<path d="M273.389 101.527L236.835 148.213L239.082 149.064L274.24 102.857L273.389 101.527Z" fill="white"/>
<path d="M198.898 193.211C196.877 191.802 196.651 186.868 198.818 182.121C199.23 181.204 198.326 181.483 197.382 182.56C196.637 183.411 195.946 184.262 195.308 185.113C190.348 191.735 189.936 198.011 191.824 199.434C192.209 199.713 192.715 199.86 193.353 199.86C195.627 199.86 199.47 197.985 203.086 193.916C203.419 193.544 203.326 193.012 202.967 193.131C202.023 193.424 201.172 193.57 200.467 193.57C199.815 193.57 199.27 193.464 198.898 193.211Z" fill="white"/>
<path d="M216.45 177.268C215.2 179.023 211.012 184.235 211.012 190.113C211.012 195.99 217.474 201.708 218.87 201.708C220.267 201.708 220.12 200.551 220.12 200.325C220.12 200.099 218.072 195.325 218.072 190.405C218.072 185.485 218.072 179.767 218.072 179.767C218.072 179.767 217.993 175.1 216.45 177.268Z" fill="white"/>
<path d="M213.059 94.5061C214.589 86.7539 219.974 80.3447 227.168 79.4538C227.753 79.3873 228.351 79.3474 228.936 79.3474C237.606 79.3474 245.066 87.0332 246.289 97.2321C246.289 97.2321 246.236 97.1257 246.289 97.2321C247.725 99.1734 246.635 98.8011 245.637 97.5645C235.665 85.1716 222.048 89.5995 215.892 95.9954C214.841 97.0991 212.554 97.0725 213.059 94.5061Z" fill="white"/>
<path d="M165.11 265.494C149.539 239.113 140.696 204.101 140.696 167.96C140.696 130.196 150.323 93.642 167.224 66.9147H292.776C293.002 67.2737 293.201 67.6461 293.427 67.9918L298.228 61.8751C297.736 61.1172 297.257 60.3193 296.752 59.5747H163.248C144.845 86.8604 133.37 125.329 133.37 167.96C133.37 210.59 144.845 249.046 163.248 276.345H167.783L166.4 269.204C166.027 268.419 165.336 266.85 165.11 265.494Z" fill="#92B6C7"/>
<path d="M224.362 269.005C222.673 271.917 220.825 275.148 220.546 275.853C220.492 275.986 220.426 276.158 220.346 276.331H235.97C235.545 274.191 235.079 271.744 234.561 269.005H224.362Z" fill="#92B6C7"/>
<path d="M304.583 90.0119C314.064 113.056 319.29 140.169 319.29 167.946C319.29 206.282 309.902 241.985 292.776 268.991H266.274C266.5 269.869 266.886 271.092 267.112 271.797C267.272 272.289 267.418 272.741 267.538 273.127C267.657 273.526 267.883 274.057 268.123 274.682C268.322 275.188 268.548 275.733 268.761 276.318H296.738C315.155 249.019 326.63 210.564 326.63 167.933C326.63 136.964 320.553 108.216 310.182 84.334C310.022 84.5733 309.849 84.8127 309.636 85.0387C309.49 85.2116 309.184 85.544 304.583 90.0119Z" fill="#92B6C7"/>
</svg>
