<svg width="834" height="200" fill="none" xmlns="http://www.w3.org/2000/svg"><path d="M128.5 165C197.812 165 254 99.5 254 99.5S197.812 34 128.5 34" stroke="#fff" stroke-width="4"/><path d="M128.5 165c36.175 0 65.5-29.325 65.5-65.5S164.675 34 128.5 34" stroke="#fff" stroke-width="4"/><path d="M128.5 134c19.054 0 34.5-15.446 34.5-34.5 0-19.054-15.446-34.5-34.5-34.5" stroke="#fff" stroke-width="4"/><path d="M128.5 165C59.188 165 3 99.5 3 99.5S59.188 34 128.5 34" stroke="#fff" stroke-width="4" stroke-dasharray="4 8"/><path d="M128.5 165C92.325 165 63 135.675 63 99.5S92.325 34 128.5 34" stroke="#fff" stroke-width="4" stroke-dasharray="4 8"/><path d="M128.5 134C109.446 134 94 118.554 94 99.5 94 80.446 109.446 65 128.5 65" stroke="#fff" stroke-width="4" stroke-dasharray="4 8"/><path stroke="#FA3535" stroke-width="4" d="M128 1v198"/><path d="M429 99.83c0-23.508-14.75-43.573-35.5-51.442M460 99.83c0-31.835-17.299-59.63-43.009-74.5M492 99.83c0-40.72-20.626-76.622-52-97.83" stroke="#fff" stroke-width="4"/><path d="M429 99.83c0 23.51-14.75 43.574-35.5 51.444M460 99.83c0 31.836-17.299 59.632-43.009 74.501M492 99.83c0 40.721-20.626 76.623-52 97.831" stroke="#fff" stroke-width="4" stroke-dasharray="4 8"/><path stroke="#FA3535" stroke-width="4" d="M549 103H351"/><path d="M834 13h-87v87" stroke="#fff" stroke-width="4" stroke-dasharray="4 8"/><path d="M747 100h-87v87" stroke="#fff" stroke-width="4"/><path stroke="#FA3535" stroke-width="4" d="M809.593 161.418L669.586 21.411"/></svg>