<svg xmlns="http://www.w3.org/2000/svg" width="200" height="120" viewBox="0 0 200 120" xmlns:xlink="http://www.w3.org/1999/xlink">
  <defs>
    <rect id="a" width="93" height="8" x="54" y="56" rx="4"/>
    <mask id="d" width="93" height="8" x="0" y="0" fill="white">
      <use xlink:href="#a"/>
    </mask>
    <circle id="b" cx="20" cy="20" r="20"/>
    <mask id="e" width="44" height="44" x="-2" y="-2">
      <rect width="44" height="44" x="-2" y="-2" fill="white"/>
      <use fill="black" xlink:href="#b"/>
    </mask>
    <rect id="c" width="12" height="16" x="14" y="5" rx="6"/>
    <mask id="g" width="12" height="16" x="0" y="0" fill="white">
      <use xlink:href="#c"/>
    </mask>
  </defs>
  <g fill="none" fill-rule="evenodd">
    <polygon fill="#DFF8FC" stroke="#00CBED" stroke-width="2" points="100 28 127.713 44 127.713 76 100 92 72.287 76 72.287 44"/>
    <path fill="#FFFFFF" stroke="#00CBED" stroke-width="2" d="M103,53 L64.2570642,53 C57.2593676,53 43.6419345,39 30.937629,39 C18.2333234,39 13,54.5576332 13,54.5576332 L14.1437881,58.1042251 L28.0689148,53.3166377 L30.4532446,54.9521838 L31.4043538,58.0811941 L29.4107362,60.7694983 L16.2115697,65.3489026 L17.1162469,67.9331152 C17.1162469,67.9331152 19.2793375,72.8029785 35.965332,72.8029785 C37.0798201,76.1684038 38.6791515,81 38.6791515,81 C38.6791515,81 53.1944757,67 64.7126554,67 L135.742936,67 C142.740632,67 156.358066,81 169.062371,81 C181.766677,81 187,65.4423668 187,65.4423668 L185.856212,61.8957749 L171.931085,66.6833623 L169.546755,65.0478162 L164.583195,49.0093821 L166.576813,46.3210779 L179.775979,41.7416736 L178.871302,39.157461 C178.871302,39.157461 176.572225,34.2470703 159.88623,34.2470703 C160.236084,35.4650879 161.320849,39 161.320849,39 C161.320849,39 146.805524,53 135.287345,53 C123.769165,53 103,53 103,53 Z"/>
    <path stroke="#00CBED" d="M31.3095238,39.3189655 L43.5,76.5" stroke-linecap="square"/>
    <path stroke="#00CBED" stroke-width="2" d="M31.7885742,59.333252 L35.8552246,72.3806152" stroke-linecap="square"/>
    <g transform="translate(35 56)">
      <rect width="12" height="11" x="2" y="2" fill="#FFFFFF" stroke="#00CBED" transform="rotate(-17 8 7.5)" rx="2"/>
      <rect width="8" height="1" x="4" y="7" fill="#00CBED" transform="rotate(-32 8 7.5)"/>
      <rect width="5" height="1" x="7.682" y="8.83" fill="#00CBED" transform="rotate(-32 10.182 9.33)"/>
      <rect width="5" height="1" x="3.351" y="4.926" fill="#00CBED" transform="rotate(-32 5.85 5.426)"/>
    </g>
    <path stroke="#00CBED" d="M156.309524,43.3189655 L168.5,80.5" stroke-linecap="square" transform="rotate(180 162.5 62)"/>
    <path stroke="#00CBED" stroke-width="2" d="M161.710205,40.1645508 L168,60" stroke-linecap="square" transform="rotate(180 164.855 50.082)"/>
    <g transform="translate(149 49)">
      <rect width="12" height="11" x="2" y="2" fill="#FFFFFF" stroke="#00CBED" transform="rotate(163 8 7.5)" rx="2"/>
      <rect width="8" height="1" x="4" y="7" fill="#00CBED" transform="rotate(148 8 7.5)"/>
      <rect width="5" height="1" x="3.318" y="5.17" fill="#00CBED" transform="rotate(148 5.818 5.67)"/>
      <rect width="5" height="1" x="7.649" y="9.074" fill="#00CBED" transform="rotate(148 10.15 9.574)"/>
    </g>
    <use fill="#DFF8FC" stroke="#00CBED" stroke-width="2" mask="url(#d)" xlink:href="#a"/>
    <g transform="translate(153 30)">
      <path fill="#DFF8FC" stroke="#00CBED" d="M2.07584966,2.2263105 C1.79813166,1.31793586 2.30598385,0.357456076 3.22437138,0.0766768324 L3.22437138,0.0766768324 C4.1364004,-0.202158423 5.0991552,0.302539467 5.37859892,1.21655872 L9.25933082,13.9098608 L5.95658156,14.9196126 L2.07584966,2.2263105 L2.07584966,2.2263105 Z"/>
      <polygon fill="#00CBED" points="0 3.585 1.913 3 2.497 4.913 .585 5.497"/>
      <polygon fill="#00CBED" points="1 6.585 2.913 6 3.497 7.913 1.585 8.497"/>
    </g>
    <g transform="translate(80 40)">
      <mask id="f" fill="white">
        <use xlink:href="#b"/>
      </mask>
      <use fill="#FFFFFF" xlink:href="#b"/>
      <use stroke="#00CBED" stroke-width="4" mask="url(#e)" xlink:href="#b"/>
      <path fill="#DFF8FC" stroke="#00CBED" d="M5,42.5473633 L5,35.0045076 C5,29.4791706 9.47509512,25 14.9999892,25 L25.0000108,25 C30.5228523,25 35,29.47556 35,35.0045076 L35.1166992,43.6708984" mask="url(#f)"/>
      <g fill="#DFF8FC" stroke="#00CBED" stroke-width="2" mask="url(#f)">
        <use mask="url(#g)" xlink:href="#c"/>
      </g>
    </g>
  </g>
</svg>
