<svg xmlns="http://www.w3.org/2000/svg" width="200" height="120" viewBox="0 0 200 120" xmlns:xlink="http://www.w3.org/1999/xlink">
  <defs>
    <rect id="a" width="89" height="70" rx="3"/>
    <mask id="n" width="89" height="70" x="0" y="0" fill="white">
      <use xlink:href="#a"/>
    </mask>
    <rect id="b" width="89" height="70" rx="3"/>
    <mask id="o" width="89" height="70" x="0" y="0" fill="white">
      <use xlink:href="#b"/>
    </mask>
    <rect id="c" width="35" height="15"/>
    <mask id="p" width="35" height="15" x="0" y="0" fill="white">
      <use xlink:href="#c"/>
    </mask>
    <rect id="d" width="35" height="5"/>
    <mask id="q" width="35" height="5" x="0" y="0" fill="white">
      <use xlink:href="#d"/>
    </mask>
    <rect id="e" width="35" height="15"/>
    <mask id="r" width="35" height="15" x="0" y="0" fill="white">
      <use xlink:href="#e"/>
    </mask>
    <rect id="f" width="35" height="5"/>
    <mask id="s" width="35" height="5" x="0" y="0" fill="white">
      <use xlink:href="#f"/>
    </mask>
    <rect id="g" width="35" height="15"/>
    <mask id="t" width="35" height="15" x="0" y="0" fill="white">
      <use xlink:href="#g"/>
    </mask>
    <rect id="h" width="35" height="5"/>
    <mask id="u" width="35" height="5" x="0" y="0" fill="white">
      <use xlink:href="#h"/>
    </mask>
    <rect id="i" width="35" height="15"/>
    <mask id="v" width="35" height="15" x="0" y="0" fill="white">
      <use xlink:href="#i"/>
    </mask>
    <rect id="j" width="35" height="5"/>
    <mask id="w" width="35" height="5" x="0" y="0" fill="white">
      <use xlink:href="#j"/>
    </mask>
    <circle id="k" cx="83.5" cy="5.5" r="1.5"/>
    <mask id="x" width="3" height="3" x="0" y="0" fill="white">
      <use xlink:href="#k"/>
    </mask>
    <circle id="l" cx="79.5" cy="5.5" r="1.5"/>
    <mask id="y" width="3" height="3" x="0" y="0" fill="white">
      <use xlink:href="#l"/>
    </mask>
    <circle id="m" cx="75.5" cy="5.5" r="1.5"/>
    <mask id="z" width="3" height="3" x="0" y="0" fill="white">
      <use xlink:href="#m"/>
    </mask>
  </defs>
  <g fill="none" fill-rule="evenodd">
    <g transform="translate(93 25)">
      <use fill="#DFF8FC" stroke="#00CBED" stroke-width="4" mask="url(#n)" xlink:href="#a"/>
      <rect width="9" height="66" x="10" y="2" fill="#00CBED" fill-opacity=".195"/>
      <rect width="1" height="66" x="76" y="2" fill="#00CBED"/>
      <g fill="#00CBED" transform="translate(24 16)">
        <rect width="6" height="1"/>
        <rect width="20" height="1" x="4" y="3"/>
        <rect width="18" height="1" x="4" y="6"/>
        <rect width="22" height="1" x="6" y="9"/>
        <rect width="10" height="1" x="6" y="12"/>
        <rect width="7" height="1" x="4" y="15"/>
        <rect width="6" height="1" y="18"/>
        <rect width="11" height="1" y="21"/>
        <rect width="21" height="1" x="4" y="24"/>
        <rect width="18" height="1" x="4" y="27"/>
        <rect width="22" height="1" x="6" y="30"/>
        <rect width="10" height="1" x="4" y="33"/>
        <rect width="6" height="1" y="36"/>
      </g>
    </g>
    <g transform="translate(18 25)">
      <use fill="#FFFFFF" stroke="#00CBED" stroke-width="4" mask="url(#o)" xlink:href="#b"/>
      <g stroke="#00CBED" stroke-width="2" transform="translate(8 25)">
        <use mask="url(#p)" xlink:href="#c"/>
        <use fill="#DFF8FC" mask="url(#q)" xlink:href="#d"/>
      </g>
      <g stroke="#00CBED" stroke-width="2" transform="translate(8 43)">
        <use mask="url(#r)" xlink:href="#e"/>
        <use fill="#DFF8FC" mask="url(#s)" xlink:href="#f"/>
      </g>
      <g stroke="#00CBED" stroke-width="2" transform="translate(46 25)">
        <use mask="url(#t)" xlink:href="#g"/>
        <use fill="#DFF8FC" mask="url(#u)" xlink:href="#h"/>
      </g>
      <g stroke="#00CBED" stroke-width="2" transform="translate(46 43)">
        <use mask="url(#v)" xlink:href="#i"/>
        <use fill="#DFF8FC" mask="url(#w)" xlink:href="#j"/>
      </g>
      <rect width="28" height="2" x="7" y="15" fill="#00CBED"/>
      <rect width="89" height="10" fill="#00CBED" fill-opacity=".124" rx="3"/>
      <rect width="85.66" height="1" x="1.78" y="9" fill="#00CBED"/>
      <use fill="#FFFFFF" stroke="#00CBED" stroke-width="2" mask="url(#x)" xlink:href="#k"/>
      <use fill="#FFFFFF" stroke="#00CBED" stroke-width="2" mask="url(#y)" xlink:href="#l"/>
      <use fill="#FFFFFF" stroke="#00CBED" stroke-width="2" mask="url(#z)" xlink:href="#m"/>
    </g>
  </g>
</svg>
