<svg width="164" height="165" viewBox="0 0 164 165" fill="none" xmlns="http://www.w3.org/2000/svg">
<path d="M51.5194 41.3263L51.5438 41.3669L53.015 40.546L54.6812 39.6275L54.6569 39.5868L51.3731 33.6858C51.113 33.2306 50.861 32.751 50.4058 32.0195L50.4383 32.0032C52.2184 32.5235 53.2344 32.7754 54.6569 33.1006C56.4938 33.5313 59.1517 34.0922 63.5247 34.9456L63.9636 34.7018L59.298 26.2973L55.9655 20.3068L55.9411 20.2662L54.4862 21.079L52.8036 22.0137L52.828 22.0462L55.9574 27.6709C56.2744 28.2399 56.5832 28.7845 57.1116 29.7111L57.0791 29.7274C55.616 29.2884 54.3724 28.9796 53.1206 28.6788C51.2593 28.2074 48.5526 27.6466 43.9846 26.7525L43.5457 26.9882L47.9918 34.9782L51.5194 41.3263Z" fill="black"/>
<path d="M38.9776 82.0321C38.9776 105.823 58.2576 125.103 82.0406 125.103C105.832 125.103 125.112 105.823 125.112 82.0321C125.112 58.241 105.832 38.9691 82.0406 38.9609C58.2576 38.9691 38.9776 58.241 38.9776 82.0321ZM82.0406 43.8053C92.6154 43.8053 102.158 48.0807 109.083 55.0059C116 61.9311 120.276 71.4655 120.276 82.0321C120.276 92.5987 116 102.141 109.083 109.075C102.158 115.992 92.6154 120.275 82.0406 120.275C71.4822 120.275 61.9316 115.992 55.0145 109.075C48.0893 102.149 43.8139 92.6069 43.8139 82.0321C43.8139 71.4655 48.0893 61.923 55.0145 55.0059C61.9316 48.0807 71.4822 43.8053 82.0406 43.8053Z" fill="black"/>
<path d="M37.5958 41.9359L39.0589 43.4396L44.1227 48.6579L44.1471 48.6823L47.6178 45.3172L50.4708 42.5536L48.1949 40.2127L48.1624 40.2452L47.0245 41.3507L44.6511 43.6509L44.3666 43.3502L42.3101 41.2369L44.0821 39.5137L45.3257 38.3107L45.3582 38.2782L44.1959 37.0834L43.0986 35.9536L43.0661 35.9779L41.7899 37.2215L40.0586 38.9122L37.8234 36.6119L39.4328 35.0513L41.2454 33.2956L41.2779 33.2713L39.0264 30.9385L36.0677 33.8158L32.7921 36.9777L32.8246 37.0183L37.5958 41.9359Z" fill="black"/>
<path d="M30.0285 52.3725L31.7598 53.5429L37.7747 57.6314L37.8153 57.6558L38.7663 56.2577L39.8717 54.6321L39.8392 54.6077L36.2303 52.1449L35.7264 51.7954C36.1328 51.1614 36.5148 50.4949 36.7912 49.7958C37.035 49.1781 37.2057 48.536 37.2789 47.9264C37.3764 46.9997 37.2138 46.0081 36.7424 45.0652C36.336 44.2849 35.702 43.5128 34.7835 42.895C32.8653 41.5864 30.9795 41.7489 29.4921 42.4805C28.5736 42.9438 27.7852 43.6672 27.1837 44.35C26.6879 44.9433 26.1758 45.6423 25.8181 46.1788C25.2898 46.9591 24.6396 48.0239 24.3795 48.5116L24.412 48.536L30.0285 52.3725ZM29.4108 46.7722C29.744 46.2845 30.1423 45.9512 30.5975 45.7561C31.2559 45.496 32.0199 45.5611 32.6702 46.0081L32.6946 46.0162C33.0766 46.2763 33.3367 46.5608 33.5318 46.8941C33.735 47.2273 33.8081 47.6094 33.8081 47.9426C33.8 48.3897 33.6456 48.9099 33.3611 49.3976C33.2798 49.552 33.0603 49.8852 33.0034 49.9747L29.0613 47.2924C29.1995 47.0892 29.3133 46.9103 29.4108 46.7722Z" fill="black"/>
<path d="M124.096 53.7054L124.055 53.7217L124.787 55.2498L125.608 56.973L125.64 56.9567L131.728 54.0306C132.2 53.8111 132.695 53.5673 133.443 53.1527L133.459 53.2015C132.825 54.9409 132.525 55.9488 132.11 57.3469C131.574 59.1594 130.858 61.7767 129.745 66.0928L129.956 66.548L138.629 62.3863L144.806 59.4195L144.847 59.4033L144.124 57.8996L143.286 56.1601L143.246 56.1845L137.442 58.9644C136.857 59.257 136.296 59.5252 135.345 60.0048L135.321 59.9641C135.841 58.5336 136.223 57.3062 136.605 56.0789C137.182 54.2419 137.906 51.584 139.076 47.0729L138.865 46.6177L130.623 50.5761L124.096 53.7054Z" fill="black"/>
<path d="M104.239 36.6363L105.409 33.5964L105.369 33.572L103.889 33.0112L100.792 31.8326L100.947 31.4343L102.003 28.687L104.304 29.573L105.921 30.1826L105.97 30.207L106.563 28.6382L107.124 27.1751L107.092 27.1589L105.425 26.5168L103.166 25.6552L104.312 22.6721L106.401 23.4687L108.766 24.3791L108.799 24.3872L109.961 21.3716L106.116 19.8923L101.857 18.2585L101.849 18.2992L99.3943 24.7042L98.6384 26.6468L96.0293 33.442L96.013 33.4826L100.532 35.2139L104.239 36.6363Z" fill="black"/>
<path d="M86.5437 31.8488L86.5518 31.8082L87.1858 26.6387L87.2996 25.6227L87.6735 25.6714C88.7464 27.9717 89.4454 30.3776 90.3802 32.3772L94.5987 33.0355C94.5987 33.0355 91.3962 25.5983 91.2743 25.3707L91.2824 25.3057C91.5506 25.2406 92.0383 24.9805 92.4529 24.696C93.1519 24.249 94.1598 23.0704 94.3874 21.2822C94.745 18.2911 92.9812 16.8768 91.64 16.3322C90.7297 15.9745 89.7137 15.7226 88.3806 15.56C87.8117 15.495 86.82 15.3974 86.3649 15.3568C85.8203 15.308 85.235 15.2836 84.8774 15.2836L84.8693 15.3243L84.0483 22.0707L83.7964 24.1433L82.9185 31.3693V31.4099L84.7392 31.6294L86.5437 31.8488ZM88.1205 18.8113C88.3156 18.8194 88.5026 18.8194 88.8602 18.86C90.1038 19.0063 90.7866 19.8435 90.6322 21.1197V21.1359C90.5184 22.03 89.99 22.5746 89.5918 22.7778C89.2097 22.981 88.7139 23.0867 88.1693 23.0216C87.9905 22.9973 87.771 22.9729 87.6247 22.9404L88.1205 18.8113Z" fill="black"/>
<path d="M70.0353 23.2574L70.2873 25.3382L71.1408 32.491V32.5397C71.7097 32.491 72.2137 32.491 72.4413 32.4666C73.124 32.4097 73.5467 32.3772 74.1807 32.304C76.928 31.9789 78.2529 31.4993 79.3014 30.7028C80.3419 29.8981 81.1709 28.435 80.9758 26.8094V26.7931C80.732 24.6961 79.082 23.4199 77.4401 23.2736V23.233C78.9519 22.5909 79.6347 21.0384 79.4559 19.5753C79.1226 16.7711 76.9362 16.1127 75.9201 15.9339C75.0423 15.7876 73.88 15.7795 72.9208 15.8933C72.1487 15.9827 71.2221 16.0965 70.6206 16.2103C70.0841 16.2915 69.572 16.3972 69.2307 16.4785L69.2388 16.5435L70.0353 23.2574ZM77.0256 26.7606V26.785C77.1312 27.6547 76.6679 28.2156 76.1965 28.5001C75.8388 28.7358 75.4081 28.8414 75.0667 28.8821C74.8147 28.9065 74.5221 28.9471 74.3351 28.9471C74.3026 28.9471 74.3026 28.9308 74.3026 28.9146L73.88 25.3626C74.0669 25.3382 74.4408 25.2732 74.579 25.2569C74.8716 25.2244 75.2943 25.2407 75.595 25.2894C76.2453 25.4032 76.9199 25.9153 77.0256 26.7606ZM73.8637 19.0145C74.9204 18.8844 75.6763 19.364 75.8063 20.38V20.4044C75.9039 21.2335 75.4162 21.7781 74.961 21.9975C74.6196 22.1601 74.3758 22.217 74.1238 22.2414C73.9612 22.2576 73.7499 22.282 73.5142 22.2901L73.1322 19.1283C73.3354 19.0958 73.6768 19.0389 73.8637 19.0145Z" fill="black"/>
<path d="M125.218 43.9842L119.593 48.5522L119.544 48.601L120.828 50.1697L121.999 51.6165L122.031 51.584L127.672 46.9834L129.29 45.6748L134.589 41.3425L134.638 41.31L133.411 39.7981L132.183 38.2944L132.118 38.3432L126.835 42.6511L125.218 43.9842Z" fill="black"/>
<path d="M108.457 39.4649C116.187 35.7341 117.171 35.1651 118.097 34.5473L118.114 34.5636C117.813 35.604 117.545 36.7094 116.195 45.179L116.618 45.4879L125.079 39.1885C129.59 35.8153 130.281 35.3114 130.493 35.1326L130.517 35.0919L128.997 33.9702L127.583 32.9055L127.55 32.9461C127.38 33.0761 126.599 33.4988 123.251 36.1323C122.454 36.7582 121.983 37.1484 121.267 37.758L121.218 37.7255C121.446 36.7745 121.698 35.5065 121.82 34.7343C122.202 31.8163 122.373 30.1744 122.495 29.2722L122.064 28.9552C121.202 29.3291 119.577 30.0281 117.228 31.1741C116.22 31.6456 115.171 32.2308 114.35 32.7022L114.293 32.6616C114.627 31.865 114.96 31.0278 115.342 29.9793C116.715 26.2322 116.935 25.3625 117.024 25.1349L117.049 25.1024L115.545 23.997L113.854 22.7452L113.83 22.7778C113.741 22.9972 113.432 23.8425 111.554 29.1828L108.051 39.1316L108.457 39.4649Z" fill="black"/>
<path d="M124.624 124.331L124.323 124.022L123.746 121.519C122.397 115.691 122.202 114.829 122.145 114.634L122.104 114.594L120.893 115.723L119.406 117.113L119.43 117.146C119.438 117.276 119.682 118.268 120.024 119.747C120.292 120.917 120.519 121.966 120.796 122.771L120.763 122.795C119.975 122.478 118.845 122.128 117.74 121.763C116.382 121.332 115.472 121.047 115.293 120.99L115.277 120.966L113.984 122.153L112.407 123.624L112.432 123.648C112.651 123.722 113.537 123.973 119.243 125.713L121.917 126.534L122.121 126.753L125.998 130.882L126.038 130.923L127.347 129.712L128.583 128.566L128.558 128.542L124.624 124.331Z" fill="black"/>
<path d="M110.969 124.412L110.953 124.38L109.628 125.087L108.1 125.9L108.124 125.94L110.863 131.012C111.148 131.533 111.416 132.02 111.887 132.849L111.847 132.866C110.538 132.467 109.416 132.167 108.303 131.874C106.628 131.435 104.206 130.899 100.101 130.045L99.7113 130.257L103.605 137.458L106.718 143.197L106.726 143.229L108.059 142.506L109.579 141.693L109.555 141.66L106.669 136.345C106.45 135.93 106.222 135.499 105.816 134.841L105.848 134.825C107.433 135.304 108.352 135.54 109.636 135.849C111.294 136.263 113.675 136.792 117.593 137.596L117.992 137.385L113.879 129.801L110.969 124.412Z" fill="black"/>
<path d="M87.007 133.792C86.186 133.37 85.235 133.175 84.4222 133.118C83.7232 133.061 82.951 133.085 82.3658 133.093C81.5204 133.118 80.3988 133.215 79.9111 133.288L79.9192 133.329L80.1305 139.401L80.1956 141.27L80.4313 147.927L83.7232 147.862L83.5769 143.766L83.5606 143.229C84.2271 143.18 84.9343 143.107 85.5845 142.937C86.1616 142.782 86.7225 142.579 87.1939 142.294C87.9254 141.88 88.5513 141.238 88.9902 140.392C89.3479 139.685 89.5592 138.824 89.5186 137.832C89.4535 135.751 88.3319 134.475 87.007 133.792ZM86.1616 137.97C86.1698 138.385 86.1129 138.718 85.9747 139.043C85.8365 139.368 85.6008 139.628 85.3569 139.799C85.0399 140.027 84.5685 140.197 84.0646 140.254C83.9101 140.279 83.5525 140.287 83.455 140.295L83.3168 136.028C83.5362 136.003 83.7232 135.995 83.8776 135.987C84.4059 135.971 84.8611 136.084 85.2431 136.32C85.7796 136.653 86.1372 137.247 86.1616 137.954V137.97V137.97Z" fill="black"/>
<path d="M99.4674 138.555L93.9809 131.33L93.5014 131.451L91.8595 140.376C90.7459 146.35 90.5752 147.244 90.5508 147.383L90.559 147.431L94.046 146.862C94.046 146.862 94.1841 145.538 94.3792 144.375L98.7034 143.343C99.378 144.302 100.004 145.237 100.061 145.359L103.783 144.294L103.775 144.245C103.686 144.123 103.149 143.392 99.4674 138.555ZM94.745 141.441L94.7368 141.4C95.0538 139.376 95.1433 138.474 95.1514 137.97H95.1758C95.4196 138.409 95.891 139.181 97.0615 140.848L97.0696 140.888L94.745 141.441Z" fill="black"/>
<path d="M159.673 82.1703C159.6 78.0493 164.338 77.586 163.981 72.9936C163.209 68.3931 158.706 69.1165 157.73 64.9386L157.714 64.8573C156.568 60.7282 161.518 59.2814 159.852 54.9166C158.226 50.5355 153.926 52.2993 151.984 48.4628L151.935 48.3734H151.943C150.334 44.5613 154.308 42.2854 151.91 38.3514C149.545 34.3198 145.351 37.2622 142.839 33.7915L142.782 33.7264C140.141 30.3614 143.547 27.2889 140.45 23.7938C136.987 20.6645 133.833 24.0864 130.509 21.3879C127.25 18.8763 129.972 14.6821 126.022 12.3087C122.015 9.91089 119.755 13.9343 115.846 12.1624L115.756 12.1136C111.936 10.1791 113.716 5.83055 109.335 4.2293C104.97 2.5549 103.523 7.46431 99.3943 6.3345L99.2886 6.31011C95.3221 5.21281 95.9886 0.839854 91.4368 0.0758062C86.7956 -0.371243 86.4786 4.55443 82.2032 4.31871H82.1138C77.8384 4.49753 77.5458 -0.33873 72.8965 0.018909C68.2959 0.774829 68.9787 5.29409 64.8089 6.26947L64.7602 6.28573C60.7692 7.26111 59.3062 2.45736 54.9982 4.09925C50.6172 5.72488 52.3647 10.0166 48.5363 11.9673L48.4551 12.008C44.5535 13.788 42.2777 9.69956 38.2786 12.1218C34.247 14.4871 37.1976 18.6974 33.7187 21.2009L33.6374 21.2659C30.3374 23.7288 27.2974 20.4369 23.8511 23.4931C20.7055 26.9394 24.1681 30.085 21.4452 33.4013L21.3964 33.4663C18.8848 36.9371 14.7069 33.9865 12.301 37.9937C9.89503 41.9928 13.9103 44.3012 12.1384 48.2027L12.0815 48.3246C10.0982 51.9498 5.83907 50.2591 4.26221 54.5914C2.58781 58.9563 7.48096 60.4031 6.35928 64.5403L6.34302 64.6297C5.31074 68.7832 0.848379 68.0517 0.0680752 72.6522C-0.362718 77.2934 4.5467 77.5942 4.31911 81.8777V81.9752C4.39226 86.0881 -0.338333 86.4213 0.0193062 91.0138C0.783354 95.6143 5.30262 94.899 6.25361 99.0607L6.28612 99.1501C7.4322 103.279 2.48214 104.718 4.14842 109.083C5.76592 113.464 10.1307 111.814 12.0734 115.634L12.0896 115.667L12.0002 115.707C13.6015 119.511 9.64306 121.795 12.0327 125.729C14.4062 129.761 18.6084 126.81 21.1119 130.289L21.1688 130.362C23.8186 133.719 20.4129 136.8 23.5097 140.287C26.9723 143.408 30.0935 139.97 33.4179 142.668L33.4992 142.733C36.7586 145.237 33.93 149.342 37.8803 151.715C41.8875 154.121 44.1553 150.097 48.0568 151.878L48.1381 151.91C51.9664 153.853 50.1701 158.201 54.5674 159.802C58.916 161.461 60.6148 156.665 64.687 157.705C64.7114 157.714 64.687 157.738 64.687 157.738V157.746C68.6536 158.843 68.0033 163.216 72.5388 163.98C77.1881 164.427 77.4889 159.502 81.7643 159.729H81.8537C86.1373 159.534 86.4217 164.403 91.0711 164.021C95.6635 163.257 94.9482 158.746 99.1098 157.779L99.2073 157.746C103.206 156.771 104.669 161.566 108.969 159.933C113.35 158.307 111.603 154.023 115.431 152.073L115.512 152.032C119.414 150.244 121.69 154.34 125.681 151.91C129.68 149.569 127.038 145.237 130.371 142.725C130.395 142.709 130.379 142.733 130.379 142.733C133.679 140.27 136.727 143.554 140.165 140.498C143.303 137.052 139.848 133.906 142.555 130.59L142.612 130.517C145.123 127.046 149.301 129.996 151.699 125.989C154.105 121.99 150.065 119.722 151.845 115.813L151.886 115.732C153.861 112.098 158.128 113.805 159.697 109.465C161.372 105.1 156.495 103.653 157.608 99.5158L157.633 99.4345C158.665 95.2729 163.127 96.0126 163.908 91.4039C164.355 86.7952 159.445 86.4457 159.673 82.1703ZM148.562 114.114C143.742 124.006 136.711 133.101 127.997 139.905C119.333 146.749 109.172 151.658 98.4108 154.137C87.6897 156.649 76.229 156.632 65.4917 154.137V154.129C54.7138 151.65 44.5129 146.724 35.8401 139.848C27.1105 133.061 20.2178 124.079 15.3897 114.187L15.4466 114.163C10.6347 104.198 8.05807 93.0621 8.03368 81.9671C8.06619 70.9372 10.6428 59.8422 15.4141 49.9259L15.4384 49.9421C20.2747 40.0095 27.1918 30.9872 35.9539 24.1758C44.6267 17.3075 54.8113 12.39 65.573 9.91089C76.294 7.43993 87.7385 7.4318 98.4433 9.93528C109.181 12.4062 119.414 17.3644 128.07 24.1921L128.054 24.2083C136.816 31.0197 143.742 40.0501 148.57 49.9746C153.365 59.9154 155.909 71.0266 155.95 82.089C155.909 93.1515 153.357 104.165 148.562 114.114Z" fill="black"/>
<path d="M148.212 74.2941C147.334 68.45 143.197 65.2718 138.499 65.979L138.483 65.9871C133.354 66.7512 130.753 71.2135 131.484 76.1555C131.801 78.3094 132.305 79.6668 132.817 80.5447L134.768 80.2521L136.703 79.9595L140.011 79.4718L140.076 79.4555L139.799 77.5698L139.515 75.6678L139.45 75.6759L136.166 76.1717L135.044 76.3343C134.963 76.0417 134.906 75.7003 134.874 75.4971C134.467 72.7173 136.142 70.547 139.149 70.1C142.23 69.6285 144.4 71.7419 144.896 75.0907C145.034 75.9766 145.058 76.6919 145.042 77.269C145.01 77.7405 144.985 78.1387 144.936 78.407L144.945 78.472C146.57 78.2688 147.359 78.1956 148.399 78.0818C148.44 77.5047 148.44 76.9602 148.432 76.4074C148.383 75.7734 148.334 75.1069 148.212 74.2941Z" fill="black"/>
<path d="M140.718 95.4192C140.368 95.6874 140.068 95.9638 139.775 96.232C140.125 94.7933 140.352 93.5335 140.507 92.4768C141.092 91.8184 141.669 90.648 141.888 89.193C142.197 87.1854 141.669 85.511 141.043 84.9583C140.328 85.4134 139.539 86.8684 139.239 88.7947C139.011 90.3472 139.174 91.7046 139.539 92.5093C139.515 92.6069 139.507 92.7288 139.474 92.8182C139.336 93.4116 139.198 94.013 139.06 94.5983C138.873 95.3379 138.637 96.1426 138.369 96.9879C138.296 96.2564 138.076 95.4517 137.67 94.6795C136.8 93.0539 135.524 92.2655 134.703 92.2736C134.37 93.0539 134.5 94.647 135.296 96.2483C136.02 97.6463 136.971 98.5648 137.751 98.8005C137.353 99.8978 136.906 101.052 136.361 102.288C136.304 101.727 136.174 101.133 135.947 100.548C135.231 98.8412 134.02 97.9471 133.216 97.8739C132.825 98.6217 132.793 100.199 133.427 101.865C133.939 103.141 134.671 104.092 135.345 104.507C134.882 105.441 134.386 106.408 133.817 107.392C133.809 106.994 133.736 106.579 133.622 106.165C133.094 104.385 131.996 103.369 131.208 103.214C130.737 103.897 130.55 105.441 130.972 107.156C131.297 108.367 131.842 109.318 132.403 109.863C131.866 110.733 131.297 111.635 130.688 112.529C130.712 112.171 130.688 111.806 130.639 111.432C130.346 109.619 129.387 108.489 128.615 108.221C128.054 108.806 127.729 110.326 127.884 112.049C128.079 113.699 128.761 115.016 129.444 115.415C129.436 115.423 129.428 115.439 129.42 115.447L129.769 115.723C129.769 115.715 129.777 115.707 129.786 115.699C130.363 116.276 131.72 116.617 133.459 116.162C135.386 115.691 136.76 114.317 137.15 113.391C136.597 112.789 135.044 112.602 133.256 113.171C132.695 113.35 132.183 113.569 131.704 113.805C132.427 112.757 133.102 111.708 133.703 110.692C134.443 111.017 135.695 111.05 137.076 110.448C138.889 109.7 140.1 108.221 140.328 107.254C139.702 106.734 138.149 106.742 136.467 107.53C135.922 107.774 135.459 108.042 135.044 108.343C135.638 107.221 136.191 106.132 136.67 105.084C137.45 105.262 138.662 105.116 139.881 104.401C141.571 103.458 142.62 101.865 142.734 100.889C142.059 100.451 140.507 100.613 138.922 101.597C138.507 101.824 138.158 102.076 137.832 102.336C138.279 101.206 138.67 100.117 138.978 99.1094C139.767 99.1582 140.88 98.8818 141.978 98.0934C143.563 96.9798 144.416 95.3217 144.465 94.3463C143.733 94.0049 142.214 94.3056 140.718 95.4192Z" fill="black"/>
<path d="M47.1464 122.99C47.4959 123.323 47.8211 123.673 48.0486 123.974C48.2275 124.217 48.3656 124.404 48.4876 124.599L48.5282 124.64C49.528 123.665 50.0888 123.112 50.7634 122.462C50.6009 122.202 50.3327 121.868 50.0807 121.584C49.8125 121.267 49.593 121.039 49.2354 120.706C45.155 116.837 40.652 117.138 37.799 120.113L37.7909 120.121C34.5803 123.47 35.0354 127.956 38.3843 131.143C38.8313 131.557 39.1646 131.85 39.7579 132.289C40.0668 132.508 40.5463 132.801 40.7821 132.923C41.2047 132.451 42.4077 131.094 42.806 130.655L42.7735 130.63C42.4727 130.476 42.2451 130.338 42.0094 130.175C41.5705 129.883 41.2129 129.541 40.7658 129.127C38.685 127.144 38.6444 124.632 40.4894 122.714C42.3102 120.795 44.9193 120.869 47.1464 122.99Z" fill="black"/>
<path d="M36.1084 112.074C36.2709 110.351 35.9539 108.831 35.3768 108.245C34.6128 108.514 33.6537 109.644 33.361 111.456C33.3041 111.83 33.2798 112.196 33.3041 112.553C32.6864 111.651 32.1256 110.757 31.5891 109.887C32.1418 109.343 32.6783 108.392 33.0115 107.181C33.4261 105.466 33.2473 103.921 32.7677 103.239C31.9793 103.393 30.882 104.409 30.3536 106.189C30.248 106.604 30.1748 107.018 30.1585 107.416C29.6058 106.433 29.11 105.466 28.6467 104.531C29.3213 104.116 30.0285 103.165 30.565 101.889C31.1908 100.223 31.1502 98.6461 30.7682 97.8983C29.9635 97.9715 28.7686 98.8656 28.0371 100.572C27.8176 101.158 27.6795 101.751 27.6226 102.312C27.078 101.076 26.6309 99.9141 26.2408 98.8249C27.0129 98.5892 27.9639 97.6707 28.6955 96.2727C29.492 94.6714 29.614 93.0783 29.2807 92.298C28.476 92.2818 27.1918 93.0783 26.3221 94.704C25.9238 95.4761 25.7043 96.2808 25.6312 97.0124C25.3629 96.167 25.1272 95.3623 24.9403 94.6227C24.8021 94.0293 24.6558 93.436 24.5176 92.8426C24.5013 92.7451 24.4851 92.6313 24.4607 92.5337C24.8346 91.729 24.989 90.3716 24.7614 88.8192C24.4688 86.8928 23.6723 85.4378 22.9489 84.9827C22.3393 85.5354 21.8109 87.2098 22.1117 89.2174C22.323 90.6724 22.9001 91.8428 23.4935 92.5012C23.6316 93.5579 23.8755 94.8177 24.2169 96.2564C23.9324 95.9801 23.6235 95.7037 23.274 95.4436C21.7784 94.3219 20.2584 94.0293 19.535 94.3951C19.5757 95.3705 20.4373 97.0286 22.0223 98.1422C23.1196 98.9306 24.2331 99.207 25.0215 99.1582C25.3385 100.174 25.7287 101.255 26.1676 102.385C25.8425 102.117 25.4849 101.873 25.0866 101.645C23.4853 100.662 21.9491 100.499 21.2663 100.938C21.3801 101.914 22.4287 103.507 24.1274 104.45C25.3467 105.165 26.5496 105.311 27.3381 105.132C27.8176 106.181 28.3704 107.27 28.9718 108.392C28.5492 108.099 28.0777 107.823 27.5413 107.579C25.8506 106.782 24.2981 106.774 23.6723 107.303C23.8999 108.27 25.1191 109.757 26.9235 110.497C28.3053 111.098 29.5571 111.058 30.2967 110.741C30.9063 111.765 31.5729 112.805 32.3044 113.854C31.8248 113.618 31.3127 113.407 30.7519 113.22C28.9637 112.651 27.4031 112.838 26.8504 113.439C27.2487 114.366 28.6061 115.74 30.5406 116.211C32.28 116.666 33.6374 116.325 34.2145 115.748C34.2226 115.756 34.2308 115.764 34.2308 115.772L34.5803 115.496C34.564 115.48 34.564 115.471 34.564 115.463C35.2387 115.041 35.9295 113.716 36.1084 112.074Z" fill="black"/>
<path d="M31.3209 82.9912L31.386 82.9994L31.6379 80.9673L31.8736 79.0572L31.8086 79.0491C31.6704 78.9678 30.8089 78.4801 29.6628 77.838L30.2805 72.9204C31.5404 72.5872 32.5076 72.3352 32.6539 72.3108L32.7108 72.3189L33.0035 69.9943L33.2554 68.0029L33.1985 67.9866C33.0441 68.0354 32.0768 68.3199 25.5743 70.2381L15.8855 73.1155L15.8124 73.652L24.5014 78.8702C30.3293 82.3735 31.1909 82.9099 31.3209 82.9912ZM23.2822 74.481C23.843 74.4079 24.8265 74.2128 27.0293 73.652H27.0699L26.7366 76.2855L26.696 76.2774C24.7127 75.1719 23.7942 74.7168 23.274 74.5054L23.2822 74.481Z" fill="black"/>
<path d="M60.3628 136.767C62.4274 133.118 61.2488 128.785 57.4123 126.639C53.5108 124.453 48.959 125.688 46.8782 129.354C44.8136 133.02 46.106 137.531 49.91 139.661C53.7709 141.823 58.2333 140.539 60.3547 136.783L60.3628 136.767ZM57.2254 135.109L57.2172 135.125C56.0143 137.247 53.6815 138.125 51.5194 136.914C49.341 135.694 48.7802 133.215 49.9832 131.086C51.2024 128.924 53.6327 128.176 55.7867 129.379C57.8431 130.533 58.4039 133.02 57.2254 135.109Z" fill="black"/>
<path d="M69.2713 140.506L69.2306 140.498C68.9218 139.238 68.5235 137.938 65.7843 130.427L65.3616 130.338L62.3136 138.011C60.2571 143.229 59.997 143.847 59.932 143.969L63.1589 144.928L63.167 144.887C63.2158 144.765 63.5653 143.806 64.4106 141.441C64.6707 140.75 65.0528 139.669 65.3535 138.572H65.3779C65.5973 139.636 65.8087 140.4 66.0525 141.181C66.3451 142.091 66.9141 143.717 67.7269 145.757L68.1658 145.863C69.7102 144.408 70.9132 143.197 71.5553 142.522C72.1324 141.904 72.6038 141.392 73.3679 140.392L73.376 140.4C73.1891 141.49 73.059 142.652 72.9858 143.359C72.7583 145.879 72.677 146.919 72.6689 147.033L72.6526 147.074L76.1071 147.7C76.1071 147.7 76.1802 146.83 76.6273 141.246L77.2694 133.012L76.8305 132.914C71.0188 138.555 70.0922 139.531 69.2713 140.506Z" fill="black"/>
<path d="M23.2334 63.5243C24.9484 64.0526 26.444 63.5162 27.5738 62.9309C28.1184 62.6383 28.7524 62.2563 29.4433 61.793C30.1667 61.3134 30.7763 61.0777 31.3209 61.2484C32.215 61.5248 32.4426 62.3538 32.1581 63.3211C31.9468 64.0282 31.6704 64.5728 31.3616 65.0036C31.1746 65.2475 30.9958 65.4751 30.7763 65.6945L30.7682 65.7352C32.4914 66.3285 32.8815 66.4667 34.0438 66.8406C34.6291 66.1903 35.198 64.963 35.5232 63.8819C36.4498 60.842 35.3606 58.1028 32.7677 57.3144L32.7433 57.2981C30.9795 56.7617 29.5977 57.2168 28.0615 58.1028C27.0211 58.7124 26.2814 59.2245 25.7856 59.4521C25.3061 59.6715 24.924 59.8016 24.4038 59.639C23.5423 59.3789 23.2822 58.4686 23.5992 57.4119C23.7129 57.0299 23.843 56.7454 23.9893 56.4772C24.1275 56.2333 24.3307 55.9488 24.4607 55.7782L24.4851 55.7375C22.7782 55.1767 22.4368 55.0466 21.2339 54.6321C20.8843 55.136 20.4942 56.0464 20.2747 56.7698C19.1124 60.5656 20.9006 62.809 23.2334 63.5243Z" fill="black"/>
<path d="M55.5753 86.275C55.8598 86.8684 56.2906 87.478 56.8677 87.9819L56.9002 87.9982C57.0791 88.1445 57.2579 88.2664 57.4286 88.3721C57.2497 88.364 57.0547 88.3802 56.8677 88.4046C56.6401 88.4534 56.4125 88.5184 56.1768 88.6484C55.8761 88.8273 55.6891 89.1605 55.7135 89.51C55.7298 89.7295 55.7785 89.9571 55.8598 90.1847C55.9249 90.4122 56.0386 90.6317 56.1687 90.8593C56.4288 91.3063 56.7864 91.7534 57.2741 92.1435C57.5911 92.4037 57.9569 92.6312 58.3796 92.8019H58.3877C58.599 92.8913 58.8104 92.9645 59.0136 93.0214C58.8266 93.0702 58.664 93.1352 58.4934 93.2083C58.2739 93.3221 58.0707 93.4522 57.8675 93.6554C57.6318 93.8911 57.5505 94.2569 57.6643 94.5657C57.7537 94.7933 57.8594 94.9884 58.0057 95.1835C58.152 95.3867 58.3145 95.5655 58.5096 95.7443C58.8998 96.102 59.3956 96.4108 59.9808 96.6384C60.3547 96.7766 60.7692 96.8823 61.2163 96.931H61.2325H61.2407C61.3301 96.9392 61.4357 96.9473 61.5333 96.9554C61.6552 96.9636 61.7771 96.9636 61.8991 96.9636C61.6796 97.0936 61.4764 97.2562 61.2976 97.4512C61.1919 97.565 61.0944 97.6951 61.005 97.8495C60.8586 98.1421 60.8586 98.4754 61.0375 98.7436C61.1838 98.9631 61.3707 99.1419 61.5739 99.2882C61.7771 99.4426 62.0129 99.5646 62.2648 99.6784C62.7688 99.8897 63.354 100.028 63.9799 100.06C64.3375 100.077 64.7033 100.069 65.0853 100.003H65.1178C65.2966 99.9628 65.4673 99.9222 65.6218 99.8816C65.4592 100.052 65.3129 100.239 65.191 100.434C65.1097 100.572 65.0447 100.711 65.004 100.873C64.8984 101.215 65.0121 101.572 65.2885 101.775C65.4186 101.865 65.5486 101.946 65.6949 102.019C65.8412 102.084 65.9875 102.149 66.1501 102.19C66.4671 102.288 66.8329 102.353 67.2149 102.377C67.8976 102.409 68.6617 102.312 69.4339 101.987H69.442C69.442 101.987 69.442 101.987 69.4501 101.987C69.5883 101.93 69.7184 101.865 69.8484 101.808C69.7346 102.011 69.6289 102.19 69.5639 102.401C69.507 102.539 69.4664 102.694 69.4501 102.848C69.4014 103.206 69.5964 103.539 69.9134 103.694C70.076 103.775 70.2548 103.832 70.458 103.881C70.6531 103.921 70.8563 103.954 71.0676 103.962C71.4984 103.986 71.9699 103.946 72.4494 103.824C72.9371 103.702 73.4492 103.499 73.945 103.19H73.9613C73.9613 103.19 73.9613 103.182 73.9694 103.182H73.9856C74.075 103.125 74.1563 103.068 74.2457 103.011C74.1401 103.263 74.0588 103.507 74.0344 103.775C74.0263 103.848 74.0182 103.929 74.0182 104.011C74.0344 104.36 74.2539 104.661 74.579 104.775C74.7985 104.856 75.0179 104.88 75.2618 104.897C75.4975 104.905 75.7495 104.897 76.0014 104.864C76.2615 104.823 76.5379 104.767 76.8142 104.677C76.863 104.661 76.9118 104.637 76.9687 104.612C75.7576 108.286 73.8068 113.074 72.5795 115.081C74.2864 115.618 76.3103 116.024 78.2367 116.081C78.9601 114 80.415 109.286 81.431 104.791C81.5123 104.832 81.6017 104.88 81.6911 104.921C81.9512 105.043 82.2113 105.124 82.4552 105.189C82.7072 105.254 82.951 105.295 83.1867 105.303C83.4224 105.319 83.65 105.303 83.8776 105.254C84.2271 105.189 84.5116 104.913 84.5929 104.563C84.6092 104.49 84.6173 104.409 84.6254 104.328C84.6579 104.059 84.6254 103.807 84.5766 103.547C84.6417 103.612 84.723 103.686 84.7961 103.742C84.8042 103.742 84.8042 103.742 84.8124 103.742V103.759C85.235 104.108 85.7065 104.368 86.1616 104.539C86.6168 104.71 87.0801 104.799 87.4947 104.815C87.7141 104.832 87.9254 104.815 88.1287 104.799C88.3237 104.775 88.5188 104.734 88.6976 104.669C89.0471 104.547 89.2991 104.238 89.3316 103.881C89.3479 103.726 89.3397 103.572 89.3235 103.425C89.291 103.206 89.2341 103.003 89.1528 102.808C89.2666 102.889 89.3804 102.962 89.5023 103.027C89.5104 103.035 89.5186 103.035 89.5186 103.035C90.2176 103.434 90.9491 103.621 91.6238 103.653C92.0058 103.677 92.3797 103.645 92.7211 103.588C92.8836 103.547 93.0543 103.507 93.1925 103.458C93.3551 103.409 93.4932 103.344 93.6395 103.263C93.9565 103.084 94.1516 102.751 94.111 102.393C94.1029 102.231 94.0703 102.084 94.0216 101.946C93.9484 101.727 93.8428 101.523 93.7127 101.337C93.859 101.402 94.0216 101.467 94.1923 101.515L94.2166 101.523C94.5905 101.621 94.9482 101.678 95.3058 101.694C95.9398 101.735 96.5494 101.654 97.0778 101.499C97.3541 101.418 97.6061 101.312 97.8418 101.182C98.0775 101.06 98.297 100.906 98.5002 100.694C98.7197 100.459 98.8009 100.117 98.7034 99.8084C98.6546 99.654 98.5896 99.5158 98.5002 99.3857C98.362 99.1825 98.1995 99.0037 98.0044 98.8493C98.1182 98.8574 98.2482 98.8737 98.3701 98.8899H98.6628H98.6709H98.6871C99.1342 98.8899 99.565 98.833 99.9714 98.7274C100.597 98.5729 101.142 98.3047 101.605 97.9958C101.825 97.8495 102.028 97.6788 102.215 97.5C102.402 97.3212 102.548 97.1342 102.686 96.9229C102.865 96.6222 102.865 96.2645 102.678 95.9882C102.532 95.7768 102.353 95.6143 102.158 95.4842C102.02 95.3948 101.849 95.3217 101.686 95.2485C101.906 95.2079 102.125 95.1591 102.361 95.1022C102.816 94.9722 103.231 94.7852 103.597 94.5657C104.149 94.2325 104.604 93.8261 104.954 93.4115C105.133 93.2002 105.279 92.9889 105.401 92.7775C105.523 92.5662 105.629 92.3468 105.694 92.1273C105.791 91.7859 105.677 91.4364 105.409 91.2332C105.214 91.0788 104.995 90.9893 104.783 90.9243C104.613 90.8674 104.426 90.843 104.231 90.8268C104.434 90.7374 104.637 90.6398 104.84 90.5098L104.873 90.5017C105.547 90.0709 106.1 89.51 106.506 88.941C106.71 88.6647 106.872 88.3639 107.002 88.0713C107.132 87.7868 107.222 87.4942 107.262 87.1935C107.27 87.0797 107.27 86.974 107.27 86.8602C107.246 86.5351 107.051 86.2669 106.758 86.145C106.547 86.0637 106.328 86.023 106.108 86.0068C105.954 85.9987 105.799 86.0149 105.653 86.0312C105.775 85.9336 105.905 85.8361 106.027 85.7142L106.059 85.6817C106.539 85.2102 106.897 84.6575 107.149 84.1129C107.392 83.5683 107.531 83.0237 107.587 82.5198C107.612 82.3085 107.62 82.1134 107.604 81.9102C107.596 81.707 107.563 81.52 107.498 81.325C107.401 81.0242 107.132 80.8048 106.807 80.7722C106.775 80.7722 106.742 80.7722 106.71 80.7641C106.539 80.7641 106.385 80.7722 106.23 80.8048C105.994 80.8535 105.759 80.9429 105.523 81.0486C105.661 80.8616 105.791 80.6666 105.913 80.439V80.4309C106.279 79.7643 106.466 79.0735 106.539 78.4395C106.58 78.0005 106.571 77.6023 106.506 77.2365C106.474 77.0495 106.433 76.8707 106.376 76.7C106.319 76.5375 106.246 76.383 106.149 76.2286C105.97 75.9441 105.645 75.7978 105.287 75.8628C105.141 75.8953 104.986 75.936 104.84 75.9929C104.645 76.0742 104.458 76.188 104.296 76.3099C104.352 76.1798 104.401 76.0498 104.442 75.9116V75.9197C104.58 75.5052 104.669 75.1069 104.702 74.733C104.767 74.1559 104.734 73.6195 104.621 73.148C104.564 72.9204 104.499 72.6928 104.401 72.4896C104.304 72.2864 104.198 72.1076 104.044 71.9369C103.816 71.6849 103.467 71.5955 103.133 71.7175C102.833 71.815 102.572 71.9776 102.353 72.1726C102.312 72.2052 102.28 72.2295 102.255 72.2621C102.28 72.1564 102.312 72.0507 102.337 71.9451V71.9369C102.369 71.7256 102.41 71.5224 102.434 71.3192C102.507 70.6364 102.45 70.0105 102.296 69.4741C102.223 69.1977 102.117 68.962 102.003 68.7344C101.882 68.515 101.735 68.3036 101.54 68.1329C101.296 67.9135 100.931 67.8647 100.614 68.011C100.329 68.1329 100.093 68.328 99.8739 68.5393C99.8576 68.5556 99.8495 68.5637 99.8332 68.58C99.8495 68.515 99.8576 68.4418 99.8657 68.3687C99.882 68.3036 99.8901 68.2467 99.8901 68.1736C99.9714 67.4014 99.8901 66.7024 99.7032 66.109C99.6056 65.8164 99.4918 65.5482 99.3374 65.3125C99.2724 65.1987 99.1911 65.093 99.1017 64.9792C99.0123 64.8817 98.9147 64.776 98.8009 64.6947C98.5327 64.4915 98.1669 64.4753 97.8581 64.6297C97.5898 64.7841 97.3623 64.9873 97.1672 65.2068C97.1509 65.2149 97.1428 65.2393 97.1265 65.2474C97.1347 65.2312 97.1347 65.2068 97.1428 65.1824C97.1428 65.1255 97.1428 65.0849 97.1509 65.0442C97.2159 64.2314 97.1103 63.4918 96.8827 62.8903C96.777 62.5895 96.647 62.3132 96.4763 62.0775C96.395 61.9555 96.2975 61.8499 96.2162 61.7361C96.1186 61.6385 96.013 61.541 95.8829 61.4597C95.6066 61.2646 95.2408 61.2646 94.9319 61.4597C94.68 61.6141 94.4767 61.8092 94.2979 62.0287C94.2817 62.0531 94.2735 62.0612 94.2573 62.0775C94.2654 62.0287 94.2654 61.9799 94.2654 61.9311C94.2979 61.1183 94.1516 60.4031 93.8996 59.8097C93.7859 59.5252 93.6314 59.257 93.4607 59.0213C93.3794 58.9075 93.2738 58.8018 93.1844 58.7043C93.0787 58.6149 92.973 58.5254 92.843 58.436C92.5585 58.2653 92.1846 58.2816 91.892 58.4767C91.6644 58.6392 91.4693 58.8181 91.323 59.0294C91.2905 59.0619 91.258 59.1107 91.2336 59.1432V58.9725C91.2255 58.1678 91.0548 57.4525 90.7866 56.8754C90.6484 56.5909 90.5021 56.3308 90.307 56.1032C90.2176 55.9976 90.12 55.8919 90.0063 55.8025C89.8925 55.705 89.7949 55.6237 89.6649 55.5505C89.3723 55.3798 88.9902 55.4286 88.7139 55.6318C88.5025 55.7781 88.3319 55.9651 88.1937 56.1601C87.9905 56.4446 87.8198 56.7698 87.6897 57.1193C87.7304 54.7296 86.4542 52.8113 84.666 52.7138C82.8779 52.6163 81.2116 54.3882 80.7564 56.7454C80.7076 56.3796 80.6101 56.0464 80.4638 55.7375C80.3663 55.5343 80.2362 55.3311 80.0574 55.1604C79.8217 54.9247 79.464 54.8515 79.1308 54.9816C78.9926 55.0385 78.8625 55.1116 78.7325 55.1848C78.6106 55.266 78.4886 55.3555 78.3749 55.4611C78.1391 55.6643 77.9359 55.9 77.7409 56.1764C77.3588 56.7129 77.0337 57.4038 76.863 58.2003C76.8468 58.2572 76.8386 58.3222 76.8305 58.371C76.8061 58.3385 76.798 58.2897 76.7736 58.2491C76.6598 58.0296 76.5135 57.8102 76.3184 57.6395C76.0665 57.42 75.7088 57.3631 75.3837 57.5094C75.2455 57.5663 75.1155 57.6395 74.9935 57.737C74.8716 57.8183 74.7578 57.9158 74.644 58.0134C74.4327 58.2247 74.2295 58.4767 74.0425 58.7449C73.6768 59.3057 73.3842 60.0048 73.2379 60.8013V60.8095C73.2297 60.8582 73.2297 60.907 73.2216 60.9558C73.2053 60.9395 73.2053 60.9233 73.1891 60.907C73.059 60.6632 72.8965 60.4518 72.6851 60.273C72.425 60.0535 72.0674 60.0129 71.7504 60.1755C71.6122 60.2486 71.4822 60.3299 71.3602 60.4193C71.2465 60.5006 71.1327 60.6063 71.027 60.72C70.8238 60.9395 70.6287 61.1915 70.458 61.4841C70.1166 62.0612 69.8565 62.7765 69.7509 63.5812C69.7509 63.6299 69.7427 63.6706 69.7346 63.7193V63.7844C69.7184 63.7681 69.7021 63.7519 69.7021 63.7356C69.5558 63.4918 69.3688 63.2723 69.1331 63.0935C68.873 62.8984 68.4991 62.8903 68.1903 63.0528C68.0683 63.126 67.9464 63.2154 67.8326 63.3048C67.7188 63.4023 67.6213 63.508 67.5237 63.6055C67.3368 63.8331 67.158 64.0851 67.0035 64.3615C66.6947 64.9223 66.4671 65.6132 66.3858 66.3854C66.3858 66.4504 66.3777 66.5154 66.3696 66.5886C66.3614 66.6617 66.3614 66.7349 66.3614 66.808C66.3533 66.7999 66.337 66.7674 66.3208 66.7512C66.1663 66.5236 65.9631 66.3122 65.7112 66.1578C65.4267 65.9871 65.0528 65.9952 64.7602 66.1822C64.5326 66.3366 64.3456 66.5236 64.1749 66.7349C64.0042 66.9462 63.8579 67.1738 63.7279 67.4339C63.4678 67.9541 63.2808 68.5637 63.2077 69.2465C63.1833 69.4578 63.1671 69.661 63.1671 69.8724C63.1671 69.9862 63.1752 70.0918 63.1833 70.1975C63.1589 70.1731 63.1345 70.1406 63.102 70.1C62.9151 69.8886 62.6956 69.6935 62.4193 69.5635C62.1266 69.4172 61.7527 69.466 61.4764 69.6854C61.2976 69.8399 61.1431 70.0105 61.0131 70.1975C60.8749 70.3926 60.753 70.6039 60.6554 70.8234C60.4522 71.2785 60.3059 71.7987 60.2409 72.384C60.2084 72.7579 60.2084 73.1643 60.249 73.5788C60.2734 73.7251 60.2897 73.8552 60.3141 73.9933C60.1678 73.8552 60.0133 73.7332 59.8345 73.6195C59.7126 73.5463 59.5663 73.4813 59.4118 73.4325C59.0948 73.3431 58.7372 73.4488 58.5015 73.7089C58.3633 73.847 58.2658 73.9934 58.1845 74.1478C58.0869 74.3103 58.0138 74.481 57.9406 74.6599C57.8106 75.0175 57.713 75.4077 57.6643 75.8547C57.5993 76.4724 57.648 77.1796 57.8594 77.8867C57.9325 78.1143 58.0138 78.3338 58.1113 78.5289C57.9163 78.3988 57.7049 78.285 57.4692 78.2119C57.3229 78.1712 57.1685 78.1387 57.0059 78.1306C56.9734 78.1306 56.949 78.1306 56.9084 78.1306C56.5914 78.1306 56.2744 78.3175 56.1118 78.6101C56.0143 78.789 55.9411 78.9759 55.8842 79.171C55.8273 79.3661 55.7948 79.5693 55.7704 79.7887C55.7217 80.2846 55.7542 80.8454 55.8842 81.4062C56.0143 81.9752 56.25 82.5523 56.6239 83.0725L56.6564 83.105C56.7458 83.2351 56.8515 83.3489 56.9734 83.4545C56.8271 83.422 56.6645 83.3976 56.5182 83.3895C56.2987 83.3814 56.0712 83.3895 55.8517 83.4545C55.5347 83.5358 55.2827 83.7797 55.1933 84.1048C55.1608 84.2186 55.1364 84.3243 55.1283 84.4299C55.1039 84.7388 55.1283 85.0395 55.1933 85.3321C55.3315 85.6573 55.4372 85.958 55.5753 86.275ZM62.6956 82.6255C63.801 72.132 83.9101 60.4843 83.9101 60.4843C83.9101 60.4843 101.361 74.099 100.256 84.5925C99.2561 94.1431 91.8026 98.2641 82.6421 98.4998C82.886 95.2241 82.9348 91.3307 82.1463 91.3307C81.3498 91.3307 80.1712 95.1672 79.1714 98.4185C69.1656 97.6951 61.6227 92.867 62.6956 82.6255Z" fill="black"/>
</svg>
