<svg width="240" height="110" viewBox="0 0 240 110" fill="none" xmlns="http://www.w3.org/2000/svg">
<path d="M47.947 5.06379L48.2386 5.02402C50.7705 4.70588 53.2892 4.40099 55.8211 4.12262C56.2055 4.08285 56.5899 4.05634 56.9478 4.05634C58.3795 4.05634 59.5593 4.41425 60.4607 5.11682C61.3488 5.80613 61.8525 6.74731 61.9718 7.90058C62.0779 8.89478 61.9321 9.7034 61.5344 10.3397C61.2693 10.7771 60.9379 11.1616 60.5535 11.5062C60.8451 11.599 61.1102 11.7183 61.3621 11.8376C61.7995 12.0365 62.1707 12.3016 62.4756 12.5932C62.7937 12.8981 63.0456 13.2693 63.2444 13.6935C63.43 14.1176 63.5626 14.6081 63.6156 15.1781C63.6951 16 63.6156 16.7026 63.377 17.3123C63.1384 17.9221 62.754 18.4656 62.2237 18.9163C61.7067 19.3538 61.0704 19.7117 60.3281 19.9901C59.599 20.2552 58.7639 20.4408 57.8492 20.5468C55.3306 20.8252 52.8119 21.1301 50.3066 21.4482L50.0149 21.488L47.947 5.06379ZM53.5808 17.3389C54.8799 17.1798 56.1657 17.034 57.4648 16.8882C58.1806 16.8086 58.7374 16.623 59.0953 16.3314C59.4267 16.0663 59.5593 15.7084 59.5062 15.2312C59.4532 14.7539 59.2544 14.4358 58.8965 14.2237C58.6181 14.0646 58.2204 13.9851 57.7167 13.9851C57.5046 13.9851 57.2792 13.9983 57.0274 14.0249C55.768 14.1707 54.4955 14.3165 53.2361 14.4623L53.5808 17.3389ZM52.8119 10.9627C53.8061 10.8434 54.8003 10.7241 55.7945 10.6181C56.5236 10.5385 57.0936 10.3397 57.4781 10.0613C57.8227 9.80944 57.9553 9.46479 57.9155 8.97431C57.8625 8.4971 57.6769 8.20547 57.3322 8.01988C57.0539 7.87407 56.696 7.79453 56.2585 7.79453C56.0862 7.79453 55.9139 7.80779 55.715 7.82104C54.6413 7.9536 53.5675 8.07291 52.4805 8.20547L52.8119 10.9627Z" fill="#F7EC00"/>
<path d="M56.9478 4.34795C58.3132 4.34795 59.4267 4.67935 60.2751 5.35541C61.0969 6.00496 61.5609 6.8666 61.667 7.94033C61.667 7.95359 61.667 7.96684 61.667 7.9801C61.7597 8.86825 61.6272 9.61059 61.2693 10.1939C60.9114 10.7771 60.4607 11.2543 59.9172 11.6255C60.3944 11.7581 60.8318 11.9171 61.2295 12.1027C61.6272 12.2883 61.9718 12.5269 62.2635 12.8053C62.5551 13.0837 62.7937 13.4283 62.966 13.826C63.1384 14.2237 63.2577 14.6744 63.3107 15.2046C63.3107 15.2179 63.3107 15.2311 63.3107 15.2444C63.3902 15.9735 63.3107 16.623 63.0853 17.193C62.86 17.763 62.5021 18.2668 62.0249 18.6777C61.5344 19.0886 60.9379 19.4333 60.2221 19.6984C59.5062 19.9635 58.7109 20.1359 57.8095 20.2419C55.2908 20.5203 52.7722 20.8252 50.2535 21.1433C49.5907 15.8674 48.9147 10.5915 48.2519 5.31564C50.7838 4.9975 53.3024 4.69261 55.8343 4.41423C56.2452 4.37447 56.6032 4.34795 56.9478 4.34795ZM52.5601 11.2941C53.6603 11.1615 54.7473 11.029 55.8476 10.9097C56.6297 10.8169 57.2394 10.618 57.6769 10.2999C58.1143 9.98176 58.2867 9.53105 58.2337 8.94779C58.2337 8.93453 58.2337 8.92128 58.2337 8.90802C58.1806 8.37778 57.9288 7.99336 57.4913 7.768C57.1732 7.59568 56.7755 7.51614 56.2718 7.51614C56.0862 7.51614 55.9006 7.5294 55.6885 7.55591C54.5087 7.68847 53.3289 7.83429 52.1491 7.96685C52.2817 9.05384 52.4143 10.1806 52.5601 11.2941ZM53.3157 17.6702C54.7076 17.5112 56.0994 17.3388 57.4913 17.1798C58.2734 17.087 58.8699 16.8881 59.2809 16.5567C59.6918 16.2253 59.8641 15.7746 59.7979 15.1781C59.7979 15.1649 59.7979 15.1516 59.7979 15.1251C59.7448 14.5948 59.493 14.1972 59.0423 13.932C58.7241 13.7465 58.2734 13.6404 57.7167 13.6404C57.4913 13.6404 57.2527 13.6537 56.9876 13.6802C55.6222 13.8393 54.2568 13.9983 52.8915 14.1574C53.0373 15.3504 53.1831 16.5037 53.3157 17.6702ZM56.9478 3.75143C56.5766 3.75143 56.1922 3.77795 55.7945 3.81771C53.2494 4.10935 50.691 4.41423 48.2121 4.71912L47.6156 4.79866L47.6951 5.39518L49.6968 21.1963L49.7763 21.7929L50.3728 21.7398C52.8385 21.4217 55.3704 21.1301 57.9155 20.8384C58.8567 20.7324 59.7051 20.5468 60.4607 20.2684C61.2428 19.99 61.9056 19.6056 62.4491 19.1417C63.0058 18.6644 63.4167 18.0812 63.6819 17.4184C63.947 16.7556 64.0265 16.0132 63.947 15.1914V15.1649L63.9337 15.0986C63.8807 14.5551 63.7481 14.0248 63.5361 13.5741C63.324 13.1102 63.0456 12.7125 62.7009 12.3811C62.3695 12.063 61.9718 11.7846 61.5079 11.5592C61.3753 11.5062 61.2428 11.4399 61.1102 11.3869C61.3621 11.1218 61.5874 10.8169 61.7863 10.4987C62.2105 9.80943 62.3828 8.93453 62.2767 7.91382C62.1442 6.62799 61.6007 5.62053 60.6462 4.8782C59.6918 4.13586 58.459 3.75143 56.9478 3.75143ZM52.8119 8.47057C53.7929 8.35127 54.7738 8.24522 55.7415 8.12592C55.9271 8.09941 56.0862 8.09941 56.2452 8.09941C56.6297 8.09941 56.9478 8.16568 57.1732 8.28499C57.425 8.43081 57.5576 8.62965 57.5974 8.96105C57.6504 9.47803 57.4781 9.67687 57.2925 9.80943C56.9478 10.0613 56.4308 10.2336 55.7415 10.3132C54.8534 10.4192 53.952 10.5253 53.0506 10.6313L52.918 9.54431L52.8119 8.47057ZM53.5675 14.7142C54.7341 14.5816 55.9006 14.4358 57.0671 14.3165C57.3057 14.29 57.5178 14.2767 57.7167 14.2767C58.1674 14.2767 58.512 14.343 58.7374 14.4755C59.0158 14.6479 59.1616 14.8732 59.2013 15.2179C59.2544 15.7481 59.0688 15.9735 58.9097 16.106C58.5916 16.3579 58.1011 16.5302 57.425 16.5965C56.232 16.7291 55.039 16.8749 53.8327 17.0074L53.5675 14.7142Z" fill="#00529C"/>
<path d="M65.5907 3.10189L65.8956 3.07538C67.1019 2.95608 68.295 2.85003 69.5013 2.74398L69.8061 2.71747L71.2643 19.1947L70.9594 19.2212C69.7929 19.3272 68.6264 19.4333 67.4598 19.5393L67.1549 19.5659L65.5907 3.10189Z" fill="#F7EC00"/>
<path d="M69.5145 3.03562C69.9917 8.32477 70.4557 13.6272 70.9196 18.9163C69.7531 19.0224 68.5866 19.1284 67.4068 19.2345C66.9031 13.9453 66.3993 8.65617 65.8956 3.35377C67.1151 3.26097 68.3214 3.14167 69.5145 3.03562ZM70.058 2.38608L69.4615 2.4391C68.2552 2.54515 67.0621 2.6512 65.8558 2.7705L65.2593 2.82353L65.3123 3.42005L66.8235 19.3007L66.8765 19.8973L67.4731 19.8442C68.6396 19.7382 69.8061 19.6189 70.9726 19.5261L71.5824 19.4731L71.5294 18.8765L70.8136 10.7639L70.1243 2.99585L70.058 2.38608Z" fill="#00529C"/>
<path d="M82.4391 18.5717C81.4449 18.5717 80.5038 18.4391 79.6421 18.1607C78.5551 17.8161 77.5874 17.2858 76.7656 16.5965C75.9437 15.8939 75.2676 15.0456 74.7506 14.0514C74.2337 13.0439 73.9288 11.9304 73.836 10.7241C73.7432 9.50454 73.8757 8.36453 74.2204 7.3173C74.5783 6.25682 75.1218 5.30239 75.8509 4.46726C76.58 3.63213 77.4814 2.94282 78.5419 2.42584C79.5891 1.8956 80.7689 1.59071 82.0414 1.51117C82.3728 1.48466 82.7042 1.47141 83.0091 1.47141C83.3936 1.47141 83.7515 1.48466 84.0961 1.52443C84.7192 1.59071 85.3157 1.69676 85.8459 1.85583C86.3894 2.0149 86.9064 2.227 87.3969 2.47886C87.8873 2.71747 88.3646 3.0091 88.8153 3.3405L89.0539 3.52609C89.0539 3.52609 87.4631 5.62053 86.7606 6.56171L86.5883 6.80032L86.3496 6.62799C86.0315 6.40264 85.7266 6.19054 85.4085 6.01821C85.1036 5.83263 84.7854 5.70007 84.454 5.59402C84.1226 5.48797 83.778 5.40844 83.4068 5.35541C83.1815 5.3289 82.9296 5.30239 82.6645 5.30239C82.5054 5.30239 82.3463 5.30239 82.174 5.31565C81.5775 5.35541 81.0075 5.52774 80.4905 5.80612C79.9735 6.09775 79.5361 6.46892 79.1649 6.90637C78.7937 7.35707 78.5153 7.87406 78.3298 8.44406C78.1442 9.01407 78.0779 9.6371 78.1309 10.2734C78.1839 11.0025 78.343 11.6388 78.6081 12.1955C78.8733 12.7523 79.2312 13.2427 79.6686 13.6272C80.1061 14.0248 80.6231 14.3165 81.1931 14.5153C81.657 14.6744 82.1608 14.7539 82.691 14.7539C82.8103 14.7539 82.9296 14.7539 83.0622 14.7407C83.6719 14.7009 84.2552 14.5816 84.7722 14.396C85.2361 14.2369 85.6603 14.0116 86.0315 13.7332L85.9255 11.9304C84.8385 11.9967 82.3596 12.169 82.3596 12.169L82.121 8.55011L82.4259 8.5236C84.7722 8.36453 87.1318 8.21871 89.4781 8.09941L89.783 8.08615L90.1806 15.4432L90.0746 15.536C89.266 16.2916 88.285 16.9677 87.1715 17.5377C86.0315 18.1077 84.7059 18.4523 83.2212 18.5584C82.9429 18.5584 82.691 18.5717 82.4391 18.5717Z" fill="#F7EC00"/>
<path d="M83.0091 1.76305C83.3803 1.76305 83.7382 1.77631 84.0696 1.81607C84.6794 1.88235 85.2494 1.97515 85.7663 2.13422C86.2966 2.28004 86.7871 2.47888 87.2643 2.73074C87.7282 2.9826 88.1922 3.26098 88.6296 3.59238C87.9271 4.5203 87.2245 5.44822 86.5219 6.37614C86.1905 6.13753 85.8724 5.92544 85.5543 5.75311C85.2361 5.56753 84.8915 5.42171 84.5601 5.30241C84.2154 5.1831 83.8442 5.10356 83.4598 5.05054C83.2079 5.02403 82.9561 4.99752 82.6777 4.99752C82.5186 4.99752 82.3463 4.99752 82.1607 5.01077C81.5112 5.05054 80.9014 5.23613 80.3579 5.52776C79.8144 5.83265 79.3372 6.23033 78.9395 6.70754C78.5418 7.18476 78.2502 7.72825 78.0514 8.35129C77.8525 8.96106 77.7862 9.61061 77.8393 10.2999C77.8393 10.3132 77.8393 10.3264 77.8393 10.3397C77.8923 11.0688 78.0646 11.7316 78.343 12.3281C78.6214 12.9246 79.0058 13.4283 79.4697 13.8525C79.9337 14.2767 80.4772 14.5949 81.1002 14.7937C81.604 14.966 82.1342 15.0456 82.691 15.0456C82.8235 15.0456 82.9428 15.0456 83.0754 15.0323C83.7117 14.9925 84.3082 14.8732 84.8649 14.6744C85.4217 14.4756 85.9122 14.2104 86.3364 13.8658C86.2966 13.1102 86.2436 12.3546 86.2038 11.5858C85.0108 11.652 83.8177 11.7316 82.6247 11.8111C82.5584 10.8036 82.4921 9.79619 82.4258 8.78874C84.7722 8.62966 87.1185 8.48385 89.478 8.36454C89.5973 10.6711 89.7299 12.9776 89.8492 15.2842C89.0671 16.0265 88.1127 16.6761 87.0124 17.2328C85.9122 17.7896 84.6263 18.121 83.1682 18.2138C82.9163 18.227 82.6777 18.2403 82.4258 18.2403C81.4581 18.2403 80.5567 18.1077 79.7084 17.8426C78.6479 17.5112 77.72 17.0075 76.9379 16.3314C76.1425 15.6553 75.4929 14.8467 75.0025 13.879C74.512 12.9114 74.2071 11.8376 74.1143 10.6578C74.1143 10.6446 74.1143 10.6313 74.1143 10.6048C74.0215 9.46479 74.1408 8.39105 74.4987 7.35709C74.8434 6.33637 75.3736 5.40845 76.0762 4.59984C76.7788 3.79122 77.6404 3.12842 78.6744 2.62469C79.6951 2.10771 80.8219 1.81607 82.0679 1.73654C82.3861 1.76305 82.7042 1.76305 83.0091 1.76305ZM83.0091 1.15327C82.691 1.15327 82.3596 1.16653 82.0149 1.19304C80.7026 1.28583 79.483 1.60398 78.396 2.14748C77.309 2.67772 76.3811 3.39354 75.6255 4.26844C74.8699 5.13008 74.2999 6.12428 73.9287 7.22453C73.5576 8.31152 73.425 9.4913 73.5178 10.7109C73.6238 12.0099 73.942 13.1632 74.4722 14.1972C75.0025 15.2312 75.705 16.1193 76.5534 16.8351C77.4018 17.551 78.4093 18.0945 79.536 18.4524C80.4374 18.7307 81.4051 18.8766 82.4258 18.8766C82.6777 18.8766 82.9428 18.8633 83.2079 18.85C84.7324 18.744 86.111 18.3993 87.2775 17.8028C88.4308 17.2196 89.425 16.5302 90.2601 15.7481L90.459 15.5626L90.4457 15.2842L90.2469 11.652L90.0613 8.36454L90.0348 7.76802L89.4383 7.79453C86.9329 7.92709 84.6263 8.07291 82.3861 8.21873L81.7896 8.25849L81.8293 8.85501L81.9221 10.1541L82.0414 11.8774L82.0812 12.4739L82.6777 12.4341C83.6719 12.3679 84.6528 12.3016 85.647 12.2486L85.6868 12.8451L85.7266 13.6007C85.4084 13.8128 85.0638 13.9983 84.6794 14.1309C84.1756 14.3032 83.6189 14.4225 83.0489 14.449C82.9296 14.4623 82.8103 14.4623 82.7042 14.4623C82.2137 14.4623 81.7365 14.3828 81.3123 14.237C80.7821 14.0514 80.3049 13.773 79.8939 13.4151C79.483 13.0572 79.1516 12.6065 78.8997 12.0762C78.6479 11.546 78.5021 10.9495 78.449 10.2999C78.396 9.65038 78.4623 9.06711 78.6346 8.53687C78.8069 7.99337 79.0721 7.51616 79.4035 7.09197C79.7481 6.68103 80.1591 6.32312 80.6495 6.058C81.1135 5.80613 81.6437 5.64706 82.2005 5.60729C82.3596 5.59404 82.5186 5.59404 82.6644 5.59404C82.9163 5.59404 83.1549 5.60729 83.367 5.63381C83.7117 5.67357 84.0563 5.75311 84.3612 5.85916C84.6661 5.96521 84.971 6.09777 85.2626 6.25684C85.5543 6.41591 85.8591 6.61475 86.1773 6.8401L86.6545 7.18476L87.0124 6.70754C87.715 5.77962 88.4176 4.8517 89.1201 3.92378L89.4913 3.43331L89.0008 3.0754C88.5369 2.73074 88.0596 2.42585 87.5692 2.17399C87.0654 1.90887 86.5219 1.69677 85.9652 1.52444C85.4084 1.36537 84.7987 1.24607 84.1624 1.19304C83.778 1.17979 83.4068 1.15327 83.0091 1.15327Z" fill="#00529C"/>
<path d="M99.7249 0.861652L100.03 0.848396C101.236 0.808628 102.442 0.76886 103.649 0.729092L103.954 0.715836L104.431 17.2593L104.126 17.2726C102.959 17.3124 101.78 17.3389 100.613 17.3919L100.308 17.4051L99.7249 0.861652Z" fill="#F7EC00"/>
<path d="M103.649 1.03397C103.808 6.34963 103.954 11.6653 104.113 16.9677C102.946 17.0075 101.766 17.034 100.6 17.087C100.414 11.7713 100.229 6.45567 100.043 1.15327C101.236 1.10025 102.442 1.06048 103.649 1.03397ZM104.232 0.410934L103.635 0.42419C102.429 0.463958 101.223 0.503726 100.017 0.543495L99.4201 0.570007L99.4466 1.16653V1.24606L100.003 17.1002L100.03 17.6968L100.626 17.6703C101.793 17.6305 102.973 17.5907 104.139 17.551H104.722L104.709 16.9544L104.245 1.02071L104.232 0.410934Z" fill="#00529C"/>
<path d="M114.254 17.2991C113.06 17.2991 111.854 17.1003 110.688 16.7158C109.468 16.3049 108.341 15.6686 107.347 14.807L107.122 14.6214L109.534 11.6388L109.76 11.8244C110.489 12.3944 111.231 12.8318 111.987 13.1632C112.703 13.4681 113.498 13.6272 114.346 13.6272C115.089 13.6272 115.606 13.4946 115.964 13.256C116.282 13.0439 116.428 12.7655 116.428 12.3944C116.428 12.169 116.388 12.01 116.321 11.8774C116.255 11.7581 116.136 11.6388 115.937 11.5195C115.712 11.3869 115.394 11.2411 114.996 11.0953C114.585 10.9495 114.041 10.8037 113.365 10.6446C112.57 10.4457 111.801 10.2336 111.099 9.99504C110.409 9.76969 109.8 9.4648 109.309 9.09363C108.805 8.72246 108.394 8.24525 108.116 7.67524C107.824 7.10523 107.679 6.40266 107.652 5.56753C107.639 4.74566 107.771 4.04309 108.05 3.4068C108.328 2.78377 108.739 2.22702 109.269 1.76306C109.8 1.2991 110.436 0.941186 111.165 0.689321C111.894 0.437457 112.703 0.304897 113.577 0.291641H113.723C114.903 0.291641 116.003 0.463969 116.998 0.79537C118.031 1.14003 118.999 1.65701 119.874 2.31981L120.099 2.49214L117.899 5.6073L117.66 5.44823C116.958 4.98427 116.242 4.6131 115.566 4.34798C114.943 4.10937 114.28 3.97681 113.644 3.97681C112.968 3.99007 112.504 4.10937 112.212 4.33472C111.947 4.54682 111.814 4.79868 111.814 5.09032C111.814 5.34218 111.867 5.51451 111.947 5.67358C112.027 5.80614 112.172 5.9387 112.384 6.058C112.623 6.19057 112.968 6.32312 113.418 6.45568C113.869 6.58824 114.452 6.73406 115.155 6.91964C115.977 7.11849 116.732 7.35709 117.395 7.63547C118.058 7.90059 118.641 8.24525 119.105 8.62967C119.582 9.02735 119.94 9.50457 120.192 10.0481C120.431 10.5916 120.55 11.2278 120.55 11.9702C120.55 12.8451 120.391 13.6007 120.086 14.2502C119.781 14.8998 119.344 15.4565 118.8 15.9072C118.257 16.3447 117.607 16.6893 116.865 16.9279C116.123 17.1533 115.301 17.2858 114.413 17.2858H114.254V17.2991Z" fill="#F7EC00"/>
<path d="M113.75 0.59652C114.903 0.59652 115.964 0.755592 116.931 1.08699C117.939 1.43165 118.867 1.92212 119.715 2.57167C119.092 3.44656 118.469 4.33471 117.859 5.20961C117.13 4.73239 116.414 4.34797 115.712 4.06959C115.022 3.80447 114.333 3.67191 113.657 3.67191C113.644 3.67191 113.63 3.67191 113.604 3.67191C112.901 3.68517 112.384 3.81773 112.027 4.09611C111.682 4.36123 111.51 4.70588 111.51 5.09031C111.51 5.10356 111.51 5.11682 111.51 5.14333C111.51 5.39519 111.563 5.62055 111.669 5.81939C111.775 6.00497 111.96 6.1773 112.225 6.32311C112.49 6.46893 112.848 6.61475 113.312 6.74731C113.776 6.87987 114.346 7.02568 115.049 7.21127C115.871 7.41011 116.613 7.64872 117.249 7.91384C117.899 8.17896 118.442 8.4971 118.88 8.86827C119.317 9.23944 119.649 9.67688 119.874 10.1806C120.099 10.6843 120.205 11.2809 120.205 11.9834C120.205 11.9967 120.205 12.0099 120.205 12.0232C120.205 12.8186 120.06 13.5211 119.768 14.1309C119.476 14.7407 119.079 15.2709 118.562 15.6819C118.045 16.106 117.435 16.4242 116.719 16.6495C116.003 16.8749 115.221 16.9942 114.346 16.9942C114.307 16.9942 114.267 16.9942 114.214 16.9942C113.034 16.9942 111.881 16.8086 110.741 16.4242C109.561 16.0265 108.474 15.4167 107.493 14.5816C108.169 13.7465 108.845 12.8981 109.534 12.063C110.277 12.6462 111.046 13.0969 111.828 13.4416C112.583 13.773 113.405 13.9321 114.307 13.9321C114.333 13.9321 114.36 13.9321 114.373 13.9321C115.102 13.9321 115.672 13.7862 116.083 13.5211C116.481 13.256 116.693 12.8848 116.679 12.4076C116.679 12.3944 116.679 12.3811 116.679 12.3546C116.679 12.1292 116.64 11.9304 116.547 11.7448C116.454 11.5725 116.295 11.4134 116.056 11.2543C115.818 11.1085 115.486 10.9495 115.062 10.8036C114.638 10.6578 114.081 10.4988 113.405 10.3397C112.583 10.1408 111.841 9.91549 111.165 9.7034C110.502 9.47804 109.932 9.18641 109.455 8.84176C108.978 8.4971 108.62 8.05965 108.341 7.52941C108.076 6.99917 107.93 6.33637 107.917 5.55427C107.917 5.54101 107.917 5.52775 107.917 5.5145C107.904 4.78542 108.023 4.12262 108.288 3.5261C108.553 2.92958 108.938 2.42585 109.428 1.9884C109.932 1.55095 110.529 1.21955 111.218 0.980944C111.92 0.742336 112.689 0.609776 113.538 0.609776C113.644 0.59652 113.697 0.59652 113.75 0.59652ZM113.75 0H113.604C112.703 0.013256 111.854 0.145816 111.099 0.410936C110.33 0.676056 109.667 1.04722 109.11 1.5377C108.553 2.02817 108.116 2.62469 107.811 3.28749C107.493 3.95029 107.347 4.70588 107.374 5.52775C107.4 6.45568 107.559 7.19801 107.864 7.80779C108.169 8.41756 108.606 8.93455 109.15 9.33223C109.667 9.71665 110.303 10.0348 111.019 10.2734C111.735 10.512 112.49 10.7241 113.299 10.9229C113.975 11.082 114.505 11.2278 114.903 11.3737C115.287 11.5062 115.579 11.6388 115.778 11.7581C115.977 11.8774 116.03 11.9702 116.043 12.0099C116.083 12.1027 116.109 12.222 116.109 12.3413C116.109 12.6595 116.017 12.8451 115.778 13.0041C115.473 13.203 115.009 13.309 114.399 13.3223H114.333C113.524 13.3223 112.782 13.1765 112.093 12.8848C111.364 12.5667 110.648 12.1292 109.932 11.5857L109.495 11.2146L109.123 11.6653C108.447 12.5137 107.758 13.3488 107.082 14.1839L106.711 14.6346L107.148 15.0191C108.182 15.894 109.336 16.5568 110.595 16.9809C111.801 17.3786 113.021 17.5775 114.254 17.5775H114.386C115.301 17.5642 116.162 17.4449 116.931 17.2063C117.727 16.9544 118.403 16.5965 118.973 16.1326C119.556 15.6553 120.02 15.0588 120.338 14.3695C120.669 13.6802 120.829 12.8716 120.829 11.9967C120.829 11.1748 120.696 10.4855 120.444 9.90224C120.179 9.31897 119.795 8.80199 119.278 8.3778C118.787 7.96686 118.177 7.60895 117.488 7.33057C116.812 7.0522 116.043 6.81359 115.208 6.60149C114.519 6.42916 113.949 6.27009 113.485 6.15079C113.06 6.03148 112.742 5.91218 112.517 5.77962C112.292 5.66031 112.225 5.55427 112.199 5.5145C112.146 5.40845 112.106 5.27589 112.106 5.13007C112.106 4.94449 112.133 4.75891 112.384 4.57332C112.623 4.38774 113.034 4.28169 113.591 4.28169C114.24 4.28169 114.863 4.40099 115.473 4.6396C116.136 4.90472 116.825 5.26263 117.515 5.71334L118.005 6.03148L118.336 5.55427C118.959 4.67937 119.569 3.79122 120.192 2.91632L120.524 2.43911L120.06 2.08119C119.172 1.39188 118.177 0.86164 117.104 0.503728C116.083 0.172328 114.956 0 113.75 0Z" fill="#00529C"/>
<path d="M135.344 17.2328C131.579 17.1268 127.722 17.0737 123.864 17.0472H123.559L123.665 0.503738H123.97C125.176 0.503738 126.383 0.516994 127.589 0.53025H127.894L127.735 13.2825C130.307 13.3223 132.878 13.3753 135.45 13.4416L135.755 13.4549L135.649 17.2461L135.344 17.2328Z" fill="#F7EC00"/>
<path d="M123.97 0.808598C125.176 0.808598 126.383 0.821854 127.589 0.83511C127.536 5.09029 127.483 9.34547 127.43 13.5874C130.108 13.6139 132.772 13.6802 135.45 13.7465C135.423 14.8069 135.397 15.8674 135.37 16.9412C131.539 16.8351 127.708 16.7688 123.891 16.7423C123.891 11.4267 123.93 6.111 123.97 0.808598ZM123.374 0.198822V0.795342C123.334 6.111 123.307 11.4267 123.268 16.7423V17.3388H123.864C127.708 17.3654 131.579 17.4316 135.331 17.5377L135.927 17.5509L135.94 16.9544L136.02 13.7597L136.033 13.1632L135.437 13.1499C132.812 13.0837 130.373 13.0306 128.013 13.0041L128.093 6.93287L128.172 0.848366L128.186 0.251846L127.589 0.23859C126.383 0.225334 125.176 0.212078 123.97 0.212078L123.374 0.198822Z" fill="#00529C"/>
<path d="M150.244 17.8426L150.177 17.657C149.78 16.5037 149.369 15.3505 148.971 14.1972C146.837 14.0912 144.716 13.9984 142.582 13.9056C142.078 15.0191 140.978 17.4184 140.978 17.4184L136.736 17.2726L136.921 16.8617C139.334 11.652 141.866 6.33639 144.451 1.0605L144.544 0.888168L144.742 0.901424C145.856 0.954448 146.969 0.994216 148.083 1.04724L148.282 1.0605L148.348 1.24608C150.429 6.6943 152.471 12.2221 154.419 17.6703L154.578 18.0945L150.244 17.8426ZM147.632 10.4457C147.128 9.05387 146.625 7.66199 146.121 6.27011C145.485 7.60896 144.862 8.94782 144.239 10.2867C145.365 10.3397 146.505 10.3927 147.632 10.4457Z" fill="#F7EC00"/>
<path d="M144.729 1.19304C145.843 1.24607 146.956 1.28584 148.07 1.33886C150.164 6.80033 152.179 12.2751 154.141 17.7498C152.921 17.6835 151.688 17.604 150.469 17.5377C150.045 16.3181 149.621 15.0986 149.196 13.8923C146.93 13.773 144.663 13.6669 142.396 13.5874C141.866 14.7539 141.322 15.9337 140.792 17.1003C139.599 17.0605 138.406 17.0207 137.213 16.9809C139.639 11.7051 142.157 6.44242 144.729 1.19304ZM148.07 10.7639C147.433 9.00083 146.797 7.25104 146.161 5.50125C145.365 7.19801 144.57 8.88153 143.775 10.5783C145.206 10.6313 146.638 10.6976 148.07 10.7639ZM144.358 0.583267L144.186 0.941179C141.601 6.23033 139.056 11.546 136.656 16.7556L136.272 17.5775L137.173 17.604C138.366 17.6437 139.559 17.6835 140.752 17.7233L141.15 17.7365L141.309 17.3654C141.786 16.3181 142.263 15.2709 142.741 14.2104C144.742 14.29 146.731 14.3828 148.732 14.4756C149.117 15.5626 149.501 16.6495 149.872 17.7498L150.005 18.1342L150.403 18.1607C151.622 18.227 152.855 18.2933 154.075 18.3728L154.976 18.4259L154.671 17.5775C152.722 12.1292 150.681 6.60149 148.6 1.15328L148.454 0.782107L148.07 0.768851C146.956 0.715827 145.843 0.662803 144.729 0.623035L144.358 0.583267ZM144.689 10.0083C145.153 9.01409 145.617 8.03314 146.081 7.0522C146.452 8.07291 146.824 9.10688 147.195 10.1276C146.36 10.0878 145.524 10.0481 144.689 10.0083Z" fill="#00529C"/>
<path d="M168.179 19.0887L168.099 18.9693C165.952 15.6023 163.778 12.2486 161.591 8.97432L160.901 18.5186L156.845 18.2403L157.932 1.73654L161.71 2.00166L161.79 2.12097C163.911 5.26264 166.045 8.49711 168.166 11.7713L168.948 2.57167L173.11 2.94284L171.599 19.4201L168.179 19.0887Z" fill="#F7EC00"/>
<path d="M158.21 2.04142C159.324 2.1077 160.424 2.18724 161.538 2.26678C163.871 5.71334 166.151 9.17316 168.391 12.6462C168.669 9.38525 168.948 6.12427 169.226 2.8633C170.419 2.96935 171.599 3.07539 172.792 3.18144C172.302 8.47059 171.824 13.773 171.334 19.0621C170.34 18.9693 169.345 18.8898 168.351 18.797C166.071 15.2046 163.738 11.6388 161.352 8.07291C161.114 11.4399 160.862 14.807 160.623 18.1872C159.47 18.1077 158.316 18.0282 157.163 17.9486C157.508 12.6462 157.866 7.34383 158.21 2.04142ZM157.654 1.40514L157.614 2.00166L157.057 10.406L156.567 17.9089L156.527 18.5054L157.123 18.5452C158.277 18.6247 159.43 18.7042 160.583 18.7838L161.18 18.8235L161.22 18.227L161.829 9.86247C163.844 12.8981 165.859 16 167.848 19.1152L168.007 19.367L168.298 19.3935C169.292 19.4863 170.287 19.5659 171.281 19.6587L171.877 19.7117L171.93 19.1152L172.633 11.5062L173.389 3.23447L173.442 2.63794L172.845 2.58492C171.665 2.47887 170.472 2.37282 169.279 2.26678L168.683 2.21375L168.63 2.81027L167.94 10.8434C165.978 7.82104 163.99 4.82519 162.028 1.92212L161.869 1.68351L161.577 1.657C160.464 1.57746 159.35 1.49793 158.25 1.43165L157.654 1.40514Z" fill="#00529C"/>
<path d="M183.132 20.507C182.734 20.507 182.323 20.4805 181.899 20.4408C179.831 20.2154 177.763 19.99 175.695 19.7912L175.403 19.7647L177.047 3.30074L177.339 3.32725C179.473 3.53934 181.594 3.7647 183.728 4.0033C185.054 4.14912 186.247 4.49378 187.294 5.03727C188.341 5.58077 189.216 6.27008 189.919 7.10521C190.621 7.94034 191.138 8.89477 191.443 9.92874C191.748 10.976 191.828 12.0762 191.682 13.2427C191.523 14.4358 191.178 15.4963 190.621 16.4374C190.078 17.3786 189.349 18.1872 188.487 18.8235C187.626 19.4598 186.631 19.9238 185.518 20.2287C184.762 20.4142 183.967 20.507 183.132 20.507ZM182.31 16.6893C182.535 16.7158 182.774 16.7291 182.986 16.7291C183.41 16.7291 183.821 16.676 184.205 16.5833C184.775 16.4374 185.292 16.1856 185.743 15.8409C186.181 15.4963 186.552 15.0588 186.83 14.5418C187.109 14.0248 187.294 13.4416 187.374 12.7788C187.453 12.063 187.427 11.4399 187.268 10.8699C187.122 10.3132 186.857 9.79618 186.512 9.35873C186.154 8.92128 185.703 8.55011 185.16 8.27174C184.616 7.99336 183.993 7.80778 183.304 7.72824L180.838 7.46312L179.884 16.4242L182.31 16.6893Z" fill="#F7EC00"/>
<path d="M177.312 3.61887C179.447 3.83097 181.568 4.05632 183.702 4.29493C184.988 4.44075 186.154 4.77215 187.162 5.28913C188.169 5.81937 189.017 6.48217 189.693 7.27753C190.37 8.08615 190.86 8.98756 191.165 9.99501C191.457 11.0025 191.536 12.0629 191.39 13.1765C191.39 13.1897 191.39 13.203 191.39 13.2295C191.244 14.343 190.913 15.3504 190.383 16.2651C189.853 17.1798 189.163 17.9354 188.328 18.5584C187.493 19.1682 186.525 19.6189 185.452 19.9105C184.722 20.0961 183.954 20.2021 183.145 20.2021C182.747 20.2021 182.35 20.1756 181.939 20.1359C179.871 19.9105 177.803 19.6852 175.735 19.4863C176.252 14.1972 176.782 8.90802 177.312 3.61887ZM182.999 17.034C183.45 17.034 183.887 16.9809 184.298 16.8749C184.921 16.7158 185.465 16.4507 185.942 16.0795C186.419 15.7084 186.804 15.2444 187.109 14.6876C187.413 14.1309 187.599 13.5079 187.679 12.8185C187.679 12.8053 187.679 12.792 187.679 12.7788C187.758 12.063 187.732 11.4134 187.559 10.8036C187.4 10.1939 187.122 9.65036 186.737 9.1864C186.353 8.70918 185.876 8.32476 185.292 8.01987C184.722 7.71498 184.06 7.5294 183.331 7.4366C182.403 7.33056 181.488 7.23776 180.56 7.13172C180.229 10.3132 179.884 13.5079 179.553 16.6893C180.467 16.7821 181.369 16.8881 182.27 16.9809C182.522 17.0207 182.761 17.034 182.999 17.034ZM176.769 2.96933L176.716 3.56585L175.138 19.4333L175.085 20.0298L175.682 20.0828C177.75 20.2949 179.818 20.507 181.886 20.7324C182.323 20.7854 182.747 20.7987 183.158 20.7987C184.02 20.7987 184.842 20.6926 185.611 20.4938C186.764 20.1889 187.798 19.6984 188.686 19.0489C189.587 18.3861 190.343 17.5509 190.913 16.57C191.483 15.589 191.854 14.5021 192 13.309C192.159 12.063 192.066 10.9097 191.748 9.83594C191.43 8.74895 190.9 7.768 190.157 6.89311C189.428 6.03147 188.514 5.31564 187.44 4.75889C186.366 4.20214 185.12 3.84423 183.768 3.69841C181.634 3.4598 179.5 3.23445 177.379 3.02235L176.769 2.96933ZM180.215 16.1591L180.825 10.4722L181.104 7.79452C181.833 7.87405 182.548 7.95359 183.278 8.03312C183.927 8.11266 184.524 8.27173 185.027 8.55011C185.531 8.81523 185.955 9.15989 186.287 9.55757C186.618 9.9685 186.857 10.4325 186.989 10.9494C187.135 11.4797 187.162 12.063 187.082 12.6992C187.002 13.3753 186.83 13.9188 186.578 14.396C186.313 14.8732 185.982 15.2842 185.571 15.6023C185.16 15.9204 184.683 16.1591 184.152 16.2916C183.795 16.3844 183.41 16.4374 183.012 16.4374C182.8 16.4374 182.588 16.4242 182.363 16.3977C181.634 16.3181 180.931 16.2386 180.215 16.1591Z" fill="#00529C"/>
<path d="M122.34 104.378C121.902 104.378 121.518 104.312 121.16 104.192C120.802 104.073 120.51 103.874 120.258 103.635C120.007 103.384 119.821 103.079 119.688 102.708C119.556 102.336 119.49 101.912 119.49 101.422V97.5642H120.669V101.382C120.669 102.005 120.815 102.482 121.12 102.814C121.425 103.145 121.836 103.304 122.366 103.304C122.896 103.304 123.307 103.145 123.599 102.84C123.904 102.522 124.05 102.058 124.05 101.435V97.5642H125.229V101.369C125.229 101.872 125.163 102.31 125.017 102.681C124.885 103.052 124.686 103.37 124.434 103.622C124.182 103.874 123.877 104.06 123.533 104.192C123.175 104.325 122.79 104.378 122.34 104.378Z" fill="#00529C"/>
<path d="M126.754 97.5642H127.854L131.447 102.204V97.5642H132.613V104.285H131.619L127.92 99.5129V104.285H126.754V97.5642V97.5642Z" fill="#00529C"/>
<path d="M134.23 97.5642H139.228V98.6512H135.41V100.467H138.79V101.554H135.41V104.285H134.23V97.5642Z" fill="#00529C"/>
<path d="M140.5 97.5642H141.68V104.285H140.5V97.5642Z" fill="#00529C"/>
<path d="M143.377 97.5642H144.557V103.198H148.083V104.285H143.377V97.5642Z" fill="#00529C"/>
<path d="M149.912 98.6512H147.778V97.5642H153.213V98.6512H151.079V104.285H149.899V98.6512H149.912Z" fill="#00529C"/>
<path d="M154.379 97.5642H159.364V98.6247H155.559V100.374H158.926V101.435H155.559V103.238H159.403V104.298H154.379V97.5642Z" fill="#00529C"/>
<path d="M160.716 97.5642H163.712C164.136 97.5642 164.507 97.6305 164.838 97.7366C165.17 97.8559 165.435 98.0149 165.66 98.227C165.846 98.4126 165.978 98.6247 166.071 98.8633C166.164 99.1019 166.217 99.3803 166.217 99.6719V99.6852C166.217 100.242 166.071 100.679 165.766 101.011C165.475 101.342 165.09 101.581 164.613 101.713L166.429 104.259H165.037L163.38 101.912H163.367H161.909V104.259H160.729V97.5642H160.716ZM163.619 100.878C164.043 100.878 164.374 100.772 164.626 100.573C164.878 100.374 164.998 100.096 164.998 99.7647V99.7382C164.998 99.3803 164.878 99.1019 164.626 98.9163C164.388 98.7308 164.043 98.638 163.606 98.638H161.896V100.878H163.619Z" fill="#00529C"/>
<path d="M167.556 97.5642H172.54V98.6247H168.736V100.374H172.103V101.435H168.736V103.238H172.58V104.298H167.556V97.5642V97.5642Z" fill="#00529C"/>
<path d="M173.879 97.5642H176.384C176.915 97.5642 177.392 97.657 177.829 97.8161C178.267 97.9884 178.638 98.227 178.956 98.5187C179.274 98.8235 179.513 99.1682 179.685 99.5791C179.857 99.9901 179.95 100.428 179.95 100.905V100.918C179.95 101.395 179.857 101.833 179.685 102.244C179.513 102.655 179.274 103.012 178.956 103.304C178.638 103.609 178.267 103.848 177.829 104.02C177.392 104.192 176.915 104.285 176.384 104.285H173.879V97.5642ZM176.384 103.198C176.729 103.198 177.06 103.145 177.339 103.026C177.63 102.92 177.869 102.761 178.068 102.562C178.267 102.363 178.426 102.124 178.532 101.846C178.638 101.568 178.704 101.263 178.704 100.945V100.931C178.704 100.6 178.651 100.308 178.532 100.03C178.426 99.7515 178.267 99.5128 178.068 99.314C177.869 99.1152 177.617 98.9561 177.339 98.8368C177.047 98.7175 176.729 98.6645 176.384 98.6645H175.059V103.211H176.384V103.198Z" fill="#00529C"/>
<path d="M186.446 97.5112H187.546L190.502 104.272H189.256L188.58 102.655H185.412L184.722 104.272H183.516L186.446 97.5112ZM188.129 101.607L186.963 98.9163L185.809 101.607H188.129Z" fill="#00529C"/>
<path d="M191.549 97.5642H192.729V103.198H196.255V104.285H191.549V97.5642V97.5642Z" fill="#00529C"/>
<path d="M197.395 97.5642H202.379V98.6247H198.575V100.374H201.942V101.435H198.575V103.238H202.419V104.298H197.395V97.5642Z" fill="#00529C"/>
<path d="M17.5112 91.4267C14.5021 91.4267 11.493 90.9097 8.58989 89.8757C5.68683 88.8417 3.00912 87.2378 0.63629 85.1035L0.424194 84.9047L5.91218 78.343L6.13753 78.5286C7.91384 79.9735 9.74317 81.1267 11.599 81.9619C13.4416 82.797 15.483 83.2212 17.6835 83.2212C19.4068 83.2212 20.7589 82.9031 21.7001 82.2933C22.6148 81.6835 23.0522 80.8749 23.0522 79.8144C23.0522 79.1914 22.9594 78.7274 22.7738 78.343C22.5882 77.9586 22.2303 77.6006 21.7001 77.256C21.1433 76.8981 20.348 76.5269 19.3405 76.1557C18.3198 75.7846 16.9809 75.3869 15.3505 74.9892C13.3753 74.4722 11.546 73.9022 9.9155 73.319C8.28501 72.7224 6.86661 71.9801 5.7266 71.0787C4.57332 70.164 3.65866 69.024 3.02237 67.6719C2.38608 66.3198 2.06794 64.6363 2.06794 62.6479C2.06794 60.6992 2.4126 59.029 3.10191 57.5443C3.79122 56.0729 4.75891 54.7738 5.99172 53.7001C7.22453 52.6263 8.7092 51.7912 10.4192 51.2212C12.116 50.6512 14.0249 50.3596 16.0663 50.3596C18.9693 50.3596 21.6736 50.797 24.1127 51.6586C26.5518 52.5203 28.8186 53.7796 30.8467 55.3836L31.0721 55.5559L26.2469 62.5286L25.995 62.3562C24.2585 61.1765 22.5352 60.2353 20.8782 59.5592C19.2345 58.8832 17.5775 58.5385 15.9337 58.5385C14.3297 58.5385 13.1102 58.8434 12.3281 59.4532C11.5592 60.063 11.1748 60.7788 11.1748 61.6669C11.1748 62.3562 11.2809 62.8732 11.5062 63.2974C11.7183 63.7084 12.1292 64.0928 12.7125 64.4507C13.3355 64.8086 14.1972 65.1665 15.2709 65.4979C16.3712 65.8293 17.7631 66.227 19.4598 66.6777C21.4747 67.2079 23.2776 67.8177 24.8152 68.4673C26.3927 69.1301 27.7448 69.9387 28.8318 70.8799C29.9321 71.821 30.7672 72.9478 31.3372 74.2204C31.894 75.4929 32.1856 77.0306 32.1856 78.7804C32.1856 80.8749 31.8144 82.6644 31.0986 84.2287C30.3695 85.7796 29.3488 87.1052 28.063 88.1524C26.7771 89.1997 25.2129 90.0215 23.4366 90.565C21.6471 91.1483 19.6587 91.4267 17.5112 91.4267Z" fill="#00529C"/>
<path d="M16.053 50.7042C18.9296 50.7042 21.5808 51.1284 23.9934 51.9768C26.406 52.8252 28.633 54.058 30.6479 55.662L26.1541 62.1574C24.3911 60.9644 22.6678 60.0099 20.9843 59.3206C19.3007 58.6313 17.6172 58.2734 15.9337 58.2734C14.2502 58.2734 12.9909 58.6048 12.1425 59.2543C11.3074 59.9171 10.8832 60.7257 10.8832 61.7067V61.8127C10.8832 62.449 11.0025 63.0058 11.2544 63.4697C11.493 63.9337 11.9437 64.3579 12.58 64.7423C13.2162 65.1135 14.0911 65.4714 15.1914 65.8161C16.3049 66.1475 17.6968 66.5451 19.3803 66.9958C21.3687 67.5261 23.145 68.1093 24.6959 68.7721C26.2601 69.4217 27.5725 70.217 28.633 71.1317C29.7067 72.0464 30.5153 73.1334 31.0588 74.3662C31.6023 75.599 31.8807 77.0837 31.8807 78.8069V78.913C31.8807 80.8616 31.5228 82.5982 30.8202 84.1093C30.1176 85.6338 29.1234 86.9064 27.8641 87.9271C26.6048 88.961 25.0936 89.7431 23.3306 90.2866C21.5808 90.8301 19.6321 91.1085 17.4979 91.1085C14.5021 91.1085 11.5592 90.5915 8.68269 89.5708C5.80613 88.5501 3.18144 86.9859 0.821872 84.8649L5.92544 78.7539C7.72825 80.2121 9.57084 81.3786 11.4532 82.227C13.3488 83.0886 15.4167 83.5128 17.657 83.5128C19.4598 83.5128 20.8517 83.1814 21.8459 82.5319C22.8401 81.8691 23.3306 80.9677 23.3306 79.8011V79.6951C23.3306 79.1383 23.2245 78.6346 23.0257 78.2104C22.8136 77.773 22.4292 77.3753 21.8459 77.0041C21.2626 76.633 20.454 76.2485 19.4201 75.8774C18.3861 75.4929 17.0472 75.1085 15.3902 74.6976C13.4018 74.1673 11.599 73.6238 9.98177 73.0406C8.36454 72.4573 6.99917 71.7282 5.87241 70.8401C4.74565 69.9519 3.87075 68.8649 3.26098 67.5526C2.63795 66.2402 2.33306 64.6098 2.33306 62.6611V62.5683C2.33306 60.7655 2.66446 59.1483 3.34051 57.7034C4.00331 56.2585 4.94449 55.0124 6.16404 53.9652C7.37034 52.918 8.81525 52.1093 10.4988 51.5526C12.1823 50.9958 14.0249 50.7042 16.053 50.7042ZM16.053 50.1077C13.9718 50.1077 12.0497 50.3993 10.3132 50.9826C8.56338 51.5658 7.03894 52.4275 5.77962 53.5145C4.50704 54.6147 3.51284 55.9403 2.81027 57.4515C2.10771 58.976 1.74979 60.686 1.74979 62.5683V62.6744C1.74979 64.7025 2.08119 66.4391 2.73074 67.8177C3.38028 69.2096 4.32146 70.3894 5.5145 71.3306C6.69428 72.2452 8.12593 73.0141 9.79619 73.6106C11.4399 74.1938 13.2693 74.7639 15.2577 75.2808C16.8882 75.6918 18.227 76.0762 19.2345 76.4474C20.2154 76.8053 20.9975 77.1632 21.5278 77.5078C22.0182 77.8127 22.3364 78.1441 22.4954 78.4755C22.6678 78.8202 22.7473 79.2444 22.7473 79.7083V79.8144C22.7473 80.7688 22.3496 81.4979 21.5278 82.0414C20.6396 82.6247 19.3405 82.9296 17.6703 82.9296C15.5228 82.9296 13.5079 82.5186 11.7183 81.6967C9.88898 80.8616 8.07291 79.7216 6.32312 78.3032L5.85916 77.932L5.47473 78.3827L0.371168 84.4938L0 84.9445L0.424192 85.3289C2.82353 87.4896 5.54101 89.1069 8.48384 90.1541C11.4134 91.2013 14.449 91.7183 17.4979 91.7183C19.6852 91.7183 21.7001 91.4399 23.5029 90.8699C25.319 90.2999 26.9097 89.478 28.2353 88.4043C29.5609 87.3306 30.6081 85.9652 31.3505 84.3745C32.0928 82.7837 32.464 80.9412 32.464 78.913V78.8069C32.464 77.0041 32.1723 75.4267 31.6023 74.1276C31.0323 72.8152 30.1574 71.6487 29.0174 70.681C27.9039 69.7266 26.5253 68.8914 24.9213 68.2154C23.3703 67.5526 21.5543 66.9561 19.5261 66.4126C17.8691 65.9751 16.464 65.5774 15.3505 65.2328C14.3032 64.9146 13.4681 64.57 12.8583 64.2253C12.3281 63.9072 11.9569 63.5625 11.7581 63.2046C11.5592 62.8202 11.4664 62.3562 11.4664 61.826V61.7199C11.4664 60.9378 11.7978 60.2883 12.5004 59.7448C13.2295 59.1748 14.3828 58.8832 15.9205 58.8832C17.5112 58.8832 19.1417 59.2146 20.7457 59.8774C22.3761 60.5402 24.0729 61.4813 25.7962 62.6479L26.2867 62.9793L26.6313 62.4888L31.1251 55.9934L31.4432 55.5294L31.0058 55.1847C28.9379 53.5542 26.6446 52.2817 24.179 51.4068C21.7266 50.5451 18.9826 50.1077 16.053 50.1077Z" fill="#F7EC00"/>
<path d="M63.6951 90.8699V75.082H48.3579V90.8699H39.1052V50.9561H48.3579V66.5187H63.6951V50.9561H72.9478V90.8699H63.6951Z" fill="#00529C"/>
<path d="M72.6429 51.261V90.565H64V74.7904H48.053V90.565H39.4101V51.261H48.053V66.8103H64V51.261H72.6429ZM73.2394 50.6645H72.6429H64H63.4035V51.261V66.2138H48.6496V51.261V50.6645H48.053H39.4101H38.8136V51.261V90.565V91.1616H39.4101H48.053H48.6496V90.565V75.3869H63.3902V90.565V91.1616H63.9868H72.6297H73.2262V90.565V51.261V50.6645H73.2394Z" fill="#F7EC00"/>
<path d="M146.903 90.8699L128.318 66.4656V90.8699H119.185V50.9561H127.602L145.577 74.565V50.9561H154.711V90.8699H146.903Z" fill="#00529C"/>
<path d="M154.406 51.261V90.565H147.049L128.013 65.5775V90.565H119.476V51.261H127.443L145.856 75.4532V51.261H154.406ZM155.003 50.6645H154.406H145.869H145.273V51.261V73.6769L127.934 50.9031L127.748 50.6645H127.457H119.49H118.893V51.261V90.565V91.1616H119.49H128.027H128.623V90.565V67.3538L146.585 90.9229L146.771 91.1616H147.062H154.419H155.016V90.565V51.261V50.6645H155.003Z" fill="#F7EC00"/>
<path d="M163.539 90.8699V50.9694H179.168C182.297 50.9694 185.186 51.4731 187.758 52.4805C190.33 53.4747 192.57 54.8931 194.452 56.6694C196.335 58.4457 197.793 60.58 198.814 62.9793C199.834 65.3786 200.351 68.0166 200.351 70.8136C200.351 73.7299 199.834 76.3679 198.814 78.7937C197.793 81.2196 196.321 83.3405 194.452 85.1301C192.583 86.9064 190.33 88.3248 187.758 89.3455C185.186 90.3662 182.297 90.8832 179.168 90.8832H163.539V90.8699ZM179.168 82.4524C180.878 82.4524 182.469 82.174 183.887 81.6305C185.306 81.087 186.525 80.2916 187.546 79.2842C188.567 78.2635 189.349 77.0439 189.892 75.652C190.436 74.2602 190.714 72.696 190.714 71.0124C190.714 69.1831 190.436 67.6056 189.892 66.2138C189.349 64.8219 188.567 63.6023 187.546 62.5816C186.539 61.5742 185.306 60.7655 183.887 60.2088C182.469 59.652 180.878 59.3604 179.168 59.3604H172.792V82.4524H179.168Z" fill="#00529C"/>
<path d="M179.168 51.261C182.27 51.261 185.094 51.7515 187.639 52.7457C190.184 53.7399 192.384 55.1185 194.24 56.8683C196.096 58.6313 197.528 60.6993 198.535 63.0721C199.543 65.4449 200.046 68.0166 200.046 70.7871V70.8931C200.046 73.6636 199.543 76.2486 198.535 78.6479C197.528 81.0472 196.096 83.1152 194.24 84.8782C192.384 86.6413 190.184 88.0199 187.639 89.0273C185.094 90.0348 182.27 90.5385 179.168 90.5385H163.844V51.261H179.168ZM172.487 82.7572H179.168C180.931 82.7572 182.535 82.4789 183.993 81.9221C185.452 81.3654 186.711 80.5568 187.758 79.5095C188.805 78.4623 189.614 77.2162 190.171 75.7713C190.727 74.3264 191.019 72.749 191.019 71.0257V70.9196C191.019 69.1566 190.741 67.5659 190.171 66.121C189.614 64.6761 188.805 63.43 187.758 62.3828C186.711 61.3355 185.452 60.5269 183.993 59.9437C182.535 59.3604 180.918 59.0688 179.168 59.0688H172.487V82.7572ZM179.168 50.6645H163.844H163.248V51.261V90.565V91.1616H163.844H179.168C182.336 91.1616 185.266 90.6313 187.864 89.5973C190.462 88.5634 192.756 87.1185 194.651 85.3157C196.56 83.4996 198.058 81.3389 199.092 78.8865C200.126 76.4341 200.656 73.7432 200.656 70.9064V70.8003C200.656 67.9635 200.126 65.2858 199.092 62.8467C198.058 60.4076 196.56 58.2469 194.651 56.4441C192.742 54.6413 190.462 53.2096 187.864 52.1889C185.266 51.1814 182.336 50.6645 179.168 50.6645ZM173.084 59.6653H179.168C180.838 59.6653 182.389 59.9437 183.781 60.4872C185.16 61.0307 186.353 61.8128 187.334 62.7937C188.315 63.7879 189.084 64.9677 189.614 66.3198C190.144 67.6852 190.423 69.2229 190.423 70.9064V71.0124C190.423 72.6562 190.157 74.1806 189.614 75.5327C189.084 76.8848 188.315 78.0779 187.334 79.0588C186.353 80.0398 185.16 80.8086 183.781 81.3389C182.389 81.8691 180.838 82.1342 179.168 82.1342H173.084V59.6653Z" fill="#F7EC00"/>
<path d="M214.867 90.8699V75.1616L199.503 50.9561H210.333L219.546 66.4524L228.918 50.9561H239.457L224.106 74.9892V90.8699H214.867Z" fill="#00529C"/>
<path d="M238.913 51.261L223.801 74.8964V90.565H215.158V75.0688L200.046 51.261H210.147L219.533 67.0356L229.077 51.261H238.913ZM240 50.6645H238.9H229.077H228.746L228.573 50.9561L219.546 65.8824L210.678 50.9693L210.505 50.6777H210.161H200.06H198.973L199.556 51.5924L214.575 75.2543V90.5783V91.1748H215.172H223.814H224.411V90.5783V75.0688L239.417 51.5791L240 50.6645Z" fill="#F7EC00"/>
<path d="M83.1947 108.567C82.9296 108.567 82.7042 108.368 82.6777 108.103C82.638 107.745 79.2974 72.6297 80.8749 58.1143C82.4524 43.5857 86.7606 34.7307 96.2254 26.5385C96.3182 26.459 96.4375 26.4192 96.5568 26.4192C96.6761 26.4192 96.7954 26.459 96.8882 26.5385C106.353 34.7307 110.661 43.5857 112.239 58.1143C113.816 72.6429 110.462 107.758 110.436 108.103C110.409 108.368 110.184 108.567 109.919 108.567H83.1947Z" fill="#F7EC00"/>
<path d="M83.1947 109.375C82.5054 109.375 81.9354 108.858 81.8691 108.169C81.7233 106.724 78.4623 72.7092 80.0663 58.0082C81.6702 43.2543 86.0447 34.2535 95.6818 25.9022C95.9205 25.6901 96.2253 25.5708 96.5435 25.5708C96.8616 25.5708 97.1665 25.6901 97.4184 25.9022C107.055 34.2535 111.43 43.2543 113.034 58.0082C114.611 72.5501 111.377 106.724 111.231 108.169C111.165 108.858 110.595 109.375 109.906 109.375H83.1947Z" fill="#F7EC00"/>
<path d="M96.5567 25.889C96.7953 25.889 97.034 25.9685 97.2328 26.1408C106.804 34.4258 111.152 43.3736 112.756 58.048C114.333 72.6164 111.085 106.698 110.953 108.142C110.9 108.673 110.462 109.07 109.932 109.07H96.5567H83.1947C82.6644 109.07 82.227 108.673 82.174 108.142C82.0282 106.698 78.7804 72.6164 80.3712 58.048C81.9619 43.3736 86.3098 34.4258 95.8939 26.1408C96.0795 25.9818 96.3181 25.889 96.5567 25.889ZM96.5567 25.2924C96.1723 25.2924 95.7879 25.4383 95.4963 25.6901C85.7929 34.0944 81.3919 43.1483 79.7746 57.9818C78.1707 72.7092 81.4449 106.764 81.5775 108.196C81.657 109.031 82.3596 109.667 83.1947 109.667H96.5567H109.919C110.754 109.667 111.456 109.031 111.536 108.196C111.669 106.751 114.916 72.5501 113.339 57.9685C111.722 43.135 107.321 34.0812 97.6172 25.6769C97.3256 25.4383 96.9544 25.2924 96.5567 25.2924Z" fill="#F7EC00"/>
<path d="M96.5567 26.9229C105.717 34.85 110.144 43.5327 111.722 58.1674C113.312 72.802 109.919 108.05 109.919 108.05H96.5567H83.1947C83.1947 108.05 79.8011 72.802 81.3919 58.1674C82.9826 43.5327 87.3968 34.85 96.5567 26.9229ZM96.5567 25.889C96.3181 25.889 96.0795 25.9685 95.8807 26.1408C86.3098 34.4258 81.9619 43.3737 80.3579 58.0481C78.7804 72.6164 82.0282 106.698 82.1607 108.143C82.2137 108.673 82.6512 109.07 83.1814 109.07H96.5435H109.906C110.436 109.07 110.873 108.673 110.926 108.143C111.059 106.698 114.307 72.6164 112.729 58.0481C111.138 43.3737 106.79 34.4258 97.2063 26.1408C97.034 25.9818 96.7953 25.889 96.5567 25.889Z" fill="#00529C"/>
<path d="M83.778 108.553C83.5261 108.553 83.314 108.355 83.2875 108.103C83.261 107.758 80.053 73.4117 81.5642 59.2145C83.0091 45.5741 86.8534 37.7928 96.2386 29.4813C96.3314 29.4018 96.4507 29.362 96.57 29.362C96.6893 29.362 96.8086 29.4018 96.9014 29.4813C106.287 37.7928 110.118 45.5741 111.576 59.2145C113.087 73.4117 109.879 107.758 109.853 108.103C109.826 108.355 109.614 108.553 109.362 108.553H83.778Z" fill="#F7EC00"/>
<path d="M96.5567 29.8392C105.319 37.594 109.534 44.9378 111.059 59.2543C112.583 73.5708 109.336 108.05 109.336 108.05H96.5567H83.778C83.778 108.05 80.5302 73.5708 82.0547 59.2543C83.5791 44.9511 87.7945 37.6073 96.5567 29.8392ZM96.5567 28.845C96.3181 28.845 96.0795 28.9246 95.8939 29.0969C86.4026 37.5012 82.5186 45.3753 81.0605 59.1483C79.5493 73.3985 82.6512 106.724 82.7838 108.142C82.8368 108.659 83.261 109.044 83.778 109.044H96.5567H109.336C109.853 109.044 110.277 108.659 110.33 108.142C110.462 106.724 113.564 73.3985 112.053 59.1483C110.582 45.362 106.711 37.5012 97.2195 29.0969C97.034 28.9378 96.7954 28.845 96.5567 28.845Z" fill="#00529C"/>
<path d="M96.5567 33.9619C105.544 41.7166 109.879 49.0605 111.43 63.377C111.669 65.604 111.801 68.3082 111.841 71.304C111.894 66.691 111.788 62.4755 111.43 59.2676C109.866 44.9511 105.531 37.6073 96.5567 29.8525C87.5692 37.6073 83.2345 44.9511 81.6835 59.2676C81.3389 62.4755 81.2328 66.691 81.2858 71.304C81.3256 68.3082 81.4449 65.604 81.6835 63.377C83.2345 49.0605 87.5692 41.7166 96.5567 33.9619Z" fill="#00529C"/>
<path d="M112.756 77.6404C112.756 76.9776 105.505 76.4474 96.5567 76.4474C87.6089 76.4474 80.3579 76.9776 80.3579 77.6404C80.3579 78.3032 87.6089 78.8335 96.5567 78.8335C105.505 78.8467 112.756 78.3032 112.756 77.6404Z" fill="#00529C"/>
<path d="M96.5567 29.8392V108.05" stroke="#00529C" stroke-width="0.4523" stroke-miterlimit="10"/>
<path d="M110.94 52.5733C110.94 50.9428 104.497 49.6172 96.5568 49.6172C88.6164 49.6172 82.174 50.9428 82.174 52.5733C82.174 54.2038 83.1284 55.5294 96.5568 55.5294C109.985 55.5294 110.94 54.2038 110.94 52.5733Z" fill="#00529C"/>
<path d="M82.2138 52.8384L84.0564 46.3297H109.057L110.9 52.8384H82.2138Z" fill="#F7EC00"/>
<path d="M108.766 46.7141L110.383 52.454H82.7307L84.348 46.7141H108.766ZM109.349 45.9453H83.7647L81.71 53.2228H111.403L109.349 45.9453Z" fill="#00529C"/>
<path d="M81.1268 76.8583L80.9279 69.9122H112.212L111.987 76.8583H81.1268Z" fill="#F7EC00"/>
<path d="M111.218 70.8666L111.059 75.9039H82.0547L81.9089 70.8666H111.218ZM113.193 68.9445H79.9337L80.1856 77.8127H112.915L113.193 68.9445Z" fill="#00529C"/>
<path d="M110.648 97.7763H82.4524V100.388H110.648V97.7763Z" fill="#00529C"/>
<path d="M110.648 105.942H82.4524V108.553H110.648V105.942Z" fill="#00529C"/>
<path d="M82.8103 99.0621L82.3331 92.5534H110.78L110.303 99.0621H82.8103Z" fill="#F7EC00"/>
<path d="M110.356 92.9378L109.932 98.6777H83.1682L82.744 92.9378H110.356ZM111.191 92.169H81.9221L82.4524 99.4465H110.648L111.191 92.169Z" fill="#00529C"/>
<path d="M96.2916 105.173H95.0058V107.612H96.2916V105.173Z" fill="#F7EC00"/>
<path d="M83.0622 82.6247C83.0489 82.2402 82.7705 81.9353 82.4259 81.8558C82.1873 81.7895 81.9619 81.5774 81.9487 81.3123L81.9221 80.8218L81.2196 80.8484L81.3786 84.5733L82.0812 84.5468L82.0547 84.0563C82.0414 83.7779 82.2535 83.5526 82.4789 83.4598C82.8368 83.3405 83.0754 83.0091 83.0622 82.6247Z" fill="#00529C"/>
<path d="M110.051 82.6247C110.065 82.2402 110.33 81.9353 110.688 81.8558C110.926 81.7895 111.152 81.5774 111.165 81.3123L111.191 80.8218L111.894 80.8484L111.722 84.5733L111.019 84.5468L111.046 84.0563C111.059 83.7779 110.86 83.5526 110.621 83.4598C110.277 83.3405 110.025 83.0091 110.051 82.6247Z" fill="#00529C"/>
</svg>
