<svg width="178" height="132" viewBox="0 0 178 132" fill="none" xmlns="http://www.w3.org/2000/svg">
<path d="M20.7495 114.889C19.9766 113.907 19.0518 113.128 17.9812 112.545C16.9106 111.963 15.8463 111.671 14.8011 111.671C13.5911 111.671 12.4952 111.975 11.5006 112.577C10.506 113.179 9.72682 114.015 9.15668 115.073C8.58655 116.131 8.30148 117.315 8.30148 118.614C8.30148 119.913 8.58655 121.091 9.15668 122.155C9.72682 123.213 10.506 124.049 11.5006 124.651C12.4952 125.253 13.5911 125.557 14.8011 125.557C15.783 125.557 16.8092 125.304 17.8798 124.803C18.9504 124.303 19.907 123.619 20.7558 122.751L24.4174 126.685C23.1187 128.053 21.573 129.143 19.7803 129.954C17.9875 130.764 16.2137 131.17 14.459 131.17C12.0897 131.17 9.94221 130.625 8.02908 129.529C6.11595 128.433 4.60825 126.938 3.51231 125.05C2.41638 123.163 1.87158 121.034 1.87158 118.69C1.87158 116.365 2.42905 114.268 3.55032 112.393C4.6716 110.518 6.1983 109.055 8.14944 107.978C10.1006 106.901 12.2798 106.369 14.6997 106.369C16.4798 106.369 18.2346 106.736 19.9703 107.477C21.7061 108.219 23.1758 109.226 24.3857 110.506L20.7495 114.889Z" fill="#111D32"/>
<path d="M36.3459 121.693H42.9849L39.7034 113.141L36.3459 121.693ZM46.4691 130.726L44.8283 126.482H34.4645L32.7857 130.726H26.3558L36.65 106.749H43.0799L53.1397 130.726H46.4691Z" fill="#111D32"/>
<path d="M57.3524 106.743H64.156L71.099 120.768L78.0104 106.743H84.8204V130.726H79.2773L79.2457 115.535L73.1199 128.332H69.0845L62.927 115.535V130.726H57.3524V106.743Z" fill="#111D32"/>
<path d="M101.754 119.096C103.033 119.096 104.015 118.779 104.712 118.139C105.409 117.499 105.757 116.574 105.757 115.371C105.757 114.205 105.409 113.312 104.712 112.685C104.015 112.058 103.033 111.741 101.754 111.741H97.7879V119.096H101.754ZM102.058 106.743C105.111 106.743 107.487 107.477 109.172 108.947C110.857 110.417 111.706 112.488 111.706 115.155C111.706 117.981 110.863 120.179 109.172 121.744C107.487 123.308 105.111 124.087 102.058 124.087H97.7816V130.726H91.5227V106.743H102.058Z" fill="#111D32"/>
<path d="M139.452 106.743H145.268V130.726H139.794L128.911 116.391V130.726H123.064V106.743H128.569L139.484 121.18L139.452 106.743Z" fill="#111D32"/>
<path d="M150.975 106.743H169.898V111.741H157.241V116.22H168.662V121.18L157.241 121.218V125.728H170.24V130.726H150.975V106.743Z" fill="#111D32"/>
<path d="M155.657 3.35115V4.6498H158.337V6.08781H155.657V7.57017H158.831V9.0652H154.979H153.813V1.85612H158.85V3.35115H155.657Z" fill="#111D32"/>
<path d="M162.461 6.1575C161.973 5.99279 161.555 5.81541 161.2 5.61903C160.845 5.42899 160.56 5.18193 160.332 4.87785C160.104 4.57378 159.99 4.21903 159.99 3.79459C159.99 3.37649 160.11 3.0154 160.351 2.71133C160.592 2.40725 160.928 2.16653 161.358 2.00182C161.789 1.83711 162.271 1.75476 162.809 1.75476C163.335 1.75476 163.804 1.84345 164.209 2.02083C164.621 2.1982 164.938 2.45793 165.172 2.79368C165.406 3.12943 165.52 3.53486 165.52 4.00364H163.677C163.677 3.76292 163.601 3.56653 163.442 3.42083C163.284 3.27513 163.056 3.20545 162.765 3.20545C162.568 3.20545 162.397 3.23079 162.258 3.2878C162.118 3.34481 162.011 3.42083 161.935 3.50952C161.865 3.59821 161.827 3.69957 161.827 3.80726C161.827 3.99097 161.935 4.14301 162.144 4.2697C162.353 4.3964 162.676 4.53577 163.107 4.67514C163.905 4.93487 164.5 5.25161 164.912 5.6317C165.318 6.01179 165.52 6.50591 165.52 7.09506C165.52 7.53216 165.413 7.89959 165.191 8.21C164.969 8.51407 164.659 8.74846 164.253 8.90683C163.848 9.0652 163.379 9.14756 162.834 9.14756C162.302 9.14756 161.808 9.05887 161.339 8.88149C160.877 8.70411 160.497 8.43172 160.205 8.05162C159.914 7.67787 159.768 7.20275 159.768 6.63261H161.624C161.624 6.89868 161.669 7.11406 161.757 7.2661C161.846 7.42447 161.979 7.53216 162.15 7.59551C162.328 7.65886 162.549 7.69054 162.828 7.69054C163.113 7.69054 163.328 7.63352 163.461 7.51949C163.601 7.40547 163.664 7.2661 163.664 7.10139C163.664 6.96203 163.633 6.84166 163.576 6.7403C163.518 6.64528 163.398 6.54392 163.227 6.4489C163.056 6.35388 162.809 6.27152 162.461 6.1575Z" fill="#111D32"/>
<path d="M172.641 3.35115H170.493V9.0652H168.643V3.35115H166.547V1.85612H172.641V3.35115Z" fill="#111D32"/>
<path d="M173.547 7.2851C173.737 7.2851 173.901 7.32311 174.047 7.40547C174.193 7.48782 174.307 7.59551 174.389 7.72854C174.472 7.86791 174.516 8.01995 174.516 8.19732C174.516 8.3747 174.472 8.52674 174.389 8.66611C174.307 8.80547 174.193 8.91316 174.047 8.99552C173.901 9.07787 173.73 9.11588 173.547 9.11588C173.363 9.11588 173.192 9.07787 173.046 8.99552C172.9 8.91316 172.786 8.80547 172.704 8.66611C172.622 8.52674 172.577 8.36837 172.577 8.19732C172.577 8.02628 172.622 7.86791 172.704 7.72854C172.786 7.58918 172.9 7.48148 173.046 7.40547C173.192 7.32945 173.357 7.2851 173.547 7.2851Z" fill="#111D32"/>
<path d="M155.746 19.201V14.0887L154.13 14.5132V13.1258L157.361 12.0046H157.519V19.201H155.746Z" fill="#111D32"/>
<path d="M162.67 17.8643C162.891 17.8643 163.075 17.7883 163.214 17.6426C163.354 17.4969 163.423 17.2942 163.423 17.0408C163.423 16.7811 163.354 16.5784 163.221 16.439C163.081 16.2996 162.898 16.2299 162.663 16.2299C162.429 16.2299 162.239 16.2996 162.1 16.439C161.96 16.5784 161.89 16.7747 161.89 17.0408C161.89 17.2942 161.96 17.4906 162.106 17.6426C162.252 17.7883 162.442 17.8643 162.67 17.8643ZM162.657 13.3222C162.454 13.3222 162.302 13.3856 162.201 13.5059C162.1 13.6326 162.042 13.81 162.042 14.0381C162.042 14.2725 162.093 14.4562 162.201 14.5955C162.309 14.7286 162.461 14.7983 162.67 14.7983C162.872 14.7983 163.031 14.7286 163.132 14.5955C163.233 14.4625 163.29 14.2788 163.29 14.0381C163.29 13.81 163.24 13.6326 163.132 13.5059C163.024 13.3856 162.866 13.3222 162.657 13.3222ZM164.12 15.4888C164.462 15.6535 164.728 15.8879 164.919 16.1793C165.109 16.4707 165.204 16.8127 165.204 17.2055C165.204 17.6616 165.096 18.048 164.881 18.3585C164.665 18.6689 164.367 18.9096 163.987 19.0616C163.607 19.22 163.164 19.296 162.67 19.296C162.169 19.296 161.732 19.22 161.346 19.0616C160.959 18.9033 160.655 18.6689 160.44 18.3585C160.218 18.048 160.11 17.6616 160.11 17.2055C160.11 16.8191 160.205 16.477 160.402 16.1793C160.598 15.8879 160.871 15.6535 161.213 15.4824C160.915 15.3177 160.68 15.1023 160.509 14.8363C160.345 14.5702 160.262 14.2725 160.262 13.9304C160.262 13.4933 160.364 13.1259 160.566 12.8154C160.769 12.505 161.054 12.277 161.415 12.1186C161.776 11.9602 162.195 11.8842 162.657 11.8842C163.132 11.8842 163.55 11.9602 163.911 12.1186C164.272 12.277 164.557 12.505 164.76 12.8154C164.963 13.1195 165.064 13.4933 165.064 13.9304C165.064 14.2725 164.982 14.5702 164.817 14.8363C164.652 15.1087 164.424 15.3241 164.12 15.4888Z" fill="#111D32"/>
<path d="M169.15 17.8643C169.309 17.8643 169.448 17.82 169.575 17.7186C169.701 17.6236 169.803 17.4906 169.872 17.3259C169.942 17.1612 169.98 16.9775 169.98 16.7811C169.98 16.4327 169.898 16.1729 169.727 15.9892C169.562 15.8055 169.34 15.7168 169.074 15.7168C168.884 15.7168 168.719 15.7548 168.58 15.8372C168.441 15.9195 168.333 16.0209 168.263 16.1539V16.6734C168.263 17.0852 168.333 17.3892 168.479 17.5793C168.618 17.7693 168.846 17.8643 169.15 17.8643ZM169.72 14.2978C170.145 14.2978 170.506 14.4055 170.816 14.6146C171.12 14.8236 171.355 15.1213 171.519 15.4951C171.684 15.8752 171.76 16.306 171.76 16.8001C171.76 17.2689 171.652 17.6933 171.431 18.0734C171.209 18.4535 170.905 18.7512 170.512 18.9666C170.119 19.182 169.682 19.2897 169.201 19.2897C168.688 19.2897 168.225 19.182 167.82 18.9603C167.414 18.7386 167.091 18.4091 166.851 17.972C166.61 17.5286 166.496 16.9901 166.496 16.3566V15.6851C166.496 14.8553 166.68 14.1521 167.041 13.5756C167.408 12.9992 167.883 12.5684 168.466 12.2833C169.055 11.9982 169.676 11.8525 170.335 11.8525H170.633V13.3096H170.538C169.961 13.3096 169.467 13.4299 169.062 13.677C168.656 13.9241 168.403 14.3168 168.308 14.8553C168.479 14.6842 168.688 14.5449 168.922 14.4435C169.163 14.3485 169.429 14.2978 169.72 14.2978Z" fill="#111D32"/>
<path d="M175.352 19.201H173.477L176.138 13.4299H172.761V11.9919H178V12.9865L175.352 19.201Z" fill="#111D32"/>
<path fill-rule="evenodd" clip-rule="evenodd" d="M39.8618 51.9143L2.58112 52.269V2.21721H106.847C106.847 2.21721 111.63 7.84891 114.924 8.10864C118.212 8.36837 118.174 5.99913 120.163 5.99913C122.158 5.99913 132.984 6.13216 135.246 8.1023C137.501 10.0788 144.077 14.7349 146.072 14.9946C148.061 15.2544 147.675 19.7711 148.061 20.544C148.486 21.3992 152.996 24.3196 152.724 30.6228C152.515 35.3359 155.22 38.9595 155.999 41.5188C156.778 44.078 156.347 50.9197 156.69 55.1007C157.038 59.2817 159.515 65.889 161.77 67.9668C164.019 70.0447 167.56 77.9759 167.56 77.9759H39.8618V51.9143Z" fill="#E3E4E6"/>
<path d="M167.566 80.1995H39.8618C38.6392 80.1995 37.6446 79.2049 37.6446 77.9823V54.1505L2.60644 54.4862C2.04263 54.4926 1.44715 54.2582 1.02272 53.8464C0.604617 53.4283 0.363892 52.8645 0.363892 52.269V2.21721C0.363892 0.994575 1.35847 0 2.5811 0H106.847C107.499 0 108.114 0.285069 108.538 0.779189C110.299 2.84436 113.555 5.77107 115.095 5.89143C116.032 5.96745 116.229 5.78374 116.818 5.25161C117.47 4.66247 118.459 3.76925 120.163 3.76925C125.205 3.76925 134.061 4.11133 136.703 6.42356C139.199 8.60909 145.008 12.5177 146.376 12.7901C149.537 13.2019 149.873 16.9331 150.051 18.9413C150.07 19.1313 150.089 19.3657 150.108 19.5494C150.171 19.6128 150.247 19.6888 150.323 19.7648C151.78 21.2472 155.194 24.7187 154.935 30.7178C154.814 33.5051 155.942 35.9124 156.943 38.0409C157.405 39.0291 157.842 39.9667 158.121 40.8663C158.691 42.7287 158.717 45.9532 158.742 49.3613C158.755 51.3251 158.774 53.3523 158.9 54.9043C159.236 58.946 161.688 64.8564 163.271 66.3198C165.736 68.594 168.96 75.6637 169.581 77.0574C169.885 77.7415 169.822 78.5397 169.416 79.1669C169.017 79.8194 168.314 80.1995 167.566 80.1995ZM42.079 75.7651H164.057C162.739 73.1551 161.2 70.4564 160.275 69.6012C157.469 67.0103 154.865 59.7822 154.491 55.2908C154.352 53.574 154.333 51.4582 154.314 49.412C154.289 46.6057 154.263 43.4255 153.883 42.1712C153.699 41.5694 153.345 40.8092 152.933 39.935C151.837 37.6038 150.342 34.4047 150.513 30.5341C150.69 26.4671 148.404 24.1359 147.168 22.8816C146.68 22.3811 146.326 22.0263 146.079 21.5386C145.781 20.9431 145.724 20.2716 145.635 19.3467C145.584 18.8082 145.483 17.6553 145.293 17.0978C141.993 16.2299 135.107 10.9277 133.783 9.77471C132.693 8.9195 126.593 8.21633 120.188 8.21633C120.099 8.27968 119.922 8.43805 119.789 8.55208C118.965 9.29959 117.578 10.5412 114.746 10.3195C111.37 10.0534 107.518 6.25885 105.846 4.43441H4.7983V50.0265L39.8365 49.6907C40.413 49.7034 40.9958 49.9188 41.4202 50.3306C41.8383 50.7487 42.079 51.3125 42.079 51.9079V75.7651V75.7651Z" fill="#111D32"/>
<path d="M108.828 83.3231C108.957 78.2096 104.917 73.9594 99.8032 73.83C94.6897 73.7006 90.4395 77.741 90.3101 82.8545C90.1807 87.968 94.2211 92.2182 99.3346 92.3476C104.448 92.477 108.698 88.4366 108.828 83.3231Z" fill="#B5B7BC"/>
<path d="M99.568 94.5733C93.2394 94.5733 88.0892 89.423 88.0892 83.0945C88.0892 76.766 93.2394 71.6157 99.568 71.6157C105.896 71.6157 111.047 76.766 111.047 83.0945C111.047 89.423 105.896 94.5733 99.568 94.5733ZM99.568 76.0501C95.6847 76.0501 92.5236 79.2112 92.5236 83.0945C92.5236 86.9778 95.6847 90.1389 99.568 90.1389C103.451 90.1389 106.612 86.9778 106.612 83.0945C106.612 79.2112 103.451 76.0501 99.568 76.0501Z" fill="#111D32"/>
<path fill-rule="evenodd" clip-rule="evenodd" d="M99.568 80.2691C101.126 80.2691 102.387 81.5361 102.387 83.0882C102.387 84.6465 101.126 85.9072 99.568 85.9072C98.0096 85.9072 96.749 84.6402 96.749 83.0882C96.7427 81.5361 98.0096 80.2691 99.568 80.2691Z" fill="#111D32"/>
<path d="M130.903 83.3271C131.032 78.2136 126.992 73.9634 121.878 73.834C116.765 73.7046 112.515 77.745 112.385 82.8585C112.256 87.972 116.296 92.2222 121.41 92.3516C126.523 92.481 130.773 88.4406 130.903 83.3271Z" fill="#B5B7BC"/>
<path d="M121.639 94.5733C115.31 94.5733 110.16 89.423 110.16 83.0945C110.16 76.766 115.31 71.6157 121.639 71.6157C127.967 71.6157 133.117 76.766 133.117 83.0945C133.117 89.423 127.974 94.5733 121.639 94.5733ZM121.639 76.0501C117.755 76.0501 114.594 79.2112 114.594 83.0945C114.594 86.9778 117.755 90.1389 121.639 90.1389C125.522 90.1389 128.683 86.9778 128.683 83.0945C128.683 79.2112 125.522 76.0501 121.639 76.0501Z" fill="#111D32"/>
<path fill-rule="evenodd" clip-rule="evenodd" d="M121.639 80.2691C123.197 80.2691 124.458 81.5361 124.458 83.0882C124.458 84.6465 123.197 85.9072 121.639 85.9072C120.08 85.9072 118.82 84.6402 118.82 83.0882C118.82 81.5361 120.08 80.2691 121.639 80.2691Z" fill="#111D32"/>
<path d="M134.929 79.566C134.055 79.566 133.346 78.8565 133.346 77.9823C133.346 73.8393 129.975 70.4754 125.839 70.4754H95.368C91.225 70.4754 87.8612 73.8456 87.8612 77.9823C87.8612 78.8565 87.1517 79.566 86.2774 79.566C85.4032 79.566 84.6937 78.8565 84.6937 77.9823C84.6937 72.0972 89.4829 67.308 95.368 67.308H125.839C131.724 67.308 136.513 72.0972 136.513 77.9823C136.513 78.8565 135.803 79.566 134.929 79.566Z" fill="#111D32"/>
<path d="M40.7993 77.9823H37.6319V91.7226H40.7993V77.9823Z" fill="#111D32"/>
<path d="M44.1631 90.1389H34.2681V93.3063H44.1631V90.1389Z" fill="#111D32"/>
<path fill-rule="evenodd" clip-rule="evenodd" d="M17.4617 52.5984V57.5967C17.4617 57.5967 7.45891 61.4989 1.1177 63.9695C0.750282 64.1089 0.547566 64.5017 0.636254 64.8818C0.724942 65.2618 1.07969 65.5216 1.47246 65.4899C11.5259 64.6347 31.9622 62.8926 31.9622 62.8926V52.5794L17.4617 52.5984Z" fill="#111D32"/>
<path d="M5.38746 68.651C4.69062 68.651 4.12048 68.0809 4.12048 67.384V64.0139C4.12048 63.317 4.69062 62.7469 5.38746 62.7469C6.08429 62.7469 6.65443 63.317 6.65443 64.0139V67.384C6.65443 68.0872 6.08429 68.651 5.38746 68.651Z" fill="#111D32"/>
<path fill-rule="evenodd" clip-rule="evenodd" d="M68.0774 34.0436C68.0774 33.3278 67.4946 32.7513 66.785 32.7513H55.8954C55.1796 32.7513 54.6031 33.3278 54.6031 34.0436V49.9821C54.6031 50.698 55.1796 51.2744 55.8954 51.2744H66.7787C67.4946 51.2744 68.071 50.6916 68.071 49.9821V34.0436H68.0774Z" fill="#B5B7BC"/>
<path fill-rule="evenodd" clip-rule="evenodd" d="M57.7705 48.107H64.9035V35.9187H57.7705V48.107ZM66.8167 32.7513H66.8483H66.88H66.9117L66.9434 32.7576L66.975 32.764L67.0067 32.7703L67.0384 32.7766L67.0701 32.783L67.1017 32.7893L67.1334 32.7956L67.1651 32.802L67.1968 32.8146L67.2284 32.8273L67.2601 32.84L67.2918 32.8526L67.3171 32.8653L67.3425 32.878L67.3678 32.8906L67.3931 32.9033L67.4185 32.916L67.4438 32.9287L67.4692 32.9477L67.4945 32.9667L67.5198 32.9857L67.5452 33.0047L67.5705 33.0237L67.5959 33.0427L67.6212 33.0617L67.6465 33.0807L67.6719 33.0997L67.6909 33.1187L67.7162 33.144L67.7352 33.1694L67.7542 33.1947L67.7732 33.2201L67.7922 33.2454L67.8112 33.2707L67.8303 33.2961L67.8493 33.3214L67.8683 33.3468L67.8873 33.3721L67.9063 33.3974L67.9189 33.4228L67.9316 33.4481L67.9443 33.4735L67.9569 33.4988L67.9696 33.5241L67.9823 33.5558L67.995 33.5875L68.0076 33.6192L68.0203 33.6508L68.0266 33.6825L68.033 33.7142L68.0393 33.7459L68.0456 33.7775L68.052 33.8092L68.0583 33.8409L68.0646 33.8726L68.071 33.9042V33.9359V33.9676V33.9992V34.0309V49.9821V50.0138V50.0455V50.0772V50.1088L68.0646 50.1405L68.0583 50.1722L68.052 50.2039L68.0456 50.2355L68.0393 50.2672L68.033 50.2989L68.0266 50.3305L68.0203 50.3622L68.0076 50.3939L67.995 50.4256L67.9823 50.4573L67.9696 50.4889L67.9569 50.5143L67.9443 50.5396L67.9316 50.5649L67.9189 50.5903L67.9063 50.6156L67.8873 50.641L67.8683 50.679L67.8493 50.7043L67.8303 50.7296L67.8112 50.755L67.7922 50.7803L67.7732 50.8057L67.7542 50.831L67.7352 50.8563L67.7162 50.8817L67.6909 50.9007L67.6719 50.9197L67.6465 50.9387L67.6212 50.9577L67.5959 50.9767L67.5705 50.9957L67.5452 51.0147L67.5198 51.0337L67.4945 51.0527L67.4692 51.0717L67.4438 51.0907L67.4185 51.1097L67.3931 51.1224L67.3678 51.1351L67.3425 51.1477L67.3171 51.1604L67.2918 51.1731L67.2601 51.1858L67.2284 51.1984L67.1968 51.2111L67.1651 51.2238L67.1334 51.2301L67.1017 51.2364L67.0701 51.2428L67.0384 51.2491L67.0067 51.2554L66.975 51.2618L66.9434 51.2681L66.9117 51.2744H66.88H66.8483H66.8167H66.785H55.8954H55.8637H55.832H55.8003H55.7687L55.737 51.2681L55.7053 51.2618L55.6736 51.2554L55.642 51.2491L55.6103 51.2428L55.5786 51.2364L55.5469 51.2301L55.5153 51.2238L55.4836 51.2111L55.4519 51.1984L55.4202 51.1858L55.3886 51.1731L55.3569 51.1604L55.3315 51.1477L55.3062 51.1351L55.2809 51.1224L55.2555 51.1097L55.2302 51.0907L55.2049 51.0717L55.1795 51.0527L55.1542 51.0337L55.1288 51.0147L55.1035 50.9957L55.0782 50.9767L55.0528 50.9577L55.0275 50.9387L55.0021 50.9197L54.9768 50.9007L54.9578 50.8817L54.9388 50.8563L54.9198 50.831L54.9008 50.8057L54.8818 50.7803L54.8628 50.755L54.8438 50.7296L54.8248 50.7043L54.8121 50.679L54.7931 50.6536L54.7741 50.6283L54.7614 50.6029L54.7487 50.5776L54.7361 50.5523L54.7234 50.5269L54.7107 50.5016L54.6981 50.4699L54.6854 50.4382L54.6727 50.4066L54.6601 50.3749L54.6537 50.3432L54.6474 50.3115L54.6411 50.2799L54.6347 50.2482L54.6284 50.2165L54.622 50.1849L54.6157 50.1532L54.6094 50.1215V50.0898V50.0582V50.0265V49.9948V34.0436V34.0119V33.9802V33.9486V33.9169L54.6157 33.8852L54.622 33.8535L54.6284 33.8219L54.6347 33.7902L54.6411 33.7585L54.6474 33.7269L54.6537 33.6952L54.6601 33.6635L54.6727 33.6318L54.6854 33.6002L54.6981 33.5685L54.7107 33.5368L54.7234 33.5115L54.7361 33.4861L54.7487 33.4608L54.7614 33.4354L54.7741 33.4101L54.7931 33.3848L54.8121 33.3594L54.8311 33.3341L54.8501 33.3088L54.8691 33.2834L54.8881 33.2581L54.9071 33.2327L54.9261 33.2074L54.9451 33.1821L54.9641 33.1567L54.9831 33.1314L55.0085 33.1124L55.0338 33.0934L55.0592 33.0744L55.0845 33.0554L55.1098 33.0364L55.1352 33.0173L55.1605 32.9983L55.1858 32.9793L55.2112 32.9603L55.2365 32.9413L55.2619 32.9287L55.2872 32.916L55.3125 32.9033L55.3379 32.8906L55.3632 32.878L55.3949 32.8653L55.4266 32.8526L55.4582 32.84L55.4899 32.8273L55.5216 32.8146L55.5533 32.8083L55.5849 32.802L55.6166 32.7956L55.6483 32.7893L55.68 32.783L55.7116 32.7766L55.7433 32.7703L55.775 32.764H55.8067H55.8383H55.87H55.9017H66.785H66.8167V32.7513Z" fill="#101D32"/>
<path fill-rule="evenodd" clip-rule="evenodd" d="M81.8177 72.7117H43.4917C43.4917 72.7117 82.6159 36.5332 146.908 36.5332C98.244 49.8491 81.3426 72.9144 81.8177 72.7117Z" fill="#D44629"/>
<mask id="mask0" mask-type="alpha" maskUnits="userSpaceOnUse" x="43" y="36" width="104" height="37">
<path fill-rule="evenodd" clip-rule="evenodd" d="M81.8177 72.7117H43.4917C43.4917 72.7117 82.6159 36.5332 146.908 36.5332C98.244 49.8491 81.3426 72.9144 81.8177 72.7117Z" fill="#D44629"/>
</mask>
<g mask="url(#mask0)">
<path opacity="0.5" d="M128.613 37.6291C129.785 37.8699 130.026 39.9414 128.449 40.0491C128.449 40.0491 127.422 39.8844 127.258 39.0798C127.099 38.326 127.752 37.5721 128.613 37.6291ZM114.03 37.6291C115.209 37.8762 115.399 39.9414 113.866 40.0491C113.866 40.0491 112.839 39.8844 112.675 39.0798C112.523 38.326 113.169 37.5721 114.03 37.6291ZM118.889 37.6291C120.068 37.8762 120.258 39.9414 118.725 40.0491C118.725 40.0491 117.698 39.8844 117.534 39.0798C117.382 38.326 118.028 37.5721 118.889 37.6291ZM123.754 37.6291C124.945 37.8762 125.078 39.9477 123.59 40.0491C123.59 40.0491 122.811 39.973 122.513 39.3902C122.107 38.6237 122.747 37.5595 123.754 37.6291ZM133.472 37.6291C134.669 37.8762 134.758 39.9477 133.307 40.0491C133.307 40.0491 132.288 39.8844 132.117 39.0798C131.964 38.326 132.611 37.5721 133.472 37.6291ZM138.331 37.6291C139.503 37.8699 139.744 39.9414 138.166 40.0491C138.166 40.0491 137.14 39.8844 136.975 39.0798C136.823 38.326 137.469 37.5721 138.331 37.6291ZM131.287 41.126C132.478 41.373 132.611 43.4445 131.122 43.5459C131.122 43.5459 129.969 43.2925 129.912 42.412C129.861 41.7025 130.495 41.069 131.287 41.126ZM126.428 41.126C127.625 41.373 127.752 43.4445 126.263 43.5459C126.263 43.5459 125.11 43.2925 125.053 42.412C125.002 41.7025 125.636 41.069 126.428 41.126ZM121.569 41.126C122.741 41.3667 122.982 43.4382 121.404 43.5459C121.404 43.5459 120.498 43.4065 120.258 42.735C119.985 41.9685 120.416 41.05 121.569 41.126ZM116.704 41.126C117.888 41.373 118.116 43.4382 116.539 43.5459C116.539 43.5459 115.12 43.1658 115.348 42.0826C115.475 41.4871 116.039 41.0816 116.704 41.126ZM111.845 41.126C113.017 41.3667 113.258 43.4382 111.68 43.5459C111.68 43.5459 109.634 42.7414 110.793 41.4997C111.015 41.259 111.161 41.0816 111.845 41.126ZM106.986 41.126C108.171 41.373 108.399 43.4382 106.821 43.5459C106.821 43.5459 105.795 43.3812 105.63 42.5767C105.472 41.8228 106.125 41.069 106.986 41.126ZM102.121 41.126C103.293 41.3667 103.534 43.4382 101.956 43.5459C101.956 43.5459 101.177 43.4699 100.879 42.8871C100.48 42.1142 101.12 41.0563 102.121 41.126ZM104.313 44.6545C105.491 44.9016 105.681 46.9667 104.148 47.0744C104.148 47.0744 102.735 46.6943 102.957 45.6111C103.077 45.0156 103.648 44.6102 104.313 44.6545ZM109.172 44.6545C110.35 44.9016 110.54 46.9667 109.007 47.0744C109.007 47.0744 107.981 46.9097 107.816 46.1052C107.658 45.3513 108.31 44.5975 109.172 44.6545ZM114.03 44.6545C115.202 44.8952 115.443 46.9667 113.866 47.0744C113.866 47.0744 112.96 46.9351 112.719 46.2636C112.447 45.497 112.884 44.5722 114.03 44.6545ZM118.889 44.6545C120.061 44.8952 120.302 46.9667 118.725 47.0744C118.725 47.0744 117.572 46.84 117.515 45.9405C117.464 45.2437 117.85 44.5848 118.889 44.6545ZM111.845 48.1514C113.017 48.3921 113.258 50.4636 111.68 50.5713C111.68 50.5713 110.527 50.3369 110.47 49.4373C110.42 48.7405 110.8 48.0753 111.845 48.1514ZM102.121 48.1514C103.318 48.3984 103.407 50.4699 101.956 50.5713C101.956 50.5713 101.272 50.4953 100.962 50.0582C100.436 49.298 100.841 48.0627 102.121 48.1514ZM97.6865 48.1514C98.8584 48.3921 99.0992 50.4636 97.5218 50.5713C97.5218 50.5713 96.7362 50.4826 96.4448 49.9188C96.0394 49.1333 96.4575 48.0627 97.6865 48.1514ZM92.8213 48.1514C93.9932 48.3921 94.234 50.4636 92.6566 50.5713C92.6566 50.5713 91.9724 50.4953 91.662 50.0582C91.1362 49.298 91.5417 48.0627 92.8213 48.1514ZM87.9625 48.1514C89.1597 48.3984 89.2484 50.4699 87.7977 50.5713C87.7977 50.5713 87.1136 50.4953 86.8032 50.0582C86.271 49.298 86.6765 48.0627 87.9625 48.1514ZM83.1036 48.1514C84.2819 48.3984 84.4719 50.4636 82.9389 50.5713C82.9389 50.5713 82.2547 50.4953 81.9443 50.0582C81.4122 49.298 81.8176 48.0627 83.1036 48.1514ZM106.986 48.1514C108.183 48.3984 108.272 50.4699 106.821 50.5713C106.821 50.5713 106.137 50.4953 105.827 50.0582C105.295 49.298 105.7 48.0627 106.986 48.1514ZM75.5714 51.6799C76.7434 51.9206 76.9841 53.9921 75.4067 54.0998C75.4067 54.0998 74.2538 53.8464 74.1968 52.9659C74.1398 52.25 74.7796 51.6229 75.5714 51.6799ZM80.4303 51.6799C81.6276 51.9269 81.7543 53.9984 80.2656 54.0998C80.2656 54.0998 79.4864 54.0238 79.1887 53.441C78.7832 52.6681 79.423 51.6102 80.4303 51.6799ZM85.2891 51.6799C86.4991 51.9333 86.5371 54.0048 85.1244 54.0998C85.1244 54.0998 83.7118 53.7197 83.9335 52.6364C84.0602 52.041 84.624 51.6292 85.2891 51.6799ZM90.148 51.6799C91.3453 51.9269 91.472 53.9984 89.9833 54.0998C89.9833 54.0998 87.6647 52.8772 89.3498 51.8446C89.5842 51.6989 89.8629 51.6545 90.148 51.6799ZM95.0132 51.6799C96.2105 51.9269 96.2991 53.9984 94.8485 54.0998C94.8485 54.0998 92.5299 52.8772 94.215 51.8446C94.4494 51.6989 94.7281 51.6545 95.0132 51.6799ZM104.313 51.6799C105.504 51.9269 105.637 53.9984 104.148 54.0998C104.148 54.0998 103.242 53.9604 103.001 53.2889C102.729 52.5224 103.16 51.5975 104.313 51.6799ZM99.872 51.6799C101.05 51.9269 101.24 53.9921 99.7073 54.0998C99.7073 54.0998 99.0231 54.0238 98.7127 53.5867C98.1806 52.8265 98.586 51.5912 99.872 51.6799ZM68.5207 55.1704C69.7434 55.4238 69.8447 57.489 68.356 57.5903C68.356 57.5903 66.9434 57.2102 67.1651 56.127C67.2918 55.5315 67.8556 55.1261 68.5207 55.1704ZM73.3796 55.1704C74.6022 55.4238 74.7036 57.489 73.2149 57.5903C73.2149 57.5903 71.8022 57.2102 72.0239 56.127C72.1506 55.5315 72.7144 55.1261 73.3796 55.1704ZM78.2448 55.1704C79.4674 55.4238 79.5688 57.489 78.0801 57.5903C78.0801 57.5903 76.661 57.2102 76.8891 56.127C77.0095 55.5315 77.5796 55.1261 78.2448 55.1704ZM83.1036 55.1704C84.3136 55.4238 84.3516 57.4953 82.9389 57.5903C82.9389 57.5903 81.5262 57.2102 81.7479 56.127C81.8683 55.5315 82.4384 55.1261 83.1036 55.1704ZM87.9625 55.1704C89.1724 55.4238 89.2104 57.4953 87.7977 57.5903C87.7977 57.5903 86.3787 57.2102 86.6068 56.127C86.7335 55.5315 87.2973 55.1261 87.9625 55.1704ZM92.8213 55.1704C94.0439 55.4238 94.1453 57.489 92.6566 57.5903C92.6566 57.5903 90.6104 56.7858 91.7697 55.5442C91.9978 55.3034 92.1435 55.1261 92.8213 55.1704ZM97.6865 55.1704C98.8584 55.4175 99.0992 57.4826 97.5218 57.5903C97.5218 57.5903 96.1028 57.2102 96.3308 56.127C96.4512 55.5315 97.0213 55.1261 97.6865 55.1704ZM60.9886 58.6989C62.1985 58.9523 62.2365 61.0238 60.8239 61.1188C60.8239 61.1188 59.4112 60.7388 59.6329 59.6555C59.7533 59.06 60.3234 58.6546 60.9886 58.6989ZM65.8474 58.6989C67.0764 58.9523 67.0954 61.0238 65.6827 61.1188C65.6827 61.1188 64.6565 60.9541 64.4918 60.1496C64.3334 59.3958 64.9859 58.6419 65.8474 58.6989ZM70.7063 58.6989C71.9162 58.9523 71.9542 61.0238 70.5416 61.1188C70.5416 61.1188 69.7624 61.0428 69.4646 60.46C69.0655 59.6872 69.7054 58.6292 70.7063 58.6989ZM75.5714 58.6989C76.7687 58.946 76.8954 61.0175 75.4067 61.1188C75.4067 61.1188 74.3868 60.9541 74.2158 60.1496C74.0574 59.3958 74.7036 58.6419 75.5714 58.6989ZM80.4303 58.6989C81.6339 58.946 81.8873 61.0048 80.2656 61.1188C80.2656 61.1188 79.2457 60.9541 79.0746 60.1496C78.9163 59.3958 79.5687 58.6419 80.4303 58.6989ZM85.2891 58.6989C86.4801 58.946 86.6131 61.0175 85.1244 61.1188C85.1244 61.1188 83.7118 60.7388 83.9335 59.6555C84.0602 59.06 84.624 58.6546 85.2891 58.6989ZM90.148 58.6989C91.3453 58.946 91.472 61.0175 89.9833 61.1188C89.9833 61.1188 88.9634 60.9541 88.7923 60.1496C88.6403 59.3958 89.2864 58.6419 90.148 58.6989ZM95.0132 58.6989C96.2231 58.9523 96.2611 61.0238 94.8485 61.1188C94.8485 61.1188 93.8222 60.9541 93.6575 60.1496C93.4991 59.3958 94.1453 58.6419 95.0132 58.6989ZM68.5207 62.1958C69.6737 62.4365 69.9334 64.508 68.356 64.6157C68.356 64.6157 66.9434 64.2356 67.1651 63.1523C67.2918 62.5569 67.8556 62.1514 68.5207 62.1958ZM58.803 62.1958C59.9813 62.4428 60.1714 64.508 58.6383 64.6157C58.6383 64.6157 57.2257 64.2356 57.4474 63.1523C57.5677 62.5569 58.1379 62.1514 58.803 62.1958ZM63.6619 62.1958C64.8592 62.4428 64.9479 64.5143 63.4972 64.6157C63.4972 64.6157 62.0845 64.2356 62.3062 63.1523C62.4266 62.5569 62.9967 62.1514 63.6619 62.1958ZM73.3796 62.1958C74.5325 62.4365 74.7923 64.508 73.2149 64.6157C73.2149 64.6157 72.0619 64.3623 72.0049 63.4818C71.9542 62.7722 72.5941 62.1388 73.3796 62.1958ZM78.2448 62.1958C79.3977 62.4365 79.6574 64.508 78.0801 64.6157C78.0801 64.6157 76.1226 63.7161 77.1932 62.5695C77.4149 62.3288 77.5606 62.1451 78.2448 62.1958ZM83.1036 62.1958C84.2819 62.4428 84.4719 64.508 82.9389 64.6157C82.9389 64.6157 80.8927 63.8112 82.052 62.5695C82.2737 62.3288 82.4194 62.1451 83.1036 62.1958ZM87.9625 62.1958C89.1154 62.4365 89.3751 64.508 87.7977 64.6157C87.7977 64.6157 85.7516 63.8112 86.9109 62.5695C87.1389 62.3288 87.2846 62.1451 87.9625 62.1958ZM92.8213 62.1958C93.9932 62.4428 94.234 64.508 92.6566 64.6157C92.6566 64.6157 90.6104 63.8112 91.7697 62.5695C91.9978 62.3288 92.1435 62.1451 92.8213 62.1958ZM51.2645 65.7243C52.4745 65.9777 52.5125 68.0492 51.0998 68.1442C51.0998 68.1442 49.9469 67.8908 49.8899 67.0103C49.8392 66.2944 50.479 65.6673 51.2645 65.7243ZM56.1297 65.7243C57.3207 65.9714 57.4537 68.0429 55.965 68.1442C55.965 68.1442 54.8121 67.8908 54.7551 67.0103C54.698 66.2944 55.3379 65.6673 56.1297 65.7243ZM60.9886 65.7243C62.1795 65.9714 62.3126 68.0429 60.8239 68.1442C60.8239 68.1442 60.0447 68.0682 59.7469 67.4854C59.3415 66.7125 59.9813 65.6546 60.9886 65.7243ZM65.8474 65.7243C67.0447 65.9714 67.1714 68.0429 65.6827 68.1442C65.6827 68.1442 64.6565 67.9795 64.4918 67.175C64.3334 66.4211 64.9859 65.6609 65.8474 65.7243ZM70.7063 65.7243C71.8972 65.9714 72.0303 68.0429 70.5416 68.1442C70.5416 68.1442 69.7624 68.0682 69.4646 67.4854C69.0655 66.7125 69.7054 65.6546 70.7063 65.7243ZM75.5714 65.7243C76.7687 65.9714 76.8954 68.0429 75.4067 68.1442C75.4067 68.1442 74.3868 67.9795 74.2158 67.175C74.0574 66.4211 74.7036 65.6609 75.5714 65.7243ZM80.4303 65.7243C81.6276 65.9714 81.7163 68.0429 80.2656 68.1442C80.2656 68.1442 79.2457 67.9795 79.0746 67.175C78.9163 66.4211 79.5687 65.6609 80.4303 65.7243ZM85.2891 65.7243C86.4864 65.9714 86.5751 68.0429 85.1244 68.1442C85.1244 68.1442 83.9715 67.8908 83.9145 67.0103C83.8638 66.2944 84.5036 65.6673 85.2891 65.7243ZM83.1036 69.2148C84.2756 69.4555 84.5163 71.527 82.9389 71.6347C82.9389 71.6347 80.9814 70.7352 82.052 69.5886C82.2737 69.3478 82.4194 69.1705 83.1036 69.2148ZM78.2448 69.2148C79.4294 69.4619 79.6574 71.527 78.0801 71.6347C78.0801 71.6347 76.1226 70.7352 77.1932 69.5886C77.4149 69.3478 77.5606 69.1705 78.2448 69.2148ZM73.3796 69.2148C74.5642 69.4619 74.7923 71.527 73.2149 71.6347C73.2149 71.6347 70.8963 70.4121 72.5814 69.3795C72.8158 69.2401 73.0945 69.1958 73.3796 69.2148ZM68.5207 69.2148C69.7054 69.4619 69.9334 71.527 68.356 71.6347C68.356 71.6347 67.5768 71.5587 67.2791 70.9759C66.88 70.2094 67.5198 69.1515 68.5207 69.2148ZM63.6619 69.2148C64.8402 69.4619 65.0302 71.527 63.4972 71.6347C63.4972 71.6347 61.5397 70.7352 62.6103 69.5886C62.832 69.3478 62.9777 69.1705 63.6619 69.2148ZM58.803 69.2148C60.0257 69.4682 60.127 71.5334 58.6383 71.6347C58.6383 71.6347 57.8591 71.5587 57.5614 70.9759C57.156 70.2094 57.7958 69.1515 58.803 69.2148ZM53.9379 69.2148C55.0908 69.4555 55.3505 71.527 53.7732 71.6347C53.7732 71.6347 52.7532 71.47 52.5822 70.6655C52.4302 69.9116 53.0763 69.1578 53.9379 69.2148ZM49.079 69.2148C50.232 69.4555 50.4917 71.527 48.9143 71.6347C48.9143 71.6347 48.1351 71.5587 47.8374 70.9759C47.4319 70.2094 48.0781 69.1515 49.079 69.2148Z" fill="#111D32"/>
</g>
<path d="M105.649 63.9885C108.646 65.1858 100.018 65.5216 98.8902 62.8799C97.7626 60.232 107.252 54.0554 110.61 52.6238C113.98 51.1921 96.3119 60.2573 105.649 63.9885Z" fill="#D44629"/>
<path d="M109.919 36.5395C109.919 35.811 109.33 35.2219 108.601 35.2219H82.223C81.4945 35.2219 80.9054 35.811 80.9054 36.5395V47.6319C80.9054 48.3604 81.4945 48.9496 82.223 48.9496H108.601C109.33 48.9496 109.919 48.3604 109.919 47.6319V36.5395Z" fill="#B5B7BC"/>
<path d="M84.0728 45.7758H106.745V38.3893H84.0728V45.7758ZM108.633 35.2219H108.665H108.696L108.728 35.2282L108.76 35.2346L108.792 35.2409L108.823 35.2472L108.855 35.2536L108.887 35.2599L108.918 35.2662L108.95 35.2726L108.982 35.2789L109.013 35.2916L109.045 35.3042L109.077 35.3169L109.108 35.3296L109.14 35.3423L109.172 35.3549L109.197 35.3676L109.222 35.3803L109.248 35.3929L109.273 35.4056L109.298 35.4246L109.324 35.4436L109.349 35.4626L109.374 35.4816L109.4 35.5006L109.425 35.5196L109.45 35.5386L109.476 35.5576L109.501 35.5766L109.526 35.5957L109.545 35.621L109.564 35.6463L109.583 35.6717L109.602 35.697L109.621 35.7223L109.64 35.7477L109.659 35.773L109.678 35.7984L109.697 35.8237L109.716 35.849L109.735 35.8744L109.748 35.8997L109.761 35.9251L109.773 35.9504L109.786 35.9821L109.799 36.0138L109.811 36.0454L109.824 36.0771L109.837 36.1088L109.849 36.1405L109.856 36.1721L109.862 36.2038L109.868 36.2355L109.875 36.2671L109.881 36.2988L109.887 36.3305L109.894 36.3622L109.9 36.3938V36.4255V36.4572V36.4889V36.5205V47.6129V47.6446V47.6763V47.7079V47.7396L109.894 47.7713L109.887 47.8029L109.881 47.8346L109.875 47.8663L109.868 47.898L109.862 47.9296L109.856 47.9613L109.849 47.993L109.837 48.0247L109.824 48.0563L109.811 48.088L109.799 48.1197L109.786 48.1514L109.773 48.183L109.761 48.2147L109.748 48.2401L109.735 48.2654L109.716 48.2907L109.697 48.3161L109.678 48.3414L109.659 48.3668L109.64 48.3921L109.621 48.4174L109.602 48.4428L109.583 48.4681L109.564 48.4935L109.545 48.5188L109.526 48.5441L109.501 48.5631L109.476 48.5821L109.45 48.6011L109.425 48.6201L109.4 48.6392L109.374 48.6582L109.349 48.6772L109.324 48.6962L109.298 48.7152L109.273 48.7342L109.248 48.7468L109.222 48.7595L109.197 48.7722L109.172 48.7849L109.14 48.7975L109.108 48.8102L109.077 48.8229L109.045 48.8355L109.013 48.8482L108.982 48.8545L108.95 48.8672L108.918 48.8735L108.887 48.8799L108.855 48.8862L108.823 48.8925L108.792 48.8989L108.76 48.9052L108.728 48.9116L108.696 48.9179H108.665H108.633H108.601H82.2231H82.1914H82.1597H82.128L82.0964 48.9116L82.0647 48.9052L82.033 48.8989L82.0013 48.8925L81.9697 48.8862L81.938 48.8799L81.9063 48.8735L81.8746 48.8672L81.843 48.8545L81.8113 48.8482L81.7796 48.8355L81.7479 48.8229L81.7163 48.8102L81.6846 48.7975L81.6529 48.7849L81.6212 48.8039L81.5959 48.7912L81.5706 48.7785L81.5452 48.7659L81.5199 48.7468L81.4946 48.7278L81.4692 48.7088L81.4439 48.6898L81.4185 48.6708L81.3932 48.6518L81.3679 48.6328L81.3425 48.6138L81.3172 48.5948L81.2918 48.5758L81.2728 48.5505L81.2538 48.5251L81.2348 48.4998L81.2158 48.4744L81.1968 48.4491L81.1778 48.4238L81.1588 48.3984L81.1398 48.3731L81.1208 48.3477L81.1018 48.3224L81.0828 48.2971L81.0701 48.2717L81.0574 48.2464L81.0448 48.2147L81.0321 48.183L81.0194 48.1514L81.0068 48.1197L80.9878 48.0817L80.9751 48.05L80.9688 48.0183L80.9624 47.9867L80.9561 47.955L80.9498 47.9233L80.9434 47.8916L80.9371 47.86L80.9307 47.8283L80.9244 47.7966L80.9181 47.7649L80.9117 47.7333V47.7016V47.6699V47.6382V36.5395V36.5079V36.4762V36.4445L80.9181 36.4128L80.9244 36.3812L80.9307 36.3495L80.9371 36.3178L80.9434 36.2862L80.9498 36.2545L80.9561 36.2228L80.9624 36.1911L80.9688 36.1595L80.9751 36.1278L80.9878 36.0961L81.0004 36.0644L81.0131 36.0328L81.0258 36.0011L81.0384 35.9694L81.0511 35.9441L81.0638 35.9187L81.0764 35.8934L81.0955 35.8681L81.1145 35.8427L81.1335 35.8174L81.1525 35.792L81.1715 35.7667L81.1905 35.7414L81.2095 35.716L81.2285 35.6907L81.2475 35.6653L81.2665 35.64L81.2855 35.6147L81.3108 35.5957L81.3362 35.5766L81.3615 35.5576L81.3869 35.5386L81.4122 35.5196L81.4375 35.5006L81.4629 35.4816L81.4882 35.4626L81.5136 35.4436L81.5389 35.4246L81.5642 35.4119L81.5896 35.3993L81.6149 35.3866L81.6402 35.3739L81.6719 35.3613L81.7036 35.3486L81.7353 35.3359L81.7669 35.3233L81.7986 35.3106L81.8303 35.2979L81.862 35.2916L81.8936 35.2852L81.9253 35.2789L81.957 35.2726L81.9887 35.2662L82.0203 35.2599L82.052 35.2536L82.0837 35.2472L82.1154 35.2409H82.147H82.1787H82.2104H108.589L108.633 35.2219Z" fill="#101D32"/>
<path d="M129.424 62.6202H147.187V51.4645H129.424V62.6202ZM147.688 49.564H147.726H147.764L147.802 49.5704L147.84 49.5767L147.878 49.583L147.916 49.5894L147.954 49.5957L147.992 49.602L148.023 49.6084L148.055 49.6147L148.087 49.6274L148.118 49.64L148.15 49.6527L148.182 49.6654L148.213 49.6781L148.245 49.6907L148.277 49.7034L148.308 49.7161L148.34 49.7351L148.372 49.7541L148.403 49.7731L148.435 49.7921L148.467 49.8111L148.498 49.8301L148.524 49.8491L148.549 49.8681L148.575 49.8871L148.6 49.9124L148.625 49.9378L148.651 49.9631L148.676 49.9885L148.701 50.0138L148.727 50.0391L148.752 50.0645L148.777 50.0898L148.796 50.1152L148.815 50.1405L148.834 50.1658L148.853 50.1912L148.872 50.2165L148.891 50.2482L148.91 50.2799L148.929 50.3115L148.942 50.3432L148.955 50.3749L148.967 50.4066L148.98 50.4382L148.993 50.4699L149.005 50.5016L149.018 50.5333L149.031 50.5649L149.043 50.5966L149.05 50.6283L149.056 50.6663L149.062 50.7043L149.069 50.7423L149.075 50.7803L149.081 50.8183L149.088 50.8563L149.094 50.8944V50.9324V50.9704V51.0084V63.0953V63.1333V63.1713V63.2093L149.088 63.2474L149.081 63.2854L149.075 63.3234L149.069 63.3614L149.062 63.3994L149.056 63.4374L149.05 63.4754L149.043 63.5071L149.031 63.5388L149.018 63.5704L149.005 63.6021L148.993 63.6338L148.98 63.6655L148.967 63.6971L148.955 63.7288L148.942 63.7605L148.929 63.7921L148.91 63.8238L148.891 63.8555L148.872 63.8872L148.853 63.9125L148.834 63.9379L148.815 63.9632L148.796 63.9885L148.777 64.0139L148.752 64.0392L148.727 64.0645L148.701 64.0899L148.676 64.1152L148.651 64.1406L148.625 64.1659L148.6 64.1912L148.575 64.2166L148.549 64.2356L148.524 64.2546L148.498 64.2736L148.467 64.2926L148.435 64.3116L148.403 64.3306L148.372 64.3496L148.34 64.3686L148.308 64.3876L148.277 64.4003L148.245 64.413L148.213 64.4256L148.182 64.4383L148.15 64.451L148.118 64.4636L148.087 64.4763L148.055 64.489L148.023 64.4953L147.992 64.5017L147.954 64.508L147.916 64.5143L147.878 64.5207L147.84 64.527L147.802 64.5333H147.764H147.726H147.688H147.65H128.962H128.924H128.886H128.848H128.81L128.772 64.527L128.734 64.5207L128.696 64.5143L128.658 64.508L128.626 64.5017L128.588 64.4953L128.556 64.489L128.525 64.4763L128.493 64.4636L128.461 64.451L128.43 64.4383L128.398 64.4256L128.366 64.413L128.335 64.4003L128.303 64.3876L128.271 64.3686L128.24 64.3496L128.208 64.3306L128.176 64.3116L128.145 64.2926L128.119 64.2736L128.094 64.2546L128.069 64.2356L128.043 64.2166L128.018 64.1912L127.993 64.1659L127.967 64.1406L127.942 64.1152L127.916 64.0899L127.891 64.0645L127.866 64.0392L127.84 64.0139L127.821 63.9885L127.802 63.9632L127.783 63.9379L127.764 63.9125L127.745 63.8872L127.726 63.8555L127.707 63.8238L127.688 63.7921L127.669 63.7605L127.657 63.7288L127.644 63.6971L127.631 63.6655L127.619 63.6338L127.606 63.6021L127.593 63.5704L127.581 63.5388L127.568 63.5071L127.562 63.4754L127.555 63.4374L127.549 63.3994L127.543 63.3614L127.536 63.3234L127.53 63.2854L127.524 63.2474L127.517 63.2093V63.1713V63.1333V63.0953V50.9957V50.9577V50.9197V50.8817L127.524 50.8437L127.53 50.8057L127.536 50.7677L127.543 50.7296L127.549 50.6916L127.555 50.6536L127.562 50.6156L127.568 50.5839L127.581 50.5523L127.593 50.5206L127.606 50.4889L127.619 50.4572L127.631 50.4256L127.644 50.3939L127.657 50.3622L127.669 50.3305L127.688 50.2989L127.707 50.2672L127.726 50.2355L127.745 50.2039L127.764 50.1785L127.783 50.1532L127.802 50.1278L127.821 50.1025L127.84 50.0772L127.866 50.0518L127.891 50.0265L127.916 50.0011L127.942 49.9758L127.967 49.9505L127.993 49.9251L128.018 49.8998L128.043 49.8744L128.069 49.8554L128.094 49.8364L128.119 49.8174L128.145 49.7984L128.176 49.7794L128.208 49.7604L128.24 49.7414L128.271 49.7224L128.303 49.7034L128.335 49.6907L128.366 49.6781L128.398 49.6654L128.43 49.6527L128.461 49.64L128.493 49.6274L128.525 49.6147L128.556 49.602L128.588 49.5957L128.626 49.5894L128.658 49.583L128.696 49.5767L128.734 49.5704L128.772 49.564L128.81 49.5577L128.848 49.5514H128.886H128.924H128.962H147.65L147.688 49.564Z" fill="#101D32"/>
<path d="M144.799 61.1822H131.635C131.109 61.1822 130.685 60.7578 130.685 60.232C130.685 59.7062 131.109 59.2817 131.635 59.2817H144.799C145.325 59.2817 145.749 59.7062 145.749 60.232C145.749 60.7578 145.325 61.1822 144.799 61.1822Z" fill="#101D32"/>
<path d="M144.799 57.9641H131.635C131.109 57.9641 130.685 57.5396 130.685 57.0138C130.685 56.4881 131.109 56.0636 131.635 56.0636H144.799C145.325 56.0636 145.749 56.4881 145.749 57.0138C145.749 57.5396 145.325 57.9641 144.799 57.9641Z" fill="#101D32"/>
<path d="M131.635 54.4926C132.121 54.4926 132.516 54.0983 132.516 53.612C132.516 53.1257 132.121 52.7315 131.635 52.7315C131.149 52.7315 130.755 53.1257 130.755 53.612C130.755 54.0983 131.149 54.4926 131.635 54.4926Z" fill="#101D32"/>
<path d="M144.799 54.4926C145.285 54.4926 145.679 54.0983 145.679 53.612C145.679 53.1257 145.285 52.7315 144.799 52.7315C144.313 52.7315 143.918 53.1257 143.918 53.612C143.918 54.0983 144.313 54.4926 144.799 54.4926Z" fill="#101D32"/>
<path d="M96.996 36.5395H93.8286V47.6256H96.996V36.5395Z" fill="#101D32"/>
<path d="M50.232 28.849H4.7666V32.0165H50.232V28.849Z" fill="#D44629"/>
<path d="M150.507 28.849H72.5308V32.0165H150.507V28.849Z" fill="#D44629"/>
<path d="M39.7541 19.8091C39.7541 18.8272 38.9559 18.029 37.974 18.029H12.5205C11.5386 18.029 10.7404 18.8272 10.7404 19.8091V34.7784C10.7404 35.7604 11.5386 36.5585 12.5205 36.5585H37.974C38.9559 36.5585 39.7541 35.7604 39.7541 34.7784V19.8091Z" fill="#B5B7BC"/>
<path opacity="0.5" d="M20.4897 19.9422C21.535 20.1702 21.7377 21.9567 20.3377 22.058C20.3377 22.058 19.5078 21.9377 19.3178 21.2915C19.1214 20.62 19.6852 19.8852 20.4897 19.9422ZM16.2327 19.9422C17.278 20.1702 17.4807 21.9567 16.0807 22.058C16.0807 22.058 15.3585 21.9757 15.1114 21.4372C14.801 20.753 15.3775 19.8788 16.2327 19.9422ZM22.6183 22.7739C23.6699 23.0019 23.7965 24.7947 22.4662 24.8897C22.4662 24.8897 21.6364 24.7693 21.4463 24.1232C21.2499 23.4517 21.8137 22.7168 22.6183 22.7739ZM18.3612 22.7739C19.3938 22.9956 19.6916 24.782 18.2092 24.8897C18.2092 24.8897 17.3793 24.7693 17.1893 24.1232C16.9929 23.4517 17.563 22.7168 18.3612 22.7739ZM14.1042 22.7739C15.1368 22.9956 15.4345 24.782 13.9522 24.8897C13.9522 24.8897 13.23 24.801 12.9829 24.2689C12.6725 23.5784 13.249 22.7105 14.1042 22.7739ZM20.4897 25.5739C21.5477 25.8019 21.5983 27.601 20.3377 27.6897C20.3377 27.6897 19.6155 27.601 19.3685 27.0689C19.0581 26.3847 19.6345 25.5169 20.4897 25.5739ZM16.2327 25.5739C17.278 25.8019 17.4807 27.5884 16.0807 27.6897C16.0807 27.6897 15.0164 27.468 15.0164 26.6255C15.0164 26.0237 15.5612 25.5295 16.2327 25.5739ZM22.6183 28.4056C23.6635 28.6336 23.8662 30.4201 22.4662 30.5214C22.4662 30.5214 21.402 30.2997 21.402 29.4572C21.402 28.849 21.9468 28.3549 22.6183 28.4056ZM18.3612 28.4056C19.3938 28.6273 19.6916 30.4137 18.2092 30.5214C18.2092 30.5214 17.5947 30.4707 17.316 30.0336C16.8915 29.3748 17.411 28.3359 18.3612 28.4056ZM14.1042 28.4056C15.1368 28.6273 15.4345 30.4137 13.9522 30.5214C13.9522 30.5214 13.0083 30.3504 12.9006 29.6092C12.8055 28.9567 13.3757 28.3549 14.1042 28.4056ZM20.4897 31.2119C21.5413 31.44 21.668 33.2327 20.3377 33.3278C20.3377 33.3278 19.5078 33.2074 19.3178 32.5612C19.1214 31.8897 19.6852 31.1549 20.4897 31.2119ZM16.2327 31.2119C17.2906 31.44 17.3413 33.2391 16.0807 33.3278C16.0807 33.3278 15.4662 33.2771 15.1875 32.84C14.763 32.1748 15.2825 31.1422 16.2327 31.2119ZM14.1042 34.0373C15.1558 34.2653 15.2825 36.0581 13.9522 36.1531C13.9522 36.1531 13.4454 36.1278 13.1476 35.7857C12.6028 35.1522 13.097 33.9676 14.1042 34.0373ZM18.3612 34.0373C19.4065 34.2653 19.6092 36.0518 18.2092 36.1531C18.2092 36.1531 17.3793 36.0327 17.1893 35.3866C16.9929 34.7214 17.563 33.9803 18.3612 34.0373ZM22.6183 34.0373C23.6508 34.259 23.9486 36.0454 22.4662 36.1531C22.4662 36.1531 21.6364 36.0327 21.4463 35.3866C21.2499 34.7214 21.8137 33.9803 22.6183 34.0373Z" fill="#111D32"/>
<path d="M13.9078 33.3911H36.5803V21.1965H13.9078V33.3911ZM38.0183 18.029H38.0627H38.107L38.1514 18.0354L38.1957 18.0417L38.24 18.0481L38.2844 18.0544L38.3287 18.0607L38.3731 18.0671L38.4174 18.0797L38.4618 18.0924L38.5061 18.1051L38.5441 18.1241L38.5821 18.1367L38.6201 18.1494L38.6581 18.1684L38.6962 18.1874L38.7342 18.2064L38.7722 18.2254L38.8102 18.2444L38.8482 18.2634L38.8862 18.2888L38.9242 18.3141L38.9622 18.3395L39.0002 18.3648L39.0319 18.3901L39.0636 18.4155L39.0953 18.4408L39.1269 18.4662L39.1586 18.4915L39.1903 18.5232L39.222 18.5548L39.2536 18.5865L39.2853 18.6182L39.3106 18.6499L39.336 18.6815L39.3613 18.7132L39.3867 18.7449L39.412 18.7829L39.4373 18.8146L39.4627 18.8526L39.488 18.8906L39.507 18.9286L39.526 18.9666L39.545 19.0046L39.564 19.0426L39.583 19.0806L39.602 19.1186L39.621 19.1567L39.6337 19.201L39.6464 19.239L39.6591 19.2834L39.6717 19.3277L39.6844 19.372L39.6971 19.4164L39.7034 19.4607L39.7097 19.5051L39.7161 19.5494L39.7224 19.5938L39.7287 19.6381L39.7351 19.6824V19.7268V19.7711V19.8155V34.7784V34.8228V34.8671V34.9115L39.7287 34.9558L39.7224 35.0002L39.7161 35.0445L39.7097 35.0889L39.7034 35.1332L39.6971 35.1775L39.6844 35.2219L39.6717 35.2662L39.6591 35.3106L39.6464 35.3549L39.6337 35.3993L39.621 35.4373L39.602 35.4753L39.583 35.5133L39.564 35.5513L39.545 35.5893L39.526 35.6273L39.507 35.6653L39.488 35.7033L39.4627 35.7413L39.4373 35.7794L39.412 35.8174L39.3867 35.849L39.3613 35.8807L39.336 35.9124L39.3106 35.9441L39.2853 35.9757L39.2536 36.0074L39.222 36.0391L39.1903 36.0708L39.1586 36.1024L39.1269 36.1278L39.0953 36.1531L39.0636 36.1785L39.0319 36.2038L39.0002 36.2291L38.9622 36.2545L38.9242 36.2798L38.8862 36.3052L38.8482 36.3242L38.8102 36.3432L38.7722 36.3622L38.7342 36.3812L38.6962 36.4002L38.6581 36.4192L38.6201 36.4382L38.5821 36.4509L38.5441 36.4635L38.4998 36.4762L38.4554 36.4889L38.4111 36.5015L38.3667 36.5142L38.3224 36.5205L38.2781 36.5269L38.2337 36.5332L38.1894 36.5395L38.145 36.5459L38.1007 36.5522L38.0563 36.5585H38.012H37.9676H12.5205H12.4761H12.4318L12.3874 36.5522L12.3431 36.5459L12.2987 36.5395L12.2544 36.5332L12.2101 36.5269L12.1657 36.5205L12.1214 36.5142L12.077 36.5015L12.0327 36.4889L11.9883 36.4762L11.944 36.4635L11.906 36.4509L11.868 36.4382L11.83 36.4192L11.792 36.4002L11.7539 36.3812L11.7159 36.3622L11.6779 36.3432L11.6399 36.3242L11.6019 36.3052L11.5639 36.2798L11.5259 36.2545L11.4879 36.2291L11.4562 36.2038L11.4245 36.1785L11.3929 36.1531L11.3612 36.1278L11.3295 36.1024L11.2978 36.0708L11.2662 36.0391L11.2345 36.0074L11.2028 35.9757L11.1775 35.9441L11.1521 35.9124L11.1268 35.8807L11.1015 35.849L11.0761 35.8174L11.0508 35.7794L11.0254 35.7413L11.0001 35.7033L10.9811 35.6653L10.9621 35.6273L10.9431 35.5893L10.9241 35.5513L10.9051 35.5133L10.8861 35.4753L10.8671 35.4373L10.8544 35.3993L10.8417 35.3549L10.8291 35.3106L10.8164 35.2662L10.7974 35.2219L10.7847 35.1775L10.7784 35.1332L10.772 35.0889L10.7657 35.0445L10.7594 35.0002L10.753 34.9558L10.7467 34.9115V34.8671V34.8228V34.7784V19.8091V19.7648V19.7205V19.6761L10.753 19.6318L10.7594 19.5874L10.7657 19.5431L10.772 19.4987L10.7784 19.4544L10.7847 19.41L10.7974 19.3657L10.8101 19.3214L10.8227 19.277L10.8354 19.2327L10.8481 19.1947L10.8607 19.1503L10.8797 19.1123L10.8987 19.0743L10.9177 19.0363L10.9367 18.9983L10.9558 18.9603L10.9748 18.9223L10.9938 18.8843L11.0191 18.8462L11.0444 18.8082L11.0698 18.7766L11.0951 18.7386L11.1205 18.7069L11.1458 18.6752L11.1711 18.6435L11.1965 18.6119L11.2282 18.5802L11.2598 18.5485L11.2915 18.5168L11.3232 18.4852L11.3549 18.4598L11.3865 18.4345L11.4182 18.4091L11.4499 18.3838L11.4815 18.3585L11.5196 18.3331L11.5576 18.3078L11.5956 18.2824L11.6336 18.2571L11.6716 18.2381L11.7096 18.2191L11.7476 18.2001L11.7856 18.1811L11.8236 18.1621L11.8616 18.1431L11.8997 18.1304L11.9377 18.1177L11.982 18.1051L12.0263 18.0924L12.0707 18.0797L12.115 18.0671L12.1594 18.0607L12.2037 18.0544L12.2481 18.0481L12.2924 18.0417L12.3368 18.0354L12.3811 18.029H12.4254H12.4698H12.5141H37.974H38.0183Z" fill="#101D32"/>
<path d="M26.8309 19.8091H23.6635V34.7784H26.8309V19.8091Z" fill="#101D32"/>
<path d="M72.5307 79.7054H50.232C49.2818 79.7054 48.5089 78.9325 48.5089 77.9823V28.0445C48.5089 27.0943 49.2818 26.3214 50.232 26.3214H72.5307C73.481 26.3214 74.2538 27.0943 74.2538 28.0445V77.9759C74.2538 78.9325 73.4873 79.7054 72.5307 79.7054ZM51.9551 76.2529H70.8077V29.7739H51.9551V76.2529Z" fill="#111D32"/>
<path d="M65.0936 21.5322C65.0936 21.0571 64.7072 20.6707 64.2321 20.6707H58.537C58.0619 20.6707 57.6755 21.0571 57.6755 21.5322V23.2553C57.6755 23.7304 58.0619 24.1169 58.537 24.1169H64.2321C64.7072 24.1169 65.0936 23.7304 65.0936 23.2553V21.5322Z" fill="#101D32"/>
<path d="M156.436 70.3234C156.436 69.8483 156.05 69.4619 155.575 69.4619H149.879C149.404 69.4619 149.018 69.8483 149.018 70.3234V72.0528C149.018 72.5279 149.404 72.9144 149.879 72.9144H155.575C156.05 72.9144 156.436 72.5279 156.436 72.0528V70.3234Z" fill="#D44629"/>
</svg>
