<svg width="460" height="360" viewBox="0 0 460 360" fill="none" xmlns="http://www.w3.org/2000/svg">
<rect width="460" height="360" fill="#FFE064"/>
<path d="M121.206 198.492H122.076C122.322 198.492 122.515 198.299 122.515 198.053C122.515 197.807 122.322 197.614 122.076 197.614H121.206C120.96 197.614 120.767 197.807 120.767 198.053C120.767 198.299 120.969 198.492 121.206 198.492Z" fill="#3C2F29"/>
<path d="M114.231 198.492H115.101C115.347 198.492 115.54 198.299 115.54 198.053C115.54 197.807 115.347 197.614 115.101 197.614H114.231C113.985 197.614 113.792 197.807 113.792 198.053C113.792 198.299 113.985 198.492 114.231 198.492Z" fill="#3C2F29"/>
<path d="M117.719 198.492H118.588C118.834 198.492 119.028 198.299 119.028 198.053C119.028 197.807 118.834 197.614 118.588 197.614H117.719C117.473 197.614 117.279 197.807 117.279 198.053C117.279 198.299 117.473 198.492 117.719 198.492Z" fill="#3C2F29"/>
<path d="M110.743 198.492H111.613C111.859 198.492 112.052 198.299 112.052 198.053C112.052 197.807 111.859 197.614 111.613 197.614H110.743C110.497 197.614 110.304 197.807 110.304 198.053C110.304 198.299 110.497 198.492 110.743 198.492Z" fill="#3C2F29"/>
<path d="M107.256 198.492H108.125C108.371 198.492 108.565 198.299 108.565 198.053C108.565 197.807 108.371 197.614 108.125 197.614H107.256C107.01 197.614 106.816 197.807 106.816 198.053C106.816 198.299 107.01 198.492 107.256 198.492Z" fill="#3C2F29"/>
<path d="M110.532 188.284C110.901 188.926 111.595 189.33 112.333 189.33C112.693 189.33 113.054 189.233 113.37 189.049C114.363 188.478 114.705 187.195 114.134 186.202C113.581 185.245 112.254 184.885 111.288 185.438C110.805 185.719 110.462 186.167 110.313 186.703C110.181 187.248 110.251 187.801 110.532 188.284ZM111.174 186.931C111.253 186.624 111.455 186.36 111.736 186.202C111.92 186.097 112.122 186.044 112.333 186.044C112.764 186.044 113.159 186.273 113.379 186.642C113.712 187.213 113.51 187.951 112.939 188.284C112.755 188.39 112.553 188.442 112.342 188.442C111.912 188.442 111.516 188.214 111.297 187.836C111.13 187.573 111.086 187.248 111.174 186.931Z" fill="#3C2F29"/>
<path d="M295.554 198.492H296.424C296.67 198.492 296.863 198.299 296.863 198.053C296.863 197.807 296.67 197.614 296.424 197.614H295.554C295.308 197.614 295.115 197.807 295.115 198.053C295.115 198.299 295.308 198.492 295.554 198.492Z" fill="#3C2F29"/>
<path d="M292.066 198.492H292.936C293.182 198.492 293.375 198.299 293.375 198.053C293.375 197.807 293.182 197.614 292.936 197.614H292.066C291.82 197.614 291.627 197.807 291.627 198.053C291.627 198.299 291.82 198.492 292.066 198.492Z" fill="#3C2F29"/>
<path d="M299.042 198.492H299.911C300.157 198.492 300.351 198.299 300.351 198.053C300.351 197.807 300.157 197.614 299.911 197.614H299.042C298.796 197.614 298.602 197.807 298.602 198.053C298.602 198.299 298.804 198.492 299.042 198.492Z" fill="#3C2F29"/>
<path d="M306.017 198.492H306.887C307.133 198.492 307.326 198.299 307.326 198.053C307.326 197.807 307.133 197.614 306.887 197.614H306.017C305.771 197.614 305.578 197.807 305.578 198.053C305.578 198.299 305.78 198.492 306.017 198.492Z" fill="#3C2F29"/>
<path d="M302.529 198.492H303.399C303.645 198.492 303.838 198.299 303.838 198.053C303.838 197.807 303.645 197.614 303.399 197.614H302.529C302.283 197.614 302.09 197.807 302.09 198.053C302.09 198.299 302.292 198.492 302.529 198.492Z" fill="#3C2F29"/>
<path d="M300.772 189.049C301.088 189.233 301.448 189.33 301.809 189.33C302.547 189.33 303.241 188.934 303.61 188.293C303.891 187.81 303.961 187.248 303.82 186.712C303.68 186.176 303.328 185.728 302.854 185.447C301.888 184.893 300.561 185.254 300.008 186.211C299.437 187.204 299.779 188.478 300.772 189.049ZM300.772 186.642C300.983 186.273 301.387 186.044 301.817 186.044C302.028 186.044 302.239 186.097 302.415 186.202C302.696 186.36 302.889 186.624 302.977 186.931C303.056 187.239 303.012 187.564 302.854 187.845C302.538 188.399 301.765 188.609 301.211 188.284C300.64 187.959 300.438 187.221 300.772 186.642Z" fill="#3C2F29"/>
<path d="M230.887 93.4412H231.757C232.003 93.4412 232.196 93.248 232.196 93.002C232.196 92.756 232.003 92.5627 231.757 92.5627H230.887C230.641 92.5627 230.448 92.756 230.448 93.002C230.448 93.248 230.641 93.4412 230.887 93.4412Z" fill="#3C2F29"/>
<path d="M175.463 93.4412H176.332C176.578 93.4412 176.772 93.248 176.772 93.002C176.772 92.756 176.578 92.5627 176.332 92.5627H175.463C175.217 92.5627 175.023 92.756 175.023 93.002C175.023 93.248 175.217 93.4412 175.463 93.4412Z" fill="#3C2F29"/>
<path d="M244.741 93.4412H245.611C245.857 93.4412 246.05 93.248 246.05 93.002C246.05 92.756 245.857 92.5627 245.611 92.5627H244.741C244.495 92.5627 244.302 92.756 244.302 93.002C244.302 93.248 244.504 93.4412 244.741 93.4412Z" fill="#3C2F29"/>
<path d="M234.349 93.4412H235.218C235.464 93.4412 235.658 93.248 235.658 93.002C235.658 92.756 235.464 92.5627 235.218 92.5627H234.349C234.103 92.5627 233.909 92.756 233.909 93.002C233.909 93.248 234.111 93.4412 234.349 93.4412Z" fill="#3C2F29"/>
<path d="M237.819 93.4412H238.688C238.934 93.4412 239.128 93.248 239.128 93.002C239.128 92.756 238.934 92.5627 238.688 92.5627H237.819C237.573 92.5627 237.379 92.756 237.379 93.002C237.379 93.248 237.573 93.4412 237.819 93.4412Z" fill="#3C2F29"/>
<path d="M224.826 92.5627H223.956C223.71 92.5627 223.517 92.756 223.517 93.002C223.517 93.248 223.71 93.4412 223.956 93.4412H224.826C225.072 93.4412 225.265 93.248 225.265 93.002C225.265 92.756 225.072 92.5627 224.826 92.5627Z" fill="#3C2F29"/>
<path d="M178.924 93.4412H179.794C180.04 93.4412 180.233 93.248 180.233 93.002C180.233 92.756 180.04 92.5627 179.794 92.5627H178.924C178.678 92.5627 178.485 92.756 178.485 93.002C178.485 93.248 178.687 93.4412 178.924 93.4412Z" fill="#3C2F29"/>
<path d="M248.203 93.4412H249.072C249.318 93.4412 249.512 93.248 249.512 93.002C249.512 92.756 249.318 92.5627 249.072 92.5627H248.203C247.957 92.5627 247.763 92.756 247.763 93.002C247.763 93.248 247.965 93.4412 248.203 93.4412Z" fill="#3C2F29"/>
<path d="M185.855 93.4412H186.725C186.971 93.4412 187.164 93.248 187.164 93.002C187.164 92.756 186.971 92.5627 186.725 92.5627H185.855C185.609 92.5627 185.416 92.756 185.416 93.002C185.416 93.248 185.609 93.4412 185.855 93.4412Z" fill="#3C2F29"/>
<path d="M172.001 93.4412H172.871C173.117 93.4412 173.31 93.248 173.31 93.002C173.31 92.756 173.117 92.5627 172.871 92.5627H172.001C171.755 92.5627 171.562 92.756 171.562 93.002C171.562 93.248 171.755 93.4412 172.001 93.4412Z" fill="#3C2F29"/>
<path d="M182.394 93.4412H183.264C183.51 93.4412 183.703 93.248 183.703 93.002C183.703 92.756 183.51 92.5627 183.264 92.5627H182.394C182.148 92.5627 181.955 92.756 181.955 93.002C181.955 93.248 182.148 93.4412 182.394 93.4412Z" fill="#3C2F29"/>
<path d="M227.426 93.4412H228.296C228.542 93.4412 228.735 93.248 228.735 93.002C228.735 92.756 228.542 92.5627 228.296 92.5627H227.426C227.18 92.5627 226.987 92.756 226.987 93.002C226.987 93.248 227.18 93.4412 227.426 93.4412Z" fill="#3C2F29"/>
<path d="M168.54 93.4412H169.41C169.656 93.4412 169.849 93.248 169.849 93.002C169.849 92.756 169.656 92.5627 169.41 92.5627H168.54C168.294 92.5627 168.101 92.756 168.101 93.002C168.101 93.248 168.294 93.4412 168.54 93.4412Z" fill="#3C2F29"/>
<path d="M165.07 93.4412H165.94C166.186 93.4412 166.379 93.248 166.379 93.002C166.379 92.756 166.186 92.5627 165.94 92.5627H165.07C164.824 92.5627 164.631 92.756 164.631 93.002C164.631 93.248 164.833 93.4412 165.07 93.4412Z" fill="#3C2F29"/>
<path d="M241.28 93.4412H242.15C242.396 93.4412 242.589 93.248 242.589 93.002C242.589 92.756 242.396 92.5627 242.15 92.5627H241.28C241.034 92.5627 240.841 92.756 240.841 93.002C240.841 93.248 241.034 93.4412 241.28 93.4412Z" fill="#3C2F29"/>
<path d="M214.433 92.5627H213.563C213.317 92.5627 213.124 92.756 213.124 93.002C213.124 93.248 213.317 93.4412 213.563 93.4412H214.433C214.679 93.4412 214.872 93.248 214.872 93.002C214.872 92.756 214.679 92.5627 214.433 92.5627Z" fill="#3C2F29"/>
<path d="M204.04 92.5627H203.171C202.925 92.5627 202.731 92.756 202.731 93.002C202.731 93.248 202.925 93.4412 203.171 93.4412H204.04C204.286 93.4412 204.48 93.248 204.48 93.002C204.48 92.756 204.286 92.5627 204.04 92.5627Z" fill="#3C2F29"/>
<path d="M217.894 92.5627H217.025C216.779 92.5627 216.585 92.756 216.585 93.002C216.585 93.248 216.779 93.4412 217.025 93.4412H217.894C218.14 93.4412 218.334 93.248 218.334 93.002C218.334 92.756 218.14 92.5627 217.894 92.5627Z" fill="#3C2F29"/>
<path d="M221.364 92.5627H220.495C220.249 92.5627 220.055 92.756 220.055 93.002C220.055 93.248 220.249 93.4412 220.495 93.4412H221.364C221.61 93.4412 221.804 93.248 221.804 93.002C221.804 92.756 221.602 92.5627 221.364 92.5627Z" fill="#3C2F29"/>
<path d="M210.972 92.5627H210.102C209.856 92.5627 209.663 92.756 209.663 93.002C209.663 93.248 209.856 93.4412 210.102 93.4412H210.972C211.218 93.4412 211.411 93.248 211.411 93.002C211.411 92.756 211.209 92.5627 210.972 92.5627Z" fill="#3C2F29"/>
<path d="M207.502 92.5627H206.632C206.386 92.5627 206.193 92.756 206.193 93.002C206.193 93.248 206.386 93.4412 206.632 93.4412H207.502C207.748 93.4412 207.941 93.248 207.941 93.002C207.941 92.756 207.748 92.5627 207.502 92.5627Z" fill="#3C2F29"/>
<path d="M200.579 92.5627H199.709C199.463 92.5627 199.27 92.756 199.27 93.002C199.27 93.248 199.463 93.4412 199.709 93.4412H200.579C200.825 93.4412 201.018 93.248 201.018 93.002C201.018 92.756 200.816 92.5627 200.579 92.5627Z" fill="#3C2F29"/>
<path d="M197.118 92.5627H196.248C196.002 92.5627 195.809 92.756 195.809 93.002C195.809 93.248 196.002 93.4412 196.248 93.4412H197.118C197.364 93.4412 197.557 93.248 197.557 93.002C197.557 92.756 197.355 92.5627 197.118 92.5627Z" fill="#3C2F29"/>
<path d="M193.648 92.5627H192.778C192.532 92.5627 192.339 92.756 192.339 93.002C192.339 93.248 192.532 93.4412 192.778 93.4412H193.648C193.894 93.4412 194.087 93.248 194.087 93.002C194.087 92.756 193.894 92.5627 193.648 92.5627Z" fill="#3C2F29"/>
<path d="M190.186 92.5627H189.317C189.071 92.5627 188.877 92.756 188.877 93.002C188.877 93.248 189.071 93.4412 189.317 93.4412H190.186C190.432 93.4412 190.626 93.248 190.626 93.002C190.626 92.756 190.432 92.5627 190.186 92.5627Z" fill="#3C2F29"/>
<path d="M290.819 289.98V265.259H315.259C321.558 265.259 326.688 260.137 326.688 253.829V144.034C326.688 139 322.638 123.82 315.259 123.82H290.968V89.1452L272.23 31.4891C270.473 26.0248 264.604 21.7465 258.868 21.7465H247.922V19.9719H237.74V21.7553H176.394V19.9719H166.221V21.7553H155.275C149.538 21.7553 143.67 26.0336 141.922 31.4891L124.703 84.4452C123.666 82.8288 121.865 81.757 119.81 81.757C117.06 81.757 114.749 83.6809 114.152 86.2461C113.476 86.0353 112.773 85.9211 112.061 85.9211C109.979 85.9211 107.95 86.826 106.219 88.4863L105.499 87.8626L95.4224 99.3798L95.8704 99.7751C95.7913 99.8629 95.7035 99.9596 95.6244 100.047C93.0768 102.867 92.8571 105.45 93.1207 107.119C93.4633 109.307 94.8513 111.248 96.9158 112.443L100.263 114.376C101.44 115.061 102.784 115.421 104.146 115.421C106.913 115.421 109.496 113.937 110.875 111.538L118.887 97.6667C119.783 96.0327 120.047 94.5919 120.029 93.3972C121.198 93.3532 122.287 92.9579 123.183 92.3254V123.828H98.8837C92.5848 123.828 87.4543 128.95 87.4543 135.258V253.847C87.4543 260.146 92.5848 265.276 98.8837 265.276H123.324V289.997C123.324 294.978 127.4 299.055 132.381 299.055H153.43L155.099 296.164C155.187 296.015 155.398 295.892 155.573 295.892H160.686C160.862 295.892 161.073 296.015 161.161 296.164L162.83 299.055H180.505L180.207 303.219C180.128 304.308 180.488 305.327 181.208 306.109C181.928 306.891 182.93 307.312 184.019 307.312H186.628C187.718 307.312 188.711 306.882 189.44 306.109C190.169 305.327 190.52 304.308 190.441 303.219L190.143 299.055H251.304L252.973 296.164C253.061 296.015 253.272 295.892 253.447 295.892H258.56C258.736 295.892 258.947 296.015 259.035 296.164L260.704 299.055H281.753C286.743 299.046 290.819 294.97 290.819 289.98ZM105.745 91.5874L107.142 92.8086L100.544 100.355L99.1472 99.1338L105.745 91.5874ZM114.293 95.0751L106.316 108.894C105.648 110.045 104.076 110.484 102.907 109.808L99.5601 107.875C98.8837 107.488 98.4268 106.9 98.3302 106.294C98.1809 105.318 98.9012 104.282 99.5425 103.579C99.6392 103.474 99.7446 103.351 99.85 103.236L100.799 104.062L110.866 92.545L110.216 91.974C110.84 91.4645 111.481 91.1833 112.061 91.1833C112.404 91.1833 112.738 91.28 113.08 91.482L113.326 91.605C113.335 91.6138 114.398 92.1497 114.688 93.0106C114.872 93.5729 114.723 94.2757 114.293 95.0751ZM307.958 259.988H290.977V244.254H307.958V259.988ZM321.417 253.829C321.417 257.22 318.659 259.988 315.259 259.988H310.585V244.254H321.417V253.829ZM321.417 241.618H261.099V236.707H321.417V241.618ZM186.646 293.353C186.356 293.292 186.057 293.248 185.75 293.248H184.898C184.59 293.248 184.292 293.292 184.002 293.353V265.548H186.637V293.353H186.646ZM115.031 180.299L114.969 180.334L109.926 183.242C108.846 183.865 108.073 184.867 107.748 186.079C107.423 187.283 107.59 188.539 108.213 189.62C109.048 191.06 110.594 191.956 112.254 191.956C113.071 191.956 113.88 191.737 114.583 191.333L116.331 190.322V193.081H106.193V167.824H116.348V179.754C115.83 179.842 115.391 180.088 115.031 180.299ZM116.348 181.581V188.284L113.722 189.804C113.265 190.068 112.764 190.199 112.272 190.199C111.271 190.199 110.287 189.681 109.751 188.741C108.951 187.353 109.426 185.57 110.814 184.77L115.856 181.862C116.014 181.757 116.181 181.66 116.348 181.581ZM123.174 195.716V234.081H106.193V195.716H123.174ZM123.174 193.081H118.975V167.824H123.174V193.081ZM128.445 167.824H153.043V234.072H128.445V167.824ZM128.445 123.82V92.0794C135.983 97.7633 144.267 102.481 153.043 106.215V114.912H149.064V121.922H150.381C150.715 121.922 151.058 122.08 151.383 122.335C150.285 123.222 149.547 124.83 149.512 126.692V130.039H149.064V142.989H153.043V157.651H128.445V123.82ZM160.59 93.7398V116.3H155.679V114.912V93.7398H160.59ZM163.225 118.935V117.547H164.569V119.506C162.382 120.253 160.818 122.827 160.818 125.981C160.818 129.135 162.391 131.709 164.569 132.455V135.688H151.699V132.455C153.887 131.709 155.45 129.135 155.45 125.981C155.45 122.827 153.878 120.253 151.699 119.506V117.547H153.043V118.935H163.225ZM182.034 258.011V262.843H180.523V258.011H182.034ZM191.785 262.843H183.791V258.011H191.785V262.843ZM187.735 256.254H184.107C182.939 254.787 180.62 252.599 177.202 252.599H164.429V250.842H177.202C181.779 250.842 184.643 253.952 185.864 255.657C187.366 254.005 190.889 250.842 195.651 250.842H249.714V252.599H195.651C192.084 252.599 189.264 254.76 187.735 256.254ZM151.699 137.437H153.983V138.754H162.294V137.437H164.578V140.344H163.225H153.043H151.699V137.437ZM151.26 129.723V126.71C151.278 125.471 151.743 124.364 152.393 123.785C152.648 124.408 152.806 125.146 152.806 125.981C152.815 127.755 152.103 129.135 151.26 129.723ZM167.205 142.98V130.031H166.757V126.675C166.73 124.812 165.992 123.214 164.886 122.326C165.211 122.071 165.553 121.913 165.887 121.913H167.205V114.903H163.225V110.045C177.22 114.648 192.145 116.959 207.071 116.959C221.997 116.959 236.923 114.648 250.917 110.054V114.912H246.938V121.922H248.255C248.589 121.922 248.932 122.08 249.257 122.335C248.159 123.222 247.421 124.821 247.386 126.692V130.039H246.938V142.989H250.917V172.471C250.548 172.313 250.135 172.225 249.714 172.225H214.477V164.872C216.647 163.264 217.956 160.98 217.956 158.45V157.053C217.956 155.349 216.963 153.759 215.294 152.819C215.039 152.67 214.758 152.591 214.468 152.564V150.922H199.665V152.564C199.376 152.591 199.094 152.679 198.84 152.819C197.171 153.768 196.178 155.349 196.178 157.053V158.45C196.178 160.98 197.496 163.273 199.657 164.872V172.225H164.429C163.998 172.225 163.594 172.313 163.225 172.471V142.989H167.205V142.98ZM163.454 125.981C163.454 125.146 163.621 124.4 163.875 123.785C164.525 124.364 164.991 125.463 165.009 126.701V129.732C164.165 129.135 163.454 127.755 163.454 125.981ZM253.562 98.3783V95.7428V93.7398H255.398H258.033H258.464V104.484V107.313V114.903V116.291H253.553V114.903V109.149V106.373V98.3783H253.562ZM262.452 119.506C260.265 120.253 258.701 122.827 258.701 125.981C258.701 129.135 260.273 131.709 262.452 132.455V135.688H249.582V132.455C251.769 131.709 253.333 129.135 253.333 125.981C253.333 122.827 251.761 120.253 249.582 119.506V117.547H250.926V118.935H261.108V117.547H262.461V119.506H262.452ZM262.883 126.692V129.723C262.039 129.135 261.328 127.755 261.328 125.981C261.328 125.146 261.494 124.408 261.74 123.785C262.391 124.364 262.856 125.463 262.883 126.692ZM249.143 129.723V126.71C249.16 125.471 249.626 124.373 250.276 123.785C250.531 124.4 250.689 125.146 250.689 125.981C250.689 127.755 249.977 129.135 249.143 129.723ZM199.665 228.941L164.2 219.629L164.648 217.934L199.665 227.132V228.941ZM249.494 184.981L249.942 186.677L214.477 195.989V194.17L249.494 184.981ZM199.665 199.889L164.648 209.087L164.2 207.392L199.665 198.08V199.889ZM163.647 205.257C163.498 205.292 163.357 205.354 163.216 205.415V188.644C163.357 188.706 163.489 188.767 163.638 188.803L194.957 197.025L163.647 205.257ZM166.959 210.748L199.674 202.156V224.847L166.959 216.256V210.748ZM214.477 202.156L247.192 210.748V216.256L214.477 224.847V202.156ZM249.494 209.078L214.477 199.88V198.062L249.942 207.374L249.494 209.078ZM199.665 195.997L164.2 186.685L164.648 184.99L199.665 194.188V195.997ZM163.647 221.746L194.965 229.969L163.647 238.192C163.498 238.227 163.357 238.289 163.225 238.35V221.579C163.366 221.65 163.498 221.711 163.647 221.746ZM214.477 227.123L249.494 217.925L249.942 219.62L214.477 228.933V227.123ZM250.496 221.746C250.645 221.711 250.786 221.65 250.917 221.588V238.359C250.777 238.297 250.645 238.236 250.496 238.201L219.177 229.978L250.496 221.746ZM250.496 205.257L219.177 197.034L250.496 188.811C250.645 188.776 250.786 188.715 250.917 188.653V205.424C250.786 205.354 250.645 205.301 250.496 205.257ZM247.192 183.312L214.477 191.904V178.357H247.192V183.312ZM199.665 191.904L166.95 183.312V178.357H199.665V191.904ZM164.657 242.022L164.209 240.327L199.674 231.015V232.833L164.657 242.022ZM214.477 231.015L249.942 240.327L249.494 242.022L214.477 232.824V231.015ZM249.714 176.17H214.477V174.413H249.714V176.17ZM199.665 176.17H164.429V174.413H199.665V176.17ZM166.959 243.691L199.674 235.1V247.364H214.486V235.1L247.201 243.691V248.646H195.659C191.478 248.646 188.148 250.675 186.031 252.468C184.213 250.658 181.287 248.646 177.211 248.646H166.959V243.691ZM205.139 164.363C206.465 164.6 207.695 164.6 209.013 164.363C212.667 163.704 215.32 161.218 215.32 158.433V157.036C215.32 156.289 214.828 155.569 213.994 155.094C213.783 154.971 213.713 154.708 213.827 154.497C213.976 154.233 214.249 154.233 214.424 154.33C215.531 154.954 216.19 155.973 216.19 157.036V158.433C216.19 161.692 213.291 164.477 209.153 165.224C207.748 165.478 206.377 165.478 204.963 165.224C200.816 164.477 197.926 161.692 197.926 158.433V157.036C197.926 155.973 198.585 154.954 199.701 154.33C199.771 154.295 199.841 154.277 199.911 154.277C200.034 154.277 200.201 154.339 200.298 154.497C200.421 154.708 200.342 154.971 200.131 155.094C199.305 155.56 198.805 156.289 198.805 157.036V158.433C198.822 161.218 201.475 163.712 205.139 164.363ZM250.926 140.344H249.582V137.437H251.866V138.754H260.177V137.437H262.461V140.344H261.108H250.926ZM265.088 142.98V130.031H264.64V126.675C264.613 124.812 263.875 123.214 262.777 122.326C263.102 122.071 263.445 121.913 263.779 121.913H265.096V114.903H261.108V106.223C269.884 102.49 278.168 97.7633 285.706 92.0794V123.82V157.642H261.108V142.98H265.088ZM250.926 107.304C222.99 116.713 191.162 116.713 163.225 107.295V98.3783H250.926V107.304ZM155.679 234.072V167.824H155.705V157.642H155.679V142.98H160.59V292.606H155.679V244.245H155.705V234.063H155.679V234.072ZM163.225 254.55C163.594 254.708 164.007 254.796 164.429 254.796H177.202C178.836 254.796 180.128 255.472 181.076 256.254H178.766V260.04H163.225V254.55ZM191.214 256.254C192.427 255.455 193.946 254.796 195.659 254.796H249.723C250.153 254.796 250.557 254.708 250.926 254.55V260.04H193.542V256.254H191.214ZM258.464 292.615H253.553V142.98H258.464V157.642H258.446V167.824H258.464V234.072H258.446V244.254H258.464V292.615ZM261.099 167.824H285.697V234.072H261.099V167.824ZM307.958 195.716V234.081H290.977V195.716H307.958ZM290.968 193.081V167.824H295.167V193.081H290.968ZM299.551 191.333C300.263 191.746 301.062 191.956 301.879 191.956C303.54 191.956 305.095 191.06 305.92 189.62C307.203 187.388 306.439 184.533 304.207 183.242L299.165 180.334L299.103 180.299C298.743 180.088 298.304 179.842 297.785 179.754V167.824H307.941V193.081H297.785V190.322L299.551 191.333ZM297.803 188.293V181.59C297.961 181.669 298.137 181.766 298.304 181.862L303.346 184.77C304.734 185.57 305.218 187.353 304.409 188.741C303.873 189.672 302.89 190.199 301.888 190.199C301.396 190.199 300.895 190.076 300.438 189.804L297.803 188.293ZM321.417 234.072H310.585V167.824H321.417V234.072ZM321.417 165.188H261.099V160.278H321.417V165.188ZM310.594 129.091H315.268C315.566 129.091 317.192 130.048 319.045 134.45C320.591 138.122 321.426 142.128 321.426 144.034V157.642H310.594V129.091ZM297.803 129.091H307.958V157.642H297.803V129.091ZM290.968 129.091H295.167V157.642H290.968V129.091ZM285.381 89.0046C277.966 94.7764 269.788 99.573 261.099 103.368V91.1043H258.033V51.7825C258.033 45.4134 265.746 37.99 268.11 35.864L285.381 89.0046ZM245.286 27.0175V36.1715H240.375V27.0175V22.6074H245.286V27.0175ZM173.767 27.0175V36.1715H168.856V27.0175V22.6074H173.767V27.0175ZM155.275 27.0175H166.221V38.807H176.403V27.0175H237.749V38.807H247.93V27.0175H258.877C262.276 27.0175 266.177 29.8639 267.222 33.1055C266.748 33.5009 255.398 43.059 255.398 51.7825V91.1043H250.926V95.734H163.225V91.1043H158.754V51.7825C158.754 43.0678 147.412 33.5009 146.938 33.0968C147.974 29.8639 151.866 27.0175 155.275 27.0175ZM146.033 35.864C148.396 37.99 156.109 45.4221 156.109 51.7825V91.1043H153.043V103.351C144.355 99.5467 136.167 94.7764 128.762 89.0046L146.033 35.864ZM119.81 90.7617C119.678 90.7617 119.546 90.7353 119.423 90.7265C118.711 89.1452 117.534 88.091 116.638 87.4848C116.691 85.7805 118.088 84.4013 119.81 84.4013C121.567 84.4013 122.99 85.8245 122.99 87.5815C122.99 89.3385 121.558 90.7617 119.81 90.7617ZM118.984 129.091H123.183V157.642H118.984V129.091ZM106.193 129.091H116.348V157.642H106.193V129.091ZM92.7254 135.249C92.7254 131.858 95.4839 129.091 98.8837 129.091H103.557V157.642H92.7254V135.249ZM92.7254 160.278H153.043V165.188H92.7254V160.278ZM92.7254 167.824H103.557V234.072H92.7254V167.824ZM92.7254 236.707H153.043V241.618H92.7254V236.707ZM103.557 259.988H98.8837C95.4926 259.988 92.7254 257.229 92.7254 253.829V244.245H103.557V259.988ZM123.174 259.988H106.193V244.254H123.174V259.988ZM128.445 260.04V244.254H153.043V260.04H128.445ZM188.157 304.897C187.771 305.31 187.226 305.547 186.637 305.547H184.028C183.431 305.547 182.895 305.318 182.508 304.897C182.122 304.484 181.928 303.921 181.972 303.333L182.403 297.341C182.491 296.076 183.642 295.005 184.915 295.005H185.768C187.041 295.005 188.192 296.076 188.28 297.341L188.711 303.333C188.737 303.921 188.544 304.484 188.157 304.897ZM261.099 260.04V244.254H285.697V260.04H261.099Z" fill="#3C2F29"/>
<path d="M207.053 76.3456C208.705 76.3456 210.321 76.0469 211.859 75.4583L213.124 74.9751L201.071 62.9133L213.124 50.8514L211.859 50.3682C210.321 49.7796 208.705 49.481 207.053 49.481C201.528 49.481 196.494 52.951 194.517 58.1166C193.929 59.6452 193.639 61.2617 193.639 62.9133C193.639 64.5648 193.937 66.1725 194.517 67.7099C196.485 72.8755 201.528 76.3456 207.053 76.3456ZM200.702 53.1443C202.564 51.932 204.761 51.238 207.053 51.238C208.02 51.238 208.977 51.3522 209.9 51.5894L200.693 60.7961V53.1443H200.702ZM200.702 65.0305L209.909 74.2372C208.986 74.4744 208.029 74.5886 207.062 74.5886C204.761 74.5886 202.564 73.8945 200.711 72.6822V65.0305H200.702ZM195.396 62.9133C195.396 61.4725 195.65 60.0757 196.16 58.7492C196.775 57.1327 197.741 55.7095 198.945 54.5499V71.2766C197.741 70.117 196.784 68.6938 196.16 67.0774C195.65 65.7508 195.396 64.3452 195.396 62.9133Z" fill="#3C2F29"/>
<path d="M207.071 81.8888C217.534 81.8888 226.047 73.3761 226.047 62.9132C226.047 52.4502 217.534 43.9375 207.071 43.9375C196.608 43.9375 188.095 52.4502 188.095 62.9132C188.095 73.3761 196.608 81.8888 207.071 81.8888ZM207.071 45.6945C216.568 45.6945 224.29 53.4165 224.29 62.9132C224.29 72.4098 216.568 80.1318 207.071 80.1318C197.575 80.1318 189.852 72.4098 189.852 62.9132C189.852 53.4165 197.575 45.6945 207.071 45.6945Z" fill="#3C2F29"/>
<path d="M209.68 57.6947C209.311 57.8265 208.986 58.011 208.714 58.257C208.354 58.6084 208.09 58.9861 207.914 59.399C207.756 59.8646 207.668 60.3654 207.651 60.8837H209.575C209.566 60.3654 209.671 59.9525 209.909 59.645C210.137 59.3375 210.497 59.1794 210.98 59.1794C211.402 59.1794 211.736 59.3024 211.964 59.5572C212.201 59.8119 212.316 60.137 212.316 60.5323C212.316 61.1472 212.087 61.5601 211.63 61.7622C211.367 61.8852 210.901 61.9467 210.234 61.9555V63.4313C210.919 63.4313 211.42 63.4928 211.736 63.6246C212.289 63.853 212.57 64.3186 212.57 65.0127C212.57 65.531 212.421 65.9351 212.114 66.2162C211.815 66.4973 211.463 66.6291 211.051 66.6291C210.392 66.6291 209.935 66.3743 209.689 65.8648C209.557 65.5925 209.487 65.2411 209.487 64.8194H207.458C207.493 65.654 207.66 66.3304 207.967 66.8487C208.547 67.8239 209.575 68.307 211.068 68.307C212.28 68.307 213.185 67.9732 213.8 67.2968C214.073 66.9981 214.283 66.6642 214.433 66.3216C215.223 66.9454 216.128 67.2528 217.156 67.2528C218.43 67.2528 219.423 66.8663 220.126 66.102C220.582 65.6188 220.837 65.1444 220.89 64.6788H218.781C218.658 64.9072 218.518 65.0917 218.36 65.2235C218.07 65.4695 217.683 65.5837 217.218 65.5837C216.77 65.5837 216.392 65.487 216.076 65.285C215.557 64.9687 215.285 64.4153 215.25 63.6158H221.004C221.013 62.9306 220.995 62.4123 220.934 62.0433C220.837 61.4196 220.626 60.8837 220.301 60.4093C219.941 59.8734 219.484 59.4869 218.94 59.2409C218.386 58.9949 217.771 58.8719 217.086 58.8719C215.97 58.8719 215.065 59.2145 214.354 59.891C214.257 59.2321 213.976 58.6874 213.475 58.2658C212.86 57.7474 212.052 57.4839 211.051 57.4839C210.506 57.5015 210.049 57.563 209.68 57.6947ZM215.856 61.0418C216.146 60.7431 216.559 60.5938 217.086 60.5938C217.569 60.5938 217.982 60.7343 218.307 61.0155C218.641 61.2966 218.817 61.7183 218.86 62.2629H215.303C215.382 61.7534 215.566 61.3493 215.856 61.0418Z" fill="#3C2F29"/>
<path d="M352.454 36.3562C353.491 36.9535 354.747 37.2522 356.241 37.2522C356.829 37.2522 357.444 37.182 358.094 37.0414C358.745 36.9008 359.342 36.6373 359.904 36.242C360.589 35.7588 361.064 35.1175 361.327 34.3356C361.477 33.87 361.565 33.299 361.573 32.605V27.7732H350.372V32.605C350.364 34.2917 351.058 35.5479 352.454 36.3562ZM352.314 30.0397H359.623V32.2008C359.623 33.2638 359.316 33.9754 358.709 34.3356C358.094 34.6958 357.225 34.8715 356.083 34.8715C355.257 34.8715 354.545 34.7573 353.948 34.5113C352.859 34.0721 352.314 33.299 352.314 32.2008V30.0397Z" fill="#3C2F29"/>
<path d="M361.565 38.8157H350.364V41.1437H361.565V38.8157Z" fill="#3C2F29"/>
<path d="M353.64 52.0724C354.642 52.0724 355.397 51.7386 355.925 51.0709C356.267 50.6404 356.54 49.9991 356.742 49.1294L357.207 47.1616C357.383 46.4061 357.541 45.9053 357.673 45.6769C357.866 45.3167 358.165 45.1322 358.569 45.1322C359.008 45.1322 359.342 45.3167 359.588 45.6857C359.834 46.0546 359.948 46.5466 359.948 47.1616C359.948 47.715 359.851 48.1806 359.667 48.5584C359.386 49.1206 358.903 49.4193 358.226 49.4632V51.7122C359.421 51.6683 360.326 51.229 360.95 50.3857C361.573 49.5423 361.89 48.5232 361.89 47.3285C361.89 45.8965 361.556 44.816 360.897 44.0692C360.229 43.3313 359.403 42.9623 358.393 42.9623C357.295 42.9623 356.487 43.3401 355.968 44.0956C355.661 44.5436 355.371 45.3606 355.108 46.5554L354.844 47.7677C354.695 48.4793 354.519 48.9976 354.317 49.3227C354.115 49.6477 353.825 49.8146 353.456 49.8146C352.823 49.8146 352.393 49.4808 352.156 48.8131C352.033 48.4617 351.971 48.0049 351.971 47.4427C351.971 46.5027 352.2 45.835 352.665 45.4485C352.92 45.2376 353.298 45.0971 353.816 45.018V42.7866C352.648 42.7866 351.734 43.2083 351.066 44.0517C350.399 44.895 350.065 46.0546 350.065 47.5305C350.065 48.9713 350.408 50.0958 351.084 50.8864C351.769 51.6771 352.621 52.0724 353.64 52.0724Z" fill="#3C2F29"/>
<path d="M354.176 63.0626V60.7346C353.597 60.5852 353.166 60.392 352.876 60.1548C352.34 59.7331 352.068 59.1181 352.068 58.3187C352.068 57.5368 352.384 56.8867 353.008 56.3772C353.632 55.8677 354.572 55.6129 355.828 55.6129C357.084 55.6129 358.059 55.8501 358.745 56.3333C359.43 56.8165 359.772 57.4753 359.772 58.3099C359.772 59.1269 359.526 59.7419 359.043 60.1636C358.771 60.4008 358.367 60.5852 357.831 60.7346V63.0802C358.534 63.045 359.228 62.7903 359.922 62.3159C361.16 61.455 361.775 60.0933 361.775 58.2221C361.775 56.8252 361.319 55.6832 360.396 54.7783C359.333 53.7417 357.831 53.2234 355.872 53.2234C354.062 53.2234 352.639 53.6802 351.602 54.5939C350.566 55.5075 350.056 56.755 350.056 58.3538C350.056 59.6452 350.443 60.6994 351.207 61.5252C351.963 62.351 352.964 62.8606 354.176 63.0626Z" fill="#3C2F29"/>
<path d="M355.986 64.5383C353.974 64.5383 352.437 65.1094 351.365 66.2426C350.495 67.086 350.056 68.3159 350.056 69.9148C350.056 71.5136 350.495 72.7435 351.365 73.5869C352.437 74.7202 353.974 75.2824 355.986 75.2824C358.042 75.2824 359.579 74.7202 360.607 73.5869C361.477 72.7435 361.916 71.5136 361.916 69.9148C361.916 68.3159 361.477 67.086 360.607 66.2426C359.57 65.1094 358.033 64.5383 355.986 64.5383ZM358.894 72.1198C358.209 72.6645 357.234 72.9368 355.977 72.9368C354.712 72.9368 353.746 72.6645 353.061 72.1198C352.375 71.5751 352.033 70.8372 352.033 69.9148C352.033 68.9836 352.375 68.2456 353.061 67.6922C353.746 67.1387 354.721 66.8664 355.977 66.8664C357.242 66.8664 358.209 67.1387 358.894 67.6922C359.579 68.2456 359.922 68.9836 359.922 69.9148C359.931 70.8372 359.588 71.5751 358.894 72.1198Z" fill="#3C2F29"/>
<path d="M350.364 86.1054H361.565V83.9268H353.755L361.565 79.4815V77.0217H350.364V79.2092H358.314L350.364 83.7686V86.1054Z" fill="#3C2F29"/>
<path d="M350.364 97.3503H361.565V95.1716H353.755L361.565 90.7176V88.2666H350.364V90.4453H358.314L350.364 95.0135V97.3503Z" fill="#3C2F29"/>
<path d="M350.364 108.103H352.376V101.901H355.257V107.348H357.207V101.901H359.588V107.831H361.565V99.6169H350.364V108.103Z" fill="#3C2F29"/>
<path d="M355.872 109.439C354.062 109.439 352.639 109.896 351.602 110.809C350.566 111.723 350.056 112.979 350.056 114.569C350.056 115.861 350.443 116.915 351.207 117.741C351.971 118.566 352.964 119.076 354.185 119.278V116.95C353.605 116.801 353.175 116.607 352.885 116.37C352.349 115.948 352.077 115.333 352.077 114.534C352.077 113.752 352.393 113.102 353.017 112.593C353.64 112.083 354.58 111.828 355.837 111.828C357.093 111.828 358.068 112.065 358.753 112.549C359.439 113.032 359.781 113.691 359.781 114.525C359.781 115.342 359.535 115.966 359.052 116.379C358.78 116.616 358.376 116.801 357.84 116.95V119.287C358.542 119.252 359.236 118.997 359.931 118.522C361.169 117.662 361.784 116.3 361.784 114.429C361.784 113.032 361.327 111.89 360.405 110.985C359.342 109.957 357.831 109.439 355.872 109.439Z" fill="#3C2F29"/>
<path d="M359.588 123.6H350.364V125.955H359.588V129.311H361.565V120.236H359.588V123.6Z" fill="#3C2F29"/>
<path d="M351.286 203.597C351.471 203.553 351.813 203.535 352.332 203.535H353.087C353.869 203.535 354.458 203.43 354.835 203.21C355.222 202.99 355.512 202.63 355.723 202.112C355.933 202.727 356.302 203.175 356.812 203.438C357.33 203.711 357.849 203.843 358.384 203.843C358.824 203.843 359.219 203.772 359.562 203.632C359.904 203.491 360.221 203.307 360.502 203.069C360.844 202.78 361.108 202.437 361.284 202.024C361.459 201.611 361.556 201.023 361.573 200.258V194.899H350.373V197.184H354.765V199.468C354.765 200.118 354.642 200.566 354.405 200.803C354.168 201.04 353.693 201.163 352.973 201.172L351.928 201.189C351.594 201.198 351.277 201.225 350.961 201.286C350.812 201.312 350.61 201.365 350.364 201.435V204.018H350.645C350.785 203.807 350.996 203.658 351.286 203.597ZM356.61 197.192H359.623V199.775C359.623 200.258 359.562 200.618 359.43 200.856C359.193 201.286 358.745 201.497 358.059 201.497C357.436 201.497 357.014 201.277 356.794 200.829C356.671 200.575 356.61 200.206 356.61 199.705V197.192Z" fill="#3C2F29"/>
<path d="M352.376 208.446H355.257V213.892H357.207V208.446H359.588V214.376H361.565V206.162H350.364V214.648H352.376V208.446Z" fill="#3C2F29"/>
<path d="M354.176 225.823V223.495C353.597 223.345 353.166 223.143 352.876 222.915C352.34 222.493 352.068 221.878 352.068 221.079C352.068 220.297 352.384 219.647 353.008 219.146C353.632 218.636 354.572 218.382 355.828 218.382C357.084 218.382 358.059 218.619 358.745 219.102C359.43 219.585 359.772 220.244 359.772 221.079C359.772 221.896 359.526 222.511 359.043 222.932C358.771 223.17 358.367 223.354 357.831 223.503V225.84C358.534 225.805 359.228 225.55 359.922 225.076C361.16 224.215 361.775 222.853 361.775 220.982C361.775 219.585 361.319 218.443 360.396 217.538C359.333 216.502 357.831 215.983 355.872 215.983C354.062 215.983 352.639 216.44 351.602 217.354C350.566 218.268 350.056 219.515 350.056 221.114C350.056 222.405 350.443 223.459 351.207 224.285C351.963 225.111 352.964 225.621 354.176 225.823Z" fill="#3C2F29"/>
<path d="M355.986 238.034C358.042 238.034 359.579 237.472 360.607 236.338C361.477 235.495 361.916 234.265 361.916 232.666C361.916 231.067 361.477 229.846 360.607 228.994C359.579 227.861 358.042 227.29 355.986 227.29C353.974 227.29 352.437 227.861 351.365 228.994C350.495 229.837 350.056 231.067 350.056 232.666C350.056 234.265 350.495 235.495 351.365 236.338C352.428 237.472 353.974 238.034 355.986 238.034ZM353.061 230.452C353.746 229.899 354.721 229.627 355.977 229.627C357.242 229.627 358.209 229.899 358.894 230.452C359.579 231.006 359.922 231.744 359.922 232.675C359.922 233.606 359.579 234.335 358.894 234.88C358.209 235.425 357.234 235.697 355.977 235.697C354.712 235.697 353.746 235.425 353.061 234.88C352.375 234.335 352.033 233.597 352.033 232.675C352.042 231.744 352.375 231.006 353.061 230.452Z" fill="#3C2F29"/>
<path d="M361.565 239.782H350.364V241.961H358.314L350.364 246.529V248.866H361.565V246.687H353.755L361.565 242.233V239.782Z" fill="#3C2F29"/>
<path d="M361.565 251.027H350.364V253.206H358.314L350.364 257.765V260.102H361.565V257.923H353.755L361.565 253.478V251.027Z" fill="#3C2F29"/>
<path d="M361.565 270.591V262.368H350.364V270.863H352.376V264.661H355.257V270.099H357.207V264.661H359.588V270.591H361.565Z" fill="#3C2F29"/>
<path d="M354.176 282.038V279.71C353.597 279.561 353.166 279.359 352.876 279.13C352.34 278.709 352.068 278.094 352.068 277.294C352.068 276.512 352.384 275.862 353.008 275.362C353.632 274.852 354.572 274.597 355.828 274.597C357.084 274.597 358.059 274.834 358.745 275.318C359.43 275.801 359.772 276.46 359.772 277.294C359.772 278.111 359.526 278.726 359.043 279.148C358.771 279.385 358.367 279.57 357.831 279.719V282.056C358.534 282.021 359.228 281.766 359.922 281.291C361.16 280.431 361.775 279.069 361.775 277.198C361.775 275.801 361.319 274.659 360.396 273.754C359.333 272.717 357.831 272.199 355.872 272.199C354.062 272.199 352.639 272.656 351.602 273.569C350.566 274.483 350.056 275.731 350.056 277.329C350.056 278.621 350.443 279.675 351.207 280.501C351.963 281.318 352.964 281.836 354.176 282.038Z" fill="#3C2F29"/>
<path d="M359.588 286.36H350.364V288.715H359.588V292.071H361.565V282.987H359.588V286.36Z" fill="#3C2F29"/>
<path d="M350.329 167.042H352.226V171.97H353.878V167.042H355.775V165.619H350.329V167.042Z" fill="#3C2F29"/>
<path d="M359.395 165.487C357.392 165.487 356.259 166.954 356.259 168.799C356.259 170.644 357.392 172.111 359.395 172.111C361.398 172.111 362.531 170.644 362.531 168.799C362.531 166.954 361.398 165.487 359.395 165.487ZM359.395 170.679C358.323 170.679 357.919 169.739 357.919 168.79C357.919 167.85 358.332 166.902 359.395 166.902C360.467 166.902 360.871 167.842 360.871 168.79C360.871 169.739 360.467 170.679 359.395 170.679Z" fill="#3C2F29"/>
<path d="M99.9554 320.806C102.723 320.806 104.717 322.159 105.068 324.716H111.675C111.499 318.61 105.569 315.122 100.096 315.122C92.4267 315.122 87.4543 320.982 87.4543 328.335C87.4543 335.688 92.4267 341.548 100.096 341.548C106.527 341.548 111.314 337.709 111.675 331.181H105.068C104.822 334.089 103.048 335.864 99.9554 335.864C95.6947 335.864 94.0607 332.104 94.0607 328.335C94.0607 324.566 95.6947 320.806 99.9554 320.806Z" fill="#3C2F29"/>
<path d="M122.076 315.658L112.597 341.012H119.379L120.978 336.47H129.816L131.379 341.012H138.267L128.788 315.658H122.076ZM122.506 331.568L125.379 322.686H125.449L128.252 331.568H122.506Z" fill="#3C2F29"/>
<path d="M154.396 332.561H154.317L149.951 315.658H140.226V341.012H146.437V321.764H146.507L151.84 341.012H156.873L162.206 321.764H162.276V341.012H168.487V315.658H158.762L154.396 332.561Z" fill="#3C2F29"/>
<path d="M185.109 315.658H173.073V341.012H179.68V332.561H185.109C190.687 332.561 194.272 330.11 194.272 323.829C194.272 317.82 189.835 315.658 185.109 315.658ZM184.116 327.448H179.68V320.947H184.116C186.137 320.947 187.665 321.905 187.665 324.285C187.665 326.596 186.18 327.448 184.116 327.448Z" fill="#3C2F29"/>
<path d="M220.547 315.658H212.351L204.005 325.383V315.658H197.399V341.012H204.005V333.202L206.702 330.356L213.519 341.012H221.725L211.174 325.638L220.547 315.658Z" fill="#3C2F29"/>
<path d="M239.013 330.927C239.013 334.195 237.81 335.864 234.577 335.864C231.344 335.864 230.141 334.195 230.141 330.927V315.658H223.534V330.54C223.534 337.893 226.908 341.548 234.577 341.548C242.246 341.548 245.62 337.893 245.62 330.54V315.658H239.013V330.927Z" fill="#3C2F29"/>
<path d="M264.235 332.561H264.156L259.79 315.658H250.065V341.012H256.276V321.764H256.346L261.67 341.012H266.713L272.045 321.764H272.115V341.012H278.326V315.658H268.593L264.235 332.561Z" fill="#3C2F29"/>
<path d="M300.597 327.123C302.582 326.13 303.935 324.285 303.935 322.01C303.935 316.721 299.138 315.579 294.772 315.658H282.912V341.012H295.097C300.526 341.012 304.972 339.167 304.972 333.132C304.963 330.25 303.294 327.905 300.597 327.123ZM289.519 320.771H294.632C296.02 320.771 297.329 321.377 297.329 323.222C297.329 325.032 295.765 325.638 294.632 325.638H289.519V320.771ZM294.807 335.723H289.519V329.899H294.807C296.793 329.899 298.356 330.646 298.356 332.886C298.356 334.977 296.898 335.723 294.807 335.723Z" fill="#3C2F29"/>
<path d="M315.434 315.658L305.955 341.012H312.737L314.336 336.47H323.174L324.738 341.012H331.625L322.146 315.658H315.434ZM315.865 331.568L318.746 322.686H318.817L321.619 331.568H315.865Z" fill="#3C2F29"/>
<path d="M345.549 315.658L340.507 325.954L335.464 315.658H327.97L337.204 331.568V341.012H343.81V331.568L353.043 315.658H345.549Z" fill="#3C2F29"/>
<path d="M365.579 315.658H358.867L349.388 341.012H356.17L357.769 336.47H366.616L368.18 341.012H375.067L365.579 315.658ZM359.298 331.568L362.171 322.686H362.241L365.043 331.568H359.298Z" fill="#3C2F29"/>
<path d="M299.428 286.255V288.504H307.273V285.675H305.332V286.422H302.784V286.387C305.235 284.665 306.834 283.092 306.834 280.878C306.834 279.025 305.613 277.584 303.135 277.584C301.747 277.584 300.798 277.839 299.437 278.375V280.641H301.396V279.912C301.835 279.789 302.204 279.754 302.582 279.754C303.232 279.754 304.321 279.93 304.321 281.37C304.321 282.504 303.434 283.769 299.428 286.255Z" fill="#3C2F29"/>
<path d="M309.39 283.048C309.39 286.114 310.181 288.662 313.484 288.662C316.787 288.662 317.578 286.114 317.578 283.048C317.578 279.982 316.787 277.593 313.484 277.593C310.181 277.584 309.39 279.974 309.39 283.048ZM315.074 283.048C315.074 285.104 314.723 286.703 313.493 286.703C312.263 286.703 311.912 285.104 311.912 283.048C311.912 280.993 312.263 279.552 313.493 279.552C314.723 279.552 315.074 280.993 315.074 283.048Z" fill="#3C2F29"/>
<path d="M319.133 286.545V288.504H324.826V286.545H323.165V277.663H322.058L319.168 278.331V280.009L320.793 279.974V286.545H319.133Z" fill="#3C2F29"/>
<path d="M328.339 284.023C328.849 283.611 329.227 283.409 330 283.409C331.309 283.409 331.678 284.313 331.678 285.034C331.678 285.939 331.159 286.694 329.877 286.694C329.385 286.694 328.911 286.65 328.419 286.518V285.745H326.459V287.863C327.821 288.477 328.831 288.653 330.017 288.653C332.627 288.653 334.19 287.388 334.19 284.902C334.19 282.574 332.881 281.37 330.852 281.37C329.903 281.37 329.306 281.625 328.796 281.985L328.761 281.968L328.875 279.833H331.897V280.562H333.839V277.733H326.828L326.635 283.874L328.339 284.023Z" fill="#3C2F29"/>
<path d="M102.67 285.745C102.406 286.475 102.564 287.327 103.144 287.907C103.531 288.302 104.058 288.513 104.611 288.513C104.857 288.513 105.086 288.469 105.314 288.381L108.881 291.939C109.057 292.115 109.276 292.194 109.505 292.194C109.733 292.194 109.953 292.106 110.128 291.939C110.471 291.596 110.471 291.043 110.128 290.7L106.562 287.142C106.825 286.413 106.667 285.561 106.087 284.981C105.525 284.419 104.664 284.27 103.935 284.516L100.359 280.94C100.017 280.597 99.4633 280.597 99.1207 280.94C98.7781 281.283 98.7781 281.836 99.1207 282.179L102.67 285.745ZM104.392 286.22C104.471 286.141 104.567 286.132 104.611 286.132C104.664 286.132 104.752 286.141 104.831 286.229C104.954 286.352 104.954 286.554 104.831 286.668C104.673 286.826 104.541 286.826 104.392 286.668C104.269 286.545 104.269 286.343 104.392 286.22Z" fill="#3C2F29"/>
<path d="M91.2317 286.448C91.2317 293.828 97.2319 299.828 104.611 299.828C111.991 299.828 117.991 293.828 117.991 286.448C117.991 279.947 113.335 274.518 107.177 273.315C107.414 272.893 107.554 272.41 107.554 271.9C107.554 270.275 106.228 268.948 104.602 268.948C102.977 268.948 101.651 270.275 101.651 271.9C101.651 272.419 101.8 272.893 102.028 273.315C95.8965 274.518 91.2317 279.947 91.2317 286.448ZM104.62 270.705C105.279 270.705 105.815 271.241 105.815 271.9C105.815 272.498 105.376 272.99 104.805 273.077C104.743 273.077 104.682 273.069 104.62 273.069C104.559 273.069 104.497 273.077 104.436 273.077C103.865 272.99 103.425 272.498 103.425 271.9C103.425 271.241 103.961 270.705 104.62 270.705ZM104.436 274.826C104.497 274.826 104.559 274.843 104.62 274.843C104.682 274.843 104.743 274.826 104.805 274.826C111.139 274.922 116.251 280.079 116.251 286.439C116.251 292.861 111.051 298.062 104.629 298.062C98.207 298.062 93.0063 292.861 93.0063 286.439C92.9887 280.088 98.1016 274.931 104.436 274.826Z" fill="#3C2F29"/>
<path d="M104.62 296.867C110.366 296.867 115.039 292.193 115.039 286.448C115.039 280.703 110.366 276.029 104.62 276.029C98.8748 276.029 94.2012 280.703 94.2012 286.448C94.2012 292.193 98.8748 296.867 104.62 296.867ZM103.742 277.83V278.7C103.742 279.183 104.137 279.578 104.62 279.578C105.103 279.578 105.499 279.183 105.499 278.7V277.83C109.575 278.243 112.825 281.493 113.238 285.57H112.377C111.894 285.57 111.499 285.965 111.499 286.448C111.499 286.931 111.894 287.327 112.377 287.327H113.238C112.825 291.403 109.575 294.653 105.499 295.066V294.196C105.499 293.713 105.103 293.318 104.62 293.318C104.137 293.318 103.742 293.713 103.742 294.196V295.066C99.6655 294.653 96.415 291.403 96.0021 287.327H96.863C97.3462 287.327 97.7415 286.931 97.7415 286.448C97.7415 285.965 97.3462 285.57 96.863 285.57H96.0021C96.415 281.493 99.6655 278.243 103.742 277.83Z" fill="#3C2F29"/>
<path d="M97.3723 38.5609L93.0061 36.7512C92.5581 36.5667 92.0398 36.7776 91.8553 37.2256C91.6708 37.6737 91.8817 38.192 92.3297 38.3765L96.6959 40.1862C96.3357 41.2931 96.1336 42.4791 96.1336 43.7002C96.1336 44.9301 96.3357 46.1073 96.6959 47.2142L92.3297 49.0239C91.8817 49.2084 91.6708 49.7267 91.8553 50.1747C91.9959 50.5086 92.3209 50.7194 92.6635 50.7194C92.7777 50.7194 92.8919 50.7018 92.9974 50.6491L97.3635 48.8394C98.4529 50.9742 100.201 52.7224 102.336 53.8117L100.526 58.1779C100.342 58.6259 100.552 59.1355 101.001 59.3287C101.106 59.3727 101.22 59.399 101.334 59.399C101.677 59.399 102.002 59.197 102.143 58.8543L103.952 54.4882C105.059 54.8484 106.236 55.0504 107.466 55.0504C108.696 55.0504 109.873 54.8484 110.98 54.4882L112.79 58.8543C112.931 59.1882 113.256 59.399 113.598 59.399C113.712 59.399 113.827 59.3814 113.932 59.3287C114.38 59.1443 114.591 58.6259 114.406 58.1779L112.597 53.8117C114.732 52.7224 116.48 50.9742 117.569 48.8394L121.935 50.6491C122.049 50.6931 122.155 50.7194 122.269 50.7194C122.612 50.7194 122.946 50.5174 123.077 50.1747C123.262 49.7267 123.051 49.2084 122.603 49.0239L118.237 47.2142C118.597 46.1073 118.799 44.9213 118.799 43.7002C118.799 42.4703 118.597 41.2931 118.237 40.1862L122.603 38.3765C123.051 38.192 123.262 37.6737 123.077 37.2256C122.893 36.7776 122.374 36.5667 121.926 36.7512L117.56 38.5609C116.471 36.4262 114.723 34.678 112.588 33.5886L114.398 29.2225C114.582 28.7744 114.371 28.2649 113.923 28.0716C113.475 27.8871 112.957 28.098 112.772 28.546L110.963 32.9122C109.856 32.552 108.67 32.3499 107.449 32.3499C106.219 32.3499 105.042 32.552 103.935 32.9122L102.151 28.5548C101.967 28.1068 101.449 27.8959 101.001 28.0804C100.552 28.2649 100.342 28.7832 100.526 29.2312L102.336 33.5974C100.201 34.6867 98.4616 36.4262 97.3723 38.5609ZM107.475 34.1069C112.764 34.1069 117.068 38.4116 117.068 43.7002C117.068 48.9888 112.764 53.2934 107.475 53.2934C102.186 53.2934 97.8818 48.9888 97.8818 43.7002C97.8818 38.4116 102.186 34.1069 107.475 34.1069Z" fill="#3C2F29"/>
<path d="M106.597 58.1956V65.373C106.597 65.8562 106.992 66.2515 107.475 66.2515C107.958 66.2515 108.354 65.8562 108.354 65.373V58.1956C108.354 57.7125 107.958 57.3171 107.475 57.3171C106.992 57.3171 106.597 57.7125 106.597 58.1956Z" fill="#3C2F29"/>
<path d="M107.475 30.0923C107.958 30.0923 108.354 29.697 108.354 29.2138V22.0365C108.354 21.5533 107.958 21.158 107.475 21.158C106.992 21.158 106.597 21.5533 106.597 22.0365V29.2138C106.597 29.697 106.992 30.0923 107.475 30.0923Z" fill="#3C2F29"/>
<path d="M96.6081 53.3287L91.5304 58.4065C91.1878 58.7491 91.1878 59.3026 91.5304 59.6452C91.7061 59.8209 91.9257 59.8999 92.1541 59.8999C92.3825 59.8999 92.6022 59.8121 92.7779 59.6452L97.8556 54.5674C98.1982 54.2248 98.1982 53.6714 97.8556 53.3287C97.5042 52.9861 96.9508 52.9861 96.6081 53.3287Z" fill="#3C2F29"/>
<path d="M117.727 34.3355C117.956 34.3355 118.175 34.2476 118.351 34.0807L123.429 29.003C123.771 28.6604 123.771 28.1069 123.429 27.7643C123.086 27.4217 122.533 27.4217 122.19 27.7643L117.112 32.842C116.77 33.1846 116.77 33.7381 117.112 34.0807C117.279 34.2476 117.508 34.3355 117.727 34.3355Z" fill="#3C2F29"/>
<path d="M117.104 53.3287C116.761 53.6714 116.761 54.2248 117.104 54.5674L122.181 59.6452C122.357 59.8209 122.577 59.8999 122.805 59.8999C123.034 59.8999 123.253 59.8121 123.429 59.6452C123.771 59.3026 123.771 58.7491 123.429 58.4065L118.351 53.3287C118.009 52.9861 117.455 52.9861 117.104 53.3287Z" fill="#3C2F29"/>
<path d="M96.6081 34.0807C96.7838 34.2564 97.0035 34.3355 97.2319 34.3355C97.4603 34.3355 97.6799 34.2476 97.8556 34.0807C98.1982 33.7381 98.1982 33.1846 97.8556 32.842L92.7779 27.7643C92.4353 27.4217 91.8818 27.4217 91.5392 27.7643C91.1966 28.1069 91.1966 28.6604 91.5392 29.003L96.6081 34.0807Z" fill="#3C2F29"/>
<path d="M121.092 43.7003C121.092 44.1835 121.487 44.5788 121.971 44.5788H129.148C129.631 44.5788 130.026 44.1835 130.026 43.7003C130.026 43.2171 129.631 42.8218 129.148 42.8218H121.971C121.487 42.8218 121.092 43.2171 121.092 43.7003Z" fill="#3C2F29"/>
<path d="M93.8672 43.7003C93.8672 43.2171 93.4719 42.8218 92.9887 42.8218H85.8114C85.3282 42.8218 84.9329 43.2171 84.9329 43.7003C84.9329 44.1835 85.3282 44.5788 85.8114 44.5788H92.9887C93.4719 44.5788 93.8672 44.1922 93.8672 43.7003Z" fill="#3C2F29"/>
<path d="M320.398 57.3611C321.039 57.3699 321.566 56.8516 321.575 56.2103C321.575 55.569 321.066 55.0419 320.415 55.0331C319.774 55.0243 319.247 55.5426 319.238 56.1839C319.238 56.834 319.757 57.3611 320.398 57.3611Z" fill="#3C2F29"/>
<path d="M316.453 57.3259C317.095 57.3347 317.622 56.8164 317.631 56.1751C317.639 55.5338 317.121 55.0067 316.48 54.9979C315.838 54.9891 315.311 55.5074 315.303 56.1575C315.294 56.7988 315.812 57.3259 316.453 57.3259Z" fill="#3C2F29"/>
<path d="M312.509 57.2996C313.15 57.3084 313.677 56.79 313.686 56.1487C313.695 55.5074 313.177 54.9803 312.527 54.9715C311.885 54.9628 311.358 55.4811 311.349 56.1312C311.349 56.7725 311.868 57.2908 312.509 57.2996Z" fill="#3C2F29"/>
<path d="M308.565 57.2644C309.206 57.2732 309.733 56.7549 309.742 56.1136C309.742 55.4723 309.232 54.9452 308.582 54.9364C307.941 54.9276 307.414 55.4459 307.405 56.0872C307.396 56.7373 307.914 57.2644 308.565 57.2644Z" fill="#3C2F29"/>
<path d="M304.611 57.2378C305.253 57.2466 305.78 56.7283 305.789 56.087C305.797 55.4457 305.279 54.9186 304.638 54.9098C303.996 54.901 303.469 55.4193 303.461 56.0606C303.452 56.7019 303.97 57.229 304.611 57.2378Z" fill="#3C2F29"/>
<path d="M317.244 60.1195C317.235 60.7608 317.754 61.2879 318.395 61.2966C319.036 61.3054 319.563 60.7871 319.572 60.1458C319.581 59.5045 319.063 58.9774 318.421 58.9686C317.771 58.9598 317.244 59.4781 317.244 60.1195Z" fill="#3C2F29"/>
<path d="M313.291 60.0843C313.282 60.7256 313.8 61.2527 314.442 61.2615C315.083 61.2703 315.61 60.752 315.619 60.1106C315.628 59.4693 315.109 58.9422 314.459 58.9335C313.827 58.9247 313.3 59.443 313.291 60.0843Z" fill="#3C2F29"/>
<path d="M309.346 60.0581C309.338 60.6994 309.856 61.2265 310.497 61.2353C311.138 61.2353 311.666 60.7257 311.674 60.0756C311.683 59.4343 311.165 58.9072 310.524 58.8984C309.882 58.8984 309.355 59.4168 309.346 60.0581Z" fill="#3C2F29"/>
<path d="M305.402 60.0229C305.393 60.6642 305.911 61.1913 306.553 61.2001C307.194 61.2001 307.721 60.6906 307.73 60.0405C307.739 59.3992 307.22 58.8721 306.579 58.8633C305.929 58.8633 305.402 59.3816 305.402 60.0229Z" fill="#3C2F29"/>
<path d="M316.392 65.2237C317.033 65.2324 317.56 64.7141 317.569 64.0728C317.578 63.4315 317.06 62.9044 316.418 62.8956C315.777 62.8868 315.25 63.4052 315.241 64.0465C315.232 64.6965 315.751 65.2149 316.392 65.2237Z" fill="#3C2F29"/>
<path d="M321.083 64.0728C321.092 63.4315 320.574 62.9044 319.932 62.8956C319.291 62.8868 318.764 63.4052 318.755 64.0465C318.746 64.6878 319.265 65.2149 319.906 65.2237C320.547 65.2324 321.074 64.7141 321.083 64.0728Z" fill="#3C2F29"/>
<path d="M312.448 65.1973C313.089 65.2061 313.616 64.6878 313.625 64.0464C313.634 63.4051 313.115 62.878 312.474 62.8693C311.833 62.8605 311.306 63.3788 311.297 64.0289C311.288 64.6614 311.797 65.1885 312.448 65.1973Z" fill="#3C2F29"/>
<path d="M308.494 65.1621C309.136 65.1709 309.663 64.6526 309.671 64.0025C309.68 63.3612 309.162 62.8341 308.521 62.8253C307.879 62.8165 307.352 63.3348 307.343 63.9849C307.335 64.635 307.853 65.1533 308.494 65.1621Z" fill="#3C2F29"/>
<path d="M306.157 64.0025C306.166 63.3612 305.648 62.8341 305.007 62.8253C304.365 62.8165 303.838 63.3348 303.829 63.9849C303.821 64.6262 304.339 65.1533 304.98 65.1621C305.63 65.1709 306.149 64.6526 306.157 64.0025Z" fill="#3C2F29"/>
<path d="M319.511 68.0347C319.52 67.3934 319.001 66.8663 318.36 66.8575C317.719 66.8487 317.192 67.3671 317.183 68.0172C317.174 68.6585 317.692 69.1856 318.342 69.1943C318.975 69.1943 319.502 68.676 319.511 68.0347Z" fill="#3C2F29"/>
<path d="M320.758 60.1195C320.749 60.7608 321.268 61.2879 321.909 61.2966C322.55 61.3054 323.077 60.7871 323.086 60.1458C323.095 59.5045 322.577 58.9774 321.935 58.9686C321.285 58.9598 320.758 59.4781 320.758 60.1195Z" fill="#3C2F29"/>
<path d="M321.865 66.8575C321.224 66.8487 320.697 67.3671 320.688 68.0172C320.679 68.6585 321.197 69.1856 321.847 69.1943C322.489 69.2031 323.016 68.6848 323.016 68.0347C323.025 67.3846 322.506 66.8663 321.865 66.8575Z" fill="#3C2F29"/>
<path d="M315.557 67.9996C315.566 67.3583 315.048 66.8312 314.407 66.8224C313.765 66.8136 313.238 67.3319 313.229 67.9732C313.221 68.6145 313.739 69.1416 314.38 69.1504C315.03 69.1592 315.557 68.6409 315.557 67.9996Z" fill="#3C2F29"/>
<path d="M311.613 67.9732C311.622 67.3319 311.103 66.8048 310.462 66.796C309.821 66.7872 309.294 67.3055 309.285 67.9468C309.276 68.5882 309.794 69.1153 310.444 69.124C311.086 69.1328 311.613 68.6145 311.613 67.9732Z" fill="#3C2F29"/>
<path d="M307.668 67.9383C307.677 67.297 307.159 66.7699 306.509 66.7611C305.868 66.7523 305.34 67.2706 305.332 67.9207C305.323 68.562 305.841 69.0891 306.491 69.0979C307.141 69.0979 307.66 68.5796 307.668 67.9383Z" fill="#3C2F29"/>
<path d="M303.039 61.2C303.68 61.2 304.207 60.6904 304.216 60.0403C304.225 59.399 303.707 58.8719 303.065 58.8631C302.424 58.8544 301.897 59.3727 301.888 60.0228C301.879 60.6641 302.398 61.1912 303.039 61.2Z" fill="#3C2F29"/>
<path d="M302.977 69.0891C303.618 69.0979 304.145 68.5796 304.154 67.9383C304.163 67.297 303.645 66.7699 302.995 66.7611C302.353 66.7523 301.826 67.2706 301.817 67.9207C301.817 68.562 302.336 69.0891 302.977 69.0891Z" fill="#3C2F29"/>
<path d="M320.293 70.8197C319.651 70.8109 319.124 71.3292 319.115 71.9705C319.107 72.6118 319.625 73.1389 320.266 73.1477C320.907 73.1565 321.435 72.6382 321.443 71.9881C321.452 71.3468 320.934 70.8285 320.293 70.8197Z" fill="#3C2F29"/>
<path d="M316.348 70.7933C315.707 70.7845 315.18 71.3029 315.171 71.9442C315.162 72.5855 315.68 73.1126 316.322 73.1214C316.963 73.1301 317.49 72.6118 317.499 71.9617C317.508 71.3204 316.989 70.7933 316.348 70.7933Z" fill="#3C2F29"/>
<path d="M312.404 70.7583C311.762 70.7583 311.235 71.2678 311.226 71.9091C311.218 72.5504 311.736 73.0775 312.386 73.0863C313.027 73.0951 313.554 72.5768 313.563 71.9267C313.563 71.2854 313.045 70.7671 312.404 70.7583Z" fill="#3C2F29"/>
<path d="M308.45 70.723C307.809 70.7142 307.282 71.2325 307.273 71.8738C307.264 72.5152 307.783 73.0423 308.424 73.051C309.065 73.0598 309.592 72.5415 309.601 71.9002C309.61 71.2589 309.1 70.7318 308.45 70.723Z" fill="#3C2F29"/>
<path d="M304.506 70.6969C303.865 70.6881 303.338 71.2064 303.329 71.8477C303.32 72.489 303.838 73.0161 304.48 73.0249C305.121 73.0337 305.648 72.5154 305.657 71.8653C305.666 71.224 305.147 70.6969 304.506 70.6969Z" fill="#3C2F29"/>
<path d="M292.523 39.9493C293.586 39.9493 295.247 39.9668 297.425 39.9844C298.848 40.002 300.509 40.0195 302.354 40.0283C299.824 41.5921 298.093 44.3857 298.093 47.5044V114.104C298.093 116.528 300.061 118.496 302.485 118.496H322.296C324.72 118.496 326.688 116.528 326.688 114.104V47.5044C326.688 44.0958 324.624 41.0737 321.707 39.6242L321.742 34.7222L320.389 34.7134L320.442 28.5024C320.46 25.8405 318.316 23.6618 315.654 23.6355L309.329 23.5828C306.693 23.5828 304.524 25.7263 304.506 28.3706L304.453 34.5816L303.1 34.5728L303.074 37.753C301.677 36.7339 300.974 34.7925 300.201 32.5874C298.936 29.0031 297.364 24.5403 291.61 24.5403C287.366 24.5403 283.887 27.9665 283.852 32.1833C283.835 34.2654 284.573 36.1717 285.943 37.5422C287.489 39.1147 289.765 39.9493 292.523 39.9493ZM322.296 116.739H302.485C301.343 116.739 300.377 116.001 300.008 114.982H324.764C324.413 116.001 323.446 116.739 322.296 116.739ZM324.931 113.225H299.85V76.943H324.931V113.225ZM324.931 75.186H299.85V52.872H324.931V75.186ZM306.254 28.3882C306.263 26.7102 307.642 25.3486 309.347 25.3486L315.637 25.4013C317.332 25.4188 318.694 26.7981 318.676 28.4936L318.624 34.7046L317.112 34.6958L317.148 29.785C317.148 29.3018 316.761 28.9065 316.278 28.8977C316.278 28.8977 316.278 28.8977 316.269 28.8977C315.786 28.8977 315.391 29.2842 315.391 29.7674L315.355 34.6783L313.291 34.6607L313.326 29.7499C313.326 29.2667 312.94 28.8713 312.456 28.8626C312.456 28.8626 312.456 28.8626 312.448 28.8626C311.964 28.8626 311.569 29.2491 311.569 29.7323L311.534 34.6431L309.469 34.6255L309.505 29.7147C309.505 29.2315 309.118 28.8362 308.635 28.8274C308.635 28.8274 308.635 28.8274 308.626 28.8274C308.143 28.8274 307.748 29.214 307.748 29.6971L307.712 34.608L306.201 34.5992L306.254 28.3882ZM304.831 36.3474L312.404 36.4089L319.976 36.4704L319.959 38.4295L304.813 38.3065L304.831 36.3474ZM306.887 40.4764H317.912C321.725 40.4764 324.94 43.6917 324.94 47.5044V51.1062H299.859V47.5044C299.859 43.7005 303.074 40.4764 306.887 40.4764ZM291.601 26.2973C296.107 26.2973 297.285 29.6356 298.532 33.1672C299.182 35.0121 299.85 36.9009 301.027 38.2625C299.718 38.2538 298.523 38.2362 297.452 38.2274C295.255 38.201 293.595 38.1923 292.532 38.1923C290.257 38.1923 288.412 37.5422 287.182 36.3035C286.136 35.2493 285.592 33.8261 285.609 32.1921C285.618 28.9416 288.315 26.2973 291.601 26.2973Z" fill="#3C2F29"/>
<path d="M342.457 301.55H370.569V189.716H374.724V164.327H373.292L373.284 156.298C373.222 152.283 371.465 148.919 368.935 147.416C370.033 145.94 371.439 145.027 372.967 145.027H374.724V132.236H370.569V18.4521H342.457V132.236H338.302V145.027H340.059C341.579 145.027 342.993 145.94 344.082 147.416C341.561 148.927 339.804 152.292 339.734 156.316L339.725 164.327H338.302V189.716H342.457V301.55ZM365.298 296.279H347.728V189.716H365.298V296.279ZM370.648 156.316L370.657 163.598C368.399 162.14 366.756 158.644 366.756 154.673C366.756 152.872 367.099 151.176 367.679 149.709C369.374 150.781 370.596 153.337 370.648 156.316ZM347.728 23.7232H365.298V132.236H347.728V23.7232ZM342.378 156.342C342.422 153.355 343.652 150.79 345.347 149.718C345.927 151.176 346.27 152.881 346.27 154.682C346.27 158.652 344.636 162.149 342.369 163.607L342.378 156.342ZM341.816 167.631C346.402 166.541 349.775 161.244 349.775 154.673C349.775 148.102 346.393 142.804 341.816 141.715V135.75H371.21V141.715C366.625 142.804 363.242 148.102 363.242 154.673C363.242 161.244 366.625 166.541 371.21 167.631V176.249H341.816V167.631ZM341.816 186.202V178.006H344.214V181.915H368.812V178.006H371.21V186.202H341.816Z" fill="#3C2F29"/>
</svg>
