<svg width="968" height="216" fill="none" xmlns="http://www.w3.org/2000/svg"><path d="M108.156 193.26c-47.083 0-85.386-38.248-85.386-85.26 0-47.012 38.303-85.26 85.386-85.26 22.643 0 43.251 8.853 58.554 23.272 1.29 1.29 3.06 1.007 4.354-.281l9.974-9.965c1.295-1.288 1.295-3.413-.076-4.89l-1.186-1.099C160.899 12.53 135.758 2 108.156 2 49.526 2 2 49.46 2 108c0 58.541 47.525 106 106.156 106 3.136 0 6.237-.147 9.302-.424 1.288-.113 3.762-1.408 3.752-4.093-.009-2.684-.214-11.904-.353-14.303-.138-2.399-2.85-2.475-4.255-2.337a85.74 85.74 0 0 1-8.446.417z" stroke="#fff" stroke-width="4"/><path d="M118.918 122.037s1.197 47.17 1.197 50.616c0 3.064-1.972 3.602-3.04 3.745-2.948.39-5.953.602-9.008.602C69.983 177 39 146.048 39 108s30.983-69 69.067-69c33.755 0 61.912 24.324 67.879 56.347.207 1.113-.032 3.313-3.415 3.065-3.385-.249-29.19-2.228-29.19-2.228-1.365-.101-2.554-1.303-2.649-2.665l-2.181-31.816c-.094-1.363-1.289-2.478-2.655-2.478h-11.952c-1.366 0-2.561 1.115-2.655 2.478l-2.193 31.816c-.094 1.361-1.284 2.564-2.648 2.665l-39.48 3.014c-1.363.103-2.477 1.303-2.477 2.671v11.938c0 1.365 1.116 2.568 2.479 2.667l39.448 2.898c1.364.099 2.506 1.302 2.54 2.665z" stroke="#fff" stroke-width="4"/><path d="M141.032 122.456c.032-1.334 1.148-2.424 2.485-2.456h66.752c3.032 0 2.814 2.319 2.648 3.475-3.117 21.711-13.048 42.643-29.846 59.348a68.24 68.24 0 0 1-1.749 1.663l-.443.412c-.021.022-.028.052-.051.077l-1.18 1.09a105.72 105.72 0 0 1-36.93 21.837c-1.261.432-3.77-.578-3.717-2.671l.005-.216c.06-2.476.284-11.758.344-14.069.078-2.948 2.001-4.55 2.943-4.961a85.196 85.196 0 0 0 24.347-16.017.94.94 0 0 1 .111-.091c.029-.022.059-.044.087-.069.175-.166.352-.329.528-.493.365-.339.73-.677 1.087-1.033 7.696-7.654 13.598-16.426 17.712-25.794.437-.99.076-2.993-2.224-2.993H172.17c-2.681 0-3.818 1.521-4.237 2.273-5.993 10.696-14.222 19.643-24.717 25.851-1.089.645-3.214.101-3.239-2.18-.027-2.28 1.055-42.983 1.055-42.983zM610.156 193.26c-47.083 0-85.386-38.248-85.386-85.26 0-47.012 38.303-85.26 85.386-85.26 22.643 0 43.251 8.853 58.554 23.272 1.29 1.29 3.06 1.007 4.354-.281l9.974-9.965c1.295-1.288 1.295-3.413-.076-4.89l-1.186-1.099C662.899 12.53 637.758 2 610.156 2 551.525 2 504 49.46 504 108c0 58.541 47.525 106 106.156 106 3.136 0 6.237-.147 9.302-.424 1.288-.113 3.762-1.408 3.752-4.093-.009-2.684-.214-11.904-.353-14.303-.138-2.399-2.85-2.475-4.255-2.337a85.74 85.74 0 0 1-8.446.417z" stroke="#fff" stroke-width="4"/><path d="M620.918 122.037s1.197 47.17 1.197 50.616c0 3.064-1.972 3.602-3.04 3.745-2.948.39-5.953.602-9.008.602C571.983 177 541 146.048 541 108s30.983-69 69.067-69c33.755 0 61.912 24.324 67.879 56.347.207 1.113-.032 3.313-3.415 3.065-3.385-.249-29.19-2.228-29.19-2.228-1.365-.101-2.554-1.303-2.649-2.665l-2.181-31.816c-.094-1.363-1.289-2.478-2.655-2.478h-11.952c-1.366 0-2.561 1.115-2.655 2.478l-2.193 31.816c-.094 1.361-1.284 2.564-2.648 2.665l-39.481 3.014c-1.362.103-2.476 1.303-2.476 2.671v11.938c0 1.365 1.116 2.568 2.479 2.667l39.448 2.898c1.364.099 2.506 1.302 2.54 2.665z" stroke="#fff" stroke-width="4"/><path d="M643.032 122.456c.032-1.334 1.148-2.424 2.485-2.456h66.752c3.032 0 2.814 2.319 2.648 3.475-3.117 21.711-13.048 42.643-29.846 59.348-.573.571-1.161 1.117-1.749 1.663l-.443.412c-.021.022-.028.052-.051.077l-1.18 1.09a105.72 105.72 0 0 1-36.93 21.837c-1.261.432-3.77-.578-3.717-2.671l.005-.216c.06-2.476.284-11.758.344-14.069.078-2.948 2.001-4.55 2.943-4.961a85.196 85.196 0 0 0 24.347-16.017c.035-.035.073-.063.111-.091.029-.022.059-.044.087-.069.175-.166.352-.329.528-.493.365-.339.73-.677 1.087-1.033 7.696-7.654 13.598-16.426 17.712-25.794.437-.99.076-2.993-2.224-2.993H674.17c-2.681 0-3.818 1.521-4.237 2.273-5.993 10.696-14.222 19.643-24.717 25.851-1.089.645-3.214.101-3.239-2.18-.027-2.28 1.055-42.983 1.055-42.983zM861.156 193.26c-47.083 0-85.386-38.248-85.386-85.26 0-47.012 38.303-85.26 85.386-85.26 22.643 0 43.251 8.853 58.554 23.272 1.29 1.29 3.06 1.007 4.354-.281l9.974-9.965c1.295-1.288 1.295-3.413-.076-4.89l-1.186-1.099C913.899 12.53 888.758 2 861.156 2 802.525 2 755 49.46 755 108c0 58.541 47.525 106 106.156 106 3.136 0 6.237-.147 9.302-.424 1.288-.113 3.762-1.408 3.752-4.093-.009-2.684-.214-11.904-.353-14.303-.138-2.399-2.85-2.475-4.255-2.337a85.74 85.74 0 0 1-8.446.417z" stroke="#fff" stroke-width="4"/><path d="M871.918 122.037s1.197 47.17 1.197 50.616c0 3.064-1.972 3.602-3.04 3.745-2.948.39-5.953.602-9.008.602C822.983 177 792 146.048 792 108s30.983-69 69.067-69c33.755 0 61.912 24.324 67.879 56.347.207 1.113-.032 3.313-3.415 3.065-3.385-.249-29.19-2.228-29.19-2.228-1.365-.101-2.554-1.303-2.649-2.665l-2.181-31.816c-.094-1.363-1.289-2.478-2.655-2.478h-11.952c-1.366 0-2.561 1.115-2.655 2.478l-2.193 31.816c-.094 1.361-1.284 2.564-2.648 2.665l-39.481 3.014c-1.362.103-2.476 1.303-2.476 2.671v11.938c0 1.365 1.116 2.568 2.479 2.667l39.448 2.898c1.364.099 2.506 1.302 2.54 2.665z" stroke="#fff" stroke-width="4"/><path d="M894.032 122.456c.032-1.334 1.148-2.424 2.485-2.456h66.752c3.032 0 2.814 2.319 2.648 3.475-3.117 21.711-13.048 42.643-29.846 59.348-.573.571-1.161 1.117-1.749 1.663l-.443.412c-.021.022-.028.052-.051.077l-1.18 1.09a105.72 105.72 0 0 1-36.93 21.837c-1.261.432-3.77-.578-3.717-2.671l.005-.216c.06-2.476.284-11.758.344-14.069.078-2.948 2.001-4.55 2.943-4.961a85.196 85.196 0 0 0 24.347-16.017c.035-.035.073-.063.111-.091.029-.022.059-.044.087-.069.175-.166.352-.329.528-.493.365-.339.73-.677 1.087-1.033 7.696-7.654 13.598-16.426 17.712-25.794.437-.99.076-2.993-2.224-2.993H925.17c-2.681 0-3.818 1.521-4.237 2.273-5.993 10.696-14.222 19.643-24.717 25.851-1.089.645-3.214.101-3.239-2.18-.027-2.28 1.055-42.983 1.055-42.983z" stroke="#fff" stroke-width="4"/><path fill-rule="evenodd" clip-rule="evenodd" d="M369.918 122.037s1.197 47.17 1.197 50.616c0 3.064-1.972 3.602-3.04 3.745-2.948.39-5.953.602-9.008.602C320.983 177 290 146.048 290 108s30.983-69 69.067-69c33.755 0 61.912 24.324 67.879 56.347.207 1.113-.032 3.313-3.415 3.065-3.385-.249-29.19-2.228-29.19-2.228-1.365-.101-2.554-1.303-2.649-2.665l-2.181-31.816c-.094-1.363-1.289-2.478-2.655-2.478h-11.952c-1.366 0-2.561 1.115-2.655 2.478l-2.193 31.816c-.094 1.361-1.284 2.564-2.648 2.665l-39.481 3.014c-1.362.103-2.476 1.303-2.476 2.671v11.938c0 1.365 1.116 2.568 2.479 2.667l39.448 2.898c1.364.099 2.506 1.302 2.54 2.665z" fill="#60BCDC"/><path fill-rule="evenodd" clip-rule="evenodd" d="M359.156 193.26c-47.083 0-85.386-38.248-85.386-85.26 0-47.012 38.303-85.26 85.386-85.26 22.643 0 43.251 8.853 58.554 23.272 1.29 1.29 3.06 1.007 4.354-.281l9.974-9.965c1.295-1.288 1.295-3.413-.076-4.89l-1.186-1.099C411.899 12.53 386.758 2 359.156 2 300.525 2 253 49.46 253 108c0 58.541 47.525 106 106.156 106 3.136 0 6.237-.147 9.302-.424 1.288-.113 3.762-1.408 3.752-4.093-.009-2.684-.214-11.904-.353-14.303-.138-2.399-2.85-2.475-4.255-2.337a85.74 85.74 0 0 1-8.446.417z" fill="#0082AE"/><path fill-rule="evenodd" clip-rule="evenodd" d="M394.517 120c-1.337.032-2.453 1.122-2.485 2.456 0 0-1.082 40.703-1.055 42.983.025 2.281 2.15 2.825 3.239 2.18 10.495-6.208 18.724-15.155 24.717-25.851.419-.752 1.556-2.273 4.237-2.273h11.771c2.3 0 2.661 2.003 2.224 2.993-4.114 9.368-10.016 18.14-17.712 25.794-.529.528-1.076 1.017-1.615 1.526-.065.057-.136.098-.198.16a85.196 85.196 0 0 1-24.347 16.017c-.942.411-2.865 2.013-2.943 4.961-.062 2.385-.299 12.192-.349 14.285-.053 2.093 2.456 3.103 3.717 2.671a105.72 105.72 0 0 0 36.93-21.837l1.18-1.09c.023-.025.03-.055.051-.077.735-.686 1.475-1.36 2.192-2.075 16.798-16.705 26.729-37.637 29.846-59.348.166-1.156.384-3.475-2.648-3.475h-66.752z" fill="#0082AE"/></svg>