<svg xmlns="http://www.w3.org/2000/svg" width="366" height="136" viewBox="0 0 366 136">
  <g fill="#222222" fill-rule="evenodd">
    <path d="M323.943 11.4490582L323.943 8 335.408 8 335.408 11.4488746C337.479875 11.8293631 339.492306 12.3554816 341.43 12.8816L358.752 12.8816C359.18 10.8816 360.45 10.4416 361.968 10.4416 363.837 10.4416 365.352 11.9006 365.352 13.7686 365.352 15.6376 363.837 17.1906 361.968 17.1906 360.45 17.1906 359.181 15.8816 358.752 14.8816L346.054 14.8816C357.494 20.8816 365.332 32.7226 365.332 46.4806 365.332 66.1416 349.337 82.0806 329.676 82.0806 310.015 82.0806 294.02 66.1236 294.02 46.4616 294.02 32.7046 301.858 20.8816 313.298 14.8816L300.6 14.8816C300.171 15.8816 298.902 17.2086 297.384 17.2086 295.515 17.2086 294 15.6376 294 13.7686 294 11.9006 295.515 10.4226 297.384 10.4226 298.902 10.4226 300.172 10.8816 300.6 12.8816L317.922 12.8816C319.859382 12.3555662 321.871477 11.8295324 323.943 11.4490582zM323.943 17.2877049C310.324165 19.9657404 300.02 31.9962186 300.02 46.3876 300.02 62.7396 313.323 76.0436 329.676 76.0436 346.029 76.0436 359.332 62.7396 359.332 46.3876 359.332 31.9958664 349.027331 19.9651515 335.408 17.2875083L335.408 19.465 323.943 19.465 323.943 17.2877049zM326.944 16.465L332.409 16.465 332.409 11 326.944 11 326.944 16.465zM337.485 38.7372L322.12 54.1022C321.811 54.4112 321.296 54.4112 321.01 54.0812 318.842 51.5772 317.712 48.1552 318.324 44.4752 319.128 39.6422 323.025 35.7452 327.858 34.9412 331.538 34.3282 334.96 35.4592 337.464 37.6272 337.794 37.9132 337.794 38.4282 337.485 38.7372zM349.514 27.7972C349.214 27.4962 348.726 27.4962 348.425 27.7972L344.106 32.1162C343.67 32.5522 342.977 32.5502 342.516 32.1402 338.463 28.5352 332.901 26.5982 326.86 27.5202 318.694 28.7662 312.15 35.3102 310.903 43.4752 309.96 49.6512 312.005 55.3262 315.765 59.4012 316.048 59.7072 316.048 60.1742 315.754 60.4682L310.463 65.7592C310.162 66.0602 310.162 66.5472 310.463 66.8472L310.886 67.2712C311.187 67.5712 311.674 67.5712 311.975 67.2712L322.754 56.4922C323.01 56.2352 323.405 56.2022 323.713 56.3942 326.008 57.8172 328.826 58.4732 331.813 57.9792 336.662 57.1762 340.559 53.2792 341.361 48.4302 341.856 45.4432 341.2 42.6252 339.777 40.3302 339.585 40.0222 339.618 39.6272 339.875 39.3712L349.937 29.3082C350.238 29.0082 350.238 28.5202 349.937 28.2202L349.514 27.7972zM163 12.131C163 8.822 165.691 6 169 6L221 6 221 64 169 64C166.816 64 164.766 64.718 163 65.741L163 12.131zM169 70C165.691 70 163 72.692 163 76 163 79.309 165.691 82 169 82L227 82 227 88 169 88C162.383 88 157 82.748 157 76.131L157 12.131C157 5.514 162.383 0 169 0L227 0 227 70 169 70zM182.8327 34.1217C182.2567 37.5817 183.3197 40.8007 185.3587 43.1547 185.6277 43.4647 186.1117 43.4647 186.4027 43.1747L200.8497 28.7267C201.1407 28.4357 201.1407 27.9517 200.8297 27.6827 198.4757 25.6447 195.2577 24.5817 191.7977 25.1567 187.2537 25.9137 183.5887 29.5777 182.8327 34.1217zM175.8387 55.5567C176.1217 55.8397 176.5797 55.8397 176.8627 55.5567L186.9977 45.4217C187.2397 45.1807 187.6107 45.1497 187.8997 45.3297 190.0577 46.6677 192.7077 47.2847 195.5167 46.8197 200.0757 46.0647 203.7407 42.4007 204.4957 37.8407 204.9607 35.0327 204.3437 32.3827 203.0047 30.2247 202.8247 29.9347 202.8557 29.5637 203.0977 29.3227L212.5587 19.8607C212.8417 19.5777 212.8417 19.1197 212.5587 18.8367L212.1607 18.4387C211.8787 18.1567 211.4197 18.1567 211.1377 18.4387L207.0757 22.5007C206.6657 22.9107 206.0147 22.9087 205.5807 22.5237 201.7697 19.1337 196.5397 17.3117 190.8597 18.1787 183.1807 19.3507 177.0267 25.5037 175.8547 33.1817 174.9677 38.9887 176.8917 44.3257 180.4267 48.1577 180.6917 48.4447 180.6927 48.8837 180.4167 49.1607L175.4407 54.1357C175.1587 54.4187 175.1587 54.8767 175.4407 55.1587L175.8387 55.5567zM72.889 10L93.852 46 72.889 82 30.963 82 10 46 30.963 10 72.889 10zM69.425 76L86.924 46 69.425 16 34.427 16 16.928 46 34.427 76 69.425 76zM71.4851 29.9424C71.7681 30.2244 71.7681 30.6834 71.4851 30.9654L62.0231 40.4274C61.7821 40.6684 61.7511 41.0394 61.9311 41.3294 63.2701 43.4874 63.8861 46.1374 63.4211 48.9464 62.6671 53.5054 59.0021 57.1694 54.4431 57.9244 51.6341 58.3894 48.9841 57.7734 46.8261 56.4344 46.5361 56.2544 46.1651 56.2854 45.9241 56.5264L35.7891 66.6624C35.5061 66.9444 35.0481 66.9444 34.7651 66.6624L34.3671 66.2644C34.0841 65.9814 34.0841 65.5234 34.3671 65.2404L39.3421 60.2654C39.6191 59.9884 39.6181 59.5494 39.3531 59.2624 35.8171 55.4304 33.8941 50.0934 34.7811 44.2864 35.9531 36.6084 42.1071 30.4554 49.7851 29.2834 55.4661 28.4174 60.6951 30.2384 64.5071 33.6284 64.9411 34.0134 65.5921 34.0154 66.0021 33.6054L70.0631 29.5444C70.3461 29.2614 70.8041 29.2614 71.0871 29.5444L71.4851 29.9424zM59.7761 39.8314C60.0671 39.5404 60.0671 39.0564 59.7561 38.7874 57.4021 36.7494 54.1841 35.6864 50.7231 36.2614 46.1791 37.0184 42.5151 40.6824 41.7591 45.2264 41.1831 48.6874 42.2461 51.9054 44.2841 54.2594 44.5531 54.5704 45.0381 54.5694 45.3281 54.2794L59.7761 39.8314zM7.64780664 116.222656C7.56186871 117.132817 7.22593457 117.842771 6.63999414 118.352539 6.05405371 118.862307 5.27476463 119.117188 4.30210352 119.117188 3.62241262 119.117188 3.02378579 118.956056 2.50620508 118.633789 1.98862437 118.311522 1.5892143 117.853519 1.30796289 117.259766 1.02671149 116.666013.880228578 115.976566.868509769 115.191406L.868509769 114.394531C.868509769 113.58984 1.01108647 112.880862 1.29624414 112.267578 1.58140182 111.654294 1.99057742 111.181642 2.52378321 110.849609 3.056989 110.517576 3.67319377 110.351562 4.37241602 110.351562 5.31382698 110.351562 6.0716319 110.607419 6.64585352 111.119141 7.22007514 111.630862 7.55405618 112.353511 7.64780664 113.287109L6.17124414 113.287109C6.10093129 112.673825 5.92222214 112.231447 5.63511133 111.959961 5.34800052 111.688475 4.92710629 111.552734 4.37241602 111.552734 3.72788155 111.552734 3.23276931 111.788084 2.88706446 112.258789 2.5413596 112.729495 2.36460356 113.419917 2.35679102 114.330078L2.35679102 115.085938C2.35679102 116.007817 2.52182843 116.710935 2.85190821 117.195312 3.18198798 117.67969 3.66538159 117.921875 4.30210352 117.921875 4.88413768 117.921875 5.3216333 117.791017 5.61460352 117.529297 5.90757373 117.267577 6.09311875 116.832034 6.17124414 116.222656L7.64780664 116.222656zM8.93695927 115.771484C8.93695927 115.150388 9.06000491 114.590823 9.30609989 114.092773 9.55219487 113.594724 9.89789454 113.211915 10.3432093 112.944336 10.788524 112.676756 11.3002376 112.542969 11.8783655 112.542969 12.7338385 112.542969 13.4281675 112.818357 13.9613733 113.369141 14.4945791 113.919925 14.7826622 114.650386 14.8256311 115.560547L14.8314905 115.894531C14.8314905 116.519534 14.7113745 117.078123 14.471139 117.570312 14.2309034 118.062502 13.8871568 118.443358 13.439889 118.712891 12.9926211 118.982423 12.4760247 119.117188 11.8900843 119.117188 10.9955485 119.117188 10.2797354 118.819339 9.74262333 118.223633 9.20551127 117.627927 8.93695927 116.833989 8.93695927 115.841797L8.93695927 115.771484zM10.3607874 115.894531C10.3607874 116.546878 10.4955517 117.057615 10.7650843 117.426758 11.0346169 117.7959 11.4096131 117.980469 11.8900843 117.980469 12.3705554 117.980469 12.7445751 117.792971 13.0121546 117.417969 13.279734 117.042967 13.4135218 116.494144 13.4135218 115.771484 13.4135218 115.130856 13.2758278 114.623049 13.0004358 114.248047 12.7250438 113.873045 12.3510241 113.685547 11.8783655 113.685547 11.4135194 113.685547 11.0443825 113.870115 10.7709436 114.239258 10.4975048 114.6084 10.3607874 115.160153 10.3607874 115.894531zM19.7241588 113.960938C19.5366578 113.929687 19.3433004 113.914062 19.1440806 113.914062 18.4917336 113.914062 18.0522849 114.16406 17.8257213 114.664062L17.8257213 119 16.4018931 119 16.4018931 112.660156 17.7612681 112.660156 17.7964244 113.369141C18.1401761 112.818357 18.6167338 112.542969 19.2261119 112.542969 19.4292379 112.542969 19.597205 112.570312 19.7300181 112.625L19.7241588 113.960938zM23.6734676 119.117188C22.7711194 119.117188 22.0396814 118.833011 21.4791317 118.264648 20.918582 117.696286 20.6383114 116.939458 20.6383114 115.994141L20.6383114 115.818359C20.6383114 115.185544 20.7603805 114.62012 21.0045223 114.12207 21.2486642 113.624021 21.5914342 113.23633 22.0328426 112.958984 22.4742511 112.681639 22.9664337 112.542969 23.5094051 112.542969 24.3726907 112.542969 25.0396762 112.818357 25.5103817 113.369141 25.9810872 113.919925 26.2164364 114.699214 26.2164364 115.707031L26.2164364 116.28125 22.0738583 116.28125C22.1168272 116.80469 22.2916302 117.218748 22.5982723 117.523438 22.9049145 117.828127 23.2906528 117.980469 23.7554989 117.980469 24.4078459 117.980469 24.9390906 117.7168 25.3492489 117.189453L26.116827 117.921875C25.8629195 118.300783 25.5240557 118.594726 25.1002254 118.803711 24.6763952 119.012696 24.200814 119.117188 23.6734676 119.117188zM23.5035458 113.685547C23.1129188 113.685547 22.7974923 113.822264 22.5572567 114.095703 22.3170211 114.369142 22.1637023 114.749998 22.0972958 115.238281L24.8101864 115.238281 24.8101864 115.132812C24.7789362 114.656248 24.6519844 114.2959 24.429327 114.051758 24.2066696 113.807616 23.898079 113.685547 23.5035458 113.685547zM36.1013823 115.384766L32.6677885 115.384766 32.6677885 119 31.1853666 119 31.1853666 110.46875 36.6052885 110.46875 36.6052885 111.664062 32.6677885 111.664062 32.6677885 114.201172 36.1013823 114.201172 36.1013823 115.384766zM41.1756911 113.960938C40.9881902 113.929687 40.7948327 113.914062 40.595613 113.914062 39.943266 113.914062 39.5038173 114.16406 39.2772536 114.664062L39.2772536 119 37.8534255 119 37.8534255 112.660156 39.2128005 112.660156 39.2479568 113.369141C39.5917085 112.818357 40.0682662 112.542969 40.6776443 112.542969 40.8807703 112.542969 41.0487373 112.570312 41.1815505 112.625L41.1756911 113.960938zM46.0566406 119C45.9941403 118.878906 45.9394534 118.681642 45.8925781 118.408203 45.4394509 118.880862 44.8847689 119.117188 44.2285156 119.117188 43.5917937 119.117188 43.0722676 118.935549 42.6699219 118.572266 42.2675761 118.208983 42.0664062 117.759768 42.0664062 117.224609 42.0664062 116.548825 42.3173803 116.030275 42.8193359 115.668945 43.3212916 115.307615 44.0390578 115.126953 44.9726562 115.126953L45.8457031 115.126953 45.8457031 114.710938C45.8457031 114.382811 45.7539072 114.120118 45.5703125 113.922852 45.3867178 113.725585 45.1074238 113.626953 44.7324219 113.626953 44.4082015 113.626953 44.1425792 113.708007 43.9355469 113.870117 43.7285146 114.032227 43.625 114.23828 43.625 114.488281L42.2011719 114.488281C42.2011719 114.140623 42.3164051 113.815431 42.546875 113.512695 42.7773449 113.209959 43.0908183 112.972657 43.4873047 112.800781 43.883791 112.628905 44.3261694 112.542969 44.8144531 112.542969 45.5566443 112.542969 46.1484353 112.72949 46.5898438 113.102539 47.0312522 113.475588 47.2578124 113.999997 47.2695312 114.675781L47.2695312 117.535156C47.2695312 118.105472 47.3496086 118.560545 47.5097656 118.900391L47.5097656 119 46.0566406 119zM44.4921875 117.974609C44.7734389 117.974609 45.0380847 117.906251 45.2861328 117.769531 45.5341809 117.632812 45.7207025 117.44922 45.8457031 117.21875L45.8457031 116.023438 45.078125 116.023438C44.5507786 116.023438 44.1542982 116.115233 43.8886719 116.298828 43.6230455 116.482423 43.4902344 116.742186 43.4902344 117.078125 43.4902344 117.351564 43.5810538 117.569335 43.7626953 117.731445 43.9443368 117.893555 44.1874985 117.974609 44.4921875 117.974609zM50.4688401 112.660156L50.5098557 113.322266C50.9551705 112.802732 51.5645394 112.542969 52.3379807 112.542969 53.1856412 112.542969 53.7657136 112.867184 54.0782151 113.515625 54.5391549 112.867184 55.1875859 112.542969 56.0235276 112.542969 56.7227499 112.542969 57.2432525 112.736326 57.5850511 113.123047 57.9268496 113.509768 58.1016526 114.080074 58.1094651 114.833984L58.1094651 119 56.685637 119 56.685637 114.875C56.685637 114.472654 56.5977473 114.177735 56.4219651 113.990234 56.246183 113.802733 55.9551703 113.708984 55.5489182 113.708984 55.2246979 113.708984 54.9600521 113.795898 54.7549729 113.969727 54.5498938 114.143556 54.4063405 114.371092 54.3243089 114.652344L54.3301682 119 52.9063401 119 52.9063401 114.828125C52.8868088 114.082028 52.5059532 113.708984 51.763762 113.708984 51.1934466 113.708984 50.7891538 113.941404 50.5508714 114.40625L50.5508714 119 49.1270432 119 49.1270432 112.660156 50.4688401 112.660156zM62.7326021 119.117188C61.8302539 119.117188 61.0988159 118.833011 60.5382662 118.264648 59.9777165 117.696286 59.6974459 116.939458 59.6974459 115.994141L59.6974459 115.818359C59.6974459 115.185544 59.819515 114.62012 60.0636568 114.12207 60.3077987 113.624021 60.6505687 113.23633 61.0919771 112.958984 61.5333856 112.681639 62.0255682 112.542969 62.5685396 112.542969 63.4318252 112.542969 64.0988107 112.818357 64.5695162 113.369141 65.0402217 113.919925 65.2755709 114.699214 65.2755709 115.707031L65.2755709 116.28125 61.1329927 116.28125C61.1759617 116.80469 61.3507646 117.218748 61.6574068 117.523438 61.964049 117.828127 62.3497873 117.980469 62.8146334 117.980469 63.4669804 117.980469 63.9982251 117.7168 64.4083834 117.189453L65.1759615 117.921875C64.922054 118.300783 64.5831902 118.594726 64.1593599 118.803711 63.7355297 119.012696 63.2599485 119.117188 62.7326021 119.117188zM62.5626802 113.685547C62.1720533 113.685547 61.8566268 113.822264 61.6163912 114.095703 61.3761556 114.369142 61.2228368 114.749998 61.1564302 115.238281L63.8693209 115.238281 63.8693209 115.132812C63.8380707 114.656248 63.7111189 114.2959 63.4884615 114.051758 63.2658041 113.807616 62.9572135 113.685547 62.5626802 113.685547zM72.3186297 117.037109L73.3264422 112.660156 74.7151141 112.660156 72.9865985 119 71.8147235 119 70.4553485 114.646484 69.119411 119 67.947536 119 66.213161 112.660156 67.6018329 112.660156 68.6272235 116.990234 69.9280047 112.660156 71.0002704 112.660156 72.3186297 117.037109zM75.7698917 115.771484C75.7698917 115.150388 75.8929374 114.590823 76.1390324 114.092773 76.3851273 113.594724 76.730827 113.211915 77.1761417 112.944336 77.6214565 112.676756 78.1331701 112.542969 78.711298 112.542969 79.566771 112.542969 80.2611 112.818357 80.7943058 113.369141 81.3275116 113.919925 81.6155946 114.650386 81.6585636 115.560547L81.664423 115.894531C81.664423 116.519534 81.544307 117.078123 81.3040714 117.570312 81.0638359 118.062502 80.7200893 118.443358 80.2728214 118.712891 79.8255536 118.982423 79.3089572 119.117188 78.7230167 119.117188 77.828481 119.117188 77.1126679 118.819339 76.5755558 118.223633 76.0384437 117.627927 75.7698917 116.833989 75.7698917 115.841797L75.7698917 115.771484zM77.1937199 115.894531C77.1937199 116.546878 77.3284841 117.057615 77.5980167 117.426758 77.8675493 117.7959 78.2425456 117.980469 78.7230167 117.980469 79.2034879 117.980469 79.5775076 117.792971 79.8450871 117.417969 80.1126665 117.042967 80.2464542 116.494144 80.2464542 115.771484 80.2464542 115.130856 80.1087603 114.623049 79.8333683 114.248047 79.5579763 113.873045 79.1839566 113.685547 78.711298 113.685547 78.2464519 113.685547 77.877315 113.870115 77.6038761 114.239258 77.3304372 114.6084 77.1937199 115.160153 77.1937199 115.894531zM86.5570912 113.960938C86.3695903 113.929687 86.1762329 113.914062 85.9770131 113.914062 85.3246661 113.914062 84.8852174 114.16406 84.6586537 114.664062L84.6586537 119 83.2348256 119 83.2348256 112.660156 84.5942006 112.660156 84.6293569 113.369141C84.9731086 112.818357 85.4496663 112.542969 86.0590444 112.542969 86.2621704 112.542969 86.4301374 112.570312 86.5629506 112.625L86.5570912 113.960938zM89.8853064 116.28125L89.2524939 116.931641 89.2524939 119 87.8286657 119 87.8286657 110 89.2524939 110 89.2524939 115.191406 89.6978064 114.634766 91.4497595 112.660156 93.160697 112.660156 90.8052282 115.302734 93.4126501 119 91.7661657 119 89.8853064 116.28125zM164.738762 116.222656C164.652824 117.132817 164.31689 117.842771 163.73095 118.352539 163.145009 118.862307 162.36572 119.117188 161.393059 119.117188 160.713368 119.117188 160.114741 118.956056 159.597161 118.633789 159.07958 118.311522 158.68017 117.853519 158.398918 117.259766 158.117667 116.666013 157.971184 115.976566 157.959465 115.191406L157.959465 114.394531C157.959465 113.58984 158.102042 112.880862 158.3872 112.267578 158.672357 111.654294 159.081533 111.181642 159.614739 110.849609 160.147944 110.517576 160.764149 110.351562 161.463372 110.351562 162.404782 110.351562 163.162587 110.607419 163.736809 111.119141 164.311031 111.630862 164.645012 112.353511 164.738762 113.287109L163.2622 113.287109C163.191887 112.673825 163.013178 112.231447 162.726067 111.959961 162.438956 111.688475 162.018062 111.552734 161.463372 111.552734 160.818837 111.552734 160.323725 111.788084 159.97802 112.258789 159.632315 112.729495 159.455559 113.419917 159.447747 114.330078L159.447747 115.085938C159.447747 116.007817 159.612784 116.710935 159.942864 117.195312 160.272943 117.67969 160.756337 117.921875 161.393059 117.921875 161.975093 117.921875 162.412589 117.791017 162.705559 117.529297 162.998529 117.267577 163.184074 116.832034 163.2622 116.222656L164.738762 116.222656zM166.027915 115.771484C166.027915 115.150388 166.15096 114.590823 166.397055 114.092773 166.64315 113.594724 166.98885 113.211915 167.434165 112.944336 167.879479 112.676756 168.391193 112.542969 168.969321 112.542969 169.824794 112.542969 170.519123 112.818357 171.052329 113.369141 171.585535 113.919925 171.873618 114.650386 171.916587 115.560547L171.922446 115.894531C171.922446 116.519534 171.80233 117.078123 171.562094 117.570312 171.321859 118.062502 170.978112 118.443358 170.530844 118.712891 170.083577 118.982423 169.56698 119.117188 168.98104 119.117188 168.086504 119.117188 167.370691 118.819339 166.833579 118.223633 166.296467 117.627927 166.027915 116.833989 166.027915 115.841797L166.027915 115.771484zM167.451743 115.894531C167.451743 116.546878 167.586507 117.057615 167.85604 117.426758 168.125572 117.7959 168.500569 117.980469 168.98104 117.980469 169.461511 117.980469 169.835531 117.792971 170.10311 117.417969 170.37069 117.042967 170.504477 116.494144 170.504477 115.771484 170.504477 115.130856 170.366783 114.623049 170.091391 114.248047 169.815999 113.873045 169.44198 113.685547 168.969321 113.685547 168.504475 113.685547 168.135338 113.870115 167.861899 114.239258 167.58846 114.6084 167.451743 115.160153 167.451743 115.894531zM176.815114 113.960938C176.627613 113.929687 176.434256 113.914062 176.235036 113.914062 175.582689 113.914062 175.14324 114.16406 174.916677 114.664062L174.916677 119 173.492849 119 173.492849 112.660156 174.852224 112.660156 174.88738 113.369141C175.231132 112.818357 175.707689 112.542969 176.317067 112.542969 176.520193 112.542969 176.68816 112.570312 176.820974 112.625L176.815114 113.960938zM180.764423 119.117188C179.862075 119.117188 179.130637 118.833011 178.570087 118.264648 178.009538 117.696286 177.729267 116.939458 177.729267 115.994141L177.729267 115.818359C177.729267 115.185544 177.851336 114.62012 178.095478 114.12207 178.33962 113.624021 178.68239 113.23633 179.123798 112.958984 179.565207 112.681639 180.057389 112.542969 180.600361 112.542969 181.463646 112.542969 182.130632 112.818357 182.601337 113.369141 183.072043 113.919925 183.307392 114.699214 183.307392 115.707031L183.307392 116.28125 179.164814 116.28125C179.207783 116.80469 179.382586 117.218748 179.689228 117.523438 179.99587 117.828127 180.381608 117.980469 180.846454 117.980469 181.498801 117.980469 182.030046 117.7168 182.440204 117.189453L183.207783 117.921875C182.953875 118.300783 182.615011 118.594726 182.191181 118.803711 181.767351 119.012696 181.29177 119.117188 180.764423 119.117188zM180.594501 113.685547C180.203874 113.685547 179.888448 113.822264 179.648212 114.095703 179.407977 114.369142 179.254658 114.749998 179.188251 115.238281L181.901142 115.238281 181.901142 115.132812C181.869892 114.656248 181.74294 114.2959 181.520283 114.051758 181.297625 113.807616 180.989034 113.685547 180.594501 113.685547zM188.276322 119L188.276322 110.46875 190.795853 110.46875C191.549763 110.46875 192.218702 110.636717 192.802689 110.972656 193.386677 111.308595 193.838821 111.785153 194.159135 112.402344 194.479449 113.019534 194.639603 113.726559 194.639603 114.523438L194.639603 114.951172C194.639603 115.75977 194.478472 116.4707 194.156205 117.083984 193.833938 117.697269 193.374958 118.16992 192.779252 118.501953 192.183546 118.833986 191.500935 119 190.7314 119L188.276322 119zM189.758744 111.664062L189.758744 117.816406 190.725541 117.816406C191.502889 117.816406 192.099562 117.573245 192.51558 117.086914 192.931598 116.600584 193.14351 115.902348 193.151322 114.992188L193.151322 114.517578C193.151322 113.591792 192.950152 112.884768 192.547807 112.396484 192.145461 111.908201 191.561482 111.664062 190.795853 111.664062L189.758744 111.664062zM199.139693 119.117188C198.237345 119.117188 197.505907 118.833011 196.945358 118.264648 196.384808 117.696286 196.104537 116.939458 196.104537 115.994141L196.104537 115.818359C196.104537 115.185544 196.226606 114.62012 196.470748 114.12207 196.71489 113.624021 197.05766 113.23633 197.499068 112.958984 197.940477 112.681639 198.43266 112.542969 198.975631 112.542969 199.838917 112.542969 200.505902 112.818357 200.976608 113.369141 201.447313 113.919925 201.682662 114.699214 201.682662 115.707031L201.682662 116.28125 197.540084 116.28125C197.583053 116.80469 197.757856 117.218748 198.064498 117.523438 198.37114 117.828127 198.756879 117.980469 199.221725 117.980469 199.874072 117.980469 200.405316 117.7168 200.815475 117.189453L201.583053 117.921875C201.329145 118.300783 200.990282 118.594726 200.566451 118.803711 200.142621 119.012696 199.66704 119.117188 199.139693 119.117188zM198.969772 113.685547C198.579145 113.685547 198.263718 113.822264 198.023483 114.095703 197.783247 114.369142 197.629928 114.749998 197.563522 115.238281L200.276412 115.238281 200.276412 115.132812C200.245162 114.656248 200.11821 114.2959 199.895553 114.051758 199.672896 113.807616 199.364305 113.685547 198.969772 113.685547zM206.710096 117.277344C206.710096 117.023436 206.605605 116.830079 206.39662 116.697266 206.187634 116.564452 205.840958 116.447266 205.35658 116.345703 204.872203 116.24414 204.46791 116.115235 204.14369 115.958984 203.432749 115.615233 203.077284 115.117191 203.077284 114.464844 203.077284 113.917966 203.30775 113.460939 203.76869 113.09375 204.22963 112.726561 204.815561 112.542969 205.526502 112.542969 206.284319 112.542969 206.896617 112.730467 207.363416 113.105469 207.830216 113.480471 208.063612 113.966794 208.063612 114.564453L206.639784 114.564453C206.639784 114.291014 206.538222 114.063477 206.335096 113.881836 206.13197 113.700194 205.862442 113.609375 205.526502 113.609375 205.214001 113.609375 204.959121 113.68164 204.761854 113.826172 204.564587 113.970704 204.465955 114.164061 204.465955 114.40625 204.465955 114.625001 204.557751 114.794921 204.741346 114.916016 204.924941 115.03711 205.296031 115.159179 205.854627 115.282227 206.413224 115.405274 206.851696 115.551757 207.170057 115.72168 207.488418 115.891602 207.724744 116.095702 207.879041 116.333984 208.033339 116.572267 208.110487 116.861326 208.110487 117.201172 208.110487 117.771487 207.874161 118.233397 207.401502 118.586914 206.928844 118.940431 206.309709 119.117188 205.54408 119.117188 205.024547 119.117188 204.561661 119.023438 204.155409 118.835938 203.749157 118.648437 203.432754 118.390627 203.20619 118.0625 202.979626 117.734373 202.866346 117.380861 202.866346 117.001953L204.249159 117.001953C204.26869 117.337892 204.395642 117.596679 204.630018 117.77832 204.864394 117.959962 205.174938 118.050781 205.561659 118.050781 205.93666 118.050781 206.221814 117.979493 206.417127 117.836914 206.612441 117.694335 206.710096 117.507814 206.710096 117.277344zM211.233624 119L209.809796 119 209.809796 112.660156 211.233624 112.660156 211.233624 119zM209.721905 111.013672C209.721905 110.794921 209.79124 110.613282 209.929913 110.46875 210.068585 110.324218 210.266826 110.251953 210.524639 110.251953 210.782453 110.251953 210.98167 110.324218 211.122296 110.46875 211.262921 110.613282 211.333233 110.794921 211.333233 111.013672 211.333233 111.228517 211.262921 111.407226 211.122296 111.549805 210.98167 111.692384 210.782453 111.763672 210.524639 111.763672 210.266826 111.763672 210.068585 111.692384 209.929913 111.549805 209.79124 111.407226 209.721905 111.228517 209.721905 111.013672zM212.903636 115.783203C212.903636 114.798823 213.135079 114.012698 213.597972 113.424805 214.060865 112.836911 214.675116 112.542969 215.440745 112.542969 216.163405 112.542969 216.731759 112.794919 217.145823 113.298828L217.210276 112.660156 218.493479 112.660156 218.493479 118.806641C218.493479 119.638676 218.234693 120.294919 217.717112 120.775391 217.199532 121.255862 216.501296 121.496094 215.622386 121.496094 215.15754 121.496094 214.703443 121.399415 214.260081 121.206055 213.816719 121.012694 213.479809 120.759767 213.249339 120.447266L213.923167 119.591797C214.360669 120.111331 214.899726 120.371094 215.540354 120.371094 216.013013 120.371094 216.386056 120.243165 216.659495 119.987305 216.932934 119.731444 217.069651 119.355471 217.069651 118.859375L217.069651 118.431641C216.659493 118.888674 216.112624 119.117188 215.429026 119.117188 214.686835 119.117188 214.080396 118.822269 213.60969 118.232422 213.138985 117.642575 212.903636 116.826177 212.903636 115.783203zM214.321604 115.90625C214.321604 116.542972 214.451486 117.043943 214.711253 117.40918 214.97102 117.774416 215.331368 117.957031 215.792308 117.957031 216.366529 117.957031 216.792306 117.71094 217.069651 117.21875L217.069651 114.429688C216.800119 113.949216 216.378248 113.708984 215.804026 113.708984 215.335274 113.708984 214.97102 113.894529 214.711253 114.265625 214.451486 114.636721 214.321604 115.18359 214.321604 115.90625zM221.645913 112.660156L221.686929 113.392578C222.155681 112.826169 222.77091 112.542969 223.532632 112.542969 224.852951 112.542969 225.524819 113.298821 225.548257 114.810547L225.548257 119 224.124429 119 224.124429 114.892578C224.124429 114.490232 224.037516 114.192384 223.863687 113.999023 223.689858 113.805663 223.405681 113.708984 223.011148 113.708984 222.436926 113.708984 222.009196 113.968747 221.727945 114.488281L221.727945 119 220.304116 119 220.304116 112.660156 221.645913 112.660156zM169.285682 133.892578C168.977087 134.294924 168.549357 134.599608 168.002479 134.806641 167.455601 135.013673 166.834514 135.117188 166.139198 135.117188 165.424351 135.117188 164.791544 134.95508 164.24076 134.630859 163.689976 134.306639 163.265176 133.842776 162.966346 133.239258 162.667517 132.635739 162.512245 131.931645 162.500526 131.126953L162.500526 130.458984C162.500526 129.169915 162.809117 128.16309 163.426307 127.438477 164.043498 126.713864 164.904817 126.351562 166.010292 126.351562 166.959515 126.351562 167.713414 126.585935 168.27201 127.054688 168.830607 127.52344 169.166541 128.199214 169.279823 129.082031L167.826698 129.082031C167.662635 128.054682 167.066937 127.541016 166.039588 127.541016 165.375523 127.541016 164.870645 127.780271 164.52494 128.258789 164.179235 128.737307 164.000526 129.439448 163.988807 130.365234L163.988807 131.021484C163.988807 131.943364 164.183141 132.659177 164.571815 133.168945 164.960489 133.678713 165.500522 133.933594 166.191932 133.933594 166.949748 133.933594 167.488806 133.76172 167.80912 133.417969L167.80912 131.748047 166.051307 131.748047 166.051307 130.623047 169.285682 130.623047 169.285682 133.892578zM174.986944 134.378906C174.568973 134.871096 173.975229 135.117188 173.205694 135.117188 172.518191 135.117188 171.997688 134.916018 171.644171 134.513672 171.290653 134.111326 171.113897 133.529301 171.113897 132.767578L171.113897 128.660156 172.537725 128.660156 172.537725 132.75C172.537725 133.554692 172.871706 133.957031 173.539679 133.957031 174.231088 133.957031 174.69788 133.708987 174.940069 133.212891L174.940069 128.660156 176.363897 128.660156 176.363897 135 175.0221 135 174.986944 134.378906zM179.697972 135L178.274144 135 178.274144 128.660156 179.697972 128.660156 179.697972 135zM178.186253 127.013672C178.186253 126.794921 178.255588 126.613282 178.394261 126.46875 178.532933 126.324218 178.731174 126.251953 178.988987 126.251953 179.246801 126.251953 179.446018 126.324218 179.586644 126.46875 179.727269 126.613282 179.797581 126.794921 179.797581 127.013672 179.797581 127.228517 179.727269 127.407226 179.586644 127.549805 179.446018 127.692384 179.246801 127.763672 178.988987 127.763672 178.731174 127.763672 178.532933 127.692384 178.394261 127.549805 178.255588 127.407226 178.186253 127.228517 178.186253 127.013672zM181.350406 131.783203C181.350406 130.806636 181.576966 130.022464 182.030093 129.430664 182.48322 128.838864 183.090636 128.542969 183.852359 128.542969 184.524237 128.542969 185.0672 128.777341 185.481265 129.246094L185.481265 126 186.905093 126 186.905093 135 185.616031 135 185.545718 134.34375C185.119935 134.859378 184.551581 135.117188 183.84064 135.117188 183.098449 135.117188 182.497869 134.818362 182.038882 134.220703 181.579896 133.623044 181.350406 132.810552 181.350406 131.783203zM182.774234 131.90625C182.774234 132.550784 182.898256 133.053709 183.146304 133.415039 183.394352 133.776369 183.746888 133.957031 184.203921 133.957031 184.785955 133.957031 185.211732 133.697268 185.481265 133.177734L185.481265 130.470703C185.219545 129.962888 184.797674 129.708984 184.21564 129.708984 183.7547 129.708984 183.399235 129.8916 183.149234 130.256836 182.899233 130.622072 182.774234 131.171871 182.774234 131.90625zM191.551668 135.117188C190.649319 135.117188 189.917881 134.833011 189.357332 134.264648 188.796782 133.696286 188.516511 132.939458 188.516511 131.994141L188.516511 131.818359C188.516511 131.185544 188.638581 130.62012 188.882722 130.12207 189.126864 129.624021 189.469634 129.23633 189.911043 128.958984 190.352451 128.681639 190.844634 128.542969 191.387605 128.542969 192.250891 128.542969 192.917876 128.818357 193.388582 129.369141 193.859287 129.919925 194.094636 130.699214 194.094636 131.707031L194.094636 132.28125 189.952058 132.28125C189.995027 132.80469 190.16983 133.218748 190.476472 133.523438 190.783115 133.828127 191.168853 133.980469 191.633699 133.980469 192.286046 133.980469 192.817291 133.7168 193.227449 133.189453L193.995027 133.921875C193.74112 134.300783 193.402256 134.594726 192.978426 134.803711 192.554595 135.012696 192.079014 135.117188 191.551668 135.117188zM191.381746 129.685547C190.991119 129.685547 190.675692 129.822264 190.435457 130.095703 190.195221 130.369142 190.041902 130.749998 189.975496 131.238281L192.688386 131.238281 192.688386 131.132812C192.657136 130.656248 192.530184 130.2959 192.307527 130.051758 192.08487 129.807616 191.776279 129.685547 191.381746 129.685547zM197.083008 135L195.65918 135 195.65918 126 197.083008 126 197.083008 135zM200.516692 135L199.092864 135 199.092864 128.660156 200.516692 128.660156 200.516692 135zM199.004973 127.013672C199.004973 126.794921 199.074308 126.613282 199.212981 126.46875 199.351653 126.324218 199.549894 126.251953 199.807707 126.251953 200.065521 126.251953 200.264738 126.324218 200.405364 126.46875 200.545989 126.613282 200.616301 126.794921 200.616301 127.013672 200.616301 127.228517 200.545989 127.407226 200.405364 127.549805 200.264738 127.692384 200.065521 127.763672 199.807707 127.763672 199.549894 127.763672 199.351653 127.692384 199.212981 127.549805 199.074308 127.407226 199.004973 127.228517 199.004973 127.013672zM203.757016 128.660156L203.798032 129.392578C204.266784 128.826169 204.882012 128.542969 205.643735 128.542969 206.964054 128.542969 207.635922 129.298821 207.65936 130.810547L207.65936 135 206.235532 135 206.235532 130.892578C206.235532 130.490232 206.148619 130.192384 205.97479 129.999023 205.800961 129.805663 205.516784 129.708984 205.122251 129.708984 204.548029 129.708984 204.120299 129.968747 203.839047 130.488281L203.839047 135 202.415219 135 202.415219 128.660156 203.757016 128.660156zM212.270778 135.117188C211.36843 135.117188 210.636992 134.833011 210.076442 134.264648 209.515893 133.696286 209.235622 132.939458 209.235622 131.994141L209.235622 131.818359C209.235622 131.185544 209.357691 130.62012 209.601833 130.12207 209.845975 129.624021 210.188745 129.23633 210.630153 128.958984 211.071562 128.681639 211.563744 128.542969 212.106716 128.542969 212.970001 128.542969 213.636987 128.818357 214.107692 129.369141 214.578398 129.919925 214.813747 130.699214 214.813747 131.707031L214.813747 132.28125 210.671169 132.28125C210.714138 132.80469 210.888941 133.218748 211.195583 133.523438 211.502225 133.828127 211.887963 133.980469 212.352809 133.980469 213.005156 133.980469 213.536401 133.7168 213.946559 133.189453L214.714138 133.921875C214.46023 134.300783 214.121366 134.594726 213.697536 134.803711 213.273706 135.012696 212.798125 135.117188 212.270778 135.117188zM212.100856 129.685547C211.710229 129.685547 211.394803 129.822264 211.154567 130.095703 210.914332 130.369142 210.761013 130.749998 210.694606 131.238281L213.407497 131.238281 213.407497 131.132812C213.376247 130.656248 213.249295 130.2959 213.026638 130.051758 212.80398 129.807616 212.49539 129.685547 212.100856 129.685547zM219.841181 133.277344C219.841181 133.023436 219.73669 132.830079 219.527704 132.697266 219.318719 132.564452 218.972043 132.447266 218.487665 132.345703 218.003288 132.24414 217.598995 132.115235 217.274775 131.958984 216.563833 131.615233 216.208368 131.117191 216.208368 130.464844 216.208368 129.917966 216.438835 129.460939 216.899775 129.09375 217.360714 128.726561 217.946646 128.542969 218.657587 128.542969 219.415403 128.542969 220.027702 128.730467 220.494501 129.105469 220.9613 129.480471 221.194696 129.966794 221.194696 130.564453L219.770868 130.564453C219.770868 130.291014 219.669307 130.063477 219.466181 129.881836 219.263055 129.700194 218.993526 129.609375 218.657587 129.609375 218.345085 129.609375 218.090205 129.68164 217.892939 129.826172 217.695672 129.970704 217.59704 130.164061 217.59704 130.40625 217.59704 130.625001 217.688836 130.794921 217.872431 130.916016 218.056025 131.03711 218.427116 131.159179 218.985712 131.282227 219.544309 131.405274 219.982781 131.551757 220.301142 131.72168 220.619503 131.891602 220.855828 132.095702 221.010126 132.333984 221.164424 132.572267 221.241571 132.861326 221.241571 133.201172 221.241571 133.771487 221.005246 134.233397 220.532587 134.586914 220.059928 134.940431 219.440794 135.117188 218.675165 135.117188 218.155631 135.117188 217.692745 135.023438 217.286493 134.835938 216.880241 134.648437 216.563838 134.390627 216.337275 134.0625 216.110711 133.734373 215.997431 133.380861 215.997431 133.001953L217.380243 133.001953C217.399775 133.337892 217.526727 133.596679 217.761103 133.77832 217.995479 133.959962 218.306023 134.050781 218.692743 134.050781 219.067745 134.050781 219.352899 133.979493 219.548212 133.836914 219.743526 133.694335 219.841181 133.507814 219.841181 133.277344zM316.379567 116.222656C316.293629 117.132817 315.957695 117.842771 315.371755 118.352539 314.785814 118.862307 314.006525 119.117188 313.033864 119.117188 312.354173 119.117188 311.755547 118.956056 311.237966 118.633789 310.720385 118.311522 310.320975 117.853519 310.039724 117.259766 309.758472 116.666013 309.611989 115.976566 309.600271 115.191406L309.600271 114.394531C309.600271 113.58984 309.742847 112.880862 310.028005 112.267578 310.313163 111.654294 310.722338 111.181642 311.255544 110.849609 311.78875 110.517576 312.404955 110.351562 313.104177 110.351562 314.045588 110.351562 314.803393 110.607419 315.377614 111.119141 315.951836 111.630862 316.285817 112.353511 316.379567 113.287109L314.903005 113.287109C314.832692 112.673825 314.653983 112.231447 314.366872 111.959961 314.079761 111.688475 313.658867 111.552734 313.104177 111.552734 312.459642 111.552734 311.96453 111.788084 311.618825 112.258789 311.27312 112.729495 311.096364 113.419917 311.088552 114.330078L311.088552 115.085938C311.088552 116.007817 311.253589 116.710935 311.583669 117.195312 311.913749 117.67969 312.397142 117.921875 313.033864 117.921875 313.615898 117.921875 314.053394 117.791017 314.346364 117.529297 314.639334 117.267577 314.824879 116.832034 314.903005 116.222656L316.379567 116.222656zM317.66872 115.771484C317.66872 115.150388 317.791766 114.590823 318.037861 114.092773 318.283956 113.594724 318.629655 113.211915 319.07497 112.944336 319.520285 112.676756 320.031998 112.542969 320.610126 112.542969 321.465599 112.542969 322.159928 112.818357 322.693134 113.369141 323.22634 113.919925 323.514423 114.650386 323.557392 115.560547L323.563251 115.894531C323.563251 116.519534 323.443135 117.078123 323.2029 117.570312 322.962664 118.062502 322.618918 118.443358 322.17165 118.712891 321.724382 118.982423 321.207785 119.117188 320.621845 119.117188 319.727309 119.117188 319.011496 118.819339 318.474384 118.223633 317.937272 117.627927 317.66872 116.833989 317.66872 115.841797L317.66872 115.771484zM319.092548 115.894531C319.092548 116.546878 319.227312 117.057615 319.496845 117.426758 319.766378 117.7959 320.141374 117.980469 320.621845 117.980469 321.102316 117.980469 321.476336 117.792971 321.743915 117.417969 322.011495 117.042967 322.145283 116.494144 322.145283 115.771484 322.145283 115.130856 322.007589 114.623049 321.732197 114.248047 321.456805 113.873045 321.082785 113.685547 320.610126 113.685547 320.14528 113.685547 319.776143 113.870115 319.502704 114.239258 319.229266 114.6084 319.092548 115.160153 319.092548 115.894531zM328.45592 113.960938C328.268419 113.929687 328.075061 113.914062 327.875841 113.914062 327.223494 113.914062 326.784046 114.16406 326.557482 114.664062L326.557482 119 325.133654 119 325.133654 112.660156 326.493029 112.660156 326.528185 113.369141C326.871937 112.818357 327.348495 112.542969 327.957873 112.542969 328.160999 112.542969 328.328966 112.570312 328.461779 112.625L328.45592 113.960938zM332.405228 119.117188C331.50288 119.117188 330.771442 118.833011 330.210892 118.264648 329.650343 117.696286 329.370072 116.939458 329.370072 115.994141L329.370072 115.818359C329.370072 115.185544 329.492141 114.62012 329.736283 114.12207 329.980425 113.624021 330.323195 113.23633 330.764603 112.958984 331.206012 112.681639 331.698194 112.542969 332.241166 112.542969 333.104451 112.542969 333.771437 112.818357 334.242142 113.369141 334.712848 113.919925 334.948197 114.699214 334.948197 115.707031L334.948197 116.28125 330.805619 116.28125C330.848588 116.80469 331.023391 117.218748 331.330033 117.523438 331.636675 117.828127 332.022414 117.980469 332.48726 117.980469 333.139607 117.980469 333.670851 117.7168 334.08101 117.189453L334.848588 117.921875C334.59468 118.300783 334.255816 118.594726 333.831986 118.803711 333.408156 119.012696 332.932575 119.117188 332.405228 119.117188zM332.235307 113.685547C331.84468 113.685547 331.529253 113.822264 331.289017 114.095703 331.048782 114.369142 330.895463 114.749998 330.829057 115.238281L333.541947 115.238281 333.541947 115.132812C333.510697 114.656248 333.383745 114.2959 333.161088 114.051758 332.93843 113.807616 332.62984 113.685547 332.235307 113.685547zM346.157362 110.46875L346.157362 116.169922C346.157362 117.076176 345.867326 117.793943 345.287245 118.323242 344.707164 118.852542 343.93471 119.117188 342.969862 119.117188 341.993294 119.117188 341.217911 118.856448 340.64369 118.334961 340.069468 117.813474 339.782362 117.089848 339.782362 116.164062L339.782362 110.46875 341.258924 110.46875 341.258924 116.175781C341.258924 116.746097 341.403454 117.181639 341.692518 117.482422 341.981582 117.783205 342.407359 117.933594 342.969862 117.933594 344.110492 117.933594 344.680799 117.332037 344.680799 116.128906L344.680799 110.46875 346.157362 110.46875zM349.673077 119L348.196514 119 348.196514 110.46875 349.673077 110.46875 349.673077 119z"/>
  </g>
</svg>
