<svg width="790" height="185" viewBox="0 0 790 185" fill="none" xmlns="http://www.w3.org/2000/svg">
<path d="M96.9555 152.31C96.5516 153.773 94.9814 154.949 93.509 154.949C64.96 154.949 36.411 154.949 7.86204 154.949C6.38312 154.949 4.81951 153.773 4.41558 152.31C0.213362 136.945 0.213362 120.731 4.41558 105.366C4.81951 103.903 6.38964 102.727 7.86204 102.727C36.411 102.727 64.96 102.727 93.509 102.727C94.9879 102.727 96.5516 103.903 96.9555 105.366C101.151 120.731 101.151 136.945 96.9555 152.31Z" fill="#2D2A26"/>
<path d="M7.86204 153.969C6.92387 153.969 6.15509 153.205 6.15509 152.258V105.418C6.15509 104.477 6.91735 103.707 7.86204 103.707H93.509C94.4472 103.707 95.216 104.471 95.216 105.418V152.258C95.216 153.198 94.4537 153.969 93.509 153.969H7.86204Z" fill="white"/>
<path d="M93.5025 104.686C93.9065 104.686 94.2322 105.013 94.2322 105.418V152.258C94.2322 152.663 93.9065 152.989 93.5025 152.989H7.86206C7.45813 152.989 7.13238 152.663 7.13238 152.258V105.418C7.13238 105.013 7.45813 104.686 7.86206 104.686H93.5025ZM93.5025 102.727H7.86206C6.38314 102.727 5.17786 103.929 5.17786 105.418V152.258C5.17786 153.747 6.37663 154.949 7.86206 154.949H93.5091C94.988 154.949 96.1933 153.747 96.1933 152.258V105.418C96.1868 103.929 94.988 102.727 93.5025 102.727Z" fill="#2D2A26"/>
<path d="M117.723 11.8153L91.1686 20.0663L105.516 66.4921L132.071 58.2411L117.723 11.8153Z" fill="white"/>
<path d="M116.429 14.2674L129.622 56.9455L106.806 64.0335L93.6133 21.3554L116.429 14.2674ZM119.002 9.36786L88.7139 18.7749L104.22 68.9461L134.508 59.539L119.002 9.36786Z" fill="#2D2A26"/>
<path d="M207.229 67.5677C226.3 67.5677 241.759 57.5269 241.759 45.141C241.759 32.755 226.3 22.7142 207.229 22.7142C188.159 22.7142 172.7 32.755 172.7 45.141C172.7 57.5269 188.159 67.5677 207.229 67.5677Z" fill="white"/>
<path d="M207.229 24.6675C216.214 24.6675 224.605 26.9735 230.86 31.1545C236.625 35.0087 239.805 39.9736 239.805 45.141C239.805 50.3083 236.625 55.2666 230.86 59.1275C224.605 63.3084 216.214 65.6144 207.229 65.6144C198.245 65.6144 189.854 63.3084 183.599 59.1275C177.833 55.2732 174.654 50.3083 174.654 45.141C174.654 39.9736 177.833 35.0153 183.599 31.1545C189.854 26.9735 198.245 24.6675 207.229 24.6675ZM207.229 20.7479C187.078 20.7479 170.745 31.664 170.745 45.1344C170.745 58.6049 187.078 69.521 207.229 69.521C227.38 69.521 243.714 58.6049 243.714 45.1344C243.714 31.6705 227.38 20.7479 207.229 20.7479Z" fill="#2D2A26"/>
<path d="M207.229 50.3148C210.079 50.3148 212.389 47.9984 212.389 45.1409C212.389 42.2835 210.079 39.967 207.229 39.967C204.38 39.967 202.069 42.2835 202.069 45.1409C202.069 47.9984 204.38 50.3148 207.229 50.3148Z" fill="#2D2A26"/>
<path d="M210.709 67.0778H203.757V71.9773H210.709V67.0778Z" fill="#2D2A26"/>
<path d="M172.478 47.0877C172.902 48.9626 175.488 51.2164 174.276 52.6732L173.644 54.6787C171.533 54.6787 167.005 52.9345 165.898 48.8842C165.233 46.4345 165.233 43.841 165.898 41.3912C167.012 37.3409 171.41 35.5249 173.644 35.5967L174.1 37.5108C175.306 38.9676 172.895 41.3194 172.472 43.1942C172.133 44.4681 172.133 45.8139 172.478 47.0877Z" fill="#2D2A26"/>
<path d="M241.909 47.0877C241.486 48.9626 238.899 51.2164 240.111 52.6732L240.743 54.6787C242.854 54.6787 247.382 52.9345 248.489 48.8842C249.154 46.4345 249.154 43.841 248.489 41.3912C247.375 37.3409 242.978 35.5249 240.743 35.5967L240.287 37.5108C239.082 38.9676 241.492 41.3194 241.916 43.1942C242.254 44.4681 242.254 45.8139 241.909 47.0877Z" fill="#2D2A26"/>
<path d="M228.071 26.8102C227.98 26.8102 227.882 26.7971 227.784 26.771C227.27 26.6142 226.977 26.0655 227.133 25.5494C231.094 12.4513 244.952 5.03018 258.014 9.00206C258.529 9.15885 258.822 9.7076 258.666 10.2237C258.509 10.7398 257.962 11.0337 257.447 10.8769C245.414 7.21864 232.658 14.0518 229.003 26.1177C228.879 26.5358 228.488 26.8102 228.071 26.8102Z" fill="#2D2A26"/>
<path d="M603.11 116.164C599.573 116.164 596.693 113.277 596.693 109.73C596.693 106.183 599.573 103.295 603.11 103.295C606.648 103.295 609.528 106.183 609.528 109.73C609.528 113.284 606.648 116.164 603.11 116.164Z" fill="white"/>
<path d="M603.111 104.281C606.108 104.281 608.551 106.725 608.551 109.736C608.551 112.741 606.114 115.191 603.111 115.191C600.114 115.191 597.67 112.748 597.67 109.736C597.677 106.731 600.114 104.281 603.111 104.281ZM603.111 102.322C599.026 102.322 595.716 105.64 595.716 109.736C595.716 113.832 599.026 117.151 603.111 117.151C607.196 117.151 610.505 113.832 610.505 109.736C610.505 105.64 607.196 102.322 603.111 102.322Z" fill="#2D2A26"/>
<path d="M620.297 116.164C616.76 116.164 613.88 113.277 613.88 109.73C613.88 106.183 616.76 103.295 620.297 103.295C623.835 103.295 626.708 106.183 626.708 109.73C626.708 113.284 623.828 116.164 620.297 116.164Z" fill="white"/>
<path d="M620.297 104.281C623.294 104.281 625.731 106.725 625.731 109.736C625.731 112.741 623.294 115.191 620.297 115.191C617.3 115.191 614.857 112.748 614.857 109.736C614.857 106.731 617.294 104.281 620.297 104.281ZM620.297 102.322C616.212 102.322 612.903 105.64 612.903 109.736C612.903 113.832 616.212 117.151 620.297 117.151C624.382 117.151 627.685 113.832 627.685 109.736C627.685 105.64 624.376 102.322 620.297 102.322Z" fill="#2D2A26"/>
<path d="M603.11 133.208C606.655 133.208 609.528 130.327 609.528 126.774C609.528 123.22 606.655 120.339 603.11 120.339C599.566 120.339 596.693 123.22 596.693 126.774C596.693 130.327 599.566 133.208 603.11 133.208Z" fill="white"/>
<path d="M603.111 121.325C606.108 121.325 608.551 123.769 608.551 126.78C608.551 129.785 606.114 132.235 603.111 132.235C600.114 132.235 597.67 129.792 597.67 126.78C597.677 123.769 600.114 121.325 603.111 121.325ZM603.111 119.365C599.026 119.365 595.716 122.684 595.716 126.78C595.716 130.876 599.026 134.195 603.111 134.195C607.196 134.195 610.505 130.876 610.505 126.78C610.505 122.684 607.196 119.365 603.111 119.365Z" fill="#2D2A26"/>
<path d="M620.297 133.208C616.76 133.208 613.88 130.321 613.88 126.774C613.88 123.226 616.76 120.339 620.297 120.339C623.835 120.339 626.708 123.226 626.708 126.774C626.708 130.321 623.828 133.208 620.297 133.208Z" fill="white"/>
<path d="M620.297 121.325C623.294 121.325 625.731 123.769 625.731 126.78C625.731 129.785 623.294 132.235 620.297 132.235C617.3 132.235 614.857 129.792 614.857 126.78C614.857 123.769 617.294 121.325 620.297 121.325ZM620.297 119.365C616.212 119.365 612.903 122.684 612.903 126.78C612.903 130.876 616.212 134.195 620.297 134.195C624.382 134.195 627.685 130.876 627.685 126.78C627.685 122.684 624.376 119.365 620.297 119.365Z" fill="#2D2A26"/>
<path d="M603.11 150.762C599.573 150.762 596.693 147.874 596.693 144.327C596.693 140.78 599.573 137.892 603.11 137.892C606.648 137.892 609.528 140.78 609.528 144.327C609.528 147.874 606.648 150.762 603.11 150.762Z" fill="white"/>
<path d="M603.111 138.879C606.108 138.879 608.551 141.322 608.551 144.333C608.551 147.338 606.114 149.788 603.111 149.788C600.114 149.788 597.67 147.345 597.67 144.333C597.677 141.322 600.114 138.879 603.111 138.879ZM603.111 136.919C599.026 136.919 595.716 140.237 595.716 144.333C595.716 148.429 599.026 151.748 603.111 151.748C607.196 151.748 610.505 148.429 610.505 144.333C610.505 140.237 607.196 136.919 603.111 136.919Z" fill="#2D2A26"/>
<path d="M625.092 154.368C621.555 154.368 618.675 151.48 618.675 147.933C618.675 144.386 621.555 141.498 625.092 141.498C628.63 141.498 631.51 144.386 631.51 147.933C631.51 151.487 628.63 154.368 625.092 154.368Z" fill="white"/>
<path d="M625.092 142.485C628.089 142.485 630.532 144.928 630.532 147.94C630.532 150.945 628.096 153.394 625.092 153.394C622.089 153.394 619.652 150.951 619.652 147.94C619.659 144.934 622.095 142.485 625.092 142.485ZM625.092 140.525C621.007 140.525 617.698 143.844 617.698 147.94C617.698 152.036 621.007 155.354 625.092 155.354C629.177 155.354 632.487 152.036 632.487 147.94C632.487 143.844 629.177 140.525 625.092 140.525Z" fill="#2D2A26"/>
<path d="M310.369 69.4295C316.548 69.4295 321.556 64.4076 321.556 58.2129C321.556 52.0181 316.548 46.9962 310.369 46.9962C304.191 46.9962 299.183 52.0181 299.183 58.2129C299.183 64.4076 304.191 69.4295 310.369 69.4295Z" fill="white"/>
<path d="M310.369 47.9826C315.998 47.9826 320.579 52.5751 320.579 58.2194C320.579 63.8636 315.998 68.4561 310.369 68.4561C304.74 68.4561 300.16 63.8636 300.16 58.2194C300.16 52.5751 304.747 47.9826 310.369 47.9826ZM310.369 46.0228C303.652 46.0228 298.206 51.4842 298.206 58.2194C298.206 64.9546 303.652 70.4159 310.369 70.4159C317.086 70.4159 322.533 64.9546 322.533 58.2194C322.533 51.4842 317.086 46.0228 310.369 46.0228Z" fill="#2D2A26"/>
<path d="M350.73 27.3132C350.228 27.3132 349.727 27.1237 349.349 26.7383L344.254 21.6297C343.492 20.8654 343.492 19.6242 344.254 18.8599C345.016 18.0955 346.254 18.0955 347.016 18.8599L352.111 23.9684C352.873 24.7328 352.873 25.974 352.111 26.7383C351.727 27.1172 351.225 27.3132 350.73 27.3132Z" fill="#2D2A26"/>
<path d="M342.495 23.1976C340.873 23.1976 339.342 22.5639 338.195 21.4142C337.048 20.2644 336.417 18.7292 336.417 17.1026C336.417 15.4759 337.048 13.9408 338.195 12.791C339.342 11.6412 340.873 11.0076 342.495 11.0076C344.117 11.0076 345.648 11.6412 346.795 12.791C347.942 13.9408 348.574 15.4759 348.574 17.1026C348.574 18.7292 347.942 20.2644 346.795 21.4142C345.648 22.5639 344.124 23.1976 342.495 23.1976Z" fill="white"/>
<path d="M342.495 12.9609C343.596 12.9609 344.632 13.392 345.414 14.1694C347.023 15.783 347.023 18.4092 345.414 20.0227C344.632 20.8067 343.596 21.2313 342.495 21.2313C341.394 21.2313 340.358 20.8001 339.576 20.0227C337.967 18.4092 337.967 15.783 339.576 14.1694C340.358 13.392 341.394 12.9609 342.495 12.9609ZM342.495 9.04126C340.436 9.04126 338.384 9.82518 336.814 11.3996C333.674 14.5483 333.674 19.6504 336.814 22.7926C338.384 24.367 340.443 25.1509 342.495 25.1509C344.547 25.1509 346.606 24.367 348.176 22.7926C351.316 19.6438 351.316 14.5418 348.176 11.3996C346.613 9.83172 344.554 9.04126 342.495 9.04126Z" fill="#2D2A26"/>
<path d="M342.593 60.3099C348.231 60.3099 352.802 55.7268 352.802 50.0732C352.802 44.4196 348.231 39.8364 342.593 39.8364C336.955 39.8364 332.384 44.4196 332.384 50.0732C332.384 55.7268 336.955 60.3099 342.593 60.3099Z" fill="white"/>
<path d="M342.593 41.7962C347.14 41.7962 350.847 45.5068 350.847 50.0731C350.847 54.633 347.147 58.3501 342.593 58.3501C338.045 58.3501 334.338 54.6395 334.338 50.0731C334.345 45.5068 338.045 41.7962 342.593 41.7962ZM342.593 37.8766C335.876 37.8766 330.429 43.3379 330.429 50.0731C330.429 56.8083 335.876 62.2697 342.593 62.2697C349.31 62.2697 354.756 56.8083 354.756 50.0731C354.756 43.3379 349.31 37.8766 342.593 37.8766Z" fill="#2D2A26"/>
<path d="M305.574 32.2389C313.861 32.2389 320.578 25.5031 320.578 17.1941C320.578 8.88508 313.861 2.14929 305.574 2.14929C297.288 2.14929 290.57 8.88508 290.57 17.1941C290.57 25.5031 297.288 32.2389 305.574 32.2389Z" fill="white"/>
<path d="M305.574 4.11561C312.767 4.11561 318.624 9.98197 318.624 17.2006C318.624 24.4127 312.767 30.2856 305.574 30.2856C298.382 30.2856 292.525 24.4192 292.525 17.2006C292.525 9.98197 298.382 4.11561 305.574 4.11561ZM305.574 0.189453C296.206 0.189453 288.616 7.80005 288.616 17.1941C288.616 26.5881 296.206 34.1987 305.574 34.1987C314.943 34.1987 322.533 26.5881 322.533 17.1941C322.533 7.80658 314.943 0.189453 305.574 0.189453Z" fill="#2D2A26"/>
<path d="M305.574 26.6861C310.802 26.6861 315.041 22.4364 315.041 17.1941C315.041 11.9518 310.802 7.70209 305.574 7.70209C300.346 7.70209 296.108 11.9518 296.108 17.1941C296.108 22.4364 300.346 26.6861 305.574 26.6861Z" fill="white"/>
<path d="M305.574 8.68851C310.252 8.68851 314.063 12.5036 314.063 17.2006C314.063 21.8911 310.259 25.7127 305.574 25.7127C300.896 25.7127 297.085 21.8976 297.085 17.2006C297.085 12.5036 300.896 8.68851 305.574 8.68851ZM305.574 6.7287C299.808 6.7287 295.131 11.4192 295.131 17.2006C295.131 22.9821 299.808 27.6725 305.574 27.6725C311.34 27.6725 316.018 22.9821 316.018 17.2006C316.018 11.4126 311.34 6.7287 305.574 6.7287Z" fill="#2D2A26"/>
<path d="M15.9733 58.0692L10.0576 64.0008C9.71883 64.3405 9.31489 64.3928 9.11293 64.3928C8.90444 64.3928 8.50703 64.3405 8.16824 64.0008L3.75103 59.5717C3.41225 59.232 3.36013 58.8269 3.36013 58.6244C3.36013 58.4154 3.41225 58.0169 3.75103 57.6772L9.66671 51.7455L7.77082 49.8445L1.85515 55.7762C0.285019 57.3506 0.285019 59.8983 1.85515 61.4727L6.27236 65.9019C7.05417 66.6858 8.08355 67.0843 9.11293 67.0843C10.1423 67.0843 11.1717 66.6923 11.9535 65.9019L17.8692 59.9702L15.9733 58.0692Z" fill="#2D2A26"/>
<path d="M48.2749 13.0197C48.6137 12.68 49.0177 12.6277 49.2196 12.6277C49.4281 12.6277 49.8255 12.68 50.1643 13.0197L54.5815 17.4488C54.9203 17.7885 54.9724 18.1936 54.9724 18.3961C54.9724 18.6051 54.9203 19.0036 54.5815 19.3433L48.6658 25.275L50.5617 27.176L56.4774 21.2443C58.0475 19.6699 58.0475 17.1222 56.4774 15.5478L52.0602 11.1186C51.2784 10.3347 50.249 9.93622 49.2196 9.93622C48.1902 9.93622 47.1609 10.3282 46.3791 11.1186L40.4634 17.0503L42.3593 18.9513L48.2749 13.0197Z" fill="#2D2A26"/>
<path d="M29.1663 65.2943C43.9188 65.2943 55.878 53.3027 55.878 38.5103C55.878 23.7178 43.9188 11.7262 29.1663 11.7262C14.4138 11.7262 2.45453 23.7178 2.45453 38.5103C2.45453 53.3027 14.4138 65.2943 29.1663 65.2943Z" fill="white"/>
<path d="M29.1663 13.686C42.8153 13.686 53.9235 24.8242 53.9235 38.5102C53.9235 52.1962 42.8153 63.3345 29.1663 63.3345C15.5172 63.3345 4.40904 52.1962 4.40904 38.5102C4.40904 24.8242 15.5172 13.686 29.1663 13.686ZM29.1663 9.76636C13.3347 9.76636 0.5 22.6358 0.5 38.5102C0.5 54.3847 13.3347 67.2541 29.1663 67.2541C44.9979 67.2541 57.8325 54.3847 57.8325 38.5102C57.8325 22.6358 44.9979 9.76636 29.1663 9.76636Z" fill="#2D2A26"/>
<path d="M29.1662 59.245C40.5868 59.245 49.845 49.9617 49.845 38.5102C49.845 27.0587 40.5868 17.7755 29.1662 17.7755C17.7456 17.7755 8.48743 27.0587 8.48743 38.5102C8.48743 49.9617 17.7456 59.245 29.1662 59.245Z" fill="white"/>
<path d="M29.1663 18.7619C40.0269 18.7619 48.8678 27.6202 48.8678 38.5168C48.8678 49.4068 40.0334 58.2716 29.1663 58.2716C18.2991 58.2716 9.46471 49.4068 9.46471 38.5102C9.46471 27.6202 18.3056 18.7619 29.1663 18.7619ZM29.1663 16.8021C17.2046 16.8021 7.51019 26.5227 7.51019 38.5168C7.51019 50.5108 17.2046 60.2314 29.1663 60.2314C41.1279 60.2314 50.8223 50.5108 50.8223 38.5168C50.8223 26.5227 41.1279 16.8021 29.1663 16.8021Z" fill="#2D2A26"/>
<path d="M35.336 35.1851C35.8051 36.054 35.4794 37.1449 34.6064 37.6153L25.4201 42.5736C24.5471 43.044 23.4656 42.7173 22.9965 41.8419C22.5274 40.9666 22.8532 39.8821 23.7262 39.4118L32.9124 34.4535C33.7855 33.9831 34.867 34.3097 35.336 35.1851Z" fill="#2D2A26"/>
<path d="M335.146 134.177L330.576 147.522L340.041 150.781L344.611 137.435L335.146 134.177Z" fill="#2D2A26"/>
<path d="M286.108 117.494L281.539 130.84L291.004 134.098L295.573 120.752L286.108 117.494Z" fill="#2D2A26"/>
<path d="M291.433 123.371L290.799 125.224L336.108 140.821L336.742 138.968L291.433 123.371Z" fill="#2D2A26"/>
<path d="M291.75 128.229L291.115 130.083L336.424 145.68L337.059 143.826L291.75 128.229Z" fill="#2D2A26"/>
<path d="M313.099 150.409C311.301 150.409 309.516 150.108 307.796 149.52C299.281 146.587 294.733 137.259 297.658 128.727C299.926 122.116 306.128 117.667 313.099 117.667C314.897 117.667 316.682 117.967 318.402 118.555C322.527 119.973 325.849 122.919 327.765 126.845C329.68 130.772 329.954 135.214 328.54 139.349C326.273 145.96 320.064 150.409 313.099 150.409Z" fill="white"/>
<path d="M313.093 119.62C314.676 119.62 316.246 119.882 317.757 120.404C321.386 121.652 324.318 124.245 325.999 127.701C327.686 131.157 327.927 135.07 326.683 138.709C324.689 144.529 319.23 148.443 313.093 148.443C311.51 148.443 309.939 148.181 308.428 147.659C300.936 145.078 296.929 136.867 299.502 129.354C301.496 123.533 306.955 119.62 313.093 119.62ZM313.093 115.701C305.503 115.701 298.408 120.483 295.808 128.08C292.531 137.65 297.613 148.077 307.164 151.363C309.132 152.042 311.132 152.362 313.099 152.362C320.689 152.362 327.784 147.58 330.384 139.983C333.661 130.412 328.579 119.986 319.028 116.7C317.067 116.021 315.06 115.701 313.093 115.701Z" fill="#2D2A26"/>
<path d="M331.869 108.43C332.234 107.646 331.797 106.47 330.99 105.843C330.175 105.222 328.931 105.105 328.273 105.66C325.843 107.888 324.045 110.762 322.807 113.898C322.526 114.74 322.709 115.733 323.165 116.08C323.621 116.426 324.618 116.354 325.361 115.857C328.058 113.852 330.358 111.363 331.869 108.43Z" fill="#2D2A26"/>
<path d="M313.021 130.334C312.813 130.334 312.604 130.269 312.428 130.131C311.998 129.805 311.92 129.184 312.246 128.759L322.813 114.936C323.139 114.505 323.751 114.427 324.181 114.753C324.611 115.08 324.689 115.701 324.364 116.125L313.796 129.948C313.601 130.197 313.314 130.334 313.021 130.334Z" fill="#2D2A26"/>
<path d="M335.348 111.108C335.713 110.324 335.276 109.148 334.469 108.521C333.654 107.901 332.41 107.783 331.752 108.338C329.322 110.566 327.523 113.44 326.286 116.576C326.005 117.419 326.188 118.412 326.644 118.758C327.1 119.104 328.097 119.032 328.84 118.536C331.537 116.524 333.837 114.041 335.348 111.108Z" fill="#2D2A26"/>
<path d="M316.5 133.006C316.292 133.006 316.083 132.94 315.907 132.803C315.477 132.477 315.399 131.856 315.725 131.431L326.292 117.608C326.618 117.177 327.23 117.099 327.66 117.425C328.09 117.752 328.169 118.373 327.843 118.797L317.275 132.62C317.086 132.875 316.793 133.006 316.5 133.006Z" fill="#2D2A26"/>
<path d="M345.355 122.553C345.987 121.972 346.033 120.711 345.518 119.829C345.003 118.941 343.889 118.359 343.075 118.621C339.98 119.751 337.231 121.724 334.892 124.154C334.312 124.827 334.11 125.813 334.397 126.31C334.684 126.806 335.641 127.12 336.508 126.943C339.772 126.107 342.847 124.69 345.355 122.553Z" fill="#2D2A26"/>
<path d="M319.986 135.684C319.647 135.684 319.321 135.508 319.139 135.194C318.865 134.724 319.028 134.129 319.49 133.855L334.514 125.108C334.983 124.84 335.576 124.997 335.85 125.46C336.123 125.931 335.961 126.525 335.498 126.8L320.474 135.547C320.318 135.638 320.148 135.684 319.986 135.684Z" fill="#2D2A26"/>
<path d="M440.592 128.877C440.592 128.864 440.592 128.851 440.592 128.838C440.592 128.825 440.592 128.812 440.592 128.799C440.599 127.714 440.931 126.486 441.29 125.186C441.863 123.096 442.508 120.718 441.772 118.444C441.003 116.073 439.042 114.512 437.315 113.14C436.286 112.323 435.322 111.552 434.722 110.729C434.116 109.893 433.673 108.717 433.204 107.469C432.436 105.412 431.563 103.079 429.575 101.629C427.614 100.199 425.139 100.081 422.956 99.9764C421.621 99.9111 420.357 99.8523 419.353 99.5257C418.422 99.2252 417.405 98.5458 416.33 97.8337C414.48 96.599 412.382 95.2076 409.854 95.2076C407.327 95.2076 405.229 96.6056 403.378 97.8337C402.303 98.5458 401.287 99.2252 400.355 99.5257C399.352 99.8523 398.088 99.9111 396.753 99.9764C394.57 100.081 392.101 100.192 390.133 101.629C388.153 103.079 387.28 105.412 386.504 107.469C386.042 108.717 385.599 109.893 384.993 110.729C384.4 111.552 383.429 112.323 382.4 113.14C380.673 114.518 378.712 116.073 377.944 118.444C377.207 120.724 377.852 123.096 378.426 125.186C378.778 126.486 379.11 127.714 379.123 128.799C379.123 128.812 379.123 128.825 379.123 128.838C379.123 128.851 379.123 128.864 379.123 128.877C379.116 129.962 378.784 131.19 378.426 132.49C377.852 134.58 377.207 136.958 377.944 139.231C378.712 141.603 380.673 143.164 382.4 144.536C383.429 145.353 384.393 146.123 384.993 146.947C385.599 147.783 386.042 148.959 386.511 150.206C387.28 152.264 388.153 154.596 390.14 156.047C392.101 157.477 394.577 157.595 396.759 157.699C398.095 157.765 399.359 157.823 400.362 158.15C401.294 158.451 402.31 159.13 403.385 159.842C405.235 161.077 407.333 162.468 409.861 162.468C412.389 162.468 414.487 161.07 416.337 159.842C417.412 159.13 418.428 158.451 419.36 158.15C420.363 157.823 421.627 157.765 422.963 157.699C425.145 157.595 427.614 157.484 429.582 156.047C431.563 154.596 432.436 152.264 433.211 150.206C433.673 148.959 434.116 147.783 434.722 146.947C435.315 146.123 436.286 145.353 437.315 144.536C439.042 143.158 441.003 141.603 441.772 139.231C442.508 136.952 441.863 134.58 441.29 132.49C440.931 131.19 440.599 129.962 440.592 128.877Z" fill="#2D2A26"/>
<path d="M437.796 130.575C438.756 115.12 427.037 101.811 411.623 100.849C396.209 99.8875 382.936 111.637 381.977 127.093C381.018 142.549 392.736 155.858 408.15 156.819C423.564 157.781 436.837 146.031 437.796 130.575Z" fill="white"/>
<path d="M409.861 146.836C399.964 146.836 391.912 138.761 391.912 128.838C391.912 118.915 399.964 110.84 409.861 110.84C419.757 110.84 427.81 118.915 427.81 128.838C427.816 138.761 419.764 146.836 409.861 146.836Z" fill="white"/>
<path d="M409.861 111.814C419.223 111.814 426.833 119.45 426.833 128.831C426.833 138.212 419.216 145.849 409.861 145.849C400.505 145.849 392.889 138.212 392.889 128.831C392.889 119.45 400.505 111.814 409.861 111.814ZM409.861 109.854C399.404 109.854 390.935 118.353 390.935 128.831C390.935 139.31 399.411 147.809 409.861 147.809C420.318 147.809 428.787 139.31 428.787 128.831C428.787 118.353 420.318 109.854 409.861 109.854Z" fill="#2D2A26"/>
<path d="M229.101 151.154H222.149V156.053H229.101V151.154Z" fill="#2D2A26"/>
<path d="M208.474 134.645C208.897 136.52 211.484 138.774 210.272 140.231L209.64 142.236C207.529 142.236 203.001 140.492 201.894 136.442C201.229 133.992 201.229 131.399 201.894 128.949C203.008 124.899 207.405 123.083 209.64 123.154L210.096 125.069C211.301 126.525 208.891 128.877 208.467 130.752C208.128 132.026 208.128 133.372 208.474 134.645Z" fill="#2D2A26"/>
<path d="M242.697 134.645C242.274 136.52 239.687 138.774 240.899 140.231L241.531 142.236C243.642 142.236 248.17 140.492 249.278 136.442C249.942 133.992 249.942 131.399 249.278 128.949C248.163 124.899 243.766 123.083 241.531 123.154L241.075 125.069C239.87 126.525 242.28 128.877 242.704 130.752C243.043 132.026 243.043 133.372 242.697 134.645Z" fill="#2D2A26"/>
<path d="M225.621 151.644C236.056 151.644 244.515 143.162 244.515 132.699C244.515 122.236 236.056 113.754 225.621 113.754C215.187 113.754 206.728 122.236 206.728 132.699C206.728 143.162 215.187 151.644 225.621 151.644Z" fill="white"/>
<path d="M225.621 115.714C234.964 115.714 242.561 123.331 242.561 132.699C242.561 142.067 234.964 149.684 225.621 149.684C216.279 149.684 208.682 142.067 208.682 132.699C208.682 123.331 216.285 115.714 225.621 115.714ZM225.621 111.794C214.109 111.794 204.773 121.155 204.773 132.699C204.773 144.242 214.109 153.603 225.621 153.603C237.134 153.603 246.47 144.242 246.47 132.699C246.47 121.155 237.14 111.794 225.621 111.794Z" fill="#2D2A26"/>
<path d="M229.269 136.36C231.284 134.339 231.284 131.063 229.269 129.043C227.254 127.022 223.987 127.022 221.972 129.043C219.957 131.063 219.957 134.339 221.972 136.36C223.987 138.38 227.254 138.38 229.269 136.36Z" fill="#2D2A26"/>
<path d="M225.621 113.858C225.081 113.858 224.644 113.421 224.644 112.879C224.644 106.13 230.117 100.643 236.847 100.643C242.339 100.643 246.808 105.124 246.808 110.631C246.808 111.173 246.372 111.611 245.831 111.611C245.29 111.611 244.854 111.173 244.854 110.631C244.854 106.209 241.264 102.603 236.847 102.603C231.198 102.603 226.599 107.215 226.599 112.879C226.599 113.421 226.162 113.858 225.621 113.858Z" fill="#2D2A26"/>
<path d="M397.95 20.2032L388.383 43.3616L411.479 52.9544L421.046 29.7959L397.95 20.2032Z" fill="white"/>
<path d="M398.466 21.4926L419.757 30.3379L410.936 51.6867L389.645 42.8414L398.466 21.4926ZM397.411 18.9318L387.091 43.8997L411.991 54.241L422.305 29.273L397.411 18.9318Z" fill="#2D2A26"/>
<path d="M404.701 18.8633L387.024 36.5875L404.701 54.3116L422.377 36.5875L404.701 18.8633Z" fill="white"/>
<path d="M404.701 20.2448L421.002 36.5831L404.707 52.9214L388.407 36.5831L404.701 20.2448ZM404.701 17.475L385.644 36.5831L404.707 55.6978L423.764 36.5831L404.701 17.475Z" fill="#2D2A26"/>
<path d="M411.477 20.2025L388.381 29.7953L397.948 52.9537L421.044 43.361L411.477 20.2025Z" fill="white"/>
<path d="M410.936 21.4926L419.757 42.8414L398.466 51.6867L389.645 30.3313L410.936 21.4926ZM411.998 18.9318L387.097 29.273L397.411 54.241L422.311 43.8997L411.998 18.9318Z" fill="#2D2A26"/>
<path d="M417.203 24.0534H392.205V49.1194H417.203V24.0534Z" fill="white"/>
<path d="M416.226 25.0333V48.1395H393.182V25.0333H416.226ZM418.181 23.0735H391.228V50.0993H418.181V23.0735Z" fill="#2D2A26"/>
<path d="M503.254 23.3479C502.577 27.0846 496.935 29.1228 493.931 29.0705C484.751 29.0705 475.572 29.0705 466.392 29.0705C463.382 29.1228 457.74 27.0846 457.069 23.3479C456.913 22.3811 456.913 21.3881 457.069 20.4213C457.746 16.6846 463.389 14.6464 466.392 14.6986C475.572 14.6986 484.751 14.6986 493.931 14.6986C496.941 14.6464 502.583 16.6846 503.254 20.4213C503.411 21.3881 503.411 22.3745 503.254 23.3479Z" fill="#2D2A26"/>
<path d="M499.788 23.1911C499.788 26.4379 497.163 29.0705 493.925 29.0705H466.386C463.148 29.0705 460.522 26.4379 460.522 23.1911V20.578C460.522 17.3313 463.148 14.6986 466.386 14.6986H493.925C497.163 14.6986 499.788 17.3313 499.788 20.578V23.1911Z" fill="white"/>
<path d="M493.925 30.0504H466.385C462.613 30.0504 459.545 26.9735 459.545 23.1911V20.578C459.545 16.7956 462.613 13.7187 466.385 13.7187H493.925C497.697 13.7187 500.765 16.7956 500.765 20.578V23.1911C500.765 26.9735 497.697 30.0504 493.925 30.0504ZM466.385 15.6785C463.688 15.6785 461.499 17.8735 461.499 20.578V23.1911C461.499 25.8956 463.688 28.0906 466.385 28.0906H493.925C496.622 28.0906 498.811 25.8956 498.811 23.1911V20.578C498.811 17.8735 496.622 15.6785 493.925 15.6785H466.385Z" fill="#2D2A26"/>
<path d="M492.563 42.9133C493.749 45.938 492.263 49.3481 489.247 50.537L463.617 60.6366C460.6 61.8255 457.199 60.3361 456.014 57.3114L455.062 54.8813C453.877 51.8566 455.362 48.4465 458.379 47.2576L484.009 37.158C487.025 35.9691 490.426 37.4585 491.612 40.4832L492.563 42.9133Z" fill="white"/>
<path d="M461.467 62.028C460.542 62.028 459.61 61.8386 458.737 61.4531C457.062 60.7215 455.773 59.3757 455.101 57.6707L454.15 55.2405C453.479 53.5355 453.518 51.6737 454.248 49.9882C454.978 48.3093 456.32 47.0159 458.02 46.343L483.65 36.2434C487.162 34.8585 491.143 36.6027 492.517 40.1173L493.469 42.5475C494.14 44.2525 494.101 46.1144 493.371 47.7933C492.641 49.4722 491.299 50.7656 489.599 51.4385L463.968 61.5381C463.161 61.8647 462.314 62.028 461.467 62.028ZM486.146 37.7329C485.553 37.7329 484.947 37.844 484.367 38.0726L458.737 48.1721C457.519 48.649 456.567 49.5767 456.046 50.7722C455.525 51.9676 455.499 53.3003 455.981 54.5219L456.932 56.9521C457.408 58.1672 458.333 59.1275 459.525 59.6501C460.724 60.1727 462.053 60.1989 463.265 59.7154L488.895 49.6159C490.113 49.139 491.065 48.2113 491.586 47.0159C492.107 45.8138 492.133 44.4877 491.651 43.2661L490.7 40.8359C489.944 38.9153 488.094 37.7329 486.146 37.7329Z" fill="#2D2A26"/>
<path d="M464.933 53.3722C464.542 53.3722 464.177 53.137 464.021 52.7516C463.825 52.2485 464.073 51.6802 464.574 51.4842L482.328 44.4942C482.83 44.2982 483.396 44.5465 483.598 45.0495C483.794 45.5525 483.546 46.1209 483.045 46.3168L465.291 53.3068C465.174 53.3526 465.05 53.3722 464.933 53.3722Z" fill="#2D2A26"/>
<path d="M169.638 113.813C169.638 110.566 167.012 107.933 163.774 107.933H133.805C130.567 107.933 127.941 110.566 127.941 113.813V143.863C127.941 147.11 130.567 149.743 133.805 149.743H163.774C167.012 149.743 169.638 147.11 169.638 143.863V113.813Z" fill="white"/>
<path d="M163.774 150.722H133.805C130.032 150.722 126.964 147.646 126.964 143.863V113.813C126.964 110.03 130.032 106.953 133.805 106.953H163.774C167.546 106.953 170.615 110.03 170.615 113.813V143.863C170.615 147.646 167.546 150.722 163.774 150.722ZM133.805 108.913C131.107 108.913 128.918 111.108 128.918 113.813V143.863C128.918 146.568 131.107 148.763 133.805 148.763H163.774C166.471 148.763 168.66 146.568 168.66 143.863V113.813C168.66 111.108 166.471 108.913 163.774 108.913H133.805Z" fill="#2D2A26"/>
<path d="M133.805 145.98C132.639 145.98 131.694 145.032 131.694 143.863V113.813C131.694 112.643 132.639 111.696 133.805 111.696H163.774C164.94 111.696 165.885 112.643 165.885 113.813V143.863C165.885 145.032 164.94 145.98 163.774 145.98H133.805Z" fill="white"/>
<path d="M163.774 146.96H133.805C132.104 146.96 130.717 145.568 130.717 143.863V113.813C130.717 112.108 132.104 110.716 133.805 110.716H163.774C165.474 110.716 166.862 112.108 166.862 113.813V143.863C166.862 145.568 165.481 146.96 163.774 146.96ZM133.805 112.676C133.179 112.676 132.671 113.186 132.671 113.813V143.863C132.671 144.49 133.179 145 133.805 145H163.774C164.399 145 164.908 144.49 164.908 143.863V113.813C164.908 113.186 164.399 112.676 163.774 112.676H133.805Z" fill="#2D2A26"/>
<path d="M521.119 174.639H516.78L515.477 158.81H522.422L521.119 174.639Z" fill="#2D2A26"/>
<path d="M521.464 167.204L521.483 164.402L531.66 163.638L531.627 168.126L521.464 167.204Z" fill="#2D2A26"/>
<path d="M480.934 124.833C481.357 126.708 483.944 128.962 482.732 130.419L482.1 132.424C479.989 132.424 475.461 130.68 474.354 126.63C473.689 124.18 473.689 121.587 474.354 119.137C475.468 115.087 479.865 113.27 482.1 113.342L482.562 115.256C483.768 116.713 481.357 119.065 480.934 120.94C480.588 122.214 480.588 123.559 480.934 124.833Z" fill="#2D2A26"/>
<path d="M556.886 124.833C556.463 126.708 553.876 128.962 555.088 130.419L555.72 132.424C557.824 132.424 562.359 130.68 563.467 126.63C564.131 124.18 564.131 121.587 563.467 119.137C562.352 115.087 557.955 113.27 555.72 113.342L555.258 115.256C554.052 116.713 556.463 119.065 556.886 120.94C557.232 122.214 557.232 123.559 556.886 124.833Z" fill="#2D2A26"/>
<path d="M518.949 160.776C539.818 160.776 556.736 143.812 556.736 122.887C556.736 101.961 539.818 84.9969 518.949 84.9969C498.08 84.9969 481.162 101.961 481.162 122.887C481.162 143.812 498.08 160.776 518.949 160.776Z" fill="white"/>
<path d="M518.949 86.9567C538.709 86.9567 554.782 103.073 554.782 122.887C554.782 142.7 538.709 158.816 518.949 158.816C499.189 158.816 483.116 142.7 483.116 122.887C483.116 103.073 499.189 86.9567 518.949 86.9567ZM518.949 83.0371C497 83.0371 479.207 100.878 479.207 122.887C479.207 144.895 497 162.736 518.949 162.736C540.898 162.736 558.691 144.895 558.691 122.887C558.691 100.878 540.898 83.0371 518.949 83.0371Z" fill="#2D2A26"/>
<path d="M523.347 165.538C523.347 163.102 521.379 161.129 518.949 161.129C516.519 161.129 514.551 163.102 514.551 165.538C514.551 167.975 516.519 169.948 518.949 169.948C521.379 169.942 523.347 167.969 523.347 165.538Z" fill="#2D2A26"/>
<path d="M649.433 34.0157C649.465 33.9961 649.491 33.9831 649.524 33.97H649.53C650.872 33.3298 651.804 31.9514 651.804 30.364C651.804 27.679 651.511 25.0659 650.957 22.5509C650.951 22.5313 650.944 22.5051 650.944 22.4855C650.879 22.2504 650.664 22.0805 650.41 22.0805C650.11 22.0805 649.863 22.3222 649.856 22.6227C649.856 22.6358 649.856 22.6684 649.863 22.7272C649.889 23.1388 649.986 24.7393 650.032 27.0388C650.045 27.7313 650.052 28.4826 650.052 29.2926C650.052 29.6715 649.745 29.9851 649.361 29.9851C649.009 29.9851 648.716 29.7172 648.677 29.371C648.677 29.3449 648.67 29.3187 648.67 29.2991C648.67 29.2926 648.67 29.2926 648.67 29.2926L648.54 26.4443L648.364 22.6293C648.364 22.3287 648.123 22.087 647.823 22.087C647.524 22.087 647.283 22.3287 647.283 22.6293L647.107 26.4443L646.977 29.2991C646.977 29.3187 646.977 29.3383 646.977 29.3579V29.3645C646.937 29.7107 646.644 29.9851 646.286 29.9851C645.902 29.9851 645.595 29.6715 645.595 29.2926C645.595 28.4891 645.602 27.7378 645.615 27.0454C645.66 24.7654 645.758 23.1453 645.784 22.7272C645.791 22.6684 645.791 22.6358 645.791 22.6227C645.784 22.3222 645.537 22.0805 645.237 22.0805C644.989 22.0805 644.774 22.2438 644.703 22.4725V22.479C644.696 22.5051 644.69 22.5313 644.683 22.5574C644.129 25.0725 643.843 27.6856 643.843 30.364C643.843 31.9579 644.774 33.3363 646.123 33.9765C646.149 33.9896 646.182 33.9961 646.208 34.0157C646.423 34.1333 646.566 34.362 646.566 34.6168C646.566 34.6298 646.566 34.6429 646.566 34.6494C646.481 36.7138 646.332 40.2349 646.188 43.2138C646.09 45.2716 645.999 47.0615 645.941 47.9435C645.941 47.9631 645.941 47.9827 645.941 48.0023C645.928 48.4726 646.136 48.9299 646.481 49.2696C646.827 49.6158 647.302 49.8379 647.81 49.8445C647.817 49.8445 647.817 49.8445 647.823 49.8445C647.83 49.8445 647.83 49.8445 647.836 49.8445C648.351 49.8379 648.827 49.6158 649.166 49.2696C649.511 48.9299 649.719 48.4726 649.706 48.0023C649.706 47.9827 649.706 47.9631 649.706 47.9435C649.648 47.0681 649.556 45.2716 649.459 43.2138C649.315 40.2349 649.166 36.7138 649.081 34.6494C649.081 34.6364 649.081 34.6298 649.081 34.6168C649.081 34.362 649.224 34.1333 649.433 34.0157Z" fill="#2D2A26"/>
<path d="M640.872 32.2519V22.5966C640.872 22.2896 640.624 22.0413 640.318 22.0413C640.155 22.0413 640.005 22.1132 639.908 22.2242C638.585 23.6484 636.383 27.2675 636.383 35.5836C636.383 38.0138 637.673 38.3927 637.601 40.261C637.601 40.2675 637.601 40.2806 637.601 40.2871C637.471 43.2138 637.197 46.7676 637.113 47.9565C637.113 47.9761 637.113 47.9957 637.113 48.0153C637.087 48.9626 637.966 49.851 638.983 49.8575C638.989 49.8575 638.989 49.8575 638.996 49.8575C638.996 49.8575 639.002 49.8575 639.009 49.8575C640.025 49.851 640.905 48.956 640.878 48.0153C640.878 47.9957 640.878 47.9761 640.878 47.9565C640.865 47.95 640.885 32.8529 640.872 32.2519Z" fill="#2D2A26"/>
<path d="M659.87 34.4992C659.87 34.46 659.876 34.4208 659.883 34.3816C659.915 34.1725 660.046 33.9961 660.228 33.8916C660.254 33.872 660.287 33.8655 660.319 33.8524H660.326C660.678 33.6826 661.003 33.4605 661.29 33.1991C662.091 32.4675 662.736 31.0564 662.736 29.8805C662.736 25.9217 660.919 22.1262 658.612 22.1262C656.306 22.1262 654.488 25.9152 654.488 29.8805C654.488 31.0499 655.133 32.4675 655.935 33.1991C656.221 33.4605 656.547 33.6826 656.899 33.8524H656.906C656.938 33.8655 656.964 33.8785 656.997 33.8916C657.173 33.9896 657.309 34.1725 657.342 34.3816C657.349 34.4208 657.355 34.46 657.355 34.4992C657.355 34.5122 657.355 34.5253 657.355 34.5318C657.27 36.5961 657.12 40.1891 656.977 43.168C656.879 45.2193 656.788 47.0158 656.73 47.8912C656.73 47.9108 656.73 47.9304 656.73 47.95C656.717 48.4203 656.925 48.8776 657.27 49.2173C657.616 49.5635 658.091 49.7857 658.599 49.7922C658.606 49.7922 658.612 49.7922 658.612 49.7922C658.612 49.7922 658.619 49.7922 658.625 49.7922C659.134 49.7922 659.609 49.5635 659.955 49.2173C660.293 48.8776 660.508 48.4203 660.495 47.95C660.495 47.9304 660.495 47.9108 660.495 47.8912C660.437 47.0158 660.345 45.2193 660.248 43.168C660.104 40.1891 659.955 36.5896 659.87 34.5318C659.87 34.5253 659.87 34.5122 659.87 34.4992Z" fill="#2D2A26"/>
<path d="M107.041 165.003C107.086 165.016 107.132 165.036 107.171 165.049C107.171 165.049 107.178 165.049 107.178 165.055C109.158 165.761 113.256 167.119 114.722 165.421C116.826 162.971 119.211 159.888 121.048 157.333C121.165 157.17 121.25 156.981 121.348 156.804C121.387 156.739 121.42 156.667 121.459 156.602C121.836 155.818 121.739 154.864 121.172 154.165C121.139 154.132 121.113 154.1 121.081 154.061C121.061 154.034 121.035 154.015 121.016 153.989C120.996 153.969 120.983 153.956 120.963 153.943C120.97 153.943 120.976 153.95 120.983 153.95C119.954 152.761 119.165 151.892 118.038 150.762C116.911 149.631 116.045 148.841 114.859 147.809C114.859 147.815 114.865 147.822 114.865 147.828C114.852 147.809 114.833 147.796 114.82 147.776C114.794 147.75 114.774 147.73 114.748 147.711C114.716 147.678 114.683 147.652 114.644 147.619C113.947 147.051 112.996 146.953 112.214 147.332C112.149 147.371 112.077 147.404 112.012 147.443C111.836 147.541 111.647 147.619 111.484 147.743C108.937 149.579 105.862 151.977 103.418 154.087C101.718 155.55 103.08 159.666 103.783 161.652C103.783 161.652 103.783 161.658 103.79 161.658C103.809 161.704 103.822 161.743 103.835 161.789C103.927 162.122 103.848 162.488 103.588 162.749C103.575 162.762 103.562 162.775 103.549 162.788C101.412 164.761 97.7503 168.125 94.6491 170.961C92.5057 172.914 90.6293 174.619 89.6912 175.429C89.6716 175.449 89.6521 175.468 89.6325 175.488C89.1504 175.945 88.9029 176.611 88.9094 177.297C88.9094 177.983 89.1635 178.689 89.6651 179.205C89.6716 179.211 89.6716 179.211 89.6781 179.218C89.6781 179.218 89.6847 179.225 89.6912 179.231C90.2059 179.741 90.903 179.989 91.5936 179.989C92.2777 179.989 92.9422 179.747 93.3917 179.264C93.4113 179.244 93.4308 179.225 93.4504 179.198C94.2647 178.264 95.9587 176.383 97.9067 174.234C100.734 171.117 104.089 167.453 106.057 165.303C106.07 165.29 106.083 165.277 106.09 165.271C106.344 164.99 106.715 164.911 107.041 165.003ZM114.748 152.186L108.376 158.34L108.37 158.346C108.344 158.372 108.318 158.392 108.292 158.411C107.888 158.699 107.112 158.457 106.585 157.928C106.018 157.36 105.725 156.445 106.103 156.066C106.904 155.263 112.507 150.487 112.833 150.2C112.846 150.18 112.865 150.161 112.885 150.147C112.937 150.095 112.989 150.05 113.048 150.017C113.406 149.782 113.869 149.821 114.233 150.069C114.409 150.193 114.689 150.409 114.931 150.69C115.282 151.082 115.263 151.683 114.898 152.062C114.891 152.068 114.885 152.075 114.878 152.081C114.833 152.114 114.794 152.153 114.748 152.186ZM110.396 160.534C110.416 160.508 110.435 160.482 110.468 160.456L110.474 160.45L116.618 154.061C116.65 154.015 116.683 153.976 116.722 153.936C116.729 153.93 116.735 153.923 116.742 153.917C117.12 153.551 117.719 153.538 118.11 153.891C118.383 154.139 118.605 154.413 118.729 154.59C118.976 154.956 119.015 155.419 118.781 155.779C118.742 155.837 118.703 155.89 118.651 155.942C118.631 155.962 118.618 155.975 118.598 155.994C118.312 156.321 113.549 161.932 112.748 162.743C112.37 163.121 111.458 162.827 110.891 162.259C110.35 161.717 110.109 160.933 110.396 160.534Z" fill="#2D2A26"/>
<path d="M575.832 39.7841C575.793 39.8168 575.754 39.8429 575.715 39.8691C575.493 40.0062 575.22 40.0193 574.979 39.9344C574.939 39.9213 574.907 39.9017 574.868 39.8821L574.861 39.8756C574.418 39.6731 573.949 39.5424 573.48 39.4771C572.158 39.3007 570.307 39.8168 569.206 40.751C565.48 43.9063 563.362 48.6425 565.199 50.8244C567.037 53.0063 572.047 51.7063 575.773 48.551C576.874 47.6168 577.695 45.8791 577.741 44.5399C577.761 44.0631 577.708 43.5796 577.585 43.1093V43.1028C577.572 43.0636 577.559 43.0244 577.552 42.9852C577.506 42.7369 577.565 42.4691 577.741 42.2731C577.774 42.2339 577.806 42.2012 577.839 42.1686C577.852 42.162 577.858 42.149 577.871 42.1424C579.878 40.5811 596.452 26.7971 599.364 24.5564C601.371 23.0147 603.137 21.669 604.01 21.0288C604.029 21.0157 604.049 21.0026 604.068 20.983C604.524 20.6237 604.785 20.0554 604.831 19.4609C604.883 18.8599 604.713 18.2328 604.309 17.7493C604.303 17.7428 604.303 17.7428 604.296 17.7363C604.296 17.7363 604.29 17.7298 604.283 17.7232C603.873 17.2463 603.28 16.972 602.687 16.9197C602.094 16.8674 601.495 17.0308 601.065 17.4227C601.045 17.4358 601.026 17.4554 601.013 17.475C600.237 18.2328 598.622 19.7484 596.765 21.473C594.074 23.9815 577.741 38.0464 575.871 39.7711C575.852 39.7645 575.839 39.7776 575.832 39.7841Z" fill="#2D2A26"/>
<path d="M554.782 29.8871C554.756 29.8936 554.73 29.9002 554.697 29.9067C554.41 29.9851 554.195 30.2529 554.195 30.5665C554.195 30.9389 554.495 31.2459 554.867 31.2524C554.88 31.2524 554.925 31.2524 554.99 31.2459C555.499 31.2132 557.466 31.0956 560.3 31.0368C561.154 31.0238 562.085 31.0107 563.076 31.0107C563.545 31.0107 563.922 31.3896 563.922 31.86C563.922 32.2977 563.59 32.6635 563.167 32.7092C563.141 32.7092 563.108 32.7158 563.076 32.7158C563.069 32.7158 563.069 32.7158 563.062 32.7158L559.557 32.8791L554.86 33.0946C554.489 33.0946 554.189 33.3952 554.189 33.761C554.189 34.1333 554.489 34.4273 554.86 34.4273L559.557 34.6429L563.076 34.8062C563.076 34.8062 563.076 34.8062 563.082 34.8062C563.108 34.8062 563.134 34.8062 563.16 34.8127H563.167C563.597 34.8585 563.936 35.2178 563.936 35.662C563.936 36.1324 563.551 36.5178 563.082 36.5178C562.098 36.5178 561.167 36.5047 560.313 36.4917C557.505 36.4329 555.512 36.3087 554.997 36.2761C554.925 36.2695 554.886 36.2695 554.873 36.2695C554.502 36.2761 554.202 36.5831 554.202 36.962C554.202 37.269 554.404 37.5303 554.684 37.6218H554.691C554.723 37.6283 554.756 37.6349 554.788 37.6479C557.883 38.3339 561.101 38.6932 564.398 38.6932C566.359 38.6932 568.053 37.5434 568.841 35.871C568.854 35.8318 568.867 35.7992 568.887 35.7665C569.03 35.4987 569.31 35.3223 569.63 35.3223C569.643 35.3223 569.656 35.3223 569.675 35.3223C572.216 35.4268 593.657 35.6163 597.319 35.7861C599.847 35.9037 602.062 36.0148 603.137 36.0932C603.163 36.0932 603.182 36.0932 603.208 36.0932C603.788 36.1062 604.348 35.8449 604.772 35.4203C605.195 34.9957 605.476 34.4077 605.482 33.774C605.482 33.7675 605.482 33.761 605.482 33.761C605.482 33.7544 605.482 33.7479 605.482 33.7479C605.476 33.1142 605.202 32.5263 604.778 32.1017C604.355 31.6771 603.795 31.4157 603.215 31.4353C603.189 31.4353 603.163 31.4353 603.143 31.4353C602.062 31.5137 599.853 31.6248 597.325 31.7424C593.657 31.9188 572.216 32.1017 569.682 32.2062C569.669 32.2062 569.656 32.2062 569.636 32.2062C569.317 32.2062 569.037 32.0298 568.893 31.762C568.874 31.7293 568.854 31.6901 568.841 31.6509V31.6444C568.053 29.9785 566.359 28.8353 564.398 28.8353C561.095 28.8419 557.877 29.2012 554.782 29.8871Z" fill="#2D2A26"/>
<path d="M560.053 70.5532C543.139 70.5532 529.373 56.7561 529.373 39.7907C529.373 22.8253 543.133 9.0282 560.053 9.0282C576.972 9.0282 590.732 22.8253 590.732 39.7907C590.732 56.7561 576.966 70.5532 560.053 70.5532ZM560.053 11.6478C544.573 11.6478 531.979 24.2755 531.979 39.7972C531.979 55.3189 544.573 67.9401 560.053 67.9401C575.532 67.9401 588.126 55.3124 588.126 39.7907C588.126 24.269 575.526 11.6478 560.053 11.6478Z" fill="#2D2A26"/>
<path d="M672.614 104.234L665.429 128.242L689.373 135.446L696.557 111.438L672.614 104.234Z" fill="white"/>
<path d="M673.297 105.457L695.37 112.101L688.745 134.234L666.672 127.59L673.297 105.457ZM671.988 103.014L664.241 128.903L690.061 136.671L697.807 110.782L671.988 103.014Z" fill="#2D2A26"/>
<path d="M681.024 112.532C676.601 112.532 673.017 115.459 673.017 119.065C673.017 119.091 673.024 115.707 673.024 119.15C673.024 122.593 676.718 126.107 678.614 127.015C678.614 127.015 678.62 127.015 678.627 127.015C678.672 127.035 678.711 127.054 678.751 127.074C679.05 127.244 679.252 127.558 679.252 127.923C679.252 127.943 679.252 127.956 679.252 127.976C679.135 130.889 678.92 141.093 678.718 145.294C678.581 148.194 678.451 150.729 678.366 151.97C678.366 151.996 678.366 152.022 678.366 152.055C678.347 152.715 678.646 153.362 679.128 153.845C679.61 154.335 680.288 154.649 681.005 154.655C681.011 154.655 681.018 154.655 681.024 154.655C681.031 154.655 681.031 154.655 681.044 154.655C681.767 154.649 682.438 154.329 682.92 153.845C683.402 153.362 683.702 152.715 683.682 152.055C683.682 152.029 683.682 151.996 683.682 151.97C683.598 150.736 683.467 148.201 683.331 145.3C683.135 141.093 682.92 130.889 682.796 127.976C682.796 127.956 682.796 127.943 682.796 127.923C682.796 127.558 682.998 127.237 683.298 127.068C683.337 127.041 683.383 127.028 683.428 127.009C683.428 127.009 683.435 127.009 683.441 127.002C685.337 126.101 689.038 122.665 689.038 119.058C689.025 115.459 685.442 112.532 681.024 112.532Z" fill="#2D2A26"/>
<path d="M706.101 14.8815C703.436 14.8815 700.771 14.8815 698.107 14.8815C693.54 29.4625 692.145 44.8862 695.416 59.5717H696.387H696.426H697.429H699.696V46.6435H695.696C695.299 38.1052 696.27 29.1815 698.628 20.1599H705.573C707.931 29.1815 708.909 38.1118 708.505 46.6435H704.505V59.5717H706.772H707.775H707.814H708.785C712.062 44.8927 710.668 29.4625 706.101 14.8815Z" fill="#2D2A26"/>
<path d="M759.531 152.748C775.003 152.748 787.545 140.171 787.545 124.657C787.545 109.143 775.003 96.5663 759.531 96.5663C744.059 96.5663 731.516 109.143 731.516 124.657C731.516 140.171 744.059 152.748 759.531 152.748Z" fill="white"/>
<path d="M759.531 98.5261C773.903 98.5261 785.591 110.246 785.591 124.657C785.591 139.068 773.903 150.788 759.531 150.788C745.158 150.788 733.47 139.068 733.47 124.657C733.47 110.246 745.158 98.5261 759.531 98.5261ZM759.531 94.6065C742.976 94.6065 729.561 108.057 729.561 124.657C729.561 141.25 742.976 154.707 759.531 154.707C776.085 154.707 789.5 141.25 789.5 124.657C789.5 108.057 776.079 94.6065 759.531 94.6065Z" fill="#2D2A26"/>
<path d="M759.531 120.946C755.107 120.946 751.524 123.873 751.524 127.479C751.524 127.505 751.53 124.121 751.53 127.564C751.53 131.007 755.224 134.521 757.12 135.429C757.12 135.429 757.127 135.429 757.133 135.429C757.179 135.449 757.218 135.469 757.257 135.488C757.557 135.658 757.759 135.972 757.759 136.337C757.759 136.357 757.759 136.37 757.759 136.39C757.641 139.303 757.426 149.507 757.224 153.708C757.088 156.608 756.957 159.143 756.873 160.384C756.873 160.41 756.873 160.437 756.873 160.469C756.853 161.129 757.153 161.776 757.635 162.259C758.117 162.749 758.794 163.063 759.511 163.069C759.518 163.069 759.524 163.069 759.531 163.069C759.537 163.069 759.537 163.069 759.55 163.069C760.273 163.063 760.944 162.743 761.427 162.259C761.909 161.776 762.208 161.129 762.189 160.469C762.189 160.443 762.189 160.41 762.189 160.384C762.104 159.15 761.974 156.615 761.837 153.714C761.642 149.507 761.427 139.303 761.303 136.39C761.303 136.37 761.303 136.357 761.303 136.337C761.303 135.972 761.505 135.651 761.804 135.482C761.844 135.455 761.889 135.442 761.935 135.423C761.935 135.423 761.941 135.423 761.948 135.416C763.844 134.515 767.544 131.079 767.544 127.473C767.531 123.866 763.948 120.946 759.531 120.946Z" fill="#2D2A26"/>
<path d="M763.622 80.202C752.481 80.202 743.419 71.115 743.419 59.9441V22.2177C743.419 11.0468 752.481 1.95984 763.622 1.95984H766.085C777.226 1.95984 786.288 11.0468 786.288 22.2177V59.9506C786.288 71.1215 777.226 80.2085 766.085 80.2085H763.622V80.202Z" fill="white"/>
<path d="M766.085 3.91962C776.144 3.91962 784.334 12.1247 784.334 22.2177V59.9506C784.334 70.0371 776.151 78.2487 766.085 78.2487H763.622C753.563 78.2487 745.374 70.0436 745.374 59.9506V22.2177C745.374 12.1312 753.556 3.91962 763.622 3.91962H766.085V3.91962ZM766.085 0H763.622C751.387 0 741.464 9.94277 741.464 22.2177V59.9506C741.464 72.219 751.387 82.1683 763.622 82.1683H766.085C778.32 82.1683 788.243 72.219 788.243 59.9506V22.2177C788.243 9.94277 778.32 0 766.085 0Z" fill="#2D2A26"/>
<path d="M772.385 72.3562H757.316C756.234 72.3562 755.361 71.4808 755.361 70.3964C755.361 69.312 756.234 68.4366 757.316 68.4366H772.385C773.466 68.4366 774.339 69.312 774.339 70.3964C774.339 71.4808 773.466 72.3562 772.385 72.3562Z" fill="#2D2A26"/>
<path d="M772.385 13.7252H757.316C756.234 13.7252 755.361 12.8498 755.361 11.7654C755.361 10.681 756.234 9.8056 757.316 9.8056H772.385C773.466 9.8056 774.339 10.681 774.339 11.7654C774.339 12.8498 773.466 13.7252 772.385 13.7252Z" fill="#2D2A26"/>
<path d="M777.525 63.2888C777.278 63.2888 777.024 63.1908 776.835 63.0014L751.491 37.5892C751.107 37.2037 751.107 36.5831 751.491 36.2042C751.876 35.8188 752.494 35.8188 752.872 36.2042L778.216 61.6164C778.6 62.0019 778.6 62.6225 778.216 63.0014C778.027 63.1908 777.773 63.2888 777.525 63.2888Z" fill="#2D2A26"/>
<path d="M769.069 63.3084C768.821 63.3084 768.567 63.2104 768.378 63.0209L751.491 46.0882C751.107 45.7028 751.107 45.0822 751.491 44.7033C751.876 44.3178 752.494 44.3178 752.872 44.7033L769.759 61.636C770.144 62.0214 770.144 62.6421 769.759 63.0209C769.571 63.2104 769.316 63.3084 769.069 63.3084Z" fill="#2D2A26"/>
<path d="M761.01 63.7265C760.762 63.7265 760.508 63.6285 760.319 63.4391L751.491 54.5873C751.107 54.2018 751.107 53.5812 751.491 53.2023C751.876 52.8169 752.494 52.8169 752.872 53.2023L761.7 62.0541C762.085 62.4396 762.085 63.0602 761.7 63.4391C761.511 63.6285 761.257 63.7265 761.01 63.7265Z" fill="#2D2A26"/>
<path d="M777.525 54.7898C777.278 54.7898 777.024 54.6918 776.835 54.5023L751.491 29.0901C751.107 28.7047 751.107 28.0841 751.491 27.7052C751.876 27.3198 752.494 27.3198 752.872 27.7052L778.216 53.1174C778.6 53.5028 778.6 54.1234 778.216 54.5023C778.027 54.6918 777.773 54.7898 777.525 54.7898Z" fill="#2D2A26"/>
<path d="M777.525 46.2842C777.278 46.2842 777.024 46.1862 776.835 45.9967L751.491 20.5845C751.107 20.1991 751.107 19.5785 751.491 19.1996C751.876 18.8142 752.494 18.8142 752.872 19.1996L778.216 44.6118C778.6 44.9972 778.6 45.6178 778.216 45.9967C778.027 46.1927 777.773 46.2842 777.525 46.2842Z" fill="#2D2A26"/>
<path d="M777.525 37.7851C777.278 37.7851 777.024 37.6871 776.835 37.4977L759.967 20.5845C759.583 20.1991 759.583 19.5785 759.967 19.1996C760.352 18.8142 760.971 18.8142 761.348 19.1996L778.216 36.1127C778.6 36.4982 778.6 37.1188 778.216 37.4977C778.027 37.6937 777.773 37.7851 777.525 37.7851Z" fill="#2D2A26"/>
<path d="M777.525 29.2861C777.278 29.2861 777.024 29.1881 776.835 28.9987L767.968 20.1077C767.583 19.7222 767.583 19.1016 767.968 18.7227C768.352 18.3438 768.971 18.3373 769.349 18.7227L778.216 27.6137C778.6 27.9992 778.6 28.6198 778.216 28.9987C778.027 29.1946 777.773 29.2861 777.525 29.2861Z" fill="#2D2A26"/>
<path d="M182.993 166.185C180.433 166.185 178.348 164.095 178.348 161.528C178.348 158.96 180.433 156.87 182.993 156.87C185.554 156.87 187.645 158.96 187.645 161.528C187.645 164.095 185.56 166.185 182.993 166.185Z" fill="white"/>
<path d="M182.993 157.843C185.02 157.843 186.668 159.496 186.668 161.521C186.668 163.553 185.02 165.199 182.993 165.199C180.967 165.199 179.325 163.546 179.325 161.521C179.325 159.496 180.974 157.843 182.993 157.843ZM182.993 155.883C179.886 155.883 177.371 158.411 177.371 161.521C177.371 164.637 179.892 167.159 182.993 167.159C186.101 167.159 188.622 164.631 188.622 161.521C188.622 158.411 186.101 155.883 182.993 155.883Z" fill="#2D2A26"/>
<path d="M185.873 182.648H180.12V165.61H185.873V182.648ZM183.958 180.035C183.958 179.506 183.528 179.074 183 179.074C182.472 179.074 182.042 179.506 182.042 180.035C182.042 180.564 182.472 180.995 183 180.995C183.528 180.995 183.958 180.564 183.958 180.035Z" fill="#2D2A26"/>
<path d="M195.307 171.346C194.33 171.346 193.417 170.967 192.727 170.275C191.307 168.851 191.307 166.525 192.727 165.101C193.417 164.409 194.33 164.03 195.307 164.03C196.284 164.03 197.196 164.409 197.887 165.101C199.307 166.525 199.307 168.851 197.887 170.275C197.196 170.967 196.278 171.346 195.307 171.346Z" fill="white"/>
<path d="M195.307 165.016C196.017 165.016 196.688 165.297 197.196 165.8C198.239 166.845 198.239 168.544 197.196 169.589C196.695 170.092 196.024 170.373 195.307 170.373C194.59 170.373 193.926 170.092 193.417 169.589C192.375 168.544 192.375 166.845 193.417 165.8C193.919 165.29 194.59 165.016 195.307 165.016ZM195.307 163.056C194.121 163.056 192.942 163.507 192.036 164.415C190.232 166.225 190.232 169.164 192.036 170.974C192.942 171.882 194.121 172.333 195.307 172.333C196.493 172.333 197.672 171.882 198.577 170.974C200.382 169.164 200.382 166.225 198.577 164.415C197.672 163.507 196.486 163.056 195.307 163.056Z" fill="#2D2A26"/>
<path d="M182.589 183.327L179.71 180.44L191.724 168.393L194.603 171.281L182.589 183.327ZM183.678 180.714C184.049 180.335 184.055 179.728 183.678 179.355C183.306 178.976 182.694 178.983 182.322 179.355C181.951 179.728 181.951 180.342 182.322 180.714C182.694 181.086 183.3 181.086 183.678 180.714Z" fill="#2D2A26"/>
<path d="M198.564 183.02C196.923 183.02 195.58 181.681 195.58 180.028C195.58 178.382 196.916 177.036 198.564 177.036C200.206 177.036 201.548 178.375 201.548 180.028C201.548 181.681 200.213 183.02 198.564 183.02Z" fill="white"/>
<path d="M198.564 178.023C199.672 178.023 200.571 178.924 200.571 180.035C200.571 181.145 199.672 182.047 198.564 182.047C197.457 182.047 196.558 181.145 196.558 180.035C196.558 178.924 197.457 178.023 198.564 178.023ZM198.564 176.063C196.375 176.063 194.603 177.84 194.603 180.035C194.603 182.23 196.375 184.007 198.564 184.007C200.753 184.007 202.526 182.23 202.526 180.035C202.526 177.84 200.753 176.063 198.564 176.063Z" fill="#2D2A26"/>
<path d="M180.387 181.635V178.428H195.971V181.635H180.387ZM183 180.995C183.528 180.995 183.958 180.564 183.958 180.035C183.958 179.506 183.528 179.074 183 179.074C182.472 179.074 182.042 179.506 182.042 180.035C182.036 180.564 182.466 180.995 183 180.995Z" fill="#2D2A26"/>
</svg>
