<svg width="164" height="164" viewBox="0 0 164 164" fill="none" xmlns="http://www.w3.org/2000/svg">
<path d="M82 164C127.287 164 164 127.287 164 82C164 36.7127 127.287 0 82 0C36.7127 0 0 36.7127 0 82C0 127.287 36.7127 164 82 164Z" fill="#061333"/>
<path d="M86.1322 38.0208H42.4984V125.985H86.1322V38.0208Z" fill="url(#paint0_linear)"/>
<path d="M42.2642 125.938C61.579 125.938 77.7449 113.606 83.7851 96.0471H42.2642V125.938Z" fill="url(#paint1_linear)"/>
<path d="M86.1615 125.938C105.476 125.938 121.724 113.606 127.77 96.0471H86.1615V125.938Z" fill="url(#paint2_linear)"/>
<path d="M42.2642 96.0471H83.7851C85.4064 92.5353 86.2961 87.1389 86.2961 82C86.2961 76.8611 85.4123 71.4647 83.7851 67.9529H42.2642V96.0471Z" fill="url(#paint3_linear)"/>
<path d="M86.1615 96.0471H127.77C129.391 92.5353 130.281 87.1389 130.281 82C130.281 76.8611 129.397 71.4647 127.77 67.9529H86.1615V96.0471Z" fill="url(#paint4_linear)"/>
<path d="M42.2642 37.974V67.9529H83.7851C77.739 50.394 61.579 37.974 42.2642 37.974Z" fill="url(#paint5_linear)"/>
<path d="M86.1615 37.974V67.9529H127.77C121.724 50.394 105.476 37.974 86.1615 37.974Z" fill="url(#paint6_linear)"/>
<path d="M115.192 127.29C113.425 127.753 111.604 127.835 109.919 127.835C108.666 127.835 106.331 127.782 105.406 127.782C104.429 127.782 102.526 127.835 102.117 127.811C101.818 127.811 101.818 127.595 101.818 127.319C101.818 126.828 101.818 126.804 102.281 126.722C103.556 126.529 104.153 126.424 104.235 124.247C104.347 122.181 104.347 118.944 104.347 116.772C104.347 114.162 104.317 113.618 104.235 112.939C104.101 111.715 103.609 111.663 102.333 111.552C101.982 111.522 101.982 111.47 101.982 110.978C101.982 110.65 101.982 110.381 102.228 110.381C102.421 110.381 102.638 110.41 103.018 110.434C103.369 110.463 103.89 110.486 104.651 110.486C105.523 110.486 107.127 110.457 108.596 110.434C110.088 110.404 111.476 110.381 111.938 110.381C117.703 110.381 121.426 113.097 121.426 118.645C121.42 125.447 116.31 127.021 115.192 127.29ZM114.864 112.828C114.103 112.283 112.909 111.686 110.486 111.686C108.502 111.686 108.338 112.178 108.233 113.073C108.151 113.916 108.151 119.57 108.151 120.928C108.151 121.8 108.18 124.791 108.368 125.493C108.561 126.254 109.509 126.471 110.68 126.471C111.955 126.471 113.237 126.225 114.32 125.517C116.357 124.212 117.282 121.929 117.282 118.827C117.288 117.451 117.042 114.431 114.864 112.828Z" fill="white"/>
<path d="M136.831 127.29C135.063 127.753 133.243 127.835 131.557 127.835C130.304 127.835 127.969 127.782 127.044 127.782C126.067 127.782 124.165 127.835 123.755 127.811C123.457 127.811 123.457 127.595 123.457 127.319C123.457 126.828 123.457 126.804 123.919 126.722C125.195 126.529 125.792 126.424 125.874 124.247C125.985 122.181 125.985 118.944 125.985 116.772C125.985 114.162 125.956 113.618 125.874 112.939C125.739 111.715 125.248 111.663 123.972 111.552C123.62 111.522 123.62 111.47 123.62 110.978C123.62 110.65 123.62 110.381 123.866 110.381C124.059 110.381 124.276 110.41 124.656 110.434C125.008 110.463 125.528 110.486 126.289 110.486C127.161 110.486 128.765 110.457 130.228 110.434C131.721 110.404 133.108 110.381 133.57 110.381C139.336 110.381 143.058 113.097 143.058 118.645C143.058 125.447 137.943 127.021 136.831 127.29ZM136.503 112.828C135.742 112.283 134.548 111.686 132.125 111.686C130.141 111.686 129.977 112.178 129.871 113.073C129.789 113.916 129.789 119.57 129.789 120.928C129.789 121.8 129.819 124.791 130.006 125.493C130.193 126.254 131.147 126.471 132.318 126.471C133.594 126.471 134.876 126.225 135.958 125.517C137.995 124.212 138.92 121.929 138.92 118.827C138.926 117.451 138.68 114.431 136.503 112.828Z" fill="white"/>
<defs>
<linearGradient id="paint0_linear" x1="64.3139" y1="38.5297" x2="64.3139" y2="129.305" gradientUnits="userSpaceOnUse">
<stop stop-color="#11838E"/>
<stop offset="1" stop-color="#68A294"/>
</linearGradient>
<linearGradient id="paint1_linear" x1="63.0238" y1="96.2224" x2="63.0238" y2="127.069" gradientUnits="userSpaceOnUse">
<stop stop-color="#F3EAA1"/>
<stop offset="1" stop-color="#FDB87F"/>
</linearGradient>
<linearGradient id="paint2_linear" x1="106.963" y1="96.2224" x2="106.963" y2="127.069" gradientUnits="userSpaceOnUse">
<stop stop-color="#063E69"/>
<stop offset="1" stop-color="#05677E"/>
</linearGradient>
<linearGradient id="paint3_linear" x1="64.2782" y1="68.1164" x2="64.2782" y2="96.2106" gradientUnits="userSpaceOnUse">
<stop stop-color="#F3EAA1"/>
<stop offset="1" stop-color="#FDB87F"/>
</linearGradient>
<linearGradient id="paint4_linear" x1="108.218" y1="68.1164" x2="108.218" y2="96.2106" gradientUnits="userSpaceOnUse">
<stop stop-color="#063E69"/>
<stop offset="1" stop-color="#05677E"/>
</linearGradient>
<linearGradient id="paint5_linear" x1="63.0238" y1="37.7197" x2="63.0238" y2="69.1507" gradientUnits="userSpaceOnUse">
<stop stop-color="#F3EAA1"/>
<stop offset="1" stop-color="#FDB87F"/>
</linearGradient>
<linearGradient id="paint6_linear" x1="106.963" y1="37.7197" x2="106.963" y2="69.1507" gradientUnits="userSpaceOnUse">
<stop stop-color="#063E69"/>
<stop offset="1" stop-color="#05677E"/>
</linearGradient>
</defs>
</svg>
