<svg xmlns="http://www.w3.org/2000/svg" width="24" height="24" viewBox="0 0 24 24">
  <path fill="#FFFFFF" fill-rule="evenodd" d="M36,95.9680067 C29.3831658,95.9680067 24,90.5920436 24,83.9840034 C24,77.3760469 29.3831658,72 36,72 C42.6168342,72 48,77.3760469 48,83.9840034 C48,90.5920436 42.6168342,95.9680067 36,95.9680067 Z M46.1201843,85.6244556 C45.7695142,85.5139028 42.9476549,84.6734506 39.7356784,85.1869347 C41.0762982,88.8659966 41.621943,91.8624791 41.7269682,92.4851759 C44.0264657,90.9324121 45.6634003,88.4726131 46.1201843,85.6244556 Z M40.0037688,93.4222781 C39.85134,92.5242044 39.2562814,89.3943049 37.8171692,85.6598827 C37.7947236,85.6675042 37.7721106,85.6747906 37.7495812,85.6826633 C31.9683417,87.6944724 29.8930486,91.6984087 29.7085427,92.0749581 C31.4463987,93.4283082 33.6304858,94.2358459 36,94.2358459 C37.4198492,94.2358459 38.7731156,93.9458124 40.0037688,93.4222781 Z M28.3850921,90.8438023 C28.6173367,90.4469012 31.4303183,85.7954774 36.7165829,84.0890285 C36.8501675,84.0458961 36.9849246,84.0053601 37.1205193,83.9672529 C36.8631491,83.3857621 36.5829983,82.8036013 36.289531,82.230067 C31.1708543,83.7599665 26.2038526,83.6960637 25.7553601,83.6868509 C25.7521776,83.7907873 25.7500838,83.8949749 25.7500838,83.999665 C25.7500838,86.6286432 26.7480737,89.0291457 28.3850921,90.8438023 Z M25.9666667,81.9030988 C26.4251256,81.9092127 30.6479899,81.9274707 35.4425461,80.6559464 C33.7441374,77.6410385 31.9125628,75.1061139 31.6422948,74.7360134 C28.7747906,76.0867672 26.6313233,78.7268007 25.9666667,81.9030988 Z M33.5980737,74.0479899 C33.8813233,74.4268844 35.7429648,76.9586265 37.4225293,80.0403685 C41.0672529,78.6761307 42.6102178,76.6050251 42.7945561,76.3427973 C40.9845059,74.7391122 38.6043551,73.7634841 36,73.7634841 C35.1730318,73.7634841 34.3688442,73.8624791 33.5980737,74.0479899 Z M43.9340034,77.5265494 C43.7180067,77.8184255 42.000335,80.0173367 38.2106365,81.5624791 C38.4490787,82.0500838 38.6778057,82.5459799 38.8906198,83.0451424 C38.9660804,83.2221106 39.039531,83.3981575 39.1113903,83.5734506 C42.521943,83.1451424 45.9107203,83.8315745 46.24866,83.9029313 C46.2260469,81.4868509 45.3615578,79.2683417 43.9340034,77.5265494 Z" transform="translate(-24 -72)"/>
</svg>
