<svg width="202" height="186" viewBox="0 0 202 186" fill="none" xmlns="http://www.w3.org/2000/svg">
<path d="M157.096 71.8017C154.352 70.6546 149.003 73.6788 148.117 69.2294C147.839 67.8563 149.68 67.4739 149.558 66.744C149.333 65.4926 143.515 67.4218 142.577 66.1878C142.438 65.9966 143.636 64.9538 143.619 64.415C143.584 62.6248 141.309 63.0071 140.892 61.9295C140.736 61.5124 140.649 60.7824 140.614 60.0003C141.465 56.8544 141.952 53.3088 141.952 49.5546C141.952 40.2734 139.017 32.2609 134.779 28.5415C134.189 27.7941 133.529 27.2032 132.782 26.9599C131.983 26.6818 124.706 24.5961 127.329 28.4025C128.162 29.6191 130.489 30.7488 131.583 32.0871C131.601 32.1045 135.283 35.1635 133.181 35.459C132.73 35.5285 129.76 32.4695 128.77 31.8438C127.902 31.2876 127.659 28.6284 126.686 28.3156C126.009 28.0896 125.852 28.8022 125.158 28.8022C123.855 28.8022 121.702 24.1616 120.746 25.3609C120.399 25.7954 121.649 27.516 121.875 27.7768C125.071 31.2702 127.606 34.6247 128.457 41.3336C128.909 44.8618 127.207 41.2814 126.773 40.4472C125.314 37.7184 124.116 33.86 122.049 31.8612C120.903 30.7662 115.067 25.6216 112.827 28.3329C111.75 29.6539 114.894 31.7743 115.067 32.5043C115.363 33.6688 114.546 33.6861 114.911 35.1461C115.449 37.2839 117.725 39.6477 118.037 42.7762C118.159 43.9754 118.801 47.4342 118.193 47.5906C117.169 47.8513 116.821 43.9407 116.839 43.9754C115.536 38.6222 112.41 35.4242 110.343 31.3745C109.145 29.0282 107.113 23.6923 104.091 23.8314C102.094 23.9183 101.973 24.1616 103.692 25.1871C108.642 28.1244 107.565 35.963 110.43 41.0729C110.812 41.7507 111.733 42.2374 111.959 43.0716C112.375 44.6533 114.477 52.1617 113.487 53.0133C111.038 55.1338 110.5 51.0319 110.361 49.7284C109.736 44.1145 108.346 37.6315 106.036 33.0431C104.994 30.9922 103.275 29.8972 102.111 28.1417C101.938 27.8637 99.4022 22.6669 98.3428 24.7699C97.8739 25.7085 101.122 28.0201 101.712 28.8717C103.119 30.8531 105.672 36.0499 105.724 38.1703C105.741 38.9003 105.828 44.4447 105.238 44.5142C104.004 44.6533 103.414 39.2653 102.754 37.5272C102.181 36.0325 100.531 34.0511 99.4717 31.9133C98.8812 30.7488 95.6161 25.7606 94.5046 25.9692C92.5074 26.3516 94.9215 27.9853 95.3035 28.2982C97.8391 30.2796 99.4543 35.0418 98.5165 37.7706C97.5613 40.4993 100.323 43.5757 100.601 46.2697C100.739 47.6949 99.819 48.842 99.8016 49.8848C99.7843 50.4758 101.556 56.194 99.159 54.5428C98.7075 54.23 99.3848 50.8929 99.2459 50.0412C97.787 41.2293 96.3108 30.3491 89.1382 27.8115C83.9454 25.9866 91.2223 33.2169 91.5349 34.6247C92.1254 37.197 93.4279 38.9177 93.4626 41.3683C93.5147 45.8873 91.8648 38.8134 91.6217 38.0834C91.3786 37.3187 90.1281 35.094 89.6245 34.3987C88.4956 32.8693 81.8961 33.5471 82.9729 29.8277C83.1292 29.3062 85.6127 29.0629 85.3695 27.8984C85.1264 26.6818 82.174 27.7246 82.0871 27.742C79.9683 27.9506 76.7728 27.0815 74.5498 28.1417C71.1458 29.7755 63.6953 32.8345 62.0455 48.3553C61.976 49.0853 60.8819 49.4503 60.7603 49.9543C60.3435 51.901 61.2987 57.4975 62.1149 58.6968C63.2264 60.3305 64.8242 57.1499 66.5262 57.9842C67.8635 58.6272 67.0125 62.6248 67.8114 64.3976C68.9576 66.9351 71.5453 71.3672 74.463 71.7843C79.1695 72.4448 74.9666 67.6651 74.463 67.0568C71.7711 63.8414 71.7363 61.6341 70.7811 56.2982C69.4786 49.0506 70.4164 35.1983 76.7207 32.7128C80.0205 31.4093 82.2955 35.7544 83.3028 37.4403C88.9124 46.9997 89.9892 64.2585 81.9482 71.4541C81.0798 72.2362 80.9756 73.4702 80.4199 74.0264C79.8989 74.5304 74.6714 73.3486 73.9246 73.14C72.6915 72.7924 70.3122 71.3672 69.8433 70.4113C68.2108 67.1611 65.8489 66.4311 65.1194 62.6248C64.4942 59.392 61.6808 59.7048 61.4376 63.0245C61.316 64.6757 63.5911 66.5354 62.8791 67.9954C62.3581 69.073 59.9267 68.0649 59.5967 69.4379C59.4057 70.1853 60.0309 71.0022 59.753 71.4367C58.8673 72.9141 52.4588 70.3244 51.6599 72.7229C50.9826 74.7912 56.0712 78.0587 57.3563 78.4932C59.6662 79.2927 63.9732 78.9973 65.8489 80.1791C66.6999 80.7179 66.2657 82.1084 67.5335 82.3517C69.878 82.7688 71.6321 80.7005 74.2719 80.9091C75.4182 80.996 76.5644 82.7167 77.7106 82.9079C81.6009 83.5683 85.8905 80.4746 90.1455 81.4653C91.0486 81.6739 91.3265 82.6472 92.3859 82.9079C94.5741 83.4467 98.0302 81.6043 99.1938 82.5776C99.8016 83.0817 99.5237 84.3505 100.236 84.6633C102.059 85.4454 105.272 83.4641 106.332 83.1338C114.824 80.5615 127.52 79.9532 136.637 77.7632C139.868 76.9811 147.822 79.6403 149.072 77.9197C149.489 77.3461 148.933 76.338 149.315 75.7471C150.67 73.7309 156.87 76.0947 157.895 74.0612C158.242 73.2964 157.686 72.045 157.096 71.8017ZM103.553 71.7148C102.528 72.3579 104.369 71.2108 103.553 71.7148V71.7148ZM113.817 59.8439C113.904 59.4615 114.043 59.531 114.459 59.4441C118.332 58.5751 113.018 63.1983 113.817 59.8439ZM119.583 36.1716C118.871 34.7985 114.668 29.3584 115.328 29.0282C116.891 28.246 117.95 30.7141 118.454 31.5136C119.895 33.8078 122.084 37.5099 122.379 40.256C122.813 44.2188 120.139 37.2492 119.583 36.1716ZM123.351 53.8302C122.952 54.23 124.011 53.1697 123.351 53.8302V53.8302ZM128.006 45.644C130.767 44.6185 128.892 49.7284 127.606 48.1294C127.051 47.4515 127.693 45.7656 128.006 45.644Z" fill="#383F48"/>
<path d="M37.0716 137.622L37.9747 139.638L29.3085 140.455L28.4054 138.439L32.8861 134.72L27.1203 135.554L26.2172 133.538L32.6083 127.646L33.5461 129.766L28.7007 133.694L34.866 132.721L35.717 134.65L30.8889 138.613L37.0716 137.622Z" fill="#383F48"/>
<path d="M39.1209 141.064L40.2498 142.906L33.2161 147.216L32.0872 145.374L39.1209 141.064Z" fill="#383F48"/>
<path d="M41.7259 145.2L42.9937 146.938L37.8357 150.744L39.9023 153.56L38.4261 154.655L35.0743 150.101L41.7259 145.2Z" fill="#383F48"/>
<path d="M49.9406 155.906C50.149 156.619 50.149 157.331 49.9406 158.027C49.7322 158.722 49.3501 159.347 48.7596 159.904C48.1692 160.46 47.5266 160.807 46.8145 160.964C46.1025 161.12 45.3904 161.068 44.6784 160.825C43.9663 160.564 43.3064 160.112 42.6985 159.486L40.3192 156.966L46.3282 151.318L48.7596 153.907C49.3501 154.516 49.7496 155.193 49.9406 155.906ZM45.0257 159C45.3904 159.104 45.7551 159.087 46.1546 158.982C46.5367 158.861 46.9014 158.652 47.2313 158.339C47.5787 158.009 47.8045 157.662 47.9434 157.279C48.0823 156.897 48.0997 156.514 48.0129 156.132C47.926 155.75 47.735 155.402 47.4397 155.089L46.5193 154.099L43.0632 157.349L44.0705 158.409C44.3484 158.704 44.661 158.896 45.0257 159Z" fill="#383F48"/>
<path d="M56.158 160.982L58.0684 162.337L57.2348 167.656L61.9587 165.084L63.8691 166.439L59.1278 173.183L57.5648 172.071L60.5693 167.795L56.3143 170.176L55.1855 169.377L55.9844 164.562L52.9799 168.838L51.4168 167.725L56.158 160.982Z" fill="#383F48"/>
<path d="M66.2484 167.638L68.1414 168.663L64.199 175.911L62.306 174.885L66.2484 167.638Z" fill="#383F48"/>
<path d="M75.6787 172.122L77.5196 172.887L74.3588 180.5L72.6221 179.77L71.059 173.773L69.166 178.327L67.3077 177.562L70.4686 169.95L72.2226 170.68L73.7857 176.711L75.6787 172.122Z" fill="#383F48"/>
<path d="M85.4912 175.685C86.0469 176.189 86.429 176.78 86.62 177.475C86.8111 178.171 86.8111 178.918 86.62 179.7C86.4116 180.482 86.0469 181.125 85.5433 181.647C85.0223 182.168 84.397 182.498 83.6503 182.655C82.9035 182.811 82.1046 182.794 81.2536 182.568L77.9017 181.699L79.9858 173.721L83.4245 174.625C84.2581 174.816 84.9528 175.181 85.4912 175.685ZM82.9729 180.917C83.3377 180.813 83.6503 180.604 83.9108 180.291C84.1713 179.996 84.3623 179.613 84.4839 179.161C84.6055 178.709 84.6228 178.275 84.5186 177.875C84.4318 177.475 84.2407 177.145 83.9629 176.867C83.685 176.589 83.3376 176.398 82.9208 176.294L81.6183 175.946L80.42 180.552L81.8267 180.917C82.2435 181.021 82.6256 181.021 82.9729 180.917Z" fill="#383F48"/>
<path d="M99.0028 185.227L98.5339 183.732L94.9736 183.506L94.3137 184.914L92.108 184.775L96.1719 176.78L98.3776 176.919L101.295 185.366L99.0028 185.227ZM95.7378 181.907L98.0129 182.046L97.075 179.04L95.7378 181.907Z" fill="#383F48"/>
<path d="M109.041 184.967L107.686 182.777H107.634L106.089 182.881L106.245 185.158L104.091 185.297L103.536 177.059L107.235 176.815C108.329 176.746 109.18 176.937 109.823 177.406C110.448 177.876 110.795 178.553 110.865 179.475C110.899 180.1 110.812 180.639 110.604 181.108C110.378 181.578 110.048 181.943 109.579 182.238L111.472 184.81L109.041 184.967ZM105.984 181.16L107.547 181.056C107.982 181.021 108.312 180.9 108.537 180.656C108.763 180.413 108.867 180.1 108.833 179.683C108.798 179.283 108.659 178.988 108.416 178.779C108.155 178.588 107.825 178.501 107.374 178.519L105.811 178.623L105.984 181.16Z" fill="#383F48"/>
<path d="M112.341 176.363L119.288 175.042L119.618 176.78L117.186 177.249L118.402 183.611L116.283 184.01L115.067 177.649L112.671 178.101L112.341 176.363Z" fill="#383F48"/>
<path d="M121.181 174.469L123.247 173.878L125.522 181.803L123.456 182.394L121.181 174.469Z" fill="#383F48"/>
<path d="M130.524 173.252C130.003 173.287 129.586 173.356 129.274 173.478C129.031 173.582 128.84 173.704 128.735 173.843C128.631 173.982 128.614 174.156 128.683 174.329C128.753 174.503 128.857 174.608 129.031 174.677C129.204 174.747 129.395 174.781 129.604 174.764C129.812 174.764 130.125 174.747 130.524 174.712C131.115 174.66 131.618 174.642 132.018 174.66C132.417 174.677 132.817 174.799 133.181 175.025C133.546 175.251 133.841 175.616 134.032 176.12C134.241 176.624 134.275 177.128 134.136 177.58C134.015 178.049 133.737 178.466 133.338 178.831C132.938 179.196 132.452 179.491 131.879 179.717C131.236 179.961 130.559 180.1 129.847 180.135C129.135 180.152 128.457 180.065 127.85 179.856L128.006 177.979C128.527 178.171 129.1 178.275 129.708 178.292C130.316 178.31 130.837 178.223 131.236 178.066C131.531 177.945 131.757 177.806 131.879 177.632C132 177.458 132.035 177.267 131.948 177.041C131.879 176.867 131.757 176.745 131.584 176.676C131.41 176.606 131.219 176.572 130.993 176.589C130.767 176.589 130.472 176.624 130.073 176.658C129.482 176.711 128.996 176.745 128.596 176.728C128.197 176.711 127.815 176.606 127.45 176.398C127.085 176.189 126.808 175.842 126.617 175.337C126.425 174.868 126.391 174.399 126.512 173.947C126.617 173.495 126.877 173.078 127.259 172.696C127.641 172.313 128.145 172.018 128.753 171.774C129.308 171.549 129.882 171.427 130.489 171.375C131.097 171.323 131.653 171.34 132.157 171.444L132.035 173.339C131.549 173.252 131.045 173.217 130.524 173.252Z" fill="#383F48"/>
<path d="M143.063 174.173L141.865 173.165L138.739 174.886L138.93 176.45L136.985 177.51L136.134 168.576L138.079 167.516L145.078 173.078L143.063 174.173ZM138.53 173.13L140.528 172.035L138.131 170.002L138.53 173.13Z" fill="#383F48"/>
<path d="M147.04 161.503L148.638 160.304L153.553 166.926L152.042 168.055L146.103 166.335L149.038 170.297L147.422 171.497L142.508 164.875L144.018 163.745L149.993 165.483L147.04 161.503Z" fill="#383F48"/>
<path d="M163.609 157.053L162.15 156.48L159.753 159.104L160.448 160.512L158.954 162.146L155.255 153.977L156.749 152.343L165.172 155.35L163.609 157.053ZM158.972 157.54L160.517 155.854L157.565 154.689L158.972 157.54Z" fill="#383F48"/>
<path d="M160.083 148.346L161.334 146.59L166.544 150.31L168.576 147.459L170.069 148.519L166.787 153.125L160.083 148.346Z" fill="#383F48"/>
<path d="M164.442 142.036L167.586 136.335L169.079 137.17L166.978 140.976L168.332 141.723L170.225 138.282L171.719 139.116L169.826 142.558L171.181 143.305L173.352 139.394L174.845 140.229L171.632 146.016L164.442 142.036Z" fill="#383F48"/>
<path d="M171.945 130.843C171.597 131.243 171.372 131.608 171.25 131.921C171.146 132.164 171.111 132.373 171.146 132.564C171.181 132.738 171.285 132.859 171.459 132.946C171.632 133.016 171.789 133.016 171.945 132.929C172.101 132.842 172.257 132.738 172.396 132.581C172.535 132.425 172.744 132.199 172.987 131.886C173.352 131.417 173.682 131.034 173.977 130.756C174.272 130.478 174.619 130.27 175.036 130.148C175.453 130.026 175.922 130.078 176.426 130.27C176.929 130.478 177.311 130.791 177.572 131.208C177.815 131.625 177.937 132.095 177.937 132.651C177.919 133.19 177.815 133.746 177.572 134.319C177.311 134.945 176.947 135.536 176.478 136.075C176.009 136.614 175.488 137.031 174.915 137.344L173.664 135.936C174.168 135.692 174.619 135.345 175.054 134.91C175.488 134.476 175.783 134.041 175.939 133.642C176.061 133.346 176.096 133.085 176.061 132.877C176.026 132.668 175.887 132.512 175.679 132.425C175.505 132.355 175.331 132.355 175.158 132.442C174.984 132.529 174.828 132.651 174.689 132.807C174.55 132.981 174.359 133.207 174.116 133.52C173.751 133.989 173.438 134.354 173.143 134.632C172.848 134.91 172.518 135.119 172.119 135.241C171.719 135.362 171.268 135.327 170.764 135.119C170.295 134.928 169.93 134.632 169.67 134.232C169.409 133.833 169.288 133.363 169.288 132.825C169.288 132.286 169.409 131.712 169.652 131.104C169.878 130.548 170.173 130.044 170.555 129.557C170.938 129.088 171.337 128.688 171.754 128.393L173.039 129.783C172.657 130.078 172.292 130.443 171.945 130.843Z" fill="#383F48"/>
<path d="M8.50261 111.099C8.50261 112.09 8.72838 112.316 9.6141 112.455L10.2393 112.559V113.272C10.2393 113.272 8.46787 113.185 7.06113 113.185C5.46336 113.185 4.00452 113.272 4.00452 113.272V112.559L4.4908 112.455C5.28968 112.298 5.7586 111.742 5.7586 110.63V100.375H4.31712C2.99722 100.375 2.07676 100.827 1.57312 102.235L1 102.131L1.24314 99.0196H1.69469C1.83362 99.2803 2.12886 99.3325 2.51094 99.3325H12.0455C12.4102 99.3325 12.6707 99.2456 12.8097 99.0196H13.2612L13.0354 102.218L12.4623 102.113C12.4623 100.966 11.6461 100.358 10.0656 100.358H8.50261V111.099Z" fill="#383F48" stroke="#383F48" stroke-width="0.5" stroke-miterlimit="10"/>
<path d="M26.1302 99.3146C26.1302 99.3146 27.9016 99.4015 29.3083 99.4015C30.8887 99.4015 32.3476 99.3146 32.3476 99.3146V100.027L31.8613 100.132C31.0624 100.288 30.5935 100.844 30.5935 101.956V111.081C30.5935 112.072 30.8193 112.298 31.705 112.437L32.3302 112.541V113.254C32.3302 113.254 30.5588 113.167 29.152 113.167C27.5716 113.167 26.1128 113.254 26.1128 113.254V112.541L26.5817 112.454C27.3806 112.298 27.8495 111.742 27.8495 110.629V106.649H21.3889V111.116C21.3889 112.107 21.6147 112.333 22.5004 112.472L23.1256 112.576V113.289C23.1256 113.289 21.3542 113.202 19.9475 113.202C18.367 113.202 16.9082 113.289 16.9082 113.289V112.576L17.3771 112.454C18.176 112.298 18.6449 111.742 18.6449 110.629V101.505C18.6449 100.514 18.4191 100.288 17.5334 100.149L16.9082 100.045V99.332C16.9082 99.332 18.6797 99.4189 20.0864 99.4189C21.6668 99.4189 23.1256 99.332 23.1256 99.332V100.045L22.6394 100.149C21.8405 100.305 21.3716 100.862 21.3716 101.974V105.433H27.8321V101.487C27.8321 100.497 27.6064 100.271 26.7206 100.132L26.0954 100.027V99.3146H26.1302Z" fill="#383F48" stroke="#383F48" stroke-width="0.5" stroke-miterlimit="10"/>
<path d="M45.9635 99.3146V102.582H45.3036C45.1125 101.174 44.0184 100.132 41.9343 100.132C41.2397 100.132 40.8749 100.184 40.7013 100.253C40.7013 101.661 40.7013 105.676 40.7013 105.676H41.9691C42.9243 105.676 43.5148 105.259 43.6884 104.268L43.8274 103.347H44.5394C44.5394 103.347 44.4526 104.65 44.4526 105.902C44.4526 107.014 44.5394 108.248 44.5394 108.248H43.81L43.6884 107.744C43.5321 107.066 43.1153 106.736 42.2296 106.736H40.7013V111.151C40.7013 112.107 41.3265 112.437 42.3164 112.437C44.1747 112.437 45.3036 111.116 45.8593 109.465L46.5193 109.552L45.8593 113.254C45.8593 113.254 41.4828 113.167 39.364 113.167C37.7836 113.167 36.2032 113.254 36.2032 113.254V112.541L36.6895 112.437C37.4884 112.281 37.9573 111.724 37.9573 110.612V101.487C37.9573 100.497 37.7315 100.271 36.8458 100.132L36.2206 100.027V99.3146C36.2206 99.3146 38.1136 99.4015 39.5203 99.4015C41.7086 99.4015 45.9635 99.3146 45.9635 99.3146Z" fill="#383F48" stroke="#383F48" stroke-width="0.5" stroke-miterlimit="10"/>
<path d="M62.0629 111.099C62.0629 112.089 62.636 112.298 63.6433 112.454L64.2859 112.559V113.271C64.2859 113.271 62.0455 113.184 60.6214 113.184C59.041 113.184 57.5822 113.271 57.5822 113.271V112.559L58.0684 112.454C58.8673 112.298 59.3362 111.742 59.3362 110.629V101.505C59.3362 100.514 59.1105 100.288 58.2247 100.149L57.5995 100.045V99.3319C57.5995 99.3319 59.4925 99.4188 60.8993 99.4188C63.0702 99.4188 67.3251 99.3319 67.3251 99.3319V102.599H66.6652C66.4741 101.192 65.38 100.149 63.2959 100.149C62.6013 100.149 62.2366 100.201 62.0629 100.27C62.0629 101.678 62.0629 105.884 62.0629 105.884H63.3307C64.2859 105.884 64.8764 105.467 65.05 104.477L65.189 103.555H65.901C65.901 103.555 65.8142 104.842 65.8142 106.11C65.8142 107.223 65.901 108.457 65.901 108.457H65.1716L65.05 107.953C64.8937 107.275 64.4769 106.945 63.5912 106.945H62.0629V111.099V111.099Z" fill="#383F48" stroke="#383F48" stroke-width="0.5" stroke-miterlimit="10"/>
<path d="M85.9253 105.972C85.9253 109.882 83.1639 113.584 78.0406 113.584C74.2198 113.584 71.0764 110.995 71.0764 106.649C71.0764 102.739 73.8377 99.0367 78.961 99.0367C82.7818 99.0367 85.9253 101.626 85.9253 105.972ZM82.9728 106.597C82.9728 102.652 80.8193 100.045 78.0927 100.045C75.1055 100.045 74.0461 102.739 74.0461 106.041C74.0461 109.986 76.1997 112.594 78.9263 112.594C81.9135 112.594 82.9728 109.9 82.9728 106.597Z" fill="#383F48" stroke="#383F48" stroke-width="0.5" stroke-miterlimit="10"/>
<path d="M94.1226 111.099C94.1226 112.089 94.3484 112.315 95.2341 112.454L95.8593 112.559V113.271C95.8593 113.271 94.0879 113.184 92.6812 113.184C91.1007 113.184 89.6419 113.271 89.6419 113.271V112.559L90.1282 112.454C90.9271 112.298 91.396 111.742 91.396 110.629V101.505C91.396 100.514 91.1702 100.288 90.2845 100.149L89.6593 100.045V99.3319C89.6593 99.3319 91.4307 99.4188 92.8375 99.4188C93.8969 99.4188 94.9736 99.3319 95.7899 99.3319C99.1591 99.3319 100.687 101.244 100.687 102.912C100.687 105.589 98.256 106.51 97.3877 106.736C97.9955 107.032 98.4818 107.657 98.8986 108.335L100.392 110.768C101.087 111.881 102.146 112.802 103.518 112.802V113.375C103.518 113.375 102.876 113.601 101.625 113.601C99.5585 113.601 98.3081 112.559 97.5092 110.977L96.1372 108.266C95.7551 107.501 95.4078 107.118 94.7305 107.118C94.3658 107.118 94.1574 107.257 94.1574 107.257V111.099H94.1226ZM94.1226 106.406C94.1226 106.406 94.6089 106.093 95.3557 106.093C95.9462 106.093 96.3283 106.232 96.3283 106.232C96.9882 105.78 97.8045 104.598 97.8045 103.051C97.8045 101.14 96.3804 100.149 94.9389 100.149C94.5394 100.149 94.2963 100.201 94.1226 100.27V106.406V106.406Z" fill="#383F48" stroke="#383F48" stroke-width="0.5" stroke-miterlimit="10"/>
<path d="M118.923 107.258V107.97L118.662 108.022C117.881 108.196 117.464 108.822 117.464 109.795V112.819C115.258 112.819 114.303 113.584 111.785 113.584C107.669 113.584 104.56 111.116 104.56 106.649C104.56 102.687 107.461 99.0367 112.428 99.0367C114.494 99.0367 115.345 99.5755 117.343 99.5755V103.295H116.683C116.283 101.418 114.894 100.027 112.219 100.027C109.232 100.027 107.53 102.426 107.53 106.024C107.53 109.465 109.249 112.576 112.897 112.576C114.321 112.576 114.911 111.916 114.911 111.029V109.343C114.911 108.509 114.529 108.214 113.487 108.022L113.122 107.97V107.258H118.923Z" fill="#383F48" stroke="#383F48" stroke-width="0.5" stroke-miterlimit="10"/>
<path d="M137.332 105.972C137.332 109.882 134.571 113.584 129.447 113.584C125.627 113.584 122.483 110.995 122.483 106.649C122.483 102.739 125.245 99.0367 130.368 99.0367C134.189 99.0367 137.332 101.626 137.332 105.972ZM134.362 106.597C134.362 102.652 132.209 100.045 129.482 100.045C126.495 100.045 125.436 102.739 125.436 106.041C125.436 109.986 127.589 112.594 130.316 112.594C133.303 112.594 134.362 109.9 134.362 106.597Z" fill="#383F48" stroke="#383F48" stroke-width="0.5" stroke-miterlimit="10"/>
<path d="M147.909 111.099C147.909 112.09 148.134 112.315 149.02 112.455L149.628 112.559V113.271C149.628 113.271 147.857 113.185 146.45 113.185C144.869 113.185 143.411 113.271 143.411 113.271V112.559L143.897 112.455C144.696 112.298 145.165 111.742 145.165 110.63V100.375H143.723C142.403 100.375 141.483 100.827 140.979 102.235L140.406 102.13L140.649 99.0194H141.101C141.24 99.2801 141.535 99.3322 141.917 99.3322H151.452C151.816 99.3322 152.077 99.2453 152.216 99.0194H152.667L152.441 102.217L151.868 102.113C151.868 100.966 151.052 100.358 149.472 100.358H147.891V111.099H147.909Z" fill="#383F48" stroke="#383F48" stroke-width="0.5" stroke-miterlimit="10"/>
<path d="M163.591 111.099C163.591 112.09 163.817 112.315 164.703 112.455L165.328 112.559V113.271C165.328 113.271 163.556 113.185 162.15 113.185C160.569 113.185 159.11 113.271 159.11 113.271V112.559L159.597 112.455C160.396 112.298 160.864 111.742 160.864 110.63V100.375H159.423C158.103 100.375 157.183 100.827 156.679 102.235L156.106 102.13L156.349 99.0194H156.801C156.94 99.2801 157.235 99.3322 157.617 99.3322H167.151C167.516 99.3322 167.777 99.2453 167.916 99.0194H168.367L168.141 102.217L167.568 102.113C167.568 100.966 166.752 100.358 165.172 100.358H163.591V111.099V111.099Z" fill="#383F48" stroke="#383F48" stroke-width="0.5" stroke-miterlimit="10"/>
<path d="M181.74 99.3146V102.582H181.08C180.889 101.174 179.777 100.132 177.711 100.132C177.016 100.132 176.651 100.184 176.478 100.253C176.478 101.661 176.478 105.676 176.478 105.676H177.745C178.701 105.676 179.291 105.259 179.465 104.268L179.604 103.347H180.316C180.316 103.347 180.229 104.65 180.229 105.902C180.229 107.014 180.316 108.248 180.316 108.248H179.586L179.465 107.744C179.308 107.066 178.892 106.736 178.006 106.736H176.478V111.151C176.478 112.107 177.103 112.437 178.093 112.437C179.951 112.437 181.08 111.116 181.636 109.465L182.296 109.552L181.636 113.254C181.636 113.254 177.259 113.167 175.14 113.167C173.56 113.167 171.979 113.254 171.979 113.254V112.541L172.466 112.454C173.265 112.298 173.734 111.742 173.734 110.629V101.505C173.734 100.514 173.508 100.288 172.622 100.149L171.997 100.045V99.332C171.997 99.332 173.89 99.4189 175.297 99.4189C177.485 99.4015 181.74 99.3146 181.74 99.3146Z" fill="#383F48" stroke="#383F48" stroke-width="0.5" stroke-miterlimit="10"/>
<path d="M201 99.3146V100.027L200.583 100.132C199.767 100.323 199.333 100.74 199.333 102.096V113.323L198.325 113.445L188.791 103.156V110.577C188.791 111.985 189.399 112.228 190.58 112.437L191.153 112.541V113.254C191.153 113.254 189.538 113.167 188.391 113.167C186.95 113.167 185.665 113.254 185.665 113.254V112.541L186.099 112.437C187.089 112.211 187.436 111.724 187.436 110.629V101.487C187.436 100.583 187.176 100.271 186.29 100.132L185.7 100.027V99.3146C185.7 99.3146 187.645 99.4189 189.85 99.4189C189.972 100.132 190.284 100.653 191.031 101.452L198.048 108.996V101.748C198.048 100.531 197.457 100.323 196.398 100.132L195.72 100.027V99.3146C195.72 99.3146 197.457 99.4015 198.829 99.4015C200.184 99.4015 201 99.3146 201 99.3146Z" fill="#383F48" stroke="#383F48" stroke-width="0.5" stroke-miterlimit="10"/>
<path d="M56.679 138.143V137.431L57.1653 137.326C57.9642 137.17 58.4331 136.614 58.4331 135.501V126.359C58.4331 125.369 58.2073 125.143 57.3216 125.004L56.6964 124.899V124.187C56.6964 124.187 58.4678 124.274 59.8746 124.274C60.7082 124.274 61.5939 124.187 62.2365 124.187C65.0152 124.187 66.9083 125.438 66.9083 127.437C66.9083 129.505 65.1194 130.27 64.0079 130.583C66.0746 130.896 68.0024 132.373 68.0024 134.32C68.0024 136.405 66.3699 138.126 62.8965 138.126C62.0455 138.126 60.8992 138.039 59.7183 138.039C58.1552 138.056 56.679 138.143 56.679 138.143ZM61.1771 130.513C61.1771 130.513 61.5418 130.409 62.0281 130.409C62.4275 130.409 62.5838 130.409 63.0007 130.461C63.7127 129.905 64.1295 128.706 64.1295 127.541C64.1295 126.081 63.348 125.004 61.976 125.004C61.5939 125.004 61.3334 125.056 61.1597 125.125V130.513H61.1771ZM61.1771 136.162C61.1771 136.84 61.5765 137.309 62.5491 137.309C64.0253 137.309 65.1021 136.214 65.1021 134.476C65.1021 132.025 63.2264 131.226 61.6807 131.226C61.455 131.226 61.2813 131.243 61.1771 131.261V136.162Z" fill="#383F48" stroke="#383F48" stroke-width="0.5" stroke-miterlimit="10"/>
<path d="M78.5442 123.873L82.7992 135.64C83.1986 136.752 83.7891 137.135 84.4838 137.308L84.8832 137.413V138.125C84.8832 138.125 83.8065 138.038 82.035 138.038C80.0031 138.038 78.7353 138.125 78.7353 138.125V137.413L79.1347 137.308C79.7599 137.152 80.1073 136.787 80.1073 136.213C80.1073 135.988 80.0552 135.779 79.9683 135.536L79.1173 132.998H74.7235L73.8725 135.466C73.7683 135.762 73.6988 136.109 73.6988 136.335C73.6988 136.857 74.0114 137.152 74.8798 137.291L75.4702 137.395V138.108C75.4702 138.108 74.133 138.021 72.7957 138.021C71.6842 138.021 70.4685 138.108 70.4685 138.108V137.395L70.8332 137.291C71.6321 137.065 72.2747 136.457 72.6394 135.414L76.877 124.047L78.5442 123.873ZM75.1229 131.903H78.7526L76.9638 126.672L75.1229 131.903Z" fill="#383F48" stroke="#383F48" stroke-width="0.5" stroke-miterlimit="10"/>
<path d="M92.8027 135.971C92.8027 136.961 93.0285 137.187 93.9142 137.326L94.5221 137.431V138.143C94.5221 138.143 92.7506 138.056 91.3439 138.056C89.7635 138.056 88.3046 138.143 88.3046 138.143V137.431L88.7909 137.326C89.5898 137.17 90.0587 136.614 90.0587 135.501V126.359C90.0587 125.369 89.8329 125.143 88.9472 125.004L88.322 124.899V124.187C88.322 124.187 90.0934 124.274 91.5002 124.274C92.5596 124.274 93.6363 124.187 94.4526 124.187C97.8218 124.187 99.3501 126.099 99.3501 127.767C99.3501 130.444 96.9187 131.365 96.0504 131.591C96.6756 131.886 97.1445 132.512 97.5613 133.19L99.0549 135.623C99.7496 136.735 100.809 137.657 102.181 137.657V138.23C102.181 138.23 101.538 138.456 100.288 138.456C98.2213 138.456 96.9708 137.413 96.1719 135.832L94.7999 133.12C94.4179 132.356 94.0705 131.973 93.3932 131.973C93.0285 131.973 92.8201 132.112 92.8201 132.112V135.971H92.8027ZM92.8027 131.278C92.8027 131.278 93.2716 130.965 94.0358 130.965C94.6263 130.965 95.0083 131.104 95.0083 131.104C95.6683 130.652 96.4845 129.47 96.4845 127.923C96.4845 126.012 95.0604 125.021 93.619 125.021C93.2195 125.021 92.9764 125.073 92.8027 125.143V131.278V131.278Z" fill="#383F48" stroke="#383F48" stroke-width="0.5" stroke-miterlimit="10"/>
<path d="M109.093 135.971C109.093 136.961 109.319 137.187 110.205 137.326L110.812 137.431V138.143C110.812 138.143 109.041 138.056 107.634 138.056C106.054 138.056 104.595 138.143 104.595 138.143V137.431L105.081 137.326C105.88 137.17 106.349 136.614 106.349 135.501V126.359C106.349 125.369 106.123 125.143 105.238 125.004L104.612 124.899V124.187C104.612 124.187 106.384 124.274 107.791 124.274C108.85 124.274 109.927 124.187 110.743 124.187C114.112 124.187 115.64 126.099 115.64 127.767C115.64 130.444 113.209 131.365 112.341 131.591C112.966 131.886 113.435 132.512 113.852 133.19L115.345 135.623C116.04 136.735 117.099 137.657 118.471 137.657V138.23C118.471 138.23 117.829 138.456 116.578 138.456C114.512 138.456 113.261 137.413 112.462 135.832L111.09 133.12C110.708 132.356 110.361 131.973 109.684 131.973C109.319 131.973 109.11 132.112 109.11 132.112V135.971H109.093ZM109.093 131.278C109.093 131.278 109.579 130.965 110.326 130.965C110.917 130.965 111.299 131.104 111.299 131.104C111.959 130.652 112.775 129.47 112.775 127.923C112.775 126.012 111.351 125.021 109.909 125.021C109.51 125.021 109.267 125.073 109.093 125.143V131.278Z" fill="#383F48" stroke="#383F48" stroke-width="0.5" stroke-miterlimit="10"/>
<path d="M130.646 124.187V127.454H129.986C129.795 126.046 128.701 125.004 126.617 125.004C125.922 125.004 125.557 125.056 125.383 125.125C125.383 126.533 125.383 130.548 125.383 130.548H126.651C127.606 130.548 128.197 130.131 128.371 129.14L128.51 128.219H129.222C129.222 128.219 129.135 129.522 129.135 130.774C129.135 131.886 129.222 133.12 129.222 133.12H128.492L128.371 132.616C128.214 131.938 127.797 131.608 126.912 131.608H125.383V136.023C125.383 136.979 125.991 137.309 126.999 137.309C128.857 137.309 129.986 135.988 130.541 134.337L131.201 134.424L130.541 138.126C130.541 138.126 126.165 138.039 124.046 138.039C122.466 138.039 120.885 138.126 120.885 138.126V137.413L121.372 137.309C122.171 137.153 122.639 136.596 122.639 135.484V126.359C122.639 125.369 122.414 125.143 121.528 125.004L120.903 124.899V124.187C120.903 124.187 122.796 124.274 124.202 124.274C126.391 124.274 130.646 124.187 130.646 124.187Z" fill="#383F48" stroke="#383F48" stroke-width="0.5" stroke-miterlimit="10"/>
<path d="M134.883 138.143V137.431L135.37 137.326C136.168 137.17 136.637 136.614 136.637 135.501V126.359C136.637 125.369 136.412 125.143 135.526 125.004L134.901 124.899V124.187C134.901 124.187 136.672 124.274 138.079 124.274C139.659 124.274 141.205 124.187 141.205 124.187V124.899L140.684 125.004C139.885 125.16 139.364 125.716 139.364 126.828V135.953C139.364 137.1 140.198 137.309 141.135 137.309C143.028 137.309 144.192 135.779 144.835 133.972L145.46 134.059L145.008 138.143C145.008 138.143 140.076 138.056 137.923 138.056C136.342 138.056 134.883 138.143 134.883 138.143Z" fill="#383F48" stroke="#383F48" stroke-width="0.5" stroke-miterlimit="10"/>
<path d="M81.6182 151.058H81.0972C81.1319 150.884 81.1667 150.554 81.1667 150.432C81.1667 149.389 80.3678 148.572 78.8742 148.572C77.589 148.572 76.7901 149.441 76.7901 150.484C76.7901 153.161 80.663 153.491 80.663 157.263C80.663 159.157 79.2215 161.086 76.2865 161.086C74.9666 161.086 74.2372 160.548 72.9694 160.548L73.5077 157.593H73.9593V157.888C73.9593 159.661 74.8798 160.374 76.4602 160.374C78.1274 160.374 79.2215 159.4 79.2215 158.097C79.2215 155.247 75.3487 154.586 75.3487 151.214C75.3487 149.407 76.7728 147.877 79.1694 147.877C80.4893 147.877 81.2188 148.26 82.4692 148.26L81.6182 151.058Z" fill="#DD4A29" stroke="#DD4A29" stroke-width="0.75" stroke-miterlimit="10"/>
<path d="M83.0076 158.548C83.0076 155.872 85.1611 152.343 87.9398 152.343C89.225 152.343 90.0586 153.264 90.0586 154.881C90.0586 157.557 87.9051 161.068 85.109 161.068C83.8412 161.068 83.0076 160.147 83.0076 158.548ZM88.565 155.055C88.565 153.734 88.183 153.021 87.4188 153.021C85.7689 153.021 84.4664 156.306 84.4664 158.34C84.4664 159.66 84.8485 160.39 85.6126 160.39C87.2625 160.408 88.565 157.106 88.565 155.055Z" fill="#DD4A29" stroke="#DD4A29" stroke-width="0.75" stroke-miterlimit="10"/>
<path d="M97.3528 153.96C97.3528 153.508 97.0576 153.212 96.4324 153.212C94.331 153.212 93.0805 156.515 93.0805 158.687C93.0805 159.574 93.5147 160.043 94.2441 160.043C95.3903 160.043 96.3803 159.139 96.9708 158.305L97.2486 158.496C96.7623 159.487 95.6682 161.068 93.8794 161.068C92.3164 161.068 91.6043 160.321 91.6043 158.878C91.6043 155.924 94.1399 152.343 97.3528 152.343C97.978 152.343 98.6727 152.621 98.6727 153.334C98.6727 154.029 98.0996 154.498 97.4918 154.498C97.4049 154.498 97.3007 154.481 97.2313 154.464C97.3181 154.255 97.3528 154.099 97.3528 153.96Z" fill="#DD4A29" stroke="#DD4A29" stroke-width="0.75" stroke-miterlimit="10"/>
<path d="M101.834 157.923C101.504 158.792 101.347 159.33 101.347 159.626C101.347 159.8 101.417 159.887 101.59 159.887C102.042 159.887 103.327 158.67 103.709 158.131L103.987 158.305C103.414 159.365 101.851 161.068 100.6 161.068C100.166 161.068 99.9058 160.912 99.9058 160.373C99.9058 159.869 100.01 159.33 100.357 158.374L101.677 154.655C101.729 154.516 101.799 154.29 101.799 154.081C101.799 153.664 101.399 153.577 100.635 153.577V153.178C100.635 153.178 102.389 153.108 103.97 152.343L101.834 157.923ZM103.327 148.954C103.327 148.433 103.761 147.842 104.352 147.842C104.803 147.842 105.116 148.172 105.116 148.624C105.116 149.145 104.682 149.736 104.091 149.736C103.64 149.736 103.327 149.406 103.327 148.954Z" fill="#DD4A29" stroke="#DD4A29" stroke-width="0.75" stroke-miterlimit="10"/>
<path d="M107.513 156.897C107.339 157.505 107.235 158.044 107.235 158.67C107.235 159.348 107.547 160.026 108.485 160.026C109.631 160.026 110.76 158.913 111.194 158.287L111.472 158.479C111.212 158.931 109.961 161.051 107.964 161.051C106.523 161.051 105.759 160.234 105.759 158.861C105.759 156.271 107.86 152.326 111.229 152.326C112.254 152.326 112.619 152.986 112.619 153.577C112.619 155.003 110.899 156.011 107.513 156.897ZM110.604 153.073C109.093 153.073 108.034 155.35 107.652 156.428C108.885 156.063 111.212 155.281 111.212 153.734C111.212 153.299 110.986 153.073 110.604 153.073Z" fill="#DD4A29" stroke="#DD4A29" stroke-width="0.75" stroke-miterlimit="10"/>
<path d="M118.002 152.586H120.295L119.965 153.386H117.724L116.509 156.688C115.988 158.096 115.71 158.948 115.71 159.365C115.71 159.625 115.849 159.712 116.022 159.712C116.648 159.712 117.638 158.531 118.211 157.679L118.523 157.853C117.985 158.895 116.491 161.068 115.171 161.068C114.564 161.068 114.234 160.668 114.234 159.938C114.234 159.539 114.303 159.035 114.529 158.409L116.3 153.316L115.328 153.299L115.38 152.778L116.596 152.517L117.064 151.231C117.325 150.501 117.759 150.205 118.35 150.205C118.628 150.205 118.888 150.327 118.958 150.396C118.541 150.831 118.002 152.586 118.002 152.586Z" fill="#DD4A29" stroke="#DD4A29" stroke-width="0.75" stroke-miterlimit="10"/>
<path d="M118.767 165.187C118.037 165.187 117.586 164.805 117.586 164.232C117.586 163.675 117.985 163.345 118.402 163.241C118.506 163.606 118.784 163.814 119.357 163.814C121.215 163.814 122.969 162.528 123.369 161.694C123.456 161.503 123.473 160.894 123.473 160.13C123.473 157.836 123.091 154.551 123.039 153.96C123.021 153.699 122.987 153.543 122.813 153.543C122.136 153.543 121.563 155.211 121.545 155.263L121.25 155.228C121.354 154.516 122.101 152.343 123.664 152.343C124.307 152.343 124.393 152.882 124.428 153.473C124.515 155.072 124.619 157.766 124.619 160.738C126.182 159.261 127.797 156.358 127.797 154.603C127.797 154.047 127.554 153.525 126.999 153.421C127.103 152.76 127.572 152.378 128.127 152.378C128.857 152.378 129.291 152.917 129.291 153.629C129.308 156.88 122.917 165.187 118.767 165.187Z" fill="#DD4A29" stroke="#DD4A29" stroke-width="0.75" stroke-miterlimit="10"/>
<path fill-rule="evenodd" clip-rule="evenodd" d="M121.458 4.86925C121.32 5.23424 120.851 5.0952 120.66 5.0952C119.757 5.0952 118.784 4.76497 117.794 4.86925C117.481 4.90401 117.117 5.06044 116.769 5.16472C116.422 5.269 116.075 5.37329 115.745 5.46019C113.904 5.98161 113.001 6.74635 111.49 7.73704C111.281 7.87609 111.038 8.18894 110.691 8.17156C110.205 8.17156 109.597 7.598 109.51 7.07658C109.458 6.72897 109.614 6.31184 109.736 5.82518C109.788 5.65138 110.048 4.76497 109.875 4.6433C109.614 4.45212 109.11 4.99092 108.85 5.23424C108.398 5.65138 108.155 5.91209 107.964 6.12065C107.912 6.19017 107.877 6.27708 107.825 6.3466C107.704 6.46826 107.443 7.02444 107.304 7.30253C107.113 7.70228 106.922 8.25846 106.714 8.77988C106.592 9.09273 106.419 9.35344 106.28 9.66629C105.95 10.3789 105.863 10.796 105.394 11.5086C105.047 12.03 104.421 12.7426 103.709 12.5341C103.414 12.4472 103.154 11.9953 103.119 11.5086C103.084 11.1263 103.292 10.4658 103.414 9.89223C103.501 9.42296 103.588 9.07535 103.692 8.69297C103.813 8.27584 104.005 7.96299 104.282 7.598C104.334 7.52848 104.456 7.5111 104.508 7.45895C104.56 7.40681 104.526 7.30253 104.578 7.23301C104.647 7.12872 104.803 7.04182 104.873 6.93754C105.099 6.55517 105.307 5.91209 105.533 5.39067C105.793 4.78235 106.21 3.9307 105.898 3.70475C105.62 3.49619 105.22 4.13927 105.012 4.36522C104.63 4.79973 104.543 4.85187 104.126 5.39067C104.109 5.40805 103.987 5.44281 103.987 5.46019C103.796 5.89471 103.31 6.45088 103.032 6.85064C102.702 7.31991 102.216 7.99775 101.851 8.69297C101.66 9.05797 101.504 9.42296 101.33 9.71843C101.139 10.0834 100.913 10.431 100.809 10.6744C100.705 10.9524 100.67 11.3174 100.583 11.6303C100.496 11.9605 100.323 12.2734 100.288 12.5167C100.218 13.0729 100.34 13.6291 100.149 13.9071C99.9232 14.2374 98.3255 14.585 97.9434 14.2721C97.4397 13.855 98.0997 11.752 98.3081 11.0393C98.3602 10.8482 98.4123 10.6744 98.447 10.5179C98.6728 9.71843 99.1243 9.00582 99.4717 8.24108C99.6801 7.78919 99.8885 7.30253 100.062 6.85064C100.253 6.3466 100.34 6.22494 100.653 5.75566C100.792 5.54709 101.747 4.13927 101.469 3.8438C101.347 3.72214 101.174 3.73952 100.878 4.00022C100.774 4.08713 100.566 4.43474 100.514 4.52164C100.41 4.69545 100.357 4.88663 100.218 5.11258C100.184 5.16472 100.149 5.269 100.062 5.40805C100.045 5.44281 99.9232 5.46019 99.9232 5.47757C99.7843 5.79042 99.5585 6.22494 99.2633 6.65945C99.2112 6.74635 99.0896 6.79849 99.0375 6.8854C98.8986 7.09396 98.7423 7.44157 98.6033 7.70228C98.3949 8.04989 98.1518 8.34536 97.9607 8.69297C97.8218 8.97106 97.735 9.26653 97.596 9.64891C97.4571 10.0139 97.2661 10.6917 97.1619 11.2653C97.075 11.7346 97.0576 12.2212 96.9361 12.7426C96.7624 13.49 96.0677 15.0195 95.3904 15.5409C95.3383 15.5931 95.1646 15.6104 95.0257 15.68C94.6784 15.8538 94.1921 16.184 93.6363 16.184C93.0806 16.2014 92.3164 15.9407 92.0212 15.68C91.7607 15.454 91.3612 14.585 91.2918 13.994C91.1876 13.1772 91.5175 11.4739 90.7707 11.2827C90.4929 11.2132 90.2845 11.4739 90.0413 11.5781C89.7982 11.665 89.5029 11.8215 89.2251 11.8041C88.9646 11.7867 88.7909 11.5608 88.5651 11.3696C88.1483 10.9872 88.0094 10.7091 87.9052 9.89223C87.8704 9.57938 87.801 9.24915 87.8357 8.9363C87.8878 8.55393 88.1483 8.17156 88.3567 7.6849C88.4436 7.49372 88.4957 7.25039 88.5825 7.02444C88.8604 6.20755 89.3293 4.69545 89.2424 3.49619C89.2077 2.87049 88.9646 2.1405 88.2178 2.01884C87.3668 1.89718 86.7068 2.5055 86.2379 3.20072C86.1511 3.33976 86.0643 3.53095 85.9427 3.72214C85.8211 3.89594 85.7343 3.98284 85.578 4.15665C85.4564 4.27831 85.0049 4.92139 84.6228 4.74759C84.206 4.5564 84.6228 3.33976 84.8486 2.99215C84.9528 2.83573 85.1612 2.69668 85.3696 2.47073C85.5085 2.31431 85.6301 2.10574 85.8037 1.94932C85.9253 1.84503 86.1337 1.77551 86.3248 1.65385C86.62 1.44528 86.9152 1.20195 87.28 0.993388C88.1483 0.506732 89.0861 1.11505 89.694 1.72337C89.885 1.91456 90.1282 2.07098 90.215 2.31431C90.5276 3.18334 90.5971 4.27831 90.5102 5.25162C90.406 6.45088 89.6593 7.63276 89.8503 8.8494C90.2324 8.97106 90.2324 8.60607 90.3539 8.41489C90.4408 8.29322 90.5276 8.3106 90.5797 8.18894C90.6318 8.06727 90.5971 7.94561 90.6492 7.82395C90.8402 7.42419 91.0834 7.02444 91.3091 6.64207C91.778 5.84256 92.3164 4.45212 93.7232 4.73021C94.2442 4.83449 94.4352 5.269 94.3831 6.12065C94.3484 6.76373 94.0358 7.40681 93.7926 8.03251C93.5321 8.71035 93.3585 9.90961 93.4279 10.9003C93.4974 11.9605 93.81 12.8122 94.522 11.5608C94.8868 10.9177 95.1994 9.77057 95.5467 8.91892C96.033 7.75442 96.6929 6.64207 97.2313 5.75566C97.5092 5.30377 97.8739 4.79973 98.256 4.27831C99.0028 3.25286 99.3848 2.38383 100.236 1.41052C100.792 0.784821 101.295 0.14174 102.146 0.0200764C103.032 -0.101588 103.431 0.350307 103.831 0.819582C104.074 1.11505 104.265 1.56695 104.717 1.63647C105.272 1.72337 105.689 1.23672 106.175 1.11505C106.419 1.06291 107.113 0.993388 107.426 1.11505C107.721 1.21933 107.964 1.60171 108.086 1.84503C108.121 1.89718 108.242 2.1405 108.312 2.36645C108.364 2.52288 108.346 2.81835 108.468 2.88787C108.728 3.02691 109.11 2.6793 109.267 2.5924C109.892 2.26217 110.118 2.08836 110.882 2.36645C111.351 2.54026 111.507 2.66192 111.681 3.09643C111.768 3.32238 111.872 3.63523 111.82 4.12189C111.802 4.29569 111.333 5.59924 111.594 5.8078C111.976 6.10327 113.261 4.93877 113.435 4.85187C114.043 4.5564 114.963 4.39998 115.936 4.26093C117.377 4.05237 118.975 4.0176 120.26 4.33045C120.712 4.4695 121.163 4.59116 121.458 4.86925Z" fill="#DD4A29"/>
<path d="M27.6934 48.6508H32.1914V49.8327H29.1869V50.8929H31.9136V52.0748L29.1869 52.0921V53.1697H32.2783V54.3516H27.6934V48.6508Z" fill="#383F48"/>
<path d="M37.1237 49.9196C36.7764 49.7979 36.4985 49.7458 36.2554 49.7458C36.0643 49.7458 35.9254 49.7805 35.8212 49.85C35.717 49.9196 35.6649 50.0238 35.6649 50.1455C35.6649 50.2672 35.717 50.3715 35.8038 50.4584C35.8907 50.5453 36.0122 50.6148 36.1512 50.6669C36.2901 50.7191 36.4812 50.7886 36.759 50.8581C37.1585 50.9798 37.4885 51.0841 37.7316 51.2057C37.9921 51.3274 38.2179 51.5012 38.3915 51.7271C38.5826 51.9705 38.6694 52.2659 38.6694 52.6483C38.6694 53.0307 38.5652 53.3609 38.3742 53.6216C38.1658 53.8823 37.9053 54.0909 37.5406 54.2299C37.1758 54.369 36.7938 54.4385 36.377 54.4385C35.908 54.4385 35.4391 54.3516 34.9702 54.1952C34.5013 54.0214 34.1019 53.7954 33.7545 53.5173L34.3276 52.3528C34.6229 52.6135 34.9528 52.8221 35.3523 52.9785C35.7517 53.135 36.0991 53.2219 36.3943 53.2219C36.6201 53.2219 36.7938 53.1871 36.9153 53.1002C37.0369 53.0133 37.1064 52.909 37.1064 52.7352C37.1064 52.6135 37.0543 52.4919 36.9674 52.405C36.8806 52.3181 36.759 52.2486 36.6027 52.1964C36.4638 52.1443 36.2554 52.0747 35.9949 52.0052C35.5954 51.9009 35.2828 51.7793 35.0223 51.675C34.7618 51.5707 34.5534 51.3969 34.3624 51.171C34.1887 50.945 34.0845 50.6495 34.0845 50.2672C34.0845 49.9196 34.1713 49.6067 34.3624 49.346C34.5534 49.0853 34.8139 48.8767 35.1613 48.7377C35.5086 48.5986 35.908 48.5291 36.3596 48.5291C36.7764 48.5291 37.1758 48.5813 37.5753 48.7029C37.9747 48.8246 38.3221 48.981 38.6347 49.1722L38.0789 50.3541C37.8011 50.1803 37.4711 50.0412 37.1237 49.9196Z" fill="#383F48"/>
<path d="M39.9025 48.6508H44.8V49.8848H43.098V54.369H41.6044V49.8848H39.9198V48.6508H39.9025Z" fill="#383F48"/>
<path d="M51.1737 50.6669C51.4168 50.9102 51.5384 51.2231 51.5384 51.6055C51.5384 51.9878 51.4168 52.3007 51.1737 52.544C50.9306 52.7873 50.618 52.909 50.2532 52.909C49.8885 52.909 49.5759 52.7873 49.3328 52.544C49.0897 52.3007 48.9681 51.9878 48.9681 51.6055C48.9681 51.2231 49.0897 50.9102 49.3328 50.6669C49.5759 50.4236 49.8712 50.3019 50.2532 50.3019C50.6353 50.3019 50.9306 50.4236 51.1737 50.6669Z" fill="#383F48"/>
<path d="M156.471 53.1525V54.3518H152.129L152.111 53.3611L154.178 51.2233C154.334 51.0495 154.473 50.8931 154.578 50.7193C154.682 50.5455 154.734 50.4064 154.734 50.2847C154.734 50.1283 154.682 50.0067 154.56 49.9198C154.439 49.8328 154.282 49.7981 154.074 49.7981C153.848 49.7981 153.588 49.8676 153.31 49.9893C153.032 50.1109 152.754 50.3021 152.494 50.5281L151.92 49.4331C152.702 48.8595 153.501 48.5815 154.282 48.5815C154.664 48.5815 155.012 48.651 155.307 48.7726C155.602 48.8943 155.845 49.0681 156.019 49.2941C156.193 49.52 156.28 49.7807 156.28 50.0762C156.28 50.3716 156.193 50.6671 155.984 50.98C155.793 51.2928 155.515 51.623 155.168 51.9707L154.004 53.1352H156.471V53.1525Z" fill="#383F48"/>
<path d="M162.462 49.3461C162.896 49.8502 163.122 50.5628 163.122 51.5013C163.122 52.4399 162.896 53.1525 162.462 53.6565C162.028 54.1605 161.403 54.4039 160.587 54.4039C159.77 54.4039 159.145 54.1432 158.694 53.6565C158.259 53.1525 158.034 52.4399 158.034 51.5013C158.034 50.5628 158.259 49.8502 158.694 49.3461C159.128 48.8421 159.753 48.5988 160.587 48.5988C161.403 48.5988 162.028 48.8421 162.462 49.3461ZM159.822 50.1282C159.666 50.4063 159.579 50.8582 159.579 51.5013C159.579 52.1444 159.649 52.5963 159.822 52.8744C159.979 53.1525 160.239 53.2915 160.604 53.2915C160.951 53.2915 161.212 53.1525 161.368 52.8744C161.524 52.5963 161.611 52.127 161.611 51.5013C161.611 50.8582 161.524 50.4063 161.368 50.1282C161.212 49.8502 160.951 49.7111 160.604 49.7111C160.239 49.7111 159.979 49.8502 159.822 50.1282Z" fill="#383F48"/>
<path d="M164.286 48.651H166.873V54.3692H165.38V49.8851H164.286V48.651Z" fill="#383F48"/>
<path d="M168.784 48.651H173.334V49.6939L171.181 54.3692H169.6L171.667 49.8503H170.086L170.069 50.6498H168.767V48.651H168.784Z" fill="#383F48"/>
</svg>
