<svg width="164" height="164" viewBox="0 0 164 164" fill="none" xmlns="http://www.w3.org/2000/svg">
<path d="M139.983 139.983C172.006 107.96 172.006 56.0402 139.983 24.0172C107.96 -8.00574 56.0402 -8.00575 24.0172 24.0172C-8.00575 56.0402 -8.00575 107.96 24.0172 139.983C56.0402 172.006 107.96 172.006 139.983 139.983Z" fill="#DD4A29"/>
<path d="M15.7635 74.9992L22.8072 75.6173L22.6125 77.8692L15.5688 77.2512L15.3403 79.8925L13.5201 79.7317L14.1889 72.1716L16.0091 72.3325L15.7635 74.9992Z" fill="white"/>
<path d="M24.8136 65.3396L21.4696 64.4761L20.5553 68.0403L23.8993 68.9038L23.3405 71.0965L14.7307 68.8784L15.2979 66.6857L18.8367 67.6L19.751 64.0359L16.2122 63.1216L16.7795 60.9289L25.3893 63.147L24.8136 65.3396Z" fill="white"/>
<path d="M20.7669 55.6546L22.3754 56.3827L24.1194 52.5138L25.7364 53.2418L23.9924 57.1108L25.6263 57.8473L27.6158 53.4366L29.2328 54.1646L26.3121 60.6326L18.2102 56.9753L21.0717 50.6343L22.6887 51.3624L20.7669 55.6546Z" fill="white"/>
<path d="M28.2846 42.5579L29.927 43.7939L32.3228 40.6022L33.7451 41.6689L31.3493 44.8606L33.9652 46.8331L32.6022 48.6364L25.4993 43.2944L29.4614 38.0286L30.8836 39.0953L28.2846 42.5579Z" fill="white"/>
<path d="M41.3306 32.3818C43.1169 34.2528 42.9899 37.0974 40.9919 39.0022C39.0109 40.8901 36.1748 40.8986 34.3716 39.0191C32.5853 37.1482 32.7546 34.3375 34.7356 32.4496C36.7336 30.5363 39.5527 30.5109 41.3306 32.3818ZM36.0648 37.4191C37.0976 38.5027 38.7315 38.545 39.7136 37.6053C40.7041 36.6571 40.6956 35.074 39.6628 33.9904C38.6299 32.9067 37.0553 32.839 36.0648 33.7872C35.0743 34.7354 35.0319 36.3354 36.0648 37.4191Z" fill="white"/>
<path d="M48.1033 30.0537L48.0525 30.0876L46.6218 31.0358L48.0018 33.1184L46.1139 34.3629L41.2121 26.9467L44.5307 24.7541C46.4864 23.4588 48.2303 23.645 49.3224 25.3044C50.0674 26.4388 50.1352 27.5647 49.551 28.5807L52.7257 29.9945L50.5839 31.4083L48.1033 30.0537ZM47.0705 28.6061C47.8832 28.0642 48.0864 27.3362 47.57 26.5573C47.062 25.7869 46.3255 25.7107 45.5043 26.2441L44.0736 27.1922L45.6313 29.5542L47.0705 28.6061Z" fill="white"/>
<path d="M60.0233 21.6979L61.4117 24.8726C60.8106 25.8716 59.6339 26.9129 58.491 27.4124C56.0189 28.496 53.3606 27.5224 52.3193 25.152C51.2865 22.79 52.4294 20.174 54.9946 19.048C56.2052 18.5232 57.6867 18.4216 58.8466 18.8025L58.2963 20.7158C57.4666 20.428 56.493 20.4534 55.7396 20.7836C54.4019 21.3677 53.8347 22.8662 54.4358 24.2207C55.0454 25.6007 56.5354 26.1933 57.8814 25.6091C58.2963 25.4229 58.7704 25.0419 59.1513 24.5848L58.2285 22.4767L60.0233 21.6979Z" fill="white"/>
<path d="M71.9433 18.6248C72.536 21.1476 70.9867 23.535 68.303 24.1699C65.6362 24.8049 63.1811 23.3657 62.58 20.8344C61.9874 18.3115 63.5452 15.9749 66.2204 15.34C68.9041 14.705 71.3507 16.1104 71.9433 18.6248ZM64.8404 20.3095C65.1875 21.7656 66.576 22.6291 67.8966 22.3159C69.2342 22.0027 70.03 20.6227 69.6829 19.1666C69.3358 17.7104 68.0152 16.8554 66.6775 17.1771C65.3484 17.4903 64.4933 18.8533 64.8404 20.3095Z" fill="white"/>
<path d="M78.4028 15.4839L78.9023 22.5444L76.6503 22.7053L76.1508 15.6447L73.501 15.831L73.374 14.0023L80.951 13.469L81.078 15.2976L78.4028 15.4839Z" fill="white"/>
<path d="M88.1301 15.6786L87.6052 22.7307L85.3533 22.5614L85.8782 15.5093L83.2368 15.3146L83.3722 13.4944L90.9408 14.0616L90.8053 15.8818L88.1301 15.6786Z" fill="white"/>
<path d="M95.9611 16.8215L95.5632 18.5401L99.6946 19.4967L99.2967 21.2323L95.1653 20.2756L94.7589 22.0196L99.4745 23.1032L99.0766 24.8387L92.1599 23.2471L94.1579 14.5865L100.939 16.1527L100.541 17.8882L95.9611 16.8215Z" fill="white"/>
<path d="M107.068 27.9542L105.426 21.3169L103.301 26.3626L101.345 25.5414L104.799 17.3464L106.637 18.1253L108.287 24.771L110.421 19.7169L112.36 20.5381L108.905 28.7331L107.068 27.9542Z" fill="white"/>
<path d="M123.416 27.5478C125.016 28.7415 125.516 30.1976 124.694 31.2813C124.136 32.0347 123.213 32.2802 122.298 31.9331C123.06 32.7797 123.111 33.9057 122.417 34.8285C121.511 36.0391 119.886 36.0052 118.209 34.7523L114.721 32.1448L120.047 25.025L123.416 27.5478ZM117.566 32.094L119.031 33.1861C119.699 33.6856 120.343 33.7025 120.724 33.1946C121.079 32.7205 120.885 32.1109 120.216 31.6114L118.751 30.5193L117.566 32.094ZM119.725 29.2156L121.189 30.3162C121.714 30.7141 122.265 30.6802 122.612 30.223C122.959 29.7659 122.815 29.2495 122.29 28.8516L120.825 27.7595L119.725 29.2156Z" fill="white"/>
<path d="M125.168 38.6297L123.535 39.2816L121.943 37.5884L131.044 34.2867L132.635 35.9799L128.733 44.8013L127.082 43.0404L127.835 41.4573L125.168 38.6297ZM130.155 36.6233L126.87 37.9355L128.631 39.8065L130.155 36.6233Z" fill="white"/>
<path d="M134.024 48.2216L133.99 48.1708L133.05 46.7401L130.959 48.1115L129.715 46.2236L137.139 41.3388L139.323 44.6574C140.61 46.6215 140.424 48.357 138.765 49.4491C137.63 50.1941 136.496 50.2534 135.488 49.6693L134.066 52.844L132.652 50.7021L134.024 48.2216ZM135.471 47.1887C136.005 48.0015 136.733 48.2131 137.52 47.6967C138.291 47.1887 138.375 46.4522 137.833 45.6395L136.894 44.2087L134.532 45.7665L135.471 47.1887Z" fill="white"/>
<path d="M138.985 57.4663L138.959 57.4071L138.274 55.8324L135.979 56.8314L135.074 54.7572L143.218 51.1931L144.809 54.8334C145.749 56.9838 145.267 58.6685 143.446 59.4643C142.202 60.0061 141.076 59.8791 140.179 59.1341L138.24 62.021L137.215 59.6675L138.985 57.4663ZM140.585 56.6959C140.974 57.5933 141.66 57.915 142.524 57.5425C143.37 57.17 143.573 56.4589 143.184 55.5615L142.498 53.9868L139.899 55.1213L140.585 56.6959Z" fill="white"/>
<path d="M146.342 64.5862L144.632 65.0179L145.664 69.1324L143.937 69.5641L142.905 65.4497L141.169 65.8899L142.346 70.58L140.619 71.0118L138.883 64.129L147.502 61.9617L149.203 68.7091L147.476 69.1408L146.342 64.5862Z" fill="white"/>
<path d="M143.446 79.2153L141.567 79.4015L140.974 73.3992L149.821 72.5187L150.041 74.7707L143.074 75.4649L143.446 79.2153Z" fill="white"/>
<path d="M19.4886 97.5271C18.0748 97.8234 16.8472 97.036 16.5594 95.6138C16.2715 94.2169 17.0758 93.0063 18.4981 92.7184C19.8949 92.4306 21.0971 93.2179 21.3849 94.6148C21.6728 96.0286 20.8855 97.2392 19.4886 97.5271Z" fill="white"/>
<path d="M22.2146 116.203L25.4316 113.113L21.0971 114.163L20.3098 112.732L24.7798 107.949L25.5925 109.43L22.1723 112.706L26.7608 111.538L27.5058 112.893L24.0855 116.169L28.6741 115.009L29.4529 116.423L23.0104 117.625L22.2146 116.203Z" fill="white"/>
<path d="M25.3978 121.24L30.4688 117.634L31.3832 118.92L26.3121 122.527L25.3978 121.24Z" fill="white"/>
<path d="M31.6032 127.022L30.5873 127.869L27.8782 124.626L32.6615 120.639L33.6774 121.858L29.9101 124.999L31.6032 127.022Z" fill="white"/>
<path d="M38.4522 127.014C39.866 128.368 39.9591 130.222 38.6723 131.551C37.3939 132.881 35.523 132.847 34.0838 131.45L32.2043 129.638L36.5304 125.151L38.4522 127.014ZM34.2192 129.833L35.032 130.62C35.7346 131.289 36.7505 131.238 37.504 130.451C38.2659 129.655 38.2659 128.605 37.5463 127.911L36.7844 127.175L34.2192 129.833Z" fill="white"/>
<path d="M45.6313 140.517L47.8663 137.147L44.7255 139.171L43.8704 138.604L44.5223 134.929L42.2788 138.299L41.1021 137.52L44.5561 132.33L46.0038 133.287L45.3604 137.308L48.823 135.158L50.2622 136.115L46.8081 141.304L45.6313 140.517Z" fill="white"/>
<path d="M49.3224 142.633L52.2178 137.131L53.6147 137.867L50.7193 143.37L49.3224 142.633Z" fill="white"/>
<path d="M57.2127 146.282L56.019 141.643L54.5628 145.19L53.1913 144.623L55.5618 138.866L56.8571 139.399L58.0508 144.047L59.5154 140.492L60.8784 141.05L58.5079 146.807L57.2127 146.282Z" fill="white"/>
<path d="M65.6278 142.473C67.5157 142.98 68.4977 144.547 68.0152 146.333C67.5411 148.111 65.8902 148.983 63.9516 148.466L61.4287 147.789L63.0372 141.778L65.6278 142.473ZM63.2827 146.985L64.3748 147.281C65.3146 147.535 66.1781 146.993 66.4575 145.935C66.7453 144.868 66.2373 143.954 65.2638 143.692L64.2394 143.421L63.2827 146.985Z" fill="white"/>
<path d="M74.4407 149.305L73.882 150.405L72.2565 150.261L75.4905 144.301L77.116 144.445L79.1732 150.888L77.4885 150.735L77.1498 149.55L74.4407 149.305ZM76.1255 145.935L75.008 148.153L76.7943 148.314L76.1255 145.935Z" fill="white"/>
<path d="M84.2866 149.068H84.2443L83.0422 149.101L83.093 150.854L81.5098 150.905L81.3236 144.682L84.1089 144.598C85.7512 144.547 86.7164 145.3 86.7587 146.689C86.7841 147.637 86.4116 148.339 85.692 148.72L87.0635 150.735L85.2687 150.795L84.2866 149.068ZM84.202 147.823C84.8877 147.798 85.2772 147.442 85.2518 146.782C85.2348 146.13 84.82 145.817 84.1343 145.834L82.9321 145.867L82.9914 147.848L84.202 147.823Z" fill="white"/>
<path d="M91.7705 145.165L92.4647 150.075L90.8985 150.295L90.2043 145.385L88.3672 145.647L88.1894 144.377L93.4552 143.632L93.633 144.902L91.7705 145.165Z" fill="white"/>
<path d="M96.3336 149.372L94.9791 143.294L96.5283 142.947L97.8829 149.025L96.3336 149.372Z" fill="white"/>
<path d="M103.437 141.592L103.233 142.947C102.488 142.777 101.625 142.769 101.142 142.921C100.753 143.04 100.533 143.268 100.626 143.556C100.948 144.581 103.902 143.014 104.579 145.156C104.952 146.341 104.097 147.307 102.776 147.721C101.786 148.035 100.651 147.975 99.7623 147.62L99.9825 146.274C100.761 146.621 101.786 146.689 102.412 146.494C102.886 146.341 103.132 146.071 103.022 145.732C102.692 144.682 99.7454 146.291 99.0851 144.191C98.738 143.099 99.466 142.108 100.888 141.66C101.743 141.389 102.7 141.38 103.437 141.592Z" fill="white"/>
<path d="M108.364 144.403L108.414 145.63L106.933 146.299L106.84 139.526L108.321 138.866L113.257 143.472L111.716 144.157L110.844 143.294L108.364 144.403ZM108.177 140.644L108.287 143.116L109.93 142.379L108.177 140.644Z" fill="white"/>
<path d="M119.082 140.051L114.637 138.273L116.635 141.55L115.365 142.32L112.123 137.004L113.316 136.275L117.769 138.062L115.763 134.777L117.024 134.007L120.267 139.323L119.082 140.051Z" fill="white"/>
<path d="M125.592 133.829L126.007 134.989L124.788 136.064L122.696 129.621L123.916 128.546L129.994 131.492L128.724 132.61L127.632 132.043L125.592 133.829ZM124.305 130.299L125.143 132.627L126.489 131.441L124.305 130.299Z" fill="white"/>
<path d="M133.406 125.854L134.388 126.751L131.535 129.867L126.938 125.659L128.005 124.491L131.62 127.801L133.406 125.854Z" fill="white"/>
<path d="M132.83 120.69L133.821 121.426L135.59 119.039L136.589 119.784L134.82 122.171L135.827 122.916L137.85 120.199L138.849 120.944L135.886 124.94L130.883 121.223L133.795 117.312L134.794 118.057L132.83 120.69Z" fill="white"/>
<path d="M137.927 111.69L138.689 112.833C138.028 113.206 137.376 113.79 137.122 114.222C136.919 114.577 136.911 114.891 137.165 115.043C138.096 115.585 139.23 112.435 141.169 113.578C142.244 114.205 142.253 115.492 141.55 116.685C141.025 117.583 140.145 118.302 139.256 118.641L138.511 117.498C139.315 117.227 140.128 116.592 140.458 116.025C140.712 115.593 140.704 115.229 140.399 115.051C139.451 114.493 138.35 117.667 136.445 116.55C135.455 115.966 135.328 114.747 136.081 113.46C136.547 112.681 137.249 112.029 137.927 111.69Z" fill="white"/>
<path d="M145.461 92.9639C146.875 93.2602 147.679 94.4708 147.383 95.8931C147.087 97.29 145.859 98.0688 144.445 97.7725C143.048 97.4762 142.261 96.2741 142.557 94.8772C142.862 93.4549 144.064 92.6676 145.461 92.9639Z" fill="white"/>
<path d="M60.5313 117.735L59.7948 119.268C58.9821 118.793 57.9577 118.463 57.3312 118.463C56.8233 118.463 56.4846 118.649 56.4846 119.022C56.4846 120.351 60.5567 119.598 60.5567 122.383C60.5567 123.924 59.1937 124.736 57.4751 124.736C56.1883 124.736 54.8676 124.254 53.9533 123.5L54.7152 121.994C55.511 122.688 56.6963 123.153 57.5005 123.153C58.1185 123.153 58.4995 122.925 58.4995 122.485C58.4995 121.122 54.4274 121.934 54.4274 119.208C54.4274 117.786 55.6465 116.889 57.5005 116.889C58.6096 116.872 59.744 117.219 60.5313 117.735Z" fill="#383F48"/>
<path d="M70.7666 120.8C70.7666 123.043 68.9803 124.753 66.5929 124.753C64.214 124.753 62.4362 123.06 62.4362 120.8C62.4362 118.556 64.2225 116.889 66.5929 116.889C68.9888 116.897 70.7666 118.565 70.7666 120.8ZM64.4426 120.817C64.4426 122.121 65.4416 123.12 66.6183 123.12C67.8035 123.12 68.7517 122.121 68.7517 120.817C68.7517 119.522 67.8035 118.539 66.6183 118.539C65.4331 118.539 64.4426 119.513 64.4426 120.817Z" fill="#383F48"/>
<path d="M79.6981 118.192L78.5637 119.538C78.0557 118.92 77.3107 118.539 76.625 118.539C75.4059 118.539 74.4746 119.504 74.4746 120.774C74.4746 122.061 75.3974 123.043 76.625 123.043C77.2769 123.043 78.0219 122.688 78.5637 122.137L79.7066 123.348C78.8769 124.195 77.6578 124.753 76.5234 124.753C74.2037 124.753 72.4767 123.052 72.4767 120.791C72.4767 118.565 74.2461 116.897 76.5911 116.897C77.734 116.897 78.9277 117.405 79.6981 118.192Z" fill="#383F48"/>
<path d="M81.9162 124.669V116.965H83.8718V124.669H81.9162Z" fill="#383F48"/>
<path d="M88.6974 118.506V120.038H92.3716V121.579H88.6974V123.128H92.888V124.669H86.7333V116.965H92.761V118.506H88.6974Z" fill="#383F48"/>
<path d="M99.0427 118.539V124.669H97.0871V118.539H94.7844V116.956H101.362V118.539H99.0427Z" fill="#383F48"/>
<path d="M107.492 124.669H105.544V122.239L102.691 116.965H104.647L106.51 120.326L108.33 116.965H110.285L107.492 122.18V124.669V124.669Z" fill="#383F48"/>
<path d="M75.0503 41.4573C75.0503 42.6933 73.7719 43.5314 71.3507 44.9283L73.137 44.8521C73.9667 44.8183 74.3391 44.5474 74.7624 43.887L74.9572 43.9378L74.0767 45.6649H70.1655L70.1316 45.4024L72.6206 43.4891C73.4926 42.8203 73.9751 42.3801 73.9751 41.652C73.9751 41.2372 73.7127 40.8224 73.1539 40.8224C72.3158 40.8224 71.9179 41.415 71.9179 41.9991C71.9179 42.0584 71.9179 42.1346 71.9264 42.1769C71.7909 42.2192 71.6724 42.2446 71.5708 42.2446C71.2745 42.2446 71.0798 42.0668 71.0798 41.7705C71.0798 41.1102 72.0703 40.2043 73.5349 40.2043C74.4746 40.2043 75.0503 40.7462 75.0503 41.4573Z" fill="#383F48" stroke="#383F48" stroke-width="0.5" stroke-miterlimit="10"/>
<path d="M82.8728 42.3293C82.8728 44.0479 81.3236 45.8426 79.1224 45.8426C77.8695 45.8426 76.9721 45.0468 76.9721 43.7262C76.9721 42.0245 78.5468 40.2043 80.7479 40.2043C81.9839 40.2043 82.8728 41.0086 82.8728 42.3293ZM81.7299 42.4901C81.7299 41.3218 81.1035 40.6446 80.3331 40.6446C78.7415 40.6446 78.1404 42.3632 78.1404 43.5738C78.1404 44.7421 78.7415 45.4024 79.5288 45.4024C81.095 45.4024 81.7299 43.7516 81.7299 42.4901Z" fill="#383F48" stroke="#383F48" stroke-width="0.5" stroke-miterlimit="10"/>
<path d="M87.9439 40.78C87.3936 41.0086 87.1481 41.3557 86.9619 42.1769L86.42 44.632C86.3184 45.0468 86.5047 45.2669 86.8857 45.3008L87.3767 45.3431L87.3005 45.6648C87.3005 45.6648 86.6486 45.631 85.7597 45.631C84.8877 45.631 84.1596 45.6648 84.1596 45.6648L84.2358 45.3431L84.566 45.3008C85.074 45.2331 85.4888 44.9452 85.6581 44.2002L86.1745 41.8975C86.293 41.3472 86.1407 41.1525 85.8105 41.1017L85.2348 41.0255L85.311 40.7038C85.311 40.7038 86.1491 40.67 86.9195 40.5514C87.8084 40.4075 88.3587 40.2297 88.3587 40.2297L88.3503 40.5938L87.9439 40.78Z" fill="#383F48" stroke="#383F48" stroke-width="0.5" stroke-miterlimit="10"/>
<path d="M95.3092 40.3398L95.3685 40.5261L92.3208 44.0479C91.7028 44.759 91.0255 45.6649 91.0255 46.5453C91.0255 46.8416 91.0932 47.1718 91.271 47.4258C91.0424 47.5782 90.8054 47.6544 90.5599 47.6544C90.145 47.6544 89.8487 47.2649 89.8487 46.74C89.8487 45.9612 90.1874 45.4786 91.7197 43.8786L94.4288 41.0509L91.9483 41.1525C91.1017 41.1864 90.5429 41.7113 90.2636 42.2616L90.0519 42.2192L90.8985 40.3398H95.3092V40.3398Z" fill="#383F48" stroke="#383F48" stroke-width="0.5" stroke-miterlimit="10"/>
<path d="M123.848 95.5545C121.655 94.6317 117.371 97.0529 116.669 93.5057C116.449 92.4051 117.922 92.1004 117.82 91.5162C117.642 90.5088 112.995 92.0496 112.241 91.0675C112.131 90.9236 113.088 90.0855 113.079 89.6537C113.045 88.2145 111.234 88.5278 110.895 87.6642C110.768 87.3256 110.709 86.7499 110.683 86.1234C111.361 83.6175 111.75 80.7814 111.75 77.7845C111.75 70.3684 109.405 63.9766 106.027 60.9966C105.553 60.3955 105.028 59.9384 104.435 59.7267C103.792 59.5066 97.976 57.8304 100.076 60.8781C100.744 61.8432 102.607 62.7575 103.47 63.8242C103.479 63.8412 106.433 66.2709 104.757 66.5164C104.402 66.5672 102.014 64.1375 101.227 63.6295C100.524 63.1808 100.33 61.0644 99.5591 60.8104C99.0173 60.6326 98.8903 61.1998 98.34 61.1913C97.2987 61.1913 95.5801 57.4833 94.8182 58.4399C94.5388 58.787 95.5293 60.167 95.7156 60.3617C98.2723 63.1554 100.296 65.8222 100.973 71.1896C101.328 74.0003 99.9824 71.1388 99.6268 70.4869C98.467 68.3112 97.5019 65.2211 95.8426 63.6295C94.9283 62.7575 90.2551 58.6431 88.4772 60.8104C87.6137 61.8601 90.1196 63.5618 90.272 64.1459C90.509 65.0772 89.8487 65.0941 90.145 66.2624C90.5768 67.9725 92.3885 69.8604 92.6425 72.3494C92.744 73.3145 93.2435 76.0744 92.7694 76.1929C91.9483 76.3961 91.6773 73.2807 91.6858 73.3145C90.6445 69.0392 88.1471 66.4825 86.4962 63.257C85.5396 61.3861 83.9141 57.1277 81.4929 57.2293C79.9013 57.297 79.7912 57.5002 81.1711 58.3214C85.1332 60.6749 84.2697 66.9312 86.5555 71.0118C86.8602 71.5536 87.5968 71.943 87.7746 72.6118C88.1047 73.8817 89.7894 79.8671 88.9937 80.5529C87.0296 82.2461 86.6147 78.9698 86.4962 77.9284C85.9967 73.4415 84.8877 68.2688 83.0337 64.6031C82.204 62.9607 80.8241 62.0887 79.8928 60.6919C79.7489 60.4802 77.7255 56.3234 76.8789 57.9997C76.498 58.7532 79.097 60.5987 79.5711 61.2675C80.6886 62.8422 82.7373 66.9905 82.7712 68.7006C82.7881 69.2848 82.8474 73.7124 82.3818 73.7632C81.3997 73.8733 80.9341 69.5726 80.3923 68.1926C79.9351 66.999 78.6229 65.4158 77.7679 63.7057C77.3022 62.7745 74.6863 58.7955 73.7973 58.9648C72.2058 59.2696 74.1275 60.5818 74.4408 60.8273C76.4641 62.4189 77.7679 66.2116 77.0059 68.3874C76.244 70.5716 78.4536 73.0182 78.6737 75.177C78.7922 76.3115 78.0472 77.2258 78.0303 78.0639C78.0218 78.538 79.4272 83.1096 77.5139 81.7804C77.1583 81.5349 77.6917 78.8597 77.5816 78.1909C76.4133 71.1472 75.2281 62.4612 69.5051 60.4379C65.3568 58.9733 71.1644 64.7555 71.4269 65.8815C71.9094 67.9387 72.9423 69.3101 72.9677 71.2658C73.0016 74.8722 71.6893 69.234 71.4946 68.6413C71.2914 68.0318 70.3009 66.2455 69.8946 65.6952C68.9887 64.4761 63.7144 65.0179 64.578 62.0464C64.705 61.6231 66.686 61.4453 66.4997 60.5056C66.3135 59.5405 63.9515 60.3701 63.8753 60.3786C62.1821 60.5479 59.6254 59.8453 57.8476 60.7003C55.13 62.0041 49.17 64.4422 47.8493 76.8448C47.7901 77.4289 46.9096 77.7168 46.825 78.1232C46.4863 79.6724 47.2567 84.1424 47.9171 85.1075C48.7975 86.4028 50.0843 83.8715 51.4389 84.5318C52.5056 85.0483 51.8283 88.2399 52.4633 89.6622C53.3691 91.6855 55.4433 95.2328 57.7798 95.5545C61.5472 96.0794 58.1862 92.2612 57.7798 91.7702C55.6295 89.205 55.6041 87.4441 54.8337 83.1858C53.7839 77.3951 54.5459 66.3386 59.5746 64.3491C62.216 63.2994 64.0362 66.7788 64.8319 68.1249C69.3104 75.7527 70.1739 89.5521 63.7398 95.292C63.0456 95.91 62.961 96.9005 62.5208 97.3408C62.1144 97.7471 57.9153 96.8074 57.3312 96.6381C56.3406 96.3587 54.4443 95.2243 54.0633 94.4624C52.7511 91.8633 50.8717 91.2876 50.2791 88.2484C49.7796 85.6663 47.5361 85.9118 47.3329 88.5701C47.2313 89.8992 49.06 91.3723 48.4843 92.5406C48.061 93.4041 46.1308 92.5999 45.8598 93.692C45.7159 94.293 46.1985 94.9449 45.9868 95.292C45.2757 96.4688 40.1538 94.4031 39.5104 96.3164C38.9601 97.9588 43.0322 100.583 44.0651 100.93C45.9191 101.565 49.3563 101.337 50.8547 102.276C51.532 102.7 51.1849 103.826 52.2008 104.003C54.0718 104.342 55.4771 102.683 57.5851 102.852C58.4994 102.928 59.4222 104.3 60.345 104.452C63.452 104.985 66.8892 102.513 70.2755 103.301C70.9951 103.47 71.2152 104.249 72.0703 104.452C73.8143 104.875 76.5826 103.411 77.5139 104.198C77.9964 104.605 77.7679 105.62 78.3435 105.866C79.7912 106.484 82.3648 104.901 83.2114 104.647C89.9926 102.598 100.143 102.099 107.432 100.355C110.015 99.7366 116.364 101.862 117.363 100.482C117.693 100.024 117.244 99.2117 117.558 98.7546C118.641 97.1376 123.602 99.0339 124.415 97.4085C124.754 96.7566 124.305 95.7492 123.848 95.5545ZM81.0357 95.4952C80.2314 96.0116 81.696 95.0804 81.0357 95.4952V95.4952ZM89.2392 86.0134C89.3069 85.7171 89.4169 85.7679 89.7556 85.6917C92.8541 84.989 88.6127 88.6886 89.2392 86.0134ZM93.8531 67.109C93.2774 66.0084 89.9249 61.6739 90.4582 61.403C91.7027 60.7765 92.5493 62.7491 92.9557 63.3925C94.1155 65.2211 95.8595 68.1757 96.0966 70.3768C96.4352 73.5346 94.3018 67.9641 93.8531 67.109ZM96.8669 81.2047C96.5452 81.5265 97.4003 80.6714 96.8669 81.2047V81.2047ZM100.583 74.6691C102.793 73.8479 101.295 77.9369 100.262 76.6586C99.83 76.1167 100.33 74.7622 100.583 74.6691Z" fill="#383F48"/>
</svg>
