<svg width="217" height="201" viewBox="0 0 217 201" fill="none" xmlns="http://www.w3.org/2000/svg">
<path d="M115.731 93.7216L110.929 97.2174L112.778 102.883L107.966 99.3871L103.144 102.883L104.992 97.2174L100.201 93.7216H106.128L107.976 88.0762L109.814 93.7216H115.731Z" fill="black"/>
<path d="M94.3144 119.759H97.2878H99.5078H99.6083V121.667V123.807H99.4777H97.3381H94.3044V124.54V131.361V131.441H91.9237H89.4727V131.311V122.3V119.688V111.251V111.07H95.1181H100.311V115.118H100.151H97.0467H94.3044V119.759H94.3144Z" fill="black"/>
<path d="M110.879 122.29V131.381V131.431H108.559H106.027V131.351V122.29V119.678V111.16V111.06H108.458H110.889V111.14V119.678V122.29H110.879Z" fill="black"/>
<path d="M127.464 126.057C127.464 129.452 124.591 131.753 120.623 131.753C119.217 131.753 117.539 131.522 116.544 131.05C116.575 129.533 116.595 129.01 116.675 126.74H116.725C117.067 126.921 117.408 127.052 117.77 127.182C118.393 127.393 119.156 127.524 120.07 127.524C121.326 127.524 122.24 126.951 122.24 125.776C122.24 125.073 121.748 124.42 120.904 123.737C120.09 123.084 119.417 122.461 118.865 121.908C117.74 120.783 116.565 119.196 116.565 116.946C116.565 113.892 118.604 110.939 123.566 110.939C124.51 110.939 125.736 111.07 126.469 111.301C126.419 112.898 126.389 113.34 126.339 115.58H126.288C126.027 115.48 125.605 115.349 125.274 115.269C124.912 115.188 124.52 115.138 124.018 115.138C122.632 115.138 121.637 115.791 121.637 116.916C121.637 117.599 121.929 118.011 122.371 118.513C122.813 119.005 123.707 119.719 124.802 120.733C126.419 122.25 127.464 123.737 127.464 126.037V126.057Z" fill="black"/>
<path d="M73.4305 151.723H73.099C70.6279 146.971 70.3566 146.318 70.1256 145.675H70.1156C69.8845 146.328 69.5932 146.981 67.102 151.723H66.7705L64.8418 145.424C63.7971 142.039 63.6364 141.507 63.6063 141.366V141.336H64.9222H66.0874V141.366C66.1276 141.507 66.3386 142.029 67.0417 144.42C67.2326 145.083 67.3833 145.635 67.5138 146.158H67.554C67.7851 145.605 68.1065 144.932 68.428 144.319C69.1814 142.873 69.7439 141.919 70.0352 141.406H70.3767C70.6479 141.898 71.1703 142.792 72.0643 144.4C72.2954 144.832 72.6369 145.565 72.878 146.128H72.9182C73.0488 145.555 73.1392 145.183 73.3099 144.57C74.0131 141.999 74.2542 141.497 74.2944 141.366V141.336H75.3993H76.5746V141.366C76.5344 141.537 76.3737 142.049 75.3591 145.414L73.4305 151.723Z" fill="black"/>
<path d="M88.8699 146.379C88.8699 149.382 86.6098 151.682 83.5259 151.682C80.4922 151.682 78.1718 149.382 78.1718 146.449C78.1718 143.516 80.5123 141.215 83.6163 141.215C86.67 141.215 88.8699 143.445 88.8699 146.379V146.379V146.379ZM86.3988 146.419C86.3988 144.751 85.2135 143.425 83.5661 143.425C81.8584 143.425 80.6429 144.701 80.6429 146.439C80.6429 148.136 81.8282 149.452 83.5661 149.452C85.2938 149.452 86.3988 148.116 86.3988 146.419Z" fill="black"/>
<path d="M91.5018 145.645V141.396V141.366C91.7228 141.336 92.0844 141.316 92.4259 141.306C92.7172 141.296 93.34 141.276 93.6916 141.276C94.5254 141.276 95.1783 141.356 95.771 141.507C96.6449 141.738 97.8503 142.491 97.8503 144.37C97.8503 145.495 97.3179 146.298 96.9061 146.63C96.6751 146.841 96.3938 147.032 96.223 147.102V147.142C96.3134 147.273 96.4842 147.544 98.4129 150.397C98.6841 150.798 99.0959 151.391 99.1562 151.492V151.522H97.8102H96.8458H96.444C95.7107 150.346 94.8468 148.95 94.0131 147.604H93.782V148.247V151.502V151.532H92.6469H91.5018V151.502V146.961V145.645V145.645ZM95.5098 144.56C95.5098 143.767 95.0276 143.295 94.2441 143.295C94.0231 143.295 93.9026 143.305 93.782 143.325V145.927C93.8724 145.937 94.003 145.937 94.1236 145.937C94.4651 145.937 94.7665 145.836 94.9875 145.675C95.2185 145.515 95.5098 145.143 95.5098 144.581V144.56Z" fill="black"/>
<path d="M101.215 145.645V141.386V141.336H102.471H103.636V141.386V145.645V146.951V149.422C103.636 149.473 103.636 149.483 103.687 149.483H105.635H106.208H106.6H106.65V151.522H104.169H101.215V151.462V146.951V145.645V145.645Z" fill="black"/>
<path d="M117.569 146.238C117.569 148.187 116.735 149.714 115.259 150.678C114.355 151.281 113.159 151.562 111.803 151.562C111.15 151.562 110.527 151.552 110.106 151.532C109.834 151.522 109.443 151.492 109.161 151.471V151.461V146.951V145.645V141.497V141.396C109.422 141.366 109.744 141.336 110.347 141.306C110.969 141.276 111.472 141.266 111.954 141.266C113.511 141.266 114.646 141.577 115.49 142.099C117.067 143.084 117.569 144.741 117.569 146.228V146.238ZM115.058 146.288C115.058 145.364 114.746 144.53 114.093 144.008C113.631 143.656 113.019 143.445 112.235 143.445C111.984 143.445 111.743 143.476 111.572 143.486V149.312C111.572 149.342 111.582 149.342 111.602 149.342C111.793 149.372 112.004 149.382 112.205 149.382C112.788 149.382 113.37 149.211 113.852 148.87C114.556 148.357 115.068 147.524 115.068 146.308V146.288H115.058Z" fill="black"/>
<path d="M123.496 146.389C123.496 143.516 125.615 141.205 129.533 141.205C129.874 141.205 130.095 141.215 130.377 141.245C130.638 141.276 130.939 141.306 131.15 141.366C131.12 142.019 131.11 142.571 131.07 143.536H131.03C130.869 143.496 130.718 143.465 130.507 143.435C130.246 143.395 129.915 143.375 129.583 143.375C127.444 143.375 126.097 144.591 126.097 146.419C126.097 148.277 127.323 149.523 129.322 149.523C129.754 149.523 130.095 149.523 130.457 149.462C130.658 149.432 130.839 149.402 131.06 149.332H131.09C131.1 149.754 131.15 150.999 131.17 151.451C130.989 151.502 130.608 151.582 130.347 151.622C129.834 151.682 129.533 151.703 129.111 151.703C125.897 151.703 123.506 149.653 123.506 146.429V146.389H123.496Z" fill="black"/>
<path d="M133.822 145.645V141.366V141.336H135.048H136.283V141.366V145.645V146.77C136.283 147.674 136.354 148.247 136.575 148.649C136.876 149.181 137.519 149.473 138.202 149.473C138.885 149.473 139.448 149.181 139.759 148.689C140.02 148.267 140.08 147.654 140.08 146.77V145.645V141.366V141.336H141.296H142.471V141.366V145.645V146.77C142.471 148.026 142.381 148.83 142.049 149.563C141.557 150.668 140.171 151.723 138.252 151.723C136.253 151.723 134.807 150.879 134.194 149.493C133.883 148.8 133.812 148.006 133.812 146.801V145.645H133.822Z" fill="black"/>
<path d="M145.505 145.645V141.396V141.366C145.846 141.326 146.63 141.286 147.212 141.286C147.614 141.286 148.157 141.296 148.639 141.346C149.201 141.406 149.854 141.567 150.417 141.878C151.321 142.391 152.064 143.305 152.064 144.751C152.064 145.444 151.894 146.047 151.632 146.529C151.301 147.102 150.849 147.534 150.337 147.805C149.995 147.986 149.603 148.116 149.201 148.207C148.749 148.307 148.257 148.347 147.795 148.368V148.749V151.482V151.512H146.57H145.515V151.482V146.941V145.645H145.505ZM149.724 144.781C149.724 144.289 149.493 143.867 149.121 143.616C148.86 143.445 148.548 143.355 148.177 143.355C148.076 143.355 147.946 143.355 147.785 143.365V146.338C147.845 146.338 148.096 146.338 148.207 146.328C148.559 146.298 148.89 146.198 149.121 146.037C149.292 145.917 149.463 145.746 149.563 145.525C149.663 145.304 149.724 145.063 149.724 144.781V144.781Z" fill="black"/>
<path d="M85.9166 161.758H87.4033H88.5083H88.5585V162.712V163.787H88.4982H87.4234H85.9066V164.149V167.554V167.594H84.7212H83.4957V167.534V163.023V161.718V157.499V157.408H86.3184H88.9201V159.437H88.8398H87.2828H85.9066V161.758H85.9166Z" fill="black"/>
<path d="M94.1939 163.023V167.564V167.594H93.0286H91.7629V167.554V163.023V161.718V157.458V157.408H92.9784H94.1939V157.448V161.718V163.023V163.023Z" fill="black"/>
<path d="M106.218 167.725H105.907C103.777 165.937 102.501 164.822 101.627 164.028C100.944 163.415 100.462 162.973 99.6585 162.15H99.6283C99.6585 162.682 99.6585 163.024 99.6585 163.355V167.574V167.604H98.4731H97.4184V167.574V163.034V157.328H97.7298C99.9498 159.206 101.256 160.331 102.13 161.155C102.712 161.708 103.305 162.25 103.968 162.933H103.998C103.988 162.27 103.988 161.878 103.988 161.467V157.448V157.418H105.193H106.238V157.448V161.728V167.725H106.218Z" fill="black"/>
<path d="M111.391 166.138C111.08 166.891 110.839 167.474 110.809 167.564V167.604H109.603H108.327V167.564C108.368 167.474 108.629 166.901 110.357 163.024L112.918 157.237H113.26L115.791 163.024C117.489 166.901 117.74 167.474 117.78 167.564V167.604H116.524H115.058V167.564C115.028 167.474 114.797 166.901 114.495 166.138H111.391ZM113.782 164.199V164.169C113.26 162.853 113.069 162.25 112.968 161.909H112.958C112.868 162.25 112.657 162.853 112.125 164.169V164.199H113.782Z" fill="black"/>
<path d="M120 161.718V157.458V157.408H121.256H122.421V157.458V161.718V163.023V165.495C122.421 165.545 122.421 165.555 122.471 165.555H124.42H124.992H125.384H125.434V167.594H122.953H120V167.534V163.023V161.718V161.718Z" fill="black"/>
<path d="M133.019 164.902C133.019 166.6 131.582 167.745 129.593 167.745C128.89 167.745 128.056 167.624 127.554 167.393C127.564 166.64 127.584 166.379 127.624 165.233H127.654C127.825 165.324 127.996 165.394 128.177 165.454C128.488 165.555 128.87 165.625 129.322 165.625C129.945 165.625 130.407 165.334 130.407 164.751C130.407 164.4 130.156 164.068 129.744 163.737C129.342 163.405 129.001 163.094 128.729 162.823C128.167 162.26 127.584 161.466 127.584 160.341C127.584 158.815 128.599 157.338 131.08 157.338C131.552 157.338 132.165 157.398 132.526 157.519C132.496 158.312 132.486 158.533 132.466 159.658H132.436C132.305 159.608 132.094 159.538 131.924 159.498C131.743 159.457 131.542 159.437 131.301 159.437C130.608 159.437 130.116 159.769 130.116 160.321C130.116 160.663 130.256 160.874 130.477 161.115C130.698 161.366 131.14 161.718 131.693 162.22C132.506 162.973 133.029 163.727 133.029 164.872V164.902H133.019Z" fill="black"/>
<path d="M67.1823 118.172C68.7494 118.172 69.5932 119.086 69.5932 120.271C69.5932 121.396 69.0206 122.26 68.4078 123.003C68.1567 123.325 67.775 123.687 67.4736 123.948H68.88H69.8443H69.8945V125.354H67.3732H64.9824V124.37C65.2737 124.128 65.9066 123.556 66.3887 123.054C66.7303 122.702 66.9915 122.381 67.2727 122.009C67.564 121.607 67.775 121.115 67.775 120.683C67.775 120.02 67.2828 119.719 66.7002 119.719C66.2481 119.719 65.9267 119.799 65.6052 119.92C65.4746 119.96 65.324 120.03 65.2235 120.09H65.2034C65.2034 119.849 65.1833 119.036 65.1632 118.553C65.8061 118.282 66.5093 118.172 67.1823 118.172Z" fill="black"/>
<path d="M75.9518 118.212C77.5691 118.212 78.7444 119.749 78.7444 121.778C78.7444 123.777 77.6896 125.444 75.9317 125.444C74.0834 125.444 73.0287 123.747 73.0287 121.808C73.0287 119.759 74.1537 118.212 75.9518 118.212ZM75.9217 123.988C76.7856 123.988 77.0267 122.722 77.0267 121.768C77.0267 120.874 76.7554 119.638 75.9116 119.638C75.0277 119.638 74.7765 120.844 74.7765 121.808C74.7665 122.682 74.9875 123.988 75.9217 123.988Z" fill="black"/>
<path d="M143.285 122.19V125.284V125.354H142.481H141.617V125.304V122.19V120.05C141.617 119.94 141.637 119.93 141.577 119.95C141.396 120 140.723 120.251 140.372 120.362L140.07 119.528C140.733 119.257 142.16 118.533 142.632 118.302H143.295V120.673V122.19H143.285Z" fill="black"/>
<path d="M147.042 119.749H146.087H146.047V118.302H148.036H151.01C151 118.342 151.02 118.825 151.01 118.855C149.744 121.466 148.659 123.717 147.916 125.354H146.238C147.273 123.255 147.845 122.049 148.96 119.749H147.042Z" fill="black"/>
<path d="M216.113 84.1285C216.113 84.4801 214.073 84.5805 212.868 84.6107C212.677 85.6754 212.235 86.4389 211.753 86.4087C211.281 86.3786 210.939 85.5951 210.869 84.5604L167.393 82.029C167.363 82.5514 167.293 83.0135 167.132 83.3349C166.519 84.5504 163.687 86.5695 161.969 86.9813C160.251 87.3932 158.222 87.4836 156.906 85.1631C155.59 82.8326 154.274 78.9853 154.777 77.2676C155.279 75.5499 157.007 68.5584 157.007 68.5584C157.007 68.5584 155.701 65.7156 155.701 65.3038C155.701 64.902 157.017 63.9878 157.418 63.9878C157.82 63.9878 157.921 57.81 156.916 55.9919C155.902 54.1737 152.155 48.5986 151.15 46.9813C150.136 45.364 148.418 42.3203 147.604 42.019C146.791 41.7176 145.374 43.0335 145.374 43.0335C145.374 43.0335 142.541 47.9959 142.13 48.8999C141.728 49.8141 140.914 52.3455 140.1 55.1782C139.287 58.0109 136.555 65.9065 134.124 68.5383C131.693 71.1702 126.128 75.8211 115.399 71.4715C115.399 71.4715 111.954 73.6212 108.679 75.8512C109.031 76.5343 109.583 77.579 109.754 77.8C110.005 78.1315 109.925 78.7643 109.372 78.9753C108.83 79.1862 106.861 80.1908 106.278 80.3615C105.696 80.5323 105.394 79.8995 105.314 79.6885C105.264 79.578 104.993 79.0657 104.761 78.6338C101.205 81.1651 96.9061 82.9431 95.3591 83.5258C93.7419 84.1285 90.5977 84.2289 90.5977 84.2289C90.5977 84.2289 87.1522 84.8316 86.2481 86.2581C85.334 87.6744 83.5159 90.6076 81.8986 91.2204C80.2813 91.8231 79.1663 92.0341 79.1663 92.0341L76.8358 92.8477C76.8358 92.8477 77.4385 94.5654 77.0367 96.3937C76.6349 98.2119 75.319 98.7242 74.4049 99.4273C73.4907 100.141 71.9739 100.241 70.7584 98.2119C69.543 96.1928 67.9257 94.465 67.4134 92.245C66.9111 90.015 67.5138 88.9 67.5138 88.9L69.9448 87.3831C69.9448 87.3831 70.7584 84.7513 71.2607 84.7513C71.763 84.7513 73.5912 83.8372 74.0935 83.6363C74.5957 83.4354 78.654 80.6026 79.1562 79.9899C79.6585 79.3871 80.4722 78.0712 80.9744 78.0712C81.4767 78.0712 84.1085 76.7553 84.1085 76.7553L85.9267 74.7262C85.9267 74.7262 79.548 76.8558 74.0834 78.7744C68.6188 80.7031 60.211 85.4544 58.4932 86.5695C56.7755 87.6845 53.8323 87.6845 52.8278 87.6845C51.8132 87.6845 50.6982 88.1867 50.6982 88.1867C50.6982 88.1867 45.8363 90.3163 45.0327 90.3163C44.219 90.3163 42.6017 92.4459 40.884 92.7473C39.1663 93.0486 37.7499 92.7473 37.7499 92.7473C37.7499 92.7473 32.888 94.465 30.4571 96.2932C28.0261 98.1114 26.1075 99.7488 25.3943 99.8894C24.6811 100.03 23.8775 101.356 22.662 99.3269L20.0302 89.6132C20.6329 89.2114 22.8629 89.9145 25.6957 89.1109C28.5284 88.2972 36.0221 85.6654 36.0221 85.6654C36.0221 85.6654 39.3672 80.904 42.3004 79.8994C45.2336 78.8849 49.995 77.569 49.995 77.569C49.995 77.569 50.0955 75.7508 51.0096 75.7508C51.9237 75.7508 52.4259 75.7508 52.4259 75.7508C52.4259 75.7508 58.1818 70.9793 64.3195 68.5082C64.0382 68.0662 63.6063 67.3831 63.4455 67.1119C63.1944 66.69 62.8629 65.9366 63.6163 65.4846C64.3697 65.0225 65.5852 64.3997 66.0472 64.0983C66.5093 63.807 66.7605 63.9276 67.0518 64.3897C67.2728 64.7312 68.1266 66.1777 68.5585 66.901C75.3893 64.3796 84.8217 61.0747 84.8217 61.0747C84.8217 61.0747 87.3531 59.4575 88.4681 57.9406C89.5832 56.4238 95.0477 51.361 97.2778 50.0451C99.5078 48.7292 112.667 39.9195 112.667 39.9195C112.667 39.9195 114.485 37.4886 114.596 36.8859C114.696 36.2832 114.998 30.8085 114.998 30.8085C114.998 30.8085 114.495 30.0049 113.782 30.0049C113.069 30.0049 111.652 30.919 111.652 30.919C111.652 30.919 112.868 32.3354 112.868 33.6513C112.868 34.9673 112.255 38.6137 109.021 39.3168C105.786 40.03 102.341 40.4318 102.341 40.4318C102.341 40.4318 99.2065 41.346 97.5791 41.1451C96.1728 40.9743 90.9694 39.347 89.4827 37.3379L67.8855 40.1204L45.3441 42.913L22.8026 45.7056L11.552 47.0717L5.91665 47.7648C5.66552 47.795 5.42443 47.8251 5.1733 47.8552C5.16326 48.8598 4.8619 49.6332 4.38978 49.6935C3.90761 49.7538 3.41539 49.0707 3.16426 48.0863C2.19992 48.1666 1.22554 48.2068 0.251154 48.1466C0.100475 48.1365 -0.0100218 48.016 2.34115e-05 47.8753C0.0100686 47.7648 0.0803851 47.6744 0.180837 47.6443C1.105 47.3329 2.04925 47.132 2.99349 46.9713C2.94327 45.8462 3.26471 44.9421 3.77702 44.8819C4.28933 44.8216 4.82172 45.5951 5.05276 46.68C5.29385 46.6498 5.52489 46.6197 5.76597 46.5896L11.3913 45.8563L22.652 44.3897L45.1733 41.4565L67.6947 38.5233L89.111 35.8311C89.2718 33.5107 91.552 30.8387 93.2396 29.9949C95.0578 29.0808 99.6083 26.5494 101.336 25.5448C103.054 24.5303 109.031 19.1661 111.863 18.252C114.696 17.3379 119.046 16.8357 119.046 16.8357C119.046 16.8357 119.448 16.916 120.121 17.0466L119.859 10.5674C119.859 4.74123 124.591 0.0300293 130.437 0.0300293C136.283 0.0300293 141.015 4.75128 141.015 10.5674C141.015 16.6749 139.89 20.8437 139.89 20.8437C140.231 20.904 140.512 20.9642 140.713 20.9944C143.546 21.4966 146.891 22.923 148.709 24.5403C150.527 26.1576 155.791 32.235 157.207 35.2686C158.624 38.3023 162.371 44.7814 163.787 48.4278C165.203 52.0742 166.921 55.8211 163.787 68.468C163.787 68.468 164.802 69.1812 164.802 69.8844C164.802 70.5976 164.802 71.4012 164.802 71.4012C164.802 71.4012 166.218 71.3008 166.218 74.1335C166.218 76.9663 167.132 78.694 167.132 78.694C167.132 78.694 167.283 79.5278 167.353 80.5223L210.959 83.0637C211.16 82.0592 211.592 81.346 212.054 81.3761C212.526 81.4062 212.878 82.1998 212.938 83.2545C214.124 83.4153 216.113 83.7769 216.113 84.1285ZM130.849 20.7131C132.265 20.7131 132.978 22.682 134.264 22.682C135.56 22.682 139.026 20.0501 139.026 18.3324C139.026 16.6147 139.056 15.1481 137.378 15.1481C135.711 15.1481 132.898 15.7005 130.849 15.7005C128.8 15.7005 125.987 15.1481 124.319 15.1481C122.652 15.1481 122.672 16.6147 122.672 18.3324C122.672 20.0501 126.138 22.682 127.433 22.682C128.719 22.692 129.432 20.7131 130.849 20.7131ZM119.367 21.7679C119.116 22.7422 118.805 23.9677 118.594 24.7714C118.192 26.2882 116.826 28.3173 116.464 29.583C116.113 30.8487 116.062 33.6815 116.012 34.696C115.962 35.7106 115.661 37.3781 115.098 38.2922C114.545 39.2063 113.832 40.7232 113.682 41.8884C113.531 43.0536 114.184 44.018 115.098 45.4846C116.012 46.9512 120.814 51.6624 125.726 53.7819C130.638 55.9115 136.605 53.3299 138.232 52.3153C139.849 51.3008 142.079 45.6855 142.994 43.9175C143.526 42.8728 144.42 41.798 145.053 41.0848C145.495 40.5926 145.404 40.4821 144.782 40.472C144.49 40.472 144.159 40.4118 143.797 40.2711C142.682 39.8191 142.783 37.0868 143.797 33.129C144.581 30.0752 146.218 27.0516 146.911 25.8362C147.112 25.4846 147.102 25.1129 146.851 24.8618C146.56 24.5705 146.118 24.1687 145.575 23.8171C144.942 23.4052 144.088 23.0737 143.546 22.8829C143.214 22.7623 142.883 22.923 142.692 23.2947C141.929 24.7714 139.96 28.5685 139.558 29.583C139.056 30.8487 137.84 32.9783 135.259 34.8467C132.677 36.7151 132.225 35.3992 127.715 32.7673C124.239 30.7382 121.406 24.3796 120.281 21.577C119.94 20.7332 119.588 20.8839 119.367 21.7679ZM87.4033 79.3269C89.2517 78.2721 95.0678 74.8768 99.1161 72.2852C103.777 69.3018 114.907 59.9899 115.47 59.4273C116.022 58.8748 116.334 58.5634 116.022 57.9607C115.721 57.358 115.871 57.4585 114.957 56.5946C114.043 55.7307 112.928 56.7955 111.311 57.9607C109.694 59.126 100.884 66.0069 96.3838 68.9401C91.8835 71.8733 89.9046 73.0386 88.7896 73.6513C87.6746 74.254 86.3084 76.3836 86.0573 77.2475C85.8564 77.9205 86.1879 78.8447 86.6098 79.3168C86.7203 79.4474 87.1221 79.4876 87.4033 79.3269ZM98.1517 38.5534C100.301 38.7744 101.115 38.4027 103.616 37.8C106.118 37.1872 108.398 36.7352 109.844 36.2028C111.291 35.6704 111.823 34.7563 111.512 33.6212C111.21 32.4861 110.417 28.689 104.45 28.9904C100.934 29.1712 98.7544 30.1255 97.0869 31.803C95.4194 33.4705 94.9573 34.9873 95.4194 36.2028C95.8715 37.4183 97.0066 38.4429 98.1517 38.5534ZM55.7308 84.8819C56.1527 85.0928 57.4084 85.3841 58.4129 84.8819C59.4174 84.3796 67.8353 80.1104 70.5475 78.8547C73.2697 77.5991 84.8619 73.7116 86.8308 73.2897C88.7996 72.8678 88.5083 70.8989 88.5083 69.8944C88.5083 68.8899 88.1266 68.8899 86.67 69.2716C85.2034 69.6533 75.5801 72.3254 69.5932 74.5855C63.6063 76.8457 57.2075 80.4821 55.0678 81.7879C53.3501 82.8326 55.3089 84.6709 55.7308 84.8819Z" fill="black"/>
<path d="M76.0924 192.576C75.7408 192.938 75.4696 193.209 75.4194 193.25L75.4094 193.27L74.7263 192.988L73.993 192.687L74.003 192.667C74.0432 192.627 74.3345 192.355 76.223 190.557L79.0357 187.865L79.2265 187.946L79.3069 191.833C79.3672 194.435 79.3672 194.827 79.3672 194.887L79.3571 194.907L78.6439 194.616L77.8102 194.274L77.8202 194.254C77.8302 194.194 77.8302 193.812 77.8302 193.31L76.0924 192.576ZM77.9106 192.034L77.9207 192.014C77.9307 191.14 77.9608 190.758 77.991 190.537H77.9809C77.8503 190.708 77.5892 190.999 76.9764 191.622L76.9664 191.632L77.9106 192.034Z" fill="black"/>
<path d="M86.4792 195.439C86.1778 196.444 85.1231 196.866 83.9578 196.514C83.546 196.394 83.0739 196.173 82.8227 195.942C82.9634 195.5 83.0136 195.349 83.2446 194.686H83.2647C83.3451 194.766 83.4355 194.837 83.5359 194.907C83.7067 195.027 83.9177 195.128 84.1788 195.208C84.5505 195.319 84.8719 195.228 84.9724 194.887C85.0327 194.676 84.9423 194.445 84.7614 194.174C84.5806 193.912 84.44 193.661 84.3195 193.45C84.0884 193.018 83.8875 192.446 84.0784 191.783C84.3496 190.879 85.2135 190.196 86.67 190.638C86.9513 190.718 87.2928 190.869 87.4937 190.999C87.333 191.461 87.2928 191.592 87.0718 192.245H87.0518C86.9814 192.195 86.8709 192.114 86.7805 192.064C86.6801 192.004 86.5696 191.954 86.4189 191.913C86.0071 191.793 85.6655 191.893 85.5651 192.225C85.5048 192.426 85.555 192.576 85.6354 192.757C85.7157 192.938 85.9166 193.229 86.1577 193.631C86.4993 194.224 86.6801 194.746 86.4792 195.439Z" fill="black"/>
<path d="M90.7383 194.485L91.2506 191.924V191.904C91.4616 191.924 91.9337 191.994 92.2953 192.064C92.5364 192.114 92.8579 192.185 93.1492 192.275C93.4807 192.386 93.8523 192.556 94.1537 192.808C94.6359 193.219 94.9774 193.862 94.8066 194.736C94.7263 195.158 94.5455 195.5 94.3345 195.761C94.0733 196.072 93.7418 196.273 93.4003 196.374C93.1693 196.444 92.9181 196.474 92.667 196.484C92.3757 196.494 92.0844 196.454 91.7931 196.414L91.7428 196.645L91.4114 198.292V198.312L90.668 198.162L90.0251 198.031V198.011L90.5676 195.269L90.7383 194.485ZM93.3802 194.475C93.4405 194.174 93.3501 193.892 93.1592 193.702C93.0186 193.571 92.8478 193.471 92.6268 193.43C92.5665 193.42 92.4862 193.4 92.3857 193.39L92.0342 195.188C92.0743 195.198 92.225 195.228 92.2853 195.228C92.4962 195.259 92.7072 195.228 92.8679 195.168C92.9884 195.118 93.109 195.038 93.1994 194.917C93.2898 194.786 93.3501 194.656 93.3802 194.475Z" fill="black"/>
<path d="M98.3627 195.791L98.6339 193.169V193.149L100.382 193.33L101.959 193.491L101.838 194.726H101.818L100.854 194.626L100 194.535L99.8795 195.761L100.804 195.851L101.487 195.922H101.507L101.447 196.524L101.386 197.167H101.366L100.703 197.097L99.7589 196.996L99.6484 198.121L99.6283 198.282L100.894 198.413L101.507 198.473H101.527L101.396 199.719L99.8795 199.568L98.0312 199.377V199.357L98.3124 196.575L98.3627 195.791Z" fill="black"/>
<path d="M111.08 200.02H110.889C109.563 198.935 108.769 198.272 108.217 197.79C107.795 197.418 107.494 197.147 106.991 196.655H106.971C106.991 196.986 106.991 197.197 107.002 197.398L107.042 199.99V200.01L106.308 200.02L105.655 200.03V200.01L105.615 197.217L105.565 193.712H105.756C107.142 194.847 107.956 195.53 108.498 196.022C108.87 196.353 109.232 196.685 109.643 197.097H109.664C109.653 196.685 109.643 196.444 109.643 196.193L109.603 193.722V193.702L110.347 193.692L110.989 193.681V193.702L111.03 196.333L111.08 200.02Z" fill="black"/>
<path d="M120.141 195.469L119.648 192.878V192.858L120.392 192.717L121.145 192.576V192.597L121.637 195.188L121.768 195.871C121.868 196.414 121.979 196.755 122.16 196.976C122.401 197.268 122.823 197.368 123.245 197.288C123.656 197.207 123.958 196.976 124.098 196.635C124.209 196.353 124.179 195.972 124.078 195.439L123.948 194.756L123.456 192.165V192.145L124.189 192.004L124.902 191.873V191.893L125.394 194.485L125.525 195.168C125.666 195.922 125.706 196.424 125.595 196.906C125.424 197.629 124.711 198.423 123.546 198.644C122.341 198.875 121.366 198.523 120.834 197.76C120.563 197.378 120.432 196.906 120.291 196.173L120.141 195.469Z" fill="black"/>
<path d="M132.727 194.445C133.029 195.449 132.386 196.374 131.221 196.725C130.809 196.846 130.296 196.926 129.955 196.876C129.824 196.424 129.794 196.273 129.613 195.59H129.633C129.754 195.61 129.864 195.62 129.985 195.63C130.186 195.64 130.427 195.61 130.688 195.53C131.06 195.419 131.271 195.168 131.17 194.827C131.11 194.616 130.899 194.475 130.598 194.344C130.306 194.224 130.045 194.103 129.834 193.983C129.402 193.752 128.92 193.39 128.719 192.727C128.448 191.823 128.79 190.778 130.246 190.336C130.527 190.256 130.899 190.186 131.13 190.186C131.261 190.658 131.291 190.788 131.472 191.461H131.452C131.361 191.451 131.231 191.451 131.12 191.461C131.01 191.472 130.889 191.492 130.738 191.532C130.326 191.652 130.095 191.934 130.196 192.265C130.256 192.466 130.377 192.566 130.547 192.667C130.718 192.777 131.05 192.908 131.462 193.109C132.084 193.42 132.526 193.762 132.727 194.445Z" fill="black"/>
<path d="M137.921 193.37C137.921 193.872 137.921 194.254 137.921 194.314L137.931 194.334L137.248 194.616L136.514 194.917L136.504 194.897C136.504 194.837 136.514 194.445 136.585 191.833L136.685 187.936L136.876 187.855L139.679 190.557C141.557 192.366 141.828 192.637 141.878 192.677L141.889 192.697L141.175 192.988L140.342 193.33L140.332 193.31C140.291 193.26 140.03 192.988 139.679 192.637L137.921 193.37ZM138.825 191.713L138.815 191.703C138.212 191.07 137.951 190.778 137.82 190.608H137.81C137.84 190.819 137.86 191.21 137.86 192.094L137.87 192.104L138.825 191.713Z" fill="black"/>
<path d="M109.925 179.628C108.639 179.628 107.986 179.789 107.353 179.94C106.76 180.08 106.208 180.211 105.063 180.211C104.149 180.211 103.606 180.121 103.124 180.02V181.256C103.606 181.346 104.189 181.426 105.063 181.426C106.349 181.426 107.002 181.266 107.634 181.115C108.227 180.974 108.78 180.844 109.925 180.844C111.07 180.844 111.622 180.974 112.215 181.115C112.406 181.155 112.597 181.205 112.808 181.246V180.01C112.707 179.99 112.597 179.96 112.496 179.94C111.863 179.779 111.21 179.628 109.925 179.628Z" fill="black"/>
<path d="M109.925 182.039C108.639 182.039 107.986 182.2 107.353 182.35C106.76 182.491 106.208 182.622 105.063 182.622C104.149 182.622 103.606 182.531 103.124 182.431V183.666C103.606 183.757 104.189 183.837 105.063 183.837C106.349 183.837 107.002 183.676 107.634 183.526C108.227 183.385 108.78 183.255 109.925 183.255C111.07 183.255 111.622 183.385 112.215 183.526C112.406 183.566 112.597 183.616 112.808 183.656V182.421C112.707 182.401 112.597 182.371 112.496 182.35C111.863 182.2 111.21 182.039 109.925 182.039Z" fill="black"/>
<path d="M112.486 177.519C111.853 177.368 111.2 177.207 109.915 177.207C108.629 177.207 107.976 177.368 107.343 177.519C106.75 177.659 106.198 177.79 105.053 177.79C104.139 177.79 103.596 177.7 103.114 177.599V178.835C103.596 178.925 104.179 179.005 105.053 179.005C106.339 179.005 106.991 178.845 107.624 178.694C108.217 178.553 108.769 178.423 109.915 178.423C111.06 178.423 111.612 178.553 112.205 178.694C112.396 178.734 112.587 178.784 112.798 178.825V177.589C112.697 177.569 112.597 177.539 112.486 177.519Z" fill="black"/>
<path d="M117.057 180.351H132.868" stroke="black" stroke-miterlimit="10"/>
<path d="M82.21 180.351H98.0211" stroke="black" stroke-miterlimit="10"/>
</svg>
