<svg width="148" height="148" viewBox="0 0 148 148" fill="none" xmlns="http://www.w3.org/2000/svg">
<path d="M147.885 78.6563C147.962 77.6942 147.269 76.8092 146.307 76.6552L143.998 76.2319L146.307 75.9241C147.269 75.8086 148 75.0005 148 74C148 72.9995 147.269 72.2299 146.307 72.0759L143.998 71.7681L146.307 71.3448C147.269 71.1524 147.923 70.3058 147.885 69.3437C147.808 68.3817 147.038 67.6121 146.076 67.5351L143.729 67.3812L145.999 66.804C146.923 66.5731 147.538 65.6495 147.423 64.6875C147.307 63.7254 146.499 62.9943 145.499 62.9943H143.151L145.383 62.2631C146.307 61.9553 146.846 61.0317 146.692 60.0697C146.499 59.1461 145.73 58.4919 144.806 58.4919C144.768 58.4919 144.729 58.4919 144.691 58.4919L142.382 58.7228L144.537 57.8762C145.422 57.5299 145.922 56.5294 145.691 55.6058C145.46 54.7592 144.691 54.1435 143.844 54.1435C143.767 54.1435 143.69 54.1435 143.613 54.1435L141.304 54.4514L143.421 53.4509C144.306 53.0276 144.729 52.027 144.421 51.1035C144.152 50.2954 143.421 49.7566 142.574 49.7566C142.459 49.7566 142.343 49.7566 142.228 49.7951L139.919 50.2184L141.958 49.1024C142.805 48.6407 143.19 47.6017 142.805 46.7166C142.497 45.9854 141.804 45.4852 141.035 45.4852C140.881 45.4852 140.727 45.5237 140.573 45.5621L138.303 46.1778L140.265 44.9464C141.073 44.4462 141.381 43.3687 140.996 42.4836C140.689 41.791 139.996 41.3677 139.265 41.3677C139.072 41.3677 138.88 41.4061 138.687 41.4446L136.456 42.1758L138.341 40.7904C139.111 40.2132 139.38 39.1742 138.88 38.2891C138.534 37.7119 137.879 37.3656 137.187 37.3656C136.956 37.3656 136.725 37.4041 136.494 37.5195L134.301 38.3661L136.109 36.8653C136.84 36.2496 137.033 35.1721 136.494 34.364C136.148 33.7868 135.494 33.4789 134.878 33.4789C134.608 33.4789 134.339 33.5559 134.07 33.6713L131.953 34.6334L133.646 33.0172C134.339 32.363 134.455 31.2855 133.877 30.4774C133.492 29.9771 132.915 29.6693 132.3 29.6693C131.992 29.6693 131.684 29.7462 131.376 29.9002L129.336 31.0161L130.953 29.3229C131.607 28.6303 131.645 27.5143 131.03 26.7832C130.645 26.3214 130.106 26.0905 129.529 26.0905C129.183 26.0905 128.798 26.2059 128.49 26.3983L126.566 27.7067L128.067 25.8981C128.682 25.1669 128.644 24.051 127.99 23.3583C127.605 22.9735 127.105 22.7426 126.604 22.7426C126.219 22.7426 125.796 22.858 125.488 23.1274L123.603 24.5127L124.988 22.6271C125.565 21.8575 125.45 20.7415 124.757 20.0874C124.372 19.741 123.911 19.5486 123.449 19.5486C123.025 19.5486 122.564 19.7025 122.217 19.9719L120.409 21.4727L121.679 19.5101C122.217 18.702 122.025 17.6245 121.294 17.0088C120.832 16.701 120.409 16.5471 119.985 16.5471C119.524 16.5471 119.023 16.7395 118.677 17.0858L116.984 18.702L118.1 16.6625C118.562 15.8159 118.331 14.7384 117.561 14.1612C117.215 13.9303 116.83 13.7764 116.445 13.7764C115.945 13.7764 115.406 13.9688 115.06 14.3921L113.482 16.0853L114.483 13.9688C114.906 13.0837 114.598 12.0447 113.79 11.506C113.482 11.3136 113.097 11.1981 112.751 11.1981C112.212 11.1981 111.635 11.429 111.25 11.8908L109.672 13.7379L110.519 11.5445C110.865 10.6594 110.519 9.62039 109.672 9.15861C109.365 9.00468 109.057 8.92772 108.749 8.92772C108.133 8.92772 107.556 9.19709 107.171 9.73583L105.824 11.5829L106.555 9.35101C106.863 8.42746 106.44 7.42694 105.555 7.00364C105.285 6.8882 105.016 6.81123 104.747 6.81123C104.093 6.81123 103.477 7.11909 103.131 7.69631L101.899 9.65887L102.476 7.38846C102.707 6.4649 102.207 5.46438 101.322 5.11805C101.091 5.04108 100.86 4.96412 100.629 4.96412C99.9366 4.96412 99.2824 5.34893 98.936 5.96464L97.7431 8.1196L98.1664 5.81071C98.3588 4.84867 97.7816 3.92512 96.858 3.61726C96.6656 3.5403 96.4732 3.5403 96.2808 3.5403C95.5497 3.5403 94.857 3.9636 94.5491 4.65627L93.5486 6.77275L93.8565 4.46386C93.9719 3.50182 93.3562 2.61674 92.4327 2.34737C92.2787 2.30889 92.1248 2.27041 91.9709 2.27041C91.2012 2.27041 90.4701 2.73219 90.2007 3.50182L89.2772 5.65679L89.4311 3.30941C89.5081 2.34737 88.8154 1.4623 87.8534 1.30837C87.7379 1.26989 87.6225 1.26989 87.507 1.26989C86.6989 1.26989 85.9293 1.80863 85.6599 2.61674L84.9288 4.84867V2.5013C84.9288 1.53926 84.1976 0.731149 83.2356 0.577223C83.1586 0.577223 83.0816 0.577223 83.0047 0.577223C82.1196 0.577223 81.35 1.15445 81.1576 2.03952L80.5803 4.30993L80.4264 1.96256C80.3495 1.00052 79.5798 0.230889 78.6178 0.153926C78.5793 0.153926 78.5408 0.153926 78.5023 0.153926C77.5788 0.153926 76.7707 0.808112 76.6167 1.73167L76.1934 4.04056L75.8856 1.73167C75.8086 0.731149 75.0005 0 74 0C73.038 0 72.2299 0.731149 72.0759 1.69319L71.7681 4.00208L71.3448 1.69319C71.1909 0.769631 70.3827 0.115445 69.4592 0.115445C69.4207 0.115445 69.3822 0.115445 69.3437 0.115445C68.3817 0.192408 67.6121 0.962039 67.5351 1.92408L67.3812 4.27145L66.804 2.00104C66.5731 1.15445 65.8034 0.538742 64.9568 0.538742C64.8799 0.538742 64.8029 0.538742 64.726 0.538742C63.7639 0.654186 63.0328 1.4623 63.0328 2.46282V4.81019L62.3401 2.61674C62.0707 1.80863 61.3396 1.26989 60.493 1.26989C60.3775 1.26989 60.2621 1.26989 60.1466 1.30837C59.1846 1.50078 58.5304 2.34737 58.5689 3.30941L58.7228 5.65679L57.8762 3.46334C57.5684 2.73219 56.8757 2.23193 56.1061 2.23193C55.9522 2.23193 55.7982 2.27041 55.6443 2.30889C54.7208 2.53978 54.105 3.46334 54.2205 4.42538L54.5283 6.73427L53.4893 4.61779C53.1815 3.92512 52.4888 3.50182 51.7577 3.50182C51.5653 3.50182 51.3729 3.5403 51.1804 3.57878C50.2569 3.88664 49.7182 4.81019 49.8721 5.77223L50.2954 8.08112L49.1794 6.0416C48.8331 5.4259 48.1789 5.04108 47.4862 5.04108C47.2553 5.04108 47.0244 5.07956 46.7936 5.19501C45.9085 5.54134 45.4082 6.54186 45.6391 7.46542L46.1778 9.73583L44.9464 7.77327C44.6001 7.19605 43.9459 6.8882 43.3302 6.8882C43.0608 6.8882 42.7915 6.96516 42.5221 7.0806C41.637 7.5039 41.2137 8.50442 41.5216 9.42798L42.2527 11.6599L40.8674 9.77431C40.4826 9.27405 39.9054 8.9662 39.2897 8.9662C38.9818 8.9662 38.6739 9.04316 38.3661 9.19709C37.5195 9.62039 37.1347 10.6594 37.481 11.5445L38.3276 13.6994L36.8653 11.9293C36.4805 11.4675 35.9418 11.2366 35.403 11.2366C35.0567 11.2366 34.6719 11.3521 34.364 11.5445C33.5559 12.0447 33.2481 13.0837 33.6329 13.9688L34.6334 16.0853L33.0556 14.3921C32.6708 14.0073 32.1706 13.7764 31.6703 13.7764C31.2855 13.7764 30.8622 13.8918 30.5543 14.1612C29.7077 14.6999 29.4769 15.7774 29.9386 16.624L31.0546 18.6635L29.3999 17.0473C29.0151 16.701 28.5533 16.5471 28.053 16.5471C27.6297 16.5471 27.168 16.701 26.8216 16.9704C26.0905 17.5861 25.8981 18.6635 26.4368 19.4717L27.7067 21.4727L25.8981 19.9719C25.5517 19.7025 25.09 19.5486 24.6667 19.5486C24.2049 19.5486 23.7046 19.741 23.3583 20.0874C22.6271 20.7415 22.5502 21.819 23.1274 22.5887L24.5127 24.4743L22.5887 23.1274C22.2423 22.8965 21.8575 22.7426 21.4727 22.7426C20.9724 22.7426 20.4337 22.935 20.0874 23.3583C19.3947 24.051 19.3562 25.1284 19.9719 25.8981L21.4727 27.7067L19.5101 26.4368C19.1638 26.2444 18.8175 26.129 18.4711 26.129C17.9324 26.129 17.3552 26.3599 16.9704 26.8216C16.3547 27.5913 16.3931 28.6687 17.0473 29.3614L18.6635 31.0546L16.624 29.9386C16.3162 29.7847 16.0083 29.7077 15.7005 29.7077C15.0848 29.7077 14.5075 29.9771 14.1612 30.5159C13.584 31.2855 13.6994 32.4015 14.3921 33.0556L16.0853 34.6334L13.9688 33.6329C13.6994 33.5174 13.4301 33.4789 13.1607 33.4789C12.5065 33.4789 11.8908 33.7868 11.5445 34.364C11.0057 35.1721 11.1596 36.2496 11.9293 36.8653L13.7379 38.3661L11.5445 37.481C11.3136 37.4041 11.0827 37.3656 10.8518 37.3656C10.1591 37.3656 9.50494 37.7504 9.15861 38.3661C8.69683 39.2127 8.92772 40.2902 9.69735 40.8674L11.5829 42.2527L9.35101 41.5216C9.15861 41.4446 8.9662 41.4446 8.77379 41.4446C8.04264 41.4446 7.34997 41.8679 7.04212 42.5606C6.61883 43.4457 6.92668 44.4847 7.73479 45.0234L9.73583 46.1778L7.46542 45.6006C7.31149 45.5621 7.15757 45.5237 7.00364 45.5237C6.23401 45.5237 5.50286 45.9854 5.23349 46.7551C4.88716 47.6401 5.23349 48.6792 6.08008 49.1409L8.1196 50.2569L5.81071 49.8336C5.69527 49.7951 5.57982 49.7951 5.46438 49.7951C4.65627 49.7951 3.88664 50.3339 3.61726 51.142C3.30941 52.0655 3.73271 53.066 4.61779 53.4893L6.73427 54.4899L4.42538 54.182C4.34841 54.182 4.27145 54.182 4.19449 54.182C3.30941 54.182 2.53978 54.7592 2.34737 55.6443C2.11648 56.5679 2.61674 57.5684 3.50182 57.9147L5.65679 58.7613L3.30941 58.6074C3.27093 58.6074 3.23245 58.6074 3.19397 58.6074C2.27041 58.6074 1.4623 59.2616 1.30837 60.1851C1.11596 61.1472 1.69319 62.0707 2.61674 62.3786L4.84867 63.1097H2.5013C1.53926 63.1097 0.731149 63.8409 0.577223 64.8029C0.461779 65.765 1.07748 66.65 2.00104 66.9194L4.27145 67.4966L1.92408 67.6505C0.962039 67.7275 0.192408 68.4971 0.115445 69.4592C0.0384815 70.4212 0.731149 71.3063 1.69319 71.4602L4.00208 71.8835L1.69319 72.1914C0.731149 72.2299 0 73.038 0 74C0 74.962 0.731149 75.7702 1.69319 75.9241L4.00208 76.2319L1.69319 76.6552C0.731149 76.8476 0.0769631 77.6942 0.115445 78.6563C0.153926 79.6183 0.962039 80.3879 1.92408 80.4649L4.27145 80.6188L2.00104 81.1961C1.07748 81.4269 0.461779 82.3505 0.577223 83.3125C0.692668 84.2746 1.50078 85.0057 2.5013 85.0057H4.84867L2.61674 85.7369C1.69319 86.0447 1.15445 86.9683 1.30837 87.9303C1.50078 88.8539 2.27041 89.5081 3.19397 89.5081C3.23245 89.5081 3.27093 89.5081 3.30941 89.5081L5.65679 89.3541L3.46334 90.1623C2.57826 90.5086 2.078 91.5091 2.30889 92.4327C2.53978 93.2793 3.30941 93.895 4.15601 93.895C4.23297 93.895 4.30993 93.895 4.3869 93.895L6.69579 93.5871L4.61779 94.5491C3.73271 94.9724 3.30941 95.973 3.61726 96.8965C3.88664 97.7046 4.61778 98.2434 5.46438 98.2434C5.57982 98.2434 5.69527 98.2434 5.81071 98.2049L8.1196 97.7816L6.08008 98.8976C5.23349 99.3593 4.84867 100.398 5.23349 101.283C5.54134 102.015 6.23401 102.515 7.00364 102.515C7.15757 102.515 7.31149 102.476 7.46542 102.438L9.73583 101.861L7.77327 103.092C6.96516 103.592 6.65731 104.67 7.0806 105.555C7.38846 106.248 8.08112 106.671 8.81227 106.671C9.00468 106.671 9.19709 106.632 9.3895 106.594L11.6214 105.863L9.73583 107.248C8.92772 107.748 8.69683 108.826 9.15861 109.672C9.50494 110.288 10.1591 110.673 10.8518 110.673C11.0827 110.673 11.3136 110.634 11.5445 110.519L13.6994 109.672L11.9293 111.173C11.1981 111.789 11.0057 112.866 11.5445 113.674C11.8908 114.252 12.545 114.56 13.1607 114.56C13.4301 114.56 13.6994 114.483 13.9688 114.367L16.0853 113.367L14.3921 114.983C13.6994 115.637 13.584 116.715 14.1612 117.523C14.546 118.023 15.1232 118.331 15.7005 118.331C16.0083 118.331 16.3162 118.254 16.624 118.1L18.6635 116.984L17.0473 118.677C16.3931 119.37 16.3547 120.486 16.9704 121.217C17.3552 121.679 17.8939 121.91 18.4711 121.91C18.8175 121.91 19.2023 121.794 19.5101 121.602L21.4727 120.332L19.9719 122.14C19.3562 122.872 19.3947 123.988 20.0489 124.68C20.4337 125.065 20.934 125.296 21.4342 125.296C21.819 125.296 22.2423 125.18 22.5502 124.911L24.4358 123.526L23.1274 125.45C22.5502 126.219 22.6656 127.335 23.3583 127.99C23.7431 128.336 24.2049 128.528 24.6667 128.528C25.09 128.528 25.5517 128.374 25.8981 128.105L27.7067 126.604L26.4368 128.528C25.8981 129.336 26.0905 130.414 26.8216 131.03C27.168 131.337 27.6297 131.453 28.053 131.453C28.5148 131.453 29.0151 131.261 29.3614 130.914L31.0546 129.298L29.9386 131.338C29.4769 132.184 29.7077 133.262 30.4774 133.839C30.8237 134.07 31.2085 134.224 31.5933 134.224C32.0936 134.224 32.6323 134.031 32.9787 133.608L34.6334 131.953L33.6329 134.07C33.2096 134.955 33.5174 135.994 34.3255 136.533C34.6334 136.725 35.0182 136.84 35.3645 136.84C35.9033 136.84 36.4805 136.609 36.8653 136.148L38.3661 134.339L37.5195 136.494C37.1732 137.379 37.5195 138.418 38.3661 138.88C38.6739 139.034 38.9818 139.111 39.2897 139.111C39.9054 139.111 40.4826 138.841 40.8289 138.303L42.2143 136.417L41.4831 138.649C41.1752 139.573 41.5985 140.573 42.4836 140.996C42.753 141.112 43.0224 141.189 43.2917 141.189C43.9459 141.189 44.5616 140.881 44.908 140.304L46.1778 138.303L45.6006 140.573C45.3697 141.497 45.87 142.497 46.7551 142.843C46.986 142.92 47.2169 142.997 47.4477 142.997C48.1404 142.997 48.7946 142.613 49.1409 141.997L50.2569 139.957L49.8336 142.266C49.6412 143.228 50.2184 144.152 51.142 144.46C51.3344 144.537 51.5268 144.537 51.7192 144.537C52.4503 144.537 53.143 144.113 53.4509 143.421L54.4514 141.304L54.1435 143.613C54.0281 144.575 54.6438 145.46 55.5673 145.73C55.7213 145.768 55.8752 145.807 56.0291 145.807C56.7988 145.807 57.5299 145.345 57.7993 144.575L58.7228 142.382L58.5689 144.729C58.4919 145.691 59.1846 146.576 60.1466 146.73C60.2621 146.769 60.3775 146.769 60.493 146.769C61.3011 146.769 62.0707 146.23 62.3401 145.422L63.0712 143.19V145.537C63.0712 146.499 63.8024 147.307 64.7644 147.461C64.8414 147.461 64.9184 147.461 64.9953 147.461C65.8804 147.461 66.65 146.884 66.8424 145.999L67.4197 143.729L67.5736 146.076C67.6505 147.038 68.4202 147.808 69.3822 147.885C69.4207 147.885 69.4592 147.885 69.4977 147.885C70.4212 147.885 71.2293 147.23 71.3833 146.307L71.8066 143.998L72.1144 146.307C72.2299 147.269 73.038 148 74.0385 148C75.0005 148 75.8086 147.269 75.9626 146.307L76.2704 143.998L76.6937 146.307C76.8861 147.23 77.6557 147.885 78.5793 147.885C78.6178 147.885 78.6563 147.885 78.6948 147.885C79.6568 147.808 80.4264 147.038 80.5034 146.076L80.6573 143.729L81.2345 145.999C81.4654 146.846 82.2351 147.461 83.0816 147.461C83.1586 147.461 83.2356 147.461 83.3125 147.461C84.2746 147.346 85.0057 146.538 85.0057 145.537V143.19L85.7369 145.422C86.0062 146.23 86.7374 146.769 87.584 146.769C87.6994 146.769 87.8149 146.769 87.9303 146.73C88.8924 146.538 89.5465 145.691 89.5081 144.729L89.2772 142.382L90.1238 144.537C90.4316 145.268 91.1243 145.768 91.8939 145.768C92.0478 145.768 92.2018 145.73 92.3557 145.691C93.2793 145.46 93.895 144.537 93.7795 143.575L93.4717 141.266L94.4722 143.382C94.78 144.075 95.4727 144.498 96.2039 144.498C96.3963 144.498 96.5887 144.46 96.7811 144.421C97.7046 144.113 98.2434 143.19 98.0894 142.228L97.6661 139.919L98.7821 141.958C99.1284 142.574 99.7826 142.959 100.475 142.959C100.706 142.959 100.937 142.92 101.168 142.805C102.053 142.459 102.553 141.458 102.322 140.535L101.745 138.264L102.977 140.227C103.323 140.804 103.977 141.112 104.593 141.112C104.862 141.112 105.132 141.035 105.401 140.919C106.286 140.496 106.709 139.496 106.401 138.572L105.67 136.34L107.056 138.226C107.44 138.726 108.018 139.034 108.633 139.034C108.941 139.034 109.249 138.957 109.557 138.803C110.404 138.341 110.788 137.302 110.404 136.417L109.672 134.301L111.173 136.109C111.558 136.571 112.097 136.802 112.674 136.802C113.02 136.802 113.405 136.686 113.713 136.494C114.521 135.955 114.829 134.916 114.406 134.031L113.405 131.915L114.983 133.608C115.368 133.993 115.868 134.224 116.368 134.224C116.753 134.224 117.176 134.108 117.484 133.839C118.254 133.262 118.523 132.223 118.023 131.338L116.907 129.298L118.6 130.914C118.985 131.261 119.447 131.453 119.908 131.453C120.332 131.453 120.794 131.299 121.14 131.03C121.871 130.414 122.063 129.336 121.525 128.528L120.255 126.566L122.063 128.067C122.41 128.374 122.872 128.49 123.295 128.49C123.757 128.49 124.257 128.297 124.603 127.951C125.296 127.297 125.411 126.219 124.834 125.411L123.449 123.526L125.334 124.911C125.681 125.142 126.066 125.296 126.45 125.296C126.951 125.296 127.489 125.103 127.836 124.68C128.49 123.988 128.528 122.872 127.913 122.14L126.412 120.332L128.374 121.602C128.682 121.794 129.067 121.91 129.413 121.91C129.991 121.91 130.529 121.679 130.914 121.217C131.53 120.486 131.491 119.37 130.837 118.677L129.221 116.984L131.261 118.1C131.568 118.254 131.876 118.331 132.184 118.331C132.8 118.331 133.377 118.061 133.762 117.523C134.339 116.753 134.224 115.637 133.531 114.983L131.838 113.367L133.954 114.367C134.224 114.483 134.493 114.56 134.762 114.56C135.417 114.56 136.032 114.252 136.379 113.674C136.917 112.866 136.725 111.789 135.994 111.173L134.301 109.672L136.456 110.519C136.686 110.596 136.917 110.673 137.148 110.673C137.841 110.673 138.495 110.288 138.841 109.672C139.303 108.826 139.072 107.748 138.303 107.171L136.417 105.786L138.649 106.517C138.841 106.594 139.034 106.594 139.226 106.594C139.957 106.594 140.65 106.171 140.958 105.478C141.381 104.593 141.073 103.554 140.227 103.015L138.264 101.784L140.535 102.361C140.689 102.399 140.842 102.438 140.996 102.438C141.766 102.438 142.497 101.976 142.767 101.206C143.113 100.321 142.767 99.2824 141.92 98.8206L139.88 97.7046L142.189 98.1279C142.305 98.1664 142.42 98.1664 142.536 98.1664C143.344 98.1664 144.113 97.6277 144.383 96.8196C144.691 95.896 144.229 94.8955 143.382 94.4722L141.266 93.4717L143.575 93.7795C143.652 93.7795 143.729 93.7795 143.806 93.7795C144.691 93.7795 145.46 93.2023 145.653 92.3172C145.884 91.3937 145.383 90.3931 144.498 90.0468L142.382 89.2772L144.729 89.4311C144.768 89.4311 144.806 89.4311 144.845 89.4311C145.768 89.4311 146.576 88.7769 146.73 87.8534C146.923 86.8913 146.345 85.9678 145.422 85.6599L143.19 84.9288H145.537C146.499 84.9288 147.307 84.1976 147.461 83.2356C147.577 82.2735 146.961 81.3885 146.037 81.1191L143.767 80.5419L146.114 80.3879C147.038 80.3879 147.808 79.6183 147.885 78.6563Z" fill="#383F48"/>
<path opacity="0.4" d="M45.1774 112.289V106.517L49.064 105.747C51.4884 105.285 54.7208 103.9 54.7208 96.8965V60.8778H42.7915C40.9829 60.8778 40.9829 61.4935 40.9829 61.9938V72.7686H42.907C44.8311 72.7686 45.7161 72.0759 45.9855 70.2673L46.5243 66.65H51.1805L51.1036 68.1893C51.1036 68.1893 50.9111 71.5757 50.9111 74.8081C50.9111 77.6942 51.1036 80.8882 51.1036 80.8882L51.219 82.4275H46.6012L46.024 80.0031C45.8316 79.118 45.5237 78.4254 43.5997 78.4254H41.0214V87.9303C41.0214 89.2002 41.1368 89.6235 43.946 90.0853L46.8321 90.5471V95.1648L45.3313 95.1264C45.3313 95.1264 39.4437 94.934 35.7494 94.934C31.6704 94.934 27.8222 95.1264 27.8222 95.1264L26.3214 95.2033V90.624L28.7073 90.1238C29.7848 89.8929 30.9008 89.3157 30.9008 86.7374V62.7634C30.9008 60.8778 30.8623 60.8778 29.2076 60.6469L26.3599 60.1851V55.5673L27.8607 55.6443C27.8607 55.6443 32.8248 55.8367 36.4806 55.8367C38.9819 55.8367 46.7551 55.7982 54.7593 55.7597V47.871C54.7593 43.8305 53.6049 43.0224 49.9106 42.4836L45.2159 41.7909V35.9417L46.7551 36.0187C46.7936 36.0187 52.6043 36.3266 61.4551 36.3266C64.3797 36.3266 66.4962 36.2496 68.4203 36.1342C70.075 36.0572 71.6142 35.9802 73.3844 35.9802C87.7765 35.9802 96.7042 42.7915 96.7042 53.7587C96.7042 63.7254 90.7011 68.805 85.7754 71.2678C93.2408 73.6921 98.8207 78.6563 101.13 85.0827C101.168 85.1212 101.322 85.3905 101.399 85.6599C102.438 88.8924 104.67 90.4316 108.403 90.4316C111.635 90.4316 113.521 88.8924 113.521 86.3141C113.521 83.1201 110.442 81.2345 106.902 79.0411C102.476 76.3089 97.012 72.9225 97.012 65.8034C97.012 59.2616 102.361 54.8747 110.365 54.8747C112.174 54.8747 113.905 55.144 115.56 55.4519C117.176 55.7213 118.754 55.9906 120.37 55.9906H121.91L121.217 67.9199H116.83L116.676 66.6115C116.253 62.6864 113.752 60.416 109.749 60.416C107.402 60.416 105.709 61.8783 105.709 63.8794C105.709 66.4961 108.749 68.3817 112.289 70.5367C116.945 73.3843 122.718 76.9246 122.718 83.8513C122.718 91.4321 117.484 95.973 108.749 95.973C106.209 95.973 104.054 95.4727 102.13 95.0109C102.053 95.0109 101.976 94.9724 101.899 94.9724C100.168 105.786 91.1244 112.212 77.3865 112.212C74.9236 112.212 72.6147 112.135 70.1904 112.058C67.4582 111.981 64.5721 111.904 61.0318 111.904C52.2965 111.904 46.8321 112.212 46.7551 112.212L45.1774 112.289ZM60.9548 109.018C64.5336 109.018 67.4582 109.095 70.1904 109.172C72.5763 109.249 74.8467 109.326 77.271 109.326C90.2008 109.326 98.1665 103.4 99.09 93.0868L99.244 91.4706L100.822 91.7785C101.437 91.8939 102.015 92.0478 102.63 92.2018C102.938 92.2787 103.285 92.3557 103.631 92.4327C101.207 91.3937 99.4749 89.3926 98.5513 86.545L98.2819 86.0447C95.8961 79.3874 89.3157 74.5003 80.6574 72.9995L77.2325 72.4223L77.1556 72.4607L76.6168 72.3838C76.5783 72.3838 70.7676 71.8065 66.3038 72.3838L64.6875 72.5762V40.6365L65.765 40.3286C66.9964 39.9823 68.9205 39.559 71.5757 39.559C80.5035 39.559 86.5451 45.3312 86.5451 53.8741C86.5451 60.5699 84.1592 66.4191 79.8878 70.3827L80.5419 70.1903C85.4676 68.7665 93.7411 64.7259 93.7411 53.7587C93.7411 44.4462 86.0833 38.8663 73.3074 38.8663C71.5373 38.8663 70.075 38.9433 68.4587 39.0203C66.4962 39.0972 64.3412 39.2127 61.3781 39.2127C55.1056 39.2127 50.3339 39.0588 48.0635 38.9818V39.2512L50.2954 39.5975C54.7978 40.2517 57.6069 41.8679 57.6069 47.8325V96.935C57.6069 105.362 53.2585 107.941 49.6028 108.633L48.0635 108.941V109.288C50.2954 109.172 54.8363 109.018 60.9548 109.018ZM106.555 58.1841C102.361 59.1846 99.8212 61.9553 99.8212 65.8034C99.8212 71.3063 103.977 73.8845 108.364 76.5783C112.289 79.0026 116.368 81.5424 116.368 86.3141C116.368 89.6235 114.367 92.0478 111.173 92.9329C116.715 92.2402 119.716 89.0463 119.716 83.8513C119.716 78.5408 115.137 75.7317 110.673 72.9995C106.555 70.4982 102.707 68.1123 102.707 63.8794C102.746 61.3396 104.247 59.1846 106.555 58.1841ZM32.1706 58.6459C33.2866 59.4155 33.7484 60.6854 33.7484 62.7634V86.7374C33.7484 89.7005 32.5939 91.2782 31.3625 92.1248C33.7869 92.0478 36.9808 92.0478 40.3287 92.1248C39.0973 91.4706 38.0968 90.2777 38.0968 88.0073V62.0707C38.0968 61.2241 38.3277 59.6079 39.8669 58.7228C38.3662 58.7228 37.1732 58.7228 36.4421 58.7228C35.0952 58.7228 33.556 58.6843 32.1706 58.6459ZM44.1384 75.6547C45.9086 75.7701 47.2169 76.4243 48.025 77.6173C47.9866 76.7322 47.9866 75.8086 47.9866 74.8851C47.9866 74.3078 47.9866 73.7691 47.9866 73.1919C47.2169 74.5387 45.9086 75.3853 44.1384 75.6547ZM71.2294 69.2283C73.5768 69.2283 75.5778 69.3822 76.5014 69.4977C81.0807 66.1882 83.6974 60.5315 83.6974 53.9126C83.6974 46.9475 78.9642 42.4836 71.6142 42.4836C69.9595 42.4836 68.6511 42.676 67.6121 42.9069V55.6828L77.0786 55.6058V67.0733H72.6532L72.4993 65.8419C72.076 62.9173 69.8441 61.6859 67.6121 61.2241V69.3437C68.8435 69.2668 70.075 69.2283 71.2294 69.2283ZM112.674 57.9532C115.368 58.6843 117.407 60.3775 118.523 62.8403L118.754 58.8383C117.446 58.7228 116.214 58.5304 114.983 58.338C114.213 58.1841 113.444 58.0302 112.674 57.9532ZM68.7666 58.5304C71.2294 59.1461 73.115 60.416 74.231 62.2246V58.4919L68.7666 58.5304ZM74.2694 108.672C68.4202 108.672 64.7645 105.516 64.7645 100.437V72.884L66.0344 72.7301C66.0344 72.7301 66.958 72.6147 68.1894 72.6147C72.1145 72.6147 81.8503 73.3458 87.4301 80.1955L89.0079 82.1196L86.622 82.5044C88.777 82.8508 89.7775 84.2361 90.1623 85.1212C90.9704 87.4301 91.3168 89.7005 91.3168 92.1633C91.3168 101.861 84.3131 108.672 74.2694 108.672ZM67.6506 75.4623V100.398C67.6506 105.247 72.2684 105.747 74.2694 105.747C82.7354 105.747 88.4306 100.283 88.4306 92.1248C88.4306 89.9698 88.1228 88.0458 87.4686 86.1602C87.1992 85.5445 86.5835 85.1981 85.4291 85.2751C83.9668 85.3136 82.8123 85.9293 82.0042 87.1222C80.8113 88.8154 80.5419 90.1622 81.3116 90.701C81.6194 90.8934 81.9273 91.0088 81.9273 91.0088L83.2356 91.3552L83.0048 92.702C82.8508 93.4332 82.5815 94.0489 82.1966 94.6261C80.8883 96.5117 78.1946 97.6661 76.155 96.2423C72.9611 94.0104 74.077 89.2387 76.5014 85.7754C78.3485 83.1201 80.7343 81.273 83.505 80.2725C78.387 75.8086 70.6137 75.4623 68.1509 75.4623C67.997 75.4623 67.8045 75.4623 67.6506 75.4623ZM78.1176 88.7769C77.0401 90.8549 76.6938 93.0868 77.8482 93.895C78.31 94.2413 79.2336 93.7795 79.7338 93.1253L79.6953 93.0868C79.2336 92.779 77.5789 91.4321 78.1176 88.7769Z" fill="#5D5E5E"/>
<path fill-rule="evenodd" clip-rule="evenodd" d="M74.4618 141.035C37.558 141.035 7.54243 111.019 7.54243 74.1154C7.54243 37.2116 37.558 7.19604 74.4618 7.19604C111.366 7.19604 141.381 37.2116 141.381 74.1154C141.381 111.019 111.327 141.035 74.4618 141.035Z" fill="#FBFAF6"/>
<path d="M74.4618 11.0442C109.249 11.0442 137.533 39.3281 137.533 74.1154C137.533 108.903 109.249 137.187 74.4618 137.187C39.6745 137.187 11.3906 108.903 11.3906 74.1154C11.3906 39.3281 39.6745 11.0442 74.4618 11.0442ZM74.4618 3.34789C35.3646 3.34789 3.69428 35.0567 3.69428 74.1154C3.69428 113.213 35.3646 144.883 74.4618 144.883C113.559 144.883 145.229 113.213 145.229 74.1154C145.191 35.0567 113.521 3.34789 74.4618 3.34789Z" fill="#384049"/>
<path d="M74.4618 7.19604C111.366 7.19604 141.381 37.2116 141.381 74.1154C141.381 111.019 111.366 141.035 74.4618 141.035C37.558 141.035 7.54244 111.019 7.54244 74.1154C7.54244 37.2116 37.558 7.19604 74.4618 7.19604ZM74.4618 3.34789C35.3646 3.34789 3.69428 35.0567 3.69428 74.1154C3.69428 113.213 35.3646 144.883 74.4618 144.883C113.559 144.883 145.229 113.213 145.229 74.1154C145.191 35.0567 113.521 3.34789 74.4618 3.34789Z" fill="#FBFAF6"/>
<path d="M74.4618 146.807C34.3641 146.807 1.7702 114.213 1.7702 74.1154C1.7702 34.0177 34.3641 1.42381 74.4618 1.42381C114.56 1.42381 147.153 34.0177 147.153 74.1154C147.153 114.213 114.521 146.807 74.4618 146.807ZM74.4618 5.27196C36.4806 5.27196 5.61836 36.1726 5.61836 74.1154C5.61836 112.058 36.4806 142.959 74.4618 142.959C112.405 142.959 143.305 112.097 143.305 74.1154C143.267 36.1726 112.405 5.27196 74.4618 5.27196Z" fill="#384049"/>
<path d="M111.712 71.4218C107.941 69.1129 104.67 67.1118 104.67 63.9563C104.67 61.3781 106.786 59.531 109.672 59.531C114.136 59.531 117.099 62.1862 117.561 66.5731L117.6 66.9964H120.216L120.794 56.9912H120.293C118.6 56.9912 116.945 56.7218 115.329 56.4524C113.713 56.1831 112.02 55.9137 110.288 55.9137C102.9 55.9137 97.8971 59.9158 97.8971 65.8804C97.8971 72.4608 102.9 75.5778 107.325 78.31C111.135 80.6573 114.406 82.6968 114.406 86.4296C114.406 89.5466 112.058 91.5091 108.326 91.5091C104.17 91.5091 101.591 89.739 100.437 86.0832C100.36 85.8523 100.244 85.6599 100.167 85.506C97.7432 78.6563 91.3167 73.5382 82.8508 71.5757C87.738 69.7671 95.7036 65.1108 95.7036 53.8742C95.7036 43.4842 87.1223 37.0577 73.3459 37.0577C71.5757 37.0577 70.0365 37.1347 68.4202 37.2117C66.5346 37.2886 64.3797 37.4041 61.4166 37.4041C52.5273 37.4041 46.7166 37.0962 46.6782 37.0962L46.1394 36.9423V40.9059L49.9876 41.4831C53.9127 42.0603 55.6444 43.0993 55.6444 47.8326V56.6833C47.3323 56.7218 39.0203 56.7603 36.4036 56.7603C32.7478 56.7603 27.7837 56.5679 27.7452 56.5679H27.2835V59.377L29.323 59.6849C31.3625 59.9927 31.8628 60.3391 31.8628 62.7634V86.7374C31.8628 89.2772 30.9007 90.701 28.8997 91.0858L27.245 91.4322V94.2028L27.7452 94.1643C27.7837 94.1643 31.6703 93.9719 35.7109 93.9719C39.3667 93.9719 45.2928 94.1643 45.3313 94.1643H45.8316V91.3552L43.7536 91.0473C40.9829 90.624 40.0208 90.0853 40.0208 87.9688V77.5018H43.5611C45.5622 77.5018 46.5242 78.156 46.909 79.8107L47.3323 81.5039H50.18L50.1415 81.0037C50.1415 80.9652 49.9491 77.7327 49.9491 74.8466C49.9491 71.6142 50.1415 68.2278 50.1415 68.1893L50.18 67.689H47.3323L46.909 70.4982C46.5627 72.7686 45.2543 73.8076 42.8685 73.8076H40.0208V62.0707C40.0208 61.1087 40.3287 59.9927 42.7915 59.9927H55.6828V96.9735C55.6828 102.746 53.6048 105.978 49.2564 106.748L46.1394 107.364V111.327L46.6397 111.289C46.6782 111.289 52.181 110.981 60.9548 110.981C64.4951 110.981 67.3812 111.058 70.1519 111.135C72.5762 111.212 74.8466 111.289 77.3095 111.289C90.9319 111.289 99.7442 104.785 101.014 93.8565C101.437 93.9335 101.861 94.0489 102.284 94.1643C104.131 94.5876 106.248 95.0879 108.672 95.0879C116.945 95.0879 121.679 91.0089 121.679 83.9283C121.679 77.5018 116.368 74.2694 111.712 71.4218Z" fill="#383F48"/>
<path d="M76.7707 70.4982C76.1165 70.4212 73.8846 70.1903 71.2294 70.1903C69.7671 70.1903 68.1509 70.2673 66.6886 70.4597V60.1466C70.6906 60.5699 73.038 62.494 73.4613 65.7265L73.5383 66.1498H76.155V56.5679L66.6886 56.6063V42.0988C67.8815 41.7909 69.4977 41.4831 71.6527 41.4831C79.4644 41.4831 84.6979 46.4857 84.6979 53.8742C84.6979 60.9932 81.8118 67.0348 76.7707 70.4982Z" fill="#FBFAF6"/>
<path d="M71.6527 41.9834C79.272 41.9834 84.1977 46.6781 84.1977 53.9126C84.1977 60.7624 81.4655 66.6116 76.6553 69.9979C75.8472 69.921 73.7307 69.7286 71.2679 69.7286C69.9595 69.7286 68.5357 69.8055 67.1888 69.921V60.6854C69.7671 61.0702 72.5378 62.3016 73.038 65.8034L73.115 66.6116H73.9616H75.6933H76.6553V65.6495V57.0681V56.1061H75.6933L67.1888 56.1446V42.4836C68.3048 42.2527 69.7286 41.9834 71.6527 41.9834ZM71.6527 41.0213C69.1514 41.0213 67.3428 41.4446 66.2268 41.7525V57.1066C71.6912 57.0681 75.6933 57.0297 75.6933 57.0297V65.611H73.9616C73.4613 62.1862 70.8831 59.9158 66.2268 59.5694V70.96C67.92 70.7676 69.6901 70.6521 71.2679 70.6521C74.4234 70.6521 76.9247 70.96 76.9247 70.96C82.0427 67.4966 85.1982 61.3396 85.1982 53.8742C85.1597 46.0624 79.6184 41.0213 71.6527 41.0213Z" fill="#383F48"/>
<path d="M101.36 64.8414C101.861 69.3053 105.978 71.845 109.98 74.2694C115.021 77.3479 118.331 79.6953 118.331 83.8513C118.331 85.0442 118.138 86.1217 117.792 87.0453C117.792 86.8144 117.831 86.5835 117.831 86.3141C117.831 80.6958 113.213 77.8482 109.134 75.3469C104.247 72.3453 101.283 70.1903 101.283 65.8034C101.283 65.4571 101.283 65.1493 101.36 64.8414Z" fill="#FBFAF6"/>
<path d="M56.6064 40.6365C58.0687 40.6365 59.6849 40.675 61.3781 40.675C62.0708 40.675 62.6865 40.675 63.3022 40.675V41.7909V56.5294V59.6464V71.0369V74.3078V100.475C63.3022 103.515 64.4566 106.017 66.4961 107.71C64.803 107.671 62.9943 107.633 60.9548 107.633C58.7998 107.633 56.8373 107.633 55.1441 107.671C57.376 105.747 59.0307 102.476 59.0307 97.0119V59.5309V56.6448V47.871C59.0307 44.2922 58.1072 42.0603 56.6064 40.6365Z" fill="#FBFAF6"/>
<path d="M82.3121 41.56C88.7 43.5226 92.3173 47.794 92.3173 53.7972C92.3173 60.9932 88.3921 64.9183 84.544 67.0348C86.8144 63.3406 88.0458 58.8382 88.0458 53.9126C88.0458 48.6791 85.9293 44.3307 82.3121 41.56Z" fill="#FBFAF6"/>
<path d="M34.9028 60.1467C35.4416 60.1467 35.9418 60.1467 36.4806 60.1467C36.6345 60.1467 36.7884 60.1467 36.9808 60.1467C36.7884 60.7624 36.673 61.4166 36.673 62.0323V74.1539V77.0401V87.9688C36.673 89.0078 36.8269 89.8544 37.1347 90.5856C36.6345 90.5856 36.1727 90.5856 35.7494 90.5856C35.3261 90.5856 34.9028 90.5856 34.4795 90.5856C34.9798 89.4696 35.2491 88.1997 35.2491 86.6989V62.7249C35.2107 61.7629 35.0952 60.8778 34.9028 60.1467Z" fill="#FBFAF6"/>
<path d="M84.1976 75.3468C100.014 80.1185 103.323 99.2054 85.3521 106.94C90.0083 103.823 92.779 98.5512 92.779 92.1248C92.779 86.0447 90.3547 81.273 88.5845 79.2335C86.7759 77.1939 85.7754 76.3858 84.1976 75.3468Z" fill="#FBFAF6"/>
<path d="M74.2694 106.748C69.5362 106.748 66.6886 104.362 66.6886 100.437V74.5773C67.0349 74.5388 67.5736 74.5388 68.1893 74.5388C70.96 74.5388 80.1186 75.0006 85.3906 80.7728C82.1581 81.504 79.3875 83.428 77.3095 86.3911C76.232 87.9689 75.4623 89.739 75.2315 91.2783C74.9621 93.1639 75.4623 94.6262 76.6938 95.4728C77.1171 95.7806 77.6173 95.9345 78.1561 95.9345C79.3105 95.9345 80.5804 95.2034 81.35 94.0874C81.6964 93.6257 81.8888 93.1254 82.0042 92.5097L82.0812 92.0479L81.6194 91.9325C81.6194 91.9325 81.1576 91.817 80.6574 91.5092C80.0416 91.0859 78.8872 89.739 81.1191 86.5835C82.1197 85.1597 83.5435 84.3901 85.3136 84.3131H85.3521C86.9298 84.3131 87.8534 84.8519 88.3152 85.8909C88.9694 87.8149 89.3157 89.8929 89.3157 92.1249C89.3927 100.86 83.3126 106.748 74.2694 106.748Z" fill="#FBFAF6"/>
<path d="M68.1893 74.9621C70.8061 74.9621 79.272 75.3854 84.467 80.4649C81.4654 81.35 78.8872 83.2741 76.9246 86.0448C74.5773 89.4311 73.6537 93.8565 76.4629 95.8191C76.9631 96.1654 77.5788 96.3578 78.233 96.3578C79.5414 96.3578 80.9652 95.5497 81.8503 94.2798C82.2351 93.7411 82.466 93.1638 82.5814 92.5481L82.7353 91.6631L81.8503 91.4322C81.8503 91.4322 81.4654 91.3167 81.0806 91.0474C80.0416 90.3162 80.2725 88.7769 81.6579 86.8144C82.5814 85.506 83.8513 84.8133 85.4675 84.7749H85.6984C86.8529 84.7749 87.6225 85.1982 87.9688 85.9678C88.623 87.8919 88.9309 89.8929 88.9309 92.0864C88.9309 100.552 83.0432 106.209 74.3079 106.209C72.1914 106.209 67.1888 105.632 67.1888 100.36V74.9621C67.4582 75.0006 67.8045 74.9621 68.1893 74.9621ZM68.1893 74C67.0349 74 66.1883 74.1155 66.1883 74.1155V100.398C66.1883 104.901 69.5362 107.21 74.2694 107.21C83.8898 107.21 89.8544 100.822 89.8544 92.1248C89.8544 89.6235 89.4696 87.5455 88.8154 85.6984C88.0458 84.0052 86.4296 83.8513 85.6214 83.8513C85.506 83.8513 85.429 83.8513 85.3521 83.8513C83.3895 83.9283 81.8503 84.8133 80.8113 86.3141C78.6178 89.4696 79.4644 91.2013 80.5034 91.8939C81.0421 92.2788 81.6194 92.3942 81.6194 92.3942C81.5039 92.8945 81.35 93.3562 81.0421 93.7795C80.388 94.7416 79.272 95.4342 78.233 95.4342C77.8097 95.4342 77.3864 95.3188 77.0401 95.0494C74.7312 93.4332 75.7317 89.4696 77.7712 86.622C80.0801 83.3126 83.1586 81.5809 86.3526 81.0422C81.1576 74.7312 71.8451 74 68.1893 74Z" fill="#383F48"/>
<path d="M57.9532 42.4067C57.9532 42.4067 59.3 42.1373 60.6469 41.9834C61.3011 41.8679 61.9938 41.791 62.494 41.9834C62.9943 42.1373 63.3406 42.3682 63.3406 42.3682V42.4836C63.3406 42.4836 62.9943 42.753 62.494 42.8684C61.9938 43.0609 61.3396 43.0224 60.6469 42.8684C59.3 42.7145 57.9532 42.4836 57.9532 42.4836V42.4067V42.4067Z" fill="#383F48"/>
<path d="M58.8382 45.1388C58.8382 45.1388 59.9542 44.8695 61.0701 44.754C61.6474 44.6386 62.1861 44.5616 62.6094 44.754C63.0327 44.908 63.3021 45.1388 63.3021 45.1388V45.2543C63.3021 45.2543 63.0327 45.5237 62.6094 45.6391C62.1861 45.8315 61.6089 45.793 61.0701 45.6391C59.9542 45.4852 58.8382 45.2543 58.8382 45.2543V45.1388Z" fill="#383F48"/>
<path d="M59.0306 47.871C59.0306 47.871 60.1081 47.6017 61.1856 47.4862C61.7243 47.3708 62.263 47.2938 62.6479 47.4862C63.0327 47.6401 63.302 47.871 63.302 47.871V47.9865C63.302 47.9865 63.0327 48.2558 62.6479 48.3713C62.263 48.5637 61.7243 48.5252 61.1856 48.3713C60.1081 48.2174 59.0306 47.9865 59.0306 47.9865V47.871Z" fill="#383F48"/>
<path d="M59.0306 50.6033C59.0306 50.6033 60.1081 50.3339 61.1856 50.2185C61.7243 50.103 62.263 50.026 62.6479 50.2185C63.0327 50.3724 63.302 50.6033 63.302 50.6033V50.7187C63.302 50.7187 63.0327 50.9881 62.6479 51.1035C62.263 51.2959 61.7243 51.2575 61.1856 51.1035C60.1081 50.9496 59.0306 50.6802 59.0306 50.6802V50.6033Z" fill="#383F48"/>
<path d="M59.0306 53.2969C59.0306 53.2969 60.1081 53.0275 61.1856 52.8736C61.7243 52.7582 62.263 52.6812 62.6479 52.8736C63.0327 53.0275 63.302 53.2584 63.302 53.2584V53.3739C63.302 53.3739 63.0327 53.6432 62.6479 53.7587C62.263 53.9511 61.7243 53.9126 61.1856 53.7587C60.1081 53.6048 59.0306 53.3739 59.0306 53.3739V53.2969Z" fill="#383F48"/>
<path d="M59.0306 56.0291C59.0306 56.0291 60.1081 55.7597 61.1856 55.6443C61.7243 55.5288 62.263 55.4519 62.6479 55.6443C63.0327 55.7982 63.302 56.0291 63.302 56.0291V56.1445C63.302 56.1445 63.0327 56.4139 62.6479 56.5294C62.263 56.7218 61.7243 56.6833 61.1856 56.5294C60.1081 56.3754 59.0306 56.1445 59.0306 56.1445V56.0291Z" fill="#383F48"/>
<path d="M59.0306 58.7614C59.0306 58.7614 60.1081 58.492 61.1856 58.3765C61.7243 58.2611 62.263 58.1841 62.6479 58.3765C63.0327 58.5305 63.302 58.7614 63.302 58.7614V58.8768C63.302 58.8768 63.0327 59.1462 62.6479 59.2616C62.263 59.454 61.7243 59.4155 61.1856 59.2616C60.1081 59.1077 59.0306 58.8768 59.0306 58.8768V58.7614Z" fill="#383F48"/>
<path d="M59.0306 61.4935C59.0306 61.4935 60.1081 61.2241 61.1856 61.1087C61.7243 60.9933 62.263 60.9163 62.6479 61.1087C63.0327 61.2626 63.302 61.4935 63.302 61.4935V61.609C63.302 61.609 63.0327 61.8783 62.6479 61.9938C62.263 62.1862 61.7243 62.1477 61.1856 61.9938C60.1081 61.8398 59.0306 61.5705 59.0306 61.5705V61.4935Z" fill="#383F48"/>
<path d="M59.0306 64.2257C59.0306 64.2257 60.1081 63.9564 61.1856 63.8024C61.7243 63.687 62.263 63.61 62.6479 63.8024C63.0327 63.9564 63.302 64.1872 63.302 64.1872V64.3027C63.302 64.3027 63.0327 64.5721 62.6479 64.6875C62.263 64.8799 61.7243 64.8414 61.1856 64.6875C60.1081 64.5336 59.0306 64.3027 59.0306 64.3027V64.2257Z" fill="#383F48"/>
<path d="M59.0306 66.9578C59.0306 66.9578 60.1081 66.6885 61.1856 66.573C61.7243 66.4576 62.263 66.3806 62.6479 66.573C63.0327 66.727 63.302 66.9578 63.302 66.9578V67.0733C63.302 67.0733 63.0327 67.3427 62.6479 67.4581C62.263 67.6505 61.7243 67.612 61.1856 67.4581C60.1081 67.3042 59.0306 67.0733 59.0306 67.0733V66.9578Z" fill="#383F48"/>
<path d="M59.0306 69.6516C59.0306 69.6516 60.1081 69.3822 61.1856 69.2668C61.7243 69.1513 62.263 69.0744 62.6479 69.2668C63.0327 69.4207 63.302 69.6516 63.302 69.6516V69.767C63.302 69.767 63.0327 70.0364 62.6479 70.1518C62.263 70.3443 61.7243 70.3058 61.1856 70.1518C60.1081 69.9979 59.0306 69.767 59.0306 69.767V69.6516Z" fill="#383F48"/>
<path d="M59.0306 72.3838C59.0306 72.3838 60.1081 72.1144 61.1856 71.9989C61.7243 71.8835 62.263 71.8065 62.6479 71.9989C63.0327 72.1529 63.302 72.3838 63.302 72.3838V72.4992C63.302 72.4992 63.0327 72.7686 62.6479 72.884C62.263 73.0764 61.7243 73.0379 61.1856 72.884C60.1081 72.7301 59.0306 72.4607 59.0306 72.4607V72.3838Z" fill="#383F48"/>
<path d="M59.0306 75.116C59.0306 75.116 60.1081 74.8466 61.1856 74.6927C61.7243 74.5772 62.263 74.5003 62.6479 74.6927C63.0327 74.8466 63.302 75.0775 63.302 75.0775V75.1929C63.302 75.1929 63.0327 75.4623 62.6479 75.5778C62.263 75.7702 61.7243 75.7317 61.1856 75.5778C60.1081 75.4238 59.0306 75.1929 59.0306 75.1929V75.116Z" fill="#383F48"/>
<path d="M59.0306 77.8482C59.0306 77.8482 60.1081 77.5788 61.1856 77.4633C61.7243 77.3479 62.263 77.2709 62.6479 77.4633C63.0327 77.6173 63.302 77.8482 63.302 77.8482V77.9636C63.302 77.9636 63.0327 78.233 62.6479 78.3484C62.263 78.5408 61.7243 78.5024 61.1856 78.3484C60.1081 78.1945 59.0306 77.9636 59.0306 77.9636V77.8482Z" fill="#383F48"/>
<path d="M59.0306 80.5803C59.0306 80.5803 60.1081 80.311 61.1856 80.1955C61.7243 80.0801 62.263 80.0031 62.6479 80.1955C63.0327 80.3494 63.302 80.5803 63.302 80.5803V80.6958C63.302 80.6958 63.0327 80.9651 62.6479 81.0806C62.263 81.273 61.7243 81.2345 61.1856 81.0806C60.1081 80.9267 59.0306 80.6958 59.0306 80.6958V80.5803Z" fill="#383F48"/>
<path d="M59.0306 83.3125C59.0306 83.3125 60.1081 83.0431 61.1856 82.9277C61.7243 82.8122 62.263 82.7353 62.6479 82.9277C63.0327 83.0816 63.302 83.3125 63.302 83.3125V83.428C63.302 83.428 63.0327 83.6973 62.6479 83.8128C62.263 84.0052 61.7243 83.9667 61.1856 83.8128C60.1081 83.6588 59.0306 83.3895 59.0306 83.3895V83.3125Z" fill="#383F48"/>
<path d="M59.0306 86.0062C59.0306 86.0062 60.1081 85.7368 61.1856 85.5829C61.7243 85.4675 62.263 85.3905 62.6479 85.5829C63.0327 85.7368 63.302 85.9677 63.302 85.9677V86.0832C63.302 86.0832 63.0327 86.3525 62.6479 86.468C62.263 86.6604 61.7243 86.6219 61.1856 86.468C60.1081 86.3141 59.0306 86.0832 59.0306 86.0832V86.0062Z" fill="#383F48"/>
<path d="M59.0306 88.7384C59.0306 88.7384 60.1081 88.469 61.1856 88.3536C61.7243 88.2381 62.263 88.1612 62.6479 88.3536C63.0327 88.5075 63.302 88.7384 63.302 88.7384V88.8539C63.302 88.8539 63.0327 89.1232 62.6479 89.2387C62.263 89.4311 61.7243 89.3926 61.1856 89.2387C60.1081 89.0847 59.0306 88.8539 59.0306 88.8539V88.7384Z" fill="#383F48"/>
<path d="M59.0306 91.4706C59.0306 91.4706 60.1081 91.2013 61.1856 91.0858C61.7243 90.9704 62.263 90.8934 62.6479 91.0858C63.0327 91.2398 63.302 91.4706 63.302 91.4706V91.5861C63.302 91.5861 63.0327 91.8555 62.6479 91.9709C62.263 92.1633 61.7243 92.1248 61.1856 91.9709C60.1081 91.817 59.0306 91.5861 59.0306 91.5861V91.4706Z" fill="#383F48"/>
<path d="M59.0306 94.2028C59.0306 94.2028 60.1081 93.9335 61.1856 93.818C61.7243 93.7026 62.263 93.6256 62.6479 93.818C63.0327 93.9719 63.302 94.2028 63.302 94.2028V94.3183C63.302 94.3183 63.0327 94.5877 62.6479 94.7031C62.263 94.8955 61.7243 94.857 61.1856 94.7031C60.1081 94.5492 59.0306 94.2798 59.0306 94.2798V94.2028Z" fill="#383F48"/>
<path d="M59.0306 96.9351C59.0306 96.9351 60.1081 96.6657 61.1856 96.5118C61.7243 96.3963 62.263 96.3193 62.6479 96.5118C63.0327 96.6657 63.302 96.8966 63.302 96.8966V97.012C63.302 97.012 63.0327 97.2814 62.6479 97.3968C62.263 97.5893 61.7243 97.5508 61.1856 97.3968C60.1081 97.2429 59.0306 96.9735 59.0306 96.9735V96.9351Z" fill="#383F48"/>
<path d="M58.8767 99.6672C58.8767 99.6672 59.9927 99.3978 61.1087 99.2824C61.6474 99.1669 62.2246 99.0899 62.6479 99.2824C63.0712 99.4363 63.3406 99.6672 63.3406 99.6672V99.7826C63.3406 99.7826 63.0712 100.052 62.6479 100.167C62.2246 100.36 61.6859 100.321 61.1087 100.167C59.9927 100.014 58.8767 99.7826 58.8767 99.7826V99.6672Z" fill="#383F48"/>
<path d="M58.3379 102.361C58.3379 102.361 59.6463 102.092 60.9162 101.976C61.5704 101.861 62.2246 101.784 62.6864 101.976C63.1866 102.13 63.4945 102.361 63.4945 102.361V102.476C63.4945 102.476 63.1866 102.746 62.6864 102.861C62.1861 103.054 61.5704 103.015 60.9162 102.861C59.6078 102.707 58.3379 102.476 58.3379 102.476V102.361V102.361Z" fill="#383F48"/>
<path d="M57.1835 105.093C57.1835 105.093 58.9922 104.824 60.8393 104.708C61.7628 104.593 62.6479 104.516 63.3406 104.708C64.0332 104.862 64.495 105.093 64.495 105.093V105.208C64.495 105.208 64.0332 105.478 63.3406 105.593C62.6479 105.786 61.7628 105.747 60.8393 105.593C59.0306 105.439 57.1835 105.17 57.1835 105.17V105.093V105.093Z" fill="#383F48"/>
<path d="M85.6214 45.1389C85.6214 45.1389 85.8138 44.8695 86.1217 44.7541C86.4295 44.5617 86.8144 44.6001 87.2377 44.7541C88.0458 44.908 88.8539 45.1389 88.8539 45.1389V45.2543C88.8539 45.2543 88.0458 45.5237 87.2377 45.6391C86.8528 45.7546 86.4295 45.8316 86.1217 45.6391C85.8138 45.4852 85.6214 45.2543 85.6214 45.2543V45.1389Z" fill="#383F48"/>
<path d="M87.0067 47.871C87.0067 47.871 87.2376 47.6017 87.6224 47.4862C88.0072 47.2938 88.469 47.3323 88.9693 47.4862C89.9313 47.6402 90.9318 47.871 90.9318 47.871V47.9865C90.9318 47.9865 89.9698 48.2559 88.9693 48.3713C88.469 48.4867 88.0072 48.5637 87.6224 48.3713C87.2376 48.2174 87.0067 47.9865 87.0067 47.9865V47.871Z" fill="#383F48"/>
<path d="M87.7379 50.6033C87.7379 50.6033 88.0072 50.3339 88.3921 50.2185C88.7769 50.0261 89.3156 50.0646 89.8544 50.2185C90.8934 50.3724 91.9708 50.6033 91.9708 50.6033V50.7188C91.9708 50.7188 90.9319 50.9881 89.8544 51.142C89.3156 51.2575 88.8154 51.3345 88.3921 51.142C88.0072 50.9881 87.7379 50.7572 87.7379 50.7572V50.6033Z" fill="#383F48"/>
<path d="M88.0458 53.297C88.0458 53.297 88.3151 53.0276 88.7384 52.9121C89.1617 52.7197 89.7005 52.7582 90.2392 52.9121C91.3167 53.0661 92.3942 53.3354 92.3942 53.3354V53.4509C92.3942 53.4509 91.3167 53.7203 90.2392 53.8357C89.7005 53.9511 89.1617 54.0281 88.7384 53.8357C88.3151 53.6818 88.0458 53.4509 88.0458 53.4509V53.297Z" fill="#383F48"/>
<path d="M87.9688 56.0291C87.9688 56.0291 88.2381 55.7598 88.623 55.6443C89.0078 55.4519 89.5465 55.4904 90.0852 55.6443C91.1242 55.7982 92.2017 56.0291 92.2017 56.0291V56.1446C92.2017 56.1446 91.1627 56.4139 90.0852 56.5294C89.5465 56.6448 89.0462 56.7218 88.623 56.5294C88.2381 56.3755 87.9688 56.1446 87.9688 56.1446V56.0291Z" fill="#383F48"/>
<path d="M87.6225 58.7614C87.6225 58.7614 87.8534 58.492 88.2382 58.3766C88.623 58.1842 89.1233 58.2226 89.5851 58.3766C90.5856 58.5305 91.5861 58.7614 91.5861 58.7614V58.8768C91.5861 58.8768 90.5856 59.1462 89.5851 59.2616C89.0848 59.3771 88.5846 59.454 88.2382 59.2616C87.8534 59.1077 87.6225 58.8768 87.6225 58.8768V58.7614Z" fill="#383F48"/>
<path d="M87.0067 61.4935C87.0067 61.4935 87.2376 61.2242 87.5455 61.1087C87.8533 60.9163 88.2766 60.9548 88.6999 61.1087C89.5465 61.2626 90.3931 61.4935 90.3931 61.4935V61.609C90.3931 61.609 89.5465 61.8784 88.6999 62.0323C88.2766 62.1477 87.8533 62.2247 87.5455 62.0323C87.2376 61.8784 87.0067 61.6475 87.0067 61.6475V61.4935Z" fill="#383F48"/>
<path d="M86.0062 64.2257C86.0062 64.2257 86.1601 63.9563 86.4295 63.8409C86.6604 63.6485 87.0067 63.687 87.3145 63.8409C87.9687 63.9948 88.6229 64.2642 88.6229 64.2642V64.3796C88.6229 64.3796 87.9687 64.649 87.3145 64.7644C87.0067 64.8799 86.6604 64.9569 86.4295 64.7644C86.1986 64.6105 86.0062 64.3796 86.0062 64.3796V64.2257Z" fill="#383F48"/>
<path d="M87.3146 77.8482C87.3146 77.8482 87.4685 77.5788 87.6994 77.4634C87.9303 77.271 88.2382 77.3094 88.5845 77.4634C89.2002 77.6173 89.8544 77.8482 89.8544 77.8482V77.9636C89.8544 77.9636 89.2387 78.233 88.5845 78.3485C88.2767 78.4639 87.9688 78.5409 87.6994 78.3485C87.4685 78.1945 87.3146 77.9636 87.3146 77.9636V77.8482Z" fill="#383F48"/>
<path d="M89.6619 80.5804C89.6619 80.5804 89.8928 80.311 90.2007 80.1956C90.5085 80.0031 90.9318 80.0416 91.3551 80.1956C92.2017 80.3495 93.0483 80.5804 93.0483 80.5804V80.6958C93.0483 80.6958 92.2017 80.9652 91.3551 81.0806C90.9318 81.1961 90.5085 81.273 90.2007 81.0806C89.8928 80.9267 89.6619 80.6958 89.6619 80.6958V80.5804Z" fill="#383F48"/>
<path d="M91.0089 83.3126C91.0089 83.3126 91.2783 83.0432 91.6631 82.9278C92.0479 82.7354 92.5867 82.7739 93.0869 82.9278C94.1259 83.0817 95.1649 83.3126 95.1649 83.3126V83.4281C95.1649 83.4281 94.1259 83.6974 93.0869 83.8514C92.5482 83.9668 92.0479 84.0438 91.6631 83.8514C91.2783 83.6974 91.0089 83.4665 91.0089 83.4665V83.3126Z" fill="#383F48"/>
<path d="M91.9324 86.0063C91.9324 86.0063 92.2018 85.7369 92.6636 85.6214C93.0869 85.429 93.6641 85.4675 94.2413 85.6214C95.3958 85.7754 96.5117 86.0447 96.5117 86.0447V86.1602C96.5117 86.1602 95.3573 86.4296 94.2413 86.545C93.6641 86.6604 93.0869 86.7374 92.6636 86.545C92.2403 86.3911 91.9324 86.1602 91.9324 86.1602V86.0063Z" fill="#383F48"/>
<path d="M92.5096 88.7384C92.5096 88.7384 92.8174 88.4691 93.2407 88.3536C93.7025 88.1612 94.2797 88.1997 94.8569 88.3536C96.0499 88.5075 97.2428 88.7384 97.2428 88.7384V88.8539C97.2428 88.8539 96.0499 89.1233 94.8569 89.2387C94.2797 89.3541 93.664 89.4311 93.2407 89.2387C92.7789 89.0848 92.5096 88.8539 92.5096 88.8539V88.7384Z" fill="#383F48"/>
<path d="M92.7404 91.4707C92.7404 91.4707 93.0483 91.2013 93.4716 91.0859C93.9334 90.8934 94.5106 90.9319 95.0878 91.0859C96.2807 91.2398 97.4352 91.4707 97.4352 91.4707V91.5861C97.4352 91.5861 96.2423 91.8555 95.0878 91.9709C94.5106 92.0864 93.8949 92.1633 93.4716 91.9709C93.0098 91.817 92.7404 91.5861 92.7404 91.5861V91.4707Z" fill="#383F48"/>
<path d="M92.6251 94.2029C92.6251 94.2029 92.8945 93.9335 93.3562 93.818C93.7795 93.6256 94.3568 93.6641 94.934 93.818C96.0884 93.972 97.2044 94.2029 97.2044 94.2029V94.3183C97.2044 94.3183 96.0499 94.5877 94.934 94.7416C94.3568 94.8571 93.7795 94.934 93.3562 94.7416C92.9329 94.5877 92.6251 94.3568 92.6251 94.3568V94.2029Z" fill="#383F48"/>
<path d="M92.2018 96.935C92.2018 96.935 92.4712 96.6656 92.856 96.5502C93.2408 96.3578 93.7411 96.3963 94.2798 96.5502C95.3188 96.7041 96.3194 96.9735 96.3194 96.9735V97.0889C96.3194 97.0889 95.2804 97.3583 94.2798 97.5122C93.7796 97.6277 93.2408 97.7046 92.856 97.5122C92.4712 97.3583 92.2018 97.1274 92.2018 97.1274V96.935Z" fill="#383F48"/>
<path d="M91.2781 99.6673C91.2781 99.6673 91.509 99.3979 91.8169 99.2824C92.1247 99.09 92.5865 99.1285 93.0098 99.2824C93.8949 99.4364 94.7415 99.6673 94.7415 99.6673V99.7827C94.7415 99.7827 93.8564 100.052 93.0098 100.168C92.5865 100.283 92.1247 100.36 91.8169 100.168C91.509 100.014 91.2781 99.7827 91.2781 99.7827V99.6673Z" fill="#383F48"/>
<path d="M89.8928 102.361C89.8928 102.361 90.0468 102.092 90.3161 101.976C90.547 101.784 90.8934 101.822 91.2397 101.976C91.8939 102.13 92.5481 102.361 92.5481 102.361V102.476C92.5481 102.476 91.8939 102.746 91.2397 102.861C90.8934 102.977 90.5855 103.054 90.3161 102.861C90.0852 102.707 89.8928 102.476 89.8928 102.476V102.361Z" fill="#383F48"/>
<path d="M89.0463 138.072C89.0463 138.072 87.1992 137.802 84.544 137.264C83.1971 137.033 81.6578 136.725 79.9647 136.379C78.2715 136.032 76.4628 135.917 74.6157 136.032C70.96 136.263 67.3812 136.725 64.6875 137.11C61.9938 137.533 60.1851 137.802 60.1851 137.802L60.1467 137.725C60.1467 137.725 61.8399 136.956 64.5336 136.302C67.2273 135.609 70.9215 135.224 74.6157 135.532C76.4628 135.724 78.2715 135.84 80.0031 135.878C81.7348 135.955 83.351 136.148 84.6594 136.532C87.3531 137.187 89.0078 137.995 89.0078 137.995L89.0463 138.072Z" fill="#384049"/>
<path d="M94.2027 136.071C94.2027 136.071 91.7014 135.34 87.9687 134.378C86.0831 133.954 83.8897 133.454 81.5423 132.915C79.1565 132.453 76.5782 132.261 73.9999 132.415C68.8434 132.723 63.8023 133.608 60.0311 134.531C56.2984 135.455 53.7971 136.263 53.7971 136.263L53.7586 136.186C53.7586 136.186 54.3359 135.917 55.3749 135.417C56.4139 134.955 57.9146 134.301 59.8002 133.762C61.6473 133.108 63.9178 132.684 66.3421 132.3C68.7664 131.992 71.3832 131.876 73.9999 131.953C76.5782 132.146 79.1949 132.3 81.6193 132.453C82.8122 132.607 84.0051 132.646 85.1211 132.915C86.2371 133.108 87.2376 133.377 88.1996 133.646C90.0852 134.147 91.6245 134.801 92.6635 135.263C93.7025 135.763 94.2797 136.032 94.2797 136.032L94.2027 136.071Z" fill="#384049"/>
<path d="M98.9746 134.224C98.9746 134.224 95.9346 133.031 91.3937 131.645C89.0848 130.953 86.3911 130.26 83.4665 129.567C80.5035 128.952 77.3095 128.682 74.077 128.798C67.6506 129.106 61.3781 130.337 56.7988 131.761C54.4899 132.453 52.6043 133.108 51.296 133.608C49.9876 134.108 49.218 134.378 49.218 134.378L49.1795 134.301C49.1795 134.301 49.9106 133.916 51.142 133.262C52.4119 132.607 54.2591 131.761 56.5295 130.991C58.7999 130.106 61.5705 129.452 64.5721 128.913C67.5737 128.451 70.8446 128.22 74.077 128.336C77.3095 128.49 80.5035 128.798 83.5435 129.106C85.0443 129.375 86.5066 129.49 87.8534 129.837C89.2003 130.145 90.4702 130.491 91.6246 130.914C93.9335 131.645 95.8191 132.492 97.0505 133.146C98.3204 133.8 99.0131 134.185 99.0131 134.185L98.9746 134.224Z" fill="#384049"/>
<path d="M69.9979 125.104C69.9979 125.104 63.4945 125.719 57.3375 127.72C54.259 128.721 51.2959 129.952 49.0255 130.799C46.7551 131.684 45.2543 132.3 45.2543 132.3L45.2158 132.223C45.2158 132.223 46.5242 131.261 48.7176 130.106C50.8726 128.952 53.9511 127.759 57.1451 126.951C63.4561 125.142 69.9979 124.988 69.9979 124.988V125.104Z" fill="#384049"/>
<path d="M102.977 132.223C102.977 132.223 101.553 131.684 99.3979 130.837C97.2814 130.029 94.4722 128.875 91.5861 127.874C85.8139 125.912 79.6953 125.219 79.6953 125.219V125.142C79.6953 125.142 85.8524 125.45 91.7785 127.181C94.7416 127.951 97.6662 129.067 99.7057 130.183C101.745 131.261 103.015 132.184 103.015 132.184L102.977 132.223Z" fill="#384049"/>
<path d="M55.7597 124.065C55.7597 124.065 52.027 125.373 48.4867 127.105C46.7165 127.99 44.9849 128.913 43.638 129.49C42.2912 130.068 41.3291 130.414 41.3291 130.414L41.2906 130.337C41.2906 130.337 42.0218 129.644 43.2917 128.836C44.5231 127.99 46.3317 127.143 48.2173 126.45C51.9115 124.95 55.7597 124.026 55.7597 124.026V124.065Z" fill="#384049"/>
<path d="M107.518 130.606C107.518 130.606 104.67 129.106 100.283 127.258C95.8961 125.411 89.8545 123.41 83.582 122.371C77.3095 121.332 70.9216 121.409 66.1883 121.987C63.8025 122.217 61.8399 122.602 60.493 122.872C59.1462 123.179 58.3381 123.333 58.3381 123.333L58.2996 123.256C58.2996 123.256 59.0692 123.064 60.4161 122.718C61.7629 122.41 63.7255 121.948 66.1114 121.64C70.8446 120.909 77.3095 120.717 83.6589 121.602C90.0469 122.41 96.2039 124.411 100.552 126.566C102.707 127.605 104.477 128.567 105.67 129.336C106.863 130.068 107.518 130.529 107.518 130.529V130.606Z" fill="#384049"/>
<path d="M66.5346 118.177C66.5346 118.177 58.8768 119.177 51.7192 121.948C48.1404 123.333 44.7155 124.95 42.0988 126.181C39.5205 127.451 37.7889 128.297 37.7889 128.297L37.7504 128.22C37.7504 128.22 39.2512 126.989 41.7525 125.527C44.2153 124.026 47.7941 122.41 51.4498 121.217C55.1056 119.985 58.8768 119.1 61.7244 118.677C64.572 118.215 66.4961 118.061 66.4961 118.061L66.5346 118.177Z" fill="#384049"/>
<path d="M110.557 128.221C110.557 128.221 108.133 126.912 104.439 125.219C100.745 123.526 95.6651 121.486 90.4316 120.062C85.1597 118.677 79.7338 118.023 75.6162 117.907C71.5372 117.754 68.805 117.984 68.805 117.984V117.869C68.805 117.869 71.5372 117.561 75.6547 117.561C79.7722 117.523 85.2751 118.061 90.624 119.331C96.0115 120.524 101.168 122.564 104.785 124.565C106.594 125.527 108.095 126.45 109.057 127.105C110.057 127.797 110.596 128.182 110.596 128.182L110.557 128.221Z" fill="#384049"/>
<path d="M57.1835 116.176C57.1835 116.176 51.2574 117.792 45.7545 120.37C43.0223 121.679 40.3286 123.102 38.2891 124.141C36.2496 125.18 34.8642 125.835 34.8642 125.835L34.8258 125.758C34.8258 125.758 35.9802 124.719 37.9043 123.487C39.8284 122.179 42.5606 120.794 45.4467 119.678C51.1419 117.292 57.1451 116.099 57.1451 116.099L57.1835 116.176Z" fill="#384049"/>
<path d="M81.1961 114.406C81.1961 114.406 79.9262 114.367 77.9636 114.329C76.0396 114.252 73.4613 114.29 70.9215 114.444C68.3433 114.521 65.8035 114.752 63.8794 114.983C61.9553 115.214 60.6854 115.368 60.6854 115.368C60.6854 115.368 61.9168 115.021 63.8409 114.675C65.765 114.367 68.3048 114.021 70.883 113.867C73.4613 113.79 76.0396 113.867 78.0021 114.021C79.9262 114.175 81.1961 114.406 81.1961 114.406Z" fill="#384049"/>
<path d="M93.0099 116.561C93.0099 116.561 92.3557 116.522 91.4322 116.407C90.5086 116.253 89.2387 116.06 87.9689 115.868C86.7374 115.56 85.506 115.291 84.5825 115.06C83.6589 114.829 83.0432 114.598 83.0432 114.598C83.0432 114.598 83.6974 114.637 84.621 114.752C85.5445 114.906 86.8144 115.098 88.0843 115.291C89.3157 115.599 90.5471 115.868 91.4707 116.099C92.3942 116.33 93.0099 116.561 93.0099 116.561Z" fill="#384049"/>
<path d="M113.828 125.95C113.828 125.95 112.751 125.604 111.366 124.796C110.634 124.449 109.865 123.911 109.057 123.295C108.249 122.679 107.287 122.179 106.248 121.833C104.208 121.101 102.245 120.293 100.783 119.562C99.3209 118.869 98.3973 118.254 98.3973 118.254L98.4358 118.177C98.4358 118.177 99.5518 118.292 101.091 118.792C102.669 119.254 104.67 120.178 106.478 121.371C108.249 122.679 110.481 123.102 111.75 124.141C113.136 125.027 113.867 125.873 113.867 125.873L113.828 125.95Z" fill="#384049"/>
<path d="M55.1825 112.905C55.1825 112.905 48.9485 114.675 43.1763 117.484C40.2902 118.908 37.481 120.447 35.3645 121.602C33.2096 122.718 31.7858 123.487 31.7858 123.487L31.7473 123.41C31.7473 123.41 32.9787 122.333 34.9797 120.947C36.9808 119.562 39.8669 118.023 42.8684 116.791C48.8331 114.175 55.1825 112.828 55.1825 112.828V112.905Z" fill="#384049"/>
<path d="M116.714 123.487C116.714 123.487 115.098 122.641 112.674 121.332C110.25 120.062 107.017 118.331 103.708 116.791C97.0504 113.751 89.8543 112.097 89.8543 112.097L89.8928 112.02C89.8928 112.02 97.2043 113.251 104.054 116.099C107.517 117.446 110.827 119.139 113.097 120.678C115.406 122.217 116.83 123.41 116.83 123.41L116.714 123.487Z" fill="#384049"/>
<path d="M43.3303 113.059C43.3303 113.059 39.636 114.829 36.1342 116.907C34.4026 117.984 32.6709 119.062 31.324 119.754C29.9772 120.486 29.0151 120.909 29.0151 120.909L28.9382 120.832C28.9382 120.832 29.6693 120.062 30.9007 119.139C32.0937 118.177 33.9023 117.138 35.7494 116.253C39.4052 114.367 43.2918 112.982 43.2918 112.982L43.3303 113.059Z" fill="#384049"/>
<path d="M119.639 121.024C119.639 121.024 118.138 120.178 115.868 118.946C113.597 117.715 110.634 116.022 107.556 114.483C101.399 111.443 94.7415 109.518 94.7415 109.518L94.78 109.442C94.78 109.442 101.553 110.942 107.902 113.79C111.096 115.137 114.175 116.791 116.291 118.292C118.446 119.755 119.716 120.947 119.716 120.947L119.639 121.024Z" fill="#384049"/>
<path d="M42.83 109.249C42.83 109.249 38.52 111.173 34.441 113.559C32.44 114.79 30.4389 116.022 28.8997 116.868C27.3604 117.715 26.2829 118.254 26.2829 118.254L26.2444 118.177C26.2444 118.177 27.091 117.33 28.5148 116.253C29.9002 115.137 31.9782 113.944 34.0947 112.905C38.3276 110.711 42.7915 109.172 42.7915 109.172L42.83 109.249Z" fill="#384049"/>
<path d="M122.102 118.177C122.102 118.177 120.871 117.484 118.985 116.484C117.138 115.445 114.714 114.021 112.289 112.635C107.364 109.903 102.053 107.902 102.053 107.902L102.092 107.825C102.092 107.825 107.517 109.441 112.636 111.981C115.214 113.174 117.677 114.598 119.408 115.868C121.14 117.138 122.179 118.138 122.179 118.138L122.102 118.177Z" fill="#384049"/>
<path d="M51.8347 102.438C51.8347 102.438 44.2923 104.516 37.2887 107.979C33.8253 109.711 30.4389 111.635 27.8992 113.059C25.3594 114.521 23.6662 115.483 23.6662 115.483L23.6277 115.406C23.6277 115.406 25.09 114.098 27.5143 112.405C29.9002 110.711 33.3635 108.787 36.9808 107.248C44.1384 103.977 51.8347 102.322 51.8347 102.322V102.438Z" fill="#384049"/>
<path d="M124.603 115.368C124.603 115.368 123.179 114.56 121.024 113.367C118.908 112.174 116.099 110.519 113.251 108.941C107.479 105.901 101.283 103.746 101.283 103.746L101.322 103.669C101.322 103.669 107.671 105.401 113.598 108.249C116.599 109.595 119.485 111.25 121.448 112.712C123.449 114.136 124.642 115.291 124.642 115.291L124.603 115.368Z" fill="#384049"/>
<path d="M52.4889 98.5128C52.4889 98.5128 44.2923 100.552 36.7114 104.131C32.9402 105.94 29.2845 107.941 26.5523 109.48C23.8201 111.058 22.0115 112.097 22.0115 112.097L21.9345 112.02C21.9345 112.02 23.5123 110.634 26.129 108.864C28.7457 107.056 32.4785 105.055 36.4036 103.477C40.2902 101.822 44.2923 100.514 47.3708 99.7057C50.4109 98.8976 52.4889 98.4743 52.4889 98.4743V98.5128Z" fill="#384049"/>
<path d="M105.093 101.091C105.093 101.129 104.67 101.091 104.247 101.014C103.862 100.86 103.515 100.591 103.515 100.552C103.515 100.514 103.939 100.552 104.362 100.629C104.747 100.822 105.093 101.053 105.093 101.091Z" fill="#384049"/>
<path d="M126.835 112.328C126.835 112.328 125.565 111.635 123.718 110.596C121.871 109.518 119.447 108.095 116.984 106.632C112.02 103.823 106.709 101.707 106.709 101.707L106.748 101.63C106.748 101.63 112.212 103.361 117.33 105.978C119.908 107.21 122.41 108.672 124.103 109.98C125.835 111.25 126.874 112.251 126.874 112.251L126.835 112.328Z" fill="#384049"/>
<path d="M52.4889 94.7416C52.4889 94.7416 43.7151 96.7811 35.557 100.552C31.5164 102.438 27.5913 104.554 24.6667 106.209C21.7421 107.864 19.818 108.98 19.818 108.98L19.7795 108.903C19.7795 108.903 21.4727 107.402 24.2819 105.555C27.091 103.631 31.0931 101.553 35.2876 99.8596C39.4436 98.1279 43.7536 96.7426 47.0245 95.9345C50.2954 95.0879 52.4889 94.6646 52.4889 94.6646V94.7416Z" fill="#384049"/>
<path d="M118.754 102.938C118.754 102.938 117.83 102.669 116.484 102.168C115.137 101.668 113.444 100.86 111.75 100.052C108.325 98.4743 104.747 97.1274 104.747 97.1274L104.785 97.0504C104.785 97.0504 108.479 98.0125 112.058 99.3593C113.867 99.975 115.637 100.745 116.83 101.514C118.061 102.245 118.792 102.861 118.792 102.861L118.754 102.938Z" fill="#384049"/>
<path d="M128.682 108.98C128.682 108.98 128.105 108.864 127.335 108.518C126.566 108.21 125.642 107.594 124.757 106.902C122.948 105.593 121.178 104.247 121.178 104.247L121.217 104.17C121.217 104.17 123.218 105.17 125.142 106.248C126.142 106.748 127.105 107.325 127.72 107.864C128.374 108.403 128.721 108.903 128.721 108.903L128.682 108.98Z" fill="#384049"/>
<path d="M35.7879 96.0114C35.7879 96.0114 31.0546 98.0894 26.5908 100.668C24.3589 101.976 22.2039 103.323 20.5107 104.285C18.8175 105.247 17.6631 105.824 17.6631 105.824L17.6246 105.747C17.6246 105.747 18.5481 104.824 20.1259 103.669C21.6652 102.476 23.9356 101.168 26.2445 100.014C30.8622 97.6277 35.7494 95.9345 35.7494 95.9345L35.7879 96.0114Z" fill="#384049"/>
<path d="M53.2584 90.8164C53.2584 90.8164 52.2579 91.1243 51.2959 91.4706C50.7956 91.663 50.2953 91.7785 49.9105 91.7785C49.5257 91.8169 49.2563 91.74 49.2563 91.74V91.7015C49.2563 91.7015 49.4872 91.5091 49.8336 91.3936C50.1799 91.2012 50.7186 91.1243 51.2189 91.0473C52.2579 90.9319 53.2969 90.7779 53.2969 90.7779L53.2584 90.8164Z" fill="#384049"/>
<path d="M130.799 105.786C130.799 105.786 129.683 105.247 128.105 104.362C126.489 103.477 124.449 102.207 122.41 100.937C118.254 98.4743 113.828 96.4348 113.828 96.4348L113.867 96.3578C113.867 96.3578 118.446 98.0125 122.795 100.244C124.988 101.322 127.105 102.553 128.567 103.708C130.029 104.824 130.914 105.67 130.914 105.67L130.799 105.786Z" fill="#384049"/>
<path d="M25.5132 96.5502C25.5132 96.5502 23.1658 98.1664 20.8569 99.7442C19.7025 100.552 18.5096 101.322 17.509 101.745C16.547 102.169 15.8543 102.361 15.8543 102.361L15.7774 102.284C15.7774 102.284 16.2776 101.745 17.1242 101.091C17.9708 100.437 19.2022 99.7057 20.4336 99.09C22.9349 97.7816 25.4362 96.4732 25.4362 96.4732L25.5132 96.5502Z" fill="#384049"/>
<path d="M52.7966 87.1607C52.7966 87.1607 50.6417 87.7764 48.5252 88.3921C47.4477 88.7 46.3702 89.0078 45.5621 89.0848C44.754 89.2387 44.1768 89.2387 44.1768 89.2387V89.2002C44.1768 89.2002 44.677 88.9309 45.4851 88.7C46.2548 88.3921 47.3707 88.1613 48.4482 87.9688C50.6417 87.5455 52.8351 87.1222 52.8351 87.1222L52.7966 87.1607Z" fill="#384049"/>
<path d="M108.325 90.4316C108.325 90.4316 107.402 90.2777 106.478 90.0853C106.017 90.0083 105.555 89.8929 105.247 89.7005C104.939 89.5466 104.747 89.3542 104.747 89.3542V89.3157C104.747 89.3157 105.016 89.2772 105.362 89.3157C105.747 89.3157 106.171 89.4696 106.594 89.662C107.479 90.0083 108.325 90.3932 108.325 90.3932V90.4316Z" fill="#384049"/>
<path d="M132.723 102.438C132.723 102.438 131.799 102.053 130.529 101.36C129.221 100.706 127.605 99.6287 125.989 98.5897C122.718 96.5502 119.254 94.7416 119.254 94.7416L119.293 94.6646C119.293 94.6646 122.91 96.0884 126.373 97.9355C128.105 98.8206 129.798 99.8211 130.953 100.745C132.107 101.668 132.8 102.361 132.8 102.361L132.723 102.438Z" fill="#384049"/>
<path d="M24.3589 92.8175C24.3589 92.8175 21.9345 94.4337 19.4717 96.0499C18.2788 96.8965 17.0089 97.6661 16.0084 98.0894C15.0078 98.5512 14.2767 98.7436 14.2767 98.7436L14.2382 98.6666C14.2382 98.6666 14.7769 98.1279 15.662 97.4737C16.5471 96.781 17.817 96.0884 19.1254 95.4342C21.7421 94.0873 24.3589 92.779 24.3589 92.779V92.8175Z" fill="#384049"/>
<path d="M52.6427 83.4665C52.6427 83.4665 50.2184 84.1206 47.7556 84.8133C46.5242 85.1596 45.3312 85.4675 44.3692 85.5829C43.4456 85.7369 42.7915 85.7753 42.7915 85.7753V85.7369C42.7915 85.7369 43.3687 85.4675 44.2922 85.1981C45.1773 84.8518 46.4087 84.6209 47.6786 84.39C50.1414 83.9282 52.6427 83.4665 52.6427 83.4665Z" fill="#384049"/>
<path d="M111.327 87.4685C111.327 87.4685 109.211 86.9683 107.094 86.4295C106.017 86.1986 104.978 85.8908 104.247 85.5829C103.477 85.3135 102.977 85.0057 102.977 85.0057V84.9672C102.977 84.9672 103.515 85.0057 104.323 85.1596C105.132 85.2751 106.171 85.6214 107.21 85.9677C109.288 86.6989 111.327 87.3915 111.327 87.3915V87.4685Z" fill="#384049"/>
<path d="M134.262 98.7436C134.262 98.7436 133.377 98.3973 132.146 97.7431C130.876 97.1274 129.337 96.1269 127.759 95.1263C124.603 93.2023 121.294 91.4321 121.294 91.4321L121.332 91.3551C121.332 91.3551 124.834 92.702 128.144 94.4337C129.837 95.2418 131.453 96.2038 132.569 97.0889C133.685 97.9355 134.339 98.6666 134.339 98.6666L134.262 98.7436Z" fill="#384049"/>
<path d="M28.8611 86.545C28.8611 86.545 24.859 88.3921 21.0109 90.5856C19.1253 91.7015 17.2397 92.8175 15.7389 93.5486C14.2766 94.3183 13.2376 94.7416 13.2376 94.7416L13.1606 94.6646C13.1606 94.6646 13.9688 93.895 15.3156 92.8944C16.6625 91.8939 18.625 90.8165 20.6261 89.8929C24.6281 87.9303 28.7842 86.468 28.7842 86.468L28.8611 86.545Z" fill="#384049"/>
<path d="M45.7546 81.1191C45.7546 81.1575 45.0619 81.4654 44.3308 81.6578C43.5996 81.8117 42.83 81.8502 42.83 81.8502C42.83 81.8502 43.5226 81.5039 44.2538 81.3115C44.9849 81.1191 45.7546 81.0806 45.7546 81.1191Z" fill="#384049"/>
<path d="M54.3745 79.3874C54.3745 79.4259 53.7588 79.6568 53.1046 79.8107C52.4504 79.8877 51.7962 79.8877 51.7962 79.8492C51.7962 79.8107 52.4119 79.5798 53.0661 79.4259C53.7203 79.349 54.3745 79.3874 54.3745 79.3874Z" fill="#384049"/>
<path d="M111.789 83.6589C111.789 83.6589 108.98 83.0047 106.171 82.3505C104.747 82.0427 103.361 81.6964 102.361 81.3115C101.322 80.9652 100.668 80.6574 100.668 80.6574V80.6189C100.668 80.6189 101.399 80.6958 102.438 80.9267C103.515 81.0807 104.901 81.504 106.247 81.9273C109.018 82.7738 111.75 83.6204 111.75 83.6204L111.789 83.6589Z" fill="#384049"/>
<path d="M135.917 95.1649C135.917 95.1649 135.07 94.857 133.916 94.2798C132.761 93.7026 131.299 92.8175 129.837 91.8555C126.874 90.0468 123.834 88.3921 123.834 88.3921L123.872 88.3152C123.872 88.3152 127.105 89.5851 130.222 91.1628C131.799 91.9324 133.3 92.779 134.339 93.5871C135.378 94.3953 135.994 95.0495 135.994 95.0495L135.917 95.1649Z" fill="#384049"/>
<path d="M28.8227 82.4275C28.8227 82.4275 24.3588 84.3516 20.1258 86.622C18.0094 87.8149 15.9314 89.0078 14.3151 89.7775C12.6989 90.5856 11.5829 91.0858 11.5829 91.0858L11.5445 91.0089C11.5445 91.0089 12.468 90.1623 13.9688 89.1233C15.4696 88.0458 17.6245 86.9298 19.818 85.9293C24.2049 83.8513 28.8227 82.312 28.8227 82.312V82.4275Z" fill="#384049"/>
<path d="M54.6438 75.6547C54.6438 75.6932 53.9512 75.9241 53.2585 76.078C52.5274 76.155 51.7962 76.155 51.7962 76.1165C51.7962 76.078 52.4889 75.8471 53.1815 75.6932C53.9127 75.6163 54.6438 75.6163 54.6438 75.6547Z" fill="#384049"/>
<path d="M102.9 77.3479C102.9 77.3479 102.476 77.3479 101.822 77.3094C101.206 77.2324 100.36 77.117 99.5133 77.0015C98.7052 76.8091 97.8971 76.5782 97.2814 76.4243C96.6657 76.2319 96.2809 76.078 96.2809 76.078C96.2809 76.078 96.7042 76.078 97.3583 76.1165C97.9741 76.1934 98.8206 76.3089 99.6672 76.4243C100.475 76.6167 101.283 76.8476 101.899 77.0015C102.476 77.1555 102.9 77.3479 102.9 77.3479Z" fill="#384049"/>
<path d="M137.033 91.2013C137.033 91.2013 136.148 90.8934 134.955 90.2777C133.723 89.7005 132.184 88.7769 130.645 87.8534C127.528 86.0447 124.295 84.39 124.295 84.39L124.334 84.3131C124.334 84.3131 127.72 85.583 130.991 87.1992C132.646 87.9688 134.224 88.8154 135.34 89.662C136.456 90.4701 137.071 91.1243 137.071 91.1243L137.033 91.2013Z" fill="#384049"/>
<path d="M29.1691 78.233C29.1691 78.233 24.3973 80.157 19.8565 82.4659C17.5861 83.6589 15.3542 84.8518 13.6225 85.6984C11.8908 86.545 10.6979 87.0068 10.6979 87.0068L10.6594 86.9298C10.6594 86.9298 11.66 86.0832 13.2762 85.0057C14.8924 83.9282 17.2013 82.7738 19.5487 81.7733C24.2434 79.6568 29.1691 78.156 29.1691 78.156V78.233Z" fill="#384049"/>
<path d="M54.182 72.0374C54.182 72.0759 53.5278 72.3068 52.8351 72.4222C52.1425 72.4992 51.4498 72.4607 51.4498 72.4607C51.4498 72.4222 52.104 72.1913 52.7967 72.0759C53.4508 71.9605 54.1435 71.9989 54.182 72.0374Z" fill="#384049"/>
<path d="M96.8965 72.4222C96.8965 72.4222 96.4347 72.4607 95.7036 72.4222C95.0109 72.3453 94.0488 72.2683 93.1253 72.1913C92.2017 71.9989 91.2782 71.845 90.547 71.7295C89.8543 71.5756 89.3926 71.4217 89.3926 71.4217C89.3926 71.4217 89.8928 71.3832 90.5855 71.4217C91.2782 71.4987 92.2402 71.5756 93.1638 71.6526C94.0873 71.845 95.0109 71.9989 95.742 72.1144C96.4347 72.2683 96.8965 72.4222 96.8965 72.4222Z" fill="#384049"/>
<path d="M137.956 87.0837C137.956 87.0837 137.033 86.7758 135.763 86.1601C134.455 85.5829 132.838 84.6593 131.184 83.6973C127.874 81.8502 124.449 80.234 124.449 80.234L124.488 80.157C124.488 80.157 128.067 81.3884 131.53 83.0431C133.262 83.8128 134.955 84.6978 136.109 85.5444C137.302 86.3525 137.995 87.0452 137.995 87.0452L137.956 87.0837Z" fill="#384049"/>
<path d="M29.1691 74.1539C29.1691 74.1539 24.2434 76.001 19.5102 78.2714C17.1628 79.4259 14.8155 80.6188 13.0453 81.4269C11.2367 82.235 10.0053 82.7353 10.0053 82.7353L9.96679 82.6583C9.96679 82.6583 11.0058 81.8117 12.699 80.7727C14.3922 79.6953 16.778 78.5408 19.2408 77.5788C24.128 75.5008 29.1691 74.0385 29.1691 74.0385V74.1539Z" fill="#384049"/>
<path d="M45.1773 69.844C45.1773 69.8824 44.4846 70.1518 43.7535 70.3442C43.0223 70.4597 42.2527 70.4982 42.2527 70.4597C42.2527 70.4212 42.9454 70.1518 43.6765 69.9594C44.4461 69.844 45.1773 69.8055 45.1773 69.844Z" fill="#384049"/>
<path d="M54.4128 68.3048C54.4128 68.3433 53.7971 68.5357 53.1429 68.6896C52.4887 68.7281 51.8346 68.7281 51.8346 68.6896C51.8346 68.6511 52.4503 68.4587 53.1044 68.3048C53.7202 68.2278 54.4128 68.2663 54.4128 68.3048Z" fill="#384049"/>
<path d="M96.2808 68.6126C96.2808 68.6511 95.2803 68.7281 94.2798 68.6511C93.3177 68.4587 92.3557 68.1508 92.3557 68.1124C92.3557 68.0739 93.3562 67.9969 94.3567 68.0739C95.3188 68.2278 96.2808 68.5741 96.2808 68.6126Z" fill="#384049"/>
<path d="M138.495 82.7738C138.495 82.7738 137.302 82.312 135.571 81.5424C133.839 80.7728 131.607 79.6183 129.336 78.4639C124.796 76.2704 120.062 74.4233 120.062 74.4233L120.101 74.3464C120.101 74.3464 124.988 75.7702 129.644 77.7712C131.992 78.7332 134.301 79.8107 135.917 80.8497C137.533 81.8503 138.534 82.6968 138.534 82.6968L138.495 82.7738Z" fill="#384049"/>
<path d="M29.2845 70.1134C29.2845 70.1134 24.2049 71.922 19.3178 74.1155C16.8935 75.2699 14.4691 76.4244 12.622 77.194C10.7749 78.0021 9.505 78.4639 9.505 78.4639L9.46651 78.3869C9.46651 78.3869 10.544 77.5403 12.3141 76.5398C14.0458 75.5008 16.5471 74.3849 19.0484 73.4228C24.0895 71.4218 29.2845 70.0364 29.2845 70.0364V70.1134Z" fill="#384049"/>
<path d="M45.1773 66.0343C45.1773 66.0728 44.4846 66.3422 43.7535 66.5346C43.0223 66.6501 42.2527 66.6885 42.2527 66.65C42.2527 66.6116 42.9454 66.3422 43.6765 66.1498C44.4461 66.0343 45.1773 66.0343 45.1773 66.0343Z" fill="#384049"/>
<path d="M52.6042 64.8414C52.6042 64.8414 52.3348 64.9568 51.9885 65.0338C51.6037 65.1107 51.1034 65.2262 50.5647 65.3416C50.0259 65.3801 49.5257 65.4186 49.1409 65.4571C48.756 65.4571 48.4867 65.4571 48.4867 65.4571C48.4867 65.4571 48.756 65.3416 49.1024 65.2647C49.4872 65.1877 49.9875 65.0723 50.5262 64.9568C51.0649 64.9183 51.5652 64.8798 51.95 64.8414C52.3348 64.8029 52.6042 64.8414 52.6042 64.8414Z" fill="#384049"/>
<path d="M139.226 78.5793C139.226 78.5793 137.456 77.8097 134.801 76.6552C132.146 75.5008 128.644 73.923 125.065 72.4607C117.907 69.5746 110.365 67.612 110.365 67.612L110.404 67.5351C110.404 67.5351 118.023 69.1128 125.334 71.768C129.029 73.0379 132.607 74.5772 135.147 76.001C137.725 77.3864 139.303 78.5408 139.303 78.5408L139.226 78.5793Z" fill="#384049"/>
<path d="M29.2845 66.0728C29.2845 66.0728 24.3589 67.7275 19.5871 69.767C17.2013 70.806 14.8539 71.8835 13.0453 72.5377C11.2366 73.2304 9.96676 73.6537 9.96676 73.6537L9.92828 73.5767C9.92828 73.5767 11.0058 72.8071 12.6989 71.845C14.3921 70.883 16.8165 69.8825 19.2793 69.0359C24.1664 67.2272 29.2075 65.9958 29.2075 65.9958L29.2845 66.0728Z" fill="#384049"/>
<path d="M48.4482 61.7629C48.4482 61.7629 46.909 62.1477 45.4082 62.494C44.6386 62.6864 43.8689 62.8789 43.2917 62.8404C42.7145 62.8789 42.2912 62.8404 42.2912 62.8404V62.8019C42.2912 62.8019 42.6375 62.6095 43.2147 62.4556C43.792 62.2247 44.5616 62.1477 45.3312 62.0707C46.909 61.8783 48.4482 61.7244 48.4482 61.7244V61.7629Z" fill="#384049"/>
<path d="M113.905 64.5721C113.905 64.5721 113.52 64.5721 113.02 64.5336C112.481 64.4566 111.789 64.3412 111.096 64.2257C110.403 64.0333 109.711 63.8024 109.211 63.6485C108.71 63.4561 108.364 63.3022 108.364 63.3022C108.364 63.3022 108.749 63.3022 109.249 63.3406C109.788 63.4176 110.48 63.5331 111.173 63.6485C111.866 63.8409 112.52 64.0718 113.059 64.2257C113.559 64.4181 113.905 64.5721 113.905 64.5721Z" fill="#384049"/>
<path d="M139.265 74.0385C139.265 74.0385 138.341 73.8076 137.033 73.3073C135.724 72.8456 134.031 71.999 132.338 71.1909C128.952 69.5746 125.488 68.1508 125.488 68.1508L125.527 68.0739C125.527 68.0739 129.144 69.1129 132.646 70.4982C134.416 71.1524 136.148 71.8835 137.341 72.6532C138.572 73.3843 139.303 74 139.303 74L139.265 74.0385Z" fill="#384049"/>
<path d="M27.7067 62.5325C27.7067 62.5325 23.2044 64.0333 18.8175 65.842C16.624 66.7655 14.4691 67.6891 12.7759 68.2663C11.1212 68.8435 9.92826 69.1898 9.92826 69.1898L9.88978 69.1129C9.88978 69.1129 10.8903 68.4202 12.468 67.5736C14.0458 66.727 16.2777 65.842 18.5481 65.1108C23.0505 63.5331 27.6683 62.4556 27.6683 62.4556L27.7067 62.5325Z" fill="#384049"/>
<path d="M139.303 69.5747C139.303 69.5747 138.303 69.3053 136.879 68.805C135.455 68.3048 133.608 67.4967 131.799 66.6501C128.105 65.0338 124.334 63.61 124.334 63.61L124.372 63.5331C124.372 63.5331 128.297 64.572 132.069 65.9189C133.993 66.5731 135.878 67.3042 137.187 68.0739C138.534 68.805 139.342 69.4207 139.342 69.4207L139.303 69.5747Z" fill="#384049"/>
<path d="M24.3589 59.5309C24.3589 59.5309 21.011 60.9163 17.6246 62.3401C15.9699 63.0712 14.2382 63.7254 12.9298 64.0333C11.6215 64.3796 10.6979 64.495 10.6979 64.495L10.6594 64.4181C10.6594 64.4181 11.4291 63.9178 12.699 63.3406C13.9304 62.7249 15.662 62.1477 17.3937 61.6474C20.857 60.5699 24.3589 59.4924 24.3589 59.4924V59.5309Z" fill="#384049"/>
<path d="M52.6043 53.7587C52.6043 53.7587 49.6412 54.2974 46.6782 54.8362C45.2159 55.1055 43.7151 55.3749 42.5991 55.4134C41.4831 55.5288 40.7135 55.5288 40.7135 55.5288V55.4904C40.7135 55.4904 41.4447 55.2595 42.5606 55.0286C43.6766 54.7592 45.1389 54.5668 46.6397 54.4129C49.6412 54.0665 52.6428 53.7202 52.6428 53.7202L52.6043 53.7587Z" fill="#384049"/>
<path d="M104.17 54.9131C104.17 54.9516 102.861 54.9516 101.591 54.8362C100.321 54.6053 99.09 54.2204 99.09 54.182C99.09 54.1435 100.398 54.1435 101.668 54.2589C102.938 54.4898 104.208 54.8362 104.17 54.9131Z" fill="#384049"/>
<path d="M138.726 64.8799C138.726 64.8799 137.764 64.6875 136.379 64.2257C134.993 63.8024 133.185 63.0713 131.415 62.3016C127.836 60.8393 124.141 59.531 124.141 59.531L124.18 59.454C124.18 59.454 127.99 60.3776 131.684 61.609C133.569 62.1862 135.378 62.8789 136.686 63.5715C137.995 64.2642 138.803 64.8414 138.803 64.8414L138.726 64.8799Z" fill="#384049"/>
<path d="M46.6781 50.8341C46.6781 50.8341 37.6734 52.2579 28.9381 54.6053C24.5512 55.7982 20.2413 57.1451 17.0088 58.1456C13.7379 59.1461 11.5444 59.8003 11.5444 59.8003L11.506 59.7234C11.506 59.7234 13.5455 58.6844 16.7394 57.4529C19.9334 56.1831 24.2818 54.8747 28.7457 53.8742C37.5964 51.7192 46.6781 50.7572 46.6781 50.7572V50.8341Z" fill="#384049"/>
<path d="M52.6043 50.0645C52.6043 50.1029 51.9116 50.2953 51.2189 50.4108C50.4878 50.4493 49.7951 50.4108 49.7951 50.3723C49.7951 50.3338 50.4878 50.1414 51.1805 50.026C51.8731 49.9875 52.6043 50.026 52.6043 50.0645Z" fill="#384049"/>
<path d="M115.291 53.22C115.291 53.22 114.213 53.143 112.558 52.9121C110.942 52.6813 108.787 52.3734 106.632 52.0271C104.477 51.6038 102.361 51.219 100.745 50.9111C99.1284 50.5648 98.0894 50.2954 98.0894 50.2954C98.0894 50.2954 99.1669 50.3724 100.822 50.6032C102.438 50.8341 104.593 51.142 106.748 51.4883C108.903 51.9116 111.019 52.2964 112.635 52.6043C114.252 52.9506 115.291 53.22 115.291 53.22Z" fill="#384049"/>
<path d="M138.033 60.2236C138.033 60.2236 137.225 60.1467 136.032 59.8773C134.839 59.6079 133.377 59.0692 131.915 58.4535C128.952 57.2606 126.027 56.0291 126.027 56.0291L126.066 55.9522C126.066 55.9522 129.144 56.8373 132.184 57.7223C133.723 58.1456 135.224 58.6459 136.302 59.1461C137.379 59.6464 138.072 60.1082 138.072 60.1082L138.033 60.2236Z" fill="#384049"/>
<path d="M41.2137 47.9095C41.2137 47.9095 33.9407 49.2564 26.8601 51.1804C23.3198 52.1809 19.7795 53.1815 17.1242 53.9511C14.4305 54.6438 12.6604 55.1055 12.6604 55.1055V55.0286C12.6604 55.0286 14.3151 54.2205 16.9318 53.2199C19.5101 52.2194 23.0889 51.2189 26.7061 50.4493C33.9022 48.7561 41.2137 47.8325 41.2137 47.8325V47.9095Z" fill="#384049"/>
<path d="M52.6042 46.3702C52.6042 46.3702 51.95 46.5242 50.988 46.6781C50.026 46.832 48.7176 47.0244 47.4477 47.2168C46.1393 47.3707 44.8309 47.4862 43.8689 47.6016C42.9069 47.6786 42.2527 47.7171 42.2527 47.7171C42.2527 47.7171 42.9069 47.5632 43.8689 47.4092C44.8309 47.2553 46.1393 47.0629 47.4092 46.8705C48.7176 46.7166 50.026 46.6011 50.988 46.4857C51.95 46.3702 52.6042 46.3702 52.6042 46.3702Z" fill="#384049"/>
<path d="M137.071 55.5674C137.071 55.5674 134.608 54.8747 130.876 53.7972C127.143 52.7582 122.217 51.3729 117.215 50.1415C107.21 47.7556 96.935 46.5242 96.935 46.5242V46.4473C96.935 46.4473 107.248 47.2554 117.369 49.4103C122.448 50.4109 127.451 51.7577 131.107 53.0661C134.762 54.3744 137.11 55.4519 137.11 55.4519L137.071 55.5674Z" fill="#384049"/>
<path d="M51.0266 42.8684C51.0266 42.8684 41.714 43.9844 32.5554 45.9854C23.4353 48.1404 14.3152 50.3338 14.3152 50.3338L14.2767 50.2569C14.2767 50.2569 16.4317 49.3333 19.818 48.2558C23.1659 47.1399 27.7452 46.0624 32.4015 45.2543C41.6371 43.4841 51.0266 42.7915 51.0266 42.7915V42.8684Z" fill="#384049"/>
<path d="M135.224 50.6801C135.224 50.6801 132.838 50.1029 129.26 49.2178C125.681 48.3328 120.909 47.1398 116.137 46.0624C106.517 43.9459 96.7041 42.8299 96.7041 42.8299V42.7529C96.7041 42.7529 106.555 43.4456 116.253 45.3312C121.101 46.1778 125.95 47.3322 129.452 48.5252C132.992 49.6796 135.263 50.6417 135.263 50.6417L135.224 50.6801Z" fill="#384049"/>
<path d="M44.1384 39.9823C44.1384 39.9823 37.0962 41.0598 30.1311 42.6376C26.6677 43.4457 23.2044 44.2923 20.5877 44.831C17.9709 45.3697 16.2008 45.6776 16.2008 45.6776L16.1623 45.6006C16.1623 45.6006 17.817 44.908 20.3952 44.0999C22.935 43.2917 26.4368 42.4836 29.9772 41.9064C37.0193 40.598 44.0999 39.9439 44.0999 39.9439L44.1384 39.9823Z" fill="#384049"/>
<path d="M132.723 45.7545C132.723 45.7545 130.26 45.2158 126.566 44.4462C122.872 43.6765 117.946 42.5606 113.02 41.5985C103.092 39.7129 93.0483 38.7894 93.0483 38.7894V38.7124C93.0483 38.7124 103.169 39.2127 113.136 40.8674C118.138 41.5985 123.102 42.6375 126.758 43.715C130.414 44.754 132.761 45.6776 132.761 45.6776L132.723 45.7545Z" fill="#384049"/>
<path d="M41.9449 36.519C41.9449 36.519 36.2112 37.481 30.5544 38.6739C27.7453 39.3281 24.8976 39.9438 22.7427 40.2902C20.5877 40.6365 19.1254 40.7904 19.1254 40.7904L19.0869 40.7135C19.0869 40.7135 20.4338 40.1362 22.5502 39.559C24.6282 38.9433 27.5144 38.3661 30.362 37.9428C36.1342 36.9423 41.9449 36.442 41.9449 36.442V36.519Z" fill="#384049"/>
<path d="M64.7644 34.5949C64.7644 34.5949 64.1487 34.6719 63.2251 34.7873C62.3016 34.8643 61.0317 34.9797 59.8003 35.0567C58.5304 35.0952 57.299 35.1337 56.3754 35.1722C55.4519 35.1722 54.7977 35.1722 54.7977 35.1722C54.7977 35.1722 55.4134 35.0567 56.337 34.9797C57.2605 34.9028 58.5304 34.7873 59.7618 34.7104C61.0317 34.6719 62.2631 34.6334 63.1867 34.5949C64.1487 34.5564 64.7644 34.5949 64.7644 34.5949Z" fill="#384049"/>
<path d="M69.767 34.441C69.767 34.4794 69.1513 34.5949 68.5356 34.6719C67.9199 34.6334 67.2657 34.5179 67.2657 34.4794C67.2657 34.441 67.8814 34.3255 68.4971 34.2486C69.1513 34.287 69.767 34.4025 69.767 34.441Z" fill="#384049"/>
<path d="M86.0062 34.6719C86.0062 34.6719 85.1596 34.7104 83.8512 34.7489C82.5814 34.7489 80.8497 34.7489 79.1565 34.7489C77.4633 34.6719 75.7316 34.6334 74.4617 34.5565C73.1919 34.4795 72.3453 34.4025 72.3453 34.4025C72.3453 34.4025 73.1919 34.364 74.5002 34.3256C75.7701 34.3256 77.5018 34.3256 79.195 34.3256C80.8882 34.4025 82.6198 34.441 83.8897 34.518C85.1596 34.5949 86.0062 34.6719 86.0062 34.6719Z" fill="#384049"/>
<path d="M129.914 40.9444C129.914 40.9444 119.639 39.0973 109.365 37.2502C99.0516 35.5955 88.6231 34.8643 88.6231 34.8643V34.7873C88.6231 34.7873 99.09 35.0952 109.48 36.519C114.675 37.1732 119.832 38.0968 123.641 39.0588C127.451 40.0208 129.952 40.8674 129.952 40.8674L129.914 40.9444Z" fill="#384049"/>
<path d="M62.6864 31.0546C62.6864 31.0546 52.4503 31.6318 42.3297 33.0556C32.209 34.5949 22.1269 36.0957 22.1269 36.0957V36.0187C22.1269 36.0187 24.5897 35.2491 28.3224 34.441C32.0551 33.5944 37.1347 32.8247 42.2527 32.3245C52.4503 31.17 62.6864 31.0161 62.6864 31.0161V31.0546Z" fill="#384049"/>
<path d="M127.797 36.4421C127.797 36.4421 123.872 35.7879 117.984 34.7873C112.058 33.9408 104.208 32.8248 96.2808 32.0552C80.4264 30.5159 64.4566 30.9777 64.4566 30.9777V30.9007C64.4566 30.9007 68.4202 30.6698 74.4233 30.6313C80.3879 30.5544 88.3921 30.7083 96.3578 31.324C104.323 31.8628 112.251 32.8633 118.1 34.1332C123.988 35.2491 127.836 36.3651 127.836 36.3651L127.797 36.4421Z" fill="#384049"/>
<path d="M68.5356 27.2834C68.5356 27.2834 57.7608 27.6682 47.1014 28.8611C36.4035 30.131 25.7442 31.4779 25.7442 31.4779V31.4009C25.7442 31.4009 28.3609 30.7082 32.3245 29.9386C36.2881 29.169 41.637 28.5148 47.0244 28.0915C57.7608 27.1295 68.5356 27.2064 68.5356 27.2064V27.2834Z" fill="#384049"/>
<path d="M84.1977 27.3219C84.1977 27.3219 83.3126 27.3604 82.0042 27.3989C80.6959 27.3989 78.9642 27.4373 77.2325 27.4373C75.5008 27.3989 73.7692 27.3219 72.4608 27.2834C71.1524 27.2064 70.3058 27.168 70.3058 27.168C70.3058 27.168 71.1909 27.1295 72.4993 27.091C73.8077 27.091 75.5393 27.0525 77.271 27.0525C79.0027 27.091 80.7343 27.168 82.0427 27.2064C83.3511 27.2834 84.1977 27.3219 84.1977 27.3219Z" fill="#384049"/>
<path d="M124.411 31.7858C124.411 31.7858 121.986 31.5934 118.408 31.0546C116.599 30.8237 114.521 30.4389 112.328 29.9772C110.096 29.5154 107.71 29.2075 105.285 29.0921C100.437 28.8612 95.6266 28.4764 92.0093 28.13C88.392 27.7837 86.0062 27.4374 86.0062 27.4374V27.3604C86.0062 27.3604 88.4305 27.2065 92.0863 27.2834C95.7035 27.3604 100.552 27.7837 105.362 28.5918C110.134 29.5154 115.021 29.4769 118.562 30.285C122.14 30.9392 124.449 31.7088 124.449 31.7088L124.411 31.7858Z" fill="#384049"/>
<path d="M56.2215 24.1279C56.2215 24.1279 49.7566 24.9745 43.3302 25.8211C40.0978 26.2829 36.8653 26.6292 34.441 26.7446C31.9782 26.8601 30.3235 26.8216 30.3235 26.8216V26.7446C30.3235 26.7446 31.9012 26.3598 34.3255 25.975C36.7499 25.5902 39.9823 25.2824 43.2148 25.0515C49.7182 24.5512 56.1831 24.0125 56.1831 24.0125L56.2215 24.1279Z" fill="#384049"/>
<path d="M69.767 23.5892C69.767 23.5892 69.0359 23.6661 67.9199 23.7431C66.8039 23.8201 65.3416 23.897 63.8794 23.974C62.4171 23.974 60.9163 24.0125 59.8003 24.0125C58.6843 23.974 57.9532 23.974 57.9532 23.974C57.9532 23.974 58.6843 23.897 59.8003 23.8201C60.9163 23.7431 62.3786 23.6661 63.8409 23.5892C65.3032 23.5892 66.8039 23.5507 67.9199 23.5507C69.0359 23.5507 69.767 23.5892 69.767 23.5892Z" fill="#384049"/>
<path d="M119.639 27.0526C119.639 27.0526 108.056 25.8981 96.5117 24.7437C84.9287 23.7047 73.2688 23.5892 73.2688 23.5892V23.5122C73.2688 23.5122 84.9287 23.2044 96.5501 23.974C102.361 24.2819 108.172 24.8591 112.481 25.5903C116.791 26.2829 119.639 26.9756 119.639 26.9756V27.0526Z" fill="#384049"/>
<path d="M68.7665 20.0104C68.7665 20.0104 60.493 20.3183 52.2579 21.0494C48.1404 21.4342 44.0229 21.8575 40.9443 22.0114C37.8658 22.2038 35.7878 22.2808 35.7878 22.2808V22.2038C35.7878 22.2038 37.8273 21.7421 40.9058 21.2803C43.9844 20.8185 48.1019 20.4722 52.2579 20.2798C60.5314 19.818 68.805 19.9334 68.805 19.9334L68.7665 20.0104Z" fill="#384049"/>
<path d="M112.943 22.3193C112.943 22.3193 110.711 22.2039 107.325 22.0114C103.977 21.819 99.5132 21.3573 95.0494 20.9724C86.1216 20.2413 77.117 19.9719 77.117 19.9719V19.895C77.117 19.895 86.1216 19.741 95.0878 20.2028C99.5902 20.3952 104.054 20.7416 107.402 21.2418C110.75 21.7036 112.943 22.2039 112.943 22.2039V22.3193Z" fill="#384049"/>
<path d="M107.171 17.9324C107.171 17.9324 103.092 17.74 96.9735 17.4707C93.9335 17.3167 90.3547 17.0858 86.545 16.8165C82.7354 16.5086 78.6563 16.5471 74.5773 16.5856C58.2611 17.2398 41.9449 17.8939 41.9449 17.8939V17.817C41.9449 17.817 45.9855 17.1628 52.1041 16.6625C58.2226 16.0853 66.4192 15.8159 74.5773 16.0853C78.6563 16.2008 82.7354 16.3547 86.5835 16.3162C90.4317 16.3162 94.0105 16.4316 97.0505 16.701C103.169 17.1628 107.21 17.8555 107.21 17.8555L107.171 17.9324Z" fill="#384049"/>
<path d="M98.4742 13.507C98.4742 13.507 95.5881 13.5839 91.3167 13.4685C89.1617 13.43 86.6604 13.2761 83.9667 13.0837C81.273 12.8528 78.4254 12.8143 75.5392 12.9682C69.8055 13.2376 64.0717 13.353 59.8003 13.3915C55.4904 13.43 52.6427 13.353 52.6427 13.353V13.2761C52.6427 13.2761 55.4904 12.8528 59.8003 12.5449C64.1102 12.2371 69.844 12.1216 75.5777 12.4295C78.4638 12.5834 81.3115 12.6219 84.0052 12.5449C86.6989 12.468 89.2002 12.5065 91.3552 12.6604C95.6651 12.9297 98.5127 13.3915 98.5127 13.3915L98.4742 13.507Z" fill="#384049"/>
</svg>
