<svg width="756" height="138" fill="none" xmlns="http://www.w3.org/2000/svg"><path fill-rule="evenodd" clip-rule="evenodd" d="M36.528 120.617l-.106-.116c-11.146-12.055-16.336-32.086-16.336-51.443 0-19.356 5.19-39.388 16.336-51.442l.106-.115.115-.106C48.697 6.249 68.73 1.059 88.085 1.059c19.357 0 39.388 5.19 51.444 16.336l.115.106.106.115c11.146 12.054 16.336 32.086 16.336 51.442 0 19.357-5.19 39.388-16.336 51.443l-.106.116-.115.106c-12.055 11.146-32.087 16.336-51.443 16.336-19.356 0-39.388-5.19-51.443-16.336l-.115-.106zm2.83-100.285c-20.363 22.023-20.363 75.429 0 97.454 22.026 20.364 75.43 20.364 97.455 0 20.364-22.025 20.364-75.43 0-97.454-22.025-20.364-75.43-20.364-97.454 0z" fill="#fff"/><path d="M75.239 110.059h3.28c1.922 0 3.262-.903 3.262-2.611 0-1.231-.69-2.126-2.017-2.311v-.048c.882-.28 1.477-.943 1.477-2.064 0-1.45-1.04-2.297-2.564-2.297H75.24v9.331zm1.087-8.347h2.194c.902 0 1.613.444 1.613 1.497 0 1.128-.8 1.559-2.345 1.559h-1.462v-3.056zm0 4.04h2.33c1.183 0 2.01.554 2.01 1.723 0 1.36-1.155 1.593-2.68 1.593h-1.66v-3.316zM84.698 100.728v9.331h1.087v-3.596h2.256c1.743 0 2.94-1.121 2.94-2.864 0-1.73-1.197-2.871-2.94-2.871h-3.343zm1.087.984H88c1.182 0 1.86.697 1.86 1.887 0 1.579-.958 1.887-2.612 1.887h-1.463v-3.774zM94.677 110.059v-6.952h.055l2.68 6.234h.977l2.673-6.234h.061v6.952h.991v-9.331h-1.052l-3.138 7.471h-.041l-3.151-7.471h-1.046v9.331h.991zM2.16 9.434c0-4.649 1.695-7.506 4.389-7.506 2.693 0 4.388 2.857 4.388 7.506v.615c0 4.649-1.695 7.479-4.388 7.479-2.694 0-4.389-2.83-4.389-7.479v-.615zM0 10.076c0 5.66 2.379 9.38 6.549 9.38 4.183 0 6.535-3.72 6.535-9.38V9.42c0-5.674-2.352-9.42-6.521-9.42C2.378 0 0 3.76 0 9.42v.656zM23.871 19.059V.397h-2.146L17.28 3.719v2.283l4.334-3.158h.11v16.215h2.146zM68.283 57.066v2.912h14.192v.225L70.888 85.06h3.424L85.797 60.12v-3.055H68.283zM94.328 64.695v-.103c0-2.789 1.99-5.25 5.414-5.25 3.015 0 5.271 1.887 5.271 4.963 0 2.625-1.661 4.614-3.22 6.398L91.17 82.987v2.072h17.719v-2.912H95.866v-.226l7.752-8.962c2.687-3.097 4.737-5.455 4.737-8.86 0-4.367-3.383-7.628-8.53-7.628-5.64 0-8.696 3.876-8.696 8.121v.103h3.2z" fill="#fff"/><path fill-rule="evenodd" clip-rule="evenodd" d="M96.648 27.871c-2.133-1.392-4.99-.927-6.79.874l-.372.372a.567.567 0 0 1-.8 0l-.372-.372c-1.802-1.8-4.658-2.266-6.79-.874-2.922 1.907-3.218 5.908-.887 8.238l7.415 7.415a1.461 1.461 0 0 0 2.067 0l7.415-7.415c2.331-2.33 2.035-6.33-.886-8.238" fill="#00BFD6"/><path fill-rule="evenodd" clip-rule="evenodd" d="M298.648 27.871c-2.133-1.392-4.99-.927-6.791.874l-.371.372a.567.567 0 0 1-.801 0l-.371-.372c-1.802-1.8-4.658-2.266-6.791-.874-2.921 1.907-3.217 5.908-.886 8.238l7.415 7.415a1.461 1.461 0 0 0 2.067 0l7.415-7.415c2.331-2.33 2.035-6.33-.886-8.238" fill="#FFB819"/><path fill-rule="evenodd" clip-rule="evenodd" d="M238.528 120.617l-.106-.116c-11.146-12.055-16.336-32.086-16.336-51.443 0-19.356 5.19-39.388 16.336-51.442l.106-.115.115-.106c12.055-11.146 32.086-16.336 51.442-16.336 19.357 0 39.388 5.19 51.444 16.336l.115.106.106.115c11.146 12.054 16.336 32.086 16.336 51.442 0 19.357-5.19 39.388-16.336 51.443l-.106.116-.115.106c-12.055 11.146-32.087 16.336-51.443 16.336-19.356 0-39.388-5.19-51.443-16.336l-.115-.106zm2.831-100.285c-20.364 22.023-20.364 75.429 0 97.454 22.025 20.364 75.429 20.364 97.454 0 20.364-22.025 20.364-75.43 0-97.454-22.025-20.364-75.43-20.364-97.454 0z" fill="#fff"/><path d="M277.239 110.059h3.281c1.921 0 3.261-.903 3.261-2.611 0-1.231-.691-2.126-2.017-2.311v-.048c.882-.28 1.477-.943 1.477-2.064 0-1.45-1.04-2.297-2.564-2.297h-3.438v9.331zm1.087-8.347h2.194c.902 0 1.613.444 1.613 1.497 0 1.128-.8 1.559-2.345 1.559h-1.462v-3.056zm0 4.04h2.331c1.182 0 2.009.554 2.009 1.723 0 1.36-1.155 1.593-2.679 1.593h-1.661v-3.316zM286.698 100.728v9.331h1.087v-3.596h2.256c1.743 0 2.939-1.121 2.939-2.864 0-1.73-1.196-2.871-2.939-2.871h-3.343zm1.087.984H290c1.182 0 1.859.697 1.859 1.887 0 1.579-.957 1.887-2.611 1.887h-1.463v-3.774zM296.677 110.059v-6.952h.055l2.679 6.234h.978l2.673-6.234h.061v6.952h.991v-9.331h-1.052l-3.138 7.471h-.041l-3.151-7.471h-1.046v9.331h.991zM204.16 9.434c0-4.649 1.695-7.506 4.389-7.506 2.693 0 4.389 2.857 4.389 7.506v.615c0 4.649-1.696 7.479-4.389 7.479-2.694 0-4.389-2.83-4.389-7.479v-.615zm-2.16.642c0 5.66 2.379 9.38 6.549 9.38 4.183 0 6.535-3.72 6.535-9.38V9.42c0-5.674-2.352-9.42-6.522-9.42C204.379 0 202 3.76 202 9.42v.656zM221.195 5.483v-.069c0-1.86 1.326-3.5 3.61-3.5 2.009 0 3.513 1.258 3.513 3.309 0 1.75-1.107 3.076-2.146 4.266l-7.082 8.189v1.38h11.812v-1.94h-8.681v-.151l5.168-5.975c1.791-2.064 3.158-3.636 3.158-5.906 0-2.912-2.256-5.086-5.688-5.086-3.759 0-5.797 2.584-5.797 5.414v.069h2.133zM273.318 85.059V57.066h-3.219l-6.665 4.983v3.425l6.501-4.737h.164v24.322h3.219zM292.227 85.059V57.066h-3.22l-6.665 4.983v3.425l6.501-4.737h.164v24.322h3.22zM304.121 64.695v-.103c0-2.789 1.989-5.25 5.414-5.25 3.015 0 5.271 1.887 5.271 4.963 0 2.625-1.661 4.614-3.22 6.398l-10.623 12.284v2.072h17.719v-2.912h-13.023v-.226l7.752-8.962c2.687-3.097 4.737-5.455 4.737-8.86 0-4.367-3.383-7.628-8.531-7.628-5.639 0-8.695 3.876-8.695 8.121v.103h3.199z" fill="#fff"/><path fill-rule="evenodd" clip-rule="evenodd" d="M315.599 22.603a2.082 2.082 0 0 1-.125-.062 52.992 52.992 0 0 0-64.93 11.234 53.002 53.002 0 0 0-12.488 45.354 53 53 0 0 0 50.028 42.887c.047.002.093.005.139.01h.001c1.04.109 1.862.972 1.862 2.03 0 1.106-.897 2.007-2.002 1.968a57.01 57.01 0 0 1-43.338-22.422 56.999 56.999 0 0 1 72.78-84.504c.969.533 1.279 1.765.713 2.715-.542.91-1.69 1.23-2.639.791h-.001zM44.426 39.012c-.024.04-.049.08-.075.118a52.995 52.995 0 0 0 41.733 82.886c.047.002.093.005.139.01h.001c1.04.109 1.862.972 1.862 2.03 0 1.106-.897 2.007-2.002 1.968a57.004 57.004 0 0 1-48.909-31.332 57 57 0 0 1 3.957-57.949c.627-.91 1.884-1.095 2.772-.437.85.63 1.055 1.805.523 2.705l-.001.001z" fill="#fff"/><path fill-rule="evenodd" clip-rule="evenodd" d="M493.648 27.871c-2.133-1.392-4.99-.927-6.791.874l-.371.372a.567.567 0 0 1-.801 0l-.371-.372c-1.802-1.8-4.658-2.266-6.791-.874-2.921 1.907-3.217 5.908-.886 8.238l7.415 7.415a1.461 1.461 0 0 0 2.067 0l7.415-7.415c2.331-2.33 2.035-6.33-.886-8.238" fill="#FD7609"/><path fill-rule="evenodd" clip-rule="evenodd" d="M433.528 120.617l-.106-.116c-11.146-12.055-16.336-32.086-16.336-51.443 0-19.356 5.19-39.388 16.336-51.442l.106-.115.115-.106c12.055-11.146 32.086-16.336 51.442-16.336 19.357 0 39.388 5.19 51.444 16.336l.115.106.106.115c11.146 12.054 16.336 32.086 16.336 51.442 0 19.357-5.19 39.388-16.336 51.443l-.106.116-.115.106c-12.055 11.146-32.087 16.336-51.443 16.336-19.356 0-39.388-5.19-51.443-16.336l-.115-.106zm2.831-100.285c-20.364 22.023-20.364 75.429 0 97.454 22.025 20.364 75.429 20.364 97.454 0 20.364-22.025 20.364-75.43 0-97.454-22.025-20.364-75.43-20.364-97.454 0z" fill="#fff"/><path d="M472.239 110.059h3.281c1.921 0 3.261-.903 3.261-2.611 0-1.231-.691-2.126-2.017-2.311v-.048c.882-.28 1.477-.943 1.477-2.064 0-1.45-1.04-2.297-2.564-2.297h-3.438v9.331zm1.087-8.347h2.194c.902 0 1.613.444 1.613 1.497 0 1.128-.8 1.559-2.345 1.559h-1.462v-3.056zm0 4.04h2.331c1.182 0 2.009.554 2.009 1.723 0 1.36-1.155 1.593-2.679 1.593h-1.661v-3.316zM481.698 100.728v9.331h1.087v-3.596h2.256c1.743 0 2.939-1.121 2.939-2.864 0-1.73-1.196-2.871-2.939-2.871h-3.343zm1.087.984H485c1.182 0 1.859.697 1.859 1.887 0 1.579-.957 1.887-2.611 1.887h-1.463v-3.774zM491.677 110.059v-6.952h.055l2.679 6.234h.978l2.673-6.234h.061v6.952h.991v-9.331h-1.052l-3.138 7.471h-.041l-3.151-7.471h-1.046v9.331h.991zM399.16 9.434c0-4.649 1.695-7.506 4.389-7.506 2.693 0 4.389 2.857 4.389 7.506v.615c0 4.649-1.696 7.479-4.389 7.479-2.694 0-4.389-2.83-4.389-7.479v-.615zm-2.16.642c0 5.66 2.379 9.38 6.549 9.38 4.183 0 6.535-3.72 6.535-9.38V9.42c0-5.674-2.352-9.42-6.522-9.42C399.379 0 397 3.76 397 9.42v.656zM417.713 10.405h2.023c2.366 0 4.047 1.394 4.075 3.513.027 2.106-1.627 3.65-4.211 3.637-2.243-.014-3.842-1.217-4.02-2.72h-2.064c.15 2.597 2.447 4.634 6.015 4.634 3.869 0 6.563-2.393 6.494-5.578-.068-3.035-2.556-4.334-4.087-4.512v-.123c1.421-.246 3.527-1.873 3.445-4.512-.082-2.666-2.324-4.771-5.783-4.744-3.637.028-5.524 2.338-5.592 4.58h2.092c.123-1.422 1.476-2.666 3.513-2.666 2.106 0 3.541 1.313 3.555 3.2.014 1.955-1.518 3.35-3.541 3.35h-1.914v1.94zM464.545 85.059V57.066h-3.22l-6.665 4.983v3.425l6.501-4.737h.164v24.322h3.22zM484.191 57.066c-4.06 6.398-8.326 12.776-11.874 19.133v2.954h13.618v5.906h3.137v-5.906h3.692V76.22h-3.692V57.066h-4.881zm-8.51 19.154v-.205c3.035-5.25 6.685-10.992 10.069-15.996h.185V76.22h-10.254zM500.639 70.621c0-6.972 2.543-11.258 6.583-11.258s6.583 4.286 6.583 11.258v.923c0 6.973-2.543 11.218-6.583 11.218s-6.583-4.245-6.583-11.218v-.923zm-3.241.964c0 8.49 3.569 14.069 9.824 14.069 6.275 0 9.802-5.579 9.802-14.069v-.984c0-8.51-3.527-14.13-9.782-14.13-6.275 0-9.844 5.64-9.844 14.13v.984z" fill="#fff"/><path fill-rule="evenodd" clip-rule="evenodd" d="M523.857 105.195c.029-.036.06-.071.091-.105a52.994 52.994 0 0 0-23.478-86.745 52.995 52.995 0 1 0-17.386 103.671c.046.002.093.005.138.01h.002c1.04.109 1.862.972 1.862 2.03 0 1.106-.897 2.007-2.002 1.968a57.004 57.004 0 0 1-53.903-45.845 57.007 57.007 0 0 1 5.635-37.99 57.005 57.005 0 0 1 66.816-27.676 57 57 0 0 1 25.15 93.41c-.754.809-2.025.807-2.807.025-.748-.749-.777-1.94-.119-2.752l.001-.001z" fill="#fff"/><path fill-rule="evenodd" clip-rule="evenodd" d="M695.648 27.871c-2.133-1.392-4.99-.927-6.791.874l-.371.372a.567.567 0 0 1-.801 0l-.371-.372c-1.802-1.8-4.658-2.266-6.791-.874-2.921 1.907-3.217 5.908-.886 8.238l7.415 7.415a1.461 1.461 0 0 0 2.067 0l7.415-7.415c2.331-2.33 2.035-6.33-.886-8.238" fill="#FA3535"/><path fill-rule="evenodd" clip-rule="evenodd" d="M635.528 120.617l-.106-.116c-11.146-12.055-16.336-32.086-16.336-51.443 0-19.356 5.19-39.388 16.336-51.442l.106-.115.115-.106c12.055-11.146 32.086-16.336 51.442-16.336 19.357 0 39.388 5.19 51.444 16.336l.115.106.106.115c11.146 12.054 16.336 32.086 16.336 51.442 0 19.357-5.19 39.388-16.336 51.443l-.106.116-.115.106c-12.055 11.146-32.087 16.336-51.443 16.336-19.356 0-39.388-5.19-51.443-16.336l-.115-.106zm2.831-100.285c-20.364 22.023-20.364 75.429 0 97.454 22.025 20.364 75.429 20.364 97.454 0 20.364-22.025 20.364-75.43 0-97.454-22.025-20.364-75.43-20.364-97.454 0z" fill="#fff"/><path d="M674.239 110.059h3.281c1.921 0 3.261-.903 3.261-2.611 0-1.231-.691-2.126-2.017-2.311v-.048c.882-.28 1.477-.943 1.477-2.064 0-1.45-1.039-2.297-2.564-2.297h-3.438v9.331zm1.087-8.347h2.194c.902 0 1.613.444 1.613 1.497 0 1.128-.8 1.559-2.345 1.559h-1.462v-3.056zm0 4.04h2.331c1.182 0 2.009.554 2.009 1.723 0 1.36-1.155 1.593-2.679 1.593h-1.661v-3.316zM683.698 100.728v9.331h1.087v-3.596h2.256c1.743 0 2.939-1.121 2.939-2.864 0-1.73-1.196-2.871-2.939-2.871h-3.343zm1.087.984H687c1.182 0 1.859.697 1.859 1.887 0 1.579-.957 1.887-2.611 1.887h-1.463v-3.774zM693.677 110.059v-6.952h.055l2.679 6.234h.978l2.673-6.234h.061v6.952h.992v-9.331h-1.053l-3.138 7.471h-.041l-3.151-7.471h-1.046v9.331h.991zM601.16 9.434c0-4.649 1.695-7.506 4.389-7.506 2.693 0 4.389 2.857 4.389 7.506v.615c0 4.649-1.696 7.479-4.389 7.479-2.694 0-4.389-2.83-4.389-7.479v-.615zm-2.16.642c0 5.66 2.379 9.38 6.549 9.38 4.183 0 6.535-3.72 6.535-9.38V9.42c0-5.674-2.352-9.42-6.522-9.42C601.379 0 599 3.76 599 9.42v.656zM623.363.397c-2.707 4.265-5.551 8.517-7.916 12.756v1.968h9.078v3.938h2.092V15.12h2.461v-1.955h-2.461V.396h-3.254zm-5.674 12.77v-.137c2.024-3.5 4.457-7.329 6.713-10.665h.123v10.801h-6.836zM669.149 85.059V57.066h-3.219l-6.665 4.983v3.425l6.501-4.737h.164v24.322h3.219zM677.229 57.066v2.912h14.192v.225L679.834 85.06h3.425l11.484-24.938v-3.055h-17.514zM708.976 57.066c-4.061 6.398-8.327 12.776-11.874 19.133v2.954h13.617v5.906h3.137v-5.906h3.692V76.22h-3.692V57.066h-4.88zm-8.511 19.154v-.205c3.035-5.25 6.685-10.992 10.069-15.996h.185V76.22h-10.254z" fill="#fff"/><path fill-rule="evenodd" clip-rule="evenodd" d="M687.086 126.059c31.48 0 57-25.52 57-57s-25.52-57-57-57-57 25.52-57 57 25.52 57 57 57zm0-4.005c-29.269 0-52.995-23.727-52.995-52.995 0-29.269 23.726-52.995 52.995-52.995 29.268 0 52.995 23.726 52.995 52.995 0 29.268-23.727 52.995-52.995 52.995z" fill="#fff"/></svg>