<svg width="460" height="360" viewBox="0 0 460 360" fill="none" xmlns="http://www.w3.org/2000/svg">
<rect width="460" height="360" fill="url(#paint0_radial)"/>
<g opacity="0.8">
<path opacity="0.3008" fill-rule="evenodd" clip-rule="evenodd" d="M388 281.126C387.859 262.621 317.122 247.61 230 247.61C142.791 247.61 72 262.654 72 281.181H388V281.126Z" fill="#8EA9AD"/>
<path d="M184.357 160.101H181.726V237.083H184.357V160.101Z" fill="#7BA6AA"/>
<path d="M278.524 160.101H275.893V237.083H278.524V160.101Z" fill="#7BA6AA"/>
<path fill-rule="evenodd" clip-rule="evenodd" d="M152.892 214.028C153.566 214.028 154.121 214.583 154.121 215.258C154.121 215.933 153.566 216.488 152.892 216.488C152.218 216.488 151.663 215.933 151.663 215.258C151.653 214.583 152.207 214.028 152.892 214.028ZM152.892 217.893C152.892 217.893 154.121 219.917 154.121 222.41C154.121 224.903 152.892 226.928 152.892 226.928C152.892 226.928 151.663 224.903 151.663 222.41C151.653 219.917 152.892 217.893 152.892 217.893ZM155.143 230.041H154.11C154.099 229.366 153.555 228.832 152.881 228.832C152.218 228.832 151.674 229.366 151.653 230.041H150.62V212.798H155.132V230.041H155.143Z" fill="#7BA6AA"/>
<path fill-rule="evenodd" clip-rule="evenodd" d="M157.175 214.028C157.85 214.028 158.404 214.583 158.404 215.258C158.404 215.933 157.85 216.488 157.175 216.488C156.501 216.488 155.947 215.933 155.947 215.258C155.947 214.583 156.49 214.028 157.175 214.028ZM157.175 217.893C157.175 217.893 158.404 219.917 158.404 222.41C158.404 224.903 157.175 226.928 157.175 226.928C157.175 226.928 155.947 224.903 155.947 222.41C155.947 219.917 157.175 217.893 157.175 217.893ZM159.426 230.041H158.393C158.382 229.366 157.839 228.832 157.165 228.832C156.501 228.832 155.958 229.366 155.936 230.041H154.903V212.798H159.415V230.041H159.426Z" fill="#7BA6AA"/>
<path fill-rule="evenodd" clip-rule="evenodd" d="M161.459 214.028C162.134 214.028 162.688 214.583 162.688 215.258C162.688 215.933 162.134 216.488 161.459 216.488C160.785 216.488 160.231 215.933 160.231 215.258C160.231 214.583 160.775 214.028 161.459 214.028ZM161.459 217.893C161.459 217.893 162.688 219.917 162.688 222.41C162.688 224.903 161.459 226.928 161.459 226.928C161.459 226.928 160.231 224.903 160.231 222.41C160.231 219.917 161.459 217.893 161.459 217.893ZM163.71 230.041H162.677C162.655 229.366 162.123 228.832 161.449 228.832C160.785 228.832 160.242 229.366 160.22 230.041H159.198V212.798H163.71V230.041Z" fill="#7BA6AA"/>
<path fill-rule="evenodd" clip-rule="evenodd" d="M165.743 214.028C166.417 214.028 166.972 214.583 166.972 215.258C166.972 215.933 166.417 216.488 165.743 216.488C165.069 216.488 164.514 215.933 164.514 215.258C164.514 214.583 165.058 214.028 165.743 214.028ZM165.743 217.893C165.743 217.893 166.972 219.917 166.972 222.41C166.972 224.903 165.743 226.928 165.743 226.928C165.743 226.928 164.514 224.903 164.514 222.41C164.514 219.917 165.743 217.893 165.743 217.893ZM167.994 230.041H166.961C166.95 229.366 166.406 228.832 165.732 228.832C165.069 228.832 164.525 229.366 164.504 230.041H163.471V212.798H167.983V230.041H167.994Z" fill="#7BA6AA"/>
<path fill-rule="evenodd" clip-rule="evenodd" d="M170.027 214.028C170.701 214.028 171.256 214.583 171.256 215.258C171.256 215.933 170.701 216.488 170.027 216.488C169.353 216.488 168.798 215.933 168.798 215.258C168.798 214.583 169.342 214.028 170.027 214.028ZM170.027 217.893C170.027 217.893 171.256 219.917 171.256 222.41C171.256 224.903 170.027 226.928 170.027 226.928C170.027 226.928 168.798 224.903 168.798 222.41C168.798 219.917 170.027 217.893 170.027 217.893ZM172.278 230.041H171.245C171.234 229.366 170.69 228.832 170.016 228.832C169.353 228.832 168.809 229.366 168.788 230.041H167.755V212.798H172.267V230.041H172.278Z" fill="#7BA6AA"/>
<path fill-rule="evenodd" clip-rule="evenodd" d="M174.311 214.028C174.985 214.028 175.539 214.583 175.539 215.258C175.539 215.933 174.985 216.488 174.311 216.488C173.637 216.488 173.082 215.933 173.082 215.258C173.082 214.583 173.626 214.028 174.311 214.028ZM174.311 217.893C174.311 217.893 175.539 219.917 175.539 222.41C175.539 224.903 174.311 226.928 174.311 226.928C174.311 226.928 173.082 224.903 173.082 222.41C173.082 219.917 174.311 217.893 174.311 217.893ZM176.561 230.041H175.528C175.518 229.366 174.974 228.832 174.3 228.832C173.637 228.832 173.093 229.366 173.071 230.041H172.038V212.798H176.55V230.041H176.561Z" fill="#7BA6AA"/>
<path fill-rule="evenodd" clip-rule="evenodd" d="M178.594 214.028C179.268 214.028 179.823 214.583 179.823 215.258C179.823 215.933 179.268 216.488 178.594 216.488C177.92 216.488 177.366 215.933 177.366 215.258C177.366 214.583 177.909 214.028 178.594 214.028ZM178.594 217.893C178.594 217.893 179.823 219.917 179.823 222.41C179.823 224.903 178.594 226.928 178.594 226.928C178.594 226.928 177.366 224.903 177.366 222.41C177.366 219.917 178.594 217.893 178.594 217.893ZM180.845 230.041H179.812C179.801 229.366 179.258 228.832 178.584 228.832C177.92 228.832 177.377 229.366 177.355 230.041H176.322V212.798H180.834V230.041H180.845Z" fill="#7BA6AA"/>
<path fill-rule="evenodd" clip-rule="evenodd" d="M182.878 214.028C183.553 214.028 184.107 214.583 184.107 215.258C184.107 215.933 183.553 216.488 182.878 216.488C182.204 216.488 181.65 215.933 181.65 215.258C181.65 214.583 182.193 214.028 182.878 214.028ZM182.878 217.893C182.878 217.893 184.107 219.917 184.107 222.41C184.107 224.903 182.878 226.928 182.878 226.928C182.878 226.928 181.65 224.903 181.65 222.41C181.65 219.917 182.878 217.893 182.878 217.893ZM185.129 230.041H184.096C184.085 229.366 183.542 228.832 182.868 228.832C182.204 228.832 181.661 229.366 181.639 230.041H180.617V212.798H185.129V230.041Z" fill="#7BA6AA"/>
<path fill-rule="evenodd" clip-rule="evenodd" d="M187.162 214.028C187.836 214.028 188.391 214.583 188.391 215.258C188.391 215.933 187.836 216.488 187.162 216.488C186.488 216.488 185.934 215.933 185.934 215.258C185.934 214.583 186.477 214.028 187.162 214.028ZM187.162 217.893C187.162 217.893 188.391 219.917 188.391 222.41C188.391 224.903 187.162 226.928 187.162 226.928C187.162 226.928 185.934 224.903 185.934 222.41C185.934 219.917 187.162 217.893 187.162 217.893ZM189.413 230.041H188.38C188.369 229.366 187.825 228.832 187.151 228.832C186.477 228.832 185.945 229.366 185.923 230.041H184.89V212.798H189.402V230.041H189.413Z" fill="#7BA6AA"/>
<path fill-rule="evenodd" clip-rule="evenodd" d="M191.446 214.028C192.12 214.028 192.675 214.583 192.675 215.258C192.675 215.933 192.12 216.488 191.446 216.488C190.772 216.488 190.217 215.933 190.217 215.258C190.217 214.583 190.761 214.028 191.446 214.028ZM191.446 217.893C191.446 217.893 192.675 219.917 192.675 222.41C192.675 224.903 191.446 226.928 191.446 226.928C191.446 226.928 190.217 224.903 190.217 222.41C190.217 219.917 191.446 217.893 191.446 217.893ZM193.697 230.041H192.664C192.653 229.366 192.109 228.832 191.435 228.832C190.772 228.832 190.228 229.366 190.206 230.041H189.174V212.798H193.686V230.041H193.697Z" fill="#7BA6AA"/>
<path fill-rule="evenodd" clip-rule="evenodd" d="M195.73 214.028C196.404 214.028 196.958 214.583 196.958 215.258C196.958 215.933 196.404 216.488 195.73 216.488C195.056 216.488 194.501 215.933 194.501 215.258C194.501 214.583 195.045 214.028 195.73 214.028ZM195.73 217.893C195.73 217.893 196.958 219.917 196.958 222.41C196.958 224.903 195.73 226.928 195.73 226.928C195.73 226.928 194.501 224.903 194.501 222.41C194.501 219.917 195.73 217.893 195.73 217.893ZM197.98 230.041H196.947C196.937 229.366 196.393 228.832 195.719 228.832C195.056 228.832 194.512 229.366 194.49 230.041H193.457V212.798H197.969V230.041H197.98Z" fill="#7BA6AA"/>
<path fill-rule="evenodd" clip-rule="evenodd" d="M200.013 214.028C200.687 214.028 201.242 214.583 201.242 215.258C201.242 215.933 200.687 216.488 200.013 216.488C199.339 216.488 198.785 215.933 198.785 215.258C198.785 214.583 199.328 214.028 200.013 214.028ZM200.013 217.893C200.013 217.893 201.242 219.917 201.242 222.41C201.242 224.903 200.013 226.928 200.013 226.928C200.013 226.928 198.785 224.903 198.785 222.41C198.785 219.917 200.013 217.893 200.013 217.893ZM202.264 230.041H201.231C201.22 229.366 200.677 228.832 200.002 228.832C199.328 228.832 198.796 229.366 198.774 230.041H197.741V212.798H202.253V230.041H202.264Z" fill="#7BA6AA"/>
<path fill-rule="evenodd" clip-rule="evenodd" d="M204.297 214.028C204.971 214.028 205.526 214.583 205.526 215.258C205.526 215.933 204.971 216.488 204.297 216.488C203.623 216.488 203.069 215.933 203.069 215.258C203.069 214.583 203.612 214.028 204.297 214.028ZM204.297 217.893C204.297 217.893 205.526 219.917 205.526 222.41C205.526 224.903 204.297 226.928 204.297 226.928C204.297 226.928 203.069 224.903 203.069 222.41C203.069 219.917 204.297 217.893 204.297 217.893ZM206.548 230.041H205.515C205.493 229.366 204.95 228.832 204.286 228.832C203.623 228.832 203.08 229.366 203.058 230.041H202.025V212.798H206.537V230.041H206.548Z" fill="#7BA6AA"/>
<path fill-rule="evenodd" clip-rule="evenodd" d="M208.581 214.028C209.255 214.028 209.81 214.583 209.81 215.258C209.81 215.933 209.255 216.488 208.581 216.488C207.907 216.488 207.353 215.933 207.353 215.258C207.353 214.583 207.896 214.028 208.581 214.028ZM208.581 217.893C208.581 217.893 209.81 219.917 209.81 222.41C209.81 224.903 208.581 226.928 208.581 226.928C208.581 226.928 207.353 224.903 207.353 222.41C207.353 219.917 208.581 217.893 208.581 217.893ZM210.832 230.041H209.799C209.777 229.366 209.234 228.832 208.57 228.832C207.907 228.832 207.363 229.366 207.342 230.041H206.309V212.798H210.821V230.041H210.832Z" fill="#7BA6AA"/>
<path fill-rule="evenodd" clip-rule="evenodd" d="M212.865 214.028C213.539 214.028 214.093 214.583 214.093 215.258C214.093 215.933 213.539 216.488 212.865 216.488C212.191 216.488 211.636 215.933 211.636 215.258C211.636 214.583 212.18 214.028 212.865 214.028ZM212.865 217.893C212.865 217.893 214.093 219.917 214.093 222.41C214.093 224.903 212.865 226.928 212.865 226.928C212.865 226.928 211.636 224.903 211.636 222.41C211.636 219.917 212.865 217.893 212.865 217.893ZM215.115 230.041H214.082C214.061 229.366 213.517 228.832 212.854 228.832C212.191 228.832 211.647 229.366 211.625 230.041H210.592V212.798H215.104V230.041H215.115Z" fill="#7BA6AA"/>
<path fill-rule="evenodd" clip-rule="evenodd" d="M217.149 214.028C217.823 214.028 218.377 214.583 218.377 215.258C218.377 215.933 217.823 216.488 217.149 216.488C216.474 216.488 215.92 215.933 215.92 215.258C215.92 214.583 216.464 214.028 217.149 214.028ZM217.149 217.893C217.149 217.893 218.377 219.917 218.377 222.41C218.377 224.903 217.149 226.928 217.149 226.928C217.149 226.928 215.92 224.903 215.92 222.41C215.92 219.917 217.149 217.893 217.149 217.893ZM219.399 230.041H218.366C218.345 229.366 217.801 228.832 217.138 228.832C216.474 228.832 215.931 229.366 215.909 230.041H214.876V212.798H219.388V230.041H219.399Z" fill="#7BA6AA"/>
<path fill-rule="evenodd" clip-rule="evenodd" d="M221.433 214.028C222.107 214.028 222.661 214.583 222.661 215.258C222.661 215.933 222.107 216.488 221.433 216.488C220.758 216.488 220.204 215.933 220.204 215.258C220.204 214.583 220.748 214.028 221.433 214.028ZM221.433 217.893C221.433 217.893 222.661 219.917 222.661 222.41C222.661 224.903 221.433 226.928 221.433 226.928C221.433 226.928 220.204 224.903 220.204 222.41C220.204 219.917 221.433 217.893 221.433 217.893ZM223.683 230.041H222.65C222.628 229.366 222.085 228.832 221.422 228.832C220.758 228.832 220.215 229.366 220.193 230.041H219.16V212.798H223.672V230.041H223.683Z" fill="#7BA6AA"/>
<path fill-rule="evenodd" clip-rule="evenodd" d="M225.716 214.028C226.39 214.028 226.945 214.583 226.945 215.258C226.945 215.933 226.39 216.488 225.716 216.488C225.042 216.488 224.488 215.933 224.488 215.258C224.488 214.583 225.031 214.028 225.716 214.028ZM225.716 217.893C225.716 217.893 226.945 219.917 226.945 222.41C226.945 224.903 225.716 226.928 225.716 226.928C225.716 226.928 224.488 224.903 224.488 222.41C224.488 219.917 225.716 217.893 225.716 217.893ZM227.967 230.041H226.934C226.912 229.366 226.379 228.832 225.705 228.832C225.031 228.832 224.498 229.366 224.477 230.041H223.444V212.798H227.956V230.041H227.967Z" fill="#7BA6AA"/>
<path fill-rule="evenodd" clip-rule="evenodd" d="M230 214.028C230.674 214.028 231.229 214.583 231.229 215.258C231.229 215.933 230.674 216.488 230 216.488C229.326 216.488 228.771 215.933 228.771 215.258C228.771 214.583 229.315 214.028 230 214.028ZM230 217.893C230 217.893 231.229 219.917 231.229 222.41C231.229 224.903 230 226.928 230 226.928C230 226.928 228.771 224.903 228.771 222.41C228.771 219.917 230 217.893 230 217.893ZM232.251 230.041H231.218C231.196 229.366 230.663 228.832 229.989 228.832C229.315 228.832 228.782 229.366 228.76 230.041H227.728V212.798H232.24V230.041H232.251Z" fill="#7BA6AA"/>
<path fill-rule="evenodd" clip-rule="evenodd" d="M234.284 214.028C234.958 214.028 235.512 214.583 235.512 215.258C235.512 215.933 234.958 216.488 234.284 216.488C233.609 216.488 233.055 215.933 233.055 215.258C233.055 214.583 233.599 214.028 234.284 214.028ZM234.284 217.893C234.284 217.893 235.512 219.917 235.512 222.41C235.512 224.903 234.284 226.928 234.284 226.928C234.284 226.928 233.055 224.903 233.055 222.41C233.055 219.917 234.284 217.893 234.284 217.893ZM236.534 230.041H235.501C235.48 229.366 234.947 228.832 234.273 228.832C233.599 228.832 233.066 229.366 233.044 230.041H232.011V212.798H236.523V230.041H236.534Z" fill="#7BA6AA"/>
<path fill-rule="evenodd" clip-rule="evenodd" d="M238.568 214.028C239.242 214.028 239.796 214.583 239.796 215.258C239.796 215.933 239.242 216.488 238.568 216.488C237.893 216.488 237.339 215.933 237.339 215.258C237.339 214.583 237.883 214.028 238.568 214.028ZM238.568 217.893C238.568 217.893 239.796 219.917 239.796 222.41C239.796 224.903 238.568 226.928 238.568 226.928C238.568 226.928 237.339 224.903 237.339 222.41C237.339 219.917 238.568 217.893 238.568 217.893ZM240.818 230.041H239.785C239.774 229.366 239.231 228.832 238.557 228.832C237.893 228.832 237.35 229.366 237.328 230.041H236.295V212.798H240.807V230.041H240.818Z" fill="#7BA6AA"/>
<path fill-rule="evenodd" clip-rule="evenodd" d="M242.851 214.028C243.526 214.028 244.08 214.583 244.08 215.258C244.08 215.933 243.526 216.488 242.851 216.488C242.177 216.488 241.623 215.933 241.623 215.258C241.623 214.583 242.166 214.028 242.851 214.028ZM242.851 217.893C242.851 217.893 244.08 219.917 244.08 222.41C244.08 224.903 242.851 226.928 242.851 226.928C242.851 226.928 241.623 224.903 241.623 222.41C241.623 219.917 242.851 217.893 242.851 217.893ZM245.102 230.041H244.069C244.058 229.366 243.515 228.832 242.841 228.832C242.177 228.832 241.634 229.366 241.612 230.041H240.579V212.798H245.091V230.041H245.102Z" fill="#7BA6AA"/>
<path fill-rule="evenodd" clip-rule="evenodd" d="M247.135 214.028C247.809 214.028 248.364 214.583 248.364 215.258C248.364 215.933 247.809 216.488 247.135 216.488C246.461 216.488 245.906 215.933 245.906 215.258C245.906 214.583 246.45 214.028 247.135 214.028ZM247.135 217.893C247.135 217.893 248.364 219.917 248.364 222.41C248.364 224.903 247.135 226.928 247.135 226.928C247.135 226.928 245.906 224.903 245.906 222.41C245.906 219.917 247.135 217.893 247.135 217.893ZM249.386 230.041H248.353C248.331 229.366 247.787 228.832 247.124 228.832C246.461 228.832 245.917 229.366 245.896 230.041H244.874V212.798H249.386V230.041Z" fill="#7BA6AA"/>
<path fill-rule="evenodd" clip-rule="evenodd" d="M251.419 214.028C252.093 214.028 252.647 214.583 252.647 215.258C252.647 215.933 252.093 216.488 251.419 216.488C250.745 216.488 250.19 215.933 250.19 215.258C250.19 214.583 250.734 214.028 251.419 214.028ZM251.419 217.893C251.419 217.893 252.647 219.917 252.647 222.41C252.647 224.903 251.419 226.928 251.419 226.928C251.419 226.928 250.19 224.903 250.19 222.41C250.19 219.917 251.419 217.893 251.419 217.893ZM253.669 230.041H252.637C252.615 229.366 252.071 228.832 251.408 228.832C250.745 228.832 250.201 229.366 250.179 230.041H249.146V212.798H253.659V230.041H253.669Z" fill="#7BA6AA"/>
<path fill-rule="evenodd" clip-rule="evenodd" d="M255.703 214.028C256.377 214.028 256.931 214.583 256.931 215.258C256.931 215.933 256.377 216.488 255.703 216.488C255.029 216.488 254.474 215.933 254.474 215.258C254.474 214.583 255.018 214.028 255.703 214.028ZM255.703 217.893C255.703 217.893 256.931 219.917 256.931 222.41C256.931 224.903 255.703 226.928 255.703 226.928C255.703 226.928 254.474 224.903 254.474 222.41C254.474 219.917 255.703 217.893 255.703 217.893ZM257.953 230.041H256.921C256.899 229.366 256.355 228.832 255.692 228.832C255.029 228.832 254.485 229.366 254.463 230.041H253.43V212.798H257.943V230.041H257.953Z" fill="#7BA6AA"/>
<path fill-rule="evenodd" clip-rule="evenodd" d="M259.986 214.028C260.661 214.028 261.215 214.583 261.215 215.258C261.215 215.933 260.661 216.488 259.986 216.488C259.312 216.488 258.758 215.933 258.758 215.258C258.758 214.583 259.302 214.028 259.986 214.028ZM259.986 217.893C259.986 217.893 261.215 219.917 261.215 222.41C261.215 224.903 259.986 226.928 259.986 226.928C259.986 226.928 258.758 224.903 258.758 222.41C258.758 219.917 259.986 217.893 259.986 217.893ZM262.237 230.041H261.204C261.182 229.366 260.65 228.832 259.976 228.832C259.302 228.832 258.769 229.366 258.747 230.041H257.714V212.798H262.226V230.041H262.237Z" fill="#7BA6AA"/>
<path fill-rule="evenodd" clip-rule="evenodd" d="M264.27 214.028C264.944 214.028 265.499 214.583 265.499 215.258C265.499 215.933 264.944 216.488 264.27 216.488C263.596 216.488 263.042 215.933 263.042 215.258C263.042 214.583 263.585 214.028 264.27 214.028ZM264.27 217.893C264.27 217.893 265.499 219.917 265.499 222.41C265.499 224.903 264.27 226.928 264.27 226.928C264.27 226.928 263.042 224.903 263.042 222.41C263.042 219.917 264.27 217.893 264.27 217.893ZM266.521 230.041H265.488C265.466 229.366 264.934 228.832 264.26 228.832C263.585 228.832 263.053 229.366 263.031 230.041H261.998V212.798H266.51V230.041H266.521Z" fill="#7BA6AA"/>
<path fill-rule="evenodd" clip-rule="evenodd" d="M268.554 214.028C269.228 214.028 269.783 214.583 269.783 215.258C269.783 215.933 269.228 216.488 268.554 216.488C267.88 216.488 267.325 215.933 267.325 215.258C267.325 214.583 267.88 214.028 268.554 214.028ZM268.554 217.893C268.554 217.893 269.783 219.917 269.783 222.41C269.783 224.903 268.554 226.928 268.554 226.928C268.554 226.928 267.325 224.903 267.325 222.41C267.325 219.917 268.554 217.893 268.554 217.893ZM270.805 230.041H269.772C269.75 229.366 269.217 228.832 268.543 228.832C267.869 228.832 267.336 229.366 267.315 230.041H266.282V212.798H270.794V230.041H270.805Z" fill="#7BA6AA"/>
<path fill-rule="evenodd" clip-rule="evenodd" d="M272.838 214.028C273.512 214.028 274.066 214.583 274.066 215.258C274.066 215.933 273.512 216.488 272.838 216.488C272.164 216.488 271.609 215.933 271.609 215.258C271.609 214.583 272.164 214.028 272.838 214.028ZM272.838 217.893C272.838 217.893 274.066 219.917 274.066 222.41C274.066 224.903 272.838 226.928 272.838 226.928C272.838 226.928 271.609 224.903 271.609 222.41C271.609 219.917 272.838 217.893 272.838 217.893ZM275.088 230.041H274.056C274.045 229.366 273.501 228.832 272.827 228.832C272.153 228.832 271.62 229.366 271.598 230.041H270.565V212.798H275.078V230.041H275.088Z" fill="#7BA6AA"/>
<path fill-rule="evenodd" clip-rule="evenodd" d="M277.122 214.028C277.796 214.028 278.35 214.583 278.35 215.258C278.35 215.933 277.796 216.488 277.122 216.488C276.448 216.488 275.893 215.933 275.893 215.258C275.893 214.583 276.448 214.028 277.122 214.028ZM277.122 217.893C277.122 217.893 278.35 219.917 278.35 222.41C278.35 224.903 277.122 226.928 277.122 226.928C277.122 226.928 275.893 224.903 275.893 222.41C275.893 219.917 277.122 217.893 277.122 217.893ZM279.372 230.041H278.339C278.329 229.366 277.785 228.832 277.111 228.832C276.448 228.832 275.904 229.366 275.882 230.041H274.849V212.798H279.361V230.041H279.372Z" fill="#7BA6AA"/>
<path fill-rule="evenodd" clip-rule="evenodd" d="M281.405 214.028C282.08 214.028 282.634 214.583 282.634 215.258C282.634 215.933 282.08 216.488 281.405 216.488C280.731 216.488 280.177 215.933 280.177 215.258C280.177 214.583 280.731 214.028 281.405 214.028ZM281.405 217.893C281.405 217.893 282.634 219.917 282.634 222.41C282.634 224.903 281.405 226.928 281.405 226.928C281.405 226.928 280.177 224.903 280.177 222.41C280.177 219.917 281.405 217.893 281.405 217.893ZM283.656 230.041H282.623C282.612 229.366 282.069 228.832 281.395 228.832C280.731 228.832 280.188 229.366 280.166 230.041H279.133V212.798H283.645V230.041H283.656Z" fill="#7BA6AA"/>
<path fill-rule="evenodd" clip-rule="evenodd" d="M285.689 214.028C286.363 214.028 286.918 214.583 286.918 215.258C286.918 215.933 286.363 216.488 285.689 216.488C285.015 216.488 284.461 215.933 284.461 215.258C284.461 214.583 285.015 214.028 285.689 214.028ZM285.689 217.893C285.689 217.893 286.918 219.917 286.918 222.41C286.918 224.903 285.689 226.928 285.689 226.928C285.689 226.928 284.461 224.903 284.461 222.41C284.461 219.917 285.689 217.893 285.689 217.893ZM287.94 230.041H286.907C286.896 229.366 286.353 228.832 285.678 228.832C285.015 228.832 284.472 229.366 284.45 230.041H283.417V212.798H287.929V230.041H287.94Z" fill="#7BA6AA"/>
<path fill-rule="evenodd" clip-rule="evenodd" d="M289.973 214.028C290.647 214.028 291.201 214.583 291.201 215.258C291.201 215.933 290.647 216.488 289.973 216.488C289.299 216.488 288.744 215.933 288.744 215.258C288.744 214.583 289.299 214.028 289.973 214.028ZM289.973 217.893C289.973 217.893 291.201 219.917 291.201 222.41C291.201 224.903 289.973 226.928 289.973 226.928C289.973 226.928 288.744 224.903 288.744 222.41C288.744 219.917 289.973 217.893 289.973 217.893ZM292.223 230.041H291.191C291.169 229.366 290.625 228.832 289.962 228.832C289.299 228.832 288.755 229.366 288.733 230.041H287.7V212.798H292.213V230.041H292.223Z" fill="#7BA6AA"/>
<path fill-rule="evenodd" clip-rule="evenodd" d="M294.257 214.028C294.931 214.028 295.485 214.583 295.485 215.258C295.485 215.933 294.931 216.488 294.257 216.488C293.583 216.488 293.028 215.933 293.028 215.258C293.028 214.583 293.583 214.028 294.257 214.028ZM294.257 217.893C294.257 217.893 295.485 219.917 295.485 222.41C295.485 224.903 294.257 226.928 294.257 226.928C294.257 226.928 293.028 224.903 293.028 222.41C293.028 219.917 294.257 217.893 294.257 217.893ZM296.507 230.041H295.474C295.453 229.366 294.909 228.832 294.246 228.832C293.583 228.832 293.039 229.366 293.017 230.041H291.984V212.798H296.496V230.041H296.507Z" fill="#7BA6AA"/>
<path fill-rule="evenodd" clip-rule="evenodd" d="M298.541 214.028C299.215 214.028 299.769 214.583 299.769 215.258C299.769 215.933 299.215 216.488 298.541 216.488C297.867 216.488 297.312 215.933 297.312 215.258C297.312 214.583 297.867 214.028 298.541 214.028ZM298.541 217.893C298.541 217.893 299.769 219.917 299.769 222.41C299.769 224.903 298.541 226.928 298.541 226.928C298.541 226.928 297.312 224.903 297.312 222.41C297.312 219.917 298.541 217.893 298.541 217.893ZM300.791 230.041H299.758C299.737 229.366 299.204 228.832 298.53 228.832C297.856 228.832 297.323 229.366 297.301 230.041H296.268V212.798H300.78V230.041H300.791Z" fill="#7BA6AA"/>
<path fill-rule="evenodd" clip-rule="evenodd" d="M302.824 214.028C303.498 214.028 304.053 214.583 304.053 215.258C304.053 215.933 303.498 216.488 302.824 216.488C302.15 216.488 301.596 215.933 301.596 215.258C301.596 214.583 302.15 214.028 302.824 214.028ZM302.824 217.893C302.824 217.893 304.053 219.917 304.053 222.41C304.053 224.903 302.824 226.928 302.824 226.928C302.824 226.928 301.596 224.903 301.596 222.41C301.596 219.917 302.824 217.893 302.824 217.893ZM305.075 230.041H304.042C304.02 229.366 303.488 228.832 302.813 228.832C302.139 228.832 301.607 229.366 301.585 230.041H300.552V212.798H305.064V230.041H305.075Z" fill="#7BA6AA"/>
<path fill-rule="evenodd" clip-rule="evenodd" d="M307.108 214.028C307.782 214.028 308.337 214.583 308.337 215.258C308.337 215.933 307.782 216.488 307.108 216.488C306.434 216.488 305.879 215.933 305.879 215.258C305.879 214.583 306.434 214.028 307.108 214.028ZM307.108 217.893C307.108 217.893 308.337 219.917 308.337 222.41C308.337 224.903 307.108 226.928 307.108 226.928C307.108 226.928 305.879 224.903 305.879 222.41C305.879 219.917 307.108 217.893 307.108 217.893ZM309.359 230.041H308.326C308.304 229.366 307.771 228.832 307.097 228.832C306.423 228.832 305.89 229.366 305.869 230.041H304.836V212.798H309.348V230.041H309.359Z" fill="#7BA6AA"/>
<path d="M308.108 230.041H151.892V232.174H308.108V230.041Z" fill="#7BA6AA"/>
<path d="M308.108 211.144H151.892V213.277H308.108V211.144Z" fill="#7BA6AA"/>
<path d="M149.021 236.42H133.756V249.112H149.021V236.42Z" fill="#DFBF51"/>
<path d="M214.691 93.2205H209.473V104.716H214.691V93.2205Z" fill="#DBB65F"/>
<path d="M250.516 93.2205H245.298V104.716H250.516V93.2205Z" fill="#FCF4DF"/>
<path fill-rule="evenodd" clip-rule="evenodd" d="M214.691 104.716H209.473L130.32 150.685H148.847L214.691 104.716Z" fill="#006891"/>
<path d="M326.244 236.42H310.979V249.112H326.244V236.42Z" fill="#FFFBF0"/>
<path d="M149.021 249.177H136.626V255.72H149.021V249.177Z" fill="#DFBF51"/>
<path d="M323.373 249.177H310.979V255.72H323.373V249.177Z" fill="#FFFBF0"/>
<path d="M230 236.42H144.4V237.813H230V236.42Z" fill="#DFBF51"/>
<path d="M315.6 236.42H230V237.813H315.6V236.42Z" fill="#FAF0D9"/>
<path d="M230 245.368H139.181V246.761H230V245.368Z" fill="#DFBF51"/>
<path d="M320.818 245.368H230V246.761H320.818V245.368Z" fill="#FAF0D9"/>
<path d="M230 254.326H133.963V255.72H230V254.326Z" fill="#DFBF51"/>
<path d="M326.037 254.326H230V255.72H326.037V254.326Z" fill="#FAF0D9"/>
<path d="M230 263.274H128.744V264.668H230V263.274Z" fill="#DFBF51"/>
<path d="M331.256 263.274H230V264.668H331.256V263.274Z" fill="#FAF0D9"/>
<path d="M230 272.233H115.697V273.626H230V272.233Z" fill="#DFBF51"/>
<path d="M344.303 272.233H230V273.626H344.303V272.233Z" fill="#FAF0D9"/>
<path d="M230 237.813H145.966V245.378H230V237.813Z" fill="#006891"/>
<path d="M314.034 237.813H230V245.378H314.034V237.813Z" fill="#DCBC46"/>
<path d="M230 246.761H140.747V254.326H230V246.761Z" fill="#006891"/>
<path d="M319.253 246.761H230V254.326H319.253V246.761Z" fill="#DCBC46"/>
<path d="M230 255.72H135.528V263.285H230V255.72Z" fill="#006891"/>
<path d="M324.472 255.72H230V263.285H324.472V255.72Z" fill="#DCBC46"/>
<path d="M230 264.667H130.309V272.233H230V264.667Z" fill="#006891"/>
<path d="M329.69 264.667H230V272.233H329.69V264.667Z" fill="#DCBC46"/>
<path d="M230 273.626H117.262V281.192H230V273.626Z" fill="#006891"/>
<path d="M342.738 273.626H230V281.192H342.738V273.626Z" fill="#DCBC46"/>
<path d="M139.366 161.027H135.789V178.324H139.366V161.027Z" fill="#DFBF51"/>
<path d="M324.472 161.027H320.895V178.324H324.472V161.027Z" fill="#FFFBF0"/>
<path d="M139.366 207.301H135.789V236.354H139.366V207.301Z" fill="#DFBF51"/>
<path d="M324.211 207.301H320.634V236.354H324.211V207.301Z" fill="#FFFBF0"/>
<path d="M145.901 208.607H139.366V233.709H145.901V208.607Z" fill="#E9CD9B"/>
<path d="M320.634 208.607H314.099V233.709H320.634V208.607Z" fill="#FFFBF0"/>
<path d="M145.901 210.784H139.366V211.503H145.901V210.784Z" fill="#DFBF51"/>
<path d="M320.634 210.784H314.099V211.503H320.634V210.784Z" fill="#F3EAC7"/>
<path d="M145.901 233.252H139.366V233.709H145.901V233.252Z" fill="#DFBF51"/>
<path d="M320.634 233.252H314.099V233.709H320.634V233.252Z" fill="#F3EAC7"/>
<path d="M138.899 178.389H136.268V207.301H138.899V178.389Z" fill="#DFBF51"/>
<path d="M323.993 178.389H321.362V207.301H323.993V178.389Z" fill="#FFFBF0"/>
<path fill-rule="evenodd" clip-rule="evenodd" d="M230 104.716H214.691L148.847 150.685H230V104.716Z" fill="#3C96B9"/>
<path fill-rule="evenodd" clip-rule="evenodd" d="M230 104.716H245.298L311.153 150.685H230V104.716Z" fill="#7BA6AA"/>
<path fill-rule="evenodd" clip-rule="evenodd" d="M245.298 104.716H250.516L329.68 150.685H311.153L245.298 104.716Z" fill="#8ABDC0"/>
<path d="M230 93.2205H214.691V104.716H230V93.2205Z" fill="#E9CD9B"/>
<path d="M230 153.189H148.847V161.027H230V153.189Z" fill="#E9CD9B"/>
<path d="M311.153 153.189H230V161.027H311.153V153.189Z" fill="#F3EAC7"/>
<path d="M148.847 153.189H131.875V161.027H148.847V153.189Z" fill="#DFBF51"/>
<path d="M328.125 153.189H311.153V161.027H328.125V153.189Z" fill="#FCF4DF"/>
<path d="M245.309 93.2205H230V104.716H245.309V93.2205Z" fill="#F3EAC7"/>
<path fill-rule="evenodd" clip-rule="evenodd" d="M214.691 90.717H230V93.2207H229.478C229.478 94.0916 228.771 94.7882 227.912 94.7882C227.043 94.7882 226.347 94.0807 226.347 93.2207H225.64C225.64 94.0916 224.933 94.7882 224.074 94.7882C223.205 94.7882 222.509 94.0807 222.509 93.2207H221.802C221.802 94.0916 221.095 94.7882 220.236 94.7882C219.367 94.7882 218.671 94.0807 218.671 93.2207H217.964C217.964 94.0916 217.257 94.7882 216.398 94.7882C215.529 94.7882 214.833 94.0807 214.833 93.2207H214.713V90.717H214.691Z" fill="#F3EAC7"/>
<path fill-rule="evenodd" clip-rule="evenodd" d="M245.298 90.717H229.989V93.2207H230.511C230.511 94.0916 231.218 94.7882 232.077 94.7882C232.946 94.7882 233.642 94.0807 233.642 93.2207H234.349C234.349 94.0916 235.056 94.7882 235.915 94.7882C236.784 94.7882 237.48 94.0807 237.48 93.2207H238.187C238.187 94.0916 238.894 94.7882 239.753 94.7882C240.622 94.7882 241.318 94.0807 241.318 93.2207H242.025C242.025 94.0916 242.732 94.7882 243.591 94.7882C244.46 94.7882 245.156 94.0807 245.156 93.2207H245.276V90.717H245.298Z" fill="#FCF4DF"/>
<path d="M230.946 78.8081H229.043V79.2218H230.946V78.8081Z" fill="#757C81"/>
<path fill-rule="evenodd" clip-rule="evenodd" d="M207.646 90.717H214.691V93.2207H214.202C214.202 94.0916 213.778 94.7882 213.256 94.7882C212.734 94.7882 212.31 94.0807 212.31 93.2207H211.886C211.886 94.0916 211.462 94.7882 210.94 94.7882C210.418 94.7882 209.994 94.0807 209.994 93.2207H209.57C209.57 94.0916 209.146 94.7882 208.625 94.7882C208.103 94.7882 207.679 94.0807 207.679 93.2207V90.717H207.646Z" fill="#E9CD9B"/>
<path fill-rule="evenodd" clip-rule="evenodd" d="M252.343 90.717H245.298V93.2207H245.787C245.787 94.0916 246.211 94.7882 246.733 94.7882C247.255 94.7882 247.679 94.0807 247.679 93.2207H248.103C248.103 94.0916 248.527 94.7882 249.049 94.7882C249.571 94.7882 249.995 94.0807 249.995 93.2207H250.419C250.419 94.0916 250.843 94.7882 251.364 94.7882C251.886 94.7882 252.31 94.0807 252.31 93.2207V90.717H252.343Z" fill="#FFFBF0"/>
<path fill-rule="evenodd" clip-rule="evenodd" d="M230 155.018H229.478C229.478 156.095 228.597 156.977 227.521 156.977C226.445 156.977 225.564 156.095 225.564 155.018H224.683C224.683 156.095 223.803 156.977 222.726 156.977C221.65 156.977 220.769 156.095 220.769 155.018H219.888C219.888 156.095 219.008 156.977 217.931 156.977C216.855 156.977 215.974 156.095 215.974 155.018H215.094C215.094 156.095 214.213 156.977 213.137 156.977C212.06 156.977 211.18 156.095 211.18 155.018H210.299C210.299 156.095 209.418 156.977 208.342 156.977C207.265 156.977 206.385 156.095 206.385 155.018H205.504C205.504 156.095 204.623 156.977 203.547 156.977C202.471 156.977 201.59 156.095 201.59 155.018H200.709C200.709 156.095 199.829 156.977 198.752 156.977C197.676 156.977 196.795 156.095 196.795 155.018H195.914C195.914 156.095 195.034 156.977 193.957 156.977C192.881 156.977 192 156.095 192 155.018H191.12C191.12 156.095 190.239 156.977 189.163 156.977C188.086 156.977 187.206 156.095 187.206 155.018H186.325C186.325 156.095 185.444 156.977 184.368 156.977C183.291 156.977 182.411 156.095 182.411 155.018H181.53C181.53 156.095 180.649 156.977 179.573 156.977C178.497 156.977 177.616 156.095 177.616 155.018H176.735C176.735 156.095 175.855 156.977 174.778 156.977C173.702 156.977 172.821 156.095 172.821 155.018H171.94C171.94 156.095 171.06 156.977 169.983 156.977C168.907 156.977 168.026 156.095 168.026 155.018H167.146C167.146 156.095 166.265 156.977 165.189 156.977C164.112 156.977 163.232 156.095 163.232 155.018H162.351C162.351 156.095 161.47 156.977 160.394 156.977C159.317 156.977 158.437 156.095 158.437 155.018H157.556C157.556 156.095 156.675 156.977 155.599 156.977C154.523 156.977 153.642 156.095 153.642 155.018H152.761C152.761 156.095 151.881 156.977 150.804 156.977C149.728 156.977 148.847 156.095 148.847 155.018V150.685H230V155.018Z" fill="#F3EAC7"/>
<path fill-rule="evenodd" clip-rule="evenodd" d="M230 155.018H230.522C230.522 156.095 231.403 156.977 232.479 156.977C233.555 156.977 234.436 156.095 234.436 155.018H235.317C235.317 156.095 236.197 156.977 237.274 156.977C238.35 156.977 239.231 156.095 239.231 155.018H240.111C240.111 156.095 240.992 156.977 242.069 156.977C243.145 156.977 244.026 156.095 244.026 155.018H244.906C244.906 156.095 245.787 156.977 246.863 156.977C247.94 156.977 248.82 156.095 248.82 155.018H249.701C249.701 156.095 250.582 156.977 251.658 156.977C252.735 156.977 253.615 156.095 253.615 155.018H254.496C254.496 156.095 255.377 156.977 256.453 156.977C257.529 156.977 258.41 156.095 258.41 155.018H259.291C259.291 156.095 260.171 156.977 261.248 156.977C262.324 156.977 263.205 156.095 263.205 155.018H264.085C264.085 156.095 264.966 156.977 266.043 156.977C267.119 156.977 268 156.095 268 155.018H268.88C268.88 156.095 269.761 156.977 270.837 156.977C271.914 156.977 272.794 156.095 272.794 155.018H273.675C273.675 156.095 274.556 156.977 275.632 156.977C276.708 156.977 277.589 156.095 277.589 155.018H278.47C278.47 156.095 279.351 156.977 280.427 156.977C281.503 156.977 282.384 156.095 282.384 155.018H283.265C283.265 156.095 284.145 156.977 285.222 156.977C286.298 156.977 287.179 156.095 287.179 155.018H288.059C288.059 156.095 288.94 156.977 290.017 156.977C291.093 156.977 291.974 156.095 291.974 155.018H292.854C292.854 156.095 293.735 156.977 294.811 156.977C295.888 156.977 296.768 156.095 296.768 155.018H297.649C297.649 156.095 298.53 156.977 299.606 156.977C300.682 156.977 301.563 156.095 301.563 155.018H302.444C302.444 156.095 303.325 156.977 304.401 156.977C305.477 156.977 306.358 156.095 306.358 155.018H307.239C307.239 156.095 308.119 156.977 309.196 156.977C310.272 156.977 311.153 156.095 311.153 155.018V150.685H230V155.018Z" fill="#FCF4DF"/>
<path fill-rule="evenodd" clip-rule="evenodd" d="M131.875 150.685H148.847V155.018H148.151C148.151 156.095 147.64 156.977 147.01 156.977C146.379 156.977 145.868 156.095 145.868 155.018H145.357C145.357 156.095 144.846 156.977 144.216 156.977C143.585 156.977 143.074 156.095 143.074 155.018H142.563C142.563 156.095 142.052 156.977 141.421 156.977C140.791 156.977 140.28 156.095 140.28 155.018H139.769C139.769 156.095 139.258 156.977 138.627 156.977C137.996 156.977 137.485 156.095 137.485 155.018H136.974C136.974 156.095 136.463 156.977 135.833 156.977C135.202 156.977 134.691 156.095 134.691 155.018H134.18C134.18 156.095 133.669 156.977 133.039 156.977C132.408 156.977 131.897 156.095 131.897 155.018V150.685H131.875Z" fill="#E9CD9B"/>
<path d="M232.957 161.027H227.032V178.324H232.957V161.027Z" fill="#F3EAC7"/>
<path d="M314.295 161.027H308.369V178.324H314.295V161.027Z" fill="#F3EAC7"/>
<path d="M151.892 161.027H145.966V178.324H151.892V161.027Z" fill="#E9CD9B"/>
<path d="M232.957 207.301H227.032V236.354H232.957V207.301Z" fill="#F3EAC7"/>
<path d="M151.892 207.301H145.966V236.354H151.892V207.301Z" fill="#E9CD9B"/>
<path d="M314.034 207.301H308.108V236.354H314.034V207.301Z" fill="#F3EAC7"/>
<path d="M231.392 210.773H228.597V236.365H231.392V210.773Z" fill="#DCBC46"/>
<path d="M232.174 178.389H227.814V207.301H232.174V178.389Z" fill="#FCF4DF"/>
<path d="M151.109 178.389H146.749V207.301H151.109V178.389Z" fill="#F3EAC7"/>
<path fill-rule="evenodd" clip-rule="evenodd" d="M232.957 237.171H227.086L226.064 240.142H233.925L232.957 237.171Z" fill="#FCF4DF"/>
<path fill-rule="evenodd" clip-rule="evenodd" d="M230 240.371C230 239.283 229.119 238.401 228.032 238.401C226.945 238.401 226.064 239.283 226.064 240.371C226.064 247.588 226.064 272.19 226.064 272.19H230C230 272.19 230 247.588 230 240.371Z" fill="#DFBF51"/>
<path fill-rule="evenodd" clip-rule="evenodd" d="M233.925 240.371C233.925 239.283 233.044 238.401 231.957 238.401C230.87 238.401 229.989 239.283 229.989 240.371C229.989 247.588 229.989 272.19 229.989 272.19H233.925C233.925 272.19 233.925 247.588 233.925 240.371Z" fill="#FFFBF0"/>
<path fill-rule="evenodd" clip-rule="evenodd" d="M227.086 237.171C226.455 236.474 226.064 235.549 226.064 234.526C226.064 232.359 227.825 230.585 230 230.585C232.163 230.585 233.936 232.348 233.936 234.526C233.936 235.549 233.544 236.474 232.914 237.171H227.086Z" fill="#FFFBF0"/>
<path fill-rule="evenodd" clip-rule="evenodd" d="M334.833 237.171H328.962L327.94 240.142H335.801L334.833 237.171Z" fill="#FCF4DF"/>
<path fill-rule="evenodd" clip-rule="evenodd" d="M331.876 240.371C331.876 239.283 330.995 238.401 329.908 238.401C328.821 238.401 327.94 239.283 327.94 240.371C327.94 247.588 327.94 272.19 327.94 272.19H331.876C331.876 272.19 331.876 247.588 331.876 240.371Z" fill="#DFBF51"/>
<path fill-rule="evenodd" clip-rule="evenodd" d="M335.801 240.371C335.801 239.283 334.92 238.401 333.833 238.401C332.746 238.401 331.865 239.283 331.865 240.371C331.865 247.588 331.865 272.19 331.865 272.19H335.801C335.801 272.19 335.801 247.588 335.801 240.371Z" fill="#FFFBF0"/>
<path fill-rule="evenodd" clip-rule="evenodd" d="M328.962 237.171C328.331 236.474 327.94 235.549 327.94 234.526C327.94 232.359 329.701 230.585 331.876 230.585C334.05 230.585 335.812 232.348 335.812 234.526C335.812 235.549 335.42 236.474 334.79 237.171H328.962Z" fill="#FFFBF0"/>
<path fill-rule="evenodd" clip-rule="evenodd" d="M131.081 237.171H125.21L124.188 240.142H132.049L131.081 237.171Z" fill="#FCF4DF"/>
<path fill-rule="evenodd" clip-rule="evenodd" d="M128.124 240.371C128.124 239.283 127.243 238.401 126.156 238.401C125.069 238.401 124.188 239.283 124.188 240.371C124.188 247.588 124.188 272.19 124.188 272.19H128.124C128.124 272.19 128.124 247.588 128.124 240.371Z" fill="#DFBF51"/>
<path fill-rule="evenodd" clip-rule="evenodd" d="M132.049 240.371C132.049 239.283 131.168 238.401 130.081 238.401C128.994 238.401 128.113 239.283 128.113 240.371C128.113 247.588 128.113 272.19 128.113 272.19H132.038C132.049 272.19 132.049 247.588 132.049 240.371Z" fill="#FFFBF0"/>
<path fill-rule="evenodd" clip-rule="evenodd" d="M125.21 237.171C124.58 236.474 124.188 235.549 124.188 234.526C124.188 232.359 125.95 230.585 128.124 230.585C130.288 230.585 132.049 232.348 132.049 234.526C132.049 235.549 131.658 236.474 131.027 237.171H125.21Z" fill="#FFFBF0"/>
<path d="M313.512 178.389H309.152V207.301H313.512V178.389Z" fill="#FCF4DF"/>
<path fill-rule="evenodd" clip-rule="evenodd" d="M201.59 161.092H210.234L227.032 172.522V178.4C227.032 178.4 224.661 176.789 223.487 175.983C223.085 175.711 222.846 175.254 222.846 174.775C222.846 174.274 222.846 173.632 222.846 173.175C222.846 173.022 222.78 172.87 222.672 172.761C222.563 172.652 222.411 172.587 222.259 172.587C221.073 172.587 218.497 172.587 218.497 172.587C218.497 172.587 218.497 170.638 218.497 169.223C218.497 168.429 217.855 167.786 217.061 167.786C214.996 167.786 211.43 167.786 211.43 167.786C211.43 167.786 211.43 166.643 211.43 165.74C211.43 165.446 211.31 165.174 211.114 164.967C210.908 164.76 210.625 164.651 210.342 164.651C208.972 164.651 206.82 164.651 206.82 164.651L201.59 161.092Z" fill="#E9CD9B"/>
<path fill-rule="evenodd" clip-rule="evenodd" d="M137.007 161.092H140.051L145.977 172.522V178.4C145.977 178.4 145.053 176.615 144.661 175.863C144.553 175.657 144.498 175.428 144.498 175.189C144.498 174.688 144.498 173.773 144.498 173.175C144.498 173.022 144.433 172.87 144.324 172.761C144.216 172.652 144.063 172.587 143.911 172.587C143.476 172.587 142.965 172.587 142.965 172.587C142.965 172.587 142.965 170.638 142.965 169.223C142.965 168.429 142.324 167.786 141.53 167.786C140.976 167.786 140.475 167.786 140.475 167.786C140.475 167.786 140.475 166.643 140.475 165.74C140.475 165.13 139.986 164.64 139.377 164.64C139.084 164.64 138.845 164.64 138.845 164.64L137.007 161.092Z" fill="#DFBF51"/>
<path fill-rule="evenodd" clip-rule="evenodd" d="M323.254 161.092H320.21L314.284 172.522V178.4C314.284 178.4 315.208 176.615 315.6 175.863C315.708 175.657 315.763 175.428 315.763 175.189C315.763 174.688 315.763 173.773 315.763 173.175C315.763 173.022 315.828 172.87 315.937 172.761C316.046 172.652 316.198 172.587 316.35 172.587C316.785 172.587 317.296 172.587 317.296 172.587C317.296 172.587 317.296 170.638 317.296 169.223C317.296 168.429 317.937 167.786 318.731 167.786C319.286 167.786 319.786 167.786 319.786 167.786C319.786 167.786 319.786 166.643 319.786 165.74C319.786 165.13 320.275 164.64 320.884 164.64C321.177 164.64 321.417 164.64 321.417 164.64L323.254 161.092Z" fill="#FFFBF0"/>
<path fill-rule="evenodd" clip-rule="evenodd" d="M258.399 161.092H249.755L232.957 172.522V178.4C232.957 178.4 235.328 176.789 236.502 175.983C236.904 175.711 237.143 175.254 237.143 174.775C237.143 174.274 237.143 173.632 237.143 173.175C237.143 173.022 237.208 172.87 237.317 172.761C237.426 172.652 237.578 172.587 237.73 172.587C238.915 172.587 241.492 172.587 241.492 172.587C241.492 172.587 241.492 170.638 241.492 169.223C241.492 168.429 242.134 167.786 242.927 167.786C244.993 167.786 248.559 167.786 248.559 167.786C248.559 167.786 248.559 166.643 248.559 165.74C248.559 165.446 248.679 165.174 248.875 164.967C249.081 164.76 249.364 164.651 249.647 164.651C251.017 164.651 253.169 164.651 253.169 164.651L258.399 161.092Z" fill="#F3EAC7"/>
<path fill-rule="evenodd" clip-rule="evenodd" d="M168.679 161.092H162.971L151.881 172.522V178.4C151.881 178.4 153.457 176.778 154.229 175.972C154.49 175.7 154.642 175.33 154.642 174.949C154.642 174.427 154.642 173.686 154.642 173.175C154.642 173.022 154.707 172.87 154.816 172.761C154.925 172.652 155.077 172.587 155.229 172.587C156.067 172.587 157.513 172.587 157.513 172.587C157.513 172.587 157.513 170.638 157.513 169.223C157.513 168.842 157.665 168.472 157.937 168.211C158.208 167.939 158.567 167.786 158.948 167.786C160.318 167.786 162.177 167.786 162.177 167.786C162.177 167.786 162.177 166.643 162.177 165.74C162.177 165.446 162.297 165.174 162.492 164.967C162.699 164.76 162.981 164.651 163.264 164.651C164.134 164.651 165.221 164.651 165.221 164.651L168.679 161.092Z" fill="#E9CD9B"/>
<path fill-rule="evenodd" clip-rule="evenodd" d="M291.571 161.092H297.269L308.359 172.522V178.4C308.359 178.4 306.782 176.778 306.01 175.972C305.749 175.7 305.597 175.33 305.597 174.949C305.597 174.427 305.597 173.686 305.597 173.175C305.597 173.022 305.532 172.87 305.423 172.761C305.314 172.652 305.162 172.587 305.01 172.587C304.173 172.587 302.716 172.587 302.716 172.587C302.716 172.587 302.716 170.638 302.716 169.223C302.716 168.842 302.563 168.472 302.292 168.211C302.02 167.939 301.661 167.786 301.28 167.786C299.911 167.786 298.051 167.786 298.051 167.786C298.051 167.786 298.051 166.643 298.051 165.74C298.051 165.446 297.932 165.174 297.725 164.967C297.519 164.76 297.236 164.651 296.953 164.651C296.083 164.651 294.996 164.651 294.996 164.651L291.571 161.092Z" fill="#F3EAC7"/>
<path fill-rule="evenodd" clip-rule="evenodd" d="M145.966 210.371L128.124 242.766V248.318L145.966 215.922V210.371Z" fill="#DCBC46"/>
<path fill-rule="evenodd" clip-rule="evenodd" d="M314.023 210.371L331.876 242.766V248.318L314.023 215.922V210.371Z" fill="#DCBC46"/>
<path fill-rule="evenodd" clip-rule="evenodd" d="M230 79.2219H229.043L214.691 90.717H230V79.2219Z" fill="#3C96B9"/>
<path fill-rule="evenodd" clip-rule="evenodd" d="M229.043 79.2219L206.7 90.717H214.692L229.043 79.2219Z" fill="#006891"/>
<path fill-rule="evenodd" clip-rule="evenodd" d="M230.946 79.2219L253.3 90.717H245.298L230.946 79.2219Z" fill="#8ABDC0"/>
<path fill-rule="evenodd" clip-rule="evenodd" d="M230 79.2219H230.946L245.298 90.717H230V79.2219Z" fill="#7BA6AA"/>
<path fill-rule="evenodd" clip-rule="evenodd" d="M328.125 150.685H311.153V155.018H311.849C311.849 156.095 312.36 156.977 312.99 156.977C313.621 156.977 314.132 156.095 314.132 155.018H314.643C314.643 156.095 315.154 156.977 315.785 156.977C316.415 156.977 316.926 156.095 316.926 155.018H317.437C317.437 156.095 317.948 156.977 318.579 156.977C319.209 156.977 319.72 156.095 319.72 155.018H320.231C320.231 156.095 320.742 156.977 321.373 156.977C322.004 156.977 322.515 156.095 322.515 155.018H323.026C323.026 156.095 323.537 156.977 324.167 156.977C324.798 156.977 325.309 156.095 325.309 155.018H325.82C325.82 156.095 326.331 156.977 326.962 156.977C327.592 156.977 328.103 156.095 328.103 155.018V150.685H328.125Z" fill="#FFFBF0"/>
<path d="M227.38 95.833H217.301V102.103H227.38V95.833Z" fill="#006891"/>
<path d="M213.615 95.833H210.571V102.103H213.615V95.833Z" fill="#006891"/>
<path d="M242.688 95.833H232.609V102.103H242.688V95.833Z" fill="#006891"/>
<path d="M249.44 95.833H246.396V102.103H249.44V95.833Z" fill="#006891"/>
</g>
<defs>
<radialGradient id="paint0_radial" cx="0" cy="0" r="1" gradientUnits="userSpaceOnUse" gradientTransform="translate(230 115) rotate(90) scale(169 215.944)">
<stop stop-color="#E2EBD4"/>
<stop offset="1" stop-color="#ABCFC3"/>
</radialGradient>
</defs>
</svg>
