<svg width="423" height="232" viewBox="0 0 423 232" fill="none" xmlns="http://www.w3.org/2000/svg">
<path d="M125.67 23.52H115.1V39.45H125.67V23.52Z" fill="#AEAFB3"/>
<path d="M123.16 15.25V2.64001H117.61V15.25C114.35 16.4 112 19.51 112 23.15V50.39H128.77V23.15C128.77 19.51 126.41 16.4 123.16 15.25Z" stroke="#50504F" stroke-width="2" stroke-miterlimit="10"/>
<path d="M410 15.01H390L392 49.88H408L410 15.01Z" stroke="#50504F" stroke-width="2" stroke-miterlimit="10"/>
<path d="M393.31 22.46L394.72 47H405.28L406.69 22.46H393.31Z" fill="#AEAFB3"/>
<path d="M201 15.01V26.21C201 33.38 206.86 39.24 214.03 39.24C221.2 39.24 227.06 33.38 227.06 26.21V15.01H201V15.01Z" stroke="#50504F" stroke-width="2" stroke-miterlimit="10"/>
<path d="M214.03 36.35C208.43 36.35 203.88 31.8 203.88 26.2V22.88H224.18V26.2C224.18 31.8 219.63 36.35 214.03 36.35Z" fill="#AEAFB3"/>
<path d="M214.03 39.23V49.88" stroke="#50504F" stroke-width="2" stroke-miterlimit="10"/>
<path d="M204.78 49.88H223.28" stroke="#50504F" stroke-width="2" stroke-miterlimit="10"/>
<path d="M311.97 18.78L310.19 2.57001H304.62L302.84 18.78C299.58 19.94 299 23.05 299 26.7V50.45H315.81V26.7C315.81 23.06 315.24 19.94 311.97 18.78Z" stroke="#50504F" stroke-width="1.8689" stroke-miterlimit="10"/>
<path d="M307.53 32.82C309.96 32.82 311.93 30.8501 311.93 28.42C311.93 25.99 309.96 24.02 307.53 24.02C305.1 24.02 303.13 25.99 303.13 28.42C303.13 30.8501 305.1 32.82 307.53 32.82Z" fill="#AEAFB3"/>
<path d="M13.99 49.62C21.1642 49.62 26.98 43.8042 26.98 36.63C26.98 29.4558 21.1642 23.64 13.99 23.64C6.81582 23.64 1 29.4558 1 36.63C1 43.8042 6.81582 49.62 13.99 49.62Z" stroke="#50504F" stroke-width="2" stroke-miterlimit="10"/>
<path d="M39.97 49.62C47.1442 49.62 52.96 43.8042 52.96 36.63C52.96 29.4558 47.1442 23.64 39.97 23.64C32.7958 23.64 26.98 29.4558 26.98 36.63C26.98 43.8042 32.7958 49.62 39.97 49.62Z" stroke="#50504F" stroke-width="2" stroke-miterlimit="10"/>
<path d="M26.98 26.98C34.1542 26.98 39.97 21.1642 39.97 13.99C39.97 6.81582 34.1542 1 26.98 1C19.8058 1 13.99 6.81582 13.99 13.99C13.99 21.1642 19.8058 26.98 26.98 26.98Z" stroke="#50504F" stroke-width="2" stroke-miterlimit="10"/>
<path d="M19.37 20.63H34.58C35.16 19.97 35.65 19.23 36.04 18.44H17.91C18.3 19.23 18.79 19.96 19.37 20.63Z" fill="#AEAFB3"/>
<path d="M17.31 16.93H36.65C36.86 16.23 37 15.49 37.05 14.74H16.91C16.96 15.5 17.09 16.23 17.31 16.93Z" fill="#AEAFB3"/>
<path d="M36.65 11.05H17.31C17.1 11.75 16.96 12.49 16.91 13.24H37.05C36.99 12.48 36.86 11.75 36.65 11.05Z" fill="#AEAFB3"/>
<path d="M26.98 24.1C29.22 24.1 31.28 23.36 32.95 22.13H21C22.68 23.36 24.74 24.1 26.98 24.1Z" fill="#AEAFB3"/>
<path d="M34.58 7.35001H19.37C18.79 8.01001 18.3 8.75001 17.91 9.54001H36.04C35.65 8.75001 35.16 8.01001 34.58 7.35001Z" fill="#AEAFB3"/>
<path d="M26.9799 3.88C24.7399 3.88 22.6799 4.62 21.0099 5.85H32.9499C31.2699 4.62 29.2099 3.88 26.9799 3.88Z" fill="#AEAFB3"/>
<path d="M6.37998 43.26H21.59C22.17 42.6 22.66 41.86 23.05 41.07H4.91998C5.30998 41.86 5.79998 42.6 6.37998 43.26Z" fill="#AEAFB3"/>
<path d="M4.31998 39.57H23.66C23.87 38.87 24.01 38.13 24.06 37.38H3.91998C3.96998 38.13 4.10998 38.87 4.31998 39.57Z" fill="#AEAFB3"/>
<path d="M23.66 33.68H4.31998C4.10998 34.38 3.96998 35.12 3.91998 35.87H24.06C24 35.12 23.87 34.38 23.66 33.68Z" fill="#AEAFB3"/>
<path d="M13.99 46.73C16.23 46.73 18.29 45.99 19.96 44.76H8.01996C9.68996 46 11.75 46.73 13.99 46.73Z" fill="#AEAFB3"/>
<path d="M21.59 29.99H6.37998C5.79998 30.65 5.30998 31.39 4.91998 32.18H23.05C22.66 31.39 22.17 30.65 21.59 29.99Z" fill="#AEAFB3"/>
<path d="M13.99 26.52C11.75 26.52 9.68996 27.26 8.01996 28.49H19.96C18.29 27.25 16.22 26.52 13.99 26.52Z" fill="#AEAFB3"/>
<path d="M32.36 43.26H47.57C48.15 42.6 48.64 41.86 49.03 41.07H30.9C31.29 41.86 31.78 42.6 32.36 43.26Z" fill="#AEAFB3"/>
<path d="M30.3 39.57H49.64C49.85 38.87 49.99 38.13 50.04 37.38H29.9C29.95 38.13 30.08 38.87 30.3 39.57Z" fill="#AEAFB3"/>
<path d="M49.63 33.68H30.3C30.09 34.38 29.95 35.12 29.9 35.87H50.04C49.98 35.12 49.85 34.38 49.63 33.68Z" fill="#AEAFB3"/>
<path d="M39.97 46.73C42.21 46.73 44.27 45.99 45.94 44.76H33.99C35.67 46 37.73 46.73 39.97 46.73Z" fill="#AEAFB3"/>
<path d="M47.57 29.99H32.36C31.78 30.65 31.29 31.39 30.9 32.18H49.03C48.64 31.39 48.15 30.65 47.57 29.99Z" fill="#AEAFB3"/>
<path d="M39.97 26.52C37.73 26.52 35.67 27.26 34 28.49H45.94C44.26 27.25 42.2 26.52 39.97 26.52Z" fill="#AEAFB3"/>
<path d="M227.16 100.81C226.74 93.69 220.81 88 213.6 88C206.39 88 200.46 93.7 200.04 100.81C200.01 100.98 200 101.16 200 101.34V108.71C200 109.98 200.68 111.16 201.79 111.79L211.82 117.56C212.92 118.2 214.29 118.2 215.39 117.56L225.42 111.79C226.52 111.15 227.21 109.98 227.21 108.71V101.34C227.2 101.16 227.19 100.98 227.16 100.81Z" stroke="#50504F" stroke-width="2" stroke-miterlimit="10"/>
<path d="M213.65 135.01C212.29 135.01 211.18 133.9 211.18 132.54V114.75C211.18 113.39 212.29 112.28 213.65 112.28C215.01 112.28 216.12 113.39 216.12 114.75V132.54C216.12 133.9 215.01 135.01 213.65 135.01Z" fill="#AEAFB3" stroke="#50504F" stroke-width="2" stroke-miterlimit="10"/>
<path d="M120.62 131.24C133.665 131.24 144.24 120.665 144.24 107.62C144.24 94.575 133.665 84 120.62 84C107.575 84 97 94.575 97 107.62C97 120.665 107.575 131.24 120.62 131.24Z" stroke="#50504F" stroke-width="2" stroke-miterlimit="10"/>
<path d="M120.62 126.85C131.24 126.85 139.85 118.24 139.85 107.62C139.85 96.9996 131.24 88.39 120.62 88.39C110 88.39 101.39 96.9996 101.39 107.62C101.39 118.24 110 126.85 120.62 126.85Z" stroke="#50504F" stroke-width="2" stroke-miterlimit="10"/>
<path d="M131.93 95.85C128.99 93.02 125 91.27 120.61 91.27V107.17L131.93 95.85Z" fill="#AEAFB3"/>
<path d="M114.12 101.75C115.517 101.75 116.65 100.617 116.65 99.22C116.65 97.8227 115.517 96.69 114.12 96.69C112.723 96.69 111.59 97.8227 111.59 99.22C111.59 100.617 112.723 101.75 114.12 101.75Z" fill="#AEAFB3"/>
<path d="M134.46 107.62C135.857 107.62 136.99 106.487 136.99 105.09C136.99 103.693 135.857 102.56 134.46 102.56C133.063 102.56 131.93 103.693 131.93 105.09C131.93 106.487 133.063 107.62 134.46 107.62Z" fill="#AEAFB3"/>
<path d="M120.61 123.41C122.007 123.41 123.14 122.277 123.14 120.88C123.14 119.483 122.007 118.35 120.61 118.35C119.213 118.35 118.08 119.483 118.08 120.88C118.08 122.277 119.213 123.41 120.61 123.41Z" fill="#AEAFB3"/>
<path d="M130.82 118.36C132.217 118.36 133.35 117.227 133.35 115.83C133.35 114.433 132.217 113.3 130.82 113.3C129.423 113.3 128.29 114.433 128.29 115.83C128.29 117.227 129.423 118.36 130.82 118.36Z" fill="#AEAFB3"/>
<path d="M107.78 109.7C109.177 109.7 110.31 108.567 110.31 107.17C110.31 105.773 109.177 104.64 107.78 104.64C106.383 104.64 105.25 105.773 105.25 107.17C105.25 108.567 106.383 109.7 107.78 109.7Z" fill="#AEAFB3"/>
<path d="M112.28 118.36C113.677 118.36 114.81 117.227 114.81 115.83C114.81 114.433 113.677 113.3 112.28 113.3C110.883 113.3 109.75 114.433 109.75 115.83C109.75 117.227 110.883 118.36 112.28 118.36Z" fill="#AEAFB3"/>
<path d="M125.77 112.29C127.167 112.29 128.3 111.157 128.3 109.76C128.3 108.363 127.167 107.23 125.77 107.23C124.373 107.23 123.24 108.363 123.24 109.76C123.24 111.157 124.373 112.29 125.77 112.29Z" fill="#AEAFB3"/>
<path d="M116.64 112.29C118.037 112.29 119.17 111.157 119.17 109.76C119.17 108.363 118.037 107.23 116.64 107.23C115.243 107.23 114.11 108.363 114.11 109.76C114.11 111.157 115.243 112.29 116.64 112.29Z" fill="#AEAFB3"/>
<path d="M330.98 137.34V128.42C330.98 115.5 320.41 104.93 307.49 104.93C294.57 104.93 284 115.5 284 128.42V137.34H330.98Z" stroke="#50504F" stroke-width="2" stroke-miterlimit="10"/>
<path d="M325.04 137.34V128.86C325.04 119.21 317.14 111.31 307.49 111.31C297.84 111.31 289.94 119.21 289.94 128.86V137.34H325.04V137.34Z" fill="white" stroke="#50504F" stroke-width="2" stroke-miterlimit="10"/>
<path d="M292.82 134.46V128.86C292.82 120.77 299.4 114.19 307.49 114.19C315.58 114.19 322.16 120.77 322.16 128.86V134.46H292.82Z" fill="#AEAFB3"/>
<path d="M318.08 107.15V90H296.9V107.15" stroke="#50504F" stroke-width="2" stroke-miterlimit="10"/>
<path d="M307.49 111.3V104.92" stroke="#50504F" stroke-width="2" stroke-miterlimit="10"/>
<path d="M319.59 115.83L324.01 111.41" stroke="#50504F" stroke-width="2" stroke-miterlimit="10"/>
<path d="M295.39 115.83L290.97 111.41" stroke="#50504F" stroke-width="2" stroke-miterlimit="10"/>
<path d="M289.94 125.86L284.24 125" stroke="#50504F" stroke-width="2" stroke-miterlimit="10"/>
<path d="M325.04 125.86L330.73 125" stroke="#50504F" stroke-width="2" stroke-miterlimit="10"/>
<path d="M312.12 124.81C311.96 126.56 311.01 127.66 309.69 128.2C310.3 127.63 310.69 126.77 310.69 125.52C310.69 123.08 307.49 120.2 307.49 120.2C307.49 120.2 304.29 123.08 304.29 125.52C304.29 126.77 304.69 127.63 305.29 128.2C303.96 127.66 303.02 126.57 302.86 124.81C301.74 126.29 300.85 127.94 300.85 129.5C300.85 133.14 303.02 135.04 305.94 135.51C305.29 135.13 304.86 134.47 304.86 133.45C304.86 131.76 307.49 129.77 307.49 129.77C307.49 129.77 310.12 131.77 310.12 133.45C310.12 134.46 309.69 135.13 309.04 135.51C311.96 135.03 314.13 133.14 314.13 129.5C314.12 127.95 313.24 126.29 312.12 124.81Z" fill="white"/>
<path d="M309.75 92.99H299.94V96.11H309.75V92.99Z" fill="#AEAFB3"/>
<path d="M314.65 98.57H304.84V101.69H314.65V98.57Z" fill="#AEAFB3"/>
<path d="M410.81 117.08C410.47 116.92 410.18 116.67 409.96 116.36L403.28 106.5L402.69 106.09C401.54 106.65 400.26 106.97 398.9 106.97C394.12 106.97 390.24 103.09 390.24 98.31C390.24 98.03 390.26 97.74 390.28 97.47L389.61 97L380.85 108.82C380.16 109.75 380.35 111.06 381.28 111.75L400.88 126.41C401.24 126.68 401.68 126.83 402.14 126.83H421.28V124.42V123.33C421.28 122.52 420.81 121.78 420.07 121.43L410.81 117.08Z" stroke="#50504F" stroke-width="2" stroke-miterlimit="10" stroke-linecap="round" stroke-linejoin="round"/>
<path d="M381.21 108.35L378.55 111.95C377.63 113.2 377.89 114.96 379.13 115.89L397.88 129.92C398.42 130.33 399.08 130.54 399.76 130.54H419.17C420.34 130.54 421.29 129.59 421.29 128.42V126.83" stroke="#50504F" stroke-width="2" stroke-miterlimit="10" stroke-linecap="round" stroke-linejoin="round"/>
<path d="M402.61 110.64L390.48 115.02L394.29 117.88L404.92 114.04L402.61 110.64Z" fill="#AEAFB3"/>
<path d="M408.48 119.3L406.18 115.9L396.38 119.44L400.19 122.29L408.48 119.3Z" fill="#AEAFB3"/>
<path d="M28.56 133.07H25.55L24.63 125.46H29.48L28.56 133.07Z" fill="#AEAFB3" stroke="#50504F" stroke-width="2" stroke-miterlimit="10"/>
<path d="M27.06 122.11C29.1034 122.11 30.76 120.453 30.76 118.41C30.76 116.367 29.1034 114.71 27.06 114.71C25.0165 114.71 23.36 116.367 23.36 118.41C23.36 120.453 25.0165 122.11 27.06 122.11Z" stroke="#50504F" stroke-width="2" stroke-miterlimit="10"/>
<path d="M24.51 124.55V121.2" stroke="#50504F" stroke-width="2" stroke-miterlimit="10"/>
<path d="M29.6 124.55V121.2" stroke="#50504F" stroke-width="2" stroke-miterlimit="10"/>
<path d="M30.75 111.44H23.35V114.7H30.75V111.44Z" stroke="#50504F" stroke-width="2" stroke-miterlimit="10"/>
<path d="M29.48 108.18H24.63V111.44H29.48V108.18Z" stroke="#50504F" stroke-width="2" stroke-miterlimit="10"/>
<path d="M33.39 84H20.72V108.16H33.39V84Z" stroke="#50504F" stroke-width="2" stroke-miterlimit="10"/>
<path d="M30.5117 93.7917V86.8817H23.6017V93.7917H30.5117Z" fill="#AEAFB3"/>
<path d="M10.84 133.07H7.83997L6.90997 125.46H11.77L10.84 133.07Z" fill="#AEAFB3" stroke="#50504F" stroke-width="2" stroke-miterlimit="10"/>
<path d="M9.34001 122.11C11.3835 122.11 13.04 120.453 13.04 118.41C13.04 116.367 11.3835 114.71 9.34001 114.71C7.29656 114.71 5.64001 116.367 5.64001 118.41C5.64001 120.453 7.29656 122.11 9.34001 122.11Z" stroke="#50504F" stroke-width="2" stroke-miterlimit="10"/>
<path d="M6.78998 124.55V121.2" stroke="#50504F" stroke-width="2" stroke-miterlimit="10"/>
<path d="M11.88 124.55V121.2" stroke="#50504F" stroke-width="2" stroke-miterlimit="10"/>
<path d="M13.04 111.44H5.64001V114.7H13.04V111.44Z" stroke="#50504F" stroke-width="2" stroke-miterlimit="10"/>
<path d="M11.76 108.18H6.90997V111.44H11.76V108.18Z" stroke="#50504F" stroke-width="2" stroke-miterlimit="10"/>
<path d="M14.68 86H4L6 108.16H12.68L14.68 86Z" stroke="#50504F" stroke-width="2" stroke-miterlimit="10"/>
<path d="M8.63997 105.28L7.15997 88.88H11.53L10.05 105.28H8.63997Z" fill="#AEAFB3"/>
<path d="M46.14 133.07H43.13L42.21 125.46H47.06L46.14 133.07Z" fill="#AEAFB3" stroke="#50504F" stroke-width="2" stroke-miterlimit="10"/>
<path d="M44.6399 122.11C46.6834 122.11 48.3399 120.453 48.3399 118.41C48.3399 116.367 46.6834 114.71 44.6399 114.71C42.5965 114.71 40.9399 116.367 40.9399 118.41C40.9399 120.453 42.5965 122.11 44.6399 122.11Z" stroke="#50504F" stroke-width="2" stroke-miterlimit="10"/>
<path d="M44.64 92.59C43.34 92.59 42.29 91.53 42.29 90.24C42.29 88.95 43.35 87.89 44.64 87.89C45.93 87.89 46.99 88.95 46.99 90.24C46.99 91.53 45.93 92.59 44.64 92.59Z" fill="#AEAFB3"/>
<path d="M42.09 124.55V121.2" stroke="#50504F" stroke-width="2" stroke-miterlimit="10"/>
<path d="M47.1801 124.55V121.2" stroke="#50504F" stroke-width="2" stroke-miterlimit="10"/>
<path d="M48.3301 111.44H40.9301V114.7H48.3301V111.44Z" stroke="#50504F" stroke-width="2" stroke-miterlimit="10"/>
<path d="M47.06 108.18H42.21V111.44H47.06V108.18Z" stroke="#50504F" stroke-width="2" stroke-miterlimit="10"/>
<path d="M49.87 90.23C49.87 87.34 47.53 85 44.64 85C41.75 85 39.41 87.34 39.41 90.23C39.41 92.24 40.56 93.96 42.22 94.84V108.16H47.07V94.84C48.72 93.97 49.87 92.24 49.87 90.23Z" stroke="#50504F" stroke-width="2" stroke-miterlimit="10"/>
<path d="M393.22 212.99C391.56 214.72 390.54 217.05 390.54 219.62V225.45H409.75V219.62C409.75 217.05 408.72 214.71 407.07 212.99H393.22Z" stroke="#50504F" stroke-width="2" stroke-miterlimit="10"/>
<path d="M393.42 222.57V219.62C393.42 218.27 393.83 216.97 394.58 215.87H405.71C406.47 216.98 406.87 218.28 406.87 219.62V222.57H393.42Z" fill="#AEAFB3"/>
<path d="M407.44 206.63H392.86V212.54H407.44V206.63Z" fill="#50504F"/>
<path d="M409.75 191.1H390.54V207.31H409.75V191.1Z" stroke="#50504F" stroke-width="2" stroke-miterlimit="10"/>
<path d="M409.75 187.23H390.54V191.1H409.75V187.23Z" stroke="#50504F" stroke-width="2" stroke-miterlimit="10"/>
<path d="M409.75 180.46H390.54L388.54 184.33H411.75L409.75 180.46Z" stroke="#50504F" stroke-width="2" stroke-miterlimit="10"/>
<path d="M406.7 184.33H393.58V187.23H406.7V184.33Z" fill="#50504F"/>
<path d="M402.12 177H398.17V179.9H402.12V177Z" fill="#50504F"/>
<path d="M400.14 212.26C401.228 212.26 402.11 211.378 402.11 210.29C402.11 209.202 401.228 208.32 400.14 208.32C399.052 208.32 398.17 209.202 398.17 210.29C398.17 211.378 399.052 212.26 400.14 212.26Z" fill="#AEAFB3"/>
<path d="M401.7 194.03H398.58V204.42H401.7V194.03Z" fill="#AEAFB3"/>
<path d="M396.7 194.03H393.58V204.42H396.7V194.03Z" fill="#AEAFB3"/>
<path d="M406.7 194.03H403.58V204.42H406.7V194.03Z" fill="#AEAFB3"/>
<path d="M386.63 191.1H413.66" stroke="#50504F" stroke-width="2" stroke-miterlimit="10"/>
<path d="M390.54 194.33H385C385 194.33 385 198.93 385 201.41C385 203.89 385.67 204.69 385.67 206.62C385.67 208.55 385 210.05 385 212.63C385 215.21 387.66 219.61 390.54 219.61" stroke="#50504F" stroke-width="2" stroke-miterlimit="10"/>
<path d="M409.75 194.33H415.29C415.29 194.33 415.29 198.93 415.29 201.41C415.29 203.89 414.62 204.69 414.62 206.62C414.62 208.55 415.29 210.05 415.29 212.63C415.29 215.21 412.63 219.61 409.75 219.61" stroke="#50504F" stroke-width="2" stroke-miterlimit="10"/>
<path d="M41.93 229.96H11.06C11.06 229.96 3 226.33 3 221.9V200.22C3 193.62 8.4 188.22 15 188.22H37.99C44.59 188.22 49.99 193.62 49.99 200.22V221.9C49.99 226.33 41.93 229.96 41.93 229.96Z" stroke="#50504F" stroke-width="2" stroke-miterlimit="10"/>
<path d="M3 221.9H49.99" stroke="#50504F" stroke-width="2" stroke-miterlimit="10"/>
<path d="M11.71 227.08C10.44 226.45 9.14003 225.62 8.09003 224.78H44.91C43.86 225.63 42.56 226.45 41.28 227.08H11.71Z" fill="#AEAFB3"/>
<path d="M3 215.39C3 213.04 4.92 211.13 7.26 211.13H45.72C48.07 211.13 49.98 213.05 49.98 215.39" stroke="#50504F" stroke-width="2" stroke-miterlimit="10"/>
<path d="M26.49 211.13V221.9" stroke="#50504F" stroke-width="2" stroke-miterlimit="10"/>
<path d="M14.49 211.13V221.9" stroke="#50504F" stroke-width="2" stroke-miterlimit="10"/>
<path d="M38.49 211.13V221.9" stroke="#50504F" stroke-width="2" stroke-miterlimit="10"/>
<path d="M35.02 188.22C35.02 188.22 29.7 181.8 28.9 180.4C28.1 179 26.49 177.19 26.49 173.58C26.49 169.97 26.49 167.06 26.49 167.06" stroke="#50504F" stroke-width="2" stroke-miterlimit="10"/>
<path d="M19.75 167H33.25" stroke="#50504F" stroke-width="2" stroke-miterlimit="10"/>
<path d="M24.89 188.22C27.65 188.22 29.88 185.99 29.88 183.23V181.86" stroke="#50504F" stroke-width="2" stroke-miterlimit="10"/>
<path d="M213.73 218.51C222.279 218.51 229.21 211.579 229.21 203.03C229.21 194.481 222.279 187.55 213.73 187.55C205.181 187.55 198.25 194.481 198.25 203.03C198.25 211.579 205.181 218.51 213.73 218.51Z" fill="white" stroke="#50504F" stroke-width="2" stroke-miterlimit="10"/>
<path d="M213.73 215.62C206.79 215.62 201.14 209.97 201.14 203.02C201.14 196.07 206.79 190.42 213.73 190.42C220.68 190.42 226.33 196.07 226.33 203.02C226.33 209.97 220.67 215.62 213.73 215.62Z" fill="#AEAFB3"/>
<path d="M213.73 203.5C212.37 203.5 211.26 202.39 211.26 201.03V183.24C211.26 181.88 212.37 180.77 213.73 180.77C215.09 180.77 216.2 181.88 216.2 183.24V201.03C216.2 202.39 215.09 203.5 213.73 203.5Z" fill="white" stroke="#50504F" stroke-width="2" stroke-miterlimit="10"/>
<path d="M213.73 192.56C219.131 192.56 223.51 188.181 223.51 182.78C223.51 177.379 219.131 173 213.73 173C208.329 173 203.95 177.379 203.95 182.78C203.95 188.181 208.329 192.56 213.73 192.56Z" fill="white" stroke="#50504F" stroke-width="2" stroke-miterlimit="10"/>
<path d="M242.46 203.03L234 207.91V198.14L242.46 203.03Z" fill="#AEAFB3"/>
<path d="M185 203.03L193.46 198.14V207.91L185 203.03Z" fill="#AEAFB3"/>
<path d="M213.73 231.81L208.85 223.35H218.61L213.73 231.81Z" fill="#AEAFB3"/>
<path d="M332.95 178H281V226.61H332.95V178Z" stroke="#50504F" stroke-width="2" stroke-miterlimit="10"/>
<path d="M323.12 191.37L318.45 196.09L305.37 184.54L294.45 194.37L287.45 190.54L283.88 193.03V206.48L290.45 204.87L294.95 200.04L306.98 190.7L317.45 205.37L324.29 197.29L327.95 203.37L330.08 205.07V197.15L323.12 191.37Z" fill="#AEAFB3"/>
<path d="M306.31 195.29L302.79 198.48L291.12 211.23L300.79 204.26L309.95 207.4L304.71 200.57L306.31 195.29Z" fill="#AEAFB3"/>
<path d="M301.37 216.87L314.12 212.04L320.79 218.87L314.29 215.45L301.37 216.87Z" fill="#AEAFB3"/>
<path d="M324.12 202.31L327.29 207.19L329.79 211.23H321.79L326.29 210.04L321.79 207.19H325.12L324.12 202.31Z" fill="#AEAFB3"/>
<path d="M104.15 191.5H136.23L145.62 194.25V223.5L136.23 226.25H104.15L94.76 223.5V194.25L104.15 191.5Z" stroke="#50504F" stroke-width="2" stroke-miterlimit="10"/>
<path d="M147.38 211.61H93V219.14H147.38V211.61Z" fill="white" stroke="#50504F" stroke-width="2" stroke-miterlimit="10"/>
<path d="M136.23 226.25H104.15V230.21H136.23V226.25Z" fill="#AEAFB3" stroke="#50504F" stroke-width="2" stroke-miterlimit="10"/>
<path d="M136.23 187.55H104.15V191.51H136.23V187.55Z" fill="#AEAFB3" stroke="#50504F" stroke-width="2" stroke-miterlimit="10"/>
<path d="M144.494 216.254V214.484H95.8738V216.254H144.494Z" fill="#AEAFB3"/>
<path d="M104.15 191.5V211.61" stroke="#50504F" stroke-width="2" stroke-miterlimit="10"/>
<path d="M136.23 191.5V211.61" stroke="#50504F" stroke-width="2" stroke-miterlimit="10"/>
<path d="M94.76 201.94H145.62" stroke="#50504F" stroke-width="2" stroke-miterlimit="10"/>
<path d="M120.19 187.55V175.11" stroke="#50504F" stroke-width="2" stroke-miterlimit="10"/>
<path d="M104.15 179.11L136.23 172.11" stroke="#50504F" stroke-width="2" stroke-miterlimit="10"/>
<path d="M115.44 173.57C116.959 173.57 118.19 172.339 118.19 170.82C118.19 169.301 116.959 168.07 115.44 168.07C113.921 168.07 112.69 169.301 112.69 170.82C112.69 172.339 113.921 173.57 115.44 173.57Z" fill="#AEAFB3" stroke="#50504F" stroke-width="2" stroke-miterlimit="10"/>
<path d="M124.94 171.5C126.459 171.5 127.69 170.269 127.69 168.75C127.69 167.231 126.459 166 124.94 166C123.421 166 122.19 167.231 122.19 168.75C122.19 170.269 123.421 171.5 124.94 171.5Z" fill="#AEAFB3" stroke="#50504F" stroke-width="2" stroke-miterlimit="10"/>
</svg>
