<svg width="620" height="150" viewBox="0 0 620 150" fill="none" xmlns="http://www.w3.org/2000/svg">
<path d="M125.67 36.485H115.1V52.415H125.67V36.485Z" fill="#AEAFB3"/>
<path d="M123.16 28.215V15.605H117.61V28.215C114.35 29.365 112 32.475 112 36.115V63.355H128.77V36.115C128.77 32.475 126.41 29.365 123.16 28.215Z" stroke="#50504F" stroke-width="2" stroke-miterlimit="10"/>
<path d="M410 22.045H390L392 56.915H408L410 22.045Z" stroke="#50504F" stroke-width="2" stroke-miterlimit="10"/>
<path d="M393.31 29.4951L394.72 54.0351H405.28L406.69 29.4951H393.31Z" fill="#AEAFB3"/>
<path d="M201 22.045V33.245C201 40.415 206.86 46.275 214.03 46.275C221.2 46.275 227.06 40.415 227.06 33.245V22.045H201V22.045Z" stroke="#50504F" stroke-width="2" stroke-miterlimit="10"/>
<path d="M214.03 43.385C208.43 43.385 203.88 38.835 203.88 33.235V29.915H224.18V33.235C224.18 38.835 219.63 43.385 214.03 43.385Z" fill="#AEAFB3"/>
<path d="M214.03 46.265V56.915" stroke="#50504F" stroke-width="2" stroke-miterlimit="10"/>
<path d="M204.78 56.915H223.28" stroke="#50504F" stroke-width="2" stroke-miterlimit="10"/>
<path d="M311.97 31.75L310.19 15.54H304.62L302.84 31.75C299.58 32.91 299 36.02 299 39.67V63.42H315.81V39.67C315.81 36.03 315.24 32.91 311.97 31.75Z" stroke="#50504F" stroke-width="1.8689" stroke-miterlimit="10"/>
<path d="M307.53 45.7901C309.96 45.7901 311.93 43.8201 311.93 41.3901C311.93 38.96 309.96 36.9901 307.53 36.9901C305.1 36.9901 303.13 38.96 303.13 41.3901C303.13 43.8201 305.1 45.7901 307.53 45.7901Z" fill="#AEAFB3"/>
<path d="M13.99 63.7901C21.1642 63.7901 26.98 57.9742 26.98 50.8001C26.98 43.6259 21.1642 37.8101 13.99 37.8101C6.81582 37.8101 1 43.6259 1 50.8001C1 57.9742 6.81582 63.7901 13.99 63.7901Z" stroke="#50504F" stroke-width="2" stroke-miterlimit="10"/>
<path d="M39.97 63.7901C47.1442 63.7901 52.96 57.9742 52.96 50.8001C52.96 43.6259 47.1442 37.8101 39.97 37.8101C32.7958 37.8101 26.98 43.6259 26.98 50.8001C26.98 57.9742 32.7958 63.7901 39.97 63.7901Z" stroke="#50504F" stroke-width="2" stroke-miterlimit="10"/>
<path d="M26.98 41.15C34.1542 41.15 39.97 35.3342 39.97 28.16C39.97 20.9859 34.1542 15.17 26.98 15.17C19.8058 15.17 13.99 20.9859 13.99 28.16C13.99 35.3342 19.8058 41.15 26.98 41.15Z" stroke="#50504F" stroke-width="2" stroke-miterlimit="10"/>
<path d="M19.37 34.8H34.58C35.16 34.14 35.65 33.4 36.04 32.61H17.91C18.3 33.4 18.79 34.13 19.37 34.8Z" fill="#AEAFB3"/>
<path d="M17.31 31.1H36.65C36.86 30.4 37 29.66 37.05 28.91H16.91C16.96 29.67 17.09 30.4 17.31 31.1Z" fill="#AEAFB3"/>
<path d="M36.65 25.22H17.31C17.1 25.92 16.96 26.66 16.91 27.41H37.05C36.99 26.65 36.86 25.92 36.65 25.22Z" fill="#AEAFB3"/>
<path d="M26.98 38.2701C29.22 38.2701 31.28 37.53 32.95 36.3H21C22.68 37.53 24.74 38.2701 26.98 38.2701Z" fill="#AEAFB3"/>
<path d="M34.58 21.52H19.37C18.79 22.18 18.3 22.92 17.91 23.71H36.04C35.65 22.92 35.16 22.18 34.58 21.52Z" fill="#AEAFB3"/>
<path d="M26.9799 18.05C24.7399 18.05 22.6799 18.79 21.0099 20.02H32.9499C31.2699 18.79 29.2099 18.05 26.9799 18.05Z" fill="#AEAFB3"/>
<path d="M6.37998 57.43H21.59C22.17 56.77 22.66 56.0301 23.05 55.2401H4.91998C5.30998 56.0301 5.79998 56.77 6.37998 57.43Z" fill="#AEAFB3"/>
<path d="M4.31998 53.74H23.66C23.87 53.04 24.01 52.3 24.06 51.55H3.91998C3.96998 52.3 4.10998 53.04 4.31998 53.74Z" fill="#AEAFB3"/>
<path d="M23.66 47.85H4.31998C4.10998 48.55 3.96998 49.29 3.91998 50.04H24.06C24 49.29 23.87 48.55 23.66 47.85Z" fill="#AEAFB3"/>
<path d="M13.99 60.9001C16.23 60.9001 18.29 60.1601 19.96 58.9301H8.01996C9.68996 60.1701 11.75 60.9001 13.99 60.9001Z" fill="#AEAFB3"/>
<path d="M21.59 44.16H6.37998C5.79998 44.82 5.30998 45.56 4.91998 46.35H23.05C22.66 45.56 22.17 44.82 21.59 44.16Z" fill="#AEAFB3"/>
<path d="M13.99 40.6901C11.75 40.6901 9.68996 41.4301 8.01996 42.6601H19.96C18.29 41.4201 16.22 40.6901 13.99 40.6901Z" fill="#AEAFB3"/>
<path d="M32.36 57.43H47.57C48.15 56.77 48.64 56.0301 49.03 55.2401H30.9C31.29 56.0301 31.78 56.77 32.36 57.43Z" fill="#AEAFB3"/>
<path d="M30.3 53.74H49.64C49.85 53.04 49.99 52.3 50.04 51.55H29.9C29.95 52.3 30.08 53.04 30.3 53.74Z" fill="#AEAFB3"/>
<path d="M49.63 47.85H30.3C30.09 48.55 29.95 49.29 29.9 50.04H50.04C49.98 49.29 49.85 48.55 49.63 47.85Z" fill="#AEAFB3"/>
<path d="M39.97 60.9001C42.21 60.9001 44.27 60.1601 45.94 58.9301H33.99C35.67 60.1701 37.73 60.9001 39.97 60.9001Z" fill="#AEAFB3"/>
<path d="M47.57 44.16H32.36C31.78 44.82 31.29 45.56 30.9 46.35H49.03C48.64 45.56 48.15 44.82 47.57 44.16Z" fill="#AEAFB3"/>
<path d="M39.97 40.6901C37.73 40.6901 35.67 41.4301 34 42.6601H45.94C44.26 41.4201 42.2 40.6901 39.97 40.6901Z" fill="#AEAFB3"/>
<path d="M227.16 113.305C226.74 106.185 220.81 100.495 213.6 100.495C206.39 100.495 200.46 106.195 200.04 113.305C200.01 113.475 200 113.655 200 113.835V121.205C200 122.475 200.68 123.655 201.79 124.285L211.82 130.055C212.92 130.695 214.29 130.695 215.39 130.055L225.42 124.285C226.52 123.645 227.21 122.475 227.21 121.205V113.835C227.2 113.655 227.19 113.475 227.16 113.305Z" stroke="#50504F" stroke-width="2" stroke-miterlimit="10"/>
<path d="M213.65 147.505C212.29 147.505 211.18 146.395 211.18 145.035V127.245C211.18 125.885 212.29 124.775 213.65 124.775C215.01 124.775 216.12 125.885 216.12 127.245V145.035C216.12 146.395 215.01 147.505 213.65 147.505Z" fill="#AEAFB3" stroke="#50504F" stroke-width="2" stroke-miterlimit="10"/>
<path d="M120.62 147.62C133.665 147.62 144.24 137.045 144.24 124C144.24 110.955 133.665 100.38 120.62 100.38C107.575 100.38 97 110.955 97 124C97 137.045 107.575 147.62 120.62 147.62Z" stroke="#50504F" stroke-width="2" stroke-miterlimit="10"/>
<path d="M120.62 143.23C131.24 143.23 139.85 134.62 139.85 124C139.85 113.38 131.24 104.77 120.62 104.77C110 104.77 101.39 113.38 101.39 124C101.39 134.62 110 143.23 120.62 143.23Z" stroke="#50504F" stroke-width="2" stroke-miterlimit="10"/>
<path d="M131.93 112.23C128.99 109.4 125 107.65 120.61 107.65V123.55L131.93 112.23Z" fill="#AEAFB3"/>
<path d="M114.12 118.13C115.517 118.13 116.65 116.997 116.65 115.6C116.65 114.203 115.517 113.07 114.12 113.07C112.723 113.07 111.59 114.203 111.59 115.6C111.59 116.997 112.723 118.13 114.12 118.13Z" fill="#AEAFB3"/>
<path d="M134.46 124C135.857 124 136.99 122.867 136.99 121.47C136.99 120.073 135.857 118.94 134.46 118.94C133.063 118.94 131.93 120.073 131.93 121.47C131.93 122.867 133.063 124 134.46 124Z" fill="#AEAFB3"/>
<path d="M120.61 139.79C122.007 139.79 123.14 138.657 123.14 137.26C123.14 135.863 122.007 134.73 120.61 134.73C119.213 134.73 118.08 135.863 118.08 137.26C118.08 138.657 119.213 139.79 120.61 139.79Z" fill="#AEAFB3"/>
<path d="M130.82 134.74C132.217 134.74 133.35 133.607 133.35 132.21C133.35 130.813 132.217 129.68 130.82 129.68C129.423 129.68 128.29 130.813 128.29 132.21C128.29 133.607 129.423 134.74 130.82 134.74Z" fill="#AEAFB3"/>
<path d="M107.78 126.08C109.177 126.08 110.31 124.947 110.31 123.55C110.31 122.153 109.177 121.02 107.78 121.02C106.383 121.02 105.25 122.153 105.25 123.55C105.25 124.947 106.383 126.08 107.78 126.08Z" fill="#AEAFB3"/>
<path d="M112.28 134.74C113.677 134.74 114.81 133.607 114.81 132.21C114.81 130.813 113.677 129.68 112.28 129.68C110.883 129.68 109.75 130.813 109.75 132.21C109.75 133.607 110.883 134.74 112.28 134.74Z" fill="#AEAFB3"/>
<path d="M125.77 128.67C127.167 128.67 128.3 127.537 128.3 126.14C128.3 124.743 127.167 123.61 125.77 123.61C124.373 123.61 123.24 124.743 123.24 126.14C123.24 127.537 124.373 128.67 125.77 128.67Z" fill="#AEAFB3"/>
<path d="M116.64 128.67C118.037 128.67 119.17 127.537 119.17 126.14C119.17 124.743 118.037 123.61 116.64 123.61C115.243 123.61 114.11 124.743 114.11 126.14C114.11 127.537 115.243 128.67 116.64 128.67Z" fill="#AEAFB3"/>
<path d="M330.98 147.67V138.75C330.98 125.83 320.41 115.26 307.49 115.26C294.57 115.26 284 125.83 284 138.75V147.67H330.98Z" stroke="#50504F" stroke-width="2" stroke-miterlimit="10"/>
<path d="M325.04 147.67V139.19C325.04 129.54 317.14 121.64 307.49 121.64C297.84 121.64 289.94 129.54 289.94 139.19V147.67H325.04Z" fill="white" stroke="#50504F" stroke-width="2" stroke-miterlimit="10"/>
<path d="M292.82 144.79V139.19C292.82 131.1 299.4 124.52 307.49 124.52C315.58 124.52 322.16 131.1 322.16 139.19V144.79H292.82Z" fill="#AEAFB3"/>
<path d="M318.08 117.48V100.33H296.9V117.48" stroke="#50504F" stroke-width="2" stroke-miterlimit="10"/>
<path d="M307.49 121.63V115.25" stroke="#50504F" stroke-width="2" stroke-miterlimit="10"/>
<path d="M319.59 126.16L324.01 121.74" stroke="#50504F" stroke-width="2" stroke-miterlimit="10"/>
<path d="M295.39 126.16L290.97 121.74" stroke="#50504F" stroke-width="2" stroke-miterlimit="10"/>
<path d="M289.94 136.19L284.24 135.33" stroke="#50504F" stroke-width="2" stroke-miterlimit="10"/>
<path d="M325.04 136.19L330.73 135.33" stroke="#50504F" stroke-width="2" stroke-miterlimit="10"/>
<path d="M312.12 135.14C311.96 136.89 311.01 137.99 309.69 138.53C310.3 137.96 310.69 137.1 310.69 135.85C310.69 133.41 307.49 130.53 307.49 130.53C307.49 130.53 304.29 133.41 304.29 135.85C304.29 137.1 304.69 137.96 305.29 138.53C303.96 137.99 303.02 136.9 302.86 135.14C301.74 136.62 300.85 138.27 300.85 139.83C300.85 143.47 303.02 145.37 305.94 145.84C305.29 145.46 304.86 144.8 304.86 143.78C304.86 142.09 307.49 140.1 307.49 140.1C307.49 140.1 310.12 142.1 310.12 143.78C310.12 144.79 309.69 145.46 309.04 145.84C311.96 145.36 314.13 143.47 314.13 139.83C314.12 138.28 313.24 136.62 312.12 135.14Z" fill="white"/>
<path d="M309.75 103.32H299.94V106.44H309.75V103.32Z" fill="#AEAFB3"/>
<path d="M314.65 108.9H304.84V112.02H314.65V108.9Z" fill="#AEAFB3"/>
<path d="M410.81 127.31C410.47 127.15 410.18 126.9 409.96 126.59L403.28 116.73L402.69 116.32C401.54 116.88 400.26 117.2 398.9 117.2C394.12 117.2 390.24 113.32 390.24 108.54C390.24 108.26 390.26 107.97 390.28 107.7L389.61 107.23L380.85 119.05C380.16 119.98 380.35 121.29 381.28 121.98L400.88 136.64C401.24 136.91 401.68 137.06 402.14 137.06H421.28V134.65V133.56C421.28 132.75 420.81 132.01 420.07 131.66L410.81 127.31Z" stroke="#50504F" stroke-width="2" stroke-miterlimit="10" stroke-linecap="round" stroke-linejoin="round"/>
<path d="M381.21 118.58L378.55 122.18C377.63 123.43 377.89 125.19 379.13 126.12L397.88 140.15C398.42 140.56 399.08 140.77 399.76 140.77H419.17C420.34 140.77 421.29 139.82 421.29 138.65V137.06" stroke="#50504F" stroke-width="2" stroke-miterlimit="10" stroke-linecap="round" stroke-linejoin="round"/>
<path d="M402.61 120.87L390.48 125.25L394.29 128.11L404.92 124.27L402.61 120.87Z" fill="#AEAFB3"/>
<path d="M408.48 129.53L406.18 126.13L396.38 129.67L400.19 132.52L408.48 129.53Z" fill="#AEAFB3"/>
<path d="M28.56 148.535H25.55L24.63 140.925H29.48L28.56 148.535Z" fill="#AEAFB3" stroke="#50504F" stroke-width="2" stroke-miterlimit="10"/>
<path d="M27.06 137.575C29.1034 137.575 30.76 135.919 30.76 133.875C30.76 131.832 29.1034 130.175 27.06 130.175C25.0165 130.175 23.36 131.832 23.36 133.875C23.36 135.919 25.0165 137.575 27.06 137.575Z" stroke="#50504F" stroke-width="2" stroke-miterlimit="10"/>
<path d="M24.51 140.015V136.665" stroke="#50504F" stroke-width="2" stroke-miterlimit="10"/>
<path d="M29.6 140.015V136.665" stroke="#50504F" stroke-width="2" stroke-miterlimit="10"/>
<path d="M30.75 126.905H23.35V130.165H30.75V126.905Z" stroke="#50504F" stroke-width="2" stroke-miterlimit="10"/>
<path d="M29.48 123.645H24.63V126.905H29.48V123.645Z" stroke="#50504F" stroke-width="2" stroke-miterlimit="10"/>
<path d="M33.39 99.465H20.72V123.625H33.39V99.465Z" stroke="#50504F" stroke-width="2" stroke-miterlimit="10"/>
<path d="M30.5117 109.257V102.347H23.6017V109.257H30.5117Z" fill="#AEAFB3"/>
<path d="M10.84 148.535H7.83997L6.90997 140.925H11.77L10.84 148.535Z" fill="#AEAFB3" stroke="#50504F" stroke-width="2" stroke-miterlimit="10"/>
<path d="M9.34001 137.575C11.3835 137.575 13.04 135.919 13.04 133.875C13.04 131.832 11.3835 130.175 9.34001 130.175C7.29656 130.175 5.64001 131.832 5.64001 133.875C5.64001 135.919 7.29656 137.575 9.34001 137.575Z" stroke="#50504F" stroke-width="2" stroke-miterlimit="10"/>
<path d="M6.78998 140.015V136.665" stroke="#50504F" stroke-width="2" stroke-miterlimit="10"/>
<path d="M11.88 140.015V136.665" stroke="#50504F" stroke-width="2" stroke-miterlimit="10"/>
<path d="M13.04 126.905H5.64001V130.165H13.04V126.905Z" stroke="#50504F" stroke-width="2" stroke-miterlimit="10"/>
<path d="M11.76 123.645H6.90997V126.905H11.76V123.645Z" stroke="#50504F" stroke-width="2" stroke-miterlimit="10"/>
<path d="M14.68 101.465H4L6 123.625H12.68L14.68 101.465Z" stroke="#50504F" stroke-width="2" stroke-miterlimit="10"/>
<path d="M8.63997 120.745L7.15997 104.345H11.53L10.05 120.745H8.63997Z" fill="#AEAFB3"/>
<path d="M46.14 148.535H43.13L42.21 140.925H47.06L46.14 148.535Z" fill="#AEAFB3" stroke="#50504F" stroke-width="2" stroke-miterlimit="10"/>
<path d="M44.6399 137.575C46.6834 137.575 48.3399 135.919 48.3399 133.875C48.3399 131.832 46.6834 130.175 44.6399 130.175C42.5965 130.175 40.9399 131.832 40.9399 133.875C40.9399 135.919 42.5965 137.575 44.6399 137.575Z" stroke="#50504F" stroke-width="2" stroke-miterlimit="10"/>
<path d="M44.64 108.055C43.34 108.055 42.29 106.995 42.29 105.705C42.29 104.415 43.35 103.355 44.64 103.355C45.93 103.355 46.99 104.415 46.99 105.705C46.99 106.995 45.93 108.055 44.64 108.055Z" fill="#AEAFB3"/>
<path d="M42.09 140.015V136.665" stroke="#50504F" stroke-width="2" stroke-miterlimit="10"/>
<path d="M47.1801 140.015V136.665" stroke="#50504F" stroke-width="2" stroke-miterlimit="10"/>
<path d="M48.3301 126.905H40.9301V130.165H48.3301V126.905Z" stroke="#50504F" stroke-width="2" stroke-miterlimit="10"/>
<path d="M47.06 123.645H42.21V126.905H47.06V123.645Z" stroke="#50504F" stroke-width="2" stroke-miterlimit="10"/>
<path d="M49.87 105.695C49.87 102.805 47.53 100.465 44.64 100.465C41.75 100.465 39.41 102.805 39.41 105.695C39.41 107.705 40.56 109.425 42.22 110.305V123.625H47.07V110.305C48.72 109.435 49.87 107.705 49.87 105.695Z" stroke="#50504F" stroke-width="2" stroke-miterlimit="10"/>
<path d="M485.27 135.765C483.61 137.495 482.59 139.825 482.59 142.395V148.225H501.8V142.395C501.8 139.825 500.77 137.485 499.12 135.765H485.27Z" stroke="#50504F" stroke-width="2" stroke-miterlimit="10"/>
<path d="M485.47 145.345V142.395C485.47 141.045 485.88 139.745 486.63 138.645H497.76C498.52 139.755 498.92 141.055 498.92 142.395V145.345H485.47Z" fill="#AEAFB3"/>
<path d="M499.49 129.405H484.91V135.315H499.49V129.405Z" fill="#50504F"/>
<path d="M501.8 113.875H482.59V130.085H501.8V113.875Z" stroke="#50504F" stroke-width="2" stroke-miterlimit="10"/>
<path d="M501.8 110.005H482.59V113.875H501.8V110.005Z" stroke="#50504F" stroke-width="2" stroke-miterlimit="10"/>
<path d="M501.8 103.235H482.59L480.59 107.105H503.8L501.8 103.235Z" stroke="#50504F" stroke-width="2" stroke-miterlimit="10"/>
<path d="M498.75 107.105H485.63V110.005H498.75V107.105Z" fill="#50504F"/>
<path d="M494.17 99.7751H490.22V102.675H494.17V99.7751Z" fill="#50504F"/>
<path d="M492.19 135.035C493.278 135.035 494.16 134.153 494.16 133.065C494.16 131.977 493.278 131.095 492.19 131.095C491.102 131.095 490.22 131.977 490.22 133.065C490.22 134.153 491.102 135.035 492.19 135.035Z" fill="#AEAFB3"/>
<path d="M493.75 116.805H490.63V127.195H493.75V116.805Z" fill="#AEAFB3"/>
<path d="M488.75 116.805H485.63V127.195H488.75V116.805Z" fill="#AEAFB3"/>
<path d="M498.75 116.805H495.63V127.195H498.75V116.805Z" fill="#AEAFB3"/>
<path d="M478.68 113.875H505.71" stroke="#50504F" stroke-width="2" stroke-miterlimit="10"/>
<path d="M482.59 117.105H477.05C477.05 117.105 477.05 121.705 477.05 124.185C477.05 126.665 477.72 127.465 477.72 129.395C477.72 131.325 477.05 132.825 477.05 135.405C477.05 137.985 479.71 142.385 482.59 142.385" stroke="#50504F" stroke-width="2" stroke-miterlimit="10"/>
<path d="M501.8 117.105H507.34C507.34 117.105 507.34 121.705 507.34 124.185C507.34 126.665 506.67 127.465 506.67 129.395C506.67 131.325 507.34 132.825 507.34 135.405C507.34 137.985 504.68 142.385 501.8 142.385" stroke="#50504F" stroke-width="2" stroke-miterlimit="10"/>
<path d="M605.93 63.96H575.06C575.06 63.96 567 60.33 567 55.9V34.22C567 27.62 572.4 22.22 579 22.22H601.99C608.59 22.22 613.99 27.62 613.99 34.22V55.9C613.99 60.33 605.93 63.96 605.93 63.96Z" stroke="#50504F" stroke-width="2" stroke-miterlimit="10"/>
<path d="M567 55.9H613.99" stroke="#50504F" stroke-width="2" stroke-miterlimit="10"/>
<path d="M575.71 61.08C574.44 60.45 573.14 59.62 572.09 58.78H608.91C607.86 59.63 606.56 60.45 605.28 61.08H575.71Z" fill="#AEAFB3"/>
<path d="M567 49.39C567 47.04 568.92 45.13 571.26 45.13H609.72C612.07 45.13 613.98 47.05 613.98 49.39" stroke="#50504F" stroke-width="2" stroke-miterlimit="10"/>
<path d="M590.49 45.13V55.9" stroke="#50504F" stroke-width="2" stroke-miterlimit="10"/>
<path d="M578.49 45.13V55.9" stroke="#50504F" stroke-width="2" stroke-miterlimit="10"/>
<path d="M602.49 45.13V55.9" stroke="#50504F" stroke-width="2" stroke-miterlimit="10"/>
<path d="M599.02 22.22C599.02 22.22 593.7 15.8 592.9 14.4C592.1 13 590.49 11.19 590.49 7.58C590.49 3.97 590.49 1.06 590.49 1.06" stroke="#50504F" stroke-width="2" stroke-miterlimit="10"/>
<path d="M583.75 1H597.25" stroke="#50504F" stroke-width="2" stroke-miterlimit="10"/>
<path d="M588.89 22.22C591.65 22.22 593.88 19.99 593.88 17.23V15.86" stroke="#50504F" stroke-width="2" stroke-miterlimit="10"/>
<path d="M492.58 55.585C501.129 55.585 508.06 48.6544 508.06 40.105C508.06 31.5556 501.129 24.625 492.58 24.625C484.031 24.625 477.1 31.5556 477.1 40.105C477.1 48.6544 484.031 55.585 492.58 55.585Z" fill="white" stroke="#50504F" stroke-width="2" stroke-miterlimit="10"/>
<path d="M492.58 52.695C485.64 52.695 479.99 47.045 479.99 40.095C479.99 33.145 485.64 27.495 492.58 27.495C499.53 27.495 505.18 33.145 505.18 40.095C505.18 47.045 499.52 52.695 492.58 52.695Z" fill="#AEAFB3"/>
<path d="M492.58 40.575C491.22 40.575 490.11 39.465 490.11 38.105V20.315C490.11 18.955 491.22 17.845 492.58 17.845C493.94 17.845 495.05 18.955 495.05 20.315V38.105C495.05 39.465 493.94 40.575 492.58 40.575Z" fill="white" stroke="#50504F" stroke-width="2" stroke-miterlimit="10"/>
<path d="M492.58 29.635C497.981 29.635 502.36 25.2564 502.36 19.855C502.36 14.4537 497.981 10.075 492.58 10.075C487.179 10.075 482.8 14.4537 482.8 19.855C482.8 25.2564 487.179 29.635 492.58 29.635Z" fill="white" stroke="#50504F" stroke-width="2" stroke-miterlimit="10"/>
<path d="M521.31 40.105L512.85 44.985V35.215L521.31 40.105Z" fill="#AEAFB3"/>
<path d="M463.85 40.105L472.31 35.215V44.985L463.85 40.105Z" fill="#AEAFB3"/>
<path d="M492.58 68.885L487.7 60.425H497.46L492.58 68.885Z" fill="#AEAFB3"/>
<path d="M575.345 109.395H607.425L616.815 112.145V141.395L607.425 144.145H575.345L565.955 141.395V112.145L575.345 109.395Z" stroke="#50504F" stroke-width="2" stroke-miterlimit="10"/>
<path d="M618.575 129.505H564.195V137.035H618.575V129.505Z" fill="white" stroke="#50504F" stroke-width="2" stroke-miterlimit="10"/>
<path d="M607.425 144.145H575.345V148.105H607.425V144.145Z" fill="#AEAFB3" stroke="#50504F" stroke-width="2" stroke-miterlimit="10"/>
<path d="M607.425 105.445H575.345V109.405H607.425V105.445Z" fill="#AEAFB3" stroke="#50504F" stroke-width="2" stroke-miterlimit="10"/>
<path d="M615.689 134.15V132.38H567.069V134.15H615.689Z" fill="#AEAFB3"/>
<path d="M575.345 109.395V129.505" stroke="#50504F" stroke-width="2" stroke-miterlimit="10"/>
<path d="M607.425 109.395V129.505" stroke="#50504F" stroke-width="2" stroke-miterlimit="10"/>
<path d="M565.955 119.835H616.815" stroke="#50504F" stroke-width="2" stroke-miterlimit="10"/>
<path d="M591.385 105.445V93.005" stroke="#50504F" stroke-width="2" stroke-miterlimit="10"/>
<path d="M575.345 97.005L607.425 90.005" stroke="#50504F" stroke-width="2" stroke-miterlimit="10"/>
<path d="M586.635 91.465C588.154 91.465 589.385 90.2338 589.385 88.715C589.385 87.1962 588.154 85.965 586.635 85.965C585.116 85.965 583.885 87.1962 583.885 88.715C583.885 90.2338 585.116 91.465 586.635 91.465Z" fill="#AEAFB3" stroke="#50504F" stroke-width="2" stroke-miterlimit="10"/>
<path d="M596.135 89.395C597.654 89.395 598.885 88.1638 598.885 86.645C598.885 85.1262 597.654 83.895 596.135 83.895C594.616 83.895 593.385 85.1262 593.385 86.645C593.385 88.1638 594.616 89.395 596.135 89.395Z" fill="#AEAFB3" stroke="#50504F" stroke-width="2" stroke-miterlimit="10"/>
</svg>
