<svg width="853" height="183" fill="none" xmlns="http://www.w3.org/2000/svg"><path clip-rule="evenodd" d="M263.804 63.798a7.28 7.28 0 0 0-10.29 0 7.28 7.28 0 0 0 0 10.29l44.842 44.842a7.279 7.279 0 0 0 10.29 0 7.279 7.279 0 0 0 0-10.29l-44.842-44.842z" stroke="#FD760A" stroke-width="4"/><path d="M251.391 104.689a7.254 7.254 0 0 0 2.123 5.435l8.807 8.806a7.279 7.279 0 0 0 10.29 0 7.279 7.279 0 0 0 0-10.29l-21.22-21.22m59.359-9.06a7.264 7.264 0 0 0-2.104-5.756l-8.806-8.806a7.28 7.28 0 0 0-10.29 0 7.28 7.28 0 0 0 0 10.29l21.226 21.226-.026-16.954z" stroke="#FD760A" stroke-width="4" stroke-linecap="round"/><path d="M251.384 69.444v35.54m59.391-26.739v35.54-35.54z" stroke="#FD760A" stroke-width="4"/><path d="M308.646 61.668l2.622 2.622m-59.884 54.64l2.623 2.622m27.073-79.197c27.049 0 49.01 21.96 49.01 49.01 0 27.048-21.961 49.008-49.01 49.008-27.048 0-49.009-21.96-49.009-49.009 0-27.05 21.961-49.01 49.009-49.01z" stroke="#fff" stroke-width="4" stroke-linecap="round"/><path clip-rule="evenodd" d="M281.08 14.015c42.697 0 77.361 34.664 77.361 77.36 0 42.697-34.664 77.361-77.361 77.361-42.696 0-77.36-34.664-77.36-77.36 0-42.697 34.664-77.361 77.36-77.361z" stroke="#fff" stroke-width="4" stroke-linecap="round"/><path d="M330.81 91.364h27.638" stroke="#fff" stroke-width="4"/><path fill-rule="evenodd" clip-rule="evenodd" d="M193.209 89.801a2.036 2.036 0 0 0-2.878 2.878 2.036 2.036 0 0 0 2.878-2.878zm175.75 0a2.036 2.036 0 0 1 2.878 2.878 2.036 2.036 0 0 1-2.878-2.878z" fill="#fff"/><path d="M192.685 78.167c6.403-43.15 43.686-76.26 88.59-76.167 44.75.093 81.793 33.13 88.207 76.09m-176.797 26.493c6.403 43.15 43.686 76.26 88.59 76.167 44.75-.093 81.793-33.13 88.207-76.091" stroke="#fff" stroke-width="4" stroke-linecap="round"/><path d="M203.72 91.364h27.638" stroke="#fff" stroke-width="4"/><path clip-rule="evenodd" d="M73.445 151.94c0 13.831-11.268 25.059-25.148 25.06v-25.06h25.148zm.77-16.163a77.804 77.804 0 0 1-25.918 16.163v-17.756C21.77 127.957 2 104.197 2 75.874V6l46.297 46.135v-45.1c29.378 11.042 50.297 39.332 50.297 72.452 0 6.959-.923 13.705-2.655 20.123l31.865 31.753c.207.179.402.372.581.58l.047.047v.008a5.506 5.506 0 0 1 1.303 3.563v6.465l-6.272-6.249H74.214z" stroke="#fff" stroke-width="4"/><path fill-rule="evenodd" clip-rule="evenodd" d="M109.133 123.434a3.434 3.434 0 1 1-.003 6.869 3.434 3.434 0 0 1 .003-6.869z" fill="#FFDC21"/><path d="M742.328 153.059s-13.701 1.402-16.775 1.772c-3.073.363-6.841 2.817-6.841 7.2s4.137 7.2 7.847 8.139c3.71.94 9.208 1.453 11.276 1.766 2.068.313 3.309-.563 3.946-1.766.311-.582 3.239-7.732 3.239-7.732M753.438 23.628c-2.131-1.404-9.445-1.404-11.575 0M752.973 153.059s13.701 1.402 16.774 1.772c3.074.363 6.841 2.817 6.841 7.2s-4.136 7.2-7.846 8.139c-3.71.94-9.208 1.453-11.276 1.766-2.069.313-3.309-.563-3.946-1.766-.312-.582-3.239-7.732-3.239-7.732" stroke="#fff" stroke-width="4" stroke-miterlimit="10"/><path d="M747.65 12.32c1.464.549 5.445 7.162 5.445 10.278l-.013.595.464.392c1.444 1.294 4.183 6.469 4.183 16.767 0 4.535 0 10.18 5.177 10.18h74.95c6.882 0 12.144.628 12.144 8.495 0 15.715-13.51 19.172-14.092 19.316-.588.143-58.721 14.283-62.924 15.362l-.549.137c-4.653 1.17-15.562 3.914-17.085 15.604-.693 5.325-1.503 17.466-2.216 28.176-.562 8.409-1.085 16.355-1.366 17.812-.484 2.496-2.993 7.306-4.111 9.331-1.111-2.019-3.628-6.835-4.111-9.331-.281-1.45-.811-9.396-1.366-17.812-.713-10.71-1.517-22.851-2.216-28.176-1.523-11.69-12.432-14.434-17.086-15.604l-.549-.137c-4.209-1.079-62.342-15.219-62.93-15.362-.15-.04-14.092-3.542-14.092-19.316 0-7.867 5.262-8.495 12.144-8.495h74.95c5.177 0 5.177-5.645 5.177-10.18 0-10.298 2.732-15.473 4.17-16.754l.464-.392v-.608c-.006-3.11 3.974-9.73 5.438-10.278zm0-1.32c-2.176 0-6.752 8.116-6.752 11.598 0 0-4.627 3.921-4.627 17.754 0 4.574 0 8.874-3.87 8.874h-74.95c-5.719 0-13.451.052-13.451 9.801 0 16.99 15.085 20.583 15.085 20.583s58.662 14.265 62.911 15.356c4.248 1.091 15.196 3.378 16.667 14.65 1.262 9.684 2.941 42.688 3.595 46.067.654 3.378 4.523 10.239 4.791 10.67.216.346.471.386.562.386h.079c.091 0 .346-.033.562-.386.274-.438 4.137-7.299 4.791-10.67.653-3.372 2.333-36.383 3.595-46.067 1.47-11.272 12.418-13.559 16.667-14.65 4.248-1.091 62.91-15.356 62.91-15.356s15.086-3.594 15.086-20.583c0-9.75-7.733-9.801-13.452-9.801h-74.95c-3.869 0-3.869-4.3-3.869-8.874 0-13.833-4.628-17.754-4.628-17.754.007-3.482-4.569-11.598-6.752-11.598z" fill="#fff" stroke="#fff" stroke-width="3"/><path d="M748.176 165.686v-59.98M738.706 105.706h17.889M742.915 166.739h-15.609v-5.262h-8.594M752.386 166.739h15.609v-5.262h8.593" stroke="#fff" stroke-width="2" stroke-miterlimit="10"/><path d="M742.915 17.314h-24.203M777.641 17.314h-24.203" stroke="#fff" stroke-width="4" stroke-miterlimit="10"/><path d="M692.405 83.608l31.472 4.209h13.777M692.405 86.765v-5.379l-35.778-5.144v2.088M802.895 83.608l-31.465 4.209h-13.783M802.895 86.765v-5.379l35.778-5.144v2.088" stroke="#fff" stroke-width="2" stroke-miterlimit="10"/><path d="M705.033 49.935v-8.419M715.556 49.935v-8.419M780.797 49.935v-8.419M790.268 49.935v-8.419M772.379 87.817V49.935M723.974 87.817V49.935" stroke="#fff" stroke-width="4" stroke-miterlimit="10"/><path d="M792.373 59.405l1.89 5.817h6.116l-4.948 3.595 1.89 5.817-4.948-3.595-4.949 3.595 1.89-5.817-4.948-3.595h6.117l1.89-5.817z" fill="#FA3535"/><path d="M533.387 112.198c12.785 14.624 32.642 19.702 32.642 19.702s7.278-25.969-4.331-46.077m-79.587 26.375c-12.784 14.624-32.642 19.702-32.642 19.702s-7.278-25.969 4.332-46.077" stroke="#fff" stroke-width="4"/><path d="M542.929 121.084c4.5 12.371 1.021 25.818 1.021 25.818s-15.269-3.58-23.988-14.811m-47.393-11.007c-4.5 12.371-1.02 25.818-1.02 25.818s15.268-3.58 23.988-14.811" stroke="#fff" stroke-width="4"/><path d="M470.459 23.545c-7.514-4.548-16.67-8.556-16.67-8.556s31.505-9.378 53.96-1.885m37.29 10.44c7.514-4.547 16.671-8.555 16.671-8.555s-31.506-9.378-53.961-1.885l37.29 10.44z" stroke="#fff" stroke-width="4" stroke-linecap="square"/><path clip-rule="evenodd" d="M507.749 13.104c20.581 0 37.29 27.781 37.29 62s-37.29 70.248-37.29 70.248-37.29-36.029-37.29-70.248 16.709-62 37.29-62z" stroke="#fff" stroke-width="4" stroke-linecap="square"/><path d="M539.792 118.83c0 29.404-32.043 60.363-32.043 60.363s-32.043-30.959-32.043-60.363m32.043-105.726c0 41.807-33.942 75.75-75.749 75.75 0-41.808 33.942-75.75 75.749-75.75zm0 0c41.807 0 75.749 33.942 75.749 75.75-41.807 0-75.749-33.943-75.749-75.75z" stroke="#fff" stroke-width="4"/><path d="M470.336 23.52c22.38 13.17 37.413 37.51 37.413 65.334m0 0c-27.823 0-52.163-15.034-65.333-37.414m65.333 37.414c27.959 0 52.399-15.18 65.524-37.74m-65.725 37.74c0-27.805 15.013-52.13 37.367-65.306" stroke="#fff" stroke-width="4" stroke-linecap="round" stroke-linejoin="round"/><path d="M499.973 101.958h8.783v23.406" stroke="#00CD21" stroke-width="6"/><path d="M507.749 13.104V0" stroke="#fff" stroke-width="4"/></svg>