<svg width="853" height="184" viewBox="0 0 853 184" fill="none" xmlns="http://www.w3.org/2000/svg">
<path fill-rule="evenodd" clip-rule="evenodd" d="M263.804 64.6089C260.965 61.769 256.354 61.769 253.514 64.6089C250.675 67.4487 250.675 72.0592 253.514 74.899L298.356 119.741C301.196 122.581 305.806 122.581 308.646 119.741C311.486 116.901 311.486 112.29 308.646 109.451L263.804 64.6089Z" stroke="#FD760A" stroke-width="4"/>
<path d="M251.391 105.5C251.313 107.459 252.021 109.442 253.514 110.935L262.321 119.741C265.16 122.581 269.771 122.581 272.611 119.741C275.451 116.901 275.451 112.29 272.611 109.451L251.391 88.2305M310.75 79.1701C310.922 77.1099 310.221 74.9898 308.646 73.4142L299.84 64.6089C297 61.769 292.39 61.769 289.55 64.6089C286.71 67.4487 286.71 72.0592 289.55 74.899L310.776 96.1246L310.75 79.1701Z" stroke="#FD760A" stroke-width="4" stroke-linecap="round"/>
<path d="M251.384 70.2542V105.794M310.775 79.0559V114.596V79.0559Z" stroke="#FD760A" stroke-width="4"/>
<path d="M308.646 62.4787L311.268 65.1007M251.384 119.741L254.007 122.363M281.08 43.1654C308.129 43.1654 330.09 65.1252 330.09 92.1748C330.09 119.223 308.129 141.184 281.08 141.184C254.032 141.184 232.071 119.223 232.071 92.1748C232.071 65.1252 254.032 43.1654 281.08 43.1654Z" stroke="white" stroke-width="4" stroke-linecap="round"/>
<path fill-rule="evenodd" clip-rule="evenodd" d="M281.08 14.8253C323.777 14.8253 358.441 49.4895 358.441 92.1858C358.441 134.882 323.777 169.547 281.08 169.547C238.384 169.547 203.72 134.882 203.72 92.1858C203.72 49.4895 238.384 14.8253 281.08 14.8253Z" stroke="white" stroke-width="4" stroke-linecap="round"/>
<path d="M330.81 92.1748H358.448" stroke="white" stroke-width="4"/>
<path fill-rule="evenodd" clip-rule="evenodd" d="M193.209 90.612C192.415 89.8178 191.125 89.8178 190.331 90.612C189.536 91.4061 189.536 92.6958 190.331 93.4899C191.125 94.284 192.415 94.284 193.209 93.4899C194.003 92.6958 194.003 91.4061 193.209 90.612ZM368.959 90.612C369.753 89.8178 371.043 89.8178 371.837 90.612C372.632 91.4061 372.632 92.6958 371.837 93.4899C371.043 94.284 369.753 94.284 368.959 93.4899C368.165 92.6958 368.165 91.4061 368.959 90.612Z" fill="white"/>
<path d="M192.685 78.9777C199.088 35.8277 236.371 2.71817 281.275 2.81074C326.025 2.90331 363.068 35.9402 369.482 78.9015M192.685 105.394C199.088 148.544 236.371 181.653 281.275 181.56C326.025 181.468 363.068 148.431 369.482 105.47" stroke="white" stroke-width="4" stroke-linecap="round"/>
<path d="M203.72 92.1748H231.358" stroke="white" stroke-width="4"/>
<path d="M48.2967 152.75V177.811C62.1767 177.81 73.4451 166.581 73.4451 152.75H48.2967ZM48.2967 152.75C58.0111 149.099 66.8006 143.561 74.2143 136.587H123.463L129.735 142.837V136.371C129.735 135.015 129.245 133.772 128.432 132.809L128.385 132.753C128.206 132.546 128.011 132.352 127.804 132.173L95.9391 100.42C97.6707 94.0025 98.5943 87.2566 98.5943 80.2977C98.5943 47.1775 77.6749 18.8878 48.2967 7.84523V52.9452L2 6.81055V76.6837C2 105.008 21.7697 128.767 48.2967 134.994V152.75Z" stroke="white" stroke-width="4"/>
<path fill-rule="evenodd" clip-rule="evenodd" d="M109.133 124.244C111.028 124.244 112.566 125.783 112.566 127.678C112.566 129.573 111.028 131.112 109.133 131.112C107.237 131.112 105.699 129.573 105.699 127.678C105.699 125.783 107.237 124.244 109.133 124.244Z" fill="#FFDC21"/>
<path d="M742.328 153.869C742.328 153.869 728.627 155.272 725.553 155.641C722.48 156.004 718.712 158.459 718.712 162.842C718.712 167.224 722.849 170.042 726.559 170.981C730.269 171.92 735.767 172.434 737.835 172.747C739.903 173.06 741.144 172.183 741.781 170.981C742.092 170.399 745.02 163.249 745.02 163.249" stroke="white" stroke-width="4" stroke-miterlimit="10"/>
<path d="M753.438 24.438C751.307 23.035 743.993 23.035 741.863 24.438" stroke="white" stroke-width="4" stroke-miterlimit="10"/>
<path d="M752.973 153.869C752.973 153.869 766.674 155.272 769.747 155.641C772.821 156.004 776.588 158.459 776.588 162.842C776.588 167.224 772.452 170.042 768.742 170.981C765.032 171.92 759.534 172.434 757.466 172.747C755.397 173.06 754.157 172.183 753.52 170.981C753.208 170.399 750.281 163.249 750.281 163.249" stroke="white" stroke-width="4" stroke-miterlimit="10"/>
<path d="M747.65 13.1305C749.114 13.6794 753.095 20.2921 753.095 23.4089L753.082 24.0036L753.546 24.3956C754.99 25.6894 757.729 30.8646 757.729 41.1626C757.729 45.6974 757.729 51.3431 762.906 51.3431H837.856C844.738 51.3431 850 51.9704 850 59.8377C850 75.5527 836.49 79.0093 835.908 79.1531C835.32 79.2968 777.187 93.437 772.984 94.5152L772.435 94.6524C767.782 95.8221 756.873 98.5665 755.35 110.256C754.657 115.582 753.847 127.723 753.134 138.432C752.572 146.842 752.049 154.788 751.768 156.245C751.284 158.741 748.775 163.55 747.657 165.576C746.546 163.557 744.029 158.741 743.546 156.245C743.265 154.794 742.735 146.848 742.18 138.432C741.467 127.723 740.663 115.582 739.964 110.256C738.441 98.5665 727.532 95.8221 722.878 94.6524L722.329 94.5152C718.12 93.437 659.987 79.2968 659.399 79.1531C659.249 79.1139 645.307 75.6115 645.307 59.8377C645.307 51.9704 650.569 51.3431 657.451 51.3431H732.401C737.578 51.3431 737.578 45.6974 737.578 41.1626C737.578 30.8646 740.31 25.6894 741.748 24.4087L742.212 24.0166V23.4089C742.206 20.2986 746.186 13.6794 747.65 13.1305ZM747.65 11.8105C745.474 11.8105 740.898 19.9262 740.898 23.4089C740.898 23.4089 736.271 27.3295 736.271 41.1626C736.271 45.7366 736.271 50.0362 732.401 50.0362C729.787 50.0362 659.085 50.0362 657.451 50.0362C651.732 50.0362 644 50.0885 644 59.8377C644 76.8269 659.085 80.4207 659.085 80.4207C659.085 80.4207 717.747 94.6851 721.996 95.7763C726.244 96.8676 737.192 99.1546 738.663 110.426C739.925 120.11 741.604 153.115 742.258 156.493C742.912 159.871 746.781 166.732 747.049 167.164C747.265 167.51 747.52 167.549 747.611 167.549C747.637 167.549 747.65 167.549 747.65 167.549C747.65 167.549 747.663 167.549 747.69 167.549C747.781 167.549 748.036 167.516 748.252 167.164C748.526 166.726 752.389 159.865 753.043 156.493C753.696 153.121 755.376 120.11 756.638 110.426C758.108 99.1546 769.056 96.8676 773.305 95.7763C777.553 94.6851 836.215 80.4207 836.215 80.4207C836.215 80.4207 851.301 76.8269 851.301 59.8377C851.301 50.0885 843.568 50.0362 837.849 50.0362C836.215 50.0362 765.514 50.0362 762.899 50.0362C759.03 50.0362 759.03 45.7366 759.03 41.1626C759.03 27.3295 754.402 23.4089 754.402 23.4089C754.409 19.9262 749.833 11.8105 747.65 11.8105Z" fill="white" stroke="white" stroke-width="3"/>
<path d="M747.65 166.98V107" stroke="white" stroke-width="2" stroke-miterlimit="10"/>
<path d="M738.706 106.516H756.595" stroke="white" stroke-width="2" stroke-miterlimit="10"/>
<path d="M742.915 167.549H727.306V162.288H718.712" stroke="white" stroke-width="2" stroke-miterlimit="10"/>
<path d="M752.386 167.549H767.995V162.288H776.588" stroke="white" stroke-width="2" stroke-miterlimit="10"/>
<path d="M742.915 18.1243H718.712" stroke="white" stroke-width="4" stroke-miterlimit="10"/>
<path d="M777.641 18.1243H753.438" stroke="white" stroke-width="4" stroke-miterlimit="10"/>
<path d="M692.405 84.4183L723.877 88.6275H737.654" stroke="white" stroke-width="2" stroke-miterlimit="10"/>
<path d="M692.405 87.5752V82.1967L656.627 77.0524V79.1405" stroke="white" stroke-width="2" stroke-miterlimit="10"/>
<path d="M802.895 84.4183L771.43 88.6275H757.647" stroke="white" stroke-width="2" stroke-miterlimit="10"/>
<path d="M802.895 87.5752V82.1967L838.673 77.0524V79.1405" stroke="white" stroke-width="2" stroke-miterlimit="10"/>
<path d="M705.033 50.7452V42.3269" stroke="white" stroke-width="4" stroke-miterlimit="10"/>
<path d="M715.556 50.7452V42.3269" stroke="white" stroke-width="4" stroke-miterlimit="10"/>
<path d="M780.797 50.7452V42.3269" stroke="white" stroke-width="4" stroke-miterlimit="10"/>
<path d="M790.268 50.7452V42.3269" stroke="white" stroke-width="4" stroke-miterlimit="10"/>
<path d="M772.379 88.6276V50.7452" stroke="white" stroke-width="4" stroke-miterlimit="10"/>
<path d="M723.974 88.6276V50.7452" stroke="white" stroke-width="4" stroke-miterlimit="10"/>
<path d="M792.373 60.2158L794.263 66.0327H800.379L795.431 69.6278L797.321 75.4447L792.373 71.8496L787.424 75.4447L789.314 69.6278L784.366 66.0327H790.483L792.373 60.2158Z" fill="#FA3535"/>
<path d="M533.387 113.008C546.172 127.633 566.029 132.711 566.029 132.711C566.029 132.711 573.307 106.742 561.698 86.6333M482.111 113.008C469.327 127.633 449.469 132.711 449.469 132.711C449.469 132.711 442.191 106.742 453.801 86.6333" stroke="white" stroke-width="4"/>
<path d="M542.929 121.895C547.429 134.266 543.95 147.713 543.95 147.713C543.95 147.713 528.681 144.133 519.962 132.901M472.569 121.895C468.069 134.266 471.549 147.713 471.549 147.713C471.549 147.713 486.817 144.133 495.537 132.901" stroke="white" stroke-width="4"/>
<path d="M470.459 24.3553C462.945 19.8073 453.789 15.7997 453.789 15.7997C453.789 15.7997 485.294 6.42141 507.749 13.9148M545.039 24.3553C552.553 19.8073 561.71 15.7997 561.71 15.7997C561.71 15.7997 530.204 6.42141 507.749 13.9148L545.039 24.3553Z" stroke="white" stroke-width="4" stroke-linecap="square"/>
<path fill-rule="evenodd" clip-rule="evenodd" d="M507.749 13.9148C528.33 13.9148 545.039 41.696 545.039 75.9147C545.039 110.133 507.749 146.163 507.749 146.163C507.749 146.163 470.459 110.133 470.459 75.9147C470.459 41.696 487.168 13.9148 507.749 13.9148Z" stroke="white" stroke-width="4" stroke-linecap="square"/>
<path d="M539.792 119.641C539.792 149.045 507.749 180.004 507.749 180.004C507.749 180.004 475.706 149.045 475.706 119.641M507.749 13.9148C507.749 55.7219 473.807 89.6641 432 89.6641C432 47.8568 465.942 13.9148 507.749 13.9148ZM507.749 13.9148C549.556 13.9148 583.498 47.8568 583.498 89.6641C541.691 89.6641 507.749 55.7219 507.749 13.9148Z" stroke="white" stroke-width="4"/>
<path d="M470.336 24.3312C492.716 37.5008 507.749 61.8407 507.749 89.6642M507.749 89.6642C479.926 89.6642 455.586 74.6307 442.416 52.2504M507.749 89.6642C535.708 89.6642 560.148 74.4845 573.273 51.9245M507.548 89.6642C507.548 61.86 522.561 37.5347 544.915 24.3587" stroke="white" stroke-width="4" stroke-linecap="round" stroke-linejoin="round"/>
<path d="M499.973 102.769H508.756V126.175" stroke="#00CD21" stroke-width="6"/>
<path d="M507.749 13.9148V0.810547" stroke="white" stroke-width="4"/>
</svg>
