<svg width="23" height="38" viewBox="0 0 23 38" xmlns="http://www.w3.org/2000/svg"><title>je</title><g fill="#FFF" fill-rule="evenodd"><path d="M20.818 27.487c-.02-.017-.04-.035-.063-.05l-.062-.047-.585-.43-17.69-13.007c-.83-.61-1.51-.282-1.51.73v4.14c0 1.01.682 2.34 1.51 2.95l13.515 9.93 1.094.806c.677.498.812 1.446.297 2.105l-.123.16c-.513.66-1.488.79-2.166.29l-1.358-1.002c-.294-.216-.717-.16-.938.127l-.56.718c-.223.286-.164.696.13.912l1.14.84c2.462 1.816 6.006 1.343 7.873-1.048l.454-.58c1.834-2.35 1.395-5.706-.956-7.545M22.908 18.985l-.003-7.708c0-.472-.32-1.09-.706-1.374l-1.334-.978c-.387-.284-.953-.104-.953.525l.003 4.753c0 .306-.202.622-.64.297-.41-.303-2.705-1.986-3.594-2.64-.412-.305-.353-.784-.353-.784l-.002-2.556c0-.44-.296-1.014-.655-1.278l-1.242-.91c-.36-.265-.886-.097-.886.488 0 0 .007 1.725.002 1.972-.005.247-.187.625-.626.303L7.885 6.13 6.79 5.32c-.678-.5-.812-1.446-.297-2.105l.124-.16c.514-.66 1.49-.79 2.168-.29l1.357 1.002c.294.214.716.158.938-.127l.56-.72c.223-.285.164-.695-.13-.91l-1.14-.843C7.905-.644 4.363-.172 2.495 2.22l-.45.58C.208 5.15.648 8.507 2.998 10.344c.02.018.04.036.063.052l.06.045.002.003L21.398 23.88c.83.61 1.51.28 1.51-.73v-4.165"/></g></svg>