<svg xmlns="http://www.w3.org/2000/svg" width="200" height="120" viewBox="0 0 200 120" xmlns:xlink="http://www.w3.org/1999/xlink">
  <defs>
    <rect id="a" width="17" height="65" y="3"/>
    <mask id="n" width="17" height="65" x="0" y="0" fill="white">
      <use xlink:href="#a"/>
    </mask>
    <rect id="b" width="15" height="39" x="1" y="16"/>
    <mask id="o" width="15" height="39" x="0" y="0" fill="white">
      <use xlink:href="#b"/>
    </mask>
    <rect id="c" width="14" height="68" x="19"/>
    <mask id="p" width="14" height="68" x="0" y="0" fill="white">
      <use xlink:href="#c"/>
    </mask>
    <rect id="d" width="19" height="58" x="35" y="10"/>
    <mask id="q" width="19" height="58" x="0" y="0" fill="white">
      <use xlink:href="#d"/>
    </mask>
    <rect id="e" width="17" height="10" x="36" y="20"/>
    <mask id="r" width="17" height="10" x="0" y="0" fill="white">
      <use xlink:href="#e"/>
    </mask>
    <rect id="f" width="17" height="10" x="36" y="46"/>
    <mask id="s" width="17" height="10" x="0" y="0" fill="white">
      <use xlink:href="#f"/>
    </mask>
    <rect id="g" width="86" height="25" x="9" y="12"/>
    <mask id="t" width="86" height="25" x="0" y="0" fill="white">
      <use xlink:href="#g"/>
    </mask>
    <rect id="h" width="94" height="66" x="5"/>
    <mask id="u" width="94" height="66" x="0" y="0" fill="white">
      <use xlink:href="#h"/>
    </mask>
    <rect id="i" width="86" height="52" x="9" y="4"/>
    <mask id="v" width="86" height="52" x="0" y="0" fill="white">
      <use xlink:href="#i"/>
    </mask>
    <rect id="j" width="105" height="8" y="58"/>
    <mask id="w" width="105" height="8" x="0" y="0" fill="white">
      <use xlink:href="#j"/>
    </mask>
    <rect id="k" width="20" height="35" rx="3"/>
    <mask id="x" width="20" height="35" x="0" y="0" fill="white">
      <use xlink:href="#k"/>
    </mask>
    <rect id="l" width="14" height="29" x="3" y="3"/>
    <mask id="y" width="14" height="29" x="0" y="0" fill="white">
      <use xlink:href="#l"/>
    </mask>
    <rect id="m" width="14" height="12" x="3" y="7"/>
    <mask id="z" width="14" height="12" x="0" y="0" fill="white">
      <use xlink:href="#m"/>
    </mask>
  </defs>
  <g fill="none" fill-rule="evenodd">
    <rect width="200" height="2" y="92" fill="#00CBED"/>
    <g transform="translate(17 26)">
      <use stroke="#00CBED" stroke-width="4" mask="url(#n)" xlink:href="#a"/>
      <use fill="#DFF8FC" stroke="#00CBED" stroke-width="2" mask="url(#o)" xlink:href="#b"/>
      <use stroke="#00CBED" stroke-width="4" mask="url(#p)" xlink:href="#c"/>
      <use stroke="#00CBED" stroke-width="4" mask="url(#q)" xlink:href="#d"/>
      <use fill="#DFF8FC" stroke="#00CBED" stroke-width="2" mask="url(#r)" xlink:href="#e"/>
      <use fill="#DFF8FC" stroke="#00CBED" stroke-width="2" mask="url(#s)" xlink:href="#f"/>
      <rect width="10" height="1" x="21" y="8" fill="#00CBED"/>
      <rect width="10" height="1" x="21" y="14" fill="#00CBED"/>
    </g>
    <g transform="translate(74 28)">
      <use fill="#DFF8FC" stroke="#00CBED" stroke-width="2" mask="url(#t)" xlink:href="#g"/>
      <use stroke="#00CBED" stroke-width="4" mask="url(#u)" xlink:href="#h"/>
      <use stroke="#00CBED" stroke-width="2" mask="url(#v)" xlink:href="#i"/>
      <use fill="#FFFFFF" stroke="#00CBED" stroke-width="4" mask="url(#w)" xlink:href="#j"/>
      <g fill="#00CBED" transform="translate(27 41)">
        <rect width="22" height="2"/>
        <rect width="22" height="1" y="5"/>
        <rect width="22" height="1" y="7"/>
        <rect width="18" height="1" y="9"/>
        <rect width="22" height="2" x="28"/>
        <rect width="22" height="1" x="28" y="5"/>
        <rect width="22" height="1" x="28" y="7"/>
        <rect width="18" height="1" x="28" y="9"/>
      </g>
    </g>
    <g stroke="#00CBED" transform="translate(163 59)">
      <use fill="#FFFFFF" stroke-width="4" mask="url(#x)" xlink:href="#k"/>
      <use stroke-width="2" mask="url(#y)" xlink:href="#l"/>
      <use fill="#DFF8FC" stroke-width="2" mask="url(#z)" xlink:href="#m"/>
    </g>
  </g>
</svg>
