<svg width="240" height="144" viewBox="0 0 240 144" fill="none" xmlns="http://www.w3.org/2000/svg">
<path d="M117.957 116.702C95.0239 116.702 76.369 98.0468 76.369 75.114C76.369 52.1813 95.0239 33.5264 117.957 33.5264C128.688 33.5264 138.875 37.6131 146.652 45.0221L147.181 45.5367L139.008 53.7101L138.493 53.225C132.878 47.9475 125.586 45.0515 117.942 45.0515C101.374 45.0515 87.8794 58.5319 87.8794 75.114C87.8794 91.6961 101.36 105.176 117.942 105.176C132.201 105.176 144.432 95.1802 147.328 81.2882H126.233V70.2041H159.25L159.324 70.8509C159.471 72.2474 159.544 73.6881 159.544 75.114C159.544 98.0468 140.889 116.702 117.957 116.702Z" fill="#E42F28"/>
<path d="M117.957 34.2467C128.894 34.2467 138.817 38.5539 146.152 45.5514L138.993 52.7105C133.48 47.5359 126.101 44.3312 117.957 44.3312C100.992 44.3312 87.1739 58.135 87.1739 75.114C87.1739 92.0784 100.978 105.897 117.957 105.897C133.069 105.897 145.638 94.945 148.225 80.5679H126.953V70.9244H158.603C158.75 72.3062 158.824 73.7028 158.824 75.114C158.824 97.6793 140.522 115.981 117.957 115.981C95.3914 115.981 77.0893 97.6793 77.0893 75.114C77.0893 52.5488 95.3914 34.2467 117.957 34.2467ZM117.957 32.8061C94.627 32.8061 75.6487 51.7844 75.6487 75.114C75.6487 98.4437 94.627 117.422 117.957 117.422C141.286 117.422 160.265 98.4437 160.265 75.114C160.265 73.6587 160.191 72.2033 160.044 70.7774L159.912 69.4838H158.618H126.953H125.513V70.9244V80.5679V82.0086H126.953H146.446C143.3 95.1214 131.569 104.456 117.957 104.456C101.786 104.456 88.6145 91.2993 88.6145 75.114C88.6145 58.9435 101.771 45.7719 117.957 45.7719C125.41 45.7719 132.525 48.6091 138.008 53.7542L139.022 54.7098L140.007 53.7248L147.166 46.5657L148.21 45.522L147.137 44.5076C139.243 36.9663 128.864 32.8061 117.957 32.8061Z" fill="#EDD6BD"/>
<path d="M158.603 70.9244H126.953V80.5679H148.21C145.638 94.945 133.069 105.897 117.957 105.897C100.992 105.897 87.1739 92.0931 87.1739 75.1141C87.1739 58.1497 100.978 44.3313 117.957 44.3313C126.101 44.3313 133.48 47.5213 138.993 52.7105L146.152 45.5514C138.817 38.554 128.894 34.2467 117.957 34.2467C95.3914 34.2467 77.0894 52.5488 77.0894 75.1141C77.0894 97.6793 95.3914 115.981 117.957 115.981C140.522 115.981 158.824 97.6793 158.824 75.1141C158.824 73.7028 158.751 72.3063 158.603 70.9244Z" stroke="#B5121B" stroke-width="0.4901" stroke-miterlimit="10"/>
<path d="M0.720337 96.2827V55.5036H10.8196V86.9626H30.43V96.2827H0.720337Z" fill="#E42F28"/>
<path d="M10.0992 56.224V87.6977H29.7097V95.5624H1.44065V56.224H10.0992ZM11.5399 54.7833H10.0992H1.44065H0V56.224V95.5624V97.0031H1.44065H29.7097H31.1503V95.5624V87.6977V86.257H29.7097H11.5399V56.224V54.7833Z" fill="#EDD6BD"/>
<path d="M1.44061 56.224H10.0992V87.6977H29.7096V95.5624H1.44061V56.224Z" stroke="#B5121B" stroke-width="0.4901" stroke-miterlimit="10"/>
<path d="M66.1521 96.2827L62.5505 87.4624H46.8798L43.2782 96.2827H32.8849L50.3638 55.2243H59.3017L76.7806 96.2827H66.1521ZM58.8754 78.4216L54.7299 68.2783L50.5696 78.4216H58.8754Z" fill="#E42F28"/>
<path d="M58.8166 55.9299L75.678 95.5477H66.6226L63.0209 86.7274H46.3947L42.7931 95.5477H33.9728L50.8342 55.9299H58.8166ZM49.4965 79.142H59.9485L54.7299 66.3819L49.4965 79.142ZM59.7721 54.4893H58.8166H50.8342H49.8787L49.5112 55.3713L32.6497 94.9891L31.7971 96.9883H33.9728H42.7931H43.7633L44.1308 96.0916L47.3649 88.168H62.0654L65.2995 96.0916L65.667 96.9883H66.6373H75.6928H77.8684L77.0158 94.9891L60.1543 55.3713L59.7721 54.4893ZM51.6428 77.7013L54.7299 70.1894L57.8023 77.7013H51.6428Z" fill="#EDD6BD"/>
<path d="M50.8342 55.9299H58.8166L75.678 95.5477H66.6225L63.0209 86.7274H46.3947L42.7931 95.5477H33.9728L50.8342 55.9299ZM59.9485 79.142L54.7299 66.382L49.4965 79.142H59.9485Z" stroke="#B5121B" stroke-width="0.4901" stroke-miterlimit="10"/>
<path d="M164.895 96.2827V55.5036H195.957V64.6326H174.877V71.1743H193.429V80.318H174.877V87.139H196.237V96.2827H164.895Z" fill="#E42F28"/>
<path d="M195.237 56.224V63.927H174.156V71.9094H192.709V79.6124H174.156V87.8741H195.516V95.5771H165.616V56.224H195.237ZM196.678 54.7833H195.237H165.616H164.175V56.224V95.5624V97.0031H165.616H195.516H196.957V95.5624V87.8594V86.4187H195.516H175.597V81.0384H192.709H194.149V79.5977V71.8947V70.454H192.709H175.597V65.353H195.237H196.678V63.9123V56.2093V54.7833Z" fill="#EDD6BD"/>
<path d="M165.615 56.224H195.237V63.927H174.156V71.9094H192.708V79.6124H174.156V87.8741H195.516V95.5771H165.615V56.224Z" stroke="#B5121B" stroke-width="0.4901" stroke-miterlimit="10"/>
<path d="M226.77 96.2827L218.346 83.6991H212.657V96.2827H202.558V55.5036H221.257C226.417 55.5036 230.445 56.9149 233.238 59.708C235.619 62.0894 236.825 65.2794 236.825 69.2045C236.825 72.6444 235.987 75.4228 234.34 77.5396C232.885 79.4066 231.018 80.8619 228.769 81.8469L238.648 96.2827H226.77ZM220.698 74.6583C222.639 74.6583 224.138 74.2026 225.138 73.3206C226.123 72.4386 226.608 71.2772 226.608 69.7925C226.608 68.0137 226.108 66.8083 225.079 66.0145C224.021 65.1765 222.492 64.7502 220.522 64.7502H212.642V74.6583H220.698V74.6583Z" fill="#E42F28"/>
<path d="M221.257 56.224C226.24 56.224 230.062 57.547 232.723 60.2078C234.972 62.457 236.09 65.4559 236.09 69.2045V69.3221C236.09 72.5121 235.311 75.0994 233.752 77.0986C232.194 79.0979 230.165 80.5826 227.652 81.5088L237.266 95.5624H227.152L218.728 82.9641H218.611H211.922V95.5477H203.264V56.224H221.257ZM211.937 75.3787H220.698C222.83 75.3787 224.476 74.8642 225.608 73.8498C226.755 72.8355 227.328 71.4831 227.328 69.7778V69.6602C227.328 67.7785 226.725 66.3673 225.535 65.4265C224.344 64.4856 222.668 64.0152 220.537 64.0152H211.937V75.3787ZM221.257 54.7833H203.278H201.838V56.224V95.5624V97.0031H203.278H211.937H213.377V95.5624V84.4195H217.964L225.961 96.371L226.387 97.0178H227.152H237.266H240L238.456 94.7686L229.827 82.1556C231.841 81.1413 233.532 79.7447 234.884 78.0101C236.634 75.7609 237.516 72.8355 237.516 69.3515V69.2339C237.516 65.103 236.237 61.7366 233.723 59.2229C230.812 56.2534 226.623 54.7833 221.257 54.7833ZM213.377 65.4706H220.537C222.33 65.4706 223.712 65.8381 224.653 66.5731C225.491 67.2346 225.902 68.2489 225.902 69.6749V69.7925C225.902 71.0714 225.505 72.0417 224.667 72.7767C223.8 73.5411 222.462 73.938 220.713 73.938H213.392V65.4706H213.377Z" fill="#EDD6BD"/>
<path d="M203.278 56.224H221.257C226.24 56.224 230.062 57.547 232.723 60.2078C234.972 62.457 236.09 65.4559 236.09 69.2045V69.3221C236.09 72.5121 235.311 75.0994 233.752 77.0986C232.194 79.0979 230.165 80.5826 227.652 81.5088L237.266 95.5624H227.152L218.728 82.9641H218.611H211.922V95.5477H203.263V56.224H203.278ZM220.698 75.3787C222.83 75.3787 224.476 74.8642 225.608 73.8498C226.755 72.8355 227.328 71.483 227.328 69.7778V69.6602C227.328 67.7785 226.725 66.3673 225.535 65.4265C224.344 64.4856 222.668 64.0152 220.537 64.0152H211.937V75.364H220.698V75.3787Z" stroke="#B5121B" stroke-width="0.4901" stroke-miterlimit="10"/>
<path d="M57.376 4.99278C58.8314 4.81637 60.3014 4.63997 61.7568 4.46356C62.3448 9.54993 62.9328 14.6216 63.5355 19.6933C66.7402 19.3257 69.9449 18.9729 73.1643 18.6642C73.282 19.9432 73.4143 21.2074 73.5319 22.4863C68.9453 22.9274 64.3588 23.4419 59.7722 24.0152C58.9784 17.6646 58.1699 11.3287 57.376 4.99278Z" fill="#00529C" stroke="#DDB68B" stroke-width="0.4901" stroke-miterlimit="10"/>
<path d="M75.7075 3.03763C80.7203 2.59662 85.7185 2.22911 90.746 1.9498C90.8196 3.19934 90.8931 4.44888 90.9666 5.69842C87.4237 5.90423 83.8809 6.13943 80.3528 6.41874C80.4557 7.71239 80.5586 9.00603 80.6615 10.285C83.7486 10.0351 86.8357 9.82925 89.9375 9.63815C90.011 10.8877 90.0845 12.1372 90.158 13.3868C87.0856 13.5779 84.0279 13.7837 80.9555 14.0189C81.0584 15.3566 81.1613 16.6944 81.2789 18.0321C84.7777 17.7528 88.2764 17.5176 91.7751 17.3265C91.8486 18.576 91.9221 19.8256 91.9809 21.0751C87.115 21.3544 82.2492 21.7072 77.398 22.1336C76.8247 15.7535 76.2661 9.38824 75.7075 3.03763Z" fill="#00529C" stroke="#DDB68B" stroke-width="0.4901" stroke-miterlimit="10"/>
<path d="M105.711 20.8252C104.212 20.8693 102.83 20.6635 101.58 20.2225C100.331 19.7814 99.2283 19.1346 98.3022 18.2967C97.3761 17.4588 96.6263 16.4591 96.0677 15.2684C95.5091 14.0924 95.2004 12.784 95.1269 11.3728C95.1269 11.3581 95.1269 11.3434 95.1269 11.314C95.0534 9.94683 95.2592 8.65319 95.7149 7.43305C96.1706 6.21291 96.8468 5.12507 97.7436 4.18424C98.6256 3.24341 99.7134 2.49369 100.978 1.92037C102.242 1.34705 103.638 1.05304 105.138 1.00894C106.035 0.979541 106.843 1.02364 107.593 1.12655C108.328 1.22945 109.019 1.39115 109.651 1.59696C110.283 1.80277 110.871 2.06738 111.43 2.39079C111.988 2.7142 112.518 3.08171 113.032 3.49332C112.121 4.56646 111.224 5.65429 110.327 6.74213C109.945 6.43342 109.563 6.16881 109.181 5.9483C108.798 5.71309 108.401 5.52199 107.99 5.37498C107.578 5.21328 107.137 5.11037 106.667 5.02217C106.196 4.94867 105.667 4.90457 105.094 4.91927C104.3 4.94867 103.565 5.12507 102.889 5.47789C102.213 5.816 101.624 6.27171 101.125 6.83033C100.625 7.34485 100.243 7.99167 99.978 8.72669C99.7134 9.46172 99.5958 10.2408 99.6252 11.0494C99.6252 11.0641 99.6252 11.0935 99.6252 11.1082C99.6546 11.9755 99.831 12.784 100.154 13.5043C100.463 14.2394 100.904 14.8568 101.448 15.386C101.992 15.9152 102.639 16.3121 103.359 16.5914C104.094 16.8708 104.873 17.0031 105.726 16.9737C106.505 16.959 107.225 16.8414 107.902 16.6355C108.578 16.4297 109.181 16.1357 109.71 15.7388C109.695 14.8274 109.68 13.916 109.651 13.0045C108.21 13.0339 106.77 13.0633 105.329 13.1074C105.329 11.8873 105.285 10.6819 105.256 9.46172C108.107 9.38821 110.959 9.32941 113.796 9.30001C113.826 12.0784 113.855 14.8421 113.885 17.6205C112.9 18.4731 111.724 19.1934 110.371 19.8109C109.019 20.443 107.461 20.7811 105.711 20.8252Z" fill="#00529C" stroke="#DDB68B" stroke-width="0.4901" stroke-miterlimit="10"/>
<path d="M125.527 1.05302C126.88 1.06772 128.232 1.09713 129.585 1.12653C132.304 7.62414 134.906 14.1364 137.405 20.6782C135.935 20.6194 134.451 20.5606 132.981 20.5165C132.437 19.0611 131.893 17.6205 131.334 16.1651C128.6 16.0916 125.866 16.0475 123.131 16.0181C122.529 17.4441 121.926 18.87 121.338 20.3106C119.897 20.2959 118.457 20.2959 117.031 20.3106C119.735 13.8718 122.573 7.44773 125.527 1.05302ZM129.893 12.4459C129.07 10.3584 128.247 8.27096 127.409 6.18349C126.498 8.24156 125.586 10.2996 124.704 12.3577C126.424 12.3724 128.159 12.4018 129.893 12.4459Z" fill="#00529C" stroke="#DDB68B" stroke-width="0.4901" stroke-miterlimit="10"/>
<path d="M148.798 21.6043C147.387 21.5161 146.093 21.178 144.917 20.6046C143.741 20.0313 142.727 19.2816 141.889 18.3555C141.051 17.4293 140.404 16.3562 139.963 15.1214C139.522 13.9012 139.316 12.5929 139.375 11.2257C139.375 11.211 139.375 11.1816 139.375 11.1669C139.434 9.79979 139.743 8.53555 140.301 7.35951C140.86 6.18347 141.624 5.16914 142.565 4.31651C143.521 3.46388 144.653 2.80236 145.946 2.34665C147.24 1.90563 148.681 1.72923 150.224 1.81743C151.18 1.87623 152.032 2.00854 152.782 2.19964C153.532 2.40545 154.208 2.65536 154.811 2.94937C155.428 3.25808 155.972 3.59619 156.472 4.0078C156.972 4.40471 157.442 4.84573 157.854 5.33084C156.839 6.28637 155.84 7.24191 154.84 8.19744C154.12 7.46241 153.37 6.88909 152.591 6.44808C151.812 6.00707 150.93 5.75716 149.93 5.69836C149.092 5.63955 148.313 5.75716 147.593 6.02177C146.873 6.28638 146.24 6.68329 145.696 7.1978C145.153 7.71232 144.726 8.32974 144.403 9.03536C144.079 9.74099 143.903 10.5054 143.859 11.3286C143.859 11.3433 143.859 11.3727 143.859 11.3874C143.815 12.2107 143.918 12.9898 144.153 13.7248C144.388 14.4745 144.741 15.1214 145.197 15.6947C145.652 16.268 146.226 16.7384 146.902 17.0912C147.578 17.444 148.328 17.6498 149.151 17.7086C150.254 17.7821 151.209 17.6351 152.003 17.2823C152.797 16.9295 153.591 16.4444 154.399 15.827C155.237 16.7972 156.075 17.7674 156.898 18.7377C156.354 19.2228 155.81 19.6638 155.252 20.0313C154.693 20.4135 154.076 20.7222 153.429 20.9722C152.767 21.2221 152.062 21.3985 151.312 21.5014C150.577 21.6337 149.724 21.6631 148.798 21.6043Z" fill="#00529C" stroke="#DDB68B" stroke-width="0.4901" stroke-miterlimit="10"/>
<path d="M166.615 15.1508C164.513 11.0494 162.337 6.96263 160.103 2.89059C161.808 3.0376 163.528 3.1846 165.233 3.34631C166.586 6.0512 167.894 8.75609 169.188 11.4757C171.04 9.0942 172.922 6.71272 174.818 4.36064C176.479 4.55175 178.14 4.74285 179.787 4.94866C176.759 8.44738 173.789 11.9608 170.893 15.5183C170.614 18.0468 170.349 20.5753 170.07 23.1038C168.659 22.9567 167.262 22.8097 165.851 22.6627C166.115 20.1637 166.365 17.6499 166.615 15.1508Z" fill="#00529C" stroke="#DDB68B" stroke-width="0.4901" stroke-miterlimit="10"/>
<path d="M134.847 80.6561L142.698 80.3033L150.562 70.9244L145.005 70.7774L134.847 80.6561Z" fill="#B5121B"/>
<path d="M81.9551 103.839C80.5733 102.236 82.0139 92.196 89.8493 79.8329C94.3917 72.6738 128.526 37.4661 131.716 34.5408C134.906 31.6154 139.302 30.3805 143.212 33.6734C147.137 36.9663 156.222 46.948 156.883 52.0196C157.53 57.0766 154.208 60.5606 150.18 64.1769C146.152 67.7932 121.69 93.1368 105.785 99.8109C89.8787 106.485 85.4391 105.912 84.6306 105.794C83.8074 105.676 81.9551 103.839 81.9551 103.839Z" fill="#F4E7D8"/>
<path d="M80.588 104.985L80.3822 104.677C80.2793 104.5 80.1911 104.324 80.1029 104.147C80 103.868 79.9265 103.648 79.8971 103.442C79.7942 103.016 79.7795 102.663 79.7501 102.295C79.7207 101.59 79.7501 100.943 79.8089 100.311C79.9412 99.0464 80.1764 97.8557 80.4557 96.6796C81.029 94.3276 81.8081 92.0784 82.7196 89.888C83.631 87.6976 84.6747 85.5808 85.8067 83.5227C86.38 82.4937 86.9533 81.4646 87.5707 80.465L88.4968 78.9656C88.8203 78.4658 89.2319 77.9071 89.57 77.4514C92.4513 73.6881 95.5237 70.2923 98.5961 66.8377C101.668 63.3978 104.785 60.0167 107.931 56.6355C114.223 49.9027 120.559 43.2434 127.012 36.6576C127.821 35.8344 128.629 35.0111 129.467 34.2026C129.879 33.8057 130.305 33.3794 130.79 32.9531C131.305 32.5121 131.819 32.1152 132.378 31.7623C134.553 30.3217 137.523 29.4691 140.331 30.2335C141.713 30.601 142.962 31.2919 144.006 32.1299C144.991 32.9384 145.829 33.7763 146.652 34.6142C148.298 36.3048 149.871 38.0394 151.356 39.8476C152.826 41.6705 154.267 43.5227 155.575 45.5367C156.222 46.5363 156.839 47.5801 157.369 48.712C157.633 49.2853 157.868 49.8733 158.059 50.5202C158.251 51.1376 158.383 51.9461 158.412 52.5194C158.648 55.2096 157.81 57.9439 156.428 60.1049C155.061 62.2952 153.355 64.0446 151.635 65.6175L141.713 75.1287C138.346 78.304 134.936 81.4205 131.437 84.4488C127.924 87.4771 124.307 90.3878 120.544 93.1515C116.766 95.9005 112.87 98.5172 108.548 100.634C106.329 101.692 104.212 102.486 102.036 103.339C99.8603 104.162 97.6699 104.956 95.4208 105.647C93.1716 106.338 90.893 106.97 88.4821 107.367C87.2473 107.543 86.0566 107.734 84.5277 107.558L84.3954 107.543L84.1896 107.499L84.1308 107.484C84.1161 107.484 83.8221 107.396 83.6604 107.323C83.337 107.176 83.2047 107.088 83.0136 106.985C82.6755 106.779 82.4108 106.573 82.1462 106.367C81.6317 105.941 81.1907 105.559 80.7203 105.088L80.588 104.985ZM83.3076 102.648C83.6457 102.957 84.0132 103.295 84.366 103.574C84.5571 103.721 84.7482 103.868 84.8952 103.956C84.954 104 85.0716 104.059 85.0128 104.03C84.9834 104 84.807 103.986 84.9393 104.015L84.9981 104.03C84.9393 104.015 85.1892 104.074 84.8952 104.015L84.9687 104.03C85.7332 104.118 86.8504 104 87.8794 103.824C89.9963 103.457 92.1573 102.839 94.2888 102.148C96.4351 101.457 98.552 100.678 100.669 99.8402C102.756 99.0023 104.947 98.1497 106.858 97.2089C110.797 95.239 114.531 92.6811 118.162 89.9762C121.793 87.2566 125.292 84.3459 128.732 81.3617C132.187 78.3775 135.553 75.3052 138.89 72.1593L148.886 62.5892C150.562 61.0898 152.253 59.6785 153.532 58.0909C154.811 56.5179 155.634 54.6804 155.487 52.7546C155.428 50.9171 154.252 48.9913 153.091 47.139C151.885 45.2868 150.503 43.508 149.019 41.8175C147.534 40.1122 145.99 38.4805 144.373 36.9222C143.565 36.1431 142.742 35.3934 141.933 34.7759C141.169 34.2026 140.345 33.791 139.493 33.5999C137.802 33.203 135.95 33.6734 134.333 34.7759C133.936 35.0405 133.539 35.3493 133.186 35.6727C132.804 36.0108 132.422 36.4077 132.01 36.8046L129.599 39.2302C123.146 45.7425 116.781 52.3724 110.459 59.0317C107.299 62.354 104.168 65.7057 101.066 69.0869C97.9934 72.468 94.8768 75.8785 92.1279 79.3919C91.7897 79.8623 91.5104 80.2298 91.2164 80.7002L90.3344 82.1409C89.7611 83.1111 89.2025 84.0813 88.6732 85.081C87.6295 87.0655 86.674 89.1089 85.8508 91.167C85.0275 93.2397 84.3219 95.3566 83.8368 97.4735C83.5869 98.5319 83.3958 99.605 83.3076 100.634C83.2635 101.149 83.2488 101.648 83.2782 102.089C83.2929 102.31 83.3223 102.516 83.3517 102.648C83.3664 102.722 83.3958 102.78 83.3811 102.766C83.3664 102.736 83.337 102.677 83.3076 102.648Z" fill="#F1DECB"/>
<path d="M146.137 41.2148C141.36 37.1133 136.318 34.5702 130.349 35.8932C126.659 39.6124 118.662 47.83 111.738 55.1361C110.43 62.0748 112.532 69.278 117.986 73.9527C122.97 78.2306 129.599 79.436 135.788 77.8337C142.845 71.3949 148.431 65.7499 150.18 64.1769C150.695 63.7212 151.194 63.2655 151.68 62.7951C154.193 55.0626 152.312 46.5217 146.137 41.2148Z" fill="#B5121B"/>
<path d="M140.786 61.0751C139.008 62.7069 137.229 64.221 135.436 65.7793L130.04 70.3805L124.631 74.9523C122.808 76.4665 121.029 77.9953 119.147 79.4654L118.897 79.436L118.912 79.1861L118.927 79.1714C120.691 77.6278 122.411 75.9961 124.131 74.3937L129.291 69.5426L134.421 64.662C136.112 63.0303 137.846 61.3838 139.463 59.7374L139.478 59.7227C139.846 59.3551 140.434 59.3551 140.801 59.708C141.169 60.0755 141.169 60.6635 140.816 61.031L140.786 61.0751Z" fill="#383739"/>
<path d="M148.534 62.4717L134.98 74.1732C130.423 78.0689 125.792 81.891 121 85.5073C116.207 89.1236 111.283 92.5929 106.049 95.5918C100.831 98.5319 95.2884 101.193 89.2759 102.06C89.1583 102.075 89.0554 102.001 89.026 101.884C89.0113 101.766 89.0848 101.663 89.2024 101.648C95.0385 100.487 100.331 97.5617 105.299 94.3864C110.268 91.1523 114.943 87.4772 119.471 83.6404C123.998 79.7888 128.365 75.7609 132.672 71.6448L145.564 59.1935C146.446 58.3408 147.843 58.3702 148.695 59.2523C149.548 60.1343 149.518 61.5308 148.636 62.3835C148.607 62.4129 148.578 62.4423 148.548 62.457L148.534 62.4717Z" fill="#383739"/>
<path d="M131.716 34.5408C134.906 31.6154 139.302 30.3805 143.212 33.6734C147.137 36.9663 156.222 46.948 156.883 52.0196C157.53 57.0766 157.839 56.371 154.076 60.2813C151.341 63.1185 138.611 61.6778 133.804 56.4592C127.35 49.4029 129.893 36.2313 131.716 34.5408Z" fill="#E53F2F"/>
<path d="M146.211 49.2559C148.372 49.9762 150.209 51.8873 149.592 53.0633C149.092 54.0042 147.358 53.9013 145.197 53.1809C143.036 52.4606 141.507 51.2258 141.771 50.4319C142.051 49.6381 144.065 48.5356 146.211 49.2559Z" fill="#383739"/>
<path d="M146.373 44.1254C144.756 42.2585 142.183 41.8322 140.654 43.1699C139.272 44.3754 139.199 46.5804 140.36 48.3739C140.301 48.4033 140.243 48.4033 140.198 48.4474C139.772 48.8149 139.875 49.6087 140.419 50.2261C140.963 50.8436 141.742 51.0494 142.154 50.6966C142.301 50.579 142.359 50.3878 142.389 50.1967C143.815 50.9318 145.432 50.8877 146.534 49.9321C148.063 48.5944 147.99 45.9924 146.373 44.1254ZM144.77 48.4033C144.153 48.9325 143.021 48.6385 142.242 47.7271C141.448 46.8303 141.316 45.6543 141.933 45.1251C142.551 44.5959 143.682 44.8899 144.462 45.7866C145.241 46.698 145.388 47.8594 144.77 48.4033Z" fill="#383739"/>
<path d="M143.815 49.4911C143.785 49.741 143.05 49.8439 142.198 49.7263C141.33 49.6087 140.654 49.3294 140.684 49.0795C140.713 48.8296 141.448 48.7267 142.301 48.8443C143.168 48.9619 143.844 49.2559 143.815 49.4911Z" fill="white"/>
<path d="M146.196 45.7278C145.917 45.1104 145.402 44.5959 144.961 44.2136C145.02 44.1548 145.079 44.1107 145.094 44.0372C145.197 43.655 144.594 43.1699 143.756 42.9347C142.918 42.6995 142.154 42.8171 142.051 43.1993C141.948 43.5815 142.55 44.0666 143.388 44.3019C145.02 44.7429 146.079 46.4775 145.99 47.6242C145.902 48.7855 146.769 46.9773 146.196 45.7278Z" fill="white"/>
<path d="M89.8199 98.6936C99.4782 88.712 109.122 78.7009 118.662 68.6311C121.044 66.1173 123.44 63.5889 125.733 61.0163C126.013 60.7076 126.307 60.3547 126.527 60.0901C126.733 59.7814 127.056 59.3551 127.306 59.017C127.85 58.3114 128.365 57.6646 128.703 57.0177C129.364 55.7682 129.408 54.2835 129.291 52.6223C129.011 49.2853 128.453 45.6837 128.806 42.1115C128.967 40.3327 129.335 38.5245 130.099 36.8634C130.864 35.2022 132.099 33.7469 133.642 32.8208L133.921 33.2324C132.584 34.2761 131.657 35.7168 131.143 37.275C130.614 38.8333 130.408 40.5091 130.408 42.185C130.393 45.5808 131.025 48.859 131.584 52.4018C131.702 53.2838 131.746 54.2541 131.643 55.239C131.525 56.2239 131.187 57.2529 130.628 58.1203C130.085 58.9876 129.438 59.6344 128.894 60.2812C128.6 60.6194 128.394 60.884 128.085 61.2662C127.747 61.6631 127.468 61.9571 127.159 62.2952C124.719 64.8237 122.249 67.2493 119.78 69.6896C109.827 79.4213 99.831 89.0648 89.8199 98.6936Z" fill="#383739"/>
<path d="M119.265 54.5775C119.338 53.1368 120.176 48.7414 122.22 48.5209C124.263 48.3004 125.013 52.9604 124.851 54.504C124.631 56.709 123.704 58.3849 121.911 58.3114C120.118 58.2526 119.177 56.4444 119.265 54.5775Z" fill="white"/>
<path d="M120.691 54.4452C120.72 53.769 121.088 51.7109 122.117 51.5786C123.146 51.4463 123.572 53.5926 123.513 54.3129C123.425 55.3419 122.969 56.1504 122.058 56.1357C121.161 56.1357 120.661 55.3125 120.691 54.4452Z" fill="#383739"/>
<path d="M155.222 59.0758C154.561 60.2519 153.37 61.0751 152.165 61.6043C150.944 62.1482 149.651 62.4275 148.357 62.5598C145.755 62.8244 143.124 62.5157 140.625 61.6925C139.375 61.2809 138.17 60.7517 137.023 60.0608C136.45 59.7226 135.906 59.3257 135.377 58.9288C135.141 58.7524 135.009 58.6642 134.803 58.5613C134.598 58.4731 134.377 58.3996 134.157 58.3555C132.29 58.0321 129.923 59.1934 128.409 60.7076L127.042 59.5315C127.924 58.4143 129.041 57.5764 130.29 56.9737C131.54 56.3709 133.01 55.9887 134.568 56.3121C134.95 56.4003 135.333 56.5179 135.685 56.6944C136.038 56.8561 136.42 57.1207 136.685 57.3412C137.126 57.7087 137.582 58.0762 138.082 58.3849C139.052 59.0317 140.125 59.5609 141.227 59.9873C143.447 60.8105 145.858 61.2515 148.254 61.1633C149.445 61.1192 150.636 60.9281 151.753 60.5606C152.856 60.1784 153.899 59.5903 154.561 58.6201L155.222 59.0758Z" fill="#383739"/>
<path d="M130.525 45.3603C130.864 49.7998 134.7 58.4143 142.124 60.4136C149.533 62.4128 141.771 61.3397 141.771 61.3397L135.039 57.3559L129.864 57.7528L130.114 54.6216L129.967 49.2118L130.525 45.3603Z" fill="#383739"/>
<path d="M82.9989 98.6348C82.5431 101.296 83.6016 105.074 87.997 104.221C92.3925 103.368 89.7758 105.162 89.7758 105.162C89.7758 105.162 85.3509 105.853 85.248 105.853C85.1598 105.853 81.9698 103.853 81.9698 103.853C81.9698 103.853 81.7346 102.06 81.7346 101.972C81.7346 101.884 82.2344 99.7079 82.2344 99.7079L82.9989 98.6348Z" fill="#383739"/>
<path d="M81.0143 104.618L80.8379 104.368C80.7644 104.236 80.6909 104.089 80.6174 103.942C80.5292 103.706 80.4704 103.515 80.441 103.324C80.3528 102.942 80.3381 102.604 80.3087 102.281C80.2793 101.619 80.3234 100.987 80.3822 100.384C80.5145 99.164 80.7497 97.988 81.029 96.8414C81.6023 94.5334 82.3961 92.3136 83.2929 90.1526C85.1451 85.8307 87.3355 81.7734 90.1139 77.9071C93.0099 74.232 96.1411 70.8803 99.2576 67.4845C102.389 64.1034 105.549 60.7664 108.739 57.4441C115.105 50.7995 121.514 44.1989 128.012 37.7013L130.467 35.2611C131.275 34.4525 132.143 33.6146 133.142 32.9825C135.097 31.6741 137.611 30.9685 139.993 31.5712C141.169 31.8653 142.256 32.4239 143.197 33.1589C144.123 33.8939 144.961 34.6877 145.799 35.4816C147.46 37.0986 149.033 38.7892 150.548 40.5385C152.062 42.2879 153.502 44.1107 154.796 46.0512C155.443 47.0214 156.046 48.0211 156.56 49.0942C157.06 50.1379 157.501 51.3728 157.574 52.5929C157.81 55.0626 156.928 57.547 155.546 59.5021C154.179 61.4867 152.459 63.1038 150.783 64.6914C144.315 71.1302 137.817 77.7454 130.922 83.8902C123.998 90.0056 116.913 96.0328 108.445 100.428C106.27 101.516 104.138 102.295 101.962 103.148C99.8015 104 97.5817 104.721 95.3326 105.382C93.0834 106.044 90.8048 106.617 88.4086 106.97C87.2032 107.132 86.0125 107.279 84.5865 107.102L84.4542 107.088C84.2043 107.043 84.3513 107.073 84.2925 107.058L84.2337 107.043C84.2043 107.043 83.9838 106.97 83.8368 106.896C83.5722 106.779 83.4399 106.691 83.2782 106.588C82.9695 106.382 82.7195 106.191 82.4696 105.985C81.9845 105.573 81.5582 105.177 81.1025 104.721L81.0143 104.618ZM82.8813 103.03C83.2488 103.368 83.6457 103.706 84.0279 104C84.4395 104.309 84.8952 104.574 84.9099 104.515C85.7772 104.589 86.8945 104.442 87.9529 104.236C90.0992 103.824 92.2602 103.148 94.3917 102.428C98.6108 100.928 102.962 99.2522 106.99 97.4441C110.974 95.533 114.781 93.0192 118.456 90.3584C122.161 87.7124 125.733 84.8752 129.247 81.9498C136.303 76.099 142.947 69.8219 149.739 63.5448C151.459 62.06 153.12 60.5018 154.414 58.723C155.707 56.959 156.487 54.8421 156.34 52.6958C156.251 50.579 155.046 48.5503 153.885 46.6392C152.664 44.7282 151.283 42.9053 149.827 41.1412C148.372 39.3919 146.828 37.6866 145.226 36.0696C143.594 34.4819 141.992 32.7767 139.816 32.2769C137.685 31.7182 135.391 32.3504 133.539 33.5705C132.598 34.1732 131.79 34.9376 130.981 35.7609L128.556 38.2159C122.161 44.8164 115.854 51.5051 109.621 58.2526C106.52 61.6337 103.433 65.0442 100.375 68.4694C97.3465 71.9093 94.2888 75.364 91.5545 78.9656C89.0408 82.6113 86.9239 86.7568 85.2627 90.9171C84.4395 93.0192 83.7339 95.1655 83.2488 97.3265C82.9989 98.4143 82.8225 99.5021 82.7343 100.561C82.6901 101.09 82.6754 101.619 82.7048 102.104C82.749 102.53 82.7931 102.854 82.8813 103.03Z" fill="#383739"/>
<path d="M81.6464 103.016C80.9555 103.31 79.9411 105 80.4409 105.97C80.9408 106.955 82.6019 107.72 82.6019 107.72C82.6019 107.72 84.2778 109.381 85.1892 109.616C86.1006 109.851 91.3928 109.381 92.6423 108.572C93.8919 107.764 95.6265 106.97 95.6265 106.97C95.6265 106.97 96.9937 108.543 98.4784 107.47C99.9485 106.397 99.4193 104.824 99.4193 104.824L101.771 101.898L95.0385 103.839L87.3796 106.088L83.5427 105.838L81.6464 103.016Z" fill="#383739"/>
<path d="M121.543 91.0788C124.219 88.9178 130.173 84.2872 131.687 82.8759C133.201 81.4647 135.141 79.9652 135.671 79.2596C136.2 78.554 137.949 79.142 137.097 80.3621C137.097 80.3621 138.229 82.1997 136.861 83.2434C135.509 84.2872 133.598 83.4492 133.598 83.4492C133.598 83.4492 134.539 87.683 131.702 89.741C128.85 91.7991 127.365 89.9762 127.365 89.9762C127.365 89.9762 126.615 91.9608 125.439 92.4018C124.263 92.8428 122.19 92.6517 122.19 92.6517C122.19 92.6517 121.602 93.1368 121.161 92.5929C120.72 92.0343 121 91.5198 121.543 91.0788Z" fill="#383739"/>
<path d="M143.874 105.206C143.535 105.206 143.256 105.485 143.256 105.823C143.256 106.911 143.256 107.984 143.3 109.057C143.227 109.719 143.08 110.425 142.903 111.086C142.595 112.145 142.227 113.232 141.698 114.188V114.203C141.654 114.276 141.683 114.364 141.742 114.423C141.815 114.482 141.918 114.467 141.977 114.394C142.58 113.571 143.036 112.688 143.447 111.777C143.462 111.924 143.462 112.071 143.477 112.218C143.521 112.747 143.58 113.306 143.638 113.82C143.697 114.306 143.712 114.791 143.682 115.276C143.624 116.231 143.418 117.172 142.992 117.966C142.139 119.583 140.316 120.333 138.331 120.465C137.449 120.524 136.523 120.377 135.759 119.921C134.98 119.48 134.333 118.789 133.804 117.981C132.76 116.349 132.201 114.335 131.893 112.336C131.628 110.351 131.584 108.175 131.466 106.088L130.908 93.5191C131.29 92.2548 131.613 91.0053 131.613 89.594C131.613 89.2265 131.584 88.859 131.466 88.4474C131.349 88.0652 131.143 87.5948 130.687 87.2861C130.467 87.1244 130.232 87.0362 129.923 86.9774C129.805 86.9627 129.746 86.9627 129.658 86.948C129.452 86.948 129.408 86.948 129.276 86.9627C128.806 87.0068 128.247 87.3155 127.968 87.7418C127.438 88.5944 127.497 89.3735 127.512 90.0792C127.556 90.7848 127.674 91.461 127.835 92.1225L128.085 93.0928C128.159 93.3868 128.306 93.8131 128.32 93.916C128.379 94.4746 128.394 95.1655 128.423 95.7977C128.556 100.958 128.585 106.161 128.306 111.292C128.173 113.776 127.571 116.29 126.101 118.084C125.366 118.966 124.41 119.612 123.337 119.833C122.293 120.068 121.029 119.995 120.103 119.524C118.162 118.583 117.236 115.981 117.369 113.629C117.369 112.953 117.413 112.277 117.442 111.601C117.766 112.453 118.118 113.291 118.559 114.1C118.603 114.188 118.721 114.232 118.809 114.188C118.912 114.144 118.956 114.026 118.912 113.923C118.442 112.777 118.104 111.571 117.854 110.366C117.721 109.704 117.633 109.043 117.589 108.381C117.633 107.543 117.663 106.72 117.619 105.779C117.604 105.456 117.324 105.191 117.001 105.191C116.663 105.191 116.384 105.471 116.384 105.809V105.882C116.384 107.029 116.207 108.396 116.104 109.675C115.987 110.969 115.884 112.262 115.825 113.585C115.81 114.217 115.766 114.967 115.899 115.687C116.016 116.378 116.193 117.069 116.472 117.745C117.001 119.069 117.986 120.347 119.383 121.038C120.794 121.715 122.264 121.817 123.749 121.509C125.219 121.185 126.527 120.274 127.438 119.157C128.085 118.348 128.556 117.481 128.923 116.569C128.908 118.054 128.908 119.524 128.938 121.009C129.011 122.994 129.07 124.963 129.276 126.948C129.305 127.242 129.526 127.477 129.835 127.507C130.173 127.551 130.481 127.301 130.526 126.948C130.746 124.978 130.834 123.008 130.922 121.024C130.981 119.171 131.011 117.304 130.996 115.452C131.334 116.628 131.79 117.76 132.466 118.848C133.083 119.818 133.892 120.73 134.965 121.347C136.038 121.979 137.288 122.2 138.508 122.126C139.581 122.053 140.801 121.817 141.86 121.259C142.933 120.715 143.888 119.833 144.447 118.745C145.02 117.672 145.27 116.481 145.3 115.335C145.314 114.761 145.285 114.188 145.197 113.629C145.123 113.085 145.05 112.615 144.991 112.086C144.785 110.013 144.623 107.911 144.535 105.809C144.476 105.471 144.197 105.206 143.874 105.206ZM129.261 91.7697C129.114 91.167 128.997 90.5643 128.938 89.9763C128.879 89.4029 128.938 88.8002 129.114 88.5356C129.202 88.418 129.261 88.3739 129.423 88.3445C129.452 88.3445 129.57 88.3445 129.526 88.3298C129.599 88.3298 129.717 88.3445 129.746 88.3445C129.761 88.3592 129.835 88.3592 129.879 88.4033C130.085 88.4915 130.246 89.0501 130.261 89.6087C130.276 90.7554 130.011 92.0343 129.658 93.1957C129.599 93.0193 129.555 92.8576 129.496 92.6664L129.261 91.7697Z" fill="#383739"/>
<path d="M98.4343 124.86C98.1109 124.86 97.8463 125.125 97.861 125.448C97.861 126.066 97.8757 126.669 97.8904 127.271C97.861 127.492 97.8169 127.756 97.7728 127.977C97.6846 128.389 97.5817 128.8 97.4788 129.212C97.2583 130.035 97.0231 130.873 96.6997 131.637V131.652C96.685 131.711 96.6997 131.77 96.7438 131.799C96.8026 131.828 96.8614 131.814 96.9055 131.77C97.3171 131.123 97.6552 130.461 97.9786 129.785C98.008 130.476 98.0227 131.152 98.0815 131.843C98.2285 133.71 97.3759 135.695 95.8029 136.621C95.0238 137.106 94.1124 137.341 93.1422 137.4C92.2013 137.473 91.3193 137.282 90.6137 136.797C89.173 135.798 88.5409 133.74 88.2469 131.77C88.0852 130.755 88.0264 129.77 88.0558 128.727C88.0705 127.698 88.1146 126.639 88.1734 125.595C88.291 123.493 88.4527 121.391 88.6438 119.289L88.9231 116.128L89.0848 114.555C89.0848 114.261 89.32 113.835 89.5259 113.321C89.9669 112.336 90.3638 111.292 90.6872 110.263C90.7607 110.042 90.8783 109.66 90.9077 109.307C90.9371 108.94 90.9518 108.44 90.5843 107.925C90.2021 107.411 89.6141 107.264 89.2465 107.235C88.8496 107.205 88.5115 107.249 88.1881 107.323C87.556 107.47 87.0121 107.69 86.4829 107.97C86.2182 108.117 85.9389 108.249 85.6008 108.572C85.1745 109.028 85.1157 109.484 85.0716 109.822C84.9834 111.204 85.3362 112.233 85.6302 113.306L85.8654 114.026C85.8654 114.026 85.8948 114.379 85.8948 114.585C85.8948 115.085 85.8654 115.599 85.8507 116.114C85.7919 117.157 85.7037 118.201 85.6155 119.245C85.4244 121.347 85.2039 123.449 84.954 125.537C84.8217 126.58 84.6894 127.624 84.5424 128.668C84.3807 129.726 84.2484 130.697 83.925 131.608C83.8221 131.902 83.7045 132.196 83.5722 132.475C83.5281 132.255 83.484 132.049 83.4398 131.828L83.0576 130.3C83.0576 130.285 83.0429 130.27 83.0429 130.256C82.9988 129.976 82.7636 129.756 82.4696 129.756C82.1462 129.756 81.8816 130.006 81.8816 130.344V130.373C81.8816 131.858 81.8669 133.343 81.8816 134.842C81.4406 135.239 80.9555 135.577 80.4263 135.768C79.6324 136.062 78.7357 136.048 77.9125 135.783C77.001 135.489 76.2072 135.018 75.6192 134.372C74.4285 133.063 74.2521 131.02 74.5314 129.05C74.5902 128.58 74.6931 128.095 74.796 127.624C74.9577 128.139 75.1341 128.638 75.3252 129.138C75.3693 129.241 75.4869 129.315 75.5898 129.285C75.7221 129.256 75.7956 129.138 75.7662 129.006C75.6192 128.271 75.4722 127.551 75.3987 126.83C75.3546 126.463 75.3399 126.11 75.3399 125.772C75.3399 125.713 75.3546 125.654 75.3546 125.581C75.4575 125.243 75.5604 124.919 75.678 124.581C75.8397 124.067 76.0308 123.64 76.2072 122.993C76.2807 122.699 76.119 122.391 75.825 122.288C75.5163 122.185 75.1929 122.347 75.09 122.655L75.0753 122.714C74.9577 123.082 74.6931 123.626 74.4873 124.111C74.2815 124.596 74.0756 125.11 73.8845 125.61C73.5023 126.625 73.1936 127.683 72.9878 128.785C72.7967 129.888 72.6791 131.035 72.8555 132.196C73.0172 133.357 73.4876 134.563 74.3109 135.504C75.1341 136.444 76.2366 137.077 77.3245 137.459C78.5152 137.87 79.8382 137.885 81.0437 137.444C81.3671 137.326 81.6611 137.179 81.9404 137.018C81.9992 138.311 82.0727 139.62 82.2197 140.943C82.2932 141.398 82.352 141.854 82.5284 142.369C82.5725 142.501 82.6313 142.633 82.7342 142.81C82.793 142.898 82.8518 142.986 82.9694 143.104C83.1017 143.207 83.2193 143.354 83.6457 143.383H83.7192C83.7633 143.383 83.9397 143.354 84.0279 143.324C84.3072 143.221 84.3072 143.163 84.4395 143.074C84.6012 142.927 84.7041 142.78 84.7776 142.648C85.3215 141.648 85.4538 140.81 85.6743 139.914C86.0418 138.15 86.277 136.4 86.4829 134.651C86.5564 133.931 86.6299 133.21 86.7034 132.49C86.8798 133.431 87.115 134.357 87.5119 135.268C87.9676 136.327 88.6585 137.371 89.7023 138.091C90.746 138.811 92.069 139.046 93.2304 138.944C94.377 138.855 95.5677 138.532 96.5821 137.87C98.6695 136.547 99.6545 134.034 99.434 131.696C99.2429 129.623 99.1253 127.507 99.0224 125.404V125.39C99.0077 125.096 98.743 124.86 98.4343 124.86ZM88.5556 109.087C88.7614 109.043 88.9525 109.028 89.0848 109.028C89.1142 109.028 89.0995 109.028 89.1142 109.028C89.1142 109.057 89.1142 109.072 89.1142 109.131C89.0995 109.307 89.0701 109.44 88.9819 109.719C88.6732 110.704 88.3204 111.645 87.9088 112.6L87.5854 113.365C87.5707 113.394 87.556 113.438 87.5413 113.468L87.3208 112.777C87.0415 111.836 86.7769 110.763 86.8357 110.028C86.5417 109.866 87.8059 109.263 88.5556 109.087ZM85.0863 134.475C84.8364 136.195 84.5865 137.929 84.219 139.59C84.1014 140.105 83.9544 140.663 83.7927 141.134C83.7633 141.002 83.7339 140.855 83.7192 140.722C83.4987 139.164 83.381 137.591 83.3075 135.989C83.5428 135.753 83.7633 135.518 83.9544 135.268C84.4983 134.577 84.9246 133.813 85.2627 133.034C85.2039 133.519 85.1598 134.004 85.0863 134.475Z" fill="#383739"/>
<path d="M117.957 105.177C101.389 105.177 87.8941 91.6962 87.8941 75.1141C87.8941 74.0703 87.9529 73.0413 88.0558 72.0123H76.5013C76.4278 73.0413 76.369 74.0703 76.369 75.1141C76.369 98.0468 95.0239 116.702 117.957 116.702C118.956 116.702 119.941 116.658 120.926 116.584V105.015C119.941 105.118 118.956 105.177 117.957 105.177Z" fill="#E42F28"/>
<path d="M117.957 115.981C95.3914 115.981 77.0893 97.6793 77.0893 75.1141C77.0893 74.0703 77.1481 73.0413 77.2216 72.0123H75.781C75.7075 73.0413 75.6487 74.0703 75.6487 75.1141C75.6487 98.4437 94.627 117.422 117.957 117.422C118.956 117.422 119.941 117.378 120.926 117.304V115.864C119.941 115.937 118.956 115.981 117.957 115.981Z" fill="#EDD6BD"/>
<path d="M117.957 104.456C101.786 104.456 88.6145 91.2993 88.6145 75.1141C88.6145 74.0703 88.6733 73.0413 88.7762 72.0123H87.3209C87.218 73.0266 87.1592 74.0556 87.1592 75.1141C87.1592 92.0784 100.963 105.897 117.942 105.897C118.942 105.897 119.927 105.838 120.911 105.75V104.295C119.941 104.383 118.956 104.456 117.957 104.456Z" fill="#EDD6BD"/>
<path d="M117.957 115.629C95.6266 115.629 77.4568 97.4588 77.4568 75.1287C77.4568 74.085 77.5156 73.056 77.5891 72.027H76.8688C76.7953 73.056 76.7365 74.085 76.7365 75.1287C76.7365 97.8557 95.2296 116.349 117.957 116.349C118.956 116.349 119.941 116.305 120.926 116.231V115.511C119.941 115.57 118.956 115.629 117.957 115.629Z" fill="#B5121B"/>
<path d="M117.957 105.529C101.183 105.529 87.5414 91.8873 87.5414 75.1141C87.5414 74.0703 87.6002 73.0413 87.7031 72.0123H86.9828C86.8799 73.0266 86.8211 74.0703 86.8211 75.1141C86.8211 92.2842 100.787 106.25 117.957 106.25C118.956 106.25 119.941 106.191 120.926 106.103V105.368C119.941 105.471 118.956 105.529 117.957 105.529Z" fill="#B5121B"/>
</svg>
