<svg xmlns="http://www.w3.org/2000/svg" width="200" height="120" viewBox="0 0 200 120" xmlns:xlink="http://www.w3.org/1999/xlink">
  <defs>
    <circle id="a" cx="21" cy="21" r="21"/>
    <mask id="i" width="42" height="42" x="0" y="0" fill="white">
      <use xlink:href="#a"/>
    </mask>
    <rect id="b" width="8" height="16" x="41.485" y="37.485" rx="4"/>
    <mask id="j" width="8" height="16" x="0" y="0" fill="white">
      <use xlink:href="#b"/>
    </mask>
    <rect id="c" width="50" height="50" rx="3"/>
    <mask id="k" width="50" height="50" x="0" y="0" fill="white">
      <use xlink:href="#c"/>
    </mask>
    <circle id="d" cx="45.5" cy="5.5" r="1.5"/>
    <mask id="l" width="3" height="3" x="0" y="0" fill="white">
      <use xlink:href="#d"/>
    </mask>
    <circle id="e" cx="41.5" cy="5.5" r="1.5"/>
    <mask id="m" width="3" height="3" x="0" y="0" fill="white">
      <use xlink:href="#e"/>
    </mask>
    <circle id="f" cx="37.5" cy="5.5" r="1.5"/>
    <mask id="n" width="3" height="3" x="0" y="0" fill="white">
      <use xlink:href="#f"/>
    </mask>
    <rect id="g" width="58" height="21" rx="3"/>
    <mask id="o" width="58" height="21" x="0" y="0" fill="white">
      <use xlink:href="#g"/>
    </mask>
    <circle id="h" cx="47.5" cy="10.5" r="5.5"/>
    <mask id="p" width="11" height="11" x="0" y="0" fill="white">
      <use xlink:href="#h"/>
    </mask>
  </defs>
  <g fill="none" fill-rule="evenodd">
    <rect width="200" height="2" y="94" fill="#00CBED"/>
    <g transform="translate(135 34)">
      <use fill="#DFF8FC" stroke="#00CBED" stroke-width="4" mask="url(#i)" xlink:href="#a"/>
      <circle cx="21" cy="21" r="17" fill="#FFFFFF" stroke="#00CBED"/>
      <rect width="2" height="45" x="20" y="15" fill="#00CBED"/>
      <rect width="9" height="1" x="20.036" y="28.036" fill="#00CBED" transform="rotate(-45 24.536 28.536)"/>
      <rect width="7" height="1" x="14.328" y="21.328" fill="#00CBED" transform="rotate(45 17.828 21.828)"/>
      <rect width="2" height="11" x="38.596" y="34.096" fill="#00CBED" transform="rotate(-45 39.596 39.596)"/>
      <use fill="#FFFFFF" stroke="#00CBED" stroke-width="4" mask="url(#j)" transform="rotate(-45 45.485 45.485)" xlink:href="#b"/>
    </g>
    <g transform="translate(73 24)">
      <rect width="2" height="51" x="24" y="19" fill="#00CBED"/>
      <rect width="9" height="1" x="25" y="34" fill="#00CBED"/>
      <rect width="7" height="1" x="17" y="28" fill="#00CBED"/>
      <use stroke="#00CBED" stroke-width="4" mask="url(#k)" xlink:href="#c"/>
      <rect width="50" height="10" fill="#00CBED" fill-opacity=".124" rx="3"/>
      <rect width="46" height="1" x="2" y="9" fill="#00CBED"/>
      <use fill="#FFFFFF" stroke="#00CBED" stroke-width="2" mask="url(#l)" xlink:href="#d"/>
      <use fill="#FFFFFF" stroke="#00CBED" stroke-width="2" mask="url(#m)" xlink:href="#e"/>
      <use fill="#FFFFFF" stroke="#00CBED" stroke-width="2" mask="url(#n)" xlink:href="#f"/>
    </g>
    <g transform="translate(7 42)">
      <rect width="2" height="31" x="28" y="21" fill="#00CBED"/>
      <use stroke="#00CBED" stroke-width="4" mask="url(#o)" xlink:href="#g"/>
      <use stroke="#00CBED" stroke-width="2" mask="url(#p)" xlink:href="#h"/>
      <polygon fill="#00CBED" points="47.5 9.875 45.625 8 45 8.625 46.875 10.5 45 12.375 45.625 13 47.5 11.125 49.375 13 50 12.375 48.125 10.5 50 8.625 49.375 8 47.5 9.875"/>
    </g>
  </g>
</svg>
