<svg width="237" height="171" viewBox="0 0 237 171" fill="none" xmlns="http://www.w3.org/2000/svg">
<path d="M23.951 0L49.0379 24.6224V60.7997H51.9241V23.4217L31.0184 2.88483H205.191L184.519 23.3593L184.488 60.7997H187.374L187.39 24.5756L212.242 0H23.951Z" fill="#D60000"/>
<path d="M184.472 109.639L184.457 136.912L118.198 167.819L51.9241 136.959V109.639L49.0378 107.721V138.799L118.198 171L187.343 138.752L187.358 107.721L184.472 109.639Z" fill="#D60000"/>
<path d="M236.066 63.4662H140.695C140.695 63.4662 138.324 65.275 137.154 69.5945C146.202 75.7072 152.146 86.0614 152.146 97.8034C152.146 98.4115 152.131 99.3004 152.1 99.9241H143.16V95.6982C143.145 87.9326 139.603 80.9934 134.049 76.4089V75.1926C131.412 73.1654 128.37 71.6372 125.078 70.7328V71.6684C122.863 71.0291 120.538 70.686 118.136 70.686C115.733 70.686 113.393 71.0291 111.193 71.6684V70.7328C107.901 71.6372 104.859 73.1654 102.222 75.1926V76.4089C96.6996 80.9622 93.1738 87.8234 93.1114 95.5111V99.9085H84.1718C84.1406 99.2848 84.125 98.3803 84.125 97.7878C84.125 86.0458 90.0691 75.7072 99.1179 69.5789C97.9322 65.275 95.5763 63.4506 95.5763 63.4506H0.205933C0.205933 63.4506 10.4872 73.2902 13.8102 73.2902C17.1333 73.2902 84.4371 73.2902 84.4371 73.2902C83.579 74.5532 82.8458 75.8007 82.2061 77.0482H16.4156C16.4156 77.0482 24.2787 84.5644 26.8217 84.5644C28.335 84.5644 61.4876 84.5644 79.3667 84.5644C79.039 85.9054 78.7894 87.2153 78.6178 88.4628H30.5972C30.5972 88.4628 38.4602 95.9789 41.0032 95.9789C42.5633 95.9789 63.0634 95.9789 78.337 95.9789C78.3994 97.4603 78.5398 98.7702 78.649 99.8773H44.2014C44.2014 99.8773 52.0645 107.393 54.6075 107.393C55.9804 107.393 72.9233 107.393 87.4949 107.393L97.9946 116.329L100.304 124.671L104.001 127.868L102.3 119.463L104.734 121.443L101.442 116.282L100.319 109.966L102.3 109.733L109.399 113.693L112.847 113.023L115.749 109.545C115.749 109.545 116.669 109.14 117.746 109.078H118.027V109.109C118.073 109.109 118.12 109.093 118.167 109.093C118.214 109.093 118.261 109.093 118.307 109.109V109.078H118.573C119.649 109.14 120.57 109.545 120.57 109.545L123.471 113.023L126.919 113.693L134.018 109.733L135.999 109.966L134.876 116.282L131.584 121.443L134.018 119.463L132.317 127.868L136.015 124.671L138.324 116.329L148.823 107.393C163.395 107.393 180.338 107.393 181.711 107.393C184.254 107.393 192.117 99.8773 192.117 99.8773H157.669C157.794 98.7702 157.919 97.4447 157.981 95.9789C173.255 95.9789 193.739 95.9789 195.315 95.9789C197.858 95.9789 205.721 88.4628 205.721 88.4628H157.701C157.529 87.1997 157.279 85.9054 156.952 84.5644C174.831 84.5644 207.999 84.5644 209.512 84.5644C212.055 84.5644 219.918 77.0482 219.918 77.0482H154.128C153.488 75.8007 152.755 74.5532 151.897 73.2902C151.897 73.2902 219.201 73.2902 222.524 73.2902C225.784 73.3058 236.066 63.4662 236.066 63.4662ZM138.293 99.7058C137.809 101.172 137.076 102.513 136.093 103.635C135.438 104.384 134.673 105.039 133.784 105.538C132.614 106.208 131.241 106.583 129.821 106.583C129.088 106.583 128.37 106.442 127.731 106.208C127.075 105.974 126.482 105.647 125.952 105.273C125.89 105.226 125.827 105.179 125.765 105.132H110.413C109.93 105.507 109.399 105.819 108.806 106.068C108.057 106.38 107.23 106.583 106.357 106.583C105.296 106.583 104.251 106.38 103.299 105.99C102.347 105.6 101.505 105.039 100.772 104.368C99.3051 103.012 98.3066 101.218 97.7138 99.238C97.3237 97.9125 97.1365 96.4935 97.1209 95.0121C97.1209 94.0921 97.2769 93.1721 97.6357 92.33C97.9789 91.4879 98.525 90.7395 99.149 90.1469C99.5703 89.7571 100.023 89.414 100.506 89.1177C101.146 88.7279 101.832 88.4316 102.535 88.1821C103.486 87.8546 104.485 87.6207 105.546 87.418C106.903 87.1685 108.276 86.997 109.633 86.9814C110.288 86.9814 110.944 87.0282 111.614 87.1529C112.27 87.2777 112.956 87.496 113.627 87.8702C114.064 88.1197 114.501 88.4628 114.875 88.8838C115.156 89.2113 115.39 89.5855 115.577 89.991H120.538C120.835 89.336 121.287 88.7591 121.818 88.338C122.176 88.0418 122.551 87.8078 122.941 87.6363C123.456 87.4024 123.971 87.2465 124.47 87.1529C125.141 87.0126 125.812 86.9814 126.482 86.9814C127.84 86.9814 129.228 87.1685 130.57 87.418C131.615 87.6051 132.598 87.839 133.534 88.1665C134.47 88.494 135.344 88.8994 136.155 89.4764C136.686 89.8506 137.2 90.3184 137.622 90.8642C138.199 91.5815 138.605 92.4548 138.823 93.3904C138.948 93.9206 138.995 94.4663 138.995 95.0121C139.041 96.6494 138.792 98.2556 138.293 99.7058ZM114.953 123.782L116.888 124.359L115.842 120.742L112.535 119.588L112.457 118.792L110.195 119.369L109.056 123.782C109.056 123.782 108.822 119.806 109.539 118.574C110.273 117.342 113.814 116.329 113.814 116.329V118.278L116.794 120.009H118.089H119.384L122.364 118.278V116.329C122.364 116.329 125.921 117.342 126.638 118.574C127.372 119.806 127.122 123.782 127.122 123.782L125.983 119.369L123.721 118.792L123.643 119.588L120.336 120.742L119.29 124.359L121.225 123.782L127.356 125.451L125.983 125.81L119.852 125.155L118.963 126.667H117.184L116.295 125.155L110.164 125.81L108.791 125.451L114.953 123.782ZM123.237 128.772L126.95 127.618L126.716 129.287L123.737 131.673L123.331 131.158L118.12 130.082L112.909 131.158L112.504 131.673L109.508 129.287L109.259 127.618L112.972 128.772C112.972 128.772 116.451 128.32 118.105 128.336C119.758 128.336 123.237 128.772 123.237 128.772ZM113.471 92.2053C113.471 97.164 110.304 103.963 106.388 103.963C102.472 103.963 99.7731 99.9397 99.7731 94.9965C99.7731 92.0025 102.191 90.6771 106.045 89.9754C109.805 89.3048 113.471 89.2113 113.471 92.2053ZM126.794 74.0854C128.417 74.6624 129.93 75.4577 131.319 76.4245V84.003L126.794 83.1298V74.0854ZM104.89 76.4245C106.279 75.4577 107.792 74.6624 109.415 74.0854V83.1298L104.89 84.003V76.4245ZM121.989 100.158C122.301 100.829 122.66 101.483 123.066 102.092H113.143C114.048 100.688 114.735 99.1132 115.234 97.4759C115.421 96.8678 115.577 96.2596 115.702 95.6359H120.507C120.585 96.0257 120.679 96.4155 120.772 96.7898C121.084 97.9593 121.49 99.0821 121.989 100.158ZM136.436 94.9965C136.436 99.9553 133.737 103.963 129.821 103.963C125.905 103.963 122.723 97.1484 122.723 92.2053C122.723 89.2113 126.389 89.3048 130.149 89.991C134.018 90.6771 136.436 92.0025 136.436 94.9965ZM155.407 109.748H160.712L127.528 140.92H108.681L75.482 109.748H80.7864L112.566 136.772C112.566 136.772 114.938 136.195 118.058 136.195C118.073 136.195 118.12 136.195 118.12 136.195C121.24 136.211 123.612 136.772 123.612 136.772L155.407 109.748Z" fill="#001379"/>
<path d="M145.017 19.1334H143.332V25.7451H145.017V19.1334Z" fill="#00199F"/>
<path d="M169.074 18.6344L168.341 23.3905H169.776L169.074 18.6344Z" fill="#00199F"/>
<path d="M36.8221 5.28625L54.3267 22.4081V60.8932H182.085L182.101 22.3613L199.387 5.28625H36.8221ZM164.222 25.7607H165.064L166.624 16.7788H171.554L173.146 25.7607H173.91V28.1154H170.431L170.025 25.3553H168.107L167.717 28.1154H164.222V25.7607ZM151.585 16.7788H161.32V20.9735H159.136V19.149H157.997V25.7607H158.746V28.1154H154.175V25.7607H154.908V19.149H153.769V20.9735H151.585V16.7788ZM128.589 19.1334C128.604 18.5253 128.62 17.9327 129.135 17.4025C129.727 16.7944 130.523 16.7788 131.163 16.7788H136.155V20.1158H133.409V19.1334H131.678V21.2074H133.753C134.377 21.223 135.094 21.223 135.687 21.6128C136.498 22.143 136.498 23.0006 136.498 23.6712V25.48C136.483 26.2597 136.483 27.2733 135.453 27.8347C134.923 28.1154 134.392 28.1154 133.831 28.1154H128.76V24.638H131.678V25.7451H133.409V23.4685H131.147C130.492 23.4529 129.774 23.4529 129.197 22.8603C128.635 22.2989 128.604 21.6596 128.589 21.0047V19.1334ZM116.669 25.7607H117.403V19.149H116.669V16.7944H124.673V20.5057H122.083V19.149H120.445V21.3009H122.754V23.3905H120.445V25.7607H122.083V24.2949H124.844V28.1154H116.669V25.7607ZM80.3964 25.7607H81.1296V19.149H80.3964V16.7944H84.9831V19.149H84.2343V25.7607H84.9831V28.1154H80.3964V25.7607ZM62.2989 25.7607H63.0478L64.4831 16.7788H68.3366L69.3819 22.1274C69.4911 22.7667 69.5223 22.9851 69.6159 23.64C69.7251 22.9383 69.7719 22.6576 69.9279 21.9403L70.9264 16.7788H74.7487L76.2464 25.7607H76.9797V28.1154H73.6098L72.5645 20.7552L70.9264 28.1154H68.2118L66.6204 20.9267L65.6688 28.1154H62.2989V25.7607ZM84.125 36.6451H83.0017L80.88 49.9933H75.1543L73.5942 42.0405C73.4226 41.0893 73.3758 40.7774 73.2354 39.795C73.0638 40.8398 73.0014 41.2452 72.783 42.3212L71.3008 49.9777H65.622L63.4066 36.6295H62.3145V33.1209H67.3069L68.8515 44.0677L71.3164 33.1209H75.3571L77.713 43.8026L79.1171 33.1209H84.1407V36.6451H84.125ZM91.7853 36.6451H90.662V46.4847H91.7853V49.9933H84.9519V46.4847H86.044V36.6451H84.9519V33.1365H91.7853V36.6451ZM92.1753 22.5952L92.2377 28.1154H88.7118V25.7607H89.4451V19.149H88.7118V16.7944H92.3469L94.8899 21.7687C95.2955 22.5328 95.3579 22.7356 95.5763 23.4217C95.4827 22.4549 95.4827 22.221 95.4827 21.3321V16.7788H98.9618V19.1334H98.213V25.7451H98.9618V28.0998H95.3423L93.0334 23.6868C92.4405 22.5016 92.3625 22.2677 92.1129 21.5192C92.1597 21.9715 92.1597 22.1586 92.1753 22.5952ZM108.697 36.6451H107.605V46.4847H108.697V49.9933H103.33L99.8979 43.4283C99.0086 41.6662 98.8994 41.3232 98.5406 40.2004C98.6186 40.871 98.6186 41.1361 98.6342 41.7754L98.7278 49.9777H93.5014V46.4691H94.5935V36.6451H93.5014V33.1365H98.8994L102.675 40.5435C103.268 41.6818 103.361 41.9781 103.705 43.0073C103.564 41.5727 103.564 41.214 103.564 39.9042V33.1521H108.728V36.6451H108.697ZM106.996 23.7024C106.404 22.5172 106.326 22.2833 106.076 21.5348C106.123 21.9871 106.123 22.1586 106.138 22.5952L106.201 28.1154H102.691V25.7607H103.424V19.149H102.691V16.7944H106.326L108.869 21.7687C109.274 22.5328 109.337 22.7356 109.555 23.4217C109.461 22.4549 109.461 22.221 109.461 21.3321V16.7788H112.925V19.1334H112.192V25.7451H112.925V28.0998H109.305L106.996 23.7024ZM121.989 49.9933H114.391C113.487 49.9933 112.535 49.9933 111.614 49.4007C110.429 48.6054 110.351 47.4359 110.351 46.0169V37.2844C110.351 36.3332 110.351 35.2105 110.897 34.3684C111.739 33.1209 113.159 33.1209 114.532 33.1209H121.786V38.0329H117.637V36.6295H115.016V46.4847H117.637V43.3036H116.248V39.795H121.974V49.9933H121.989ZM143.02 36.6451H141.928V46.4847H143.02V49.9933H137.575V42.1964C137.575 41.5727 137.575 41.4323 137.622 40.9022L133.675 48.1376L129.618 40.8398C129.649 41.3388 129.665 41.4323 129.665 42.0093V50.0089H124.298V46.5003H125.422V36.6451H124.298V33.1365H129.665L133.035 39.296C133.347 39.9354 133.425 40.0757 133.706 40.793C134.018 40.1225 134.111 39.9354 134.455 39.296L137.747 33.1365H143.02V36.6451ZM140.945 27.5852C140.243 26.9926 140.243 26.1194 140.243 25.3865V19.8507C140.243 19.1958 140.243 18.5409 140.492 17.9795C140.976 16.7944 142.099 16.7944 142.957 16.7944H145.173C146.249 16.7944 147.263 16.8412 147.794 17.7768C148.137 18.3693 148.137 19.1334 148.137 20.0534V24.7471C148.137 25.3865 148.137 26.0726 147.997 26.634C147.591 28.131 146.28 28.1465 145.298 28.1465H143.238C142.489 28.1154 141.569 28.0998 140.945 27.5852ZM156.889 49.9933H144.736V46.4847H145.828V36.6451H144.736V33.1365H156.624V38.6567H152.771V36.6451H150.337V39.8418H153.785V42.9449H150.337V46.4691H152.771V44.3016H156.874V49.9933H156.889ZM173.91 36.6451H172.818V46.4847H173.91V49.9933H168.543L165.111 43.4283C164.222 41.6662 164.113 41.3232 163.754 40.2004C163.816 40.871 163.816 41.1361 163.847 41.7754L163.941 49.9777H158.715V46.4691H159.807V36.6451H158.715V33.1365H164.113L167.888 40.5435C168.481 41.6818 168.575 41.9781 168.918 43.0073C168.777 41.5727 168.777 41.214 168.777 39.9042V33.1521H173.941V36.6451H173.91Z" fill="#001379"/>
<path d="M164.175 109.592L127.559 143.275H108.65L72.0341 109.592H54.3267V135.431L118.183 165.168L182.039 135.384L182.054 109.592H164.175ZM122.457 159.071L118.105 155.905L113.736 159.071L115.406 153.941L111.068 150.775H116.435L118.105 145.676L119.774 150.775H125.141L120.788 153.941L122.457 159.071Z" fill="#001379"/>
</svg>
