<svg width="197" height="159" viewBox="0 0 197 159" fill="none" xmlns="http://www.w3.org/2000/svg">
<path d="M2.67248 116.58C2.57888 115.66 2.11081 114.599 1.28395 113.367C0.457082 112.136 0.0358363 111.403 0.00463377 111.2C-0.0265687 110.935 0.0982718 110.826 0.425898 110.857C4.07659 111.309 7.74289 111.746 11.3936 112.151C11.924 112.214 12.236 112.619 12.3452 113.367C13.7649 124.314 15.1691 135.043 16.5888 145.553C16.62 145.74 16.6512 145.88 16.7136 146.005C16.7916 145.818 16.8384 145.662 16.854 145.537C17.6185 139.128 18.3673 132.782 19.1318 126.513C19.2254 125.796 19.241 125.078 19.163 124.361C18.8353 122.225 18.4921 120.073 18.1645 117.921C18.0397 117.079 17.5561 116.096 16.7448 114.958C15.9335 113.82 15.5123 113.149 15.4811 112.978C15.4499 112.728 15.6059 112.619 15.9491 112.666C19.5998 113.056 23.2349 113.414 26.8856 113.742C27.4473 113.788 27.7593 114.163 27.8373 114.864C29.257 125.047 30.6611 135.043 32.0808 144.867C32.112 145.038 32.1744 145.179 32.2525 145.288C32.3305 145.116 32.3773 144.976 32.3929 144.851C33.6878 134.933 34.9983 125.172 36.2932 115.551C36.3868 114.896 36.7144 114.584 37.2761 114.631C38.6802 114.74 40.0843 114.849 41.4884 114.942C41.8784 114.974 42.0969 115.176 42.1593 115.566C42.1749 115.738 40.3495 128.072 36.6676 154.176C36.574 154.847 36.2464 155.205 35.6847 155.252C32.0341 155.548 28.3833 155.86 24.7326 156.203C24.171 156.25 23.8434 155.938 23.7186 155.252C23.2661 152.367 22.8137 149.467 22.3613 146.551C22.3613 146.379 22.33 146.223 22.2364 146.114C22.1584 146.114 22.1116 146.27 22.096 146.566C21.7528 149.529 21.4252 152.508 21.0819 155.501C21.0195 156.219 20.7075 156.609 20.1459 156.655C16.4796 157.014 12.8289 157.42 9.16261 157.825C8.60097 157.887 8.28892 157.544 8.21091 156.796C6.38556 143.744 4.52903 130.365 2.67248 116.58Z" fill="#00199F"/>
<path d="M45.1546 154.519C44.8114 154.55 44.5929 154.394 44.5305 154.067C44.5149 153.989 44.4994 153.942 44.4994 153.911C44.4994 146.317 44.4837 138.723 44.4837 131.129C44.4681 131.051 44.4525 130.973 44.4369 130.864C44.3433 130.427 44.0157 129.912 43.454 129.32C42.8768 128.727 42.596 128.369 42.5648 128.259C42.5335 128.072 42.6272 127.994 42.8768 127.994C46.1843 128.072 49.4918 128.15 52.7993 128.213C53.1269 128.213 53.3141 128.4 53.3921 128.743C53.4077 128.774 53.4077 128.836 53.4233 128.899C53.4389 137.054 53.4545 145.194 53.4857 153.35C53.4701 153.771 53.2517 153.989 52.8461 154.02C50.2719 154.192 47.7132 154.348 45.1546 154.519Z" fill="#00199F"/>
<path d="M56.5904 129.554C56.0131 128.992 55.7167 128.649 55.7011 128.54C55.6699 128.369 55.7635 128.275 56.0131 128.291C59.305 128.353 62.6125 128.4 65.9043 128.447C66.3412 128.447 66.6532 128.649 66.8716 129.024C69.6798 134.357 72.488 139.58 75.2963 144.742C75.3431 144.835 75.4211 144.929 75.5147 144.991C75.5927 144.991 75.6239 144.882 75.6083 144.695C75.5771 139.534 75.5303 134.372 75.4991 129.226C75.4835 128.79 75.6863 128.571 76.1231 128.587C77.1996 128.602 78.2761 128.602 79.337 128.618C79.6802 128.618 79.8986 128.79 79.961 129.117C79.961 129.148 79.961 129.195 79.9454 129.257C79.961 136.961 79.9766 144.648 79.9922 152.352C79.9922 152.741 79.7894 152.96 79.3526 152.96C76.794 153.022 74.2354 153.1 71.6612 153.178C71.2244 153.194 70.9279 153.022 70.7407 152.648C67.9169 147.486 65.093 142.263 62.2692 136.93C62.2224 136.836 62.1444 136.758 62.0664 136.727C62.004 136.727 61.9728 136.836 61.9728 137.039C62.0196 142.341 62.082 147.642 62.1288 152.944C62.1132 153.365 61.8948 153.568 61.4891 153.599C60.4127 153.646 59.3518 153.693 58.2753 153.755C57.9321 153.771 57.7137 153.63 57.6513 153.318C57.6357 153.256 57.6201 153.194 57.6201 153.162C57.6201 145.88 57.6045 138.582 57.6045 131.3C57.5889 131.238 57.5732 131.144 57.542 131.035C57.4796 130.598 57.152 130.115 56.5904 129.554Z" fill="#00199F"/>
<path d="M97.5593 139.643C97.216 139.643 96.9976 139.487 96.9352 139.159C96.8104 138.598 96.8104 137.319 96.9352 135.323C97.06 133.327 97.0444 132.002 96.9039 131.347C96.8415 131.051 96.6387 130.895 96.3267 130.895C95.2502 130.895 94.1737 130.895 93.0972 130.895C92.6604 130.895 92.4576 131.097 92.4576 131.487C92.4576 137.647 92.4733 143.806 92.4733 149.95C92.4889 150.013 92.5045 150.059 92.5045 150.09C92.5825 150.418 92.7853 150.574 93.1285 150.574C94.1894 150.574 95.2503 150.558 96.2956 150.558C96.7168 150.558 96.9352 150.34 96.9196 149.919C96.9196 147.939 96.9196 145.958 96.9196 143.978C95.6559 142.73 95.0162 142.075 95.0006 142.013C94.9694 141.888 95.0787 141.81 95.3127 141.81C98.6201 141.81 101.943 141.81 105.251 141.826C105.594 141.826 105.812 141.997 105.875 142.325C105.875 142.356 105.875 142.403 105.875 142.465C105.89 145.709 105.89 148.937 105.906 152.18C105.89 152.57 105.672 152.773 105.266 152.773C99.5094 152.726 93.7526 152.726 87.9957 152.804C86.9504 152.819 86.0143 152.507 85.1875 151.884C84.3606 151.26 83.8458 150.434 83.6118 149.404C83.5494 149.108 83.5181 148.796 83.5337 148.469C83.5181 143.338 83.5025 138.193 83.4869 133.047C83.5025 131.862 83.9238 130.832 84.7819 129.959C85.6399 129.086 86.7008 128.665 87.9645 128.665C92.4264 128.68 96.904 128.696 101.366 128.68C102.411 128.68 103.347 129.008 104.174 129.663C105.001 130.318 105.531 131.16 105.75 132.173C105.812 132.47 105.859 132.766 105.859 133.062C105.859 135.058 105.875 137.039 105.875 139.035C105.859 139.456 105.656 139.674 105.251 139.674C102.676 139.643 100.118 139.643 97.5593 139.643Z" fill="#00199F"/>
<path d="M131.882 153.459C131.554 153.443 131.367 153.287 131.305 152.975C131.289 152.913 131.274 152.851 131.274 152.819C131.242 147.939 131.211 143.073 131.164 138.193C131.149 138.13 131.133 138.068 131.133 138.021C131.117 137.974 131.118 137.927 131.102 137.896C131.071 138.005 131.04 138.083 130.993 138.146C129.916 143.027 128.84 147.876 127.779 152.679C127.67 153.084 127.404 153.272 126.983 153.256C124.159 153.147 121.32 153.069 118.496 152.991C118.059 152.975 117.778 152.773 117.638 152.367C116.265 148.547 114.877 144.742 113.488 140.968C113.457 140.843 113.41 140.75 113.348 140.719C113.316 140.812 113.301 140.906 113.285 140.968C113.332 144.742 113.363 148.5 113.41 152.274C113.394 152.663 113.176 152.866 112.77 152.851C111.694 152.835 110.617 152.819 109.557 152.804C109.213 152.804 108.995 152.648 108.932 152.352C108.917 152.289 108.901 152.242 108.901 152.196C108.901 145.272 108.886 138.364 108.886 131.44C108.901 131.378 108.886 131.3 108.87 131.191C108.792 130.801 108.449 130.333 107.856 129.819C107.263 129.289 106.967 128.977 106.951 128.883C106.92 128.712 107.014 128.634 107.263 128.634C110.571 128.618 113.894 128.602 117.201 128.571C117.607 128.571 117.872 128.758 118.012 129.164C120.165 135.011 122.318 140.921 124.471 146.894C124.518 147.065 124.565 147.143 124.643 147.143C124.721 147.143 124.783 147.065 124.83 146.894C126.172 140.999 127.498 135.074 128.84 129.086C128.933 128.649 129.199 128.415 129.62 128.415C132.912 128.369 136.219 128.322 139.511 128.259C139.854 128.259 140.073 128.431 140.135 128.774C140.135 128.805 140.135 128.868 140.135 128.93C140.151 137.023 140.166 145.116 140.182 153.194C140.182 153.615 139.979 153.817 139.542 153.786C137.015 153.693 134.456 153.568 131.882 153.459Z" fill="#00199F"/>
<path d="M163.833 127.729C164.177 127.714 164.395 127.901 164.473 128.275C164.723 129.6 164.52 130.271 163.849 130.271C160.557 130.333 157.265 130.396 153.973 130.442C153.552 130.458 153.334 130.676 153.334 131.113C153.334 136.711 153.349 139.549 153.365 139.627C153.443 140.001 153.646 140.173 154.005 140.188C157.296 140.251 160.588 140.313 163.88 140.391C164.099 140.391 164.208 140.454 164.239 140.578C164.255 140.656 164.192 140.75 164.052 140.859C163.615 141.358 163.178 141.857 162.741 142.356C162.46 142.683 162.102 142.839 161.68 142.824C159.122 142.746 156.563 142.668 154.005 142.59C153.583 142.574 153.365 142.808 153.38 143.276C153.396 148.874 153.396 151.697 153.396 151.728C153.458 152.102 153.677 152.289 154.02 152.32C157.312 152.523 160.604 152.757 163.896 152.991C164.114 153.006 164.223 153.069 164.255 153.194C164.27 153.272 164.208 153.381 164.083 153.521C163.646 153.989 163.194 154.441 162.757 154.893C162.476 155.205 162.133 155.346 161.727 155.314C156.189 154.862 150.65 154.472 145.096 154.145C144.753 154.129 144.535 153.958 144.472 153.63C144.457 153.552 144.441 153.505 144.441 153.474C144.425 146.067 144.425 138.645 144.425 131.238C144.41 131.175 144.394 131.082 144.363 130.973C144.285 130.552 143.957 130.068 143.38 129.507C142.803 128.961 142.506 128.634 142.491 128.524C142.46 128.353 142.553 128.259 142.803 128.259C149.808 128.103 156.828 127.932 163.833 127.729Z" fill="#00199F"/>
<path d="M165.628 116.003C164.879 115.145 164.504 114.646 164.473 114.475C164.426 114.194 164.567 114.038 164.879 114.022C169.185 113.648 173.491 113.243 177.796 112.806C178.358 112.744 178.779 113.04 179.06 113.664C182.726 122.708 186.393 132.22 190.059 142.278C190.121 142.465 190.215 142.637 190.34 142.761C190.449 142.761 190.48 142.574 190.465 142.2C190.418 132.345 190.371 122.49 190.324 112.65C190.309 111.824 190.574 111.371 191.136 111.309C192.54 111.138 193.928 110.966 195.332 110.795C195.785 110.732 196.066 111.028 196.159 111.683C196.175 111.746 196.159 111.839 196.144 111.98C196.159 127.215 196.19 142.45 196.206 157.7C196.206 158.495 195.941 158.854 195.379 158.776C192.04 158.355 188.702 157.965 185.363 157.591C184.801 157.529 184.396 157.139 184.162 156.437C180.48 146.41 176.798 136.914 173.116 127.87C173.054 127.698 172.96 127.589 172.851 127.527C172.789 127.527 172.742 127.714 172.726 128.057C172.788 137.101 172.851 146.161 172.929 155.236C172.898 155.938 172.632 156.266 172.102 156.219C170.698 156.078 169.309 155.954 167.905 155.829C167.453 155.782 167.188 155.502 167.094 154.987C167.078 154.878 167.063 154.784 167.047 154.722C167.032 142.715 167.032 130.708 167.016 118.716C167 118.607 166.969 118.467 166.954 118.295C166.813 117.625 166.376 116.86 165.628 116.003Z" fill="#00199F"/>
<path d="M49.7102 116.33C50.4747 116.377 51.2391 116.424 52.0036 116.455C52.5652 117.858 53.1269 119.262 53.6885 120.65C54.2502 119.309 54.8118 117.968 55.3735 116.642C56.1379 116.673 56.9024 116.72 57.6669 116.751C57.6669 118.856 57.6669 120.962 57.6669 123.051C57.1832 123.035 56.6996 123.02 56.2159 123.004C56.2159 121.492 56.2159 119.979 56.2159 118.451H56.2003C55.5451 119.932 54.8898 121.429 54.2502 122.926C53.8758 122.911 53.5013 122.895 53.1425 122.88C52.4872 121.336 51.832 119.761 51.1923 118.201C51.1923 118.201 51.1923 118.201 51.1767 118.201C51.1767 119.745 51.1767 121.273 51.1767 122.817C50.6931 122.802 50.2095 122.786 49.7258 122.77C49.7102 120.634 49.7102 118.482 49.7102 116.33Z" fill="#D60000"/>
<path d="M64.8123 117.079C65.3115 117.094 65.8107 117.126 66.3099 117.141C66.3099 119.199 66.3099 121.258 66.3099 123.316C65.8107 123.301 65.3115 123.285 64.8123 123.285C64.8123 121.211 64.8123 119.137 64.8123 117.079Z" fill="#D60000"/>
<path d="M73.4553 117.391C74.2198 117.422 74.9998 117.437 75.7643 117.453C76.7003 118.95 77.6364 120.431 78.5725 121.913H78.5881C78.5881 120.447 78.5881 118.981 78.5881 117.531C79.0874 117.547 79.5866 117.547 80.0858 117.562C80.0858 119.574 80.0858 121.585 80.0858 123.581C79.3058 123.566 78.5413 123.55 77.7768 123.55C76.8408 122.069 75.9047 120.587 74.9686 119.09C74.9686 119.09 74.9686 119.09 74.953 119.09C74.953 120.556 74.953 122.038 74.953 123.503C74.4538 123.488 73.9546 123.488 73.4553 123.472C73.4553 121.445 73.4553 119.418 73.4553 117.391Z" fill="#D60000"/>
<path d="M87.1532 117.687C87.9333 117.702 88.6978 117.702 89.4622 117.718C90.3983 119.168 91.3344 120.634 92.2705 122.084H92.2861C92.2861 120.634 92.2861 119.199 92.2861 117.749C92.7853 117.749 93.2845 117.765 93.7838 117.765C93.7838 119.745 93.7838 121.741 93.7838 123.722C93.0037 123.722 92.2392 123.722 91.4748 123.706C90.5387 122.256 89.6026 120.806 88.6665 119.355H88.6509C88.6509 120.806 88.6509 122.256 88.6509 123.69C88.1517 123.69 87.6524 123.69 87.1532 123.675C87.1532 121.663 87.1532 119.667 87.1532 117.687Z" fill="#D60000"/>
<path d="M100.851 117.749C102.63 117.749 104.408 117.734 106.187 117.718C106.187 118.186 106.187 118.638 106.187 119.106C104.907 119.121 103.628 119.121 102.349 119.137C102.349 119.449 102.349 119.776 102.349 120.088C103.566 120.088 104.767 120.073 105.984 120.057C105.984 120.463 105.984 120.884 105.984 121.289C104.767 121.305 103.566 121.305 102.349 121.32C102.349 121.632 102.349 121.959 102.349 122.271C103.659 122.271 104.97 122.256 106.28 122.256C106.28 122.739 106.28 123.207 106.28 123.69C104.471 123.706 102.661 123.706 100.867 123.722C100.851 121.726 100.851 119.73 100.851 117.749Z" fill="#D60000"/>
<path d="M113.145 121.648C113.644 121.648 114.143 121.632 114.643 121.632C114.643 122.271 114.861 122.318 115.282 122.318C115.891 122.303 116.499 122.303 117.108 122.287C117.42 122.287 117.747 122.24 117.747 121.772C117.747 121.242 117.576 121.211 115.657 121.258C113.41 121.289 113.145 120.962 113.145 119.496C113.145 118.404 113.223 117.578 115.111 117.531C115.813 117.515 116.499 117.5 117.201 117.484C118.917 117.437 119.089 118.17 119.089 119.231C119.089 119.293 119.089 119.355 119.089 119.418C118.59 119.433 118.09 119.433 117.591 119.449C117.591 119.012 117.56 118.825 116.874 118.841C116.328 118.856 115.766 118.872 115.22 118.872C114.892 118.872 114.658 119.028 114.658 119.34C114.658 119.87 114.845 119.886 116.437 119.839C118.761 119.792 119.292 119.948 119.292 121.71C119.292 123.347 118.855 123.612 116.858 123.644C116.25 123.659 115.657 123.659 115.048 123.675C113.691 123.69 113.145 123.379 113.145 122.084C113.145 121.928 113.145 121.788 113.145 121.648Z" fill="#D60000"/>
<path d="M126.156 119.418C126.156 117.624 126.952 117.172 128.309 117.125C129.105 117.094 129.901 117.063 130.712 117.032C132.054 116.985 132.865 117.375 132.865 119.199C132.865 119.823 132.865 120.431 132.865 121.055C132.865 122.88 132.069 123.332 130.712 123.363C129.916 123.379 129.12 123.41 128.309 123.425C126.968 123.457 126.156 123.051 126.156 121.258C126.156 120.634 126.156 120.026 126.156 119.418ZM127.701 120.618C127.701 121.507 127.841 121.85 128.559 121.835C129.199 121.819 129.838 121.804 130.462 121.788C131.164 121.772 131.32 121.414 131.32 120.525C131.32 120.307 131.32 120.073 131.32 119.854C131.32 119.09 131.18 118.622 130.384 118.654C129.807 118.669 129.214 118.7 128.637 118.716C127.857 118.747 127.701 119.215 127.701 119.979C127.701 120.182 127.701 120.4 127.701 120.618Z" fill="#D60000"/>
<path d="M139.449 116.72C141.336 116.627 143.24 116.517 145.143 116.408C145.143 116.938 145.143 117.469 145.143 117.999C144.441 118.03 143.739 118.077 143.052 118.108C143.052 119.714 143.052 121.305 143.052 122.911C142.553 122.926 142.054 122.942 141.555 122.958C141.555 121.367 141.555 119.776 141.555 118.186C140.853 118.217 140.151 118.248 139.464 118.279C139.449 117.765 139.449 117.235 139.449 116.72Z" fill="#D60000"/>
<path d="M153.49 115.878C154.129 115.831 154.785 115.784 155.44 115.738C156.329 117.89 157.218 120.073 158.108 122.271C157.562 122.303 157 122.318 156.454 122.349C156.298 121.96 156.142 121.57 155.986 121.195C154.972 121.242 153.973 121.305 152.959 121.336C152.819 121.726 152.663 122.131 152.522 122.521C151.961 122.552 151.415 122.568 150.853 122.599C151.742 120.385 152.616 118.155 153.49 115.878ZM153.521 119.901C154.161 119.87 154.8 119.839 155.424 119.792C155.097 118.981 154.785 118.17 154.457 117.359C154.145 118.201 153.833 119.059 153.521 119.901Z" fill="#D60000"/>
<path d="M102.489 54.7665C102.489 54.7665 98.9633 48.0456 102.708 39.9057C91.6464 25.7467 59.305 36.3348 37.4476 12.7416C38.1809 18.7451 40.0843 24.9046 42.8925 30.8302L57.7292 37.5511L46.1375 36.9273C47.7913 39.7186 49.6322 42.4163 51.6292 44.9892L66.7312 49.7609L56.3096 50.447C66.5128 61.269 79.6646 68.7384 92.9569 68.6136C94.0958 69.9235 98.0117 73.8219 99.4782 74.7107C89.9146 60.3958 102.489 54.7665 102.489 54.7665Z" fill="#D60000"/>
<path d="M98.1053 12.7572C88.6977 12.7572 79.9766 15.5952 72.6909 20.4293C58.4625 18.8387 43.1733 14.4413 33.2197 0.00158777C33.1885 -0.0607868 32.6424 1.71689 32.1588 4.92918C30.5051 15.0339 32.2992 35.5395 52.0972 58.7897C52.1284 84.1605 72.7064 104.713 98.1053 104.713C123.504 104.713 144.113 84.1293 144.113 58.7273C144.098 33.3564 123.504 12.7572 98.1053 12.7572ZM34.7174 6.67567C56.2315 34.448 93.4873 20.6944 107.076 36.5531C114.627 34.6507 121.148 36.1321 121.148 36.1321L124.596 39.3756C121.85 38.9545 112.848 37.8162 108.714 40.202C107.107 41.1221 106.499 45.9249 106.92 48.7941C107.341 51.6634 109.635 57.1367 113.831 57.0276C118.012 56.9028 123.005 52.9109 125.423 48.03C127.092 47.6558 127.841 48.2951 127.841 48.2951C127.841 48.2951 126.468 55.3902 126.734 58.1815C126.609 58.509 126.234 58.8209 125.969 58.8676C125.173 56.9808 126.25 50.9617 126.25 50.9617C126.25 50.9617 126.047 50.8369 125.548 50.9149C123.863 54.2831 122.162 56.092 117.966 59.507C118.215 60.5206 121.85 62.7816 121.85 62.7816C121.85 62.7816 119.963 64.2474 119.198 63.9512C118.434 63.6549 116.515 61.0975 112.178 59.8344C106.795 60.4894 103.02 64.7308 103.02 64.7308L107.762 64.5125C107.762 64.5125 107.591 66.259 109.26 68.3174C110.93 70.3757 114.268 68.7384 114.923 68.5513C114.752 69.5181 115.438 71.7948 115.625 73.2294C114.268 74.4613 107.185 74.7264 106.78 75.9427C106.374 77.159 106.655 81.6188 106.655 81.6188C106.655 81.6188 105.282 83.4432 105.344 85.2365C105.407 87.0298 108.418 87.3728 109.182 87.6691C109.541 87.8095 109.884 89.2597 109.962 90.6631C109.416 91.7858 108.995 92.6747 108.745 93.1581C107.372 92.4096 100.555 90.6475 97.216 90.4916C96.2955 88.8542 92.1144 84.0514 91.5371 73.8531C67.1212 76.0207 32.892 37.6291 34.7174 6.67567ZM98.1053 99.9569C77.2932 99.9569 60.1006 84.5504 57.2924 64.5281C57.386 64.6217 57.4796 64.7152 57.5732 64.8244C59.5546 66.7268 70.6939 76.9407 84.5322 79.7943C84.8286 80.5428 85.7335 83.2405 85.7335 83.2405C85.7335 83.2405 79.7114 82.1022 72.7532 78.3909C78.7909 83.1314 85.6554 87.8874 93.4873 92.6279C93.4717 92.6123 93.4717 92.5967 93.4561 92.5967C93.9398 92.8618 94.049 92.8462 94.049 92.8462C94.049 92.8462 105.297 93.4699 109.416 96.1988C111.944 94.7018 114.221 91.6767 114.221 91.6767C114.221 91.6767 112.646 89.9302 112.958 89.0102C113.27 88.0901 114.393 87.4664 114.845 87.2637C115.298 87.061 115.157 83.7707 115.157 83.7707C115.157 83.7707 117.248 82.4764 117.888 82.2269C117.778 81.4161 116.468 80.2153 117.201 79.2018C118.059 78.001 121.757 78.3753 122.459 78.3441C122.287 72.668 121.086 67.1323 121.086 67.1323C121.086 67.1323 124.191 63.9979 124.347 63.7328C124.503 63.4678 124.44 60.7857 124.44 60.7857C124.44 60.7857 125.798 60.8948 126.718 60.3178C127.638 59.7409 133.567 53.3943 129.214 38.8298C127.28 37.785 125.766 37.0365 125.766 37.0365L125.08 36.5843C125.08 36.5843 116.92 26.0898 102.255 22.6904C97.2472 21.5364 89.7274 21.5988 81.2559 21.1466C86.3887 18.8387 92.0988 17.56 98.0896 17.56C120.852 17.56 139.324 36.0073 139.324 58.7741C139.324 81.5096 120.867 99.9569 98.1053 99.9569Z" fill="#00199F"/>
<path d="M98.1053 8.37537C88.5573 8.37537 79.649 11.0419 72.0356 15.6576C67.9169 16.1722 63.3145 15.9539 58.7745 15.5796C61.1615 16.3125 65.9823 17.0298 69.243 17.4665C69.2898 17.4665 69.3366 17.4821 69.3678 17.4821C71.24 17.7316 72.5817 17.8875 72.5817 17.8875C79.9766 13.2562 88.7289 10.5741 98.1053 10.5741C124.721 10.5741 146.282 32.1401 146.282 58.7429C146.282 85.3456 124.705 106.912 98.1053 106.912C71.8016 106.912 50.4279 85.8446 49.9442 59.6629C49.523 59.1795 49.133 58.6805 48.7273 58.1971C46.8708 55.9048 43.3137 51.3359 41.2543 47.2659C42.9861 53.4254 44.5618 55.9672 47.7757 60.8168C48.8678 87.6691 70.9747 109.11 98.1053 109.11C125.938 109.11 148.497 86.5619 148.497 58.7429C148.482 30.9238 125.922 8.37537 98.1053 8.37537Z" fill="#00199F"/>
</svg>
