<svg width="185" height="122" viewBox="0 0 185 122" fill="none" xmlns="http://www.w3.org/2000/svg">
<path fill-rule="evenodd" clip-rule="evenodd" d="M4.64345 88.0977V79.6973H10.1878C16.3629 79.6973 19.4121 76.2661 19.4121 70.1493C19.4121 64.0738 16.3629 61.0766 10.1878 61.0766H0.248474V88.0977H4.64345ZM14.8995 70.1493C14.8995 73.8968 13.4334 75.9073 10.1477 75.9073H4.64345V64.8627H10.1477C13.4334 64.8627 14.8995 66.4424 14.8995 70.1493Z" fill="#302008"/>
<path fill-rule="evenodd" clip-rule="evenodd" d="M38.9739 61.0766H30.2234L23.5304 88.0977H27.9286L29.3921 82.2971H39.8052L41.27 88.0977H45.7063L38.9739 61.0766ZM38.9358 78.4331H30.2641L33.628 64.7448H35.6087L38.9358 78.4331Z" fill="#302008"/>
<path fill-rule="evenodd" clip-rule="evenodd" d="M57.1485 88.0977V78.4717H63.5254L67.4433 88.0977H72.2746L67.8021 77.4864C70.6922 76.145 72.2345 73.5013 72.2345 69.6766C72.2345 63.6822 69.0277 61.0766 63.049 61.0766H52.7529V88.0977H57.1485ZM57.1485 64.8627H63.049C66.2151 64.8627 67.7213 66.6395 67.7213 69.7165C67.7213 72.5154 66.4543 74.6843 63.1285 74.6843H57.1485V64.8627Z" fill="#302008"/>
<path fill-rule="evenodd" clip-rule="evenodd" d="M93.2237 61.0766H84.4725L77.7782 88.0977H82.1745L83.6412 82.2971H94.0536L95.5184 88.0977H99.9528L93.2237 61.0766ZM93.1829 78.4331H84.5113L87.8752 64.7448H89.8571L93.1829 78.4331Z" fill="#302008"/>
<path d="M125.336 73.8968H117.614V77.764H120.979V84.3515C120.504 84.4687 118.445 84.7051 116.663 84.7051C111.119 84.7051 109.972 81.9455 109.972 74.6051C109.972 66.993 111.358 64.5471 116.784 64.5471C120.386 64.5471 125.176 65.1782 125.176 65.1782L125.336 61.7077C125.336 61.7077 120.267 60.6425 116.109 60.6425C108.033 60.6425 105.418 65.1396 105.418 74.6051C105.418 83.5607 107.637 88.5304 116.268 88.5304C119.554 88.5304 124.979 87.7035 125.336 87.6243V73.8968Z" fill="#302008"/>
<path fill-rule="evenodd" clip-rule="evenodd" d="M143.866 60.6425C135.394 60.6425 132.819 65.6922 132.819 74.7269C132.819 83.8369 135.354 88.5304 143.866 88.5304C152.34 88.5304 154.874 83.9175 154.874 74.7269C154.874 65.6503 152.34 60.6425 143.866 60.6425ZM143.866 64.4698C149.092 64.4698 150.322 68.0183 150.322 74.7269C150.322 81.5887 149.133 84.7051 143.866 84.7051C138.599 84.7051 137.371 81.4709 137.371 74.7269C137.371 68.0183 138.638 64.4698 143.866 64.4698Z" fill="#302008"/>
<path fill-rule="evenodd" clip-rule="evenodd" d="M93.1442 116.071C94.5902 115.649 95.6243 114.365 96.3134 113.086C97.1688 114.174 98.5844 114.504 100.05 114.105C102.282 113.502 103.557 112.104 104.264 110.726C104.442 110.419 104.594 110.047 104.725 109.618C104.851 109.235 104.936 108.873 104.992 108.552C105.079 108.128 105.154 107.669 105.222 107.178C105.4 105.978 105.472 104.777 105.489 104.117L105.771 104.053C106.425 103.901 107.078 103.757 107.73 103.616C106.905 106 106.442 107.93 106.442 109.572C106.442 111.832 107.885 112.173 109.096 111.934C110.183 111.721 110.979 111.023 111.562 110.157C112.022 110.933 112.782 111.305 113.786 111.162C114.894 111.009 115.692 110.176 116.312 109.085V112.347C114.61 114.005 113.115 115.546 113.115 118.14C113.115 119.784 114.146 120.932 115.59 120.767C116.905 120.616 118.271 119.571 118.271 116.876V112.434C119.663 111.128 121.156 109.576 122.033 106.601C122.058 106.497 122.058 106.371 122.058 106.344C122.058 105.857 121.569 105.292 121.156 105.3C120.897 105.305 120.693 105.541 120.537 106.083C120.021 107.869 119.197 109.187 118.271 110.278V101.266C118.271 100.652 117.729 100.172 116.878 100.249C116.518 100.283 116.208 100.494 116.208 100.753C116.208 100.82 116.223 100.882 116.241 100.96C116.272 101.088 116.312 101.259 116.312 101.563V105.697C116.003 107.526 115.227 109.274 114.198 109.411C113.452 109.512 113.014 108.836 113.014 107.448C113.014 105.32 113.291 104.147 113.745 102.226L113.761 102.155C113.78 102.08 113.822 101.979 113.869 101.866C114.073 101.378 114.373 100.657 113.347 100.801C112.235 100.968 112.148 101.327 112.057 101.705C112.037 101.79 112.016 101.877 111.982 101.963C111.982 101.963 111.055 105.174 111.055 107.898C111.055 107.946 111.056 107.994 111.057 108.041C110.779 109.018 110.31 110.004 109.43 110.174C108.735 110.31 108.401 109.714 108.401 108.995C108.401 107.086 109.041 104.795 109.37 103.617C109.484 103.21 109.56 102.937 109.56 102.858C109.663 102.246 108.632 101.603 108.324 101.667C107.877 101.76 107.43 101.855 106.982 101.956C106.725 102.012 106.466 102.067 105.617 102.161C105.334 101.175 104.613 101.039 103.994 101.191C103.322 101.356 102.704 101.978 102.704 102.697C102.704 103.44 103.168 103.861 103.813 104.06C103.796 104.903 103.748 106.09 103.641 107.123C103.468 108.432 103.364 109.144 102.754 110.375C102.255 111.27 101.49 112.021 100.333 112.332C98.994 112.697 98.2981 112.177 97.9367 111.405C100.436 109.955 101.751 107.36 101.751 105.459C101.751 103.921 100.874 103.095 99.4311 103.49C97.4478 104.037 95.4889 107.045 95.4889 110.305C95.4889 110.706 95.5234 111.076 95.5885 111.416C95.2391 112.569 94.4472 113.996 93.4267 114.293C92.4239 114.587 91.8555 113.725 91.5986 112.698C92.6296 111.652 94.0721 109.766 94.0721 107.791C94.0721 106.352 93.3761 105.219 91.7786 105.689C90.6188 106.026 89.5871 107.329 88.7637 108.695V100.687C88.7637 100.07 88.2228 99.7126 87.3725 99.9555C87.013 100.057 86.5471 100.292 86.5471 100.471C86.5471 100.53 86.575 100.568 86.6125 100.618C86.6888 100.72 86.8047 100.874 86.8047 101.374V113.094C86.7622 113.203 86.7271 113.328 86.7015 113.47C86.4702 114.664 86.0063 116.439 84.9746 116.723C84.3575 116.896 84.0993 116.348 84.0993 115.784V111.548C84.0993 110.932 83.5578 110.565 82.7074 110.788C82.3473 110.884 82.0385 111.143 82.0385 111.401C82.0385 111.468 82.0531 111.529 82.0714 111.604C82.1016 111.728 82.1416 111.892 82.1416 112.196V116.15C81.8571 116.942 81.3938 117.679 80.6972 117.852C79.7956 118.076 79.2285 117.438 79.2285 116.104C79.2285 112.41 81.5219 110.191 83.4809 109.66C83.6125 109.625 83.7443 109.603 83.8726 109.581C83.9953 109.561 84.1149 109.54 84.2281 109.51C84.4856 109.44 84.5639 109.265 84.5639 108.828C84.5639 108.159 84.0736 107.885 83.3777 108.07C80.2333 108.921 77.2446 112.198 77.2446 116.481C77.2446 118.662 78.3006 120.136 80.3115 119.643C81.29 119.4 82.0115 118.751 82.5274 118.025C82.9138 118.54 83.6103 118.794 84.5113 118.547C85.4897 118.278 86.2374 117.617 86.805 116.807C86.8203 117.728 87.5325 117.701 88.0421 117.557C88.7655 117.348 88.7645 116.771 88.7637 116.291C88.7637 116.275 88.7637 116.259 88.7637 116.244V111.828C89.5634 108.876 90.7219 107.717 91.3416 107.536C91.8305 107.393 92.1657 107.73 92.1657 108.372C92.1657 109.867 91.2062 111.024 90.5013 111.875C90.092 112.369 89.7684 112.759 89.7684 113.052C89.7684 114.747 91.1083 116.666 93.1442 116.071ZM99.7406 106.024C99.7406 107.565 98.9165 109.125 97.6272 110.08C97.6272 110.003 97.621 109.927 97.6147 109.852C97.6085 109.777 97.6022 109.702 97.6022 109.625C97.5503 108.561 97.9367 105.625 99.1997 105.274C99.5342 105.183 99.7406 105.459 99.7406 106.024ZM116.312 114.298V117.044C116.312 117.087 116.313 117.137 116.314 117.193C116.323 117.787 116.342 119.067 115.59 119.15C115.178 119.197 114.919 118.614 114.919 117.817C114.919 116.278 115.487 115.23 116.312 114.298Z" fill="#302008"/>
<path d="M170.832 61.0766H163.149V88.0977H167.545V64.9013H168.1L176.534 88.0977H184.057V61.0766H179.662V84.233H179.068L170.832 61.0766Z" fill="#302008"/>
<path d="M84.1571 48.7802C84.1571 49.5985 84.8234 50.263 85.6462 50.263C86.4676 50.263 87.1339 49.5985 87.1339 48.7802V18.282C87.1339 14.0331 83.6642 10.5763 79.4007 10.5763C77.4845 10.5763 75.6451 11.2807 74.2217 12.5593C73.6106 13.1086 73.562 14.0461 74.1127 14.6544C74.6627 15.2613 75.6031 15.3104 76.2149 14.7624C77.0908 13.9754 78.2224 13.5427 79.4007 13.5427C82.0233 13.5427 84.1571 15.6685 84.1571 18.282V48.7802Z" fill="#302008"/>
<path d="M90.7272 48.7802C90.7272 49.5985 91.3935 50.263 92.2163 50.263C93.0377 50.263 93.704 49.5985 93.704 48.7802V9.91832C93.704 6.10277 96.8202 2.99822 100.651 2.99822C104.479 2.99822 107.593 6.09819 107.598 9.90981C107.593 13.7221 104.479 16.822 100.651 16.822C99.8286 16.822 99.1623 17.4859 99.1623 18.3049C99.1623 19.1239 99.8286 19.7884 100.651 19.7884C106.114 19.7884 110.56 15.368 110.575 9.92945V9.89147C110.56 4.45229 106.114 0.0324707 100.651 0.0324707C95.1793 0.0324707 90.7272 4.46735 90.7272 9.91832V48.7802Z" fill="#302008"/>
<path d="M97.296 37.4691C97.296 39.9235 99.2996 41.919 101.761 41.919C104.219 41.919 106.221 39.93 106.228 37.4828V37.4599C106.223 36.0713 105.557 34.7468 104.438 33.9141C103.783 33.425 102.848 33.5573 102.355 34.2133C101.862 34.8686 101.996 35.7983 102.655 36.2893C103.034 36.5708 103.25 37.0016 103.252 37.471C103.25 38.2887 102.581 38.9539 101.761 38.9539C100.94 38.9539 100.272 38.2881 100.272 37.4691V25.7272C100.272 24.9081 99.6072 24.2443 98.7844 24.2443C97.9623 24.2443 97.296 24.9081 97.296 25.7272V37.4691Z" fill="#302008"/>
<path d="M53.0624 109.35H0.248474V110.267H53.0624V109.35Z" fill="#302008"/>
<path d="M184.057 109.35H131.243V110.267H184.057V109.35Z" fill="#302008"/>
<path d="M66.8927 107.206C66.9227 107.335 66.9623 107.506 66.9623 107.808V117.128C66.9623 120.269 67.9671 122.385 71.3428 121.897C73.8938 121.512 75.8521 119.214 75.8521 116.648C75.8521 114.44 74.6417 113.412 73.1473 113.235C75.0274 111.906 76.4718 109.868 76.4718 107.073C76.4718 103.412 73.9214 101.838 70.0285 102.366C65.4416 102.978 62.2703 106.024 62.2703 110.836C62.2703 113.846 63.741 115.37 64.153 115.734C64.9002 116.273 65.5967 114.533 65.5967 114.071C65.5967 113.813 65.4916 113.641 65.209 113.734C65.2048 113.728 65.1946 113.718 65.1794 113.702C65.011 113.528 64.2299 112.721 64.2299 110.647C64.2299 107.49 65.9056 104.815 70.0541 104.29C73.2249 103.85 74.4872 105.558 74.4872 107.522C74.4872 111.258 71.5235 112.581 70.3137 112.727C69.5389 112.829 69.9772 114.698 70.4405 114.636C72.065 114.415 73.8439 114.781 73.8439 117.091C73.8439 118.579 72.7602 119.912 71.3158 120.13C69.7972 120.357 68.9725 119.466 68.9725 117.004V107.479C68.9725 106.862 68.3797 106.421 67.5281 106.501C67.1686 106.536 66.8598 106.741 66.8598 106.995C66.8598 107.064 66.8745 107.127 66.8927 107.206Z" fill="#302008"/>
</svg>
