<svg width="240" height="183" viewBox="0 0 240 183" fill="none" xmlns="http://www.w3.org/2000/svg">
<path d="M81.5614 167.281C76.9825 166.561 73.7544 165.491 73.7544 164.649C73.7544 163.825 76.5614 162.368 81.5614 161.368V167.281Z" fill="#D9CEB8"/>
<path d="M90.7369 177.754C90.1579 179.456 89.386 180.035 88.8597 180C88.4386 179.982 88.0702 179.561 87.9474 178.982C87.8246 178.351 87.6842 177.509 87.5088 176.526C88.1579 175.509 89.8597 173.386 93.0702 172.368C92.1228 173.877 91.386 175.86 90.7369 177.754Z" fill="#A39168"/>
<path d="M97.2632 160.772C97.8948 160.86 98.5264 160.965 99.1579 161.07C99.7193 161.228 100.246 161.368 100.632 161.474C102.298 161.912 102.719 162.316 102.737 163.298V166.421C99.9825 167.368 95.2632 168.053 91.6492 168.053C88.3158 168.053 85.0527 167.789 82.2457 167.386V161.228C83.9825 160.912 85.965 160.649 88.1755 160.474C89.193 160.421 90.2106 160.386 91.2281 160.368C92.2281 160.368 93.2457 160.403 94.2457 160.474C95.2632 160.544 96.2632 160.632 97.2632 160.772Z" fill="#EAE3D6"/>
<path d="M0.842041 8.29823L1.57888 8.19297C4.33327 7.84209 7.1052 7.50876 9.85958 7.17543C10.3684 7.1228 10.8596 7.08771 11.3333 7.08771C12.0701 7.08771 12.7719 7.15788 13.421 7.29823C14.5087 7.54385 15.4736 7.9649 16.2806 8.54385C17.0877 9.1228 17.7543 9.87718 18.2631 10.7719C18.7543 11.6491 19.0701 12.6667 19.1929 13.7719C19.3333 15.0877 19.228 16.2281 18.8596 17.2456C18.4912 18.2631 17.9298 19.1579 17.1929 19.8947C16.4561 20.614 15.5613 21.2105 14.5438 21.6491C13.5438 22.0877 12.421 22.3684 11.228 22.5088L8.64906 22.8245L9.36836 28.7544L3.50871 29.4912L0.842041 8.29823ZM7.98239 17.5088L10.7368 17.1754C11.6666 17.0702 12.3157 16.7719 12.7368 16.2807C13.1403 15.7895 13.3157 15.2456 13.228 14.614C13.1403 13.807 12.8596 13.2982 12.3508 12.9824C11.9473 12.7368 11.4034 12.5965 10.7719 12.5965C10.5613 12.5965 10.3508 12.614 10.1227 12.6316L7.43853 12.9649L7.98239 17.5088Z" fill="#F58025"/>
<path d="M11.3333 7.84209C12.0175 7.84209 12.6491 7.91226 13.2632 8.03507C14.2632 8.26314 15.1228 8.63156 15.8421 9.15788C16.5789 9.68419 17.1579 10.3509 17.614 11.1403C18.0526 11.9298 18.3333 12.8421 18.4561 13.8596C18.4561 13.8772 18.4561 13.8947 18.4561 13.9123C18.5789 15.0526 18.4737 16.0877 18.1579 17C17.8246 17.9123 17.3333 18.7017 16.6667 19.3684C16 20.0351 15.193 20.5614 14.2456 20.9649C13.2982 21.3684 12.2632 21.6316 11.1403 21.7719C10.0351 21.9123 8.91228 22.0351 7.80702 22.1754C8.05263 24.1403 8.2807 26.1228 8.52631 28.1052C7.07017 28.2807 5.61403 28.4561 4.17544 28.6491C3.33333 22.0877 2.50877 15.5088 1.66667 8.94735C4.4386 8.59647 7.19298 8.26314 9.94737 7.92981C10.4211 7.87718 10.8772 7.84209 11.3333 7.84209ZM7.33333 18.3333C8.49123 18.193 9.66667 18.0526 10.8246 17.9123C11.9298 17.7719 12.7544 17.4035 13.2982 16.7544C13.8421 16.1052 14.0702 15.3684 13.9649 14.5263C13.9649 14.5088 13.9649 14.4912 13.9649 14.4737C13.8596 13.4912 13.4561 12.7895 12.7544 12.3509C12.2105 12.0175 11.5614 11.8596 10.7719 11.8596C10.5439 11.8596 10.2807 11.8772 10.0351 11.9123C8.89474 12.0526 7.75438 12.1754 6.61403 12.3158C6.8421 14.3158 7.08772 16.3333 7.33333 18.3333ZM11.3333 6.35086C10.8246 6.35086 10.2982 6.38595 9.77193 6.43858C7 6.77191 4.24561 7.10525 1.49123 7.45612L0 7.64911L0.192982 9.12279L2.36842 26.2807L2.68421 28.8421L2.87719 30.3158L4.35088 30.1403L5.10526 30.0526C6.29824 29.9123 7.50877 29.7544 8.70175 29.614L10.193 29.4386L10.0175 27.9474L9.70175 25.2982L9.47368 23.5088L11.3158 23.2807C12.5789 23.1403 13.7544 22.8245 14.8246 22.3684C15.9474 21.8947 16.9123 21.2456 17.7193 20.4561C18.5439 19.6316 19.1579 18.6491 19.5614 17.5263C19.9649 16.4035 20.0877 15.1403 19.9474 13.7719V13.7017V13.6842C19.807 12.4737 19.4737 11.3859 18.9298 10.421C18.3684 9.43858 17.6316 8.59648 16.7368 7.94735C15.8596 7.29823 14.7895 6.84209 13.5965 6.57893C12.8772 6.43858 12.1228 6.35086 11.3333 6.35086ZM8.26316 13.614C8.91228 13.5438 9.5614 13.4561 10.193 13.3859C10.386 13.3684 10.5789 13.3509 10.7544 13.3509C11.2456 13.3509 11.6491 13.4386 11.9474 13.6316C12.1403 13.7544 12.386 13.9824 12.4737 14.6491C12.5439 15.1228 12.4386 15.4737 12.1579 15.7895C11.8772 16.1403 11.3684 16.3509 10.6491 16.4386C9.98245 16.5088 9.31579 16.5965 8.63158 16.6842L8.26316 13.614Z" fill="#E9E3DC"/>
<path d="M20.9122 5.98246L21.6491 5.8772C24.7368 5.56141 27.8245 5.24562 30.9298 4.94737C31.3859 4.91228 31.807 4.8772 32.228 4.8772C34.3859 4.8772 36.1929 5.4386 37.5614 6.57895C38.9649 7.73685 39.7719 9.38597 39.9649 11.4737C40.1228 13.2982 39.7894 14.807 38.9999 16.0175C38.3859 16.9474 37.5964 17.7193 36.6315 18.3333C38.2807 20.3158 39.9298 22.2982 41.5438 24.2807L42.4385 25.386L35.5263 26L35.2807 25.6842C33.7543 23.807 32.2105 21.9298 30.6666 20.0526L28.3508 20.2807L28.9824 26.614L23.1403 27.2105L20.9122 5.98246ZM27.807 14.9825C29.0526 14.8597 30.2982 14.7368 31.5438 14.614C32.4561 14.5263 33.1052 14.2632 33.5087 13.8421C33.8947 13.4211 34.0526 12.9474 33.9999 12.2983C33.9298 11.5263 33.6842 11.0526 33.228 10.7544C32.8245 10.4912 32.2807 10.3684 31.614 10.3684C31.4385 10.3684 31.2456 10.3684 31.0526 10.4035C29.8245 10.5263 28.614 10.6316 27.3859 10.7544L27.807 14.9825Z" fill="#F58025"/>
<path d="M32.2281 5.64909C34.2281 5.64909 35.8421 6.15786 37.0877 7.17541C38.3509 8.2105 39.0526 9.66664 39.2105 11.5614C39.2105 11.5789 39.2105 11.5965 39.2105 11.614C39.3509 13.2105 39.0702 14.5614 38.3509 15.6315C37.6491 16.7017 36.6842 17.5438 35.4386 18.1228C37.2807 20.3333 39.1228 22.5438 40.9298 24.7719C39.2281 24.9123 37.5263 25.0701 35.8245 25.228C34.2105 23.2456 32.5965 21.2631 30.9649 19.2982C30.9474 19.2982 30.9298 19.2982 30.9123 19.2982C29.7719 19.4035 28.6491 19.5087 27.5088 19.6315C27.7193 21.7368 27.9298 23.8421 28.1403 25.9649C26.6842 26.1052 25.2281 26.2631 23.7719 26.4035C23.0877 19.8245 22.386 13.228 21.7017 6.63155C24.7895 6.31576 27.8772 5.99997 30.9649 5.70172C31.421 5.66664 31.8245 5.64909 32.2281 5.64909ZM27.1403 15.807C28.6316 15.6666 30.1228 15.5087 31.614 15.3684C32.7017 15.2631 33.5088 14.9298 34.0526 14.3684C34.5965 13.807 34.8245 13.0877 34.7368 12.2456C34.7368 12.228 34.7368 12.2105 34.7368 12.193C34.6491 11.2456 34.2807 10.5614 33.614 10.1403C33.0877 9.80699 32.421 9.63155 31.614 9.63155C31.421 9.63155 31.2105 9.64909 30.9824 9.66664C29.5088 9.80699 28.0351 9.94734 26.5614 10.1052C26.7719 12 26.9474 13.8947 27.1403 15.807ZM32.2281 4.14032C31.7895 4.14032 31.3333 4.15786 30.8596 4.2105C27.7544 4.50874 24.6667 4.80699 21.5789 5.14032L20.0877 5.29821L20.2456 6.78944L20.4912 9.14032L22.3158 26.5614L22.4737 28.0526L23.9649 27.8947C25.421 27.7368 26.8772 27.5965 28.3158 27.4561L29.807 27.3158L29.6667 25.8245L29.2982 22.1579L29.1754 20.9824C29.5614 20.9473 29.9474 20.9123 30.3509 20.8772C31.807 22.6491 33.2631 24.421 34.7017 26.193L35.2105 26.807L36 26.7368C37.7017 26.5789 39.4035 26.4386 41.1052 26.2807L43.9298 26.0351L42.1052 23.807C40.6491 22.0351 39.1754 20.2631 37.7017 18.4912C38.4561 17.9123 39.0877 17.228 39.5965 16.4386C40.4912 15.0877 40.8596 13.4035 40.6842 11.4737V11.4035V11.3859C40.4737 9.08769 39.5789 7.28067 38.0175 5.99997C36.5088 4.7719 34.5614 4.14032 32.2281 4.14032ZM28.2105 11.4386C29.1754 11.3508 30.1579 11.2456 31.1228 11.1579C31.2982 11.1403 31.4561 11.1403 31.614 11.1403C32.1403 11.1403 32.5438 11.228 32.8245 11.4035C32.9298 11.4737 33.193 11.6315 33.2456 12.3158C33.2982 12.9122 33.1403 13.1579 32.9649 13.3333C32.6842 13.6315 32.193 13.807 31.4737 13.8772C30.4737 13.9649 29.4912 14.0701 28.4912 14.1579L28.2807 12.1052L28.2105 11.4386Z" fill="#E9E3DC"/>
<path d="M42.5965 3.92982L43.3333 3.85964C48.4386 3.43859 53.5965 3.07017 58.6316 2.73684L59.386 2.6842L59.7368 8.05263L58.9825 8.10526C55.614 8.31578 52.2632 8.5614 48.8947 8.80701L49.0877 11.3333C52 11.1228 54.9298 10.9123 57.8421 10.7017L58.5965 10.6491L58.9474 16.0175L58.193 16.0702C55.2982 16.2632 52.386 16.4737 49.4912 16.6842L49.7018 19.3509C53.0702 19.0877 56.4386 18.8596 59.807 18.6316L60.5614 18.5789L60.8947 23.8246L60.1579 24C55.1053 24.3333 50.0351 24.7018 45.0526 25.1053L44.3158 25.1754L42.5965 3.92982Z" fill="#F58025"/>
<path d="M58.6842 3.49121C58.7719 4.78945 58.8597 6.07015 58.9298 7.3684C55.3158 7.59647 51.7018 7.85963 48.0877 8.14033C48.193 9.47366 48.2983 10.8245 48.4035 12.1579C51.5614 11.9123 54.7369 11.6842 57.8948 11.4737C57.9825 12.7719 58.0702 14.0702 58.1579 15.3509C55 15.5614 51.8597 15.7895 48.7018 16.0175C48.807 17.4035 48.9123 18.7895 49.0176 20.1754C52.6316 19.8947 56.2456 19.6491 59.8597 19.4035C59.9474 20.7017 60.0176 21.9824 60.1053 23.2807C55.0702 23.614 50.0351 23.9824 45 24.3859C44.4562 17.7895 43.9298 11.1754 43.386 4.57892C48.4912 4.19296 53.5965 3.82454 58.6842 3.49121ZM60.0877 1.89471L58.5965 1.99998C53.5439 2.33331 48.386 2.70173 43.2807 3.12278L41.7895 3.24559L41.9123 4.73682L42.7719 15.4035L43.5088 24.5438L43.6316 26.0351L45.1228 25.9123C50.0877 25.5088 55.1755 25.1403 60.2105 24.807L61.7018 24.7017L61.5965 23.2105V23.0877C61.5088 21.8421 61.4386 20.5789 61.3509 19.3333L61.2632 17.8421L59.7719 17.9473C56.4737 18.1579 53.386 18.3859 50.4035 18.5965L50.3158 17.421C52.9649 17.228 55.614 17.0351 58.2632 16.8596L59.7544 16.7544L59.6667 15.2631L59.5439 13.3158L59.4211 11.3684L59.2983 9.89471L57.807 9.99998C55.1404 10.1754 52.4562 10.3684 49.7895 10.5614L49.7018 9.52629C52.807 9.29822 55.9298 9.07015 59.0351 8.87717L60.5263 8.77191L60.4211 7.28068L60.2281 4.35085L60.1755 3.38594L60.0877 1.89471Z" fill="#E9E3DC"/>
<path d="M71.1755 23.6842C69.8422 23.6842 68.4913 23.4912 67.158 23.1052C65.5966 22.6491 64.1229 21.8947 62.772 20.8421L62.1931 20.3859L65.4738 15.9649L66.0702 16.3859C66.965 17.035 67.8948 17.5263 68.8246 17.8947C69.579 18.1929 70.4036 18.3333 71.2808 18.3333C71.4211 18.3333 71.5615 18.3333 71.7018 18.3157C72.4562 18.2807 73.0352 18.1228 73.4036 17.8596C73.6843 17.6491 73.8071 17.421 73.7895 17.0877C73.772 16.8596 73.7369 16.7192 73.6843 16.614C73.6667 16.5789 73.579 16.4561 73.3334 16.3157C73.0702 16.1754 72.7018 16.0175 72.2281 15.8771C71.7018 15.7192 71.0352 15.5614 70.2106 15.4035C69.1053 15.1754 68.158 14.9473 67.3334 14.7017C66.4387 14.4385 65.6316 14.0701 64.965 13.614C64.2632 13.1403 63.7018 12.5263 63.2983 11.7719C62.8948 11.035 62.6492 10.1052 62.579 9.01749C62.5088 7.94732 62.6492 6.99995 63.0001 6.15785C63.3509 5.31574 63.8597 4.56135 64.5264 3.92978C65.1931 3.2982 66.0001 2.78942 66.9474 2.421C67.8773 2.05258 68.9124 1.84206 70.0176 1.78942C70.2983 1.77188 70.5615 1.77188 70.8246 1.77188C72.0878 1.77188 73.2983 1.92978 74.4036 2.26311C75.7545 2.64907 77.0176 3.26311 78.158 4.07013L78.7369 4.49118L75.7895 9.08767L75.158 8.71925C74.2632 8.17539 73.4036 7.77188 72.579 7.49118C71.8773 7.24556 71.1931 7.12276 70.5264 7.12276H70.2281C69.5439 7.15785 69.0352 7.31574 68.7545 7.54381C68.4562 7.80697 68.4211 8.01749 68.4387 8.21048C68.4562 8.47363 68.4913 8.63153 68.5615 8.75434C68.6141 8.82451 68.7194 8.94732 68.9825 9.07013C69.2632 9.21048 69.6667 9.35083 70.193 9.47364C70.7545 9.61399 71.4738 9.77188 72.351 9.94732C73.4211 10.1754 74.386 10.4385 75.2281 10.7368C76.1229 11.0526 76.8773 11.4736 77.5088 11.9473C78.158 12.4561 78.6843 13.0701 79.0352 13.7719C79.386 14.4736 79.5966 15.3333 79.6316 16.2982C79.6843 17.4385 79.5264 18.4385 79.158 19.3157C78.7895 20.1929 78.2457 20.9649 77.5615 21.5789C76.8773 22.1929 76.0527 22.6666 75.0702 23.035C74.1229 23.3859 73.0702 23.5789 71.9124 23.6315C71.6667 23.6666 71.4211 23.6842 71.1755 23.6842Z" fill="#F58025"/>
<path d="M70.8421 2.50875C72.0351 2.50875 73.1579 2.66664 74.2105 2.96489C75.4737 3.33331 76.6491 3.91225 77.7368 4.66664C77.0175 5.78945 76.2982 6.9298 75.5789 8.05261C74.6491 7.4912 73.7368 7.05261 72.8421 6.75436C72.0702 6.4912 71.3158 6.35085 70.5439 6.35085C70.4386 6.35085 70.3158 6.35085 70.2105 6.36839C69.3509 6.42103 68.7017 6.61401 68.2807 6.96489C67.8596 7.31576 67.6667 7.73682 67.7018 8.24559C67.7018 8.26313 67.7018 8.28068 67.7018 8.29822C67.7193 8.61401 67.807 8.89471 67.9298 9.12278C68.0702 9.35085 68.2982 9.56138 68.6491 9.71927C68.9825 9.89471 69.4386 10.0526 70.0175 10.193C70.5965 10.3333 71.3158 10.4912 72.2105 10.6666C73.2456 10.8772 74.1579 11.1403 74.9825 11.421C75.7895 11.7193 76.4912 12.0877 77.0526 12.5263C77.614 12.9649 78.0526 13.4912 78.3684 14.1052C78.6667 14.7193 78.8421 15.4561 78.8772 16.3333C78.8772 16.3509 78.8772 16.3684 78.8772 16.3859C78.9123 17.3684 78.7719 18.2631 78.4561 19.0351C78.1228 19.8245 77.6667 20.4912 77.0351 21.0351C76.421 21.5789 75.6667 22.0175 74.7895 22.3333C73.9123 22.6491 72.9298 22.8421 71.8596 22.8947C71.6316 22.9123 71.4035 22.9123 71.1579 22.9123C69.8772 22.9123 68.614 22.7368 67.3509 22.3684C65.8596 21.9473 64.4912 21.228 63.2281 20.228C64.0351 19.1403 64.8421 18.0702 65.6491 16.9824C66.614 17.6666 67.5789 18.193 68.5614 18.5789C69.4211 18.9123 70.3333 19.0701 71.2982 19.0701C71.4561 19.0701 71.5965 19.0701 71.7544 19.0526C72.6667 19 73.3684 18.807 73.8596 18.4561C74.3509 18.1052 74.5789 17.6316 74.5439 17.0351C74.5439 17.0175 74.5439 17 74.5439 16.9824C74.5263 16.7017 74.4737 16.4561 74.3509 16.2456C74.2281 16.0351 74.0175 15.8421 73.7193 15.6666C73.421 15.4912 73 15.3158 72.4561 15.1579C71.9298 15 71.2281 14.8421 70.3684 14.6842C69.3333 14.4737 68.4035 14.2456 67.5614 14C66.7193 13.7544 66 13.421 65.4035 13.0175C64.807 12.5965 64.3158 12.0701 63.9649 11.4386C63.614 10.7894 63.4035 9.98243 63.3333 8.99997C63.3333 8.98243 63.3333 8.96489 63.3333 8.94734C63.2807 8.03506 63.4035 7.2105 63.7018 6.45611C64 5.70173 64.4561 5.05261 65.0526 4.4912C65.6491 3.9298 66.3684 3.47366 67.2281 3.14032C68.0877 2.80699 69.0351 2.61401 70.0702 2.56138C70.3158 2.52629 70.5789 2.50875 70.8421 2.50875ZM70.8421 1.01752C70.5614 1.01752 70.2807 1.01752 69.9825 1.03506C68.7719 1.10524 67.6667 1.33331 66.6667 1.71927C65.6316 2.12278 64.7368 2.68418 64.0175 3.38594C63.2807 4.10524 62.7018 4.9298 62.3158 5.87717C61.9298 6.82453 61.7719 7.89471 61.8421 9.01752V9.12278V9.14032C61.9123 10.3158 62.193 11.3333 62.6491 12.1579C63.1228 13 63.7544 13.7017 64.5439 14.2456C65.2807 14.7544 66.1579 15.1403 67.1403 15.4386C67.9825 15.6842 68.9474 15.9298 70.0702 16.1579C70.8947 16.3158 71.5439 16.4737 72.0175 16.614C72.5614 16.7719 72.8246 16.9123 72.9649 16.9824C73 17 73.0175 17.0175 73.0351 17.0351C73.0351 17.0526 73.0351 17.0701 73.0351 17.0877V17.1228V17.2105C73.0175 17.2105 73 17.228 72.9474 17.2631C72.807 17.3684 72.4561 17.5438 71.6491 17.5789C71.5263 17.5789 71.386 17.5965 71.2632 17.5965C70.4737 17.5965 69.7368 17.4561 69.0702 17.2105C68.2105 16.8772 67.3333 16.3859 66.4737 15.7894L65.2807 14.9473L64.4035 16.1228C63.5965 17.2105 62.7895 18.2807 61.9825 19.3684L61.1228 20.5438L62.2632 21.4386C63.6842 22.5614 65.2456 23.3684 66.8947 23.8421C68.2807 24.2456 69.7018 24.4561 71.1228 24.4561C71.386 24.4561 71.6316 24.4561 71.8947 24.4386C73.1228 24.3684 74.2456 24.1579 75.2632 23.7894C76.3158 23.4035 77.2281 22.8772 77.9825 22.193C78.7719 21.4912 79.3684 20.6316 79.7719 19.6491C80.1754 18.6666 80.3684 17.5614 80.3158 16.3684V16.2982V16.228C80.2807 15.228 80.0526 14.2631 79.6491 13.4737C79.2982 12.6316 78.7193 11.9298 77.9649 11.3509C77.2807 10.8245 76.4561 10.3684 75.4912 10.0351C74.614 9.71927 73.614 9.43857 72.5263 9.2105C71.6667 9.03506 70.9474 8.87717 70.386 8.73682C69.807 8.59647 69.4912 8.47366 69.3333 8.38594C69.2632 8.35085 69.2281 8.33331 69.2105 8.31576C69.2105 8.29822 69.2105 8.26313 69.2105 8.2105C69.193 8.17541 69.2105 8.15787 69.2632 8.10524C69.2982 8.07015 69.5439 7.89471 70.2982 7.85962C70.386 7.85962 70.4737 7.85962 70.5614 7.85962C71.1579 7.85962 71.7368 7.96489 72.3684 8.17541C73.1403 8.43857 73.9649 8.84208 74.807 9.35085L76.0526 10.1052L76.8421 8.87717C77.5614 7.75436 78.2807 6.61401 79 5.4912L79.7719 4.28068L78.5965 3.43857C77.386 2.59646 76.0526 1.94734 74.6316 1.52629C73.4386 1.19296 72.1754 1.01752 70.8421 1.01752Z" fill="#E9E3DC"/>
<path d="M82.1052 1.50874L82.8596 1.47365C88.0175 1.26312 93.1754 1.10523 98.1929 0.999966L98.9473 0.982422L99.0701 6.36839L98.3158 6.38593C94.9473 6.45611 91.5789 6.56137 88.2105 6.66663L88.2982 9.21049C91.228 9.10523 94.1403 9.01751 97.0701 8.96488L97.8245 8.94733L97.9473 14.3333L97.1929 14.3508C94.2807 14.421 91.3859 14.5087 88.4736 14.5965L88.5614 17.2807C91.9298 17.1579 95.3158 17.0701 98.6842 17L99.4386 16.9824L99.5614 22.3684L98.807 22.3859C93.8245 22.5087 88.7368 22.6666 83.6842 22.8596L82.9298 22.8947L82.1052 1.50874Z" fill="#F58025"/>
<path d="M98.2105 1.7544C98.2456 3.05265 98.2631 4.35089 98.2982 5.64914C94.6842 5.73686 91.0702 5.84212 87.4386 5.96493C87.4912 7.3158 87.5263 8.64914 87.5789 10C90.7544 9.89475 93.9123 9.78949 97.0877 9.71931C97.1228 11.0176 97.1579 12.3158 97.1754 13.6141C94.0175 13.6842 90.8596 13.7895 87.7017 13.8948C87.7544 15.2807 87.7895 16.6667 87.8421 18.0702C91.4561 17.9474 95.0877 17.8421 98.7017 17.7544C98.7368 19.0526 98.7544 20.3509 98.7895 21.6491C93.7368 21.7719 88.7017 21.9298 83.6491 22.1228C83.386 15.5088 83.1228 8.87721 82.8596 2.26317C88 2.0351 93.1052 1.85966 98.2105 1.7544ZM99.6667 0.210541L98.1754 0.245628C93.1579 0.368436 88 0.52633 82.8421 0.719313L81.3509 0.771944L81.4035 2.26317L81.9123 15.1228L82.193 22.1228L82.2456 23.614L83.7368 23.5614C88.7895 23.3684 93.8596 23.2105 98.8421 23.0877L100.333 23.0526L100.298 21.5614L100.211 17.6667L100.175 16.193L98.6842 16.2281C95.6667 16.2983 92.5789 16.386 89.2982 16.4912L89.2807 15.9825L89.2631 15.3158C91.9123 15.2281 94.5789 15.1579 97.2281 15.0877L98.7193 15.0526L98.6842 13.5614L98.6316 11.193L98.5965 9.66668L98.5614 8.17545L97.0702 8.21054C94.386 8.28072 91.7193 8.35089 89.0351 8.43861V8.38598L89 7.40352C92.3859 7.29826 95.4561 7.21054 98.3509 7.14037L99.8421 7.10528L99.807 5.61405L99.7193 1.71931L99.6667 0.210541Z" fill="#E9E3DC"/>
<path d="M102.333 0.912293L103.088 0.894749C106.193 0.842118 109.298 0.80703 112.404 0.771942C115.228 0.771942 117.368 1.50878 118.86 2.96492C120.158 4.24563 120.825 5.94738 120.825 8.05264C120.825 9.87721 120.368 11.3509 119.474 12.5088C118.79 13.386 117.93 14.0877 116.912 14.5965C118.386 16.7018 119.842 18.8246 121.298 20.9474L122.105 22.1228H119.561L115.158 22.1404L114.93 21.807C113.579 19.807 112.211 17.807 110.825 15.807L108.509 15.8246L108.597 22.193L107.842 22.2105C106.386 22.2281 104.93 22.2456 103.456 22.2807L102.702 22.2983L102.333 0.912293ZM108.439 10.5088L112.175 10.4737C113.088 10.4737 113.754 10.2632 114.211 9.87721C114.632 9.50878 114.825 9.01756 114.825 8.38598C114.825 7.38598 114.456 7.00001 114.175 6.78949C113.702 6.43861 113.018 6.24563 112.123 6.24563V5.4737L112.053 6.22808C110.825 6.22808 109.597 6.24563 108.368 6.26317L108.439 10.5088Z" fill="#F58025"/>
<path d="M112.509 1.52632C115.035 1.52632 116.982 2.19299 118.333 3.50878C119.491 4.64913 120.07 6.1579 120.07 8.05264C120.07 8.07018 120.07 8.08773 120.07 8.10527C120.07 9.71931 119.667 11.0176 118.877 12.0351C118.088 13.0526 117.053 13.7895 115.772 14.2807C117.421 16.6316 119.053 19 120.667 21.3684C120.298 21.3684 119.912 21.3684 119.544 21.3684C118.211 21.3684 116.877 21.3684 115.544 21.386C114.105 19.2807 112.667 17.1579 111.211 15.0526C111.193 15.0526 111.175 15.0526 111.158 15.0526C110.018 15.0526 108.895 15.0702 107.754 15.0877C107.789 17.2105 107.807 19.3333 107.842 21.4561C106.386 21.4737 104.912 21.4912 103.456 21.5263C103.333 14.8947 103.211 8.28071 103.105 1.64913C106.211 1.5965 109.316 1.56141 112.404 1.52632C112.421 1.52632 112.474 1.52632 112.509 1.52632ZM107.702 11.2632C109.193 11.2456 110.702 11.2281 112.193 11.2105C113.281 11.2105 114.123 10.9474 114.702 10.4211C115.281 9.91229 115.579 9.21053 115.561 8.36843C115.561 8.35089 115.561 8.33334 115.561 8.3158C115.561 7.36843 115.246 6.64913 114.632 6.17545C114.035 5.71931 113.193 5.49124 112.14 5.49124C112.105 5.49124 112.088 5.49124 112.053 5.49124C110.579 5.49124 109.105 5.50878 107.614 5.54387C107.649 7.4386 107.667 9.35089 107.702 11.2632ZM112.509 0.0350952H112.386C109.281 0.0701829 106.175 0.105271 103.07 0.157902L101.561 0.175446L101.596 1.66667L101.947 21.5439L101.982 23.0351L103.474 23C104.93 22.9825 106.386 22.9474 107.842 22.9298L109.333 22.9123L109.316 21.4211L109.281 18.2456L109.263 16.5614C109.649 16.5614 110.035 16.5439 110.439 16.5439C111.737 18.4386 113.035 20.3158 114.316 22.2105L114.754 22.8772H115.544C116.877 22.8772 118.211 22.8597 119.544 22.8597H120.667H123.509L121.895 20.5088C120.596 18.614 119.281 16.7193 117.982 14.8246C118.772 14.3158 119.474 13.6842 120.053 12.9474C121.053 11.6667 121.561 10.0351 121.561 8.08773C121.561 5.71931 120.825 3.84211 119.368 2.42106C117.737 0.842113 115.421 0.0350952 112.509 0.0350952ZM109.14 7.00001C110.123 6.98246 111.088 6.98246 112.07 6.96492C112.86 6.96492 113.404 7.10527 113.737 7.35089C113.842 7.4386 114.088 7.61404 114.088 8.29825C114.088 8.89474 113.912 9.14036 113.719 9.29825C113.421 9.56141 112.895 9.70176 112.175 9.70176L111.263 9.71931C110.561 9.71931 109.877 9.73685 109.175 9.73685L109.14 7.00001Z" fill="#E9E3DC"/>
<path d="M130 22.3158L129.825 21.8421C127.246 15.2631 124.561 8.50875 121.825 1.78945L121.404 0.754364C121.404 0.754364 125.825 0.771908 127.456 0.789452H127.965L128.14 1.28068C129.649 5.33331 131.14 9.40349 132.596 13.4737C134.175 9.45612 135.772 5.42103 137.386 1.40349L137.579 0.929803L144.035 1.07015L143.579 2.0877C140.667 8.71928 137.789 15.3859 135.053 21.9298L134.86 22.3859L130 22.3158Z" fill="#F58025"/>
<path d="M122.509 1.50877C124.158 1.50877 125.807 1.52632 127.456 1.52632C129.193 6.21053 130.912 10.8947 132.596 15.5789C134.404 10.9298 136.246 6.29825 138.105 1.66667C139.719 1.70175 141.316 1.73684 142.93 1.77193C140.018 8.38596 137.175 15 134.386 21.6316C133.088 21.614 131.807 21.5965 130.509 21.5789C127.895 14.8772 125.228 8.17544 122.509 1.50877ZM120.281 0L121.123 2.07018C123.86 8.78947 126.544 15.5439 129.123 22.1228L129.491 23.0702L130.509 23.0877L134.351 23.1403L135.351 23.1579L135.772 22.2281C138.526 15.6842 141.386 9.01754 144.298 2.40351L145.193 0.350877L142.965 0.298246C141.351 0.263158 139.737 0.22807 138.14 0.192982L137.105 0.175439L136.719 1.14035C135.404 4.42105 134.035 7.84211 132.649 11.3684C131.368 7.84211 130.105 4.38596 128.86 1.03509L128.509 0.0701754H127.474C125.807 0.0175439 124.158 0 122.509 0H120.281Z" fill="#E9E3DC"/>
<path d="M157.667 22.8947C157.667 22.8947 156.526 19.7193 156.035 18.3684C153.544 18.2631 151.07 18.1754 148.579 18.1053L146.632 22.5088L140.526 22.3509L141 21.3158C143.982 14.7368 147.088 8.08771 150.193 1.54385L150.404 1.10526L155.491 1.28069L155.684 1.73683C158.298 8.38596 160.912 15.2281 163.474 22.1053L163.877 23.1579L157.667 22.8947ZM154.035 12.9474C153.561 11.6842 153.088 10.4035 152.614 9.14034C152.053 10.3684 151.491 11.5965 150.93 12.8421C151.965 12.8772 153 12.9123 154.035 12.9474Z" fill="#F58025"/>
<path d="M150.86 1.85963C152.228 1.89472 153.614 1.94735 154.982 1.99998C157.649 8.77191 160.246 15.5614 162.772 22.3684C161.246 22.2982 159.719 22.2281 158.193 22.1579C157.649 20.6491 157.105 19.1403 156.544 17.6316C153.719 17.5263 150.895 17.421 148.088 17.3333C147.439 18.807 146.789 20.2631 146.14 21.7368C144.649 21.7017 143.158 21.6666 141.667 21.6316C144.667 15.0175 147.737 8.43858 150.86 1.85963ZM155.123 13.7368C154.316 11.5614 153.491 9.3684 152.684 7.19296C151.719 9.31577 150.754 11.421 149.789 13.5438C151.561 13.614 153.351 13.6842 155.123 13.7368ZM149.93 0.333313L149.509 1.21051C146.403 7.75437 143.298 14.421 140.316 21L139.386 23.0702L141.649 23.1228C143.14 23.1579 144.632 23.193 146.105 23.228L147.105 23.2631L147.509 22.3509C148.018 21.193 148.544 20.0351 149.053 18.8772C151.193 18.9473 153.351 19.0175 155.491 19.1052C155.93 20.2982 156.351 21.4912 156.789 22.6842L157.123 23.6316L158.123 23.6666C159.649 23.7368 161.175 23.807 162.702 23.8772L164.965 23.9824L164.175 21.8596C161.596 14.9649 158.982 8.10524 156.368 1.47366L156.018 0.561383L155.035 0.526295C153.649 0.473664 152.281 0.421032 150.895 0.385945L149.93 0.333313ZM152.07 12.1403C152.228 11.7895 152.386 11.4561 152.544 11.1052C152.684 11.4561 152.807 11.8245 152.947 12.1754C152.649 12.1579 152.368 12.1403 152.07 12.1403Z" fill="#E9E3DC"/>
<path d="M167.86 23.3685L168.702 7.54389C166.895 7.45617 165.088 7.36845 163.298 7.28073L162.544 7.24565L162.789 1.71933L163.526 1.75442C169.088 2.01758 174.754 2.33336 180.386 2.68424L181.14 2.73687L180.789 8.24565L180.053 8.19301C178.246 8.07021 176.456 7.96494 174.649 7.85968L173.737 23.6842L167.86 23.3685Z" fill="#F58025"/>
<path d="M163.491 2.49121C169.105 2.75437 174.719 3.07016 180.333 3.42104C180.246 4.75437 180.158 6.10525 180.07 7.43858C178.018 7.31577 175.965 7.17542 173.912 7.07016C173.614 12.3509 173.316 17.614 173 22.8947C171.544 22.807 170.088 22.7368 168.614 22.6491C168.895 17.3684 169.176 12.1052 169.456 6.82455C167.404 6.71928 165.351 6.61402 163.298 6.5263C163.368 5.17542 163.439 3.84209 163.491 2.49121ZM162.07 0.92981L162 2.42104L161.895 4.6842L161.807 6.45613L161.754 7.94735L163.246 8.01753C164.79 8.0877 166.351 8.15788 167.895 8.2456L167.649 13.0526L167.14 22.5789L167.07 24.0702L168.561 24.1579C170.018 24.2281 171.474 24.3158 172.93 24.4035L174.421 24.4912L174.509 23L175.333 8.71928V8.66665C176.877 8.75437 178.439 8.85963 179.983 8.94735L181.474 9.03507L181.561 7.54384L181.702 5.22806L181.807 3.50876L181.895 2.01753L180.404 1.92981C174.772 1.57893 169.105 1.26314 163.526 0.999985L162.07 0.92981Z" fill="#E9E3DC"/>
<path d="M182.526 24.2456L184 2.91229L189.965 3.35089L188.403 24.6667L182.526 24.2456Z" fill="#F58025"/>
<path d="M184.702 3.71926C186.193 3.82453 187.684 3.92979 189.175 4.03505C188.684 10.6491 188.211 17.2456 187.719 23.8596C186.263 23.7544 184.807 23.6491 183.351 23.5438C183.79 16.9298 184.246 10.3333 184.702 3.71926ZM183.298 2.12277L183.193 3.614L182.526 13.3158L181.825 23.4386L181.719 24.9298L183.211 25.0351C184.667 25.1403 186.123 25.2456 187.579 25.3508L189.07 25.4561L189.175 23.9649L190.632 4.14032L190.737 2.64909L189.246 2.54382C187.754 2.43856 186.263 2.3333 184.772 2.22804L183.298 2.12277Z" fill="#E9E3DC"/>
<path d="M204.14 26.2457C203.754 26.2457 203.351 26.2281 202.947 26.193C201.316 26.0527 199.825 25.6141 198.509 24.9299C197.193 24.2457 196.053 23.3685 195.14 22.2983C194.21 21.2281 193.509 20 193.053 18.6316C192.596 17.2632 192.421 15.8071 192.544 14.2983C192.667 12.7193 193.07 11.2983 193.754 10.0351C194.439 8.75442 195.333 7.64916 196.439 6.73688C197.544 5.8246 198.842 5.12284 200.298 4.68425C201.386 4.35091 202.561 4.17548 203.772 4.17548C204.175 4.17548 204.579 4.19302 205 4.22811C206.649 4.386 208.175 4.80705 209.526 5.50881C210.877 6.21056 212.018 7.12284 212.93 8.19302C213.86 9.28074 214.544 10.5264 214.982 11.8948C215.421 13.2632 215.561 14.7369 215.403 16.2457C215.246 17.8071 214.807 19.2106 214.105 20.4737C213.403 21.7369 212.491 22.8246 211.386 23.7193C210.281 24.6141 209 25.2983 207.561 25.7369C206.474 26.0878 205.316 26.2457 204.14 26.2457ZM203.877 9.70179C203.298 9.70179 202.754 9.78951 202.228 9.96495C201.544 10.1755 200.965 10.5264 200.456 10.9649C199.947 11.4211 199.526 11.9825 199.21 12.5965C198.895 13.2281 198.702 13.9299 198.632 14.6842C198.561 15.4913 198.632 16.2106 198.842 16.9123C199.053 17.5965 199.368 18.193 199.789 18.7369C200.228 19.2807 200.754 19.7193 201.386 20.0702C202 20.4211 202.702 20.6316 203.474 20.6842C203.667 20.7018 203.86 20.7018 204.035 20.7018C204.614 20.7018 205.158 20.6141 205.649 20.4562C206.316 20.2281 206.895 19.9123 207.386 19.4562C207.895 19 208.316 18.4562 208.632 17.8246C208.947 17.193 209.158 16.4913 209.228 15.7544C209.298 14.9299 209.246 14.2281 209.053 13.5264C208.86 12.8421 208.544 12.2281 208.105 11.6842C207.667 11.1404 207.14 10.7018 206.509 10.3509C205.895 10 205.175 9.78951 204.386 9.71934C204.246 9.71934 204.053 9.70179 203.877 9.70179Z" fill="#F58025"/>
<path d="M203.754 4.9298C204.14 4.9298 204.509 4.94734 204.912 4.98243C206.474 5.12278 207.895 5.52629 209.158 6.19295C210.421 6.85962 211.474 7.68418 212.351 8.70173C213.211 9.71927 213.842 10.8596 214.246 12.1403C214.649 13.421 214.772 14.7719 214.632 16.193C214.632 16.2105 214.632 16.228 214.632 16.2456C214.491 17.6491 214.088 18.9473 213.421 20.1228C212.772 21.2982 211.912 22.3158 210.895 23.1579C209.86 24 208.667 24.6316 207.333 25.0351C206.316 25.3508 205.263 25.5087 204.14 25.5087C203.772 25.5087 203.386 25.4912 203.018 25.4561C201.491 25.3158 200.105 24.9298 198.86 24.2807C197.614 23.6316 196.561 22.807 195.702 21.8245C194.842 20.8245 194.193 19.7017 193.772 18.421C193.351 17.1403 193.193 15.7894 193.298 14.3859C193.298 14.3684 193.298 14.3508 193.298 14.3333C193.404 12.9123 193.772 11.614 194.421 10.421C195.053 9.22804 195.895 8.19295 196.93 7.35085C197.965 6.4912 199.158 5.85962 200.526 5.42102C201.544 5.08769 202.614 4.9298 203.754 4.9298ZM204.053 21.4737C204.702 21.4737 205.316 21.3859 205.895 21.193C206.649 20.9298 207.316 20.5614 207.895 20.0351C208.474 19.5263 208.947 18.9123 209.316 18.193C209.684 17.4737 209.912 16.7017 209.982 15.8421C209.982 15.8245 209.982 15.807 209.982 15.7894C210.07 14.9473 210 14.1228 209.772 13.3508C209.544 12.5614 209.193 11.8596 208.702 11.2456C208.211 10.6316 207.614 10.1228 206.895 9.71927C206.175 9.31576 205.368 9.08769 204.474 8.99997C204.263 8.98243 204.053 8.96488 203.86 8.96488C203.211 8.96488 202.579 9.07015 201.982 9.26313C201.211 9.50874 200.526 9.91225 199.947 10.421C199.368 10.9473 198.895 11.5614 198.544 12.2807C198.175 13 197.965 13.7894 197.895 14.6316C197.895 14.6491 197.895 14.6666 197.895 14.6842C197.825 15.5263 197.912 16.3508 198.14 17.1228C198.368 17.8947 198.737 18.5965 199.228 19.2105C199.719 19.8245 200.333 20.3333 201.035 20.7193C201.754 21.1052 202.544 21.3508 203.421 21.4386C203.649 21.4561 203.842 21.4737 204.053 21.4737ZM203.754 3.43857C202.474 3.43857 201.228 3.61401 200.053 3.98243C198.509 4.45611 197.123 5.19295 195.947 6.17541C194.772 7.14032 193.807 8.33331 193.088 9.70173C192.351 11.0701 191.93 12.5789 191.789 14.193C191.667 15.8596 191.842 17.421 192.333 18.8772C192.807 20.3333 193.561 21.6491 194.561 22.7894C195.544 23.9298 196.754 24.8596 198.158 25.5965C199.561 26.3333 201.14 26.7894 202.877 26.9473C203.316 26.9824 203.737 27 204.14 27C205.404 27 206.614 26.8245 207.772 26.4737C209.298 26 210.667 25.2807 211.842 24.3158C213.018 23.3508 213.982 22.193 214.737 20.8596C215.491 19.5087 215.965 18 216.123 16.4035C216.298 14.7368 216.14 13.1579 215.684 11.7017C215.211 10.228 214.474 8.89471 213.491 7.73681C212.509 6.59646 211.298 5.63155 209.86 4.87716C208.421 4.12278 206.807 3.66664 205.053 3.50874C204.614 3.45611 204.175 3.43857 203.754 3.43857ZM199.386 14.8772L199.404 14.7719C199.456 14.0877 199.614 13.5087 199.895 12.9473C200.175 12.3859 200.526 11.9298 200.965 11.5263C201.386 11.1403 201.877 10.8596 202.456 10.6666C202.895 10.5263 203.368 10.4561 203.877 10.4561C204.035 10.4561 204.193 10.4561 204.368 10.4737C205.07 10.5438 205.667 10.7193 206.193 11.0175C206.737 11.3158 207.193 11.7017 207.561 12.1754C207.93 12.6316 208.193 13.1579 208.368 13.7544C208.544 14.3508 208.597 14.9824 208.526 15.6491C208.456 16.3508 208.281 16.9649 208 17.5087C207.719 18.0526 207.351 18.5263 206.912 18.9123C206.491 19.2982 206 19.5789 205.421 19.7719C205 19.9123 204.544 19.9824 204.053 19.9824C203.895 19.9824 203.719 19.9824 203.561 19.9649C202.895 19.9123 202.316 19.7368 201.772 19.4386C201.228 19.1403 200.772 18.7544 200.404 18.2982C200.035 17.8421 199.754 17.3158 199.579 16.7193C199.404 16.1228 199.351 15.5087 199.386 14.8772Z" fill="#E9E3DC"/>
<path d="M231.667 28.8947L231.474 28.579C229.158 24.6316 226.789 20.6842 224.421 16.7719L223.175 27.8947L217.386 27.2632L219.649 6.01755L224.877 6.57895L225.07 6.89474C227.421 10.7018 229.737 14.5263 231.965 18.2807L233.263 7.56141L239.14 8.29825L236.456 29.5088L231.667 28.8947Z" fill="#F58025"/>
<path d="M220.316 6.84212C221.684 6.98247 223.053 7.14036 224.421 7.28071C227.14 11.6842 229.807 16.1053 232.439 20.5263C232.93 16.4737 233.421 12.4211 233.912 8.36843C235.368 8.54387 236.842 8.73685 238.316 8.91229C237.491 15.4912 236.649 22.0526 235.825 28.6316C234.596 28.4737 233.351 28.3158 232.123 28.1754C229.439 23.5965 226.702 19.0351 223.93 14.4912C223.456 18.6842 223 22.8597 222.526 27.0526C221.088 26.8947 219.649 26.7369 218.211 26.579C218.912 20.0176 219.614 13.4386 220.316 6.84212ZM219 5.19299L218.842 6.68422L217.456 19.614L216.719 26.4561L216.561 27.9474L218.053 28.1053C219.474 28.2632 220.895 28.4211 222.316 28.5614L223.807 28.7193L224.018 27.2456L224.93 19.0526C226.912 22.3333 228.895 25.6667 230.842 28.9649L231.211 29.5965L231.947 29.6842C233.175 29.8246 234.421 29.9825 235.649 30.1404L237.123 30.3333L237.316 28.8597L237.491 27.4737L239.807 9.14036L240 7.64913L238.509 7.45615L237.596 7.33334C236.439 7.19299 235.281 7.0351 234.105 6.89475L232.614 6.71931L232.439 8.21054L232.298 9.35089L231.491 16.0176C229.596 12.8597 227.667 9.68422 225.702 6.50878L225.316 5.89475L224.596 5.80703C223.228 5.64913 221.86 5.50878 220.474 5.35089L219 5.19299Z" fill="#E9E3DC"/>
<path d="M183.053 43.4386L222.491 136.123H200.105L191.825 115.789H154.456L146.175 136.105H124.298L163.737 43.421H183.053V43.4386ZM166.263 96.9649H181L179.965 94.807L178.93 93.6491L176.509 92.0877L176.719 89.2631L176.228 88.7368L177.772 86.9474L177.807 84.807L180.667 81.7719L184.316 79.3509L183.544 79.2807L181.544 78.9298L181.018 78.5965L179.614 79.2982L178.228 78.4035L177.246 78.6316L175.439 77.2631L173.597 77.3684L171.421 76.4912L171.088 74.421H169.561V75.8947L164.667 75.9123L166.421 87.6667L165.351 89.0877L166.281 90.2281V96.9649H166.263ZM184.035 41.9298H183.053H163.737H162.754L162.368 42.8421L122.93 135.526L122.053 137.614H124.316H146.175H147.175L147.561 136.684L155.474 117.298H190.842L198.754 136.684L199.14 137.614H200.14H222.526H224.79L223.912 135.526L184.474 42.8421L184.035 41.9298ZM166.404 77.3859H169.561H170.035L170.07 77.5614L170.86 77.8772L173.035 78.7544L173.351 78.8772L173.684 78.8596L174.982 78.7895L176.351 79.807L176.912 80.2281L177.597 80.0702L177.965 79.9824L178.825 80.5438L179.421 80.9298L176.737 83.7719L176.333 84.193L176.316 84.7719L176.281 86.386L175.088 87.7719L174.211 88.7895L175.123 89.7719L175.175 89.8245L175.018 92L174.947 92.8772L175.684 93.3509L177.93 94.807L178.526 95.4737H167.737V90.2105V89.6842L167.404 89.2631L167.211 89.0351L167.579 88.5438L167.947 88.0526L167.86 87.4386L166.404 77.3859Z" fill="#E9E3DC"/>
<path d="M182.123 44.8421H164.667L126.421 134.719H145.21L153.509 114.386H192.772L201.053 134.719H220.368L182.123 44.8421ZM176.719 89.2632L176.509 92.0877L178.93 93.6491L179.965 94.807L181 96.9649H166.263V90.193L165.333 89.0526L166.403 87.6316L164.649 75.8772L169.544 75.8596V74.386H171.07L171.403 76.4561L173.579 77.3333L175.421 77.2281L177.228 78.5789L178.211 78.3509L179.596 79.2456L181 78.5439L181.526 78.8772L183.526 79.2281L184.298 79.2982L180.649 81.7193L177.789 84.7544L177.754 86.8947L176.211 88.6842L176.719 89.2632Z" fill="#C7B99B"/>
<path d="M56.807 44.0877V136.123H35.4561V44.0877H56.807ZM58.2982 42.5965H56.807H35.4561H33.9649V44.0877V136.123V137.614H35.4561H56.807H58.2982V136.123V44.0877V42.5965V42.5965Z" fill="#E9E3DC"/>
<path d="M76.1754 37.7369C77.4035 37.7369 78.3859 38.7369 78.3859 39.9474V53.1579C78.7895 52.0176 79.5088 50.3158 80.4386 49.2983C80.9473 48.5614 81.7017 47.9825 82.5263 47.6316C82.5438 44.4912 82.9123 43.8597 86.0351 43.8597H109.93C118.772 43.8597 127.263 46.8597 132.263 51.4737C134.702 53.3158 136.702 55.772 138 58.5614C139.088 60.9123 139.667 63.4737 139.825 66.0527H141.281V68.386L139.86 68.3509C139.86 68.4211 139.86 68.4912 139.86 68.579C139.702 72.0176 138.649 75.4562 136.807 78.4386C134.982 81.4211 132.368 83.9649 129.263 85.7018C127.719 86.5614 126.053 87.2807 124.298 87.6667C123.421 87.8772 122.544 88.0176 121.649 88.1053C121.211 88.1404 120.772 88.1755 120.298 88.193L119.947 88.2105H119.632H119H118.018L117.807 91.2632H104.684C104.368 94.4035 102.509 112.491 100.895 125.035C100.403 128.86 101.158 132.07 103.14 134.544C106.719 139.018 113.158 139.702 113.228 139.719L113.561 139.754L117.105 149.035H98.2281L97 159.947C97.1228 159.947 97.2281 159.965 97.3509 159.982C98.3684 160.088 99.3859 160.228 100.386 160.386C101.175 160.509 102.754 160.789 102.754 160.789L103.403 160.947H103.421C104.105 159.947 107.053 155.737 108.193 154.035C108.877 153.035 109.86 152.351 110.526 152.351C111.123 152.351 111.456 152.93 111.035 154.368C110.246 157 109 161.667 108.719 162.789C110.316 163.561 111.403 164.439 111.403 165.351C111.403 166.263 110.316 167.123 108.719 167.912C109.018 169.035 110.246 173.684 111.035 176.316C111.474 177.754 111.14 178.333 110.526 178.333C109.86 178.333 108.877 177.649 108.193 176.649C107.053 174.965 104.123 170.737 103.421 169.737H103.403L102.754 169.895V169.877C100.684 170.351 98.614 170.684 96.5088 170.877V170.912C94.3684 171.175 92.9649 174.509 91.7368 178.088C90.8421 180.702 89.5263 181.053 88.8947 181.053C88.8596 181.053 88.8245 181.053 88.7895 181.053C87.8772 181 87.1403 180.246 86.9298 179.193C86.6316 177.719 86.2631 175.333 85.807 172.298L85.5789 170.789C84.7544 170.702 83.9298 170.597 83.1228 170.456C80.8772 170.088 78.6666 169.579 76.4912 168.86C75.4035 168.491 74.3509 168.07 73.3158 167.509C72.807 167.228 72.2982 166.93 71.8421 166.491C71.614 166.263 71.3859 166.035 71.2631 165.614C71.2456 165.561 71.2281 165.474 71.2281 165.439V165.386V165.333V165.316V165.281C71.2281 165.158 71.2631 165.07 71.2982 164.965C71.3684 164.772 71.4737 164.632 71.5789 164.491C72 163.982 72.5088 163.667 73 163.368C73.5088 163.07 74.0175 162.825 74.5614 162.597C75.614 162.14 76.7017 161.772 77.7895 161.456C79.9649 160.842 82.1754 160.404 84.4035 160.105C84.4035 160.088 84.4035 160.07 84.4035 160.053V138.439C84.4035 136.912 81.4035 135.421 80.3509 135C80.1579 134.93 80.0175 134.737 80.0175 134.526C80.0175 134.316 80.1228 134.123 80.3158 134.035C81.8947 133.298 84.4035 131.702 84.4035 130.526V112.702C84.0175 112.825 83.6316 112.93 83.2281 113.018C82.0877 113.263 80.9474 113.351 79.8245 113.386H78.9474V112.509V106.895V106.018H79.8245H81.7719C81.7193 105.246 81.6666 104.474 81.5965 103.702H75.2631V105.14V105.667H74.7368H70.9298H70.4386L70.4035 105.175L70.3158 103.702H69.2631C69.2631 105.439 69.2631 106.298 69.2631 107.597C69.2631 108.386 68.3509 109.053 67.5965 109.053C66.8947 109.053 66.3158 108.491 66.6491 106.965C67.0526 105.07 67.5614 103.965 67.9123 103.368V102.211C67.5614 101.614 67.0526 100.509 66.6491 98.6141C66.3333 97.0526 66.9123 96.4912 67.614 96.4912C68.3859 96.4912 69.2807 97.1579 69.2807 97.9474C69.2807 99.2456 69.2807 100.088 69.2807 101.842H70.2456L70.0877 98.6491C70.0702 98.3684 70.0526 98.1228 70.0526 97.8246C70.0526 97.5263 70.0526 97.2456 70.1052 96.9474C70.193 96.3684 70.3859 95.772 70.7017 95.2632C71.0351 94.7544 71.4737 94.3334 71.9649 94C72.4561 93.6842 73 93.4562 73.5438 93.2983C74.0877 93.1404 74.6491 93.0527 75.1754 92.9474L76.3333 92.7544C76.5088 92.5263 76.4561 92.2281 76.3333 91.9649C76.2631 91.9649 76.193 91.9649 76.1228 91.9649C75.1754 91.9649 74.2281 91.6141 73.5263 91C72.7193 90.3158 72.2105 89.3334 72.0702 88.3158C72.0351 88.0527 72.0175 87.8246 72.0351 87.5439L72.0702 86.8772L72.1403 85.5439L72.2982 82.8597L72.614 77.4912L73.8421 56.0702H72.5614V54.4035H73.9649V39.9474C73.9649 38.7193 74.9473 37.7369 76.1754 37.7369ZM76.1754 36.2281C74.1228 36.2281 72.4561 37.8948 72.4561 39.9474V52.9123H71.0526V54.4035V56.0702V57.5614H72.2456L71.1228 77.4035L70.807 82.772L70.6491 85.4562L70.5789 86.7895L70.5438 87.4737C70.5263 87.8948 70.5614 88.2456 70.5965 88.5263C70.7895 89.9123 71.4912 91.193 72.4912 92.0877C72.0175 92.2632 71.5789 92.4912 71.1754 92.7369C70.4386 93.2105 69.8596 93.7895 69.4386 94.4562C69.2631 94.7193 69.1052 95.0176 68.9824 95.3334C68.5438 95.1228 68.0702 95 67.614 95C66.8245 95 66.1403 95.3158 65.6842 95.8948C65.1052 96.6141 64.9298 97.6316 65.2105 98.8948C65.5965 100.649 66.0526 101.825 66.4386 102.561V102.965C66.0526 103.702 65.5789 104.895 65.2105 106.632C64.9298 107.895 65.1052 108.912 65.6842 109.632C66.1579 110.211 66.8421 110.526 67.614 110.526C69.1052 110.526 70.7895 109.263 70.7895 107.579V107.158H70.9649H74.7719H75.2982H76.7895V105.667V105.193H77.4737V106.018V106.895V112.509V113.386V114.86L78.9474 114.877H79.8245C80.9824 114.86 81.9824 114.772 82.9123 114.597V130.404C82.6666 130.842 81.3509 131.895 79.6842 132.667C78.9473 133 78.4912 133.754 78.5263 134.579C78.5438 135.386 79.0702 136.105 79.8421 136.386C81.1754 136.912 82.7719 137.982 82.9123 138.474V158.79C81 159.088 79.1579 159.491 77.4035 160C76.1403 160.368 75.0175 160.754 74 161.193C73.3684 161.456 72.7895 161.737 72.2807 162.035C71.7895 162.333 71.0702 162.772 70.4561 163.491C70.2807 163.702 70.0877 163.982 69.9298 164.368L69.9123 164.404L69.8947 164.456C69.8245 164.649 69.7719 164.877 69.7544 165.175L69.7368 165.298L69.7544 165.386V165.491C69.7719 165.597 69.7895 165.737 69.807 165.842L69.8245 165.912L69.8421 165.982C70.0702 166.772 70.5088 167.228 70.7895 167.509C71.4386 168.123 72.0702 168.491 72.614 168.789C73.5789 169.316 74.6316 169.754 76.0175 170.228C78.1228 170.947 80.3684 171.474 82.8772 171.895C83.3158 171.965 83.7719 172.035 84.2807 172.105L84.3333 172.491C84.7895 175.404 85.1754 177.93 85.4737 179.456C85.8245 181.175 87.1228 182.404 88.7193 182.509C88.7368 182.509 88.8245 182.509 88.9298 182.509C89.807 182.509 91.9649 182.123 93.1754 178.544C94.5263 174.579 95.7193 172.491 96.7017 172.368L98.2105 172.175V172.158C99.2281 172.035 100.246 171.86 101.263 171.684V171.772L102.789 171.404C103.912 173.018 106.018 176.07 106.947 177.456C107.684 178.544 109.053 179.807 110.509 179.807C111.211 179.807 111.842 179.491 112.246 178.965C112.789 178.228 112.86 177.228 112.456 175.877C112 174.351 111.281 171.807 110.456 168.649C112.088 167.649 112.895 166.561 112.895 165.351C112.895 164.14 112.088 163.053 110.456 162.053C110.965 160.14 111.86 156.86 112.474 154.825C112.877 153.474 112.807 152.456 112.263 151.737C111.842 151.175 111.211 150.877 110.509 150.877C109.053 150.877 107.684 152.14 106.947 153.228C106.018 154.614 103.895 157.667 102.772 159.298C102.298 159.211 101.228 159.035 100.614 158.93C99.9473 158.825 99.2982 158.719 98.6667 158.649L99.5789 150.561H117.123H119.298L118.526 148.526L114.982 139.246L114.649 138.386L113.737 138.298L113.403 138.263C113.175 138.228 107.439 137.526 104.351 133.649C102.632 131.491 101.982 128.667 102.421 125.263C103.895 113.772 105.596 97.579 106.088 92.807H117.86H119.263L119.351 91.4211L119.456 89.7544H119.684H120.018L120.386 89.7369C120.877 89.7193 121.351 89.6842 121.825 89.6316C122.877 89.5088 123.789 89.3684 124.667 89.1579C126.403 88.772 128.158 88.0877 130.018 87.0351C133.351 85.1579 136.14 82.4737 138.105 79.2456C139.842 76.4035 140.93 73.2105 141.281 69.9298L142.807 69.9825V68.4386V66.1053V64.5614H141.316H141.228C140.947 62.1755 140.333 59.9649 139.403 57.9474C138.035 54.9825 135.912 52.3509 133.281 50.3334C127.912 45.4211 119 42.3684 109.982 42.3684H86.0351C82.1579 42.3684 81.2105 43.7193 81.0526 46.7193C80.6316 46.9825 80.2281 47.2983 79.8772 47.6491V39.9474C79.8947 37.8948 78.2281 36.2281 76.1754 36.2281Z" fill="#E9E3DC"/>
<path d="M56.1053 44.7895H36.1579V135.421H56.1053V44.7895Z" fill="#C7B99B"/>
<path d="M56.807 136.105H35.4561V44.0877H56.807V136.105ZM36.8596 134.719H55.4035V45.4912H36.8596V134.719Z" fill="#4B3900"/>
<path d="M222.491 136.105H200.105L191.825 115.79H154.456L146.175 136.123H124.298L163.737 43.4386H183.053L222.491 136.105ZM201.053 134.719H220.368L182.123 44.8421H164.667L126.421 134.719H145.211L153.509 114.386H192.772L201.053 134.719Z" fill="#4B3900"/>
<path d="M171.088 74.4035L171.421 76.4737L173.596 77.3509L175.439 77.2456L177.246 78.5965L178.228 78.3684L179.614 79.2631L181.018 78.5614L181.544 78.8947L183.544 79.2456L184.316 79.3158L180.667 81.7368L177.807 84.7719L177.772 86.9123L176.228 88.7017L176.719 89.2281L176.509 92.0526L178.93 93.614L179.965 94.7719L181 96.9298H166.263V90.1579L165.333 89.0175L166.403 87.5965L164.649 75.8421L169.544 75.8246V74.3509H171.088V74.4035ZM172.211 73.0877H171.07H169.544H168.211V74.421V74.5614H164.649H163.105L163.333 76.0877L165 87.2807L164.263 88.2631L163.649 89.0877L164.298 89.8947L164.912 90.6667V96.9649V98.2982H166.246H180.982H183.105L182.175 96.386L181.14 94.2456L181.053 94.0877L180.93 93.9474L179.895 92.7895L179.772 92.6491L179.614 92.5438L177.86 91.4035L178.018 89.3509L178.053 88.7719L177.982 88.6842L178.737 87.807L179.053 87.4386L179.07 86.9649L179.105 85.3333L181.509 82.7895L185.018 80.4561L188.158 78.3684L184.403 78.0175L183.684 77.9474L182 77.6491L181.684 77.4561L181.053 77.0526L180.386 77.386L179.667 77.7544L178.947 77.2631L178.474 76.9649L177.93 77.0877L177.544 77.1754L176.246 76.2105L175.86 75.9123L175.368 75.9474L173.825 76.0351L172.614 75.5439L172.403 74.2105L172.211 73.0877Z" fill="#4B3900"/>
<path d="M77.1754 40.5263C77.1754 40.9649 77.1754 41.6667 77.1754 42.8947C77.1754 43.9649 77.1754 52.2632 77.1754 54.386H76.1754C76.1754 52.2807 76.1754 44.2105 76.1754 42.5439C76.1754 42.5439 76.1754 41.1228 75.0351 40.2632C74.3509 39.7368 77.1754 39.3158 77.1754 40.5263Z" fill="#EAE3D6"/>
<path d="M76.386 90.5614C75.6667 90.614 74.9299 90.421 74.3158 90C73.7193 89.5789 73.2456 88.9123 73.1228 88.1579C73.0878 87.9824 73.0702 87.7719 73.0878 87.5965L73.1228 86.9298L73.193 85.5965L73.3334 82.9123L73.6141 77.5439L74.7544 56.5614H77.5263L79.2106 87.6842C79.2106 88.4737 78.8772 89.193 78.3334 89.7193C77.8071 90.2105 77.0878 90.5088 76.386 90.5614Z" fill="#D9CEB8"/>
<path d="M75.2807 101.825V100.526H81.2632C81.3158 100.789 81.3509 101.053 81.386 101.333C81.4035 101.491 81.421 101.649 81.4386 101.825H75.2807Z" fill="#C7B99B"/>
<path d="M82.9474 111.474C82.2281 111.579 81.4737 111.632 80.7193 111.632V107.754H82.7368H83.6842L83.5965 106.807C83.4561 105.544 83.3158 104.281 83.1404 103.018C83.0526 102.386 82.9649 101.754 82.8597 101.105C82.7544 100.474 82.614 99.7895 82.3333 99.1053C82.1754 98.7719 81.9825 98.4035 81.7018 98.1053C81.4211 97.807 81.0351 97.5614 80.6491 97.421C80.2632 97.2807 79.8772 97.2456 79.5263 97.2281C79.4386 97.2281 79.3509 97.2281 79.2632 97.2281H79.0175L78.5439 97.2456C77.2632 97.2982 76 97.3684 74.7368 97.4561L74.2281 97.4912V104.596H71.4386C71.2632 102.596 71.1053 100.579 70.9649 98.5789C70.9298 98.0175 70.8772 97.5263 70.9474 97.0351C71 96.5439 71.1579 96.0702 71.4035 95.6667C71.9123 94.8421 72.807 94.2982 73.7895 93.9824C74.2807 93.8246 74.7895 93.7193 75.3333 93.6316L76.9298 93.3509C78 93.1754 79.0702 93.0175 80.1579 92.8947L81.7719 92.7193C82.3158 92.6667 82.8597 92.5789 83.3684 92.5614C84.4035 92.5088 85.4386 92.7193 86.193 93.3509C86.9649 93.9649 87.4386 94.9298 87.7368 95.9298C87.8772 96.4386 87.9825 96.9474 88.0702 97.4737C88.1053 97.7368 88.1404 98 88.1579 98.2631L88.2281 99.0702C88.4386 101.228 88.6842 103.386 88.4912 105.491C88.386 106.526 88.1579 107.544 87.7018 108.421C87.2632 109.298 86.5965 110.018 85.7544 110.526C85.5088 110.684 85.2281 110.807 84.9474 110.93C84.807 110.93 84.6842 110.982 84.579 111.07C84.0526 111.246 83.4912 111.386 82.9474 111.474Z" fill="#A39168"/>
<path d="M89.1053 99.193C89.4562 99.1228 90.5439 98.9474 91.9474 98.8597V109.544H88.5088C88.6141 109.351 88.7193 109.158 88.807 108.947C89.2983 107.86 89.5088 106.702 89.579 105.579C89.7018 103.386 89.386 101.281 89.1053 99.193Z" fill="#C7B99B"/>
<path d="M86.5088 150.825V159.877C86.1579 159.912 85.807 159.947 85.4561 159.982V150.632C85.7719 150.684 86.1228 150.754 86.5088 150.825Z" fill="#A39168"/>
<path d="M85.4561 147.982V138.649C85.4386 138.211 85.8421 137.789 86.5088 137.404V146.333C86.5088 146.333 86.5087 147.596 85.7017 147.965H85.4561V147.982Z" fill="#C7B99B"/>
<path d="M88.5614 159.737V151.263C90.6842 151.789 93.4211 152.702 96.5614 154.491L95.9649 159.86C95.4211 159.825 94.8596 159.772 94.2982 159.737C93.2807 159.684 92.2632 159.667 91.2456 159.667C90.3509 159.667 89.4561 159.702 88.5614 159.737Z" fill="#A39168"/>
<path d="M99.8772 124.912C99.807 125.491 99.7544 126.053 99.7369 126.614C98.7369 140.316 107.281 142.018 108.754 143.807C109.86 145.158 109.158 146.86 109.158 146.86H113.123L111.228 142.053C111.228 142.053 103.561 141.526 100.754 132.544C101.158 133.509 101.702 134.404 102.351 135.211C105.772 139.491 111.386 140.526 112.825 140.719L115.597 147.982H89.5263C88.5614 147.614 88.5614 146.298 88.5614 146.298V136.597C91.1404 135.807 94.8246 135.281 97.5088 135.246C98.1404 135.228 97.9298 134.579 97.5614 134.579C97.2281 134.579 84.5614 134.579 81.9474 134.579C81.8772 134.544 81.8246 134.509 81.7544 134.474C83.1579 133.702 85.4561 132.158 85.4561 130.526V112.281C85.807 112.105 86.1579 111.912 86.4912 111.702C86.4912 115.667 86.4912 131.035 86.4912 131.526C86.4912 132.105 85.8772 132.404 85.8772 132.404H90.1228C90.1228 132.404 88.5439 132.018 88.5439 131.018C88.5439 130.351 88.5439 113.754 88.5439 111.123H92.6316V98.8421C94.1754 98.7719 95.9825 98.8421 97.6316 99.2281C100.965 100 102.281 102.281 102.351 103.474C101.649 110.123 100.719 118.281 99.8772 124.912Z" fill="#C7B99B"/>
<path d="M116.86 90.2105H80.6316C80.9474 89.7544 81.8421 88.3509 84 88.2105H116.982L116.86 90.2105Z" fill="#A39168"/>
<path d="M86.0702 44.9123H109.965C115.509 44.9123 120.947 46.0702 125.404 48.0877C124.316 47.7544 123.211 47.5088 122.088 47.3509C120.439 47.0877 118.754 47.0176 117.105 47.0351H112.193L102.368 47.0526H92.5263H87.614H86.386C85.9825 47.0526 85.5614 47.0526 85.1228 47.0702C84.6316 47.1053 84.1228 47.1755 83.614 47.2807C83.6316 44.9123 83.807 44.9123 86.0702 44.9123Z" fill="#C7B99B"/>
<path d="M134.632 76.9649C132.86 79.4561 130.456 81.4737 127.754 82.7719C126.404 83.4386 124.965 83.8772 123.526 84.228C122.807 84.4035 122.07 84.5263 121.316 84.5965C120.947 84.6316 120.561 84.6666 120.211 84.6666L119.947 84.6842H119.632H119.035H93.5439C82.2807 84.5789 80.2807 79.4561 80.2807 76.9123C80.2807 75.5614 80.2807 69.9649 80.2807 67.4737L83.7544 67.7017V72.5438C83.7544 75.6842 86.2983 78.2281 89.4211 78.2281H114.509C120.07 78.2281 124.667 74.0877 125.421 68.7544C135.597 69.0702 136.807 71.8245 136.825 72.8596C136.281 74.3333 135.544 75.7017 134.632 76.9649Z" fill="#C7B99B"/>
<path d="M124.719 68.7368C123.982 73.7193 119.684 77.5438 114.509 77.5438H89.4211C86.6843 77.5438 84.4562 75.3158 84.4562 72.5789V66.6667L124.807 67.8947C124.79 68.1228 124.772 68.3684 124.737 68.614L124.702 68.7544C124.719 68.7368 124.719 68.7368 124.719 68.7368Z" fill="#EAE3D6"/>
<path d="M80.2631 66.0526L80.2281 65.5614L80.2105 56.7895V54.3333C80.2105 53.5438 80.2631 52.7544 80.421 51.9824C80.5789 51.2281 80.8421 50.5088 81.2631 49.9123C81.6842 49.3158 82.2631 48.8596 82.9473 48.5614C83.6316 48.2807 84.3859 48.1228 85.1754 48.0877C85.5614 48.0702 85.9649 48.0702 86.3684 48.0702H87.5965H92.5088L102.351 48.0877H112.175H117.088C118.719 48.0702 120.316 48.1754 121.895 48.4386C123.474 48.7017 125.035 49.1052 126.526 49.6842C128.018 50.2631 129.421 51.0175 130.719 51.9474C132 52.8596 133.175 53.9474 134.158 55.1754C135.14 56.4035 135.947 57.7719 136.544 59.2105C137.439 61.3684 137.912 63.7193 137.947 66.0526H80.2631Z" fill="#C7B99B"/>
<path d="M77.4737 87.3509C77.4737 86.614 76.8772 86.0175 76.1404 86.0175C75.4035 86.0175 74.807 86.614 74.807 87.3509C74.807 88.0877 75.4035 88.6842 76.1404 88.6842C76.8948 88.6842 77.4737 88.0877 77.4737 87.3509Z" fill="#EAE3D6"/>
<path d="M84.9649 94.7895C84.9649 94.0351 84.3509 93.4035 83.579 93.4035C82.8246 93.4035 82.193 94.0175 82.193 94.7895C82.193 95.5614 82.807 96.1754 83.579 96.1754C84.3509 96.1754 84.9649 95.5438 84.9649 94.7895Z" fill="#EAE3D6"/>
<path d="M114.421 56.4912C114.421 56.4912 93.614 56.4912 93.0351 56.4912C92.4561 56.4912 92.3509 56.2807 92.3509 55.6666C92.3509 55.1579 92.3509 53.0175 92.3509 53.0175H89.4035C86.4561 53.0175 84.0877 55.4035 84.0877 58.3508V66.421H125.14C124.789 60.4912 120.474 56.4912 114.421 56.4912Z" fill="#EAE3D6"/>
<path d="M114.421 56.193H93.0351C92.7018 56.193 92.7018 56.193 92.7018 55.7018V52.7018H89.4035C86.2807 52.7018 83.7193 55.2456 83.7193 58.3684V63.9825H84.421V58.3684C84.421 55.6316 86.6491 53.386 89.386 53.386H91.9825V55.6842C91.9825 56.2632 92.0526 56.8772 93.0175 56.8772H114.404C119.351 56.8772 123.175 59.6316 124.386 64.0702L125.07 63.8772C123.772 59.1404 119.684 56.193 114.421 56.193Z" fill="#4B3900"/>
<path d="M85.5789 94.9474C85.5614 94.4386 85.3158 93.9298 84.9298 93.614C84.5614 93.2807 84.0702 93.1053 83.5965 93.1053C83.1228 93.0877 82.6316 93.2807 82.2632 93.614C81.8947 93.9474 81.6491 94.4386 81.6316 94.9474C81.5965 95.4561 81.7895 96 82.1579 96.4035C82.5263 96.807 83.0526 97.0526 83.6316 97.0526C83.8772 97.0526 84.1754 97 84.421 96.8947C84.6667 96.7719 84.8947 96.614 85.0877 96.421C85.4386 96 85.614 95.4561 85.5789 94.9474ZM84.386 95.7193C84.2807 95.807 84.1403 95.8772 84.0175 95.9298C83.8772 95.9649 83.7719 96 83.5965 96C83.0702 96.0175 82.4737 95.5789 82.4211 94.9474C82.386 94.6316 82.4912 94.2982 82.7018 94.0526C82.9123 93.807 83.2456 93.6491 83.5965 93.6316C83.9474 93.614 84.2807 93.7895 84.5088 94.0526C84.7193 94.3158 84.807 94.6316 84.7895 94.9474C84.7719 95.2632 84.614 95.5439 84.386 95.7193Z" fill="#4B3900"/>
<path d="M77.2983 86.4211C76.9649 86.1404 76.5614 86 76.1404 85.9825C75.3158 85.9474 74.4737 86.6316 74.4211 87.5614C74.386 88 74.5439 88.4913 74.8597 88.8421C75.1755 89.193 75.6491 89.4211 76.1404 89.4211C76.6316 89.4386 77.1228 89.2106 77.4386 88.8421C77.7544 88.4737 77.9123 88 77.8772 87.5439V87.5264C77.8597 87.1228 77.6316 86.7018 77.2983 86.4211ZM77.2281 87.579C77.193 87.8597 77.0527 88.1053 76.8421 88.2632C76.6316 88.4211 76.4035 88.4913 76.1579 88.5088C75.6667 88.5264 75.1404 88.1579 75.0702 87.5614C75.0351 87.2983 75.1228 86.9825 75.3158 86.7369C75.5088 86.5088 75.8246 86.3509 76.1579 86.3334C76.4737 86.3334 76.807 86.4737 77 86.7193C77.1755 87 77.2632 87.2807 77.2281 87.579Z" fill="#4B3900"/>
<path d="M139.825 66.0527C139.667 63.4737 139.105 60.9123 138 58.5614C136.702 55.7544 134.702 53.3158 132.263 51.4737C127.281 46.8597 118.772 43.8597 109.947 43.8597H86.0351C82.9123 43.8597 82.5439 44.4913 82.5263 47.6316C81.7018 47.9825 80.9649 48.5614 80.4386 49.2983C79.5088 50.3158 78.7895 52.0351 78.386 53.1579V39.9474C78.386 38.7193 77.386 37.7369 76.1754 37.7369C74.9474 37.7369 73.9649 38.7193 73.9649 39.9474V54.4035H72.5614V56.0702H73.8421L72.614 77.4913L72.2982 82.8597L72.1404 85.5439L72.0702 86.8772L72.0351 87.5439C72.0175 87.8246 72.0351 88.0702 72.0702 88.3334C72.2105 89.3509 72.7193 90.3334 73.5263 91C74.2807 91.6667 75.3158 92.0176 76.3333 91.9649C76.4561 92.2281 76.5088 92.5263 76.3333 92.7544L75.1754 92.9474C74.6491 93.0351 74.0702 93.1228 73.5439 93.2983C73 93.4562 72.4561 93.6842 71.9649 94C71.4737 94.3158 71.0175 94.7369 70.7018 95.2632C70.3684 95.772 70.1754 96.3685 70.1053 96.9474C70.0702 97.2456 70.0526 97.5439 70.0526 97.8246C70.0526 98.1228 70.0702 98.3685 70.0877 98.6492L70.2456 101.842H69.2807C69.2807 100.105 69.2807 99.2456 69.2807 97.9474C69.2807 96.4386 65.9649 95.3685 66.6667 98.579C67.0702 100.474 67.579 101.597 67.9298 102.193V103.351C67.579 103.947 67.0702 105.053 66.6667 106.947C65.9649 110.158 69.2807 109.088 69.2807 107.579C69.2807 106.281 69.2807 105.439 69.2807 103.684H70.3333L70.4211 105.158L70.4561 105.649H70.9474H74.7544H75.2807V105.123V103.684H81.614C81.6842 104.456 81.7368 105.228 81.7895 106H79.8421H78.9649V106.877V112.491V113.368L79.8421 113.386C80.9649 113.368 82.1053 113.263 83.2456 113.018C83.6316 112.93 84.0351 112.825 84.4211 112.702V130.526C84.4211 131.684 81.9123 133.298 80.3333 134.035C80.1404 134.123 80.0175 134.316 80.0351 134.526C80.0351 134.737 80.1754 134.93 80.3684 135C81.4211 135.404 84.4211 136.912 84.4211 138.439V160.07C84.4211 160.088 84.4211 160.105 84.4211 160.123C82.193 160.421 79.9825 160.86 77.807 161.474C76.7193 161.79 75.6316 162.158 74.5789 162.614C74.0526 162.842 73.5263 163.088 73.0175 163.386C72.5088 163.684 72.0175 164 71.5965 164.509C71.4912 164.649 71.386 164.79 71.3158 164.982C71.2807 165.07 71.2456 165.175 71.2456 165.298V165.351V165.368V165.404V165.456C71.2456 165.474 71.2632 165.561 71.2807 165.632C71.4035 166.053 71.6316 166.281 71.8597 166.509C72.3158 166.947 72.8246 167.246 73.3333 167.526C74.3509 168.088 75.4211 168.491 76.5088 168.86C78.6667 169.597 80.8947 170.105 83.1404 170.456C83.9649 170.597 84.7895 170.684 85.5965 170.79L85.8246 172.298C86.2982 175.333 86.6491 177.719 86.9474 179.193C87.1579 180.246 87.9123 180.982 88.807 181.053C88.8421 181.053 88.8772 181.053 88.9123 181.053C89.5439 181.053 90.8597 180.702 91.7544 178.088C92.9649 174.526 94.386 171.193 96.5263 170.93V170.895C98.6316 170.684 100.719 170.351 102.772 169.895V169.912L103.421 169.754H103.439C104.123 170.754 107.053 174.982 108.211 176.667C109.509 178.597 111.947 179.351 111.035 176.333C110.246 173.702 109 169.035 108.719 167.93C110.316 167.158 111.404 166.281 111.404 165.368C111.404 164.474 110.316 163.597 108.719 162.807C109.018 161.684 110.246 157.035 111.035 154.386C111.947 151.386 109.509 152.14 108.211 154.053C107.07 155.737 104.14 159.965 103.439 160.965H103.421C103.421 160.965 101.193 160.526 100.404 160.404C99.386 160.246 98.386 160.105 97.3684 160C97.2632 159.982 97.1404 159.982 97.0175 159.965L98.2456 149.053H117.123L113.579 139.772L113.246 139.737C113.175 139.737 106.737 139.053 103.158 134.561C101.175 132.088 100.421 128.877 100.912 125.053C102.526 112.509 104.386 94.4211 104.702 91.2807H117.825L118.035 88.2281H119.018H119.649H119.965L120.316 88.2106C120.789 88.193 121.211 88.1579 121.667 88.1228C122.561 88.0351 123.439 87.8772 124.316 87.6842C126.07 87.2983 127.719 86.579 129.281 85.7193C132.386 83.9825 135 81.4386 136.825 78.4562C138.649 75.4737 139.719 72.0527 139.877 68.5965C139.877 68.5263 139.877 68.4386 139.877 68.3685L141.298 68.4211V66.0702H139.825V66.0527ZM86.0351 44.9123H109.93C115.474 44.9123 120.912 46.0702 125.368 48.0878C124.281 47.7544 123.175 47.5088 122.053 47.3509C120.404 47.0878 118.719 47.0176 117.07 47.0351H112.158L102.333 47.0527H92.4912H87.5789H86.3509C85.9474 47.0527 85.5263 47.0527 85.0877 47.0702C84.579 47.1053 84.0877 47.1755 83.5789 47.2807C83.5965 44.9123 83.7895 44.9123 86.0351 44.9123ZM77.1754 40.5264C77.1754 40.9649 77.1754 41.6667 77.1754 42.8948C77.1754 43.9649 77.1754 52.2632 77.1754 54.386H76.1754C76.1754 52.2807 76.1754 44.2106 76.1754 42.5439C76.1754 42.5439 76.1754 41.1228 75.0351 40.2632C74.3509 39.7369 77.1754 39.3158 77.1754 40.5264ZM76.386 90.5614C75.6667 90.6141 74.9298 90.4211 74.3158 90C73.7193 89.579 73.2456 88.9123 73.1228 88.1579C73.0877 87.9825 73.0702 87.772 73.0877 87.5965L73.1228 86.9299L73.193 85.5965L73.3333 82.9123L73.614 77.5439L74.7544 56.5614H77.5263L79.2105 87.6842C79.2105 88.4737 78.8772 89.193 78.3333 89.7193C77.807 90.2106 77.0877 90.5088 76.386 90.5614ZM75.2807 101.825V100.526H81.2632C81.3158 100.79 81.3509 101.053 81.386 101.333C81.4035 101.491 81.4211 101.649 81.4386 101.825H75.2807ZM82.9474 111.474C82.2281 111.579 81.4737 111.632 80.7193 111.632V107.754H82.7368H83.6842L83.5965 106.807C83.4561 105.544 83.3158 104.281 83.1404 103.018C83.0526 102.386 82.9649 101.754 82.8597 101.105C82.7544 100.474 82.614 99.7895 82.3333 99.1053C82.1754 98.772 81.9825 98.4035 81.7018 98.1053C81.4211 97.807 81.0351 97.5614 80.6491 97.4211C80.2632 97.2807 79.8772 97.2456 79.5263 97.2281C79.4386 97.2281 79.3509 97.2281 79.2632 97.2281H79.0175L78.5439 97.2456C77.2632 97.2983 76 97.3685 74.7368 97.4562L74.2281 97.4913V104.597H71.4386C71.2632 102.597 71.1053 100.579 70.9649 98.579C70.9298 98.0176 70.8772 97.5264 70.9474 97.0351C71 96.5439 71.1579 96.0702 71.4035 95.6667C71.9123 94.8421 72.807 94.2983 73.7895 93.9825C74.2807 93.8246 74.7895 93.7193 75.3333 93.6316L76.9298 93.3509C78 93.1755 79.0702 93.0176 80.1579 92.8948L81.7719 92.7193C82.3158 92.6667 82.8597 92.579 83.3684 92.5614C84.4035 92.5088 85.4386 92.7193 86.193 93.3509C86.9649 93.9649 87.4386 94.9299 87.7368 95.9299C87.8772 96.4386 87.9825 96.9474 88.0702 97.4737C88.1053 97.7369 88.1404 98 88.1579 98.2632L88.2281 99.0702C88.4386 101.228 88.6842 103.386 88.4912 105.491C88.386 106.526 88.1579 107.544 87.7018 108.421C87.2632 109.298 86.5965 110.018 85.7544 110.526C85.5088 110.684 85.2281 110.807 84.9474 110.93C84.807 110.93 84.6842 110.982 84.5789 111.07C84.0526 111.246 83.4912 111.386 82.9474 111.474ZM89.1053 99.193C89.4561 99.1228 90.5439 98.9474 91.9474 98.8597V109.544H88.5088C88.614 109.351 88.7193 109.158 88.807 108.947C89.2982 107.86 89.5088 106.702 89.579 105.579C89.7018 103.386 89.386 101.281 89.1053 99.193ZM81.5614 167.281C76.9825 166.561 73.7544 165.491 73.7544 164.649C73.7544 163.825 76.5614 162.368 81.5614 161.368V167.281ZM90.7368 177.754C90.1579 179.456 89.386 180.035 88.8597 180C88.4386 179.982 88.0702 179.561 87.9474 178.982C87.8246 178.351 87.6842 177.509 87.5088 176.526C88.1579 175.509 89.8597 173.386 93.0702 172.368C92.1228 173.877 91.386 175.86 90.7368 177.754ZM97.2632 160.772C97.8947 160.86 98.5263 160.965 99.1579 161.07C99.7193 161.228 100.246 161.368 100.632 161.474C102.298 161.912 102.719 162.316 102.737 163.298V166.421C99.9825 167.368 95.2632 168.053 91.6491 168.053C88.3158 168.053 85.0526 167.79 82.2456 167.386V161.228C83.9825 160.912 85.9649 160.649 88.1754 160.474C89.193 160.421 90.2105 160.386 91.2281 160.368C92.2281 160.368 93.2456 160.404 94.2456 160.474C95.2632 160.544 96.2632 160.632 97.2632 160.772ZM86.5088 150.825V159.877C86.1579 159.912 85.807 159.947 85.4561 159.982V150.632C85.7719 150.684 86.1228 150.754 86.5088 150.825ZM85.4561 147.982V138.649C85.4386 138.211 85.8421 137.79 86.5088 137.404V146.333C86.5088 146.333 86.5088 147.597 85.7018 147.965H85.4561V147.982ZM88.5614 159.737V151.263C90.6842 151.79 93.4211 152.702 96.5614 154.491L95.9649 159.86C95.4211 159.825 94.8597 159.772 94.2982 159.737C93.2807 159.684 92.2632 159.667 91.2456 159.667C90.3509 159.667 89.4561 159.702 88.5614 159.737ZM99.8772 124.912C99.807 125.491 99.7544 126.053 99.7368 126.614C98.7368 140.316 107.281 142.018 108.754 143.807C109.86 145.158 109.158 146.86 109.158 146.86H113.123L111.228 142.053C111.228 142.053 103.561 141.526 100.754 132.544C101.158 133.509 101.702 134.404 102.351 135.211C105.772 139.491 111.386 140.526 112.825 140.719L115.596 147.982H89.5263C88.5614 147.614 88.5614 146.298 88.5614 146.298V136.597C91.1404 135.807 94.8246 135.281 97.5088 135.246C98.1404 135.228 97.9298 134.579 97.5614 134.579C97.2281 134.579 84.5614 134.579 81.9474 134.579C81.8772 134.544 81.8246 134.509 81.7544 134.474C83.1404 133.702 85.4561 132.158 85.4561 130.526V112.281C85.807 112.105 86.1579 111.912 86.4912 111.702C86.4912 115.667 86.4912 131.035 86.4912 131.526C86.4912 132.105 85.8772 132.404 85.8772 132.404H90.1228C90.1228 132.404 88.5439 132.018 88.5439 131.018C88.5439 130.351 88.5439 113.754 88.5439 111.123H92.6316V98.8421C94.1754 98.772 95.9825 98.8421 97.6316 99.2281C100.965 100 102.281 102.281 102.351 103.474C101.649 110.123 100.719 118.281 99.8772 124.912ZM116.86 90.2106H80.6316C80.9474 89.7544 81.8421 88.3509 84 88.2106H116.982L116.86 90.2106ZM134.614 76.9649C132.842 79.4562 130.439 81.4737 127.737 82.772C126.386 83.4386 124.947 83.8772 123.509 84.2281C122.789 84.4035 122.053 84.5264 121.298 84.5965C120.93 84.6316 120.544 84.6667 120.193 84.6667L119.93 84.6842H119.632H119.035H93.5263C82.2632 84.579 80.2632 79.4562 80.2632 76.9123C80.2632 75.5614 80.2632 69.9649 80.2632 67.4737L83.7368 67.7018V72.5439C83.7368 75.6842 86.2807 78.2281 89.4211 78.2281H114.509C120.07 78.2281 124.667 74.0878 125.421 68.7544C135.596 69.0702 136.807 71.8246 136.825 72.8597C136.246 74.3334 135.509 75.7018 134.614 76.9649ZM124.702 68.7369C123.965 73.7193 119.667 77.5439 114.491 77.5439H89.4035C86.6667 77.5439 84.4386 75.3158 84.4386 72.579V66.6667L124.789 67.8948C124.772 68.1228 124.754 68.3685 124.719 68.6141L124.702 68.7369C124.684 68.7369 124.684 68.7369 124.702 68.7369ZM80.2281 66.0527L80.193 65.5614L80.1754 56.7895V54.3334C80.1754 53.5439 80.2281 52.7544 80.386 51.9825C80.5439 51.2281 80.807 50.5088 81.2281 49.9123C81.6491 49.3158 82.2281 48.8597 82.9123 48.5614C83.5965 48.2807 84.3509 48.1228 85.1404 48.0878C85.5263 48.0702 85.9298 48.0702 86.3333 48.0702H87.5614H92.4737L102.316 48.0878H112.14H117.053C118.684 48.0702 120.281 48.1755 121.86 48.4386C123.439 48.7018 125 49.1053 126.491 49.6842C127.965 50.2632 129.386 51.0176 130.684 51.9474C131.982 52.8597 133.14 53.9474 134.123 55.1755C135.105 56.4035 135.912 57.772 136.509 59.2106C137.404 61.3685 137.877 63.7193 137.912 66.0527H80.2281Z" fill="#4B3900"/>
<path d="M124.298 140.404H125.772V148.772H124.298V140.404Z" fill="#4B3900"/>
<path d="M128 140.404H129.368L133.86 146.193V140.404H135.316V148.772H134.088L129.474 142.807V148.772H128.018V140.404H128Z" fill="#4B3900"/>
<path d="M137.456 140.404H140.579C141.246 140.404 141.842 140.509 142.386 140.719C142.93 140.93 143.404 141.228 143.789 141.596C144.175 141.965 144.491 142.404 144.702 142.912C144.912 143.421 145.018 143.965 145.018 144.561V144.579C145.018 145.175 144.912 145.719 144.702 146.228C144.491 146.737 144.175 147.175 143.789 147.561C143.404 147.93 142.93 148.228 142.386 148.439C141.842 148.649 141.246 148.754 140.579 148.754H137.456V140.404ZM140.579 147.421C141.018 147.421 141.421 147.351 141.772 147.211C142.123 147.07 142.439 146.877 142.684 146.632C142.93 146.386 143.123 146.088 143.263 145.737C143.404 145.386 143.474 145.018 143.474 144.614V144.596C143.474 144.193 143.404 143.807 143.263 143.456C143.123 143.105 142.93 142.807 142.684 142.561C142.439 142.316 142.123 142.105 141.772 141.965C141.404 141.825 141.018 141.754 140.579 141.754H138.93V147.421H140.579V147.421Z" fill="#4B3900"/>
<path d="M146.895 140.404H148.368V148.772H146.895V140.404Z" fill="#4B3900"/>
<path d="M153.579 140.351H154.947L158.632 148.789H157.07L156.228 146.772H152.263L151.403 148.789H149.895L153.579 140.351ZM155.684 145.439L154.228 142.088L152.807 145.439H155.684Z" fill="#4B3900"/>
<path d="M163.649 140.404H166.947C167.439 140.404 167.877 140.474 168.263 140.596C168.667 140.737 169 140.912 169.263 141.158C169.544 141.404 169.754 141.702 169.895 142.035C170.035 142.386 170.123 142.772 170.123 143.193V143.211C170.123 143.684 170.035 144.088 169.86 144.456C169.684 144.807 169.439 145.105 169.14 145.351C168.842 145.596 168.474 145.772 168.07 145.895C167.667 146.018 167.228 146.088 166.772 146.088H165.105V148.772H163.632V140.404H163.649ZM166.842 144.772C167.404 144.772 167.842 144.632 168.158 144.351C168.474 144.07 168.649 143.719 168.649 143.281V143.263C168.649 142.772 168.491 142.386 168.158 142.14C167.825 141.895 167.386 141.772 166.842 141.772H165.14V144.789H166.842V144.772Z" fill="#4B3900"/>
<path d="M173.772 140.351H175.14L178.825 148.789H177.263L176.421 146.772H172.456L171.597 148.789H170.088L173.772 140.351ZM175.877 145.439L174.421 142.088L172.982 145.439H175.877Z" fill="#4B3900"/>
<path d="M180.263 140.404H181.737V147.421H186.14V148.772H180.263V140.404V140.404Z" fill="#4B3900"/>
<path d="M187.667 140.404H193.877V141.719H189.14V143.895H193.333V145.211H189.14V147.456H193.93V148.772H187.667V140.404V140.404Z" fill="#4B3900"/>
<path d="M202.246 140.351H203.614L207.298 148.789H205.737L204.895 146.772H200.93L200.07 148.789H198.561L202.246 140.351ZM204.351 145.439L202.895 142.088L201.456 145.439H204.351Z" fill="#4B3900"/>
<path d="M208.737 140.404H210.211V147.421H214.614V148.772H208.737V140.404V140.404Z" fill="#4B3900"/>
<path d="M216.14 140.404H222.351V141.719H217.614V143.895H221.807V145.211H217.614V147.456H222.404V148.772H216.14V140.404V140.404Z" fill="#4B3900"/>
</svg>
