<svg width="886" height="96" viewBox="0 0 886 96" fill="none" xmlns="http://www.w3.org/2000/svg">
<path fill-rule="evenodd" clip-rule="evenodd" d="M580.673 53.9992C581.213 54.6092 581.713 55.2592 582.133 55.9792L587.993 66.1992H581.743L577.433 58.6892C576.233 56.5992 573.983 55.2992 571.563 55.2992H562.033V49.8792H575.093C579.163 49.8792 582.483 46.5592 582.483 42.4892C582.483 38.4192 579.173 35.0992 575.093 35.0992H562.033V29.6792H575.093C582.153 29.6792 587.903 35.4292 587.903 42.4892C587.903 47.5492 584.943 51.9192 580.673 53.9992ZM517.503 45.7092H532.773C537.423 45.7092 546.163 40.8892 549.183 37.8692L552.963 34.0792V61.7892L549.183 57.9992C544.923 53.7492 537.403 50.1492 532.763 50.1492H517.493V53.5392H513.063V42.3192H517.503V45.7092ZM541.633 47.8392C544.083 48.8892 546.463 50.2492 548.543 51.7192V44.0192C546.523 45.3792 544.103 46.7492 541.633 47.8392Z" fill="black"/>
<path d="M797.863 50.6492H797.793L792.253 35.1992H788.723V60.8292H792.393V45.4292H792.463L798.083 60.8292H801.543V35.1992H797.863V50.6492Z" fill="black"/>
<path d="M823.533 45.3892H823.463L820.513 35.1992H816.623L821.663 49.9992V60.8292H825.333V49.9992L830.373 35.1992H826.483L823.533 45.3892Z" fill="black"/>
<path d="M845.603 60.8292H856.543V57.1592H849.273V49.6392H855.603V46.1792H849.273V38.6592H856.543V35.1992H845.603V60.8292Z" fill="black"/>
<path d="M781.433 44.9591C781.433 43.4391 780.713 42.0991 779.013 42.0991C777.653 42.0991 776.563 43.2191 776.563 44.5791V45.4791H778.193V44.5491C778.193 44.0191 778.513 43.7291 778.993 43.7291C779.793 43.7291 779.793 44.4191 779.793 44.9891C779.793 45.6091 779.793 45.9291 779.503 46.4891L776.563 52.0391V53.5791H781.433V51.9491H778.483L780.883 47.3191C781.403 46.3591 781.433 46.0691 781.433 44.9591Z" fill="black"/>
<path d="M810.173 42.0991C808.873 42.0991 807.743 43.0291 807.743 44.5491V51.2391C807.743 52.7591 808.883 53.6891 810.173 53.6891C811.473 53.6891 812.603 52.7591 812.603 51.2391V44.5491C812.603 43.0291 811.463 42.0991 810.173 42.0991ZM810.973 51.2391C810.973 51.6991 810.633 52.0591 810.173 52.0591C809.713 52.0591 809.373 51.7091 809.373 51.2391V44.5491C809.373 44.0891 809.713 43.7291 810.173 43.7291C810.633 43.7291 810.973 44.0791 810.973 44.5491V51.2391Z" fill="black"/>
<path d="M834.293 43.3992V45.1192L835.923 43.9192V53.5892H837.553V42.1992H835.923L834.293 43.3992Z" fill="black"/>
<path d="M865.563 49.0092C865.913 49.0092 866.143 48.9492 866.253 48.8692L866.283 48.8992L864.423 53.6892H866.253L868.393 47.9592C868.613 47.3492 868.693 47.0292 868.693 45.6192C868.693 44.1292 868.633 43.8092 868.313 43.2992C867.883 42.6092 867.143 42.1992 866.263 42.1992C865.363 42.1992 864.613 42.5992 864.203 43.2992C863.903 43.8092 863.833 44.1292 863.833 45.6192C863.833 47.4292 863.893 47.8292 864.183 48.2792C864.453 48.6892 864.983 49.0092 865.563 49.0092ZM865.463 44.6392C865.463 44.1392 865.843 43.8192 866.263 43.8192C866.683 43.8192 867.063 44.1392 867.063 44.6392V46.7492C867.063 47.2492 866.683 47.5692 866.263 47.5692C865.843 47.5692 865.463 47.2492 865.463 46.7492V44.6392Z" fill="black"/>
<path d="M822.653 21.1091C822.613 21.1091 822.573 21.1091 822.523 21.1091C806.083 21.1091 790.593 23.6891 778.893 28.3791C766.443 33.3691 759.573 40.2991 759.573 47.8891C759.563 55.4791 766.413 62.4191 778.863 67.4291C790.583 72.1491 806.123 74.7591 822.613 74.7691C822.653 74.7691 822.693 74.7691 822.743 74.7691C839.183 74.7691 854.673 72.1891 866.373 67.4991C878.823 62.5091 885.693 55.5791 885.693 47.9891C885.703 32.9491 858.013 21.1391 822.653 21.1091ZM864.513 62.8591C853.393 67.3191 838.563 69.7691 822.743 69.7691C822.703 69.7691 822.663 69.7691 822.613 69.7691C806.753 69.7591 791.873 67.2791 780.723 62.7891C770.453 58.6491 764.563 53.2191 764.563 47.8891C764.563 42.5591 770.463 37.1391 780.743 33.0191C791.863 28.5591 806.693 26.1091 822.513 26.1091C822.553 26.1091 822.593 26.1091 822.643 26.1091C857.373 26.1391 880.693 37.4491 880.683 47.9891C880.693 53.3191 874.793 58.7391 864.513 62.8591Z" fill="black"/>
<path fill-rule="evenodd" clip-rule="evenodd" d="M148.463 47.9392C148.463 26.8892 165.583 9.76917 186.633 9.76917C207.673 9.76917 224.803 26.8892 224.803 47.9392C224.803 68.9891 207.683 86.1091 186.633 86.1091C165.583 86.1091 148.463 68.9891 148.463 47.9392ZM153.463 47.9392C153.463 66.2291 168.343 81.1091 186.633 81.1091C204.923 81.1091 219.803 66.2291 219.803 47.9392C219.803 29.6492 204.923 14.7692 186.633 14.7692C168.343 14.7692 153.463 29.6492 153.463 47.9392ZM203.663 47.7491C203.663 52.8092 200.703 57.1792 196.433 59.2592C196.983 59.8691 197.483 60.5192 197.893 61.2291L203.753 71.4492H197.503L193.193 63.9392C191.993 61.8491 189.743 60.5492 187.323 60.5492H177.793V71.4492H172.373V34.9292H177.793H185.623V19.0692H187.623V34.9392H190.853C197.913 34.9392 203.663 40.6892 203.663 47.7491ZM177.803 55.1392H190.863C194.933 55.1392 198.263 51.8192 198.263 47.7491C198.263 43.6792 194.953 40.3591 190.873 40.3591H187.643V44.7491C189.003 45.1792 190.003 46.4392 190.003 47.9492C190.003 49.8092 188.493 51.3191 186.633 51.3191C184.773 51.3191 183.263 49.8092 183.263 47.9492C183.263 46.4392 184.263 45.1792 185.633 44.7491V40.3591H177.803V55.1392Z" fill="black"/>
<path fill-rule="evenodd" clip-rule="evenodd" d="M451.873 0.14917L452.323 2.08917C454.133 9.95917 455.083 18.8992 455.063 27.9592C455.053 36.9991 454.093 45.9391 452.273 53.7892L451.823 55.7292H412.333L411.883 53.7892C410.073 45.9292 409.123 36.9792 409.133 27.9192C409.143 18.8691 410.103 9.93915 411.923 2.08917L412.373 0.14917H451.873ZM429.233 9.39917H448.643C448.413 7.95917 448.153 6.52917 447.883 5.14917H429.233V9.39917ZM437.573 21.1592V41.4792H442.613V14.3992H429.213V34.7192H426.693V14.3992H421.653V41.4792H435.053V21.1592H437.573ZM442.623 50.7292V46.4792H437.583V50.7292H442.623ZM421.653 5.14917V9.39917H426.693V5.14917H421.653ZM419.133 9.39917V5.14917H416.373C416.093 6.52917 415.833 7.95917 415.603 9.39917H419.133ZM419.133 14.3992H414.923C414.423 18.7792 414.153 23.3292 414.153 27.9292C414.143 32.5292 414.413 37.0892 414.903 41.4792H419.133V14.3992ZM435.053 46.4792H415.583C415.813 47.9192 416.063 49.3492 416.353 50.7292H435.053V46.4792ZM445.143 46.4792V50.7292H447.843C448.123 49.3492 448.383 47.9192 448.613 46.4792H445.143ZM445.143 41.4792H449.303C449.803 37.0992 450.073 32.5492 450.073 27.9492C450.083 23.3492 449.813 18.7892 449.323 14.3992H445.143V41.4792ZM446.913 61.2491L442.643 65.5192C438.433 69.7391 434.873 77.1591 434.873 81.7391V90.7291H443.973V95.7291H420.773V90.7291H429.873V81.7391C429.873 77.1591 425.103 68.5192 422.103 65.5192L417.833 61.2491H446.913ZM435.613 66.2592H428.973C430.143 68.0391 431.303 70.0892 432.273 72.1992C433.213 70.1091 434.363 68.0792 435.613 66.2592Z" fill="black"/>
<path d="M86.2029 30.6291C80.3529 36.4791 64.0829 45.4391 55.0829 45.4391H49.3229H46.6329V40.9891H49.3429V35.9891H22.2729V40.9891H24.9829V45.4391H22.2929H5.24286V42.7491H0.242859V53.1191H5.24286V50.4291H12.9129C11.7029 52.2291 10.9929 54.3991 10.9929 56.7291C10.9929 62.9591 16.0629 68.0191 22.2829 68.0191H49.3229C55.5529 68.0191 60.6129 62.9491 60.6129 56.7291C60.6129 54.5491 59.9829 52.5091 58.9029 50.7791C67.6729 52.2291 79.1029 58.1591 86.1929 65.2491L90.4629 69.5191V26.3591L86.2029 30.6291ZM41.6429 45.4491H38.3129V40.9991H41.6429V45.4491ZM29.9829 40.9991H33.3129V45.4491H29.9829V40.9991ZM49.3329 63.0391H22.2929C18.8229 63.0391 16.0029 60.2191 16.0029 56.7491C16.0029 53.2791 18.8229 50.4491 22.2929 50.4491H49.3329C52.8029 50.4491 55.6229 53.2691 55.6229 56.7491C55.6229 60.2191 52.8029 63.0391 49.3329 63.0391ZM85.4729 57.9591C80.3029 53.8791 73.6829 50.0991 67.1029 47.7791C73.7129 45.2891 80.5829 41.4091 85.4729 37.7691V57.9591Z" fill="black"/>
<path fill-rule="evenodd" clip-rule="evenodd" d="M339.093 45.3091H351.133V50.5591H339.093L347.603 59.0792L343.893 62.7892L335.373 54.2792V66.3192H330.123V29.5592H335.373V41.5992L343.893 33.0892L347.603 36.7991L339.093 45.3091ZM324.533 42.3792C324.533 47.4393 321.573 51.8093 317.303 53.8892C317.843 54.4892 318.353 55.1392 318.763 55.8692L324.623 66.0792H318.373L314.063 58.5692C312.863 56.4792 310.613 55.1793 308.193 55.1793H303.803V66.3192H298.553V54.2792L290.043 62.7892L286.333 59.0792L294.843 50.5692H282.803V45.3192H294.843L286.333 36.8093L290.043 33.0992L298.553 41.6092V29.5692H303.803H311.723C318.783 29.5692 324.533 35.3192 324.533 42.3792ZM303.803 49.7592H311.723C315.803 49.7592 319.113 46.4393 319.113 42.3692C319.113 38.2993 315.803 34.9792 311.723 34.9792H303.803V49.7592Z" fill="black"/>
<path d="M699.653 44.6542C692.513 43.0142 684.493 42.0942 676.303 41.9342V35.2642C676.303 31.7742 679.143 28.9342 682.633 28.9342C686.123 28.9342 688.963 31.7742 688.963 35.2642H693.963C693.963 29.0142 688.883 23.9342 682.633 23.9342C681.493 23.9342 680.383 24.1042 679.343 24.4242L688.563 15.2042L685.023 11.6642L676.293 20.3942V8.0542H671.293V20.3942L662.563 11.6642L659.023 15.2042L668.243 24.4242C667.203 24.1042 666.103 23.9342 664.953 23.9342C658.703 23.9342 653.623 29.0142 653.623 35.2642H658.623C658.623 31.7742 661.463 28.9342 664.953 28.9342C668.443 28.9342 671.283 31.7742 671.283 35.2642V41.9342C663.093 42.1042 655.063 43.0342 647.933 44.6842L645.993 45.1342V84.6242L647.933 85.0742C655.763 86.8742 664.673 87.8242 673.703 87.8242C673.733 87.8242 673.763 87.8242 673.803 87.8242C682.843 87.8142 691.783 86.8542 699.633 85.0342L701.573 84.5842V45.0842L699.653 44.6542ZM696.593 67.8142H692.343V48.3442C693.783 48.5742 695.213 48.8242 696.593 49.1042V67.8142ZM660.263 61.9842H680.583V59.4642H660.263V54.4242H687.343V67.8242H667.023V70.3442H687.343V75.3842H660.263V61.9842V61.9842ZM655.263 59.4542H651.013V54.4142H655.263V59.4542ZM687.343 47.6742V51.8942H660.263V47.6842C664.643 47.1842 669.193 46.9142 673.783 46.9142C678.403 46.9242 682.953 47.1842 687.343 47.6742ZM692.343 70.3342H696.593V75.3742H692.343V70.3342ZM655.263 48.3642V51.8842H651.013V49.1342C652.403 48.8542 653.823 48.5942 655.263 48.3642ZM651.013 61.9842H655.263V81.4042C653.823 81.1742 652.393 80.9242 651.013 80.6342V61.9842ZM673.823 82.8342C673.793 82.8342 673.763 82.8342 673.733 82.8342C669.163 82.8342 664.633 82.5742 660.273 82.0842V77.9042H687.353V82.0642C682.963 82.5642 678.413 82.8242 673.823 82.8342ZM692.343 81.3742V77.9042H696.593V80.6042C695.213 80.8842 693.783 81.1342 692.343 81.3742Z" fill="black"/>
</svg>
