<svg width="182" height="188" viewBox="0 0 182 188" fill="none" xmlns="http://www.w3.org/2000/svg">
<path fill-rule="evenodd" clip-rule="evenodd" d="M122.027 17.8529C122.027 8.15995 114.288 0.260122 104.658 0V20.0919C104.585 20.0145 104.51 19.9379 104.434 19.8621C100.074 15.5022 93.0401 15.4296 88.5913 19.6444L104.652 35.7052C104.654 35.7032 104.656 35.7012 104.658 35.6992V35.706C114.288 35.4459 122.027 27.5461 122.027 17.8529Z" fill="#484659"/>
<path fill-rule="evenodd" clip-rule="evenodd" d="M103.574 58.0347H76.1226C76.4569 45.6544 86.6123 35.7061 99.072 35.7061C111.532 35.7061 121.69 45.6541 122.025 58.0347V63.9241C122.025 69.0151 117.89 73.1483 112.801 73.1483C107.708 73.1483 103.574 69.0151 103.574 63.9241V58.0347Z" fill="url(#paint0_radial)"/>
<path d="M112.807 67.4456C113.831 67.4456 114.661 66.6157 114.661 65.5921C114.661 64.5684 113.831 63.7386 112.807 63.7386C111.784 63.7386 110.954 64.5684 110.954 65.5921C110.954 66.6157 111.784 67.4456 112.807 67.4456Z" fill="#DCDDCB"/>
<path fill-rule="evenodd" clip-rule="evenodd" d="M76.1264 58.0357V75.7194C66.587 75.4617 58.9221 67.6367 58.9221 58.0357H76.1264Z" fill="#484659"/>
<path d="M113.858 72.4966H111.74V90.7875H113.858V72.4966Z" fill="#484659"/>
<path d="M0 118.093V127.693H4.80001V127.639V120.809V119.465H5.29715C7.05144 122.29 8.86283 125.225 10.4 127.693H16.1029V127.639C15.9657 127.419 15.1143 126.185 14.5371 125.335C10.48 119.355 10.1257 118.779 9.93143 118.505V118.423C10.2857 118.285 10.8629 117.874 11.36 117.435C12.2057 116.749 13.3314 115.049 13.3314 112.69C13.3314 108.74 10.8114 107.177 8.9714 106.683C7.73712 106.354 6.36568 106.189 4.6114 106.189C3.86854 106.189 2.55431 106.217 1.94859 106.244C1.23431 106.272 0.468571 106.327 0 106.381V118.093ZM8.42285 113.101C8.42285 114.281 7.81711 115.076 7.32568 115.405C6.85711 115.735 6.22859 115.954 5.5143 115.954C5.26859 115.954 4.9943 115.954 4.80001 115.927V110.468C5.05144 110.441 5.29712 110.413 5.75998 110.413C7.40569 110.413 8.42285 111.401 8.42285 113.074V113.101Z" fill="#484659"/>
<path d="M18.0782 117.764C18.0782 120.288 18.2155 121.961 18.8726 123.415C20.1583 126.322 23.204 128.105 27.404 128.105C31.4326 128.105 34.3411 125.911 35.3811 123.579C36.0668 122.043 36.2611 120.343 36.2611 117.71V115.351V106.354V106.299H33.7925H31.244V117.71C31.244 119.575 31.1069 120.864 30.5583 121.742C29.8954 122.784 28.7183 123.387 27.2897 123.387C25.8383 123.387 24.4955 122.784 23.8612 121.659C23.3983 120.809 23.2611 119.602 23.2611 117.71V115.351V106.354V106.299H20.6554H18.0782V117.764Z" fill="#484659"/>
<path d="M54.9426 121.658C54.9426 118.888 52.9941 116.968 50.8798 116.529V116.474C52.9369 115.871 54.0627 113.951 54.0627 112.031C54.0627 108.328 51.3198 107.121 50.0341 106.737C48.9084 106.408 47.3998 106.216 46.1369 106.216C45.1198 106.216 43.8854 106.216 43.0911 106.271C42.3768 106.298 41.6911 106.353 41.2283 106.408V127.61C41.9654 127.638 42.6284 127.72 42.9255 127.72C43.8341 127.748 44.3826 127.775 45.234 127.775C48.8511 127.775 50.6626 127.364 52.1426 126.486C53.6226 125.608 54.9426 123.825 54.9426 121.686V121.658ZM49.1827 112.525C49.1827 113.622 48.4683 114.253 47.8397 114.472C47.3712 114.637 47.0398 114.664 46.714 114.664C46.4912 114.664 46.217 114.664 45.9198 114.637V110.468C46.1655 110.44 46.6283 110.413 46.8798 110.413C48.2741 110.413 49.1827 111.153 49.1827 112.497V112.525ZM49.7827 121.028C49.7827 122.18 49.0969 122.838 48.4398 123.14C47.9483 123.386 47.3712 123.469 46.9027 123.469C46.5769 123.469 46.194 123.469 45.9426 123.441C45.9197 123.441 45.9198 123.414 45.9198 123.386V118.696C46.1655 118.696 46.6569 118.669 46.8512 118.669C47.234 118.669 47.7826 118.751 48.1655 118.861C48.9883 119.108 49.7827 119.876 49.7827 121V121.028Z" fill="#484659"/>
<path d="M70.2477 115.351C74.6363 107.78 75.2935 106.656 75.4306 106.382V106.299H73.0192H70.0306V106.354C69.9221 106.519 69.1792 107.808 68.0535 109.728C67.1792 111.236 66.3792 112.608 65.8592 113.732H65.8077C65.282 112.608 64.4364 111.099 63.6135 109.618C62.5964 107.808 61.9107 106.601 61.7735 106.354V106.299H59.2248H56.0707V106.354C56.2307 106.656 56.9163 107.808 61.2534 115.351L63.282 118.889V127.694H68.3564V127.639V119.246V118.615L70.2477 115.351Z" fill="#484659"/>
<path d="M84.5966 118.093V127.693H89.3965V127.638V120.808V119.464H89.888C91.6423 122.289 93.4537 125.224 94.9908 127.693H100.694V127.638C100.557 127.419 99.7051 126.184 99.1337 125.334C95.0708 119.355 94.7165 118.779 94.5222 118.504V118.422C94.8822 118.285 95.4536 117.873 95.9508 117.435C96.8022 116.749 97.9223 115.048 97.9223 112.689C97.9223 108.74 95.4022 107.176 93.5622 106.683C92.3279 106.353 90.9566 106.189 89.2023 106.189C88.4594 106.189 87.1451 106.216 86.5394 106.244C85.8308 106.271 85.0594 106.326 84.5966 106.381V118.093ZM93.0137 113.101C93.0137 114.28 92.4137 115.076 91.9166 115.405C91.4537 115.734 90.8194 115.953 90.1051 115.953C89.8594 115.953 89.5851 115.953 89.3965 115.926V110.468C89.6422 110.44 89.888 110.413 90.3566 110.413C92.0023 110.413 93.0137 111.4 93.0137 113.073V113.101Z" fill="#484659"/>
<path d="M108.73 115.351V106.382V106.299H106.176H103.627V127.694H108.73V127.639V118.094V115.351Z" fill="#484659"/>
<path d="M131.772 116.557C131.772 113.43 130.726 109.947 127.406 107.89C125.624 106.793 123.241 106.134 119.978 106.134C118.961 106.134 117.921 106.162 116.601 106.217C115.338 106.272 114.652 106.354 114.104 106.409V127.584C114.681 127.638 115.503 127.693 116.081 127.721C116.961 127.748 118.275 127.776 119.646 127.776C122.498 127.776 125.024 127.172 126.915 125.91C130.012 123.881 131.772 120.672 131.772 116.585V116.557ZM126.503 116.722C126.503 119.273 125.435 121.028 123.955 122.098C122.938 122.811 121.732 123.168 120.498 123.168C120.086 123.168 119.646 123.14 119.235 123.085C119.206 123.085 119.178 123.085 119.178 123.03V110.797C119.538 110.77 120.058 110.715 120.578 110.715C122.224 110.715 123.515 111.154 124.475 111.894C125.846 112.992 126.503 114.747 126.503 116.694V116.722Z" fill="#484659"/>
<path d="M135.888 118.094V127.694H147.431V123.415H147.379H145.294H140.962V122.866V118.999H146.528V116.804V114.747H146.471H144.139H140.962V110.551H147.271V106.299H141.865H135.888V118.094Z" fill="#484659"/>
<path d="M152.148 118.093V127.693H156.948V127.638V120.808V119.464H157.439C159.199 122.289 161.005 125.224 162.542 127.693H168.25V127.638C168.113 127.419 167.262 126.184 166.685 125.334C162.628 119.355 162.268 118.779 162.079 118.504V118.422C162.433 118.285 163.01 117.873 163.502 117.435C164.353 116.749 165.479 115.048 165.479 112.689C165.479 108.74 162.953 107.176 161.119 106.683C159.885 106.353 158.513 106.189 156.753 106.189C156.016 106.189 154.696 106.216 154.096 106.244C153.382 106.271 152.616 106.326 152.148 106.381V118.093ZM160.57 113.101C160.57 114.28 159.965 115.076 159.473 115.405C159.005 115.734 158.376 115.953 157.662 115.953C157.416 115.953 157.142 115.953 156.948 115.926V110.468C157.193 110.44 157.439 110.413 157.908 110.413C159.553 110.413 160.57 111.4 160.57 113.073V113.101Z" fill="#484659"/>
<path d="M181.849 122.015C181.849 119.602 180.752 118.038 179.055 116.447C177.901 115.378 176.969 114.637 176.501 114.116C176.038 113.595 175.735 113.156 175.735 112.443C175.735 111.263 176.775 110.578 178.232 110.578C178.752 110.578 179.164 110.633 179.546 110.715C179.906 110.797 180.341 110.934 180.615 111.044H180.672C180.729 108.685 180.752 108.219 180.809 106.546C180.044 106.299 178.752 106.162 177.764 106.162C172.552 106.162 170.415 109.261 170.415 112.47C170.415 114.829 171.649 116.502 172.826 117.682C173.404 118.258 174.118 118.916 174.969 119.602C175.844 120.315 176.364 121.001 176.364 121.741C176.364 122.975 175.404 123.579 174.089 123.579C173.129 123.579 172.335 123.442 171.678 123.222C171.289 123.085 170.935 122.948 170.581 122.756H170.524C170.444 125.142 170.415 125.691 170.386 127.282C171.426 127.775 173.186 128.022 174.666 128.022C178.832 128.022 181.849 125.609 181.849 122.043V122.015Z" fill="#484659"/>
<path d="M33.3737 149.374C33.3737 148.469 32.9623 147.883 32.3223 147.286C31.888 146.885 31.5394 146.607 31.3679 146.412C31.1908 146.216 31.0765 146.052 31.0765 145.784C31.0765 145.342 31.4709 145.085 32.0137 145.085C32.208 145.085 32.3622 145.105 32.5051 145.136C32.6422 145.167 32.808 145.219 32.9109 145.26H32.9281C32.9509 144.375 32.9623 144.2 32.9794 143.573C32.6937 143.48 32.208 143.429 31.8365 143.429C29.8823 143.429 29.0822 144.591 29.0822 145.795C29.0822 146.679 29.5451 147.307 29.9851 147.749C30.2023 147.965 30.4708 148.212 30.7908 148.469C31.1165 148.736 31.3166 148.993 31.3166 149.271C31.3166 149.734 30.9566 149.96 30.4595 149.96C30.0995 149.96 29.8023 149.909 29.5566 149.826C29.4137 149.775 29.2766 149.724 29.1451 149.652H29.1223C29.0937 150.546 29.0824 150.752 29.0709 151.349C29.4652 151.534 30.1222 151.627 30.6765 151.627C32.2422 151.627 33.3737 150.721 33.3737 149.384V149.374Z" fill="#B63A41"/>
<path d="M45.9931 146.688C46.7988 144.034 46.9188 143.633 46.9531 143.499V143.479H46.0274H45.1531V143.499C45.1188 143.602 44.9359 143.993 44.3816 146.019C44.2445 146.503 44.176 146.79 44.0732 147.243H44.0389C43.856 146.801 43.5874 146.225 43.4045 145.885C42.7017 144.62 42.2903 143.921 42.0732 143.53H41.8102C41.5816 143.931 41.1417 144.682 40.5417 145.824C40.2845 146.307 40.0388 146.842 39.856 147.274H39.8217C39.7188 146.863 39.6046 146.431 39.4503 145.906C38.896 144.024 38.7302 143.612 38.7017 143.499V143.479H37.7875H36.7474V143.499C36.776 143.612 36.9017 144.034 37.7246 146.698L39.2445 151.656H39.5018C41.4675 147.922 41.696 147.408 41.8789 146.893H41.8903C42.0731 147.397 42.2902 147.912 44.2331 151.656H44.4903L45.9931 146.688Z" fill="#B63A41"/>
<path d="M52.5977 146.873V143.509V143.479H51.6377H50.6833V151.501H52.5977V151.481V147.901V146.873Z" fill="#B63A41"/>
<path d="M59.0865 145.073H61.4523V143.479H59.4008H57.1837V151.501H59.0865V151.47V148.786V148.498H61.1723V147.654V146.904H61.1322H60.2579H59.0865V145.073Z" fill="#B63A41"/>
<path d="M67.273 147.901V151.501H69.1759V151.481V147.901V145.083H71.2444V143.479H68.713H67.6273H65.2102V145.083H67.273V147.901Z" fill="#B63A41"/>
<path d="M76.1536 143.438C75.7078 143.438 75.3079 143.788 75.3079 144.282C75.3079 144.703 75.5364 144.981 75.8564 145.074C75.8964 145.094 75.9649 145.105 75.9649 145.166C75.9649 145.362 75.8735 145.639 75.7078 145.907C75.6164 146.051 75.5022 146.205 75.3593 146.359L75.5764 146.596C75.8964 146.411 76.2678 146.082 76.5307 145.711C76.7707 145.393 76.9878 144.889 76.9878 144.415C76.9878 143.726 76.565 143.438 76.165 143.438H76.1536Z" fill="#B63A41"/>
<path d="M88.2461 146.873V143.499V143.479H87.4233H86.4748V146.667C86.4748 146.986 86.4748 147.295 86.4862 147.819H86.4634C85.9376 147.285 85.4748 146.853 85.0119 146.421C84.3262 145.773 83.2976 144.888 81.549 143.407H81.3033V151.502H83.0691V151.481V148.159C83.0691 147.902 83.0691 147.634 83.0519 147.213H83.0691C83.7091 147.861 84.0862 148.21 84.6234 148.694C85.3148 149.321 86.3205 150.195 87.9948 151.605H88.2461V146.873Z" fill="#B63A41"/>
<path d="M102.893 149.373C102.893 148.468 102.481 147.882 101.841 147.285C101.413 146.884 101.058 146.607 100.887 146.411C100.71 146.216 100.596 146.051 100.596 145.784C100.596 145.341 100.99 145.084 101.533 145.084C101.727 145.084 101.881 145.105 102.03 145.136C102.161 145.167 102.327 145.218 102.43 145.259H102.447C102.47 144.375 102.481 144.2 102.498 143.572C102.213 143.48 101.727 143.428 101.361 143.428C99.4069 143.428 98.6013 144.591 98.6013 145.794C98.6013 146.679 99.0641 147.306 99.5098 147.748C99.7212 147.964 99.9899 148.211 100.31 148.468C100.641 148.736 100.836 148.993 100.836 149.271C100.836 149.733 100.476 149.96 99.9784 149.96C99.6184 149.96 99.3212 149.908 99.0755 149.826C98.9326 149.775 98.7955 149.723 98.6641 149.651H98.6413C98.6128 150.546 98.6013 150.752 98.5898 151.348C98.9841 151.533 99.6413 151.626 100.196 151.626C101.761 151.626 102.893 150.721 102.893 149.384V149.373Z" fill="#B63A41"/>
<path d="M108.668 147.901V151.501H110.571V151.481V147.901V145.083H112.633V143.479H110.108H109.016H106.599V145.083H108.668V147.901Z" fill="#B63A41"/>
<path d="M116.674 147.901V151.501H121.005V149.897H120.982H120.2H118.577V149.691V148.241H120.662V147.418V146.647H120.645H119.771H118.577V145.073H120.942V143.479H118.914H116.674V147.901Z" fill="#B63A41"/>
<path d="M129.339 150.35C129.574 150.947 129.757 151.399 129.779 151.471V151.502H131.917V151.471C131.888 151.399 131.694 150.947 130.357 147.892L128.362 143.335H128.094L126.076 147.892C124.716 150.947 124.511 151.399 124.482 151.471V151.502H126.437V151.471C126.465 151.399 126.654 150.947 126.899 150.35H129.339ZM127.477 148.828V148.807C127.899 147.768 128.059 147.295 128.134 147.028H128.145C128.214 147.295 128.368 147.768 128.779 148.807V148.828H127.477Z" fill="#B63A41"/>
<path d="M142.356 147.325C142.356 146.153 141.967 144.847 140.722 144.075C140.053 143.664 139.162 143.417 137.933 143.417C137.556 143.417 137.162 143.427 136.67 143.448C136.196 143.468 135.939 143.499 135.733 143.52V151.46C135.95 151.481 136.259 151.501 136.476 151.512C136.802 151.522 137.299 151.532 137.813 151.532C138.882 151.532 139.83 151.306 140.539 150.833C141.699 150.072 142.356 148.868 142.356 147.336V147.325ZM140.385 147.387C140.385 148.344 139.985 149.002 139.425 149.403C139.047 149.671 138.596 149.804 138.133 149.804C137.979 149.804 137.813 149.794 137.659 149.773C137.647 149.773 137.636 149.773 137.636 149.753V145.165C137.773 145.155 137.967 145.135 138.162 145.135C138.779 145.135 139.265 145.299 139.625 145.577C140.139 145.988 140.385 146.647 140.385 147.377V147.387Z" fill="#B63A41"/>
<path d="M150.583 146.873C152.229 144.034 152.48 143.612 152.531 143.509V143.479H151.623H150.503V143.499C150.463 143.561 150.183 144.044 149.76 144.764C149.434 145.33 149.137 145.844 148.937 146.266H148.92C148.726 145.844 148.406 145.279 148.097 144.723C147.714 144.044 147.457 143.592 147.406 143.499V143.479H146.451H145.269V143.499C145.331 143.612 145.589 144.044 147.211 146.873L147.971 148.2V151.501H149.874V151.481V148.333V148.097L150.583 146.873Z" fill="#B63A41"/>
<path d="M78.3167 179.569C76.1967 183.628 73.6024 185.969 71.5909 185.969C70.2709 185.969 68.8824 184.579 68.8824 181.434C68.8824 179.24 69.5795 176.241 71.1852 173.644C74.2195 168.744 79.4138 165.562 80.2938 166.513C80.7338 166.988 80.2938 168.159 79.7796 169.439C79.5624 169.987 79.3052 170.572 79.1567 171.121C79.0138 171.596 78.9394 172.035 78.9394 172.474C78.9394 173.535 79.4538 174.339 80.1852 174.815C80.9167 175.253 81.4252 174.888 81.6081 174.266C81.8652 173.461 82.3795 172.218 82.9966 170.975C83.3623 170.243 83.5109 169.512 83.5109 168.853C83.5109 167.427 82.5624 166.001 81.3167 164.904C80.6938 164.392 79.8537 164.136 78.9394 164.136C78.0251 164.136 77.0024 164.392 76.0481 164.757C71.9167 166.623 65.3737 173.242 65.5166 180.629C65.5909 183.628 67.088 185.932 68.808 186.847C69.7223 187.359 70.8195 187.615 72.0252 187.615C73.6024 187.615 75.2481 187.176 76.7452 186.115C78.0595 185.128 80.0367 183.007 80.0367 180.885C80.0367 180.52 79.9624 180.081 79.7796 179.679C79.4138 178.837 78.5738 179.057 78.3167 179.569Z" fill="#484659"/>
<path d="M93.645 167.684C93.645 166.733 93.2392 165.709 92.4392 165.014C91.7421 164.356 91.0849 164.575 90.3878 165.27C86.8049 169.037 82.6735 175.802 81.2449 181.873C81.0621 182.605 80.9878 183.336 80.9878 183.958C80.9878 186.481 82.3821 187.761 84.6107 187.761C87.685 187.761 90.3877 184.762 90.9363 183.665C91.4106 182.678 91.4507 181.837 91.3021 181.288C91.045 180.337 90.245 180.337 89.765 181.252C88.3764 183.885 86.2564 186.335 84.5764 186.335C84.0964 186.335 83.8793 185.713 83.8793 184.836C83.8793 183.556 84.3535 181.91 85.0849 180.045C88.302 177.887 92.2906 173.572 93.4221 169.22C93.6049 168.598 93.645 168.196 93.645 167.684ZM91.5935 168.598C91.8164 168.744 91.342 170.353 90.0963 172.438C89.2563 173.864 88.0107 175.546 86.4392 177.082C86.6964 176.461 88.3021 173.718 89.2563 172.109C90.4963 169.951 91.4507 168.525 91.5935 168.598Z" fill="#484659"/>
<path d="M104.617 183.995C105.165 182.934 105.017 181.873 104.874 181.544C104.577 180.849 103.959 180.959 103.594 181.581C102.274 183.885 100.411 186.408 99.2052 186.408C98.7252 186.408 98.5079 186.043 98.5079 185.384C98.5079 183.958 99.9365 181.471 100.994 179.752C102.274 177.631 103.045 176.022 103.045 174.779C103.045 173.974 102.862 173.389 102.497 172.877C102.057 172.255 101.468 172.401 100.959 173.096C99.6394 174.779 98.6908 177.265 96.5308 180.776C94.6679 183.702 92.7309 186.189 91.7766 186.189C90.9766 186.189 91.0851 184.836 91.7423 183.373C93.0223 180.557 95.6908 176.315 95.6908 174.815C95.6908 174.267 95.548 173.645 95.1423 173.133C94.7023 172.584 94.0451 172.511 93.5708 173.133C91.3023 176.315 89.4395 179.972 88.6338 182.276C88.3023 183.153 88.1594 183.995 88.1594 184.799C88.1594 186.372 88.8909 187.761 90.7537 187.761C92.6223 187.761 94.2679 186.628 95.5079 185.238C95.6565 186.884 96.7537 187.944 98.908 187.944C101.177 187.944 103.554 186.079 104.617 183.995Z" fill="#484659"/>
<path d="M113.207 176.021C113.207 177.082 112.801 178.655 111.744 180.739C109.915 184.469 108.487 185.603 107.464 185.603C106.733 185.603 106.11 184.506 106.035 183.445C107.39 180.666 109.035 177.74 110.573 176.131C111.561 175.18 112.253 174.778 112.693 174.778C113.098 174.778 113.207 175.217 113.207 176.021ZM116.315 176.424C116.315 174.339 115.435 172.876 113.424 172.876C112.841 172.876 112.035 173.169 111.378 173.535C112.435 171.669 113.35 170.28 113.898 169.292C114.778 167.72 115.178 166.293 115.178 165.306C115.178 164.721 115.07 164.209 114.813 163.77C114.338 162.929 113.83 162.929 113.281 163.733C110.207 168.268 103.841 180.191 102.784 183.409C102.013 185.749 102.418 186.737 103.001 187.541C103.475 188.163 103.915 188.053 104.247 187.359L104.978 185.749C105.71 186.956 106.95 187.688 108.71 187.688C110.973 187.688 113.281 185.567 114.995 181.763C115.91 179.788 116.315 177.887 116.315 176.424Z" fill="#484659"/>
<defs>
<radialGradient id="paint0_radial" cx="0" cy="0" r="1" gradientUnits="userSpaceOnUse" gradientTransform="translate(103.343 57.1765) rotate(-44.9999) scale(16.9792 15.0329)">
<stop stop-color="#BF3B40"/>
<stop offset="1" stop-color="#484659"/>
</radialGradient>
</defs>
</svg>
