<svg width="113" height="170" viewBox="0 0 113 170" fill="none" xmlns="http://www.w3.org/2000/svg">
<path fill-rule="evenodd" clip-rule="evenodd" d="M112.348 19.5254C112.348 8.74116 103.604 0 92.8461 0H19.5017C8.74347 0 0 8.75409 0 19.5254V150.475C0 161.259 8.74347 170 19.5017 170H92.8331C103.604 170 112.335 161.246 112.335 150.475V19.5254H112.348Z" fill="#B93C41"/>
<path fill-rule="evenodd" clip-rule="evenodd" d="M72.8277 11.4049V36.2965C72.7373 36.1931 72.6469 36.0896 72.5565 35.9991C67.1581 30.607 58.4533 30.5165 52.9515 35.7275L72.8148 55.615C84.7225 55.2917 94.2925 45.5161 94.2925 33.5035C94.3054 21.5038 84.7354 11.7282 72.8277 11.4049Z" fill="white"/>
<path fill-rule="evenodd" clip-rule="evenodd" d="M65.9183 55.615C50.5107 55.615 37.9443 67.9379 37.5311 83.2608H71.4846V90.5537C71.4846 96.4114 75.9016 101.247 81.5842 101.894V123.812H84.2059V101.907C89.8885 101.26 94.3055 96.4243 94.3055 90.5667V83.2738C93.8922 67.9379 81.3259 55.615 65.9183 55.615Z" fill="white"/>
<path fill-rule="evenodd" clip-rule="evenodd" d="M82.9015 90.3339C84.1671 90.3339 85.1874 91.3684 85.1874 92.6227C85.1874 93.8899 84.1542 94.9114 82.9015 94.9114C81.6358 94.9114 80.6155 93.8769 80.6155 92.6227C80.6026 91.3554 81.6358 90.3339 82.9015 90.3339Z" fill="#B93C41"/>
<path fill-rule="evenodd" clip-rule="evenodd" d="M37.5311 83.2738V105.165C25.7268 104.842 16.2471 95.1571 16.2471 83.2738H37.5311Z" fill="white"/>
<path d="M34.1086 140.686C38.7967 139.82 43.3557 137.738 45.6417 135.359C47.2432 133.678 47.8372 131.66 46.9461 129.669C45.9387 127.419 44.079 126.928 41.9222 126.992C39.0938 127.096 35.9296 128.454 32.378 128.777C31.8355 128.842 31.7064 129.01 31.913 129.333C32.4167 130.057 33.1787 130.561 34.6123 130.652C30.8927 135.216 26.9278 141.501 25.8688 144.514C25.236 146.298 25.6622 147.294 26.2433 147.785C26.5404 148.018 26.747 147.979 26.9149 147.656C28.3097 144.94 29.5367 142.858 30.6732 141.113C32.6621 142.833 34.8576 144.979 37.6473 147.953C37.9056 148.251 38.1122 148.147 38.3189 147.888C38.8742 147.229 38.6934 146.104 38.1122 145.212C37.234 143.828 35.71 142.238 34.1086 140.686ZM35.5809 134.208C36.7174 132.553 37.1824 131.402 37.1824 130.471C39.972 129.876 44.1952 128.156 45.1251 130.005C46.352 132.359 41.5735 137.182 32.2488 138.798C33.3853 137.182 34.4444 135.798 35.5809 134.208Z" fill="white"/>
<path d="M73.2152 142.574C75.5399 138.54 75.372 134.635 71.7816 134.635C70.6839 134.635 69.3794 135.165 68.1525 136.018C69.4569 134.195 71.278 131.919 71.9108 130.988C73.6414 128.505 73.6414 127.018 73.0086 126.087C72.6728 125.622 72.337 125.622 71.9495 126.049C69.0566 129.191 60.9072 141.242 59.6544 144.126C58.2467 145.768 56.6711 147.074 55.3021 147.126C53.7781 147.19 53.6102 145.807 54.708 143.919C55.6766 142.238 57.7947 139.755 58.7246 138.268C59.7448 136.613 59.3961 135.165 58.7633 134.57C58.4275 134.234 58.1305 134.311 57.7043 134.764C56.3482 136.186 55.1342 138.462 52.4737 141.837C50.1877 144.708 47.8759 147.022 46.2228 146.932C45.2542 146.867 45.125 145.677 46.0162 144.061C46.9073 142.471 47.7468 141.152 49.3095 139.199C50.8335 137.311 51.0401 135.824 50.1102 134.738C49.7745 134.441 49.3483 134.402 49.0125 134.777C46.2616 137.79 44.1177 141.022 43.1878 143.208C42.2579 145.393 42.3483 147.837 45.3446 148.005C47.7081 148.134 49.9423 146.453 51.4276 144.901C51.0918 146.815 52.1896 148.173 54.9275 148.173C56.4128 148.173 57.9367 147.565 59.2024 146.686C59.3057 147.19 59.5382 147.565 59.8353 147.876C60.0936 148.134 60.3389 148.108 60.5068 147.772C60.8814 147.074 61.3463 146.285 61.7338 145.587C62.4957 147.035 63.9293 147.94 66.1636 147.94C68.6045 147.927 71.2263 146.039 73.2152 142.574ZM64.3426 146.376C63.2061 146.182 62.6507 145.121 62.5732 144.164C64.136 141.617 66.1636 138.876 68.0621 137.324C69.3278 136.303 70.2577 135.941 71.1488 136.005C72.1174 136.07 72.6211 138.087 70.2189 141.824C67.7651 145.651 65.8278 146.647 64.3426 146.376Z" fill="white"/>
<path d="M91.9679 142.445C91.8775 142.108 91.5029 142.147 91.2963 142.38C89.6044 144.203 87.1118 146.078 83.8185 147.475C85.5879 144.268 88.1709 140.298 89.4365 138.384C90.5343 136.703 90.1985 135.281 89.6044 134.686C89.2299 134.415 88.9328 134.492 88.5454 134.919C87.0731 136.6 85.2521 139.587 83.431 142.031C81.2742 144.914 79.1691 147.022 77.516 146.932C76.5473 146.867 76.4569 145.703 77.3093 144.087C78.1101 142.535 79.0399 141.177 80.5639 139.264C82.1266 137.311 82.3849 135.928 81.3646 134.867C81.0676 134.531 80.6414 134.505 80.3056 134.867C77.5676 137.841 75.4883 141.113 74.5584 143.233C73.5898 145.419 73.6673 147.824 76.7152 148.031C78.4071 148.134 80.0086 147.268 81.313 146.208C80.848 146.996 80.4218 147.824 80.0086 148.587C75.8241 149.88 72.2337 151.858 70.9681 154.832C70.1286 156.785 70.9681 157.936 71.8075 158.931C72.6083 159.862 73.409 159.862 74.2097 159.63C77.7097 158.569 80.7189 153.242 83.0823 148.82C86.5823 147.695 89.5398 146.44 91.193 144.384C91.9291 143.505 92.0454 142.742 91.9679 142.445ZM72.6599 157.78C71.8979 156.953 73.7964 152.427 79.2853 149.944C76.6765 154.806 73.2153 158.414 72.6599 157.78Z" fill="white"/>
<path d="M16.6604 17.1978H17.022C20.5995 22.771 21.1548 23.7408 21.6327 24.6976H21.6585C22.1363 23.7666 22.6917 22.8098 26.3466 17.1978H26.7212L27.7156 23.9606C28.3872 28.551 28.5034 29.2622 28.5164 29.3527V29.3786H27.0957H25.5976V29.3527C25.5846 29.2622 25.4555 28.4088 25.1843 26.3269C25.1068 25.7321 25.0035 24.7752 24.9518 23.8571H24.9389C24.4998 24.8011 24.2286 25.3054 23.867 25.9002C23.4795 26.5726 22.7304 27.7622 21.7618 29.2234H21.3873C20.367 27.7234 19.605 26.5079 19.2046 25.8226C18.8688 25.2278 18.5589 24.6588 18.1843 23.8313H18.1714C18.1198 24.7752 18.0165 25.7192 17.939 26.3269C17.6936 28.3829 17.5773 29.2234 17.5644 29.3398V29.3656H16.0921H14.7748V29.3527C14.8006 29.2493 14.9298 28.551 15.6272 23.9606L16.6604 17.1978Z" fill="white"/>
<path d="M34.5864 22.4089V17.3659V17.3401C34.9867 17.2883 35.9166 17.2496 36.614 17.2496C37.0919 17.2496 37.7247 17.2625 38.3059 17.3271C38.9775 17.4047 39.7524 17.5858 40.411 17.9607C41.483 18.5685 42.3612 19.6547 42.3612 21.3745C42.3612 22.202 42.1546 22.9132 41.8446 23.4822C41.4572 24.1675 40.9147 24.6718 40.3077 24.9951C39.9074 25.2149 39.4424 25.37 38.9646 25.4735C38.4221 25.6028 37.8539 25.6416 37.2985 25.6545V26.1071V29.3527V29.3786H35.8391H34.5864V29.3527V23.9606V22.4089ZM39.5845 21.3874C39.5845 20.7926 39.3003 20.3012 38.8742 20.0038C38.5642 19.7969 38.1897 19.6935 37.7635 19.6935C37.6343 19.6935 37.4793 19.6935 37.2985 19.7064V23.2494C37.376 23.2494 37.6731 23.2494 37.7893 23.2365C38.2026 23.2106 38.59 23.0813 38.8742 22.9003C39.0808 22.758 39.2745 22.5641 39.4037 22.2925C39.5328 22.021 39.5845 21.7494 39.5845 21.4132V21.3874Z" fill="white"/>
<path d="M17.2545 41.0291V35.9732V35.9086H18.7397H20.1216V35.9732V41.0291V42.5808V45.5161C20.1216 45.5808 20.1216 45.5937 20.1862 45.5937H22.498H23.1825H23.6474H23.712V48.0117H20.7673H17.2674V47.9341V42.5808V41.0291H17.2545Z" fill="white"/>
<path d="M40.7598 44.8178C40.7598 46.835 39.055 48.1928 36.7045 48.1928C35.865 48.1928 34.8705 48.0505 34.2894 47.779C34.3023 46.8738 34.3152 46.5635 34.3669 45.2187H34.3927C34.5993 45.3221 34.7931 45.3997 35.0126 45.4773C35.3871 45.6066 35.8392 45.6842 36.3816 45.6842C37.1307 45.6842 37.6731 45.348 37.6731 44.6497C37.6731 44.236 37.3761 43.848 36.8853 43.4343C36.4074 43.0463 36.0071 42.6713 35.6713 42.3481C34.9997 41.6757 34.3023 40.7317 34.3023 39.3999C34.3023 37.5896 35.5163 35.831 38.448 35.831C39.0034 35.831 39.7395 35.9086 40.1657 36.0508C40.1399 36.9948 40.114 37.2663 40.0882 38.5982H40.0624C39.9074 38.5335 39.662 38.4559 39.4554 38.4171C39.2358 38.3654 39.0034 38.3396 38.7063 38.3396C37.8797 38.3396 37.2986 38.7275 37.2986 39.3999C37.2986 39.8007 37.4665 40.0464 37.7377 40.3438C37.996 40.6412 38.5255 41.055 39.1842 41.6627C40.1399 42.5679 40.7598 43.4472 40.7598 44.8049V44.8178Z" fill="white"/>
</svg>
