<svg width="164" height="164" viewBox="0 0 164 164" fill="none" xmlns="http://www.w3.org/2000/svg">
<path fill-rule="evenodd" clip-rule="evenodd" d="M82.5 0.0022904L83.027 0.00687121L83.5541 0.0148964L84.0926 0.0263571L84.6084 0.0423987L85.1355 0.0607307L85.6625 0.0813531L86.1895 0.106565L86.7166 0.135204L87.2322 0.166142L87.7595 0.201669L88.275 0.239478L88.7906 0.280732L89.3176 0.325412L89.8332 0.372392L90.3491 0.423961L90.8646 0.477812L91.3802 0.535107L91.8958 0.595829L92.4113 0.65885L92.9157 0.72646L93.4313 0.796353L93.9354 0.868535L94.451 0.945308L94.9553 1.02437L95.4594 1.10687L95.975 1.19281L96.4791 1.28104L96.9832 1.3727L97.4876 1.46781L97.9802 1.56635L98.4843 1.66719L98.9884 1.77031L99.4813 1.87802L99.9854 1.98802L100.478 2.10031L100.971 2.21718L101.464 2.33635L101.956 2.45781L102.449 2.5827L102.942 2.71103L103.423 2.84166L103.916 2.97573L104.408 3.11207L104.89 3.25187L105.371 3.39395L105.852 3.53947L106.333 3.68843L106.815 3.83968L107.296 3.99322L107.777 4.1502L108.247 4.31062L108.728 4.47333L109.198 4.63832L109.679 4.80676L110.149 4.97749L110.619 5.15166L111.088 5.32812L111.558 5.50801L112.017 5.6902L112.486 5.87468L112.945 6.0626L113.403 6.2528L113.873 6.44645L114.331 6.64238L114.789 6.84062L115.237 7.04228L115.695 7.24624L116.153 7.45249L116.6 7.66217L117.047 7.87416L117.505 8.08842L117.941 8.30613L118.388 8.52614L118.834 8.74843L119.281 8.97415L119.717 9.20103L120.164 9.43134L120.599 9.6651L121.034 9.89998L121.47 10.1383L121.905 10.379L122.329 10.6219L122.764 10.8671L123.189 11.1157L123.624 11.3667L124.048 11.6199L124.472 11.8754L124.884 12.1332L125.308 12.3933L125.721 12.6569L126.145 12.9227L126.557 13.1897L126.97 13.4601L127.382 13.7328L127.795 14.0078L128.196 14.2862L128.608 14.5658L129.009 14.8477L129.41 15.133L129.811 15.4194L130.212 15.7094L130.614 16.0004L131.003 16.2949L131.404 16.5905L131.794 16.8896L132.183 17.1909L132.573 17.4934L132.951 17.7994L133.341 18.1076L133.719 18.417L134.108 18.7298L134.487 19.0437L134.865 19.36L135.231 19.6797L135.609 20.0005L135.976 20.3236L136.343 20.649L136.709 20.9767L137.076 21.3067L137.443 21.639L137.798 21.9725L138.165 22.3093L138.52 22.6474L138.875 22.9877L139.23 23.3303L139.574 23.6752L139.929 24.0212L140.273 24.3707L140.617 24.7213L140.96 25.0742L141.304 25.4294L141.637 25.7858L141.98 26.1456L142.312 26.5065L142.645 26.8698L142.977 27.2341L143.298 27.6019L143.63 27.9709L143.951 28.341L144.272 28.7145L144.593 29.0892L144.902 29.4662L145.223 29.8443L145.532 30.2247L145.842 30.6075L146.151 30.9913L146.46 31.3786L146.758 31.7659L147.056 32.1566L147.354 32.5485L147.652 32.9415L147.95 33.3368L148.237 33.7344L148.534 34.1332L148.809 34.5342L149.096 34.9376L149.382 35.342L149.669 35.7477L149.944 36.1556L150.219 36.5658L150.494 36.9771L150.757 37.3908L151.021 37.8056L151.296 38.2215L151.559 38.6409L151.811 39.0603L152.075 39.4819L152.327 39.9059L152.579 40.331L152.831 40.7572L153.083 41.1858L153.324 41.6155L153.565 42.0474L153.805 42.4806L154.046 42.9148L154.286 43.3514L154.516 43.7891L154.745 44.2291L154.974 44.6702L155.203 45.1125L155.421 45.5571L155.639 46.0017L155.856 46.4497L156.074 46.8977L156.28 47.3481L156.498 47.7995L156.704 48.2533L156.91 48.7082L157.105 49.1642L157.3 49.6214L157.506 50.0797L157.701 50.5403L157.884 51.0021L158.068 51.465L158.263 51.9302L158.446 52.3966L158.618 52.8629L158.801 53.3327L158.973 53.8025L159.145 54.2735L159.305 54.7467L159.477 55.2199L159.638 55.6954L159.798 56.1721L159.958 56.6511L160.107 57.13L160.256 57.6101L160.405 58.0925L160.554 58.5749L160.692 59.0596L160.841 59.5454L160.978 60.0313L161.104 60.5194L161.242 61.0087L161.368 61.4991L161.494 61.9906L161.608 62.4833L161.734 62.9772L161.849 63.4722L161.964 63.9683L162.067 64.4656L162.181 64.9641L162.284 65.4637L162.387 65.9644L162.479 66.4663L162.571 66.9693L162.662 67.4734L162.754 67.9776L162.846 68.4841L162.926 68.9905L163.006 69.4993L163.075 70.008L163.155 70.5179L163.224 71.029L163.293 71.5411L163.35 72.0545L163.419 72.569L163.464 73.0834L163.522 73.6002L163.579 74.117L163.625 74.6349L163.671 75.1528L163.705 75.673L163.751 76.1932L163.785 76.7146L163.808 77.2371L163.843 77.7607L163.866 78.2844L163.889 78.8092L163.912 79.3351L163.923 79.8622L163.934 80.3893L163.946 80.9175V81.4469V81.9762V82.5056V83.035L163.934 83.5632L163.923 84.0903L163.912 84.6174L163.889 85.1433L163.866 85.6681L163.843 86.1917L163.808 86.7154L163.785 87.2379L163.751 87.7593L163.705 88.2795L163.671 88.7997L163.625 89.3176L163.579 89.8355L163.522 90.3534L163.464 90.869L163.419 91.3835L163.35 91.898L163.293 92.4113L163.224 92.9235L163.155 93.4345L163.075 93.9444L163.006 94.4532L162.926 94.9619L162.846 95.4684L162.754 95.9749L162.662 96.479L162.571 96.9832L162.479 97.4862L162.387 97.9881L162.284 98.4888L162.181 98.9884L162.067 99.4868L161.964 99.9841L161.849 100.48L161.734 100.975L161.608 101.469L161.494 101.962L161.368 102.453L161.242 102.944L161.104 103.433L160.978 103.921L160.841 104.407L160.692 104.893L160.554 105.378L160.405 105.86L160.256 106.342L160.107 106.822L159.958 107.303L159.798 107.78L159.638 108.257L159.477 108.733L159.305 109.206L159.145 109.679L158.973 110.15L158.801 110.621L158.618 111.09L158.446 111.556L158.263 112.022L158.068 112.487L157.884 112.95L157.701 113.412L157.506 113.873L157.3 114.331L157.105 114.788L156.91 115.244L156.704 115.699L156.498 116.153L156.28 116.604L156.074 117.055L155.856 117.503L155.639 117.951L155.421 118.396L155.203 118.84L154.974 119.282L154.745 119.723L154.516 120.163L154.286 120.601L154.046 121.038L153.805 121.472L153.565 121.905L153.324 122.337L153.083 122.767L152.831 123.195L152.579 123.621L152.327 124.047L152.075 124.471L151.811 124.892L151.559 125.313L151.296 125.731L151.021 126.147L150.757 126.562L150.494 126.975L150.219 127.387L149.944 127.797L149.669 128.205L149.382 128.61L149.096 129.015L148.809 129.418L148.534 129.819L148.237 130.218L147.95 130.616L147.652 131.011L147.354 131.405L147.056 131.796L146.758 132.187L146.46 132.575L146.151 132.961L145.842 133.345L145.532 133.728L145.223 134.108L144.902 134.486L144.593 134.863L144.272 135.238L143.951 135.611L143.63 135.983L143.298 136.352L142.977 136.718L142.645 137.083L142.312 137.446L141.98 137.807L141.637 138.167L141.304 138.523L140.96 138.878L140.617 139.231L140.273 139.582L139.929 139.931L139.574 140.277L139.23 140.622L138.875 140.965L138.52 141.305L138.165 141.643L137.798 141.98L137.443 142.313L137.076 142.646L136.709 142.976L136.343 143.303L135.976 143.629L135.609 143.952L135.231 144.273L134.865 144.592L134.487 144.909L134.108 145.224L133.719 145.536L133.341 145.846L132.951 146.153L132.573 146.459L132.183 146.762L131.794 147.063L131.404 147.362L131.003 147.658L130.614 147.952L130.212 148.243L129.811 148.533L129.41 148.819L129.009 149.105L128.608 149.387L128.196 149.666L127.795 149.945L127.382 150.22L126.97 150.492L126.557 150.763L126.145 151.03L125.721 151.296L125.308 151.559L124.884 151.819L124.472 152.077L124.048 152.333L123.624 152.586L123.189 152.837L122.764 153.085L122.329 153.331L121.905 153.574L121.47 153.814L121.034 154.053L120.599 154.287L120.164 154.521L119.717 154.751L119.281 154.978L118.834 155.204L118.388 155.426L117.941 155.646L117.505 155.864L117.047 156.078L116.6 156.29L116.153 156.5L115.695 156.706L115.237 156.91L114.789 157.112L114.331 157.31L113.873 157.506L113.403 157.7L112.945 157.89L112.486 158.078L112.017 158.262L111.558 158.444L111.088 158.624L110.619 158.801L110.149 158.975L109.679 159.146L109.198 159.314L108.728 159.479L108.247 159.642L107.777 159.802L107.296 159.959L106.815 160.113L106.333 160.264L105.852 160.413L105.371 160.559L104.89 160.701L104.408 160.84L103.916 160.977L103.423 161.111L102.942 161.241L102.449 161.37L101.956 161.495L101.464 161.617L100.971 161.735L100.478 161.852L99.9854 161.964L99.4813 162.074L98.9884 162.182L98.4843 162.285L97.9802 162.386L97.4876 162.485L96.9832 162.58L96.4791 162.671L95.975 162.76L95.4594 162.846L94.9553 162.928L94.451 163.007L93.9354 163.084L93.4313 163.156L92.9157 163.226L92.4113 163.294L91.8958 163.357L91.3802 163.417L90.8646 163.475L90.3491 163.529L89.8332 163.58L89.3176 163.627L88.7906 163.672L88.275 163.713L87.7595 163.751L87.2322 163.786L86.7166 163.817L86.1895 163.846L85.6625 163.871L85.1355 163.892L84.6084 163.91L84.0926 163.926L83.5541 163.938L83.027 163.946L82.5 163.951L81.973 163.952L81.4459 163.951L80.9189 163.946L80.3801 163.938L79.8531 163.926L79.326 163.91L78.8104 163.892L78.2834 163.871L77.7564 163.846L77.229 163.817L76.7135 163.786L76.1864 163.751L75.6709 163.713L75.1553 163.672L74.628 163.627L74.1124 163.58L73.5968 163.529L73.0813 163.475L72.5657 163.417L72.0499 163.357L71.5343 163.294L71.0302 163.226L70.5146 163.156L69.9991 163.084L69.4947 163.007L68.9906 162.928L68.475 162.846L67.9709 162.76L67.4665 162.671L66.9624 162.58L66.4583 162.485L65.9657 162.386L65.4613 162.285L64.9572 162.182L64.4646 162.074L63.9605 161.964L63.4676 161.852L62.975 161.735L62.4823 161.617L61.9897 161.495L61.4968 161.37L61.0042 161.241L60.5115 161.111L60.0301 160.977L59.5375 160.84L59.0563 160.701L58.5751 160.559L58.0937 160.413L57.6011 160.264L57.1314 160.113L56.6499 159.959L56.1688 159.802L55.6876 159.642L55.2176 159.479L54.7479 159.314L54.2668 159.146L53.7968 158.975L53.3271 158.801L52.8572 158.624L52.3875 158.444L51.9292 158.262L51.4593 158.078L51.001 157.89L50.5314 157.7L50.0729 157.506L49.6146 157.31L49.1561 157.112L48.7094 156.91L48.2512 156.706L47.7927 156.5L47.3459 156.29L46.8989 156.078L46.4407 155.864L45.9936 155.646L45.5583 155.426L45.1116 155.204L44.6646 154.978L44.2293 154.751L43.7822 154.521L43.347 154.287L42.9114 154.053L42.4761 153.814L42.0406 153.574L41.6167 153.331L41.1812 153.085L40.7574 152.837L40.3218 152.586L39.898 152.333L39.4739 152.077L39.0616 151.819L38.6375 151.559L38.2137 151.296L37.801 151.03L37.3884 150.763L36.9761 150.492L36.5634 150.22L36.1511 149.945L35.7385 149.666L35.3376 149.387L34.9364 149.105L34.5353 148.819L34.1229 148.533L33.7333 148.243L33.3324 147.952L32.9312 147.658L32.5416 147.362L32.1521 147.063L31.7625 146.762L31.3728 146.459L30.9834 146.153L30.6052 145.846L30.2158 145.536L29.8375 145.224L29.4593 144.909L29.0811 144.592L28.7146 144.273L28.3364 143.952L27.9697 143.629L27.6032 143.303L27.225 142.976L26.8697 142.646L26.503 142.313L26.1365 141.98L25.7812 141.643L25.426 141.305L25.0707 140.965L24.7157 140.622L24.3604 140.277L24.0166 139.931L23.6728 139.582L23.3293 139.231L22.9855 138.878L22.6417 138.523L22.3093 138.167L21.9655 137.807L21.6332 137.446L21.3011 137.083L20.9688 136.718L20.6479 136.352L20.3156 135.983L19.9947 135.611L19.6739 135.238L19.353 134.863L19.0439 134.486L18.723 134.108L18.4136 133.728L18.1042 133.345L17.7948 132.961L17.4854 132.575L17.1875 132.187L16.8896 131.796L16.5916 131.405L16.2937 131.011L15.9958 130.616L15.7093 130.218L15.4114 129.819L15.1249 129.418L14.8385 129.015L14.5635 128.61L14.277 128.205L14.002 127.797L13.7271 127.387L13.4521 126.975L13.1886 126.562L12.9136 126.147L12.65 125.731L12.3865 125.313L12.1345 124.892L11.871 124.471L11.6186 124.047L11.3666 123.621L11.1145 123.195L10.8625 122.767L10.6219 122.337L10.3698 121.905L10.1293 121.472L9.89988 121.038L9.6593 120.601L9.43019 120.163L9.20107 119.723L8.97196 119.282L8.74257 118.84L8.52493 118.396L8.29582 117.951L8.08965 117.503L7.87201 117.055L7.65409 116.604L7.44792 116.153L7.24174 115.699L7.03529 115.244L6.84059 114.788L6.63442 114.331L6.43972 113.873L6.24474 113.412L6.0615 112.95L5.8668 112.487L5.68329 112.022L5.50006 111.556L5.32801 111.09L5.14478 110.621L4.97302 110.15L4.80097 109.679L4.62921 109.206L4.46864 108.733L4.30834 108.257L4.14805 107.78L3.98748 107.303L3.83865 106.822L3.68955 106.342L3.54073 105.86L3.39162 105.378L3.2428 104.893L3.10516 104.407L2.96781 103.921L2.84164 103.433L2.70429 102.944L2.57812 102.453L2.45196 101.962L2.32608 101.469L2.21138 100.975L2.09696 100.48L1.98227 99.9841L1.87904 99.4868L1.76463 98.9884L1.6614 98.4888L1.55846 97.9881L1.4667 97.4862L1.37494 96.9832L1.28347 96.479L1.19171 95.9749L1.09996 95.4684L1.01967 94.9619L0.939662 94.4532L0.870844 93.9444L0.790558 93.4345L0.721741 92.9235L0.653203 92.4113L0.595856 91.898L0.527039 91.3835L0.469691 90.869L0.424093 90.3534L0.366745 89.8355L0.320867 89.3176L0.274989 88.7997L0.229111 88.2795L0.194702 87.7593L0.160294 87.2379L0.126165 86.7154L0.103226 86.1917L0.0802867 85.6681L0.0573476 85.1433L0.0344086 84.6174L0.022939 84.0903L0.0114695 83.5632L0 83.035V82.5056V81.9762V81.4469V80.9175L0.0114695 80.3893L0.022939 79.8622L0.0344086 79.3351L0.0573476 78.8092L0.0802867 78.2844L0.103226 77.7607L0.126165 77.2371L0.160294 76.7146L0.194702 76.1932L0.229111 75.673L0.274989 75.1528L0.320867 74.6349L0.366745 74.117L0.424093 73.6002L0.469691 73.0834L0.527039 72.569L0.595856 72.0545L0.653203 71.5411L0.721741 71.029L0.790558 70.5179L0.870844 70.008L0.939662 69.4993L1.01967 68.9905L1.09996 68.4841L1.19171 67.9776L1.28347 67.4734L1.37494 66.9693L1.4667 66.4663L1.55846 65.9644L1.6614 65.4637L1.76463 64.9641L1.87904 64.4656L1.98227 63.9683L2.09696 63.4722L2.21138 62.9772L2.32608 62.4833L2.45196 61.9906L2.57812 61.4991L2.70429 61.0087L2.84164 60.5194L2.96781 60.0313L3.10516 59.5454L3.2428 59.0596L3.39162 58.5749L3.54073 58.0925L3.68955 57.6101L3.83865 57.13L3.98748 56.6511L4.14805 56.1721L4.30834 55.6954L4.46864 55.2199L4.62921 54.7467L4.80097 54.2735L4.97302 53.8025L5.14478 53.3327L5.32801 52.8629L5.50006 52.3966L5.68329 51.9302L5.8668 51.465L6.0615 51.0021L6.24474 50.5403L6.43972 50.0797L6.63442 49.6214L6.84059 49.1642L7.03529 48.7082L7.24174 48.2533L7.44792 47.7995L7.65409 47.3481L7.87201 46.8977L8.08965 46.4497L8.29582 46.0017L8.52493 45.5571L8.74257 45.1125L8.97196 44.6702L9.20107 44.2291L9.43019 43.7891L9.6593 43.3514L9.89988 42.9148L10.1293 42.4806L10.3698 42.0474L10.6219 41.6155L10.8625 41.1858L11.1145 40.7572L11.3666 40.331L11.6186 39.9059L11.871 39.4819L12.1345 39.0603L12.3865 38.6409L12.65 38.2215L12.9136 37.8056L13.1886 37.3908L13.4521 36.9771L13.7271 36.5658L14.002 36.1556L14.277 35.7477L14.5635 35.342L14.8385 34.9376L15.1249 34.5342L15.4114 34.1332L15.7093 33.7344L15.9958 33.3368L16.2937 32.9415L16.5916 32.5485L16.8896 32.1566L17.1875 31.7659L17.4854 31.3786L17.7948 30.9913L18.1042 30.6075L18.4136 30.2247L18.723 29.8443L19.0439 29.4662L19.353 29.0892L19.6739 28.7145L19.9947 28.341L20.3156 27.9709L20.6479 27.6019L20.9688 27.2341L21.3011 26.8698L21.6332 26.5065L21.9655 26.1456L22.3093 25.7858L22.6417 25.4294L22.9855 25.0742L23.3293 24.7213L23.6728 24.3707L24.0166 24.0212L24.3604 23.6752L24.7157 23.3303L25.0707 22.9877L25.426 22.6474L25.7812 22.3093L26.1365 21.9725L26.503 21.639L26.8697 21.3067L27.225 20.9767L27.6032 20.649L27.9697 20.3236L28.3364 20.0005L28.7146 19.6797L29.0811 19.36L29.4593 19.0437L29.8375 18.7298L30.2158 18.417L30.6052 18.1076L30.9834 17.7994L31.3728 17.4934L31.7625 17.1909L32.1521 16.8896L32.5416 16.5905L32.9312 16.2949L33.3324 16.0004L33.7333 15.7094L34.1229 15.4194L34.5353 15.133L34.9364 14.8477L35.3376 14.5658L35.7385 14.2862L36.1511 14.0078L36.5634 13.7328L36.9761 13.4601L37.3884 13.1897L37.801 12.9227L38.2137 12.6569L38.6375 12.3933L39.0616 12.1332L39.4739 11.8754L39.898 11.6199L40.3218 11.3667L40.7574 11.1157L41.1812 10.8671L41.6167 10.6219L42.0406 10.379L42.4761 10.1383L42.9114 9.89998L43.347 9.6651L43.7822 9.43134L44.2293 9.20103L44.6646 8.97415L45.1116 8.74843L45.5583 8.52614L45.9936 8.30613L46.4407 8.08842L46.8989 7.87416L47.3459 7.66217L47.7927 7.45249L48.2512 7.24624L48.7094 7.04228L49.1561 6.84062L49.6146 6.64238L50.0729 6.44645L50.5314 6.2528L51.001 6.0626L51.4593 5.87468L51.9292 5.6902L52.3875 5.50801L52.8572 5.32812L53.3271 5.15166L53.7968 4.97749L54.2668 4.80676L54.7479 4.63832L55.2176 4.47333L55.6876 4.31062L56.1688 4.1502L56.6499 3.99322L57.1314 3.83968L57.6011 3.68843L58.0937 3.53947L58.5751 3.39395L59.0563 3.25187L59.5375 3.11207L60.0301 2.97573L60.5115 2.84166L61.0042 2.71103L61.4968 2.5827L61.9897 2.45781L62.4823 2.33635L62.975 2.21718L63.4676 2.10031L63.9605 1.98802L64.4646 1.87802L64.9572 1.77031L65.4613 1.66719L65.9657 1.56635L66.4583 1.46781L66.9624 1.3727L67.4665 1.28104L67.9709 1.19281L68.475 1.10687L68.9906 1.02437L69.4947 0.945308L69.9991 0.868535L70.5146 0.796353L71.0302 0.72646L71.5343 0.65885L72.0499 0.595829L72.5657 0.535107L73.0813 0.477812L73.5968 0.423961L74.1124 0.372392L74.628 0.325412L75.1553 0.280732L75.6709 0.239478L76.1864 0.201669L76.7135 0.166142L77.229 0.135204L77.7564 0.106565L78.2834 0.0813531L78.8104 0.0607307L79.326 0.0423987L79.8531 0.0263571L80.3801 0.0148964L80.9189 0.00687121L81.4459 0.0022904L81.973 0L82.5 0.0022904ZM81.503 9.1678L81.0333 9.17238L80.5636 9.1804L80.0936 9.19071L79.6239 9.20446L79.1543 9.2205L78.6843 9.23999L78.2146 9.26176L77.7564 9.28696L77.2864 9.31446L76.8282 9.3454L76.3697 9.37977L75.9 9.41645L75.4418 9.4554L74.9833 9.4978L74.525 9.54363L74.0665 9.59176L73.6083 9.64217L73.1501 9.69603L72.6916 9.75217L72.2448 9.81175L71.7863 9.87363L71.3281 9.93895L70.8814 10.0065L70.4343 10.0776L69.9761 10.1498L69.5291 10.2265L69.0823 10.3045L68.6353 10.387L68.1885 10.4706L67.7418 10.5577L67.2948 10.6471L66.8595 10.7387L66.4125 10.8338L65.9772 10.9312L65.5301 11.0321L65.0949 11.1352L64.6593 11.2406L64.2125 11.3495L63.777 11.4595L63.3417 11.5729L62.9176 11.6898L62.4823 11.8078L62.0468 11.9293L61.6115 12.053L61.1874 12.1802L60.7636 12.3085L60.328 12.4403L59.9042 12.5744L59.4801 12.7119L59.0563 12.8505L58.6322 12.9926L58.2084 13.137L57.7843 13.2836L57.3719 13.4326L56.9479 13.585L56.5355 13.7397L56.1229 13.8955L55.7105 14.0548L55.2865 14.2175L54.8738 14.3813L54.473 14.5475L54.0603 14.7159L53.648 14.8878L53.2468 15.062L52.8345 15.2384L52.4333 15.4172L52.0322 15.5982L51.6198 15.7815L51.2187 15.9672L50.8293 16.1551L50.4281 16.3464L50.027 16.5389L49.6376 16.7349L49.2364 16.932L48.8467 17.1313L48.4573 17.3341L48.0676 17.5381L47.6782 17.7443L47.2886 17.954L46.8989 18.166L46.5209 18.3791L46.1313 18.5946L45.753 18.8134L45.3751 19.0334L44.9969 19.2568L44.6187 19.4814L44.2407 19.7083L43.8625 19.9375L43.4958 20.1689L43.1176 20.4027L42.7511 20.6387L42.3844 20.8759L42.0176 21.1165L41.6512 21.3594L41.2844 21.6035L40.9177 21.8499L40.5624 22.0974L40.2074 22.3494L39.8406 22.6027L39.4854 22.8571L39.1301 23.1149L38.7751 23.3738L38.4313 23.6351L38.076 23.8986L37.7322 24.1633L37.3884 24.4314L37.0449 24.6995L36.7011 24.9723L36.3573 25.2461L36.0135 25.5211L35.6811 25.7984L35.3376 26.078L35.0053 26.3587L34.6729 26.644L34.3406 26.9293L34.0083 27.2158L33.6759 27.5057L33.3553 27.7967L33.0345 28.0901L32.7136 28.3845L32.3813 28.6825L32.0719 28.9804L31.751 29.2817L31.4301 29.5842L31.1207 29.889L30.8113 30.1961L30.5022 30.5032L30.1928 30.8137L29.8834 31.1265L29.5855 31.4393L29.2761 31.7556L28.9782 32.0718L28.6802 32.3904L28.3823 32.7124L28.0844 33.0366L27.7865 33.3598L27.5 33.6852L27.2135 34.0129L26.9271 34.344L26.6406 34.6752L26.3542 35.0086L26.0792 35.3432L25.7927 35.6789L25.5177 36.0181L25.2427 36.3572L24.9678 36.6998L24.6928 37.0424L24.4292 37.3873L24.1543 37.7357L23.8907 38.0817L23.6272 38.4323L23.3634 38.7853L23.1114 39.137L22.8478 39.4922L22.5958 39.8486L22.3437 40.2061L22.0917 40.5647L21.8511 40.9257L21.5991 41.29L21.3582 41.6521L21.1176 42.0188L20.877 42.3855L20.6365 42.7544L20.3959 43.1245L20.1668 43.4946L19.9374 43.8693L19.7083 44.2452L19.4792 44.6198L19.2501 44.9968L19.0324 45.3761L18.803 45.7576L18.5854 46.1392L18.3792 46.5219L18.1616 46.9058L17.9436 47.2919L17.7375 47.6792L17.5313 48.0688L17.3251 48.4595L17.1302 48.8514L16.924 49.2444L16.7293 49.6374L16.5343 50.0327L16.3396 50.4303L16.1564 50.8302L15.9614 51.229L15.7781 51.6289L15.5949 52.0311L15.4114 52.4344L15.2396 52.84L15.0561 53.2457L14.8844 53.6536L14.7126 54.0626L14.5406 54.4728L14.3803 54.883L14.2082 55.2944L14.0479 55.7092L13.8876 56.1228L13.7385 56.5376L13.5782 56.957L13.4291 57.3752L13.2803 57.7946L13.1312 58.2151L12.9938 58.6368L12.8447 59.0585L12.7074 59.4824L12.5698 59.9087L12.4324 60.3338L12.3062 60.7623L12.1801 61.192L12.0427 61.6217L11.928 62.0514L11.8021 62.4833L11.6874 62.9165L11.573 63.3496L11.4583 63.785L11.3436 64.2216L11.2407 64.6593L11.126 65.0981L11.0231 65.5358L10.9313 65.9747L10.8281 66.4181L10.7366 66.8616L10.6448 67.3039L10.5531 67.7473L10.4613 68.193L10.3813 68.6387L10.301 69.0856L10.2207 69.5348L10.1522 69.984L10.0719 70.4343L10.0031 70.8869L9.93428 71.3372L9.86575 71.7886L9.8084 72.2447L9.75105 72.6984L9.6937 73.1533L9.63636 73.6117L9.59076 74.0689L9.54488 74.5272L9.48753 74.9867L9.45312 75.4473L9.40725 75.9079L9.37284 76.3685L9.33843 76.8315L9.31549 77.2967L9.28136 77.7596L9.25842 78.2236L9.23548 78.6911L9.21254 79.1598L9.20107 79.625L9.18961 80.0936L9.17814 80.5646L9.16667 81.0332V81.5042V81.9762V82.4483V82.9193L9.17814 83.3879L9.18961 83.8588L9.20107 84.3275L9.21254 84.7927L9.23548 85.2613L9.25842 85.7288L9.28136 86.1929L9.31549 86.6558L9.33843 87.121L9.37284 87.5839L9.40725 88.0446L9.45312 88.5063L9.48753 88.9658L9.54488 89.4253L9.59076 89.8836L9.63636 90.3408L9.6937 90.7991L9.75105 91.254L9.8084 91.7089L9.86575 92.1638L9.93428 92.6153L10.0031 93.0656L10.0719 93.5182L10.1522 93.9685L10.2207 94.4177L10.301 94.8668L10.3813 95.3137L10.4613 95.7594L10.5531 96.2052L10.6448 96.6486L10.7366 97.0909L10.8281 97.5343L10.9313 97.9778L11.0231 98.4166L11.126 98.8543L11.2407 99.2932L11.3436 99.7309L11.4583 100.167L11.573 100.603L11.6874 101.037L11.8021 101.469L11.928 101.901L12.0427 102.331L12.1801 102.76L12.3062 103.19L12.4324 103.619L12.5698 104.044L12.7074 104.47L12.8447 104.894L12.9938 105.316L13.1312 105.737L13.2803 106.158L13.4291 106.577L13.5782 106.995L13.7385 107.415L13.8876 107.83L14.0479 108.243L14.2082 108.658L14.3803 109.069L14.5406 109.48L14.7126 109.89L14.8844 110.299L15.0561 110.707L15.2396 111.114L15.4114 111.518L15.5949 111.921L15.7781 112.324L15.9614 112.723L16.1564 113.122L16.3396 113.522L16.5343 113.92L16.7293 114.315L16.924 114.708L17.1302 115.101L17.3251 115.494L17.5313 115.884L17.7375 116.273L17.9436 116.661L18.1616 117.047L18.3792 117.431L18.5854 117.813L18.803 118.195L19.0324 118.576L19.2501 118.956L19.4792 119.333L19.7083 119.707L19.9374 120.083L20.1668 120.458L20.3959 120.828L20.6365 121.198L20.877 121.567L21.1176 121.934L21.3582 122.3L21.5991 122.662L21.8511 123.027L22.0917 123.388L22.3437 123.746L22.5958 124.104L22.8478 124.46L23.1114 124.815L23.3634 125.167L23.6272 125.52L23.8907 125.871L24.1543 126.217L24.4292 126.565L24.6928 126.91L24.9678 127.253L25.2427 127.595L25.5177 127.934L25.7927 128.274L26.0792 128.609L26.3542 128.944L26.6406 129.278L26.9271 129.608L27.2135 129.94L27.5 130.267L27.7865 130.593L28.0844 130.917L28.3823 131.24L28.6802 131.562L28.9782 131.881L29.2761 132.197L29.5855 132.513L29.8834 132.827L30.1928 133.139L30.5022 133.449L30.8113 133.756L31.1207 134.063L31.4301 134.368L31.751 134.671L32.0719 134.972L32.3813 135.27L32.7136 135.568L33.0345 135.862L33.3553 136.156L33.6759 136.447L34.0083 136.737L34.3406 137.023L34.6729 137.308L35.0053 137.594L35.3376 137.874L35.6811 138.154L36.0135 138.433L36.3573 138.706L36.7011 138.98L37.0449 139.253L37.3884 139.521L37.7322 139.789L38.076 140.055L38.4313 140.317L38.7751 140.579L39.1301 140.838L39.4854 141.095L39.8406 141.35L40.2074 141.603L40.5624 141.855L40.9177 142.103L41.2844 142.349L41.6512 142.594L42.0176 142.836L42.3844 143.077L42.7511 143.315L43.1176 143.55L43.4958 143.784L43.8625 144.015L44.2407 144.244L44.6187 144.471L44.9969 144.696L45.3751 144.919L45.753 145.139L46.1313 145.358L46.5209 145.573L46.8989 145.786L47.2886 145.998L47.6782 146.208L48.0676 146.414L48.4573 146.618L48.8467 146.821L49.2364 147.021L49.6376 147.218L50.027 147.414L50.4281 147.606L50.8293 147.797L51.2187 147.985L51.6198 148.171L52.0322 148.354L52.4333 148.535L52.8345 148.714L53.2468 148.891L53.648 149.065L54.0603 149.237L54.473 149.405L54.8738 149.571L55.2865 149.735L55.7105 149.898L56.1229 150.057L56.5355 150.213L56.9479 150.368L57.3719 150.52L57.7843 150.669L58.2084 150.816L58.6322 150.96L59.0563 151.102L59.4801 151.241L59.9042 151.378L60.328 151.512L60.7636 151.644L61.1874 151.772L61.6115 151.899L62.0468 152.023L62.4823 152.145L62.9176 152.263L63.3417 152.38L63.777 152.493L64.2125 152.604L64.6593 152.712L65.0949 152.817L65.5301 152.92L65.9772 153.021L66.4125 153.119L66.8595 153.214L67.2948 153.305L67.7418 153.395L68.1885 153.482L68.6353 153.567L69.0823 153.648L69.5291 153.726L69.9761 153.803L70.4343 153.875L70.8814 153.946L71.3281 154.014L71.7863 154.079L72.2448 154.141L72.6916 154.2L73.1501 154.256L73.6083 154.31L74.0665 154.361L74.525 154.409L74.9833 154.455L75.4418 154.497L75.9 154.536L76.3697 154.573L76.8282 154.607L77.2864 154.638L77.7564 154.665L78.2146 154.691L78.6843 154.712L79.1543 154.732L79.6239 154.748L80.0936 154.762L80.5636 154.772L81.0333 154.78L81.503 154.785L81.973 154.786L82.4426 154.785L82.9126 154.78L83.3823 154.772L83.852 154.762L84.322 154.748L84.7917 154.732L85.2614 154.712L85.7199 154.691L86.1895 154.665L86.648 154.638L87.1177 154.607L87.576 154.573L88.0459 154.536L88.5041 154.497L88.9624 154.455L89.4209 154.409L89.8791 154.361L90.3376 154.31L90.7958 154.256L91.254 154.2L91.7011 154.141L92.1593 154.079L92.6063 154.014L93.0645 153.946L93.5116 153.876L93.9698 153.803L94.4165 153.726L94.8636 153.648L95.3103 153.567L95.7574 153.482L96.2041 153.395L96.6397 153.305L97.0864 153.214L97.5335 153.119L97.9687 153.021L98.4155 152.92L98.8511 152.817L99.2863 152.712L99.7219 152.604L100.157 152.493L100.593 152.38L101.028 152.263L101.464 152.145L101.899 152.023L102.323 151.899L102.758 151.772L103.182 151.644L103.618 151.512L104.042 151.378L104.466 151.241L104.89 151.102L105.313 150.96L105.738 150.816L106.15 150.669L106.574 150.52L106.987 150.368L107.41 150.214L107.823 150.057L108.235 149.898L108.659 149.735L109.06 149.571L109.473 149.405L109.885 149.235L110.298 149.065L110.699 148.891L111.111 148.714L111.513 148.535L111.913 148.354L112.315 148.171L112.716 147.985L113.117 147.797L113.518 147.606L113.919 147.414L114.308 147.218L114.709 147.021L115.099 146.821L115.489 146.619L115.878 146.414L116.268 146.207L116.657 145.998L117.047 145.786L117.425 145.573L117.815 145.358L118.193 145.139L118.571 144.919L118.949 144.696L119.327 144.471L119.705 144.245L120.083 144.015L120.45 143.784L120.828 143.55L121.195 143.315L121.562 143.077L121.928 142.836L122.295 142.594L122.662 142.349L123.028 142.103L123.383 141.854L123.739 141.603L124.105 141.35L124.461 141.095L124.816 140.838L125.159 140.58L125.515 140.319L125.87 140.054L126.213 139.789L126.557 139.521L126.901 139.252L127.245 138.98L127.589 138.708L127.932 138.431L128.265 138.154L128.608 137.874L128.941 137.593L129.273 137.31L129.605 137.024L129.937 136.736L130.258 136.447L130.591 136.157L130.911 135.862L131.232 135.568L131.553 135.27L131.874 134.972L132.195 134.671L132.504 134.367L132.825 134.063L133.134 133.758L133.444 133.449L133.753 133.139L134.062 132.827L134.36 132.513L134.67 132.197L134.968 131.879L135.266 131.561L135.564 131.24L135.862 130.918L136.148 130.594L136.446 130.267L136.732 129.94L137.019 129.608L137.305 129.276L137.592 128.944L137.867 128.609L138.153 128.274L138.428 127.936L138.703 127.594L138.978 127.253L139.253 126.91L139.517 126.565L139.78 126.219L140.055 125.868L140.307 125.52L140.571 125.17L140.834 124.814L141.086 124.46L141.35 124.105L141.602 123.746L141.854 123.387L142.095 123.027L142.347 122.665L142.587 122.299L142.828 121.934L143.069 121.567L143.309 121.198L143.55 120.828L143.779 120.457L144.008 120.084L144.237 119.71L144.467 119.333L144.696 118.955L144.913 118.576L145.131 118.197L145.349 117.813L145.567 117.431L145.784 117.047L145.991 116.661L146.208 116.273L146.415 115.884L146.609 115.494L146.815 115.101L147.022 114.708L147.217 114.315L147.411 113.919L147.606 113.522L147.79 113.125L147.984 112.723L148.168 112.324L148.351 111.921L148.534 111.518L148.706 111.111L148.89 110.707L149.062 110.299L149.233 109.89L149.405 109.482L149.566 109.069L149.726 108.658L149.898 108.243L150.047 107.827L150.207 107.415L150.368 106.998L150.517 106.577L150.666 106.158L150.815 105.737L150.952 105.316L151.101 104.892L151.239 104.47L151.376 104.046L151.502 103.616L151.64 103.19L151.766 102.763L151.892 102.331L152.018 101.901L152.144 101.469L152.258 101.037L152.373 100.603L152.488 100.167L152.602 99.7309L152.705 99.2932L152.82 98.8543L152.911 98.4166L153.015 97.9755L153.118 97.5343L153.209 97.0932L153.301 96.6486L153.393 96.2052L153.473 95.7594L153.565 95.3137L153.645 94.8668L153.725 94.4177L153.794 93.9685L153.874 93.5182L153.943 93.0656L154.011 92.6153L154.08 92.1638L154.138 91.7089L154.195 91.2517L154.252 90.7969L154.309 90.3408L154.355 89.8836L154.401 89.4276L154.447 88.9658L154.493 88.5063L154.527 88.0468L154.573 87.5817L154.607 87.121L154.63 86.6581L154.665 86.1929L154.687 85.7265L154.71 85.2613L154.722 84.795L154.745 84.3252L154.756 83.8588L154.768 83.3902L154.779 82.917V82.4483V81.9762V81.5042V81.0355L154.768 80.5623L154.756 80.0936L154.745 79.6273L154.722 79.1575L154.71 78.6911L154.687 78.2259L154.665 77.7596L154.63 77.2944L154.607 76.8315L154.573 76.3708L154.527 75.9056L154.493 75.4473L154.447 74.9867L154.401 74.5249L154.355 74.0689L154.309 73.6117L154.252 73.1556L154.195 72.7007L154.138 72.2447L154.08 71.7886L154.011 71.3372L153.943 70.8869L153.874 70.4343L153.794 69.984L153.725 69.5348L153.645 69.0856L153.565 68.6387L153.473 68.193L153.393 67.7473L153.301 67.3039L153.209 66.8593L153.118 66.4181L153.015 65.977L152.911 65.5358L152.82 65.0981L152.705 64.6593L152.602 64.2216L152.488 63.785L152.373 63.3496L152.258 62.9165L152.144 62.4833L152.018 62.0514L151.892 61.6217L151.766 61.1908L151.64 60.7623L151.502 60.3361L151.376 59.9064L151.239 59.4824L151.101 59.0607L150.952 58.6368L150.815 58.2151L150.666 57.7946L150.517 57.3752L150.368 56.9547L150.207 56.5376L150.047 56.1251L149.898 55.7092L149.726 55.2944L149.566 54.883L149.405 54.4705L149.233 54.0626L149.062 53.6536L148.89 53.2457L148.706 52.8412L148.534 52.4344L148.351 52.0311L148.168 51.6289L147.984 51.229L147.79 50.8279L147.606 50.4303L147.411 50.0339L147.217 49.6374L147.022 49.2444L146.815 48.8514L146.609 48.4595L146.415 48.0688L146.208 47.6792L145.991 47.2919L145.784 46.9058L145.567 46.5219L145.349 46.1392L145.131 45.7553L144.913 45.3761L144.696 44.998L144.467 44.6198L144.237 44.2428L144.008 43.8682L143.779 43.4958L143.55 43.1245L143.309 42.7544L143.069 42.3855L142.828 42.0188L142.587 41.6533L142.347 41.2877L142.095 40.9257L141.854 40.5659L141.602 40.2061L141.35 39.8474L141.086 39.4922L140.834 39.1382L140.571 38.783L140.307 38.4323L140.055 38.084L139.78 37.7334L139.517 37.3873L139.253 37.0424L138.978 36.6998L138.703 36.3584L138.428 36.0169L138.153 35.6789L137.867 35.3432L137.592 35.0086L137.305 34.6763L137.019 34.344L136.732 34.0129L136.446 33.6852L136.148 33.3586L135.862 33.0343L135.564 32.7124L135.266 32.3915L134.968 32.073L134.67 31.7556L134.36 31.4393L134.062 31.1265L133.753 30.8137L133.444 30.5032L133.134 30.195L132.825 29.889L132.504 29.5854L132.195 29.2817L131.874 28.9804L131.553 28.6825L131.232 28.3845L130.911 28.0901L130.591 27.7956L130.258 27.5057L129.937 27.2169L129.605 26.9282L129.273 26.6429L128.941 26.3599L128.608 26.078L128.265 25.7984L127.932 25.5211L127.589 25.245L127.245 24.9723L126.901 24.7007L126.557 24.4303L126.213 24.1633L125.87 23.8986L125.515 23.6351L125.159 23.3727L124.816 23.1149L124.461 22.8571L124.105 22.6027L123.739 22.3494L123.383 22.0985L123.028 21.8499L122.662 21.6035L122.295 21.3594L121.928 21.1165L121.562 20.8759L121.195 20.6387L120.828 20.4027L120.45 20.1689L120.083 19.9375L119.705 19.7072L119.327 19.4814L118.949 19.2568L118.571 19.0334L118.193 18.8134L117.815 18.5946L117.425 18.3791L117.047 18.166L116.657 17.954L116.268 17.7455L115.878 17.5381L115.489 17.3341L115.099 17.1313L114.709 16.932L114.308 16.7349L113.919 16.5389L113.518 16.3464L113.117 16.1551L112.716 15.9672L112.315 15.7815L111.913 15.5982L111.513 15.4172L111.111 15.2384L110.699 15.062L110.298 14.8878L109.885 14.7171L109.473 14.5475L109.06 14.3813L108.659 14.2175L108.235 14.0548L107.823 13.8955L107.41 13.7385L106.987 13.585L106.574 13.4326L106.15 13.2836L105.738 13.137L105.313 12.9926L104.89 12.8505L104.466 12.7119L104.042 12.5744L103.618 12.4403L103.182 12.3085L102.758 12.1802L102.323 12.053L101.899 11.9293L101.464 11.8078L101.028 11.6898L100.593 11.5729L100.157 11.4595L99.7219 11.3495L99.2863 11.2406L98.8511 11.1352L98.4155 11.0321L97.9687 10.9312L97.5335 10.8338L97.0864 10.7387L96.6397 10.6471L96.2041 10.5577L95.7574 10.4706L95.3103 10.3858L94.8636 10.3045L94.4165 10.2265L93.9698 10.1498L93.5116 10.0776L93.0645 10.0065L92.6063 9.93895L92.1593 9.87363L91.7011 9.81175L91.254 9.75217L90.7958 9.69603L90.3376 9.64217L89.8791 9.59176L89.4209 9.54363L88.9624 9.4978L88.5041 9.4554L88.0459 9.41645L87.576 9.37977L87.1177 9.3454L86.648 9.31446L86.1895 9.28696L85.7199 9.26176L85.2614 9.23999L84.7917 9.2205L84.322 9.20446L83.852 9.19071L83.3823 9.1804L82.9126 9.17238L82.4426 9.1678L81.973 9.16665L81.503 9.1678Z" fill="#A5C5B6"/>
<path fill-rule="evenodd" clip-rule="evenodd" d="M121.122 54.3247C121.122 43.689 112.631 35.0208 102.064 34.7354V56.775C101.986 56.6927 101.907 56.6112 101.826 56.5306C97.0419 51.7466 89.3235 51.6669 84.4419 56.2917L102.064 73.9136V73.9144C102.064 73.9144 102.064 73.9144 102.065 73.9144L102.065 73.9147C102.065 73.9146 102.065 73.9145 102.065 73.9143C112.632 73.6282 121.122 64.9603 121.122 54.3247Z" fill="#484659"/>
<path fill-rule="evenodd" clip-rule="evenodd" d="M100.879 98.4149H70.758C71.1248 84.8305 82.268 73.9146 95.9397 73.9146C109.611 73.9146 120.758 84.8302 121.125 98.4149V104.877C121.125 110.463 116.588 114.999 111.004 114.999C105.416 114.999 100.879 110.463 100.879 104.877V98.4149Z" fill="url(#paint0_radial)"/>
<path d="M111.01 108.741C112.134 108.741 113.044 107.83 113.044 106.707C113.044 105.584 112.134 104.673 111.01 104.673C109.887 104.673 108.977 105.584 108.977 106.707C108.977 107.83 109.887 108.741 111.01 108.741Z" fill="#DCDDCB"/>
<path fill-rule="evenodd" clip-rule="evenodd" d="M70.763 98.4156V117.819C60.2957 117.536 51.8853 108.95 51.8853 98.4156H70.763Z" fill="#484659"/>
<path d="M112.168 114.283H109.843V134.353H112.168V114.283Z" fill="#484659"/>
<path d="M33.1436 63.3375V72.9625H37.956V72.9075V66.06V64.7125H38.4486C40.2132 67.545 42.0239 70.4875 43.5593 72.9625H49.2884V72.9075C49.1509 72.6875 48.2914 71.45 47.7185 70.5975C43.6508 64.6025 43.2841 64.025 43.1008 63.75V63.6675C43.456 63.5301 44.0289 63.1175 44.5216 62.6775C45.381 61.99 46.5039 60.285 46.5039 57.92C46.5039 53.96 43.9715 52.3926 42.1382 51.8976C40.9007 51.5676 39.5259 51.4026 37.7613 51.4026C37.0165 51.4026 35.6987 51.4301 35.0914 51.4576C34.381 51.4851 33.6133 51.5401 33.1436 51.5951V63.3375ZM41.5882 58.3326C41.5882 59.515 40.981 60.3125 40.4882 60.6425C40.0185 60.9725 39.3884 61.1925 38.6665 61.1925C38.4259 61.1925 38.1508 61.1925 37.956 61.165V55.6925C38.1966 55.665 38.4488 55.6375 38.9186 55.6375C40.5686 55.6375 41.5882 56.6275 41.5882 58.305V58.3326Z" fill="#484659"/>
<path d="M52.2177 63.3375V72.9625H57.0301V72.9075V66.06V64.7125H57.5345C59.2876 67.545 61.1094 70.4875 62.6448 72.9625H68.3625V72.9075C68.225 72.6875 67.377 71.45 66.7926 70.5975C62.7249 64.6025 62.3699 64.025 62.1752 63.75V63.6675C62.5304 63.5301 63.1147 63.1175 63.6074 62.6775C64.4554 61.99 65.5897 60.285 65.5897 57.92C65.5897 53.96 63.0573 52.3926 61.2126 51.8976C59.9751 51.5676 58.6 51.4026 56.8469 51.4026C56.1021 51.4026 54.7843 51.4301 54.177 51.4576C53.4551 51.4851 52.6874 51.5401 52.2177 51.5951V63.3375ZM60.6626 58.3326C60.6626 59.515 60.0553 60.3125 59.5626 60.6425C59.0928 60.9725 58.4625 61.1925 57.7521 61.1925C57.5 61.1925 57.2249 61.1925 57.0301 61.165V55.6925C57.2822 55.665 57.5344 55.6375 57.9927 55.6375C59.6427 55.6375 60.6626 56.6275 60.6626 58.305V58.3326Z" fill="#484659"/>
<path fill-rule="evenodd" clip-rule="evenodd" d="M66.4905 39.0012L66.4937 39.0012L66.4969 39.0013L66.5002 39.0013L66.5033 39.0014L66.5065 39.0016L66.5097 39.0017L66.5129 39.0018L66.5161 39.002L66.5192 39.0022L66.5224 39.0024L66.5255 39.0026L66.5287 39.0029L66.5319 39.0032L66.535 39.0034L66.5381 39.0038L66.5412 39.0041L66.5444 39.0044L66.5475 39.0048L66.5506 39.0052L66.5537 39.0056L66.5568 39.006L66.5598 39.0065L66.563 39.0069L66.566 39.0074L66.5691 39.0079L66.5722 39.0084L66.5753 39.009L66.5783 39.0095L66.5814 39.0101L66.5844 39.0107L66.5874 39.0113L66.5905 39.0119L66.5935 39.0126L66.5965 39.0132L66.5995 39.0139L66.6025 39.0146L66.6055 39.0153L66.6085 39.0161L66.6114 39.0168L66.6144 39.0176L66.6173 39.0184L66.6203 39.0192L66.6233 39.0201L66.6262 39.0209L66.6292 39.0218L66.6321 39.0226L66.635 39.0235L66.6379 39.0245L66.6408 39.0254L66.6437 39.0263L66.6466 39.0273L66.6495 39.0283L66.6523 39.0293L66.6553 39.0303L66.6581 39.0314L66.661 39.0324L66.6638 39.0335L66.6667 39.0346L66.6694 39.0357L66.6723 39.0368L66.6751 39.0379L66.6778 39.0391L66.6807 39.0403L66.6835 39.0414L66.6862 39.0426L66.6889 39.0439L66.6917 39.0451L66.6945 39.0464L66.6972 39.0476L66.6999 39.0489L66.7027 39.0502L66.7053 39.0515L66.708 39.0529L66.7107 39.0542L66.7135 39.0556L66.7161 39.057L66.7188 39.0583L66.7214 39.0598L66.7241 39.0612L66.7267 39.0626L66.7294 39.0641L66.7319 39.0656L66.7346 39.0671L66.7371 39.0686L66.7398 39.0701L66.7423 39.0716L66.7449 39.0732L66.7474 39.0747L66.75 39.0763L66.7525 39.0779L66.7551 39.0795L66.7576 39.0811L66.7601 39.0828L66.7626 39.0844L66.7651 39.0861L66.7675 39.0878L66.77 39.0895L66.7724 39.0912L66.7748 39.0929L66.7773 39.0946L66.7797 39.0964L66.7821 39.0982L66.7845 39.0999L66.7869 39.1017L66.7893 39.1036L66.7917 39.1054L66.794 39.1072L66.7963 39.1091L66.7987 39.1109L66.801 39.1128L66.8033 39.1147L66.8056 39.1166L66.8079 39.1185L66.8101 39.1205L66.8124 39.1224L66.8146 39.1244L66.8169 39.1263L66.8191 39.1283L66.8213 39.1303L66.8235 39.1323L66.8257 39.1344L66.8279 39.1364L66.8301 39.1384L66.8322 39.1405L66.8344 39.1426L66.8364 39.1447L66.8386 39.1468L66.8407 39.1489L66.8428 39.151L66.8448 39.1532L66.8469 39.1553L66.8489 39.1575L66.851 39.1596L66.853 39.1618L66.8551 39.164L66.8571 39.1662L66.859 39.1685L66.861 39.1707L66.863 39.173L66.8649 39.1752L66.8669 39.1775L66.8687 39.1798L66.8707 39.1821L66.8726 39.1844L66.8744 39.1867L66.8763 39.189L66.8782 39.1914L66.88 39.1937L66.8818 39.1961L66.8836 39.1985L66.8854 39.2008L66.8872 39.2032L66.8889 39.2056L66.8907 39.2081L66.8924 39.2105L66.8942 39.2129L66.8959 39.2154L66.8976 39.2178L66.8993 39.2203L66.901 39.2228L66.9026 39.2253L66.9042 39.2278L66.9058 39.2303L66.9075 39.2328L66.9091 39.2354L66.9106 39.2379L66.9122 39.2405L66.9137 39.243L66.9153 39.2456L66.9168 39.2482L66.9183 39.2508L66.9198 39.2534L66.9212 39.256L66.9227 39.2586L66.9242 39.2613L66.9256 39.2639L66.927 39.2666L66.9284 39.2692L66.9298 39.2719L66.9312 39.2746L66.9325 39.2773L66.9338 39.28L66.9351 39.2827L66.9364 39.2854L66.9377 39.2881L66.939 39.2909L66.9403 39.2936L66.9415 39.2964L66.9427 39.2992L66.9439 39.3019L66.9451 39.3047L66.9463 39.3075L66.9474 39.3103L66.9485 39.3131L66.9497 39.3159L66.9508 39.3187L66.9519 39.3216L66.953 39.3244L66.954 39.3273L66.9551 39.3301L66.956 39.333L66.9571 39.3359L66.958 39.3387L66.959 39.3416L66.96 39.3445L66.9609 39.3474L66.9618 39.3503L66.9627 39.3533L66.9636 39.3562L66.9644 39.3591L66.9653 39.3621L66.9662 39.365L66.9669 39.368L66.9678 39.3709L66.9685 39.3739L66.9693 39.3769L66.97 39.3799L66.9707 39.3829L66.9714 39.3859L66.9721 39.3889L66.9728 39.3919L66.9735 39.3949L66.9741 39.3979L66.9747 39.401L66.9753 39.404L66.9758 39.4071L66.9764 39.4101L66.9769 39.4132L66.9775 39.4162L66.978 39.4193L66.9785 39.4224L66.9789 39.4255L66.9794 39.4286L66.9798 39.4317L66.9802 39.4348L66.9805 39.4379L66.981 39.441L66.9812 39.4441L66.9816 39.4473L66.9819 39.4504L66.9822 39.4535L66.9825 39.4567L66.9827 39.4598L66.983 39.463L66.9832 39.4661L66.9833 39.4693L66.9835 39.4725L66.9837 39.4756L66.9838 39.4788L66.9839 39.482L66.984 39.4852L66.9841 39.4884L66.9842 39.4916V39.4948V39.498V39.5012V39.5044L66.9841 39.5076L66.984 39.5108L66.9839 39.514L66.9838 39.5172L66.9837 39.5204L66.9835 39.5236L66.9833 39.5267L66.9832 39.5299L66.983 39.5331L66.9827 39.5362L66.9825 39.5394L66.9822 39.5425L66.9819 39.5456L66.9816 39.5488L66.9812 39.5519L66.981 39.555L66.9805 39.5581L66.9802 39.5613L66.9798 39.5644L66.9794 39.5675L66.9789 39.5706L66.9785 39.5736L66.978 39.5767L66.9775 39.5798L66.9769 39.5829L66.9764 39.5859L66.9758 39.589L66.9753 39.592L66.9747 39.5951L66.9741 39.5981L66.9735 39.6011L66.9728 39.6041L66.9721 39.6072L66.9714 39.6102L66.9707 39.6132L66.97 39.6162L66.9693 39.6191L66.9685 39.6221L66.9678 39.6251L66.9669 39.6281L66.9662 39.631L66.9653 39.634L66.9644 39.6369L66.9636 39.6398L66.9627 39.6428L66.9618 39.6457L66.9609 39.6486L66.96 39.6515L66.959 39.6544L66.958 39.6573L66.9571 39.6602L66.956 39.663L66.9551 39.6659L66.954 39.6688L66.953 39.6716L66.9519 39.6745L66.9508 39.6773L66.9497 39.6801L66.9485 39.6829L66.9474 39.6857L66.9463 39.6885L66.9451 39.6913L66.9439 39.6941L66.9427 39.6969L66.9415 39.6996L66.9403 39.7024L66.939 39.7051L66.9377 39.7079L66.9364 39.7106L66.9351 39.7133L66.9338 39.716L66.9325 39.7187L66.9312 39.7214L66.9298 39.7241L66.9284 39.7268L66.927 39.7295L66.9256 39.7321L66.9242 39.7348L66.9227 39.7374L66.9212 39.74L66.9198 39.7426L66.9183 39.7452L66.9168 39.7478L66.9153 39.7504L66.9137 39.753L66.9122 39.7556L66.9106 39.7581L66.9091 39.7607L66.9075 39.7632L66.9058 39.7657L66.9042 39.7682L66.9026 39.7707L66.901 39.7732L66.8993 39.7757L66.8976 39.7782L66.8959 39.7806L66.8942 39.7831L66.8924 39.7855L66.8907 39.788L66.8889 39.7904L66.8872 39.7928L66.8854 39.7952L66.8836 39.7976L66.8818 39.8L66.88 39.8023L66.8782 39.8047L66.8763 39.807L66.8744 39.8093L66.8726 39.8117L66.8707 39.814L66.8687 39.8163L66.8669 39.8185L66.8649 39.8208L66.863 39.8231L66.861 39.8253L66.859 39.8276L66.8571 39.8298L66.8551 39.832L66.853 39.8342L66.851 39.8364L66.8489 39.8386L66.8469 39.8407L66.8448 39.8429L66.8428 39.845L66.8407 39.8471L66.8386 39.8493L66.8364 39.8514L66.8344 39.8534L66.8322 39.8555L66.8301 39.8576L66.8279 39.8596L66.8257 39.8617L66.8235 39.8637L66.8213 39.8657L66.8191 39.8677L66.8169 39.8697L66.8146 39.8717L66.8124 39.8736L66.8101 39.8756L66.8079 39.8775L66.8056 39.8794L66.8033 39.8813L66.801 39.8832L66.7987 39.8851L66.7963 39.887L66.794 39.8888L66.7917 39.8907L66.7893 39.8925L66.7869 39.8943L66.7845 39.8961L66.7821 39.8979L66.7797 39.8996L66.7773 39.9014L66.7748 39.9031L66.7724 39.9049L66.77 39.9066L66.7675 39.9083L66.7651 39.9099L66.7626 39.9116L66.7601 39.9133L66.7576 39.9149L66.7551 39.9165L66.7525 39.9181L66.75 39.9197L66.7474 39.9213L66.7449 39.9229L66.7423 39.9244L66.7398 39.926L66.7371 39.9275L66.7346 39.929L66.7319 39.9305L66.7294 39.9319L66.7267 39.9334L66.7241 39.9348L66.7214 39.9363L66.7188 39.9377L66.7161 39.9391L66.7135 39.9405L66.7107 39.9418L66.708 39.9432L66.7053 39.9445L66.7027 39.9458L66.6999 39.9471L66.6972 39.9484L66.6945 39.9497L66.6917 39.9509L66.6889 39.9522L66.6862 39.9534L66.6835 39.9546L66.6807 39.9558L66.6778 39.9569L66.6751 39.9581L66.6723 39.9592L66.6694 39.9604L66.6667 39.9615L66.6638 39.9626L66.661 39.9636L66.6581 39.9647L66.6553 39.9657L66.6523 39.9667L66.6495 39.9677L66.6466 39.9687L66.6437 39.9697L66.6408 39.9706L66.6379 39.9716L66.635 39.9725L66.6321 39.9734L66.6292 39.9743L66.6262 39.9751L66.6233 39.976L66.6203 39.9768L66.6173 39.9776L66.6144 39.9784L66.6114 39.9792L66.6085 39.9799L66.6055 39.9807L66.6025 39.9814L66.5995 39.9821L66.5965 39.9828L66.5935 39.9835L66.5905 39.9841L66.5874 39.9847L66.5844 39.9853L66.5814 39.9859L66.5783 39.9865L66.5753 39.9871L66.5722 39.9876L66.5691 39.9881L66.566 39.9886L66.563 39.9891L66.5598 39.9896L66.5568 39.99L66.5537 39.9904L66.5506 39.9908L66.5475 39.9912L66.5444 39.9916L66.5412 39.9919L66.5381 39.9923L66.535 39.9926L66.5319 39.9929L66.5287 39.9931L66.5255 39.9934L66.5224 39.9936L66.5192 39.9938L66.5161 39.994L66.5129 39.9942L66.5097 39.9943L66.5065 39.9945L66.5033 39.9946L66.5002 39.9947L66.4969 39.9948L66.4937 39.9948L66.4905 39.9948L66.4873 39.9948L66.4842 39.9948L66.481 39.9948L66.4777 39.9948L66.4745 39.9947L66.4713 39.9946L66.4682 39.9945L66.465 39.9943L66.4618 39.9942L66.4586 39.994L66.4555 39.9938L66.4523 39.9936L66.4492 39.9934L66.446 39.9931L66.4428 39.9929L66.4397 39.9926L66.4366 39.9923L66.4335 39.9919L66.4303 39.9916L66.4272 39.9912L66.4241 39.9908L66.421 39.9904L66.4179 39.99L66.4148 39.9896L66.4117 39.9891L66.4087 39.9886L66.4055 39.9881L66.4025 39.9876L66.3994 39.9871L66.3964 39.9865L66.3933 39.9859L66.3903 39.9853L66.3873 39.9847L66.3842 39.9841L66.3812 39.9835L66.3782 39.9828L66.3752 39.9821L66.3722 39.9814L66.3692 39.9807L66.3662 39.9799L66.3632 39.9792L66.3603 39.9784L66.3573 39.9776L66.3544 39.9768L66.3514 39.976L66.3485 39.9751L66.3455 39.9743L66.3426 39.9734L66.3396 39.9725L66.3368 39.9716L66.3339 39.9706L66.331 39.9697L66.328 39.9687L66.3252 39.9677L66.3223 39.9667L66.3194 39.9657L66.3166 39.9647L66.3137 39.9636L66.3109 39.9626L66.308 39.9615L66.3053 39.9604L66.3024 39.9592L66.2996 39.9581L66.2968 39.9569L66.294 39.9558L66.2912 39.9546L66.2885 39.9534L66.2857 39.9522L66.283 39.9509L66.2802 39.9497L66.2775 39.9484L66.2748 39.9471L66.272 39.9458L66.2693 39.9445L66.2667 39.9432L66.2639 39.9418L66.2612 39.9405L66.2586 39.9391L66.2559 39.9377L66.2532 39.9363L66.2506 39.9348L66.248 39.9334L66.2453 39.9319L66.2428 39.9305L66.2401 39.929L66.2376 39.9275L66.2349 39.926L66.2323 39.9244L66.2298 39.9229L66.2273 39.9213L66.2247 39.9197L66.2221 39.9181L66.2196 39.9165L66.2171 39.9149L66.2146 39.9133L66.2121 39.9116L66.2096 39.9099L66.2071 39.9083L66.2047 39.9066L66.2023 39.9049L66.1998 39.9031L66.1973 39.9014L66.195 39.8996L66.1926 39.8979L66.1901 39.8961L66.1878 39.8943L66.1854 39.8925L66.183 39.8907L66.1807 39.8888L66.1783 39.887L66.176 39.8851L66.1737 39.8832L66.1714 39.8813L66.1691 39.8794L66.1668 39.8775L66.1646 39.8756L66.1623 39.8736L66.1601 39.8717L66.1578 39.8697L66.1555 39.8677L66.1534 39.8657L66.1512 39.8637L66.1489 39.8617L66.1468 39.8596L66.1446 39.8576L66.1425 39.8555L66.1403 39.8534L66.1382 39.8514L66.1361 39.8493L66.134 39.8471L66.1319 39.845L66.1298 39.8429L66.1278 39.8407L66.1257 39.8386L66.1237 39.8364L66.1216 39.8342L66.1196 39.832L66.1176 39.8298L66.1157 39.8276L66.1137 39.8253L66.1117 39.8231L66.1098 39.8208L66.1078 39.8185L66.106 39.8163L66.104 39.814L66.1021 39.8117L66.1003 39.8093L66.0984 39.807L66.0965 39.8047L66.0947 39.8023L66.0929 39.8L66.0911 39.7976L66.0893 39.7952L66.0875 39.7928L66.0857 39.7904L66.0839 39.788L66.0822 39.7855L66.0805 39.7831L66.0788 39.7806L66.0771 39.7782L66.0754 39.7757L66.0737 39.7732L66.0721 39.7707L66.0705 39.7682L66.0688 39.7657L66.0672 39.7632L66.0656 39.7607L66.0641 39.7581L66.0625 39.7556L66.061 39.753L66.0594 39.7504L66.0579 39.7478L66.0564 39.7452L66.0549 39.7426L66.0534 39.74L66.0519 39.7374L66.0505 39.7348L66.0491 39.7321L66.0477 39.7295L66.0463 39.7268L66.0449 39.7241L66.0435 39.7214L66.0422 39.7187L66.0408 39.716L66.0396 39.7133L66.0382 39.7106L66.0369 39.7079L66.0357 39.7051L66.0344 39.7024L66.0332 39.6996L66.032 39.6969L66.0307 39.6941L66.0296 39.6913L66.0284 39.6885L66.0273 39.6857L66.0261 39.6829L66.025 39.6801L66.0239 39.6773L66.0228 39.6745L66.0217 39.6716L66.0207 39.6688L66.0196 39.6659L66.0186 39.663L66.0176 39.6602L66.0167 39.6573L66.0157 39.6544L66.0147 39.6515L66.0138 39.6486L66.0129 39.6457L66.012 39.6428L66.0111 39.6398L66.0102 39.6369L66.0094 39.634L66.0085 39.631L66.0078 39.6281L66.0069 39.6251L66.0062 39.6221L66.0054 39.6191L66.0046 39.6162L66.0039 39.6132L66.0032 39.6102L66.0026 39.6072L66.0019 39.6041L66.0012 39.6011L66.0006 39.5981L66 39.5951L65.9994 39.592L65.9989 39.589L65.9983 39.5859L65.9978 39.5829L65.9972 39.5798L65.9967 39.5767L65.9962 39.5736L65.9958 39.5706L65.9953 39.5675L65.9949 39.5644L65.9945 39.5613L65.9942 39.5581L65.9937 39.555L65.9934 39.5519L65.9931 39.5488L65.9928 39.5456L65.9925 39.5425L65.9922 39.5394L65.9919 39.5362L65.9917 39.5331L65.9915 39.5299L65.9913 39.5267L65.9912 39.5236L65.991 39.5204L65.9909 39.5172L65.9907 39.514L65.9907 39.5108L65.9906 39.5076L65.9905 39.5044V39.5012V39.498V39.4948V39.4916L65.9906 39.4884L65.9907 39.4852L65.9907 39.482L65.9909 39.4788L65.991 39.4756L65.9912 39.4725L65.9913 39.4693L65.9915 39.4661L65.9917 39.463L65.9919 39.4598L65.9922 39.4567L65.9925 39.4535L65.9928 39.4504L65.9931 39.4473L65.9934 39.4441L65.9937 39.441L65.9942 39.4379L65.9945 39.4348L65.9949 39.4317L65.9953 39.4286L65.9958 39.4255L65.9962 39.4224L65.9967 39.4193L65.9972 39.4162L65.9978 39.4132L65.9983 39.4101L65.9989 39.4071L65.9994 39.404L66 39.401L66.0006 39.3979L66.0012 39.3949L66.0019 39.3919L66.0026 39.3889L66.0032 39.3859L66.0039 39.3829L66.0046 39.3799L66.0054 39.3769L66.0062 39.3739L66.0069 39.3709L66.0078 39.368L66.0085 39.365L66.0094 39.3621L66.0102 39.3591L66.0111 39.3562L66.012 39.3533L66.0129 39.3503L66.0138 39.3474L66.0147 39.3445L66.0157 39.3416L66.0167 39.3387L66.0176 39.3359L66.0186 39.333L66.0196 39.3301L66.0207 39.3273L66.0217 39.3244L66.0228 39.3216L66.0239 39.3187L66.025 39.3159L66.0261 39.3131L66.0273 39.3103L66.0284 39.3075L66.0296 39.3047L66.0307 39.3019L66.032 39.2992L66.0332 39.2964L66.0344 39.2936L66.0357 39.2909L66.0369 39.2881L66.0382 39.2854L66.0396 39.2827L66.0408 39.28L66.0422 39.2773L66.0435 39.2746L66.0449 39.2719L66.0463 39.2692L66.0477 39.2666L66.0491 39.2639L66.0505 39.2613L66.0519 39.2586L66.0534 39.256L66.0549 39.2534L66.0564 39.2508L66.0579 39.2482L66.0594 39.2456L66.061 39.243L66.0625 39.2405L66.0641 39.2379L66.0656 39.2354L66.0672 39.2328L66.0688 39.2303L66.0705 39.2278L66.0721 39.2253L66.0737 39.2228L66.0754 39.2203L66.0771 39.2178L66.0788 39.2154L66.0805 39.2129L66.0822 39.2105L66.0839 39.2081L66.0857 39.2056L66.0875 39.2032L66.0893 39.2008L66.0911 39.1985L66.0929 39.1961L66.0947 39.1937L66.0965 39.1914L66.0984 39.189L66.1003 39.1867L66.1021 39.1844L66.104 39.1821L66.106 39.1798L66.1078 39.1775L66.1098 39.1752L66.1117 39.173L66.1137 39.1707L66.1157 39.1685L66.1176 39.1662L66.1196 39.164L66.1216 39.1618L66.1237 39.1596L66.1257 39.1575L66.1278 39.1553L66.1298 39.1532L66.1319 39.151L66.134 39.1489L66.1361 39.1468L66.1382 39.1447L66.1403 39.1426L66.1425 39.1405L66.1446 39.1384L66.1468 39.1364L66.1489 39.1344L66.1512 39.1323L66.1534 39.1303L66.1555 39.1283L66.1578 39.1263L66.1601 39.1244L66.1623 39.1224L66.1646 39.1205L66.1668 39.1185L66.1691 39.1166L66.1714 39.1147L66.1737 39.1128L66.176 39.1109L66.1783 39.1091L66.1807 39.1072L66.183 39.1054L66.1854 39.1036L66.1878 39.1017L66.1901 39.0999L66.1926 39.0982L66.195 39.0964L66.1973 39.0946L66.1998 39.0929L66.2023 39.0912L66.2047 39.0895L66.2071 39.0878L66.2096 39.0861L66.2121 39.0844L66.2146 39.0828L66.2171 39.0811L66.2196 39.0795L66.2221 39.0779L66.2247 39.0763L66.2273 39.0747L66.2298 39.0732L66.2323 39.0716L66.2349 39.0701L66.2376 39.0686L66.2401 39.0671L66.2428 39.0656L66.2453 39.0641L66.248 39.0626L66.2506 39.0612L66.2532 39.0598L66.2559 39.0583L66.2586 39.057L66.2612 39.0556L66.2639 39.0542L66.2667 39.0529L66.2693 39.0515L66.272 39.0502L66.2748 39.0489L66.2775 39.0476L66.2802 39.0464L66.283 39.0451L66.2857 39.0439L66.2885 39.0426L66.2912 39.0414L66.294 39.0403L66.2968 39.0391L66.2996 39.0379L66.3024 39.0368L66.3053 39.0357L66.308 39.0346L66.3109 39.0335L66.3137 39.0324L66.3166 39.0314L66.3194 39.0303L66.3223 39.0293L66.3252 39.0283L66.328 39.0273L66.331 39.0263L66.3339 39.0254L66.3368 39.0245L66.3396 39.0235L66.3426 39.0226L66.3455 39.0218L66.3485 39.0209L66.3514 39.0201L66.3544 39.0192L66.3573 39.0184L66.3603 39.0176L66.3632 39.0168L66.3662 39.0161L66.3692 39.0153L66.3722 39.0146L66.3752 39.0139L66.3782 39.0132L66.3812 39.0126L66.3842 39.0119L66.3873 39.0113L66.3903 39.0107L66.3933 39.0101L66.3964 39.0095L66.3994 39.009L66.4025 39.0084L66.4055 39.0079L66.4087 39.0074L66.4117 39.0069L66.4148 39.0065L66.4179 39.006L66.421 39.0056L66.4241 39.0052L66.4272 39.0048L66.4303 39.0044L66.4335 39.0041L66.4366 39.0038L66.4397 39.0034L66.4428 39.0032L66.446 39.0029L66.4492 39.0026L66.4523 39.0024L66.4555 39.0022L66.4586 39.002L66.4618 39.0018L66.465 39.0017L66.4682 39.0016L66.4713 39.0014L66.4745 39.0013L66.4777 39.0013L66.481 39.0012L66.4842 39.0012L66.4873 39.0012L66.4905 39.0012ZM66.4845 39.0568L66.4817 39.0568L66.4788 39.0568L66.476 39.0569L66.4731 39.057L66.4703 39.0571L66.4674 39.0572L66.4646 39.0573L66.4618 39.0575L66.4589 39.0576L66.4562 39.0578L66.4534 39.058L66.4505 39.0583L66.4478 39.0585L66.445 39.0588L66.4422 39.059L66.4394 39.0593L66.4367 39.0596L66.4339 39.06L66.4311 39.0603L66.4284 39.0607L66.4256 39.061L66.4228 39.0614L66.4201 39.0618L66.4174 39.0623L66.4146 39.0627L66.4119 39.0632L66.4092 39.0636L66.4065 39.0641L66.4038 39.0646L66.4011 39.0652L66.3984 39.0657L66.3957 39.0663L66.393 39.0668L66.3904 39.0674L66.3877 39.0681L66.3851 39.0687L66.3824 39.0693L66.3797 39.07L66.3771 39.0706L66.3744 39.0713L66.3719 39.072L66.3692 39.0728L66.3666 39.0735L66.3639 39.0742L66.3614 39.075L66.3588 39.0758L66.3562 39.0766L66.3536 39.0774L66.351 39.0782L66.3485 39.0791L66.3459 39.0799L66.3433 39.0808L66.3407 39.0817L66.3382 39.0826L66.3357 39.0835L66.3332 39.0845L66.3307 39.0854L66.3282 39.0864L66.3256 39.0874L66.3231 39.0883L66.3207 39.0894L66.3182 39.0904L66.3157 39.0914L66.3132 39.0925L66.3107 39.0935L66.3083 39.0946L66.3059 39.0957L66.3034 39.0968L66.301 39.098L66.2986 39.0991L66.2962 39.1003L66.2937 39.1014L66.2914 39.1026L66.2889 39.1038L66.2866 39.105L66.2842 39.1062L66.2819 39.1075L66.2795 39.1087L66.2771 39.11L66.2748 39.1113L66.2725 39.1126L66.2701 39.1139L66.2678 39.1152L66.2655 39.1165L66.2632 39.1179L66.261 39.1193L66.2587 39.1206L66.2564 39.122L66.2542 39.1234L66.2519 39.1248L66.2496 39.1263L66.2474 39.1277L66.2452 39.1292L66.243 39.1306L66.2407 39.1321L66.2385 39.1336L66.2364 39.1351L66.2342 39.1366L66.232 39.1382L66.2298 39.1397L66.2277 39.1413L66.2255 39.1428L66.2235 39.1444L66.2213 39.146L66.2192 39.1476L66.2171 39.1493L66.2151 39.1509L66.213 39.1525L66.2109 39.1542L66.2088 39.1559L66.2068 39.1575L66.2047 39.1592L66.2027 39.1609L66.2007 39.1627L66.1987 39.1644L66.1967 39.1661L66.1946 39.1679L66.1927 39.1697L66.1907 39.1714L66.1888 39.1732L66.1868 39.175L66.1849 39.1768L66.183 39.1787L66.181 39.1805L66.1792 39.1823L66.1773 39.1842L66.1754 39.1861L66.1735 39.1879L66.1717 39.1898L66.1698 39.1917L66.168 39.1936L66.1662 39.1956L66.1644 39.1975L66.1626 39.1994L66.1607 39.2014L66.1589 39.2034L66.1572 39.2053L66.1555 39.2073L66.1537 39.2093L66.152 39.2113L66.1503 39.2134L66.1486 39.2154L66.1469 39.2174L66.1452 39.2195L66.1435 39.2215L66.1419 39.2236L66.1402 39.2257L66.1386 39.2278L66.1369 39.2299L66.1353 39.232L66.1337 39.2341L66.1321 39.2363L66.1306 39.2384L66.129 39.2405L66.1275 39.2427L66.126 39.2449L66.1244 39.247L66.123 39.2492L66.1214 39.2514L66.12 39.2536L66.1185 39.2558L66.1171 39.2581L66.1156 39.2603L66.1142 39.2626L66.1128 39.2648L66.1114 39.2671L66.11 39.2693L66.1086 39.2716L66.1072 39.2739L66.1059 39.2762L66.1045 39.2785L66.1032 39.2808L66.1019 39.2831L66.1006 39.2855L66.0993 39.2878L66.098 39.2902L66.0968 39.2925L66.0955 39.2949L66.0944 39.2973L66.0931 39.2996L66.0919 39.302L66.0907 39.3044L66.0896 39.3068L66.0885 39.3093L66.0873 39.3117L66.0862 39.3141L66.0851 39.3165L66.0839 39.319L66.0829 39.3214L66.0818 39.3239L66.0807 39.3264L66.0797 39.3288L66.0787 39.3313L66.0777 39.3338L66.0766 39.3363L66.0757 39.3388L66.0747 39.3413L66.0738 39.3438L66.0728 39.3464L66.0719 39.3489L66.071 39.3515L66.0701 39.354L66.0693 39.3566L66.0684 39.3591L66.0676 39.3617L66.0667 39.3643L66.0659 39.3668L66.0651 39.3694L66.0644 39.3721L66.0635 39.3747L66.0628 39.3773L66.0621 39.3799L66.0614 39.3825L66.0607 39.3851L66.06 39.3878L66.0593 39.3904L66.0587 39.3931L66.058 39.3957L66.0573 39.3984L66.0568 39.401L66.0562 39.4037L66.0556 39.4064L66.0551 39.4091L66.0545 39.4118L66.0539 39.4145L66.0535 39.4172L66.053 39.4199L66.0525 39.4226L66.0521 39.4253L66.0516 39.4281L66.0512 39.4308L66.0507 39.4335L66.0503 39.4363L66.05 39.439L66.0496 39.4418L66.0493 39.4445L66.0489 39.4473L66.0487 39.4501L66.0484 39.4529L66.048 39.4557L66.0478 39.4584L66.0476 39.4612L66.0473 39.464L66.0471 39.4668L66.047 39.4697L66.0468 39.4725L66.0467 39.4753L66.0465 39.4781L66.0464 39.4809L66.0463 39.4838L66.0462 39.4866L66.0462 39.4895L66.0461 39.4923V39.4952V39.498V39.5009V39.5037L66.0462 39.5066L66.0462 39.5094L66.0463 39.5123L66.0464 39.5151L66.0465 39.5179L66.0467 39.5208L66.0468 39.5236L66.047 39.5264L66.0471 39.5292L66.0473 39.532L66.0476 39.5348L66.0478 39.5376L66.048 39.5404L66.0484 39.5432L66.0487 39.5459L66.0489 39.5487L66.0493 39.5515L66.0496 39.5542L66.05 39.557L66.0503 39.5598L66.0507 39.5625L66.0512 39.5652L66.0516 39.568L66.0521 39.5707L66.0525 39.5734L66.053 39.5761L66.0535 39.5788L66.0539 39.5816L66.0545 39.5843L66.0551 39.5869L66.0556 39.5896L66.0562 39.5923L66.0568 39.595L66.0573 39.5977L66.058 39.6003L66.0587 39.603L66.0593 39.6056L66.06 39.6083L66.0607 39.6109L66.0614 39.6135L66.0621 39.6162L66.0628 39.6188L66.0635 39.6214L66.0644 39.624L66.0651 39.6266L66.0659 39.6292L66.0667 39.6318L66.0676 39.6343L66.0684 39.6369L66.0693 39.6395L66.0701 39.642L66.071 39.6446L66.0719 39.6471L66.0728 39.6496L66.0738 39.6522L66.0747 39.6547L66.0757 39.6572L66.0766 39.6597L66.0777 39.6622L66.0787 39.6647L66.0797 39.6672L66.0807 39.6697L66.0818 39.6721L66.0829 39.6746L66.0839 39.6771L66.0851 39.6795L66.0862 39.6819L66.0873 39.6844L66.0885 39.6868L66.0896 39.6892L66.0907 39.6916L66.0919 39.694L66.0931 39.6964L66.0944 39.6988L66.0955 39.7012L66.0968 39.7035L66.098 39.7059L66.0993 39.7082L66.1006 39.7106L66.1019 39.7129L66.1032 39.7152L66.1045 39.7175L66.1059 39.7198L66.1072 39.7221L66.1086 39.7244L66.11 39.7267L66.1114 39.729L66.1128 39.7312L66.1142 39.7335L66.1156 39.7357L66.1171 39.738L66.1185 39.7402L66.12 39.7424L66.1214 39.7446L66.123 39.7468L66.1244 39.749L66.126 39.7512L66.1275 39.7533L66.129 39.7555L66.1306 39.7576L66.1321 39.7598L66.1337 39.7619L66.1353 39.764L66.1369 39.7661L66.1386 39.7683L66.1402 39.7703L66.1419 39.7724L66.1435 39.7745L66.1452 39.7766L66.1469 39.7786L66.1486 39.7806L66.1503 39.7827L66.152 39.7847L66.1537 39.7867L66.1555 39.7887L66.1572 39.7907L66.1589 39.7927L66.1607 39.7946L66.1626 39.7966L66.1644 39.7985L66.1662 39.8005L66.168 39.8024L66.1698 39.8043L66.1717 39.8062L66.1735 39.8081L66.1754 39.81L66.1773 39.8118L66.1792 39.8137L66.181 39.8155L66.183 39.8174L66.1849 39.8192L66.1868 39.821L66.1888 39.8228L66.1907 39.8246L66.1927 39.8264L66.1946 39.8281L66.1967 39.8299L66.1987 39.8316L66.2007 39.8334L66.2027 39.8351L66.2047 39.8368L66.2068 39.8385L66.2088 39.8402L66.2109 39.8418L66.213 39.8435L66.2151 39.8451L66.2171 39.8468L66.2192 39.8484L66.2213 39.85L66.2235 39.8516L66.2255 39.8532L66.2277 39.8548L66.2298 39.8563L66.232 39.8579L66.2342 39.8594L66.2364 39.8609L66.2385 39.8624L66.2407 39.8639L66.243 39.8654L66.2452 39.8669L66.2474 39.8683L66.2496 39.8698L66.2519 39.8712L66.2542 39.8726L66.2564 39.874L66.2587 39.8754L66.261 39.8768L66.2632 39.8781L66.2655 39.8795L66.2678 39.8808L66.2701 39.8821L66.2725 39.8835L66.2748 39.8847L66.2771 39.886L66.2795 39.8873L66.2819 39.8886L66.2842 39.8898L66.2866 39.891L66.2889 39.8922L66.2914 39.8934L66.2937 39.8946L66.2962 39.8958L66.2986 39.8969L66.301 39.8981L66.3034 39.8992L66.3059 39.9003L66.3083 39.9014L66.3107 39.9025L66.3132 39.9036L66.3157 39.9046L66.3182 39.9057L66.3207 39.9067L66.3231 39.9077L66.3256 39.9087L66.3282 39.9097L66.3307 39.9106L66.3332 39.9116L66.3357 39.9125L66.3382 39.9134L66.3407 39.9143L66.3433 39.9152L66.3459 39.9161L66.3485 39.917L66.351 39.9178L66.3536 39.9186L66.3562 39.9194L66.3588 39.9202L66.3614 39.921L66.3639 39.9218L66.3666 39.9225L66.3692 39.9233L66.3719 39.924L66.3744 39.9247L66.3771 39.9254L66.3797 39.9261L66.3824 39.9267L66.3851 39.9274L66.3877 39.928L66.3904 39.9286L66.393 39.9292L66.3957 39.9298L66.3984 39.9303L66.4011 39.9309L66.4038 39.9314L66.4065 39.9319L66.4092 39.9324L66.4119 39.9329L66.4146 39.9333L66.4174 39.9338L66.4201 39.9342L66.4228 39.9346L66.4256 39.935L66.4284 39.9354L66.4311 39.9357L66.4339 39.9361L66.4367 39.9364L66.4394 39.9367L66.4422 39.937L66.445 39.9373L66.4478 39.9375L66.4505 39.9378L66.4534 39.938L66.4562 39.9382L66.4589 39.9384L66.4618 39.9386L66.4646 39.9387L66.4674 39.9388L66.4703 39.939L66.4731 39.9391L66.476 39.9391L66.4788 39.9392L66.4817 39.9393L66.4845 39.9393L66.4873 39.9393L66.4902 39.9393L66.493 39.9393L66.4959 39.9392L66.4987 39.9391L66.5016 39.9391L66.5044 39.939L66.5073 39.9388L66.5101 39.9387L66.5129 39.9386L66.5157 39.9384L66.5185 39.9382L66.5213 39.938L66.5242 39.9378L66.5269 39.9375L66.5297 39.9373L66.5325 39.937L66.5353 39.9367L66.538 39.9364L66.5408 39.9361L66.5436 39.9357L66.5463 39.9354L66.5491 39.935L66.5518 39.9346L66.5546 39.9342L66.5573 39.9338L66.5601 39.9333L66.5628 39.9329L66.5655 39.9324L66.5682 39.9319L66.5709 39.9314L66.5736 39.9309L66.5762 39.9303L66.5789 39.9298L66.5817 39.9292L66.5843 39.9286L66.587 39.928L66.5896 39.9274L66.5923 39.9267L66.5949 39.9261L66.5976 39.9254L66.6002 39.9247L66.6028 39.924L66.6055 39.9233L66.6081 39.9225L66.6107 39.9218L66.6133 39.921L66.6159 39.9202L66.6185 39.9194L66.6211 39.9186L66.6237 39.9178L66.6262 39.917L66.6288 39.9161L66.6314 39.9152L66.6339 39.9143L66.6364 39.9134L66.6389 39.9125L66.6415 39.9116L66.644 39.9106L66.6465 39.9097L66.6491 39.9087L66.6515 39.9077L66.654 39.9067L66.6565 39.9056L66.659 39.9046L66.6614 39.9036L66.6639 39.9025L66.6664 39.9014L66.6688 39.9003L66.6712 39.8992L66.6737 39.8981L66.6761 39.8969L66.6785 39.8958L66.681 39.8946L66.6833 39.8934L66.6857 39.8922L66.6881 39.891L66.6905 39.8898L66.6928 39.8886L66.6952 39.8873L66.6976 39.886L66.6999 39.8847L66.7022 39.8835L66.7046 39.8821L66.7069 39.8808L66.7092 39.8795L66.7114 39.8781L66.7137 39.8768L66.716 39.8754L66.7183 39.874L66.7205 39.8726L66.7228 39.8712L66.7251 39.8698L66.7273 39.8683L66.7295 39.8669L66.7317 39.8654L66.7339 39.8639L66.7362 39.8624L66.7383 39.8609L66.7405 39.8594L66.7427 39.8579L66.7448 39.8563L66.747 39.8548L66.7491 39.8532L66.7512 39.8516L66.7534 39.85L66.7555 39.8484L66.7576 39.8468L66.7596 39.8451L66.7617 39.8435L66.7638 39.8418L66.7659 39.8402L66.7679 39.8385L66.77 39.8368L66.772 39.8351L66.774 39.8334L66.776 39.8316L66.778 39.8299L66.78 39.8281L66.782 39.8264L66.7839 39.8246L66.7859 39.8228L66.7878 39.821L66.7898 39.8192L66.7917 39.8174L66.7936 39.8155L66.7955 39.8137L66.7974 39.8118L66.7993 39.81L66.8012 39.8081L66.803 39.8062L66.8048 39.8043L66.8067 39.8024L66.8085 39.8005L66.8103 39.7985L66.8121 39.7966L66.8139 39.7946L66.8157 39.7927L66.8175 39.7907L66.8192 39.7887L66.821 39.7867L66.8227 39.7847L66.8244 39.7827L66.8261 39.7806L66.8278 39.7786L66.8295 39.7766L66.8312 39.7745L66.8328 39.7724L66.8345 39.7703L66.8361 39.7683L66.8377 39.7662L66.8394 39.764L66.8409 39.7619L66.8425 39.7598L66.8441 39.7576L66.8456 39.7555L66.8472 39.7533L66.8487 39.7512L66.8503 39.749L66.8517 39.7468L66.8532 39.7446L66.8547 39.7424L66.8562 39.7402L66.8576 39.738L66.8591 39.7357L66.8605 39.7335L66.8619 39.7312L66.8633 39.729L66.8647 39.7267L66.8661 39.7244L66.8675 39.7221L66.8688 39.7198L66.8701 39.7175L66.8714 39.7152L66.8728 39.7129L66.8741 39.7106L66.8753 39.7082L66.8767 39.7059L66.8779 39.7035L66.8791 39.7012L66.8803 39.6988L66.8816 39.6964L66.8828 39.694L66.8839 39.6916L66.8851 39.6892L66.8862 39.6868L66.8874 39.6844L66.8885 39.6819L66.8896 39.6795L66.8907 39.6771L66.8918 39.6746L66.8929 39.6721L66.8939 39.6697L66.895 39.6672L66.896 39.6647L66.897 39.6622L66.898 39.6597L66.899 39.6572L66.8999 39.6547L66.9009 39.6522L66.9019 39.6497L66.9028 39.6471L66.9037 39.6446L66.9046 39.642L66.9054 39.6395L66.9063 39.6369L66.9071 39.6343L66.908 39.6318L66.9087 39.6292L66.9096 39.6266L66.9103 39.624L66.9111 39.6214L66.9119 39.6188L66.9126 39.6162L66.9133 39.6135L66.914 39.6109L66.9147 39.6083L66.9154 39.6056L66.916 39.603L66.9167 39.6003L66.9173 39.5977L66.9179 39.595L66.9185 39.5923L66.9191 39.5896L66.9196 39.5869L66.9202 39.5843L66.9207 39.5816L66.9212 39.5788L66.9217 39.5761L66.9222 39.5734L66.9226 39.5707L66.9231 39.568L66.9235 39.5652L66.9239 39.5625L66.9244 39.5598L66.9247 39.557L66.9251 39.5542L66.9254 39.5515L66.9257 39.5487L66.926 39.5459L66.9263 39.5432L66.9266 39.5404L66.9269 39.5376L66.9271 39.5348L66.9273 39.532L66.9276 39.5292L66.9277 39.5264L66.9279 39.5236L66.928 39.5207L66.9282 39.5179L66.9282 39.5151L66.9284 39.5123L66.9285 39.5094L66.9285 39.5066L66.9286 39.5037V39.5009V39.498V39.4952V39.4923L66.9285 39.4894L66.9285 39.4866L66.9284 39.4838L66.9282 39.4809L66.9282 39.4781L66.928 39.4753L66.9279 39.4725L66.9277 39.4696L66.9276 39.4668L66.9273 39.464L66.9271 39.4612L66.9269 39.4584L66.9266 39.4557L66.9263 39.4529L66.926 39.4501L66.9257 39.4473L66.9254 39.4446L66.9251 39.4418L66.9247 39.439L66.9244 39.4363L66.9239 39.4335L66.9235 39.4308L66.9231 39.4281L66.9226 39.4253L66.9222 39.4226L66.9217 39.4199L66.9212 39.4172L66.9207 39.4145L66.9202 39.4118L66.9196 39.4091L66.9191 39.4064L66.9185 39.4037L66.9179 39.4011L66.9173 39.3984L66.9167 39.3957L66.916 39.3931L66.9154 39.3904L66.9147 39.3878L66.914 39.3851L66.9133 39.3825L66.9126 39.3799L66.9119 39.3773L66.9111 39.3747L66.9103 39.372L66.9096 39.3694L66.9087 39.3669L66.908 39.3643L66.9071 39.3617L66.9063 39.3591L66.9054 39.3566L66.9046 39.354L66.9037 39.3515L66.9028 39.3489L66.9019 39.3464L66.9009 39.3438L66.8999 39.3413L66.899 39.3388L66.898 39.3363L66.897 39.3338L66.896 39.3313L66.895 39.3288L66.8939 39.3264L66.8929 39.3239L66.8918 39.3214L66.8907 39.319L66.8896 39.3165L66.8885 39.3141L66.8874 39.3117L66.8862 39.3092L66.8851 39.3068L66.8839 39.3044L66.8828 39.302L66.8816 39.2996L66.8803 39.2973L66.8791 39.2949L66.8779 39.2925L66.8767 39.2902L66.8753 39.2878L66.8741 39.2855L66.8728 39.2831L66.8714 39.2808L66.8701 39.2785L66.8688 39.2762L66.8675 39.2739L66.8661 39.2716L66.8647 39.2693L66.8633 39.2671L66.8619 39.2648L66.8605 39.2626L66.8591 39.2603L66.8576 39.2581L66.8562 39.2558L66.8547 39.2536L66.8532 39.2514L66.8517 39.2492L66.8503 39.247L66.8487 39.2449L66.8472 39.2427L66.8456 39.2405L66.8441 39.2384L66.8425 39.2362L66.8409 39.2341L66.8394 39.232L66.8377 39.2299L66.8361 39.2278L66.8345 39.2257L66.8328 39.2236L66.8312 39.2215L66.8295 39.2195L66.8278 39.2174L66.8261 39.2154L66.8244 39.2134L66.8227 39.2113L66.821 39.2093L66.8192 39.2073L66.8175 39.2053L66.8157 39.2034L66.8139 39.2014L66.8121 39.1994L66.8103 39.1975L66.8085 39.1956L66.8067 39.1936L66.8048 39.1917L66.803 39.1898L66.8012 39.1879L66.7993 39.1861L66.7974 39.1842L66.7955 39.1823L66.7936 39.1805L66.7917 39.1787L66.7898 39.1768L66.7878 39.175L66.7859 39.1732L66.7839 39.1714L66.782 39.1696L66.78 39.1679L66.778 39.1661L66.776 39.1644L66.774 39.1627L66.772 39.1609L66.77 39.1592L66.7679 39.1575L66.7659 39.1559L66.7638 39.1542L66.7617 39.1525L66.7596 39.1509L66.7576 39.1493L66.7555 39.1476L66.7534 39.146L66.7512 39.1444L66.7491 39.1428L66.747 39.1413L66.7448 39.1397L66.7427 39.1382L66.7405 39.1366L66.7383 39.1351L66.7362 39.1336L66.7339 39.1321L66.7317 39.1306L66.7295 39.1292L66.7273 39.1277L66.7251 39.1263L66.7228 39.1248L66.7205 39.1234L66.7183 39.122L66.716 39.1206L66.7137 39.1193L66.7114 39.1179L66.7092 39.1165L66.7069 39.1152L66.7046 39.1139L66.7022 39.1126L66.6999 39.1113L66.6976 39.11L66.6952 39.1087L66.6928 39.1075L66.6905 39.1062L66.6881 39.105L66.6857 39.1038L66.6833 39.1026L66.681 39.1014L66.6785 39.1003L66.6761 39.0991L66.6737 39.098L66.6712 39.0968L66.6688 39.0957L66.6664 39.0946L66.6639 39.0935L66.6614 39.0925L66.659 39.0914L66.6565 39.0904L66.654 39.0894L66.6515 39.0883L66.6491 39.0874L66.6465 39.0864L66.644 39.0854L66.6415 39.0845L66.6389 39.0835L66.6364 39.0826L66.6339 39.0817L66.6314 39.0808L66.6288 39.0799L66.6262 39.0791L66.6237 39.0782L66.6211 39.0774L66.6185 39.0766L66.6159 39.0758L66.6133 39.075L66.6107 39.0742L66.6081 39.0735L66.6055 39.0728L66.6028 39.072L66.6002 39.0713L66.5976 39.0706L66.5949 39.07L66.5923 39.0693L66.5896 39.0687L66.587 39.0681L66.5843 39.0674L66.5817 39.0668L66.5789 39.0663L66.5762 39.0657L66.5736 39.0652L66.5709 39.0646L66.5682 39.0641L66.5655 39.0636L66.5628 39.0632L66.5601 39.0627L66.5573 39.0623L66.5546 39.0618L66.5518 39.0614L66.5491 39.061L66.5463 39.0607L66.5436 39.0603L66.5408 39.06L66.538 39.0596L66.5353 39.0593L66.5325 39.059L66.5297 39.0588L66.5269 39.0585L66.5242 39.0583L66.5213 39.058L66.5185 39.0578L66.5157 39.0576L66.5129 39.0575L66.5101 39.0573L66.5073 39.0572L66.5044 39.0571L66.5016 39.057L66.4987 39.0569L66.4959 39.0568L66.493 39.0568L66.4902 39.0568L66.4873 39.0567L66.4845 39.0568Z" fill="#A5C5B6"/>
<path fill-rule="evenodd" clip-rule="evenodd" d="M66.6091 39.2117C66.6731 39.2134 66.7246 39.266 66.7246 39.3304C66.7246 39.3949 66.6731 39.4474 66.6091 39.4492V39.2117Z" fill="#484659"/>
<path fill-rule="evenodd" clip-rule="evenodd" d="M66.5023 39.3424C66.5319 39.3143 66.5787 39.3148 66.6077 39.3438C66.6367 39.3728 66.6371 39.4196 66.6091 39.4492L66.5023 39.3424Z" fill="#484659"/>
<path fill-rule="evenodd" clip-rule="evenodd" d="M66.6019 39.5976H66.4194C66.4216 39.5153 66.4891 39.4492 66.572 39.4492C66.6548 39.4492 66.7224 39.5153 66.7246 39.5976V39.6368C66.7246 39.6707 66.6971 39.6982 66.6633 39.6982C66.6294 39.6982 66.6019 39.6707 66.6019 39.6368V39.5976Z" fill="url(#paint1_radial)"/>
<path d="M66.6633 39.6602C66.6701 39.6602 66.6757 39.6547 66.6757 39.6479C66.6757 39.6411 66.6701 39.6356 66.6633 39.6356C66.6565 39.6356 66.651 39.6411 66.651 39.6479C66.651 39.6547 66.6565 39.6602 66.6633 39.6602Z" fill="#DCDDCB"/>
<path fill-rule="evenodd" clip-rule="evenodd" d="M66.4194 39.5977V39.7153C66.356 39.7135 66.305 39.6615 66.305 39.5977H66.4194Z" fill="#484659"/>
<path d="M66.6703 39.6938H66.6562V39.8155H66.6703V39.6938Z" fill="#484659"/>
<path d="M66.1914 39.385V39.4434H66.2206V39.443V39.4015V39.3934H66.2236C66.2343 39.4105 66.2452 39.4284 66.2545 39.4434H66.2893V39.443C66.2884 39.4417 66.2832 39.4342 66.2797 39.429C66.2551 39.3927 66.2529 39.3892 66.2518 39.3875V39.387C66.2539 39.3862 66.2574 39.3837 66.2604 39.381C66.2656 39.3769 66.2724 39.3665 66.2724 39.3522C66.2724 39.3282 66.257 39.3187 66.2459 39.3157C66.2384 39.3137 66.2301 39.3127 66.2194 39.3127C66.2149 39.3127 66.2069 39.3129 66.2032 39.313C66.1989 39.3132 66.1943 39.3135 66.1914 39.3139V39.385ZM66.2426 39.3547C66.2426 39.3619 66.2389 39.3667 66.2359 39.3687C66.2331 39.3707 66.2293 39.372 66.2249 39.372C66.2234 39.372 66.2218 39.372 66.2206 39.3719V39.3387C66.222 39.3385 66.2236 39.3384 66.2264 39.3384C66.2364 39.3384 66.2426 39.3444 66.2426 39.3545V39.3547Z" fill="#484659"/>
<path d="M66.307 39.385V39.4434H66.3362V39.443V39.4015V39.3934H66.3392C66.3499 39.4105 66.3609 39.4284 66.3702 39.4434H66.4049V39.443C66.404 39.4417 66.3989 39.4342 66.3953 39.429C66.3707 39.3927 66.3685 39.3892 66.3674 39.3875V39.387C66.3695 39.3862 66.373 39.3837 66.376 39.381C66.3812 39.3769 66.388 39.3665 66.388 39.3522C66.388 39.3282 66.3727 39.3187 66.3615 39.3157C66.354 39.3137 66.3457 39.3127 66.3351 39.3127C66.3305 39.3127 66.3226 39.3129 66.3189 39.313C66.3145 39.3132 66.3099 39.3135 66.307 39.3139V39.385ZM66.3582 39.3547C66.3582 39.3619 66.3545 39.3667 66.3515 39.3687C66.3487 39.3707 66.3449 39.372 66.3405 39.372C66.339 39.372 66.3374 39.372 66.3362 39.3719V39.3387C66.3377 39.3385 66.3392 39.3384 66.342 39.3384C66.352 39.3384 66.3582 39.3444 66.3582 39.3545V39.3547Z" fill="#484659"/>
<defs>
<radialGradient id="paint0_radial" cx="0" cy="0" r="1" gradientUnits="userSpaceOnUse" gradientTransform="translate(100.626 97.4733) rotate(-44.9999) scale(18.6307 16.4951)">
<stop stop-color="#BF3B40"/>
<stop offset="1" stop-color="#484659"/>
</radialGradient>
<radialGradient id="paint1_radial" cx="0" cy="0" r="1" gradientUnits="userSpaceOnUse" gradientTransform="translate(66.6004 39.5919) rotate(-44.9999) scale(0.112913 0.0999705)">
<stop stop-color="#BF3B40"/>
<stop offset="1" stop-color="#484659"/>
</radialGradient>
</defs>
</svg>
