<svg width="460" height="360" viewBox="0 0 460 360" fill="none" xmlns="http://www.w3.org/2000/svg">
<rect width="460" height="360" fill="white"/>
<path d="M413.456 117.235L413.412 116.762L413.351 116.385C413.272 115.876 413.158 115.412 413.044 114.947C412.588 113.088 412.045 111.326 411.519 109.555C411.001 107.802 410.449 106.022 410.125 104.339C410.063 103.883 410.002 103.445 409.967 103.024L409.862 101.691C409.8 100.797 409.765 99.885 409.73 98.9732L409.581 93.4762C409.555 92.5557 409.528 91.6264 409.467 90.6883C409.414 90.1009 409.388 89.8028 409.265 89.2066C409.169 88.6543 409.037 88.1984 408.862 87.7162C408.538 86.7693 408.126 85.8663 407.661 85.0159C407.433 84.5863 407.196 84.1655 406.942 83.7447C406.679 83.3238 406.425 82.9381 406.118 82.4997L405.767 82L405.11 82.0614L396.185 82.8592L391.722 83.2362C390.232 83.3677 388.75 83.4729 387.26 83.6307L386.857 83.6658L386.532 83.9375C385.121 85.1123 383.49 86.217 381.842 87.1376C381.009 87.5935 380.158 88.0055 379.299 88.3562C378.423 88.7157 377.598 88.9611 376.599 89.2154L365.079 92.2751L342.039 98.3946L295.958 110.634L205.394 134.682L205.209 130.71L205.341 130.64C205.402 130.614 205.7 130.404 205.788 130.316C206.323 129.842 206.682 129.176 206.788 128.466C206.84 128.115 206.831 127.747 206.752 127.396C206.717 127.221 206.665 127.046 206.595 126.888C206.516 126.686 206.489 126.66 206.446 126.546L205.937 125.433L205.911 125.38L205.876 125.319C205.332 124.363 204.219 123.749 203.114 123.819C202.991 123.819 202.807 123.846 202.737 123.863L202.509 123.898L202.053 123.977L201.133 124.135L197.451 124.758L190.086 126.011L188.245 126.327L187.324 126.485L187.149 126.52L187.096 126.537L186.983 126.564L186.755 126.625C186.641 126.642 186.386 126.739 186.15 126.844C185.913 126.949 185.685 127.055 185.51 127.195C185.326 127.335 185.133 127.44 184.975 127.624C184.633 127.94 184.352 128.326 184.142 128.755C183.73 129.615 183.66 130.702 184.089 131.64C184.501 132.595 185.387 133.235 186.22 133.507C187.07 133.796 187.859 133.753 188.596 133.674C189.306 133.577 189.849 133.463 190.489 133.367L191.226 133.244C191.331 134.393 191.445 135.532 191.515 136.69L191.533 136.979L191.541 137.119L191.55 137.189V137.224V137.233C191.55 137.233 191.55 137.242 191.541 137.242C191.533 137.259 191.533 137.268 191.515 137.295C191.41 137.461 191.164 137.689 190.901 137.891C190.358 138.312 189.692 138.653 189.025 138.987C187.675 139.635 186.229 140.17 184.782 140.617C184.054 140.837 183.318 141.047 182.59 141.205C181.88 141.363 181.091 141.477 180.328 141.617L161.865 144.843L124.946 151.287L88.0274 157.731L69.5638 160.957L60.3319 162.57L55.7204 163.359L55.1067 163.473C54.9489 163.5 54.6683 163.57 54.4404 163.649C53.9845 163.807 53.5637 164.026 53.1691 164.306C52.3976 164.867 51.8015 165.674 51.4858 166.577L51.4595 166.647L51.4508 166.726L46.5675 196.035C46.3833 197.464 46.7866 198.963 47.5932 200.146C48.4261 201.321 49.6623 202.224 51.0738 202.566C51.4245 202.671 51.7839 202.706 52.1434 202.742L52.6869 202.759L53.1604 202.75L55.0102 202.698L58.7188 202.601L73.544 202.18C79.6898 201.996 85.8356 201.803 91.9814 201.584C94.7343 203.829 115.679 220.863 125.06 227.246C133.924 233.278 162.899 253.337 169.466 257.887C169.448 257.905 169.422 257.922 169.396 257.94C168.948 258.29 168.536 258.694 168.159 259.123C167.782 259.553 167.44 260.017 167.142 260.508C166.853 260.999 166.59 261.517 166.388 262.051C166.178 262.586 166.02 263.139 165.915 263.7C165.801 264.261 165.757 264.831 165.74 265.409V265.514V265.628V265.672L165.748 265.856L165.766 266.225C165.766 266.444 165.827 266.786 165.862 267.084C165.897 267.391 165.968 267.68 166.038 267.952C166.108 268.232 166.178 268.504 166.283 268.776C166.467 269.319 166.713 269.837 166.985 270.345C167.265 270.845 167.598 271.31 167.949 271.765L168.528 272.405C168.729 272.607 168.948 272.791 169.159 272.993C169.597 273.361 170.062 273.703 170.553 273.984C170.79 274.141 171.053 274.255 171.316 274.387C171.57 274.518 171.833 274.624 172.105 274.72C172.639 274.93 173.201 275.071 173.762 275.176C174.253 275.272 174.752 275.307 175.261 275.325C178.084 276.167 180.924 276.64 183.756 276.999C186.649 277.359 189.543 277.578 192.427 277.736C193.874 277.815 195.311 277.867 196.758 277.92L198.95 277.981L201.106 277.99C202.535 278.008 203.973 278.008 205.446 277.938L207.638 277.867C208.366 277.841 209.093 277.762 209.821 277.71C215.616 277.254 221.499 276.237 226.97 273.887C229.986 272.642 232.791 270.994 235.43 269.127C236.088 268.661 236.526 268.337 236.85 268.092C237.21 267.82 237.569 267.54 237.929 267.259C238.463 266.799 238.661 266.663 238.937 266.435C239.84 265.69 240.734 264.927 241.593 264.147C243.767 262.201 245.837 260.219 247.888 258.159C249.913 256.125 251.903 254.047 253.885 251.943C257.856 247.761 261.767 243.57 265.685 239.362L289.094 214.077L335.691 163.316L358.933 137.891L361.835 134.708L363.264 133.139C363.738 132.639 364.246 132.139 364.746 131.649C365.754 130.667 366.797 129.728 367.858 128.869C368.393 128.457 368.936 128.054 369.462 127.747C369.717 127.607 369.971 127.484 370.138 127.44L370.164 127.431C370.173 127.431 370.19 127.423 370.19 127.423L370.322 127.396L370.585 127.344L371.032 127.282C373.715 126.967 376.634 126.923 379.492 126.791L381.675 126.686C382.035 126.66 382.403 126.634 382.797 126.59H382.859L382.99 126.581C383.06 126.581 383.209 126.564 383.218 126.581C383.28 126.607 383.297 126.581 383.429 126.625C384.27 126.8 385.349 127.756 386.015 128.659L386.471 129.273L387.19 129.22L410.861 127.467L411.887 127.388L412.053 126.397L412.983 120.891L413.211 119.515L413.456 118.033C413.474 117.788 413.491 117.595 413.456 117.235ZM202.851 136.243L202.15 136.374C202.106 136.207 202.045 135.953 201.992 135.629C201.887 135.05 201.799 134.27 201.755 133.49C201.72 132.709 201.72 131.929 201.764 131.333C201.773 131.245 201.781 131.166 201.79 131.087L202.614 130.947L202.851 136.243ZM193.383 137.207V137.172V137.102L193.374 136.953L193.365 136.655C193.304 135.304 193.277 133.946 193.26 132.595L193.987 132.464C194.023 132.613 194.058 132.797 194.101 133.007C194.207 133.586 194.294 134.366 194.338 135.147C194.373 135.927 194.373 136.707 194.329 137.303C194.312 137.54 194.286 137.733 194.268 137.891L193.137 138.11C193.137 138.101 193.146 138.101 193.146 138.092C193.181 138.022 193.225 137.961 193.269 137.829C193.304 137.724 193.347 137.558 193.356 137.496L193.374 137.347C193.391 137.128 193.383 137.268 193.383 137.207ZM194.961 137.759C194.926 137.619 194.899 137.461 194.864 137.277C194.759 136.698 194.671 135.918 194.627 135.138C194.592 134.358 194.592 133.577 194.636 132.981C194.654 132.718 194.68 132.499 194.706 132.332L195.425 132.21C195.46 132.35 195.487 132.499 195.522 132.683C195.627 133.262 195.715 134.042 195.758 134.822C195.794 135.603 195.794 136.383 195.75 136.979C195.732 137.242 195.706 137.452 195.68 137.619L194.961 137.759ZM196.398 137.487C196.363 137.338 196.328 137.163 196.284 136.953C196.179 136.374 196.092 135.594 196.048 134.813C196.013 134.033 196.013 133.253 196.057 132.657C196.074 132.429 196.092 132.245 196.118 132.096L196.863 131.964C196.889 132.078 196.916 132.218 196.942 132.359C197.047 132.937 197.135 133.718 197.179 134.498C197.214 135.278 197.214 136.058 197.17 136.655C197.144 136.944 197.117 137.181 197.1 137.356L196.398 137.487ZM197.836 137.207C197.801 137.049 197.757 136.856 197.714 136.619C197.608 136.041 197.521 135.261 197.477 134.48C197.442 133.7 197.442 132.92 197.486 132.324C197.503 132.139 197.521 131.982 197.529 131.841L198.301 131.71C198.318 131.806 198.345 131.912 198.362 132.034C198.467 132.613 198.555 133.393 198.599 134.173C198.634 134.954 198.634 135.734 198.59 136.33C198.564 136.655 198.529 136.918 198.511 137.084L197.836 137.207ZM199.274 136.935C199.239 136.769 199.186 136.558 199.143 136.295C199.037 135.716 198.95 134.936 198.906 134.156C198.871 133.376 198.871 132.595 198.915 131.999C198.923 131.85 198.941 131.719 198.95 131.596L199.748 131.456C199.765 131.535 199.783 131.613 199.8 131.701C199.905 132.28 199.993 133.06 200.037 133.84C200.072 134.621 200.072 135.401 200.028 135.997C200.002 136.365 199.967 136.646 199.94 136.812L199.274 136.935ZM200.712 136.655C200.668 136.488 200.615 136.251 200.563 135.962C200.458 135.383 200.37 134.603 200.326 133.823C200.291 133.042 200.291 132.262 200.335 131.666C200.344 131.543 200.352 131.438 200.361 131.342L201.177 131.201C201.185 131.263 201.203 131.307 201.212 131.368C201.317 131.947 201.405 132.727 201.448 133.507C201.483 134.287 201.483 135.068 201.44 135.664C201.405 136.076 201.361 136.383 201.343 136.532L200.712 136.655ZM187.772 129.395C188.219 129.395 188.578 129.755 188.578 130.202C188.578 130.649 188.219 131.009 187.772 131.009C187.324 131.009 186.965 130.649 186.965 130.202C186.965 129.755 187.333 129.395 187.772 129.395ZM190.165 131.105C189.823 131.131 189.455 131.175 189.104 131.21C189.323 130.93 189.455 130.579 189.455 130.202C189.455 129.676 189.201 129.211 188.824 128.896L190.507 128.606L197.871 127.353L201.554 126.73L203.254 126.441C203.395 126.432 203.526 126.511 203.605 126.625L204.07 127.633C204.105 127.712 204.175 127.861 204.166 127.852C204.175 127.879 204.184 127.905 204.192 127.922C204.201 127.975 204.201 128.019 204.201 128.072C204.184 128.177 204.131 128.273 204.061 128.335C204 128.378 204.131 128.299 204.017 128.37L203.956 128.405L203.947 128.413L203.815 128.484L203.272 128.773L202.544 129.159V129.167L193.234 130.807L192.041 130.921L190.165 131.105ZM191.541 137.233C191.541 137.224 191.541 137.224 191.541 137.224L191.533 137.286C191.533 137.321 191.533 137.251 191.541 137.233ZM184.817 264.489C184.721 263.998 184.572 263.516 184.396 263.051L187.395 260.544L184.817 264.489ZM187.596 260.237L184.072 262.271C183.905 261.92 183.712 261.587 183.511 261.262L190.051 256.204C189.893 256.607 189.709 257.002 189.472 257.361L187.596 260.237ZM190.279 255.581C190.226 255.765 190.156 255.941 190.086 256.116L183.011 260.579C182.783 260.281 182.529 259.991 182.266 259.728L190.945 253.162L190.279 255.581ZM190.963 253.091L181.626 259.114C181.328 258.86 181.012 258.624 180.679 258.413L191.761 250.154L190.963 253.091ZM191.778 250.111L179.864 257.931L179.872 257.94C179.487 257.738 179.075 257.563 178.654 257.414L192.585 247.165L191.778 250.111ZM192.593 247.121L181.608 254.424C182.213 253.644 182.713 252.802 183.09 251.89L193.4 244.184L192.593 247.121ZM193.418 244.123L183.59 250.54L184.151 248.734L194.224 241.186L193.418 244.123ZM194.233 241.133L184.545 247.454L185.106 245.648L195.04 238.196L194.233 241.133ZM195.057 238.143L185.501 244.368L186.062 242.562L195.855 235.206L195.057 238.143ZM195.872 235.154L186.456 241.282L187.018 239.476L196.679 232.217L195.872 235.154ZM196.697 232.164L187.421 238.196L187.982 236.39L197.503 229.227L196.697 232.164ZM197.512 229.175L188.368 235.119L188.929 233.313L198.31 226.246L197.512 229.175ZM198.327 226.185L189.323 232.033L189.884 230.227L199.134 223.257L198.327 226.185ZM199.151 223.195L190.279 228.947L190.84 227.132L199.949 220.258L199.151 223.195ZM199.967 220.197L191.235 225.852L191.796 224.037L200.773 217.26L199.967 220.197ZM200.791 217.207L192.199 222.766L192.76 220.951L201.597 214.27L200.791 217.207ZM201.606 214.218L193.146 219.688L193.707 217.874L202.404 211.298L201.606 214.218ZM202.422 211.228L194.101 216.602L194.663 214.788L203.219 208.309L202.422 211.228ZM203.623 206.853L203.246 208.239L195.057 213.516L195.618 211.702L203.877 205.433C203.833 205.898 203.754 206.371 203.623 206.853ZM195.943 210.483C196.039 209.974 196.083 209.466 196.083 208.966L203.745 203.11C203.903 203.837 203.956 204.6 203.886 205.38L195.943 210.483ZM196.03 207.976C195.986 207.555 195.907 207.143 195.802 206.739L203.018 201.207C203.351 201.795 203.588 202.417 203.737 203.066L196.03 207.976ZM195.522 205.906C195.381 205.547 195.224 205.196 195.031 204.863L201.817 199.629C202.009 199.822 202.202 200.024 202.369 200.234C202.606 200.532 202.807 200.839 202.991 201.155L195.522 205.906ZM194.566 204.144C194.531 204.092 194.505 204.039 194.47 203.995C194.268 203.723 194.058 203.469 193.83 203.224L200.116 198.349C200.729 198.691 201.282 199.103 201.773 199.585L194.566 204.144ZM193.198 202.619C192.883 202.347 192.55 202.102 192.199 201.882L197.827 197.49C198.617 197.674 199.362 197.946 200.037 198.314L193.198 202.619ZM191.392 201.435C190.954 201.225 190.489 201.049 190.016 200.918L194.654 197.262L195.224 197.245H195.232C196.083 197.201 196.916 197.288 197.705 197.455L191.384 201.409L191.392 201.435ZM189.183 200.743C188.727 200.664 188.263 200.611 187.789 200.611L187.193 200.602C187.114 200.594 187.035 200.576 186.947 200.567L190.937 197.394L194.364 197.28L189.052 200.558L189.183 200.743ZM185.79 200.453C185.422 200.427 185.062 200.409 184.712 200.401C184.352 200.392 184.01 200.383 183.66 200.383L187.237 197.525L190.656 197.411L185.764 200.409L185.79 200.453ZM182.31 200.348C181.608 200.331 180.907 200.322 180.205 200.304L183.519 197.648L186.939 197.534L182.31 200.348ZM178.908 200.269C178.373 200.252 177.838 200.243 177.295 200.225L176.795 200.208L179.811 197.771L183.23 197.657L178.908 200.269ZM175.55 200.164L173.393 200.094L176.102 197.893L179.522 197.779L175.55 200.164ZM172.201 200.05L169.983 199.98L172.385 198.016L175.804 197.902L172.201 200.05ZM168.861 199.945L166.573 199.866L168.668 198.148L172.087 198.034L168.861 199.945ZM165.529 199.831L163.171 199.752L164.959 198.27L168.379 198.156L165.529 199.831ZM162.189 199.717C161.382 199.691 160.567 199.664 159.752 199.638L161.242 198.393L164.661 198.279L162.189 199.717ZM158.857 199.612C158.016 199.585 157.174 199.559 156.341 199.524L157.534 198.516L160.953 198.402L158.857 199.612ZM155.535 199.498C154.667 199.471 153.79 199.436 152.922 199.41L153.825 198.638L157.235 198.525L155.535 199.498ZM152.221 199.384C151.309 199.357 150.406 199.322 149.494 199.296L150.108 198.761L153.518 198.647L152.221 199.384ZM148.907 199.278C147.96 199.252 147.004 199.217 146.057 199.191L146.399 198.893L149.81 198.779L148.907 199.278ZM145.584 199.173C144.602 199.147 143.62 199.121 142.638 199.094L142.726 199.007L146.092 198.893L145.584 199.173ZM142.156 199.077C141.884 199.068 141.612 199.059 141.341 199.051L142.27 199.015L142.156 199.077ZM114.285 200.637C115.495 200.611 116.731 200.62 117.967 200.629C122.894 200.655 127.83 200.769 132.766 200.909C142.638 201.19 152.519 201.567 162.399 201.944L177.225 202.505C179.679 202.592 182.213 202.663 184.633 202.706L185.562 202.742C185.869 202.75 186.123 202.803 186.404 202.829C186.947 202.873 187.509 203.013 188.043 203.136C189.113 203.417 190.069 203.89 190.77 204.565C192.181 205.906 192.304 208.195 191.673 210.351L189.455 217.383L184.966 231.515L180.565 245.403C180.048 245.14 179.425 244.806 178.671 244.421C177.584 243.851 176.269 243.149 174.752 242.352C173.244 241.545 171.535 240.642 169.676 239.651C165.976 237.644 161.663 235.294 157.034 232.787C152.44 230.227 147.539 227.482 142.673 224.703C140.227 223.309 137.842 221.88 135.519 220.39C133.196 218.917 130.925 217.427 128.733 215.971C124.35 213.078 120.352 210.229 116.906 207.8C113.461 205.38 110.655 203.276 108.674 201.83C108.227 201.497 107.832 201.199 107.473 200.927C108.516 200.865 109.56 200.804 110.585 200.743L112.435 200.655L114.285 200.637ZM172.131 256.388C171.763 256.528 171.403 256.686 171.061 256.861C170.991 256.809 170.912 256.756 170.825 256.695L176.138 252.846C174.884 254.108 173.525 255.274 172.131 256.388ZM106.675 202.408L100.933 206.573C100.714 206.397 100.494 206.222 100.284 206.056L105.974 201.926C106.193 202.066 106.43 202.233 106.675 202.408ZM107.815 203.206C108.069 203.382 108.332 203.566 108.604 203.759L102.739 208.011C102.493 207.809 102.239 207.616 102.002 207.423L107.815 203.206ZM109.56 204.425C109.849 204.626 110.138 204.828 110.445 205.047L104.466 209.378C104.185 209.159 103.914 208.94 103.633 208.721L109.56 204.425ZM111.392 205.714C111.708 205.933 112.041 206.169 112.374 206.397L106.281 210.816C105.974 210.571 105.667 210.325 105.36 210.088L111.392 205.714ZM113.128 206.941C113.479 207.186 113.838 207.441 114.197 207.695L107.999 212.193C107.657 211.93 107.324 211.658 106.991 211.395L113.128 206.941ZM114.96 208.221C115.311 208.466 115.67 208.721 116.039 208.975L109.735 213.543C109.393 213.28 109.06 213.008 108.718 212.745L114.96 208.221ZM116.801 209.51C117.152 209.755 117.511 210.01 117.88 210.264L111.471 214.91C111.129 214.647 110.796 214.384 110.454 214.113L116.801 209.51ZM118.642 210.79C118.993 211.035 119.361 211.29 119.721 211.544L113.216 216.261C112.874 215.997 112.54 215.734 112.199 215.471L118.642 210.79ZM120.483 212.079C120.843 212.324 121.194 212.578 121.562 212.833L114.96 217.619C114.618 217.356 114.276 217.093 113.934 216.83L120.483 212.079ZM122.325 213.359C122.684 213.604 123.044 213.858 123.403 214.113L116.714 218.961C116.372 218.698 116.03 218.435 115.688 218.172L122.325 213.359ZM124.157 214.639C124.516 214.884 124.876 215.138 125.235 215.393L118.467 220.302C118.125 220.048 117.783 219.785 117.433 219.522L124.157 214.639ZM125.998 215.919C126.358 216.164 126.717 216.418 127.076 216.673L120.247 221.626C119.905 221.372 119.563 221.109 119.203 220.846L125.998 215.919ZM127.839 217.207C127.857 217.216 127.874 217.225 127.883 217.242C128.225 217.479 128.576 217.716 128.926 217.953L122.027 222.95C121.685 222.696 121.334 222.441 120.974 222.178L127.839 217.207ZM129.698 218.479C130.057 218.724 130.417 218.97 130.785 219.224L123.833 224.265C123.491 224.019 123.14 223.765 122.772 223.502L129.698 218.479ZM131.556 219.741C131.916 219.987 132.293 220.232 132.652 220.478L125.665 225.545C125.323 225.308 124.964 225.054 124.587 224.791L131.556 219.741ZM133.433 221.004C133.801 221.249 134.16 221.495 134.529 221.74L127.524 226.825C127.138 226.562 126.778 226.316 126.436 226.08L133.433 221.004ZM135.326 222.248C135.695 222.494 136.072 222.731 136.449 222.967L129.391 228.087C129.014 227.833 128.655 227.579 128.304 227.342L135.326 222.248ZM137.238 223.476C137.615 223.713 137.983 223.958 138.36 224.195L131.241 229.359C130.873 229.104 130.504 228.85 130.154 228.613L137.238 223.476ZM139.158 224.703C139.535 224.94 139.912 225.177 140.289 225.413L133.091 230.63C132.722 230.376 132.363 230.13 132.004 229.885L139.158 224.703ZM141.086 225.913C141.297 226.045 141.498 226.176 141.709 226.308C141.884 226.413 142.051 226.518 142.226 226.623L134.941 231.91C134.572 231.656 134.213 231.41 133.853 231.165L141.086 225.913ZM143.033 227.123C143.41 227.36 143.795 227.596 144.172 227.824L136.79 233.181C136.422 232.927 136.063 232.681 135.703 232.436L143.033 227.123ZM144.979 228.324C145.365 228.561 145.742 228.789 146.127 229.026L138.64 234.452C138.272 234.198 137.913 233.953 137.553 233.707L144.979 228.324ZM146.943 229.525C147.329 229.762 147.706 229.99 148.091 230.227L140.499 235.732C140.139 235.478 139.771 235.233 139.412 234.987L146.943 229.525ZM148.898 230.726C149.284 230.963 149.661 231.191 150.046 231.428L142.34 237.012C141.981 236.758 141.612 236.513 141.253 236.267L148.898 230.726ZM150.862 231.919C151.248 232.155 151.633 232.383 152.01 232.62L144.19 238.292C143.83 238.038 143.471 237.793 143.103 237.547L150.862 231.919ZM152.826 233.111C153.211 233.348 153.597 233.576 153.974 233.804L146.04 239.555C145.68 239.309 145.321 239.055 144.953 238.81L152.826 233.111ZM154.789 234.303C155.123 234.505 155.473 234.715 155.806 234.917C155.85 234.943 155.894 234.97 155.947 235.005L147.89 240.844C147.53 240.598 147.171 240.344 146.811 240.098L154.789 234.303ZM156.753 235.496C157.139 235.732 157.525 235.969 157.902 236.197L149.731 242.115C149.371 241.869 149.012 241.615 148.652 241.37L156.753 235.496ZM158.717 236.688C159.103 236.925 159.48 237.153 159.866 237.389L151.589 243.395C151.23 243.149 150.871 242.895 150.511 242.65L158.717 236.688ZM160.672 237.889C161.058 238.126 161.435 238.354 161.821 238.59L153.431 244.675C153.071 244.429 152.712 244.175 152.352 243.93L160.672 237.889ZM162.627 239.081C163.013 239.318 163.399 239.555 163.776 239.783L155.28 245.946C154.921 245.701 154.562 245.446 154.202 245.201L162.627 239.081ZM164.591 240.283C164.977 240.519 165.363 240.756 165.74 240.984L157.13 247.226C156.771 246.981 156.411 246.726 156.052 246.481L164.591 240.283ZM166.546 241.475C166.932 241.712 167.318 241.948 167.695 242.176L158.971 248.497C158.612 248.252 158.252 247.998 157.893 247.752L166.546 241.475ZM168.501 242.676C168.887 242.913 169.273 243.149 169.641 243.386L160.821 249.786C160.462 249.541 160.102 249.295 159.743 249.041L168.501 242.676ZM170.448 243.886C170.833 244.131 171.219 244.359 171.587 244.587L162.662 251.057C162.312 250.812 161.952 250.566 161.584 250.312L170.448 243.886ZM172.394 245.087C172.788 245.332 173.165 245.569 173.534 245.797L164.512 252.337C164.162 252.092 163.802 251.846 163.434 251.592L172.394 245.087ZM174.349 246.288C174.744 246.534 175.129 246.77 175.489 246.989L166.362 253.609C166.011 253.372 165.652 253.118 165.284 252.863L174.349 246.288ZM176.295 247.498C176.707 247.752 177.093 247.989 177.435 248.208L168.212 254.897C167.87 254.661 167.511 254.415 167.134 254.152L176.295 247.498ZM178.242 248.699C178.557 248.901 178.838 249.067 179.075 249.216C178.917 249.479 178.741 249.742 178.566 249.997L170.053 256.169C169.729 255.95 169.369 255.695 168.975 255.423L178.242 248.699ZM104.764 201.067C104.79 201.085 104.817 201.102 104.843 201.12L99.2231 205.196C99.039 205.047 98.8461 204.889 98.662 204.749L103.659 201.128C104.028 201.111 104.396 201.085 104.764 201.067ZM97.4258 203.75C97.2154 203.574 97.005 203.408 96.8034 203.25L99.6089 201.295C100.03 201.277 100.459 201.26 100.88 201.242L97.4258 203.75ZM95.3918 202.102C95.1201 201.882 94.8746 201.681 94.6466 201.497C95.2165 201.479 95.7864 201.453 96.3562 201.435L95.3918 202.102ZM367.919 120.602L369.664 122.241C369.533 122.566 369.603 122.951 369.875 123.206L370.146 123.46L369.778 123.521L369.515 123.574L369.384 123.6L369.217 123.635L369.094 123.67C369.05 123.688 369.007 123.697 368.963 123.714L367.043 121.917C366.78 121.671 366.394 121.619 366.087 121.759L364.57 120.339C364.772 120.313 364.982 120.295 365.184 120.286C366.113 120.242 367.016 120.199 367.884 120.155C367.788 120.286 367.797 120.479 367.919 120.602ZM363.843 120.462C363.86 120.505 363.869 120.558 363.904 120.602L365.649 122.241C365.517 122.566 365.587 122.951 365.859 123.206L367.271 124.53C366.946 124.731 366.639 124.933 366.359 125.143L364.167 123.101C363.904 122.855 363.518 122.802 363.211 122.943L361.528 121.365C362.265 120.935 363.054 120.637 363.843 120.462ZM360.985 121.698C361.002 121.724 360.993 121.75 361.02 121.768L362.764 123.407C362.633 123.732 362.703 124.118 362.975 124.372L364.974 126.239C364.605 126.546 364.246 126.853 363.895 127.16L359.038 123.513C359.442 123.057 359.836 122.627 360.248 122.259C360.485 122.048 360.73 121.873 360.985 121.698ZM358.994 123.556L362.887 128.089C362.615 128.352 362.335 128.606 362.063 128.869C361.958 128.975 361.853 129.08 361.747 129.185L357.083 125.678C357.451 125.275 357.828 124.854 358.188 124.459C358.468 124.153 358.731 123.854 358.994 123.556ZM357.039 125.731L360.818 130.132C360.704 130.246 360.599 130.36 360.485 130.474L359.74 131.298L355.137 127.835C355.435 127.502 355.751 127.16 356.04 126.835C356.373 126.458 356.697 126.099 357.039 125.731ZM355.076 127.896L358.845 132.289L357.776 133.472L353.173 130.009C353.813 129.281 354.444 128.589 355.076 127.896ZM353.112 130.062L356.882 134.454L356.11 135.304L355.812 135.629L351.209 132.166C351.858 131.456 352.489 130.754 353.112 130.062ZM351.148 132.236L354.918 136.628L353.857 137.803L349.254 134.34C349.894 133.621 350.525 132.92 351.148 132.236ZM349.193 134.401L352.954 138.785L351.902 139.951L347.299 136.488C347.939 135.795 348.57 135.094 349.193 134.401ZM347.229 136.576L350.99 140.959L349.938 142.125L345.344 138.671C345.975 137.961 346.606 137.26 347.229 136.576ZM345.274 138.741L349.035 143.125L347.983 144.282L343.389 140.819C344.02 140.126 344.651 139.434 345.274 138.741ZM343.31 140.915L347.071 145.299L346.028 146.456L341.425 142.993C342.056 142.292 342.688 141.599 343.31 140.915ZM341.346 143.081L345.107 147.464L344.064 148.613L339.452 145.15C340.092 144.457 340.724 143.765 341.346 143.081ZM339.374 145.238L343.143 149.63L342.109 150.778L337.489 147.307C338.129 146.614 338.751 145.921 339.374 145.238ZM337.41 147.403L341.188 151.804L340.154 152.944L335.525 149.463C335.656 149.314 335.797 149.165 335.937 149.016C336.428 148.473 336.91 147.938 337.41 147.403ZM335.437 149.551L339.224 153.961L338.199 155.101L333.552 151.603C334.183 150.919 334.806 150.235 335.437 149.551ZM333.456 151.708L337.261 156.135L336.235 157.266L331.571 153.759C332.202 153.075 332.833 152.392 333.456 151.708ZM331.483 153.865L335.297 158.309L334.28 159.44L329.607 155.925C330.229 155.232 330.861 154.548 331.483 153.865ZM329.51 156.012L333.333 160.466L332.991 160.843L332.307 161.588L327.617 158.064C328.257 157.38 328.879 156.696 329.51 156.012ZM327.538 158.169L331.378 162.64L330.361 163.763L325.662 160.229C326.284 159.537 326.907 158.853 327.538 158.169ZM325.556 160.326L329.396 164.806L328.379 165.919L323.672 162.377C324.312 161.685 324.934 161.01 325.556 160.326ZM323.584 162.474L327.433 166.963L326.424 168.076L321.708 164.525C322.339 163.842 322.961 163.158 323.584 162.474ZM321.611 164.631L325.469 169.128L324.461 170.242L319.726 166.682C320.358 165.998 320.989 165.314 321.611 164.631ZM319.639 166.787L323.505 171.294L322.497 172.398L317.754 168.83C318.385 168.146 319.016 167.471 319.639 166.787ZM317.666 168.944L321.541 173.459L320.542 174.564L315.79 170.987C316.412 170.303 317.035 169.619 317.666 168.944ZM315.685 171.092L319.568 175.616L318.569 176.712L313.808 173.126C314.44 172.46 315.062 171.776 315.685 171.092ZM313.712 173.249L317.605 177.79L316.605 178.886L311.827 175.292C312.134 174.967 312.432 174.634 312.739 174.31C313.063 173.95 313.388 173.599 313.712 173.249ZM311.731 175.397L315.641 179.956L314.65 181.052L309.846 177.439C310.477 176.747 311.099 176.072 311.731 175.397ZM309.749 177.536L313.677 182.112L312.686 183.199L307.856 179.561C308.487 178.886 309.118 178.211 309.749 177.536ZM307.759 179.675L311.713 184.278L310.722 185.365L305.865 181.709C306.497 181.034 307.128 180.35 307.759 179.675ZM305.769 181.814L309.74 186.443L308.759 187.522L303.875 183.848C304.506 183.173 305.138 182.489 305.769 181.814ZM303.788 183.953L307.785 188.609L306.803 189.687L301.894 185.996C302.516 185.312 303.148 184.629 303.788 183.953ZM301.797 186.084L305.813 190.766L304.84 191.844L299.904 188.127C300.526 187.452 301.157 186.768 301.797 186.084ZM299.807 188.223L303.849 192.931L302.876 194.001L297.914 190.266C298.536 189.591 299.176 188.907 299.807 188.223ZM297.817 190.362L301.876 195.088L300.903 196.157L295.915 192.405C296.555 191.73 297.186 191.055 297.817 190.362ZM295.836 192.501L299.921 197.253L298.957 198.323L293.942 194.553C294.564 193.869 295.196 193.194 295.836 192.501ZM293.846 194.641L297.949 199.419L296.984 200.48L291.943 196.683C292.574 196.017 293.206 195.333 293.846 194.641ZM291.855 196.78L295.976 201.584L295.012 202.645L289.944 198.831C290.584 198.156 291.224 197.472 291.855 196.78ZM289.874 198.919L294.021 203.75L293.065 204.802L287.972 200.971C288.445 200.462 288.918 199.954 289.401 199.436C289.55 199.27 289.707 199.094 289.874 198.919ZM287.884 201.058L292.048 205.915L291.093 206.967L285.964 203.11C286.604 202.435 287.244 201.751 287.884 201.058ZM285.894 203.197L290.084 208.081L289.129 209.133L283.965 205.249C284.605 204.574 285.254 203.881 285.894 203.197ZM283.895 205.328L288.112 210.246L287.165 211.29L281.966 207.379C282.606 206.696 283.246 206.02 283.895 205.328ZM281.905 207.449L286.157 212.403L285.201 213.446L279.967 209.51C280.607 208.826 281.247 208.142 281.905 207.449ZM279.897 209.58L284.175 214.56L283.22 215.594L277.951 211.631C278.599 210.956 279.248 210.273 279.897 209.58ZM277.898 211.702L282.203 216.716L281.256 217.751L275.952 213.762C276.592 213.087 277.249 212.394 277.898 211.702ZM275.899 213.823L280.23 218.864L279.283 219.899L273.944 215.884C274.593 215.208 275.242 214.516 275.899 213.823ZM273.892 215.945L278.249 221.021L277.302 222.056L271.936 218.014C272.585 217.33 273.234 216.646 273.892 215.945ZM271.893 218.067L276.276 223.178L275.329 224.212L269.929 220.153C270.578 219.461 271.226 218.768 271.893 218.067ZM269.894 220.188L274.304 225.326L273.357 226.36L267.93 222.275C268.254 221.933 268.561 221.6 268.894 221.258C269.219 220.907 269.561 220.548 269.894 220.188ZM267.895 222.31L272.331 227.482L271.384 228.517L265.922 224.405C266.571 223.721 267.228 223.029 267.895 222.31ZM265.896 224.432L270.367 229.639L269.42 230.665L263.914 226.527C264.554 225.843 265.212 225.15 265.896 224.432ZM263.888 226.553L268.386 231.796L267.448 232.822L261.898 228.649C262.538 227.965 263.204 227.272 263.888 226.553ZM261.872 228.657L266.413 233.944L265.475 234.97L259.873 230.753C260.513 230.086 261.179 229.385 261.872 228.657ZM259.855 230.77L264.432 236.101L263.494 237.126L257.839 232.874C258.488 232.199 259.163 231.498 259.855 230.77ZM398.727 124.161L392.818 124.705C391.293 124.836 389.758 124.985 388.233 125.117C387.944 124.828 387.654 124.547 387.312 124.275C386.558 123.67 385.629 123.065 384.358 122.759C384.279 122.732 384.183 122.715 384.069 122.697L383.244 121.926C382.981 121.68 382.596 121.628 382.289 121.768L380.544 120.128C380.413 120.006 380.202 120.014 380.08 120.146C379.957 120.277 379.966 120.488 380.097 120.611L381.842 122.25C381.78 122.399 381.78 122.548 381.798 122.706C381.675 122.715 381.561 122.724 381.43 122.732L379.957 122.811L379.054 121.934C378.791 121.68 378.405 121.628 378.089 121.768L376.336 120.128C376.204 120.006 375.994 120.014 375.871 120.146C375.749 120.277 375.757 120.488 375.889 120.611L377.633 122.25C377.546 122.469 377.555 122.715 377.651 122.925L376.161 122.987L375.021 121.926C374.758 121.68 374.372 121.628 374.065 121.768L372.321 120.128C372.189 120.006 371.979 120.014 371.856 120.146C371.733 120.277 371.742 120.488 371.873 120.611L373.618 122.25C373.504 122.539 373.557 122.873 373.767 123.118C373.338 123.144 372.899 123.179 372.452 123.214L371.084 121.934C370.821 121.689 370.436 121.636 370.129 121.777L368.393 120.146C370.637 120.041 372.654 119.936 374.416 119.857C379.518 119.585 382.438 119.436 382.438 119.436C382.438 119.436 379.518 119.462 374.407 119.524C371.856 119.559 368.752 119.611 365.193 119.664C363.352 119.681 361.362 120.304 359.731 121.636C358.898 122.311 358.267 123.101 357.53 123.854C356.811 124.617 356.075 125.398 355.33 126.195C349.333 132.587 342.284 139.986 334.832 148.008C327.38 156.03 319.428 164.587 311.476 173.144C303.586 181.753 295.687 190.362 288.287 198.437C280.879 206.503 274.076 214.13 268.184 220.609C262.301 227.097 257.479 232.585 254.06 236.381C250.676 240.212 248.738 242.395 248.738 242.395C248.738 242.395 250.764 240.291 254.314 236.609C255.358 235.504 256.559 234.251 257.865 232.892L262.477 238.266C262.161 238.608 261.845 238.95 261.53 239.283L255.875 235.031L260.495 240.405C260.18 240.747 259.864 241.089 259.548 241.431L253.894 237.179L258.505 242.553C258.189 242.895 257.874 243.237 257.558 243.579L251.912 239.327L256.515 244.692C256.199 245.034 255.884 245.368 255.559 245.709L249.922 241.475L254.516 246.823C254.2 247.165 253.876 247.507 253.56 247.849L247.941 243.623L252.526 248.962C252.245 249.26 251.974 249.558 251.702 249.848C251.658 249.891 251.614 249.935 251.57 249.988L245.968 245.771L250.536 251.084C250.211 251.426 249.896 251.768 249.571 252.109L243.995 247.919L248.537 253.205C248.212 253.547 247.879 253.889 247.546 254.222L242.014 250.067L246.503 255.301C246.257 255.555 246.021 255.809 245.775 256.055C245.688 256.142 245.591 256.239 245.503 256.326L240.041 252.215L244.46 257.361C244.109 257.703 243.767 258.045 243.417 258.387L238.06 254.354L242.382 259.386C242.014 259.737 241.646 260.07 241.286 260.412L236.087 256.502L240.261 261.368C240.05 261.561 239.849 261.753 239.647 261.946C239.472 262.104 239.287 262.262 239.112 262.42L234.106 258.65L238.104 263.305C237.692 263.665 237.271 264.007 236.859 264.357L232.125 260.798L235.868 265.155C235.412 265.514 234.956 265.874 234.492 266.216L230.143 262.946L233.536 266.9C231.125 268.618 228.583 270.109 225.865 271.239C220.789 273.449 215.23 274.466 209.611 274.93C208.909 274.983 208.208 275.062 207.506 275.097L205.394 275.176C204 275.255 202.562 275.255 201.124 275.246H198.967L196.854 275.202C195.425 275.167 194.005 275.115 192.585 275.044C186.921 274.738 181.161 274.317 175.883 272.756L175.717 272.704L175.498 272.695C175.077 272.677 174.656 272.651 174.244 272.572C173.832 272.493 173.42 272.397 173.034 272.239C172.832 272.169 172.639 272.099 172.455 271.993C172.271 271.897 172.078 271.818 171.903 271.704C171.535 271.494 171.202 271.248 170.877 270.976C170.728 270.836 170.562 270.696 170.413 270.547L169.992 270.082C169.737 269.749 169.492 269.407 169.282 269.048C169.08 268.679 168.896 268.302 168.764 267.908C168.685 267.715 168.633 267.513 168.58 267.312C168.519 267.11 168.475 266.908 168.457 266.724C168.431 266.531 168.387 266.382 168.379 266.102L168.361 265.734L168.352 265.55V265.532V265.523V265.444C168.361 265.024 168.396 264.603 168.484 264.199C168.563 263.787 168.668 263.384 168.826 262.998C168.966 262.604 169.159 262.236 169.369 261.867C169.588 261.508 169.834 261.166 170.106 260.85C170.386 260.535 170.684 260.237 171.009 259.982C171.333 259.711 171.684 259.483 172.052 259.281C172.42 259.071 172.806 258.913 173.201 258.764L173.428 258.676L173.586 258.553C175.559 256.975 177.47 255.301 179.18 253.346C180.03 252.364 180.837 251.32 181.503 250.119C181.67 249.839 181.836 249.462 181.994 249.137L182.161 248.699L182.239 248.48L182.336 248.182L182.888 246.411L187.316 232.261L191.743 218.11L193.952 210.991C194.303 209.694 194.505 208.3 194.312 206.862C194.189 205.819 193.795 204.749 193.172 203.846C193.374 204.065 193.567 204.293 193.742 204.53C195.162 206.45 195.566 208.861 194.855 211.14L182.625 250.619C182.546 250.873 182.441 251.11 182.345 251.356L182.301 251.382L182.318 251.408C181.749 252.828 180.881 254.126 179.75 255.16L177.847 256.914L177.689 257.019L177.707 257.045L176.848 257.834L177.628 258.036C181.205 258.957 183.791 262.043 184.072 265.725C184.046 265.997 184.028 266.295 183.967 266.514C183.923 266.759 183.835 267.022 183.756 267.285C183.563 267.803 183.327 268.294 183.037 268.776C182.739 269.249 182.415 269.705 182.055 270.144C181.696 270.573 181.301 270.994 180.898 271.353L180.881 271.371C180.81 271.441 180.758 271.529 180.74 271.643C180.714 271.879 180.881 272.09 181.117 272.116C183.537 272.388 185.948 272.625 188.376 272.8C189.586 272.888 190.796 272.958 192.015 273.002C193.225 273.046 194.443 273.063 195.653 272.993C194.443 272.993 193.234 272.888 192.032 272.782C190.831 272.669 189.63 272.519 188.429 272.362C186.316 272.081 184.212 271.748 182.117 271.389C182.327 271.161 182.538 270.933 182.739 270.696C183.125 270.231 183.476 269.74 183.8 269.223C184.116 268.706 184.387 268.153 184.598 267.566C184.686 267.268 184.791 266.979 184.843 266.654C184.913 266.365 184.922 266.119 184.949 265.865L190.191 257.852C190.603 257.221 190.91 256.537 191.103 255.818L204.447 207.09C205.192 204.381 204.683 201.76 203.026 199.691C201.247 197.464 198.301 196.236 195.154 196.385L126.252 198.691C123.482 198.647 120.711 198.612 117.932 198.603C116.696 198.595 115.451 198.603 114.197 198.63L112.321 198.665L110.471 198.752C107.964 198.902 105.553 199.068 103.072 199.182C93.2088 199.655 83.3282 199.997 73.4476 200.339L58.6311 200.822L54.9226 200.935L53.0727 200.988L52.6519 200.997L52.2661 200.988C52.0119 200.962 51.7489 200.944 51.5121 200.865C50.5127 200.629 49.636 199.98 49.0398 199.147C48.4699 198.297 48.1718 197.253 48.3121 196.219L53.1691 167.112C53.3795 166.559 53.739 166.068 54.2124 165.727C54.7209 165.358 55.2294 165.209 56.0185 165.095L60.63 164.289L69.8618 162.676L88.3255 159.449L125.244 153.005L162.163 146.561L180.626 143.335C181.398 143.195 182.152 143.081 182.967 142.906C183.765 142.73 184.536 142.52 185.299 142.283C186.825 141.81 188.324 141.249 189.788 140.556C189.806 140.547 189.823 140.538 189.841 140.53L202.939 138.013V138.04L203.342 137.935L203.596 137.882V137.864L204.517 137.619L296.669 113.132L342.749 100.911L365.789 94.8001L377.309 91.7491C378.238 91.5212 379.317 91.188 380.29 90.811C381.272 90.4253 382.227 90.0044 383.192 89.5836C384.884 88.7858 386.506 87.9529 388.058 86.8307C389.39 86.7606 390.714 86.6203 392.047 86.5239L396.509 86.1556C397.254 86.103 397.991 86.0066 398.736 85.9277L400.963 85.6734L404.286 85.2965L404.312 85.3315C404.549 85.6734 404.768 86.0241 404.987 86.3748C405.452 87.0674 405.855 87.7951 406.197 88.5403C406.372 88.8998 406.521 89.3206 406.609 89.6625C406.714 89.9431 406.802 90.5743 406.854 90.8899C406.951 91.7754 407.03 92.6872 407.109 93.599C407.24 95.4225 407.424 97.2549 407.503 99.096C407.556 100.017 407.626 100.946 407.67 101.875L407.766 103.287C407.81 103.778 407.863 104.251 407.915 104.698V104.716C408.038 105.715 408.231 106.636 408.424 107.556L408.994 110.3C409.344 112.115 409.704 113.948 409.932 115.683C409.984 116.113 410.037 116.543 410.046 116.92L410.063 117.209L410.046 117.323C410.054 117.323 410.019 117.621 409.984 117.84C410.019 117.446 409.993 117.735 410.002 117.647V117.656V117.665L409.993 117.682L409.984 117.726L409.958 117.805L409.914 117.972L409.818 118.305L409.634 118.971C409.502 119.41 409.397 119.857 409.283 120.295C409.064 121.181 408.827 122.066 408.634 122.951C408.599 123.118 408.555 123.293 408.52 123.46C407.231 123.53 405.951 123.591 404.663 123.67L398.727 124.161Z" fill="#1F2B6B"/>
<path d="M355.724 108.065C354.821 107.118 353.585 106.513 352.156 106.496C351.963 106.496 351.77 106.504 351.578 106.513C351.376 106.522 351.341 106.548 351.218 106.566L350.902 106.618L350.683 106.662L350.604 106.68L350.455 106.724L349.228 107.039L339.417 109.582L319.788 114.667L280.537 124.837L241.286 135.006L221.657 140.083L211.838 142.616C211.049 142.827 210.137 143.02 209.234 143.432C208.348 143.835 207.41 144.466 206.814 145.422C206.209 146.369 206.007 147.447 205.972 148.368C205.92 149.306 205.981 150.165 205.981 150.971V151.024L205.99 151.068C206.314 154.426 206.604 157.784 206.919 161.15L206.823 161.159C206.262 161.194 205.744 161.457 205.376 161.878C205.008 162.307 204.824 162.851 204.868 163.412L206.577 184.778C206.656 185.874 207.585 186.724 208.69 186.724C208.734 186.724 208.769 186.724 208.813 186.724L209.058 186.698C209.172 188.337 209.278 189.977 209.374 191.625C209.47 193.326 209.558 194.983 209.602 196.675L209.628 197.946L209.576 199.147C209.549 199.954 209.418 200.795 209.339 201.619C208.927 204.951 208.348 208.291 207.77 211.623C207.577 212.701 207.366 213.771 207.165 214.849L194.601 258.475C194.242 259.29 194.347 260.202 194.873 260.921C195.347 261.552 196.065 261.911 196.828 261.911C196.925 261.911 197.021 261.903 197.117 261.894L208.418 260.886V260.877C208.462 260.877 208.515 260.868 208.559 260.868C208.795 260.85 209.006 260.815 209.225 260.789C210.961 260.535 212.618 260.167 214.292 259.807C215.958 259.439 217.615 259.053 219.272 258.65C220.894 258.282 222.674 257.799 224.278 257.107C227.531 255.73 230.477 253.609 232.809 250.987L246.214 235.627L252.912 227.965L259.759 220.443L273.48 205.389L300.938 175.3L328.397 145.211L342.127 130.167C344.441 127.677 346.598 125.056 348.886 122.557C351.288 120.164 353.559 117.647 355.838 115.149C356.689 114.237 357.232 112.887 357.18 111.572C357.171 110.23 356.627 108.985 355.724 108.065ZM208.752 185.856C208.068 185.882 207.507 185.383 207.454 184.716L205.744 163.36C205.718 163.026 205.823 162.711 206.042 162.465C206.262 162.22 206.56 162.071 206.893 162.044L206.998 162.036C207.279 165.139 207.585 168.243 207.857 171.355C208.269 176.177 208.664 181.008 209.006 185.839L208.752 185.856ZM202.948 260.509L202.053 260.587L202.474 260.281C202.632 260.368 202.79 260.438 202.948 260.509ZM200.765 260.701L199.634 260.807L201.352 259.5C201.519 259.649 201.694 259.781 201.878 259.912L200.765 260.701ZM198.397 260.921L197.205 261.026L200.458 258.58C200.589 258.746 200.721 258.904 200.861 259.053L198.397 260.921ZM195.688 260.509L199.748 257.449C199.844 257.65 199.958 257.843 200.072 258.036L196.241 260.921C196.03 260.833 195.846 260.693 195.688 260.509ZM203.903 231.603C202.544 238.249 201.107 244.885 199.642 251.505L199.371 252.75L199.239 253.381C199.204 253.626 199.151 253.863 199.125 254.109C199.037 255.029 199.169 255.967 199.485 256.826L195.364 259.93C195.25 259.57 195.268 259.176 195.434 258.781L205.376 224.291C204.894 226.729 204.403 229.166 203.903 231.603ZM353.147 112.694L353.129 112.712C350.867 115.236 348.588 117.753 346.449 120.392C344.196 122.925 341.802 125.345 339.558 127.896L325.986 143.072L298.834 173.433L271.682 203.794L258.102 218.97L251.307 226.571L244.679 234.295L231.415 249.716C229.249 252.171 226.558 254.117 223.559 255.389C222.043 256.046 220.535 256.458 218.851 256.853C217.212 257.256 215.564 257.642 213.915 258.019C212.276 258.378 210.61 258.746 208.988 258.992C208.787 259.018 208.585 259.053 208.392 259.062C208.208 259.088 208.015 259.097 207.796 259.106L206.525 259.185C205.639 259.255 204.947 259.264 204.289 259.079C202.921 258.729 201.747 257.686 201.221 256.362C200.958 255.704 200.844 254.985 200.914 254.284C200.931 254.109 200.966 253.933 200.993 253.758C201.028 253.574 201.08 253.346 201.124 253.144L201.396 251.899L205.657 231.971C207.042 225.326 208.392 218.663 209.611 211.973C210.207 208.624 210.794 205.275 211.224 201.865C211.303 200.997 211.434 200.164 211.478 199.27C211.496 198.823 211.531 198.393 211.539 197.928L211.513 196.657C211.478 194.956 211.39 193.22 211.294 191.537C210.926 184.743 210.365 177.974 209.856 171.197C209.321 164.438 208.76 157.696 208.173 150.945C208.164 149.218 208.041 147.596 208.699 146.658C208.997 146.167 209.523 145.799 210.163 145.51C210.803 145.22 211.557 145.062 212.399 144.843L222.235 142.388L241.909 137.488L281.265 127.703L320.621 117.919L340.294 113.027L350.131 110.581L351.358 110.274C351.402 110.239 352.305 110.09 352.156 110.16C352.174 110.143 352.296 110.187 352.375 110.187C352.463 110.195 352.542 110.248 352.63 110.265C352.787 110.362 352.954 110.441 353.086 110.599C353.366 110.879 353.541 111.291 353.541 111.659C353.55 112.019 353.445 112.361 353.147 112.694Z" fill="#1F2B6B"/>
<path d="M355.874 115.123C355.865 115.131 355.865 115.131 355.856 115.14C355.856 115.14 355.856 115.14 355.856 115.149L355.874 115.123Z" fill="#1F2B6B"/>
<path d="M202.466 146.447C201.808 146.474 200.94 146.57 200.081 146.71C199.222 146.86 198.371 147.061 197.74 147.254C197.109 147.447 196.697 147.622 196.697 147.622C196.697 147.622 197.144 147.649 197.801 147.622C198.459 147.596 199.327 147.5 200.186 147.359C201.045 147.21 201.896 147.009 202.527 146.816C203.158 146.623 203.57 146.447 203.57 146.447C203.57 146.447 203.132 146.421 202.466 146.447Z" fill="#1F2B6B"/>
<path d="M202.457 147.552C201.808 147.579 200.957 147.666 200.116 147.815C199.274 147.964 198.441 148.157 197.819 148.35C197.205 148.543 196.793 148.718 196.793 148.718C196.793 148.718 197.231 148.745 197.88 148.727C198.529 148.701 199.379 148.613 200.221 148.464C201.063 148.315 201.895 148.122 202.518 147.929C203.132 147.736 203.544 147.561 203.544 147.561C203.544 147.561 203.105 147.526 202.457 147.552Z" fill="#1F2B6B"/>
<path d="M202.448 148.648C201.817 148.674 200.975 148.762 200.151 148.902C199.327 149.051 198.503 149.244 197.898 149.437C197.293 149.63 196.898 149.805 196.898 149.805C196.898 149.805 197.328 149.832 197.968 149.814C198.599 149.788 199.441 149.7 200.265 149.56C201.089 149.411 201.913 149.218 202.518 149.025C203.123 148.832 203.518 148.657 203.518 148.657C203.518 148.657 203.079 148.631 202.448 148.648Z" fill="#1F2B6B"/>
<path d="M202.43 149.744C201.808 149.77 200.984 149.858 200.168 149.998C199.353 150.139 198.555 150.34 197.959 150.524C197.363 150.717 196.977 150.884 196.977 150.884C196.977 150.884 197.398 150.91 198.029 150.893C198.652 150.866 199.476 150.779 200.291 150.638C201.106 150.498 201.904 150.296 202.5 150.112C203.097 149.919 203.482 149.753 203.482 149.753C203.482 149.753 203.061 149.727 202.43 149.744Z" fill="#1F2B6B"/>
<path d="M202.422 150.849C201.808 150.875 201.001 150.954 200.204 151.094C199.406 151.235 198.617 151.427 198.038 151.62C197.459 151.813 197.074 151.98 197.074 151.98C197.074 151.98 197.495 152.006 198.099 151.989C198.713 151.962 199.52 151.883 200.318 151.743C201.115 151.603 201.904 151.41 202.483 151.217C203.062 151.024 203.447 150.858 203.447 150.858C203.447 150.858 203.035 150.831 202.422 150.849Z" fill="#1F2B6B"/>
<path d="M202.413 151.945C201.808 151.962 201.019 152.05 200.239 152.19C199.458 152.331 198.687 152.523 198.108 152.707C197.538 152.9 197.161 153.067 197.161 153.067C197.161 153.067 197.573 153.093 198.17 153.076C198.775 153.049 199.564 152.971 200.344 152.83C201.124 152.69 201.896 152.497 202.474 152.313C203.044 152.12 203.421 151.954 203.421 151.954C203.421 151.954 203.009 151.927 202.413 151.945Z" fill="#1F2B6B"/>
<path d="M202.395 153.049C201.808 153.067 201.028 153.155 200.265 153.286C199.502 153.426 198.739 153.619 198.178 153.803C197.617 153.987 197.249 154.163 197.249 154.163C197.249 154.163 197.652 154.198 198.24 154.18C198.827 154.163 199.607 154.075 200.379 153.944C201.142 153.803 201.904 153.61 202.466 153.426C203.027 153.242 203.386 153.067 203.386 153.067C203.386 153.067 202.992 153.032 202.395 153.049Z" fill="#1F2B6B"/>
<path d="M202.387 154.145C201.808 154.163 201.045 154.25 200.291 154.382C199.537 154.522 198.801 154.706 198.248 154.89C197.696 155.074 197.345 155.241 197.345 155.241C197.345 155.241 197.74 155.276 198.319 155.259C198.897 155.241 199.66 155.153 200.414 155.022C201.168 154.882 201.904 154.697 202.457 154.513C203.009 154.329 203.36 154.163 203.36 154.163C203.36 154.163 202.965 154.136 202.387 154.145Z" fill="#1F2B6B"/>
<path d="M202.378 155.25C201.808 155.267 201.063 155.346 200.326 155.478C199.59 155.618 198.862 155.802 198.327 155.986C197.793 156.17 197.442 156.337 197.442 156.337C197.442 156.337 197.828 156.372 198.398 156.354C198.967 156.337 199.713 156.258 200.449 156.127C201.185 155.986 201.913 155.802 202.448 155.618C202.983 155.434 203.333 155.267 203.333 155.267C203.333 155.267 202.948 155.232 202.378 155.25Z" fill="#1F2B6B"/>
<path d="M202.36 156.346C201.808 156.363 201.071 156.442 200.353 156.573C199.634 156.705 198.924 156.898 198.397 157.073C197.871 157.257 197.53 157.424 197.53 157.424C197.53 157.424 197.907 157.459 198.468 157.441C199.02 157.424 199.756 157.345 200.475 157.213C201.194 157.082 201.904 156.889 202.43 156.714C202.956 156.53 203.298 156.363 203.298 156.363C203.298 156.363 202.921 156.337 202.36 156.346Z" fill="#1F2B6B"/>
<path d="M202.352 157.45C201.808 157.468 201.089 157.547 200.379 157.67C199.669 157.801 198.976 157.985 198.459 158.169C197.942 158.353 197.609 158.52 197.609 158.52C197.609 158.52 197.977 158.555 198.529 158.538C199.073 158.52 199.792 158.441 200.502 158.318C201.212 158.187 201.905 158.003 202.422 157.819C202.939 157.635 203.272 157.468 203.272 157.468C203.272 157.468 202.895 157.433 202.352 157.45Z" fill="#1F2B6B"/>
<path d="M202.343 158.546C201.808 158.564 201.107 158.634 200.414 158.765C199.721 158.897 199.046 159.081 198.538 159.256C198.038 159.44 197.714 159.598 197.714 159.598C197.714 159.598 198.082 159.633 198.617 159.625C199.151 159.607 199.853 159.537 200.545 159.405C201.238 159.274 201.913 159.09 202.422 158.914C202.921 158.73 203.246 158.564 203.246 158.564C203.246 158.564 202.877 158.537 202.343 158.546Z" fill="#1F2B6B"/>
<path d="M202.325 159.651C201.799 159.668 201.116 159.738 200.44 159.861C199.765 159.993 199.099 160.177 198.608 160.352C198.117 160.536 197.802 160.694 197.802 160.694C197.802 160.694 198.161 160.729 198.678 160.72C199.204 160.703 199.888 160.633 200.563 160.51C201.238 160.378 201.905 160.203 202.396 160.019C202.886 159.835 203.202 159.677 203.202 159.677C203.202 159.677 202.851 159.642 202.325 159.651Z" fill="#1F2B6B"/>
<path d="M200.475 160.957C199.818 161.089 199.169 161.264 198.687 161.439C198.205 161.615 197.898 161.781 197.898 161.781C197.898 161.781 198.248 161.816 198.757 161.808C199.265 161.79 199.94 161.72 200.598 161.597C201.256 161.466 201.904 161.29 202.386 161.115C202.869 160.931 203.176 160.773 203.176 160.773C203.176 160.773 202.825 160.738 202.316 160.747C201.808 160.764 201.133 160.834 200.475 160.957Z" fill="#1F2B6B"/>
<path d="M200.502 162.053C199.853 162.185 199.222 162.36 198.757 162.535C198.292 162.711 197.985 162.877 197.985 162.877C197.985 162.877 198.327 162.912 198.827 162.904C199.327 162.895 199.984 162.825 200.633 162.702C201.282 162.579 201.913 162.395 202.378 162.22C202.842 162.044 203.149 161.878 203.149 161.878C203.149 161.878 202.807 161.843 202.308 161.852C201.808 161.86 201.15 161.93 200.502 162.053Z" fill="#1F2B6B"/>
<path d="M202.29 162.947C201.799 162.956 201.159 163.026 200.528 163.149C199.897 163.272 199.283 163.456 198.827 163.623C198.371 163.798 198.073 163.964 198.073 163.964C198.073 163.964 198.406 164 198.897 163.991C199.388 163.982 200.028 163.912 200.659 163.789C201.291 163.666 201.904 163.491 202.36 163.316C202.816 163.14 203.114 162.974 203.114 162.974C203.114 162.974 202.781 162.939 202.29 162.947Z" fill="#1F2B6B"/>
<path d="M202.281 164.052C201.799 164.061 201.177 164.131 200.563 164.254C199.949 164.376 199.344 164.552 198.897 164.727C198.45 164.902 198.169 165.06 198.169 165.06C198.169 165.06 198.494 165.095 198.976 165.095C199.458 165.087 200.081 165.016 200.694 164.902C201.308 164.78 201.913 164.604 202.36 164.429C202.807 164.254 203.088 164.096 203.088 164.096C203.088 164.096 202.755 164.043 202.281 164.052Z" fill="#1F2B6B"/>
<path d="M202.273 165.148C201.808 165.157 201.194 165.227 200.598 165.341C200.002 165.464 199.415 165.639 198.976 165.805C198.547 165.981 198.266 166.139 198.266 166.139C198.266 166.139 198.591 166.174 199.055 166.174C199.52 166.165 200.134 166.095 200.73 165.981C201.326 165.858 201.922 165.683 202.352 165.516C202.781 165.341 203.062 165.183 203.062 165.183C203.062 165.183 202.737 165.148 202.273 165.148Z" fill="#1F2B6B"/>
<path d="M202.255 166.253C201.799 166.261 201.203 166.323 200.615 166.446C200.028 166.568 199.458 166.735 199.037 166.91C198.617 167.086 198.345 167.243 198.345 167.243C198.345 167.243 198.66 167.287 199.116 167.278C199.572 167.27 200.168 167.208 200.756 167.086C201.343 166.963 201.913 166.796 202.334 166.621C202.755 166.446 203.026 166.288 203.026 166.288C203.026 166.288 202.711 166.244 202.255 166.253Z" fill="#1F2B6B"/>
<path d="M202.246 167.349C201.799 167.357 201.221 167.419 200.651 167.533C200.081 167.655 199.52 167.822 199.116 167.989C198.704 168.164 198.441 168.322 198.441 168.322C198.441 168.322 198.748 168.366 199.195 168.357C199.643 168.348 200.221 168.287 200.791 168.173C201.361 168.05 201.922 167.883 202.325 167.717C202.737 167.542 203 167.384 203 167.384C203 167.384 202.693 167.349 202.246 167.349Z" fill="#1F2B6B"/>
<path d="M202.237 168.453C201.808 168.462 201.238 168.524 200.686 168.637C200.133 168.751 199.59 168.927 199.195 169.093C198.801 169.269 198.538 169.418 198.538 169.418C198.538 169.418 198.836 169.462 199.265 169.453C199.695 169.444 200.265 169.383 200.817 169.269C201.369 169.155 201.913 168.979 202.307 168.813C202.702 168.637 202.956 168.48 202.956 168.48C202.956 168.48 202.667 168.453 202.237 168.453Z" fill="#1F2B6B"/>
<path d="M202.22 169.549C201.799 169.549 201.247 169.61 200.712 169.724C200.177 169.838 199.642 170.005 199.257 170.172C198.871 170.338 198.625 170.496 198.625 170.496C198.625 170.496 198.915 170.54 199.336 170.54C199.756 170.54 200.309 170.478 200.844 170.364C201.378 170.25 201.913 170.084 202.299 169.917C202.685 169.751 202.93 169.593 202.93 169.593C202.93 169.593 202.641 169.549 202.22 169.549Z" fill="#1F2B6B"/>
<path d="M202.211 170.654C201.799 170.654 201.264 170.715 200.738 170.829C200.212 170.943 199.704 171.11 199.327 171.276C198.95 171.443 198.713 171.601 198.713 171.601C198.713 171.601 198.993 171.644 199.405 171.644C199.818 171.644 200.352 171.583 200.878 171.469C201.404 171.355 201.913 171.189 202.29 171.022C202.667 170.855 202.904 170.698 202.904 170.698C202.904 170.698 202.623 170.654 202.211 170.654Z" fill="#1F2B6B"/>
<path d="M202.194 171.75C201.79 171.75 201.273 171.811 200.765 171.916C200.256 172.03 199.756 172.197 199.397 172.363C199.038 172.53 198.801 172.688 198.801 172.688C198.801 172.688 199.073 172.732 199.476 172.732C199.879 172.732 200.396 172.67 200.905 172.565C201.413 172.451 201.913 172.285 202.273 172.127C202.632 171.96 202.869 171.802 202.869 171.802C202.869 171.802 202.597 171.75 202.194 171.75Z" fill="#1F2B6B"/>
<path d="M200.8 173.021C200.309 173.135 199.827 173.293 199.476 173.459C199.125 173.626 198.897 173.784 198.897 173.784C198.897 173.784 199.169 173.827 199.555 173.827C199.941 173.827 200.449 173.775 200.94 173.661C201.431 173.547 201.913 173.389 202.264 173.222C202.614 173.056 202.842 172.898 202.842 172.898C202.842 172.898 202.571 172.854 202.185 172.854C201.799 172.854 201.291 172.907 200.8 173.021Z" fill="#1F2B6B"/>
<path d="M390.346 89.7678C391.372 89.7591 392.739 89.6889 394.107 89.575C395.466 89.4522 396.825 89.2769 397.842 89.1015C398.859 88.9262 399.525 88.7596 399.525 88.7596C399.525 88.7596 398.833 88.7158 397.807 88.7245C396.781 88.7333 395.413 88.8035 394.046 88.9174C392.687 89.0402 391.328 89.2155 390.311 89.3909C389.294 89.5662 388.628 89.7328 388.628 89.7328C388.628 89.7328 389.32 89.7766 390.346 89.7678Z" fill="#1F2B6B"/>
<path d="M394.186 91.3458C395.492 91.2318 396.799 91.0565 397.772 90.8899C398.745 90.7146 399.394 90.5568 399.394 90.5568C399.394 90.5568 398.727 90.5129 397.746 90.5129C396.755 90.5129 395.449 90.5831 394.133 90.6971C392.827 90.8198 391.521 90.9864 390.548 91.1529C389.575 91.3283 388.926 91.4861 388.926 91.4861C388.926 91.4861 389.592 91.5299 390.574 91.5299C391.565 91.5212 392.88 91.4598 394.186 91.3458Z" fill="#1F2B6B"/>
<path d="M394.274 93.1256C395.527 93.0117 396.781 92.8451 397.71 92.6873C398.64 92.5207 399.262 92.3629 399.262 92.3629C399.262 92.3629 398.622 92.3191 397.675 92.3103C396.728 92.3103 395.466 92.3629 394.212 92.4769C392.958 92.5909 391.705 92.7574 390.775 92.924C389.846 93.0906 389.224 93.2484 389.224 93.2484C389.224 93.2484 389.864 93.2922 390.81 93.301C391.757 93.2835 393.02 93.2309 394.274 93.1256Z" fill="#1F2B6B"/>
<path d="M394.361 94.8964C395.563 94.7912 396.755 94.6334 397.649 94.4668C398.543 94.3002 399.131 94.1512 399.131 94.1512C399.131 94.1512 398.526 94.0986 397.614 94.0898C396.711 94.081 395.501 94.1336 394.3 94.2389C393.099 94.3441 391.907 94.5019 391.012 94.6684C390.118 94.835 389.531 94.9841 389.531 94.9841C389.531 94.9841 390.136 95.0367 391.047 95.0367C391.951 95.0454 393.16 95.0016 394.361 94.8964Z" fill="#1F2B6B"/>
<path d="M394.44 96.6761C395.589 96.5797 396.729 96.4219 397.579 96.2641C398.429 96.1063 398.999 95.9572 398.999 95.9572C398.999 95.9572 398.421 95.9046 397.553 95.8959C396.685 95.8871 395.536 95.9309 394.388 96.0274C393.239 96.1238 392.1 96.2816 391.249 96.4394C390.399 96.5972 389.829 96.7463 389.829 96.7463C389.829 96.7463 390.407 96.7989 391.275 96.8077C392.143 96.8164 393.292 96.7726 394.44 96.6761Z" fill="#1F2B6B"/>
<path d="M394.528 98.4474C395.624 98.351 396.711 98.2107 397.517 98.0529C398.333 97.8951 398.868 97.7461 398.868 97.7461C398.868 97.7461 398.315 97.6935 397.482 97.6759C396.658 97.6584 395.562 97.7022 394.466 97.7899C393.371 97.8863 392.283 98.0354 391.477 98.1844C390.662 98.3422 390.127 98.4913 390.127 98.4913C390.127 98.4913 390.679 98.5439 391.512 98.5614C392.336 98.5789 393.432 98.5351 394.528 98.4474Z" fill="#1F2B6B"/>
<path d="M394.616 100.227C395.65 100.139 396.685 99.9992 397.465 99.8502C398.236 99.7011 398.745 99.5521 398.745 99.5521C398.745 99.5521 398.219 99.4907 397.43 99.4732C396.641 99.4556 395.597 99.4907 394.563 99.5696C393.528 99.6573 392.494 99.7976 391.714 99.9466C390.942 100.096 390.434 100.245 390.434 100.245C390.434 100.245 390.96 100.306 391.749 100.324C392.529 100.341 393.572 100.306 394.616 100.227Z" fill="#1F2B6B"/>
<path d="M394.694 101.998C395.676 101.919 396.658 101.779 397.395 101.639C398.122 101.49 398.613 101.349 398.613 101.349C398.613 101.349 398.114 101.288 397.368 101.262C396.623 101.235 395.633 101.262 394.651 101.34C393.669 101.419 392.687 101.56 391.95 101.7C391.223 101.849 390.732 101.989 390.732 101.989C390.732 101.989 391.231 102.051 391.977 102.077C392.722 102.103 393.713 102.077 394.694 101.998Z" fill="#1F2B6B"/>
<path d="M394.782 103.778C395.711 103.699 396.641 103.576 397.333 103.436C398.026 103.296 398.482 103.155 398.482 103.155C398.482 103.155 398.008 103.094 397.307 103.059C396.606 103.033 395.668 103.05 394.738 103.129C393.809 103.208 392.88 103.34 392.187 103.471C391.494 103.611 391.039 103.752 391.039 103.752C391.039 103.752 391.512 103.813 392.213 103.848C392.915 103.866 393.853 103.848 394.782 103.778Z" fill="#1F2B6B"/>
<path d="M394.87 105.549C395.747 105.479 396.623 105.356 397.272 105.224C397.921 105.084 398.35 104.953 398.35 104.953C398.35 104.953 397.903 104.882 397.237 104.847C396.571 104.812 395.694 104.83 394.817 104.9C393.941 104.97 393.064 105.093 392.415 105.233C391.766 105.373 391.337 105.505 391.337 105.505C391.337 105.505 391.784 105.575 392.45 105.61C393.108 105.628 393.984 105.619 394.87 105.549Z" fill="#1F2B6B"/>
<path d="M395.185 107.276C396.123 107.197 397.062 107.074 397.763 106.934C398.464 106.794 398.92 106.653 398.92 106.653C398.92 106.653 398.438 106.592 397.728 106.557C397.018 106.531 396.071 106.548 395.133 106.627C394.195 106.706 393.257 106.838 392.555 106.969C391.854 107.109 391.398 107.25 391.398 107.25C391.398 107.25 391.88 107.311 392.59 107.346C393.3 107.364 394.239 107.346 395.185 107.276Z" fill="#1F2B6B"/>
<path d="M395.501 109.003C396.501 108.924 397.5 108.784 398.245 108.643C398.99 108.494 399.481 108.354 399.481 108.354C399.481 108.354 398.973 108.293 398.21 108.266C397.447 108.24 396.439 108.266 395.44 108.345C394.44 108.424 393.441 108.565 392.696 108.705C391.95 108.854 391.459 108.994 391.459 108.994C391.459 108.994 391.968 109.056 392.731 109.082C393.485 109.108 394.493 109.082 395.501 109.003Z" fill="#1F2B6B"/>
<path d="M395.817 110.73C396.886 110.642 397.947 110.502 398.736 110.353C399.525 110.204 400.051 110.055 400.051 110.055C400.051 110.055 399.508 109.994 398.701 109.976C397.894 109.959 396.825 109.994 395.755 110.073C394.686 110.16 393.625 110.3 392.836 110.45C392.047 110.599 391.521 110.748 391.521 110.748C391.521 110.748 392.064 110.809 392.871 110.827C393.677 110.844 394.747 110.809 395.817 110.73Z" fill="#1F2B6B"/>
<path d="M396.132 112.457C397.263 112.361 398.386 112.22 399.227 112.063C400.069 111.905 400.621 111.756 400.621 111.756C400.621 111.756 400.051 111.703 399.192 111.686C398.342 111.668 397.202 111.712 396.071 111.8C394.94 111.896 393.818 112.045 392.976 112.194C392.135 112.352 391.582 112.492 391.582 112.492C391.582 112.492 392.152 112.545 393.011 112.562C393.871 112.58 395.001 112.545 396.132 112.457Z" fill="#1F2B6B"/>
<path d="M396.448 114.176C397.64 114.079 398.824 113.921 399.718 113.764C400.604 113.606 401.191 113.457 401.191 113.457C401.191 113.457 400.586 113.404 399.683 113.387C398.78 113.378 397.588 113.422 396.395 113.518C395.203 113.615 394.019 113.772 393.125 113.93C392.24 114.088 391.652 114.237 391.652 114.237C391.652 114.237 392.257 114.29 393.16 114.298C394.063 114.316 395.256 114.272 396.448 114.176Z" fill="#1F2B6B"/>
<path d="M396.764 115.903C398.017 115.798 399.271 115.64 400.2 115.482C401.138 115.315 401.752 115.166 401.752 115.166C401.752 115.166 401.112 115.114 400.165 115.105C399.218 115.096 397.956 115.149 396.702 115.254C395.448 115.359 394.195 115.517 393.265 115.684C392.327 115.85 391.714 115.999 391.714 115.999C391.714 115.999 392.354 116.052 393.3 116.061C394.247 116.052 395.51 116.008 396.764 115.903Z" fill="#1F2B6B"/>
<path d="M397.079 117.63C398.394 117.516 399.709 117.358 400.691 117.191C401.673 117.025 402.322 116.867 402.322 116.867C402.322 116.867 401.656 116.823 400.656 116.814C399.657 116.814 398.342 116.867 397.018 116.972C395.703 117.086 394.388 117.253 393.406 117.411C392.424 117.577 391.775 117.735 391.775 117.735C391.775 117.735 392.441 117.779 393.441 117.788C394.44 117.796 395.764 117.735 397.079 117.63Z" fill="#1F2B6B"/>
<path d="M397.404 119.357C398.789 119.243 400.165 119.067 401.191 118.901C402.217 118.726 402.901 118.568 402.901 118.568C402.901 118.568 402.199 118.524 401.156 118.524C400.113 118.524 398.727 118.585 397.342 118.699C395.957 118.813 394.581 118.989 393.555 119.155C392.529 119.331 391.845 119.488 391.845 119.488C391.845 119.488 392.547 119.532 393.59 119.532C394.633 119.532 396.018 119.471 397.404 119.357Z" fill="#1F2B6B"/>
<path d="M397.658 120.426C396.211 120.549 394.773 120.725 393.695 120.9C392.617 121.075 391.906 121.242 391.906 121.242C391.906 121.242 392.634 121.286 393.73 121.277C394.817 121.268 396.273 121.207 397.71 121.084C399.157 120.961 400.595 120.786 401.673 120.611C402.752 120.435 403.462 120.269 403.462 120.269C403.462 120.269 402.734 120.225 401.638 120.234C400.551 120.242 399.104 120.312 397.658 120.426Z" fill="#1F2B6B"/>
<path d="M52.9676 193.913C51.4246 193.913 50.1621 195.176 50.1621 196.719C50.1621 198.262 51.4246 199.524 52.9676 199.524C54.5106 199.524 55.7731 198.262 55.7731 196.719C55.7731 195.176 54.5194 193.913 52.9676 193.913ZM52.9676 198.867C51.784 198.867 50.8196 197.902 50.8196 196.719C50.8196 195.535 51.784 194.571 52.9676 194.571C54.1512 194.571 55.1156 195.535 55.1156 196.719C55.1156 197.902 54.1512 198.867 52.9676 198.867Z" fill="#1F2B6B"/>
<path d="M52.9676 195.254C52.161 195.254 51.5122 195.912 51.5122 196.71C51.5122 197.508 52.1697 198.174 52.9676 198.174C53.7654 198.174 54.4229 197.516 54.4229 196.71C54.4229 195.903 53.7741 195.254 52.9676 195.254ZM52.9676 197.736C52.4065 197.736 51.9506 197.28 51.9506 196.71C51.9506 196.149 52.4065 195.693 52.9676 195.693C53.5287 195.693 53.9846 196.149 53.9846 196.71C53.9933 197.28 53.5374 197.736 52.9676 197.736Z" fill="#1F2B6B"/>
<path d="M58.6488 168.19C58.6488 166.822 57.5354 165.718 56.1764 165.718C54.8175 165.718 53.7041 166.831 53.7041 168.19C53.7041 169.549 54.8175 170.671 56.1764 170.671C57.5354 170.671 58.6488 169.549 58.6488 168.19ZM56.1764 170.005C55.177 170.005 54.3616 169.19 54.3616 168.181C54.3616 167.182 55.177 166.367 56.1764 166.367C57.1759 166.367 57.9913 167.182 57.9913 168.181C57.9913 169.19 57.1759 170.005 56.1764 170.005Z" fill="#1F2B6B"/>
<path d="M56.1764 166.893C55.4663 166.893 54.8789 167.471 54.8789 168.19C54.8789 168.909 55.4575 169.488 56.1764 169.488C56.8954 169.488 57.474 168.909 57.474 168.19C57.474 167.471 56.8866 166.893 56.1764 166.893ZM56.1764 169.041C55.703 169.041 55.3173 168.655 55.3173 168.181C55.3173 167.708 55.703 167.322 56.1764 167.322C56.6499 167.322 57.0356 167.717 57.0356 168.19C57.0356 168.655 56.6499 169.041 56.1764 169.041Z" fill="#1F2B6B"/>
<path d="M200.668 184.392C200.274 184.585 199.835 184.786 199.353 184.918C198.88 185.049 198.406 185.111 197.854 185.084C196.723 185.032 195.513 184.979 194.303 184.927C193.488 184.892 192.664 184.857 191.866 184.821C192.918 183.997 193.97 182.709 194.505 180.938C194.584 180.692 194.645 180.438 194.689 180.175C194.75 179.921 194.776 179.64 194.803 179.342C194.838 179.018 194.829 178.798 194.829 178.562L194.82 178.141L194.803 177.773C194.75 176.791 194.706 175.739 194.645 174.634C194.426 170.215 194.163 164.85 193.865 158.695C193.786 157.152 193.707 155.565 193.628 153.935L193.593 153.312C193.567 153.067 193.549 152.821 193.505 152.576C193.418 152.085 193.277 151.594 193.084 151.129C192.69 150.191 192.076 149.341 191.287 148.657C190.507 147.982 189.551 147.465 188.508 147.228C187.973 147.105 187.482 147.026 186.886 147.044C186.746 147.044 186.588 147.044 186.456 147.052L186.123 147.088L185.957 147.105L185.816 147.123L185.729 147.14L185.396 147.202C183.607 147.508 181.775 147.824 179.907 148.148C150.011 153.303 110.138 160.177 70.2739 167.05L66.539 167.725L64.6716 168.059C64.356 168.12 64.0667 168.155 63.716 168.234C63.3653 168.304 63.0234 168.401 62.6902 168.523C61.3313 168.988 60.2091 169.944 59.3412 171.083C58.8853 171.644 58.5083 172.293 58.2541 172.995L58.0962 173.573L58.0173 174.047L57.9209 175.037C57.693 177.545 57.4562 180.052 57.2634 182.551C57.1669 183.796 57.0617 185.049 56.9653 186.294L56.825 188.162C56.7987 188.802 56.6847 189.319 56.7373 190.213C56.8601 191.844 57.9121 193.317 59.3587 194.018C59.7182 194.194 60.1039 194.325 60.4985 194.404C60.7001 194.43 60.8842 194.474 61.1122 194.483C61.3401 194.492 61.568 194.5 61.6908 194.483L61.9187 194.465L62.2081 194.43L62.6639 194.378L63.5845 194.264C66.0305 193.966 68.4678 193.676 70.8876 193.378C75.7358 192.826 80.5227 192.274 85.2219 191.739C94.6378 190.713 103.764 189.845 112.409 189.258C116.731 188.951 120.957 188.854 125.042 188.697C129.128 188.547 133.082 188.407 136.869 188.267C167.195 187.197 187.412 186.478 187.412 186.478C187.412 186.478 187.508 186.47 187.693 186.452C187.877 186.426 188.157 186.426 188.517 186.347C188.552 186.338 188.587 186.329 188.631 186.321C190.296 186.224 192.304 186.11 194.312 186.005C195.522 185.935 196.723 185.874 197.854 185.803C198.432 185.777 199.02 185.628 199.52 185.418C200.019 185.207 200.449 184.953 200.835 184.699C201.597 184.181 202.167 183.673 202.544 183.305C202.921 182.937 203.123 182.709 203.123 182.709C203.123 182.709 202.895 182.91 202.483 183.235C202.071 183.55 201.457 183.989 200.668 184.392ZM136.808 186.277C129.224 186.654 121.036 186.996 112.33 187.478C103.624 188.03 94.4976 188.916 85.0553 189.854C80.3386 190.345 75.5429 190.853 70.6859 191.362C68.2574 191.634 65.8201 191.905 63.3653 192.177L62.4448 192.282L61.9801 192.335L61.8661 192.352C61.8574 192.352 61.8048 192.361 61.7872 192.361L61.5768 192.37C61.3927 192.388 61.3138 192.37 61.2349 192.361C61.156 192.361 61.0333 192.335 60.928 192.317C60.7176 192.274 60.5072 192.195 60.3143 192.098C59.5341 191.704 58.973 190.888 58.9204 190.012C58.8853 189.652 58.9817 188.933 59.0343 188.337L59.2009 186.47C59.3149 185.225 59.4201 183.98 59.5341 182.735C59.762 180.236 59.9461 177.729 60.1478 175.221L60.2179 174.327L60.2617 173.871L60.3056 173.529C60.3669 173.012 60.5072 172.486 60.7439 171.995C61.2437 171.013 62.1905 170.303 63.2075 169.9C63.4705 169.803 63.7335 169.733 64.0053 169.681C64.2771 169.619 64.619 169.575 64.9171 169.523L66.7933 169.225L70.5369 168.628C110.445 161.974 150.353 155.311 180.276 150.323C182.143 150.007 183.975 149.709 185.764 149.402L186.097 149.349L186.15 149.341C186.158 149.341 186.202 149.332 186.202 149.332L186.369 149.314L186.702 149.279C186.798 149.271 186.868 149.279 186.947 149.279C187.245 149.271 187.64 149.323 187.973 149.402C188.657 149.56 189.297 149.911 189.814 150.366C190.332 150.822 190.735 151.392 190.989 152.006C191.121 152.313 191.199 152.637 191.261 152.962C191.287 153.128 191.296 153.295 191.313 153.452L191.34 154.057C191.41 155.697 191.48 157.284 191.55 158.818C191.822 164.973 192.059 170.347 192.252 174.765C192.304 175.87 192.348 176.913 192.392 177.904L192.409 178.272V178.351V178.395V178.57C192.409 178.816 192.401 179.061 192.374 179.193C192.339 179.5 192.26 179.894 192.146 180.21C191.699 181.534 190.831 182.437 190.042 182.945C189.244 183.463 188.534 183.664 188.061 183.743C187.824 183.804 187.631 183.796 187.509 183.813C187.386 183.822 187.324 183.831 187.324 183.831C187.324 183.831 167.116 184.804 136.808 186.277Z" fill="#1F2B6B"/>
<path d="M130.995 192.291C130.89 191.572 130.233 191.055 129.514 191.108C121.501 191.721 101.739 193.247 91.4817 194.115C79.8214 195.106 62.3834 196.806 60.4371 196.99C59.8497 197.052 59.3851 197.499 59.3149 198.095L59.236 198.744C59.1922 199.112 59.3149 199.489 59.5692 199.752C59.8059 200.006 60.1303 200.147 60.4722 200.147C60.4985 200.147 60.5248 200.147 60.5511 200.147C64.4087 199.901 84.0384 198.647 91.8148 197.937C99.565 197.218 124.999 196.499 130.022 196.368C130.425 196.359 130.794 196.175 131.057 195.868C131.311 195.561 131.425 195.158 131.364 194.755L130.995 192.291ZM130.39 195.29C130.294 195.404 130.162 195.474 130.005 195.474C124.981 195.614 99.5212 196.333 91.7447 197.052C83.977 197.771 64.3561 199.016 60.5073 199.261C60.3582 199.279 60.253 199.191 60.2092 199.147C60.1653 199.103 60.0864 198.998 60.104 198.84L60.1829 198.192C60.2004 198.016 60.3407 197.876 60.516 197.858C62.4623 197.666 79.9003 195.973 91.5518 194.983C101.809 194.106 121.562 192.589 129.575 191.976C129.593 191.976 129.601 191.976 129.619 191.976C129.873 191.976 130.092 192.16 130.127 192.423L130.496 194.878C130.531 195.027 130.487 195.176 130.39 195.29Z" fill="#1F2B6B"/>
<path d="M219.82 137.59L219.71 136.23L220.2 136.1L220.32 138.28L219.8 138.42L219.21 137.32L219.26 138.57L218.74 138.7L217.75 136.76L218.24 136.63L218.82 137.86L218.76 136.49L219.18 136.38L219.82 137.59Z" fill="#1F2B6B"/>
<path d="M223.53 136.35C223.58 136.55 223.6 136.74 223.56 136.91C223.53 137.09 223.45 137.24 223.34 137.36C223.23 137.48 223.08 137.56 222.91 137.61C222.73 137.66 222.57 137.66 222.41 137.62C222.25 137.57 222.11 137.49 221.99 137.36C221.87 137.23 221.79 137.07 221.73 136.88L221.7 136.76C221.65 136.56 221.64 136.37 221.67 136.19C221.7 136.02 221.78 135.87 221.89 135.75C222.01 135.63 222.15 135.54 222.33 135.5C222.5 135.45 222.67 135.45 222.83 135.5C222.99 135.55 223.13 135.64 223.25 135.77C223.37 135.9 223.45 136.07 223.51 136.27L223.53 136.35ZM223 136.41C222.94 136.2 222.87 136.05 222.77 135.97C222.67 135.88 222.56 135.86 222.43 135.89C222.19 135.95 222.1 136.18 222.19 136.55L222.23 136.7C222.28 136.9 222.36 137.05 222.46 137.14C222.56 137.23 222.67 137.26 222.8 137.22C222.92 137.19 223.01 137.11 223.05 136.98C223.09 136.85 223.08 136.7 223.02 136.5L223 136.41Z" fill="#1F2B6B"/>
<path d="M226.63 135.52C226.68 135.72 226.69 135.91 226.66 136.08C226.63 136.26 226.55 136.41 226.44 136.53C226.33 136.65 226.18 136.73 226.01 136.78C225.83 136.83 225.67 136.83 225.51 136.78C225.35 136.74 225.21 136.65 225.09 136.52C224.97 136.39 224.89 136.23 224.83 136.04L224.8 135.92C224.75 135.72 224.74 135.53 224.77 135.36C224.8 135.19 224.88 135.04 224.99 134.92C225.11 134.79 225.25 134.71 225.43 134.66C225.6 134.61 225.77 134.61 225.93 134.66C226.09 134.71 226.23 134.8 226.34 134.93C226.45 135.06 226.54 135.23 226.6 135.43L226.63 135.52ZM226.1 135.57C226.05 135.37 225.97 135.22 225.87 135.13C225.77 135.04 225.66 135.02 225.53 135.05C225.29 135.12 225.2 135.34 225.29 135.72L225.33 135.87C225.38 136.07 225.46 136.22 225.56 136.31C225.65 136.4 225.77 136.43 225.9 136.39C226.02 136.36 226.11 136.28 226.15 136.15C226.19 136.02 226.18 135.86 226.13 135.66L226.1 135.57Z" fill="#1F2B6B"/>
<path d="M228.25 136.14L227.7 134.08L228.36 133.9C228.54 133.85 228.72 133.85 228.88 133.89C229.05 133.93 229.19 134.02 229.32 134.15C229.44 134.28 229.53 134.44 229.58 134.62L229.61 134.71C229.66 134.9 229.67 135.08 229.63 135.25C229.59 135.42 229.51 135.57 229.39 135.69C229.27 135.81 229.12 135.9 228.94 135.95L228.25 136.14ZM228.29 134.33L228.64 135.62L228.81 135.57C228.95 135.53 229.05 135.45 229.1 135.33C229.15 135.21 229.15 135.05 229.09 134.85L229.07 134.76C229.02 134.56 228.94 134.42 228.83 134.34C228.72 134.26 228.6 134.24 228.45 134.28L228.29 134.33Z" fill="#1F2B6B"/>
<path d="M232.14 134.51C232.12 134.44 232.08 134.39 232.02 134.36C231.96 134.33 231.85 134.31 231.71 134.3C231.57 134.29 231.45 134.28 231.36 134.26C231.06 134.2 230.88 134.06 230.82 133.83C230.78 133.72 230.79 133.61 230.83 133.5C230.87 133.39 230.95 133.3 231.06 133.22C231.17 133.14 231.3 133.08 231.45 133.04C231.6 133 231.74 132.99 231.87 133.01C232 133.03 232.11 133.08 232.2 133.16C232.29 133.24 232.35 133.34 232.39 133.47L231.89 133.6C231.87 133.52 231.82 133.46 231.76 133.43C231.7 133.4 231.62 133.39 231.53 133.42C231.44 133.44 231.38 133.48 231.34 133.54C231.3 133.59 231.29 133.65 231.3 133.71C231.31 133.76 231.36 133.8 231.42 133.83C231.49 133.86 231.6 133.87 231.75 133.88C231.9 133.89 232.04 133.91 232.14 133.93C232.4 134 232.56 134.15 232.62 134.37C232.67 134.55 232.64 134.71 232.53 134.85C232.42 134.99 232.25 135.09 232.01 135.15C231.84 135.19 231.68 135.21 231.53 135.18C231.38 135.16 231.25 135.1 231.16 135.02C231.06 134.93 231 134.82 230.96 134.69L231.46 134.56C231.49 134.67 231.54 134.74 231.61 134.78C231.68 134.82 231.78 134.82 231.91 134.78C231.99 134.76 232.05 134.72 232.09 134.67C232.14 134.63 232.16 134.57 232.14 134.51Z" fill="#1F2B6B"/>
<path d="M234.23 132.32L235.08 133.63L235.15 132.07L235.8 131.89L236.36 133.95L235.86 134.08L235.73 133.6L235.51 132.6L235.41 134.2L235.08 134.3L234.19 132.97L234.5 133.94L234.63 134.42L234.13 134.55L233.58 132.5L234.23 132.32Z" fill="#1F2B6B"/>
<path d="M239.25 132.12C239.3 132.32 239.32 132.51 239.28 132.68C239.24 132.85 239.17 133 239.06 133.12C238.95 133.24 238.8 133.32 238.63 133.37C238.45 133.42 238.29 133.42 238.13 133.37C237.97 133.33 237.84 133.24 237.72 133.11C237.6 132.98 237.52 132.82 237.46 132.63L237.43 132.51C237.38 132.31 237.36 132.12 237.4 131.95C237.43 131.78 237.51 131.63 237.62 131.51C237.73 131.39 237.88 131.3 238.06 131.26C238.23 131.21 238.4 131.21 238.56 131.26C238.72 131.31 238.86 131.39 238.98 131.53C239.1 131.66 239.18 131.83 239.24 132.03L239.25 132.12ZM238.73 132.17C238.68 131.97 238.6 131.82 238.5 131.73C238.4 131.64 238.29 131.62 238.16 131.65C237.91 131.72 237.83 131.94 237.92 132.32L237.96 132.47C238.01 132.67 238.09 132.82 238.19 132.91C238.29 133 238.4 133.03 238.53 132.99C238.65 132.96 238.74 132.88 238.78 132.75C238.82 132.62 238.8 132.46 238.75 132.26L238.73 132.17Z" fill="#1F2B6B"/>
<path d="M241.37 131.78L241.23 132.06L241.38 132.6L240.88 132.73L240.33 130.67L240.83 130.54L241.08 131.45L241.18 131.14L241.45 130.37L242.06 130.2L241.61 131.3L242.61 132.26L242.02 132.42L241.37 131.78Z" fill="#1F2B6B"/>
<path d="M244.87 130.72L244.09 130.93L244.22 131.42L245.14 131.17L245.24 131.55L243.82 131.93L243.27 129.87L244.7 129.5L244.8 129.88L243.88 130.13L244 130.56L244.78 130.35L244.87 130.72Z" fill="#1F2B6B"/>
</svg>
