<svg width="197" height="182" viewBox="0 0 197 182" fill="none" xmlns="http://www.w3.org/2000/svg">
<path d="M86.9897 133.61V131.062H78.3908V144.906H86.9897V142.357H81.1188V139.324H85.7802V136.855H81.1188V133.601H86.9897V133.61ZM93.8229 133.372C94.9883 133.372 97.7781 133.654 97.7781 133.654L97.8575 131.326C97.8575 131.326 95.6063 130.824 93.6552 130.824C90.6624 130.824 88.9938 132.191 88.9938 134.836C88.9938 137.084 89.9031 138.028 92.9136 139.165C94.8205 139.888 95.5268 140.188 95.5268 141.008C95.5268 142.269 94.644 142.595 93.2403 142.595C92.0131 142.595 89.3822 142.313 89.3822 142.313L89.241 144.685C89.241 144.685 91.554 145.144 93.4786 145.144C96.8334 145.144 98.2636 143.839 98.2636 140.929C98.2636 138.601 97.3013 138.019 94.4674 136.935C92.3221 136.114 91.7306 135.735 91.7306 134.809C91.7306 133.813 92.534 133.372 93.8229 133.372ZM106.077 144.914V133.734H109.334V131.062H100.012V133.734H103.349V144.914H106.077ZM118.375 135.682C118.375 132.517 117.58 131.071 114.428 131.071H111.339V140.656H114.428C117.677 140.656 118.375 138.936 118.375 135.682ZM114.49 138.416H113.475V133.302H114.49C115.947 133.302 116.15 134.069 116.15 135.709C116.15 137.375 115.938 138.416 114.49 138.416ZM78.4526 157.691V159.587H85.0298V157.594H81.2248L82.805 156.131C84.3765 154.552 84.8621 153.706 84.8621 152.127C84.8621 150.232 83.7938 149.209 81.6132 149.209C80.1742 149.209 78.5233 149.614 78.5233 149.614L78.6469 151.484C78.6469 151.484 80.0241 151.254 81.0747 151.254C82.1871 151.254 82.6638 151.651 82.6638 152.445C82.6638 153.432 81.9575 154.226 80.6421 155.566L78.4526 157.691ZM92.7635 159.772C95.1472 159.772 96.6657 158.573 96.6657 154.552C96.6657 150.54 95.1472 149.209 92.7635 149.209C90.3798 149.209 88.8614 150.54 88.8614 154.552C88.8614 158.573 90.3798 159.772 92.7635 159.772ZM92.7812 151.175C93.9377 151.175 94.3703 152.057 94.3703 154.552C94.3703 157.056 93.9377 157.815 92.7812 157.815C91.6247 157.815 91.1567 157.056 91.1567 154.552C91.1567 152.057 91.6158 151.175 92.7812 151.175ZM103.737 159.772C106.112 159.772 107.631 158.573 107.631 154.552C107.631 150.54 106.121 149.209 103.737 149.209C101.354 149.209 99.8351 150.54 99.8351 154.552C99.8351 158.573 101.354 159.772 103.737 159.772ZM103.746 151.175C104.911 151.175 105.335 152.057 105.335 154.552C105.335 157.056 104.903 157.815 103.746 157.815C102.59 157.815 102.13 157.056 102.13 154.552C102.13 152.057 102.59 151.175 103.746 151.175ZM110.977 157.938H115.241V159.746H117.377V157.938H118.322V155.963H117.377V153.309H115.241V155.963H113.387L115.876 149.403H113.554L110.977 156.245V157.938ZM98.3784 23.3984C104.664 23.3984 109.758 18.3106 109.758 12.0324C109.758 5.76308 104.664 0.675293 98.3784 0.675293C92.1014 0.675293 86.9986 5.76308 86.9986 12.0413C87.0074 18.3106 92.1014 23.3984 98.3784 23.3984ZM98.3784 4.21999C100.965 4.21999 103.057 6.30977 103.057 8.89335C103.057 11.4769 100.965 13.5579 98.3784 13.5579C95.8005 13.5579 93.7082 11.4681 93.7082 8.89335C93.7082 6.30977 95.8005 4.21999 98.3784 4.21999ZM112.707 143.504C112.707 144.412 113.449 145.153 114.349 145.153C115.258 145.153 116 144.421 116 143.504C116 142.595 115.267 141.864 114.349 141.864C113.449 141.864 112.707 142.595 112.707 143.504ZM29.3842 97.0523L29.2253 90.6859L29.6844 90.3068C31.7502 90.5448 33.613 90.7565 35.6789 91.0034L35.158 89.2663C35.0697 88.9577 35.1933 88.6226 35.4317 88.4374L41.4438 83.5172L40.199 82.9264C39.6517 82.7236 39.8106 82.4238 40.0048 81.6743L40.923 78.3147L37.4357 79.0554C37.0914 79.1083 36.8707 78.8879 36.8177 78.6763L36.3675 77.0979L33.6042 80.2194C33.2157 80.7131 32.4124 80.7131 32.6684 79.558L33.8426 73.2446L32.2623 74.0735C31.8209 74.3203 31.3794 74.3644 31.1234 73.9147L28.8986 69.8057L26.6739 73.9147C26.4267 74.3644 25.9764 74.3203 25.5438 74.0735L23.9636 73.2446L25.1466 79.558C25.3938 80.7131 24.5904 80.7131 24.2019 80.2194L21.4386 77.0979L20.9884 78.6763C20.9354 78.8879 20.7147 79.0995 20.3704 79.0554L16.8743 78.3147L17.7925 81.6743C17.9955 82.4238 18.1456 82.7324 17.5983 82.9264L16.3534 83.5172L22.3656 88.4374C22.604 88.6226 22.7276 88.9577 22.6393 89.2663L22.1096 91.0034C24.1754 90.7653 26.0294 90.5448 28.1041 90.3068L28.5632 90.6859L28.4043 97.0523H29.3842ZM167.814 68.4742L164.698 77.9709H154.704L162.791 83.8522L159.674 93.4018L167.805 87.5027L175.919 93.4018L172.802 83.8522L180.898 77.9709H170.895L167.814 68.4742ZM195.659 81.1893C195.65 80.96 195.641 80.7308 195.624 80.5015C196.012 80.2017 196.259 79.7344 196.197 79.2141C196.083 78.156 195.897 77.0979 195.659 76.0574C195.544 75.5372 195.156 75.158 194.688 75.0081C194.626 74.7877 194.582 74.5584 194.52 74.338C194.82 73.9676 194.944 73.465 194.776 72.9801C194.423 71.9749 194.008 70.9785 193.549 70.0261C193.328 69.5588 192.878 69.2855 192.401 69.2326C192.286 69.0209 192.163 68.8269 192.039 68.6241C192.26 68.1921 192.269 67.663 191.995 67.2221C191.43 66.3227 190.803 65.441 190.141 64.6121C189.859 64.2594 189.435 64.0742 189.02 64.0742C188.958 64.0742 188.887 64.1007 188.835 64.1095C188.684 63.9332 188.526 63.7656 188.367 63.5981C188.481 63.1219 188.384 62.6017 188.013 62.2313C187.263 61.4818 186.46 60.7588 185.63 60.0975C185.365 59.8858 185.047 59.78 184.729 59.78C184.562 59.78 184.394 59.8329 184.226 59.8947C184.041 59.7536 183.855 59.6037 183.661 59.4714C183.661 58.9953 183.449 58.5191 183.017 58.2458C182.116 57.6814 181.171 57.1612 180.209 56.6939C180.006 56.5969 179.794 56.5528 179.582 56.5528C179.3 56.5528 179.035 56.6321 178.805 56.782C178.594 56.6939 178.373 56.6145 178.161 56.5263C178.064 56.0502 177.746 55.6357 177.252 55.4594C176.245 55.1067 175.212 54.8157 174.17 54.5776C174.065 54.5512 173.959 54.5423 173.853 54.5423C173.455 54.5423 173.093 54.7187 172.829 55.0009C172.599 54.9656 172.369 54.9303 172.149 54.8951C171.946 54.4454 171.54 54.1015 171.019 54.0486C169.959 53.9339 168.891 53.8722 167.823 53.8722H167.761C167.231 53.8722 166.79 54.172 166.543 54.5953C166.313 54.6041 166.084 54.6129 165.854 54.6305C165.589 54.2866 165.192 54.0486 164.733 54.0486C164.68 54.0486 164.627 54.0486 164.565 54.0574C163.506 54.1808 162.446 54.3572 161.405 54.5953C160.893 54.7099 160.531 55.0979 160.38 55.5652C160.16 55.6269 159.921 55.671 159.701 55.7327C159.445 55.5299 159.136 55.4065 158.8 55.4065C158.641 55.4065 158.482 55.4329 158.323 55.4858C157.317 55.8385 156.319 56.253 155.366 56.7203C154.907 56.9407 154.642 57.3904 154.589 57.8578C154.386 57.9636 154.192 58.0959 153.989 58.2105C153.786 58.1047 153.565 58.0518 153.335 58.0518C153.071 58.0518 152.806 58.1223 152.567 58.2722C151.667 58.8365 150.793 59.4626 149.963 60.1327C149.557 60.459 149.398 60.9616 149.46 61.4466C149.283 61.5965 149.115 61.7552 148.948 61.9139C148.833 61.8875 148.718 61.8522 148.603 61.8522C148.233 61.8522 147.862 61.9933 147.588 62.2754C146.838 63.0337 146.123 63.8362 145.46 64.665C145.134 65.0706 145.09 65.5997 145.266 66.0582C145.134 66.2434 144.984 66.4197 144.86 66.6049C144.851 66.6049 144.842 66.6049 144.842 66.6049C144.366 66.6049 143.898 66.843 143.615 67.2839C143.518 67.4338 143.448 67.6013 143.359 67.76L146.326 38.0357C146.564 36.2457 147.562 34.6233 150.078 33.7768C154.501 32.2866 160.893 29.0946 164.706 26.3699C166.446 25.0649 166.516 23.1515 164.848 22.0934C163.559 21.2557 162.243 20.3563 160.884 19.3952C159.118 18.1431 156.01 17.7463 154.059 18.6457C152.576 19.3334 148.877 21.0529 147.394 21.7407C145.452 22.6577 143.765 25.2854 143.589 27.4457C143.456 29.1034 142.785 36.1575 142.635 37.683L142.406 40.002H137.153C134.707 40.7339 131.123 41.3776 126.682 41.9066H142.212L142.097 43.0529H54.6953L54.5806 41.9066H70.1098C65.6691 41.3776 62.0759 40.7339 59.6392 40.002H54.3952L54.1656 37.683C54.0155 36.1575 53.3357 29.1034 53.2121 27.4457C53.0267 25.2854 51.3405 22.6577 49.3983 21.7407C47.9239 21.0529 44.216 19.3334 42.7416 18.6457C40.7905 17.7463 37.6918 18.1519 35.9172 19.3952C34.5665 20.3563 33.2422 21.2645 31.9533 22.0934C30.2847 23.1515 30.3465 25.0649 32.0945 26.3699C35.8996 29.0858 42.3002 32.2778 46.7233 33.7768C49.2305 34.6233 50.2281 36.2457 50.4665 38.0357L53.4329 67.7688C53.3357 67.6101 53.2651 67.4426 53.168 67.2839C52.8943 66.843 52.4264 66.6049 51.9497 66.6049C51.9409 66.6049 51.932 66.6049 51.932 66.6049C51.7996 66.4197 51.6583 66.2434 51.5259 66.0582C51.6937 65.5997 51.6583 65.0706 51.3317 64.665C50.6696 63.8362 49.9545 63.0337 49.204 62.2754C48.9215 61.9933 48.5507 61.8522 48.1799 61.8522C48.0652 61.8522 47.9504 61.8875 47.8356 61.9139C47.6679 61.7552 47.4913 61.6053 47.3148 61.4466C47.3766 60.9616 47.2265 60.459 46.8115 60.1327C45.9817 59.4714 45.1076 58.8454 44.2071 58.2722C43.9688 58.1223 43.6951 58.0518 43.4391 58.0518C43.2095 58.0518 42.9888 58.1135 42.7858 58.2105C42.5827 58.0959 42.3973 57.9636 42.1943 57.8578C42.1413 57.3816 41.8764 56.9407 41.4174 56.7203C40.4639 56.253 39.4663 55.8385 38.4598 55.4858C38.3009 55.4329 38.142 55.4065 37.9831 55.4065C37.6476 55.4065 37.3386 55.5299 37.0826 55.7327C36.8619 55.6622 36.6324 55.6269 36.4028 55.5652C36.2527 55.0979 35.8908 54.7187 35.3787 54.5953C34.3458 54.3572 33.2775 54.1808 32.2181 54.0574C32.1652 54.0486 32.1122 54.0486 32.0504 54.0486C31.5913 54.0486 31.194 54.2866 30.9292 54.6305C30.6996 54.6129 30.4701 54.6041 30.2406 54.5953C29.9934 54.172 29.5519 53.8722 29.0222 53.8722H28.9604C27.8922 53.8722 26.824 53.9339 25.7646 54.0486C25.2437 54.1103 24.8376 54.4542 24.6345 54.8951C24.405 54.9303 24.1754 54.9568 23.9547 55.0009C23.6899 54.7275 23.3279 54.5423 22.9306 54.5423C22.8247 54.5423 22.7187 54.5512 22.6128 54.5776C21.571 54.8157 20.5381 55.1155 19.5317 55.4594C19.0373 55.6269 18.7283 56.0502 18.6224 56.5263C18.4016 56.6145 18.1809 56.685 17.9779 56.782C17.7483 56.6321 17.4747 56.5528 17.201 56.5528C16.9891 56.5528 16.7772 56.5969 16.583 56.6939C15.6207 57.1612 14.6849 57.6814 13.7755 58.2458C13.3341 58.5191 13.1222 58.9953 13.1311 59.4714C12.9368 59.6037 12.7603 59.7536 12.566 59.8947C12.4071 59.8329 12.2394 59.78 12.0628 59.78C11.745 59.78 11.4272 59.8858 11.1623 60.0975C10.3325 60.7588 9.52907 61.4818 8.77865 62.2313C8.40786 62.6017 8.30192 63.1219 8.42551 63.5981C8.2666 63.7656 8.11652 63.9332 7.95761 64.1095C7.89581 64.1007 7.83401 64.0742 7.77221 64.0742C7.34844 64.0742 6.93351 64.2594 6.64217 64.6121C5.98004 65.441 5.35322 66.3227 4.7882 67.2221C4.50569 67.663 4.52335 68.1833 4.74406 68.6241C4.62929 68.8269 4.49686 69.0209 4.38209 69.2326C3.90536 69.2855 3.45511 69.5588 3.2344 70.0261C2.74883 70.9785 2.3339 71.9749 1.98959 72.9801C1.81302 73.465 1.94544 73.9676 2.24561 74.338C2.17498 74.5584 2.13084 74.7877 2.06904 75.0081C1.60114 75.158 1.21269 75.5372 1.09792 76.0574C0.859548 77.0891 0.682979 78.156 0.559381 79.2141C0.506411 79.7344 0.744778 80.2105 1.14206 80.5015C1.1244 80.7308 1.11557 80.96 1.10674 81.1893C0.682979 81.4362 0.382812 81.8771 0.382812 82.4061V82.4238C0.382812 83.4819 0.444612 84.5488 0.559381 85.5981C0.62118 86.1272 0.956661 86.5416 1.41574 86.7444C1.45105 86.9649 1.47754 87.1941 1.52168 87.4146C1.17737 87.7496 0.983146 88.2434 1.09792 88.7548C1.33628 89.7953 1.62762 90.827 1.98076 91.8322C2.15733 92.326 2.57226 92.6522 3.049 92.7492C3.13728 92.9697 3.21674 93.1901 3.30502 93.4106C3.049 93.8162 2.97837 94.3276 3.20791 94.7949C3.66699 95.7472 4.18787 96.6907 4.75289 97.599C5.02657 98.031 5.49447 98.2691 5.97121 98.2691C5.98004 98.2691 5.98887 98.2691 5.99769 98.2691C6.13012 98.4543 6.27138 98.6306 6.4038 98.8158C6.23606 99.2743 6.27138 99.8034 6.59803 100.209C7.26016 101.038 7.97526 101.84 8.72568 102.599C9.00819 102.881 9.37898 103.022 9.74978 103.022C9.86455 103.022 9.97932 102.987 10.0941 102.951C10.2618 103.11 10.4296 103.269 10.6061 103.419C10.5443 103.904 10.7032 104.406 11.1094 104.732C11.9392 105.394 12.8221 106.02 13.7137 106.593C13.9521 106.743 14.217 106.813 14.4818 106.813C14.7114 106.813 14.9321 106.752 15.1351 106.655C15.3382 106.769 15.5324 106.893 15.7355 107.007C15.7884 107.484 16.0533 107.924 16.5124 108.145C17.4747 108.612 18.4723 109.027 19.4699 109.379C19.6288 109.432 19.7877 109.459 19.9466 109.459C20.2821 109.459 20.5911 109.326 20.8471 109.124C21.0678 109.194 21.2974 109.229 21.5269 109.291C21.6417 109.653 21.8889 109.961 22.2332 110.138C22.0919 110.27 21.933 110.393 21.7918 110.534C21.5004 110.825 21.421 111.231 21.5092 111.601C21.3945 111.734 21.2709 111.866 21.1473 111.998C21.0943 111.989 21.0502 111.972 20.9972 111.972C20.6617 111.972 20.3351 112.113 20.1232 112.395C19.6023 113.039 19.1167 113.726 18.6753 114.423C18.4546 114.767 18.4723 115.173 18.64 115.516C18.5517 115.675 18.4546 115.825 18.3663 115.993C17.9867 116.028 17.6424 116.248 17.4747 116.61C17.1127 117.359 16.786 118.135 16.5124 118.92C16.3799 119.299 16.4859 119.687 16.7154 119.978C16.6624 120.146 16.6271 120.331 16.583 120.498C16.2122 120.613 15.9209 120.913 15.8237 121.31C15.6383 122.112 15.4971 122.941 15.4088 123.77C15.3647 124.175 15.5589 124.546 15.8591 124.775C15.8502 124.951 15.8414 125.128 15.8326 125.313C15.5059 125.507 15.2675 125.851 15.2675 126.265V126.274C15.2675 127.103 15.3117 127.932 15.4088 128.752C15.4529 129.166 15.7178 129.492 16.0709 129.642C16.0974 129.819 16.1239 129.995 16.1504 130.163C15.8767 130.427 15.7355 130.806 15.8237 131.203C16.0091 132.005 16.2387 132.817 16.5124 133.601C16.6448 133.989 16.9714 134.236 17.3511 134.316C17.4217 134.483 17.4747 134.66 17.5453 134.827C17.3511 135.145 17.2893 135.541 17.4658 135.903C17.8278 136.644 18.2339 137.384 18.6753 138.09C18.8872 138.425 19.258 138.61 19.6288 138.61C19.6376 138.61 19.6376 138.61 19.6464 138.61C19.7524 138.76 19.8583 138.892 19.9643 139.042C19.8318 139.403 19.8672 139.809 20.1232 140.126C20.6352 140.77 21.2003 141.396 21.7829 141.987C22.0036 142.207 22.2862 142.313 22.5775 142.313C22.6658 142.313 22.7541 142.287 22.8423 142.26C22.9748 142.384 23.1072 142.507 23.2484 142.622C23.1955 143.001 23.3191 143.389 23.6369 143.645C24.2814 144.156 24.97 144.65 25.6674 145.091C25.8528 145.205 26.0647 145.267 26.2678 145.267C26.4443 145.267 26.6121 145.223 26.7798 145.144C26.9387 145.232 27.0888 145.329 27.2477 145.417C27.2919 145.787 27.4949 146.131 27.8569 146.308C28.6073 146.669 29.3754 146.995 30.1699 147.269C30.2847 147.313 30.4171 147.331 30.5407 147.331C30.7968 147.331 31.044 147.234 31.247 147.075C31.4147 147.128 31.6001 147.163 31.7767 147.207C31.8915 147.569 32.174 147.868 32.5713 147.957C33.3835 148.142 34.2045 148.283 35.0344 148.371C35.0785 148.371 35.1227 148.38 35.1668 148.38C35.5288 148.38 35.8378 148.195 36.0408 147.921C36.2174 147.93 36.394 147.939 36.5794 147.948C36.7736 148.274 37.1179 148.503 37.524 148.512H37.5505C38.3716 148.512 39.2014 148.468 40.0136 148.371C40.4197 148.327 40.7376 148.062 40.8965 147.71C41.0731 147.683 41.2585 147.657 41.4262 147.63C41.6381 147.851 41.9118 147.992 42.2296 147.992C42.309 147.992 42.3885 147.983 42.4768 147.957C43.289 147.78 44.0924 147.542 44.8781 147.269C45.2666 147.137 45.5049 146.81 45.5844 146.44C45.7521 146.369 45.9287 146.316 46.0964 146.246C46.273 146.361 46.4849 146.422 46.7056 146.422C46.8733 146.422 47.0322 146.387 47.1912 146.316C47.9416 145.955 48.6743 145.549 49.3806 145.108C49.7161 144.897 49.8838 144.527 49.8838 144.156C50.0339 144.05 50.1752 143.936 50.3252 143.83C50.4488 143.883 50.5813 143.918 50.7137 143.918C50.9609 143.918 51.2081 143.839 51.4111 143.671C52.0556 143.16 52.6824 142.595 53.2739 142.013C53.5653 141.722 53.6447 141.317 53.5565 140.947C53.6801 140.814 53.8037 140.682 53.9184 140.55C53.9714 140.559 54.0244 140.576 54.0685 140.576C54.3952 140.576 54.7218 140.435 54.9425 140.153C55.4634 139.509 55.949 138.821 56.3904 138.125C56.6111 137.781 56.6023 137.367 56.4257 137.032C56.514 136.873 56.6199 136.723 56.7082 136.564C57.079 136.529 57.4321 136.308 57.5999 135.947C57.9618 135.197 58.2885 134.43 58.5622 133.646C58.6946 133.266 58.5975 132.878 58.3679 132.579C58.4209 132.411 58.4562 132.226 58.5004 132.058C58.5622 132.041 58.5975 131.988 58.6593 131.961L60.5397 150.778C60.6015 151.395 61.1224 151.854 61.7228 151.854C61.7581 151.854 61.8022 151.854 61.8375 151.845L65.5278 151.475C65.8456 151.448 66.1281 151.29 66.3312 151.043C66.5342 150.796 66.6225 150.487 66.596 150.17L63.303 117.236C63.2412 116.619 62.7292 116.16 62.12 116.16C62.0759 116.16 62.0406 116.16 61.9964 116.169L54.9249 45.2926C55.6753 47.2149 57.079 49.1107 59.0389 50.7331L65.3248 115.851L98.3872 125.727L131.45 115.851L137.736 50.7331C139.695 49.1107 141.099 47.2149 141.85 45.2926L134.778 116.151C134.743 116.151 134.699 116.142 134.663 116.142C134.054 116.142 133.542 116.601 133.48 117.218L130.196 150.152C130.161 150.47 130.258 150.778 130.461 151.025C130.664 151.272 130.946 151.422 131.264 151.457L134.955 151.828C134.99 151.836 135.034 151.836 135.069 151.836C135.679 151.836 136.191 151.378 136.252 150.761L138.133 131.944C138.186 131.97 138.23 132.023 138.292 132.041C138.336 132.217 138.371 132.393 138.424 132.561C138.195 132.852 138.098 133.249 138.221 133.628C138.495 134.413 138.821 135.18 139.183 135.929C139.36 136.291 139.704 136.502 140.075 136.547C140.163 136.705 140.26 136.855 140.358 137.014C140.19 137.349 140.181 137.763 140.393 138.107C140.834 138.804 141.32 139.492 141.841 140.135C142.061 140.409 142.388 140.559 142.715 140.559C142.768 140.559 142.821 140.541 142.865 140.532C142.98 140.664 143.103 140.797 143.227 140.929C143.139 141.299 143.218 141.705 143.501 141.996C144.092 142.578 144.71 143.133 145.363 143.654C145.575 143.821 145.822 143.9 146.061 143.9C146.193 143.9 146.326 143.865 146.449 143.812C146.599 143.918 146.741 144.042 146.891 144.139C146.891 144.509 147.058 144.879 147.394 145.091C148.1 145.532 148.833 145.937 149.583 146.299C149.742 146.369 149.901 146.405 150.069 146.405C150.281 146.405 150.493 146.343 150.678 146.228C150.846 146.299 151.014 146.352 151.181 146.422C151.261 146.793 151.508 147.119 151.888 147.251C152.673 147.525 153.477 147.754 154.289 147.939C154.377 147.957 154.457 147.974 154.536 147.974C154.845 147.974 155.128 147.833 155.339 147.613C155.516 147.639 155.693 147.666 155.869 147.692C156.028 148.036 156.346 148.309 156.752 148.353C157.564 148.442 158.394 148.494 159.215 148.494H159.242C159.648 148.494 159.992 148.256 160.186 147.93C160.363 147.921 160.548 147.912 160.725 147.904C160.928 148.177 161.246 148.362 161.599 148.362C161.634 148.362 161.678 148.362 161.731 148.353C162.552 148.256 163.382 148.115 164.194 147.939C164.592 147.851 164.874 147.551 164.989 147.189C165.165 147.145 165.342 147.11 165.519 147.057C165.722 147.216 165.96 147.313 166.225 147.313C166.348 147.313 166.472 147.295 166.596 147.251C167.381 146.978 168.158 146.66 168.9 146.29C169.262 146.114 169.465 145.779 169.509 145.399C169.668 145.311 169.818 145.214 169.977 145.126C170.136 145.205 170.312 145.25 170.489 145.25C170.692 145.25 170.904 145.188 171.089 145.073C171.787 144.632 172.475 144.147 173.12 143.627C173.438 143.371 173.561 142.983 173.508 142.604C173.65 142.49 173.773 142.366 173.914 142.243C174.003 142.26 174.091 142.296 174.179 142.296C174.471 142.296 174.753 142.19 174.974 141.969C175.557 141.379 176.122 140.753 176.634 140.109C176.89 139.791 176.925 139.386 176.793 139.024C176.898 138.883 177.013 138.742 177.11 138.592C177.119 138.592 177.119 138.592 177.128 138.592C177.508 138.592 177.87 138.407 178.081 138.072C178.523 137.367 178.929 136.635 179.291 135.885C179.468 135.524 179.406 135.127 179.212 134.809C179.282 134.642 179.344 134.466 179.406 134.298C179.777 134.219 180.103 133.963 180.244 133.584C180.518 132.799 180.748 131.997 180.933 131.185C181.021 130.789 180.871 130.409 180.606 130.145C180.633 129.977 180.659 129.801 180.686 129.625C181.039 129.466 181.304 129.14 181.348 128.734C181.436 127.923 181.489 127.085 181.489 126.256V126.248C181.489 125.833 181.26 125.489 180.924 125.295C180.915 125.119 180.907 124.934 180.898 124.757C181.198 124.528 181.392 124.158 181.348 123.752C181.26 122.923 181.118 122.103 180.933 121.292C180.845 120.886 180.545 120.595 180.174 120.481C180.121 120.313 180.094 120.128 180.041 119.961C180.271 119.67 180.377 119.282 180.244 118.902C179.971 118.118 179.644 117.342 179.282 116.592C179.106 116.231 178.761 116.019 178.39 115.975C178.302 115.816 178.205 115.658 178.117 115.499C178.285 115.164 178.293 114.749 178.081 114.405C177.64 113.709 177.154 113.021 176.634 112.377C176.413 112.095 176.086 111.954 175.76 111.954C175.707 111.954 175.662 111.972 175.61 111.981C175.495 111.848 175.371 111.716 175.248 111.584C175.336 111.213 175.256 110.808 174.974 110.517C174.833 110.376 174.674 110.261 174.532 110.12C174.868 109.944 175.115 109.635 175.23 109.274C175.451 109.212 175.68 109.168 175.91 109.106C176.166 109.309 176.475 109.441 176.81 109.441C176.969 109.441 177.128 109.415 177.287 109.362C178.293 109.009 179.291 108.595 180.244 108.127C180.704 107.907 180.968 107.466 181.021 106.99C181.224 106.884 181.419 106.752 181.622 106.637C181.825 106.743 182.045 106.796 182.275 106.796C182.54 106.796 182.805 106.725 183.043 106.575C183.944 106.011 184.818 105.385 185.647 104.715C186.054 104.389 186.212 103.886 186.151 103.401C186.327 103.251 186.495 103.092 186.663 102.934C186.777 102.96 186.892 103.004 187.007 103.004C187.378 103.004 187.749 102.863 188.031 102.581C188.782 101.831 189.497 101.029 190.159 100.191C190.485 99.7857 190.53 99.2567 190.353 98.7982C190.485 98.613 190.636 98.4366 190.759 98.2515C190.768 98.2515 190.777 98.2515 190.786 98.2515C191.262 98.2515 191.73 98.0134 192.004 97.5813C192.569 96.6819 193.09 95.7384 193.558 94.7773C193.778 94.31 193.708 93.7985 193.461 93.3929C193.549 93.1725 193.628 92.9521 193.717 92.7316C194.193 92.6346 194.608 92.3084 194.785 91.8146C195.138 90.8094 195.429 89.7777 195.668 88.7372C195.782 88.2346 195.597 87.7408 195.244 87.3969C195.288 87.1765 195.315 86.9472 195.35 86.7268C195.8 86.524 196.144 86.1007 196.206 85.5805C196.321 84.5312 196.383 83.4643 196.383 82.4061V82.3885C196.383 81.8771 196.091 81.4362 195.659 81.1893ZM160.319 24.5094C160.504 24.9062 160.336 25.3824 159.93 25.5675L148.895 30.6994C148.789 30.7523 148.674 30.7699 148.559 30.7699C148.259 30.7699 147.977 30.6024 147.844 30.3114C147.659 29.9146 147.826 29.4385 148.233 29.2533L159.268 24.1214C159.657 23.9451 160.133 24.1126 160.319 24.5094ZM146.679 25.9555L157.714 20.8236C158.112 20.6385 158.588 20.806 158.774 21.2116C158.959 21.6084 158.783 22.0846 158.385 22.2609L147.35 27.4016C147.244 27.4545 147.129 27.4721 147.014 27.4721C146.714 27.4721 146.423 27.3046 146.29 27.0136C146.114 26.608 146.281 26.1407 146.679 25.9555ZM48.9304 30.3114C48.7979 30.6024 48.5066 30.7699 48.2064 30.7699C48.0917 30.7699 47.9769 30.7435 47.8709 30.6994L36.8354 25.5675C36.4381 25.3824 36.2616 24.9062 36.447 24.5094C36.6324 24.1126 37.1091 23.9451 37.4975 24.1214L48.5331 29.2533C48.948 29.4473 49.1158 29.9146 48.9304 30.3114ZM50.4753 27.0048C50.3429 27.2958 50.0516 27.4633 49.7514 27.4633C49.6366 27.4633 49.5219 27.4457 49.4159 27.3928L38.3804 22.2521C37.9831 22.0669 37.8065 21.5996 37.9919 21.2028C38.1773 20.806 38.6452 20.6385 39.0513 20.8148L50.0869 25.9467C50.493 26.1407 50.6607 26.608 50.4753 27.0048ZM62.1818 117.968L65.3424 149.641L63.8239 149.791L60.6633 118.118L62.1818 117.968ZM12.001 82.415C12.001 73.0771 19.6111 65.4851 28.9516 65.4851C38.3009 65.4851 45.9022 73.0859 45.9022 82.415C45.9022 91.7528 38.2921 99.3449 28.9516 99.3449C19.6023 99.3537 12.001 91.7617 12.001 82.415ZM37.5417 139.439C30.2582 139.439 24.3343 133.522 24.3343 126.248C24.3343 118.973 30.2582 113.047 37.5417 113.047C44.8251 113.047 50.7578 118.964 50.7578 126.248C50.7578 133.531 44.8251 139.439 37.5417 139.439ZM55.6929 90.3685L55.7194 90.633C55.6929 90.5977 55.6753 90.5625 55.6488 90.5272C55.6753 90.4743 55.6841 90.4214 55.6929 90.3685ZM55.8607 92.0174L58.3062 116.522C58.059 116.548 57.8471 116.663 57.6617 116.821C57.644 116.751 57.6528 116.689 57.6264 116.627C57.2644 115.878 56.8583 115.146 56.4169 114.441C56.205 114.106 55.8342 113.912 55.4634 113.912C55.4546 113.912 55.4546 113.912 55.4457 113.912C55.3486 113.762 55.2339 113.629 55.1279 113.48C55.2603 113.127 55.225 112.712 54.9778 112.395C54.4658 111.751 53.9008 111.125 53.3181 110.534C53.0974 110.314 52.806 110.208 52.5235 110.208C52.4352 110.208 52.347 110.235 52.2498 110.261C52.1174 110.138 51.985 110.014 51.8526 109.9C51.9055 109.52 51.7819 109.132 51.4641 108.877C50.8196 108.356 50.131 107.872 49.4336 107.431C49.2482 107.316 49.0451 107.254 48.8332 107.254C48.6567 107.254 48.4801 107.298 48.3212 107.378C48.1623 107.29 48.0122 107.193 47.8533 107.104C47.818 106.734 47.6061 106.39 47.2441 106.214C46.4937 105.852 45.7256 105.526 44.9399 105.253H44.9222C45.0547 105.156 45.1871 105.05 45.3284 104.953C45.4873 105.015 45.655 105.059 45.8316 105.059C46.1494 105.059 46.4672 104.962 46.7233 104.75C47.5531 104.089 48.3565 103.375 49.1158 102.625C49.4865 102.255 49.5925 101.734 49.4689 101.258C49.6278 101.091 49.7779 100.923 49.9368 100.747C49.9986 100.756 50.0604 100.782 50.131 100.782C50.5548 100.782 50.9697 100.597 51.2522 100.244C51.9144 99.4154 52.5412 98.5424 53.115 97.643C53.3975 97.2022 53.3799 96.6819 53.168 96.241C53.2828 96.0382 53.4152 95.8442 53.53 95.6326C54.0067 95.5797 54.457 95.3064 54.6777 94.839C55.1191 93.9308 55.5164 92.9785 55.8607 92.0174ZM96.7981 121.107L84.2441 117.359H93.7435V114.979H76.2632L69.0239 112.818L68.8561 111.081H93.7346V108.7H68.6266L68.247 104.803H93.7346V102.422H68.0174L67.6378 98.5248H93.7258V96.144H67.4171L67.0375 92.2466H93.7346V89.8659H66.8079L66.4283 85.9685H93.7346V83.5877H66.2076L65.828 79.6903H93.7346V77.3095H65.5984L65.2188 73.4121H93.7346V71.0314H64.9893L64.6097 67.134H93.7346V64.7532H64.3889L64.0093 60.8558H93.7346V58.475H63.7798L63.4178 54.7011H96.7981V121.107V121.107ZM60.7516 50.7331V50.6714H60.7605V46.7299H63.9122V50.7331H60.7516ZM65.5631 50.7331V46.7299H68.7149V50.7331H65.5631ZM70.3658 50.7331V46.7299H73.5175V50.7331H70.3658ZM75.1773 50.7331V46.7299H78.329V50.7331H75.1773ZM79.9888 50.7331V46.7299H83.1405V50.7331H79.9888ZM84.7914 50.7331V46.7299H87.9432V50.7331H84.7914ZM89.5941 50.7331V46.7299H92.7459V50.7331H89.5941ZM97.5574 50.7331H94.4056V46.7299H97.5574V50.7331ZM99.9763 121.107V118.55H108.54L99.9763 121.107ZM99.2171 50.7331V46.7299H102.369V50.7331H99.2171ZM127.742 112.809L124.493 113.779H99.9763V112.272H127.795L127.742 112.809ZM128.254 107.501H99.9763V105.993H128.404L128.254 107.501ZM128.863 101.223H99.9763V99.7152H129.004L128.863 101.223ZM129.472 94.9448H99.9763V93.437H129.613L129.472 94.9448ZM130.072 88.6667H99.9763V87.1589H130.223L130.072 88.6667ZM130.682 82.3973H99.9763V80.8895H130.823L130.682 82.3973ZM131.291 76.1191H99.9852V74.6113H131.441L131.291 76.1191ZM131.891 69.841H99.9763V68.3332H132.041L131.891 69.841ZM132.5 63.5628H99.9763V62.0462H132.642L132.5 63.5628ZM133.109 57.2846H99.9852V54.7011H133.365L133.109 57.2846ZM104.02 50.7331V46.7299H107.172V50.7331H104.02ZM108.822 50.7331V46.7299H111.974V50.7331H108.822ZM113.634 50.7331V46.7299H116.786V50.7331H113.634ZM118.437 50.7331V46.7299H121.588V50.7331H118.437ZM123.248 50.7331V46.7299H126.409V50.7331H123.248ZM128.06 50.7331V46.7299H131.211V50.7331H128.06ZM136.023 50.7331H132.862V46.7299H136.014V50.6714H136.023V50.7331V50.7331ZM140.534 44.8694H56.2403C56.1344 44.5696 56.0461 44.2698 55.9754 43.9612H140.808C140.728 44.2698 140.64 44.5696 140.534 44.8694ZM132.942 149.791L131.432 149.641L134.593 117.968L136.111 118.118L132.942 149.791ZM141.073 90.3773C141.082 90.4302 141.09 90.4743 141.108 90.5272C141.082 90.5625 141.073 90.5977 141.046 90.6242L141.073 90.3773ZM145.302 108.877C144.984 109.132 144.86 109.52 144.913 109.9C144.781 110.014 144.648 110.138 144.516 110.261C144.427 110.243 144.339 110.208 144.251 110.208C143.96 110.208 143.677 110.314 143.456 110.534C142.874 111.125 142.309 111.751 141.797 112.395C141.541 112.712 141.505 113.127 141.647 113.48C141.541 113.621 141.426 113.762 141.329 113.912C141.32 113.912 141.32 113.912 141.311 113.912C140.94 113.912 140.569 114.097 140.358 114.441C139.916 115.146 139.51 115.878 139.148 116.627C139.113 116.689 139.13 116.76 139.113 116.821C138.927 116.663 138.716 116.548 138.468 116.522L140.914 92.0262C141.258 92.9873 141.647 93.9308 142.097 94.8478C142.326 95.3152 142.768 95.5885 143.244 95.6414C143.359 95.8531 143.492 96.0382 143.606 96.2499C143.386 96.6907 143.377 97.211 143.659 97.6519C144.224 98.5513 144.851 99.4242 145.522 100.253C145.805 100.615 146.228 100.791 146.643 100.791C146.705 100.791 146.776 100.764 146.838 100.756C146.988 100.923 147.147 101.091 147.306 101.267C147.191 101.743 147.288 102.263 147.659 102.634C148.418 103.383 149.213 104.098 150.051 104.759C150.316 104.971 150.634 105.068 150.943 105.068C151.111 105.068 151.278 105.015 151.446 104.962C151.587 105.059 151.72 105.165 151.852 105.261H151.843C151.058 105.544 150.29 105.861 149.539 106.223C149.177 106.399 148.974 106.743 148.93 107.113C148.771 107.201 148.621 107.298 148.462 107.387C148.303 107.307 148.135 107.263 147.95 107.263C147.747 107.263 147.544 107.325 147.359 107.439C146.635 107.872 145.955 108.356 145.302 108.877ZM159.224 139.439C151.94 139.439 146.008 133.522 146.008 126.248C146.008 118.973 151.932 113.047 159.224 113.047C166.507 113.047 172.431 118.964 172.431 126.248C172.431 133.531 166.516 139.439 159.224 139.439ZM167.814 99.3537C158.465 99.3537 150.863 91.7617 150.863 82.4238C150.863 73.0859 158.474 65.4939 167.814 65.4939C177.163 65.4939 184.765 73.0947 184.765 82.4238C184.765 91.7617 177.163 99.3537 167.814 99.3537ZM159.224 123.973C157.882 123.973 156.787 125.057 156.787 126.406C156.787 127.747 157.882 128.84 159.224 128.84C160.566 128.84 161.661 127.755 161.661 126.406C161.661 125.057 160.575 123.973 159.224 123.973ZM159.224 128.443C158.094 128.443 157.176 127.526 157.176 126.406C157.176 125.278 158.094 124.361 159.224 124.361C160.354 124.361 161.272 125.278 161.272 126.406C161.272 127.526 160.354 128.443 159.224 128.443ZM159.224 118.409C160.195 118.409 160.972 117.624 160.972 116.654C160.972 115.684 160.186 114.899 159.224 114.899C158.253 114.899 157.467 115.684 157.467 116.654C157.467 117.624 158.262 118.409 159.224 118.409ZM159.224 134.395C158.253 134.395 157.467 135.18 157.467 136.15C157.467 137.12 158.253 137.904 159.224 137.904C160.195 137.904 160.972 137.12 160.972 136.15C160.981 135.18 160.195 134.395 159.224 134.395ZM167.373 120.745C168.061 120.058 168.061 118.955 167.373 118.268C166.684 117.58 165.58 117.58 164.892 118.268C164.203 118.955 164.203 120.058 164.892 120.745C165.572 121.433 166.684 121.433 167.373 120.745ZM151.084 132.058C150.396 132.746 150.396 133.848 151.084 134.536C151.773 135.224 152.876 135.224 153.565 134.536C154.254 133.848 154.254 132.737 153.565 132.058C152.876 131.371 151.773 131.371 151.084 132.058ZM167.231 126.397C167.231 127.367 168.017 128.152 168.988 128.152C169.95 128.152 170.745 127.367 170.745 126.397C170.745 125.436 169.959 124.652 168.988 124.652C168.017 124.652 167.231 125.436 167.231 126.397ZM151.217 126.397C151.217 125.436 150.431 124.652 149.469 124.652C148.497 124.652 147.712 125.436 147.712 126.397C147.712 127.367 148.497 128.152 149.469 128.152C150.431 128.152 151.217 127.367 151.217 126.397ZM164.892 132.058C164.203 132.746 164.203 133.848 164.892 134.536C165.58 135.224 166.684 135.224 167.373 134.536C168.061 133.848 168.061 132.746 167.373 132.058C166.684 131.371 165.572 131.371 164.892 132.058ZM153.565 120.745C154.254 120.066 154.254 118.955 153.565 118.268C152.876 117.58 151.773 117.58 151.084 118.268C150.396 118.955 150.396 120.058 151.084 120.745C151.773 121.433 152.876 121.433 153.565 120.745ZM159.224 123.188C159.612 123.188 159.93 122.87 159.93 122.482C159.93 122.094 159.612 121.777 159.224 121.777C158.835 121.777 158.518 122.094 158.518 122.482C158.526 122.87 158.835 123.188 159.224 123.188ZM159.224 129.616C158.835 129.616 158.518 129.933 158.518 130.321C158.518 130.709 158.827 131.027 159.224 131.027C159.612 131.027 159.93 130.709 159.93 130.321C159.93 129.933 159.612 129.616 159.224 129.616ZM162.499 124.131C162.773 123.858 162.773 123.408 162.499 123.135C162.226 122.862 161.775 122.862 161.502 123.135C161.228 123.408 161.228 123.858 161.502 124.131C161.775 124.405 162.226 124.405 162.499 124.131ZM155.957 128.672C155.684 128.946 155.684 129.395 155.957 129.669C156.231 129.942 156.681 129.942 156.955 129.669C157.229 129.395 157.229 128.946 156.955 128.672C156.673 128.399 156.231 128.399 155.957 128.672ZM163.144 125.701C162.755 125.701 162.437 126.018 162.437 126.406C162.437 126.794 162.755 127.112 163.144 127.112C163.532 127.112 163.85 126.794 163.85 126.406C163.85 126.009 163.541 125.701 163.144 125.701ZM156.01 126.406C156.01 126.018 155.693 125.701 155.304 125.701C154.916 125.701 154.598 126.018 154.598 126.406C154.598 126.794 154.916 127.112 155.304 127.112C155.693 127.103 156.01 126.794 156.01 126.406ZM161.502 128.672C161.228 128.946 161.228 129.395 161.502 129.669C161.775 129.942 162.226 129.942 162.499 129.669C162.773 129.395 162.773 128.946 162.499 128.672C162.226 128.399 161.775 128.399 161.502 128.672ZM156.955 124.131C157.229 123.858 157.229 123.417 156.955 123.144C156.681 122.87 156.231 122.87 155.957 123.144C155.684 123.417 155.684 123.867 155.957 124.14C156.231 124.405 156.673 124.405 156.955 124.131ZM159.224 119.511C155.41 119.511 152.32 122.597 152.32 126.406C152.32 130.215 155.41 133.302 159.224 133.302C163.038 133.302 166.128 130.215 166.128 126.406C166.128 122.597 163.038 119.511 159.224 119.511ZM159.224 132.684C155.754 132.684 152.929 129.863 152.929 126.406C152.929 122.941 155.754 120.119 159.224 120.119C162.694 120.119 165.519 122.941 165.519 126.406C165.519 129.863 162.694 132.684 159.224 132.684ZM37.5417 123.973C36.1998 123.973 35.105 125.057 35.105 126.406C35.105 127.747 36.1998 128.84 37.5417 128.84C38.8836 128.84 39.9783 127.755 39.9783 126.406C39.9783 125.057 38.8924 123.973 37.5417 123.973ZM37.5417 128.443C36.4116 128.443 35.4935 127.526 35.4935 126.406C35.4935 125.278 36.4116 124.361 37.5417 124.361C38.6717 124.361 39.5899 125.278 39.5899 126.406C39.5899 127.526 38.6717 128.443 37.5417 128.443ZM37.5417 118.409C38.5128 118.409 39.2985 117.624 39.2985 116.654C39.2985 115.684 38.5128 114.899 37.5417 114.899C36.5706 114.899 35.7937 115.684 35.7937 116.654C35.7937 117.624 36.5794 118.409 37.5417 118.409ZM37.5417 134.395C36.5706 134.395 35.7937 135.18 35.7937 136.15C35.7937 137.12 36.5794 137.904 37.5417 137.904C38.5128 137.904 39.2985 137.12 39.2985 136.15C39.2985 135.18 38.5128 134.395 37.5417 134.395ZM31.8827 120.745C32.5713 120.058 32.5713 118.955 31.8827 118.268C31.194 117.58 30.0905 117.58 29.4019 118.268C28.7132 118.955 28.7132 120.058 29.4019 120.745C30.0905 121.433 31.194 121.433 31.8827 120.745ZM43.2095 132.058C42.5209 132.746 42.5209 133.848 43.2095 134.536C43.8981 135.224 45.0017 135.224 45.6903 134.536C46.3789 133.848 46.3789 132.737 45.6903 132.058C45.0017 131.371 43.8893 131.371 43.2095 132.058ZM29.5343 126.397C29.5343 125.436 28.7486 124.652 27.7774 124.652C26.8151 124.652 26.0294 125.436 26.0294 126.397C26.0294 127.367 26.8151 128.152 27.7774 128.152C28.7574 128.152 29.5343 127.367 29.5343 126.397ZM45.5491 126.397C45.5491 127.367 46.3348 128.152 47.2971 128.152C48.2682 128.152 49.054 127.367 49.054 126.397C49.054 125.436 48.2682 124.652 47.2971 124.652C46.3348 124.652 45.5491 125.436 45.5491 126.397ZM29.4019 132.058C28.7132 132.746 28.7132 133.848 29.4019 134.536C30.0905 135.224 31.194 135.224 31.8827 134.536C32.5713 133.848 32.5713 132.746 31.8827 132.058C31.194 131.371 30.0905 131.371 29.4019 132.058ZM45.6903 120.745C46.3789 120.058 46.3789 118.955 45.6903 118.268C45.0017 117.58 43.8981 117.58 43.2095 118.268C42.5209 118.955 42.5209 120.058 43.2095 120.745C43.8893 121.433 45.0017 121.433 45.6903 120.745ZM37.5417 123.188C37.9301 123.188 38.248 122.87 38.248 122.482C38.248 122.094 37.939 121.777 37.5417 121.777C37.1532 121.777 36.8354 122.094 36.8354 122.482C36.8442 122.87 37.1532 123.188 37.5417 123.188ZM37.5417 129.616C37.1532 129.616 36.8354 129.933 36.8354 130.321C36.8354 130.709 37.1532 131.027 37.5417 131.027C37.9301 131.027 38.248 130.709 38.248 130.321C38.248 129.933 37.939 129.616 37.5417 129.616ZM35.2728 124.131C35.5465 123.858 35.5465 123.408 35.2728 123.135C34.9991 122.862 34.5488 122.862 34.2752 123.135C34.0015 123.408 34.0015 123.858 34.2752 124.131C34.5488 124.405 34.9903 124.405 35.2728 124.131ZM39.8194 128.672C39.5457 128.946 39.5457 129.395 39.8194 129.669C40.0931 129.942 40.5433 129.942 40.817 129.669C41.0907 129.395 41.0907 128.946 40.817 128.672C40.5433 128.399 40.0931 128.399 39.8194 128.672ZM34.3281 126.406C34.3281 126.018 34.0103 125.701 33.6219 125.701C33.2334 125.701 32.9156 126.018 32.9156 126.406C32.9156 126.794 33.2334 127.112 33.6219 127.112C34.0103 127.103 34.3281 126.794 34.3281 126.406ZM41.4703 125.701C41.0819 125.701 40.7641 126.018 40.7641 126.406C40.7641 126.794 41.0819 127.112 41.4703 127.112C41.8588 127.112 42.1766 126.794 42.1766 126.406C42.1678 126.009 41.8588 125.701 41.4703 125.701ZM34.2752 128.672C34.0015 128.946 34.0015 129.395 34.2752 129.669C34.5488 129.942 34.9991 129.942 35.2728 129.669C35.5465 129.395 35.5465 128.946 35.2728 128.672C34.9903 128.399 34.5488 128.399 34.2752 128.672ZM40.817 124.131C41.0907 123.858 41.0907 123.408 40.817 123.135C40.5433 122.862 40.0931 122.862 39.8194 123.135C39.5457 123.408 39.5457 123.858 39.8194 124.122C40.0931 124.405 40.5433 124.405 40.817 124.131ZM37.5417 119.511C33.7278 119.511 30.6378 122.597 30.6378 126.406C30.6378 130.215 33.7278 133.302 37.5417 133.302C41.3556 133.302 44.4455 130.215 44.4455 126.406C44.4455 122.597 41.3556 119.511 37.5417 119.511ZM37.5417 132.684C34.0721 132.684 31.247 129.863 31.247 126.406C31.247 122.941 34.0721 120.119 37.5417 120.119C41.0113 120.119 43.8364 122.941 43.8364 126.406C43.8364 129.863 41.0113 132.684 37.5417 132.684ZM116.609 164.04C115.523 164.04 114.649 164.913 114.649 165.998C114.649 168.819 112.354 171.112 109.529 171.112H105.83V165.998C105.83 164.922 104.956 164.04 103.87 164.04C102.784 164.04 101.91 164.913 101.91 165.998V171.112H94.8559V165.998C94.8559 164.922 93.9818 164.04 92.8959 164.04C91.81 164.04 90.936 164.913 90.936 165.998V171.112H87.2369C84.4118 171.112 82.1164 168.819 82.1164 165.998C82.1164 164.922 81.2424 164.04 80.1565 164.04C79.0795 164.04 78.1966 164.913 78.1966 165.998C78.1966 170.971 82.2489 175.018 87.2281 175.018H90.9272V179.727C90.9272 180.802 91.8012 181.684 92.8871 181.684C93.9642 181.684 94.847 180.811 94.847 179.727V175.018H101.91V179.727C101.91 180.802 102.784 181.684 103.87 181.684C104.947 181.684 105.83 180.811 105.83 179.727V175.018H109.529C114.508 175.018 118.56 170.971 118.56 165.998C118.56 164.913 117.686 164.04 116.609 164.04ZM91.607 32.0397C93.5846 33.7239 95.4562 35.505 97.0983 37.0834C94.7323 39.5435 93.1343 41.2894 93.664 41.7744C94.1496 42.3123 95.9064 40.6986 98.3872 38.3267C100.859 40.7074 102.616 42.3123 103.102 41.7744C103.64 41.2894 102.042 39.5435 99.6674 37.0834C101.309 35.505 103.181 33.715 105.159 32.0397C110.756 26.9695 117.245 22.7988 117.465 23.1074L119.134 21.4409L114.022 16.3354L112.354 18.002C112.672 18.2224 108.487 24.7034 103.419 30.2938C101.742 32.2601 99.9675 34.1207 98.3872 35.7519C96.8069 34.1207 95.0324 32.2601 93.355 30.2938C88.2787 24.7034 84.1028 18.2224 84.4207 18.002L82.7521 16.3354L77.6404 21.4409L79.309 23.1074C79.5209 22.8076 86.0098 26.9784 91.607 32.0397ZM114.508 17.905L115.541 18.9367L114.517 19.9595L113.484 18.9278L114.508 17.905ZM104.152 30.9639C107.145 27.6661 109.52 24.4124 110.676 22.7635C111.621 21.4144 112.257 20.4357 112.68 19.7214L113.766 20.806C111.753 24.1567 102.422 33.0273 101.212 34.2353C101.274 34.1824 101.327 34.1383 101.389 34.0942C101.292 34.1824 101.177 34.2794 101.08 34.3764C102.095 33.2918 103.146 32.1543 104.152 30.9639ZM86.0892 22.7635C87.2458 24.4124 89.6206 27.6661 92.6134 30.9639C93.6199 32.1455 94.6705 33.2918 95.6857 34.3764C95.5886 34.2882 95.4738 34.1912 95.3767 34.0942C95.4385 34.1471 95.4915 34.1912 95.5533 34.2353C94.3438 33.0185 85.0122 24.1479 82.9993 20.806L84.0852 19.7214C84.5089 20.4445 85.1446 21.4144 86.0892 22.7635ZM82.2665 17.905L83.2906 18.9278L82.2577 19.9595L81.2336 18.9367L82.2665 17.905Z" fill="black"/>
</svg>
