<svg width="177" height="200" viewBox="0 0 177 200" fill="none" xmlns="http://www.w3.org/2000/svg">
<path fill-rule="evenodd" clip-rule="evenodd" d="M115.351 49.5119C115.351 45.0255 115.351 37.5557 115.351 37.5557L79.0347 69.3968L87.9272 70.1426C87.9272 70.1426 91.5416 65.8627 95.9133 61.1927C97.9213 59.0585 99.4474 56.8325 101.995 54.9163C106.068 51.8297 110.692 49.5119 115.351 49.5119Z" fill="#0000FF"/>
<path d="M108.81 81.2038C101.191 81.2038 94.9954 75.0077 94.9954 67.3888C94.9954 59.7699 101.191 53.5738 108.81 53.5738C116.429 53.5738 122.625 59.7699 122.625 67.3888C122.625 74.9962 116.429 81.2038 108.81 81.2038Z" fill="#F0F0EB"/>
<path d="M108.81 54.2852C116.028 54.2852 121.902 60.16 121.902 67.3773C121.902 74.5946 116.028 80.4694 108.81 80.4694C101.593 80.4694 95.7182 74.5946 95.7182 67.3773C95.7182 60.16 101.593 54.2852 108.81 54.2852ZM108.81 52.828C100.778 52.828 94.261 59.3453 94.261 67.3773C94.261 75.4093 100.778 81.9267 108.81 81.9267C116.842 81.9267 123.36 75.4093 123.36 67.3773C123.36 59.3453 116.842 52.828 108.81 52.828Z" fill="#0000FF"/>
<path d="M54.0093 86.2869L110.268 36.982V46.7925L59.8268 86.2869H54.0093Z" fill="#F0F0EB"/>
<path d="M109.533 38.5884V46.4483L59.5744 85.5755H55.937L109.533 38.5884ZM110.991 35.3756L52.0702 87.0212H60.0677L110.979 47.1482V35.3756H110.991Z" fill="#0000FF"/>
<path fill-rule="evenodd" clip-rule="evenodd" d="M70.9798 23.0064H56.4419C55.6387 23.0064 54.9846 23.6604 54.9846 24.4636V25.9208C54.9846 26.724 55.5698 27.6534 56.2927 27.9977C56.2927 27.9977 58.0597 29.0189 60.0677 28.9271V30.2925H45.5299V29.5696L41.8925 30.2925V33.207L45.5299 33.9299V33.207H52.0817L57.8762 50.0282H61.6741L55.8796 33.1955H63.7166V30.281H62.9937V27.6305C63.9805 26.8273 64.8181 25.9323 65.6328 25.9208C67.0441 25.8979 71.7256 25.9208 71.7256 25.9208C72.1272 25.9208 72.4485 25.5995 72.4485 25.1865V24.4636C72.437 23.6489 71.783 23.0064 70.9798 23.0064Z" fill="#0000FF"/>
<path fill-rule="evenodd" clip-rule="evenodd" d="M60.3087 45.9778L61.2611 48.7202L64.9328 48.2268L63.51 44.1075L60.3087 45.9778Z" fill="#0000FF"/>
<path d="M63.6477 67.6757L55.2715 43.3732H59.5514L67.9161 67.6757H63.6477Z" fill="#F0F0EB"/>
<path d="M59.035 44.1075L66.8949 66.9528H64.1525L56.2812 44.1075H59.035ZM60.0792 42.6503H54.2617L63.1313 68.41H68.9488L60.0792 42.6503Z" fill="#0000FF"/>
<path d="M108.81 77.9222C102.993 77.9222 98.2656 73.1948 98.2656 67.3773C98.2656 61.5599 102.993 56.8325 108.81 56.8325C114.628 56.8325 119.355 61.5599 119.355 67.3773C119.355 73.1948 114.628 77.9222 108.81 77.9222Z" fill="#F0F0EB"/>
<path d="M108.81 57.1997C114.421 57.1997 118.988 61.7664 118.988 67.3773C118.988 72.9882 114.421 77.555 108.81 77.555C103.199 77.555 98.6327 72.9882 98.6327 67.3773C98.6327 61.7664 103.199 57.1997 108.81 57.1997ZM108.81 56.4653C102.786 56.4653 97.8984 61.3533 97.8984 67.3773C97.8984 73.4013 102.786 78.2893 108.81 78.2893C114.834 78.2893 119.722 73.4013 119.722 67.3773C119.722 61.3533 114.834 56.4653 108.81 56.4653Z" fill="#0000FF"/>
<path fill-rule="evenodd" clip-rule="evenodd" d="M109.43 63.063L75.3744 56.6948C74.663 56.5456 73.9287 56.4768 73.1828 56.4768C67.1588 56.4768 62.2708 61.3648 62.2708 67.3888C62.2708 73.4128 67.1588 78.3008 73.1828 78.3008C73.8483 78.3008 74.4909 78.2434 75.122 78.1287L109.671 71.6687C111.679 71.2786 113.194 69.5115 113.194 67.3888C113.171 65.1743 111.541 63.3613 109.43 63.063Z" fill="#0000FF"/>
<path d="M73.1713 73.9291C76.7898 73.9291 79.7231 70.9958 79.7231 67.3773C79.7231 63.7589 76.7898 60.8255 73.1713 60.8255C69.5528 60.8255 66.6195 63.7589 66.6195 67.3773C66.6195 70.9958 69.5528 73.9291 73.1713 73.9291Z" fill="#F0F0EB"/>
<path d="M112.964 86.2869L98.1852 43.3732H102.477L117.244 86.2869H112.964Z" fill="#F0F0EB"/>
<path d="M101.949 44.1075L116.223 85.564H113.48L99.2064 44.1075H101.949ZM102.993 42.6503H97.1755L112.448 87.0212H118.265L102.993 42.6503Z" fill="#0000FF"/>
<path d="M62.2479 84.8411H52.0702V87.7556H62.2479V84.8411Z" fill="#0000FF"/>
<path fill-rule="evenodd" clip-rule="evenodd" d="M120.445 81.9267C119.24 81.9267 118.265 82.902 118.265 84.1068C118.265 84.3592 118.323 84.6002 118.403 84.8297H110.99V87.7441H119.722V86.1607C119.952 86.241 120.193 86.2984 120.445 86.2984C121.65 86.2984 122.625 85.3231 122.625 84.1183C122.625 82.902 121.65 81.9267 120.445 81.9267Z" fill="#0000FF"/>
<path d="M57.8991 30.2811H47.71V33.1955H57.8991V30.2811Z" fill="#F0F0EB"/>
<path d="M57.1648 31.0154V32.4726H48.4329V31.0154H57.1648ZM58.622 29.5582H46.9871V33.9184H58.622V29.5582Z" fill="#0000FF"/>
<path fill-rule="evenodd" clip-rule="evenodd" d="M115.351 37.5557L118.988 36.8328V41.1931L115.351 40.4702V37.5557Z" fill="#0000FF"/>
<path fill-rule="evenodd" clip-rule="evenodd" d="M124.794 22.1687C124.106 21.7671 123.222 21.9966 122.809 22.6736C122.763 22.7539 121.524 24.716 118.173 24.716H116.808V22.2835L109.533 23.7407V24.7275H104.852C104.049 24.7275 103.395 25.3815 103.395 26.1847C103.395 26.9879 104.049 27.642 104.852 27.642H110.256V39.7473H114.616V27.6305H118.162C123.279 27.6305 125.242 24.28 125.322 24.1423C125.723 23.4424 125.482 22.5703 124.794 22.1687Z" fill="#0000FF"/>
<path fill-rule="evenodd" clip-rule="evenodd" d="M98.6213 43.3732L97.8984 39.7358H102.259L101.536 43.3732H98.6213Z" fill="#0000FF"/>
<path d="M114.628 32.4612H110.268V47.0105H114.628V32.4612Z" fill="#F0F0EB"/>
<path d="M113.905 33.1955V46.2876H110.99V33.1955H113.905ZM115.351 31.7383H109.533V47.7449H115.351V31.7383Z" fill="#0000FF"/>
<path fill-rule="evenodd" clip-rule="evenodd" d="M71.7141 55.5588H71.5305V55.7424V67.3888C71.5305 68.2953 72.2649 69.0181 73.1713 69.0181C74.0778 69.0181 74.8121 68.2838 74.8121 67.3888V55.7424V55.5588H74.6286H71.7141Z" fill="#F0F0EB" stroke="#0000FF" stroke-width="0.6339" stroke-miterlimit="10"/>
<path d="M73.1714 53.5623V50.6479H77.5431C78.3463 50.6479 78.9888 51.2904 78.9888 52.1051C78.9888 52.9083 78.3348 53.5623 77.5431 53.5623H73.1714V53.5623Z" stroke="#0000FF" stroke-width="0.6339" stroke-miterlimit="10"/>
<path d="M76.8087 53.5623H69.534V55.7424H76.8087V53.5623Z" fill="#0000FF"/>
<path d="M75.34 50.6479H74.6171V53.5623H75.34V50.6479Z" fill="#0000FF"/>
<path d="M0 109.729L1.68672 105.931H11.5431L12.243 109.832L10.7973 110.303C10.4186 108.811 9.69575 107.732 8.43358 107.618L7.26321 114.158C7.18289 114.628 7.14846 114.881 7.14846 115.064C7.14846 115.638 7.49269 115.856 8.34179 115.959L8.05493 117.646H1.6064L1.89325 115.959C2.89151 115.913 3.23574 115.581 3.33901 114.961L4.65855 107.618C3.33901 107.755 2.37517 108.547 1.28512 110.303L0 109.729Z" fill="#0000FF"/>
<path d="M14.1937 108.949C14.2625 108.639 14.2969 108.375 14.2969 108.226C14.2969 107.881 14.1248 107.652 13.161 107.618L13.4364 106.034C14.9165 105.965 15.9951 105.828 16.9819 105.483H18.3474L17.5556 109.694C18.1867 109.316 19.2882 108.971 20.3095 108.971C21.6978 108.971 22.8682 109.522 22.8682 111.094C22.8682 111.909 22.1224 114.617 22.1224 115.087C22.1224 115.477 22.3174 115.638 22.5814 115.638C22.9256 115.638 23.2469 115.443 23.6026 115.156L24.4058 116.189C23.3731 117.29 22.3289 117.864 20.711 117.864C19.3341 117.864 18.4047 117.199 18.4047 116.005C18.4047 115.282 19.1391 112.46 19.1391 111.771C19.1391 111.266 18.9325 111.083 18.4162 111.083C18.1293 111.083 17.6589 111.22 17.2802 111.37L16.041 117.635H12.4266L14.1937 108.949Z" fill="#0000FF"/>
<path d="M34.3884 115.317C32.5066 117.474 30.2232 117.864 29.1561 117.864C27.2629 117.864 24.532 117.29 24.532 114.227C24.532 111.576 27.0448 108.971 30.774 108.971C32.8852 108.971 34.1589 109.821 34.1589 111.071C34.1589 113.125 31.5657 113.848 28.4447 114.181V114.617C28.4447 115.5 29.1332 115.959 29.9593 115.959C31.0264 115.959 32.1853 115.409 33.2639 114.307L34.3884 115.317ZM30.338 110.566C29.6725 110.566 28.9955 111.507 28.6512 112.815C29.6266 112.609 30.8887 112.024 30.8887 111.209C30.8887 110.865 30.6478 110.566 30.338 110.566Z" fill="#0000FF"/>
<path d="M60.5611 121.662H54.3994L49.7294 114.341H49.6835V121.662H44.7381V102.626H52.139C55.9025 102.626 58.7596 104.416 58.7596 108.478C58.7596 111.106 57.2909 113.378 54.5945 113.86L60.5611 121.662ZM49.6835 111.152H50.1654C51.7833 111.152 53.5962 110.853 53.5962 108.776C53.5962 106.711 51.7833 106.401 50.1654 106.401H49.6835V111.152Z" fill="#0000FF"/>
<path d="M84.5194 111.783C84.5194 117.944 80.1018 122.282 73.986 122.282C67.8702 122.282 63.4526 117.933 63.4526 111.783C63.4526 106.023 68.5013 101.984 73.986 101.984C79.4707 101.995 84.5194 106.034 84.5194 111.783ZM68.6046 111.806C68.6046 115.087 71.0257 117.485 73.986 117.485C76.9349 117.485 79.3674 115.087 79.3674 111.806C79.3674 109.178 76.9464 106.78 73.986 106.78C71.0371 106.791 68.6046 109.19 68.6046 111.806Z" fill="#0000FF"/>
<path d="M94.1807 118.346L92.8726 121.651H87.6174L94.938 102.615H100.342L107.514 121.651H102.236L100.996 118.346H94.1807ZM97.6459 108.501H97.6L95.5576 114.559H99.6769L97.6459 108.501Z" fill="#0000FF"/>
<path d="M111.576 102.626H118.598C123.899 102.626 128.271 106.791 128.271 112.138C128.271 117.485 123.876 121.651 118.598 121.651H111.576V102.626V102.626ZM116.521 117.462H117.634C120.594 117.462 123.119 115.845 123.119 112.138C123.119 108.731 120.87 106.814 117.691 106.814H116.533V117.462H116.521Z" fill="#0000FF"/>
<path d="M148.305 121.662H143.359V106.814H139.275V102.626H152.401V106.814H148.316V121.662H148.305Z" fill="#0000FF"/>
<path d="M176.807 111.783C176.807 117.944 172.389 122.282 166.273 122.282C160.169 122.282 155.752 117.933 155.752 111.783C155.752 106.023 160.8 101.984 166.273 101.984C171.758 101.995 176.807 106.034 176.807 111.783ZM160.904 111.806C160.904 115.087 163.325 117.485 166.285 117.485C169.245 117.485 171.666 115.087 171.666 111.806C171.666 109.178 169.245 106.78 166.285 106.78C163.325 106.78 160.904 109.19 160.904 111.806Z" fill="#0000FF"/>
<path d="M13.3216 131.082H18.267L27.3317 142.717H27.3776V131.082H32.323V150.118H27.3776L18.3129 138.449H18.267V150.118H13.3216V131.082Z" fill="#0000FF"/>
<path d="M58.1859 140.239C58.1859 146.401 53.7683 150.738 47.6526 150.738C41.5368 150.738 37.1192 146.389 37.1192 140.239C37.1192 134.479 42.1679 130.44 47.6526 130.44C53.1373 130.44 58.1859 134.49 58.1859 140.239ZM42.2711 140.262C42.2711 143.543 44.6922 145.942 47.6526 145.942C50.6015 145.942 53.034 143.543 53.034 140.262C53.034 137.634 50.6129 135.236 47.6526 135.236C44.7037 135.248 42.2711 137.646 42.2711 140.262Z" fill="#0000FF"/>
<path d="M69.4651 143.371H69.511L73.5041 131.082H77.4397L81.1804 143.371H81.2262L84.8062 131.082H89.9582L83.8768 150.118H78.8281L75.5006 139.08H75.4547L71.7141 150.118H66.6884L61.0086 131.082H66.1605L69.4651 143.371Z" fill="#0000FF"/>
<path d="M105.816 138.426V131.082H110.761V150.118H105.816V142.316H98.6671V150.118H93.7217V131.082H98.6671V138.426H105.816V138.426Z" fill="#0000FF"/>
<path d="M121.466 135.27V138.449H127.043V142.637H121.466V145.919H127.353V150.107H116.521V131.071H127.353V135.259H121.466V135.27Z" fill="#0000FF"/>
<path d="M148.752 150.118H142.591L137.921 142.798H137.875V150.118H132.929V131.082H140.33C144.094 131.082 146.939 132.872 146.939 136.934C146.939 139.562 145.471 141.834 142.774 142.316L148.752 150.118ZM137.875 139.608H138.357C139.974 139.608 141.787 139.309 141.787 137.233C141.787 135.167 139.974 134.857 138.357 134.857H137.875V139.608Z" fill="#0000FF"/>
<path d="M157.565 135.27V138.449H163.141V142.637H157.565V145.919H163.451V150.107H152.619V131.071H163.451V135.259H157.565V135.27Z" fill="#0000FF"/>
<path d="M78.874 169.567C77.4168 172.252 75.0187 173.285 72.5747 173.285C70.1306 173.285 66.9064 172.172 66.9064 168.167C66.9064 164.071 70.3028 161.111 73.6991 161.111C74.7318 161.111 75.8219 161.283 76.7283 161.879L77.0496 161.214H78.5757L78.8396 165.895L77.2103 166.044C76.7398 164.232 75.9366 163.107 74.4908 163.107C72.3911 163.107 71.0371 165.769 71.0371 168.248C71.0371 170.221 71.9436 171.173 73.3779 171.173C74.7203 171.173 76.2005 170.519 77.4053 168.638L78.874 169.567Z" fill="#0000FF"/>
<path d="M80.9968 161.466C82.477 161.397 83.5556 161.26 84.5424 160.915H85.9078L84.2899 169.601C84.2211 170.015 84.1752 170.324 84.1752 170.554C84.1752 170.841 84.2899 171.036 84.6112 171.036C84.8751 171.036 85.139 170.944 85.6095 170.519L86.5159 171.552C85.2997 172.768 83.9342 173.285 82.7294 173.285C81.1574 173.285 80.4575 172.562 80.4575 171.529C80.4575 171.242 80.4919 170.932 80.6526 170.095L81.7771 164.369C81.8459 164.059 81.8803 163.795 81.8803 163.646C81.8803 163.302 81.7082 163.073 80.7444 163.038L80.9968 161.466Z" fill="#0000FF"/>
<path d="M94.3987 164.633H97.9098L97.0607 169.418C97.0148 169.693 96.9116 170.278 96.9116 170.519C96.9116 170.76 97.0493 170.99 97.3591 170.99C97.5771 170.99 97.9443 170.818 98.2541 170.474L99.1376 171.564C98.1164 172.768 96.6936 173.296 95.4658 173.296C94.6397 173.296 93.848 173.021 93.4005 172.344C92.6546 172.826 91.4269 173.296 90.245 173.296C88.9829 173.296 87.801 172.768 87.801 171.162C87.801 170.405 88.1911 168.856 88.3288 168.259C88.3977 167.949 88.4321 167.651 88.4321 167.364C88.4321 166.928 88.042 166.836 87.5601 166.744L87.8354 165.161C89.1779 165.092 90.2565 164.989 91.2433 164.645H92.494L91.6678 169.177C91.6219 169.51 91.5187 170.037 91.5187 170.278C91.5187 170.692 91.6678 171.001 92.253 171.001C92.5973 171.001 92.8726 170.898 93.2628 170.565L94.3987 164.633Z" fill="#0000FF"/>
<path d="M101.57 164.369C101.639 164.059 101.673 163.795 101.673 163.681C101.673 163.302 101.501 163.084 100.537 163.05L100.813 161.466C102.293 161.397 103.383 161.26 104.358 160.915H105.712L104.852 165.218C105.988 164.461 106.619 164.404 107.124 164.404C109.315 164.404 110.428 165.884 110.428 167.972C110.428 170.703 108.271 173.285 105.598 173.285C104.726 173.285 103.842 172.94 103.28 172.493L102.97 173.067H99.826L101.57 164.369ZM105.735 166.503C104.255 166.503 103.98 170.221 103.98 170.692C103.98 171.047 104.255 171.391 104.645 171.391C105.85 171.391 106.607 169.28 106.607 167.88C106.607 167.249 106.527 166.503 105.735 166.503Z" fill="#0000FF"/>
<path d="M30.2002 175.752L29.397 176.647L24.968 172.677L25.7712 171.782L30.2002 175.752Z" fill="#FF00FF"/>
<path d="M34.8818 183.302L33.3098 182.131L33.5049 179.378L33.4934 179.366L32.105 181.236L30.8428 180.295L34.4458 175.419L36.339 176.819C37.3028 177.53 37.693 178.528 36.9242 179.573C36.4308 180.238 35.6276 180.548 34.8359 180.158L34.8818 183.302ZM34.0786 178.551L34.2048 178.643C34.6179 178.953 35.1457 179.217 35.5358 178.689C35.9259 178.161 35.5243 177.737 35.1113 177.427L34.985 177.335L34.0786 178.551Z" fill="#FF00FF"/>
<path d="M40.6188 181.397L40.0795 182.258L41.5827 183.21L40.8713 184.334L39.3681 183.382L38.8059 184.266L40.3894 185.264L39.678 186.388L36.7635 184.552L39.9992 179.435L42.9137 181.271L42.2023 182.395L40.6188 181.397Z" fill="#FF00FF"/>
<path d="M47.1822 185.436C47.0445 185.092 46.792 184.77 46.4478 184.587C46.1954 184.449 45.7708 184.415 45.6102 184.713C45.4381 185.023 45.7479 185.344 45.9544 185.551L46.2527 185.849C46.8724 186.469 47.251 187.157 46.7806 188.018C46.4937 188.545 46.0692 189.027 45.4495 189.154C44.8414 189.28 44.1988 189.131 43.6596 188.844C42.9826 188.477 42.4548 187.903 42.1105 187.226L43.3039 186.423C43.4874 186.916 43.7628 187.387 44.2333 187.639C44.5545 187.811 44.9906 187.834 45.1971 187.467C45.4036 187.077 44.9332 186.652 44.6808 186.4C43.9464 185.688 43.4989 185.149 44.0497 184.116C44.6349 183.038 45.7823 182.739 46.8494 183.313C47.3887 183.6 47.9509 184.128 48.2837 184.656L47.1822 185.436Z" fill="#FF00FF"/>
<path d="M49.5688 191.598L48.146 190.932L50.6933 185.436L52.1161 186.101L49.5688 191.598Z" fill="#FF00FF"/>
<path d="M56.9009 189.773C56.7173 189.44 56.4304 189.154 56.0747 189.016C55.8108 188.913 55.3863 188.924 55.26 189.234C55.1338 189.567 55.478 189.842 55.6961 190.026L56.0288 190.29C56.7173 190.829 57.1762 191.46 56.8091 192.378C56.591 192.94 56.2239 193.456 55.6272 193.663C55.042 193.858 54.388 193.789 53.8143 193.56C53.1029 193.284 52.5062 192.768 52.0817 192.137L53.1717 191.207C53.4127 191.678 53.7454 192.102 54.2388 192.298C54.5831 192.435 55.0191 192.401 55.1682 192.011C55.3289 191.598 54.8125 191.23 54.5372 191.012C53.7225 190.393 53.2061 189.911 53.6422 188.821C54.0897 187.673 55.2027 187.249 56.3271 187.696C56.9009 187.914 57.5205 188.373 57.9106 188.855L56.9009 189.773Z" fill="#FF00FF"/>
<path d="M60.8365 195.843L59.3334 195.373L60.7562 190.863L59.517 190.473L59.9186 189.2L63.9116 190.45L63.51 191.724L62.2708 191.334L60.8365 195.843Z" fill="#FF00FF"/>
<path d="M65.7016 196.107L65.0476 197.036L63.4182 196.646L67.0785 191.299L68.7537 191.701L69.5684 198.115L67.9391 197.725L67.8014 196.612L65.7016 196.107ZM67.4916 193.319H67.4801L66.4015 195.04L67.6752 195.338L67.4916 193.319Z" fill="#FF00FF"/>
<path d="M72.7927 192.561L74.3532 192.779L76.6825 196.853H76.6939L77.2218 193.193L78.7823 193.411L77.9217 199.4L76.3612 199.182L74.0319 195.097H74.0204L73.4926 198.769L71.9321 198.551L72.7927 192.561Z" fill="#FF00FF"/>
<path d="M85.4373 195.9C85.139 195.453 84.6341 195.189 84.0948 195.155C83.131 195.097 82.4425 195.797 82.3852 196.738C82.3278 197.69 82.9474 198.413 83.9227 198.471C84.4391 198.505 84.9669 198.276 85.3111 197.908L85.2078 199.79C84.68 199.916 84.2899 200.02 83.808 199.997C82.9704 199.951 82.1786 199.584 81.5934 198.976C80.9624 198.333 80.6984 197.53 80.7558 196.635C80.8017 195.809 81.1574 195.028 81.777 194.478C82.4081 193.904 83.2802 193.583 84.1293 193.629C84.6341 193.663 85.0931 193.801 85.5521 194.019L85.4373 195.9Z" fill="#FF00FF"/>
<path d="M89.5107 195.201L89.5222 196.21L91.3007 196.187L91.3236 197.518L89.5451 197.541L89.5566 198.585L91.4269 198.562L91.4498 199.894L88.0076 199.951L87.9158 193.892L91.358 193.835L91.381 195.166L89.5107 195.201Z" fill="#FF00FF"/>
<path d="M100.308 199.171L98.7475 199.354L98.0246 193.353L99.5851 193.158L100.308 199.171Z" fill="#FF00FF"/>
<path d="M105.598 193.766C105.265 193.583 104.875 193.491 104.496 193.56C104.209 193.606 103.865 193.847 103.922 194.179C103.98 194.524 104.427 194.581 104.714 194.627L105.127 194.673C105.999 194.764 106.722 195.063 106.894 196.027C106.997 196.623 106.974 197.254 106.573 197.736C106.183 198.218 105.586 198.494 104.989 198.608C104.244 198.746 103.463 198.62 102.775 198.31L103.211 196.945C103.658 197.22 104.163 197.404 104.691 197.312C105.058 197.243 105.402 196.991 105.334 196.577C105.253 196.141 104.622 196.107 104.267 196.073C103.245 195.969 102.557 195.832 102.35 194.684C102.132 193.479 102.844 192.527 104.037 192.309C104.634 192.194 105.402 192.252 105.988 192.458L105.598 193.766Z" fill="#FF00FF"/>
<path d="M114.318 191.334L114.616 192.298L116.269 191.793L116.659 193.066L115.007 193.571L115.695 195.843L114.192 196.302L112.425 190.508L115.752 189.486L116.142 190.76L114.318 191.334Z" fill="#FF00FF"/>
<path d="M122.82 186.87L124.06 190.037C124.347 190.76 124.599 191.494 124.243 192.252C123.956 192.894 123.279 193.353 122.625 193.606C121.971 193.858 121.157 193.984 120.514 193.709C119.745 193.388 119.424 192.676 119.149 191.953L117.909 188.786L119.378 188.213L120.537 191.185C120.824 191.919 121.191 192.699 122.132 192.332C123.073 191.965 122.809 191.139 122.522 190.416L121.363 187.444L122.82 186.87Z" fill="#FF00FF"/>
<path d="M129.797 190.278L128.374 190.967L126.32 186.71L125.15 187.272L124.565 186.067L128.328 184.243L128.913 185.447L127.743 186.01L129.797 190.278Z" fill="#FF00FF"/>
<path d="M134.455 187.811L133.078 188.58L130.13 183.29L131.506 182.521L134.455 187.811Z" fill="#FF00FF"/>
<path d="M137.519 184.426L139.114 183.416L139.825 184.541L136.899 186.377L133.675 181.259L135.006 180.422L137.519 184.426Z" fill="#FF00FF"/>
<path d="M140.284 178.471L140.881 179.297L142.315 178.253L143.095 179.332L141.661 180.376L142.269 181.225L143.784 180.123L144.564 181.202L141.764 183.221L138.219 178.31L141.007 176.291L141.787 177.37L140.284 178.471Z" fill="#FF00FF"/>
<path d="M149.682 172.849L150.473 173.755L145.976 177.645L145.184 176.738L149.682 172.849Z" fill="#FF00FF"/>
<path d="M22.0306 65.3808H23.3616L24.4172 68.1576L25.5302 65.3808H26.8727L27.6529 70.5672H26.299L25.9203 67.5839H25.9089L24.6582 70.5672H24.1189L22.9255 67.5839H22.9141L22.478 70.5672H21.1356L22.0306 65.3808Z" fill="#FF00FF"/>
<path d="M29.879 65.3808H31.9443C33.0573 65.3808 33.8261 65.8971 33.8261 67.0905C33.8261 68.3182 33.1606 68.8575 31.9902 68.8575H31.2215V70.5786H29.8675V65.3808H29.879ZM31.2329 67.7674H31.4624C31.9558 67.7674 32.4377 67.7674 32.4377 67.1364C32.4377 66.4823 31.9902 66.4709 31.4624 66.4709H31.2329V67.7674Z" fill="#FF00FF"/>
<path d="M37.429 69.4312H39.0469V70.5786H36.0865V65.3923H37.4405V69.4312H37.429Z" fill="#FF00FF"/>
<path d="M43.9923 66.7118C43.7399 66.5053 43.4301 66.3676 43.0973 66.3676C42.8449 66.3676 42.5236 66.5167 42.5236 66.8036C42.5236 67.1019 42.8908 67.2281 43.1203 67.297L43.4645 67.4003C44.1874 67.6183 44.7496 67.974 44.7496 68.8116C44.7496 69.3279 44.6234 69.8557 44.2103 70.2115C43.8087 70.5557 43.258 70.7048 42.7416 70.7048C42.0876 70.7048 41.4451 70.4868 40.9172 70.1082L41.4909 69.0181C41.8237 69.3165 42.2253 69.5574 42.6843 69.5574C43.0056 69.5574 43.3383 69.3968 43.3383 69.0296C43.3383 68.651 42.8105 68.5247 42.5236 68.4329C41.6745 68.192 41.1238 67.974 41.1238 66.9642C41.1238 65.9086 41.8696 65.2201 42.9138 65.2201C43.4416 65.2201 44.0727 65.3808 44.5431 65.6447L43.9923 66.7118Z" fill="#FF00FF"/>
<path d="M134.467 69.4312V70.5786H130.302L132.424 68.2723C132.723 67.9396 133.021 67.4691 133.021 66.9987C133.021 66.6659 132.792 66.3217 132.424 66.3217C132.057 66.3217 131.862 66.6085 131.862 66.9528C131.862 67.0216 131.874 67.1019 131.885 67.1708H130.405C130.451 65.9775 131.208 65.1743 132.424 65.1743C133.514 65.1743 134.432 65.8857 134.432 67.0216C134.432 67.7674 134.123 68.2035 133.595 68.6854L132.792 69.4312H134.467V69.4312Z" fill="#FF00FF"/>
<path d="M141.007 67.974C141.007 69.3279 140.353 70.7737 138.804 70.7737C137.255 70.7737 136.601 69.3279 136.601 67.974C136.601 66.62 137.267 65.1743 138.804 65.1743C140.342 65.1743 141.007 66.6315 141.007 67.974ZM137.944 67.974C137.944 68.4788 138.104 69.5918 138.804 69.5918C139.504 69.5918 139.665 68.4788 139.665 67.974C139.665 67.4691 139.504 66.3676 138.804 66.3676C138.104 66.3676 137.944 67.4691 137.944 67.974Z" fill="#FF00FF"/>
<path d="M143.922 66.5282V65.3808H146.01V70.5672H144.667V66.5167H143.922V66.5282Z" fill="#FF00FF"/>
<path d="M149.682 66.5282V65.3808H153.939L150.955 70.5672H149.475L151.839 66.5167H149.682V66.5282Z" fill="#FF00FF"/>
<path fill-rule="evenodd" clip-rule="evenodd" d="M93.6299 4.2689H89.6024L88.2944 0.470925C88.2026 0.184069 87.9502 -0.0109937 87.6289 0.000480582C87.3305 0.000480582 87.0666 0.195543 86.9748 0.482399L85.7356 4.2689H81.8229C81.5246 4.2689 81.2492 4.46397 81.1574 4.75082C81.0656 5.03768 81.1689 5.34748 81.4098 5.5196L84.6685 7.8374L83.4867 11.5436C83.3949 11.8304 83.4981 12.1402 83.7391 12.3124C83.8653 12.4041 84.003 12.45 84.1522 12.45C84.2899 12.45 84.439 12.4042 84.5538 12.3238L87.7551 10.0749L90.8302 12.2779C91.0712 12.45 91.4039 12.45 91.6449 12.2779C91.8858 12.1058 91.9891 11.796 91.9088 11.5092L90.7843 7.86035L94.043 5.53107C94.284 5.35896 94.3872 5.03768 94.2954 4.7623C94.1922 4.46397 93.9282 4.2689 93.6299 4.2689Z" fill="#FF00FF"/>
<path fill-rule="evenodd" clip-rule="evenodd" d="M76.3727 5.78351L74.4221 6.49491L73.1255 4.88852C73.0337 4.77377 72.873 4.7164 72.7239 4.77377C72.5747 4.83114 72.4829 4.96884 72.4944 5.118L72.5632 7.17189L70.67 7.86035C70.5208 7.91772 70.429 8.05541 70.429 8.20458C70.429 8.35374 70.5438 8.49143 70.6929 8.53733L72.678 9.08809L72.7583 11.0961C72.7698 11.2453 72.873 11.3829 73.0222 11.4174C73.1025 11.4403 73.1714 11.4403 73.2402 11.4059C73.3091 11.3829 73.3664 11.337 73.4123 11.2682L74.5712 9.61591L76.453 10.1437C76.6022 10.1896 76.7628 10.1323 76.8431 10.006C76.9349 9.87982 76.9235 9.7077 76.8317 9.59296L75.6154 8.02099L76.7858 6.3228C76.8776 6.19658 76.8661 6.02447 76.7743 5.89825C76.6825 5.78351 76.5104 5.73761 76.3727 5.78351Z" fill="#FF00FF"/>
<path fill-rule="evenodd" clip-rule="evenodd" d="M104.794 7.87182L102.844 7.16042L102.878 5.09505C102.878 4.94589 102.798 4.79672 102.637 4.75082C102.488 4.69345 102.327 4.75082 102.236 4.86557L100.962 6.48344L99.0687 5.79498C98.9196 5.73761 98.7589 5.78351 98.6671 5.90972C98.5753 6.03594 98.5639 6.19658 98.6557 6.33427L99.826 8.03246L98.5983 9.61591C98.5065 9.74213 98.495 9.90277 98.5868 10.029C98.6327 10.0978 98.6901 10.1437 98.7589 10.1667C98.8278 10.1896 98.9081 10.2011 98.9769 10.1781L100.928 9.65033L102.029 11.2567C102.121 11.3829 102.27 11.4403 102.419 11.4059C102.568 11.36 102.672 11.2338 102.683 11.0846L102.786 9.12252L104.771 8.57175C104.921 8.52585 105.024 8.39964 105.035 8.239C105.035 8.06688 104.932 7.92919 104.794 7.87182Z" fill="#FF00FF"/>
<path fill-rule="evenodd" clip-rule="evenodd" d="M110.795 12.6795L109.923 11.9452L110.336 10.8896C110.371 10.8092 110.348 10.7174 110.279 10.6715C110.21 10.6142 110.118 10.6142 110.05 10.6601L109.074 11.2453L108.225 10.5339C108.156 10.4765 108.065 10.4765 107.996 10.5224C107.927 10.5683 107.892 10.6486 107.915 10.7404L108.202 11.8304L107.273 12.4156C107.204 12.4615 107.17 12.5419 107.193 12.6336C107.204 12.6795 107.227 12.714 107.261 12.7369C107.296 12.7599 107.33 12.7828 107.376 12.7828L108.478 12.8746L108.742 13.9073C108.764 13.9876 108.833 14.045 108.914 14.0565C108.994 14.0679 109.074 14.0106 109.109 13.9417L109.533 12.9434L110.669 13.0352C110.75 13.0467 110.83 12.9893 110.864 12.909C110.876 12.8287 110.853 12.7369 110.795 12.6795Z" fill="#FF00FF"/>
<path fill-rule="evenodd" clip-rule="evenodd" d="M67.2047 10.5339L66.3327 11.2682L65.3573 10.683C65.2885 10.6371 65.1967 10.6371 65.1279 10.706C65.059 10.7633 65.0361 10.8551 65.0705 10.924L65.495 11.9681L64.6459 12.6795C64.5771 12.7369 64.5541 12.8287 64.5886 12.909C64.623 12.9893 64.7033 13.0352 64.7836 13.0352L65.9081 12.9434L66.3212 13.9647C66.3556 14.045 66.4359 14.0909 66.5162 14.0794C66.5621 14.0794 66.5966 14.0564 66.631 14.0335C66.6654 14.0106 66.6884 13.9761 66.6998 13.9302L66.9867 12.8631L68.0538 12.7828C68.1341 12.7713 68.2144 12.714 68.2259 12.6336C68.2488 12.5533 68.2144 12.4615 68.1456 12.4156L67.2391 11.8304L67.526 10.7289C67.5489 10.6486 67.5145 10.5568 67.4457 10.5109C67.3653 10.4765 67.2621 10.4765 67.2047 10.5339Z" fill="#FF00FF"/>
</svg>
