<svg width="200" height="116" viewBox="0 0 200 116" fill="none" xmlns="http://www.w3.org/2000/svg">
<path fill-rule="evenodd" clip-rule="evenodd" d="M98.3254 16.9986C97.8797 17.4274 97.2575 17.6965 96.7362 18.1925C96.5512 18.3691 95.6768 18.6466 95.1471 18.8568C93.9195 19.3361 92.4144 19.9835 90.9093 20.3114C89.9088 20.2694 88.8998 19.8237 88.0001 20.0508C87.0416 20.2946 86.9743 21.1859 86.411 21.7744C86.411 22.548 86.2008 23.2375 86.0158 23.8933C85.8476 24.4903 85.6963 25.1293 85.3515 25.617C85.587 26.2644 85.0488 26.7773 84.9563 27.2061C84.7545 28.1226 84.7798 29.098 84.2921 29.8547C84.1492 30.3508 84.62 30.2331 84.5528 30.6451C84.3846 31.0487 84.3005 31.5448 84.1576 31.9652C84.5191 33.3273 84.2837 34.866 84.8218 35.9338C84.8891 36.0684 85.032 36.102 85.0825 36.1945C85.402 36.741 85.6879 37.3969 86.1419 37.9182C86.9827 38.0107 87.4956 38.3554 88.3953 38.0527C88.9755 37.8509 89.6061 37.3296 90.1106 36.8587C90.6739 36.3458 91.1196 35.7573 91.4307 35.2696C91.17 34.3026 91.2793 33.1255 91.4307 31.8306C91.5316 30.9646 91.6156 30.1574 91.9604 29.4511C91.8931 27.7022 92.4228 26.5587 92.4901 24.9527C93.0114 24.3221 93.1543 23.3215 93.5495 22.5732C94.1045 22.3798 94.4408 21.9594 95.1387 21.909C95.887 22.136 96.2738 22.7162 96.7278 23.2291C96.6942 24.608 96.341 25.6086 96.0636 26.8025C95.929 27.3911 95.8029 28.0469 95.6684 28.6523C95.3909 29.8799 94.9705 31.158 95.0041 32.621C96.1645 32.2679 96.3663 31.1916 97.5182 31.0319C99.4689 30.7712 100.15 32.5033 100.823 34.0756C101.05 36.1524 100.217 38.5404 101.092 40.0286C101.31 39.9698 101.781 39.8689 101.882 39.6334C101.907 39.5746 101.84 39.4148 101.882 39.3728C102.294 38.9103 102.706 38.4479 103.076 37.7836C103.253 37.4641 103.463 37.1446 103.471 36.8587C103.505 36.0852 102.883 35.3537 102.546 34.4792C102.344 33.9663 102.462 32.9153 102.546 32.0997C102.748 30.0985 103.219 28.9887 104.396 27.7358C105.464 27.3743 106.742 26.4242 108.23 26.4158C108.575 26.4158 108.903 26.6007 109.29 26.6764C109.761 26.7689 110.173 26.6848 110.484 26.8109C110.828 26.9539 111.963 27.862 112.073 28.4001C112.233 29.1736 111.77 29.9472 111.409 30.519C111.308 30.6787 111.181 31.0066 111.139 31.0487C111.055 31.1328 110.828 31.0991 110.744 31.1832C110.694 31.2337 110.669 31.4102 110.61 31.4523C110.425 31.5784 110.088 31.612 109.945 31.7129C109.542 32.0072 109.374 32.3099 109.021 32.5033C108.264 32.9405 107.389 33.2516 106.507 33.5627C106.364 35.5134 108.306 35.3789 109.281 36.2113C110.475 35.8582 111.392 35.2359 112.19 34.496C112.409 33.7897 112.804 33.1507 113.115 32.5117C113.41 31.8895 113.645 31.2252 114.04 30.6619C114.671 30.6871 115.495 30.5274 115.764 30.931C116.117 32.8564 114.166 33.5459 114.309 35.69C114.023 35.875 113.721 36.144 113.519 36.4804C113.334 36.7746 113.166 37.0437 112.855 37.4053C112.19 38.1872 111.266 39.0701 110.475 39.9193C109.214 40.2809 108.365 39.9866 107.431 39.6587C107.078 39.5325 106.649 39.5325 106.372 39.398C105.775 39.0953 105.413 38.4311 104.783 38.3386C104.203 38.4647 104.186 39.1542 103.858 39.5325C103.278 39.8773 103.017 40.6508 102.538 41.2562C101.705 42.2988 100.831 42.9715 98.9644 42.3156C98.317 41.7355 98.0227 41.1301 97.6443 40.0707C97.5518 39.8184 97.4005 39.4905 97.3836 39.2719C97.3248 38.5488 97.8209 37.792 97.5182 37.0269C97.7957 35.9254 98.2161 34.3026 97.9134 33.0582C96.753 32.7471 96.341 34.1849 95.3993 34.5128C95.5086 34.8912 95.1387 35.1266 95.0041 35.4377C94.9201 35.6311 94.9537 35.7573 94.8696 35.9675C94.7183 36.3458 94.5333 36.8755 94.4744 37.6911C94.3987 38.7926 94.6342 39.7343 94.609 40.8694C94.6846 41.4328 94.2558 41.4832 93.9447 41.6682C93.9699 42.2652 94.1045 42.3325 93.8102 42.7276C93.1543 42.6352 92.633 42.3997 92.4901 41.8027C92.2126 41.3739 91.6577 41.2226 91.4307 40.7433C91.2036 40.3902 91.4138 39.6082 91.17 39.2887C89.9844 39.5914 89.2109 40.6845 87.8656 40.7433C87.277 40.7685 86.7725 40.3986 86.0158 40.4743C85.3263 39.768 84.5528 40.0202 83.7708 39.5494C83.7203 39.5157 83.6867 39.3055 83.6363 39.2803C82.6105 38.8178 81.9799 36.7662 81.5174 35.4462C81.3997 35.1098 81.1727 34.7903 81.1222 34.5213C80.8616 33.2264 81.1222 31.9231 81.1222 30.5526C81.1222 30.107 80.9961 29.6445 80.9877 29.2325C80.9456 26.8362 81.6351 24.835 82.4423 23.414C82.5012 21.9762 83.0561 21.0261 83.3672 19.8406C83.3504 19.2183 82.5768 19.2604 82.0471 19.0502C81.6099 18.8736 81.1054 18.5793 80.5925 18.5205C80.0123 18.4616 79.2388 18.5457 78.6082 18.655C78.0869 18.7391 77.4142 18.7895 77.1535 19.1847C76.9518 19.8994 77.7505 20.2694 78.0784 20.9C78.1709 21.085 78.1457 21.2868 78.213 21.4297C78.5073 22.1192 78.894 23.2963 78.7427 24.7341C78.5325 24.9191 78.4064 25.1882 78.3475 25.5245C77.801 25.7767 77.2797 26.0458 76.8929 26.4494C75.7242 26.4578 74.8077 26.7016 73.7146 26.4494C72.6804 25.7347 71.293 24.9948 70.8054 23.8008C70.5531 23.187 70.7381 22.7498 70.9399 21.951C71.0408 21.5642 71.0828 21.0766 71.2005 20.757C71.436 20.1517 71.9825 19.6724 72.1254 19.0334C71.9657 18.3355 71.1921 18.47 70.5363 18.3691C69.8805 18.2682 69.2414 18.1673 68.552 18.2346C67.9466 18.2514 67.0637 19.0838 66.5676 18.3691C66.5004 17.5031 67.2739 17.4947 67.8877 17.3097C68.5604 16.8136 69.9057 16.2839 70.9315 16.9145C71.2005 17.0743 71.6462 16.9734 72.1254 16.9145C72.7729 16.9313 72.6299 17.7301 73.3194 17.7049C74.1602 17.6124 74.732 17.2676 75.3037 16.9145C76.2371 16.9229 76.5902 16.3512 77.2881 16.1241C77.7758 15.9812 78.255 16.2587 78.7427 16.2587C79.5667 16.2587 80.4243 16.183 81.3913 16.3932C81.8621 16.4941 82.291 16.6959 82.7114 16.7884C83.7035 17.007 84.7209 17.0322 85.4861 17.5872C86.5623 17.5703 87.4536 18.0076 88.3953 18.1169C89.5556 18.2514 90.7916 18.0664 92.2294 18.2514C92.9021 18.0412 93.4066 17.6628 94.2138 17.5872C95.2143 17.1331 96.0888 16.553 97.123 16.1325C97.6695 15.7962 98.0815 15.3254 98.5776 14.9386C98.6112 14.7956 98.8383 14.8461 98.8383 14.6695C99.5698 14.72 99.8641 15.1067 99.8977 15.4599C99.9818 16.1746 98.6197 16.5025 98.3254 16.9986ZM75.8335 22.4219C75.4803 22.1108 75.371 21.5558 74.9086 21.3624C74.6647 20.9 74.4041 20.4544 73.8491 20.303C73.765 20.303 73.6726 20.303 73.5885 20.303C72.8317 21.312 72.1759 23.2963 72.9242 24.6669C73.4624 25.1713 74.6647 25.39 75.4383 24.9359C75.9007 24.4314 75.8587 23.4224 75.8335 22.4219ZM107.061 28.9046C106.532 29.5268 105.893 30.0229 105.741 31.0234C105.935 31.1328 105.935 31.4523 106.002 31.6877C106.153 31.7045 106.38 31.6625 106.397 31.8222C106.977 31.8306 106.944 31.2252 107.457 31.158C108.541 30.7039 109.365 29.9808 109.441 28.5094C108.617 27.8283 107.885 28.7953 107.061 28.9046Z" fill="#383F48"/>
<path fill-rule="evenodd" clip-rule="evenodd" d="M146.496 50.4716C145.933 50.7995 145.924 51.5394 145.706 52.3214C145.47 53.1538 145.016 54.4234 144.646 55.3652C145.184 56.6684 144.394 57.8119 144.251 58.9386C144.15 59.687 144.125 60.8725 144.116 61.5872C144.116 61.8731 144.259 62.1253 144.251 62.3776C144.217 63.2016 144.049 63.9667 144.116 64.6226C144.15 64.9337 144.318 65.1943 144.377 65.4129C144.427 65.5727 144.327 65.7829 144.377 65.9426C144.402 66.0183 144.621 66.1529 144.638 66.2033C144.814 66.6826 144.814 67.3636 145.302 67.6579C147.429 67.5822 148.178 66.1276 149.54 65.2784C149.842 64.4796 150.263 63.7902 150.599 63.025C150.599 62.4112 150.061 61.8983 149.935 61.3097C149.859 60.9566 149.994 60.4521 149.935 59.9897C149.842 59.1741 149.632 58.9639 149.8 57.8708C149.926 57.0552 150.221 55.7351 150.591 55.0961C150.944 54.4991 152.037 53.4733 152.71 52.8427C152.886 52.6829 153.147 52.5232 153.374 52.313C153.592 52.1028 153.895 52.0691 154.299 51.9178C154.946 51.6655 156.603 51.2956 157.603 51.3881C158.301 51.4553 158.923 51.7496 159.587 52.0523C159.554 52.3887 159.941 52.6577 159.983 52.9772C160.058 53.4733 159.739 54.1796 159.318 55.0961C159.024 55.7351 158.772 56.4582 158.393 56.8198C158.284 56.9207 158.124 56.8618 157.998 56.9543C157.729 57.1561 157.309 57.5933 156.678 57.6185C155.955 57.6438 154.904 57.3411 154.299 56.6936C154.492 55.8444 155.552 56.0546 156.148 55.7687C156.998 55.3567 157.418 54.7934 157.738 53.9189C157.569 53.6415 157.418 53.364 157.208 53.1202C156.804 53.1958 156.628 53.0193 156.283 53.1202C156.039 53.1958 156.081 53.4144 155.888 53.5153C154.551 54.23 153.727 55.609 153.113 57.2234C152.979 59.2161 153.55 60.4941 154.433 61.4611C156.031 62.3944 158.511 61.8983 159.856 60.9314C161.042 60.0906 161.74 58.678 162.766 57.8876C162.698 57.442 163.119 57.0468 163.295 56.6936C163.716 55.8528 164.119 54.8438 165.675 54.97C166.415 54.9363 166.045 56.0126 166.339 56.4246C166.911 56.3825 166.844 55.6931 167.13 55.3652C168.324 54.9784 169.282 53.2042 170.838 52.9856C172.654 52.725 173.663 53.6919 174.411 55.1045C174.05 57.2738 173.167 59.2581 172.427 61.3266C172.149 62.1085 171.939 63.3613 172.292 64.3703C173.595 64.261 173.688 62.9409 174.537 62.386C174.907 62.0497 175.319 61.7638 175.597 61.3266C175.916 60.9902 176.219 60.368 176.791 60.6623C177.295 61.0407 176.631 61.3518 176.522 61.8563C176.303 63.3613 175.546 64.3199 174.798 65.2952C174.117 65.6315 173.52 66.052 172.814 66.3547C172.284 66.3547 171.754 66.3547 171.224 66.3547C170.644 65.9595 169.972 65.6652 169.635 65.0346C169.282 62.8905 169.585 60.4857 170.165 58.4173C170.442 57.4252 171.182 56.2816 170.56 55.3736C168.517 55.6258 167.912 57.3158 166.987 58.678C167.088 59.6113 166.524 60.0485 166.457 60.7968C166.314 62.4533 167.727 63.7229 167.247 65.4297C166.482 65.7997 165.448 65.4129 164.733 65.2952C164.523 64.858 164.01 64.5469 163.808 63.9751C163.489 63.0671 163.792 61.8815 163.279 61.0659C162.421 61.15 162.034 62.2178 161.294 62.7812C161.185 62.8653 161.008 62.8484 160.899 62.9157C160.781 62.983 160.723 63.1259 160.638 63.1848C160.42 63.3277 160.184 63.3277 159.974 63.4454C159.545 63.6977 159.192 64.034 158.78 64.2358C158.335 64.4628 157.788 64.5553 157.326 64.7655C156.788 65.0093 156.409 65.3709 156.006 65.4297C154.753 65.6147 153.449 65.0598 152.298 64.5049C151.869 64.7655 151.843 65.3289 151.633 65.8249C151.608 65.8922 151.381 66.0435 151.373 66.094C151.289 66.3715 151.28 66.8507 151.104 67.1534C150.885 67.5402 150.179 68.0867 149.783 68.6081C149.708 68.7005 149.733 68.9023 149.649 69.0032C149.615 69.0453 149.422 68.9612 149.38 69.0032C149.304 69.0789 149.279 69.3732 149.119 69.533C148.749 69.8777 148.211 70.172 147.799 70.4578C146.874 71.0885 146.311 71.5593 144.89 71.2482C144.268 71.1137 143.149 70.9119 142.51 70.4578C141.897 70.0122 141.737 69.3396 141.19 68.6081C139.08 68.381 137.709 67.4141 136.557 66.2285C136.339 65.4045 135.994 64.8496 135.893 63.58C135.826 62.7475 135.801 61.9404 135.759 60.7968C135.742 60.4017 135.616 59.9224 135.624 59.6029C135.633 59.317 135.86 58.9639 135.885 58.678C135.927 58.2492 135.834 57.8456 135.885 57.484C135.918 57.2738 136.103 57.0384 136.145 56.8198C136.204 56.5255 136.095 56.1807 136.145 55.8949C136.229 55.4408 136.473 54.9952 136.541 54.5748C136.625 54.0619 136.591 53.4817 136.675 52.9856C136.759 52.4727 137.003 52.0271 136.944 51.531C136.49 51.5394 136.364 52.0523 136.154 52.3214C135.557 53.0865 134.8 53.9442 134.169 54.8354C134.186 56.3069 134.085 57.5261 133.64 58.8041C133.615 58.8714 133.388 59.0227 133.379 59.0648C133.278 59.3927 133.312 59.4347 133.118 59.729C132.849 60.1242 132.219 60.4941 131.664 60.923C131.622 60.9566 131.571 61.1752 131.529 61.1836C130.394 61.6965 129.427 62.1421 128.351 61.7133C127.62 61.419 126.905 61.1079 126.232 60.6539C125.761 60.0653 125.568 59.1993 125.038 58.6696C124.374 58.7032 124.122 59.4936 123.718 59.9897C123.34 60.4521 122.81 60.8473 122.524 61.3097C122.423 61.4779 122.482 61.6545 122.39 61.8395C122.247 62.1169 122.146 62.3944 121.994 63.0334C121.936 63.2941 121.784 63.5884 121.734 63.8238C121.599 64.4208 121.616 65.1018 121.473 65.6736C121.406 65.9342 121.162 66.2033 121.078 66.464C120.809 67.2711 120.615 68.3138 120.288 69.2387C120.195 69.5077 120.01 69.76 119.892 70.029C119.632 70.6344 119.464 71.1389 119.228 71.7527C119.026 72.2824 118.875 72.5935 118.564 73.0728C118.446 73.2578 118.413 73.4343 118.303 73.6025C118.085 73.922 117.74 74.2163 117.513 74.5274C116.605 75.7634 115.974 76.5706 114.469 77.3021C113.939 77.5628 113.342 77.815 112.754 77.9664C111.4 77.2517 110.122 76.579 110.374 74.5274C110.442 73.9641 110.803 73.5352 111.165 72.9383C111.308 72.7028 111.392 72.3917 111.56 72.1479C111.694 71.9545 111.947 71.82 112.09 71.6182C112.417 71.1641 112.661 70.6344 113.014 70.1636C113.805 69.1041 114.789 68.1624 115.789 67.1198C115.949 66.9516 116.176 66.7582 116.319 66.5901C116.512 66.3631 116.554 66.0099 116.714 65.7997C117.017 65.4129 117.513 65.0598 117.908 64.6058C118.463 63.9667 119.253 62.7391 118.967 61.562C117.933 61.7133 117.656 62.6382 116.714 62.8821C116.083 62.983 115.806 62.7307 115.259 62.7475C114.831 62.9746 114.94 63.7565 114.73 64.2022C114.368 64.6142 114.015 65.1439 113.536 65.6568C113.166 66.0604 112.712 66.6321 112.216 66.8507C111.871 66.9937 111.257 67.0105 110.761 67.1114C110.265 67.2207 109.811 67.4225 109.441 67.372C108.995 67.3216 108.525 66.9432 107.986 66.5817C107.179 66.0351 106.792 65.7493 106.263 65.1271C105.884 63.6977 105.75 62.3608 105.868 60.8893C105.918 60.2671 105.876 59.5861 106.002 59.0395C106.12 58.4846 106.532 57.9212 106.666 57.3159C106.801 56.7021 107.053 56.0967 106.532 55.5922C105.615 55.5165 105.598 56.3321 105.077 56.6516C104.379 57.5849 103.454 58.2912 102.302 58.7705C101.958 60.099 101.731 61.5452 101.512 63.0082C100.839 64.5553 99.1157 65.6988 97.0137 65.5222C95.8365 65.4213 94.9285 64.7487 93.9699 64.4628C92.7591 64.8916 92.448 66.2033 91.3213 66.7078C90.6235 67.6411 89.5724 68.2213 88.6728 68.9612C87.7731 68.8098 86.9575 69.4825 86.0242 69.6254C84.1155 69.9029 82.4759 69.1882 81.2567 68.4315C80.4327 67.2711 79.6424 66.0772 79.1379 64.5973C78.9949 62.3608 79.4574 60.7043 79.5331 59.0395C79.1127 58.2492 78.0532 58.5434 77.2881 58.2492C76.5145 57.9465 75.7578 57.2822 75.5644 56.2648C77.0527 55.9117 77.9103 57.0972 79.2724 56.7945C80.727 56.4666 80.5 54.7934 81.3913 53.7508C81.5678 52.498 82.0303 51.5646 82.4507 50.5725C82.8459 49.6476 83.4429 48.7479 83.5101 47.5287C83.4261 47.0831 82.6861 47.3017 82.4507 46.999C81.8874 47.0326 81.736 46.6543 81.1306 46.7383C80.8952 47.2512 81.0213 47.8062 80.87 48.3275C80.8447 48.3948 80.6177 48.5461 80.6009 48.5882C80.5673 48.6975 80.6514 48.8824 80.6009 48.9833C80.5168 49.1515 80.2309 49.286 80.0712 49.5131C79.9367 49.7064 79.9198 50.026 79.8105 50.1773C79.5078 50.5893 79.0958 51.0686 78.8856 51.2367C78.7343 51.3544 78.3307 51.4301 77.9607 51.6319C77.7085 51.7749 77.5403 52.0523 77.2965 52.1616C77.162 52.2205 76.8424 52.2289 76.6322 52.2962C76.2539 52.4139 75.4215 52.8763 74.917 52.9604C73.0588 53.2547 71.8732 52.6745 70.6792 52.17C70.3345 51.6319 69.8468 51.2367 69.3592 50.85C69.1321 49.7737 68.552 49.2272 68.6949 48.2014C68.779 47.6212 69.1153 47.4699 69.4853 47.0074C70.1243 46.2086 70.5111 45.7714 71.6041 45.2921C72.5038 44.897 73.95 44.7877 74.917 44.2327C75.6064 44.2663 76.2371 44.2327 76.7668 44.0982C76.565 42.9294 75.2617 42.8706 74.7824 41.9793C73.5969 41.7103 72.6384 41.2142 71.6041 40.7854C70.3429 40.5583 68.9556 41.2562 68.1652 40.6508C68.2156 39.8604 69.1658 39.9782 69.4853 39.4569C70.4774 39.3307 71.8312 39.2046 72.7981 39.4569C73.6389 39.8941 74.547 40.264 75.3122 40.7769C76.1362 41.1889 76.7247 41.8364 77.5571 42.2316C77.7001 42.2736 77.5992 42.5258 77.6917 42.6267C77.8262 42.7781 78.1709 42.7949 78.3559 43.0219C78.667 43.4255 79.1042 44.1066 79.676 44.342C80.2562 44.5774 81.6351 44.5606 82.8543 44.7372C83.7035 44.8633 84.5443 45.1828 85.3683 45.2669C85.814 45.309 86.3689 45.1997 86.823 45.2669C87.4284 45.351 88.0758 45.6705 88.6728 45.7966C89.0427 45.8723 89.4043 45.8555 89.7322 45.9312C90.4133 46.0741 91.4727 46.4441 92.3808 46.5954C92.7676 46.6627 93.0787 46.6627 93.4402 46.7299C95.4414 47.0831 97.9302 46.4441 99.6623 46.0657C100.125 45.9984 100.36 45.7041 100.722 45.536C101.621 45.5444 102.513 45.0231 103.37 44.7372C104.194 44.4681 105.052 43.9889 105.615 45.0063C105.422 46.3095 103.69 46.0825 102.967 46.8561C101.546 46.9822 100.453 47.4278 99.5277 48.05C98.9728 48.0837 98.9055 47.8398 98.4683 48.05C95.5927 49.0674 91.8006 48.4957 88.1515 48.5797C87.1677 49.0338 86.7725 50.1689 86.3017 51.0938C85.8392 52.0019 85.259 53.0193 85.1077 54.1376C85.2002 54.6168 86.0746 54.3225 86.5623 54.3982C87.5713 54.3478 88.6391 54.2216 89.6061 54.5327C90.1778 54.7177 90.4385 54.7261 90.531 55.197C90.6739 55.9033 90.2703 55.9874 89.8667 56.1219C89.4631 56.2564 89.1268 55.9958 88.6728 55.9874C88.2776 55.9874 87.689 56.1303 87.3527 56.248C85.814 56.7945 83.6867 57.7867 83.115 58.3669C82.7198 60.8557 82.1564 63.7481 82.9804 66.0436C83.3083 66.6489 84.1071 66.691 84.8302 66.8339C85.5365 66.9769 86.4866 67.2039 87.2097 67.0946C87.7983 67.0105 88.4626 66.5733 88.925 66.3042C89.5052 65.9679 90.0433 65.682 90.2451 65.2448C91.1784 64.5889 92.0108 63.8322 92.6246 62.8653C92.5321 61.3602 92.818 60.0821 93.1543 58.8966C93.3561 58.1987 93.5411 57.4252 94.0792 57.0468C95.3993 56.9207 95.9374 57.5681 96.4588 58.2408C96.4167 60.0737 96.0888 61.8142 97.123 63.0082C97.5854 63.4118 97.7368 62.6466 98.317 62.7475C98.6365 62.5373 99.0317 62.4028 99.2419 62.0833C99.553 61.377 99.1998 60.0065 99.5025 59.3086C99.0653 58.2407 97.0557 57.5849 96.5933 56.2648C95.8534 54.1628 97.0389 51.7664 99.2419 52.0271C100.823 52.2205 101.285 53.7592 102.017 55.0709C102.067 55.6426 102.117 56.1976 102.412 56.5255C103.892 56.1555 103.9 54.3057 105.06 53.6162C106.532 53.4649 107.364 53.9274 108.365 54.4066C108.55 54.4907 108.718 54.4402 108.894 54.5411C108.953 54.5748 108.979 54.785 109.029 54.8018C109.281 54.9111 109.475 55.0456 109.693 55.3315C109.803 55.4745 110.122 56.8786 110.088 57.5849C110.072 58.0053 109.828 58.4678 109.693 59.0395C109.466 59.9812 109.189 60.9482 109.029 61.9488C108.836 63.2016 108.794 64.7067 109.954 64.858C110.576 64.9421 111.03 64.3031 111.543 63.9331C111.905 63.6724 112.148 63.6304 112.468 63.2688C112.594 63.1259 112.645 62.8232 112.729 62.7391C113.04 62.4448 113.494 62.4701 113.653 62.0749C113.342 60.9902 112.821 59.8635 112.863 58.5014C112.888 57.6438 113.241 56.8282 113.258 55.9874C113.805 55.4156 113.897 54.5411 114.318 53.8685C114.351 53.818 114.562 53.776 114.578 53.734C114.696 53.4649 114.915 53.2715 115.108 52.9436C115.159 52.8511 115.167 52.6493 115.243 52.5484C115.318 52.4391 115.562 52.3971 115.638 52.2878C115.73 52.1616 115.68 52.0103 115.772 51.8926C116.168 51.3629 116.664 50.6229 117.362 50.1773C117.832 49.8662 118.328 49.6055 119.085 49.6476C120.002 50.7575 119.077 52.4811 118.421 53.2211C117.908 54.3814 117.395 55.5501 116.697 56.5255C116.68 57.6017 116.058 58.8461 116.958 59.4347C117.841 59.5272 117.849 58.7368 118.278 58.3753C119.329 57.9465 119.22 56.9375 119.337 55.3315C119.455 53.734 119.909 52.1784 120.262 51.0938C121.347 50.6986 122.533 51.1526 123.172 51.6235C123.811 53.1706 123.331 55.3399 123.567 57.0468C124.265 57.1309 124.475 56.5003 124.761 56.1219C125.055 55.7183 125.232 55.1886 125.551 54.8018C125.652 53.6667 125.938 52.7166 126.745 52.2878C127.233 52.3298 127.914 52.1784 128.2 52.4223C128.973 53.2463 128.444 54.7177 128.595 55.8612C128.679 56.4666 128.948 57.0132 129.125 57.4504C129.326 57.9549 129.343 58.4173 129.789 58.7705C131.016 58.2407 131.815 57.0888 132.034 55.466C131.79 55.0456 131 55.1802 130.579 54.9363C130.201 54.4318 129.696 54.0535 129.385 53.4817C129.318 52.582 129.41 51.8253 129.78 51.3629C131.58 50.7827 132.782 51.8589 133.615 52.6829C134.397 52.3214 134.884 51.531 135.338 50.8331C135.565 50.4716 135.784 50.0344 136.002 49.6392C136.196 49.286 136.499 48.8656 136.532 48.4452C135.683 47.6885 134.388 47.7221 133.228 47.2512C132.723 47.041 132.311 46.6879 131.773 46.4609C131.504 46.3516 131.143 46.3095 130.848 46.2002C130.285 45.9816 129.864 45.7041 129.259 45.536C128.41 45.3005 127.435 45.2081 126.484 45.0063C124.752 44.6363 123.609 44.073 121.456 44.2159C120.851 44.2579 120.035 44.3925 119.337 44.4765C118.623 44.569 117.883 44.5943 117.353 44.7372C116.336 45.0231 115.554 45.9059 114.444 46.3263C113.822 46.7215 113.569 47.4867 112.594 47.5203C112.165 48.1089 111.736 48.689 111.139 49.1095C110.812 49.614 110.669 51.0181 110.08 50.8331C109.189 50.5725 109.945 49.429 110.08 48.8488C110.189 48.3695 110.164 48.1846 110.349 47.7894C110.719 46.9906 111.585 46.4945 111.669 45.805C112.241 45.4855 112.586 44.8129 113.124 44.3504C113.225 44.2579 113.401 44.3084 113.519 44.2159C113.611 44.1486 113.721 43.9132 113.914 43.8207C114.461 43.5601 115.167 43.4087 115.898 43.1565C116.521 42.9463 117.219 42.6436 117.883 42.4922C118.623 42.3241 119.455 42.3156 120.262 42.2316C122.709 41.9793 125.534 41.9709 128.065 42.3661C129.083 42.5258 130.218 42.5343 131.109 42.7613C131.353 42.8201 131.647 43.0724 131.908 43.1565C132.446 43.3414 133.169 43.476 133.757 43.6862C135.019 44.1402 136.726 44.6952 137.995 45.1408C138.474 45.2501 138.399 44.7456 138.525 44.4765C138.651 44.2159 138.819 44.0561 138.92 43.8123C139.038 43.5432 139.071 43.1733 139.181 42.8874C139.282 42.6436 139.509 42.4418 139.576 42.2232C139.719 41.7523 139.694 41.1553 139.837 40.634C139.971 40.1631 140.114 39.6923 140.366 39.3139C140.904 39.1037 141.56 39.0112 142.351 39.0533C142.62 39.4905 143.175 39.6418 143.41 40.1127C143.284 41.2983 142.712 42.2232 142.351 43.1565C141.981 44.1066 141.51 45.0147 141.426 46.2002C142.031 46.6963 143.133 46.6963 144.074 46.8645C144.385 46.7131 144.427 46.3095 144.604 45.9396C145.159 44.7456 145.394 42.7192 145.924 41.3067C146.58 41.2058 146.916 40.8022 147.513 40.6424C148.228 40.7265 148.976 40.7601 149.363 41.1721C149.279 43.518 148.203 44.8549 147.774 46.8645C150.322 47.1251 152.382 46.1077 154.257 45.2753C154.786 45.0399 155.282 44.8801 155.711 44.6111C156.855 43.9048 158.032 42.7361 159.285 41.9625C159.453 41.5505 159.722 41.2562 160.075 41.0376C160.605 39.5998 161.37 38.9103 161.395 36.9344C161.404 36.1356 161.227 35.2107 161.135 34.2858C161.042 33.3777 161.042 32.4024 160.874 31.7718C160.739 31.2673 160.252 30.4265 159.949 29.7874C159.764 29.4007 159.512 28.9718 159.159 28.5935C159.016 28.4337 158.805 28.3917 158.629 28.1983C158.536 28.0974 158.587 27.8956 158.494 27.8031C157.788 27.038 156.426 26.4998 155.451 25.8188C154.021 25.6254 152.71 25.3731 151.347 25.5497C150.65 25.6422 149.926 25.8944 149.229 26.0794C148.539 26.256 147.833 26.3821 147.244 26.6091C146.252 26.9959 145.436 27.5929 144.596 27.9292C144.209 28.1142 144.1 28.5767 143.536 28.5935C143.208 29.0643 142.729 29.3754 142.477 29.9136C141.905 30.1322 141.796 30.8216 141.157 30.973C140.383 31.7802 139.912 32.9069 138.382 32.9573C137.314 32.5453 137.709 31.0487 138.777 30.7039C139.097 30.1826 139.635 29.8799 140.097 29.51C140.223 29.1064 140.366 28.7196 140.492 28.316C140.921 28.2151 141.367 28.131 141.686 27.9208C142.695 27.2313 143.839 26.3317 145.125 25.5413C145.689 25.1966 146.311 24.7677 146.975 24.4819C147.311 24.3389 147.665 24.2296 148.035 24.0867C148.32 23.9774 148.682 23.7588 148.959 23.6915C150.296 23.3384 151.894 23.3384 153.197 23.4224C155.097 23.5486 156.695 24.2128 158.225 24.7425C158.469 25.1461 158.915 25.3984 159.285 25.6674C160.21 26.3569 161.235 27.0464 162.059 28.0469C162.152 28.1563 162.101 28.3412 162.194 28.4421C162.614 28.8962 162.841 29.8463 163.388 30.561C164.153 33.5963 163.825 37.296 162.993 40.0875C162.951 40.5247 162.606 40.676 162.732 41.2814C162.455 41.3655 162.421 41.7103 162.202 41.9457C161.984 42.1727 161.647 43.0387 161.412 43.4003C160.739 44.4177 159.276 45.4855 158.503 46.5786C157.544 46.8561 156.855 47.5371 155.989 48.0332C153.559 49.5046 150.389 50.3118 146.496 50.4716ZM74.2443 46.2423C73.3362 46.4945 72.9831 47.0663 72.3945 47.6969C71.8059 48.3275 71.3099 48.7311 71.3351 49.4122C71.3687 50.4295 72.4618 51.1022 73.4539 51.1358C73.9584 51.1526 74.5975 50.8247 74.774 50.7406C75.0179 50.6313 75.2617 50.6986 75.4383 50.6061C75.8587 50.3959 76.2455 50.0848 76.3632 49.9419C76.6659 49.5887 76.75 48.9833 76.8929 48.6218C77.162 47.9407 77.9271 47.1083 77.4226 46.2423C76.4809 46.0068 74.9086 46.0573 74.2443 46.2423ZM140.408 49.4122C139.879 50.6482 139.937 52.4727 139.483 53.776C139.399 54.3057 139.837 54.3057 139.744 54.8354C139.534 55.1886 139.307 55.5249 139.214 56.0294C139.114 56.5759 139.332 57.3158 139.214 58.0137C139.139 58.4425 138.861 58.8041 138.819 59.2077C138.752 59.7963 138.912 60.6371 138.954 61.4527C139.038 63.2016 139.055 64.5133 140.013 65.0262C140.173 65.4886 140.257 66.0183 140.804 66.0856C141.384 64.5973 141.056 62.983 141.199 61.3181C141.258 60.6203 141.485 59.9224 141.594 59.1993C141.712 58.4257 141.93 57.6606 141.989 57.0804C142.031 56.6264 141.922 56.1976 141.989 55.7603C142.056 55.2727 142.309 54.7682 142.384 54.3057C142.51 53.5742 142.502 52.8595 142.645 52.1869C142.796 51.5058 143.099 50.892 143.04 50.2025C142.258 49.8578 141.628 49.3449 140.408 49.4122ZM132.202 53.7844C132.21 53.0277 132.034 52.4559 131.277 52.4643C130.907 53.1118 131.42 53.8685 132.202 53.7844ZM99.5193 53.6499C98.5019 53.2799 98.1908 54.3309 98.3254 55.4997C98.8383 56.0042 99.1998 56.66 100.175 56.6936C100.453 55.651 100.066 54.2973 99.5193 53.6499ZM112.88 73.5016C112.737 73.7455 112.275 74.0986 112.216 74.4265C112.132 74.9394 112.157 75.2757 112.611 75.7466C113.502 75.6205 113.822 74.931 114.335 74.4265C115.756 72.7617 116.966 70.8867 117.378 68.2045C117.454 68.2045 117.53 68.0952 117.378 68.0699C115.756 69.4321 114.023 71.5677 112.88 73.5016Z" fill="#383F48"/>
<path fill-rule="evenodd" clip-rule="evenodd" d="M175.471 85.0124C175.126 85.8869 175.185 86.7193 174.941 87.5265C174.604 88.6532 173.907 89.5949 173.621 90.7048C172.755 91.3858 171.914 92.0921 170.577 92.2939C167.626 91.5876 165.852 89.6958 164.094 87.7955C163.413 87.8208 163.262 88.3757 162.9 88.7205C162.673 88.8129 162.48 88.9307 162.236 89.1156C162.085 89.2334 161.891 89.536 161.706 89.6454C161.328 89.8724 160.664 90.0658 160.117 90.3096C159.318 90.6627 158.822 91.0075 157.738 91.1C156.687 91.1925 155.14 91.2513 154.164 91.1C153.584 91.0075 153.307 90.7384 152.71 90.5703C151.86 90.8645 151.692 91.8483 151.389 92.6891C150.372 93.6981 149.952 95.3041 148.48 95.8674C147.934 96.0188 147.547 96.3971 146.891 96.3971C146.21 96.3971 145.537 95.9851 145.176 95.5984C144.823 95.1527 144.259 94.9257 144.116 94.2783C143.662 93.9419 143.385 93.3618 143.191 92.8236C142.948 92.1594 142.973 91.5036 142.796 90.8393C142.519 89.7883 141.897 88.8802 141.737 87.9301C141.081 87.9385 141.291 88.8045 141.073 89.2502C140.77 90.8393 140.274 91.9996 140.013 93.7485C139.845 94.8668 139.795 96.0692 139.618 97.053C139.5 97.692 138.626 98.4319 138.559 99.1718C138.147 99.382 137.777 99.6259 137.499 99.9622C136.768 100.029 136.187 100.24 135.515 100.357C135.044 100.114 134.724 100.072 134.321 99.6931C133.968 99.3652 133.127 99.0121 132.732 98.4992C132.648 98.3899 132.69 98.3226 132.597 98.2385C132.421 98.0535 132.101 97.2968 131.933 96.9184C131.689 96.3719 131.521 95.7329 131.269 95.2032C131.033 94.6903 130.739 94.253 130.478 93.7485C130.478 92.8405 130.899 91.8735 131.008 90.8393C131.117 89.7967 130.924 88.7709 130.873 87.661C130.815 86.2989 131.067 84.8443 130.613 83.6923C130.041 84.1548 129.923 84.9788 129.688 85.6767C129.452 86.3662 129.133 87.0724 128.898 87.7955C128.418 89.2249 128.158 90.7721 127.443 92.0333C127.182 92.4957 126.619 92.8489 126.249 93.3534C126.039 93.6392 126.014 94.0176 125.854 94.2783C125.492 94.8584 124.979 94.9846 124.399 95.4722C123.693 95.4722 122.987 95.4722 122.28 95.4722C121.994 95.0266 121.599 94.9425 121.355 94.5473C120.927 93.8579 120.716 92.5882 120.565 91.6381C120.481 91.1504 120.683 90.5703 120.304 90.1835C119.834 90.133 119.657 90.6123 119.379 90.8477C118.581 91.5288 117.53 92.1258 116.731 92.9666C115.638 93.2441 114.713 93.9924 113.157 93.4963C112.502 93.2861 111.198 92.0837 110.778 91.3774C110.433 90.7973 110.29 90.0153 110.114 89.2586C109.929 88.443 109.735 87.5685 109.853 86.7445C109.029 86.8034 108.735 87.392 108.003 87.5349C107.583 87.6862 107.667 88.3421 107.339 88.5943C106.212 88.9222 105.077 89.2502 104.43 90.0489C104.817 91.3354 105.741 92.2099 106.145 93.6224C106.187 95.9935 105.901 97.7088 104.951 99.0457C104.859 99.1802 104.926 99.2055 104.816 99.3064C104.068 100.055 103 100.929 102.042 101.686C100.343 102.14 98.1993 102.972 96.0888 102.745C94.5837 102.586 93.4234 101.686 92.3808 101.156C92.2631 100.702 92.0613 100.332 91.8511 99.9622C91.8931 98.6001 92.1958 97.4818 92.3808 96.2542C92.9694 95.674 93.188 94.8921 93.7009 94.2699C94.4744 93.3281 95.5675 92.6134 96.6101 91.8903C97.6443 91.1756 98.7374 90.4357 99.7884 89.7715C99.8304 89.4351 99.5109 89.3342 99.2587 89.1072C99.0905 88.9559 98.914 88.7373 98.729 88.5775C98.5524 88.4262 98.2581 88.3337 98.0647 88.1823C97.7788 87.9637 97.6359 87.7115 97.2744 87.5181C96.3831 87.0556 94.6342 86.9547 94.6258 85.9289C94.6258 85.1554 95.3321 85.2226 95.9459 84.8695C96.6521 84.4659 97.5771 83.6335 98.4599 83.4149C99.0064 83.0449 99.6875 82.5909 100.31 82.0948C100.596 81.8594 100.814 81.5483 101.108 81.3044C101.42 81.0438 101.773 80.9345 102.033 80.6402C102.151 80.5141 102.286 80.1777 102.429 79.9759C102.487 79.8918 102.647 79.7909 102.689 79.7069C102.756 79.606 102.74 79.4294 102.824 79.3117C103.101 78.8997 103.555 78.5213 103.749 78.1177C103.816 77.9748 103.816 77.63 103.883 77.4535C104.001 77.1424 104.22 76.8144 104.278 76.394C104.497 74.8553 104.27 72.8122 103.749 71.3659C103.379 71.1641 103 70.9624 102.689 70.7017C101.201 70.9035 99.5446 71.0212 98.4515 71.6266C98.0899 71.8284 97.5855 72.0554 97.5266 72.5515C97.0305 72.6356 96.6606 72.829 96.3326 73.0812C95.702 73.6362 95.3573 74.4854 94.4828 74.8049C93.9615 76.0913 93.0955 77.0331 92.4985 78.2438C92.5826 79.8666 92.0613 80.9008 91.5736 81.9519C91.5316 82.8431 91.397 83.1794 91.0439 83.9362C90.9598 85.3992 90.8085 86.7529 90.5142 88.0394C90.0769 89.9733 89.7154 92.9666 89.7238 95.5815C89.7238 96.9268 90.0181 98.289 89.3286 99.4157C89.3875 99.6847 89.1604 99.7015 89.068 99.8109C88.7905 100.13 88.3533 100.315 88.1431 100.87C87.647 101.08 87.3191 101.459 86.823 101.669C86.2848 101.972 86.2092 102.51 85.5029 102.459C84.7882 102.409 84.4098 101.652 84.3089 100.744C84.2417 100.114 84.3678 98.8691 84.4435 97.9695C84.5275 97.0025 84.6116 96.1028 84.7041 95.3209C84.805 94.4969 85.0909 93.757 85.0993 92.9414C85.1077 92.5798 84.9564 91.7642 84.9648 91.4867C84.99 90.5787 85.1077 89.6622 85.2254 88.712C85.3263 87.8712 85.6122 86.9884 85.6206 86.0635C85.6374 84.0959 84.6705 82.347 83.8969 80.9008C83.4345 80.0264 83.1066 79.1267 82.3078 78.5213C82.2069 78.4456 82.0219 78.4709 81.9126 78.3868C81.551 78.1009 81.2736 77.403 80.5925 77.5964C80.231 79.0931 81.0802 79.2949 80.9877 80.5056C80.9372 81.1531 80.5841 81.6071 80.0628 82.0948C79.1967 82.902 78.2887 83.2719 76.7584 82.759C76.2539 82.5909 75.7914 82.4479 75.5644 82.0948C75.2281 81.5483 75.0851 79.8582 75.3038 79.1856C75.6485 78.1177 77.0779 77.7309 77.5487 76.9322C77.0274 75.8223 76.565 74.6872 75.5644 74.0229C75.2869 73.8379 74.5386 73.2914 74.505 72.7028C75.3962 71.3912 76.8593 72.6019 77.5487 73.3671C78.0196 74.477 79.0706 75.1412 79.8021 76.1418C80.685 76.2175 81.509 76.0325 82.1817 76.1418C82.7786 76.2427 83.4092 76.5958 84.0315 76.9322C84.7209 77.3105 84.8891 77.6721 85.4861 78.5213C85.814 78.9838 86.268 79.4378 86.411 79.8414C86.596 80.3543 86.5539 81.0017 86.68 81.5567C86.7893 82.0612 86.9491 82.5236 87.0752 83.0113C87.6638 82.7759 87.7731 82.0528 88.0001 81.4221C88.2103 80.8336 88.3028 80.1441 88.6644 79.6985C88.5214 78.2943 89.1605 77.4535 89.5893 76.5202C89.8331 75.9989 90.0181 75.3851 90.2535 74.931C90.4133 74.6199 90.6907 74.25 90.9178 73.8716C91.1616 73.4428 91.8931 72.8878 92.1117 72.2824C92.9946 71.9041 93.7345 71.2819 94.4912 70.6933C94.6846 70.5419 94.8276 70.2981 95.021 70.1636C95.2143 70.029 95.4834 70.0375 95.6852 69.9029C96.0552 69.6507 96.3495 69.2807 96.7446 69.1126C97.3332 68.8519 98.2497 68.6333 99.1242 68.4483C99.5109 68.3642 99.9986 68.3894 100.444 68.3138C101.428 68.154 101.705 68.0111 102.824 68.3138C103.681 68.5492 103.984 68.6921 104.674 69.1041C105.237 69.4405 106.582 70.1384 106.927 70.5588C107.011 70.6597 106.977 70.7353 107.061 70.8278C107.49 71.2819 107.835 72.6944 107.726 74.0061C107.692 74.3761 107.499 74.7797 107.465 75.2001C107.423 75.7466 107.574 76.0661 107.465 76.6547C107.297 77.5796 106.843 78.5634 106.406 79.4294C106.086 80.0684 105.699 80.657 105.346 81.2792C105.22 81.5062 105.195 81.7921 105.086 81.9434C104.699 82.4732 103.942 83.0365 103.362 83.5326C102.899 83.9278 102.471 84.1716 101.907 84.592C101.504 84.8863 101.041 85.189 100.453 85.5169C100.125 85.6935 99.6034 85.6851 99.5277 86.1812C99.5277 86.6184 100.083 86.5848 100.318 86.7109C101.058 87.0893 101.739 87.6526 102.572 88.031C102.992 88.1067 103.278 87.8292 103.631 87.6358C103.791 87.5433 103.976 87.476 104.161 87.3751C104.211 87.3415 104.245 87.1313 104.295 87.1061C106.137 86.2737 108.138 85.1302 110.248 84.3314C110.854 83.8353 111.106 82.9861 111.568 82.347C112.056 82.3134 112.333 81.7501 112.888 81.5567C113.561 81.3128 114.637 81.2456 115.402 81.296C116.294 81.3549 117.101 81.6576 117.647 82.0864C118.295 82.1452 118.959 82.1789 119.102 82.7506C118.707 84.0623 116.361 83.1626 115.268 83.1458C114.864 83.0533 114.73 83.5326 114.469 83.8101C114.175 84.1128 113.838 84.3398 113.679 84.8695C113.241 86.3073 113.712 89.0316 114.604 90.0321C115.108 90.1414 115.444 90.4273 115.924 90.5618C116.992 90.3096 117.589 89.4604 118.169 88.712C118.749 87.9637 119.228 87.1145 119.758 86.3325C119.909 85.2058 120.279 84.2977 120.683 83.4233C120.666 82.7002 120.666 81.9939 120.817 81.439C121.414 80.9681 123.054 80.6234 123.861 81.1783C124.584 82.1116 124.248 83.499 124.256 84.8863C124.256 85.416 124.408 86.0466 124.391 86.61C124.374 87.1229 124.155 87.6778 124.13 88.1991C124.122 88.4514 124.239 88.8213 124.265 89.124C124.34 90.0742 124.29 90.8477 125.19 91.1084C125.694 90.9991 125.677 90.36 125.854 89.9144C126.165 89.6538 126.072 88.9895 126.384 88.7205C126.484 88.1739 126.182 88.0394 126.249 87.5265C126.703 86.4839 127.334 85.1386 127.569 83.6923C127.813 82.2041 127.51 80.5477 128.359 79.4546C129.074 79.3117 129.822 79.2276 130.209 79.7153C130.773 79.9003 131.151 80.2702 131.403 80.7747C131.79 80.8672 132.219 80.9261 132.463 81.1699C132.942 81.7501 133.421 82.3302 133.917 82.8936C134.077 83.9194 134.64 85.1386 134.581 86.3325C134.539 87.1565 134.262 87.8208 133.917 88.4514C133.598 90.2255 133.934 91.6717 134.178 93.345C134.296 94.1185 134.397 94.9425 134.708 95.5899C135.187 95.7749 135.448 96.1701 136.028 96.2542C136.936 95.9683 137.028 94.3539 137.348 93.345C137.701 92.2435 138.172 91.2177 138.542 90.3012C138.794 87.8208 139.214 85.5001 139.467 83.0197C139.635 82.4816 140.19 82.3386 140.526 81.9603C140.997 82.1705 141.51 82.1368 141.981 82.3554C142.384 82.5488 142.645 82.9272 143.04 83.1458C143.149 83.2047 143.385 83.2551 143.435 83.2803C144.015 83.5494 144.848 83.9614 145.285 84.4743C145.378 84.5752 145.327 84.7686 145.42 84.8695C145.554 85.0124 145.848 85.2731 145.949 85.6599C145.546 87.7955 146 89.948 147.143 90.9486C149.506 90.9486 150.986 88.7877 149.918 86.5848C150.204 85.4665 149.926 84.3734 150.053 83.4065C150.238 81.9434 151.104 81.0606 151.642 80.1021C153.407 79.0426 154.433 77.2433 157.595 77.588C158.511 78.4456 160.437 78.8324 159.974 81.027C159.932 81.2456 159.68 81.4474 159.579 81.6912C159.377 82.1789 159.108 82.8347 158.789 83.1458C158.629 83.2972 158.309 83.2972 158.124 83.541C157.107 83.8605 155.274 84.0707 154.946 83.0113C155.072 82.1537 156.182 82.263 156.796 81.8173C157.351 81.4221 158.057 80.5729 157.721 79.5639C157.368 79.0594 156.72 79.3958 156.266 79.5639C155.938 79.6816 155.652 79.8834 155.341 80.0936C155.089 80.2618 154.66 80.6486 154.416 81.0185C153.853 81.8678 152.869 82.9524 153.222 84.8527C153.307 85.2899 153.609 85.6431 153.887 86.0466C154.299 86.6436 154.551 86.9379 155.081 87.3667C155.753 87.9133 157.284 88.5102 158.385 88.8214C158.923 88.5523 159.461 88.443 159.974 88.1571C160.521 87.846 160.975 87.392 161.429 86.9631C161.849 86.5679 162.446 86.2232 162.623 85.643C162.572 84.777 162.312 83.995 162.093 82.9945C161.874 81.9939 161.437 80.203 161.429 78.7567C161.429 77.8907 161.858 76.9154 161.294 76.1082C160.798 76.1418 160.361 76.1418 159.84 76.2427C159.487 76.31 159.049 76.5706 158.646 76.6379C157.754 76.7892 156.813 76.7724 155.871 76.8985C155.434 76.9574 154.988 77.134 154.551 77.1676C154.046 77.2012 153.576 77.0919 153.096 77.1676C152.222 77.3105 151.448 77.7646 150.582 77.8318C149.439 77.9159 148.236 77.5712 147.009 77.4367C145.722 77.2937 144.411 77.361 143.301 77.176C142.544 77.0499 141.813 76.8229 141.047 76.6463C140.341 76.4865 139.584 76.3184 138.929 76.1166C137.684 75.7298 136.557 75.0908 135.49 74.662C131.672 74.2752 127.636 73.5941 124.643 75.1917C123.701 75.6962 123.062 76.6715 121.868 76.2511C121.549 75.4944 122.213 74.6872 122.398 73.9977C123.659 73.4091 124.979 72.8794 126.367 72.4086C128.376 72.2993 130.226 72.5515 132.059 72.4086C132.639 72.3665 133.203 72.1647 133.783 72.1479C134.615 72.1227 135.464 72.2404 136.162 72.4086C136.852 72.5767 137.423 73.0392 138.147 73.1989C138.811 73.3419 139.551 73.1821 140.265 73.3335C140.753 73.4344 141.241 73.7539 141.72 73.8632C142.872 74.1154 144.167 74.1827 145.428 74.3929C146.614 74.5947 147.833 74.8637 149.002 74.9226C150.111 74.9815 151.154 74.8553 152.306 74.7881C155.636 74.5947 158.503 74.4265 161.168 73.3335C161.866 72.0386 161.79 70.1804 162.488 68.9696C162.522 68.9192 162.732 68.8855 162.757 68.8351C162.951 68.4063 163.211 68.2549 163.817 67.9102C164.548 67.4898 165.549 66.6321 167.121 66.9853C167.113 66.9853 167.483 67.1703 167.651 67.2459C168.256 67.5402 169.484 68.751 169.501 69.76C169.526 70.853 168.769 71.1473 168.307 72.005C167.415 73.098 166.415 74.0818 164.868 74.519C164.414 76.4193 164.666 79.3201 165.128 81.3969C165.271 82.0275 165.456 82.5572 165.658 83.1206C165.767 83.4149 165.936 83.8017 166.053 84.18C166.247 84.8106 166.549 85.6683 166.978 86.4334C167.104 86.6604 167.34 86.837 167.508 87.0977C168.046 87.9049 168.525 88.9054 169.358 89.6117C169.602 89.8219 169.997 90.133 170.552 90.1414C172.62 90.1667 172.797 87.2995 173.066 85.2479C172.452 84.5416 171.258 84.407 170.686 83.6587C170.434 82.6581 170.51 81.1951 170.947 80.4804C172.275 80.0096 173.898 80.0768 174.52 81.0101C174.604 81.1363 174.773 81.3212 174.916 81.5399C175.016 81.6996 175.126 82.1873 175.445 82.3302C176.084 82.4732 176.437 81.9939 176.9 81.8005C176.992 81.7669 177.261 81.7417 177.43 81.666C179.17 80.9008 180.625 79.7321 181.928 78.3616C182.197 77.6132 182.634 77.0415 183.122 76.5118C183.475 75.8895 183.811 75.2589 184.316 74.7881C184.139 74.4518 184.484 74.2836 184.577 73.9977C184.795 73.3419 184.904 72.9719 185.241 72.4086C185.644 71.7191 186.006 70.8699 186.561 70.1636C186.687 68.6585 187.604 67.3132 187.755 65.5307C187.822 64.6898 187.629 63.8154 187.62 62.8821C187.612 60.7968 188.074 58.4005 187.62 56.5339C187.57 56.3405 187.41 56.2144 187.36 56.0042C187.032 54.8018 186.796 53.4061 186.3 52.2962C185.586 50.7575 185.039 49.244 184.181 47.9323C183.374 46.7047 182.306 45.6705 181.802 44.2243C181.575 44.0057 181.272 43.8712 181.012 43.6946C180.398 43.2826 179.683 42.6015 178.767 42.3745C178.111 42.5595 177.909 43.0556 177.573 43.5685C177.413 43.8123 177.346 44.0898 177.177 44.3588C177.102 44.485 176.992 44.5186 176.917 44.6195C176.841 44.7204 176.866 44.9138 176.782 45.0147C176.564 45.2922 176.042 45.7126 175.588 46.0741C175.168 46.4104 174.663 46.8224 174.268 46.999C173.789 47.2092 172.771 47.3522 171.889 47.5287C170.367 47.8398 169.702 48.008 168.584 47.2597C168.004 46.8729 167.315 46.217 167.264 45.2753C167.197 44.0057 168.063 43.4423 168.458 42.3661C169.122 42.0466 169.61 41.3823 170.308 41.046C171.073 40.6761 171.922 40.7013 172.687 40.2556C173.141 40.4574 173.89 40.3734 174.537 40.3902C174.722 40.18 175.656 40.6256 175.857 40.1295C175.563 37.8173 174.05 36.7326 172.149 36.0263C171.662 36.1104 170.787 35.9002 170.695 36.0263C170.115 36.0347 169.459 36.1188 169.375 35.6311C169.307 35.2191 169.543 35.093 169.77 34.9669C170.812 34.6474 172.687 34.9333 173.873 35.2275C174.176 35.3032 174.63 35.3705 174.932 35.4966C175.748 35.8245 176.269 36.3711 176.522 37.2203C177.093 37.6071 177.488 37.6996 177.842 38.2797C178.06 38.6329 178.085 39.2046 178.237 39.5998C178.649 40.6424 179.128 41.1385 180.616 41.3235C180.877 41.5421 181.121 41.7775 181.407 41.9877C181.558 42.097 181.793 42.1643 181.936 42.2484C181.987 42.282 182.029 42.4922 182.071 42.509C182.138 42.5427 182.273 42.467 182.34 42.509C182.617 42.7024 182.819 42.9379 183.13 43.1733C183.383 43.3583 183.719 43.5012 183.921 43.703C184.484 44.2411 184.98 44.9979 185.51 45.6873C186.006 46.3264 186.468 47.0242 186.965 47.6717C187.057 48.3275 187.57 48.5629 187.755 49.1263C188.058 49.6224 188.385 50.0512 188.68 50.5809C189.319 51.758 189.806 53.179 190.269 54.6841C190.53 55.5333 190.471 57.1141 190.664 58.3921C190.79 59.2077 191.118 60.0233 191.194 61.1668C191.278 62.5205 190.95 64.0676 190.664 65.27C190.496 65.9679 190.21 67.1871 190 68.0447C189.84 68.7174 189.806 69.3816 189.605 69.8945C189.504 70.1552 189.218 70.4326 189.075 70.6849C188.915 70.9623 188.798 71.2314 188.68 71.4752C187.915 73.0812 187.225 74.7881 186.426 76.3688C185.787 77.0078 185.3 77.7898 184.703 78.4877C184.669 78.5297 184.459 78.5886 184.442 78.6222C184.282 78.9754 184.097 79.3201 183.778 79.6816C183.45 80.06 182.962 80.43 182.584 80.8756C182.55 80.9092 182.332 80.9681 182.323 81.0101C182.037 81.6408 181.096 82.3891 180.6 82.8599C180.49 82.9692 180.314 83.0197 180.204 83.1206C180.078 83.2383 179.464 83.4821 179.145 83.6503C178.573 83.953 177.993 84.2389 177.421 84.5752C176.732 84.6845 176.025 84.7686 175.471 85.0124ZM171.233 42.9294C170.863 43.5348 170.367 44.0057 170.442 45.0483C170.905 45.5108 171.678 45.6705 172.687 45.578C173.839 44.9642 174.781 44.115 175.336 43.064C175.538 42.6772 175.883 42.3577 175.731 41.87C173.932 41.4076 172.612 42.5343 171.233 42.9294ZM167.399 69.3984C165.826 67.8009 165.271 70.9119 165.28 72.047C166.566 71.7527 167.718 70.8951 167.399 69.3984ZM77.9523 81.8341C78.1625 81.6492 78.3727 81.4558 78.6166 81.3044C78.5325 80.1945 78.5745 78.9669 77.8178 78.5297C76.8593 79.1015 76.0941 81.6576 77.9523 81.8341ZM101.638 91.3606C100.175 92.193 98.8719 93.1852 97.535 94.1353C96.8623 95.1864 96.0383 96.086 95.4161 97.1791C95.5507 97.5238 95.5759 97.9947 95.5507 98.4992C95.9038 98.7178 96.1392 99.0625 96.4756 99.2895C97.6779 99.4325 98.1824 98.8775 99.1242 98.7598C99.7884 97.9611 101.176 97.8013 101.899 96.91C102.059 96.7166 102.277 96.313 102.429 95.9851C102.916 94.9425 102.908 94.026 102.563 92.8068C102.42 92.2939 102.21 91.4867 101.773 91.3522C101.722 91.3606 101.68 91.3606 101.638 91.3606Z" fill="#383F48"/>
<path fill-rule="evenodd" clip-rule="evenodd" d="M154.433 20.2189C154.29 20.6141 153.769 20.4628 153.542 20.4628C152.541 20.4712 151.474 20.0928 150.38 20.2189C150.044 20.261 149.641 20.4291 149.245 20.5384C148.859 20.6477 148.48 20.757 148.11 20.8663C146.084 21.4381 145.092 22.2789 143.41 23.3804C143.183 23.5233 142.914 23.8681 142.519 23.8681C141.989 23.8597 141.316 23.229 141.224 22.6489C141.165 22.2705 141.333 21.7997 141.468 21.2699C141.518 21.0681 141.804 20.1096 141.628 19.9751C141.333 19.7565 140.778 20.3619 140.492 20.6225C139.988 21.0766 139.727 21.3792 139.517 21.5895C139.45 21.6567 139.416 21.766 139.357 21.8333C139.223 21.9762 138.929 22.59 138.794 22.8843C138.592 23.3299 138.374 23.9437 138.147 24.5071C138.012 24.8434 137.819 25.1377 137.659 25.4824C137.289 26.2644 137.196 26.7353 136.684 27.5088C136.305 28.0806 135.616 28.8625 134.825 28.6439C134.497 28.5514 134.212 28.0469 134.178 27.5088C134.144 27.0884 134.371 26.3569 134.497 25.7263C134.598 25.2302 134.699 24.8518 134.825 24.4314C134.951 23.9774 135.17 23.6158 135.473 23.2206C135.523 23.1534 135.658 23.1282 135.717 23.0609C135.767 22.9936 135.742 22.8927 135.801 22.817C135.885 22.6993 136.053 22.6068 136.129 22.4891C136.381 22.0603 136.608 21.3624 136.86 20.7907C137.154 20.1264 137.6 19.1763 137.264 18.9325C136.961 18.7054 136.515 19.4117 136.288 19.664C135.86 20.1517 135.775 20.1937 135.313 20.7991C135.296 20.8243 135.162 20.8579 135.153 20.8832C134.943 21.3624 134.405 21.9762 134.102 22.4219C133.749 22.9432 133.203 23.6831 132.807 24.4482C132.597 24.8518 132.412 25.2554 132.244 25.5833C132.025 25.9953 131.782 26.3653 131.681 26.6344C131.563 26.9371 131.538 27.3407 131.437 27.6854C131.336 28.0385 131.151 28.3917 131.117 28.6607C131.033 29.2745 131.168 29.8883 130.958 30.1994C130.714 30.561 128.94 30.9478 128.528 30.603C127.981 30.1406 128.704 27.8199 128.931 27.038C128.998 26.8193 129.049 26.6344 129.091 26.4662C129.335 25.5918 129.831 24.793 130.226 23.9522C130.461 23.4561 130.688 22.9179 130.873 22.4135C131.084 21.8585 131.176 21.724 131.521 21.2027C131.681 20.9672 132.732 19.4201 132.412 19.1006C132.278 18.9577 132.093 18.9913 131.765 19.2604C131.655 19.3529 131.42 19.7397 131.361 19.8237C131.243 20.0087 131.185 20.2273 131.042 20.4712C131 20.5384 130.974 20.6477 130.882 20.7907C130.865 20.8243 130.731 20.8495 130.722 20.8748C130.571 21.2111 130.327 21.6904 129.991 22.1696C129.923 22.2621 129.806 22.3294 129.747 22.4135C129.595 22.6405 129.427 23.0357 129.259 23.3047C129.007 23.7251 128.729 24.0446 128.528 24.4398C128.376 24.7425 128.284 25.0704 128.124 25.4909C127.964 25.9029 127.754 26.6344 127.636 27.2734C127.544 27.7947 127.527 28.3244 127.392 28.8962C127.199 29.7286 126.434 31.4102 125.694 31.9736C125.627 32.024 125.442 32.0577 125.29 32.1333C124.912 32.3351 124.366 32.6799 123.752 32.6967C123.138 32.7135 122.306 32.4276 121.969 32.1333C121.683 31.8727 121.246 30.931 121.162 30.2667C121.044 29.367 121.414 27.492 120.59 27.2734C120.279 27.1893 120.044 27.492 119.783 27.5929C119.522 27.7022 119.194 27.862 118.892 27.8367C118.614 27.8115 118.404 27.5677 118.16 27.3491C117.689 26.9287 117.555 26.626 117.429 25.7263C117.378 25.3815 117.311 25.02 117.345 24.6753C117.395 24.2548 117.698 23.8428 117.908 23.2963C118.001 23.0777 118.068 22.817 118.152 22.5648C118.455 21.6735 118.967 19.9919 118.883 18.6802C118.841 17.9823 118.589 17.192 117.748 17.0574C116.807 16.9145 116.075 17.5872 115.562 18.3523C115.461 18.5036 115.369 18.7223 115.243 18.9156C115.117 19.109 115.016 19.2099 114.839 19.4033C114.705 19.5463 114.208 20.2441 113.788 20.0508C113.334 19.8406 113.796 18.4952 114.032 18.1085C114.141 17.9319 114.377 17.7805 114.595 17.5451C114.755 17.3769 114.889 17.1331 115.083 16.9818C115.226 16.864 115.444 16.7884 115.646 16.6623C115.983 16.4352 116.294 16.1662 116.697 15.9307C117.647 15.3842 118.698 16.0737 119.371 16.7379C119.59 16.9565 119.85 17.1331 119.934 17.3854C120.271 18.3355 120.363 19.5463 120.254 20.6309C120.128 21.951 119.312 23.2459 119.522 24.5996C119.951 24.7425 119.943 24.3305 120.086 24.1119C120.178 23.9774 120.271 23.9858 120.33 23.8681C120.388 23.7419 120.346 23.5906 120.414 23.4645C120.632 23.0188 120.901 22.5816 121.145 22.1696C121.666 21.2868 122.255 19.7481 123.819 20.0676C124.391 20.1853 124.601 20.6561 124.55 21.6063C124.508 22.3041 124.172 23.0188 123.903 23.7083C123.617 24.4482 123.432 25.7851 123.499 26.8698C123.575 28.0385 123.92 28.9803 124.719 27.6013C125.131 26.8866 125.467 25.6254 125.854 24.6837C126.383 23.4056 127.107 22.1696 127.72 21.2027C128.031 20.7066 128.427 20.1601 128.855 19.5799C129.679 18.4616 130.108 17.4863 131.042 16.4184C131.647 15.7289 132.202 15.0142 133.144 14.8797C134.127 14.7368 134.556 15.2497 135.002 15.771C135.279 16.0905 135.49 16.595 135.977 16.6623C136.583 16.7463 137.045 16.2166 137.592 16.0989C137.861 16.04 138.626 15.9728 138.971 16.0989C139.307 16.2166 139.559 16.6286 139.702 16.9061C139.736 16.9649 139.879 17.2424 139.946 17.4694C139.996 17.646 139.98 17.9739 140.106 18.0328C140.4 18.1757 140.82 17.7974 140.997 17.7133C141.695 17.3433 141.93 17.1583 142.779 17.4694C143.292 17.6544 143.469 17.789 143.671 18.2766C143.772 18.5289 143.881 18.8736 143.83 19.4117C143.814 19.6135 143.301 21.0513 143.587 21.2699C144.007 21.5979 145.42 20.3114 145.613 20.2189C146.286 19.891 147.303 19.7312 148.371 19.5715C149.968 19.3361 151.726 19.3108 153.147 19.6556C153.618 19.7649 154.105 19.9162 154.433 20.2189Z" fill="#DD4A29"/>
<path fill-rule="evenodd" clip-rule="evenodd" d="M189.748 31.2337C190.202 31.3177 190.277 31.0234 190.731 31.1075C191.337 31.8559 191.858 32.6883 192.085 33.815C192.245 34.0252 192.573 34.0588 192.699 34.3111C192.758 34.6978 192.43 34.7903 192.699 35.051C192.665 35.4546 193.086 35.4041 193.195 35.6648C193.153 36.3206 193.54 36.556 193.683 37.0185C194.095 37.3884 194.507 37.75 195.036 38.0022C195.255 38.7253 195.886 39.0365 196.264 39.5998C196.096 39.8689 196.298 40.1968 196.264 40.4574C196.205 40.861 196.045 41.046 195.894 41.4412C195.86 42.0045 196.34 42.0634 196.508 42.425C196.449 43.0135 196.768 43.2321 196.995 43.5348C197.046 43.8291 196.768 43.8039 196.869 44.1486C197.206 44.9979 197.811 45.5864 198.349 46.2423C198.45 46.587 198.173 46.5618 198.223 46.8561C198.408 47.0831 198.736 47.1672 198.837 47.4699C198.627 48.4788 199.333 48.7311 199.081 49.4374C199.022 49.7149 199.367 49.8326 199.451 50.0512C199.552 50.3202 199.476 50.6061 199.577 50.9088C199.652 51.1442 199.737 51.3376 199.821 51.6487C199.989 52.2709 200.056 52.6409 199.947 53.6163C199.871 54.2889 199.846 54.9363 199.577 55.4576C199.552 57.2486 199.888 59.2245 199.333 60.9902C199.728 62.3944 198.711 63.3445 199.207 64.6814C199.148 65.2027 198.627 65.2448 198.467 65.6652C198.374 66.1276 198.618 66.2538 198.593 66.6489C198.366 67.1198 198.03 67.4814 197.853 68.0027C197.819 68.4483 197.87 68.8014 197.979 69.1125C197.719 69.2639 197.5 69.4489 197.239 69.6002C197.357 70.5756 196.642 70.7269 196.869 71.8116C196.592 72.2656 196.23 72.6524 195.886 73.0392C195.381 74.4602 194.809 75.8139 194.044 76.9742C194.044 77.2601 194.044 77.546 194.044 77.8318C193.414 78.227 193.481 79.3201 192.817 79.6732C192.749 80.7579 192.178 81.3296 191.589 81.8846C191.648 82.5572 191.194 82.717 191.219 83.3644C190.942 83.541 190.715 83.7596 190.479 83.9782C190.21 85.147 189.285 85.6514 189.008 86.8118C188.158 87.6862 187.334 88.5775 186.796 89.7631C186.157 90.3096 185.527 90.8729 184.829 91.3606C184.694 91.596 184.669 91.9408 184.585 92.2182C183.652 92.5966 182.937 93.1936 182.374 93.9419C182.626 95.262 181.541 95.2368 181.39 96.1533C180.818 96.0692 180.6 96.3467 180.162 96.3971C179.49 97.1539 178.666 97.7677 177.825 98.3646C177.539 98.3646 177.253 98.3646 176.967 98.3646C176.69 98.5328 176.572 98.8691 176.353 99.1046C175.832 99.155 175.546 99.4493 175.243 99.7184C174.361 99.7772 173.806 100.164 173.276 100.576C172.528 100.652 171.931 100.87 171.435 101.19C171.048 101.249 170.955 100.921 170.695 101.19C170.173 101.207 170.106 101.669 169.585 101.677C169.375 101.837 169.341 102.165 169.089 102.291C168.189 102.569 167.298 103.267 166.264 103.031C165.709 103.098 165.725 103.729 165.28 103.889C164.389 103.897 163.598 104.015 163.186 104.503C163.043 104.402 162.858 104.343 162.572 104.376C162.101 104.435 162.101 104.965 161.715 105.116C161.101 105.318 160.294 105.335 159.621 105.486C158.965 105.697 158.621 106.209 157.78 106.226C157.359 106.462 157.031 106.79 156.67 107.084C156.048 106.941 155.552 107.353 155.19 107.084C154.307 107.555 153.332 107.933 152.239 108.194C151.886 108.412 151.549 108.656 151.255 108.934C150.061 109.093 149.136 109.522 148.178 109.917C147.791 109.934 147.766 109.59 147.32 109.674C146.286 109.976 145.327 110.203 144.125 110.044C143.646 109.976 143.62 110.355 143.267 110.414C142.805 110.506 142.679 110.262 142.283 110.287C141.804 110.506 141.199 110.599 140.804 110.901C139.929 110.741 139.643 111.17 138.71 110.901C138.247 110.851 138.273 111.288 137.97 111.397C137.129 111.305 136.869 111.355 136.002 111.397C135.54 111.523 135.607 111.137 135.389 111.027C134.985 111.111 134.977 111.599 134.531 111.641C133.362 111.271 132.395 111.893 131.58 112.255C130.646 111.944 129.612 112.49 128.872 112.011C128.334 111.927 128.326 112.364 127.889 112.381C126.955 112.095 126.089 112.423 125.181 112.625C124.618 112.751 124.155 112.675 123.457 112.751C122.726 112.835 121.969 113.02 120.994 113.121C120.111 113.213 119.262 113.087 118.286 113.121C117.858 113.138 117.748 113.323 117.429 113.365C117.227 113.39 117.034 113.23 116.815 113.239C116.294 113.256 115.621 113.55 115.091 113.726C114.343 113.844 113.788 113.6 113.25 113.6C112.653 113.6 112.098 113.895 111.4 113.726C110.845 113.953 110.13 114.012 109.676 114.34C108.844 114.273 107.726 114.483 107.095 114.214C106.12 114.761 104.699 114.853 103.648 115.324C102.017 115.366 100.276 115.358 98.359 115.324C98.1404 115.324 98.0983 115.189 97.8713 115.198C97.8041 115.198 97.5855 115.341 97.3752 115.324C96.753 115.265 96.1308 114.954 95.5339 114.954C95.29 114.954 95.0378 115.089 94.7939 115.08C93.7681 115.03 92.7676 114.601 91.8427 115.08C90.8841 114.744 89.2613 115.038 88.2776 114.466C87.4031 114.819 86.4614 114.517 85.4524 114.836C84.9311 114.584 84.2753 114.475 83.7288 114.592C83.0309 114.744 82.8039 115.349 82.375 115.576C81.1811 115.114 79.491 115.274 78.3139 115.332C76.8845 114.643 74.8245 114.794 73.0251 114.475C72.7308 114.424 72.4534 114.256 72.1675 114.231C71.3183 114.147 70.5279 114.256 69.9561 113.861C69.7459 113.533 69.6703 113.079 69.4685 112.751C68.9303 112.701 69.149 113.415 68.7285 113.491C68.0054 113.558 67.7364 113.171 67.0049 113.247C66.5004 112.97 66.0295 112.659 65.525 112.389C65.0962 112.289 65.0542 112.574 64.6674 112.516C64.1713 112.566 64.289 111.994 63.9275 111.902C63.4734 111.944 63.4314 112.389 62.8176 112.272C62.2038 112.389 62.3299 111.776 61.9599 111.658C60.9846 111.767 60.3456 111.549 59.8663 111.17C59.3114 111.355 58.8237 111.608 58.2688 111.784C57.697 111.616 57.47 111.111 56.915 110.926C56.5199 110.817 56.1415 109.867 55.3175 110.439C55.0316 110.641 54.9812 111.33 54.3337 111.296C53.8208 111.271 53.7031 110.859 53.5938 110.439C52.7193 110.329 52.2905 109.775 51.7524 109.329C51.1891 109.236 50.4575 108.791 49.911 109.085C49.4065 108.934 49.2047 108.48 48.4312 108.597C47.8258 107.891 46.6991 107.706 45.9676 107.126C45.5724 107.059 45.3958 107.21 45.1099 107.252C44.6559 107.303 44.7904 106.756 44.2523 106.882C43.9664 106.672 43.8571 106.294 43.6385 106.024C42.7893 106.1 42.2932 105.814 41.7887 105.537C41.2169 105.856 40.8302 105.604 40.3173 105.907C39.8884 105.924 39.9305 105.478 39.7035 105.293C39.3167 105.31 39.2831 104.973 39.2158 104.679C38.9047 104.578 38.7281 104.343 38.3582 104.309C38.3245 103.847 38.0723 103.611 37.8705 103.325C37.2567 103.283 36.8615 103.023 36.1468 103.082C35.575 102.913 35.4153 102.333 34.5493 102.468C34.4652 102.14 34.1961 101.997 34.0616 101.728C32.9181 101.476 32.5397 100.458 31.598 100.004C31.1607 99.7688 30.8917 100.004 30.3704 100.004C29.7145 100.004 29.6725 99.3904 29.1428 99.2643C25.8131 99.2727 23.7279 98.0367 22.3742 96.0692C22.0799 96.0692 22.0126 96.2794 21.6343 96.1953C21.2391 95.3965 20.4151 95.035 20.1628 94.1017C19.877 93.8074 19.4061 93.7065 19.053 93.4879C18.7503 92.7648 18.0524 92.4369 17.6992 91.7642C17.2788 91.1672 16.7323 90.6795 16.3455 90.0405C16.0681 89.906 15.7317 89.8387 15.4879 89.6706C15.16 88.9727 14.2687 88.8382 14.1342 87.9469C13.369 87.8124 13.3438 86.9295 12.5366 86.837C12.4357 86.61 12.3348 86.383 12.2928 86.0971C11.4772 85.6767 10.9895 84.9368 10.1991 84.4995C10.0814 83.9614 9.60215 83.7848 9.45921 83.2719C7.85325 82.2545 6.89472 80.5897 5.76802 79.0931C6.09594 78.0925 5.32238 77.7225 5.15422 76.8817C5.10377 76.4613 5.20467 76.1922 5.28034 75.898C4.6245 74.6704 3.84254 73.5689 3.1867 72.3329C3.15307 71.5089 2.81674 70.9792 2.44678 70.4831C2.57291 69.7011 2.17772 69.4405 2.20295 68.7594C2.06841 68.4063 1.80776 68.1708 1.58915 67.9018C1.60596 66.8591 0.933309 66.506 0.97535 65.4382C0.824003 65.0514 0.681063 64.673 0.487675 64.3283C0.529716 62.8316 -0.294287 61.15 0.487675 60.0233C0.445634 59.4936 0.546532 59.0564 0.487675 58.5519C0.454042 58.2408 0.27747 57.9801 0.243837 57.6942C0.151347 56.845 0.327919 56.0126 0 55.2306C0.176572 54.4234 0.36996 53.6331 0.36996 52.6493C1.05943 51.8169 1.08466 50.3287 1.72368 49.4542C1.63119 48.9077 1.89184 48.7143 1.8498 48.2266C2.32907 47.596 2.72425 46.3768 2.58972 45.5192C2.98491 45.3846 3.05217 44.9138 3.32964 44.6615C3.63234 43.1228 4.27977 41.9205 5.05332 40.8442C5.05332 40.5583 5.05332 40.2725 5.05332 39.9866C6.64247 38.5824 7.15537 36.102 8.98835 34.9417C9.08925 34.6306 9.32468 34.4624 9.35831 34.084C10.3925 33.4366 10.8045 32.167 11.8219 31.5027C11.8976 31.1243 12.0826 30.8637 12.1919 30.519C13.2345 29.9976 13.9324 29.0307 14.7732 28.3076C15.5636 27.6181 16.6818 27.1557 17.2368 26.0962C18.1617 25.5497 18.8932 24.8014 19.5743 24.0026C20.0115 23.9437 20.2469 23.6915 20.558 23.5065C21.1886 22.9516 21.6343 22.2033 22.6517 22.0267C23.7952 20.9588 24.9303 19.8826 26.469 19.2015C26.7633 18.9661 26.9567 18.6214 27.2089 18.3439C28.5542 17.8478 29.353 16.7968 30.6563 16.2503C31.1944 15.8719 31.3962 15.3254 32.1361 15.0227C32.2959 14.9554 32.6154 14.9722 32.7499 14.8965C33.2376 14.6359 33.515 14.0809 33.9775 13.9128C34.3643 13.9716 34.4147 13.6942 34.8351 13.7867C35.3396 13.3915 36.0459 13.1897 36.4327 12.6768C37.963 12.4918 39.0729 11.4408 40.3677 10.8354C42.4109 10.5831 43.4031 9.27987 45.2865 8.86787C46.161 8.22884 47.4895 8.03546 48.4816 7.51415C48.8936 7.51415 49.3056 7.51415 49.7092 7.51415C50.1633 7.31235 50.5332 7.02647 50.9368 6.77423C52.0131 6.61447 52.9884 6.36223 53.6442 5.79047C54.1067 5.88296 54.2328 5.63912 54.628 5.66435C55.2082 5.27757 55.9313 5.14304 56.5955 4.92443C57.285 4.70581 57.9324 4.36108 58.6892 4.31063C58.9919 3.82295 59.5804 3.96589 60.169 3.69683C60.2951 3.63797 60.3792 3.51185 60.539 3.45299C61.2116 3.20916 61.9179 3.0494 62.5065 2.71307C63.5995 2.78034 64.2302 2.38515 64.9701 2.09927C65.3485 2.17495 66.0295 1.93952 66.1977 2.2254C67.1478 1.77136 68.4595 2.09927 69.645 2.09927C70.3597 1.87225 71.024 1.47707 72.2263 1.48548C72.8233 1.48548 73.3615 1.67046 74.0762 1.48548C74.3032 1.42662 74.4882 1.26686 74.6899 1.24164C75.4635 1.14074 76.3884 1.1996 77.1451 1.24164C77.431 1.25846 77.7169 1.38458 78.0112 1.36776C78.4736 1.33413 78.9277 1.05666 79.3649 0.997802C80.2562 0.888495 81.1558 0.980985 81.8285 1.24164C82.6021 0.91372 83.8969 1.0987 84.5359 0.627841C85.2422 0.602617 85.9233 0.661474 86.5035 0.627841C86.8986 0.602617 87.2518 0.417637 87.6133 0.384004C87.7815 0.367187 88.0842 0.510127 88.2271 0.510127C88.9923 0.501718 90.0265 0.241065 90.8084 0.0140435C90.8841 -0.0111811 90.9766 0.0308598 91.0523 0.0140435C91.7333 -0.095263 91.7502 0.468086 92.2799 0.510127C93.8438 0.518535 95.702 0.384004 97.3248 0.636249C97.6695 0.526943 97.9302 0.341963 98.3086 0.266289C100.125 0.459678 101.806 -0.120488 103.353 0.636249C104.472 0.207432 106.641 0.325146 107.785 0.636249C108.247 0.686699 108.365 0.392412 108.642 0.266289C109.222 0.316738 109.668 0.224248 110.114 0.140166C110.391 0.358779 110.803 0.434453 111.097 0.627841C112.224 0.695107 113.368 0.535351 114.419 0.627841C114.679 0.653066 114.915 0.829638 115.159 0.871679C115.453 0.922128 115.823 0.829638 116.142 0.871679C116.42 0.905311 116.647 1.0987 116.882 1.11552C117.572 1.18278 118.303 1.16597 118.976 1.11552C119.657 1.06507 120.405 0.82123 121.07 1.24164C122.995 1.1996 124.811 1.36776 126.972 1.48548C127.3 1.56956 127.594 1.67887 127.83 1.85544C128.603 1.54433 129.427 2.27585 130.293 1.85544C131.042 2.29266 132.16 2.36834 133.245 2.46923C133.581 2.66262 133.816 2.96532 134.228 3.08303C134.59 3.2512 134.766 3.00736 135.338 3.08303C135.868 3.16711 136.095 3.5623 136.566 3.69683C136.944 3.62116 137.625 3.85659 137.793 3.57071C138.18 3.75569 138.466 4.04997 138.903 4.18451C139.282 4.277 139.349 4.05838 139.643 4.05838C139.795 4.30222 140.097 4.31904 140.383 4.42834C140.652 4.52924 140.871 4.71422 141.123 4.7983C141.316 4.86557 141.653 4.74785 141.863 4.7983C142.182 4.88239 142.426 5.19349 142.973 5.29439C143.351 5.36165 143.772 5.24394 144.2 5.29439C144.722 5.35324 145.176 5.6139 145.924 5.42051C146.504 5.79047 147.278 5.95023 147.766 6.40427C148.413 6.15202 148.766 6.53039 149.245 6.77423C150.33 6.67333 150.919 7.07692 151.953 7.01806C152.323 7.38803 152.777 7.6655 153.18 8.00182C153.769 8.10272 154.341 8.23725 154.904 8.37178C155.442 8.49791 156.014 8.53995 156.502 8.74174C156.813 8.86787 157.124 9.30509 157.485 9.48166C158.116 9.79277 158.805 9.83481 159.209 10.4654C160.327 10.4991 160.781 11.1885 161.917 11.2053C162.261 11.6005 162.757 11.836 163.026 12.3152C163.977 12.2648 164.262 12.8786 164.868 13.1729C165.271 13.1813 165.482 13.3831 165.978 13.299C166.507 13.8791 167.415 14.0725 167.945 14.6527C168.778 14.7116 169.274 15.3842 169.913 15.7626C170.543 16.1325 171.426 16.2418 171.754 16.9902C173.226 17.1163 173.495 18.4532 174.949 18.5877C175.025 18.84 175.21 18.9829 175.319 19.2015C176.009 19.2436 176.168 19.8237 176.917 19.8153C177.127 20.2189 177.564 20.3955 177.774 20.7991C178.119 20.8664 178.413 20.9757 178.758 21.0429C178.758 21.4129 179.078 21.4633 179.128 21.7828C180.003 22.0351 180.566 22.7077 181.222 23.2627C181.255 23.2963 181.314 23.4897 181.348 23.5065C181.566 23.6074 182.197 23.7756 182.205 24.2464C182.66 24.2885 182.887 24.5491 183.315 24.6164C183.542 24.9191 183.702 25.2975 183.929 25.6002C184.358 25.7431 184.753 25.9281 185.157 26.0962C185.342 26.6091 185.695 26.9539 186.267 27.08C187.065 28.1731 187.965 29.1484 188.974 30.0313C189.041 30.5526 189.529 30.7544 189.748 31.2337ZM65.6343 107.252C66.0295 107.462 66.2734 107.698 66.7442 107.866C67.3916 108.101 68.1484 108.135 68.9556 108.236C69.2835 108.438 69.3171 108.942 69.8132 108.976C71.4023 109.11 72.1843 110.052 73.9921 109.96C74.6647 110.237 74.9674 110.565 75.5896 110.699C76.4473 110.884 77.8514 110.733 78.9109 110.826C80.5925 110.96 82.291 110.994 83.9558 111.069C88.1262 111.263 92.8348 111.793 96.7446 111.557C102.967 111.196 109.172 110.767 115.192 110.447C118.085 110.296 120.893 109.783 123.676 109.463C128.065 108.959 132.471 108.522 136.465 107.866C139.189 107.42 141.737 106.638 144.217 106.024C145.983 105.587 147.681 105.024 149.632 104.915C150.607 104.284 151.793 104.099 152.953 103.805C154.164 103.502 155.4 103.267 156.645 102.947C157.78 102.653 159.217 102.224 160.21 101.963C160.588 101.862 161.042 101.829 161.437 101.72C162.177 101.509 162.9 101.097 163.649 100.862C164.431 100.61 165.204 100.425 165.986 100.122C166.751 99.8277 167.516 99.4913 168.324 99.382C168.761 98.97 169.45 98.6001 169.803 98.3983C170.207 98.1628 170.468 97.9694 170.787 97.7845C171.233 97.5238 171.704 97.3136 172.141 97.0445C172.351 96.9184 172.536 96.8091 172.755 96.6746C172.982 96.5401 173.251 96.4476 173.495 96.3046C174.31 95.8254 175.109 95.2032 175.958 94.7071C176.395 94.4464 176.866 94.2362 177.312 93.9671C177.606 93.7906 178.262 93.5047 178.422 93.3534C178.825 92.9666 179.406 92.4537 179.775 92.1258C179.944 91.9744 180.112 91.8987 180.263 91.7558C180.398 91.6297 180.364 91.3942 180.507 91.2681C180.667 91.1336 180.869 91.142 181.003 91.0243C182.365 89.7462 183.475 88.3337 184.938 87.207C185.106 86.7445 185.19 86.1644 185.434 85.7271C185.535 85.5506 185.804 85.4076 185.922 85.2395C186.006 85.1301 185.972 84.9704 186.048 84.8695C186.275 84.5668 186.477 84.3061 186.662 84.0119C186.99 83.4821 187.234 83.1626 187.519 82.7843C187.999 82.1621 188.36 81.5398 188.747 80.9429C189.008 80.5393 189.209 80.1105 189.487 79.7153C189.756 79.3285 190.151 79.0006 190.471 78.6054C190.546 78.5129 190.53 78.3279 190.597 78.2354C190.748 78.042 190.967 77.8739 191.085 77.7478C191.547 77.2517 191.909 76.6967 192.194 76.1502C192.648 75.2842 192.96 74.292 193.422 73.3166C193.733 72.6692 194.196 71.8957 194.406 71.3491C194.523 71.038 194.54 70.7942 194.65 70.4915C194.818 70.0206 194.986 69.5077 195.146 69.0201C195.785 66.9853 196.609 65.2196 196.743 62.9914C196.945 59.8047 196.676 55.2979 196.617 52.17C196.087 51.1358 195.902 50.0512 195.633 48.9749C195.432 48.1677 195.12 47.5035 194.893 46.7636C194.767 46.3432 194.767 45.9228 194.65 45.536C194.633 45.4939 194.431 45.351 194.406 45.2921C194.313 45.0567 194.28 44.8045 194.162 44.5522C194.053 44.3084 193.926 44.0814 193.792 43.8123C192.892 41.9961 192.102 40.2052 191.211 38.3974C190.353 36.6653 189.151 35.1435 188.016 33.5964C187.444 32.8228 186.864 32.0156 186.292 31.2589C185.703 30.4769 185.014 29.7874 184.568 28.9214C184.131 28.7785 183.82 28.4421 183.458 28.1815C183.097 27.9208 182.702 27.6938 182.348 27.4416C182.29 27.3995 182.29 27.2398 182.222 27.1977C182.121 27.122 181.945 27.1389 181.852 27.0716C181.533 26.8446 181.247 26.6176 180.995 26.4578C180.919 26.4158 180.827 26.2644 180.751 26.214C177.564 24.0026 174.377 21.7408 171.283 19.5715C170.804 19.2352 170.333 18.8232 169.93 18.5877C169.543 18.3691 169.274 18.2598 168.946 18.1001C168.029 17.6376 166.919 17.1499 165.994 16.8725C165.952 16.8556 165.809 16.6538 165.751 16.6286C164.557 16.1409 163.422 15.6953 162.429 15.2749C161.017 14.6779 159.747 14.1398 158.368 13.5512C154.66 11.9621 150.465 10.4991 146.681 9.12011C146.294 8.97717 145.89 8.68289 145.697 8.62403C145.546 8.58199 145.352 8.67448 145.201 8.62403C144.974 8.53995 144.814 8.31293 144.587 8.25407C143.528 7.9766 142.267 7.93456 141.14 7.75799C138.239 7.31235 135.052 6.96762 132.53 6.40427C132.227 6.337 131.975 6.37904 131.672 6.27814C131.428 6.20247 131.21 5.96704 130.932 5.90818C130.621 5.84092 130.209 5.83251 129.822 5.78206C128.713 5.63912 127.208 5.63912 126.375 5.65594C126.165 5.66435 125.938 5.53822 125.761 5.52982C125.248 5.513 124.769 5.57186 124.281 5.52982C123.651 5.47096 123.079 5.24394 122.432 5.15986C120.985 4.96647 119.018 4.7983 118.001 4.91602C117.799 4.94124 117.563 4.78989 117.504 4.78989C117.143 4.78989 116.857 4.93283 116.521 4.91602C115.756 4.88239 114.948 4.73104 114.183 4.67218C113.317 4.60491 112.426 4.65536 111.602 4.54606C110.635 4.42834 109.769 3.91544 108.651 3.80614C108.424 3.78091 108.382 3.93226 108.155 3.93226C107.919 3.93226 107.885 3.80614 107.667 3.80614C106.616 3.82295 105.514 3.93226 104.472 3.93226C103.185 3.93226 101.857 3.82295 100.537 3.80614C100.15 3.80614 99.822 3.93226 99.4268 3.93226C99.0317 3.93226 98.7121 3.80614 98.317 3.80614C97.7704 3.80614 97.3164 3.98271 96.8371 3.93226C95.2984 3.7641 93.1123 3.85659 91.4222 3.93226C90.0517 3.99112 88.7316 4.32744 87.3611 4.41993C84.5107 4.62173 81.6099 4.36949 78.7511 4.78989C78.3391 5.15145 77.7589 5.33643 77.1535 5.52982C76.5482 5.7232 75.8251 5.95863 75.186 6.0259C74.8413 6.05953 74.5302 5.97545 74.2023 6.0259C73.8491 6.07635 73.5717 6.26133 73.2185 6.26974C72.3272 6.30337 71.5032 6.0259 70.6372 6.14361C69.6198 6.28655 69.0144 6.8499 68.1736 7.12737C67.6271 7.31235 67.0637 7.29553 66.576 7.49733C65.8277 7.80003 65.2476 8.4895 64.4824 8.60721C64.4656 9.15375 64.9112 9.24624 64.8524 9.83481C64.6842 10.5327 64.3983 11.1044 64.1124 11.6762C64.0536 13.2233 64.4235 14.1903 64.1124 15.4935C64.2554 15.8046 64.6001 15.9055 64.6001 16.3512C64.4235 16.8641 63.9863 17.6544 64.3563 18.3187C63.9779 18.5121 64.2133 19.3277 63.7425 19.4286C63.7173 19.9415 64.3479 19.8069 64.2302 20.4123C64.2554 20.9252 63.6248 20.7907 63.7425 21.3961C63.8182 22.3042 64.1209 22.9852 64.3563 23.7335C64.1209 24.2969 63.7004 24.4314 63.6164 25.0873C63.5575 25.5749 63.7341 25.9533 63.8602 26.441C63.9779 26.895 64.0031 27.3575 64.2302 27.6686C63.5995 27.7863 63.1455 28.131 63.4902 28.8962C64.4067 29.2325 64.3142 28.0638 64.9701 28.5262C64.6338 28.9466 64.8944 29.5856 64.844 30.1238C64.8187 30.4601 64.5076 30.7292 64.7178 30.9814C64.474 31.427 64.1797 31.7466 64.104 32.3351C64.0788 32.5537 64.2218 32.8985 64.2302 33.1928C64.2386 33.5375 64.2302 33.8318 64.104 34.1765C63.0278 34.908 61.6488 34.3026 61.0266 33.5627C60.9426 33.1003 61.3714 32.8396 60.7828 32.8228C60.4128 32.5453 59.7318 32.7724 59.303 32.8228C58.5799 32.1501 56.6207 32.7219 55.8556 32.0829C54.6028 32.7555 52.8202 32.9069 50.8107 32.8228C50.2053 32.7555 49.6419 31.9568 49.2131 32.4528C49.1543 32.8396 49.3224 32.9994 49.7008 32.9405C49.8774 33.1339 49.9615 33.4198 50.0708 33.6804C50.3735 33.7477 50.508 33.9831 50.6846 34.1681C50.7182 34.5885 51.2311 34.454 51.2395 34.8071C51.8953 34.9669 51.8701 34.454 52.4671 34.5633C53.3668 34.9753 53.4677 36.1861 53.577 37.3969C54.401 38.1704 54.998 39.1794 55.6706 40.1043C56.5114 40.1716 57.1505 40.4322 57.3943 41.088C56.9655 41.8364 56.5535 43.0135 56.8982 44.1654C57.3354 44.6952 58.2435 44.9474 58.3781 45.763C58.479 46.402 58.1258 46.6459 58.0081 47.3606C58.2435 47.6548 58.6976 47.7389 58.748 48.2182C58.9078 48.9497 59.3618 49.698 59.3618 50.5557C59.3618 51.0686 59.1012 51.4638 59.118 52.0355C59.0003 52.4139 58.521 52.4223 58.5042 52.8931C58.563 53.2463 58.9414 53.2799 58.8741 53.7508C58.8489 54.2216 58.3528 54.2216 58.3781 54.7345C58.9582 55.0961 59.5468 55.4576 59.6057 56.3321C59.8159 56.6936 59.0255 57.2906 59.4795 57.9296C59.8411 57.896 59.8579 58.2071 60.2195 58.1735C60.8164 58.3164 60.5474 57.6017 60.9594 57.5597C61.6236 58.1314 62.5065 58.4678 63.2968 58.9134C63.5239 59.9981 64.8355 60.3428 64.8944 61.377C64.928 61.974 64.5245 62.1337 64.4067 62.7307C64.3479 63.0418 64.5497 63.252 64.2806 63.5884C64.1545 64.1601 64.7767 64.0004 64.6506 64.5721C64.5917 64.8748 64.4236 64.9589 64.4067 65.312C64.3815 65.6988 64.6674 66.2453 64.6506 66.6658C64.6422 66.96 64.6422 67.3216 64.4067 67.5234C64.3395 67.9606 64.844 67.8261 64.7767 68.2633C64.9617 71.1557 64.7935 74.065 65.0205 76.5033C64.7767 76.8817 64.7431 77.4535 64.7767 78.1009C64.7599 78.5381 64.3227 78.5465 64.4067 79.0847C64.8608 79.6732 64.6674 80.5561 64.7767 81.4221C64.8271 81.8509 65.0373 82.1789 65.0205 82.532C64.9953 83.0281 64.7599 83.4905 64.6506 83.8857C64.8187 84.4239 64.7515 84.7097 64.5245 85.1133C64.6338 85.3319 64.9785 85.3151 65.0205 85.601C64.7935 85.9121 64.2218 85.8701 64.2806 86.4586C64.4824 87.0388 65.0458 87.249 65.0205 88.0562C64.9869 88.6364 64.5497 88.8129 64.5245 89.4099C64.6169 89.8135 65.071 89.8471 65.1382 90.2675C65.2728 90.73 64.8355 90.6207 64.8944 91.0075C65.1551 91.1084 65.3316 91.3102 65.2644 91.7474C65.0878 92.0585 65.1046 92.5714 64.8944 92.8573C64.4572 93.387 63.7845 92.9329 63.5407 93.5972C63.1035 94.0765 63.9779 93.9756 63.9106 94.4548C63.835 94.7071 63.65 94.85 63.5407 95.0686C63.9527 95.3965 63.7593 96.3214 64.0284 96.7923C63.9779 97.1875 63.7929 97.4565 63.7845 97.9022C63.9106 98.4739 63.2884 98.3142 63.4146 98.8859C63.7425 99.5838 64.2386 100.114 64.5245 100.853C64.2974 101.509 64.2386 101.938 64.6506 102.451C63.9779 103.258 64.0788 105.049 64.7767 105.772C64.7935 106.151 64.3899 106.125 64.5329 106.63C64.8103 106.933 65.3905 106.933 65.6343 107.252ZM57.7643 12.0462C57.7306 12.0125 57.5793 12.105 57.6381 12.1723C57.6718 12.2059 57.8231 12.1134 57.7643 12.0462ZM60.3456 15.2497C60.2195 14.8881 59.7234 14.8881 59.8495 14.2659C59.2861 14.2827 59.0003 14.5602 58.7396 14.8797C58.7564 15.6449 58.9414 16.2334 58.8657 17.0911C59.118 17.2508 59.0928 17.6881 59.6057 17.5788C59.9756 16.9313 60.2026 16.1325 60.3456 15.2497ZM36.1132 21.0261C36.7102 20.9673 37.8873 21.7156 38.0807 20.9C37.8284 20.5637 36.1888 20.4291 36.1132 21.0261ZM49.6419 22.0099C49.6083 21.9762 49.457 22.0687 49.5158 22.136C49.5579 22.1696 49.7092 22.0771 49.6419 22.0099ZM48.1705 23.1197C48.4648 23.3552 49.1627 23.1954 49.6504 23.2459C49.6756 22.8927 49.6672 22.5732 49.2804 22.6321C49.314 23.4645 48.2126 22.5312 48.1705 23.1197ZM41.528 33.6973C40.5107 33.7897 39.3924 33.5039 38.9467 33.9411C38.6524 33.6552 37.6855 33.5039 37.7191 34.1849C38.1395 34.3951 38.4422 34.0924 39.0729 34.1849C40.1323 34.4792 40.6704 35.2948 41.4103 35.9086C41.9316 35.9338 41.6878 35.2023 42.3941 35.4125C42.7977 35.5386 42.8313 36.0431 43.0079 36.3963C43.3863 36.7326 43.731 36.3879 43.9916 36.8924C44.2607 37.153 43.9328 37.2455 43.9916 37.6323C44.2019 37.9938 44.2775 38.4899 44.2355 39.1121C44.5802 39.6755 45.2192 39.9361 45.4631 40.592C46.1441 40.7349 46.4216 41.273 46.8168 41.7018C46.8336 42.0045 46.6234 42.0802 46.573 42.3156C47.0943 42.6099 47.7333 42.7949 48.0528 43.2994C48.0612 43.703 48.263 43.9132 48.1789 44.4093C48.8095 44.9726 49.457 45.5108 49.4065 46.7468C49.6588 46.9822 50.0876 47.0495 50.3903 47.2344C50.6677 48.193 51.6011 48.4873 51.8617 49.4458C51.9374 50.0512 51.5842 50.2362 51.4918 50.6734C51.5086 51.1106 51.8449 51.2199 51.8617 51.6571C51.7356 51.943 51.3824 52.0019 51.2479 52.2709C51.5842 52.5484 51.8701 52.8763 52.1055 53.2547C52.3914 54.7682 50.7518 54.3646 50.7518 55.5922C51.4665 55.2727 53.0641 55.1465 53.3331 55.9621C53.2827 57.2654 52.383 57.711 51.7356 58.4257C51.7104 58.2408 51.4413 58.3164 51.2479 58.2996C51.1975 59.0395 52.1224 58.8209 52.2317 59.4095C52.3242 59.7879 52.1055 59.8551 52.1055 60.1494C52.3998 60.2251 52.6689 60.326 53.0893 60.2755C53.3752 60.4437 53.5013 60.7716 54.0731 60.6455C53.8797 59.6533 53.8376 58.535 54.9307 58.308C55.6622 58.4762 55.8808 59.1572 56.6544 59.2918C56.7132 58.7032 55.9061 58.9807 56.0406 58.308C56.5451 58.4089 56.6712 58.123 57.1505 58.1819C57.2682 57.4924 56.688 57.5008 56.2928 57.3243C56.6208 55.2474 54.998 53.549 55.5529 51.5394C55.4688 51.2956 54.8634 51.5731 54.813 51.2956C54.6196 50.3875 54.1908 49.698 54.0731 48.7143C54.0394 48.3527 54.3505 48.3359 54.3169 47.9744C54.0899 47.3017 54.4262 46.6627 54.3169 46.133C54.1824 45.5023 53.8292 45.2417 53.577 44.7792C53.3836 44.4261 53.2827 44.0309 53.0809 43.6694C53.0809 43.3414 53.0389 42.9631 53.207 42.8117C52.7866 42.8622 52.5175 42.7613 52.2233 42.6856C51.8281 41.5253 50.92 40.8694 50.6257 39.6082C50.1633 39.2551 49.8185 38.7674 49.5158 38.2545C49.6924 38.1031 49.7513 37.8341 49.7597 37.5146C49.4822 37.38 49.1459 37.3128 48.902 37.1446C49.0113 36.4215 48.2041 36.6149 48.0444 36.1609C47.9099 35.7152 47.6576 35.3957 47.4306 35.051C46.2282 34.7399 45.2949 34.1513 43.6133 34.3111C43.4031 34.0756 43.3358 33.6888 43.1172 33.4534C42.6211 33.3105 42.083 33.6468 41.528 33.6973ZM26.3933 34.4372C25.9224 34.908 24.9975 34.9248 24.9219 35.7909C25.4936 35.8329 25.6029 35.4125 26.0318 35.2948C26.3345 35.0257 26.9735 35.093 27.0155 34.5549C26.7212 34.5969 26.5362 34.5381 26.3933 34.4372ZM16.0596 36.2786C15.9672 36.2533 15.8158 36.2786 15.8158 36.1524C15.0002 36.3206 13.9912 36.2954 13.7222 37.0185C13.8903 37.296 14.1762 37.4725 14.5798 37.5062C14.7984 37.6996 14.832 38.0695 15.1936 38.12C15.3954 38.162 16.0512 38.2713 16.6734 38.2461C16.9257 38.3386 17.1611 38.6329 17.4134 38.3722C17.22 37.4221 16.1942 37.3044 16.0596 36.2786ZM20.8607 58.7873C20.9028 58.7873 20.9448 58.7873 20.9868 58.7873C21.1886 58.5855 21.1382 58.0137 20.743 58.0474C20.6505 58.4257 20.8607 58.5014 20.8607 58.7873C20.4571 58.5098 19.3809 58.3837 19.2632 59.0311C19.2043 59.5777 19.9779 59.3002 20.1208 59.6449C20.1797 60.0401 20.5917 60.0821 20.6085 60.5026C19.9022 60.6959 18.868 60.7632 18.271 61.1164C18.0272 61.2593 17.6488 61.2929 17.901 61.604C18.0608 62.1253 18.5148 61.5956 19.0109 61.7302C19.734 61.9067 20.7682 61.4106 20.9784 61.8563C20.7262 62.6466 19.0782 62.2094 18.5148 62.3524C18.1112 63.2184 18.5653 64.261 18.1449 65.1775C18.4812 65.2532 18.725 65.4213 18.8848 65.6652C19.3725 65.6988 19.2632 65.1439 19.7424 65.1775C19.8938 65.4718 20.7094 65.1102 20.8523 65.4213C20.3646 65.9595 19.465 66.0856 19.0025 66.6489C19.0193 67.1534 18.7923 67.4225 18.8764 68.0027C19.137 68.3558 19.465 68.6501 19.6163 69.1125C19.6668 69.575 19.0193 69.7095 19.3725 70.0963C19.8433 70.853 21.4913 70.441 21.7099 71.45C21.7099 71.9797 21.4241 72.232 21.4661 72.8037C21.794 73.0476 22.2649 73.1569 22.0799 73.9136C22.2649 74.0566 22.5844 74.065 22.6937 74.2836C22.6937 74.6115 22.6937 74.9394 22.6937 75.2673C22.9964 75.5953 23.0805 76.0241 23.3075 76.3772C23.5009 76.6799 23.9717 76.8733 23.9213 77.361C24.224 77.588 24.6192 77.7309 24.7789 78.1009C25.46 79.3453 26.5026 80.2282 27.3602 81.296C27.7807 81.3296 28.0665 81.4894 28.5878 81.4221C29.6221 82.3134 31.5307 82.3302 33.1367 82.6497C33.4814 82.759 33.431 83.2635 33.8766 83.2635C34.5408 82.8768 35.6759 82.9861 36.0879 83.5074C35.9114 83.9025 35.4153 83.4149 35.4741 83.8773C35.8273 84.4827 36.5756 84.3314 37.324 84.2473C38.0218 84.1716 38.5179 84.1464 39.0476 84.3734C39.4933 84.1212 39.7876 83.726 39.9053 83.1458C40.2752 82.8599 40.1155 82.0443 40.6452 81.9182C41.2001 81.935 41.2422 82.4647 41.8728 82.4143C42.495 81.7585 42.6968 80.699 43.3526 80.0768C43.319 79.6564 43.4451 79.0762 43.2265 78.8492C42.5538 78.4961 41.116 78.9081 41.1329 77.8655C41.4356 77.2264 41.9737 76.8229 42.7304 76.6379C42.4866 76.1754 42.31 75.8643 42.2427 75.2842C42.2007 74.8974 42.5034 74.3592 42.2427 73.9304C42.5118 73.3839 42.8565 72.9046 43.3526 72.5767C43.5796 71.5341 44.3952 71.0716 44.5802 69.9954C44.4205 69.7011 44.0421 69.6338 44.0925 69.1378C44.1766 68.112 44.4036 67.2375 44.9502 66.6742C44.9586 65.9511 45.1268 65.3709 45.3201 64.8328C45.3201 64.4208 45.3201 64.0088 45.3201 63.6052C45.7321 63.0334 45.4967 61.8058 45.6901 61.0239C45.6733 60.6287 45.4126 60.4857 45.4463 60.0401C45.7405 59.2666 45.7405 58.1987 45.9339 57.3327C45.5808 56.7021 45.3706 55.9285 45.4463 54.8691C44.9081 54.7514 44.4961 54.5075 44.3364 54.0114C44.2439 53.6331 44.5466 53.6499 44.4625 53.2715C44.3027 52.9436 44.1346 52.6157 43.9664 52.2878C43.958 50.4127 43.361 49.1179 42.7388 47.8566C42.7388 47.5708 42.949 47.4951 42.8649 47.1167C42.4698 46.3179 42.2848 45.3174 41.7551 44.6531C41.2506 42.9883 40.2584 41.8027 39.2915 40.592C39.2915 40.4658 39.2915 40.3481 39.2915 40.222C39.056 40.0034 38.7197 39.8857 38.5515 39.6082C38.4086 39.4653 38.4086 39.171 38.4254 38.8683C38.2404 38.7253 37.9209 38.7169 37.8116 38.4983C37.8537 38.2125 37.7948 38.0275 37.6855 37.8845C37.0969 37.8341 36.7942 38.0611 36.3318 38.1284C35.9618 38.0107 35.7853 37.6911 35.2219 37.7584C34.5661 37.9266 34.4652 38.6413 33.7505 38.7422C33.1955 38.759 32.5985 38.2293 32.2706 38.7422C32.3968 39.1121 33.1451 38.8515 33.3805 39.1121C33.2376 39.7932 32.8508 40.222 32.3968 40.592C31.455 40.4322 31.1103 40.861 30.4292 40.9619C30.1686 41.685 29.765 42.2652 29.2016 42.6856C29.3782 43.3162 29.0419 43.3751 28.8317 43.6694C28.6719 43.8964 28.6215 44.4597 28.2179 44.527C27.7638 44.6111 27.6882 44.3168 27.2341 44.4009C26.9398 44.712 27.5452 44.8129 27.478 45.2585C27.1921 45.4687 27.1837 45.948 27.108 46.3684C26.8894 46.6795 26.3513 46.6795 26.2504 47.1083C25.5777 48.6554 26.511 51.3797 24.5267 51.7833C24.5267 52.1953 24.5267 52.6073 24.5267 53.0109C24.3165 53.7844 23.3664 53.818 23.5429 54.9784C23.812 55.239 24.5435 55.0456 24.5267 55.5922C24.3249 56.4582 23.4168 56.618 23.4168 57.6858C23.6691 57.9633 24.0474 58.123 24.1567 58.5434C23.9886 58.8714 24.1147 59.4852 23.7868 59.6533C22.761 60.0737 21.9538 59.2161 20.9616 59.5272C20.8439 59.3843 20.8439 59.0984 20.8607 58.7873ZM18.3971 40.5836C17.9515 40.6929 17.7413 40.3649 17.5395 40.5836C17.6067 41.1301 17.9094 41.4412 17.7833 42.1811C18.498 42.2316 19.0445 42.1223 19.3809 41.8112C19.1875 41.2814 18.5737 41.1553 18.3971 40.5836ZM19.3809 42.3072C19.3304 42.7697 19.4818 43.0303 19.877 43.0472C20.3646 42.9126 20.6001 42.5427 20.6169 41.9373C20.1292 41.9793 19.8181 42.2063 19.3809 42.3072ZM21.1046 44.157C21.6679 44.2411 22.0631 43.7282 21.7184 43.2994C21.3064 43.3499 20.8944 43.8543 21.1046 44.157ZM16.5557 57.9296C16.5557 57.8624 16.4548 57.7867 16.4296 57.9296C16.4296 57.9969 16.5305 58.0726 16.5557 57.9296ZM17.7833 58.0558C18.0356 57.9801 18.641 58.2576 18.5232 57.8119C18.2794 57.8119 18.0272 57.8119 17.7833 57.8119C17.7833 57.8876 17.7833 57.9717 17.7833 58.0558ZM61.3293 62.2346C61.4218 61.604 61.7245 60.0401 61.2032 59.6533C60.8248 59.3675 60.623 59.6786 60.0933 59.8972C60.1858 60.5194 60.3792 61.335 59.8495 61.6208C59.8243 62.1337 60.4549 61.9992 60.3456 62.6046C60.1354 63.0923 59.757 63.4118 59.3618 63.7145C59.3618 64.1265 59.7654 64.1349 59.7318 64.5721C59.6393 65.0178 59.118 65.1691 59.6057 65.5559C60.0849 65.5054 60.2026 65.085 60.7155 65.0682C60.9426 64.6814 61.1107 64.2358 61.2116 63.7145C61.3546 63.5295 61.7245 63.5715 61.6993 63.2184C61.8591 62.6046 61.3209 62.6971 61.3293 62.2346ZM53.7031 62.7307C52.8707 62.1842 51.7272 62.8148 50.8695 62.6046C50.6341 62.6551 50.5584 62.8737 50.2557 62.8484C49.8353 62.6719 49.1963 62.798 49.1459 63.3445C49.5158 63.4286 49.9026 63.4959 50.0035 63.8322C49.7849 63.9415 49.5326 64.1097 49.7597 64.3199C50.096 64.5721 50.8527 64.4124 50.9873 64.076C50.8023 63.9331 50.4828 63.9247 50.3735 63.7061C50.8443 63.3277 51.1975 63.8826 51.6011 63.9499C52.2905 63.7565 53.4088 63.9667 54.1824 64.076C54.5692 63.807 55.1998 63.7818 55.7799 63.7061C55.9229 64.0172 56.4021 63.992 56.5199 64.3199C56.1499 64.6226 55.9733 64.4796 55.41 64.446C54.9812 65.1102 54.031 64.5217 53.8124 65.3036C54.5944 66.0351 56.3012 65.8165 57.0075 65.1775C57.1505 64.5469 56.7553 64.446 56.6376 64.0676C56.7216 63.7061 57.0075 63.5295 56.8814 62.9577C56.0406 62.6719 54.6616 62.1926 53.7031 62.7307ZM52.9632 65.4298C52.9296 65.3961 52.7782 65.4886 52.8371 65.5559C52.8791 65.5895 53.0304 65.497 52.9632 65.4298ZM50.878 65.682C50.878 65.7661 50.878 65.8502 50.878 65.9258C50.9536 65.9342 51.0209 65.9427 51.0041 66.052C51.0882 66.052 51.1722 66.052 51.2479 66.052C51.2563 65.9763 51.2647 65.909 51.374 65.9258C51.374 65.8418 51.374 65.7577 51.374 65.682C51.2984 65.6736 51.2311 65.6652 51.2479 65.5559C51.1638 65.5559 51.0798 65.5559 51.0041 65.5559C50.9873 65.6315 50.9789 65.6988 50.878 65.682ZM51.7356 66.5396C51.0966 66.1529 50.1128 66.1108 49.272 65.9258C48.8516 66.094 48.6246 66.6405 48.902 67.1534C49.5158 67.5066 50.2726 67.0946 50.8695 67.1534C51.4918 67.2123 51.8449 67.4645 52.3494 67.6411C52.753 67.4729 53.3331 67.4729 53.8292 67.3973C54.0226 67.5738 54.401 67.5654 54.5692 67.7672C54.7625 67.9438 54.813 68.2633 55.3091 68.1372C55.6202 67.4982 55.0148 66.8255 54.5692 66.5396C53.7031 66.8003 52.8287 66.4135 51.7356 66.5396ZM59.6057 66.9096C59.5468 67.4225 59.9168 67.4982 60.3456 67.5234C60.4128 67.3384 60.5306 67.2123 60.5894 67.0357C60.354 66.8928 59.8999 66.6321 59.6057 66.9096ZM51.6095 67.7672C51.3236 67.7672 51.0377 67.7672 50.7518 67.7672C50.6089 68.297 51.7524 68.297 51.6095 67.7672ZM59.6057 68.2633C59.6477 69.2891 58.3192 68.9444 57.882 69.4909C58.336 70.1131 57.3607 70.4326 57.6381 70.8446C57.8399 70.8446 58.0501 70.8446 58.2519 70.8446C58.563 70.0459 59.303 69.6843 59.8495 69.121C60.1606 69.3143 60.2615 69.617 60.7071 69.3648C60.951 69.0621 60.8585 68.3054 60.581 68.1372C60.1354 68.0531 60.0681 68.3474 59.6057 68.2633ZM52.2233 69.121C52.0131 69.2387 51.9794 69.5329 51.7356 69.6086C51.332 69.6086 51.1975 69.6423 50.9957 69.7347C50.6677 69.8861 50.1212 69.9786 50.0119 70.2308C50.4323 70.3485 50.735 70.5756 51.3656 70.4747C51.702 70.9119 52.5512 70.8446 53.207 70.9708C53.2491 70.1972 52.156 70.5503 52.2233 69.7432C52.5932 69.2891 53.2154 69.9534 54.0647 69.7432C54.2244 70.0374 54.1571 70.5587 54.6785 70.4831C54.813 70.1131 54.6448 69.6927 54.8046 69.1294C53.6863 68.9023 53.2491 69.348 52.2233 69.121ZM49.8942 70.1047C49.6504 70.1047 49.7344 69.7684 49.3981 69.8609C49.272 70.172 49.8101 70.4074 49.8942 70.1047ZM59.9756 70.9708C60.0345 70.584 59.715 70.5756 59.3618 70.6008C59.303 70.9876 59.6225 70.996 59.9756 70.9708ZM48.0444 76.0157C47.481 75.8895 46.7916 75.8727 46.4468 75.5196C45.976 76.1586 47.8342 76.8481 48.0444 76.0157ZM149.775 107.252C149.397 107.244 148.968 107.185 149.035 107.622C149.405 107.63 149.657 107.513 149.775 107.252C150.095 107.286 150.305 107.21 150.263 106.882C149.96 106.865 149.876 107.076 149.775 107.252ZM148.295 107.622C148.262 107.588 148.11 107.681 148.169 107.748C148.211 107.782 148.362 107.689 148.295 107.622Z" fill="#383F48"/>
<path fill-rule="evenodd" clip-rule="evenodd" d="M25.4095 62.6046C25.4095 62.9325 25.4095 63.2604 25.4095 63.5884C25.687 64.1265 25.9477 64.6898 26.1495 65.312C26.3092 65.724 26.8473 65.7661 27.1332 66.052C27.2257 66.3883 26.8894 66.2958 26.8894 66.5396C27.2593 66.9937 27.6377 67.4309 27.8731 68.0111C28.2767 68.5492 28.8149 68.9612 28.983 69.7347C29.1512 70.0963 29.58 70.1972 29.5968 70.7185C29.9331 70.8362 30.1181 71.0969 30.4545 71.2146C30.4376 71.5173 30.6478 71.593 30.6983 71.8284C31.3457 72.417 31.8586 73.1317 32.5397 73.6698C33.7084 73.4512 34.7931 73.6025 35.6171 74.0397C36.172 74.0986 36.6261 74.2584 36.6008 74.8974C36.357 75.1076 35.6003 75.0739 35.491 74.7713C34.7595 75.0487 34.0448 74.6956 33.2796 75.0151C33.4225 75.6121 34.0532 75.713 34.2634 76.2427C34.4904 76.2595 34.6754 76.3268 34.7595 76.4865C34.9612 76.4865 35.1715 76.4865 35.3732 76.4865C35.6844 76.5033 35.8021 76.7135 35.987 76.8565C36.5588 76.5706 37.5005 76.6547 38.1984 76.4865C38.417 76.8817 38.9635 76.9574 39.3083 77.2264C39.3924 77.815 39.4933 78.2691 39.3083 78.824C38.5011 79.5807 37.0801 79.9255 35.1294 79.8078C34.0952 79.7489 33.1451 79.606 32.422 79.194C32.1025 78.5297 32.01 77.6384 30.8244 77.8402C30.4797 77.8571 30.5133 77.4955 30.3367 77.3526C29.9752 77.3862 29.9584 77.0751 29.5968 77.1087C29.5968 76.7388 29.2773 76.6883 29.2269 76.3688C27.2173 75.301 26.3513 73.0896 24.678 71.6939C24.6024 71.2062 25.006 71.1978 24.9219 70.7101C24.9219 70.3401 24.3417 70.5503 24.1819 70.3401C24.2156 69.7432 23.8456 69.1966 24.3081 68.8603C24.4426 68.3978 24.0054 68.5072 24.0642 68.1204C24.0054 67.5654 24.5015 67.5738 24.5603 67.1366C24.1988 66.6321 24.6612 66.0604 24.0642 65.7829C23.5682 65.7409 23.8708 66.4976 23.3243 66.3967C23.1057 66.136 23.0468 66.0351 23.1982 65.6568C23.2991 65.3877 23.7784 65.497 23.812 65.1691C23.7868 64.6226 23.1057 64.7319 22.8282 64.4292C22.803 63.7481 23.0637 63.3529 23.1982 62.8316C23.2066 62.3355 22.4499 62.798 22.4583 62.5878C22.0715 62.3187 21.4493 62.2767 21.3484 61.7302C21.6511 61.4947 21.9958 61.2341 22.4583 61.4863C23.0216 61.3518 23.3159 61.007 23.9381 61.2425C24.2072 61.9235 24.5603 62.5121 25.4095 62.6046Z" fill="#383F48"/>
</svg>
