<svg width="873" height="149" viewBox="0 0 873 149" fill="none" xmlns="http://www.w3.org/2000/svg">
<path d="M257.911 89.4338C242.609 104.736 227.316 120.029 212.013 135.331C209.556 133.66 207.135 131.951 204.732 130.206C205.052 129.887 205.363 129.576 205.682 129.256C205.171 128.891 204.659 128.525 204.148 128.16C203.837 128.47 203.526 128.781 203.216 129.092C200.831 127.329 198.474 125.538 196.154 123.693C196.437 123.409 196.729 123.117 197.013 122.834C192.189 119.106 187.512 115.196 182.98 111.14C182.724 111.396 182.469 111.652 182.213 111.908C180.011 109.925 177.846 107.906 175.727 105.86C175.973 105.613 176.229 105.357 176.476 105.111C174.036 102.763 171.634 100.36 169.286 97.9209C169.039 98.1675 168.783 98.4233 168.537 98.67C166.481 96.5414 164.462 94.3762 162.489 92.1837C162.745 91.9279 163.001 91.6721 163.256 91.4163C159.2 86.885 155.29 82.2075 151.563 77.3839C151.28 77.6671 150.987 77.9595 150.704 78.2427C148.868 75.9131 147.068 73.5652 145.305 71.1808C145.615 70.8702 145.926 70.5596 146.237 70.249C145.871 69.7374 145.506 69.2258 145.14 68.7142C144.821 69.0339 144.51 69.3445 144.19 69.6643C142.445 67.2616 140.737 64.8406 139.065 62.3832C139.412 62.036 139.76 61.6888 140.098 61.3508C154.705 46.7429 169.313 32.135 183.921 17.5271C184.268 17.1799 184.616 16.8328 184.954 16.4948C187.411 18.1666 189.832 19.8749 192.235 21.6199C191.915 21.9396 191.604 22.2502 191.285 22.57C191.796 22.9354 192.308 23.3008 192.819 23.6662C193.13 23.3556 193.441 23.045 193.751 22.7344C196.136 24.4976 198.493 26.2882 200.813 28.1336C200.53 28.4168 200.238 28.7091 199.954 28.9923C204.778 32.7197 209.455 36.6297 213.987 40.686C214.243 40.4302 214.498 40.1744 214.754 39.9186C216.956 41.901 219.121 43.92 221.24 45.9664C220.994 46.213 220.738 46.4688 220.491 46.7155C222.931 49.0634 225.333 51.466 227.681 53.9053C227.928 53.6586 228.184 53.4028 228.43 53.1561C230.486 55.2847 232.505 57.4499 234.478 59.6425C234.222 59.8983 233.966 60.1541 233.711 60.4099C237.767 64.9411 241.677 69.6186 245.404 74.4422C245.687 74.159 245.98 73.8667 246.263 73.5835C248.099 75.9131 249.899 78.2609 251.662 80.6453C251.352 80.9559 251.041 81.2666 250.73 81.5772C251.096 82.0888 251.461 82.6004 251.827 83.112C252.146 82.7922 252.457 82.4816 252.777 82.1619C254.531 84.5554 256.239 86.9763 257.911 89.4338ZM188.133 21.9579L185.209 19.8749C185.209 19.8749 177.17 27.9143 172.995 32.0893C173.79 32.9572 174.585 33.8434 175.379 34.7113L188.133 21.9579ZM196.702 28.4807L193.888 26.2516L174.95 45.1899C174.95 45.1899 176.339 47.1632 177.143 48.0402L196.702 28.4807ZM254.494 89.1598L252.411 86.2364C252.411 86.2364 243.915 94.7325 239.658 98.9897C240.535 99.7937 241.403 100.588 242.28 101.374L254.494 89.1598ZM248.108 80.4718L245.879 77.658C245.879 77.658 232.77 90.7677 226.32 97.2174C227.206 98.0122 229.17 99.41 229.17 99.41L248.108 80.4718ZM217.193 46.2496L214.581 43.8012L191.011 67.3712C191.011 67.3712 192.545 69.2166 193.377 70.0662L217.193 46.2496ZM230.568 59.7886L228.12 57.1758C228.12 57.1758 212.205 73.0901 204.303 80.9925C205.153 81.8238 206.998 83.3586 206.998 83.3586L230.568 59.7886ZM197.241 31.6691L180.678 48.232C184.405 53.0556 188.297 57.7514 192.353 62.2827L211.301 43.3353C206.751 39.2791 202.065 35.3781 197.241 31.6691ZM231.025 63.0592L212.068 82.0157C216.609 86.081 221.304 89.9728 226.119 93.691L242.691 77.119C238.982 72.2953 235.081 67.6088 231.025 63.0592ZM221.441 52.9277C220.245 51.731 219.03 50.5525 217.805 49.3831L198.383 68.8055C199.552 70.0297 200.731 71.2447 201.928 72.4415C203.124 73.6383 204.339 74.8168 205.564 75.9861L224.986 56.5637C223.817 55.3396 222.638 54.1245 221.441 52.9277Z" fill="#DE5947"/>
<path fill-rule="evenodd" clip-rule="evenodd" d="M435.069 80.3843L430.767 84.6872L433.471 89.1271L430.164 92.4342L425.724 89.7301L380.813 134.641L383.517 139.081L380.21 142.388L375.77 139.684L371.467 143.987L370.179 145.275L359.043 132.987L360.331 131.699L346.015 115.904L344.727 117.192L339.054 110.934L340.342 109.646L335.208 103.982L333.919 105.27L328.246 99.0119L329.534 97.7238L324.4 92.0597L323.112 93.3478L317.439 87.0899L318.727 85.8017L313.593 80.1376L312.305 81.4258L306.631 75.1678L307.919 73.8797L302.785 68.2156L301.497 69.5037L295.824 63.2458L297.112 61.9577L353.013 6.05658L354.301 4.76845L360.559 10.4417L359.271 11.7298L364.935 16.8641L366.223 15.5759L372.481 21.2492L371.193 22.5373L376.857 27.6715L378.145 26.3834L384.403 32.0567L383.115 33.3448L388.779 38.479L390.067 37.1909L396.325 42.8641L395.037 44.1523L400.701 49.2865L401.989 47.9984L408.247 53.6716L406.959 54.9597L422.755 69.2753L424.043 67.9872L436.33 79.1236L435.069 80.3843V80.3843ZM354.118 8.51406L334.029 28.6034L336.459 31.0335L356.549 10.9441L354.118 8.51406ZM401.871 51.6435L378.83 74.6836L381.26 77.1137L404.301 54.0736L401.871 51.6435ZM390.031 40.7721L367.475 63.328L369.905 65.7581L392.461 43.2022L390.031 40.7721ZM378.145 29.9281L356.11 51.9633L358.54 54.3933L380.575 32.3581L378.145 29.9281ZM366.068 19.2941L344.754 40.6076L347.184 43.0377L368.498 21.7242L366.068 19.2941V19.2941ZM430.273 76.794L405.607 101.46L408.037 103.89L432.703 79.2241L430.273 76.794ZM423.979 71.5775L399.852 95.7048L402.282 98.1349L426.409 74.0076L423.979 71.5775ZM389.446 87.8755C385.189 83.6183 379.397 82.522 376.501 85.418C373.605 88.314 374.71 94.1152 378.958 98.3633C383.215 102.62 389.008 103.717 391.904 100.821C394.8 97.9247 393.694 92.1236 389.446 87.8755ZM379.223 70.7644L398.545 51.4425L392.89 46.2991L373.879 65.3105L379.223 70.7644ZM400.025 92.0048L420.544 71.4862L404.785 57.134L385.125 76.794L400.025 92.0048ZM367.995 59.2992L386.669 40.6259L381.005 35.4734L362.642 53.8361L367.995 59.2992ZM357.215 13.8036L340.141 30.8782L345.485 36.3321L362.861 18.9561L357.215 13.8036ZM356.731 47.8157L374.756 29.791L369.101 24.6476L351.387 42.3617L356.731 47.8157Z" fill="#C64375"/>
<path fill-rule="evenodd" clip-rule="evenodd" d="M501.641 38.8425C501.687 38.7968 501.741 38.742 501.787 38.6963C501.915 38.5684 502.052 38.4496 502.198 38.3217C502.454 38.1025 502.719 37.8924 502.993 37.6914C503.779 37.125 504.647 36.6773 505.551 36.3393C506.693 35.9282 507.899 35.7089 509.096 35.6998C510.302 35.6815 511.517 35.8734 512.649 36.2571C513.609 36.5768 514.522 37.0336 515.344 37.6183C516.295 38.2761 517.144 39.1074 517.839 40.0392C518.496 40.9163 519.017 41.912 519.373 42.9444C519.784 44.1411 519.985 45.4201 519.949 46.6991C519.921 48.0421 519.638 49.3667 519.118 50.6001C518.834 51.267 518.478 51.9156 518.076 52.5185C518.058 52.5368 518.04 52.5734 518.021 52.5916C517.528 53.3042 517.638 54.2726 518.277 54.8573C519.108 55.6704 520.323 55.9718 521.447 55.6338C525.832 54.4096 537.69 52.4911 548.416 63.2164C561.891 76.6915 561.37 76.1708 561.37 76.1708C561.37 76.1708 572.726 88.2024 566.897 101.376C570.222 105.524 561.882 115.6 555.368 122.114C548.845 128.637 538.777 136.969 534.63 133.643C521.456 139.472 509.425 128.116 509.425 128.116C509.425 128.116 509.945 128.637 496.47 115.162C485.745 104.436 487.663 92.5784 488.888 88.1933C489.226 87.0696 488.924 85.8546 488.111 85.0232C487.426 84.2832 486.448 83.1961 485.087 81.6339C484.238 80.6929 483.845 79.4231 484 78.1532C485.809 63.3169 475.166 53.3133 473.43 51.7786C473.284 51.6507 473.074 51.605 472.891 51.6781C472.517 51.7968 471.886 52.007 471.393 52.1714C470.982 52.3084 470.534 52.1897 470.242 51.8608C468.634 50.0885 463.39 44.2782 461.362 42.0308C460.905 41.5192 460.923 40.7518 461.408 40.2676L461.819 39.8565C461.408 40.0118 460.933 39.9205 460.604 39.5916C460.165 39.1531 460.156 38.4496 460.576 37.9928L460.138 37.5543C460.138 37.5543 457.836 36.1475 456.356 35.2339C456.063 35.0512 455.871 34.7497 455.826 34.4117C455.789 34.0645 455.908 33.7265 456.155 33.4798L460.393 29.2409L460.384 29.25L462.751 26.8839L460.393 29.2409L466.752 22.8825C466.999 22.6358 467.337 22.517 467.684 22.5536C468.031 22.5901 468.332 22.782 468.506 23.0834C469.42 24.5634 470.826 26.8656 470.826 26.8656L471.265 27.3041C471.722 26.8839 472.425 26.893 472.864 27.3315C473.193 27.6604 473.284 28.1355 473.129 28.5466L473.54 28.1355C474.024 27.6513 474.81 27.633 475.303 28.0898C477.559 30.1271 483.361 35.3618 485.133 36.9696C485.453 37.2529 485.581 37.7097 485.443 38.1208C485.288 38.6049 485.069 39.2444 484.95 39.619C484.886 39.8109 484.923 40.0118 485.051 40.158C485.48 40.6422 486.558 41.8116 488.202 43.2185C488.979 43.8854 490.084 44.0406 491.025 43.6113C494.269 42.177 501.641 38.8425 501.641 38.8425ZM518.798 62.3394C517.674 66.3317 516.075 76.6458 525.54 86.1103L538.449 99.019C539.042 99.558 549.357 108.648 560.064 103.916L563.91 100.07C568.66 89.3444 559.515 79.012 559.013 78.4547L546.104 65.546C536.658 56.0997 526.326 57.6802 522.397 58.7765L518.798 62.3394ZM505.478 42.8256C505.286 43.0175 505.122 43.2185 504.976 43.4377C504.701 43.8214 504.491 44.2325 504.336 44.6802C503.971 45.7034 503.934 46.8544 504.245 47.8959C504.373 48.3527 504.574 48.7912 504.82 49.184C505.167 49.7504 505.633 50.2346 506.163 50.6366C506.574 50.9381 507.031 51.1756 507.506 51.3401C508.118 51.5502 508.749 51.6506 509.388 51.6324C510.028 51.6141 510.658 51.4771 511.252 51.2304C511.882 50.9655 512.458 50.5727 512.942 50.0885C513.426 49.6043 513.801 49.0287 514.066 48.3984C514.312 47.8045 514.431 47.1742 514.44 46.5255C514.458 45.8861 514.349 45.2466 514.129 44.6436C513.956 44.1594 513.709 43.7118 513.399 43.3098C512.988 42.7708 512.485 42.3049 511.909 41.9669C511.489 41.7111 511.023 41.5192 510.539 41.4005C509.507 41.1355 508.411 41.1903 507.415 41.5649C506.976 41.7293 506.556 41.9486 506.191 42.2227C505.98 42.378 505.77 42.5515 505.578 42.7434C505.542 42.7617 505.515 42.7891 505.478 42.8256ZM481.579 37.801L474.828 31.6527C474.572 31.4152 474.161 31.4243 473.914 31.671L470.799 34.7862C470.543 35.042 470.543 35.4623 470.799 35.7181L477.249 42.1678C477.505 42.4236 477.925 42.4237 478.181 42.1679L481.597 38.7511C481.871 38.4953 481.853 38.0568 481.579 37.801Z" fill="#B22F9E"/>
<path fill-rule="evenodd" clip-rule="evenodd" d="M717.015 102.297C720.413 105.696 716.549 115.06 708.4 123.209C700.251 131.358 690.887 135.222 687.488 131.824C684.373 128.709 687.36 120.569 694.176 112.95L666.787 85.5609C665.7 84.4738 664.201 83.8891 662.667 83.9439L640.778 84.7113C636.703 84.8575 632.802 82.9847 630.381 79.705L601.96 41.3444L626.535 16.7694L664.896 45.1905C668.185 47.6206 670.048 51.5123 669.902 55.5868L669.135 77.4759C669.08 79.0107 669.665 80.5089 670.752 81.5961L698.14 108.985C705.76 102.17 713.899 99.1822 717.015 102.297ZM625.347 22.8172L619.053 29.1117L653.248 63.3065L661.918 54.6367L625.347 22.8172Z" fill="#9C1BC8"/>
<path fill-rule="evenodd" clip-rule="evenodd" d="M3.74562 59.9468C3.31624 60.3761 2.73156 60.2665 2.31132 59.8463C1.89108 59.426 1.89108 58.7317 2.31132 58.3115L34.5876 26.0352C35.017 25.6058 35.7113 25.6058 36.1315 26.0261C36.5518 26.4463 36.6523 27.0401 36.232 27.4604L44.4998 31.5988C44.9018 31.7998 45.2763 32.0647 45.5961 32.3845C50.2918 37.0802 87.8393 74.6278 98.053 84.8414C99.5421 86.3305 99.8436 88.6236 98.8021 90.4325C99.5239 91.8485 99.4782 93.5751 98.6012 94.982C91.6124 106.137 82.495 115.217 71.2947 122.288C69.8878 123.166 68.152 123.22 66.736 122.499C64.9088 123.54 62.6158 123.239 61.1267 121.749C50.9039 111.527 13.3746 73.9974 8.67888 69.3017C8.35913 68.9819 8.09419 68.6074 7.89321 68.2054L3.74562 59.9468ZM31.8104 42.9727L41.3663 33.4168L34.3775 29.9909L26.603 37.7654L31.8104 42.9727ZM94.0699 86.1204L44.0704 36.121L34.5145 45.6769L87.547 98.7094C91.521 94.7354 93.6039 91.3186 94.6089 89.327C95.1387 88.2673 94.9195 86.97 94.0699 86.1204Z" fill="#FD760A"/>
<path d="M817.279 57.146L866.867 106.734C870.083 109.95 870.083 115.157 866.867 118.373L851.199 134.041C847.984 137.257 842.776 137.257 839.56 134.041L789.972 84.4525C788.364 82.8446 787.085 80.9627 786.19 78.8797L776.524 56.3877C775.492 53.985 774.058 51.7651 772.285 49.8283L758.207 34.4895L757.659 34.5078C756.481 34.5535 755.467 33.649 755.385 32.4705L755.238 30.3876C755.211 30.0131 754.973 29.7024 754.626 29.5563L753.813 29.2548C752.854 28.8985 752.589 27.6652 753.311 26.9435L759.761 20.4937C760.482 19.772 761.716 20.0369 762.072 20.9961L762.373 21.8092C762.501 22.1564 762.83 22.3939 763.205 22.4213L765.288 22.5675C766.466 22.6497 767.38 23.6546 767.325 24.8423L767.307 25.3904L782.645 39.4685C784.582 41.2408 786.793 42.666 789.205 43.7074L811.697 53.3729C813.789 54.2591 815.68 55.5472 817.279 57.146ZM810.409 56.3786L787.917 46.713C785.158 45.5254 782.645 43.9084 780.444 41.8711L763.981 26.7608L764.018 25.7558L762.985 25.6919C761.99 25.6279 761.058 25.2077 760.363 24.5316L759.021 25.8746C759.715 26.5506 760.528 27.0714 761.341 27.3363L762.172 27.6012L762.355 28.3869L778.525 43.7714C780.699 45.836 783.02 47.6449 785.45 49.1614L805.265 61.5037C806.773 62.4447 808.207 63.5866 809.522 64.9021L859.111 114.491C861.048 116.427 861.705 118.912 860.572 120.045L864.556 116.062C866.492 114.125 866.492 110.982 864.556 109.046L814.967 59.4573C813.652 58.1418 812.126 57.1094 810.409 56.3786Z" fill="#8001FF"/>
</svg>
