<svg width="164" height="182" viewBox="0 0 164 182" fill="none" xmlns="http://www.w3.org/2000/svg">
<path d="M15.48 115.282H18.34C20.72 115.282 21.91 116.592 21.91 118.462C21.91 119.692 21.4 120.672 20.28 121.192L22.57 124.212H20.73L18.84 121.582C18.59 121.612 18.32 121.622 18.04 121.622H17.06V124.212H15.48V115.282V115.282ZM17.05 116.732V120.232H18.22C19.69 120.232 20.2 119.442 20.2 118.462C20.2 117.482 19.7 116.732 18.22 116.732H17.05Z" fill="#B53238"/>
<path d="M31.26 115.132C34.03 115.132 36.04 117.072 36.04 119.742C36.04 122.372 33.99 124.352 31.26 124.352C28.53 124.352 26.49 122.382 26.49 119.742C26.49 117.162 28.58 115.132 31.26 115.132ZM31.27 122.972C33 122.972 34.35 121.582 34.35 119.772C34.35 117.942 33.07 116.552 31.27 116.552C29.5 116.552 28.19 117.942 28.19 119.772C28.2 121.562 29.54 122.972 31.27 122.972Z" fill="#B53238"/>
<path d="M45.12 115.132C47.89 115.132 49.9 117.072 49.9 119.742C49.9 122.372 47.85 124.352 45.12 124.352C42.39 124.352 40.35 122.382 40.35 119.742C40.35 117.162 42.44 115.132 45.12 115.132ZM45.13 122.972C46.86 122.972 48.21 121.582 48.21 119.772C48.21 117.942 46.93 116.552 45.13 116.552C43.36 116.552 42.05 117.942 42.05 119.772C42.06 121.562 43.4 122.972 45.13 122.972Z" fill="#B53238"/>
<path d="M53.4 115.282H60.91V116.732H57.97V124.222H56.38V116.732H53.4V115.282Z" fill="#B53238"/>
<path d="M107.61 115.282H110.47C112.77 115.282 113.8 116.232 113.8 117.642C113.8 118.612 113.24 119.292 112.24 119.652C113.47 120.012 114.04 120.732 114.04 121.682C114.04 123.272 112.5 124.212 110.47 124.212H107.61V115.282ZM109.18 116.732V119.162H110.31C111.59 119.172 112.15 118.512 112.15 117.842C112.15 117.232 111.69 116.732 110.54 116.732H109.18V116.732ZM109.18 120.292V122.772H110.54C111.87 122.772 112.33 122.192 112.33 121.522C112.33 120.912 111.82 120.292 110.16 120.292H109.18Z" fill="#B53238"/>
<path d="M119.02 115.282H124.83V116.732H120.6V119.232H124.44V120.632H120.6V122.772H124.83V124.222H119.02V115.282Z" fill="#B53238"/>
<path d="M129.96 115.282H135.77V116.732H131.54V119.232H135.38V120.632H131.54V122.772H135.77V124.222H129.96V115.282Z" fill="#B53238"/>
<path d="M140.9 115.282H143.76C146.14 115.282 147.33 116.592 147.33 118.462C147.33 119.692 146.82 120.672 145.7 121.192L147.99 124.212H146.15L144.26 121.582C144.01 121.612 143.74 121.622 143.46 121.622H142.48V124.212H140.9V115.282ZM142.47 116.732V120.232H143.64C145.11 120.232 145.62 119.442 145.62 118.462C145.62 117.482 145.12 116.732 143.64 116.732H142.47Z" fill="#B53238"/>
<path d="M22.14 25.882L21.16 26.202L12.67 16.972L11.27 29.402L10.31 29.712L0 15.102L3.13 14.092L9.48 23.332L10.43 11.542L11.37 11.242L19.09 20.192L18.79 9.01196L21.87 8.01196L22.14 25.882Z" fill="#B53238"/>
<path d="M31.56 5.90197L34.47 5.27197L38.06 21.762L35.15 22.392L31.56 5.90197Z" fill="#B53238"/>
<path d="M45.75 2.97194L46.68 2.85194L58.42 12.3119L57.05 1.62194L60 1.24194L62.16 18.0919L61.37 18.1919L49.53 9.05194L50.86 19.4319L47.91 19.8119L45.75 2.97194Z" fill="#B53238"/>
<path d="M86.83 8.20196L86.94 15.422C86.94 15.422 84.45 17.382 80.44 17.442C74.73 17.532 70.88 13.842 70.8 8.85196C70.73 3.98196 74.78 0.0819564 79.77 0.00195642C83.54 -0.0580436 85.74 1.28196 85.74 1.28196L84.75 3.84196C84.75 3.84196 82.55 2.77196 80.32 2.80196C76.36 2.86196 73.97 5.39196 74.03 8.85196C74.08 12.232 76.71 14.692 80.22 14.642C81.78 14.622 83.14 14.262 84.05 13.912L84 10.912L79.3 10.982L79.26 8.32196L86.83 8.20196Z" fill="#B53238"/>
<path d="M113.08 19.172L110.17 18.872L111.09 9.22197L104.9 18.482L103.87 18.372L99.63 8.21197L98.61 17.692L95.72 17.392L97.93 0.58197L99.24 0.72197L104.95 13.662L113.01 2.13197L114.32 2.27197L113.08 19.172Z" fill="#B53238"/>
<path d="M123.61 21.0719L120.56 20.4019L131.95 5.48193L132.61 5.62193L136.69 23.9419L133.57 23.2519L132.84 19.6519L125.76 18.0919L123.61 21.0719ZM127.31 16.0119L132.33 17.1119L131.07 10.8919L127.31 16.0119Z" fill="#B53238"/>
<path d="M149.68 10.0419L150.57 10.3419L156.98 23.9819L160.43 13.7719L163.25 14.7219L157.82 30.8219L157.07 30.5719L150.43 17.1619L147.08 27.0719L144.26 26.1219L149.68 10.0419Z" fill="#B53238"/>
<path d="M143.12 66.322C142.02 66.322 94.42 66.322 92.65 66.322C90.05 66.322 90.05 63.422 90.05 60.342C90.05 51.022 86.93 48.382 86.93 48.382C86.93 47.832 86.75 47.102 86.47 46.312H102.63V44.312H85.59C84.57 42.352 83.21 40.572 82.38 40.572C81.55 40.572 80.18 42.352 79.17 44.312H62.33V46.312H78.29C78.01 47.102 77.83 47.832 77.83 48.382C77.83 48.382 74.71 51.022 74.71 60.342C74.71 63.422 74.71 66.322 72.11 66.322C70.35 66.322 22.75 66.322 21.64 66.322C17.79 66.322 12.58 66.362 12.58 72.922C12.58 84.362 22.74 86.782 22.74 86.782C22.74 86.782 62.24 96.392 65.1 97.122C67.96 97.852 75.33 99.392 76.32 106.992C77.01 112.252 77.87 127.742 78.42 134.722C76.65 134.902 69.05 135.702 67.18 135.932C64.46 136.262 61.57 138.492 61.57 141.982C61.57 145.502 64.67 147.882 67.75 148.672C69.72 149.182 72.39 149.512 74.16 149.732C74.77 149.812 75.29 149.872 75.65 149.932C75.89 149.972 76.13 149.992 76.36 149.992C77.71 149.992 78.8 149.352 79.42 148.172C79.59 147.852 80.56 145.462 81.22 143.842C81.62 144.592 81.92 145.122 81.98 145.222C82.13 145.452 82.3 145.482 82.36 145.482C82.38 145.482 82.38 145.482 82.38 145.482C82.38 145.482 82.39 145.482 82.4 145.482C82.46 145.482 82.63 145.462 82.78 145.222C82.84 145.132 83.14 144.592 83.54 143.842C84.2 145.472 85.17 147.852 85.34 148.172C85.96 149.352 87.05 149.992 88.4 149.992C88.63 149.992 88.86 149.972 89.11 149.932C89.47 149.872 89.99 149.812 90.6 149.732C92.37 149.512 95.04 149.172 97 148.672C100.08 147.882 103.18 145.502 103.18 141.982C103.18 138.492 100.29 136.252 97.57 135.932C95.7 135.702 88.1 134.912 86.33 134.722C86.87 127.742 87.74 112.262 88.43 106.992C89.42 99.402 96.79 97.862 99.65 97.122C102.51 96.392 142.01 86.782 142.01 86.782C142.01 86.782 152.17 84.362 152.17 72.922C152.17 66.362 146.97 66.322 143.12 66.322ZM82.38 42.962C83.33 44.102 84.66 46.652 84.88 48.022C83.39 47.892 81.37 47.892 79.88 48.022C80.1 46.652 81.43 44.102 82.38 42.962ZM76.72 60.342C76.72 52.762 78.9 50.162 79.16 49.892L79.84 49.392V49.022C81.29 48.882 83.4 48.882 84.87 49.012L84.84 49.302L85.62 49.882C85.87 50.152 88.06 52.742 88.06 60.332C88.06 63.312 88.06 68.312 92.66 68.312H103.74V88.262L98.48 89.102H89.5V81.652C89.5 79.542 87.78 77.822 85.67 77.822H78.49C76.38 77.822 74.66 79.542 74.66 81.652V89.102L66.36 89.112L61.02 88.252V68.322H72.1C76.72 68.322 76.72 63.332 76.72 60.342ZM88.5 81.672V91.572C88.5 93.132 87.23 94.402 85.67 94.402H78.49C76.93 94.402 75.66 93.132 75.66 91.572V81.672C75.66 80.112 76.93 78.842 78.49 78.842H85.67C87.23 78.842 88.5 80.112 88.5 81.672ZM14.59 72.922C14.59 68.772 16.85 68.322 21.65 68.322H60.03V88.112L45.52 85.782V84.492L20.75 80.762V83.842C18.2 82.462 14.59 79.372 14.59 72.922ZM21.75 84.332V81.922L44.52 85.352V90.032C34.29 87.542 24.04 85.042 23.21 84.842C23.12 84.822 22.56 84.682 21.75 84.332ZM77.78 104.412H81.88V140.692C81.34 139.542 80.86 138.372 80.71 137.632C80.53 136.722 80.16 131.152 79.81 125.772C79.33 118.542 78.79 110.352 78.31 106.722C78.2 105.902 78.01 105.132 77.78 104.412ZM75.96 147.952C75.58 147.892 75.05 147.822 74.41 147.752C72.69 147.532 70.1 147.212 68.25 146.742C66.06 146.182 63.87 144.622 63.62 142.402H68.09V145.102H78.54C78.08 146.232 77.72 147.102 77.64 147.252C77.32 147.862 76.79 148.082 75.96 147.952ZM79.84 141.902C79.55 142.632 79.24 143.382 78.95 144.092H69.09V141.392H63.64C63.97 139.172 66.05 138.082 67.42 137.912C69.26 137.692 76.74 136.902 78.59 136.712C78.65 137.332 78.7 137.782 78.75 138.022C78.96 139.092 79.64 140.682 80.33 142.092L79.84 141.902ZM96.51 146.742C94.67 147.212 92.07 147.542 90.35 147.752C89.72 147.832 89.18 147.902 88.8 147.952C87.97 148.082 87.43 147.852 87.11 147.242C87.03 147.082 86.67 146.222 86.21 145.082H96.7V142.382H101.14C100.89 144.622 98.7 146.172 96.51 146.742ZM97.33 137.912C98.7 138.082 100.79 139.172 101.11 141.392H95.7V144.092H85.81C85.52 143.382 85.22 142.632 84.92 141.902L84.43 142.102C85.12 140.692 85.8 139.102 86.01 138.032C86.06 137.802 86.11 137.342 86.17 136.722C88.02 136.912 95.49 137.692 97.33 137.912ZM84.95 125.782C84.59 131.162 84.22 136.732 84.05 137.642C83.91 138.382 83.42 139.552 82.88 140.692V104.412H86.98C86.75 105.132 86.55 105.892 86.45 106.732C85.98 110.362 85.43 118.552 84.95 125.782ZM99.16 95.192L98.79 95.282C96.16 95.942 89.83 97.552 87.35 103.412H77.41C74.93 97.552 68.59 95.942 65.97 95.282L65.6 95.192C64.25 94.842 55.02 92.592 45.51 90.272V86.792L66.28 90.112H74.66V91.562C74.66 93.672 76.38 95.392 78.49 95.392H85.67C87.78 95.392 89.5 93.672 89.5 91.562V90.112L98.56 90.102L119.25 86.782V90.262C109.74 92.592 100.51 94.852 99.16 95.192ZM141.54 84.842C140.72 85.042 130.47 87.532 120.24 90.032V85.352L143.01 81.922V84.312C142.2 84.672 141.63 84.822 141.54 84.842ZM144.01 83.812V80.762L119.24 84.492V85.782L104.73 88.112V68.322H143.11C147.91 68.322 150.17 68.772 150.17 72.922C150.17 79.312 146.57 82.412 144.01 83.812Z" fill="#B53238"/>
<path d="M27.37 79.6919C29.98 79.6919 32.1 77.5719 32.1 74.9619C32.1 72.3519 29.98 70.2319 27.37 70.2319C24.76 70.2319 22.64 72.3519 22.64 74.9619C22.64 77.5719 24.76 79.6919 27.37 79.6919ZM27.37 72.2219C28.88 72.2219 30.1 73.4519 30.1 74.9519C30.1 76.4619 28.87 77.6819 27.37 77.6819C25.87 77.6819 24.64 76.4519 24.64 74.9519C24.64 73.4419 25.86 72.2219 27.37 72.2219Z" fill="#B53238"/>
<path d="M137.39 70.392C134.78 70.392 132.66 72.432 132.66 74.952C132.66 77.472 134.78 79.512 137.39 79.512C140 79.512 142.12 77.472 142.12 74.952C142.13 72.432 140.01 70.392 137.39 70.392ZM137.39 77.512C135.88 77.512 134.66 76.362 134.66 74.952C134.66 73.542 135.89 72.392 137.39 72.392C138.89 72.392 140.12 73.542 140.12 74.952C140.13 76.362 138.9 77.512 137.39 77.512Z" fill="#B53238"/>
<path d="M35.52 181.402C34.02 181.402 32.53 180.902 31.38 180.192L32.15 178.172C33.19 178.872 34.45 179.302 35.59 179.302C37.09 179.302 37.77 178.562 37.77 177.752C37.77 176.902 37.3 176.402 35.02 175.552C32.55 174.652 31.71 173.482 31.71 171.972C31.71 170.062 33.26 168.302 35.96 168.302C37.31 168.302 38.64 168.702 39.45 169.162L38.73 171.142C37.99 170.732 36.88 170.292 35.9 170.292C34.57 170.292 33.96 171.032 33.96 171.912C33.96 172.722 34.64 173.222 36.43 173.872C39.26 174.972 40.07 176.082 40.07 177.742C40.06 180.022 38.35 181.402 35.52 181.402Z" fill="#B53238"/>
<path d="M58.11 180.342C58.11 180.342 56.47 181.402 53.9 181.402C49.61 181.402 46.77 178.592 46.77 174.852C46.77 171.192 49.85 168.312 53.59 168.312C56.36 168.312 58.05 169.342 58.05 169.342L57.28 171.252C57.28 171.252 55.61 170.422 53.97 170.422C51 170.422 49.18 172.292 49.18 174.892C49.18 177.432 51.13 179.302 53.75 179.302C55.89 179.302 57.42 178.442 57.42 178.442L58.11 180.342Z" fill="#B53238"/>
<path d="M73.99 176.202H67.81V181.192H65.58V168.532H67.81V174.222H73.99V168.552H76.22V181.192H73.99V176.202V176.202Z" fill="#B53238"/>
<path d="M84.71 168.532H88.76C92.13 168.532 93.82 170.392 93.82 173.032C93.82 174.782 93.1 176.162 91.52 176.902L94.76 181.192H92.15L89.47 177.462C89.11 177.502 88.73 177.512 88.34 177.512H86.95V181.182H84.72V168.532H84.71ZM86.95 170.582V175.532H88.61C90.7 175.532 91.42 174.412 91.42 173.032C91.42 171.652 90.72 170.582 88.61 170.582H86.95Z" fill="#B53238"/>
<path d="M102.75 181.192H100.41L106.35 168.422H106.85L112.79 181.192H110.4L109.28 178.672H103.84L102.75 181.192ZM104.64 176.882H108.49L106.56 172.522L104.64 176.882Z" fill="#B53238"/>
<path d="M132.63 181.192H130.43L130.38 173.922L126.47 181.302H125.7L121.76 174.042L121.72 181.192H119.54L119.9 168.482H120.89L126.15 177.702L131.28 168.482H132.27L132.63 181.192Z" fill="#B53238"/>
</svg>
