<svg width="135" height="124" viewBox="0 0 135 124" fill="none" xmlns="http://www.w3.org/2000/svg">
<path d="M107.217 65.1719C106.75 64.945 106.276 64.7253 105.794 64.513C104.743 65.3989 103.728 66.3068 102.75 67.2366C102.801 68.5837 102.808 69.9235 102.779 71.256C103.188 71.4391 103.597 71.6294 104.006 71.8271C104.414 72.0248 104.816 72.2298 105.21 72.4348C105.32 71.1023 105.393 69.7625 105.414 68.408C106.451 67.5368 107.517 66.6875 108.612 65.8748C108.159 65.6332 107.692 65.3989 107.217 65.1719ZM104.195 63.8394C103.714 63.6418 103.225 63.4587 102.728 63.2757C102.239 63.0927 101.743 62.9243 101.246 62.7632C100.283 63.7369 99.3484 64.74 98.4506 65.765C98.6258 67.0975 98.7645 68.43 98.8521 69.7552C99.2827 69.8943 99.7061 70.0407 100.129 70.2018C100.553 70.3555 100.976 70.5166 101.392 70.685C101.378 69.3525 101.327 68.0127 101.224 66.6655C102.188 65.6918 103.173 64.7546 104.195 63.8394ZM110.145 66.7094C109.028 67.4928 107.933 68.2982 106.874 69.1328C106.801 70.4873 106.685 71.8271 106.531 73.1596C106.925 73.3793 107.312 73.6135 107.692 73.8478C108.079 74.0821 108.458 74.3237 108.838 74.5727C109.072 73.2548 109.261 71.915 109.415 70.5678C110.517 69.7991 111.648 69.0523 112.816 68.3421C112.378 68.0566 111.94 67.7784 111.495 67.5002C111.05 67.2293 110.605 66.9657 110.145 66.7094ZM67.5 22.5246C45.5645 6.79087 21.9355 -0.493954 0 0.662832V101.786C21.9355 99.9634 45.5645 106.582 67.5 121.642C73.5222 117.506 79.6831 114.057 85.8879 111.202V123.546L90.1436 120.961V106.355C90.1436 104.1 88.6325 102.211 86.5813 101.603H89.1362C91.8736 101.603 94.0927 103.829 94.0927 106.582V107.761C107.853 102.687 121.729 100.688 135 101.786V0.662832C113.065 -0.493954 89.4355 6.79087 67.5 22.5246ZM41.9585 65.9627C41.3818 66.1091 40.8124 66.2482 40.2504 66.3946C39.1189 66.6582 38.0532 66.973 37.0166 67.2659C35.98 67.5441 35.0092 67.8955 34.0675 68.1737C33.1332 68.4666 32.2645 68.796 31.4324 69.0743C29.7972 69.6893 28.3665 70.231 27.2131 70.7435C26.0452 71.2268 25.1546 71.6514 24.5415 71.9369C23.9283 72.2152 23.5998 72.3689 23.5998 72.3689L23.5852 72.3762C23.3662 72.4787 23.1034 72.3762 23.0012 72.1566C22.9063 71.9516 22.9793 71.7173 23.1691 71.6002C23.1691 71.6002 23.4757 71.4025 24.0597 71.0364C24.6437 70.6703 25.4831 70.1066 26.6146 69.4989C27.7241 68.8546 29.1184 68.1371 30.7316 67.3684C31.5491 67.0023 32.4105 66.5923 33.3376 66.2043C33.8047 66.0139 34.2792 65.8235 34.7756 65.6259C35.2647 65.4282 35.7684 65.2305 36.2939 65.0475C37.3305 64.6741 38.4108 64.2714 39.5496 63.9273C40.119 63.7443 40.6956 63.5612 41.2869 63.3855C41.7906 63.2464 42.3089 63.1 42.8271 62.9609C42.9731 63.6052 43.1264 64.2421 43.2724 64.8718C43.3308 65.128 43.3965 65.3843 43.4622 65.6405C42.9512 65.743 42.4475 65.8602 41.9585 65.9627ZM113.656 72.6691C115.291 73.9064 116.853 75.2462 118.32 76.7032C118.036 77.0107 117.744 77.3182 117.459 77.6257C116.028 76.2127 114.51 74.8948 112.911 73.6941C112.145 73.1157 111.13 73.2475 110.663 73.9503C110.196 74.6532 110.407 75.6343 111.115 76.1687C111.787 76.6739 112.444 77.201 113.086 77.7502C112.816 78.0869 112.546 78.4164 112.269 78.7532C108.072 75.173 103.21 72.4787 97.9688 70.8241C95.7205 70.1066 94.0708 68.1444 93.9321 65.9114C93.4284 65.8016 92.9247 65.6844 92.4065 65.5746C92.1072 65.5087 91.8079 65.4428 91.5013 65.3696C91.1947 65.311 90.8881 65.2525 90.5742 65.1939C89.9538 65.0768 89.326 64.9596 88.6909 64.8352C88.0559 64.7327 87.4135 64.6228 86.7638 64.5203C86.4426 64.4691 86.1141 64.4105 85.7857 64.3593C85.4572 64.3153 85.1287 64.2714 84.7929 64.2202C82.1431 63.8102 79.3839 63.5832 76.5808 63.3562C76.5516 63.3562 76.5151 63.3562 76.4859 63.3489C78.3254 68.386 80.0554 73.0278 81.6614 77.2743C82.3402 74.8948 83.0118 72.2884 83.6907 69.4403C83.9461 68.3714 84.1943 67.2732 84.4498 66.1603C84.4717 66.1603 84.4936 66.1677 84.5228 66.1677L85.4864 66.3068L86.4426 66.4678L88.3478 66.7827L90.2239 67.1414C88.6763 73.3646 86.939 79.3096 85.0192 84.9837H78.8656C77.0042 80.4005 75.1865 75.6855 73.4127 70.846C71.6389 66.0066 69.8578 60.7425 68.084 55.0537C67.5949 56.6278 67.0985 58.1653 66.6021 59.6735C66.8941 59.6662 67.1934 59.6589 67.4854 59.6589L68.6095 63.0707C68.4198 63.0707 68.23 63.0634 68.0475 63.0634C65.1933 63.078 62.3318 63.1659 59.5288 63.3635C56.7841 63.5905 54.0759 63.8102 51.4699 64.2055C51.8714 65.9773 52.2656 67.7052 52.6671 69.3818C53.3387 72.2298 54.0394 74.8582 54.7621 77.2816C56.1563 73.6135 57.6236 69.638 59.1565 65.3769C59.3171 65.3623 59.4631 65.3477 59.6237 65.3403H59.6675C61.2953 65.2232 63.0107 65.15 64.7772 65.0987C64.0838 67.0828 63.3903 69.001 62.6968 70.8607C60.8792 75.7002 59.0616 80.4152 57.244 84.9984H51.0904C48.8494 78.5043 46.8711 71.6441 45.163 64.4252C43.944 59.2782 42.7833 53.8091 41.6811 48.0178C40.8708 44.628 36.783 43.8007 36.783 43.8007V40.8575H46.8492C47.4405 44.1668 48.0537 47.4834 48.6888 50.7927C49.3238 54.1019 49.9808 57.3234 50.6524 60.435C50.7035 60.6839 50.7619 60.9255 50.813 61.1671C50.8203 61.1671 50.8349 61.1671 50.8422 61.1598C51.521 61.0427 52.2072 60.9255 52.9007 60.8084C53.5941 60.7132 54.2949 60.6107 54.9957 60.5082C56.4045 60.3032 57.8352 60.1641 59.2806 60.0323C59.8864 59.9737 60.4923 59.9298 61.1055 59.8932C62.653 55.4052 64.1203 50.8073 65.4926 46.0703H70.8213C72.1937 50.8146 73.6755 55.4198 75.2595 59.9152C75.7851 59.9518 76.318 59.9884 76.8436 60.0396C77.5662 60.0909 78.2816 60.186 78.997 60.2519C79.7123 60.3325 80.4204 60.4057 81.1285 60.5155C81.8292 60.6107 82.53 60.7132 83.2235 60.8084C83.9169 60.9255 84.6031 61.0427 85.282 61.1525C85.3696 61.1671 85.4572 61.1818 85.5448 61.1964C85.5959 60.9621 85.647 60.7278 85.6981 60.4935C86.355 57.3746 86.9974 54.1459 87.6325 50.8146C88.2675 47.4834 88.8807 44.1594 89.472 40.8428H99.3265V43.786C99.3265 43.786 95.0635 44.6427 94.3774 48.2155C94.3701 48.2594 94.3628 48.296 94.3482 48.34C93.3846 53.2746 92.3919 57.9823 91.3553 62.4484C91.6181 62.5143 91.8736 62.5728 92.1364 62.6387C92.443 62.7266 92.7495 62.8071 93.0561 62.8877C93.5671 63.0268 94.0635 63.1659 94.5599 63.305C95.7278 61.4673 98.3776 60.4935 101.093 61.3575C107.488 63.3782 113.415 66.6655 118.539 71.0291C118.269 71.3659 117.999 71.6953 117.722 72.0321C116.977 71.4025 116.218 70.7875 115.444 70.2018C114.612 69.5721 113.539 69.6673 113.072 70.3702C112.612 71.073 112.882 72.0834 113.656 72.6691Z" fill="#E05E00"/>
</svg>
