<svg width="109" height="200" viewBox="0 0 109 200" fill="none" xmlns="http://www.w3.org/2000/svg">
<path d="M24.5781 116.471H28.8605L22.9035 128.115V134.7H18.9176V128.115L12.9606 116.471H17.243L20.9149 124.574L24.5781 116.471Z" fill="#27235E"/>
<path d="M44.176 131.534V134.7H34.5209H31.8695V116.471H44.1585V119.655H35.803V123.798H42.92V126.859H35.803V131.534H44.176Z" fill="#27235E"/>
<path d="M53.6828 127.103C52.4443 126.702 51.389 126.257 50.4993 125.769C49.6097 125.28 48.9032 124.67 48.3625 123.937C47.8305 123.204 47.5601 122.332 47.5601 121.321C47.5601 120.309 47.8479 119.419 48.4323 118.652C49.0079 117.875 49.819 117.282 50.8395 116.864C51.8687 116.445 53.0374 116.236 54.3544 116.236C55.6801 116.236 56.8575 116.471 57.8693 116.942C58.8897 117.413 59.6747 118.076 60.2329 118.931C60.7911 119.785 61.0702 120.762 61.0702 121.87H57.1541C57.1541 121.102 56.9099 120.492 56.4215 120.038C55.933 119.585 55.2178 119.358 54.2759 119.358C53.6741 119.358 53.1682 119.445 52.7408 119.62C52.3222 119.794 51.9995 120.038 51.7902 120.344C51.5808 120.649 51.4675 120.989 51.4675 121.364C51.4675 121.922 51.7553 122.393 52.3309 122.786C52.9066 123.17 53.7962 123.553 55.0085 123.928C57.0494 124.556 58.5757 125.333 59.57 126.275C60.5643 127.216 61.0702 128.42 61.0702 129.885C61.0702 130.949 60.7998 131.856 60.259 132.624C59.7183 133.392 58.9508 133.967 57.9478 134.368C56.9535 134.77 55.776 134.97 54.4329 134.97C53.1508 134.97 51.9384 134.752 50.8133 134.307C49.6795 133.863 48.7637 133.191 48.0572 132.275C47.3508 131.359 46.9932 130.243 46.9932 128.917H50.9354C50.9354 129.964 51.2407 130.714 51.8425 131.176C52.4443 131.638 53.3165 131.874 54.4416 131.874C55.3312 131.874 56.0115 131.691 56.4651 131.333C56.9186 130.976 57.1454 130.505 57.1454 129.92C57.1454 129.484 57.0494 129.127 56.8663 128.83C56.6831 128.542 56.343 128.254 55.8545 127.993C55.3661 127.696 54.6422 127.408 53.6828 127.103Z" fill="#27235E"/>
<path d="M78.8627 119.655H73.2982V134.7H69.3821V119.655H63.9135V116.471H78.8627V119.655Z" fill="#27235E"/>
<path d="M94.6579 131.534V134.7H85.0115H82.3601V116.471H94.6491V119.655H86.2849V123.798H93.4106V126.859H86.2849V131.534H94.6579Z" fill="#27235E"/>
<path d="M18.4466 150.573H21.4033C22.3366 150.573 23.043 150.338 23.5315 149.876C24.0199 149.405 24.2554 148.768 24.2554 147.948C24.2554 147.111 24.0199 146.465 23.5315 145.994C23.0518 145.523 22.3366 145.297 21.3946 145.297H18.4379V150.573H18.4466ZM28.8518 160.141V160.333H24.6478L21.2899 153.748H18.4466V160.333H14.5131V142.104H21.3946C22.8075 142.104 24.0199 142.314 25.0316 142.732C26.0433 143.151 26.8196 143.779 27.3691 144.599C27.9098 145.419 28.1802 146.422 28.1802 147.608C28.1802 148.899 27.9011 149.963 27.3429 150.783C26.7847 151.603 25.9823 152.257 24.9357 152.728L28.8518 160.141Z" fill="#27235E"/>
<path d="M42.4578 150.791C42.4578 148.986 42.0828 147.617 41.3414 146.683C40.6001 145.75 39.5098 145.279 38.0882 145.279H36.3351V157.158H38.062C39.4924 157.158 40.5739 156.687 41.3327 155.737C42.0828 154.786 42.4578 153.417 42.4578 151.611V150.791ZM38.0882 142.104C39.7192 142.104 41.1583 142.471 42.4229 143.203C43.6876 143.936 44.6731 144.957 45.3796 146.282C46.0861 147.608 46.4437 149.117 46.4437 150.818V151.62C46.4437 153.329 46.0861 154.847 45.3796 156.164C44.6731 157.481 43.6789 158.51 42.4142 159.234C41.1495 159.967 39.693 160.333 38.062 160.333H34.1023H32.4016V142.104H38.0882V142.104Z" fill="#27235E"/>
<path d="M58.4711 153.539L56.2819 146.893L54.1014 153.539H58.4711ZM59.5264 156.714H53.0635L51.8774 160.333H47.6996L54.459 142.104H58.1135L64.9078 160.333H60.7126L59.5264 156.714Z" fill="#27235E"/>
<path d="M75.4176 142.104H79.7L73.743 153.748V160.333H69.7658V153.748L63.8001 142.104H68.0825L71.7544 150.207L75.4176 142.104Z" fill="#27235E"/>
<path d="M86.9042 152.737C85.6657 152.335 84.6104 151.891 83.7208 151.402C82.8311 150.914 82.1247 150.303 81.5839 149.571C81.0519 148.838 80.7815 147.966 80.7815 146.954C80.7815 145.942 81.0693 145.053 81.6537 144.285C82.2381 143.509 83.0405 142.916 84.0609 142.497C85.0901 142.078 86.2588 141.869 87.5758 141.869C88.9015 141.869 90.0702 142.105 91.0907 142.576C92.1112 143.047 92.8961 143.709 93.4543 144.564C94.0125 145.419 94.2916 146.396 94.2916 147.503H90.3755C90.3755 146.736 90.1313 146.125 89.6429 145.672C89.1545 145.218 88.4393 144.992 87.4973 144.992C86.8955 144.992 86.3809 145.079 85.9623 145.253C85.5436 145.428 85.2209 145.672 85.0116 145.977C84.8023 146.282 84.6889 146.623 84.6889 146.998C84.6889 147.556 84.9767 148.027 85.5523 148.419C86.128 148.803 87.0176 149.187 88.2299 149.562C90.2796 150.19 91.7972 150.966 92.7915 151.908C93.7857 152.85 94.2829 154.054 94.2829 155.519C94.2829 156.583 94.0125 157.49 93.4718 158.257C92.931 159.025 92.1635 159.601 91.1605 160.002C90.1662 160.403 88.9887 160.604 87.6456 160.604C86.3635 160.604 85.1511 160.386 84.026 159.941C82.8922 159.496 81.9764 158.824 81.2699 157.909C80.5635 156.993 80.2059 155.876 80.2059 154.551H84.1481C84.1481 155.597 84.4534 156.347 85.0552 156.81C85.657 157.272 86.5292 157.507 87.6543 157.507C88.5439 157.507 89.2242 157.324 89.6778 156.967C90.1313 156.609 90.3581 156.138 90.3581 155.554C90.3581 155.118 90.2621 154.76 90.079 154.463C89.8958 154.176 89.5557 153.888 89.0672 153.626C88.5875 153.33 87.8636 153.042 86.9042 152.737Z" fill="#27235E"/>
<path d="M20.4876 178.37C19.2491 177.969 18.1937 177.524 17.3041 177.036C16.4145 176.547 15.708 175.937 15.1673 175.204C14.6352 174.471 14.3649 173.599 14.3649 172.587C14.3649 171.576 14.6527 170.686 15.237 169.919C15.8214 169.151 16.6238 168.549 17.6443 168.131C18.6734 167.712 19.8422 167.503 21.1592 167.503C22.4849 167.503 23.6623 167.738 24.674 168.209C25.6945 168.68 26.4795 169.343 27.0377 170.198C27.5959 171.052 27.8749 172.029 27.8749 173.137H23.9589C23.9589 172.369 23.7146 171.759 23.2262 171.305C22.7378 170.852 22.0226 170.625 21.0807 170.625C20.4788 170.625 19.973 170.712 19.5456 170.887C19.127 171.061 18.8043 171.305 18.5949 171.611C18.3856 171.916 18.2722 172.256 18.2722 172.631C18.2722 173.189 18.56 173.66 19.1357 174.053C19.7113 174.436 20.601 174.82 21.8133 175.195C23.8542 175.823 25.3805 176.599 26.3748 177.541C27.3691 178.483 27.8749 179.687 27.8749 181.152C27.8749 182.216 27.6046 183.123 27.0638 183.891C26.5231 184.658 25.7555 185.234 24.7525 185.635C23.7583 186.036 22.5808 186.237 21.2376 186.237C19.9555 186.237 18.7432 186.019 17.6094 185.574C16.4755 185.129 15.5597 184.458 14.8533 183.542C14.1468 182.626 13.7892 181.51 13.7892 180.184H17.7315C17.7315 181.231 18.0367 181.981 18.6385 182.443C19.2404 182.905 20.1125 183.141 21.2376 183.141C22.1273 183.141 22.8076 182.958 23.2611 182.6C23.7146 182.242 23.9414 181.771 23.9414 181.187C23.9414 180.751 23.8455 180.393 23.6623 180.097C23.4792 179.809 23.139 179.521 22.6506 179.26C22.1709 178.972 21.447 178.684 20.4876 178.37Z" fill="#27235E"/>
<path d="M44.4551 185.967L37.3643 174.218V185.967H33.4395V167.747H37.3643L44.4551 179.495V167.747H48.3712V185.967H44.4551Z" fill="#27235E"/>
<path d="M65.7276 176.442C65.7276 174.593 65.3962 173.172 64.7246 172.195C64.053 171.218 63.1111 170.721 61.8813 170.721C60.6428 170.721 59.7008 171.209 59.038 172.186C58.3751 173.163 58.0524 174.585 58.0524 176.442V177.253C58.0524 179.094 58.3838 180.515 59.0554 181.51C59.727 182.504 60.6777 183.001 61.9075 183.001C63.1372 183.001 64.0792 182.504 64.7333 181.51C65.3962 180.515 65.7189 179.094 65.7189 177.253V176.442H65.7276ZM69.7048 177.253C69.7048 179.076 69.3733 180.655 68.7192 182.007C68.0651 183.359 67.1493 184.397 65.9718 185.121C64.7944 185.844 63.4425 186.211 61.9075 186.211C60.3724 186.211 59.0118 185.844 57.8256 185.121C56.6395 184.397 55.715 183.359 55.0608 182.007C54.398 180.655 54.0753 179.068 54.0753 177.253V176.469C54.0753 174.646 54.4067 173.058 55.0608 171.706C55.7237 170.355 56.6395 169.308 57.8169 168.584C58.9944 167.86 60.3462 167.494 61.8813 167.494C63.4163 167.494 64.7769 167.86 65.9544 168.584C67.1318 169.308 68.0563 170.355 68.7105 171.706C69.3733 173.058 69.696 174.654 69.696 176.469V177.253H69.7048Z" fill="#27235E"/>
<path d="M94.8149 167.747L90.8203 185.967H88.2997H86.8344L84.0085 174.131L81.1914 185.967H78.9412H77.2142L73.2022 167.747H77.1096L79.4732 180.411L82.3427 167.747H85.6744L88.5526 180.411L90.9075 167.747H94.8149Z" fill="#27235E"/>
<path fill-rule="evenodd" clip-rule="evenodd" d="M50.1766 94.841C50.0022 94.5358 49.6533 94.3613 49.3045 94.4137C48.9556 94.466 48.6678 94.7277 48.598 95.0765C48.5195 95.4516 48.4759 95.8353 48.4759 96.2278C48.4759 98.5478 51.9995 102.656 53.4735 104.269C53.6392 104.452 53.866 104.557 54.1102 104.557C54.3544 104.557 54.5899 104.452 54.7469 104.269C56.2209 102.656 59.7445 98.5478 59.7445 96.2278C59.7445 95.8353 59.7009 95.4516 59.6136 95.0765C59.5351 94.7364 59.2561 94.4747 58.9159 94.4224C58.567 94.3701 58.2269 94.5358 58.0524 94.841C56.8139 96.9692 55.4882 98.5914 54.7381 99.4462C54.5724 99.6206 54.3457 99.7165 54.1102 99.7165C53.8747 99.7165 53.6479 99.6206 53.4822 99.4462C52.7234 98.5914 51.4064 96.9692 50.1766 94.841ZM54.1102 96.786C54.1887 96.7075 56.5087 94.3788 57.6425 91.1081C57.7297 90.8464 57.9303 90.6458 58.192 90.5586C58.4536 90.4714 58.7415 90.5237 58.9595 90.6895C59.7532 91.2651 60.6603 91.7186 61.6371 92.0152C61.7243 92.0413 61.8115 92.0326 61.8988 91.989C61.9773 91.9454 62.0383 91.8756 62.0645 91.7884C62.6663 89.5556 62.3872 87.2967 61.4452 85.3691C61.3929 85.2732 61.3057 85.2034 61.201 85.1773H61.1923C60.6952 85.0552 60.198 84.8982 59.7183 84.715C59.509 84.6365 59.3084 84.5493 59.1078 84.4534C59.0293 84.4185 58.9508 84.3749 58.8636 84.34L58.8374 84.3225L58.7763 84.2964C58.7676 84.2964 58.7589 84.2876 58.7502 84.2789C58.7153 84.2615 58.6804 84.244 58.6455 84.2266C58.5932 84.3749 58.5321 84.5318 58.4711 84.6801C58.0786 85.6395 57.564 86.5553 56.9709 87.41C56.7267 87.7589 56.4738 88.0991 56.2034 88.4305C55.9854 88.6922 55.7673 88.9538 55.5318 89.198C55.5057 89.2242 55.5057 89.2329 55.4708 89.2591L55.4621 89.2678C55.4272 89.3027 55.0609 89.669 54.7207 90.0091C54.555 90.1749 54.3369 90.2621 54.1102 90.2621C53.8834 90.2621 53.6654 90.1749 53.4996 90.0091C53.1595 89.669 52.7932 89.3027 52.7583 89.2678C52.7583 89.2678 52.7583 89.2678 52.7496 89.2591C52.5315 89.0323 52.3135 88.7968 52.1129 88.5526C51.8512 88.2386 51.607 87.9159 51.3715 87.5845C51.1535 87.2705 50.9442 86.9565 50.7436 86.6251C50.3075 85.9012 49.9237 85.1511 49.6272 84.3574C49.6097 84.3225 49.5836 84.2964 49.5487 84.2789C49.5138 84.2615 49.4702 84.2702 49.4353 84.2876C49.1911 84.4097 48.9381 84.5231 48.6852 84.6278C48.2142 84.8197 47.7258 84.9854 47.2287 85.1162C46.9757 85.1773 46.7751 85.3517 46.6617 85.5872C45.807 87.4624 45.5802 89.6341 46.1559 91.7797V91.7884C46.182 91.8756 46.2431 91.9454 46.3216 91.989C46.4001 92.0326 46.496 92.0413 46.5745 92.0152C47.5601 91.7099 48.4584 91.2564 49.2521 90.6807C49.4702 90.515 49.758 90.4714 50.0196 90.5586C50.2813 90.6458 50.4906 90.8464 50.5691 91.1081C51.7117 94.3875 54.0317 96.7075 54.1102 96.786C54.1102 96.7947 54.1102 96.7947 54.1102 96.786ZM54.1276 73.3766C54.1189 73.3679 54.1189 73.3679 54.1189 73.3679C54.1189 73.3679 54.1189 73.3679 54.1102 73.3766V73.3679C48.6503 73.3766 44.2196 77.8073 44.2196 83.2672C44.2196 83.2672 44.2196 83.2672 44.2196 83.2759C44.2196 83.3718 44.2632 83.4678 44.333 83.5288C44.4028 83.5986 44.4987 83.6335 44.5947 83.6248C46.4873 83.555 48.2491 82.9532 49.7231 81.9589C49.9586 81.7932 50.2639 81.7583 50.5255 81.863C50.7872 81.9676 50.9878 82.2031 51.0401 82.4909C51.5285 84.5755 52.7234 86.2937 53.4735 87.2094C53.6305 87.4013 53.8747 87.506 54.1189 87.506C54.3631 87.506 54.5986 87.4013 54.7643 87.2094C55.5144 86.2849 56.718 84.5667 57.2064 82.4909C57.2587 82.2118 57.4506 81.9764 57.721 81.8717C57.9827 81.767 58.2879 81.8019 58.5234 81.9676C60.0061 82.9532 61.7592 83.555 63.6518 83.6248C63.7478 83.6248 63.8437 83.5899 63.9135 83.5288C63.9833 83.4591 64.0269 83.3718 64.0269 83.2759C64.0269 83.2759 64.0269 83.2759 64.0269 83.2672C64.0269 77.8073 59.5962 73.3679 54.1363 73.3679L54.1276 73.3766ZM54.5812 71.0479C54.8428 71.0479 55.0521 70.8386 55.0521 70.5769V64.4978C55.0521 64.2362 54.8428 64.0269 54.5812 64.0269H53.6479C53.3863 64.0269 53.1769 64.2362 53.1769 64.4978V70.5769C53.1769 70.8386 53.3863 71.0479 53.6479 71.0479H54.5812Z" fill="#27235E"/>
<path fill-rule="evenodd" clip-rule="evenodd" d="M83.1712 37.6869C82.8136 37.6869 82.4997 37.4689 82.3688 37.1462C82.238 36.8147 82.3252 36.4397 82.5869 36.2042C82.8747 35.9513 83.18 35.7245 83.5201 35.5239C85.5349 34.3639 90.8464 35.3669 92.9833 35.8292C93.2188 35.8815 93.4281 36.0298 93.5502 36.2391C93.6723 36.4484 93.6985 36.7013 93.62 36.9368C92.9571 39.0213 91.1691 44.1236 89.1544 45.2836C88.8143 45.4842 88.4567 45.6325 88.0903 45.7459C87.7589 45.8505 87.3926 45.7371 87.1745 45.4668C86.9565 45.1964 86.9303 44.8126 87.1048 44.5161C88.3346 42.3792 89.0672 40.4256 89.4335 39.3441C89.5033 39.1173 89.4771 38.8731 89.355 38.6638C89.2329 38.4544 89.041 38.3062 88.8055 38.2538C87.6979 38.0183 85.6308 37.6869 83.1712 37.6869ZM86.8344 40.1203C86.8082 40.2337 85.9535 43.3997 83.6858 46.0162C83.5027 46.2168 83.4242 46.4959 83.4852 46.7663C83.5463 47.0367 83.7294 47.2547 83.9824 47.3681C84.872 47.7693 85.718 48.3275 86.4768 49.0253C86.5379 49.0863 86.5815 49.1735 86.5815 49.2608C86.5815 49.348 86.5466 49.4352 86.4855 49.505C84.8458 51.1447 82.7526 52.0343 80.6157 52.1826C80.5111 52.1913 80.4064 52.1477 80.3279 52.0692C80.3279 52.0692 80.3279 52.0605 80.3192 52.0605C79.9616 51.6854 79.5778 51.3366 79.1766 51.0226C79.0022 50.883 78.8278 50.7522 78.6446 50.6214C78.5748 50.569 78.4963 50.5167 78.4266 50.4731L78.4004 50.4556L78.3481 50.4208C78.3394 50.412 78.3306 50.412 78.3219 50.4033C78.287 50.3859 78.2609 50.3597 78.226 50.3423C78.3306 50.2202 78.4353 50.0893 78.5312 49.9585C79.1679 49.1299 79.7 48.2316 80.1448 47.2984C80.3279 46.9146 80.4936 46.5221 80.6419 46.1209C80.764 45.7982 80.8687 45.4842 80.9646 45.1528C80.9733 45.1179 80.9733 45.1092 80.9908 45.0743V45.0656C81.0082 45.0132 81.1391 44.5161 81.2612 44.0538C81.3222 43.8358 81.2873 43.6003 81.1739 43.3997C81.0606 43.1991 80.8687 43.0595 80.6506 42.9985C80.1797 42.8764 79.6825 42.7368 79.6389 42.7281C79.6389 42.7281 79.6389 42.7281 79.6302 42.7281C79.3249 42.6496 79.0109 42.5886 78.6969 42.5275C78.2957 42.4577 77.8945 42.4054 77.4846 42.3618C77.1096 42.3269 76.7258 42.3008 76.3421 42.292C75.496 42.2746 74.6587 42.3182 73.8214 42.4577C73.7866 42.4665 73.7429 42.4577 73.7168 42.4316C73.6906 42.4054 73.6732 42.3705 73.6645 42.3356C73.647 42.0565 73.6208 41.7862 73.586 41.5158C73.5162 41.0099 73.4202 40.5041 73.2807 40.0156C73.2109 39.7714 73.2545 39.501 73.4028 39.2917C74.6064 37.6084 76.3682 36.3263 78.5138 35.7507H78.5225C78.6097 35.7332 78.6969 35.7419 78.7754 35.7943C78.8539 35.8379 78.9063 35.9164 78.9237 36.0036C79.1505 37.0066 79.2115 38.0183 79.1069 38.9952C79.072 39.2656 79.1766 39.5359 79.3772 39.7278C79.5778 39.911 79.8569 39.9895 80.1273 39.9284C83.5463 39.2394 86.721 40.0854 86.8344 40.1203ZM66.5562 51.8424C66.5474 51.8424 66.5387 51.8337 66.5387 51.8337C66.5387 51.8337 66.5387 51.825 66.5475 51.8163L66.5387 51.825C63.8175 47.089 65.4398 41.0361 70.167 38.3062C70.167 38.3062 70.167 38.3062 70.1757 38.3062C70.2629 38.2625 70.3589 38.2538 70.4548 38.28C70.5508 38.3062 70.6205 38.3672 70.6729 38.4544C71.5538 40.129 71.9114 41.9519 71.798 43.7311C71.7718 44.0189 71.8939 44.298 72.1207 44.4725C72.3475 44.6469 72.644 44.6993 72.9231 44.612C74.9727 43.9928 77.0572 44.1759 78.2347 44.3591C78.4789 44.4027 78.6882 44.551 78.8103 44.769C78.9324 44.9871 78.9586 45.24 78.8801 45.4755C78.4615 46.5832 77.5718 48.4845 76.0106 49.9498C75.7926 50.1329 75.6879 50.4208 75.7315 50.7086C75.7751 50.9877 75.9496 51.2319 76.2112 51.354C77.8073 52.1477 79.2028 53.3687 80.2145 54.9736C80.2669 55.052 80.2843 55.1567 80.2581 55.2439C80.232 55.3399 80.1797 55.4184 80.0924 55.4707C80.0924 55.4707 80.0924 55.4707 80.0837 55.4707C75.3565 58.2006 69.2948 56.5784 66.5649 51.8511L66.5562 51.8424ZM64.7682 53.3949C64.899 53.6217 64.8205 53.9008 64.5938 54.0316L59.3258 57.0668C59.099 57.1976 58.8199 57.1191 58.6891 56.8924L58.2181 56.0812C58.0873 55.8545 58.1658 55.5666 58.3925 55.4445L63.6693 52.4181C63.896 52.2872 64.1751 52.3657 64.3059 52.5925L64.7682 53.3949Z" fill="#27235E"/>
<path fill-rule="evenodd" clip-rule="evenodd" d="M21.1155 73.5161C21.29 73.2108 21.2638 72.827 21.0457 72.548C20.8277 72.2689 20.4527 72.1555 20.1212 72.2601C19.7636 72.3822 19.406 72.5305 19.0659 72.7311C17.0512 73.8911 15.2632 78.9934 14.6003 81.0779C14.5218 81.3047 14.548 81.5663 14.6701 81.7756C14.7922 81.985 15.0015 82.1332 15.237 82.1856C17.3739 82.6565 22.6942 83.6595 24.7002 82.4908C25.0403 82.2902 25.3543 82.0635 25.6247 81.8018C25.8776 81.5663 25.9648 81.1913 25.8427 80.8686C25.7119 80.5459 25.3979 80.3278 25.0491 80.3365C22.5895 80.3278 20.5224 79.9964 19.406 79.7609C19.1706 79.7086 18.9787 79.5603 18.8566 79.351C18.7345 79.1416 18.7083 78.8974 18.7781 78.6707C19.1444 77.5979 19.8857 75.6442 21.1155 73.5161ZM21.3946 77.9031C21.508 77.938 24.674 78.7753 28.0755 78.1212C28.3459 78.0601 28.625 78.1386 28.8256 78.3218C29.0262 78.505 29.1309 78.7753 29.096 79.0457C29 80.0225 29.0524 81.0256 29.2879 82.0286C29.3053 82.1158 29.3664 82.1943 29.4361 82.2379C29.5146 82.2815 29.6018 82.2989 29.6891 82.2815C31.9219 81.6797 33.7447 80.3191 34.9396 78.5398C35.0007 78.4526 35.0181 78.3392 34.9832 78.2346V78.2259C34.8437 77.7287 34.7303 77.2228 34.6518 76.717C34.6169 76.4989 34.5907 76.2722 34.5733 76.0541C34.5646 75.9669 34.5558 75.8797 34.5471 75.7925V75.7576V75.6965C34.5471 75.6878 34.5471 75.6704 34.5471 75.6616C34.5471 75.6268 34.5471 75.5831 34.5384 75.5483C34.3814 75.5744 34.2157 75.6006 34.0587 75.6268C33.0295 75.7663 31.9829 75.775 30.945 75.6878C30.5176 75.6529 30.099 75.6006 29.6716 75.5308C29.3402 75.4785 29 75.4087 28.6686 75.3302C28.625 75.3215 28.625 75.3215 28.5901 75.3128H28.5814C28.5291 75.2953 28.0319 75.1645 27.5697 75.0424C27.3516 74.9813 27.1597 74.8418 27.0464 74.6412C26.933 74.4406 26.8981 74.2051 26.9591 73.9871C27.0812 73.5161 27.2208 73.0189 27.2295 72.9753C27.2295 72.9753 27.2295 72.9753 27.2295 72.9666C27.3167 72.6613 27.4127 72.3561 27.5261 72.0595C27.6656 71.6758 27.8226 71.3007 27.9883 70.9344C28.1453 70.5855 28.3197 70.2454 28.5029 69.914C28.9041 69.1726 29.3751 68.4661 29.9071 67.812C29.9333 67.7858 29.942 67.7422 29.9333 67.7073C29.9246 67.6725 29.9071 67.6376 29.8722 67.6114C29.6455 67.4631 29.4187 67.2974 29.2006 67.1317C28.7907 66.8177 28.407 66.4776 28.0494 66.12C27.8662 65.9368 27.6133 65.8409 27.3603 65.867C25.302 66.0676 23.3134 66.9573 21.7435 68.5272L21.7348 68.5359C21.6737 68.597 21.6388 68.6842 21.6388 68.7714C21.6388 68.8586 21.6824 68.9458 21.7435 69.0069C22.5023 69.7046 23.3396 70.2628 24.2379 70.664C24.4909 70.7774 24.674 70.9955 24.7351 71.2658C24.7961 71.5362 24.7176 71.8153 24.5345 72.0159C22.2755 74.615 21.4208 77.7898 21.3946 77.9031ZM41.6816 66.1985C41.6816 66.1897 41.6903 66.181 41.6903 66.181C41.6903 66.181 41.6816 66.181 41.6728 66.181L41.6816 66.1723C38.9429 61.4451 32.89 59.8315 28.1627 62.5527C28.1627 62.5527 28.1627 62.5527 28.154 62.5527C28.0755 62.6051 28.0145 62.6836 27.9883 62.7795C27.9621 62.8755 27.9796 62.9714 28.0319 63.0499C29.0437 64.6547 30.4391 65.8758 32.0352 66.6607C32.2969 66.7828 32.48 67.027 32.5149 67.3149C32.5585 67.6027 32.4452 67.8818 32.2358 68.0737C30.6746 69.5389 29.785 71.4316 29.3664 72.548C29.2879 72.7834 29.3053 73.0364 29.4274 73.2544C29.5495 73.4725 29.7588 73.6207 30.0031 73.6643C31.1718 73.8562 33.265 74.0307 35.3146 73.4201C35.585 73.3242 35.8816 73.3765 36.1083 73.551C36.3351 73.7254 36.4572 74.0045 36.431 74.2923C36.3176 76.0628 36.6752 77.8944 37.5561 79.569C37.5998 79.6562 37.6783 79.7173 37.7742 79.7435C37.8701 79.7696 37.9661 79.7609 38.0533 79.7173C38.0533 79.7173 38.0533 79.7173 38.062 79.7173C42.7892 76.9874 44.4202 70.9344 41.6903 66.1985H41.6816ZM43.9143 65.4309C44.0452 65.6577 44.333 65.7275 44.551 65.6054L49.819 62.5615C50.0458 62.4306 50.1156 62.1428 49.9935 61.9248L49.5225 61.1136C49.3917 60.8869 49.1038 60.8171 48.8858 60.9392L43.6178 63.9831C43.391 64.114 43.3213 64.4018 43.4434 64.6198L43.9143 65.4309Z" fill="#27235E"/>
<path fill-rule="evenodd" clip-rule="evenodd" d="M87.1048 73.5161C86.9304 73.2108 86.9565 72.827 87.1746 72.548C87.3926 72.2689 87.7677 72.1555 88.0991 72.2601C88.4567 72.3822 88.8143 72.5305 89.1544 72.7311C91.1692 73.8911 92.9572 78.9934 93.62 81.0779C93.6985 81.3047 93.6723 81.5663 93.5502 81.7756C93.4281 81.985 93.2188 82.1332 92.9833 82.1856C90.8465 82.6565 85.5262 83.6595 83.5201 82.4908C83.18 82.2902 82.866 82.0635 82.5956 81.8018C82.3427 81.5663 82.2555 81.1913 82.3776 80.8686C82.5084 80.5459 82.8224 80.3278 83.1713 80.3365C85.6308 80.3278 87.6979 79.9964 88.8143 79.7609C89.0498 79.7086 89.2417 79.5603 89.3638 79.351C89.4859 79.1416 89.512 78.8974 89.4423 78.6707C89.0847 77.5979 88.3433 75.6442 87.1048 73.5161ZM86.8257 77.9031C86.7123 77.938 83.5463 78.7753 80.1448 78.1212C79.8744 78.0601 79.5953 78.1386 79.3947 78.3218C79.1941 78.505 79.0895 78.7753 79.1243 79.0457C79.2203 80.0225 79.168 81.0256 78.9325 82.0286C78.915 82.1158 78.854 82.1943 78.7842 82.2379C78.7057 82.2815 78.6185 82.2989 78.5313 82.2815C76.2985 81.6797 74.4756 80.3191 73.2807 78.5398C73.2197 78.4526 73.2022 78.3392 73.2371 78.2346V78.2259C73.3767 77.7287 73.4901 77.2228 73.5685 76.717C73.6034 76.4989 73.6296 76.2722 73.647 76.0541C73.6558 75.9669 73.6645 75.8797 73.6732 75.7925V75.7576V75.6965C73.6732 75.6878 73.6732 75.6704 73.6732 75.6616C73.6732 75.6268 73.6732 75.5831 73.6819 75.5483C73.8389 75.5744 74.0046 75.6006 74.1616 75.6268C75.1908 75.7663 76.2374 75.775 77.2753 75.6878C77.7027 75.6529 78.1213 75.6006 78.5487 75.5308C78.8801 75.4785 79.2203 75.4087 79.5517 75.3302C79.5953 75.3215 79.5953 75.3215 79.6302 75.3128H79.6389C79.6913 75.2953 80.1884 75.1645 80.6507 75.0424C80.8687 74.9813 81.0606 74.8418 81.174 74.6412C81.2874 74.4406 81.3222 74.2051 81.2612 73.9871C81.1391 73.5161 80.9995 73.0189 80.9908 72.9753C80.9908 72.9753 80.9908 72.9753 80.9908 72.9666C80.9036 72.6613 80.8077 72.3561 80.6943 72.0595C80.5547 71.6758 80.3977 71.3007 80.232 70.9344C80.075 70.5855 79.9006 70.2454 79.7174 69.914C79.3162 69.1726 78.8453 68.4661 78.3132 67.812C78.2871 67.7858 78.2783 67.7422 78.2871 67.7073C78.2958 67.6725 78.3132 67.6376 78.3481 67.6114C78.5749 67.4631 78.8016 67.2974 79.0197 67.1317C79.4296 66.8177 79.8134 66.4776 80.171 66.12C80.3541 65.9368 80.6071 65.8409 80.86 65.867C82.9183 66.0676 84.9069 66.9573 86.4768 68.5272L86.4856 68.5359C86.5466 68.597 86.5815 68.6842 86.5815 68.7714C86.5815 68.8586 86.5379 68.9458 86.4768 69.0069C85.718 69.7046 84.8807 70.2628 83.9824 70.664C83.7295 70.7774 83.5463 70.9955 83.4853 71.2658C83.4242 71.5362 83.5027 71.8153 83.6859 72.0159C85.9448 74.615 86.7996 77.7898 86.8257 77.9031C86.8344 77.9031 86.8344 77.9031 86.8257 77.9031ZM66.5475 66.1985C66.5475 66.1897 66.5388 66.181 66.5388 66.181C66.5388 66.181 66.5475 66.181 66.5562 66.181L66.5475 66.1723C69.2861 61.4451 75.3391 59.8315 80.0663 62.5527C80.0663 62.5527 80.0663 62.5527 80.075 62.5527C80.1535 62.6051 80.2146 62.6836 80.2407 62.7795C80.2669 62.8755 80.2495 62.9714 80.1971 63.0499C79.1854 64.6547 77.7899 65.8758 76.1938 66.6607C75.9322 66.7828 75.749 67.027 75.7141 67.3149C75.6705 67.6027 75.7839 67.8818 75.9932 68.0737C77.5544 69.5389 78.444 71.4316 78.8627 72.548C78.9412 72.7834 78.9237 73.0364 78.8016 73.2544C78.6795 73.4725 78.4702 73.6207 78.226 73.6643C77.0573 73.8562 74.964 74.0307 72.9144 73.4201C72.644 73.3242 72.3475 73.3765 72.1207 73.551C71.894 73.7254 71.7719 74.0045 71.798 74.2923C71.9114 76.0628 71.5538 77.8944 70.6642 79.569C70.6206 79.6562 70.5421 79.7173 70.4461 79.7435C70.3502 79.7696 70.2543 79.7609 70.167 79.7173C70.167 79.7173 70.167 79.7173 70.1583 79.7173C65.4311 76.9874 63.8001 70.9344 66.53 66.1985H66.5475ZM64.306 65.4309C64.1752 65.6577 63.8873 65.7275 63.6693 65.6054L58.4013 62.5615C58.1745 62.4306 58.1048 62.1428 58.2269 61.9248L58.6979 61.1136C58.8287 60.8869 59.1165 60.8171 59.3345 60.9392L64.6025 63.9831C64.8293 64.114 64.8991 64.4018 64.777 64.6198L64.306 65.4309Z" fill="#27235E"/>
<path fill-rule="evenodd" clip-rule="evenodd" d="M25.0491 37.6869C25.4067 37.6869 25.7206 37.4689 25.8515 37.1462C25.9823 36.8147 25.8951 36.4397 25.6334 36.2042C25.3456 35.9513 25.0403 35.7245 24.7002 35.5239C22.6854 34.3639 17.3739 35.3669 15.237 35.8292C15.0015 35.8815 14.7922 36.0298 14.6701 36.2391C14.548 36.4484 14.5218 36.7013 14.6003 36.9368C15.2632 39.0213 17.0512 44.1236 19.0659 45.2836C19.406 45.4842 19.7636 45.6325 20.13 45.7459C20.4614 45.8505 20.8277 45.7371 21.0457 45.4668C21.2638 45.1964 21.29 44.8126 21.1155 44.5161C19.8857 42.3792 19.1531 40.4256 18.7868 39.3441C18.717 39.1173 18.7432 38.8731 18.8653 38.6638C18.9874 38.4544 19.1793 38.3062 19.4148 38.2538C20.5224 38.0183 22.5895 37.6869 25.0491 37.6869ZM21.3946 40.1203C21.4208 40.2337 22.2755 43.3997 24.5432 46.0162C24.7264 46.2168 24.8048 46.4959 24.7438 46.7663C24.6827 47.0367 24.4996 47.2547 24.2467 47.3681C23.357 47.7693 22.511 48.3275 21.7522 49.0253C21.6912 49.0863 21.6475 49.1735 21.6475 49.2608C21.6475 49.348 21.6824 49.4352 21.7435 49.505C23.3832 51.1447 25.4764 52.0343 27.6133 52.1826C27.7179 52.1913 27.8226 52.1477 27.9011 52.0692C27.9011 52.0692 27.9011 52.0605 27.9098 52.0605C28.2674 51.6854 28.6512 51.3366 29.0524 51.0226C29.2268 50.883 29.4012 50.7522 29.5844 50.6214C29.6542 50.569 29.7327 50.5167 29.8024 50.4731L29.8286 50.4556L29.8809 50.4208C29.8897 50.412 29.8984 50.412 29.9071 50.4033C29.942 50.3859 29.9682 50.3597 30.0031 50.3423C29.8984 50.2202 29.7937 50.0893 29.6978 49.9585C29.0611 49.1299 28.5291 48.2316 28.0843 47.2984C27.9011 46.9146 27.7354 46.5221 27.5871 46.1209C27.465 45.7982 27.3603 45.4842 27.2644 45.1528C27.2557 45.1179 27.2557 45.1092 27.2382 45.0743V45.0656C27.2208 45.0132 27.09 44.5161 26.9679 44.0538C26.9068 43.8358 26.9417 43.6003 27.0551 43.3997C27.1685 43.1991 27.3603 43.0595 27.5784 42.9985C28.0494 42.8764 28.5465 42.7368 28.5901 42.7281C28.5901 42.7281 28.5901 42.7281 28.5988 42.7281C28.9041 42.6496 29.2181 42.5886 29.5321 42.5275C29.9333 42.4577 30.3345 42.4054 30.7444 42.3618C31.1282 42.3269 31.5032 42.3008 31.887 42.292C32.733 42.2746 33.5703 42.3182 34.4076 42.4577C34.4425 42.4665 34.4861 42.4577 34.5122 42.4316C34.5384 42.4054 34.5558 42.3705 34.5646 42.3356C34.582 42.0565 34.6082 41.7862 34.6431 41.5158C34.7128 41.0099 34.8088 40.5041 34.9483 40.0156C35.0181 39.7714 34.9745 39.501 34.8262 39.2917C33.6226 37.6084 31.8608 36.3263 29.7152 35.7507H29.7065C29.6193 35.7332 29.5321 35.7419 29.4536 35.7943C29.3751 35.8379 29.3227 35.9164 29.3053 36.0036C29.0785 37.0066 29.0175 38.0183 29.1221 38.9952C29.157 39.2656 29.0524 39.5359 28.8518 39.7278C28.6512 39.911 28.3721 39.9895 28.1017 39.9284C24.674 39.2394 21.4993 40.0854 21.3946 40.1203ZM41.6641 51.8424C41.6728 51.8424 41.6816 51.8337 41.6816 51.8337C41.6816 51.8337 41.6816 51.825 41.6728 51.8163L41.6816 51.825C44.4028 47.089 42.7805 41.0361 38.0533 38.3062C38.0533 38.3062 38.0533 38.3062 38.0446 38.3062C37.9573 38.2625 37.8614 38.2538 37.7655 38.28C37.6695 38.3062 37.5998 38.3672 37.5474 38.4544C36.6665 40.129 36.3089 41.9519 36.4223 43.7311C36.4485 44.0189 36.3264 44.298 36.0996 44.4725C35.8728 44.6469 35.5763 44.6993 35.2972 44.612C33.2476 43.9928 31.1631 44.1759 29.9856 44.3591C29.7414 44.4027 29.5321 44.551 29.41 44.769C29.2879 44.9871 29.2617 45.24 29.3402 45.4755C29.7588 46.5832 30.6485 48.4845 32.2097 49.9498C32.4277 50.1329 32.5324 50.4208 32.4888 50.7086C32.4452 50.9877 32.2707 51.2319 32.0091 51.354C30.413 52.1477 29.0175 53.3687 28.0058 54.9736C27.9534 55.052 27.936 55.1567 27.9621 55.2439C27.9883 55.3399 28.0406 55.4184 28.1279 55.4707C28.1279 55.4707 28.1279 55.4707 28.1366 55.4707C32.8638 58.2006 38.9255 56.5784 41.6554 51.8511L41.6641 51.8424ZM43.4521 53.3949C43.3213 53.6217 43.3998 53.9008 43.6265 54.0316L48.8945 57.0668C49.1213 57.1976 49.4004 57.1191 49.5312 56.8924L50.0022 56.0812C50.133 55.8545 50.0545 55.5666 49.8277 55.4445L44.5598 52.4093C44.333 52.2785 44.0539 52.357 43.9231 52.5838L43.4521 53.3949Z" fill="#27235E"/>
<path fill-rule="evenodd" clip-rule="evenodd" d="M33.4569 27.2382C33.7709 27.3254 34.1111 27.2121 34.3117 26.9504C34.5123 26.6888 34.5384 26.3399 34.3727 26.0521C33.9279 25.2845 33.4308 24.4124 33.0993 23.8542C33.0034 23.6972 32.9772 23.5053 33.0295 23.3221C33.0819 23.139 33.1953 22.9907 33.3523 22.8948C33.5093 22.7988 33.7011 22.7814 33.8843 22.825C34.0674 22.8773 34.2157 22.9907 34.3117 23.1477C34.6344 23.7146 35.1315 24.5781 35.585 25.3456C35.7508 25.6334 36.0647 25.7904 36.3962 25.7468C36.7189 25.7032 36.9893 25.4677 37.0765 25.1537C37.1462 24.9008 37.2073 24.6566 37.2684 24.4385C37.3207 24.2554 37.4341 24.1071 37.5911 24.0112C37.7481 23.9152 37.9399 23.8891 38.1231 23.9414C38.3062 23.9937 38.4545 24.1071 38.5505 24.2641C38.6464 24.4211 38.6726 24.613 38.6202 24.7961C38.3411 25.834 37.8178 27.779 37.6347 28.4855C37.5911 28.6599 37.6172 28.8343 37.7044 28.9913C37.8614 29.2704 38.1754 29.4187 38.4894 29.3751C38.8034 29.3315 39.065 29.1047 39.1435 28.7994C39.2133 28.5291 39.2918 28.2587 39.3529 28.0319C39.4052 27.8488 39.5186 27.7005 39.6756 27.6045C39.8326 27.5086 40.0244 27.4824 40.2076 27.5348C40.3908 27.5871 40.539 27.7005 40.635 27.8662C40.7309 28.0232 40.7571 28.2151 40.7047 28.3982C40.4169 29.471 39.8762 31.5032 39.7017 32.1486C39.6669 32.2794 39.6843 32.419 39.7541 32.5324C39.9111 32.8027 40.2076 32.951 40.5216 32.9074C40.8269 32.8638 41.0798 32.6458 41.167 32.3405C41.2455 32.0527 41.3153 31.7736 41.3851 31.5294C41.4374 31.3462 41.5508 31.1979 41.7078 31.102C41.8647 31.0061 42.0566 30.9799 42.2398 31.0322C42.4229 31.0846 42.5712 31.1979 42.6672 31.3549C42.7631 31.5119 42.7893 31.7038 42.7369 31.887C42.4666 32.8987 41.9607 34.7652 41.7601 35.5152C41.7078 35.7246 41.7339 35.9426 41.8386 36.1345C42.2223 36.7973 43.1643 38.4283 43.6789 39.3179C43.8708 39.6494 43.7574 40.0855 43.426 40.2773C43.0945 40.4692 42.6584 40.3558 42.4666 40.0244C41.952 39.1348 41.01 37.5038 40.6263 36.841C40.5216 36.6578 40.3384 36.5182 40.1378 36.4659C39.3878 36.2653 37.5213 35.7594 36.5096 35.4891C36.3264 35.4455 36.1781 35.3234 36.0822 35.1664C35.9862 35.0094 35.9601 34.8175 36.0124 34.6343C36.0647 34.4512 36.1781 34.3029 36.3351 34.207C36.4921 34.111 36.684 34.0849 36.8671 34.1372C37.1026 34.1982 37.3905 34.2767 37.6783 34.3552C37.9748 34.4337 38.2975 34.3291 38.4894 34.0761C38.6813 33.8319 38.6987 33.4918 38.5417 33.2214C38.472 33.108 38.3586 33.0208 38.2365 32.9859C37.5911 32.8115 35.5589 32.2707 34.4861 31.9829C34.3029 31.9306 34.1547 31.8172 34.0587 31.6515C33.9628 31.4945 33.9366 31.3026 33.9889 31.1194C34.0413 30.9363 34.1547 30.788 34.3117 30.6921C34.4686 30.5961 34.6605 30.57 34.8437 30.6223C35.0705 30.6833 35.3408 30.7531 35.6112 30.8316C35.9165 30.9101 36.2479 30.8055 36.4398 30.5525C36.6317 30.2996 36.6578 29.9507 36.5008 29.6803C36.4136 29.5321 36.2653 29.4187 36.0996 29.3664C35.3932 29.1745 33.4482 28.6599 32.4103 28.3808C32.2271 28.3372 32.0789 28.2151 31.9829 28.0494C31.887 27.8924 31.8608 27.7005 31.9132 27.5173C31.9655 27.3342 32.0789 27.1859 32.2359 27.09C32.3929 26.994 32.5847 26.9679 32.7679 27.0202C32.9598 27.1074 33.204 27.1685 33.4569 27.2382Z" fill="#27235E"/>
<path fill-rule="evenodd" clip-rule="evenodd" d="M71.0828 92.4164C71.17 92.1024 71.4317 91.8669 71.7631 91.8233C72.0858 91.7797 72.4085 91.9367 72.5742 92.2245C73.019 93.0008 73.5162 93.8642 73.8476 94.4224C73.9435 94.5882 74.0918 94.7015 74.275 94.7539C74.4581 94.8062 74.65 94.78 74.807 94.6841C74.964 94.5881 75.0861 94.4399 75.1297 94.2567C75.182 94.0736 75.1559 93.8904 75.0599 93.7247C74.7372 93.1665 74.2401 92.2943 73.7866 91.5268C73.6208 91.2477 73.647 90.8901 73.8476 90.6284C74.0482 90.3668 74.3796 90.2534 74.7024 90.3406C74.9553 90.4104 75.1995 90.4715 75.4175 90.5325C75.6007 90.5848 75.7926 90.5587 75.9496 90.4627C76.1066 90.3668 76.2287 90.2185 76.2723 90.0354C76.3246 89.8522 76.2984 89.6603 76.2025 89.5033C76.1066 89.3376 75.9583 89.2242 75.7751 89.1719C74.7372 88.8928 72.7923 88.3695 72.0858 88.1863C71.9114 88.1427 71.7718 88.0293 71.6846 87.8724C71.5276 87.5933 71.5451 87.2531 71.7457 87.0002C71.9375 86.7472 72.269 86.6339 72.5742 86.7211C72.8446 86.7908 73.115 86.8606 73.3417 86.9304C73.5249 86.974 73.7168 86.9566 73.8738 86.8606C74.0308 86.7647 74.1529 86.6164 74.1965 86.4333C74.2488 86.2501 74.2226 86.0582 74.1267 85.9012C74.0308 85.7442 73.8825 85.6221 73.6993 85.5785C72.6266 85.2907 70.5944 84.7499 69.949 84.5755C69.8181 84.5406 69.7047 84.4534 69.6437 84.34C69.4867 84.0696 69.5129 83.7382 69.696 83.4853C69.8879 83.2411 70.2019 83.1277 70.5072 83.2062C70.795 83.2847 71.0741 83.3632 71.3183 83.4242C71.5014 83.4678 71.6933 83.4504 71.8503 83.3545C72.0073 83.2585 72.1294 83.1102 72.173 82.9271C72.2254 82.7439 72.1992 82.552 72.1032 82.3951C72.0073 82.2381 71.859 82.1159 71.6759 82.0636C70.6641 81.7932 68.7977 81.2961 68.0476 81.0868C67.8383 81.0344 67.6638 80.8949 67.5592 80.7117C67.1754 80.0489 66.2335 78.4179 65.7189 77.5283C65.527 77.1968 65.0996 77.0747 64.7595 77.2753C64.428 77.4672 64.3059 77.8946 64.5065 78.2347C65.0211 79.1244 65.9631 80.7553 66.3468 81.4182C66.4515 81.6014 66.4864 81.8281 66.4253 82.0375C66.2247 82.7875 65.7276 84.654 65.4485 85.6657C65.3962 85.8489 65.4223 86.0408 65.5183 86.1978C65.6142 86.3548 65.7625 86.4769 65.9456 86.5292C66.1288 86.5815 66.3207 86.5554 66.4777 86.4594C66.6347 86.3635 66.7568 86.2152 66.8004 86.032C66.8614 85.7966 66.9399 85.5087 67.0184 85.2209C67.0969 84.9157 67.3499 84.6976 67.6638 84.654C67.9691 84.6104 68.2744 84.7587 68.4314 85.029C68.5011 85.1424 68.5186 85.282 68.4837 85.4128C68.3093 86.0582 67.7685 88.0904 67.4807 89.1632C67.4284 89.3463 67.4545 89.5382 67.5505 89.6952C67.6464 89.8522 67.7947 89.9743 67.9778 90.0179C68.161 90.0702 68.3529 90.0441 68.5099 89.9481C68.6669 89.8522 68.789 89.7039 68.8326 89.5208C68.8936 89.294 68.9634 89.0324 69.0419 88.7533C69.1204 88.448 69.382 88.2212 69.696 88.1776C70.01 88.134 70.324 88.291 70.481 88.5614C70.5682 88.7184 70.5944 88.8928 70.5508 89.0672C70.3589 89.7737 69.8443 91.7187 69.5652 92.7566C69.5129 92.9397 69.539 93.1316 69.635 93.2886C69.7309 93.4456 69.8792 93.5677 70.0623 93.62C70.2455 93.6724 70.4374 93.6462 70.5944 93.5503C70.7514 93.4543 70.8735 93.306 70.9171 93.1229C70.952 92.9136 71.013 92.6694 71.0828 92.4164Z" fill="#27235E"/>
<path fill-rule="evenodd" clip-rule="evenodd" d="M37.0677 92.4164C36.9805 92.1024 36.7188 91.8669 36.3874 91.8233C36.0647 91.7797 35.742 91.9367 35.5763 92.2245C35.1315 93.0008 34.6343 93.8642 34.3029 94.4224C34.2069 94.5882 34.0587 94.7015 33.8755 94.7539C33.6924 94.8062 33.5005 94.78 33.3435 94.6841C33.1865 94.5881 33.0644 94.4399 33.0208 94.2567C32.9684 94.0736 32.9946 93.8904 33.0905 93.7247C33.4133 93.1665 33.9104 92.2943 34.3639 91.5268C34.5296 91.2477 34.5035 90.8901 34.3029 90.6284C34.1023 90.3668 33.7708 90.2534 33.4481 90.3406C33.1952 90.4104 32.951 90.4715 32.733 90.5325C32.5498 90.5848 32.3579 90.5587 32.2009 90.4627C32.0439 90.3668 31.9218 90.2185 31.8782 90.0354C31.8259 89.8522 31.852 89.6603 31.948 89.5033C32.0439 89.3376 32.1922 89.2242 32.3754 89.1719C33.4133 88.8928 35.3582 88.3695 36.0647 88.1863C36.2391 88.1427 36.3787 88.0293 36.4659 87.8724C36.6229 87.5933 36.6054 87.2531 36.4048 87.0002C36.2042 86.7472 35.8815 86.6339 35.5763 86.7211C35.3059 86.7908 35.0355 86.8606 34.8087 86.9304C34.6256 86.974 34.4337 86.9566 34.2767 86.8606C34.1197 86.7647 33.9976 86.6164 33.954 86.4333C33.9017 86.2501 33.9278 86.0582 34.0238 85.9012C34.1197 85.7442 34.268 85.6221 34.4511 85.5785C35.5239 85.2907 37.5561 84.7499 38.2015 84.5755C38.3324 84.5406 38.4457 84.4534 38.5068 84.34C38.6638 84.0696 38.6376 83.7382 38.4545 83.4853C38.2713 83.2323 37.9486 83.1277 37.6433 83.2062C37.3555 83.2847 37.0764 83.3632 36.8322 83.4242C36.649 83.4678 36.4572 83.4504 36.3002 83.3545C36.1432 83.2585 36.0211 83.1102 35.9775 82.9271C35.9251 82.7439 35.9513 82.552 36.0472 82.3951C36.1432 82.2381 36.2915 82.1159 36.4746 82.0636C37.4863 81.7932 39.3528 81.2961 40.1029 81.0868C40.3122 81.0344 40.4866 80.8949 40.5913 80.7117C40.9751 80.0489 41.917 78.4179 42.4316 77.5283C42.6235 77.1968 43.0509 77.0747 43.391 77.2753C43.7224 77.4672 43.8445 77.8946 43.6439 78.2347C43.1294 79.1244 42.1874 80.7553 41.8036 81.4182C41.699 81.6014 41.6641 81.8281 41.7251 82.0375C41.9257 82.7875 42.4229 84.654 42.702 85.6657C42.7543 85.8489 42.7282 86.0408 42.6322 86.1978C42.5363 86.3548 42.388 86.4769 42.2048 86.5292C42.0217 86.5815 41.8298 86.5554 41.6728 86.4594C41.5158 86.3635 41.3937 86.2152 41.3501 86.032C41.2891 85.7966 41.2106 85.5087 41.1321 85.2209C41.0536 84.9157 40.8006 84.6976 40.4866 84.654C40.1814 84.6104 39.8761 84.7587 39.7191 85.029C39.6494 85.1424 39.6319 85.282 39.6668 85.4128C39.8412 86.0582 40.382 88.0904 40.6698 89.1632C40.7221 89.3463 40.696 89.5382 40.6 89.6952C40.5041 89.8522 40.3558 89.9743 40.1727 90.0179C39.9895 90.0702 39.7976 90.0441 39.6406 89.9481C39.4836 89.8522 39.3615 89.7039 39.3179 89.5208C39.2569 89.294 39.1871 89.0324 39.1086 88.7533C39.0301 88.448 38.7684 88.2212 38.4545 88.1776C38.1405 88.134 37.8265 88.291 37.6695 88.5614C37.5823 88.7184 37.5561 88.8928 37.5997 89.0672C37.7916 89.7737 38.3062 91.7187 38.5853 92.7566C38.6376 92.9397 38.6115 93.1316 38.5155 93.2886C38.4196 93.4456 38.2713 93.5677 38.0881 93.62C37.905 93.6724 37.7131 93.6462 37.5561 93.5503C37.3991 93.4543 37.277 93.306 37.2334 93.1229C37.1985 92.9136 37.1375 92.6694 37.0677 92.4164Z" fill="#27235E"/>
<path fill-rule="evenodd" clip-rule="evenodd" d="M74.6936 27.2382C74.3796 27.3254 74.0395 27.2121 73.8389 26.9504C73.6383 26.6888 73.6121 26.3399 73.7778 26.0521C74.2227 25.2845 74.7198 24.4124 75.0512 23.8542C75.1472 23.6972 75.1733 23.5053 75.121 23.3221C75.0687 23.139 74.9553 22.9907 74.7983 22.8948C74.6413 22.7988 74.4494 22.7814 74.2663 22.825C74.0831 22.8773 73.9348 22.9907 73.8389 23.1477C73.5162 23.7146 73.019 24.5781 72.5655 25.3456C72.3998 25.6334 72.0858 25.7904 71.7544 25.7468C71.4317 25.7032 71.1613 25.4677 71.0741 25.1537C71.0043 24.9008 70.9432 24.6566 70.8822 24.4385C70.8299 24.2554 70.7165 24.1071 70.5595 24.0112C70.4025 23.9152 70.2106 23.8891 70.0275 23.9414C69.8443 23.9937 69.696 24.1071 69.6001 24.2641C69.5042 24.4211 69.478 24.613 69.5303 24.7961C69.8094 25.834 70.3327 27.779 70.5159 28.4855C70.5595 28.6599 70.542 28.8343 70.4461 28.9913C70.2891 29.2704 69.9751 29.4187 69.6611 29.3751C69.3472 29.3315 69.0855 29.1047 69.007 28.7994C68.9372 28.5291 68.8587 28.2587 68.7977 28.0319C68.7454 27.8488 68.632 27.7005 68.475 27.6045C68.318 27.5086 68.1261 27.4824 67.9429 27.5348C67.7598 27.5871 67.6115 27.7005 67.5156 27.8662C67.4196 28.0232 67.3935 28.2151 67.4458 28.3982C67.7336 29.471 68.2744 31.5032 68.4488 32.1486C68.4837 32.2794 68.4663 32.419 68.3965 32.5324C68.2395 32.8027 67.9429 32.951 67.629 32.9074C67.3237 32.8638 67.0708 32.6458 66.9835 32.3405C66.9051 32.0527 66.8353 31.7736 66.7655 31.5294C66.7132 31.3462 66.5998 31.1979 66.4428 31.102C66.2858 31.0061 66.0939 30.9799 65.9108 31.0322C65.7276 31.0846 65.5793 31.1979 65.4834 31.3549C65.3875 31.5119 65.3613 31.7038 65.4136 31.887C65.684 32.8987 66.1899 34.7652 66.3905 35.5152C66.4428 35.7246 66.4166 35.9426 66.312 36.1345C65.9282 36.7973 64.9862 38.4283 64.4717 39.3179C64.2798 39.6494 64.3932 40.0855 64.7246 40.2773C65.056 40.4692 65.4921 40.3558 65.684 40.0244C66.1986 39.1348 67.1405 37.5038 67.5243 36.841C67.629 36.6578 67.8121 36.5182 68.0127 36.4659C68.7628 36.2653 70.6293 35.7594 71.641 35.4891C71.8242 35.4455 71.9724 35.3234 72.0684 35.1664C72.1643 35.0094 72.1905 34.8175 72.1381 34.6343C72.0858 34.4512 71.9724 34.3029 71.8154 34.207C71.6584 34.111 71.4666 34.0849 71.2834 34.1372C71.0479 34.1982 70.7601 34.2767 70.4723 34.3552C70.1757 34.4337 69.853 34.3291 69.6611 34.0761C69.4693 33.8319 69.4518 33.4918 69.6088 33.2214C69.6786 33.108 69.792 33.0208 69.9141 32.9859C70.5595 32.8115 72.5917 32.2707 73.6645 31.9829C73.8476 31.9306 73.9959 31.8172 74.0918 31.6515C74.1878 31.4945 74.2139 31.3026 74.1616 31.1194C74.1093 30.9363 73.9959 30.788 73.8389 30.6921C73.6819 30.5961 73.49 30.57 73.3069 30.6223C73.0801 30.6833 72.8097 30.7531 72.5393 30.8316C72.2341 30.9101 71.9027 30.8055 71.7108 30.5525C71.5189 30.2996 71.4927 29.9507 71.6497 29.6803C71.7369 29.5321 71.8852 29.4187 72.0509 29.3664C72.7574 29.1745 74.7024 28.6599 75.7402 28.3808C75.9234 28.3372 76.0717 28.2151 76.1676 28.0494C76.2636 27.8924 76.2897 27.7005 76.2374 27.5173C76.1851 27.3342 76.0717 27.1859 75.9147 27.09C75.7577 26.994 75.5658 26.9679 75.3827 27.0202C75.1908 27.1074 74.9466 27.1685 74.6936 27.2382Z" fill="#27235E"/>
<path fill-rule="evenodd" clip-rule="evenodd" d="M16.4493 60.8696C16.6848 60.6341 16.7546 60.2852 16.6238 59.9887C16.4929 59.6921 16.2051 59.4915 15.8737 59.4915C14.9841 59.4915 13.9811 59.4915 13.3356 59.4915C13.1525 59.4915 12.9693 59.4218 12.8385 59.2822C12.7077 59.1514 12.6292 58.9769 12.6292 58.7851C12.6292 58.6019 12.699 58.4188 12.8385 58.2879C12.9693 58.1571 13.1525 58.0786 13.3356 58.0786C13.9898 58.0786 14.9841 58.0786 15.8737 58.0786C16.2051 58.0786 16.4929 57.878 16.6238 57.5815C16.7546 57.2849 16.6761 56.9273 16.4493 56.7006C16.2662 56.5174 16.083 56.3342 15.926 56.1772C15.7952 56.0464 15.7167 55.872 15.7167 55.6801C15.7167 55.4969 15.7865 55.3138 15.926 55.183C16.0569 55.0521 16.24 54.9736 16.4232 54.9736C16.6063 54.9736 16.7895 55.0521 16.9203 55.183C17.6791 55.9418 19.1008 57.3634 19.6241 57.8867C19.7462 58.0088 19.9206 58.0786 20.0951 58.0786C20.409 58.0786 20.6969 57.8867 20.819 57.5902C20.9411 57.2936 20.8713 56.9535 20.6445 56.7354C20.4439 56.5348 20.2521 56.343 20.0863 56.1772C19.9555 56.0464 19.877 55.872 19.877 55.6801C19.877 55.4969 19.9468 55.3138 20.0863 55.183C20.2172 55.0521 20.4003 54.9736 20.5835 54.9736C20.7666 54.9736 20.9498 55.0521 21.0806 55.183C21.8656 55.9679 23.3483 57.4506 23.828 57.9303C23.9239 58.0263 24.0548 58.0786 24.1856 58.0786C24.4996 58.0786 24.7787 57.8954 24.8921 57.6076C25.0142 57.3198 24.9444 56.9884 24.7263 56.7703C24.517 56.561 24.3077 56.3517 24.1333 56.1772C24.0024 56.0464 23.9239 55.872 23.9239 55.6801C23.9239 55.4969 23.9937 55.3138 24.1333 55.183C24.2641 55.0521 24.4472 54.9736 24.6304 54.9736C24.8136 54.9736 24.9967 55.0521 25.1275 55.183C25.8689 55.9243 27.2382 57.2936 27.7877 57.8431C27.936 57.9914 28.1453 58.0786 28.3633 58.0786C29.1309 58.0786 31.0148 58.0786 32.0439 58.0786C32.4277 58.0786 32.7417 58.3926 32.7417 58.7763C32.7417 59.1601 32.4277 59.4741 32.0439 59.4741C31.0148 59.4741 29.1309 59.4741 28.3633 59.4741C28.1453 59.4741 27.9447 59.5613 27.7877 59.7096C27.2382 60.2591 25.8689 61.6284 25.1275 62.3697C24.9967 62.5006 24.8136 62.5791 24.6304 62.5791C24.4472 62.5791 24.2641 62.5006 24.1333 62.3697C24.0024 62.2389 23.9239 62.0645 23.9239 61.8726C23.9239 61.6807 23.9937 61.5063 24.1333 61.3755C24.3077 61.201 24.517 60.9917 24.7263 60.7824C24.9444 60.5643 25.0142 60.2329 24.8921 59.9451C24.77 59.6573 24.4909 59.4741 24.1856 59.4741C24.0548 59.4741 23.9239 59.5264 23.828 59.6224C23.357 60.0933 21.8656 61.5848 21.0806 62.3697C20.9498 62.5006 20.7666 62.5791 20.5835 62.5791C20.4003 62.5791 20.2172 62.5006 20.0863 62.3697C19.9555 62.2389 19.877 62.0645 19.877 61.8726C19.877 61.6807 19.9468 61.5063 20.0863 61.3755C20.2521 61.2097 20.4439 61.0179 20.6445 60.8173C20.8713 60.5905 20.9411 60.2503 20.819 59.9625C20.6969 59.666 20.409 59.4741 20.0951 59.4741C19.9206 59.4741 19.7462 59.5439 19.6241 59.666C19.1095 60.1806 17.6878 61.6022 16.9203 62.3697C16.7895 62.5006 16.6063 62.5791 16.4232 62.5791C16.24 62.5791 16.0569 62.5006 15.926 62.3697C15.7952 62.2389 15.7167 62.0645 15.7167 61.8726C15.7167 61.6807 15.7865 61.5063 15.926 61.3755C16.083 61.2359 16.2575 61.0527 16.4493 60.8696Z" fill="#27235E"/>
<path fill-rule="evenodd" clip-rule="evenodd" d="M91.7012 60.8696C91.4657 60.6341 91.4047 60.2852 91.5268 59.9887C91.6489 59.6834 91.9454 59.4915 92.2768 59.4915C93.1665 59.4915 94.1695 59.4915 94.8149 59.4915C94.998 59.4915 95.1812 59.4218 95.312 59.2822C95.4429 59.1514 95.5213 58.9769 95.5213 58.7851C95.5213 58.6019 95.4516 58.4188 95.312 58.2879C95.1725 58.1571 95.0068 58.0786 94.8149 58.0786C94.1607 58.0786 93.1665 58.0786 92.2768 58.0786C91.9454 58.0786 91.6489 57.878 91.5268 57.5815C91.4047 57.2762 91.4744 56.9273 91.7012 56.7006C91.8844 56.5174 92.0675 56.3342 92.2245 56.1772C92.3553 56.0464 92.4338 55.872 92.4338 55.6801C92.4338 55.4969 92.3641 55.3138 92.2245 55.183C92.0937 55.0521 91.9192 54.9736 91.7274 54.9736C91.5442 54.9736 91.361 55.0521 91.2302 55.183C90.4714 55.9418 89.0498 57.3634 88.5265 57.8867C88.4043 58.0088 88.2299 58.0786 88.0555 58.0786C87.7328 58.0786 87.4537 57.8867 87.3316 57.5902C87.2095 57.2936 87.2792 56.9535 87.4973 56.7354C87.6979 56.5348 87.8898 56.343 88.0555 56.1772C88.1863 56.0464 88.2648 55.872 88.2648 55.6801C88.2648 55.4969 88.195 55.3138 88.0555 55.183C87.9246 55.0521 87.7415 54.9736 87.5583 54.9736C87.3752 54.9736 87.192 55.0521 87.0612 55.183C86.2762 55.9679 84.7848 57.4506 84.3138 57.9303C84.2179 58.0263 84.0871 58.0786 83.9562 58.0786C83.6422 58.0786 83.3631 57.8954 83.2498 57.6076C83.1276 57.3198 83.1974 56.9884 83.4155 56.7703C83.6248 56.561 83.8341 56.3517 84.0086 56.1772C84.1394 56.0464 84.2179 55.872 84.2179 55.6801C84.2179 55.4969 84.1481 55.3138 84.0086 55.183C83.8777 55.0521 83.6946 54.9736 83.5114 54.9736C83.3283 54.9736 83.1451 55.0521 83.0143 55.183C82.2729 55.9243 80.9036 57.2936 80.3541 57.8431C80.2058 57.9914 79.9965 58.0786 79.7785 58.0786C79.011 58.0786 77.127 58.0786 76.0979 58.0786C75.7141 58.0786 75.4001 58.3926 75.4001 58.7763C75.4001 59.1601 75.7141 59.4741 76.0979 59.4741C77.127 59.4741 79.011 59.4741 79.7785 59.4741C79.9965 59.4741 80.1971 59.5613 80.3541 59.7096C80.9036 60.2591 82.2729 61.6284 83.0143 62.3697C83.1451 62.5006 83.3283 62.5791 83.5114 62.5791C83.6946 62.5791 83.8777 62.5006 84.0086 62.3697C84.1394 62.2389 84.2179 62.0645 84.2179 61.8726C84.2179 61.6894 84.1481 61.5063 84.0086 61.3755C83.8341 61.201 83.6248 60.9917 83.4155 60.7824C83.1974 60.5643 83.1276 60.2329 83.2498 59.9451C83.3719 59.6573 83.651 59.4741 83.9562 59.4741C84.0871 59.4741 84.2179 59.5264 84.3138 59.6224C84.7848 60.0933 86.2762 61.5848 87.0612 62.3697C87.192 62.5006 87.3752 62.5791 87.5583 62.5791C87.7415 62.5791 87.9246 62.5006 88.0555 62.3697C88.1863 62.2389 88.2648 62.0645 88.2648 61.8726C88.2648 61.6807 88.195 61.5063 88.0555 61.3755C87.8898 61.2097 87.6979 61.0179 87.4973 60.8173C87.2705 60.5905 87.2007 60.2503 87.3316 59.9625C87.4537 59.666 87.7415 59.4741 88.0555 59.4741C88.2299 59.4741 88.4043 59.5439 88.5265 59.666C89.041 60.1806 90.4627 61.6022 91.2302 62.3697C91.361 62.5006 91.5442 62.5791 91.7274 62.5791C91.9105 62.5791 92.0937 62.5006 92.2245 62.3697C92.3553 62.2389 92.4338 62.0645 92.4338 61.8726C92.4338 61.6807 92.3641 61.5063 92.2245 61.3755C92.0675 61.2359 91.8931 61.0527 91.7012 60.8696Z" fill="#27235E"/>
<path fill-rule="evenodd" clip-rule="evenodd" d="M51.3192 31.2067C51.6681 31.102 51.9123 30.7793 51.9123 30.413C51.9123 29.5059 51.9123 27.8749 51.9123 27.308C51.9123 27.1772 51.8774 27.0464 51.825 26.933C51.1884 25.6945 47.4467 18.3681 45.9465 15.4463C45.8157 15.1847 45.8244 14.8794 45.9814 14.6352C46.1297 14.391 46.4001 14.234 46.6879 14.234C47.6299 14.234 48.8422 14.234 49.5312 14.234C49.8539 14.234 50.1505 14.4259 50.29 14.7224C50.8657 15.9871 52.4269 19.4322 53.3688 21.5254C53.4996 21.822 53.7962 22.0139 54.1276 22.0139C54.459 22.0139 54.7469 21.822 54.8864 21.5254C55.8284 19.4409 57.3896 15.9958 57.9652 14.7224C58.096 14.4259 58.3926 14.234 58.724 14.234C59.413 14.234 60.6166 14.234 61.5673 14.234C61.8551 14.234 62.1255 14.3823 62.2738 14.6352C62.4221 14.8794 62.4395 15.1847 62.3087 15.4463C60.8085 18.3769 57.0581 25.7032 56.4302 26.933C56.3691 27.0551 56.343 27.1772 56.343 27.308C56.343 27.8488 56.343 29.3838 56.343 30.2734C56.343 30.6572 56.6046 30.9886 56.9709 31.0758C57.4593 31.1979 57.9216 31.3637 58.3577 31.5643C59.4828 32.0876 60.355 32.8202 60.9742 33.7709C61.4278 34.4686 61.7156 35.2361 61.8377 36.0734C61.8726 36.3089 61.8028 36.5444 61.6458 36.7276C61.4888 36.9107 61.2621 37.0067 61.0266 37.0067C60.2242 37.0154 59.0554 37.0154 58.3054 37.0154C57.9129 37.0154 57.5727 36.7363 57.4942 36.3525C57.407 35.8031 57.1541 35.3495 56.7703 34.9919C56.2296 34.4861 55.4359 34.2331 54.398 34.2331C53.7351 34.2331 53.1682 34.3291 52.6972 34.521C52.235 34.7128 51.8774 34.9832 51.6419 35.3146C51.4064 35.6548 51.293 36.0298 51.293 36.4398C51.293 37.059 51.6157 37.5823 52.2524 38.0097C52.8891 38.4371 53.8747 38.8644 55.2178 39.2743C57.4768 39.9634 59.1601 40.8355 60.2678 41.8734C61.3667 42.9113 61.9249 44.2458 61.9249 45.868C61.9249 47.0368 61.6284 48.0485 61.0266 48.8945C60.4248 49.7405 59.5787 50.3859 58.4711 50.822C57.3721 51.2668 56.0726 51.4849 54.5899 51.4849C53.1682 51.4849 51.8338 51.2407 50.5778 50.7523C49.3219 50.2638 48.3102 49.5138 47.5252 48.502C46.9147 47.7083 46.5396 46.7838 46.4088 45.711C46.3826 45.4756 46.4524 45.2401 46.6094 45.0656C46.7664 44.8912 46.9932 44.7865 47.2199 44.7865C48.0223 44.7778 49.1911 44.7778 49.9586 44.7778C50.3685 44.7778 50.7174 45.0744 50.7784 45.4843C50.8744 46.278 51.1971 46.8798 51.7204 47.281C52.392 47.7956 53.3514 48.0485 54.5899 48.0485C55.5754 48.0485 56.3255 47.8479 56.8227 47.4554C57.3285 47.0542 57.5814 46.5396 57.5814 45.8942C57.5814 45.4145 57.4768 45.0133 57.2762 44.6906C57.0756 44.3679 56.7005 44.0539 56.1511 43.7661C55.6103 43.4695 54.7992 43.1556 53.7439 42.8067C52.3745 42.3619 51.2058 41.8734 50.2202 41.3327C49.2347 40.7919 48.4497 40.1204 47.8566 39.3005C47.2635 38.4894 46.967 37.5213 46.967 36.4049C46.967 35.2885 47.2897 34.3029 47.9264 33.4482C48.5718 32.5934 49.4527 31.9306 50.5953 31.4683C50.7959 31.3811 51.0488 31.2939 51.3192 31.2067Z" fill="#27235E"/>
<path d="M3.48873 196.511H104.662V3.48873H3.48873V196.511ZM108.151 200H0V0H108.151C108.151 66.6696 108.151 133.33 108.151 200Z" fill="#27235E"/>
</svg>
