<svg width="128" height="139" viewBox="0 0 128 139" fill="none" xmlns="http://www.w3.org/2000/svg">
<path fill-rule="evenodd" clip-rule="evenodd" d="M57.594 123.665C57.3272 123.192 56.7936 122.938 56.2533 123.018C55.7131 123.098 55.2862 123.505 55.1661 124.032C55.0527 124.606 54.9794 125.193 54.9794 125.793C54.9794 129.355 60.3819 135.651 62.6497 138.132C62.8965 138.412 63.2566 138.572 63.6302 138.572C64.0037 138.572 64.3638 138.412 64.6106 138.132C66.8784 135.651 72.2809 129.355 72.2809 125.793C72.2809 125.186 72.2142 124.599 72.0808 124.032C71.9608 123.512 71.5339 123.112 71.007 123.032C70.4734 122.952 69.9532 123.205 69.6864 123.672C67.7855 126.94 65.7578 129.421 64.5973 130.735C64.3505 131.002 63.997 131.156 63.6368 131.156C63.27 131.156 62.9231 131.002 62.6764 130.735C61.5091 129.421 59.4815 126.94 57.594 123.665ZM63.6368 126.66C63.7635 126.533 67.3186 122.972 69.0527 117.949C69.1794 117.549 69.4996 117.236 69.8998 117.109C70.3 116.982 70.7402 117.056 71.0737 117.302C72.2943 118.183 73.6749 118.876 75.189 119.343C75.3224 119.383 75.4624 119.37 75.5825 119.303C75.7025 119.237 75.7959 119.13 75.8359 118.996V118.99C76.7564 115.562 76.3362 112.093 74.8888 109.138C74.8155 108.992 74.6754 108.885 74.5153 108.852C74.5086 108.852 74.5086 108.852 74.502 108.852C73.7349 108.665 72.9813 108.425 72.2409 108.131C71.9207 108.005 71.6139 107.871 71.3005 107.731C71.1737 107.678 71.0537 107.618 70.9336 107.558L70.8869 107.538L70.7935 107.491C70.7802 107.484 70.7669 107.478 70.7469 107.471C70.6935 107.444 70.6468 107.418 70.5935 107.391C70.5067 107.624 70.42 107.858 70.32 108.091C69.713 109.565 68.926 110.966 68.0189 112.273C67.6454 112.814 67.2519 113.334 66.8383 113.841C66.5048 114.241 66.1647 114.634 65.8045 115.015C65.7578 115.061 65.7578 115.061 65.7178 115.108C65.7111 115.115 65.7111 115.115 65.7045 115.121C65.6444 115.181 65.0908 115.735 64.5706 116.255C64.3238 116.502 63.9837 116.642 63.6368 116.642C63.29 116.642 62.9498 116.502 62.703 116.255C62.1761 115.728 61.6159 115.168 61.5692 115.121L61.5625 115.115C61.2223 114.768 60.8955 114.401 60.5887 114.027C60.1885 113.547 59.8083 113.054 59.4482 112.547C59.108 112.073 58.7879 111.58 58.481 111.079C57.8074 109.972 57.2271 108.818 56.7669 107.604C56.7469 107.551 56.7002 107.504 56.6468 107.484C56.5935 107.464 56.5335 107.464 56.4801 107.491C56.0999 107.678 55.7131 107.851 55.3262 108.011C54.5992 108.311 53.8522 108.558 53.0985 108.758C52.7183 108.858 52.3982 109.118 52.2314 109.479C50.9241 112.36 50.5706 115.695 51.451 118.983V118.996C51.4911 119.13 51.5778 119.237 51.6978 119.303C51.8179 119.37 51.9579 119.383 52.0913 119.343C53.5987 118.876 54.986 118.176 56.2066 117.296C56.5468 117.042 56.987 116.969 57.3872 117.102C57.7874 117.229 58.1009 117.542 58.2343 117.949C59.9684 122.972 63.5234 126.533 63.6502 126.66C63.6302 126.66 63.6368 126.66 63.6368 126.66ZM63.6502 90.7364C63.6368 90.723 63.6302 90.7164 63.6302 90.7164C63.6302 90.7164 63.6235 90.723 63.6101 90.7364V90.7164C55.2328 90.723 48.4363 97.5329 48.4363 105.91V105.917C48.4429 106.064 48.503 106.204 48.6097 106.304C48.7164 106.404 48.8631 106.457 49.0099 106.457C51.9179 106.344 54.6125 105.423 56.8803 103.903C57.2405 103.649 57.7073 103.596 58.1142 103.763C58.5211 103.929 58.8212 104.289 58.9079 104.723C59.6549 107.918 61.4958 110.552 62.643 111.966C62.8898 112.253 63.25 112.42 63.6302 112.42C64.0103 112.42 64.3705 112.253 64.6173 111.966C65.7712 110.552 67.612 107.918 68.3657 104.723C68.4524 104.296 68.7459 103.936 69.1528 103.776C69.5596 103.616 70.0198 103.669 70.38 103.916C72.6544 105.43 75.349 106.35 78.2571 106.464C78.4038 106.471 78.5439 106.417 78.6506 106.31C78.7573 106.21 78.8174 106.07 78.824 105.924V105.917C78.824 97.5396 72.0208 90.7364 63.6502 90.7231V90.7364ZM64.3505 87.1747C64.744 87.1747 65.0708 86.8545 65.0708 86.4544V77.1299C65.0708 76.7364 64.7507 76.4096 64.3505 76.4096H62.9165C62.523 76.4096 62.2028 76.7297 62.2028 77.1299V86.4544C62.2028 86.8479 62.523 87.1747 62.9165 87.1747H64.3505Z" fill="#27235E"/>
<path fill-rule="evenodd" clip-rule="evenodd" d="M108.211 35.9904C107.664 35.9904 107.178 35.6636 106.977 35.1567C106.777 34.6498 106.911 34.0762 107.311 33.7027C107.751 33.3158 108.225 32.9623 108.745 32.6622C111.826 30.8813 119.984 32.4154 123.265 33.1357C123.632 33.2091 123.952 33.4425 124.139 33.7627C124.326 34.0895 124.366 34.4764 124.246 34.8299C123.232 38.0314 120.477 45.8618 117.396 47.6426C116.875 47.9427 116.329 48.1762 115.768 48.3496C115.255 48.5097 114.701 48.3363 114.368 47.9161C114.034 47.4959 113.994 46.9156 114.261 46.4554C116.142 43.1805 117.276 40.1791 117.829 38.5183C117.936 38.1714 117.889 37.7913 117.709 37.4778C117.529 37.1643 117.222 36.9375 116.869 36.8508C115.161 36.504 111.993 35.9837 108.211 35.9904ZM113.827 39.7255C113.781 39.8923 112.473 44.7612 108.992 48.7698C108.712 49.0833 108.598 49.5102 108.685 49.9237C108.778 50.3372 109.058 50.6774 109.445 50.8441C110.819 51.4644 112.113 52.3115 113.267 53.3853C113.367 53.4787 113.427 53.6121 113.427 53.7455C113.434 53.8856 113.38 54.019 113.287 54.119C113.287 54.119 113.287 54.119 113.28 54.1257C110.773 56.6335 107.558 58.0075 104.276 58.2276C104.109 58.241 103.949 58.1743 103.836 58.0475C103.836 58.0409 103.829 58.0409 103.829 58.0342C103.282 57.4673 102.695 56.9337 102.082 56.4401C101.815 56.2267 101.541 56.0199 101.268 55.8265C101.155 55.7464 101.048 55.6731 100.935 55.593L100.895 55.5664L100.808 55.513C100.794 55.5063 100.781 55.493 100.768 55.4863C100.721 55.453 100.668 55.4196 100.621 55.3929C100.781 55.1995 100.935 55.0061 101.088 54.8127C102.062 53.5521 102.882 52.1714 103.562 50.7307C103.843 50.1371 104.096 49.5368 104.329 48.9232C104.51 48.4363 104.683 47.9427 104.83 47.4425C104.85 47.3825 104.85 47.3758 104.863 47.3224C104.863 47.3158 104.863 47.3091 104.87 47.3091C104.89 47.2291 105.097 46.4687 105.283 45.7617C105.377 45.4216 105.33 45.0614 105.15 44.7546C104.976 44.4478 104.683 44.2277 104.349 44.1409C103.629 43.9475 102.862 43.7408 102.795 43.7274C102.789 43.7274 102.789 43.7274 102.789 43.7274C102.315 43.6074 101.842 43.5073 101.361 43.4206C100.748 43.3139 100.127 43.2272 99.5072 43.1738C98.9269 43.1138 98.34 43.0804 97.753 43.0671C96.4591 43.0404 95.1651 43.1138 93.8845 43.3206C93.8845 43.3206 93.8845 43.3206 93.8779 43.3206C93.8178 43.3272 93.7645 43.3139 93.7178 43.2739C93.6711 43.2405 93.6444 43.1872 93.6377 43.1271C93.6111 42.7069 93.571 42.2801 93.511 41.8599C93.4043 41.0795 93.2509 40.3125 93.0441 39.5521C92.9374 39.1719 93.0108 38.7651 93.2309 38.4449C95.0718 35.8704 97.7797 33.9028 101.075 33.0157H101.088C101.221 32.9823 101.361 33.0023 101.481 33.0757C101.602 33.1491 101.682 33.2625 101.715 33.3958C102.068 34.9366 102.148 36.484 102.002 37.978C101.955 38.3982 102.108 38.8117 102.422 39.0986C102.735 39.3854 103.162 39.4987 103.576 39.412C108.792 38.3782 113.661 39.6722 113.827 39.7255C113.827 39.7188 113.827 39.7188 113.827 39.7255ZM82.7259 57.7007C82.7059 57.694 82.6992 57.694 82.6992 57.694C82.6992 57.694 82.6992 57.6874 82.7059 57.6674L82.6926 57.674C78.5106 50.4173 81.0051 41.1262 88.2619 36.9309C88.2619 36.9309 88.2685 36.9309 88.2685 36.9242C88.3953 36.8508 88.5487 36.8375 88.6954 36.8775C88.8355 36.9175 88.9555 37.0176 89.0222 37.1443C90.3762 39.7188 90.9231 42.5135 90.743 45.2348C90.703 45.675 90.8898 46.1019 91.2366 46.3753C91.5834 46.6488 92.0437 46.7288 92.4639 46.5821C95.6054 45.6283 98.8069 45.9084 100.608 46.1953C100.981 46.2686 101.308 46.4954 101.495 46.8222C101.688 47.149 101.722 47.5492 101.595 47.9094C100.948 49.6102 99.5806 52.5249 97.1994 54.7793C96.8726 55.0661 96.7059 55.4997 96.7726 55.9399C96.8326 56.3734 97.1127 56.7469 97.5063 56.9337C99.9541 58.1476 102.102 60.0218 103.649 62.483C103.729 62.6097 103.749 62.7564 103.716 62.9032C103.683 63.0432 103.589 63.17 103.469 63.2433C103.469 63.2433 103.462 63.2433 103.462 63.25C96.2056 67.4387 86.9146 64.9508 82.7192 57.7007H82.7259ZM79.9913 60.0885C80.1914 60.4287 80.0713 60.8689 79.7311 61.069L71.654 65.7312C71.3138 65.9313 70.8736 65.8112 70.6735 65.4711L69.9532 64.2305C69.7531 63.8903 69.8731 63.4501 70.2133 63.25L78.2905 58.5878C78.6306 58.3877 79.0708 58.5078 79.2709 58.8479L79.9913 60.0885Z" fill="#27235E"/>
<path fill-rule="evenodd" clip-rule="evenodd" d="M13.0195 90.9565C13.2929 90.4896 13.2529 89.896 12.9127 89.4691C12.5726 89.0423 12.0056 88.8688 11.4921 89.0356C10.9385 89.2223 10.3982 89.4558 9.87129 89.7559C6.78983 91.5368 4.03519 99.3672 3.02138 102.569C2.90132 102.922 2.94134 103.316 3.12809 103.636C3.31485 103.963 3.635 104.189 4.00184 104.263C7.2834 104.983 15.4339 106.517 18.5221 104.736C19.0423 104.436 19.5225 104.076 19.9427 103.683C20.3363 103.322 20.4697 102.749 20.2696 102.255C20.0761 101.755 19.5892 101.428 19.0556 101.428C15.2739 101.415 12.1124 100.901 10.3982 100.548C10.0447 100.468 9.7379 100.241 9.55781 99.9207C9.37773 99.6073 9.33104 99.2271 9.43775 98.8803C9.98468 97.2261 11.1186 94.2247 13.0195 90.9565ZM13.4397 97.6864C13.6064 97.733 18.4754 99.027 23.6912 98.0198C24.1047 97.9331 24.5316 98.0465 24.8451 98.3333C25.1585 98.6135 25.312 99.0337 25.2653 99.4472C25.1185 100.948 25.2052 102.489 25.5521 104.029C25.5854 104.163 25.6655 104.276 25.7855 104.35C25.9056 104.423 26.0456 104.443 26.179 104.41H26.1857C29.614 103.489 32.4086 101.395 34.2429 98.6668C34.3362 98.5267 34.3562 98.3533 34.3029 98.1999C34.3029 98.1933 34.3029 98.1933 34.2962 98.1866C34.0761 97.4262 33.9094 96.6525 33.7893 95.8722C33.7359 95.532 33.6959 95.1985 33.6626 94.8583C33.6492 94.725 33.6359 94.5849 33.6292 94.4515L33.6226 94.3981L33.6159 94.2981C33.6159 94.2781 33.6159 94.2647 33.6092 94.2447C33.6025 94.1847 33.6025 94.1313 33.6025 94.0713C33.3558 94.1113 33.109 94.1513 32.8622 94.1847C31.2814 94.3981 29.674 94.4181 28.0933 94.2847C27.4396 94.2314 26.7927 94.1513 26.1457 94.0446C25.6321 93.9579 25.1185 93.8579 24.6116 93.7311C24.6116 93.7311 24.6116 93.7311 24.6049 93.7311C24.5449 93.7178 24.5382 93.7178 24.4849 93.6978C24.4782 93.6978 24.4715 93.6978 24.4715 93.6911C24.3915 93.6711 23.6312 93.4644 22.9242 93.2776C22.584 93.1842 22.2972 92.9641 22.1238 92.664C21.9504 92.3572 21.9037 91.997 21.9904 91.6568C22.1838 90.9365 22.3906 90.1761 22.4039 90.1028V90.0961C22.5306 89.6292 22.6907 89.1623 22.8575 88.7088C23.0709 88.1218 23.311 87.5482 23.5711 86.9813C23.8112 86.4477 24.078 85.9274 24.3582 85.4139C24.9785 84.28 25.6921 83.1928 26.5058 82.1923C26.5392 82.1457 26.5592 82.0856 26.5459 82.0323C26.5392 81.9722 26.5058 81.9255 26.4525 81.8922C26.099 81.6588 25.7588 81.412 25.4253 81.1518C24.805 80.6716 24.2114 80.1514 23.6645 79.5978C23.391 79.3176 23.0042 79.1709 22.6107 79.2043C19.4625 79.5111 16.4011 80.8717 13.9866 83.2795L13.9799 83.2862C13.8865 83.3862 13.8332 83.5196 13.8398 83.653C13.8465 83.7931 13.8999 83.9198 13.9999 84.0132C15.1605 85.087 16.4544 85.9341 17.8284 86.5544C18.2153 86.7212 18.4954 87.068 18.5888 87.4815C18.6755 87.895 18.5621 88.3219 18.2819 88.6354C14.7936 92.644 13.4797 97.5129 13.4397 97.6864C13.433 97.6797 13.4397 97.6797 13.4397 97.6864ZM44.5611 79.7378C44.5677 79.7178 44.5677 79.7112 44.5677 79.7112C44.5677 79.7112 44.5611 79.7112 44.5411 79.7045L44.5611 79.6978C40.3658 72.4477 31.0747 69.9599 23.8179 74.1485C23.8179 74.1485 23.8112 74.1485 23.8112 74.1552C23.6845 74.2352 23.5978 74.3553 23.5578 74.502C23.5244 74.6488 23.5511 74.7955 23.6245 74.9222C25.1719 77.3834 27.3262 79.2576 29.7741 80.4582C30.1743 80.6449 30.4544 81.0184 30.5144 81.4587C30.5744 81.8989 30.4144 82.3324 30.0809 82.6259C27.6864 84.8669 26.3258 87.7817 25.6788 89.4825C25.5521 89.8426 25.5854 90.2361 25.7788 90.5696C25.9723 90.8965 26.2924 91.1299 26.6659 91.1966C28.4668 91.4901 31.6683 91.7635 34.8098 90.8231C35.2233 90.683 35.6835 90.7564 36.0237 91.0299C36.3705 91.3033 36.5506 91.7235 36.5173 92.1637C36.3438 94.885 36.8908 97.6864 38.2514 100.254C38.3181 100.381 38.4382 100.481 38.5782 100.521C38.7183 100.561 38.8717 100.548 38.9984 100.474C38.9984 100.474 39.0051 100.474 39.0051 100.468C46.2619 96.279 48.7564 86.9879 44.5744 79.7245L44.5611 79.7378ZM47.996 78.5573C48.1961 78.8974 48.6363 79.0175 48.9765 78.8174L57.0537 74.1552C57.3938 73.9551 57.5139 73.5149 57.3138 73.1747L56.5934 71.9341C56.3934 71.594 55.9531 71.4739 55.613 71.674L47.5358 76.3362C47.1957 76.5363 47.0756 76.9765 47.2757 77.3167L47.996 78.5573Z" fill="#27235E"/>
<path fill-rule="evenodd" clip-rule="evenodd" d="M114.248 90.9565C113.974 90.4896 114.014 89.896 114.354 89.4691C114.694 89.0423 115.255 88.8688 115.775 89.0356C116.329 89.2223 116.869 89.4558 117.396 89.7559C120.477 91.5368 123.232 99.3672 124.246 102.569C124.366 102.922 124.326 103.316 124.139 103.636C123.952 103.963 123.632 104.189 123.265 104.263C119.984 104.983 111.833 106.517 108.745 104.736C108.218 104.436 107.744 104.076 107.318 103.683C106.924 103.322 106.791 102.749 106.991 102.255C107.184 101.755 107.671 101.428 108.205 101.428C111.986 101.415 115.148 100.901 116.862 100.548C117.216 100.468 117.522 100.241 117.702 99.9207C117.883 99.6073 117.929 99.2271 117.823 98.8803C117.282 97.2261 116.148 94.2247 114.248 90.9565ZM113.827 97.6864C113.654 97.733 108.792 99.027 103.576 98.0198C103.162 97.9331 102.735 98.0465 102.422 98.3333C102.108 98.6135 101.955 99.0337 102.002 99.4472C102.148 100.948 102.062 102.489 101.715 104.029C101.682 104.163 101.602 104.276 101.481 104.35C101.361 104.423 101.221 104.443 101.088 104.41H101.081C97.653 103.489 94.8583 101.395 93.0241 98.6668C92.9307 98.5267 92.9107 98.3533 92.9574 98.1999C92.9574 98.1933 92.9641 98.1933 92.9641 98.1866C93.1842 97.4262 93.3509 96.6525 93.471 95.8722C93.5244 95.532 93.5644 95.1985 93.5977 94.8583C93.6111 94.725 93.6244 94.5849 93.6311 94.4515V94.3981L93.6377 94.2981C93.6377 94.2781 93.6377 94.2647 93.6444 94.2447C93.6511 94.1847 93.6511 94.1313 93.6511 94.0713C93.8979 94.1113 94.1447 94.1513 94.3914 94.1847C95.9722 94.3981 97.5796 94.4181 99.1604 94.2847C99.814 94.2314 100.461 94.1513 101.108 94.0446C101.622 93.9579 102.135 93.8579 102.642 93.7311C102.702 93.7178 102.709 93.7178 102.762 93.6978C102.769 93.6978 102.769 93.6978 102.775 93.6911C102.855 93.6711 103.616 93.4644 104.323 93.2776C104.663 93.1842 104.95 92.9641 105.123 92.664C105.297 92.3572 105.343 91.997 105.257 91.6568C105.063 90.9365 104.856 90.1761 104.843 90.1028V90.0961C104.716 89.6292 104.556 89.1623 104.39 88.7088C104.176 88.1218 103.936 87.5482 103.676 86.9813C103.436 86.4477 103.169 85.9274 102.889 85.4139C102.269 84.28 101.555 83.1928 100.741 82.1923C100.701 82.1457 100.688 82.0856 100.701 82.0323C100.708 81.9722 100.741 81.9255 100.794 81.8922C101.148 81.6588 101.488 81.412 101.822 81.1518C102.442 80.6716 103.036 80.1514 103.582 79.5978C103.856 79.3176 104.249 79.1709 104.636 79.2043C107.784 79.5111 110.846 80.8717 113.26 83.2795L113.267 83.2862C113.36 83.3862 113.414 83.5196 113.407 83.653C113.4 83.7931 113.347 83.9198 113.247 84.0132C112.086 85.087 110.793 85.9341 109.419 86.5544C109.032 86.7212 108.752 87.068 108.658 87.4815C108.571 87.895 108.685 88.3219 108.965 88.6354C112.473 92.644 113.787 97.5129 113.827 97.6864C113.834 97.6797 113.827 97.6797 113.827 97.6864ZM82.7059 79.7378C82.6992 79.7178 82.6992 79.7112 82.6992 79.7112C82.6992 79.7112 82.7059 79.7112 82.7259 79.7045L82.7059 79.6978C86.9012 72.4477 96.1923 69.9599 103.449 74.1485C103.449 74.1485 103.456 74.1485 103.456 74.1552C103.582 74.2352 103.669 74.3553 103.709 74.502C103.743 74.6488 103.716 74.7955 103.642 74.9222C102.095 77.3834 99.9407 79.2576 97.4929 80.4582C97.0927 80.6449 96.8126 81.0184 96.7526 81.4587C96.6925 81.8922 96.8526 82.3324 97.1861 82.6259C99.5806 84.8669 100.941 87.7817 101.588 89.4825C101.715 89.8426 101.682 90.2361 101.488 90.5696C101.295 90.9031 100.975 91.1299 100.601 91.1966C98.8002 91.4901 95.5987 91.7635 92.4572 90.8231C92.0437 90.683 91.5834 90.7564 91.2433 91.0299C90.8964 91.3033 90.7164 91.7235 90.7497 92.1637C90.9231 94.885 90.3762 97.6864 89.0156 100.254C88.9489 100.381 88.8288 100.481 88.6887 100.521C88.5487 100.561 88.3953 100.548 88.2685 100.474C88.2685 100.474 88.2619 100.474 88.2619 100.468C81.0051 96.279 78.5106 86.9879 82.6926 79.7245L82.7059 79.7378ZM79.2709 78.5573C79.0708 78.8974 78.6306 79.0175 78.2905 78.8174L70.2133 74.1552C69.8731 73.9551 69.7531 73.5149 69.9532 73.1747L70.6735 71.9341C70.8736 71.594 71.3138 71.4739 71.654 71.674L79.7311 76.3362C80.0713 76.5363 80.1914 76.9765 79.9913 77.3167L79.2709 78.5573Z" fill="#27235E"/>
<path fill-rule="evenodd" clip-rule="evenodd" d="M19.0556 35.9904C19.5959 35.9904 20.0895 35.6636 20.2896 35.1567C20.4897 34.6498 20.3563 34.0762 19.9561 33.7027C19.5159 33.3158 19.0423 32.9623 18.5221 32.6622C15.4406 30.8813 7.2834 32.4154 4.00184 33.1357C3.635 33.2091 3.31485 33.4425 3.12809 33.7627C2.94134 34.0895 2.90132 34.4764 3.02138 34.8299C4.03519 38.0314 6.78983 45.8618 9.87129 47.6426C10.3915 47.9427 10.9385 48.1762 11.4987 48.3496C12.0123 48.5097 12.5659 48.3363 12.8994 47.9161C13.2329 47.4959 13.2729 46.9156 13.0061 46.4554C11.1252 43.1805 9.99135 40.1791 9.43775 38.5183C9.33104 38.1714 9.37773 37.7913 9.55781 37.4778C9.7379 37.1643 10.0447 36.9375 10.3982 36.8508C12.1057 36.504 15.2739 35.9837 19.0556 35.9904ZM13.4397 39.7255C13.4863 39.8923 14.7936 44.7612 18.2753 48.7698C18.5554 49.0833 18.6688 49.5102 18.5821 49.9237C18.4954 50.3372 18.2086 50.6774 17.8217 50.8441C16.4477 51.4644 15.1538 52.3115 13.9999 53.3853C13.8999 53.4787 13.8398 53.6121 13.8398 53.7455C13.8332 53.8856 13.8865 54.019 13.9799 54.119C13.9799 54.119 13.9799 54.119 13.9866 54.1257C16.4944 56.6335 19.7093 58.0075 22.9909 58.2276C23.1576 58.241 23.3177 58.1743 23.4311 58.0475C23.4311 58.0409 23.4377 58.0409 23.4377 58.0342C23.9847 57.4673 24.5716 56.9337 25.1852 56.4401C25.452 56.2267 25.7255 56.0199 25.9989 55.8265C26.1123 55.7464 26.219 55.6731 26.3324 55.593L26.3725 55.5664L26.4592 55.513C26.4725 55.5063 26.4858 55.493 26.4992 55.4863C26.5459 55.453 26.5992 55.4196 26.6459 55.3929C26.4858 55.1995 26.3324 55.0061 26.179 54.8127C25.2052 53.5521 24.3848 52.1714 23.7045 50.7307C23.4244 50.1371 23.1709 49.5368 22.9375 48.9232C22.7574 48.4363 22.584 47.9427 22.4373 47.4425C22.4172 47.3825 22.4172 47.3758 22.4039 47.3224C22.4039 47.3158 22.4039 47.3091 22.3972 47.3091C22.3772 47.2291 22.1705 46.4687 21.9837 45.7617C21.8903 45.4216 21.9437 45.0614 22.1171 44.7546C22.2905 44.4478 22.584 44.2277 22.9175 44.1409C23.6378 43.9475 24.3982 43.7408 24.4715 43.7274H24.4782C24.9451 43.6074 25.4253 43.5073 25.9056 43.4206C26.5192 43.3139 27.1395 43.2272 27.7598 43.1738C28.3401 43.1138 28.927 43.0804 29.5139 43.0671C30.8079 43.0404 32.1018 43.1138 33.3824 43.3206C33.4425 43.3272 33.4958 43.3139 33.5425 43.2739C33.5892 43.2405 33.6159 43.1872 33.6159 43.1271C33.6426 42.7069 33.6826 42.2801 33.7426 41.8599C33.8493 41.0795 34.0027 40.3125 34.2095 39.5521C34.3162 39.1719 34.2429 38.7651 34.0227 38.4449C32.1819 35.8704 29.4673 33.9028 26.179 33.0157H26.1657C26.0323 32.9823 25.8922 33.0023 25.7788 33.0757C25.6655 33.1491 25.5787 33.2625 25.5454 33.3958C25.1919 34.9366 25.1119 36.484 25.2586 37.978C25.3053 38.3982 25.1519 38.8117 24.8384 39.0986C24.5249 39.3854 24.098 39.4987 23.6845 39.412C18.4754 38.3782 13.6064 39.6722 13.4397 39.7255C13.4397 39.7188 13.4397 39.7188 13.4397 39.7255ZM44.5411 57.7007C44.5611 57.694 44.5677 57.694 44.5677 57.694C44.5677 57.694 44.5677 57.6874 44.5611 57.6674L44.5811 57.674C48.7631 50.4173 46.2686 41.1262 39.0118 36.9309C39.0118 36.9309 39.0051 36.9309 39.0051 36.9242C38.8784 36.8508 38.725 36.8375 38.5782 36.8775C38.4382 36.9175 38.3181 37.0176 38.2448 37.1443C36.8908 39.7188 36.3438 42.5135 36.5239 45.2348C36.564 45.675 36.3772 46.1019 36.0304 46.3753C35.6835 46.6488 35.2233 46.7288 34.8031 46.5821C31.6683 45.6283 28.4601 45.9084 26.6593 46.1953C26.2857 46.2686 25.9589 46.4954 25.7722 46.8222C25.5787 47.149 25.5454 47.5492 25.6721 47.9094C26.3191 49.6102 27.6864 52.5249 30.0675 54.7793C30.3944 55.0661 30.5611 55.4997 30.4944 55.9399C30.4344 56.3734 30.1542 56.7469 29.7607 56.9337C27.3129 58.1476 25.1652 60.0218 23.6178 62.483C23.5378 62.6097 23.5178 62.7564 23.5511 62.9032C23.5845 63.0432 23.6778 63.17 23.7979 63.2433C23.7979 63.2433 23.8046 63.2433 23.8046 63.25C31.0613 67.4387 40.3524 64.9508 44.5477 57.7007H44.5411ZM47.2757 60.0885C47.0756 60.4287 47.1957 60.8689 47.5358 61.069L55.613 65.7312C55.9531 65.9313 56.3934 65.8112 56.5934 65.4711L57.3138 64.2305C57.5139 63.8903 57.3938 63.4501 57.0537 63.25L48.9765 58.5878C48.6363 58.3877 48.1961 58.5078 47.996 58.8479L47.2757 60.0885Z" fill="#27235E"/>
<path fill-rule="evenodd" clip-rule="evenodd" d="M33.3958 20.3497C33.6359 20.4164 33.896 20.3296 34.0495 20.1296C34.2029 19.9295 34.2229 19.656 34.0961 19.4426C33.2157 17.9152 31.795 15.454 31.1681 14.3735C30.9947 14.08 31.1014 13.6998 31.3949 13.5264C31.6416 13.3797 31.9351 13.2129 32.1886 13.0729C32.482 12.8995 32.8622 13.0062 33.0356 13.2996C33.6626 14.3802 35.0833 16.848 35.9637 18.3687C36.0904 18.5822 36.3305 18.7089 36.584 18.6755C36.8308 18.6422 37.0375 18.4621 37.1042 18.222C37.371 17.2282 37.7112 15.9676 37.9046 15.2339C37.9446 15.0738 38.0513 14.9404 38.1914 14.8604C38.3315 14.7803 38.5049 14.7537 38.6583 14.8004C38.9384 14.8737 39.2653 14.9604 39.5387 15.0338C39.6988 15.0738 39.8322 15.1805 39.9122 15.3206C39.9923 15.4607 40.0189 15.6341 39.9723 15.7942C39.5787 17.2749 38.5649 21.05 38.2915 22.0571C38.2514 22.2172 38.2715 22.384 38.3515 22.524C38.5249 22.8242 38.8451 23.3711 39.1452 23.898C39.2719 24.1114 39.512 24.2315 39.7655 24.2048C40.0123 24.1715 40.219 23.9914 40.2857 23.7513C40.5525 22.7575 40.8927 21.4969 41.0861 20.7699C41.1261 20.6098 41.2329 20.4764 41.3729 20.3963C41.513 20.3163 41.6864 20.2896 41.8398 20.3363C42.1199 20.4097 42.4468 20.4964 42.7202 20.5698C42.8803 20.6098 43.0137 20.7165 43.0937 20.8566C43.1738 20.9966 43.2005 21.17 43.1538 21.3301C42.7602 22.8108 41.7464 26.5859 41.473 27.5931C41.433 27.7532 41.453 27.9199 41.533 28.0667C41.6931 28.3401 41.9732 28.8203 42.24 29.2939C42.3667 29.5073 42.6068 29.6274 42.8603 29.6007C43.1071 29.5674 43.3138 29.3873 43.3805 29.1472C43.6473 28.1534 43.9875 26.8928 44.1809 26.1591C44.2209 25.999 44.3277 25.8656 44.4677 25.7856C44.6078 25.7055 44.7812 25.6789 44.9346 25.7255C45.2147 25.7989 45.5416 25.8856 45.815 25.959C45.9751 25.999 46.1085 26.1057 46.1885 26.2458C46.2686 26.3859 46.2953 26.5593 46.2486 26.7193C45.855 28.2 44.8412 31.9752 44.5678 32.9823C44.5278 33.1424 44.5478 33.3091 44.6278 33.4492C45.1414 34.3363 47.0489 37.6445 47.8093 38.9518C47.8893 39.0919 47.916 39.2653 47.8693 39.4254C47.8293 39.5854 47.7226 39.7188 47.5825 39.7989C47.3357 39.9389 47.0423 40.1124 46.7888 40.2524C46.6488 40.3325 46.4753 40.3591 46.3219 40.3125C46.1619 40.2724 46.0285 40.1657 45.9484 40.0257C45.1947 38.7184 43.2805 35.4101 42.7669 34.523C42.6869 34.383 42.5468 34.2763 42.3934 34.2362C41.3929 33.9695 37.6111 32.9556 36.1304 32.5621C35.9704 32.5221 35.837 32.4154 35.7569 32.2753C35.6769 32.1352 35.6502 31.9618 35.6969 31.8018C35.7703 31.5216 35.857 31.1948 35.9303 30.9213C35.9704 30.7613 36.0771 30.6279 36.2171 30.5478C36.3572 30.4678 36.5306 30.4411 36.684 30.4878C37.4177 30.6812 38.6783 31.0214 39.6721 31.2882C39.9122 31.3549 40.1724 31.2682 40.3258 31.0681C40.4792 30.868 40.4992 30.6012 40.3724 30.3811C40.099 29.9075 39.8189 29.4273 39.6654 29.1538C39.5854 29.0138 39.4453 28.907 39.2919 28.867C38.2915 28.6002 34.5097 27.5864 33.029 27.1929C32.8689 27.1529 32.7355 27.0462 32.6555 26.9061C32.5754 26.766 32.5487 26.5926 32.5954 26.4325C32.6688 26.1524 32.7555 25.8256 32.8289 25.5521C32.8689 25.392 32.9756 25.2587 33.1157 25.1786C33.2557 25.0986 33.4292 25.0719 33.5826 25.1186C34.3162 25.312 35.5768 25.6522 36.5706 25.919C36.8108 25.9857 37.0709 25.899 37.2243 25.6989C37.3777 25.4988 37.3977 25.232 37.271 25.0119C36.9708 24.485 36.6507 23.938 36.4773 23.6379C36.3972 23.4978 36.2572 23.3911 36.1038 23.3511C35.1033 23.0843 31.3215 22.0705 29.8408 21.677C29.6807 21.6369 29.5473 21.5302 29.4673 21.3902C29.3872 21.2501 29.3606 21.0767 29.4073 20.9166C29.4806 20.6431 29.5673 20.3096 29.6407 20.0362C29.6807 19.8761 29.7874 19.7427 29.9275 19.6627C30.0676 19.5826 30.241 19.5559 30.3944 19.6026C31.1414 19.7494 32.4087 20.0895 33.3958 20.3497Z" fill="#27235E"/>
<path fill-rule="evenodd" clip-rule="evenodd" d="M90.0627 118.496C90.1294 118.256 90.3295 118.076 90.5829 118.043C90.8297 118.009 91.0765 118.129 91.2032 118.349C92.0837 119.877 93.511 122.338 94.1313 123.419C94.3047 123.712 94.6782 123.819 94.9784 123.645C95.2251 123.505 95.5186 123.332 95.7721 123.192C96.0655 123.018 96.1723 122.645 95.9988 122.345C95.3786 121.264 93.9512 118.796 93.0708 117.276C92.9441 117.056 92.9641 116.789 93.1175 116.589C93.2709 116.389 93.5243 116.302 93.7711 116.369C94.7649 116.635 96.0255 116.975 96.7592 117.169C96.9193 117.209 97.086 117.189 97.2261 117.109C97.3662 117.029 97.4729 116.889 97.5129 116.735C97.5863 116.462 97.673 116.128 97.7463 115.855C97.7864 115.695 97.7664 115.528 97.6863 115.388C97.6063 115.248 97.4662 115.141 97.3128 115.101C95.8321 114.708 92.057 113.694 91.0498 113.42C90.8898 113.38 90.7564 113.274 90.6763 113.134C90.5029 112.833 90.1828 112.287 89.8826 111.76C89.7559 111.54 89.7759 111.273 89.9293 111.073C90.0827 110.873 90.3428 110.786 90.5829 110.853C91.5768 111.119 92.8374 111.46 93.5644 111.653C93.7244 111.693 93.8912 111.673 94.0379 111.593C94.1847 111.513 94.2847 111.373 94.3247 111.219C94.3981 110.939 94.4848 110.612 94.5582 110.339C94.5982 110.179 94.5782 110.012 94.4981 109.872C94.4181 109.732 94.278 109.625 94.1246 109.585C92.6439 109.192 88.8688 108.178 87.8617 107.904C87.7016 107.864 87.5682 107.758 87.4881 107.618C87.3281 107.344 87.0479 106.864 86.7811 106.39C86.6544 106.17 86.6744 105.904 86.8278 105.703C86.9812 105.503 87.2414 105.417 87.4815 105.483C88.4753 105.75 89.7359 106.09 90.4696 106.284C90.6296 106.324 90.7964 106.304 90.9431 106.224C91.0832 106.144 91.1899 106.004 91.2299 105.85C91.3033 105.577 91.39 105.243 91.4634 104.97C91.5034 104.81 91.4834 104.643 91.4033 104.503C91.3233 104.363 91.1832 104.256 91.0298 104.216C89.5491 103.823 85.774 102.809 84.7669 102.535C84.6068 102.495 84.4734 102.389 84.3933 102.248C83.8798 101.361 81.9722 98.0532 81.2185 96.7459C81.1385 96.6058 80.9984 96.4991 80.845 96.4591C80.6849 96.419 80.5182 96.4391 80.3714 96.5191C80.1247 96.6592 79.8312 96.8326 79.5844 96.9726C79.4443 97.0527 79.3376 97.1927 79.2976 97.3462C79.2576 97.5062 79.2776 97.673 79.3576 97.813C80.1113 99.1203 82.0256 102.429 82.5391 103.316C82.6192 103.456 82.6458 103.629 82.5992 103.783C82.3324 104.783 81.3186 108.565 80.925 110.046C80.885 110.206 80.905 110.372 80.9851 110.512C81.0651 110.652 81.2052 110.759 81.3586 110.799C81.6387 110.873 81.9655 110.959 82.239 111.033C82.3991 111.073 82.5658 111.053 82.7126 110.973C82.8526 110.893 82.9593 110.753 82.9994 110.599C83.1928 109.865 83.5329 108.605 83.7997 107.611C83.8664 107.371 84.0665 107.191 84.32 107.157C84.5668 107.124 84.8135 107.244 84.9403 107.464C85.2137 107.938 85.4939 108.418 85.6473 108.692C85.7273 108.832 85.754 109.005 85.7073 109.158C85.4405 110.159 84.4267 113.941 84.0332 115.421C83.9932 115.581 84.0132 115.748 84.0932 115.888C84.1732 116.028 84.3133 116.135 84.4667 116.175C84.7468 116.248 85.0737 116.335 85.3471 116.409C85.5072 116.449 85.674 116.429 85.8207 116.349C85.9674 116.268 86.0675 116.128 86.1075 115.975C86.3009 115.241 86.6411 113.981 86.9079 112.987C86.9746 112.747 87.1747 112.567 87.4281 112.533C87.6749 112.5 87.9217 112.62 88.0484 112.84C88.3486 113.367 88.6687 113.914 88.8421 114.214C88.9222 114.354 88.9488 114.528 88.9021 114.681C88.6354 115.682 87.6215 119.463 87.228 120.944C87.188 121.104 87.208 121.271 87.288 121.411C87.3681 121.551 87.5082 121.658 87.6616 121.698C87.9417 121.771 88.2685 121.858 88.542 121.931C88.7021 121.971 88.8688 121.951 89.0155 121.871C89.1556 121.791 89.2623 121.651 89.3023 121.498C89.4557 120.751 89.7959 119.49 90.0627 118.496Z" fill="#27235E"/>
<path fill-rule="evenodd" clip-rule="evenodd" d="M37.0909 118.496C37.0242 118.256 36.8241 118.076 36.5706 118.043C36.3238 118.009 36.077 118.129 35.9503 118.349C35.0699 119.877 33.6492 122.338 33.0223 123.419C32.8488 123.712 32.4753 123.819 32.1752 123.645C31.9284 123.505 31.6349 123.332 31.3815 123.192C31.088 123.018 30.9813 122.645 31.1547 122.345C31.7817 121.264 33.2023 118.796 34.0828 117.276C34.2095 117.056 34.1895 116.789 34.0361 116.589C33.8827 116.389 33.6292 116.302 33.3824 116.369C32.3886 116.635 31.128 116.975 30.3944 117.169C30.2343 117.209 30.0675 117.189 29.9275 117.109C29.7874 117.029 29.6807 116.889 29.6407 116.735C29.5673 116.462 29.4806 116.128 29.4072 115.855C29.3672 115.695 29.3872 115.528 29.4672 115.388C29.5473 115.248 29.6874 115.141 29.8408 115.101C31.3215 114.708 35.0966 113.694 36.1037 113.42C36.2638 113.38 36.3972 113.274 36.4772 113.134C36.6506 112.833 36.9708 112.287 37.2709 111.76C37.3977 111.54 37.3777 111.273 37.2243 111.073C37.0709 110.873 36.8174 110.786 36.5706 110.853C35.5768 111.119 34.3162 111.46 33.5825 111.653C33.4225 111.693 33.2557 111.673 33.1156 111.593C32.9756 111.513 32.8689 111.373 32.8288 111.219C32.7555 110.939 32.6688 110.612 32.5954 110.339C32.5554 110.179 32.5754 110.012 32.6554 109.872C32.7355 109.732 32.8755 109.625 33.0289 109.585C34.5096 109.192 38.2848 108.178 39.2919 107.904C39.452 107.864 39.5854 107.758 39.6654 107.618C39.8255 107.344 40.1056 106.864 40.3724 106.39C40.4991 106.17 40.4791 105.904 40.3257 105.703C40.1723 105.503 39.9189 105.417 39.6721 105.483C38.6783 105.75 37.4177 106.09 36.684 106.284C36.5239 106.324 36.3572 106.304 36.2171 106.224C36.077 106.144 35.9703 106.004 35.9303 105.85C35.8569 105.577 35.7702 105.243 35.6969 104.97C35.6568 104.81 35.6769 104.643 35.7569 104.503C35.8369 104.363 35.977 104.256 36.1304 104.216C37.6111 103.823 41.3862 102.809 42.3934 102.535C42.5535 102.495 42.6868 102.389 42.7669 102.248C43.2805 101.361 45.188 98.0532 45.9484 96.7459C46.0284 96.6058 46.1685 96.4991 46.3219 96.4591C46.482 96.419 46.6487 96.4391 46.7888 96.5191C47.0356 96.6592 47.329 96.8326 47.5825 96.9726C47.7226 97.0527 47.8293 97.1927 47.8693 97.3462C47.9093 97.5062 47.8893 97.673 47.8093 97.813C47.0556 99.1203 45.1413 102.429 44.6278 103.316C44.5477 103.456 44.521 103.629 44.5677 103.783C44.8345 104.783 45.8483 108.565 46.2485 110.046C46.2886 110.206 46.2685 110.372 46.1885 110.512C46.1085 110.652 45.9684 110.759 45.815 110.799C45.5349 110.873 45.208 110.959 44.9346 111.033C44.7745 111.073 44.6078 111.053 44.4677 110.973C44.3276 110.893 44.2209 110.753 44.1809 110.599C43.9875 109.865 43.6473 108.605 43.3805 107.611C43.3138 107.371 43.1137 107.191 42.8603 107.157C42.6135 107.124 42.3667 107.244 42.24 107.464C41.9665 107.938 41.6864 108.418 41.533 108.692C41.4529 108.832 41.4262 109.005 41.4729 109.158C41.7397 110.159 42.7535 113.941 43.1537 115.421C43.1938 115.581 43.1737 115.748 43.0937 115.888C43.0137 116.028 42.8736 116.135 42.7202 116.175C42.4401 116.248 42.1132 116.335 41.8398 116.409C41.6797 116.449 41.513 116.429 41.3729 116.349C41.2328 116.268 41.1261 116.128 41.0861 115.975C40.8927 115.241 40.5525 113.981 40.2857 112.987C40.219 112.747 40.0189 112.567 39.7655 112.533C39.5187 112.5 39.2719 112.62 39.1452 112.84C38.845 113.367 38.5249 113.914 38.3515 114.214C38.2714 114.354 38.2447 114.528 38.2914 114.681C38.5582 115.682 39.572 119.463 39.9722 120.944C40.0122 121.104 39.9922 121.271 39.9122 121.411C39.8322 121.551 39.6921 121.658 39.5387 121.698C39.2586 121.771 38.9317 121.858 38.6583 121.931C38.4982 121.971 38.3314 121.951 38.1914 121.871C38.0513 121.791 37.9446 121.651 37.9046 121.498C37.6978 120.751 37.3577 119.49 37.0909 118.496Z" fill="#27235E"/>
<path fill-rule="evenodd" clip-rule="evenodd" d="M93.7578 20.3497C93.5177 20.4164 93.2576 20.3296 93.1042 20.1296C92.9508 19.9295 92.9308 19.656 93.0575 19.4426C93.9379 17.9152 95.3653 15.454 95.9856 14.3735C96.159 14.08 96.0523 13.6998 95.7588 13.5264C95.512 13.3797 95.2185 13.2129 94.9651 13.0729C94.6716 12.8995 94.2914 13.0062 94.118 13.2996C93.4977 14.3802 92.0704 16.848 91.19 18.3687C91.0632 18.5822 90.8231 18.7089 90.5697 18.6755C90.3229 18.6422 90.1161 18.4621 90.0494 18.222C89.7826 17.2282 89.4491 15.9676 89.249 15.2339C89.209 15.0738 89.1023 14.9404 88.9622 14.8604C88.8222 14.7803 88.6487 14.7537 88.4887 14.8004C88.2152 14.8737 87.8817 14.9604 87.6083 15.0338C87.4482 15.0738 87.3148 15.1805 87.2347 15.3206C87.1547 15.4607 87.128 15.6341 87.1747 15.7942C87.5682 17.2749 88.5821 21.05 88.8488 22.0571C88.8889 22.2172 88.8688 22.384 88.7888 22.524C88.6154 22.8242 88.2952 23.3711 87.9951 23.898C87.8684 24.1114 87.6283 24.2315 87.3748 24.2048C87.128 24.1715 86.9213 23.9914 86.8546 23.7513C86.5878 22.7575 86.2543 21.4969 86.0542 20.7699C86.0142 20.6098 85.9074 20.4764 85.7674 20.3963C85.6273 20.3163 85.4539 20.2896 85.2938 20.3363C85.0204 20.4097 84.6869 20.4964 84.4134 20.5698C84.2533 20.6098 84.1199 20.7165 84.0399 20.8566C83.9599 20.9966 83.9332 21.17 83.9799 21.3301C84.3734 22.8108 85.3872 26.5859 85.654 27.5931C85.694 27.7532 85.674 27.9199 85.594 28.0667C85.4339 28.3401 85.1538 28.8203 84.887 29.2939C84.7602 29.5073 84.5201 29.6274 84.2667 29.6007C84.0199 29.5674 83.8131 29.3873 83.7464 29.1472C83.4796 28.1534 83.1461 26.8928 82.946 26.1591C82.906 25.999 82.7993 25.8656 82.6592 25.7856C82.5192 25.7055 82.3458 25.6789 82.1857 25.7255C81.9056 25.7989 81.5787 25.8856 81.3053 25.959C81.1452 25.999 81.0118 26.1057 80.9318 26.2458C80.8517 26.3859 80.825 26.5593 80.8717 26.7193C81.2652 28.2 82.2791 31.9752 82.5459 32.9823C82.5859 33.1424 82.5659 33.3091 82.4858 33.4492C81.9722 34.3363 80.0647 37.6445 79.3043 38.9518C79.2243 39.0919 79.1976 39.2653 79.2443 39.4254C79.2843 39.5854 79.391 39.7188 79.5311 39.7989C79.7779 39.9389 80.0713 40.1124 80.3181 40.2524C80.4582 40.3325 80.6316 40.3591 80.7917 40.3125C80.9518 40.2724 81.0852 40.1657 81.1652 40.0257C81.9189 38.7184 83.8331 35.4101 84.34 34.523C84.4201 34.383 84.5601 34.2763 84.7135 34.2362C85.714 33.9695 89.4958 32.9556 90.9765 32.5621C91.1366 32.5221 91.27 32.4154 91.35 32.2753C91.4301 32.1352 91.4567 31.9618 91.4101 31.8018C91.3367 31.5216 91.25 31.1948 91.1766 30.9213C91.1366 30.7613 91.0299 30.6279 90.8898 30.5478C90.7497 30.4678 90.5763 30.4411 90.4162 30.4878C89.6826 30.6812 88.422 31.0214 87.4282 31.2882C87.1881 31.3549 86.9279 31.2682 86.7745 31.0681C86.6211 30.868 86.6078 30.6012 86.7278 30.3811C87.0013 29.9075 87.2814 29.4273 87.4348 29.1538C87.5149 29.0138 87.6549 28.907 87.8083 28.867C88.8088 28.6002 92.5906 27.5864 94.0713 27.1929C94.2314 27.1529 94.3648 27.0462 94.4448 26.9061C94.5249 26.766 94.5515 26.5926 94.5049 26.4325C94.4315 26.1524 94.3448 25.8256 94.2714 25.5521C94.2314 25.392 94.1247 25.2587 93.9846 25.1786C93.8445 25.0986 93.6711 25.0719 93.5111 25.1186C92.7774 25.312 91.5168 25.6522 90.5296 25.919C90.2895 25.9857 90.0294 25.899 89.876 25.6989C89.7226 25.4988 89.7092 25.232 89.8293 25.0119C90.1294 24.485 90.4496 23.938 90.623 23.6379C90.7031 23.4978 90.8431 23.3911 90.9965 23.3511C92.0037 23.0843 95.7788 22.0705 97.2595 21.677C97.4196 21.6369 97.553 21.5302 97.633 21.3902C97.713 21.2501 97.7397 21.0767 97.693 20.9166C97.6197 20.6431 97.533 20.3096 97.4596 20.0362C97.4196 19.8761 97.3129 19.7427 97.1728 19.6627C97.0327 19.5826 96.8593 19.5559 96.7059 19.6026C96.0122 19.7494 94.7516 20.0895 93.7578 20.3497Z" fill="#27235E"/>
<path fill-rule="evenodd" clip-rule="evenodd" d="M6.91661 70.4934C7.0967 70.3133 7.15006 70.0466 7.05001 69.8198C6.95663 69.5863 6.72986 69.4396 6.47641 69.4396C4.71557 69.4396 1.86755 69.4396 0.620294 69.4396C0.280133 69.4396 0 69.1595 0 68.8193C0 68.5325 0 68.1923 0 67.9055C0 67.5654 0.280133 67.2852 0.620294 67.2852C1.86755 67.2852 4.71557 67.2852 6.47641 67.2852C6.72986 67.2852 6.94996 67.1318 7.05001 66.9051C7.14339 66.6716 7.09003 66.4048 6.91661 66.2314C6.1896 65.5044 5.26917 64.584 4.72891 64.0437C4.61552 63.9303 4.54882 63.7702 4.54882 63.6035C4.54882 63.4368 4.61552 63.2833 4.72891 63.1633C4.929 62.9632 5.16912 62.7231 5.37588 62.5163C5.48927 62.3963 5.64935 62.3362 5.81609 62.3362C5.98284 62.3362 6.13624 62.4029 6.2563 62.5163C7.33681 63.5968 10.1048 66.3648 10.8385 67.0985C10.9519 67.2119 11.1119 67.2786 11.2787 67.2786C11.6255 67.2786 12.2591 67.2786 12.8661 67.2786C13.1196 67.2786 13.3397 67.1252 13.4397 66.8984C13.5331 66.665 13.4797 66.3982 13.3063 66.2247C12.5793 65.4977 11.6589 64.5773 11.1186 64.037C11.0052 63.9237 10.9385 63.7636 10.9385 63.5968C10.9385 63.4301 11.0052 63.2767 11.1186 63.1566C11.3187 62.9565 11.5588 62.7164 11.7656 62.5096C11.879 62.3896 12.039 62.3296 12.2058 62.3296C12.3725 62.3296 12.5259 62.3963 12.646 62.5096C13.7265 63.5902 16.4945 66.3581 17.2282 67.0918C17.3416 67.2052 17.5016 67.2719 17.6684 67.2719C17.9819 67.2719 18.5421 67.2719 19.0891 67.2719C19.3425 67.2719 19.5626 67.1185 19.6627 66.8917C19.756 66.6583 19.7027 66.3915 19.5293 66.2181C18.8023 65.4911 17.8818 64.5706 17.3416 64.0304C17.2282 63.917 17.1615 63.7569 17.1615 63.5902C17.1615 63.4234 17.2282 63.27 17.3416 63.1499C17.5417 62.9499 17.7818 62.7097 17.9885 62.503C18.1019 62.3829 18.262 62.3229 18.4287 62.3229C18.5955 62.3229 18.7489 62.3896 18.8689 62.503C19.9495 63.5835 22.7174 66.3515 23.4511 67.0851C23.5645 67.1985 23.7246 67.2652 23.8913 67.2652C24.9185 67.2652 28.7403 67.2652 30.2477 67.2652C30.4144 67.2652 30.5678 67.3319 30.6879 67.4453C30.8013 67.5587 30.868 67.7188 30.868 67.8855C30.868 68.1723 30.868 68.5125 30.868 68.7993C30.868 68.966 30.8013 69.1194 30.6879 69.2395C30.5745 69.3529 30.4144 69.4196 30.2477 69.4196C28.7403 69.4196 24.9185 69.4196 23.8913 69.4196C23.7246 69.4196 23.5712 69.4863 23.4511 69.5997C22.7174 70.3334 19.9495 73.1013 18.8689 74.1818C18.7556 74.2952 18.5955 74.3619 18.4287 74.3619C18.262 74.3619 18.1086 74.2952 17.9885 74.1818C17.7884 73.9818 17.5483 73.7416 17.3416 73.5349C17.2282 73.4215 17.1615 73.2614 17.1615 73.0947C17.1615 72.9279 17.2282 72.7745 17.3416 72.6545C17.8751 72.1209 18.8023 71.1938 19.5293 70.4668C19.7093 70.2867 19.7627 70.0199 19.6627 69.7931C19.5693 69.5597 19.3425 69.4129 19.0891 69.4129C18.5421 69.4129 17.9819 69.4129 17.6684 69.4129C17.5016 69.4129 17.3482 69.4796 17.2282 69.593C16.4945 70.3267 13.7265 73.0947 12.646 74.1752C12.5326 74.2886 12.3725 74.3553 12.2058 74.3553C12.039 74.3553 11.8856 74.2886 11.7656 74.1752C11.5655 73.9751 11.3254 73.735 11.1186 73.5282C11.0052 73.4148 10.9385 73.2547 10.9385 73.088C10.9385 72.9213 11.0052 72.7678 11.1186 72.6478C11.6522 72.1142 12.5793 71.1871 13.3063 70.4601C13.4864 70.28 13.5398 70.0132 13.4397 69.7864C13.3463 69.553 13.1196 69.4062 12.8661 69.4062C12.2591 69.4062 11.6255 69.4062 11.2787 69.4062C11.1119 69.4062 10.9585 69.4729 10.8385 69.5863C10.1048 70.32 7.33681 73.088 6.2563 74.1685C6.14291 74.2819 5.98284 74.3486 5.81609 74.3486C5.64935 74.3486 5.49594 74.2819 5.37588 74.1685C5.17579 73.9684 4.93567 73.7283 4.72891 73.5215C4.61552 73.4082 4.54882 73.2481 4.54882 73.0813C4.54882 72.9146 4.61552 72.7612 4.72891 72.6411C5.2625 72.1409 6.1896 71.2138 6.91661 70.4934Z" fill="#27235E"/>
<path fill-rule="evenodd" clip-rule="evenodd" d="M120.244 70.4934C120.064 70.3133 120.01 70.0466 120.11 69.8198C120.204 69.5863 120.43 69.4396 120.684 69.4396C122.445 69.4396 125.293 69.4396 126.54 69.4396C126.88 69.4396 127.16 69.1595 127.16 68.8193C127.16 68.5325 127.16 68.1923 127.16 67.9055C127.16 67.5654 126.887 67.2852 126.54 67.2852C125.293 67.2852 122.445 67.2852 120.684 67.2852C120.43 67.2852 120.21 67.1318 120.11 66.9051C120.017 66.6716 120.07 66.4048 120.244 66.2314C120.971 65.5044 121.891 64.584 122.431 64.0437C122.545 63.9303 122.612 63.7702 122.612 63.6035C122.612 63.4368 122.545 63.2833 122.431 63.1633C122.231 62.9632 121.991 62.7231 121.784 62.5163C121.671 62.3963 121.511 62.3362 121.344 62.3362C121.177 62.3362 121.024 62.4029 120.904 62.5163C119.824 63.5968 117.056 66.3648 116.322 67.0985C116.208 67.2119 116.048 67.2786 115.882 67.2786C115.541 67.2786 114.901 67.2786 114.294 67.2786C114.041 67.2786 113.821 67.1252 113.721 66.8984C113.627 66.665 113.674 66.3982 113.854 66.2247C114.581 65.4977 115.501 64.5773 116.042 64.037C116.155 63.9237 116.222 63.7636 116.222 63.5968C116.222 63.4301 116.155 63.2767 116.042 63.1566C115.842 62.9565 115.602 62.7164 115.395 62.5096C115.275 62.3896 115.121 62.3296 114.955 62.3296C114.788 62.3296 114.634 62.3963 114.514 62.5096C113.434 63.5902 110.666 66.3581 109.932 67.0918C109.819 67.2052 109.659 67.2719 109.492 67.2719C109.178 67.2719 108.618 67.2719 108.071 67.2719C107.818 67.2719 107.598 67.1185 107.498 66.8917C107.404 66.6583 107.458 66.3915 107.631 66.2181C108.358 65.4911 109.279 64.5706 109.819 64.0304C109.932 63.917 109.999 63.7569 109.999 63.5902C109.999 63.4234 109.932 63.27 109.819 63.1499C109.619 62.9499 109.379 62.7097 109.172 62.503C109.058 62.3829 108.898 62.3229 108.732 62.3229C108.565 62.3229 108.411 62.3896 108.291 62.503C107.211 63.5835 104.443 66.3515 103.709 67.0851C103.596 67.1985 103.436 67.2652 103.269 67.2652C102.242 67.2652 98.42 67.2652 96.9127 67.2652C96.7459 67.2652 96.5925 67.3319 96.4724 67.4453C96.3591 67.5587 96.2924 67.7188 96.2924 67.8855C96.2924 68.1723 96.2924 68.5125 96.2924 68.7993C96.2924 68.966 96.3591 69.1194 96.4724 69.2395C96.5858 69.3529 96.7459 69.4196 96.9127 69.4196C98.42 69.4196 102.242 69.4196 103.269 69.4196C103.436 69.4196 103.589 69.4863 103.709 69.5997C104.443 70.3334 107.211 73.1013 108.291 74.1818C108.411 74.2952 108.565 74.3619 108.732 74.3619C108.898 74.3619 109.052 74.2952 109.172 74.1818C109.372 73.9818 109.612 73.7416 109.819 73.5349C109.932 73.4215 109.999 73.2614 109.999 73.0947C109.999 72.9279 109.932 72.7745 109.819 72.6545C109.285 72.1209 108.358 71.1938 107.631 70.4668C107.458 70.2867 107.398 70.0199 107.498 69.7931C107.598 69.5663 107.818 69.4129 108.071 69.4129C108.618 69.4129 109.178 69.4129 109.492 69.4129C109.659 69.4129 109.812 69.4796 109.932 69.593C110.666 70.3267 113.434 73.0947 114.514 74.1752C114.628 74.2886 114.788 74.3553 114.955 74.3553C115.121 74.3553 115.275 74.2886 115.395 74.1752C115.595 73.9751 115.835 73.735 116.042 73.5282C116.155 73.4148 116.222 73.2547 116.222 73.088C116.222 72.9213 116.155 72.7678 116.042 72.6478C115.508 72.1142 114.581 71.1871 113.854 70.4601C113.674 70.28 113.621 70.0132 113.721 69.7864C113.814 69.553 114.041 69.4062 114.294 69.4062C114.901 69.4062 115.535 69.4062 115.882 69.4062C116.048 69.4062 116.202 69.4729 116.322 69.5863C117.056 70.32 119.824 73.088 120.904 74.1685C121.017 74.2819 121.177 74.3486 121.344 74.3486C121.511 74.3486 121.664 74.2819 121.784 74.1685C121.985 73.9684 122.225 73.7283 122.431 73.5215C122.545 73.4082 122.612 73.2481 122.612 73.0813C122.612 72.9146 122.545 72.7612 122.431 72.6411C121.891 72.1409 120.971 71.2138 120.244 70.4934Z" fill="#27235E"/>
<path fill-rule="evenodd" clip-rule="evenodd" d="M59.3482 26.0524C59.8884 25.8923 60.2553 25.392 60.2553 24.8318C60.2553 23.4311 60.2553 20.9299 60.2553 20.0628C60.2553 19.8628 60.2086 19.6627 60.1152 19.4826C59.1481 17.5883 53.392 6.34968 51.0909 1.85421C50.8908 1.46069 50.9042 0.987135 51.1376 0.606955C51.3711 0.233444 51.7846 0 52.2248 0C53.6788 0 55.533 0 56.5869 0C57.0871 0 57.5407 0.293473 57.7474 0.747021C58.6278 2.69461 61.0223 7.98379 62.4697 11.1786C62.6764 11.6322 63.13 11.9257 63.6302 11.9257C64.1305 11.9257 64.584 11.6322 64.7908 11.1786C66.2381 7.97712 68.6326 2.69461 69.513 0.747021C69.7198 0.293473 70.1733 0 70.6736 0C71.7274 0 73.5816 0 75.0356 0C75.4825 0 75.8894 0.233444 76.1228 0.606955C76.3563 0.987135 76.3696 1.45402 76.1695 1.85421C73.8684 6.34968 68.119 17.5883 67.1452 19.4826C67.0518 19.6627 67.0052 19.8628 67.0052 20.0628C67.0052 20.9032 67.0052 23.2444 67.0052 24.6117C67.0052 25.1986 67.4053 25.7055 67.9723 25.8456C68.7193 26.0323 69.4263 26.2791 70.1 26.5926C71.8274 27.393 73.1681 28.5202 74.1152 29.9675C74.8089 31.0347 75.2557 32.2153 75.4358 33.5026C75.4825 33.8627 75.3758 34.2296 75.1357 34.503C74.8956 34.7765 74.5487 34.9366 74.1886 34.9366C72.9613 34.9499 71.1605 34.9499 70.0066 34.9499C69.3996 34.9499 68.8794 34.523 68.7593 33.9294C68.6259 33.089 68.2391 32.3954 67.6455 31.8418C66.8184 31.0681 65.6045 30.6812 64.0037 30.6812C62.9832 30.6812 62.1162 30.828 61.4025 31.1281C60.6888 31.4282 60.1486 31.8351 59.7884 32.3487C59.4282 32.8623 59.2481 33.4425 59.2481 34.0828C59.2481 35.0299 59.735 35.837 60.7155 36.4973C61.696 37.1576 63.21 37.8046 65.2643 38.4449C68.7326 39.5054 71.3139 40.8327 73.008 42.4268C74.7021 44.0209 75.5492 46.0618 75.5492 48.5564C75.5492 50.3572 75.089 51.9046 74.1685 53.1986C73.2481 54.4925 71.9408 55.4796 70.2467 56.16C68.5526 56.8403 66.5649 57.1805 64.2905 57.1805C62.1095 57.1805 60.0619 56.8069 58.1409 56.0533C56.22 55.2996 54.6593 54.1524 53.4587 52.5983C52.5183 51.3844 51.9447 49.9637 51.7379 48.3229C51.6912 47.9627 51.8046 47.6026 52.0447 47.3358C52.2848 47.069 52.625 46.9089 52.9852 46.9089C54.2124 46.8956 56.0133 46.8956 57.1805 46.8956C57.8075 46.8956 58.341 47.3558 58.4411 47.9761C58.5878 49.2033 59.0747 50.1171 59.8818 50.7307C60.9089 51.5178 62.3763 51.9113 64.2905 51.9113C65.8046 51.9113 66.9518 51.6045 67.7188 50.9975C68.4925 50.3906 68.8794 49.5902 68.8794 48.5964C68.8794 47.8627 68.726 47.2424 68.4125 46.7488C68.099 46.2553 67.5254 45.7817 66.6917 45.3282C65.8579 44.8746 64.624 44.3877 62.9966 43.8608C60.9023 43.1805 59.0947 42.4268 57.5874 41.5997C56.08 40.7727 54.8727 39.7322 53.9656 38.4849C53.0585 37.2377 52.605 35.757 52.605 34.0428C52.605 32.3287 53.0986 30.8146 54.079 29.5073C55.0662 28.2 56.4268 27.1862 58.1676 26.4726C58.5478 26.3125 58.9413 26.1724 59.3482 26.0524Z" fill="#27235E"/>
</svg>
