<svg width="178" height="109" viewBox="0 0 178 109" fill="none" xmlns="http://www.w3.org/2000/svg">
<path fill-rule="evenodd" clip-rule="evenodd" d="M43.72 12.1171C43.4 12.6271 42.79 12.8671 42.21 12.6971C41.63 12.5371 41.24 12.0071 41.24 11.4071C41.23 11.4071 41.23 11.4071 41.23 11.4071C41.23 8.8971 44.82 4.5671 46.65 2.5171C46.91 2.2071 47.3 2.0271 47.71 2.0271C48.12 2.0271 48.51 2.2071 48.77 2.5171C50.61 4.5671 54.19 8.8971 54.19 11.4071C54.19 11.4071 54.19 11.4071 54.19 11.4171C54.19 12.0171 53.79 12.5471 53.21 12.7171C52.63 12.8771 52.01 12.6371 51.69 12.1271C50.61 10.3671 49.51 8.9771 48.74 8.0771C48.47 7.7871 48.09 7.6171 47.7 7.6171C47.3 7.6171 46.92 7.7871 46.66 8.0771C45.91 8.9671 44.81 10.3571 43.72 12.1171ZM47.72 10.7571C47.83 10.8671 50.26 13.3171 51.61 16.8171C51.75 17.2171 52.08 17.5371 52.48 17.6671C52.89 17.7971 53.33 17.7371 53.69 17.5071C54.51 16.9771 55.41 16.5471 56.38 16.2471C56.48 16.2171 56.59 16.2271 56.68 16.2771C56.77 16.3271 56.84 16.4071 56.87 16.5071C57.56 19.0771 57.24 21.6771 56.16 23.8971C56.11 24.0071 56 24.0871 55.88 24.1071H55.87C55.3 24.2471 54.73 24.4271 54.18 24.6471C53.94 24.7371 53.71 24.8371 53.47 24.9471C53.38 24.9871 53.29 25.0371 53.19 25.0771L53.16 25.0971L53.09 25.1271C53.08 25.1371 53.07 25.1371 53.06 25.1471C53.02 25.1671 52.98 25.1871 52.94 25.2071C52.88 25.0271 52.81 24.8571 52.74 24.6871C52.28 23.5771 51.7 22.5271 51.02 21.5471C50.74 21.1471 50.45 20.7471 50.13 20.3771C49.88 20.0771 49.63 19.7771 49.35 19.4971C49.32 19.4671 49.32 19.4571 49.29 19.4371L49.28 19.4271C49.25 19.3971 49.01 19.1571 48.72 18.8671C48.17 18.3171 47.28 18.3171 46.72 18.8671C46.44 19.1471 46.2 19.3871 46.17 19.4171C46.17 19.4171 46.17 19.4171 46.16 19.4271C45.9 19.6871 45.66 19.9571 45.43 20.2371C45.13 20.5971 44.84 20.9671 44.57 21.3471C44.32 21.7071 44.07 22.0671 43.85 22.4471C43.35 23.2771 42.91 24.1471 42.56 25.0471C42.54 25.0871 42.51 25.1171 42.47 25.1371C42.43 25.1571 42.38 25.1471 42.34 25.1271C42.06 24.9871 41.77 24.8571 41.47 24.7371C40.98 24.5371 40.48 24.3671 39.97 24.2271C39.56 24.1171 39.23 23.8271 39.05 23.4471C38.14 21.3271 37.92 18.9071 38.56 16.5171C38.59 16.4171 38.66 16.3371 38.75 16.2871C38.84 16.2371 38.95 16.2271 39.05 16.2571C40.02 16.5571 40.92 16.9871 41.74 17.5171C42.1 17.7571 42.54 17.8171 42.95 17.6771C43.36 17.5471 43.68 17.2271 43.83 16.8271C45.18 13.2971 47.63 10.8471 47.72 10.7571ZM47.73 37.6971C47.72 37.7071 47.72 37.7071 47.72 37.7071C47.72 37.7071 47.72 37.7071 47.71 37.6971V37.7071C41.43 37.6971 36.33 32.5971 36.33 26.3171V26.3071C36.33 26.1971 36.38 26.0871 36.46 26.0171C36.54 25.9371 36.65 25.8971 36.76 25.9071C38.76 25.9871 40.62 26.5771 42.23 27.5471C42.61 27.7871 43.08 27.8271 43.49 27.6671C43.9 27.4971 44.21 27.1471 44.32 26.7071C44.85 24.8271 45.86 23.2471 46.64 22.2171C46.9 21.8871 47.3 21.6871 47.73 21.6871C48.15 21.6871 48.56 21.8771 48.82 22.2171C49.6 23.2471 50.61 24.8271 51.15 26.7071C51.26 27.1371 51.56 27.4871 51.97 27.6571C52.38 27.8271 52.85 27.7771 53.22 27.5371C54.83 26.5671 56.7 25.9771 58.7 25.9071C58.81 25.9071 58.92 25.9471 59 26.0171C59.08 26.0971 59.13 26.1971 59.13 26.3071V26.3171C59.13 32.5971 54.03 37.6971 47.75 37.7071L47.73 37.6971ZM48.26 40.3671C48.56 40.3671 48.8 40.6071 48.8 40.9071V47.8971C48.8 48.1971 48.56 48.4371 48.26 48.4371H47.18C46.88 48.4371 46.64 48.1971 46.64 47.8971V40.9071C46.64 40.6071 46.88 40.3671 47.18 40.3671H48.26Z" fill="#27235E"/>
<path fill-rule="evenodd" clip-rule="evenodd" d="M43.72 96.3171C43.4 95.8071 42.79 95.5671 42.21 95.7371C41.63 95.8971 41.24 96.4271 41.24 97.0271C41.23 97.0271 41.23 97.0271 41.23 97.0371C41.23 99.5471 44.82 103.877 46.65 105.927C46.91 106.237 47.3 106.417 47.71 106.417C48.12 106.417 48.51 106.237 48.77 105.927C50.61 103.877 54.19 99.5471 54.19 97.0371C54.19 97.0371 54.19 97.0371 54.19 97.0271C54.19 96.4271 53.79 95.8971 53.21 95.7271C52.63 95.5671 52.01 95.8071 51.69 96.3171C50.61 98.0771 49.51 99.4671 48.74 100.367C48.47 100.667 48.09 100.827 47.7 100.827C47.3 100.827 46.92 100.657 46.66 100.367C45.91 99.4671 44.81 98.0771 43.72 96.3171ZM47.72 97.6871C47.72 97.6871 47.72 97.6771 47.72 97.6871C47.83 97.5771 50.26 95.1271 51.61 91.6271C51.75 91.2271 52.08 90.9071 52.48 90.7771C52.89 90.6471 53.33 90.7071 53.69 90.9371C54.51 91.4671 55.41 91.8971 56.38 92.1971C56.48 92.2271 56.59 92.2171 56.68 92.1671C56.77 92.1171 56.84 92.0371 56.87 91.9371C57.56 89.3671 57.24 86.7671 56.16 84.5471C56.11 84.4371 56 84.3571 55.88 84.3371H55.87C55.3 84.1971 54.73 84.0171 54.18 83.7971C53.94 83.7071 53.71 83.6071 53.47 83.4971C53.38 83.4571 53.29 83.4071 53.19 83.3671L53.16 83.3471L53.09 83.3171C53.08 83.3071 53.07 83.3071 53.06 83.2971C53.02 83.2771 52.98 83.2571 52.94 83.2371C52.88 83.4171 52.81 83.5871 52.74 83.7571C52.28 84.8671 51.7 85.9071 51.02 86.8971C50.74 87.2971 50.45 87.6971 50.13 88.0671C49.88 88.3671 49.63 88.6671 49.35 88.9471C49.32 88.9771 49.32 88.9871 49.29 89.0071L49.28 89.0171C49.25 89.0471 49.01 89.2871 48.72 89.5771C48.17 90.1271 47.28 90.1271 46.72 89.5771C46.44 89.2971 46.2 89.0571 46.17 89.0271C46.17 89.0271 46.17 89.0271 46.16 89.0171C45.9 88.7571 45.66 88.4871 45.43 88.2071C45.13 87.8471 44.84 87.4771 44.57 87.0971C44.32 86.7371 44.07 86.3771 43.85 85.9971C43.35 85.1671 42.91 84.2971 42.56 83.3971C42.54 83.3571 42.51 83.3271 42.47 83.3071C42.43 83.2871 42.38 83.2971 42.34 83.3171C42.06 83.4571 41.77 83.5871 41.47 83.7071C40.98 83.9071 40.48 84.0771 39.97 84.2171C39.56 84.3271 39.23 84.6171 39.05 84.9971C38.14 87.1171 37.92 89.5371 38.56 91.9271C38.59 92.0271 38.66 92.1071 38.75 92.1571C38.84 92.2071 38.95 92.2171 39.05 92.1871C40.02 91.8871 40.92 91.4571 41.74 90.9271C42.1 90.6871 42.54 90.6271 42.95 90.7671C43.36 90.8971 43.68 91.2171 43.83 91.6171C45.18 95.1371 47.63 97.5971 47.72 97.6871ZM47.73 70.7471C47.72 70.7371 47.72 70.7371 47.72 70.7371C47.72 70.7371 47.72 70.7371 47.71 70.7471V70.7371C41.43 70.7471 36.33 75.8471 36.33 82.1271C36.33 82.1271 36.33 82.1271 36.33 82.1371C36.33 82.2471 36.38 82.3571 36.46 82.4271C36.54 82.5071 36.65 82.5471 36.76 82.5371C38.76 82.4571 40.62 81.8671 42.23 80.8971C42.61 80.6571 43.08 80.6171 43.49 80.7771C43.9 80.9471 44.21 81.2971 44.32 81.7371C44.85 83.6171 45.86 85.1971 46.64 86.2271C46.9 86.5571 47.3 86.7571 47.73 86.7571C48.15 86.7571 48.56 86.5671 48.82 86.2271C49.6 85.1971 50.61 83.6171 51.15 81.7371C51.26 81.3071 51.56 80.9571 51.97 80.7871C52.38 80.6171 52.85 80.6671 53.22 80.9071C54.83 81.8771 56.7 82.4671 58.7 82.5371C58.81 82.5371 58.92 82.4971 59 82.4271C59.08 82.3471 59.13 82.2471 59.13 82.1371V82.1271C59.13 75.8471 54.03 70.7471 47.75 70.7371L47.73 70.7471ZM48.26 68.0671C48.56 68.0671 48.8 67.8271 48.8 67.5271V60.5371C48.8 60.2371 48.56 59.9971 48.26 59.9971H47.18C46.88 59.9971 46.64 60.2371 46.64 60.5371V67.5271C46.64 67.8271 46.88 68.0671 47.18 68.0671H48.26Z" fill="#27235E"/>
<path fill-rule="evenodd" clip-rule="evenodd" d="M82.18 29.7071C81.58 29.6871 81.07 29.2771 80.92 28.6971C80.77 28.1171 81.03 27.5071 81.55 27.2071C81.55 27.1971 81.55 27.1971 81.55 27.1971C83.73 25.9371 89.26 26.8871 91.96 27.4471C92.36 27.5171 92.71 27.7671 92.92 28.1171C93.12 28.4671 93.16 28.8971 93.03 29.2771C92.17 31.8971 90.22 37.1671 88.04 38.4171C87.52 38.7171 86.86 38.6371 86.43 38.2171C86 37.7971 85.9 37.1371 86.18 36.6071C87.16 34.7871 87.82 33.1471 88.21 32.0271C88.33 31.6471 88.29 31.2371 88.09 30.8871C87.89 30.5471 87.56 30.2971 87.17 30.2171C86 30.0271 84.25 29.7671 82.18 29.7071ZM85.36 32.4871C85.32 32.6371 84.42 35.9671 82.06 38.8871C81.78 39.2171 81.67 39.6471 81.76 40.0671C81.85 40.4871 82.12 40.8471 82.51 41.0271C83.38 41.4671 84.2 42.0371 84.95 42.7271C85.03 42.7971 85.07 42.8971 85.07 42.9971C85.07 43.0971 85.03 43.1971 84.96 43.2771C83.08 45.1571 80.67 46.1871 78.21 46.3571C78.09 46.3671 77.97 46.3171 77.89 46.2271L77.88 46.2171C77.47 45.7871 77.03 45.3871 76.57 45.0171C76.37 44.8571 76.17 44.7071 75.96 44.5571C75.88 44.4971 75.79 44.4371 75.71 44.3871L75.68 44.3671L75.62 44.3271C75.61 44.3171 75.6 44.3171 75.59 44.3071C75.55 44.2871 75.52 44.2571 75.48 44.2371C75.6 44.0971 75.72 43.9471 75.83 43.7971C76.56 42.8471 77.17 41.8171 77.68 40.7371C77.89 40.2971 78.08 39.8371 78.25 39.3871C78.39 39.0171 78.51 38.6471 78.62 38.2771C78.63 38.2371 78.63 38.2271 78.64 38.1871C78.64 38.1771 78.64 38.1771 78.64 38.1671C78.65 38.1271 78.74 37.7971 78.84 37.4071C79.04 36.6571 78.59 35.8771 77.84 35.6771C77.46 35.5771 77.13 35.4871 77.08 35.4771H77.07C76.72 35.3871 76.36 35.3171 76 35.2471C75.54 35.1671 75.08 35.1071 74.61 35.0571C74.17 35.0171 73.73 34.9871 73.3 34.9771C72.33 34.9571 71.36 35.0071 70.4 35.1671C70.36 35.1771 70.31 35.1571 70.28 35.1371C70.25 35.1071 70.23 35.0671 70.22 35.0271C70.2 34.7071 70.17 34.3971 70.13 34.0771C70.06 33.5571 69.96 33.0371 69.83 32.5271C69.72 32.1171 69.8 31.6871 70.05 31.3371C71.43 29.4971 73.41 28.0871 75.81 27.4471C75.91 27.4271 76.02 27.4371 76.1 27.4971C76.19 27.5471 76.25 27.6371 76.27 27.7371C76.5 28.7271 76.57 29.7271 76.52 30.6971C76.49 31.1271 76.66 31.5471 76.98 31.8271C77.3 32.1171 77.73 32.2371 78.16 32.1571C81.89 31.5571 85.24 32.4471 85.36 32.4871ZM62.04 45.9671C62.03 45.9671 62.02 45.9571 62.02 45.9571C62.02 45.9571 62.02 45.9471 62.03 45.9371L62.02 45.9471C58.89 40.5071 60.75 33.5371 66.19 30.3971H66.2C66.3 30.3471 66.41 30.3271 66.52 30.3671C66.63 30.3971 66.71 30.4671 66.77 30.5671C67.7 32.3371 68.13 34.2471 68.08 36.1271C68.06 36.5771 68.26 36.9971 68.61 37.2771C68.96 37.5571 69.42 37.6371 69.85 37.5171C71.74 37.0371 73.62 37.1171 74.9 37.2871C75.32 37.3471 75.69 37.5971 75.9 37.9671C76.11 38.3371 76.14 38.7771 75.99 39.1771C75.49 40.3671 74.62 42.0371 73.27 43.4371C72.95 43.7471 72.8 44.1871 72.86 44.6271C72.92 45.0671 73.19 45.4471 73.59 45.6471C75.23 46.5571 76.68 47.8871 77.74 49.5771C77.8 49.6671 77.82 49.7871 77.79 49.8871C77.76 49.9971 77.7 50.0871 77.6 50.1471C77.6 50.1471 77.59 50.1471 77.59 50.1571C72.15 53.2971 65.18 51.4271 62.04 45.9971V45.9671ZM59.98 47.7571C60.13 48.0171 60.04 48.3471 59.78 48.4871L53.72 51.9871C53.46 52.1371 53.13 52.0471 52.99 51.7871L52.45 50.8571C52.3 50.5971 52.39 50.2671 52.65 50.1271L58.71 46.6271C58.97 46.4771 59.3 46.5671 59.44 46.8271L59.98 47.7571Z" fill="#27235E"/>
<path fill-rule="evenodd" clip-rule="evenodd" d="M9.26002 71.8071C9.54002 71.2771 9.44002 70.6271 9.01002 70.2071C8.58002 69.7871 7.93002 69.7071 7.41002 70.0071C7.40002 69.9971 7.40002 69.9971 7.40002 70.0071C5.22002 71.2671 3.27002 76.5271 2.41002 79.1471C2.27002 79.5271 2.31002 79.9571 2.52002 80.3071C2.72002 80.6571 3.07002 80.9071 3.48002 80.9771C6.18002 81.5471 11.72 82.4871 13.89 81.2271C13.89 81.2271 13.89 81.2271 13.9 81.2271C14.42 80.9271 14.68 80.3171 14.53 79.7271C14.38 79.1471 13.87 78.7271 13.26 78.7071C11.19 78.6471 9.44002 78.3971 8.28002 78.1771C7.89002 78.0971 7.56002 77.8471 7.36002 77.5071C7.16002 77.1671 7.12002 76.7471 7.24002 76.3671C7.62002 75.2771 8.28002 73.6271 9.26002 71.8071ZM10.08 75.9571C10.23 75.9971 13.57 76.8771 17.27 76.2971C17.69 76.2171 18.12 76.3471 18.44 76.6271C18.76 76.9171 18.93 77.3271 18.9 77.7571C18.85 78.7271 18.93 79.7271 19.16 80.7171C19.18 80.8171 19.25 80.9071 19.33 80.9571C19.42 81.0071 19.52 81.0271 19.62 81.0071C22.19 80.3171 24.29 78.7471 25.66 76.6971C25.73 76.5971 25.75 76.4671 25.71 76.3471V76.3371C25.55 75.7671 25.42 75.1871 25.33 74.6071C25.29 74.3571 25.26 74.0971 25.24 73.8471C25.23 73.7471 25.22 73.6471 25.21 73.5371V73.4971V73.4171C25.21 73.4071 25.21 73.3871 25.21 73.3771C25.21 73.3371 25.21 73.2871 25.2 73.2471C25.02 73.2771 24.83 73.3071 24.65 73.3371C23.46 73.4971 22.26 73.5071 21.07 73.4071C20.58 73.3671 20.09 73.3071 19.61 73.2271C19.22 73.1671 18.84 73.0871 18.46 72.9971C18.42 72.9871 18.41 72.9871 18.37 72.9771C18.36 72.9771 18.36 72.9771 18.35 72.9771C18.31 72.9671 17.98 72.8771 17.59 72.7771C16.84 72.5771 16.39 71.7971 16.59 71.0471C16.69 70.6671 16.78 70.3371 16.79 70.2871V70.2771C16.89 69.9271 17 69.5771 17.13 69.2371C17.29 68.7971 17.47 68.3671 17.66 67.9371C17.84 67.5371 18.04 67.1471 18.25 66.7571C18.72 65.9071 19.25 65.0971 19.86 64.3371C19.89 64.3071 19.9 64.2571 19.89 64.2171C19.88 64.1771 19.86 64.1371 19.82 64.1071C19.56 63.9271 19.3 63.7471 19.05 63.5571C18.63 63.2371 18.23 62.8871 17.86 62.5171C17.56 62.2171 17.14 62.0771 16.72 62.1171C14.43 62.3871 12.22 63.4071 10.47 65.1571C10.4 65.2271 10.36 65.3271 10.36 65.4371C10.36 65.5371 10.41 65.6371 10.48 65.7071C11.23 66.3971 12.05 66.9671 12.92 67.4071C13.3 67.5971 13.58 67.9571 13.67 68.3771C13.76 68.7971 13.65 69.2371 13.37 69.5571C11.01 72.4771 10.11 75.8271 10.08 75.9571C10.08 75.9471 10.08 75.9471 10.08 75.9571ZM33.41 62.4971C33.41 62.4871 33.42 62.4771 33.42 62.4771C33.42 62.4771 33.41 62.4771 33.4 62.4671L33.41 62.4571C30.26 57.0171 23.3 55.1571 17.85 58.2971H17.84C17.75 58.3571 17.68 58.4471 17.65 58.5571C17.62 58.6671 17.64 58.7771 17.7 58.8671C18.76 60.5571 20.21 61.8771 21.86 62.7871C22.26 62.9971 22.53 63.3771 22.59 63.8171C22.65 64.2571 22.5 64.7071 22.18 65.0171C20.82 66.4171 19.95 68.0771 19.45 69.2771C19.29 69.6671 19.32 70.1171 19.53 70.4871C19.74 70.8571 20.11 71.1071 20.53 71.1671C21.81 71.3271 23.69 71.4071 25.58 70.9471C26.01 70.8271 26.46 70.9071 26.81 71.1871C27.16 71.4571 27.35 71.8871 27.33 72.3271C27.3 74.2071 27.72 76.1171 28.66 77.8871C28.71 77.9871 28.8 78.0571 28.91 78.0871C29.02 78.1171 29.13 78.1071 29.23 78.0571C29.23 78.0571 29.24 78.0571 29.24 78.0471C34.68 74.9071 36.55 67.9371 33.41 62.4971V62.4971ZM35.99 61.6071C36.14 61.8671 36.47 61.9571 36.72 61.8071L42.78 58.3071C43.04 58.1571 43.13 57.8271 42.98 57.5771L42.44 56.6471C42.29 56.3871 41.96 56.2971 41.71 56.4471L35.65 59.9471C35.39 60.0971 35.3 60.4271 35.45 60.6771L35.99 61.6071Z" fill="#27235E"/>
<path fill-rule="evenodd" clip-rule="evenodd" d="M86.18 71.8071C85.9 71.2771 86 70.6271 86.43 70.2071C86.86 69.7871 87.51 69.7071 88.03 70.0071C88.04 69.9971 88.04 69.9971 88.04 70.0071C90.22 71.2671 92.17 76.5271 93.03 79.1471C93.17 79.5271 93.13 79.9571 92.92 80.3071C92.72 80.6571 92.37 80.9071 91.96 80.9771C89.26 81.5471 83.72 82.4871 81.55 81.2271C81.55 81.2271 81.55 81.2271 81.54 81.2271C81.02 80.9271 80.76 80.3171 80.91 79.7271C81.06 79.1471 81.57 78.7271 82.18 78.7071C84.25 78.6471 86 78.3971 87.16 78.1771C87.55 78.0971 87.88 77.8471 88.08 77.5071C88.28 77.1671 88.32 76.7471 88.2 76.3671C87.81 75.2771 87.16 73.6271 86.18 71.8071ZM85.36 75.9571C85.21 75.9971 81.87 76.8771 78.17 76.2971C77.75 76.2171 77.32 76.3471 77 76.6271C76.68 76.9171 76.51 77.3271 76.54 77.7571C76.59 78.7271 76.51 79.7271 76.28 80.7171C76.26 80.8171 76.19 80.9071 76.11 80.9571C76.02 81.0071 75.92 81.0271 75.82 81.0071C73.25 80.3171 71.15 78.7471 69.78 76.6971C69.71 76.5971 69.69 76.4671 69.73 76.3471V76.3371C69.89 75.7671 70.02 75.1871 70.11 74.6071C70.15 74.3571 70.18 74.0971 70.2 73.8471C70.21 73.7471 70.22 73.6471 70.23 73.5371V73.4971V73.4171C70.23 73.4071 70.23 73.3871 70.23 73.3771C70.23 73.3371 70.23 73.2871 70.24 73.2471C70.42 73.2771 70.61 73.3071 70.79 73.3371C71.98 73.4971 73.18 73.5071 74.37 73.4071C74.86 73.3671 75.35 73.3071 75.83 73.2271C76.22 73.1671 76.6 73.0871 76.98 72.9971C77.02 72.9871 77.03 72.9871 77.07 72.9771C77.08 72.9771 77.08 72.9771 77.09 72.9771C77.13 72.9671 77.46 72.8771 77.85 72.7771C78.6 72.5771 79.05 71.7971 78.85 71.0471C78.75 70.6671 78.66 70.3371 78.65 70.2871V70.2771C78.55 69.9271 78.44 69.5771 78.31 69.2371C78.15 68.7971 77.97 68.3671 77.78 67.9371C77.6 67.5371 77.4 67.1471 77.19 66.7571C76.72 65.9071 76.19 65.0971 75.58 64.3371C75.55 64.3071 75.54 64.2571 75.55 64.2171C75.56 64.1771 75.58 64.1371 75.62 64.1071C75.88 63.9271 76.14 63.7471 76.39 63.5571C76.81 63.2371 77.21 62.8871 77.58 62.5171C77.88 62.2171 78.3 62.0771 78.72 62.1171C81.01 62.3871 83.22 63.4071 84.97 65.1571C85.04 65.2271 85.08 65.3271 85.08 65.4371C85.08 65.5371 85.03 65.6371 84.96 65.7071C84.21 66.3971 83.39 66.9671 82.52 67.4071C82.14 67.5971 81.86 67.9571 81.77 68.3771C81.68 68.7971 81.79 69.2371 82.07 69.5571C84.43 72.4771 85.33 75.8271 85.36 75.9571C85.36 75.9471 85.36 75.9471 85.36 75.9571ZM62.02 62.4971C62.02 62.4871 62.01 62.4771 62.01 62.4771C62.01 62.4771 62.02 62.4771 62.03 62.4671L62.02 62.4571C65.17 57.0171 72.13 55.1571 77.58 58.2971H77.59C77.68 58.3571 77.75 58.4471 77.78 58.5571C77.81 58.6671 77.79 58.7771 77.73 58.8671C76.67 60.5571 75.22 61.8771 73.57 62.7871C73.17 62.9971 72.9 63.3771 72.84 63.8171C72.78 64.2571 72.93 64.7071 73.25 65.0171C74.61 66.4171 75.48 68.0771 75.98 69.2771C76.14 69.6671 76.11 70.1171 75.9 70.4871C75.69 70.8571 75.32 71.1071 74.9 71.1671C73.62 71.3271 71.74 71.4071 69.85 70.9471C69.42 70.8271 68.97 70.9071 68.62 71.1871C68.27 71.4571 68.08 71.8871 68.1 72.3271C68.13 74.2071 67.71 76.1171 66.77 77.8871C66.72 77.9871 66.63 78.0571 66.52 78.0871C66.41 78.1171 66.3 78.1071 66.2 78.0571C66.2 78.0571 66.19 78.0571 66.19 78.0471C60.75 74.9071 58.88 67.9371 62.02 62.4971V62.4971ZM59.45 61.6071C59.3 61.8671 58.97 61.9571 58.72 61.8071L52.66 58.3071C52.4 58.1571 52.31 57.8271 52.46 57.5771L53 56.6471C53.15 56.3871 53.48 56.2971 53.73 56.4471L59.79 59.9471C60.05 60.0971 60.14 60.4271 59.99 60.6771L59.45 61.6071Z" fill="#27235E"/>
<path fill-rule="evenodd" clip-rule="evenodd" d="M13.26 29.7071C13.86 29.6871 14.37 29.2771 14.52 28.6971C14.67 28.1171 14.41 27.5071 13.89 27.2071C13.89 27.1971 13.89 27.1971 13.89 27.1971C11.71 25.9371 6.18003 26.8871 3.48003 27.4471C3.08003 27.5171 2.73003 27.7671 2.52003 28.1171C2.32003 28.4671 2.28003 28.8971 2.41003 29.2771C3.27003 31.8971 5.22003 37.1671 7.40003 38.4171C7.92003 38.7171 8.58003 38.6371 9.01003 38.2171C9.44003 37.7971 9.54003 37.1371 9.26003 36.6071C8.28003 34.7871 7.62003 33.1471 7.23003 32.0271C7.11003 31.6471 7.15003 31.2371 7.35003 30.8871C7.55003 30.5471 7.88003 30.2971 8.27003 30.2171C9.44003 30.0271 11.19 29.7671 13.26 29.7071ZM10.08 32.4871C10.12 32.6371 11.02 35.9671 13.38 38.8871C13.66 39.2171 13.77 39.6471 13.68 40.0671C13.59 40.4871 13.32 40.8471 12.93 41.0271C12.06 41.4671 11.24 42.0371 10.49 42.7271C10.41 42.7971 10.37 42.8971 10.37 42.9971C10.37 43.0971 10.41 43.1971 10.48 43.2771C12.36 45.1571 14.77 46.1871 17.23 46.3571C17.35 46.3671 17.47 46.3171 17.55 46.2271L17.56 46.2171C17.97 45.7871 18.41 45.3871 18.87 45.0171C19.07 44.8571 19.27 44.7071 19.48 44.5571C19.56 44.4971 19.65 44.4371 19.73 44.3871L19.76 44.3671L19.82 44.3271C19.83 44.3171 19.84 44.3171 19.85 44.3071C19.89 44.2871 19.92 44.2571 19.96 44.2371C19.84 44.0971 19.72 43.9471 19.61 43.7971C18.88 42.8471 18.27 41.8171 17.76 40.7371C17.55 40.2971 17.36 39.8371 17.19 39.3871C17.05 39.0171 16.93 38.6471 16.82 38.2771C16.81 38.2371 16.81 38.2271 16.8 38.1871C16.8 38.1771 16.8 38.1771 16.8 38.1671C16.79 38.1271 16.7 37.7971 16.6 37.4071C16.4 36.6571 16.85 35.8771 17.6 35.6771C17.98 35.5771 18.31 35.4871 18.36 35.4771H18.37C18.72 35.3871 19.08 35.3171 19.44 35.2471C19.9 35.1671 20.36 35.1071 20.83 35.0571C21.27 35.0171 21.71 34.9871 22.14 34.9771C23.11 34.9571 24.08 35.0071 25.04 35.1671C25.08 35.1771 25.13 35.1571 25.16 35.1371C25.19 35.1071 25.21 35.0671 25.22 35.0271C25.24 34.7071 25.27 34.3971 25.31 34.0771C25.38 33.5571 25.48 33.0371 25.61 32.5271C25.72 32.1171 25.64 31.6871 25.39 31.3371C24.01 29.4971 22.03 28.0871 19.63 27.4471C19.53 27.4271 19.42 27.4371 19.34 27.4971C19.25 27.5471 19.19 27.6371 19.17 27.7371C18.94 28.7271 18.87 29.7271 18.92 30.6971C18.95 31.1271 18.78 31.5471 18.46 31.8271C18.14 32.1171 17.71 32.2371 17.28 32.1571C13.55 31.5571 10.2 32.4471 10.08 32.4871ZM33.4 45.9671C33.41 45.9671 33.42 45.9571 33.42 45.9571C33.42 45.9571 33.42 45.9471 33.41 45.9371L33.42 45.9471C36.55 40.5071 34.68 33.5371 29.25 30.3971H29.24C29.14 30.3471 29.03 30.3271 28.92 30.3671C28.81 30.3971 28.73 30.4671 28.67 30.5671C27.74 32.3371 27.31 34.2471 27.36 36.1271C27.38 36.5771 27.18 36.9971 26.83 37.2771C26.48 37.5571 26.02 37.6371 25.59 37.5171C23.7 37.0371 21.82 37.1171 20.54 37.2871C20.12 37.3471 19.75 37.5971 19.54 37.9671C19.33 38.3371 19.3 38.7771 19.45 39.1771C19.95 40.3671 20.82 42.0371 22.17 43.4371C22.49 43.7471 22.64 44.1871 22.58 44.6271C22.52 45.0671 22.25 45.4471 21.85 45.6471C20.21 46.5571 18.76 47.8871 17.7 49.5771C17.64 49.6671 17.62 49.7871 17.65 49.8871C17.68 49.9971 17.74 50.0871 17.84 50.1471C17.84 50.1471 17.85 50.1471 17.85 50.1571C23.29 53.2971 30.26 51.4271 33.4 45.9971V45.9671ZM35.45 47.7571C35.3 48.0171 35.39 48.3471 35.65 48.4871L41.71 51.9871C41.97 52.1371 42.3 52.0471 42.44 51.7871L42.98 50.8571C43.13 50.5971 43.04 50.2671 42.78 50.1271L36.72 46.6271C36.46 46.4771 36.13 46.5671 35.99 46.8271L35.45 47.7571Z" fill="#27235E"/>
<path fill-rule="evenodd" clip-rule="evenodd" d="M23.96 17.667C24.32 17.767 24.71 17.637 24.94 17.337C25.17 17.037 25.2 16.637 25.01 16.307C24.5 15.417 23.92 14.417 23.55 13.767C23.44 13.577 23.41 13.357 23.47 13.157C23.53 12.947 23.66 12.777 23.85 12.667C24.04 12.557 24.26 12.527 24.46 12.587C24.67 12.647 24.84 12.777 24.95 12.967C25.32 13.617 25.9 14.617 26.41 15.507C26.6 15.837 26.96 16.017 27.34 15.967C27.71 15.917 28.02 15.647 28.12 15.287C28.2 14.997 28.28 14.707 28.34 14.457C28.4 14.247 28.53 14.077 28.72 13.967C28.91 13.857 29.13 13.827 29.33 13.887C29.54 13.947 29.71 14.077 29.82 14.267C29.93 14.457 29.96 14.677 29.9 14.877C29.58 16.067 28.98 18.297 28.76 19.117C28.71 19.317 28.73 19.527 28.84 19.707C29.02 20.027 29.38 20.197 29.74 20.147C30.1 20.097 30.4 19.837 30.5 19.487C30.58 19.167 30.67 18.867 30.74 18.607C30.8 18.397 30.93 18.227 31.12 18.117C31.31 18.007 31.53 17.977 31.73 18.037C31.94 18.097 32.11 18.227 32.22 18.417C32.33 18.607 32.36 18.827 32.3 19.027C31.97 20.257 31.35 22.587 31.14 23.337C31.1 23.487 31.12 23.657 31.2 23.787C31.38 24.097 31.73 24.267 32.08 24.217C32.43 24.167 32.72 23.917 32.82 23.567C32.91 23.237 33 22.907 33.07 22.627C33.13 22.417 33.26 22.247 33.45 22.137C33.64 22.027 33.86 21.997 34.06 22.057C34.27 22.117 34.44 22.247 34.55 22.437C34.66 22.627 34.69 22.847 34.63 23.047C34.32 24.217 33.74 26.367 33.51 27.227C33.45 27.467 33.48 27.717 33.6 27.927C34.04 28.687 35.12 30.567 35.72 31.597C35.83 31.787 35.86 32.007 35.8 32.207C35.74 32.417 35.61 32.587 35.42 32.697C35.23 32.807 35.01 32.837 34.81 32.777C34.6 32.717 34.43 32.587 34.32 32.397C33.73 31.367 32.64 29.487 32.2 28.727C32.08 28.517 31.87 28.357 31.64 28.297C30.78 28.067 28.63 27.487 27.46 27.177C27.25 27.117 27.08 26.987 26.97 26.797C26.86 26.607 26.83 26.387 26.89 26.187C26.95 25.977 27.08 25.807 27.27 25.697C27.46 25.587 27.68 25.557 27.88 25.617C28.16 25.687 28.48 25.777 28.82 25.867C29.16 25.957 29.53 25.837 29.75 25.557C29.97 25.277 29.99 24.887 29.81 24.577C29.73 24.437 29.6 24.337 29.45 24.297C28.7 24.097 26.37 23.467 25.14 23.137C24.93 23.077 24.76 22.947 24.65 22.757C24.54 22.567 24.51 22.347 24.57 22.147C24.63 21.937 24.76 21.767 24.95 21.657C25.14 21.547 25.36 21.517 25.56 21.577C25.82 21.647 26.13 21.727 26.44 21.817C26.79 21.907 27.17 21.787 27.39 21.497C27.61 21.207 27.64 20.807 27.46 20.497C27.36 20.317 27.19 20.187 26.99 20.137C26.17 19.917 23.94 19.317 22.75 18.997C22.54 18.937 22.37 18.807 22.26 18.617C22.15 18.427 22.12 18.207 22.18 18.007C22.24 17.797 22.37 17.627 22.56 17.517C22.75 17.407 22.97 17.377 23.17 17.437C23.38 17.517 23.67 17.597 23.96 17.667Z" fill="#27235E"/>
<path fill-rule="evenodd" clip-rule="evenodd" d="M67.25 92.6471C67.35 92.2871 67.65 92.0171 68.03 91.9671C68.4 91.9171 68.77 92.0971 68.96 92.4271C69.47 93.3171 70.05 94.3171 70.42 94.9671C70.53 95.1571 70.7 95.2871 70.91 95.3471C71.12 95.4071 71.34 95.3771 71.52 95.2671C71.71 95.1571 71.84 94.9871 71.9 94.7771C71.96 94.5671 71.93 94.3471 71.82 94.1671C71.45 93.5171 70.87 92.5171 70.36 91.6271C70.17 91.2971 70.2 90.8971 70.43 90.5971C70.66 90.2971 71.04 90.1671 71.41 90.2671C71.7 90.3471 71.99 90.4271 72.24 90.4871C72.45 90.5471 72.67 90.5171 72.85 90.4071C73.04 90.2971 73.17 90.1271 73.23 89.9171C73.29 89.7071 73.26 89.4871 73.15 89.3071C73.04 89.1171 72.87 88.9871 72.66 88.9271C71.47 88.6071 69.24 88.0071 68.42 87.7871C68.22 87.7371 68.05 87.6071 67.95 87.4271C67.77 87.1071 67.79 86.7171 68.02 86.4271C68.24 86.1371 68.62 86.0071 68.97 86.1071C69.29 86.1871 69.59 86.2771 69.85 86.3471C70.06 86.4071 70.28 86.3771 70.46 86.2671C70.65 86.1571 70.78 85.9871 70.84 85.7771C70.9 85.5671 70.87 85.3471 70.76 85.1671C70.65 84.9871 70.48 84.8471 70.27 84.7871C69.04 84.4571 66.71 83.8371 65.96 83.6271C65.81 83.5871 65.68 83.4871 65.6 83.3471C65.42 83.0371 65.45 82.6571 65.66 82.3671C65.88 82.0871 66.24 81.9571 66.59 82.0471C66.92 82.1371 67.25 82.2271 67.53 82.2971C67.74 82.3571 67.96 82.3271 68.14 82.2171C68.33 82.1071 68.46 81.9371 68.52 81.7271C68.58 81.5171 68.55 81.2971 68.44 81.1171C68.33 80.9271 68.16 80.7971 67.95 80.7371C66.79 80.4271 64.63 79.8471 63.77 79.6171C63.53 79.5571 63.33 79.3971 63.21 79.1871C62.77 78.4271 61.69 76.5471 61.09 75.5171C60.98 75.3271 60.81 75.1971 60.6 75.1371C60.39 75.0771 60.17 75.1071 59.99 75.2171C59.8 75.3271 59.67 75.4971 59.61 75.7071C59.55 75.9171 59.58 76.1371 59.69 76.3171C60.28 77.3471 61.37 79.2271 61.81 79.9871C61.93 80.1971 61.97 80.4571 61.9 80.6871C61.67 81.5471 61.09 83.6971 60.78 84.8671C60.72 85.0771 60.75 85.2971 60.86 85.4771C60.97 85.6671 61.14 85.7971 61.35 85.8571C61.56 85.9171 61.78 85.8871 61.96 85.7771C62.15 85.6671 62.28 85.4971 62.34 85.2871C62.41 85.0071 62.5 84.6871 62.59 84.3471C62.68 84.0071 62.97 83.7471 63.33 83.6971C63.68 83.6471 64.03 83.8171 64.21 84.1271C64.29 84.2671 64.31 84.4271 64.27 84.5771C64.07 85.3271 63.44 87.6571 63.11 88.8871C63.05 89.0971 63.08 89.3171 63.19 89.4971C63.3 89.6871 63.47 89.8171 63.68 89.8771C63.89 89.9371 64.11 89.9071 64.29 89.7971C64.48 89.6871 64.61 89.5171 64.67 89.3071C64.74 89.0471 64.82 88.7371 64.91 88.4271C65 88.0771 65.3 87.8171 65.67 87.7671C66.03 87.7171 66.39 87.8971 66.57 88.2071C66.67 88.3871 66.7 88.5971 66.65 88.7971C66.43 89.6171 65.83 91.8471 65.51 93.0371C65.45 93.2471 65.48 93.4671 65.59 93.6471C65.7 93.8371 65.87 93.9671 66.08 94.0271C66.29 94.0871 66.51 94.0571 66.69 93.9471C66.88 93.8371 67.01 93.6671 67.07 93.4571C67.09 93.2271 67.17 92.9371 67.25 92.6471Z" fill="#27235E"/>
<path fill-rule="evenodd" clip-rule="evenodd" d="M28.11 92.6471C28.01 92.2871 27.71 92.0171 27.33 91.9671C26.96 91.9171 26.59 92.0971 26.4 92.4271C25.89 93.3171 25.31 94.3171 24.94 94.9671C24.83 95.1571 24.66 95.2871 24.45 95.3471C24.24 95.4071 24.02 95.3771 23.84 95.2671C23.65 95.1571 23.52 94.9871 23.46 94.7771C23.4 94.5671 23.43 94.3471 23.54 94.1671C23.91 93.5171 24.49 92.5171 25 91.6271C25.19 91.2971 25.16 90.8971 24.93 90.5971C24.7 90.2971 24.32 90.1671 23.95 90.2671C23.66 90.3471 23.37 90.4271 23.12 90.4871C22.91 90.5471 22.69 90.5171 22.51 90.4071C22.32 90.2971 22.19 90.1271 22.13 89.9171C22.07 89.7071 22.1 89.4871 22.21 89.3071C22.32 89.1171 22.49 88.9871 22.7 88.9271C23.89 88.6071 26.12 88.0071 26.94 87.7871C27.14 87.7371 27.31 87.6071 27.41 87.4271C27.59 87.1071 27.57 86.7171 27.34 86.4271C27.12 86.1371 26.74 86.0071 26.39 86.1071C26.07 86.1871 25.77 86.2771 25.51 86.3471C25.3 86.4071 25.08 86.3771 24.9 86.2671C24.71 86.1571 24.58 85.9871 24.52 85.7771C24.46 85.5671 24.49 85.3471 24.6 85.1671C24.71 84.9771 24.88 84.8471 25.09 84.7871C26.32 84.4571 28.65 83.8371 29.4 83.6271C29.55 83.5871 29.68 83.4871 29.76 83.3471C29.94 83.0371 29.91 82.6571 29.7 82.3671C29.48 82.0871 29.12 81.9571 28.77 82.0471C28.44 82.1371 28.11 82.2271 27.83 82.2971C27.62 82.3571 27.4 82.3271 27.22 82.2171C27.03 82.1071 26.9 81.9371 26.84 81.7271C26.78 81.5171 26.81 81.2971 26.92 81.1171C27.03 80.9271 27.2 80.7971 27.41 80.7371C28.58 80.4271 30.73 79.8471 31.59 79.6171C31.83 79.5571 32.03 79.3971 32.15 79.1871C32.59 78.4271 33.67 76.5471 34.27 75.5171C34.38 75.3271 34.55 75.1971 34.76 75.1371C34.97 75.0771 35.19 75.1071 35.37 75.2171C35.56 75.3271 35.69 75.4971 35.75 75.7071C35.81 75.9171 35.78 76.1371 35.67 76.3171C35.08 77.3471 33.99 79.2271 33.55 79.9871C33.43 80.1971 33.39 80.4571 33.46 80.6871C33.69 81.5471 34.27 83.6971 34.58 84.8671C34.64 85.0771 34.61 85.2971 34.5 85.4771C34.39 85.6671 34.22 85.7971 34.01 85.8571C33.8 85.9171 33.58 85.8871 33.4 85.7771C33.21 85.6671 33.08 85.4971 33.02 85.2871C32.95 85.0071 32.86 84.6871 32.77 84.3471C32.68 84.0071 32.39 83.7471 32.03 83.6971C31.68 83.6471 31.33 83.8171 31.15 84.1271C31.07 84.2671 31.05 84.4271 31.09 84.5771C31.29 85.3271 31.92 87.6571 32.25 88.8871C32.31 89.0971 32.28 89.3171 32.17 89.4971C32.06 89.6871 31.89 89.8171 31.68 89.8771C31.47 89.9371 31.25 89.9071 31.07 89.7971C30.88 89.6871 30.75 89.5171 30.69 89.3071C30.62 89.0471 30.54 88.7371 30.45 88.4271C30.36 88.0771 30.06 87.8171 29.69 87.7671C29.33 87.7171 28.97 87.8971 28.79 88.2071C28.69 88.3871 28.66 88.5971 28.71 88.7971C28.93 89.6171 29.53 91.8471 29.85 93.0371C29.91 93.2471 29.88 93.4671 29.77 93.6471C29.66 93.8371 29.49 93.9671 29.28 94.0271C29.07 94.0871 28.85 94.0571 28.67 93.9471C28.48 93.8371 28.35 93.6671 28.29 93.4571C28.26 93.2271 28.19 92.9371 28.11 92.6471Z" fill="#27235E"/>
<path fill-rule="evenodd" clip-rule="evenodd" d="M71.39 17.667C71.03 17.767 70.64 17.637 70.41 17.337C70.18 17.037 70.15 16.637 70.34 16.307C70.85 15.417 71.43 14.417 71.8 13.767C71.91 13.577 71.94 13.357 71.88 13.157C71.82 12.947 71.69 12.777 71.5 12.667C71.31 12.557 71.09 12.527 70.89 12.587C70.68 12.647 70.51 12.777 70.4 12.967C70.03 13.617 69.45 14.617 68.94 15.507C68.75 15.837 68.39 16.017 68.01 15.967C67.64 15.917 67.33 15.647 67.23 15.287C67.15 14.997 67.07 14.707 67.01 14.457C66.95 14.247 66.82 14.077 66.63 13.967C66.44 13.857 66.22 13.827 66.02 13.887C65.81 13.947 65.64 14.077 65.53 14.267C65.42 14.457 65.39 14.677 65.45 14.877C65.77 16.067 66.37 18.297 66.59 19.117C66.64 19.317 66.62 19.527 66.51 19.707C66.33 20.027 65.97 20.197 65.61 20.147C65.25 20.097 64.95 19.837 64.85 19.487C64.77 19.167 64.68 18.867 64.61 18.607C64.55 18.397 64.42 18.227 64.23 18.117C64.04 18.007 63.82 17.977 63.62 18.037C63.41 18.097 63.24 18.227 63.13 18.417C63.02 18.607 62.99 18.827 63.05 19.027C63.38 20.257 64 22.587 64.21 23.337C64.25 23.487 64.23 23.657 64.15 23.787C63.97 24.097 63.62 24.267 63.27 24.217C62.92 24.167 62.63 23.917 62.53 23.567C62.44 23.237 62.35 22.907 62.28 22.627C62.22 22.417 62.09 22.247 61.9 22.137C61.71 22.027 61.49 21.997 61.29 22.057C61.08 22.117 60.91 22.247 60.8 22.437C60.69 22.627 60.66 22.847 60.72 23.047C61.03 24.217 61.61 26.367 61.84 27.227C61.9 27.467 61.87 27.717 61.75 27.927C61.31 28.687 60.23 30.567 59.63 31.597C59.52 31.787 59.49 32.007 59.55 32.207C59.61 32.417 59.74 32.587 59.93 32.697C60.12 32.807 60.34 32.837 60.54 32.777C60.75 32.717 60.92 32.587 61.03 32.397C61.62 31.367 62.71 29.487 63.15 28.727C63.27 28.517 63.48 28.357 63.71 28.297C64.57 28.067 66.72 27.487 67.89 27.177C68.1 27.117 68.27 26.987 68.38 26.797C68.49 26.607 68.52 26.387 68.46 26.187C68.4 25.977 68.27 25.807 68.08 25.697C67.89 25.587 67.67 25.557 67.47 25.617C67.19 25.687 66.87 25.777 66.53 25.867C66.19 25.957 65.82 25.837 65.6 25.557C65.38 25.277 65.36 24.887 65.54 24.577C65.62 24.437 65.75 24.337 65.9 24.297C66.65 24.097 68.98 23.467 70.21 23.137C70.42 23.077 70.59 22.947 70.7 22.757C70.81 22.567 70.84 22.347 70.78 22.147C70.72 21.937 70.59 21.767 70.4 21.657C70.21 21.547 69.99 21.517 69.79 21.577C69.53 21.647 69.22 21.727 68.91 21.817C68.56 21.907 68.18 21.787 67.96 21.497C67.74 21.207 67.71 20.807 67.89 20.497C67.99 20.317 68.16 20.187 68.36 20.137C69.18 19.917 71.41 19.317 72.6 18.997C72.81 18.937 72.98 18.807 73.09 18.617C73.2 18.427 73.23 18.207 73.17 18.007C73.11 17.797 72.98 17.627 72.79 17.517C72.6 17.407 72.38 17.377 72.18 17.437C71.97 17.517 71.69 17.597 71.39 17.667Z" fill="#27235E"/>
<path fill-rule="evenodd" clip-rule="evenodd" d="M4.39 56.357C4.66 56.087 4.74 55.687 4.59 55.347C4.45 54.997 4.11 54.767 3.74 54.767C2.71 54.767 1.56 54.767 0.81 54.767C0.6 54.767 0.39 54.687 0.24 54.527C0.09 54.377 0 54.177 0 53.957C0 53.747 0.09 53.537 0.24 53.387C0.39 53.237 0.6 53.147 0.81 53.147C1.56 53.147 2.71 53.147 3.74 53.147C4.12 53.147 4.45 52.917 4.6 52.577C4.74 52.227 4.66 51.827 4.4 51.567C4.18 51.347 3.98 51.147 3.8 50.967C3.65 50.817 3.56 50.607 3.56 50.397C3.56 50.187 3.65 49.977 3.8 49.827C3.95 49.677 4.16 49.587 4.37 49.587C4.58 49.587 4.79 49.677 4.94 49.827C5.81 50.697 7.45 52.337 8.04 52.927C8.19 53.077 8.38 53.157 8.59 53.157C8.96 53.157 9.29 52.937 9.43 52.597C9.57 52.257 9.49 51.867 9.23 51.607C9 51.377 8.77 51.147 8.58 50.957C8.43 50.807 8.34 50.597 8.34 50.387C8.34 50.177 8.42 49.967 8.58 49.817C8.73 49.667 8.94 49.577 9.15 49.577C9.36 49.577 9.57 49.667 9.72 49.817C10.62 50.717 12.33 52.427 12.88 52.977C12.99 53.087 13.14 53.147 13.3 53.147C13.66 53.147 13.98 52.937 14.11 52.607C14.24 52.277 14.17 51.897 13.92 51.647C13.68 51.407 13.44 51.167 13.24 50.967C13.08 50.817 13 50.607 13 50.397C13 50.187 13.09 49.977 13.24 49.827C13.39 49.677 13.6 49.587 13.81 49.587C14.02 49.587 14.23 49.677 14.38 49.827C15.23 50.677 16.81 52.257 17.44 52.887C17.61 53.057 17.85 53.157 18.1 53.157C18.98 53.157 21.15 53.157 22.33 53.157C22.54 53.157 22.75 53.237 22.9 53.397C23.05 53.547 23.14 53.757 23.14 53.967C23.14 54.177 23.06 54.387 22.9 54.537C22.75 54.687 22.54 54.777 22.33 54.777C21.14 54.777 18.98 54.777 18.1 54.777C17.85 54.777 17.62 54.877 17.44 55.047C16.81 55.677 15.23 57.257 14.38 58.107C14.23 58.257 14.02 58.347 13.81 58.347C13.6 58.347 13.39 58.267 13.24 58.107C13.08 57.947 13 57.747 13 57.527C13 57.317 13.09 57.107 13.24 56.957C13.44 56.757 13.68 56.517 13.92 56.277C14.17 56.027 14.25 55.647 14.11 55.317C13.97 54.987 13.65 54.777 13.3 54.777C13.14 54.777 12.99 54.837 12.88 54.947C12.33 55.497 10.62 57.207 9.72 58.107C9.57 58.257 9.36 58.347 9.15 58.347C8.94 58.347 8.73 58.267 8.58 58.107C8.43 57.957 8.34 57.747 8.34 57.537C8.34 57.327 8.42 57.117 8.58 56.967C8.77 56.777 9 56.547 9.23 56.317C9.49 56.057 9.57 55.667 9.43 55.327C9.29 54.987 8.96 54.767 8.59 54.767C8.38 54.767 8.19 54.847 8.04 54.997C7.44 55.597 5.81 57.227 4.94 58.097C4.79 58.247 4.58 58.337 4.37 58.337C4.16 58.337 3.95 58.257 3.8 58.097C3.65 57.947 3.56 57.737 3.56 57.527C3.56 57.317 3.65 57.107 3.8 56.957C3.97 56.777 4.18 56.567 4.39 56.357Z" fill="#27235E"/>
<path fill-rule="evenodd" clip-rule="evenodd" d="M90.96 56.357C90.69 56.087 90.61 55.687 90.76 55.347C90.9 54.997 91.24 54.777 91.62 54.777C92.65 54.777 93.8 54.777 94.55 54.777C94.76 54.777 94.97 54.697 95.12 54.537C95.27 54.387 95.36 54.177 95.36 53.967C95.36 53.757 95.28 53.547 95.12 53.397C94.97 53.247 94.76 53.157 94.55 53.157C93.8 53.157 92.65 53.157 91.62 53.157C91.24 53.157 90.91 52.927 90.76 52.587C90.62 52.237 90.7 51.837 90.96 51.577C91.18 51.357 91.38 51.157 91.56 50.977C91.71 50.827 91.8 50.617 91.8 50.407C91.8 50.197 91.72 49.987 91.56 49.837C91.41 49.687 91.2 49.597 90.99 49.597C90.78 49.597 90.57 49.687 90.42 49.837C89.55 50.707 87.91 52.347 87.32 52.937C87.17 53.087 86.98 53.167 86.77 53.167C86.4 53.167 86.07 52.947 85.93 52.607C85.79 52.267 85.87 51.877 86.13 51.617C86.36 51.387 86.59 51.157 86.78 50.967C86.93 50.817 87.02 50.607 87.02 50.397C87.02 50.187 86.94 49.977 86.78 49.827C86.63 49.677 86.42 49.587 86.21 49.587C86 49.587 85.79 49.677 85.64 49.827C84.74 50.727 83.03 52.437 82.48 52.987C82.37 53.097 82.22 53.157 82.06 53.157C81.7 53.157 81.38 52.947 81.25 52.617C81.11 52.287 81.19 51.907 81.44 51.657C81.68 51.417 81.92 51.177 82.12 50.977C82.27 50.827 82.36 50.617 82.36 50.407C82.36 50.197 82.28 49.987 82.12 49.837C81.97 49.687 81.76 49.597 81.55 49.597C81.34 49.597 81.13 49.687 80.98 49.837C80.13 50.687 78.55 52.267 77.92 52.897C77.75 53.067 77.51 53.167 77.26 53.167C76.38 53.167 74.21 53.167 73.03 53.167C72.82 53.167 72.61 53.247 72.46 53.407C72.31 53.557 72.22 53.767 72.22 53.977C72.22 54.187 72.3 54.397 72.46 54.547C72.61 54.697 72.82 54.787 73.03 54.787C74.22 54.787 76.38 54.787 77.26 54.787C77.51 54.787 77.74 54.887 77.92 55.057C78.55 55.687 80.13 57.267 80.98 58.117C81.13 58.267 81.34 58.357 81.55 58.357C81.76 58.357 81.97 58.277 82.12 58.117C82.27 57.967 82.36 57.757 82.36 57.547C82.36 57.337 82.28 57.127 82.12 56.977C81.92 56.777 81.68 56.537 81.44 56.297C81.19 56.047 81.11 55.667 81.25 55.337C81.39 55.007 81.71 54.797 82.06 54.797C82.22 54.797 82.37 54.857 82.48 54.967C83.03 55.517 84.74 57.227 85.64 58.127C85.79 58.277 86 58.367 86.21 58.367C86.42 58.367 86.63 58.287 86.78 58.127C86.93 57.977 87.02 57.767 87.02 57.557C87.02 57.347 86.94 57.137 86.78 56.987C86.59 56.797 86.36 56.567 86.13 56.337C85.87 56.077 85.79 55.687 85.93 55.347C86.07 55.007 86.4 54.787 86.77 54.787C86.98 54.787 87.17 54.867 87.32 55.017C87.92 55.617 89.55 57.247 90.42 58.117C90.57 58.267 90.78 58.357 90.99 58.357C91.2 58.357 91.41 58.277 91.56 58.117C91.71 57.967 91.8 57.757 91.8 57.547C91.8 57.337 91.72 57.127 91.56 56.977C91.39 56.777 91.18 56.567 90.96 56.357Z" fill="#27235E"/>
<path fill-rule="evenodd" clip-rule="evenodd" d="M119.12 51.327C119.41 51.257 119.61 50.997 119.61 50.697C119.61 49.327 119.61 45.607 119.61 44.797C119.61 44.697 119.59 44.597 119.54 44.497C118.72 42.897 111.14 28.077 109.13 24.157C109.03 23.957 109.04 23.717 109.15 23.517C109.27 23.327 109.48 23.207 109.71 23.207C111.47 23.207 114.91 23.207 116.11 23.207C116.37 23.207 116.6 23.357 116.7 23.587C117.54 25.447 121.23 33.587 122.69 36.807C122.79 37.037 123.03 37.187 123.28 37.187C123.54 37.187 123.77 37.037 123.87 36.807C125.33 33.597 129.01 25.447 129.85 23.587C129.96 23.357 130.19 23.207 130.44 23.207C131.63 23.207 135.08 23.207 136.84 23.207C137.07 23.207 137.28 23.327 137.4 23.517C137.52 23.707 137.53 23.947 137.42 24.157C135.41 28.077 127.83 42.907 127.01 44.497C126.96 44.587 126.94 44.687 126.94 44.797C126.94 45.587 126.94 49.127 126.94 50.487C126.94 50.797 127.16 51.057 127.46 51.127C128.47 51.347 129.41 51.657 130.3 52.067C132.17 52.937 133.63 54.157 134.66 55.727C135.57 57.117 136.08 58.697 136.18 60.447C136.19 60.627 136.13 60.797 136 60.927C135.88 61.057 135.71 61.127 135.53 61.127C134.14 61.127 130.94 61.127 129.6 61.127C129.26 61.127 128.98 60.867 128.95 60.537C128.85 59.397 128.41 58.467 127.64 57.747C126.74 56.907 125.42 56.487 123.69 56.487C122.58 56.487 121.64 56.647 120.87 56.967C120.09 57.287 119.51 57.727 119.12 58.297C118.73 58.857 118.53 59.487 118.53 60.177C118.53 61.207 119.06 62.077 120.12 62.797C121.18 63.517 122.82 64.217 125.05 64.907C128.81 66.057 131.61 67.497 133.45 69.227C135.29 70.957 136.2 73.167 136.2 75.877C136.2 77.827 135.7 79.507 134.7 80.917C133.7 82.327 132.28 83.397 130.45 84.127C128.61 84.867 126.46 85.237 123.99 85.237C121.62 85.237 119.4 84.827 117.32 84.017C115.24 83.207 113.55 81.957 112.24 80.277C111.06 78.757 110.41 76.917 110.3 74.767C110.29 74.587 110.36 74.417 110.48 74.287C110.6 74.157 110.77 74.087 110.95 74.087C112.35 74.087 115.56 74.087 116.92 74.087C117.26 74.087 117.55 74.347 117.57 74.697C117.67 76.307 118.22 77.487 119.22 78.247C120.33 79.097 121.93 79.527 124 79.527C125.64 79.527 126.88 79.197 127.72 78.537C128.56 77.877 128.98 77.007 128.98 75.937C128.98 75.137 128.81 74.467 128.47 73.937C128.13 73.397 127.51 72.887 126.6 72.397C125.69 71.907 124.36 71.377 122.59 70.807C120.32 70.067 118.36 69.247 116.72 68.357C115.08 67.457 113.77 66.337 112.79 64.977C111.81 63.627 111.32 62.017 111.32 60.157C111.32 58.297 111.85 56.657 112.92 55.237C113.99 53.817 115.47 52.717 117.36 51.937C117.9 51.687 118.5 51.487 119.12 51.327Z" fill="#27235E"/>
<path d="M123.5 0.0270536C146.62 0.247054 168.67 16.6571 175.19 39.0671C180.46 57.1871 175.39 77.9371 162.37 91.5971C152.27 102.187 137.88 108.357 123.15 108.407H63.19V104.407C83.29 104.407 103.38 104.467 123.48 104.407C144.98 104.207 165.35 88.9071 171.36 68.2471C176.24 51.4671 171.55 32.2471 159.48 19.5871C150.14 9.79705 136.84 4.05705 123.15 4.01705H63.19V0.0170536C83.29 0.0270536 103.4 -0.0329464 123.5 0.0270536Z" fill="#27235E"/>
</svg>
