<svg width="141" height="153" viewBox="0 0 141 153" fill="none" xmlns="http://www.w3.org/2000/svg">
<path fill-rule="evenodd" clip-rule="evenodd" d="M63.4127 136.159C63.119 135.638 62.5315 135.359 61.9366 135.447C61.3418 135.535 60.8718 135.983 60.7396 136.563C60.6148 137.195 60.534 137.841 60.534 138.502C60.534 142.423 66.4824 149.356 68.9792 152.088C69.2509 152.396 69.6475 152.572 70.0587 152.572C70.47 152.572 70.8666 152.396 71.1383 152.088C73.6351 149.356 79.5835 142.423 79.5835 138.502C79.5835 137.834 79.5101 137.187 79.3632 136.563C79.231 135.99 78.761 135.55 78.1809 135.462C77.5934 135.373 77.0206 135.653 76.7268 136.167C74.6339 139.765 72.4014 142.497 71.1236 143.944C70.8519 144.237 70.4627 144.406 70.0661 144.406C69.6622 144.406 69.2803 144.237 69.0086 143.944C67.7235 142.497 65.491 139.765 63.4127 136.159ZM70.0661 139.457C70.2056 139.317 74.1198 135.396 76.0292 129.866C76.1687 129.425 76.5212 129.08 76.9618 128.94C77.4024 128.801 77.8871 128.882 78.2543 129.153C79.5982 130.123 81.1183 130.886 82.7854 131.401C82.9322 131.445 83.0864 131.43 83.2186 131.356C83.3508 131.283 83.4536 131.166 83.4977 131.019V131.011C84.5111 127.237 84.0485 123.418 82.4549 120.165C82.3741 120.003 82.2199 119.886 82.0436 119.849C82.0363 119.849 82.0363 119.849 82.0289 119.849C81.1844 119.643 80.3546 119.379 79.5394 119.056C79.1869 118.916 78.8491 118.769 78.504 118.615C78.3645 118.556 78.2323 118.49 78.1001 118.424L78.0487 118.402L77.9459 118.351C77.9312 118.343 77.9165 118.336 77.8945 118.329C77.8357 118.299 77.7843 118.27 77.7255 118.241C77.6301 118.498 77.5346 118.755 77.4245 119.012C76.7562 120.635 75.8896 122.177 74.8909 123.616C74.4796 124.211 74.0464 124.784 73.5911 125.342C73.2239 125.783 72.8493 126.216 72.4528 126.634C72.4014 126.686 72.4014 126.686 72.3573 126.737C72.35 126.745 72.35 126.745 72.3426 126.752C72.2765 126.818 71.667 127.428 71.0942 128C70.8225 128.272 70.448 128.426 70.0661 128.426C69.6842 128.426 69.3097 128.272 69.038 128C68.4578 127.42 67.841 126.803 67.7895 126.752L67.7822 126.745C67.4077 126.363 67.0478 125.959 66.71 125.548C66.2694 125.019 65.8508 124.475 65.4543 123.917C65.0797 123.396 64.7272 122.852 64.3894 122.302C63.6477 121.083 63.0088 119.812 62.5021 118.476C62.4801 118.417 62.4287 118.366 62.3699 118.343C62.3112 118.321 62.2451 118.321 62.1863 118.351C61.7677 118.556 61.3418 118.747 60.9159 118.924C60.1154 119.254 59.2929 119.526 58.4631 119.746C58.0445 119.856 57.692 120.143 57.5084 120.539C56.069 123.712 55.6798 127.384 56.6492 131.004V131.019C56.6932 131.166 56.7887 131.283 56.9209 131.356C57.0531 131.43 57.2073 131.445 57.3542 131.401C59.0138 130.886 60.5413 130.115 61.8852 129.146C62.2597 128.867 62.7444 128.786 63.1851 128.933C63.6257 129.073 63.9708 129.418 64.1177 129.866C66.0271 135.396 69.9412 139.317 70.0808 139.457C70.0587 139.457 70.0661 139.457 70.0661 139.457ZM70.0808 99.9035C70.0661 99.8888 70.0587 99.8814 70.0587 99.8814C70.0587 99.8814 70.0514 99.8888 70.0367 99.9035V99.8814C60.813 99.8888 53.3298 107.387 53.3298 116.61V116.618C53.3372 116.779 53.4033 116.933 53.5208 117.044C53.6383 117.154 53.7998 117.213 53.9614 117.213C57.1632 117.088 60.1301 116.074 62.6269 114.4C63.0235 114.121 63.5376 114.062 63.9855 114.246C64.4335 114.429 64.7639 114.826 64.8594 115.303C65.6819 118.821 67.7088 121.722 68.9719 123.278C69.2436 123.594 69.6402 123.778 70.0587 123.778C70.4773 123.778 70.8739 123.594 71.1456 123.278C72.4161 121.722 74.4429 118.821 75.2728 115.303C75.3682 114.833 75.6914 114.437 76.1393 114.26C76.5873 114.084 77.094 114.143 77.4906 114.415C79.9947 116.082 82.9616 117.095 86.1634 117.22C86.325 117.227 86.4792 117.168 86.5967 117.051C86.7142 116.941 86.7803 116.787 86.7877 116.625V116.618C86.7877 107.394 79.2971 99.9035 70.0808 99.8888V99.9035ZM70.8519 95.982C71.2851 95.982 71.645 95.6295 71.645 95.1888V84.9224C71.645 84.4891 71.2925 84.1292 70.8519 84.1292H69.273C68.8397 84.1292 68.4872 84.4817 68.4872 84.9224V95.1888C68.4872 95.6221 68.8397 95.982 69.273 95.982H70.8519Z" fill="#313131"/>
<path fill-rule="evenodd" clip-rule="evenodd" d="M119.144 39.6265C118.542 39.6265 118.006 39.2667 117.785 38.7086C117.565 38.1504 117.712 37.5189 118.153 37.1076C118.637 36.6817 119.159 36.2925 119.731 35.962C123.124 34.0013 132.106 35.6903 135.719 36.4834C136.123 36.5642 136.475 36.8212 136.681 37.1737C136.886 37.5336 136.93 37.9595 136.798 38.3487C135.682 41.8737 132.649 50.4952 129.256 52.4559C128.683 52.7864 128.081 53.0434 127.464 53.2344C126.899 53.4106 126.289 53.2197 125.922 52.757C125.555 52.2944 125.511 51.6555 125.805 51.1488C127.876 47.543 129.124 44.2384 129.734 42.4098C129.851 42.0279 129.8 41.6093 129.601 41.2642C129.403 40.919 129.065 40.6693 128.676 40.5739C126.796 40.192 123.308 39.6192 119.144 39.6265ZM125.327 43.739C125.276 43.9226 123.837 49.2835 120.003 53.697C119.695 54.0422 119.57 54.5122 119.665 54.9675C119.768 55.4228 120.077 55.7973 120.503 55.9809C122.015 56.6639 123.44 57.5965 124.71 58.7789C124.821 58.8817 124.887 59.0285 124.887 59.1754C124.894 59.3296 124.835 59.4765 124.732 59.5867C124.732 59.5867 124.732 59.5867 124.725 59.594C121.964 62.3552 118.424 63.868 114.811 64.1104C114.628 64.1251 114.451 64.0516 114.326 63.9121C114.326 63.9047 114.319 63.9047 114.319 63.8974C113.717 63.2732 113.071 62.6857 112.395 62.1423C112.101 61.9073 111.8 61.6796 111.499 61.4666C111.374 61.3785 111.257 61.2977 111.132 61.2096L111.088 61.1802L110.992 61.1215C110.978 61.1142 110.963 61.0995 110.948 61.0921C110.897 61.0554 110.838 61.0187 110.787 60.9893C110.963 60.7763 111.132 60.5634 111.301 60.3504C112.373 58.9624 113.276 57.4423 114.025 55.8561C114.334 55.2025 114.613 54.5415 114.87 53.8659C115.068 53.3298 115.259 52.7864 115.421 52.2356C115.443 52.1695 115.443 52.1622 115.457 52.1034C115.457 52.0961 115.457 52.0888 115.465 52.0888C115.487 52.0006 115.714 51.1635 115.92 50.385C116.023 50.0105 115.971 49.6139 115.773 49.2761C115.582 48.9383 115.259 48.696 114.892 48.6005C114.099 48.3875 113.254 48.1599 113.181 48.1452C113.174 48.1452 113.174 48.1452 113.174 48.1452C112.652 48.013 112.131 47.9029 111.602 47.8074C110.926 47.6899 110.243 47.5944 109.56 47.5357C108.922 47.4696 108.275 47.4329 107.629 47.4182C106.204 47.3888 104.78 47.4696 103.37 47.6972C103.37 47.6972 103.37 47.6972 103.362 47.6972C103.296 47.7046 103.237 47.6899 103.186 47.6458C103.135 47.6091 103.105 47.5504 103.098 47.4843C103.069 47.0216 103.025 46.5516 102.958 46.089C102.841 45.2298 102.672 44.3852 102.444 43.5481C102.327 43.1295 102.408 42.6815 102.65 42.329C104.677 39.4943 107.658 37.328 111.286 36.3512H111.301C111.448 36.3145 111.602 36.3366 111.734 36.4173C111.866 36.4981 111.954 36.623 111.991 36.7698C112.38 38.4662 112.469 40.17 112.307 41.8149C112.256 42.2776 112.424 42.7329 112.77 43.0487C113.115 43.3645 113.585 43.4893 114.04 43.3938C119.783 42.2556 125.144 43.6802 125.327 43.739C125.327 43.7316 125.327 43.7316 125.327 43.739ZM91.0837 63.5302C91.0617 63.5229 91.0543 63.5229 91.0543 63.5229C91.0543 63.5229 91.0543 63.5155 91.0617 63.4935L91.047 63.5008C86.4425 55.5109 89.189 45.2812 97.179 40.662C97.179 40.662 97.1863 40.662 97.1863 40.6546C97.3258 40.5739 97.4947 40.5592 97.6563 40.6032C97.8105 40.6473 97.9427 40.7575 98.0161 40.897C99.5069 43.7316 100.109 46.8087 99.9108 49.8049C99.8667 50.2896 100.072 50.7596 100.454 51.0606C100.836 51.3617 101.343 51.4499 101.805 51.2883C105.264 50.2381 108.789 50.5466 110.772 50.8624C111.183 50.9431 111.543 51.1928 111.749 51.5527C111.962 51.9125 111.999 52.3531 111.859 52.7497C111.147 54.6223 109.641 57.8315 107.019 60.3137C106.66 60.6295 106.476 61.1068 106.549 61.5915C106.616 62.0688 106.924 62.4801 107.357 62.6857C110.052 64.0222 112.417 66.0858 114.121 68.7956C114.209 68.9352 114.231 69.0967 114.194 69.2583C114.158 69.4125 114.055 69.552 113.923 69.6328C113.923 69.6328 113.915 69.6328 113.915 69.6402C105.925 74.252 95.6955 71.5128 91.0764 63.5302H91.0837ZM88.0728 66.1593C88.2931 66.5338 88.1609 67.0185 87.7864 67.2388L78.8932 72.372C78.5187 72.5923 78.034 72.4601 77.8137 72.0856L77.0205 70.7197C76.8002 70.3452 76.9324 69.8605 77.3069 69.6402L86.2001 64.5069C86.5747 64.2866 87.0594 64.4188 87.2797 64.7933L88.0728 66.1593Z" fill="#313131"/>
<path fill-rule="evenodd" clip-rule="evenodd" d="M14.3349 100.146C14.6359 99.6318 14.5919 98.9782 14.2174 98.5082C13.8428 98.0382 13.2186 97.8473 12.6532 98.0308C12.0436 98.2365 11.4488 98.4935 10.8686 98.824C7.47586 100.785 4.44291 109.406 3.32667 112.931C3.19449 113.32 3.23855 113.754 3.44417 114.106C3.6498 114.466 4.00229 114.716 4.4062 114.796C8.01929 115.59 16.9933 117.279 20.3934 115.318C20.9662 114.987 21.4949 114.591 21.9576 114.158C22.3909 113.761 22.5378 113.129 22.3174 112.586C22.1045 112.035 21.5684 111.675 20.9809 111.675C16.817 111.661 13.3361 111.095 11.4488 110.706C11.0596 110.618 10.7218 110.368 10.5235 110.016C10.3252 109.671 10.2738 109.252 10.3913 108.87C10.9935 107.049 12.2419 103.744 14.3349 100.146ZM14.7975 107.556C14.9811 107.607 20.342 109.032 26.0848 107.923C26.5401 107.827 27.0101 107.952 27.3552 108.268C27.7004 108.576 27.8693 109.039 27.8179 109.494C27.6563 111.147 27.7518 112.843 28.1336 114.539C28.1704 114.686 28.2585 114.811 28.3907 114.892C28.5229 114.973 28.6771 114.995 28.8239 114.958H28.8313C32.6059 113.945 35.6829 111.639 37.7025 108.635C37.8053 108.481 37.8273 108.29 37.7686 108.121C37.7686 108.114 37.7686 108.114 37.7612 108.106C37.5189 107.269 37.3353 106.417 37.2031 105.558C37.1443 105.184 37.1003 104.816 37.0636 104.442C37.0489 104.295 37.0342 104.141 37.0268 103.994L37.0195 103.935L37.0122 103.825C37.0122 103.803 37.0122 103.788 37.0048 103.766C36.9975 103.7 36.9975 103.641 36.9975 103.575C36.7258 103.619 36.454 103.663 36.1823 103.7C34.4419 103.935 32.672 103.957 30.9316 103.81C30.2119 103.752 29.4996 103.663 28.7872 103.546C28.2218 103.45 27.6563 103.34 27.0982 103.201C27.0982 103.201 27.0982 103.201 27.0908 103.201C27.0247 103.186 27.0174 103.186 26.9586 103.164C26.9513 103.164 26.944 103.164 26.944 103.157C26.8558 103.135 26.0187 102.907 25.2402 102.701C24.8657 102.599 24.5499 102.356 24.359 102.026C24.168 101.688 24.1166 101.291 24.2121 100.917C24.4251 100.124 24.6527 99.2866 24.6674 99.2058V99.1985C24.807 98.6844 24.9832 98.1704 25.1668 97.671C25.4018 97.0248 25.6662 96.3932 25.9526 95.769C26.2169 95.1815 26.5107 94.6087 26.8191 94.0432C27.5021 92.7948 28.2879 91.5978 29.1838 90.4962C29.2205 90.4448 29.2425 90.3787 29.2278 90.32C29.2205 90.2539 29.1838 90.2025 29.125 90.1658C28.7358 89.9087 28.3613 89.637 27.9941 89.3506C27.3111 88.8219 26.6576 88.2491 26.0554 87.6395C25.7543 87.3311 25.3284 87.1695 24.8951 87.2063C21.4289 87.5441 18.0581 89.0422 15.3997 91.6932L15.3923 91.7006C15.2895 91.8107 15.2308 91.9576 15.2381 92.1045C15.2455 92.2587 15.3042 92.3982 15.4144 92.501C16.6922 93.6834 18.1169 94.616 19.6297 95.299C20.0556 95.4826 20.364 95.8645 20.4668 96.3198C20.5623 96.7751 20.4375 97.2451 20.129 97.5902C16.2883 102.004 14.8416 107.365 14.7975 107.556C14.7975 107.548 14.7902 107.548 14.7975 107.556ZM49.0631 87.7937C49.0705 87.7717 49.0705 87.7644 49.0705 87.7644C49.0705 87.7644 49.0631 87.7644 49.0411 87.757L49.0631 87.7497C44.444 79.7671 34.2142 77.0279 26.2243 81.6397C26.2243 81.6397 26.2169 81.6397 26.2169 81.6471C26.0774 81.7352 25.9819 81.8674 25.9379 82.029C25.9012 82.1905 25.9305 82.3521 26.0113 82.4916C27.715 85.2014 30.0871 87.265 32.7822 88.5869C33.2228 88.7925 33.5312 89.2037 33.5973 89.6884C33.6634 90.1731 33.4872 90.6504 33.12 90.9736C30.4836 93.441 28.9855 96.6502 28.2732 98.5229C28.1336 98.9194 28.1704 99.3527 28.3833 99.7199C28.5963 100.08 28.9488 100.337 29.36 100.41C31.3428 100.733 34.8678 101.034 38.3267 99.9989C38.782 99.8447 39.2887 99.9255 39.6632 100.227C40.0451 100.528 40.2434 100.99 40.2067 101.475C40.0157 104.471 40.6179 107.556 42.116 110.383C42.1895 110.522 42.3216 110.633 42.4759 110.677C42.6301 110.721 42.799 110.706 42.9385 110.625C42.9385 110.625 42.9459 110.625 42.9459 110.618C50.9358 106.006 53.6823 95.7763 49.0778 87.7791L49.0631 87.7937ZM52.8451 86.4939C53.0654 86.8684 53.5501 87.0006 53.9247 86.7803L62.8179 81.6471C63.1924 81.4268 63.3246 80.9421 63.1043 80.5676L62.3111 79.2016C62.0908 78.8271 61.6061 78.6949 61.2316 78.9152L52.3384 84.0485C51.9639 84.2688 51.8317 84.7535 52.052 85.128L52.8451 86.4939Z" fill="#313131"/>
<path fill-rule="evenodd" clip-rule="evenodd" d="M125.79 100.146C125.489 99.6318 125.533 98.9782 125.907 98.5082C126.282 98.0382 126.899 97.8473 127.472 98.0308C128.081 98.2365 128.676 98.4935 129.256 98.824C132.649 100.785 135.682 109.406 136.798 112.931C136.93 113.32 136.886 113.754 136.681 114.106C136.475 114.466 136.123 114.716 135.719 114.796C132.106 115.59 123.132 117.279 119.731 115.318C119.151 114.987 118.63 114.591 118.16 114.158C117.727 113.761 117.58 113.129 117.8 112.586C118.013 112.035 118.549 111.675 119.137 111.675C123.3 111.661 126.781 111.095 128.669 110.706C129.058 110.618 129.396 110.368 129.594 110.016C129.792 109.671 129.844 109.252 129.726 108.87C129.131 107.049 127.883 103.744 125.79 100.146ZM125.327 107.556C125.136 107.607 119.783 109.032 114.04 107.923C113.585 107.827 113.115 107.952 112.77 108.268C112.424 108.576 112.256 109.039 112.307 109.494C112.469 111.147 112.373 112.843 111.991 114.539C111.954 114.686 111.866 114.811 111.734 114.892C111.602 114.973 111.448 114.995 111.301 114.958H111.294C107.519 113.945 104.442 111.639 102.422 108.635C102.32 108.481 102.298 108.29 102.349 108.121C102.349 108.114 102.356 108.114 102.356 108.106C102.599 107.269 102.782 106.417 102.914 105.558C102.973 105.184 103.017 104.816 103.054 104.442C103.069 104.295 103.083 104.141 103.091 103.994V103.935L103.098 103.825C103.098 103.803 103.098 103.788 103.105 103.766C103.113 103.7 103.113 103.641 103.113 103.575C103.384 103.619 103.656 103.663 103.928 103.7C105.668 103.935 107.438 103.957 109.179 103.81C109.898 103.752 110.611 103.663 111.323 103.546C111.888 103.45 112.454 103.34 113.012 103.201C113.078 103.186 113.085 103.186 113.144 103.164C113.151 103.164 113.151 103.164 113.159 103.157C113.247 103.135 114.084 102.907 114.863 102.701C115.237 102.599 115.553 102.356 115.744 102.026C115.935 101.688 115.986 101.291 115.891 100.917C115.678 100.124 115.45 99.2866 115.435 99.2058V99.1985C115.296 98.6844 115.12 98.1704 114.936 97.671C114.701 97.0248 114.437 96.3932 114.15 95.769C113.886 95.1815 113.592 94.6087 113.284 94.0432C112.601 92.7948 111.815 91.5978 110.919 90.4962C110.875 90.4448 110.86 90.3787 110.875 90.32C110.882 90.2539 110.919 90.2025 110.978 90.1658C111.367 89.9087 111.741 89.637 112.109 89.3506C112.792 88.8219 113.445 88.2491 114.047 87.6395C114.348 87.3311 114.782 87.1695 115.208 87.2063C118.674 87.5441 122.045 89.0422 124.703 91.6932L124.71 91.7006C124.813 91.8107 124.872 91.9576 124.865 92.1045C124.857 92.2587 124.799 92.3982 124.688 92.501C123.411 93.6834 121.986 94.616 120.473 95.299C120.047 95.4826 119.739 95.8645 119.636 96.3198C119.54 96.7751 119.665 97.2451 119.974 97.5902C123.837 102.004 125.283 107.365 125.327 107.556C125.327 107.548 125.335 107.548 125.327 107.556ZM91.0617 87.7937C91.0543 87.7717 91.0543 87.7644 91.0543 87.7644C91.0543 87.7644 91.0617 87.7644 91.0837 87.757L91.0617 87.7497C95.6808 79.7671 105.911 77.0279 113.901 81.6397C113.901 81.6397 113.908 81.6397 113.908 81.6471C114.047 81.7352 114.143 81.8674 114.187 82.029C114.224 82.1905 114.194 82.3521 114.113 82.4916C112.41 85.2014 110.038 87.265 107.343 88.5869C106.902 88.7925 106.594 89.2037 106.527 89.6884C106.461 90.1658 106.638 90.6504 107.005 90.9736C109.641 93.441 111.139 96.6502 111.852 98.5229C111.991 98.9194 111.954 99.3527 111.741 99.7199C111.529 100.087 111.176 100.337 110.765 100.41C108.782 100.733 105.257 101.034 101.798 99.9989C101.343 99.8447 100.836 99.9255 100.462 100.227C100.08 100.528 99.8814 100.99 99.9182 101.475C100.109 104.471 99.5069 107.556 98.0088 110.383C97.9354 110.522 97.8032 110.633 97.649 110.677C97.4947 110.721 97.3258 110.706 97.1863 110.625C97.1863 110.625 97.179 110.625 97.179 110.618C89.189 106.006 86.4425 95.7763 91.047 87.7791L91.0617 87.7937ZM87.2797 86.4939C87.0594 86.8684 86.5747 87.0006 86.2001 86.7803L77.3069 81.6471C76.9324 81.4268 76.8002 80.9421 77.0205 80.5676L77.8137 79.2016C78.034 78.8271 78.5187 78.6949 78.8932 78.9152L87.7864 84.0485C88.1609 84.2688 88.2931 84.7535 88.0728 85.128L87.2797 86.4939Z" fill="#313131"/>
<path fill-rule="evenodd" clip-rule="evenodd" d="M20.9809 39.6265C21.5757 39.6265 22.1192 39.2667 22.3395 38.7086C22.5598 38.1504 22.4129 37.5189 21.9723 37.1076C21.4876 36.6817 20.9662 36.2925 20.3934 35.962C17.0006 34.0013 8.01929 35.6903 4.4062 36.4834C4.00229 36.5642 3.6498 36.8212 3.44417 37.1737C3.23855 37.5336 3.19449 37.9595 3.32667 38.3487C4.44291 41.8737 7.47586 50.4952 10.8686 52.4559C11.4414 52.7864 12.0436 53.0434 12.6605 53.2344C13.226 53.4106 13.8355 53.2197 14.2027 52.757C14.5699 52.2944 14.6139 51.6555 14.3202 51.1488C12.2493 47.543 11.0008 44.2384 10.3913 42.4098C10.2738 42.0279 10.3252 41.6093 10.5235 41.2642C10.7218 40.919 11.0596 40.6693 11.4488 40.5739C13.3288 40.192 16.817 39.6192 20.9809 39.6265ZM14.7975 43.739C14.8489 43.9226 16.2883 49.2835 20.1217 53.697C20.4301 54.0422 20.555 54.5122 20.4595 54.9675C20.364 55.4228 20.0482 55.7973 19.6223 55.9809C18.1095 56.6639 16.6848 57.5965 15.4144 58.7789C15.3042 58.8817 15.2381 59.0285 15.2381 59.1754C15.2308 59.3296 15.2895 59.4765 15.3923 59.5867C15.3923 59.5867 15.3923 59.5867 15.3997 59.594C18.1609 62.3552 21.7006 63.868 25.3137 64.1104C25.4973 64.1251 25.6735 64.0516 25.7983 63.9121C25.7983 63.9047 25.8057 63.9047 25.8057 63.8974C26.4079 63.2732 27.0541 62.6857 27.7297 62.1423C28.0235 61.9073 28.3246 61.6796 28.6257 61.4666C28.7505 61.3785 28.868 61.2977 28.9929 61.2096L29.0369 61.1802L29.1324 61.1215C29.1471 61.1142 29.1618 61.0995 29.1764 61.0921C29.2278 61.0554 29.2866 61.0187 29.338 60.9893C29.1618 60.7763 28.9929 60.5634 28.8239 60.3504C27.7518 58.9624 26.8485 57.4423 26.0994 55.8561C25.791 55.2025 25.5119 54.5415 25.2549 53.8659C25.0566 53.3298 24.8657 52.7864 24.7041 52.2356C24.6821 52.1695 24.6821 52.1622 24.6674 52.1034C24.6674 52.0961 24.6674 52.0888 24.6601 52.0888C24.638 52.0006 24.4104 51.1635 24.2048 50.385C24.102 50.0105 24.1607 49.6139 24.3516 49.2761C24.5426 48.9383 24.8657 48.696 25.2329 48.6005C26.026 48.3875 26.8632 48.1599 26.944 48.1452H26.9513C27.4654 48.013 27.9941 47.9029 28.5229 47.8074C29.1985 47.6899 29.8814 47.5944 30.5644 47.5357C31.2033 47.4696 31.8495 47.4329 32.4958 47.4182C33.9205 47.3888 35.3451 47.4696 36.7551 47.6972C36.8212 47.7046 36.88 47.6899 36.9314 47.6458C36.9828 47.6091 37.0122 47.5504 37.0122 47.4843C37.0415 47.0216 37.0856 46.5516 37.1517 46.089C37.2692 45.2298 37.4381 44.3852 37.6657 43.5481C37.7832 43.1295 37.7025 42.6815 37.4601 42.329C35.4333 39.4943 32.4444 37.328 28.8239 36.3512H28.8093C28.6624 36.3145 28.5082 36.3366 28.3833 36.4173C28.2585 36.4981 28.163 36.623 28.1263 36.7698C27.7371 38.4662 27.649 40.17 27.8105 41.8149C27.8619 42.2776 27.693 42.7329 27.3479 43.0487C27.0027 43.3645 26.5327 43.4893 26.0774 43.3938C20.342 42.2556 14.9811 43.6802 14.7975 43.739C14.7975 43.7316 14.7975 43.7316 14.7975 43.739ZM49.0411 63.5302C49.0631 63.5229 49.0705 63.5229 49.0705 63.5229C49.0705 63.5229 49.0705 63.5155 49.0631 63.4935L49.0852 63.5008C53.6897 55.5109 50.9431 45.2812 42.9532 40.662C42.9532 40.662 42.9459 40.662 42.9459 40.6546C42.8063 40.5739 42.6374 40.5592 42.4759 40.6032C42.3216 40.6473 42.1895 40.7575 42.1087 40.897C40.6179 43.7316 40.0157 46.8087 40.214 49.8049C40.2581 50.2896 40.0524 50.7596 39.6706 51.0606C39.2887 51.3617 38.782 51.4499 38.3193 51.2883C34.8678 50.2381 31.3355 50.5466 29.3527 50.8624C28.9414 50.9431 28.5816 51.1928 28.376 51.5527C28.163 51.9125 28.1263 52.3531 28.2658 52.7497C28.9782 54.6223 30.4836 57.8315 33.1053 60.3137C33.4652 60.6295 33.6487 61.1068 33.5753 61.5915C33.5092 62.0688 33.2008 62.4801 32.7675 62.6857C30.0724 64.0222 27.7077 66.0858 26.004 68.7956C25.9158 68.9352 25.8938 69.0967 25.9305 69.2583C25.9673 69.4125 26.0701 69.552 26.2023 69.6328C26.2023 69.6328 26.2096 69.6328 26.2096 69.6402C34.1995 74.252 44.4293 71.5128 49.0485 63.5302H49.0411ZM52.052 66.1593C51.8317 66.5338 51.9639 67.0185 52.3384 67.2388L61.2316 72.372C61.6061 72.5923 62.0908 72.4601 62.3111 72.0856L63.1043 70.7197C63.3246 70.3452 63.1924 69.8605 62.8179 69.6402L53.9247 64.5069C53.5501 64.2866 53.0654 64.4188 52.8451 64.7933L52.052 66.1593Z" fill="#313131"/>
<path fill-rule="evenodd" clip-rule="evenodd" d="M36.7698 22.4056C37.0342 22.479 37.3206 22.3836 37.4895 22.1632C37.6584 21.9429 37.6805 21.6418 37.5409 21.4068C36.5716 19.7251 35.0074 17.0153 34.3171 15.8256C34.1261 15.5025 34.2436 15.0839 34.5667 14.893C34.8385 14.7314 35.1616 14.5478 35.4406 14.3936C35.7638 14.2027 36.1823 14.3202 36.3733 14.6433C37.0636 15.833 38.6278 18.5502 39.5972 20.2245C39.7367 20.4595 40.0011 20.599 40.2801 20.5623C40.5518 20.5256 40.7795 20.3273 40.8529 20.063C41.1467 18.9687 41.5212 17.5808 41.7342 16.773C41.7782 16.5967 41.8957 16.4499 42.05 16.3617C42.2042 16.2736 42.3951 16.2442 42.564 16.2956C42.8724 16.3764 43.2323 16.4719 43.5334 16.5527C43.7096 16.5967 43.8565 16.7142 43.9446 16.8684C44.0327 17.0227 44.0621 17.2136 44.0107 17.3899C43.5774 19.0201 42.4612 23.1767 42.1601 24.2856C42.116 24.4618 42.1381 24.6454 42.2262 24.7996C42.4171 25.1301 42.7696 25.7323 43.1001 26.3124C43.2396 26.5474 43.504 26.6796 43.7831 26.6502C44.0548 26.6135 44.2824 26.4152 44.3559 26.1509C44.6496 25.0567 45.0241 23.6687 45.2371 22.8682C45.2812 22.692 45.3987 22.5451 45.5529 22.457C45.7071 22.3689 45.898 22.3395 46.0669 22.3909C46.3754 22.4717 46.7352 22.5671 47.0363 22.6479C47.2126 22.692 47.3594 22.8095 47.4476 22.9637C47.5357 23.1179 47.5651 23.3089 47.5137 23.4851C47.0804 25.1154 45.9641 29.2719 45.663 30.3808C45.619 30.5571 45.641 30.7407 45.7291 30.9022C45.9054 31.2033 46.2138 31.7321 46.5076 32.2535C46.6471 32.4885 46.9115 32.6207 47.1905 32.5913C47.4622 32.5546 47.6899 32.3563 47.7633 32.0919C48.0571 30.9977 48.4316 29.6097 48.6446 28.8019C48.6886 28.6257 48.8061 28.4788 48.9604 28.3907C49.1146 28.3026 49.3055 28.2732 49.4744 28.3246C49.7829 28.4054 50.1427 28.5008 50.4438 28.5816C50.62 28.6257 50.7669 28.7432 50.855 28.8974C50.9432 29.0516 50.9725 29.2426 50.9211 29.4188C50.4878 31.0491 49.3716 35.2056 49.0705 36.3145C49.0265 36.4908 49.0485 36.6744 49.1366 36.8286C49.7021 37.8053 51.8024 41.4478 52.6395 42.8871C52.7277 43.0413 52.757 43.2323 52.7056 43.4085C52.6616 43.5848 52.5441 43.7316 52.3899 43.8198C52.1181 43.974 51.795 44.1649 51.516 44.3191C51.3617 44.4073 51.1708 44.4366 51.0019 44.3852C50.8257 44.3412 50.6788 44.2237 50.5907 44.0695C49.7608 42.6301 47.6532 38.9876 47.0877 38.0109C46.9996 37.8567 46.8454 37.7392 46.6765 37.6951C45.5749 37.4014 41.4111 36.2852 39.7808 35.8519C39.6045 35.8078 39.4576 35.6903 39.3695 35.5361C39.2814 35.3819 39.252 35.1909 39.3034 35.0147C39.3842 34.7063 39.4797 34.3464 39.5604 34.0453C39.6045 33.8691 39.722 33.7222 39.8762 33.6341C40.0304 33.546 40.2214 33.5166 40.3903 33.568C41.1981 33.781 42.586 34.1555 43.6803 34.4492C43.9446 34.5227 44.231 34.4272 44.3999 34.2069C44.5688 33.9866 44.5909 33.6928 44.4513 33.4505C44.1502 32.9291 43.8418 32.4003 43.6729 32.0993C43.5848 31.945 43.4306 31.8275 43.2617 31.7835C42.1601 31.4897 37.9962 30.3735 36.3659 29.9402C36.1897 29.8961 36.0428 29.7786 35.9547 29.6244C35.8666 29.4702 35.8372 29.2793 35.8886 29.103C35.9694 28.7946 36.0649 28.4348 36.1456 28.1337C36.1897 27.9574 36.3072 27.8105 36.4614 27.7224C36.6156 27.6343 36.8066 27.6049 36.9755 27.6563C37.7833 27.8693 39.1712 28.2438 40.2654 28.5376C40.5298 28.611 40.8162 28.5155 40.9851 28.2952C41.154 28.0749 41.1761 27.7812 41.0365 27.5388C40.7061 26.9587 40.3536 26.3565 40.1626 26.026C40.0745 25.8718 39.9203 25.7543 39.7514 25.7102C38.6498 25.4165 34.486 24.3003 32.8557 23.867C32.6794 23.8229 32.5325 23.7054 32.4444 23.5512C32.3563 23.397 32.3269 23.206 32.3783 23.0298C32.4591 22.7287 32.5546 22.3615 32.6354 22.0604C32.6794 21.8842 32.7969 21.7373 32.9511 21.6492C33.1053 21.5611 33.2963 21.5317 33.4652 21.5831C34.2877 21.7447 35.683 22.1192 36.7698 22.4056Z" fill="#313131"/>
<path fill-rule="evenodd" clip-rule="evenodd" d="M99.1618 130.468C99.2352 130.204 99.4555 130.005 99.7346 129.969C100.006 129.932 100.278 130.064 100.418 130.306C101.387 131.988 102.958 134.698 103.641 135.888C103.832 136.211 104.244 136.328 104.574 136.137C104.846 135.983 105.169 135.792 105.448 135.638C105.771 135.447 105.889 135.036 105.698 134.705C105.015 133.516 103.443 130.798 102.474 129.124C102.334 128.882 102.356 128.588 102.525 128.368C102.694 128.147 102.973 128.052 103.245 128.125C104.339 128.419 105.727 128.794 106.535 129.007C106.711 129.051 106.895 129.029 107.049 128.94C107.203 128.852 107.321 128.698 107.365 128.529C107.445 128.228 107.541 127.861 107.622 127.56C107.666 127.384 107.644 127.2 107.556 127.046C107.467 126.892 107.313 126.774 107.144 126.73C105.514 126.297 101.358 125.18 100.249 124.879C100.072 124.835 99.9255 124.718 99.8374 124.564C99.6465 124.233 99.294 123.631 98.9635 123.051C98.824 122.808 98.846 122.515 99.0149 122.294C99.1838 122.074 99.4702 121.979 99.7346 122.052C100.829 122.346 102.217 122.72 103.017 122.933C103.193 122.977 103.377 122.955 103.539 122.867C103.7 122.779 103.81 122.625 103.854 122.456C103.935 122.148 104.031 121.788 104.111 121.487C104.155 121.31 104.133 121.127 104.045 120.973C103.957 120.818 103.803 120.701 103.634 120.657C102.004 120.223 97.8473 119.107 96.7384 118.806C96.5621 118.762 96.4152 118.645 96.3271 118.49C96.1509 118.189 95.8424 117.661 95.5487 117.139C95.4092 116.897 95.4312 116.603 95.6001 116.383C95.769 116.162 96.0554 116.067 96.3198 116.14C97.414 116.434 98.8019 116.809 99.6098 117.022C99.786 117.066 99.9696 117.044 100.131 116.956C100.285 116.867 100.403 116.713 100.447 116.544C100.528 116.243 100.623 115.876 100.704 115.575C100.748 115.399 100.726 115.215 100.638 115.061C100.55 114.907 100.396 114.789 100.227 114.745C98.5963 114.312 94.4398 113.196 93.3309 112.894C93.1546 112.85 93.0078 112.733 92.9197 112.579C92.3542 111.602 90.2539 107.96 89.4241 106.52C89.3359 106.366 89.1817 106.248 89.0128 106.204C88.8366 106.16 88.653 106.182 88.4914 106.27C88.2197 106.425 87.8966 106.616 87.6249 106.77C87.4706 106.858 87.3531 107.012 87.3091 107.181C87.265 107.357 87.2871 107.541 87.3752 107.695C88.205 109.134 90.3126 112.777 90.8781 113.754C90.9662 113.908 90.9956 114.099 90.9442 114.268C90.6505 115.369 89.5342 119.533 89.1009 121.163C89.0569 121.34 89.0789 121.523 89.167 121.678C89.2552 121.832 89.4094 121.949 89.5783 121.993C89.8867 122.074 90.2466 122.17 90.5476 122.25C90.7239 122.294 90.9075 122.272 91.069 122.184C91.2233 122.096 91.3408 121.942 91.3848 121.773C91.5978 120.965 91.9723 119.577 92.2661 118.483C92.3395 118.219 92.5598 118.02 92.8389 117.984C93.1106 117.947 93.3823 118.079 93.5218 118.321C93.8229 118.843 94.1314 119.372 94.3003 119.673C94.3884 119.827 94.4178 120.018 94.3664 120.187C94.0726 121.288 92.9564 125.452 92.5231 127.082C92.479 127.259 92.5011 127.442 92.5892 127.597C92.6773 127.751 92.8315 127.868 93.0004 127.912C93.3089 127.993 93.6687 128.089 93.9698 128.169C94.146 128.213 94.3296 128.191 94.4912 128.103C94.6528 128.015 94.7629 127.861 94.807 127.692C95.02 126.884 95.3945 125.496 95.6882 124.402C95.7617 124.138 95.982 123.939 96.261 123.903C96.5327 123.866 96.8045 123.998 96.944 124.24C97.2745 124.821 97.627 125.423 97.8179 125.753C97.906 125.907 97.9354 126.098 97.884 126.267C97.5902 127.369 96.474 131.533 96.0407 133.163C95.9967 133.339 96.0187 133.523 96.1068 133.677C96.1949 133.831 96.3491 133.949 96.5181 133.993C96.8265 134.074 97.1863 134.169 97.4874 134.25C97.6637 134.294 97.8473 134.272 98.0088 134.184C98.1631 134.096 98.2805 133.941 98.3246 133.773C98.4935 132.95 98.868 131.562 99.1618 130.468Z" fill="#313131"/>
<path fill-rule="evenodd" clip-rule="evenodd" d="M40.8382 130.468C40.7648 130.204 40.5445 130.005 40.2654 129.969C39.9937 129.932 39.722 130.064 39.5824 130.306C38.6131 131.988 37.0489 134.698 36.3586 135.888C36.1676 136.211 35.7564 136.328 35.4259 136.137C35.1542 135.983 34.8311 135.792 34.552 135.638C34.2289 135.447 34.1114 135.036 34.3023 134.705C34.9926 133.516 36.5568 130.798 37.5262 129.124C37.6657 128.882 37.6437 128.588 37.4748 128.368C37.3059 128.147 37.0268 128.052 36.7551 128.125C35.6609 128.419 34.273 128.794 33.4652 129.007C33.2889 129.051 33.1053 129.029 32.9511 128.94C32.7969 128.852 32.6794 128.698 32.6353 128.529C32.5545 128.228 32.4591 127.861 32.3783 127.56C32.3342 127.384 32.3563 127.2 32.4444 127.046C32.5325 126.892 32.6867 126.774 32.8556 126.73C34.4859 126.297 38.6425 125.18 39.7514 124.879C39.9276 124.835 40.0745 124.718 40.1626 124.564C40.3535 124.233 40.706 123.631 41.0365 123.051C41.176 122.808 41.154 122.515 40.9851 122.294C40.8162 122.074 40.5371 121.979 40.2654 122.052C39.1712 122.346 37.7832 122.72 36.9754 122.933C36.7992 122.977 36.6156 122.955 36.4614 122.867C36.3072 122.779 36.1897 122.625 36.1456 122.456C36.0648 122.148 35.9694 121.788 35.8886 121.487C35.8445 121.31 35.8665 121.127 35.9547 120.973C36.0428 120.818 36.197 120.701 36.3659 120.657C37.9962 120.223 42.1527 119.107 43.2616 118.806C43.4379 118.762 43.5848 118.645 43.6729 118.49C43.8491 118.189 44.1576 117.661 44.4513 117.139C44.5908 116.897 44.5688 116.603 44.3999 116.383C44.231 116.162 43.9519 116.067 43.6802 116.14C42.586 116.434 41.1981 116.809 40.3903 117.022C40.214 117.066 40.0304 117.044 39.8762 116.956C39.722 116.867 39.6045 116.713 39.5604 116.544C39.4796 116.243 39.3842 115.876 39.3034 115.575C39.2593 115.399 39.2814 115.215 39.3695 115.061C39.4576 114.907 39.6118 114.789 39.7807 114.745C41.411 114.312 45.5675 113.196 46.6764 112.894C46.8527 112.85 46.9996 112.733 47.0877 112.579C47.6532 111.602 49.7534 107.96 50.5906 106.52C50.6788 106.366 50.833 106.248 51.0019 106.204C51.1781 106.16 51.3617 106.182 51.5159 106.27C51.7876 106.425 52.1108 106.616 52.3898 106.77C52.544 106.858 52.6615 107.012 52.7056 107.181C52.7497 107.357 52.7276 107.541 52.6395 107.695C51.8097 109.134 49.702 112.777 49.1366 113.754C49.0485 113.908 49.0191 114.099 49.0705 114.268C49.3642 115.369 50.4805 119.533 50.9211 121.163C50.9652 121.34 50.9431 121.523 50.855 121.678C50.7669 121.832 50.6127 121.949 50.4438 121.993C50.1353 122.074 49.7755 122.17 49.4744 122.25C49.2981 122.294 49.1145 122.272 48.9603 122.184C48.8061 122.096 48.6886 121.942 48.6446 121.773C48.4316 120.965 48.0571 119.577 47.7633 118.483C47.6899 118.219 47.4696 118.02 47.1905 117.984C46.9188 117.947 46.6471 118.079 46.5075 118.321C46.2065 118.843 45.898 119.372 45.7291 119.673C45.641 119.827 45.6116 120.018 45.663 120.187C45.9568 121.288 47.073 125.452 47.5136 127.082C47.5577 127.259 47.5357 127.442 47.4475 127.597C47.3594 127.751 47.2052 127.868 47.0363 127.912C46.7279 127.993 46.368 128.089 46.0669 128.169C45.8907 128.213 45.7071 128.191 45.5529 128.103C45.3986 128.015 45.2811 127.861 45.2371 127.692C45.0241 126.884 44.6496 125.496 44.3558 124.402C44.2824 124.138 44.0621 123.939 43.783 123.903C43.5113 123.866 43.2396 123.998 43.1001 124.24C42.7696 124.821 42.4171 125.423 42.2262 125.753C42.138 125.907 42.1087 126.098 42.1601 126.267C42.4538 127.369 43.5701 131.533 44.0107 133.163C44.0547 133.339 44.0327 133.523 43.9446 133.677C43.8565 133.831 43.7023 133.949 43.5333 133.993C43.2249 134.074 42.8651 134.169 42.564 134.25C42.3877 134.294 42.2041 134.272 42.0499 134.184C41.8957 134.096 41.7782 133.941 41.7341 133.773C41.5065 132.95 41.132 131.562 40.8382 130.468Z" fill="#313131"/>
<path fill-rule="evenodd" clip-rule="evenodd" d="M103.23 22.4056C102.966 22.479 102.679 22.3836 102.511 22.1632C102.342 21.9429 102.32 21.6418 102.459 21.4068C103.428 19.7251 105 17.0153 105.683 15.8256C105.874 15.5025 105.756 15.0839 105.433 14.893C105.162 14.7314 104.838 14.5478 104.559 14.3936C104.236 14.2027 103.818 14.3202 103.627 14.6433C102.944 15.833 101.372 18.5502 100.403 20.2245C100.263 20.4595 99.999 20.599 99.7199 20.5623C99.4482 20.5256 99.2205 20.3273 99.1471 20.063C98.8533 18.9687 98.4862 17.5808 98.2659 16.773C98.2218 16.5967 98.1043 16.4499 97.9501 16.3617C97.7959 16.2736 97.6049 16.2442 97.4287 16.2956C97.1276 16.3764 96.7604 16.4719 96.4593 16.5527C96.2831 16.5967 96.1362 16.7142 96.0481 16.8684C95.9599 17.0227 95.9306 17.2136 95.982 17.3899C96.4152 19.0201 97.5315 23.1767 97.8252 24.2856C97.8693 24.4618 97.8473 24.6454 97.7591 24.7996C97.5682 25.1301 97.2157 25.7323 96.8852 26.3124C96.7457 26.5474 96.4813 26.6796 96.2023 26.6502C95.9306 26.6135 95.7029 26.4152 95.6295 26.1509C95.3357 25.0567 94.9685 23.6687 94.7482 22.8682C94.7042 22.692 94.5867 22.5451 94.4325 22.457C94.2782 22.3689 94.0873 22.3395 93.9111 22.3909C93.61 22.4717 93.2428 22.5671 92.9417 22.6479C92.7654 22.692 92.6186 22.8095 92.5304 22.9637C92.4423 23.1179 92.4129 23.3089 92.4644 23.4851C92.8976 25.1154 94.0139 29.2719 94.3076 30.3808C94.3517 30.5571 94.3296 30.7407 94.2415 30.9022C94.0653 31.2033 93.7568 31.7321 93.4631 32.2535C93.3236 32.4885 93.0592 32.6207 92.7801 32.5913C92.5084 32.5546 92.2808 32.3563 92.2073 32.0919C91.9136 30.9977 91.5464 29.6097 91.3261 28.8019C91.282 28.6257 91.1645 28.4788 91.0103 28.3907C90.8561 28.3026 90.6651 28.2732 90.4889 28.3246C90.1805 28.4054 89.8206 28.5008 89.5195 28.5816C89.3433 28.6257 89.1964 28.7432 89.1083 28.8974C89.0202 29.0516 88.9908 29.2426 89.0422 29.4188C89.4755 31.0491 90.5917 35.2056 90.8855 36.3145C90.9295 36.4908 90.9075 36.6744 90.8194 36.8286C90.2539 37.8053 88.1536 41.4478 87.3164 42.8871C87.2283 43.0413 87.1989 43.2323 87.2503 43.4085C87.2944 43.5848 87.4119 43.7316 87.5661 43.8198C87.8378 43.974 88.1609 44.1649 88.4327 44.3191C88.5869 44.4073 88.7778 44.4366 88.9541 44.3852C89.1303 44.3412 89.2772 44.2237 89.3653 44.0695C90.1952 42.6301 92.3028 38.9876 92.8609 38.0109C92.949 37.8567 93.1033 37.7392 93.2722 37.6951C94.3737 37.4014 98.5376 36.2852 100.168 35.8519C100.344 35.8078 100.491 35.6903 100.579 35.5361C100.667 35.3819 100.697 35.1909 100.645 35.0147C100.564 34.7063 100.469 34.3464 100.388 34.0453C100.344 33.8691 100.227 33.7222 100.072 33.6341C99.9182 33.546 99.7272 33.5166 99.551 33.568C98.7432 33.781 97.3552 34.1555 96.261 34.4492C95.9967 34.5227 95.7103 34.4272 95.5414 34.2069C95.3725 33.9866 95.3578 33.6928 95.4899 33.4505C95.791 32.9291 96.0995 32.4003 96.2684 32.0993C96.3565 31.945 96.5107 31.8275 96.6796 31.7835C97.7812 31.4897 101.945 30.3735 103.575 29.9402C103.752 29.8961 103.898 29.7786 103.987 29.6244C104.075 29.4702 104.104 29.2793 104.053 29.103C103.972 28.7946 103.876 28.4348 103.796 28.1337C103.752 27.9574 103.634 27.8105 103.48 27.7224C103.326 27.6343 103.135 27.6049 102.958 27.6563C102.151 27.8693 100.763 28.2438 99.6758 28.5376C99.4115 28.611 99.1251 28.5155 98.9562 28.2952C98.7873 28.0749 98.7726 27.7812 98.9048 27.5388C99.2352 26.9587 99.5877 26.3565 99.7787 26.026C99.8668 25.8718 100.021 25.7543 100.19 25.7102C101.299 25.4165 105.455 24.3003 107.086 23.867C107.262 23.8229 107.409 23.7054 107.497 23.5512C107.585 23.397 107.614 23.206 107.563 23.0298C107.482 22.7287 107.387 22.3615 107.306 22.0604C107.262 21.8842 107.144 21.7373 106.99 21.6492C106.836 21.5611 106.645 21.5317 106.476 21.5831C105.712 21.7447 104.324 22.1192 103.23 22.4056Z" fill="#313131"/>
<path fill-rule="evenodd" clip-rule="evenodd" d="M7.6154 77.6154C7.81368 77.4171 7.87243 77.1234 7.76227 76.8737C7.65946 76.6167 7.40978 76.4551 7.13072 76.4551C5.19199 76.4551 2.05623 76.4551 0.682963 76.4551C0.308435 76.4551 0 76.1467 0 75.7721C0 75.4564 0 75.0818 0 74.7661C0 74.3915 0.308435 74.0831 0.682963 74.0831C2.05623 74.0831 5.19199 74.0831 7.13072 74.0831C7.40978 74.0831 7.65212 73.9142 7.76227 73.6645C7.86509 73.4075 7.80634 73.1137 7.6154 72.9228C6.81494 72.1223 5.80151 71.1089 5.20667 70.5141C5.08183 70.3892 5.00839 70.213 5.00839 70.0294C5.00839 69.8458 5.08183 69.6769 5.20667 69.5447C5.42698 69.3244 5.69136 69.06 5.91901 68.8324C6.04385 68.7002 6.2201 68.6341 6.40369 68.6341C6.58729 68.6341 6.75619 68.7075 6.88838 68.8324C8.07805 70.022 11.1257 73.0697 11.9335 73.8775C12.0583 74.0023 12.2346 74.0758 12.4182 74.0758C12.8 74.0758 13.4977 74.0758 14.166 74.0758C14.445 74.0758 14.6874 73.9068 14.7975 73.6572C14.9003 73.4001 14.8416 73.1064 14.6507 72.9154C13.8502 72.115 12.8368 71.1016 12.2419 70.5067C12.1171 70.3819 12.0436 70.2056 12.0436 70.022C12.0436 69.8384 12.1171 69.6695 12.2419 69.5374C12.4622 69.317 12.7266 69.0527 12.9543 68.825C13.0791 68.6928 13.2554 68.6267 13.4389 68.6267C13.6225 68.6267 13.7914 68.7002 13.9236 68.825C15.1133 70.0147 18.1609 73.0623 18.9687 73.8701C19.0936 73.995 19.2698 74.0684 19.4534 74.0684C19.7986 74.0684 20.4154 74.0684 21.0176 74.0684C21.2967 74.0684 21.539 73.8995 21.6492 73.6498C21.752 73.3928 21.6932 73.099 21.5023 72.9081C20.7018 72.1076 19.6884 71.0942 19.0936 70.4994C18.9687 70.3745 18.8953 70.1983 18.8953 70.0147C18.8953 69.8311 18.9687 69.6622 19.0936 69.53C19.3139 69.3097 19.5783 69.0453 19.8059 68.8177C19.9308 68.6855 20.107 68.6194 20.2906 68.6194C20.4742 68.6194 20.6431 68.6928 20.7753 68.8177C21.965 70.0073 25.0126 73.055 25.8204 73.8628C25.9452 73.9876 26.1215 74.0611 26.3051 74.0611C27.436 74.0611 31.6439 74.0611 33.3036 74.0611C33.4872 74.0611 33.6561 74.1345 33.7883 74.2593C33.9131 74.3842 33.9866 74.5604 33.9866 74.744C33.9866 75.0598 33.9866 75.4343 33.9866 75.7501C33.9866 75.9337 33.9131 76.1026 33.7883 76.2348C33.6635 76.3596 33.4872 76.4331 33.3036 76.4331C31.6439 76.4331 27.436 76.4331 26.3051 76.4331C26.1215 76.4331 25.9526 76.5065 25.8204 76.6313C25.0126 77.4392 21.965 80.4868 20.7753 81.6765C20.6504 81.8013 20.4742 81.8747 20.2906 81.8747C20.107 81.8747 19.9381 81.8013 19.8059 81.6765C19.5856 81.4562 19.3212 81.1918 19.0936 80.9641C18.9687 80.8393 18.8953 80.663 18.8953 80.4794C18.8953 80.2958 18.9687 80.1269 19.0936 79.9948C19.6811 79.4073 20.7018 78.3865 21.5023 77.586C21.7006 77.3878 21.7593 77.094 21.6492 76.8443C21.5464 76.5873 21.2967 76.4257 21.0176 76.4257C20.4154 76.4257 19.7986 76.4257 19.4534 76.4257C19.2698 76.4257 19.1009 76.4992 18.9687 76.624C18.1609 77.4318 15.1133 80.4794 13.9236 81.6691C13.7988 81.794 13.6225 81.8674 13.4389 81.8674C13.2554 81.8674 13.0864 81.794 12.9543 81.6691C12.7339 81.4488 12.4696 81.1844 12.2419 80.9568C12.1171 80.8319 12.0436 80.6557 12.0436 80.4721C12.0436 80.2885 12.1171 80.1196 12.2419 79.9874C12.8294 79.3999 13.8502 78.3791 14.6507 77.5787C14.8489 77.3804 14.9077 77.0867 14.7975 76.837C14.6947 76.5799 14.445 76.4184 14.166 76.4184C13.4977 76.4184 12.8 76.4184 12.4182 76.4184C12.2346 76.4184 12.0657 76.4918 11.9335 76.6167C11.1257 77.4245 8.07805 80.4721 6.88838 81.6618C6.76353 81.7866 6.58729 81.8601 6.40369 81.8601C6.2201 81.8601 6.0512 81.7866 5.91901 81.6618C5.6987 81.4415 5.43433 81.1771 5.20667 80.9494C5.08183 80.8246 5.00839 80.6483 5.00839 80.4648C5.00839 80.2812 5.08183 80.1123 5.20667 79.9801C5.79417 79.4293 6.81494 78.4085 7.6154 77.6154Z" fill="#313131"/>
<path fill-rule="evenodd" clip-rule="evenodd" d="M132.392 77.6154C132.194 77.4171 132.135 77.1234 132.245 76.8737C132.348 76.6167 132.598 76.4551 132.877 76.4551C134.815 76.4551 137.951 76.4551 139.324 76.4551C139.699 76.4551 140.007 76.1467 140.007 75.7721C140.007 75.4564 140.007 75.0818 140.007 74.7661C140.007 74.3915 139.706 74.0831 139.324 74.0831C137.951 74.0831 134.815 74.0831 132.877 74.0831C132.598 74.0831 132.355 73.9142 132.245 73.6645C132.142 73.4075 132.201 73.1137 132.392 72.9228C133.192 72.1223 134.206 71.1089 134.801 70.5141C134.925 70.3892 134.999 70.213 134.999 70.0294C134.999 69.8458 134.925 69.6769 134.801 69.5447C134.58 69.3244 134.316 69.06 134.088 68.8324C133.963 68.7002 133.787 68.6341 133.604 68.6341C133.42 68.6341 133.251 68.7075 133.119 68.8324C131.929 70.022 128.882 73.0697 128.074 73.8775C127.949 74.0023 127.773 74.0758 127.589 74.0758C127.215 74.0758 126.51 74.0758 125.841 74.0758C125.562 74.0758 125.32 73.9068 125.21 73.6572C125.107 73.4001 125.158 73.1064 125.357 72.9154C126.157 72.115 127.171 71.1016 127.765 70.5067C127.89 70.3819 127.964 70.2056 127.964 70.022C127.964 69.8384 127.89 69.6695 127.765 69.5374C127.545 69.317 127.281 69.0527 127.053 68.825C126.921 68.6928 126.752 68.6267 126.568 68.6267C126.385 68.6267 126.216 68.7002 126.084 68.825C124.894 70.0147 121.846 73.0623 121.039 73.8701C120.914 73.995 120.738 74.0684 120.554 74.0684C120.209 74.0684 119.592 74.0684 118.99 74.0684C118.711 74.0684 118.468 73.8995 118.358 73.6498C118.255 73.3928 118.314 73.099 118.505 72.9081C119.305 72.1076 120.319 71.0942 120.914 70.4994C121.039 70.3745 121.112 70.1983 121.112 70.0147C121.112 69.8311 121.039 69.6622 120.914 69.53C120.693 69.3097 120.429 69.0453 120.201 68.8177C120.077 68.6855 119.9 68.6194 119.717 68.6194C119.533 68.6194 119.364 68.6928 119.232 68.8177C118.042 70.0073 114.995 73.055 114.187 73.8628C114.062 73.9876 113.886 74.0611 113.702 74.0611C112.571 74.0611 108.363 74.0611 106.704 74.0611C106.52 74.0611 106.351 74.1345 106.219 74.2593C106.094 74.3842 106.021 74.5604 106.021 74.744C106.021 75.0598 106.021 75.4343 106.021 75.7501C106.021 75.9337 106.094 76.1026 106.219 76.2348C106.344 76.3596 106.52 76.4331 106.704 76.4331C108.363 76.4331 112.571 76.4331 113.702 76.4331C113.886 76.4331 114.055 76.5065 114.187 76.6313C114.995 77.4392 118.042 80.4868 119.232 81.6765C119.364 81.8013 119.533 81.8747 119.717 81.8747C119.9 81.8747 120.069 81.8013 120.201 81.6765C120.422 81.4562 120.686 81.1918 120.914 80.9641C121.039 80.8393 121.112 80.663 121.112 80.4794C121.112 80.2958 121.039 80.1269 120.914 79.9948C120.326 79.4073 119.305 78.3865 118.505 77.586C118.314 77.3878 118.248 77.094 118.358 76.8443C118.468 76.5946 118.711 76.4257 118.99 76.4257C119.592 76.4257 120.209 76.4257 120.554 76.4257C120.738 76.4257 120.906 76.4992 121.039 76.624C121.846 77.4318 124.894 80.4794 126.084 81.6691C126.209 81.794 126.385 81.8674 126.568 81.8674C126.752 81.8674 126.921 81.794 127.053 81.6691C127.273 81.4488 127.538 81.1844 127.765 80.9568C127.89 80.8319 127.964 80.6557 127.964 80.4721C127.964 80.2885 127.89 80.1196 127.765 79.9874C127.178 79.3999 126.157 78.3791 125.357 77.5787C125.158 77.3804 125.1 77.0867 125.21 76.837C125.313 76.5799 125.562 76.4184 125.841 76.4184C126.51 76.4184 127.207 76.4184 127.589 76.4184C127.773 76.4184 127.942 76.4918 128.074 76.6167C128.882 77.4245 131.929 80.4721 133.119 81.6618C133.244 81.7866 133.42 81.8601 133.604 81.8601C133.787 81.8601 133.956 81.7866 134.088 81.6618C134.309 81.4415 134.573 81.1771 134.801 80.9494C134.925 80.8246 134.999 80.6483 134.999 80.4648C134.999 80.2812 134.925 80.1123 134.801 79.9801C134.206 79.4293 133.192 78.4085 132.392 77.6154Z" fill="#313131"/>
<path fill-rule="evenodd" clip-rule="evenodd" d="M65.3442 28.6844C65.939 28.5082 66.3429 27.9574 66.3429 27.3405C66.3429 25.7984 66.3429 23.0445 66.3429 22.0898C66.3429 21.8695 66.2915 21.6492 66.1887 21.4509C65.1238 19.3653 58.7862 6.99119 56.2527 2.04154C56.0324 1.60827 56.047 1.08687 56.3041 0.668275C56.5611 0.257029 57.0164 0 57.5011 0C59.102 0 61.1436 0 62.3039 0C62.8546 0 63.354 0.323122 63.5817 0.822493C64.551 2.96685 67.1874 8.79039 68.781 12.308C69.0087 12.8074 69.508 13.1305 70.0588 13.1305C70.6096 13.1305 71.1089 12.8074 71.3366 12.308C72.9302 8.78305 75.5666 2.96685 76.5359 0.822493C76.7636 0.323122 77.2629 0 77.8137 0C78.974 0 81.0156 0 82.6165 0C83.1085 0 83.5565 0.257029 83.8135 0.668275C84.0705 1.08687 84.0852 1.60092 83.8649 2.04154C81.3313 6.99119 75.0011 19.3653 73.9289 21.4509C73.8261 21.6492 73.7747 21.8695 73.7747 22.0898C73.7747 23.0151 73.7747 25.5927 73.7747 27.0982C73.7747 27.7444 74.2153 28.3026 74.8395 28.4568C75.662 28.6624 76.4405 28.9341 77.1822 29.2793C79.0842 30.1605 80.5603 31.4016 81.6031 32.9952C82.3668 34.1702 82.8588 35.47 83.0571 36.8873C83.1085 37.2839 82.991 37.6878 82.7267 37.9889C82.4623 38.29 82.0804 38.4662 81.6838 38.4662C80.3326 38.4809 78.3498 38.4809 77.0794 38.4809C76.4111 38.4809 75.8383 38.0109 75.7061 37.3573C75.5592 36.432 75.1333 35.6683 74.4797 35.0588C73.5691 34.2069 72.2325 33.781 70.47 33.781C69.3465 33.781 68.3918 33.9425 67.606 34.273C66.8202 34.6034 66.2254 35.0514 65.8288 35.6169C65.4323 36.1823 65.234 36.8212 65.234 37.5262C65.234 38.569 65.7701 39.4576 66.8496 40.1846C67.9291 40.9117 69.5961 41.624 71.858 42.329C75.6767 43.4966 78.5187 44.958 80.384 46.7132C82.2493 48.4683 83.182 50.7155 83.182 53.462C83.182 55.4448 82.6752 57.1486 81.6618 58.5732C80.6484 59.9979 79.209 61.0848 77.3437 61.8338C75.4784 62.5829 73.29 62.9574 70.7858 62.9574C68.3844 62.9574 66.1299 62.5462 64.0149 61.7163C61.9 60.8865 60.1815 59.6234 58.8597 57.9123C57.8242 56.5757 57.1927 55.0115 56.965 53.205C56.9136 52.8084 57.0384 52.4119 57.3028 52.1181C57.5672 51.8244 57.9417 51.6481 58.3383 51.6481C59.6895 51.6335 61.6723 51.6334 62.9575 51.6334C63.6478 51.6334 64.2353 52.1402 64.3454 52.8231C64.507 54.1744 65.0431 55.1804 65.9316 55.8561C67.0626 56.7226 68.6782 57.1559 70.7858 57.1559C72.4528 57.1559 73.7159 56.8181 74.5605 56.1498C75.4123 55.4815 75.8383 54.6003 75.8383 53.5061C75.8383 52.6983 75.6694 52.0153 75.3242 51.4719C74.9791 50.9285 74.3475 50.4071 73.4295 49.9077C72.5116 49.4083 71.153 48.8722 69.3611 48.2921C67.0552 47.543 65.0651 46.7132 63.4054 45.8026C61.7457 44.8919 60.4165 43.7463 59.4178 42.3731C58.4191 40.9998 57.9197 39.3695 57.9197 37.4822C57.9197 35.5948 58.4631 33.9278 59.5426 32.4885C60.6295 31.0491 62.1276 29.9329 64.0443 29.1471C64.4629 28.9708 64.8962 28.8166 65.3442 28.6844Z" fill="#313131"/>
</svg>
