<svg width="96" height="221" viewBox="0 0 96 221" fill="none" xmlns="http://www.w3.org/2000/svg">
<path fill-rule="evenodd" clip-rule="evenodd" d="M44.5663 8.39912C44.3056 8.82559 43.7903 9.02105 43.3105 8.88482C42.8308 8.74859 42.4991 8.31027 42.4991 7.81272C42.4931 7.81272 42.4931 7.81272 42.4931 7.8068C42.4931 5.7159 45.4784 2.11459 47.0066 0.408702C47.2317 0.14808 47.5516 0 47.8951 0C48.2327 0 48.5585 0.14808 48.7777 0.408702C50.3059 2.12051 53.2912 5.7159 53.2912 7.8068V7.81272C53.2912 8.31619 52.9595 8.75451 52.4738 8.89074C51.994 9.02698 51.4787 8.82559 51.2121 8.39912C50.3118 6.93016 49.3996 5.77513 48.7599 5.02881C48.5407 4.78003 48.2209 4.6438 47.8892 4.6438C47.5575 4.6438 47.2436 4.78596 47.0185 5.02881C46.3847 5.78106 45.4725 6.93608 44.5663 8.39912ZM47.8951 7.26778C47.984 7.35663 50.0156 9.40014 51.1351 12.3084C51.2536 12.6461 51.526 12.9067 51.8637 13.0192C52.2013 13.1318 52.5745 13.0785 52.8706 12.883C53.5518 12.4387 54.2981 12.0834 55.1096 11.8346C55.1925 11.8109 55.2814 11.8168 55.3584 11.8583C55.4354 11.8997 55.4887 11.9708 55.5124 12.0478C55.5124 12.0478 55.5124 12.0478 55.5124 12.0537C56.0869 14.192 55.8204 16.3599 54.9201 18.202C54.8727 18.2968 54.7897 18.362 54.689 18.3797C54.6831 18.3797 54.6831 18.3797 54.6772 18.3857C54.1974 18.5041 53.7295 18.6522 53.2675 18.8299C53.072 18.9069 52.8765 18.9898 52.6811 19.0787C52.6041 19.1142 52.5271 19.1497 52.4501 19.1853L52.4205 19.1971L52.3612 19.2268C52.3494 19.2327 52.3435 19.2327 52.3316 19.2386C52.302 19.2564 52.2665 19.2741 52.2368 19.286C52.1835 19.1379 52.1243 18.9957 52.071 18.8536C51.6919 17.9355 51.2003 17.0589 50.6376 16.2415C50.4066 15.9038 50.1578 15.5781 49.9031 15.2641C49.6958 15.0153 49.4825 14.7666 49.2575 14.5356C49.2338 14.506 49.2278 14.5059 49.2041 14.4823C49.1982 14.4763 49.1982 14.4763 49.1923 14.4704C49.1686 14.4467 48.9672 14.2453 48.7303 14.0084C48.2742 13.5523 47.5279 13.5523 47.0718 14.0084C46.8408 14.2453 46.6394 14.4408 46.6098 14.4704L46.6039 14.4763C46.3906 14.6896 46.1892 14.9206 45.9938 15.1516C45.745 15.4537 45.5081 15.7557 45.283 16.0756C45.0697 16.3718 44.8684 16.6798 44.6788 16.9878C44.2583 17.6749 43.8969 18.4034 43.6067 19.1557C43.5949 19.1912 43.5652 19.2149 43.5297 19.2268C43.4942 19.2386 43.4586 19.2386 43.4231 19.2208C43.1862 19.1024 42.9433 18.9957 42.7005 18.8951C42.2918 18.7292 41.8771 18.5811 41.4507 18.4686C41.113 18.3738 40.8346 18.1369 40.6866 17.817C39.9343 16.0519 39.7448 14.038 40.2779 12.0478V12.0419C40.3016 11.959 40.3608 11.8879 40.4319 11.8464C40.5089 11.805 40.5977 11.799 40.6806 11.8227C41.4921 12.0715 42.2384 12.4328 42.9196 12.8771C43.2158 13.0725 43.5889 13.1258 43.9266 13.0133C44.2642 12.9008 44.5367 12.6401 44.6551 12.3025C45.7805 9.38829 47.8181 7.33886 47.8951 7.26778ZM47.907 29.6871C47.901 29.6931 47.8951 29.699 47.8951 29.699C47.8951 29.699 47.8892 29.6931 47.8833 29.6871V29.699C42.6531 29.6931 38.412 25.4461 38.412 20.2159V20.21C38.412 20.1212 38.4535 20.0323 38.5187 19.9672C38.5838 19.902 38.6727 19.8724 38.7674 19.8724C40.4319 19.9375 41.9837 20.4292 43.3224 21.2406C43.6363 21.442 44.0273 21.4776 44.3708 21.3354C44.7144 21.1992 44.975 20.903 45.0579 20.5417C45.5021 18.978 46.3432 17.663 46.9889 16.8042C47.208 16.5258 47.5397 16.3658 47.8951 16.3658C48.2505 16.3658 48.5822 16.5258 48.8014 16.8042C49.4529 17.663 50.2881 18.978 50.7442 20.5417C50.833 20.8971 51.0877 21.1933 51.4313 21.3295C51.7748 21.4657 52.1598 21.4302 52.4738 21.2347C53.8183 20.4292 55.3702 19.9435 57.0346 19.8783C57.1235 19.8724 57.2123 19.9079 57.2834 19.9731C57.3486 20.0382 57.39 20.1212 57.39 20.2159C57.39 20.2219 57.39 20.2219 57.39 20.2278C57.3841 25.458 53.1431 29.699 47.9188 29.7049L47.907 29.6871ZM48.3394 31.9143C48.5881 31.9143 48.7895 32.1157 48.7895 32.3644V38.187C48.7895 38.4357 48.5881 38.6371 48.3394 38.6371H47.445C47.1962 38.6371 46.9948 38.4357 46.9948 38.187V32.3644C46.9948 32.1157 47.1962 31.9143 47.445 31.9143H48.3394Z" fill="#27235E"/>
<path fill-rule="evenodd" clip-rule="evenodd" d="M44.5663 78.4885C44.3056 78.062 43.7903 77.8666 43.3105 78.0028C42.8308 78.139 42.4991 78.5774 42.4991 79.0749C42.4931 79.0749 42.4931 79.0808 42.4931 79.0808C42.4931 81.1717 45.4784 84.773 47.0066 86.4789C47.2258 86.7395 47.5516 86.8876 47.8892 86.8876C48.2268 86.8876 48.5526 86.7395 48.7718 86.4789C50.2999 84.7671 53.2852 81.1717 53.2852 79.0808V79.0749C53.2852 78.5714 52.9535 78.1331 52.4678 77.9969C51.9881 77.8606 51.4727 78.062 51.2062 78.4885C50.3059 79.9515 49.3937 81.1125 48.754 81.8588C48.5348 82.1076 48.215 82.2438 47.8833 82.2438C47.5516 82.2438 47.2376 82.1017 47.0126 81.8588C46.3847 81.1125 45.4725 79.9515 44.5663 78.4885ZM47.8951 79.6258C47.8951 79.6198 47.8951 79.6198 47.8951 79.6258C47.984 79.5369 50.0156 77.4934 51.1351 74.5851C51.2536 74.2475 51.526 73.9869 51.8637 73.8743C52.2013 73.7618 52.5745 73.8151 52.8706 74.0106C53.5518 74.4489 54.2981 74.8102 55.1096 75.059C55.1925 75.0827 55.2814 75.0767 55.3584 75.0353C55.4354 74.9938 55.4887 74.9227 55.5124 74.8457C55.5124 74.8457 55.5124 74.8457 55.5124 74.8398C56.0869 72.7015 55.8204 70.5336 54.9201 68.6915C54.8727 68.6027 54.7897 68.5316 54.689 68.5138C54.6831 68.5138 54.6831 68.5138 54.6772 68.5079C54.1974 68.3894 53.7295 68.2413 53.2675 68.0577C53.072 67.9807 52.8765 67.8978 52.6811 67.809C52.6041 67.7734 52.5271 67.7379 52.4501 67.7023L52.4205 67.6905L52.3612 67.6609C52.3494 67.655 52.3435 67.649 52.3316 67.649C52.302 67.6313 52.2665 67.6135 52.2368 67.6016C52.1835 67.7497 52.1243 67.8919 52.071 68.034C51.6919 68.9521 51.2003 69.8288 50.6376 70.6462C50.4066 70.9838 50.1578 71.3096 49.9031 71.6235C49.6958 71.8723 49.4825 72.1211 49.2575 72.358C49.2338 72.3876 49.2278 72.3876 49.2041 72.4113C49.1982 72.4172 49.1982 72.4172 49.1923 72.4231C49.1686 72.4468 48.9672 72.6482 48.7303 72.8851C48.2742 73.3412 47.5279 73.3412 47.0718 72.8851C46.8408 72.6541 46.6394 72.4527 46.6098 72.4231L46.6039 72.4172C46.3906 72.204 46.1892 71.973 45.9938 71.742C45.745 71.4458 45.5081 71.1319 45.283 70.8179C45.0697 70.5218 44.8684 70.2138 44.6788 69.9058C44.2583 69.2128 43.8969 68.4901 43.6067 67.7379C43.5949 67.7023 43.5652 67.6786 43.5297 67.6668C43.4942 67.6549 43.4586 67.6549 43.4231 67.6727C43.1862 67.7912 42.9433 67.8978 42.7005 67.9985C42.2918 68.1643 41.8771 68.3065 41.4507 68.425C41.113 68.5138 40.8346 68.7567 40.6866 69.0765C39.9343 70.8416 39.7448 72.8555 40.2779 74.8457V74.8517C40.3016 74.9346 40.3608 75.0057 40.4319 75.0471C40.5029 75.0886 40.5977 75.0945 40.6806 75.0708C41.4921 74.822 42.2384 74.4607 42.9196 74.0165C43.2158 73.821 43.5889 73.7677 43.9266 73.8802C44.2642 73.9928 44.5367 74.2534 44.6551 74.591C45.7805 77.5053 47.8181 79.5488 47.8951 79.6258ZM47.907 57.2005C47.901 57.1946 47.8951 57.1886 47.8951 57.1886C47.8951 57.1886 47.8892 57.1946 47.8833 57.2005V57.1886C42.6531 57.1946 38.412 61.4415 38.412 66.6717V66.6776C38.412 66.7665 38.4535 66.8553 38.5187 66.9205C38.5838 66.9856 38.6727 67.0152 38.7674 67.0152C40.4319 66.9501 41.9837 66.4644 43.3224 65.647C43.6363 65.4456 44.0273 65.4101 44.3708 65.5522C44.7144 65.6884 44.975 65.9846 45.0579 66.3459C45.5021 67.9096 46.3432 69.2246 46.9889 70.0835C47.208 70.3619 47.5397 70.5218 47.8951 70.5218C48.2505 70.5218 48.5822 70.3619 48.8014 70.0835C49.4529 69.2246 50.2881 67.9096 50.7442 66.3459C50.833 65.9905 51.0877 65.6944 51.4313 65.5581C51.7748 65.4219 52.1598 65.4574 52.4738 65.6529C53.8183 66.4585 55.3702 66.9442 57.0346 67.0093C57.1235 67.0152 57.2123 66.9797 57.2834 66.9145C57.3486 66.8494 57.39 66.7665 57.39 66.6717C57.39 66.6658 57.39 66.6658 57.39 66.6598C57.3841 61.4297 53.1431 57.1886 47.9188 57.1827L47.907 57.2005ZM48.3394 54.9733C48.5881 54.9733 48.7895 54.772 48.7895 54.5232V48.7007C48.7895 48.4519 48.5881 48.2505 48.3394 48.2505H47.445C47.1962 48.2505 46.9948 48.4519 46.9948 48.7007V54.5232C46.9948 54.772 47.1962 54.9733 47.445 54.9733H48.3394Z" fill="#27235E"/>
<path fill-rule="evenodd" clip-rule="evenodd" d="M76.5812 23.0413C76.0837 23.0295 75.6572 22.68 75.5328 22.2002C75.4084 21.7145 75.6276 21.211 76.0541 20.9623C76.0541 20.9563 76.0541 20.9563 76.0541 20.9563C77.8666 19.9138 82.4748 20.6957 84.7197 21.1696C85.0574 21.2288 85.3476 21.4361 85.5134 21.7323C85.6852 22.0284 85.7148 22.3838 85.6023 22.7037C84.8856 24.8834 83.2626 29.2666 81.4501 30.315C81.4501 30.315 81.4501 30.315 81.4442 30.315C81.0118 30.5638 80.4609 30.4986 80.0996 30.1492C79.7383 29.7997 79.6554 29.2548 79.8923 28.8105C80.7097 27.3001 81.2606 25.9259 81.5864 25.0019C81.6871 24.688 81.6515 24.3444 81.4857 24.0542C81.3198 23.7699 81.0414 23.5625 80.7156 23.4974C79.7561 23.3078 78.299 23.0946 76.5812 23.0413ZM79.2289 25.3573C79.1934 25.4817 78.4411 28.2537 76.4805 30.6822C76.2495 30.9547 76.1607 31.316 76.2318 31.6655C76.3028 32.015 76.5339 32.3111 76.8537 32.4711C77.5763 32.8383 78.2575 33.3122 78.8794 33.8867C78.9446 33.9459 78.9801 34.0289 78.9801 34.1118C78.9801 34.1947 78.9505 34.2836 78.8913 34.3428C77.3216 35.9065 75.3137 36.7654 73.2702 36.9016C73.1695 36.9075 73.0688 36.8661 72.9977 36.7891L72.9918 36.7832C72.6482 36.4278 72.2869 36.0961 71.9019 35.7881C71.7361 35.6518 71.5643 35.5274 71.3925 35.403C71.3214 35.3557 71.2563 35.3083 71.1852 35.2609L71.1615 35.2431L71.1082 35.2076C71.1023 35.2017 71.0904 35.1957 71.0845 35.1898C71.0549 35.172 71.0253 35.1483 70.9957 35.1306C71.0963 35.0121 71.1911 34.8877 71.2859 34.7693C71.896 33.9815 72.4054 33.1167 72.8318 32.2223C73.0036 31.855 73.1635 31.476 73.3116 31.0969C73.4242 30.7948 73.5308 30.4868 73.6196 30.1728C73.6315 30.1373 73.6315 30.1314 73.6374 30.1018C73.6374 30.0958 73.6374 30.0958 73.6433 30.0899C73.6493 30.0603 73.7263 29.7819 73.8151 29.4561C73.981 28.8283 73.6078 28.1886 72.9859 28.0168C72.666 27.9339 72.3935 27.8569 72.358 27.845H72.3521C72.0618 27.768 71.7597 27.7088 71.4636 27.6555C71.0786 27.5903 70.6936 27.537 70.3086 27.5015C69.9472 27.4659 69.58 27.4422 69.2128 27.4363C68.4072 27.4186 67.5957 27.4659 66.802 27.5963C66.7665 27.6022 66.7309 27.5903 66.7013 27.5666C66.6717 27.5429 66.6539 27.5074 66.6539 27.4719C66.6362 27.2053 66.6125 26.9447 66.5769 26.6841C66.5177 26.2458 66.4348 25.8134 66.3222 25.3928C66.2334 25.0552 66.2985 24.6939 66.5059 24.4036C67.655 22.8695 69.3075 21.6967 71.2977 21.1636H71.3037C71.3866 21.1459 71.4754 21.1577 71.5465 21.2051C71.6176 21.2525 71.6709 21.3236 71.6946 21.4065C71.8841 22.2298 71.9493 23.0591 71.9019 23.8706C71.8782 24.2259 72.0204 24.5754 72.2869 24.8123C72.5535 25.0493 72.9148 25.15 73.2642 25.0907C76.3325 24.5813 79.1223 25.3277 79.2289 25.3573C79.2289 25.3573 79.2289 25.3514 79.2289 25.3573ZM59.8126 36.5758C59.8008 36.5758 59.7949 36.5699 59.7949 36.5699C59.7949 36.5699 59.7949 36.564 59.8008 36.5521L59.7889 36.5581C57.1827 32.0268 58.7346 26.228 63.2659 23.6099H63.2718C63.3547 23.5625 63.4495 23.5566 63.5324 23.5803C63.6213 23.604 63.6923 23.6692 63.7397 23.7462C64.5157 25.2151 64.8651 26.8085 64.8355 28.3722C64.8177 28.7454 64.9836 29.1007 65.2738 29.3318C65.5641 29.5628 65.9491 29.6338 66.3104 29.5331C67.886 29.1363 69.4438 29.2014 70.5159 29.3377C70.8653 29.3851 71.1733 29.5924 71.351 29.9004C71.5287 30.2084 71.5524 30.5756 71.4221 30.9014C71.0016 31.8965 70.2849 33.2766 69.1595 34.4494C68.8929 34.7041 68.7685 35.0713 68.8159 35.4386C68.8692 35.8058 69.0943 36.1198 69.4201 36.2915C70.7883 37.0556 71.9907 38.1514 72.8733 39.5611C72.9207 39.6381 72.9385 39.7329 72.9148 39.8218C72.8911 39.9106 72.8378 39.9876 72.7608 40.035L72.7548 40.0409C68.2236 42.6531 62.4307 41.1012 59.8067 36.5758H59.8126ZM58.1008 38.0685C58.2252 38.2817 58.1482 38.5542 57.935 38.6786L52.8943 41.5869C52.6811 41.7113 52.4086 41.6343 52.2842 41.421L51.8341 40.6451C51.7097 40.4319 51.7867 40.1594 51.9999 40.035L57.0406 37.1267C57.2538 37.0023 57.5263 37.0793 57.6506 37.2926L58.1008 38.0685Z" fill="#27235E"/>
<path fill-rule="evenodd" clip-rule="evenodd" d="M15.8801 58.0889C16.1171 57.6506 16.0341 57.1057 15.6728 56.7621C15.3174 56.4127 14.7725 56.3475 14.3401 56.5963C14.3342 56.5904 14.3342 56.5904 14.3342 56.5904C12.5217 57.6329 10.8987 62.022 10.182 64.2017C10.0695 64.5216 10.0991 64.8769 10.2708 65.1731C10.4426 65.4693 10.7329 65.6707 11.0646 65.7358C13.3095 66.2097 17.9177 66.9915 19.7302 65.949C19.7302 65.949 19.7302 65.949 19.7361 65.949C20.1685 65.7003 20.3818 65.1909 20.2633 64.7052C20.1448 64.2195 19.7124 63.8759 19.209 63.8582C17.4912 63.8108 16.0282 63.5975 15.0627 63.4198C14.7369 63.3488 14.4586 63.1474 14.2927 62.8631C14.1269 62.5787 14.0913 62.2352 14.192 61.9153C14.5237 60.9735 15.0686 59.5994 15.8801 58.0889ZM16.5613 61.5363C16.5672 61.5363 16.5672 61.5363 16.5613 61.5363C16.6857 61.5718 19.4637 62.3063 22.5497 61.8206C22.8991 61.7554 23.2605 61.862 23.527 62.093C23.7935 62.33 23.9357 62.6794 23.912 63.0348C23.8705 63.8463 23.9357 64.6696 24.1252 65.4989C24.143 65.5818 24.1963 65.6529 24.2733 65.7003C24.3444 65.7477 24.4332 65.7595 24.5162 65.7417C24.5162 65.7417 24.5162 65.7417 24.5221 65.7417C26.6604 65.1672 28.4077 63.8582 29.5509 62.1523C29.6101 62.0693 29.622 61.9627 29.5924 61.862C29.5924 61.8561 29.5924 61.8561 29.5864 61.8502C29.4502 61.3763 29.3436 60.8965 29.2725 60.4108C29.2429 60.2035 29.2133 59.9903 29.1955 59.7771C29.1896 59.6941 29.1837 59.6053 29.1718 59.5224V59.4927L29.1659 59.4276C29.1659 59.4157 29.1659 59.4039 29.1659 59.398C29.1659 59.3624 29.16 59.3269 29.16 59.2914C29.006 59.315 28.852 59.3387 28.698 59.3624C27.7088 59.4927 26.7078 59.5046 25.7186 59.4217C25.3099 59.3861 24.9071 59.3387 24.5043 59.2736C24.1845 59.2203 23.8646 59.1551 23.5448 59.0781C23.5092 59.0722 23.5033 59.0663 23.4737 59.0604C23.4678 59.0604 23.4678 59.0604 23.4618 59.0544C23.4322 59.0485 23.1538 58.9715 22.8281 58.8827C22.2002 58.7168 21.827 58.0712 21.9988 57.4433C22.0817 57.1235 22.1587 56.851 22.1647 56.8155V56.8095C22.2476 56.5193 22.3424 56.2291 22.443 55.9447C22.5793 55.5775 22.7274 55.2162 22.8873 54.8667C23.0413 54.535 23.2012 54.2092 23.3789 53.8894C23.7639 53.1845 24.2141 52.5034 24.7235 51.8814C24.7472 51.8518 24.7531 51.8163 24.7472 51.7807C24.7413 51.7452 24.7235 51.7156 24.6879 51.6919C24.4688 51.5438 24.2556 51.3898 24.0423 51.2299C23.6928 50.9633 23.3611 50.6731 23.0472 50.3651C22.7984 50.1163 22.449 49.9978 22.0995 50.0334C20.1981 50.2644 18.356 51.1055 16.8989 52.5626V52.5685C16.8397 52.6277 16.8101 52.7107 16.8101 52.7995C16.8101 52.8824 16.8515 52.9654 16.9108 53.0246C17.5327 53.5991 18.2139 54.073 18.9424 54.4402C19.2623 54.6002 19.4933 54.8963 19.5644 55.2458C19.6354 55.5953 19.5466 55.9566 19.3156 56.235C17.3432 58.6457 16.5909 61.4296 16.5613 61.5363C16.5613 61.5363 16.5613 61.5303 16.5613 61.5363ZM35.9894 50.3295C35.9954 50.3177 35.9954 50.3118 35.9954 50.3118C35.9954 50.3118 35.9894 50.3118 35.9776 50.3058L35.9894 50.2999C33.3714 45.7746 27.5726 44.2227 23.0413 46.8348L23.0354 46.8408C22.9584 46.8881 22.8991 46.9652 22.8814 47.054C22.8577 47.1428 22.8754 47.2376 22.9228 47.3146C23.8113 48.7243 25.0137 49.8201 26.382 50.5724C26.7137 50.7442 26.9388 51.064 26.9921 51.4313C27.0454 51.7985 26.9151 52.1717 26.6485 52.4264C25.5172 53.5932 24.7946 54.9793 24.3799 55.9684C24.2496 56.2942 24.2733 56.6674 24.451 56.9754C24.6287 57.2834 24.9367 57.4907 25.2862 57.5381C26.3524 57.6743 27.9161 57.7395 29.4917 57.3545C29.8471 57.2538 30.2262 57.3249 30.5164 57.5499C30.8066 57.775 30.9666 58.1304 30.9547 58.4976C30.931 60.0614 31.2805 61.6547 32.0623 63.1237C32.1038 63.2066 32.1808 63.2658 32.2697 63.2895C32.3585 63.3132 32.4533 63.3073 32.5303 63.2599C32.5362 63.2599 32.5362 63.254 32.5362 63.254C37.0615 60.6359 38.6193 54.843 36.0072 50.3118L35.9894 50.3295ZM38.1336 49.5951C38.258 49.8083 38.5305 49.8853 38.7437 49.7609L43.7844 46.8526C43.9976 46.7282 44.0746 46.4558 43.9502 46.2425L43.5001 45.4666C43.3757 45.2533 43.1032 45.1763 42.89 45.3007L37.8493 48.209C37.6361 48.3334 37.5591 48.6059 37.6835 48.8191L38.1336 49.5951Z" fill="#27235E"/>
<path fill-rule="evenodd" clip-rule="evenodd" d="M79.9101 58.0889C79.6732 57.6506 79.7561 57.1057 80.1174 56.7621C80.4728 56.4127 81.0177 56.3475 81.4501 56.5963C81.456 56.5904 81.456 56.5904 81.456 56.5904C83.2686 57.6329 84.8915 62.022 85.6082 64.2017C85.7208 64.5216 85.6911 64.8769 85.5194 65.1731C85.3476 65.4693 85.0574 65.6707 84.7257 65.7358C82.4808 66.2097 77.8725 66.9915 76.06 65.949C76.06 65.949 76.06 65.949 76.0541 65.949C75.6217 65.7003 75.4025 65.1909 75.5269 64.7052C75.6513 64.2195 76.0778 63.8759 76.5812 63.8582C78.299 63.8108 79.762 63.5975 80.7275 63.4198C81.0533 63.3488 81.3317 63.1474 81.4975 62.8631C81.6634 62.5787 81.6989 62.2352 81.5982 61.9153C81.2665 60.9735 80.7216 59.5994 79.9101 58.0889ZM79.223 61.5363C79.0986 61.5718 76.3206 62.3063 73.2346 61.8206C72.8852 61.7554 72.5238 61.862 72.2573 62.093C71.9907 62.33 71.8486 62.6794 71.8723 63.0348C71.9137 63.8463 71.8486 64.6696 71.6591 65.4989C71.6413 65.5818 71.588 65.6529 71.5169 65.7003C71.4458 65.7477 71.357 65.7595 71.274 65.7417C71.274 65.7417 71.274 65.7417 71.2681 65.7417C69.1298 65.1672 67.3825 63.8582 66.2393 62.1523C66.1801 62.0693 66.1682 61.9627 66.1978 61.862C66.1978 61.8561 66.1978 61.8561 66.2038 61.8502C66.34 61.3763 66.4466 60.8965 66.5177 60.4108C66.5473 60.2035 66.5769 59.9903 66.5947 59.7771C66.6006 59.6941 66.6065 59.6053 66.6125 59.5224V59.4927L66.6184 59.4276C66.6184 59.4157 66.6184 59.4039 66.6184 59.398C66.6184 59.3624 66.6243 59.3269 66.6243 59.2914C66.7783 59.315 66.9323 59.3387 67.0863 59.3624C68.0755 59.4927 69.0765 59.5046 70.0657 59.4217C70.4744 59.3861 70.8772 59.3387 71.28 59.2736C71.5998 59.2203 71.9197 59.1551 72.2395 59.0781C72.2751 59.0722 72.281 59.0663 72.3106 59.0604C72.3165 59.0604 72.3165 59.0604 72.3224 59.0544C72.3521 59.0485 72.6305 58.9715 72.9562 58.8827C73.5841 58.7168 73.9573 58.0712 73.7855 57.4433C73.7026 57.1235 73.6256 56.851 73.6137 56.8155V56.8095C73.5308 56.5193 73.436 56.2291 73.3353 55.9447C73.1991 55.5775 73.051 55.2162 72.8911 54.8667C72.743 54.535 72.5771 54.2092 72.3995 53.8894C72.0085 53.1845 71.5643 52.5034 71.0549 51.8814C71.0312 51.8518 71.0253 51.8163 71.0312 51.7807C71.0371 51.7452 71.0549 51.7156 71.0904 51.6919C71.3096 51.5438 71.5228 51.3898 71.7361 51.2299C72.0855 50.9633 72.4172 50.6731 72.7312 50.3651C72.9799 50.1163 73.3294 49.9978 73.6789 50.0334C75.5802 50.2644 77.4223 51.1055 78.8794 52.5626V52.5685C78.9387 52.6277 78.9683 52.7107 78.9683 52.7995C78.9683 52.8824 78.9268 52.9654 78.8676 53.0246C78.2457 53.5991 77.5586 54.073 76.8359 54.4402C76.5161 54.6002 76.2851 54.8963 76.214 55.2458C76.1429 55.5953 76.2318 55.9566 76.4628 56.235C78.447 58.6457 79.1993 61.4296 79.223 61.5363C79.2289 61.5363 79.2289 61.5303 79.223 61.5363ZM59.8008 50.3295C59.7949 50.3177 59.7948 50.3118 59.7948 50.3118C59.7948 50.3118 59.8008 50.3118 59.8126 50.3058L59.8008 50.2999C62.4188 45.7746 68.2177 44.2227 72.7489 46.8348L72.7548 46.8408C72.8318 46.8881 72.8911 46.9652 72.9088 47.054C72.9266 47.1428 72.9148 47.2376 72.8674 47.3146C71.9789 48.7243 70.7765 49.8201 69.4082 50.5724C69.0765 50.7442 68.8514 51.064 68.7981 51.4313C68.7448 51.7985 68.8751 52.1717 69.1417 52.4264C70.273 53.5932 70.9956 54.9793 71.4103 55.9684C71.5406 56.2942 71.5169 56.6674 71.3392 56.9754C71.1615 57.2834 70.8535 57.4907 70.504 57.5381C69.4378 57.6743 67.8741 57.7395 66.2985 57.3545C65.9431 57.2538 65.5641 57.3249 65.2738 57.5499C64.9836 57.775 64.8237 58.1304 64.8355 58.4976C64.8592 60.0614 64.5097 61.6547 63.7338 63.1237C63.6923 63.2066 63.6153 63.2658 63.5265 63.2895C63.4376 63.3132 63.3429 63.3073 63.2659 63.2599L63.2599 63.254C58.7346 60.6359 57.1768 54.843 59.7889 50.3118L59.8008 50.3295ZM57.6566 49.5951C57.5322 49.8083 57.2597 49.8853 57.0465 49.7609L52.0058 46.8526C51.7926 46.7282 51.7156 46.4558 51.84 46.2425L52.2901 45.4666C52.4145 45.2533 52.687 45.1763 52.9002 45.3007L57.9409 48.209C58.1541 48.3334 58.2311 48.6059 58.1067 48.8191L57.6566 49.5951Z" fill="#27235E"/>
<path fill-rule="evenodd" clip-rule="evenodd" d="M19.209 23.0413C19.7065 23.0295 20.133 22.68 20.2574 22.2002C20.3818 21.7145 20.1685 21.211 19.7361 20.9623C19.7361 20.9563 19.7361 20.9563 19.7361 20.9563C17.9236 19.9138 13.3154 20.6957 11.0705 21.1696C10.7329 21.2288 10.4426 21.4361 10.2768 21.7323C10.105 22.0284 10.0754 22.3838 10.1879 22.7037C10.9046 24.8834 12.5276 29.2666 14.3401 30.315C14.3401 30.315 14.3401 30.315 14.346 30.315C14.7784 30.5638 15.3293 30.4986 15.6906 30.1492C16.0519 29.7997 16.1348 29.2548 15.8979 28.8105C15.0805 27.3001 14.5296 25.9259 14.2039 25.0019C14.1032 24.688 14.1387 24.3444 14.3045 24.0542C14.4704 23.7699 14.7488 23.5625 15.0746 23.4974C16.0282 23.3078 17.4912 23.0946 19.209 23.0413ZM16.5613 25.3573C16.5968 25.4817 17.3491 28.2537 19.3097 30.6822C19.5407 30.9547 19.6295 31.316 19.5584 31.6655C19.4874 32.015 19.2564 32.3111 18.9365 32.4711C18.2139 32.8383 17.5327 33.3122 16.9108 33.8867C16.8456 33.9459 16.8101 34.0289 16.8101 34.1118C16.8101 34.1947 16.8397 34.2836 16.8989 34.3428C18.4686 35.9065 20.4706 36.7654 22.52 36.9016C22.6207 36.9075 22.7214 36.8661 22.7925 36.7891L22.7984 36.7832C23.142 36.4278 23.5033 36.0961 23.8883 35.7881C24.0542 35.6518 24.2259 35.5274 24.3977 35.403C24.4688 35.3557 24.5399 35.3083 24.605 35.2609L24.6346 35.2431L24.6879 35.2076C24.6939 35.2017 24.7057 35.1957 24.7116 35.1898C24.7413 35.172 24.7709 35.1483 24.8005 35.1306C24.6998 35.0121 24.605 34.8877 24.5102 34.7693C23.9002 33.9815 23.3908 33.1167 22.9643 32.2223C22.7925 31.855 22.6326 31.476 22.4845 31.0969C22.372 30.7948 22.2653 30.4868 22.1765 30.1728C22.1647 30.1373 22.1647 30.1314 22.1587 30.1018C22.1587 30.0958 22.1587 30.0958 22.1528 30.0899C22.1469 30.0603 22.0699 29.7819 21.981 29.4561C21.8152 28.8283 22.1824 28.1886 22.8103 28.0168C23.1301 27.9339 23.4026 27.8569 23.4381 27.845H23.4441C23.7402 27.768 24.0364 27.7088 24.3325 27.6555C24.7176 27.5903 25.1026 27.537 25.4876 27.5015C25.8489 27.4659 26.2161 27.4422 26.5834 27.4363C27.3889 27.4186 28.2004 27.4659 28.9941 27.5963C29.0297 27.6022 29.0652 27.5903 29.0948 27.5666C29.1244 27.5429 29.1422 27.5074 29.1422 27.4719C29.16 27.2053 29.1837 26.9447 29.2192 26.6841C29.2784 26.2458 29.3614 25.8134 29.4739 25.3928C29.5627 25.0552 29.4976 24.6939 29.2903 24.4036C28.1412 22.8695 26.4886 21.6967 24.4984 21.1636H24.4925C24.4095 21.1459 24.3207 21.1577 24.2496 21.2051C24.1785 21.2525 24.1252 21.3236 24.1015 21.4065C23.912 22.2298 23.8468 23.0591 23.8942 23.8706C23.9179 24.2259 23.7758 24.5754 23.5092 24.8123C23.2427 25.0493 22.8814 25.15 22.5319 25.0907C19.4577 24.5813 16.6679 25.3277 16.5613 25.3573C16.5613 25.3573 16.5613 25.3514 16.5613 25.3573ZM35.9776 36.5758C35.9894 36.5758 35.9954 36.5699 35.9954 36.5699C35.9954 36.5699 35.9954 36.564 35.9894 36.5521L36.0013 36.5581C38.6075 32.0268 37.0556 26.228 32.5244 23.6099H32.5184C32.4355 23.5625 32.3407 23.5566 32.2519 23.5803C32.163 23.604 32.092 23.6692 32.0446 23.7462C31.2686 25.2151 30.9192 26.8085 30.9488 28.3722C30.9665 28.7454 30.8007 29.1007 30.5105 29.3318C30.2202 29.5628 29.8352 29.6338 29.4739 29.5331C27.8983 29.1363 26.3405 29.2014 25.2684 29.3377C24.9189 29.3851 24.6109 29.5924 24.4332 29.9004C24.2555 30.2084 24.2319 30.5756 24.3622 30.9014C24.7768 31.8965 25.4994 33.2766 26.6248 34.4494C26.8914 34.7041 27.0158 35.0713 26.9684 35.4386C26.9151 35.8058 26.69 36.1198 26.3642 36.2915C24.9959 37.0556 23.7935 38.1514 22.911 39.5611C22.8636 39.6381 22.8458 39.7329 22.8695 39.8218C22.8932 39.9106 22.9465 39.9876 23.0235 40.035L23.0294 40.0409C27.5607 42.6531 33.3536 41.1012 35.9776 36.5758V36.5758ZM37.6835 38.0685C37.5591 38.2817 37.6361 38.5542 37.8493 38.6786L42.89 41.5869C43.1032 41.7113 43.3757 41.6343 43.5001 41.421L43.9502 40.6451C44.0746 40.4319 43.9976 40.1594 43.7844 40.035L38.7437 37.1267C38.5305 37.0023 38.258 37.0793 38.1336 37.2926L37.6835 38.0685Z" fill="#27235E"/>
<path fill-rule="evenodd" clip-rule="evenodd" d="M28.6387 13.1614C28.852 13.2206 29.083 13.1436 29.2192 12.9659C29.3554 12.7882 29.3732 12.5454 29.2607 12.3558C28.7572 11.4792 28.0819 10.3123 27.7147 9.67261C27.5607 9.40607 27.6555 9.07437 27.9161 8.92036C27.9872 8.8789 28.0582 8.83744 28.1234 8.79598C28.384 8.64197 28.7216 8.73674 28.8757 8.99736C29.2488 9.63707 29.9181 10.8039 30.4216 11.6806C30.5342 11.8701 30.7474 11.9827 30.9725 11.953C31.1916 11.9234 31.3752 11.7635 31.4345 11.5503C31.5589 11.0883 31.6892 10.5907 31.7899 10.2235C31.8669 9.93323 32.169 9.75554 32.4651 9.83254C32.5421 9.85623 32.625 9.874 32.702 9.89769C32.8442 9.93323 32.9627 10.028 33.0337 10.1524C33.1048 10.2768 33.1285 10.4308 33.0871 10.567C32.8264 11.5443 32.2815 13.5819 32.0979 14.2513C32.0623 14.3934 32.0801 14.5415 32.1512 14.6659C32.2223 14.7843 32.3111 14.9502 32.4177 15.122C32.5303 15.3174 32.7435 15.4241 32.9686 15.3944C33.1877 15.3648 33.3714 15.2049 33.4306 14.9917C33.555 14.5296 33.6853 14.0321 33.786 13.6649C33.863 13.3746 34.1651 13.1969 34.4612 13.2739C34.5382 13.2917 34.6212 13.3154 34.6982 13.3391C34.8403 13.3746 34.9588 13.4694 35.0299 13.5938C35.1009 13.7182 35.1246 13.8722 35.0832 14.0143C34.8226 14.9917 34.2776 17.0292 34.094 17.6986C34.0585 17.8407 34.0762 17.9888 34.1473 18.1132C34.2065 18.2139 34.2776 18.3383 34.3605 18.4804C34.4731 18.6759 34.6863 18.7825 34.9114 18.7529C35.1306 18.7233 35.3142 18.5634 35.3734 18.3501C35.4978 17.8881 35.6281 17.3906 35.7288 17.0233C35.8058 16.7272 36.1079 16.5554 36.4041 16.6324C36.4811 16.6502 36.564 16.6738 36.641 16.6975C36.7831 16.7331 36.9016 16.8279 36.9727 16.9522C37.0438 17.0766 37.0675 17.2306 37.026 17.3669C36.7654 18.3442 36.2204 20.3818 36.0368 21.0511C36.0013 21.1933 36.019 21.3413 36.0901 21.4657C36.4337 22.0581 37.4584 23.8409 37.9559 24.6998C38.027 24.8242 38.0507 24.9782 38.0092 25.1144C37.9737 25.2566 37.8789 25.375 37.7545 25.4461C37.6835 25.4876 37.6124 25.5291 37.5472 25.5646C37.4228 25.6357 37.2688 25.6594 37.1326 25.6179C36.9904 25.5824 36.872 25.4876 36.8009 25.3632C36.3034 24.5043 35.2727 22.7214 34.9351 22.1291C34.864 22.0047 34.7396 21.91 34.6034 21.8744C33.9341 21.6967 31.8965 21.1459 30.9192 20.8853C30.777 20.8497 30.6585 20.7549 30.5875 20.6306C30.5164 20.5062 30.4927 20.3522 30.5341 20.2159C30.5519 20.1389 30.5756 20.056 30.5993 19.979C30.6763 19.6828 30.9784 19.5111 31.2746 19.5881C31.6359 19.6828 32.1334 19.8191 32.6014 19.9435C32.8146 20.0027 33.0456 19.9257 33.1818 19.748C33.3181 19.5703 33.3358 19.3334 33.2233 19.1379C33.1404 18.9957 33.0693 18.8714 33.0101 18.7707C32.939 18.6463 32.8146 18.5515 32.6784 18.516C32.009 18.3383 29.9714 17.7874 28.9941 17.5268C28.852 17.4913 28.7335 17.3965 28.6624 17.2721C28.5913 17.1477 28.5676 16.9937 28.6091 16.8515C28.6269 16.7745 28.6506 16.6975 28.6743 16.6146C28.7513 16.3244 29.0533 16.1467 29.3495 16.2237C29.7108 16.3185 30.2084 16.4547 30.6763 16.5791C30.8895 16.6383 31.1205 16.5613 31.2568 16.3836C31.393 16.2059 31.4108 15.969 31.2982 15.7735C31.1975 15.5958 31.1028 15.4359 31.0317 15.3174C30.9606 15.193 30.8362 15.0983 30.7 15.0627C30.0307 14.885 27.9931 14.3342 27.0158 14.0736C26.8736 14.038 26.7551 13.9432 26.6841 13.8189C26.613 13.6945 26.5893 13.5405 26.6308 13.4042C26.6544 13.3272 26.6722 13.2443 26.6959 13.1673C26.7729 12.8771 27.075 12.6994 27.3712 12.7764C27.6792 12.9067 28.1767 13.037 28.6387 13.1614Z" fill="#27235E"/>
<path fill-rule="evenodd" clip-rule="evenodd" d="M64.2906 74.9109C64.3498 74.6976 64.5275 74.5377 64.7526 74.5081C64.9717 74.4785 65.1909 74.5851 65.2975 74.7806C65.8069 75.6572 66.4762 76.8241 66.8435 77.4638C66.9975 77.7244 67.3292 77.8192 67.5957 77.6652C67.6668 77.6237 67.7379 77.5822 67.803 77.5408C68.0637 77.3868 68.1584 77.0551 68.0044 76.7885C67.6313 76.1488 66.9619 74.982 66.4585 74.1053C66.3459 73.9099 66.3637 73.6729 66.4999 73.4952C66.6362 73.3175 66.8612 73.2405 67.0804 73.2998C67.5424 73.4242 68.04 73.5545 68.4072 73.6552C68.6974 73.7322 68.9995 73.5604 69.0824 73.2642C69.1002 73.1872 69.1239 73.1102 69.1476 73.0273C69.1831 72.8851 69.1654 72.7371 69.0943 72.6127C69.0232 72.4883 68.8988 72.3935 68.7626 72.358C67.7853 72.0974 65.7477 71.5524 65.0784 71.3688C64.9362 71.3333 64.8177 71.2385 64.7467 71.1141C64.6756 70.9956 64.5867 70.8357 64.4801 70.658C64.3676 70.4625 64.3853 70.2256 64.5216 70.0479C64.6578 69.8702 64.8829 69.7932 65.1021 69.8525C65.5641 69.9768 66.0616 70.1072 66.4289 70.2078C66.7191 70.2848 67.0212 70.1131 67.1041 69.8169C67.1219 69.7399 67.1456 69.6629 67.1693 69.5859C67.2048 69.4438 67.187 69.2957 67.1159 69.1654C67.0449 69.041 66.9205 68.9462 66.7842 68.9107C65.8069 68.65 63.7693 68.1051 63.1 67.9215C62.9578 67.8859 62.8394 67.7912 62.7683 67.6668C62.7091 67.5661 62.638 67.4417 62.5551 67.2996C62.4425 67.1041 62.4603 66.8672 62.5965 66.6895C62.7328 66.5118 62.9579 66.4348 63.177 66.494C63.639 66.6184 64.1366 66.7487 64.5038 66.8494C64.8 66.9264 65.0961 66.7546 65.1791 66.4585C65.1968 66.3815 65.2205 66.2985 65.2442 66.2215C65.2797 66.0794 65.262 65.9313 65.1909 65.801C65.1198 65.6766 64.9954 65.5818 64.8592 65.5463C63.8819 65.2857 61.8443 64.7407 61.175 64.5571C61.0328 64.5216 60.9143 64.4268 60.8433 64.3024C60.4997 63.7101 59.4691 61.9272 58.9775 61.0683C58.9064 60.9439 58.782 60.8492 58.6458 60.8136C58.5036 60.7781 58.3555 60.7959 58.2311 60.8669C58.16 60.9084 58.089 60.9499 58.0179 60.9854C57.8935 61.0565 57.7987 61.1809 57.7632 61.323C57.7277 61.4652 57.7454 61.6133 57.8165 61.7377C58.3141 62.5965 59.3447 64.3794 59.6823 64.9717C59.7534 65.0961 59.7771 65.2501 59.7356 65.3864C59.5579 66.0616 59.0071 68.0933 58.7464 69.0706C58.7109 69.2127 58.7287 69.3608 58.7998 69.4911C58.8708 69.6155 58.9952 69.7103 59.1315 69.7458C59.2085 69.7695 59.2914 69.7873 59.3684 69.811C59.6586 69.888 59.9607 69.7162 60.0436 69.4201C60.1384 69.0587 60.2746 68.5612 60.399 68.0933C60.4583 67.88 60.636 67.7201 60.861 67.6905C61.0802 67.6609 61.2993 67.7675 61.4119 67.963C61.4948 68.1051 61.5659 68.2295 61.6251 68.3302C61.6962 68.4546 61.7199 68.6086 61.6784 68.7507C61.5007 69.4201 60.9499 71.4576 60.6893 72.435C60.6537 72.5771 60.6715 72.7252 60.7426 72.8496C60.8136 72.974 60.938 73.0688 61.0743 73.1043C61.1513 73.128 61.2283 73.1458 61.3112 73.1695C61.6074 73.2465 61.9035 73.0747 61.9864 72.7785C62.0812 72.4172 62.2174 71.9197 62.3418 71.4517C62.4011 71.2385 62.5788 71.0786 62.8038 71.0489C63.023 71.0193 63.2422 71.1259 63.3547 71.3214C63.4554 71.4991 63.5502 71.659 63.6212 71.7775C63.6923 71.9019 63.716 72.0559 63.6746 72.198C63.4969 72.8674 62.946 74.905 62.6854 75.8823C62.6498 76.0244 62.6676 76.1725 62.7387 76.3028C62.8098 76.4272 62.9342 76.522 63.0704 76.5575C63.1474 76.5812 63.2244 76.599 63.3073 76.6227C63.5976 76.6997 63.8996 76.5279 63.9826 76.2317C64.0299 75.8704 64.1662 75.3729 64.2906 74.9109Z" fill="#27235E"/>
<path fill-rule="evenodd" clip-rule="evenodd" d="M31.4286 74.9109C31.3694 74.6976 31.1917 74.5377 30.9666 74.5081C30.7474 74.4785 30.5283 74.5851 30.4157 74.7806C29.9122 75.6572 29.237 76.8241 28.8698 77.4638C28.7158 77.7244 28.3841 77.8192 28.1175 77.6652C28.0464 77.6237 27.9753 77.5822 27.9102 77.5408C27.6496 77.3868 27.5548 77.0551 27.7088 76.7885C28.082 76.1488 28.7513 74.982 29.2548 74.1053C29.3673 73.9099 29.3495 73.6729 29.2133 73.4952C29.0771 73.3175 28.852 73.2405 28.6328 73.2998C28.1708 73.4242 27.6733 73.5545 27.306 73.6552C27.0099 73.7322 26.7137 73.5604 26.6308 73.2642C26.613 73.1872 26.5893 73.1102 26.5656 73.0273C26.5301 72.8851 26.5479 72.7371 26.6189 72.6127C26.69 72.4883 26.8144 72.3935 26.9506 72.358C27.928 72.0974 29.9655 71.5524 30.6349 71.3688C30.777 71.3333 30.8955 71.2385 30.9666 71.1141C31.0376 70.9956 31.1265 70.8357 31.2331 70.658C31.3457 70.4625 31.3279 70.2256 31.1917 70.0479C31.0554 69.8702 30.8303 69.7932 30.6112 69.8525C30.1492 69.9768 29.6516 70.1072 29.2844 70.2078C28.9882 70.2848 28.6921 70.1131 28.6091 69.8169C28.5914 69.7399 28.5677 69.6629 28.544 69.5859C28.5084 69.4438 28.5262 69.2957 28.5973 69.1654C28.6684 69.041 28.7928 68.9462 28.929 68.9107C29.9063 68.65 31.9439 68.1051 32.6132 67.9215C32.7554 67.8859 32.8738 67.7912 32.9449 67.6668C33.0042 67.5661 33.0752 67.4417 33.1582 67.2996C33.2707 67.1041 33.2529 66.8672 33.1167 66.6895C32.9805 66.5118 32.7554 66.4348 32.5362 66.494C32.0742 66.6184 31.5767 66.7487 31.2094 66.8494C30.9133 66.9264 30.6171 66.7546 30.5342 66.4585C30.5164 66.3815 30.4927 66.2985 30.469 66.2215C30.4335 66.0794 30.4513 65.9313 30.5223 65.801C30.5934 65.6766 30.7178 65.5818 30.854 65.5463C31.8314 65.2857 33.8689 64.7407 34.5383 64.5571C34.6804 64.5216 34.7989 64.4268 34.87 64.3024C35.2135 63.7101 36.2382 61.9272 36.7358 61.0683C36.8069 60.9439 36.9313 60.8492 37.0675 60.8136C37.2096 60.7781 37.3577 60.7959 37.4821 60.8669C37.5532 60.9084 37.6243 60.9499 37.6894 60.9854C37.8138 61.0565 37.9086 61.1809 37.9441 61.323C37.9797 61.4652 37.9619 61.6133 37.8908 61.7377C37.3933 62.5965 36.3626 64.3794 36.025 64.9717C35.9539 65.0961 35.9302 65.2501 35.9717 65.3864C36.1494 66.0616 36.7002 68.0933 36.9609 69.0706C36.9964 69.2127 36.9786 69.3608 36.9076 69.4911C36.8365 69.6155 36.7121 69.7103 36.5759 69.7458C36.4989 69.7695 36.4159 69.7873 36.3389 69.811C36.0428 69.888 35.7466 69.7162 35.6637 69.4201C35.5689 69.0587 35.4327 68.5612 35.3083 68.0933C35.2491 67.88 35.0714 67.7201 34.8463 67.6905C34.6271 67.6609 34.408 67.7675 34.2954 67.963C34.2125 68.1051 34.1414 68.2295 34.0822 68.3302C34.0111 68.4546 33.9874 68.6086 34.0289 68.7507C34.2066 69.4201 34.7574 71.4576 35.0181 72.435C35.0536 72.5771 35.0358 72.7252 34.9647 72.8496C34.8937 72.974 34.7693 73.0688 34.633 73.1043C34.556 73.128 34.4731 73.1458 34.3961 73.1695C34.1 73.2465 33.8038 73.0747 33.7209 72.7785C33.6261 72.4172 33.4899 71.9197 33.3655 71.4517C33.3062 71.2385 33.1285 71.0786 32.9035 71.0489C32.6843 71.0193 32.4651 71.1259 32.3526 71.3214C32.2519 71.4991 32.1571 71.659 32.0861 71.7775C32.015 71.9019 31.9913 72.0559 32.0328 72.198C32.2104 72.8674 32.7613 74.905 33.0219 75.8823C33.0575 76.0244 33.0397 76.1725 32.9686 76.3028C32.8975 76.4272 32.7732 76.522 32.6369 76.5575C32.5599 76.5812 32.477 76.599 32.4 76.6227C32.1038 76.6997 31.8077 76.5279 31.7247 76.2317C31.6892 75.8704 31.553 75.3729 31.4286 74.9109Z" fill="#27235E"/>
<path fill-rule="evenodd" clip-rule="evenodd" d="M67.0804 13.1614C66.8671 13.2206 66.6361 13.1436 66.4999 12.9659C66.3637 12.7882 66.3459 12.5454 66.4584 12.3558C66.9619 11.4792 67.6372 10.3123 68.0044 9.67261C68.1584 9.40607 68.0636 9.07437 67.803 8.92036C67.7319 8.8789 67.6609 8.83744 67.5957 8.79598C67.3351 8.64197 66.9975 8.73674 66.8435 8.99736C66.4703 9.63707 65.801 10.8039 65.2975 11.6806C65.185 11.8701 64.9717 11.9827 64.7526 11.953C64.5334 11.9234 64.3498 11.7635 64.2905 11.5503C64.1662 11.0883 64.0299 10.5907 63.9352 10.2235C63.8582 9.93323 63.5561 9.75554 63.2599 9.83254C63.1829 9.85623 63.1059 9.874 63.023 9.89769C62.8808 9.93323 62.7624 10.028 62.6913 10.1524C62.6202 10.2768 62.5965 10.4308 62.638 10.567C62.8986 11.5443 63.4435 13.5819 63.6271 14.2513C63.6627 14.3934 63.6449 14.5415 63.5738 14.6659C63.5028 14.7843 63.4139 14.9502 63.3073 15.122C63.1947 15.3174 62.9815 15.4241 62.7564 15.3944C62.5373 15.3648 62.3537 15.2049 62.2944 14.9917C62.17 14.5296 62.0338 14.0321 61.939 13.6649C61.862 13.3746 61.5599 13.1969 61.2638 13.2739C61.1868 13.2917 61.1039 13.3154 61.0269 13.3391C60.8847 13.3746 60.7662 13.4694 60.6952 13.5938C60.6241 13.7182 60.6004 13.8722 60.6418 14.0143C60.9025 14.9917 61.4474 17.0292 61.631 17.6986C61.6666 17.8407 61.6488 17.9888 61.5777 18.1132C61.5185 18.2139 61.4474 18.3383 61.3645 18.4804C61.2519 18.6759 61.0387 18.7825 60.8136 18.7529C60.5945 18.7233 60.4108 18.5634 60.3516 18.3501C60.2272 17.8881 60.091 17.3906 59.9962 17.0233C59.9192 16.7272 59.6171 16.5554 59.321 16.6324C59.244 16.6502 59.161 16.6738 59.084 16.6975C58.9419 16.7331 58.8234 16.8279 58.7523 16.9522C58.6813 17.0766 58.6576 17.2306 58.699 17.3669C58.9596 18.3442 59.5046 20.3818 59.6882 21.0511C59.7237 21.1933 59.706 21.3413 59.6349 21.4657C59.2914 22.0581 58.2607 23.8409 57.7691 24.6998C57.698 24.8242 57.6743 24.9782 57.7158 25.1144C57.7513 25.2566 57.8461 25.375 57.9705 25.4461C58.0416 25.4876 58.1126 25.5291 58.1837 25.5646C58.3081 25.6357 58.4621 25.6594 58.5983 25.6179C58.7405 25.5824 58.859 25.4876 58.93 25.3632C59.4276 24.5043 60.4582 22.7214 60.7958 22.1291C60.8669 22.0047 60.9913 21.91 61.1275 21.8744C61.7969 21.6967 63.8345 21.1459 64.8118 20.8853C64.9539 20.8497 65.0724 20.7549 65.1435 20.6306C65.2146 20.5062 65.2383 20.3522 65.1968 20.2159C65.179 20.1389 65.1553 20.056 65.1316 19.979C65.0546 19.6828 64.7526 19.5111 64.4564 19.5881C64.0951 19.6828 63.5975 19.8191 63.1296 19.9435C62.9164 20.0027 62.6854 19.9257 62.5491 19.748C62.4129 19.5703 62.3951 19.3334 62.5077 19.1379C62.5906 18.9957 62.6617 18.8714 62.7209 18.7707C62.792 18.6463 62.9164 18.5515 63.0526 18.516C63.7219 18.3383 65.7595 17.7874 66.7368 17.5268C66.879 17.4913 66.9975 17.3965 67.0685 17.2721C67.1396 17.1477 67.1633 16.9937 67.1218 16.8515C67.1041 16.7745 67.0804 16.6975 67.0567 16.6146C66.9797 16.3244 66.6776 16.1467 66.3814 16.2237C66.0201 16.3185 65.5226 16.4547 65.0546 16.5791C64.8414 16.6383 64.6104 16.5613 64.4742 16.3836C64.3379 16.2059 64.3202 15.969 64.4327 15.7735C64.5334 15.5958 64.6282 15.4359 64.6992 15.3174C64.7703 15.193 64.8947 15.0983 65.0309 15.0627C65.7003 14.885 67.7379 14.3342 68.7152 14.0736C68.8573 14.038 68.9758 13.9432 69.0469 13.8189C69.118 13.6945 69.1417 13.5405 69.1002 13.4042C69.0824 13.3272 69.0587 13.2443 69.035 13.1673C68.958 12.8771 68.656 12.6994 68.3598 12.7764C68.0399 12.9067 67.5424 13.037 67.0804 13.1614Z" fill="#27235E"/>
<path fill-rule="evenodd" clip-rule="evenodd" d="M12.2136 44.8387C12.3736 44.6788 12.421 44.4419 12.3321 44.2405C12.2492 44.0332 12.0478 43.9028 11.8227 43.9028C10.8098 43.9028 9.46527 43.9028 8.72487 43.9028C8.42279 43.9028 8.17401 43.6541 8.17401 43.352C8.17401 43.2691 8.17401 43.1921 8.17401 43.1091C8.17401 42.8071 8.42279 42.5583 8.72487 42.5583C9.46527 42.5583 10.8098 42.5583 11.8227 42.5583C12.0478 42.5583 12.2433 42.422 12.3321 42.2207C12.415 42.0133 12.3676 41.7764 12.2136 41.6224C11.876 41.2848 11.5088 40.9175 11.2422 40.651C11.029 40.4378 11.029 40.0883 11.2422 39.8751C11.3015 39.8158 11.3548 39.7625 11.414 39.7033C11.5147 39.5967 11.6569 39.5434 11.8049 39.5434C11.953 39.5434 12.0893 39.6026 12.1959 39.7033C12.9126 40.4141 14.3993 41.9067 14.8909 42.3984C14.9916 42.505 15.1338 42.5583 15.2819 42.5583C15.4181 42.5583 15.6076 42.5583 15.809 42.5583C16.0341 42.5583 16.2296 42.422 16.3184 42.2207C16.4014 42.0133 16.354 41.7764 16.2 41.6224C15.8623 41.2848 15.4951 40.9175 15.2286 40.651C15.0153 40.4378 15.0153 40.0883 15.2286 39.8751C15.2878 39.8158 15.3411 39.7625 15.4003 39.7033C15.501 39.5967 15.6432 39.5434 15.7913 39.5434C15.9393 39.5434 16.0756 39.6026 16.1822 39.7033C16.8989 40.4141 18.3856 41.9067 18.8773 42.3984C18.978 42.505 19.1201 42.5583 19.2682 42.5583C19.3807 42.5583 19.5288 42.5583 19.6887 42.5583C19.9138 42.5583 20.1093 42.422 20.1981 42.2207C20.2811 42.0133 20.2337 41.7764 20.0797 41.6224C19.742 41.2848 19.3748 40.9175 19.1083 40.651C18.895 40.4378 18.895 40.0883 19.1083 39.8751C19.1675 39.8158 19.2208 39.7625 19.28 39.7033C19.3807 39.5967 19.5229 39.5434 19.671 39.5434C19.819 39.5434 19.9553 39.6026 20.0619 39.7033C20.7786 40.4141 22.2653 41.9067 22.757 42.3984C22.8577 42.505 22.9998 42.5583 23.1479 42.5583C23.835 42.5583 25.8903 42.5583 26.8854 42.5583C27.0335 42.5583 27.1698 42.6175 27.2764 42.7182C27.3771 42.8248 27.4363 42.9611 27.4363 43.1091C27.4363 43.1921 27.4363 43.2691 27.4363 43.352C27.4363 43.5001 27.3771 43.6363 27.2764 43.7429C27.1757 43.8436 27.0335 43.9028 26.8854 43.9028C25.8903 43.9028 23.835 43.9028 23.1479 43.9028C22.9998 43.9028 22.8636 43.9621 22.757 44.0628C22.2653 44.5544 20.7727 46.047 20.0619 46.7578C19.9612 46.8585 19.819 46.9178 19.671 46.9178C19.5229 46.9178 19.3867 46.8585 19.28 46.7578C19.2208 46.6986 19.1675 46.6453 19.1083 46.5861C18.895 46.3728 18.895 46.0234 19.1083 45.8101C19.3748 45.5436 19.7361 45.1823 20.0797 44.8387C20.2396 44.6788 20.287 44.4419 20.1981 44.2405C20.1152 44.0332 19.9138 43.9028 19.6887 43.9028C19.5288 43.9028 19.3807 43.9028 19.2682 43.9028C19.1201 43.9028 18.9839 43.9621 18.8773 44.0628C18.3856 44.5544 16.893 46.047 16.1822 46.7578C16.0815 46.8585 15.9393 46.9178 15.7913 46.9178C15.6432 46.9178 15.507 46.8585 15.4003 46.7578C15.3411 46.6986 15.2878 46.6453 15.2286 46.5861C15.0153 46.3728 15.0153 46.0234 15.2286 45.8101C15.4951 45.5436 15.8564 45.1823 16.2 44.8387C16.3599 44.6788 16.4073 44.4419 16.3184 44.2405C16.2355 44.0332 16.0341 43.9028 15.809 43.9028C15.6076 43.9028 15.4181 43.9028 15.2819 43.9028C15.1338 43.9028 14.9976 43.9621 14.8909 44.0628C14.3993 44.5544 12.9067 46.047 12.1959 46.7578C12.0952 46.8585 11.953 46.9178 11.8049 46.9178C11.6569 46.9178 11.5206 46.8585 11.414 46.7578C11.3548 46.6986 11.3015 46.6453 11.2422 46.5861C11.029 46.3728 11.029 46.0234 11.2422 45.8101C11.5088 45.5436 11.8701 45.1823 12.2136 44.8387Z" fill="#27235E"/>
<path fill-rule="evenodd" clip-rule="evenodd" d="M83.5114 44.8387C83.3514 44.6788 83.304 44.4419 83.3929 44.2405C83.4758 44.0332 83.6772 43.9028 83.9023 43.9028C84.9151 43.9028 86.2597 43.9028 87.0001 43.9028C87.3022 43.9028 87.551 43.6541 87.551 43.352C87.551 43.2691 87.551 43.1921 87.551 43.1091C87.551 42.8071 87.3022 42.5583 87.0001 42.5583C86.2597 42.5583 84.9151 42.5583 83.9023 42.5583C83.6772 42.5583 83.4817 42.422 83.3929 42.2207C83.31 42.0133 83.3514 41.7764 83.5114 41.6224C83.849 41.2848 84.2162 40.9175 84.4828 40.651C84.696 40.4378 84.696 40.0883 84.4828 39.8751C84.4235 39.8158 84.3702 39.7625 84.311 39.7033C84.2103 39.5967 84.0681 39.5434 83.92 39.5434C83.772 39.5434 83.6357 39.6026 83.5291 39.7033C82.8124 40.4141 81.3257 41.9067 80.8341 42.3984C80.7334 42.505 80.5912 42.5583 80.4431 42.5583C80.3069 42.5583 80.1173 42.5583 79.916 42.5583C79.6909 42.5583 79.4954 42.422 79.4066 42.2207C79.3236 42.0133 79.371 41.7764 79.525 41.6224C79.8626 41.2848 80.2299 40.9175 80.4964 40.651C80.7097 40.4378 80.7097 40.0883 80.4964 39.8751C80.4372 39.8158 80.3839 39.7625 80.3247 39.7033C80.224 39.5967 80.0818 39.5434 79.9337 39.5434C79.7856 39.5434 79.6494 39.6026 79.5428 39.7033C78.8261 40.4141 77.3394 41.9067 76.8477 42.3984C76.7411 42.505 76.6049 42.5583 76.4568 42.5583C76.3443 42.5583 76.1962 42.5583 76.0363 42.5583C75.8112 42.5583 75.6157 42.422 75.5269 42.2207C75.4439 42.0133 75.4913 41.7764 75.6453 41.6224C75.9829 41.2848 76.3502 40.9175 76.6167 40.651C76.83 40.4378 76.83 40.0883 76.6167 39.8751C76.5575 39.8158 76.5042 39.7625 76.445 39.7033C76.3443 39.5967 76.2021 39.5434 76.054 39.5434C75.9059 39.5434 75.7697 39.6026 75.6631 39.7033C74.9523 40.4141 73.4597 41.9067 72.968 42.3984C72.8673 42.505 72.7252 42.5583 72.5771 42.5583C71.89 42.5583 69.8347 42.5583 68.8396 42.5583C68.6915 42.5583 68.5552 42.6175 68.4486 42.7182C68.3479 42.8248 68.2887 42.9611 68.2887 43.1091C68.2887 43.1921 68.2887 43.2691 68.2887 43.352C68.2887 43.5001 68.3479 43.6363 68.4486 43.7429C68.5493 43.8436 68.6915 43.9028 68.8396 43.9028C69.8347 43.9028 71.89 43.9028 72.5771 43.9028C72.7252 43.9028 72.8614 43.9621 72.968 44.0628C73.4597 44.5544 74.9523 46.047 75.6631 46.7578C75.7697 46.8585 75.9059 46.9178 76.054 46.9178C76.2021 46.9178 76.3383 46.8585 76.445 46.7578C76.5042 46.6986 76.5575 46.6453 76.6167 46.5861C76.83 46.3728 76.83 46.0234 76.6167 45.8101C76.3502 45.5436 75.9889 45.1823 75.6453 44.8387C75.4913 44.6788 75.438 44.4419 75.5269 44.2405C75.6098 44.0332 75.8112 43.9028 76.0363 43.9028C76.1962 43.9028 76.3443 43.9028 76.4568 43.9028C76.6049 43.9028 76.7411 43.9621 76.8477 44.0628C77.3394 44.5544 78.832 46.047 79.5428 46.7578C79.6435 46.8585 79.7856 46.9178 79.9337 46.9178C80.0818 46.9178 80.218 46.8585 80.3247 46.7578C80.3839 46.6986 80.4372 46.6453 80.4964 46.5861C80.7097 46.3728 80.7097 46.0234 80.4964 45.8101C80.2299 45.5436 79.8686 45.1823 79.525 44.8387C79.371 44.6788 79.3177 44.4419 79.4066 44.2405C79.4895 44.0332 79.6909 43.9028 79.916 43.9028C80.1173 43.9028 80.3069 43.9028 80.4431 43.9028C80.5912 43.9028 80.7274 43.9621 80.8341 44.0628C81.3257 44.5544 82.8183 46.047 83.5291 46.7578C83.6298 46.8585 83.772 46.9178 83.92 46.9178C84.0681 46.9178 84.2044 46.8585 84.311 46.7578C84.3702 46.6986 84.4235 46.6453 84.4828 46.5861C84.696 46.3728 84.696 46.0234 84.4828 45.8101C84.2103 45.5436 83.849 45.1823 83.5114 44.8387Z" fill="#27235E"/>
<path fill-rule="evenodd" clip-rule="evenodd" d="M40.6451 136.311C41.1426 136.181 41.4921 135.73 41.4921 135.215C41.4921 132.834 41.4921 126.366 41.4921 124.962C41.4921 124.784 41.4506 124.607 41.3677 124.447C39.9461 121.669 26.7551 95.9027 23.2664 89.0851C23.0887 88.7357 23.1005 88.3151 23.3078 87.9775C23.5151 87.6399 23.8824 87.4385 24.2733 87.4385C27.3356 87.4385 33.3181 87.4385 35.3912 87.4385C35.8354 87.4385 36.2382 87.6991 36.4218 88.1019C37.8849 91.336 44.2997 105.492 46.8289 111.078C47.0125 111.481 47.4153 111.741 47.8596 111.741C48.3038 111.741 48.7066 111.481 48.8902 111.078C51.4194 105.492 57.8283 91.336 59.2973 88.1019C59.4809 87.6991 59.8837 87.4385 60.3279 87.4385C62.401 87.4385 68.3894 87.4385 71.4458 87.4385C71.8426 87.4385 72.204 87.6458 72.4113 87.9775C72.6186 88.3151 72.6304 88.7357 72.4527 89.0851C68.964 95.9027 55.773 121.669 54.3514 124.447C54.2685 124.607 54.227 124.784 54.227 124.962C54.227 126.33 54.227 132.485 54.227 134.854C54.227 135.387 54.6002 135.849 55.1273 135.961C56.8806 136.335 58.5213 136.88 60.0554 137.59C63.3132 139.101 65.8365 141.221 67.6253 143.958C69.2127 146.38 70.0953 149.117 70.273 152.161C70.2908 152.469 70.1782 152.772 69.965 152.997C69.7517 153.222 69.4556 153.346 69.1476 153.346C66.725 153.352 61.169 153.352 58.8353 153.352C58.2489 153.352 57.7632 152.908 57.7099 152.327C57.5322 150.343 56.7681 148.732 55.4294 147.488C53.8657 146.031 51.5793 145.302 48.5585 145.302C46.6334 145.302 44.9986 145.581 43.6541 146.143C42.3036 146.706 41.2907 147.47 40.6095 148.448C39.9284 149.425 39.5907 150.509 39.5907 151.711C39.5907 153.5 40.5148 155.016 42.3569 156.26C44.199 157.504 47.0599 158.724 50.9278 159.927C57.4729 161.929 62.3359 164.434 65.5285 167.437C68.7211 170.44 70.3144 174.296 70.3144 178.994C70.3144 182.388 69.4437 185.302 67.7082 187.748C65.9727 190.194 63.5087 192.054 60.3161 193.334C57.1235 194.613 53.38 195.259 49.0797 195.259C44.969 195.259 41.1012 194.554 37.4821 193.138C33.863 191.723 30.9192 189.555 28.6506 186.629C26.5952 183.981 25.4698 180.788 25.2743 177.057C25.2625 176.749 25.3691 176.447 25.5823 176.227C25.7956 176.002 26.0917 175.878 26.3997 175.878C28.8223 175.872 34.4139 175.872 36.7772 175.872C37.3695 175.872 37.8671 176.334 37.9086 176.926C38.0862 179.722 39.0399 181.783 40.7695 183.104C42.7064 184.585 45.4784 185.326 49.0797 185.326C51.9347 185.326 54.0908 184.751 55.5479 183.602C57.005 182.453 57.7335 180.942 57.7335 179.077C57.7335 177.69 57.4374 176.524 56.851 175.594C56.2646 174.658 55.1806 173.763 53.6051 172.91C52.0295 172.058 49.7076 171.133 46.6334 170.144C42.6827 168.865 39.2827 167.437 36.4396 165.88C33.5965 164.316 31.316 162.361 29.6101 160.01C27.8983 157.658 27.0454 154.868 27.0454 151.64C27.0454 148.406 27.9753 145.557 29.8293 143.087C31.6833 140.617 34.2539 138.71 37.5413 137.359C38.5364 136.939 39.5671 136.595 40.6451 136.311Z" fill="#27235E"/>
<path d="M9.46526 91.6025V93.8415L3.54205 90.8266H0.201355V88.7297H3.54205L9.46526 85.7148V87.9597L5.39601 89.7841L9.46526 91.6025Z" fill="#27235E"/>
<path d="M7.79492 101.37H5.76325V104.959H4.15214V101.37H1.85986V105.599H0.201355V99.3027H9.46526V101.37V105.599H7.79492V101.37Z" fill="#27235E"/>
<path d="M4.04558 114.365C4.24697 113.738 4.47798 113.199 4.72083 112.748C4.9696 112.298 5.27761 111.931 5.65077 111.658C6.02394 111.38 6.4741 111.244 6.99534 111.244C7.51066 111.244 7.96675 111.392 8.35768 111.694C8.74861 111.99 9.0507 112.405 9.26986 112.938C9.48309 113.465 9.58971 114.069 9.58971 114.739C9.58971 115.414 9.47125 116.012 9.23432 116.527C8.99739 117.049 8.65977 117.451 8.22737 117.736C7.79498 118.02 7.2915 118.162 6.72288 118.162V116.101C7.10196 116.101 7.39812 115.982 7.6232 115.74C7.84829 115.503 7.9549 115.147 7.9549 114.685C7.9549 114.241 7.86013 113.897 7.67651 113.655C7.49289 113.418 7.25596 113.293 6.97165 113.293C6.69918 113.293 6.46818 113.435 6.27271 113.726C6.07725 114.016 5.8877 114.46 5.70408 115.064C5.38423 116.101 4.98145 116.877 4.50167 117.392C4.02189 117.902 3.4118 118.156 2.66547 118.156C2.12054 118.156 1.65853 118.02 1.2676 117.742C0.876663 117.463 0.580502 117.072 0.379113 116.563C0.177724 116.054 0.071106 115.455 0.071106 114.768C0.071106 114.111 0.183647 113.495 0.408729 112.914C0.633811 112.334 0.977358 111.866 1.44529 111.504C1.91323 111.143 2.48778 110.96 3.17487 110.96V113.027C2.6477 113.027 2.26862 113.175 2.04354 113.471C1.81253 113.767 1.69999 114.2 1.69999 114.768C1.69999 115.207 1.78884 115.532 1.96653 115.757C2.14423 115.982 2.37524 116.089 2.65363 116.089C2.86686 116.089 3.04456 116.048 3.18672 115.953C3.32887 115.864 3.47103 115.698 3.60134 115.449C3.7435 115.212 3.88566 114.845 4.04558 114.365Z" fill="#27235E"/>
<path d="M7.79492 131.211V128.403H0.201355V126.336H7.79492V123.57H9.46526V128.403V131.211H7.79492Z" fill="#27235E"/>
<path d="M7.79492 138.982H5.76325V142.572H4.15214V138.982H1.85986V143.211H0.201355V136.915H9.46526V138.982V143.211H7.79492V138.982Z" fill="#27235E"/>
<path d="M5.17685 150.989V152.464C5.17685 152.92 5.29532 153.263 5.52632 153.5C5.75733 153.737 6.07718 153.855 6.48588 153.855C6.90051 153.855 7.22629 153.737 7.45729 153.5C7.6883 153.263 7.80676 152.92 7.80676 152.458V150.983H5.17685V150.989ZM0.296126 156.254H0.201355V154.039L3.51243 152.369V150.989H0.201355V148.921H9.46526V152.464C9.46526 153.174 9.35864 153.79 9.14541 154.312C8.93217 154.833 8.61232 155.23 8.19769 155.508C7.77715 155.786 7.26775 155.923 6.6695 155.923C6.00018 155.923 5.45525 155.781 5.04062 155.502C4.626 155.224 4.2943 154.815 4.05737 154.288L0.296126 156.254Z" fill="#27235E"/>
<path d="M5.04062 167.082C5.94095 167.082 6.62212 166.898 7.09006 166.531C7.55799 166.164 7.79492 165.625 7.79492 164.92V164.073H1.85986V164.92C1.85986 165.619 2.09679 166.158 2.56472 166.525C3.03858 166.898 3.72567 167.082 4.626 167.082H5.04062ZM9.46526 164.92C9.46526 165.749 9.27572 166.484 8.90256 167.129C8.5294 167.775 8.00815 168.278 7.33291 168.64C6.65766 169.001 5.89357 169.185 5.02878 169.185H4.626C3.76121 169.185 2.99119 169.007 2.32187 168.646C1.65255 168.284 1.1313 167.781 0.75814 167.135C0.384977 166.49 0.195435 165.749 0.195435 164.926V162.012H9.45934V164.073V164.92H9.46526Z" fill="#27235E"/>
<path d="M3.8027 179.639L7.02493 178.348L3.66055 177.495L3.8027 179.639ZM2.17974 180.291L1.96651 177.063L0.142157 176.601L0 174.409L9.47122 177.228L9.56007 178.62L9.59561 179.154L0.574552 183.193L0.432395 180.996L2.17974 180.291Z" fill="#27235E"/>
<path d="M12.0656 188.791L12.8474 190.887L6.24304 190.123L3.11558 191.284L2.38702 189.324L5.51448 188.163L10.022 183.27L10.8039 185.379L7.62315 188.5L12.0656 188.791Z" fill="#27235E"/>
<path d="M13.5938 192.427L13.268 191.877L14.7014 191.024L15.5544 192.457L14.4467 193.115C13.2739 193.813 12.4032 193.683 11.8346 192.724L12.3321 192.427C12.5513 192.795 12.9245 192.818 13.4576 192.504L13.5938 192.427Z" fill="#27235E"/>
<path d="M12.9896 200.353C12.7408 199.743 12.5631 199.186 12.4624 198.676C12.3617 198.173 12.3617 197.693 12.4743 197.243C12.5809 196.793 12.8356 196.396 13.2325 196.064C13.6293 195.733 14.0736 195.555 14.5652 195.531C15.0568 195.507 15.5544 195.626 16.0578 195.893C16.5613 196.159 17.0292 196.55 17.4676 197.065C17.8999 197.581 18.1961 198.114 18.3501 198.665C18.5041 199.215 18.5041 199.743 18.356 200.24C18.208 200.738 17.9177 201.17 17.4794 201.537L16.1526 199.962C16.4428 199.719 16.5909 199.435 16.6087 199.109C16.6265 198.783 16.4843 198.439 16.1881 198.09C15.9038 197.746 15.6077 197.545 15.3174 197.48C15.0213 197.415 14.7666 197.474 14.5474 197.658C14.3401 197.835 14.2572 198.09 14.2927 198.439C14.3282 198.783 14.4704 199.245 14.7192 199.826C15.1397 200.827 15.3352 201.68 15.2997 202.378C15.2641 203.077 14.9561 203.67 14.3875 204.149C13.9729 204.499 13.5286 204.694 13.0488 204.73C12.5691 204.771 12.0893 204.659 11.6095 204.398C11.1238 204.138 10.6618 203.747 10.2175 203.22C9.79107 202.716 9.48306 202.171 9.28167 201.585C9.08028 200.998 9.04474 200.412 9.16321 199.837C9.28759 199.257 9.61337 198.747 10.1346 198.309L11.4673 199.891C11.0646 200.228 10.8691 200.584 10.8869 200.963C10.9046 201.336 11.0942 201.745 11.4614 202.177C11.7457 202.509 12.0241 202.704 12.3025 202.763C12.5809 202.817 12.8297 202.758 13.0429 202.574C13.2028 202.438 13.3154 202.29 13.3628 202.13C13.4161 201.97 13.4161 201.751 13.3568 201.472C13.3035 201.194 13.1791 200.821 12.9896 200.353Z" fill="#27235E"/>
<path d="M27.1165 211.394C26.6426 210.937 26.2576 210.493 25.9555 210.073C25.6594 209.652 25.4698 209.214 25.381 208.758C25.2981 208.302 25.3691 207.84 25.6001 207.372C25.8252 206.904 26.1628 206.566 26.6012 206.341C27.0395 206.122 27.5489 206.027 28.1175 206.069C28.6861 206.11 29.2725 206.276 29.8767 206.572C30.4809 206.868 30.9666 207.235 31.3279 207.68C31.6892 208.124 31.9084 208.598 31.9735 209.119C32.0387 209.634 31.9498 210.15 31.701 210.659L29.8471 209.753C30.0129 209.415 30.0366 209.089 29.9182 208.787C29.7997 208.479 29.5332 208.231 29.1185 208.023C28.7157 207.828 28.3722 207.763 28.076 207.822C27.7799 207.881 27.5666 208.041 27.4423 208.296C27.3238 208.539 27.3534 208.811 27.5252 209.113C27.697 209.415 28.0168 209.777 28.4788 210.209C29.2725 210.955 29.7938 211.654 30.0425 212.312C30.2913 212.969 30.2499 213.627 29.9241 214.302C29.6872 214.788 29.3555 215.149 28.9349 215.38C28.5144 215.611 28.0287 215.706 27.4837 215.664C26.9388 215.623 26.3524 215.451 25.7364 215.155C25.144 214.865 24.6406 214.497 24.22 214.041C23.7995 213.585 23.527 213.07 23.4026 212.489C23.2842 211.909 23.373 211.311 23.6751 210.695L25.535 211.601C25.304 212.075 25.2744 212.478 25.4402 212.815C25.6061 213.153 25.9437 213.443 26.459 213.692C26.8499 213.881 27.1876 213.946 27.4659 213.887C27.7443 213.822 27.9457 213.668 28.0701 213.413C28.1649 213.224 28.2004 213.04 28.1827 212.874C28.1649 212.709 28.076 212.507 27.9102 212.276C27.7384 212.033 27.4778 211.749 27.1165 211.394Z" fill="#27235E"/>
<path d="M39.9521 219.443L37.6005 213.022L36.5047 218.786L34.4731 218.401L36.2027 209.303L38.2343 209.688L40.5858 216.108L41.6757 210.339L43.7015 210.724L41.9778 219.828L39.9521 219.443Z" fill="#27235E"/>
<path d="M53.4688 214.888C53.3977 213.964 53.1786 213.271 52.8114 212.809C52.4441 212.347 51.9525 212.14 51.3483 212.187C50.7323 212.235 50.2821 212.513 49.9919 213.028C49.7076 213.538 49.601 214.26 49.672 215.184L49.7017 215.581C49.7727 216.505 49.9919 217.198 50.3591 217.666C50.7264 218.134 51.218 218.341 51.834 218.294C52.4382 218.247 52.8883 217.962 53.1727 217.441C53.4629 216.92 53.5695 216.203 53.4984 215.285L53.4688 214.888ZM55.5893 215.131C55.6604 216.055 55.5538 216.878 55.2754 217.589C54.9911 218.3 54.5646 218.863 53.996 219.277C53.4214 219.692 52.7462 219.929 51.9703 219.988C51.1884 220.047 50.4835 219.917 49.8497 219.597C49.216 219.277 48.7066 218.786 48.3156 218.128C47.9247 217.471 47.6937 216.677 47.6226 215.753L47.593 215.368C47.5219 214.444 47.6226 213.621 47.9069 212.91C48.1853 212.199 48.6118 211.63 49.1863 211.216C49.7609 210.801 50.4361 210.564 51.218 210.505C51.9939 210.446 52.7047 210.576 53.3326 210.896C53.9664 211.216 54.4758 211.708 54.8667 212.371C55.2576 213.034 55.4886 213.828 55.5597 214.752L55.5893 215.131Z" fill="#27235E"/>
<path d="M68.1584 205.962L69.6392 215.321L68.4131 215.8L67.6727 216.085L64.2669 211.121L65.1139 217.08L64.024 217.5L63.1474 217.844L57.9113 209.936L59.8245 209.196L63.1948 214.663L62.2174 208.266L63.8522 207.632L67.4535 213.011L66.2511 206.696L68.1584 205.962Z" fill="#27235E"/>
<path d="M77.6178 200.465L79.223 201.988L81.7226 199.352L82.925 200.495L80.4254 203.131L83.1264 205.695L81.7048 207.194L74.9819 200.821L79.1933 196.384L80.4017 197.533L77.6178 200.465Z" fill="#27235E"/>
<path d="M83.541 192.741L85.3357 193.701L87.0179 190.526L88.4395 191.284L86.7573 194.453L88.7831 195.525L90.7614 191.794L92.2304 192.576L89.9262 196.917L89.2806 198.131L81.0947 193.79L84.0504 188.228L85.5194 189.01L83.541 192.741Z" fill="#27235E"/>
<path d="M89.7012 184.23L89.9736 182.779C90.0565 182.334 90.0032 181.973 89.8196 181.695C89.636 181.416 89.3458 181.244 88.943 181.167C88.5343 181.09 88.1967 181.15 87.9242 181.339C87.6517 181.529 87.474 181.849 87.3911 182.299L87.1186 183.75L89.7012 184.23ZM95.4644 179.941L95.5592 179.959L95.1564 182.139L91.5966 183.181L91.3419 184.538L94.5937 185.142L94.2146 187.174L85.1047 185.48L85.7504 181.997C85.8807 181.298 86.0998 180.711 86.4019 180.237C86.7099 179.764 87.089 179.432 87.551 179.236C88.013 179.041 88.5402 178.994 89.1325 179.106C89.79 179.231 90.2994 179.467 90.6548 179.817C91.0102 180.166 91.259 180.628 91.4011 181.191L95.4644 179.941Z" fill="#27235E"/>
<path d="M95.571 164.31V166.377H93.2906L88.8067 166.176L95.571 168.557V169.943L88.8067 172.324L93.2906 172.117H95.571V174.178H86.3071V171.477L92.8345 169.25L86.3071 167.023V164.31H95.571Z" fill="#27235E"/>
<path d="M87.9715 155.988H90.0091V152.404H91.6202V155.988H93.9066V151.765H95.571V156.687V158.061H86.3071V151.765H87.9715V155.988Z" fill="#27235E"/>
<path d="M95.571 140.487L89.707 143.987H95.571V146.061H86.3071V143.987L92.177 140.487H86.3071V138.425H95.571V140.487Z" fill="#27235E"/>
<path d="M87.9715 125.086V127.894H95.571V129.961H87.9715V132.721H86.3071V125.086H87.9715Z" fill="#27235E"/>
<path d="M90.7318 114.034C89.8077 114.034 89.097 114.2 88.6113 114.531C88.1196 114.863 87.8768 115.331 87.8768 115.947C87.8768 116.563 88.1196 117.037 88.6113 117.363C89.097 117.688 89.8077 117.848 90.7377 117.848H91.1405C92.0645 117.848 92.7753 117.682 93.2669 117.351C93.7585 117.019 94.0073 116.545 94.0073 115.929C94.0073 115.325 93.7585 114.857 93.261 114.525C92.7634 114.2 92.0586 114.034 91.1345 114.034H90.7318V114.034ZM91.1345 111.937C92.0645 111.937 92.87 112.109 93.5571 112.44C94.2442 112.778 94.7714 113.246 95.1386 113.85C95.5059 114.454 95.6895 115.141 95.6895 115.923C95.6895 116.705 95.5059 117.404 95.1386 118.008C94.7714 118.612 94.2442 119.086 93.5571 119.424C92.87 119.761 92.0586 119.927 91.1345 119.927H90.7495C89.8196 119.927 89.014 119.761 88.321 119.424C87.6339 119.092 87.1008 118.618 86.7336 118.02C86.3664 117.416 86.1827 116.723 86.1827 115.941C86.1827 115.159 86.3664 114.466 86.7336 113.862C87.1008 113.258 87.6339 112.784 88.321 112.446C89.0081 112.109 89.8196 111.943 90.7495 111.943H91.1345V111.937Z" fill="#27235E"/>
<path d="M90.5955 103.917V102.442C90.5955 101.986 90.4771 101.642 90.2461 101.405C90.0151 101.168 89.6952 101.05 89.2865 101.05C88.8719 101.05 88.5461 101.168 88.3151 101.405C88.0841 101.642 87.9656 101.986 87.9656 102.448V103.923H90.5955V103.917ZM95.4763 98.6511H95.571V100.866L92.2599 102.543V103.923H95.571V105.99H86.3071V102.448C86.3071 101.737 86.4137 101.121 86.627 100.6C86.8402 100.079 87.1541 99.6818 87.5747 99.4034C87.9952 99.125 88.5046 98.9887 89.1029 98.9887C89.7722 98.9887 90.3171 99.1309 90.7318 99.4093C91.1464 99.6877 91.4781 100.096 91.7209 100.624L95.4763 98.6511Z" fill="#27235E"/>
<path d="M86.3071 88.321V86.0821L92.2303 89.097H95.571V91.1938H92.2303L86.3071 94.2087V91.9638L90.3705 90.1454L86.3071 88.321Z" fill="#27235E"/>
</svg>
