<svg xmlns="http://www.w3.org/2000/svg" width="200" height="120" viewBox="0 0 200 120" xmlns:xlink="http://www.w3.org/1999/xlink"><defs><rect id="a" width="93" height="8" x="54" y="56" rx="4"/><mask id="d" width="93" height="8" x="0" y="0" fill="#fff"><use xlink:href="#a"/></mask><circle id="b" cx="20" cy="20" r="20"/><mask id="e" width="44" height="44" x="-2" y="-2"><path fill="#fff" d="M-2-2h44v44H-2z"/><use xlink:href="#b"/></mask><rect id="c" width="12" height="16" x="14" y="5" rx="6"/><mask id="g" width="12" height="16" x="0" y="0" fill="#fff"><use xlink:href="#c"/></mask></defs><g fill="none" fill-rule="evenodd"><path fill="#DFF8FC" stroke="#00CBED" stroke-width="2" d="M100 28l27.713 16v32L100 92 72.287 76V44z"/><path fill="#FFF" stroke="#00CBED" stroke-width="2" d="M103 53H64.257c-6.998 0-20.615-14-33.32-14C18.234 39 13 54.558 13 54.558l1.144 3.546 13.925-4.787 2.384 1.635.951 3.13-1.993 2.687-13.2 4.58.905 2.584s2.163 4.87 18.85 4.87L38.678 81s14.515-14 26.034-14h71.03c6.998 0 20.615 14 33.32 14C181.766 81 187 65.442 187 65.442l-1.144-3.546-13.925 4.787-2.384-1.635-4.964-16.039 1.994-2.688 13.199-4.58-.905-2.584s-2.299-4.91-18.985-4.91A464.72 464.72 0 0 0 161.321 39s-14.515 14-26.034 14H103z"/><path stroke="#00CBED" d="M31.31 39.319L43.5 76.5" stroke-linecap="square"/><path stroke="#00CBED" stroke-width="2" d="M31.789 59.333l4.066 13.048" stroke-linecap="square"/><g transform="translate(35 56)"><rect width="12" height="11" x="2" y="2" fill="#FFF" stroke="#00CBED" transform="rotate(-17 8 7.5)" rx="2"/><path fill="#00CBED" d="M4.343 9.196l6.784-4.24.53.848-6.784 4.24zm3.454 1.034l4.24-2.649.53.848-4.24 2.65zM3.466 6.326l4.24-2.65.53.849-4.24 2.65z"/></g><path stroke="#00CBED" d="M168.69 80.681L156.5 43.5" stroke-linecap="square"/><path stroke="#00CBED" stroke-width="2" d="M168 60l-6.29-19.836" stroke-linecap="square"/><g transform="translate(149 49)"><rect width="12" height="11" x="2" y="2" fill="#FFF" stroke="#00CBED" transform="rotate(163 8 7.5)" rx="2"/><path fill="#00CBED" d="M11.657 5.804l-6.784 4.24-.53-.848 6.784-4.24zM8.203 4.77l-4.24 2.649-.53-.848 4.24-2.65zm4.333 3.903l-4.24 2.65-.53-.849 4.24-2.65z"/></g><use fill="#DFF8FC" stroke="#00CBED" stroke-width="2" mask="url(#d)" xlink:href="#a"/><path fill="#DFF8FC" stroke="#00CBED" d="M155.076 32.226a1.72 1.72 0 0 1 1.148-2.15 1.72 1.72 0 0 1 2.155 1.14l3.88 12.694-3.302 1.01-3.881-12.694z"/><path fill="#00CBED" d="M153 33.585l1.913-.585.584 1.913-1.912.584zm1 3l1.913-.585.584 1.913-1.912.584z"/><g transform="translate(80 40)"><mask id="f" fill="#fff"><use xlink:href="#b"/></mask><use fill="#FFF" xlink:href="#b"/><use stroke="#00CBED" stroke-width="4" mask="url(#e)" xlink:href="#b"/><path fill="#DFF8FC" stroke="#00CBED" d="M5 42.547v-7.542C5 29.479 9.475 25 15 25h10c5.523 0 10 4.476 10 10.005l.117 8.666" mask="url(#f)"/><g fill="#DFF8FC" stroke="#00CBED" stroke-width="2" mask="url(#f)"><use mask="url(#g)" xlink:href="#c"/></g></g></g></svg>