<svg xmlns="http://www.w3.org/2000/svg" width="200" height="120" viewBox="0 0 200 120" xmlns:xlink="http://www.w3.org/1999/xlink"><defs><rect id="a" width="89" height="70" rx="3"/><mask id="n" width="89" height="70" x="0" y="0" fill="#fff"><use xlink:href="#a"/></mask><rect id="b" width="89" height="70" rx="3"/><mask id="o" width="89" height="70" x="0" y="0" fill="#fff"><use xlink:href="#b"/></mask><path id="c" d="M0 0h35v15H0z"/><mask id="p" width="35" height="15" x="0" y="0" fill="#fff"><use xlink:href="#c"/></mask><path id="d" d="M0 0h35v5H0z"/><mask id="q" width="35" height="5" x="0" y="0" fill="#fff"><use xlink:href="#d"/></mask><path id="e" d="M0 0h35v15H0z"/><mask id="r" width="35" height="15" x="0" y="0" fill="#fff"><use xlink:href="#e"/></mask><path id="f" d="M0 0h35v5H0z"/><mask id="s" width="35" height="5" x="0" y="0" fill="#fff"><use xlink:href="#f"/></mask><path id="g" d="M0 0h35v15H0z"/><mask id="t" width="35" height="15" x="0" y="0" fill="#fff"><use xlink:href="#g"/></mask><path id="h" d="M0 0h35v5H0z"/><mask id="u" width="35" height="5" x="0" y="0" fill="#fff"><use xlink:href="#h"/></mask><path id="i" d="M0 0h35v15H0z"/><mask id="v" width="35" height="15" x="0" y="0" fill="#fff"><use xlink:href="#i"/></mask><path id="j" d="M0 0h35v5H0z"/><mask id="w" width="35" height="5" x="0" y="0" fill="#fff"><use xlink:href="#j"/></mask><circle id="k" cx="83.5" cy="5.5" r="1.5"/><mask id="x" width="3" height="3" x="0" y="0" fill="#fff"><use xlink:href="#k"/></mask><circle id="l" cx="79.5" cy="5.5" r="1.5"/><mask id="y" width="3" height="3" x="0" y="0" fill="#fff"><use xlink:href="#l"/></mask><circle id="m" cx="75.5" cy="5.5" r="1.5"/><mask id="z" width="3" height="3" x="0" y="0" fill="#fff"><use xlink:href="#m"/></mask></defs><g fill="none" fill-rule="evenodd"><g transform="translate(93 25)"><use fill="#DFF8FC" stroke="#00CBED" stroke-width="4" mask="url(#n)" xlink:href="#a"/><path fill="#00CBED" fill-opacity=".195" d="M10 2h9v66h-9z"/><path fill="#00CBED" d="M76 2h1v66h-1zM24 16h6v1h-6zm4 3h20v1H28zm0 3h18v1H28zm2 3h22v1H30zm0 3h10v1H30zm-2 3h7v1h-7zm-4 3h6v1h-6zm0 3h11v1H24zm4 3h21v1H28zm0 3h18v1H28zm2 3h22v1H30zm-2 3h10v1H28zm-4 3h6v1h-6z"/></g><g transform="translate(18 25)"><use fill="#FFF" stroke="#00CBED" stroke-width="4" mask="url(#o)" xlink:href="#b"/><g stroke="#00CBED" stroke-width="2" transform="translate(8 25)"><use mask="url(#p)" xlink:href="#c"/><use fill="#DFF8FC" mask="url(#q)" xlink:href="#d"/></g><g stroke="#00CBED" stroke-width="2" transform="translate(8 43)"><use mask="url(#r)" xlink:href="#e"/><use fill="#DFF8FC" mask="url(#s)" xlink:href="#f"/></g><g stroke="#00CBED" stroke-width="2" transform="translate(46 25)"><use mask="url(#t)" xlink:href="#g"/><use fill="#DFF8FC" mask="url(#u)" xlink:href="#h"/></g><g stroke="#00CBED" stroke-width="2" transform="translate(46 43)"><use mask="url(#v)" xlink:href="#i"/><use fill="#DFF8FC" mask="url(#w)" xlink:href="#j"/></g><path fill="#00CBED" d="M7 15h28v2H7z"/><rect width="89" height="10" fill="#00CBED" fill-opacity=".124" rx="3"/><path fill="#00CBED" d="M1.78 9h85.66v1H1.78z"/><use fill="#FFF" stroke="#00CBED" stroke-width="2" mask="url(#x)" xlink:href="#k"/><use fill="#FFF" stroke="#00CBED" stroke-width="2" mask="url(#y)" xlink:href="#l"/><use fill="#FFF" stroke="#00CBED" stroke-width="2" mask="url(#z)" xlink:href="#m"/></g></g></svg>