<svg width="240" height="110" viewBox="0 0 240 110" fill="none" xmlns="http://www.w3.org/2000/svg"><path d="M47.947 5.064l.292-.04c2.532-.318 5.05-.623 7.582-.901.385-.04.769-.067 1.127-.067 1.431 0 2.611.358 3.513 1.06.888.69 1.392 1.631 1.51 2.785.107.994-.039 1.802-.437 2.439a5.155 5.155 0 0 1-.98 1.166c.291.093.556.212.808.332.438.199.809.464 1.114.755.318.305.57.676.768 1.1.186.425.319.915.372 1.485.08.822 0 1.525-.239 2.134a4.007 4.007 0 0 1-1.153 1.604c-.517.438-1.154.796-1.896 1.074-.729.265-1.564.45-2.479.557-2.518.278-5.037.583-7.542.901l-.292.04-2.068-16.424zm5.634 12.275c1.299-.16 2.585-.305 3.884-.45.716-.08 1.272-.266 1.63-.558.332-.265.464-.623.411-1.1-.053-.477-.252-.795-.61-1.007-.278-.16-.676-.239-1.18-.239a6.54 6.54 0 0 0-.689.04l-3.79.437.344 2.877zm-.77-6.376c.995-.12 1.99-.239 2.983-.345.73-.08 1.3-.278 1.684-.557.345-.252.477-.596.438-1.087-.053-.477-.24-.769-.584-.954-.278-.146-.636-.225-1.074-.225-.172 0-.344.013-.543.026-1.074.133-2.148.252-3.235.384l.332 2.758z" fill="#F7EC00"/><path d="M56.948 4.348c1.365 0 2.479.331 3.327 1.007.822.65 1.286 1.512 1.392 2.585v.04c.093.888-.04 1.63-.398 2.214a4.66 4.66 0 0 1-1.352 1.431 8.45 8.45 0 0 1 1.313.478c.397.185.742.424 1.034.702.291.279.53.623.702 1.021.172.398.292.848.345 1.379v.04c.08.729 0 1.378-.226 1.948a3.786 3.786 0 0 1-1.06 1.485c-.49.41-1.087.755-1.803 1.02s-1.511.438-2.413.544c-2.518.278-5.037.583-7.555.901-.663-5.276-1.34-10.552-2.002-15.827a492.26 492.26 0 0 1 7.582-.902c.411-.04.77-.066 1.114-.066zm-4.388 6.946c1.1-.133 2.187-.265 3.288-.384.782-.093 1.391-.292 1.829-.61.437-.318.61-.769.557-1.352v-.04c-.053-.53-.305-.915-.743-1.14-.318-.172-.715-.252-1.22-.252-.185 0-.37.013-.583.04-1.18.132-2.36.278-3.539.41.133 1.088.265 2.215.411 3.328zm.756 6.376c1.392-.159 2.783-.331 4.175-.49.782-.093 1.379-.292 1.79-.623.41-.332.583-.782.517-1.379v-.053c-.053-.53-.305-.928-.756-1.193-.318-.186-.769-.292-1.325-.292-.226 0-.464.014-.73.04-1.365.16-2.73.318-4.096.477.146 1.193.292 2.347.425 3.513zm3.632-13.919c-.371 0-.756.027-1.154.067a926.67 926.67 0 0 0-7.582.901l-.596.08.08.596 2 15.801.08.597.597-.053a539.75 539.75 0 0 1 7.543-.902c.94-.106 1.79-.291 2.545-.57a6.283 6.283 0 0 0 1.988-1.126 4.402 4.402 0 0 0 1.233-1.724c.265-.662.344-1.405.265-2.227v-.026l-.013-.066a4.698 4.698 0 0 0-.398-1.525 3.863 3.863 0 0 0-.835-1.193 4.642 4.642 0 0 0-1.193-.822c-.133-.053-.265-.12-.398-.172.252-.265.477-.57.676-.888.425-.69.597-1.564.49-2.585-.132-1.286-.675-2.293-1.63-3.036-.954-.742-2.187-1.127-3.698-1.127zm-4.136 4.72c.98-.12 1.962-.226 2.93-.345.185-.027.344-.027.503-.027.385 0 .703.067.928.186.252.146.385.345.424.676.053.517-.119.716-.305.848-.344.252-.861.425-1.55.504l-2.691.318-.133-1.087-.106-1.073zm.756 6.243c1.166-.132 2.333-.278 3.5-.398.238-.026.45-.04.649-.04.45 0 .795.067 1.02.2.279.172.425.397.464.742.053.53-.132.755-.291.888-.318.252-.809.424-1.485.49-1.193.133-2.386.279-3.592.411l-.265-2.293z" fill="#00529C"/><path d="M65.59 3.102l.306-.027c1.206-.119 2.399-.225 3.605-.331l.305-.027 1.458 16.478-.305.026-3.5.318-.304.027L65.59 3.102z" fill="#F7EC00"/><path d="M69.514 3.036c.478 5.289.942 10.591 1.406 15.88l-3.513.319c-.504-5.29-1.008-10.579-1.511-15.881 1.22-.093 2.425-.212 3.618-.318zm.544-.65l-.597.053c-1.206.106-2.399.212-3.605.332l-.597.053.053.596 1.511 15.88.053.597.597-.053c1.167-.106 2.333-.225 3.5-.318l.61-.053-.054-.596-.715-8.113-.69-7.768-.066-.61z" fill="#00529C"/><path d="M82.44 18.572c-.995 0-1.936-.133-2.798-.411a8.399 8.399 0 0 1-2.876-1.565 8.44 8.44 0 0 1-2.015-2.545c-.517-1.007-.822-2.12-.915-3.327-.093-1.22.04-2.36.384-3.407a8.36 8.36 0 0 1 1.63-2.85 8.464 8.464 0 0 1 2.692-2.041c1.047-.53 2.227-.835 3.5-.915.33-.026.662-.04.967-.04.385 0 .742.014 1.087.053.623.067 1.22.173 1.75.332a8.79 8.79 0 0 1 1.55.623c.491.238.969.53 1.42.861l.238.186s-1.59 2.095-2.293 3.036l-.173.238-.238-.172a9.425 9.425 0 0 0-.941-.61 4.374 4.374 0 0 0-.955-.424 6.36 6.36 0 0 0-1.047-.239 6.302 6.302 0 0 0-.742-.053c-.16 0-.319 0-.491.014a4.125 4.125 0 0 0-1.684.49 4.856 4.856 0 0 0-1.325 1.1c-.371.451-.65.968-.835 1.538a4.663 4.663 0 0 0-.2 1.83c.054.729.213 1.365.478 1.921a4.396 4.396 0 0 0 2.585 2.32c.464.16.968.239 1.498.239.12 0 .239 0 .371-.013.61-.04 1.193-.16 1.71-.345.464-.16.888-.384 1.26-.663l-.106-1.803c-1.088.067-3.566.239-3.566.239l-.24-3.619.305-.026a416.69 416.69 0 0 1 7.052-.425l.305-.013.398 7.357-.106.093c-.809.756-1.79 1.432-2.904 2.002-1.14.57-2.465.914-3.95 1.02-.278 0-.53.014-.782.014z" fill="#F7EC00"/><path d="M83.01 1.763c.37 0 .728.013 1.06.053.61.066 1.18.16 1.696.318.53.146 1.021.345 1.498.597.464.252.928.53 1.366.861l-2.108 2.784a9.098 9.098 0 0 0-.968-.623 6.046 6.046 0 0 0-.994-.45 5.792 5.792 0 0 0-1.1-.252 7.138 7.138 0 0 0-.782-.053c-.16 0-.332 0-.517.013-.65.04-1.26.225-1.803.517a5.069 5.069 0 0 0-1.419 1.18 4.808 4.808 0 0 0-.888 1.643 4.989 4.989 0 0 0-.212 1.949v.04a5.63 5.63 0 0 0 .504 1.988c.278.597.663 1.1 1.127 1.524a4.352 4.352 0 0 0 1.63.942 4.878 4.878 0 0 0 1.591.252c.132 0 .252 0 .384-.014a6.502 6.502 0 0 0 1.79-.358 4.938 4.938 0 0 0 1.471-.808c-.04-.756-.092-1.511-.132-2.28-1.193.066-2.386.146-3.58.225l-.198-3.022c2.346-.16 4.692-.305 7.052-.424.12 2.306.252 4.613.371 6.92-.782.741-1.736 1.391-2.837 1.948-1.1.557-2.386.888-3.844.98-.252.014-.49.027-.742.027a9.04 9.04 0 0 1-2.718-.397c-1.06-.332-1.988-.835-2.77-1.512a7.823 7.823 0 0 1-1.936-2.452 8.54 8.54 0 0 1-.888-3.221v-.053c-.093-1.14.027-2.214.385-3.248A8.164 8.164 0 0 1 76.076 4.6a8.09 8.09 0 0 1 2.598-1.975c1.021-.517 2.148-.809 3.394-.888.318.026.636.026.941.026zm0-.61c-.319 0-.65.014-.995.04-1.312.093-2.532.411-3.619.954a8.63 8.63 0 0 0-2.77 2.121 8.65 8.65 0 0 0-1.697 2.957c-.371 1.087-.504 2.266-.411 3.486.106 1.299.424 2.452.954 3.486a8.505 8.505 0 0 0 2.081 2.638 8.646 8.646 0 0 0 2.983 1.617c.901.279 1.87.425 2.89.425.252 0 .517-.014.782-.027 1.524-.106 2.903-.45 4.07-1.047 1.153-.583 2.147-1.273 2.982-2.055l.199-.185-.013-.279-.2-3.632-.185-3.287-.026-.597-.597.027c-2.505.132-4.812.278-7.052.424l-.596.04.04.596.092 1.3.12 1.722.04.597.596-.04c.994-.066 1.975-.132 2.969-.185l.04.596.04.756a4.573 4.573 0 0 1-1.048.53 5.933 5.933 0 0 1-1.63.318c-.12.013-.239.013-.345.013-.49 0-.967-.08-1.392-.225a4.328 4.328 0 0 1-1.418-.822 4.065 4.065 0 0 1-.994-1.339c-.252-.53-.398-1.127-.451-1.776a4.466 4.466 0 0 1 .954-3.208 4.302 4.302 0 0 1 1.246-1.034 3.83 3.83 0 0 1 1.552-.45c.159-.014.318-.014.463-.014.252 0 .49.013.703.04.345.04.69.12.994.225.305.106.61.239.902.398.291.159.596.358.914.583l.477.345.358-.477 2.108-2.784.371-.49-.49-.359c-.464-.344-.941-.65-1.432-.901a9.45 9.45 0 0 0-1.604-.65 9.455 9.455 0 0 0-1.803-.331c-.384-.013-.755-.04-1.153-.04z" fill="#00529C"/><path d="M99.725.862l.305-.014 3.619-.119.305-.013.477 16.543-.305.014c-1.167.04-2.346.066-3.513.119l-.305.013L99.725.862z" fill="#F7EC00"/><path d="M103.649 1.034c.159 5.316.305 10.631.464 15.934-1.167.04-2.347.066-3.513.119l-.557-15.934c1.193-.053 2.399-.093 3.606-.119zm.583-.623l-.597.013-3.618.12-.597.026.027.597v.08l.556 15.853.027.597.596-.027 3.513-.119h.583l-.013-.597-.464-15.933-.013-.61z" fill="#00529C"/><path d="M114.254 17.3c-1.194 0-2.4-.2-3.566-.584a9.897 9.897 0 0 1-3.341-1.909l-.225-.186 2.412-2.982.226.185c.729.57 1.471 1.008 2.227 1.34a5.993 5.993 0 0 0 2.359.463c.743 0 1.26-.132 1.618-.371a.965.965 0 0 0 .464-.862c0-.225-.04-.384-.107-.517-.066-.119-.185-.238-.384-.357a5.94 5.94 0 0 0-.941-.425c-.411-.146-.955-.291-1.631-.45a29.048 29.048 0 0 1-2.266-.65c-.69-.225-1.299-.53-1.79-.901a3.861 3.861 0 0 1-1.193-1.419c-.292-.57-.437-1.272-.464-2.107-.013-.822.119-1.525.398-2.161a4.753 4.753 0 0 1 1.219-1.644A5.66 5.66 0 0 1 111.165.69c.729-.252 1.538-.384 2.412-.397h.146c1.18 0 2.28.172 3.275.503 1.033.345 2.001.862 2.876 1.525l.225.172-2.2 3.115-.239-.159a11.393 11.393 0 0 0-2.094-1.1 5.439 5.439 0 0 0-1.922-.371c-.676.013-1.14.132-1.432.358-.265.212-.398.464-.398.755 0 .252.053.425.133.584.08.132.225.265.437.384.239.133.584.265 1.034.398.451.132 1.034.278 1.737.464.822.198 1.577.437 2.24.715.663.266 1.246.61 1.71.995a4.03 4.03 0 0 1 1.087 1.418c.239.544.358 1.18.358 1.922 0 .875-.159 1.63-.464 2.28a4.777 4.777 0 0 1-1.286 1.657 5.981 5.981 0 0 1-1.935 1.02 8.42 8.42 0 0 1-2.452.359h-.159v.013z" fill="#F7EC00"/><path d="M113.75.597c1.153 0 2.214.159 3.181.49a9.702 9.702 0 0 1 2.784 1.485 325.99 325.99 0 0 0-1.856 2.638 12.102 12.102 0 0 0-2.147-1.14 5.714 5.714 0 0 0-2.055-.398h-.053c-.703.013-1.22.146-1.577.424-.345.265-.517.61-.517.994v.053c0 .252.053.478.159.676.106.186.291.358.556.504.265.146.623.292 1.087.424.464.133 1.034.279 1.737.464.822.2 1.564.438 2.2.703.65.265 1.193.583 1.631.954.437.371.769.809.994 1.313.225.503.331 1.1.331 1.802v.04c0 .796-.145 1.498-.437 2.108a4.35 4.35 0 0 1-1.206 1.55c-.517.425-1.127.743-1.843.969a7.828 7.828 0 0 1-2.373.344h-.132c-1.18 0-2.333-.185-3.473-.57a9.8 9.8 0 0 1-3.248-1.842c.676-.836 1.352-1.684 2.041-2.519a10.67 10.67 0 0 0 2.294 1.379c.755.331 1.577.49 2.479.49h.066c.729 0 1.299-.146 1.71-.41.398-.266.61-.637.596-1.114v-.053c0-.226-.039-.425-.132-.61-.093-.172-.252-.332-.491-.49a5.12 5.12 0 0 0-.994-.451 17.706 17.706 0 0 0-1.657-.464 34.317 34.317 0 0 1-2.24-.637 6.448 6.448 0 0 1-1.71-.861 3.695 3.695 0 0 1-1.114-1.313c-.265-.53-.411-1.193-.424-1.975v-.04c-.013-.729.106-1.391.371-1.988.265-.596.65-1.1 1.14-1.538a5.373 5.373 0 0 1 1.79-1.007 7.15 7.15 0 0 1 2.32-.371c.106-.013.159-.013.212-.013zm0-.597h-.146c-.901.013-1.75.146-2.505.41-.769.266-1.432.637-1.989 1.128a5.246 5.246 0 0 0-1.299 1.75c-.318.662-.464 1.418-.437 2.24.026.928.185 1.67.49 2.28a4.21 4.21 0 0 0 1.286 1.524c.517.385 1.153.703 1.869.941.716.239 1.471.451 2.28.65.676.159 1.206.305 1.604.45.384.133.676.266.875.385.199.12.252.212.265.252.04.093.066.212.066.331 0 .319-.092.504-.331.663-.305.199-.769.305-1.379.318h-.066a5.67 5.67 0 0 1-2.24-.437c-.729-.318-1.445-.756-2.161-1.3l-.437-.37-.372.45c-.676.849-1.365 1.684-2.041 2.519l-.371.45.437.385a10.517 10.517 0 0 0 3.447 1.962c1.206.398 2.426.596 3.659.596h.132c.915-.013 1.776-.132 2.545-.37.796-.253 1.472-.61 2.042-1.074a4.948 4.948 0 0 0 1.365-1.763c.331-.69.491-1.498.491-2.373 0-.822-.133-1.511-.385-2.095a4.192 4.192 0 0 0-1.166-1.524 6.717 6.717 0 0 0-1.79-1.047 17.114 17.114 0 0 0-2.28-.73c-.689-.172-1.259-.33-1.723-.45-.425-.12-.743-.239-.968-.371-.225-.12-.292-.226-.318-.266a.866.866 0 0 1-.093-.384c0-.186.027-.371.278-.557.239-.185.65-.291 1.207-.291.649 0 1.272.119 1.882.358a11.71 11.71 0 0 1 2.042 1.073l.49.318.331-.477c.623-.875 1.233-1.763 1.856-2.638l.332-.477-.464-.358a9.933 9.933 0 0 0-2.956-1.577C116.083.172 114.956 0 113.75 0z" fill="#00529C"/><path d="M135.344 17.233c-3.765-.106-7.622-.16-11.48-.186h-.305l.106-16.543h.305c1.206 0 2.413.013 3.619.026h.305l-.159 12.752c2.572.04 5.143.093 7.715.16l.305.013-.106 3.791-.305-.013z" fill="#F7EC00"/><path d="M123.97.809c1.206 0 2.413.013 3.619.026l-.159 12.752c2.678.027 5.342.093 8.02.16l-.08 3.194a553.74 553.74 0 0 0-11.479-.199c0-5.315.039-10.631.079-15.933zm-.596-.61v.596c-.04 5.316-.067 10.632-.106 15.947v.597h.596c3.844.026 7.715.093 11.467.199l.596.013.013-.597.08-3.194.013-.597-.596-.013c-2.625-.066-5.064-.12-7.424-.146l.08-6.071.079-6.085.014-.596-.597-.013a329.368 329.368 0 0 0-3.619-.027L123.374.2z" fill="#00529C"/><path d="M150.244 17.843l-.067-.186c-.397-1.153-.808-2.306-1.206-3.46a974.917 974.917 0 0 0-6.389-.291 1160.96 1160.96 0 0 1-1.604 3.512l-4.242-.145.185-.411a805.435 805.435 0 0 1 7.53-15.801l.093-.173.198.013c1.114.053 2.227.093 3.341.146l.199.014.066.185a819.334 819.334 0 0 1 6.071 16.424l.159.424-4.334-.251zm-2.612-7.397l-1.511-4.176a556.518 556.518 0 0 0-1.882 4.017l3.393.159z" fill="#F7EC00"/><path d="M144.729 1.193c1.114.053 2.227.093 3.341.146a794.93 794.93 0 0 1 6.071 16.41c-1.22-.066-2.453-.145-3.672-.211-.424-1.22-.848-2.44-1.273-3.646a395.959 395.959 0 0 0-6.8-.305c-.53 1.167-1.074 2.347-1.604 3.513l-3.579-.12a711.823 711.823 0 0 1 7.516-15.787zm3.341 9.57c-.637-1.762-1.273-3.512-1.909-5.262-.796 1.697-1.591 3.38-2.386 5.077 1.431.053 2.863.12 4.295.186zM144.358.584l-.172.358a769.875 769.875 0 0 0-7.53 15.815l-.384.822.901.026 3.579.12.398.012.159-.37c.477-1.048.954-2.095 1.432-3.156 2.001.08 3.99.173 5.991.266.385 1.087.769 2.173 1.14 3.274l.133.384.398.027c1.219.066 2.452.132 3.672.212l.901.053-.305-.848A825.287 825.287 0 0 0 148.6 1.152l-.146-.37-.384-.014c-1.114-.053-2.227-.106-3.341-.146l-.371-.04zm.331 9.425c.464-.994.928-1.975 1.392-2.956.371 1.02.743 2.055 1.114 3.076l-2.506-.12z" fill="#00529C"/><path d="M168.179 19.089l-.08-.12a563.747 563.747 0 0 0-6.508-9.995l-.69 9.545-4.056-.279 1.087-16.503 3.778.265.08.119a610.428 610.428 0 0 1 6.376 9.65l.782-9.2 4.162.372-1.511 16.477-3.42-.331z" fill="#F7EC00"/><path d="M158.21 2.041c1.114.067 2.214.146 3.328.226a559.293 559.293 0 0 1 6.853 10.38l.835-9.784 3.566.318c-.49 5.29-.968 10.592-1.458 15.881-.994-.093-1.989-.172-2.983-.265a529.417 529.417 0 0 0-6.999-10.724c-.238 3.367-.49 6.734-.729 10.114l-3.46-.238c.345-5.303.703-10.605 1.047-15.908zm-.556-.636l-.04.597-.557 8.404-.49 7.503-.04.596.596.04 3.46.239.597.04.04-.597.609-8.365a623.077 623.077 0 0 1 6.019 9.253l.159.252.291.026c.994.093 1.989.173 2.983.266l.596.053.053-.597.703-7.609.756-8.272.053-.596-.597-.053-3.566-.318-.596-.053-.053.596-.69 8.033a579.388 579.388 0 0 0-5.912-8.92l-.159-.24-.292-.026c-1.113-.08-2.227-.16-3.327-.225l-.596-.027z" fill="#00529C"/><path d="M183.132 20.507c-.398 0-.809-.027-1.233-.066a483.03 483.03 0 0 0-6.204-.65l-.292-.026L177.047 3.3l.292.026c2.134.212 4.255.438 6.389.676 1.326.146 2.519.49 3.566 1.034 1.047.544 1.922 1.233 2.625 2.068a7.815 7.815 0 0 1 1.524 2.824c.305 1.047.385 2.147.239 3.314-.159 1.193-.504 2.253-1.061 3.194a7.828 7.828 0 0 1-2.134 2.386c-.861.637-1.856 1.1-2.969 1.406a9.979 9.979 0 0 1-2.386.278zm-.822-3.818c.225.027.464.04.676.04.424 0 .835-.053 1.219-.146a4.256 4.256 0 0 0 1.538-.742 4.142 4.142 0 0 0 1.087-1.3c.279-.516.464-1.1.544-1.762.079-.716.053-1.34-.106-1.91a4.157 4.157 0 0 0-.756-1.51 4.225 4.225 0 0 0-1.352-1.087 5.421 5.421 0 0 0-1.856-.544l-2.466-.265-.954 8.961 2.426.265z" fill="#F7EC00"/><path d="M177.312 3.619c2.135.212 4.256.437 6.39.676 1.286.146 2.452.477 3.46.994 1.007.53 1.855 1.193 2.531 1.989a7.627 7.627 0 0 1 1.472 2.717 7.711 7.711 0 0 1 .225 3.182v.053c-.146 1.113-.477 2.12-1.007 3.035a7.572 7.572 0 0 1-2.055 2.293c-.835.61-1.803 1.06-2.876 1.352a9.322 9.322 0 0 1-2.307.292c-.398 0-.795-.026-1.206-.066-2.068-.226-4.136-.45-6.204-.65.517-5.289 1.047-10.578 1.577-15.867zm5.687 13.415a5.16 5.16 0 0 0 1.299-.16 4.415 4.415 0 0 0 1.644-.794 4.426 4.426 0 0 0 1.167-1.392 5.08 5.08 0 0 0 .57-1.87v-.04c.079-.715.053-1.365-.12-1.974a4.15 4.15 0 0 0-.822-1.618 4.473 4.473 0 0 0-1.445-1.166c-.57-.305-1.232-.49-1.961-.583-.928-.106-1.843-.2-2.771-.305-.331 3.181-.676 6.376-1.007 9.557.914.093 1.816.2 2.717.292.252.04.491.053.729.053zm-6.23-14.065l-.053.597-1.578 15.867-.053.597.597.053c2.068.212 4.136.424 6.204.65.437.052.861.066 1.272.066.862 0 1.684-.106 2.453-.305a9.138 9.138 0 0 0 3.075-1.445 8.153 8.153 0 0 0 2.227-2.479A8.478 8.478 0 0 0 192 13.309c.159-1.246.066-2.4-.252-3.473a7.947 7.947 0 0 0-1.591-2.943c-.729-.862-1.643-1.577-2.717-2.134-1.074-.557-2.32-.915-3.672-1.06a550.468 550.468 0 0 0-6.389-.677l-.61-.053zm3.446 13.19l.61-5.687.279-2.677 2.174.238c.649.08 1.246.239 1.749.517.504.265.928.61 1.26 1.008.331.41.57.874.702 1.391.146.53.173 1.114.093 1.75-.08.676-.252 1.22-.504 1.697a3.885 3.885 0 0 1-1.007 1.206 3.822 3.822 0 0 1-1.419.69 4.544 4.544 0 0 1-1.14.145c-.212 0-.424-.013-.649-.04-.729-.079-1.432-.158-2.148-.238zm-57.875 88.219a3.65 3.65 0 0 1-1.18-.186 2.403 2.403 0 0 1-.902-.557 2.445 2.445 0 0 1-.57-.927 3.819 3.819 0 0 1-.198-1.286v-3.858h1.179v3.818c0 .623.146 1.1.451 1.432.305.331.716.49 1.246.49s.941-.159 1.233-.464c.305-.318.451-.782.451-1.405v-3.87h1.179v3.804c0 .503-.066.941-.212 1.312a2.51 2.51 0 0 1-.583.941 2.544 2.544 0 0 1-.901.57c-.358.133-.743.186-1.193.186zm4.414-6.814h1.1l3.593 4.64v-4.64h1.166v6.721h-.994l-3.699-4.772v4.772h-1.166v-6.72zm7.476 0h4.998v1.087h-3.818v1.816h3.38v1.087h-3.38v2.731h-1.18v-6.72zm6.27 0h1.18v6.721h-1.18v-6.72zm2.877 0h1.18v5.634h3.526v1.087h-4.706v-6.72zm6.535 1.087h-2.134v-1.087h5.435v1.087h-2.134v5.634h-1.18v-5.634h.013zm4.467-1.087h4.985v1.06h-3.805v1.75h3.367v1.061h-3.367v1.803h3.844v1.06h-5.024v-6.734zm6.337 0h2.996c.424 0 .795.067 1.126.173.332.119.597.278.822.49.186.186.318.398.411.636.093.239.146.517.146.809v.013c0 .557-.146.994-.451 1.326-.291.331-.676.57-1.153.702l1.816 2.546h-1.392l-1.657-2.347h-1.471v2.347h-1.18v-6.695h-.013zm2.903 3.314c.424 0 .755-.106 1.007-.305.252-.199.372-.477.372-.808v-.027c0-.358-.12-.636-.372-.822-.238-.185-.583-.278-1.02-.278h-1.71v2.24h1.723zm3.937-3.314h4.984v1.06h-3.804v1.75h3.367v1.061h-3.367v1.803h3.844v1.06h-5.024v-6.734zm6.323 0h2.505c.531 0 1.008.093 1.445.252.438.172.809.411 1.127.703.318.304.557.65.729 1.06.172.411.265.849.265 1.326v.013c0 .477-.093.915-.265 1.326a2.974 2.974 0 0 1-.729 1.06 3.397 3.397 0 0 1-1.127.716 3.896 3.896 0 0 1-1.445.265h-2.505v-6.72zm2.505 5.634c.345 0 .676-.053.955-.172a2.028 2.028 0 0 0 1.193-1.18c.106-.278.172-.583.172-.901v-.014c0-.331-.053-.623-.172-.901a2.021 2.021 0 0 0-.464-.716 2.325 2.325 0 0 0-.729-.477 2.498 2.498 0 0 0-.955-.172h-1.325v4.546h1.325v-.013zm10.062-5.687h1.1l2.956 6.761h-1.246l-.676-1.617h-3.168l-.69 1.617h-1.206l2.93-6.76zm1.683 4.096l-1.166-2.69-1.154 2.69h2.32zm3.42-4.043h1.18v5.634h3.526v1.087h-4.706v-6.72zm5.846 0h4.984v1.06h-3.804v1.75h3.367v1.061h-3.367v1.803h3.844v1.06h-5.024v-6.734zM17.511 91.427c-3.009 0-6.018-.517-8.921-1.551-2.903-1.034-5.58-2.638-7.954-4.773l-.212-.198 5.488-6.562.226.186c1.776 1.445 3.605 2.598 5.461 3.433 1.843.835 3.884 1.26 6.084 1.26 1.724 0 3.076-.319 4.017-.929.915-.61 1.352-1.418 1.352-2.479 0-.623-.093-1.087-.278-1.471-.186-.384-.544-.742-1.074-1.087-.557-.358-1.352-.73-2.36-1.1-1.02-.371-2.36-.77-3.99-1.167a65.417 65.417 0 0 1-5.434-1.67c-1.631-.597-3.05-1.339-4.19-2.24a9.444 9.444 0 0 1-2.704-3.407c-.636-1.352-.954-3.036-.954-5.024 0-1.949.345-3.619 1.034-5.104a11.575 11.575 0 0 1 2.89-3.844c1.233-1.074 2.717-1.909 4.427-2.479 1.697-.57 3.606-.861 5.647-.861 2.903 0 5.608.437 8.047 1.299a23.425 23.425 0 0 1 6.734 3.725l.225.172-4.825 6.973-.252-.173c-1.736-1.18-3.46-2.12-5.117-2.797-1.643-.676-3.3-1.02-4.944-1.02-1.604 0-2.824.304-3.606.914-.769.61-1.153 1.326-1.153 2.214 0 .69.106 1.206.331 1.63.212.411.623.796 1.207 1.154.623.358 1.484.716 2.558 1.047 1.1.331 2.492.729 4.189 1.18 2.015.53 3.818 1.14 5.355 1.79 1.578.662 2.93 1.47 4.017 2.412a9.443 9.443 0 0 1 2.505 3.34c.557 1.273.849 2.81.849 4.56 0 2.095-.372 3.884-1.087 5.449-.73 1.55-1.75 2.876-3.036 3.923-1.286 1.048-2.85 1.87-4.626 2.413-1.79.583-3.778.862-5.926.862z" fill="#00529C"/><path d="M16.053 50.704c2.877 0 5.528.424 7.94 1.273a22.754 22.754 0 0 1 6.655 3.685l-4.494 6.495c-1.763-1.193-3.486-2.147-5.17-2.836-1.683-.69-3.367-1.048-5.05-1.048-1.684 0-2.943.332-3.791.981-.836.663-1.26 1.472-1.26 2.453v.106c0 .636.12 1.193.371 1.657.239.464.69.888 1.326 1.272.636.371 1.511.73 2.611 1.074 1.114.331 2.506.73 4.19 1.18 1.988.53 3.764 1.113 5.315 1.776 1.564.65 2.877 1.445 3.937 2.36a8.974 8.974 0 0 1 2.426 3.234c.543 1.233.822 2.718.822 4.44v.107c0 1.949-.358 3.685-1.06 5.196a10.52 10.52 0 0 1-2.957 3.818c-1.26 1.034-2.77 1.816-4.533 2.36-1.75.543-3.699.822-5.833.822-2.996 0-5.939-.517-8.815-1.538-2.877-1.02-5.502-2.585-7.861-4.706l5.103-6.111c1.803 1.458 3.646 2.625 5.528 3.473 1.896.862 3.964 1.286 6.204 1.286 1.803 0 3.195-.332 4.189-.981.994-.663 1.485-1.564 1.485-2.73v-.107c0-.557-.107-1.06-.305-1.485-.212-.437-.597-.835-1.18-1.206s-1.392-.755-2.426-1.127c-1.034-.384-2.373-.768-4.03-1.18-1.988-.53-3.791-1.073-5.408-1.656-1.617-.584-2.983-1.313-4.11-2.2a8.913 8.913 0 0 1-2.611-3.288c-.623-1.313-.928-2.943-.928-4.892v-.093c0-1.802.331-3.42 1.008-4.865a10.824 10.824 0 0 1 2.823-3.738c1.206-1.047 2.651-1.856 4.335-2.412 1.683-.557 3.526-.849 5.554-.849zm0-.596c-2.081 0-4.003.291-5.74.875-1.75.583-3.274 1.445-4.533 2.532a11.669 11.669 0 0 0-2.97 3.937c-.702 1.524-1.06 3.234-1.06 5.116v.106c0 2.029.331 3.765.98 5.144a9.62 9.62 0 0 0 2.784 3.513c1.18.914 2.612 1.683 4.282 2.28a66.135 66.135 0 0 0 5.462 1.67c1.63.41 2.969.795 3.977 1.166.98.358 1.762.716 2.293 1.06.49.306.808.637.967.968.173.345.252.77.252 1.233v.106c0 .955-.397 1.684-1.22 2.227-.887.584-2.187.889-3.857.889-2.147 0-4.162-.411-5.952-1.233-1.829-.835-3.645-1.975-5.395-3.394l-.464-.371-.384.45L.37 84.495l-.371.45.424.385a24.055 24.055 0 0 0 8.06 4.825 26.713 26.713 0 0 0 9.014 1.564c2.187 0 4.202-.278 6.005-.848 1.816-.57 3.407-1.392 4.732-2.466 1.326-1.073 2.373-2.439 3.116-4.03.742-1.59 1.113-3.433 1.113-5.461v-.106c0-1.803-.292-3.38-.862-4.68a9.457 9.457 0 0 0-2.585-3.446c-1.113-.954-2.492-1.79-4.096-2.466-1.55-.662-3.367-1.259-5.395-1.802a106.549 106.549 0 0 1-4.175-1.18c-1.048-.318-1.883-.663-2.493-1.008-.53-.318-.901-.662-1.1-1.02-.199-.385-.292-.849-.292-1.379v-.106c0-.782.332-1.432 1.034-1.975.73-.57 1.883-.862 3.42-.862 1.591 0 3.222.332 4.826.994 1.63.663 3.327 1.604 5.05 2.77l.49.332.345-.49 4.494-6.496.318-.464-.437-.344a23.93 23.93 0 0 0-6.827-3.778c-2.452-.862-5.196-1.3-8.126-1.3z" fill="#F7EC00"/><path d="M63.695 90.87V75.082H48.358V90.87h-9.253V50.956h9.253V66.52h15.337V50.956h9.253V90.87h-9.253z" fill="#00529C"/><path d="M72.643 51.261v39.304H64V74.79H48.053v15.775H39.41V51.261h8.643v15.55H64V51.26h8.643zm.596-.597h-9.835v15.551H48.65V50.664h-9.836v40.498h9.836V75.387h14.74v15.775h9.836V50.664h.013z" fill="#F7EC00"/><path d="M146.903 90.87l-18.585-24.404V90.87h-9.133V50.956h8.417l17.975 23.609V50.956h9.134V90.87h-7.808z" fill="#00529C"/><path d="M154.406 51.261v39.304h-7.357l-19.036-24.987v24.987h-8.537V51.261h7.967l18.413 24.192V51.261h8.55zm.597-.597h-9.73v23.013l-17.339-22.774-.186-.239h-8.855v40.498h9.73V67.354l17.962 23.569.186.239h8.245V50.664h-.013z" fill="#F7EC00"/><path d="M163.539 90.87v-39.9h15.629c3.129 0 6.018.503 8.59 1.51 2.572.995 4.812 2.413 6.694 4.19 1.883 1.776 3.341 3.91 4.362 6.31 1.02 2.399 1.537 5.037 1.537 7.834 0 2.916-.517 5.554-1.537 7.98a18.82 18.82 0 0 1-4.362 6.336c-1.869 1.776-4.122 3.195-6.694 4.216-2.572 1.02-5.461 1.537-8.59 1.537h-15.629v-.013zm15.629-8.418c1.71 0 3.301-.278 4.719-.822a10.515 10.515 0 0 0 3.659-2.346c1.021-1.02 1.803-2.24 2.346-3.632.544-1.392.822-2.956.822-4.64 0-1.829-.278-3.406-.822-4.798-.543-1.392-1.325-2.612-2.346-3.632a10.635 10.635 0 0 0-3.659-2.373c-1.418-.557-3.009-.849-4.719-.849h-6.376v23.092h6.376z" fill="#00529C"/><path d="M179.168 51.261c3.102 0 5.926.49 8.471 1.485 2.545.994 4.745 2.372 6.601 4.122a18.354 18.354 0 0 1 4.295 6.204c1.008 2.373 1.511 4.945 1.511 7.715v.106c0 2.77-.503 5.356-1.511 7.755a18.203 18.203 0 0 1-4.295 6.23c-1.856 1.763-4.056 3.142-6.601 4.15-2.545 1.007-5.369 1.51-8.471 1.51h-15.324V51.261h15.324zm-6.681 31.496h6.681c1.763 0 3.367-.278 4.825-.835 1.459-.557 2.718-1.365 3.765-2.412a10.635 10.635 0 0 0 2.413-3.739c.556-1.445.848-3.022.848-4.745v-.106c0-1.763-.278-3.354-.848-4.799a10.635 10.635 0 0 0-2.413-3.738c-1.047-1.047-2.306-1.856-3.765-2.44-1.458-.583-3.075-.874-4.825-.874h-6.681v23.688zm6.681-32.093h-15.92v40.498h15.92c3.168 0 6.098-.53 8.696-1.565 2.598-1.034 4.892-2.478 6.787-4.281a19.02 19.02 0 0 0 4.441-6.43c1.034-2.452 1.564-5.143 1.564-7.98V70.8c0-2.837-.53-5.514-1.564-7.953a18.914 18.914 0 0 0-4.441-6.403c-1.909-1.803-4.189-3.234-6.787-4.255-2.598-1.008-5.528-1.525-8.696-1.525zm-6.084 9.001h6.084c1.67 0 3.221.279 4.613.822a10.356 10.356 0 0 1 3.553 2.307c.981.994 1.75 2.174 2.28 3.526.53 1.365.809 2.903.809 4.586v.106c0 1.644-.266 3.169-.809 4.52a10.236 10.236 0 0 1-2.28 3.527c-.981.98-2.174 1.75-3.553 2.28-1.392.53-2.943.795-4.613.795h-6.084V59.665z" fill="#F7EC00"/><path d="M214.867 90.87V75.162l-15.364-24.206h10.83l9.213 15.496 9.372-15.496h10.539L224.106 74.99v15.88h-9.239z" fill="#00529C"/><path d="M238.913 51.261l-15.112 23.635v15.669h-8.643V75.069L200.046 51.26h10.101l9.386 15.775 9.544-15.775h9.836zm1.087-.597h-11.254l-.173.292-9.027 14.926-8.868-14.913-.173-.291h-11.532l.583.914 15.019 23.662v15.921h9.836V75.068l15.006-23.489.583-.915zM83.195 108.567a.518.518 0 0 1-.517-.464c-.04-.358-3.38-35.473-1.803-49.989 1.577-14.528 5.886-23.383 15.35-31.575a.51.51 0 0 1 .332-.12c.12 0 .238.04.331.12 9.465 8.192 13.773 17.047 15.351 31.575 1.577 14.529-1.777 49.644-1.803 49.989a.518.518 0 0 1-.517.464H83.195z" fill="#F7EC00"/><path d="M83.195 109.375c-.69 0-1.26-.517-1.326-1.206-.146-1.445-3.407-35.46-1.803-50.16 1.604-14.755 5.979-23.755 15.616-32.107.239-.212.543-.331.861-.331.319 0 .623.12.875.331 9.637 8.352 14.012 17.352 15.616 32.106 1.577 14.542-1.657 48.716-1.803 50.161a1.326 1.326 0 0 1-1.325 1.206H83.195z" fill="#F7EC00"/><path d="M96.557 25.889c.238 0 .477.08.676.252 9.571 8.285 13.919 17.233 15.523 31.907 1.577 14.568-1.671 48.65-1.803 50.094a1.023 1.023 0 0 1-1.021.928H83.195c-.53 0-.968-.397-1.021-.928-.146-1.444-3.394-35.526-1.803-50.094 1.59-14.674 5.939-23.622 15.523-31.907.185-.16.424-.252.663-.252zm0-.597c-.385 0-.77.146-1.06.398-9.704 8.404-14.105 17.458-15.722 32.292-1.604 14.727 1.67 48.782 1.802 50.214.08.835.783 1.471 1.618 1.471h26.724c.835 0 1.537-.636 1.617-1.471.133-1.445 3.38-35.646 1.803-50.227-1.617-14.834-6.018-23.888-15.722-32.292a1.677 1.677 0 0 0-1.06-.385z" fill="#F7EC00"/><path d="M96.557 26.923c9.16 7.927 13.587 16.61 15.165 31.244 1.59 14.635-1.803 49.883-1.803 49.883H83.195S79.8 72.802 81.392 58.167c1.59-14.634 6.005-23.317 15.165-31.244zm0-1.034c-.239 0-.478.08-.676.252-9.571 8.285-13.92 17.233-15.523 31.907-1.578 14.568 1.67 48.65 1.803 50.095.053.53.49.927 1.02.927h26.725c.53 0 .967-.397 1.02-.927.133-1.445 3.381-35.527 1.803-50.095-1.591-14.674-5.939-23.622-15.523-31.907a.972.972 0 0 0-.65-.252z" fill="#00529C"/><path d="M83.778 108.553a.5.5 0 0 1-.49-.45c-.027-.345-3.235-34.691-1.724-48.888 1.445-13.64 5.29-21.422 14.675-29.734a.51.51 0 0 1 .331-.119c.12 0 .239.04.331.12 9.386 8.31 13.217 16.092 14.675 29.733 1.511 14.197-1.697 48.543-1.723 48.888a.501.501 0 0 1-.491.45H83.778z" fill="#F7EC00"/><path d="M96.557 29.84c8.762 7.754 12.977 15.098 14.502 29.414 1.524 14.317-1.723 48.796-1.723 48.796H83.778s-3.248-34.48-1.723-48.796c1.524-14.303 5.74-21.647 14.502-29.415zm0-.995a.965.965 0 0 0-.663.252C86.403 37.5 82.519 45.375 81.06 59.148c-1.51 14.25 1.591 47.576 1.724 48.994a.995.995 0 0 0 .994.902h25.558a.995.995 0 0 0 .994-.902c.132-1.418 3.234-34.743 1.723-48.994-1.471-13.786-5.342-21.647-14.834-30.051a1.031 1.031 0 0 0-.662-.252z" fill="#00529C"/><path d="M96.557 33.962c8.987 7.755 13.322 15.098 14.873 29.415.239 2.227.371 4.931.411 7.927.053-4.613-.053-8.829-.411-12.036-1.564-14.317-5.899-21.66-14.873-29.416-8.988 7.755-13.323 15.1-14.874 29.416-.344 3.207-.45 7.423-.397 12.036.04-2.996.159-5.7.397-7.927 1.551-14.317 5.886-21.66 14.874-29.415zm16.199 43.678c0-.662-7.251-1.193-16.2-1.193-8.947 0-16.198.53-16.198 1.193s7.25 1.194 16.199 1.194c8.948.013 16.199-.53 16.199-1.194z" fill="#00529C"/><path d="M96.557 29.84v78.21" stroke="#00529C" stroke-width=".452" stroke-miterlimit="10"/><path d="M110.94 52.573c0-1.63-6.443-2.956-14.383-2.956-7.94 0-14.383 1.326-14.383 2.956s.954 2.956 14.383 2.956c13.428 0 14.383-1.325 14.383-2.956z" fill="#00529C"/><path d="M82.214 52.838l1.842-6.508h25.001l1.843 6.508H82.214z" fill="#F7EC00"/><path d="M108.766 46.714l1.617 5.74H82.731l1.617-5.74h24.418zm.583-.769H83.765l-2.055 7.278h29.693l-2.054-7.278z" fill="#00529C"/><path d="M81.127 76.858l-.2-6.946h31.285l-.225 6.946h-30.86z" fill="#F7EC00"/><path d="M111.218 70.867l-.159 5.037H82.055l-.146-5.037h29.309zm1.975-1.922h-33.26l.253 8.868h32.729l.278-8.868zm-2.545 28.831H82.452v2.612h28.196v-2.612zm0 8.166H82.452v2.611h28.196v-2.611z" fill="#00529C"/><path d="M82.81 99.062l-.477-6.509h28.447l-.477 6.51H82.81z" fill="#F7EC00"/><path d="M110.356 92.938l-.424 5.74H83.168l-.424-5.74h27.612zm.835-.769H81.922l.53 7.278h28.196l.543-7.278z" fill="#00529C"/><path d="M96.292 105.173h-1.286v2.439h1.286v-2.439z" fill="#F7EC00"/><path d="M83.062 82.625a.822.822 0 0 0-.636-.77c-.239-.066-.464-.278-.477-.543l-.027-.49-.702.026.159 3.725.702-.026-.026-.49c-.014-.28.198-.504.424-.597a.844.844 0 0 0 .583-.835zm26.989 0a.81.81 0 0 1 .637-.77c.238-.066.464-.278.477-.543l.026-.49.703.026-.172 3.725-.703-.026.027-.49c.013-.28-.186-.504-.425-.597a.834.834 0 0 1-.57-.835z" fill="#00529C"/></svg>