<svg width="460" height="360" viewBox="0 0 460 360" fill="none" xmlns="http://www.w3.org/2000/svg"><path fill="#FFE064" d="M0 0h460v360H0z"/><path d="M121.206 198.492h.87a.435.435 0 0 0 .439-.439.435.435 0 0 0-.439-.439h-.87a.435.435 0 0 0-.439.439.44.44 0 0 0 .439.439zm-6.975 0h.87a.435.435 0 0 0 .439-.439.435.435 0 0 0-.439-.439h-.87a.435.435 0 0 0-.439.439c0 .246.193.439.439.439zm3.488 0h.869c.246 0 .44-.193.44-.439a.435.435 0 0 0-.44-.439h-.869a.435.435 0 0 0-.44.439c0 .246.194.439.44.439zm-6.976 0h.87a.435.435 0 0 0 .439-.439.435.435 0 0 0-.439-.439h-.87a.435.435 0 0 0-.439.439c0 .246.193.439.439.439zm-3.487 0h.869c.246 0 .44-.193.44-.439a.435.435 0 0 0-.44-.439h-.869a.435.435 0 0 0-.44.439c0 .246.194.439.44.439zm3.276-10.208a2.091 2.091 0 0 0 1.801 1.046 2.092 2.092 0 0 0 1.801-3.128c-.553-.957-1.88-1.317-2.846-.764a2.102 2.102 0 0 0-.975 1.265 2.112 2.112 0 0 0 .219 1.581zm.642-1.353c.079-.307.281-.571.562-.729.184-.105.386-.158.597-.158.431 0 .826.229 1.046.598a1.206 1.206 0 0 1-.44 1.642 1.205 1.205 0 0 1-1.642-.448 1.118 1.118 0 0 1-.123-.905zm184.38 11.561h.87a.435.435 0 0 0 .439-.439.435.435 0 0 0-.439-.439h-.87a.435.435 0 0 0-.439.439c0 .246.193.439.439.439zm-3.488 0h.87a.435.435 0 0 0 .439-.439.435.435 0 0 0-.439-.439h-.87a.435.435 0 0 0-.439.439c0 .246.193.439.439.439zm6.976 0h.869c.246 0 .44-.193.44-.439a.435.435 0 0 0-.44-.439h-.869a.435.435 0 0 0-.44.439.44.44 0 0 0 .44.439zm6.975 0h.87a.435.435 0 0 0 .439-.439.435.435 0 0 0-.439-.439h-.87a.435.435 0 0 0-.439.439.44.44 0 0 0 .439.439zm-3.488 0h.87a.435.435 0 0 0 .439-.439.435.435 0 0 0-.439-.439h-.87a.435.435 0 0 0-.439.439.44.44 0 0 0 .439.439zm-1.757-9.443c.316.184.676.281 1.037.281.738 0 1.432-.396 1.801-1.037a2.088 2.088 0 0 0-.756-2.846c-.966-.554-2.293-.193-2.846.764a2.081 2.081 0 0 0 .764 2.838zm0-2.407a1.207 1.207 0 0 1 1.045-.598 1.204 1.204 0 0 1 1.16.887c.079.308.035.633-.123.914-.316.554-1.089.764-1.643.439a1.2 1.2 0 0 1-.439-1.642zm-69.885-93.201h.87a.435.435 0 0 0 .439-.439.435.435 0 0 0-.439-.44h-.87a.435.435 0 0 0-.439.44c0 .246.193.44.439.44zm-55.424 0h.869c.246 0 .44-.193.44-.439a.436.436 0 0 0-.44-.44h-.869a.436.436 0 0 0-.44.44c0 .246.194.44.44.44zm69.278 0h.87a.435.435 0 0 0 .439-.439.435.435 0 0 0-.439-.44h-.87a.435.435 0 0 0-.439.44c0 .246.202.44.439.44zm-10.392 0h.869c.246 0 .44-.193.44-.439a.436.436 0 0 0-.44-.44h-.869a.436.436 0 0 0-.44.44c0 .246.202.44.44.44zm3.47 0h.869c.246 0 .44-.193.44-.439a.436.436 0 0 0-.44-.44h-.869a.436.436 0 0 0-.44.44c0 .246.194.44.44.44zm-12.993-.878h-.87a.435.435 0 0 0-.439.439c0 .246.193.44.439.44h.87a.435.435 0 0 0 .439-.44.435.435 0 0 0-.439-.44zm-45.902.878h.87a.435.435 0 0 0 .439-.439.435.435 0 0 0-.439-.44h-.87a.435.435 0 0 0-.439.44c0 .246.202.44.439.44zm69.279 0h.869c.246 0 .44-.193.44-.439a.436.436 0 0 0-.44-.44h-.869a.436.436 0 0 0-.44.44c0 .246.202.44.44.44zm-62.348 0h.87a.435.435 0 0 0 .439-.439.435.435 0 0 0-.439-.44h-.87a.435.435 0 0 0-.439.44c0 .246.193.44.439.44zm-13.854 0h.87a.435.435 0 0 0 .439-.439.435.435 0 0 0-.439-.44h-.87a.435.435 0 0 0-.439.44c0 .246.193.44.439.44zm10.393 0h.87a.435.435 0 0 0 .439-.439.435.435 0 0 0-.439-.44h-.87a.435.435 0 0 0-.439.44c0 .246.193.44.439.44zm45.032 0h.87a.435.435 0 0 0 .439-.439.435.435 0 0 0-.439-.44h-.87a.435.435 0 0 0-.439.44c0 .246.193.44.439.44zm-58.886 0h.87a.435.435 0 0 0 .439-.439.435.435 0 0 0-.439-.44h-.87a.435.435 0 0 0-.439.44c0 .246.193.44.439.44zm-3.47 0h.87a.435.435 0 0 0 .439-.439.435.435 0 0 0-.439-.44h-.87a.435.435 0 0 0-.439.44c0 .246.202.44.439.44zm76.21 0h.87a.435.435 0 0 0 .439-.439.435.435 0 0 0-.439-.44h-.87a.435.435 0 0 0-.439.44c0 .246.193.44.439.44zm-26.847-.878h-.87a.435.435 0 0 0-.439.439c0 .246.193.44.439.44h.87a.435.435 0 0 0 .439-.44.435.435 0 0 0-.439-.44zm-10.393 0h-.869a.436.436 0 0 0-.44.439c0 .246.194.44.44.44h.869c.246 0 .44-.194.44-.44a.436.436 0 0 0-.44-.44zm13.854 0h-.869a.436.436 0 0 0-.44.439c0 .246.194.44.44.44h.869c.246 0 .44-.194.44-.44a.436.436 0 0 0-.44-.44zm3.47 0h-.869a.436.436 0 0 0-.44.439c0 .246.194.44.44.44h.869a.44.44 0 0 0 0-.878zm-10.392 0h-.87a.435.435 0 0 0-.439.439c0 .246.193.44.439.44h.87a.435.435 0 0 0 .439-.44.44.44 0 0 0-.439-.44zm-3.47 0h-.87a.435.435 0 0 0-.439.439c0 .246.193.44.439.44h.87a.435.435 0 0 0 .439-.44.435.435 0 0 0-.439-.44zm-6.923 0h-.87a.435.435 0 0 0-.439.439c0 .246.193.44.439.44h.87a.435.435 0 0 0 .439-.44.44.44 0 0 0-.439-.44zm-3.461 0h-.87a.435.435 0 0 0-.439.439c0 .246.193.44.439.44h.87a.435.435 0 0 0 .439-.44.44.44 0 0 0-.439-.44zm-3.47 0h-.87a.435.435 0 0 0-.439.439c0 .246.193.44.439.44h.87a.435.435 0 0 0 .439-.44.435.435 0 0 0-.439-.44zm-3.462 0h-.869a.436.436 0 0 0-.44.439c0 .246.194.44.44.44h.869c.246 0 .44-.194.44-.44a.436.436 0 0 0-.44-.44z" fill="#3C2F29"/><path d="M290.819 289.98v-24.721h24.44c6.299 0 11.429-5.122 11.429-11.43V144.034c0-5.034-4.05-20.214-11.429-20.214h-24.291V89.145L272.23 31.49c-1.757-5.464-7.626-9.742-13.362-9.742h-10.946v-1.775H237.74v1.783h-61.346v-1.783h-10.173v1.783h-10.946c-5.737 0-11.605 4.279-13.353 9.734l-17.219 52.956a5.805 5.805 0 0 0-4.893-2.688 5.821 5.821 0 0 0-5.658 4.49 7.02 7.02 0 0 0-2.091-.326c-2.082 0-4.111.905-5.842 2.565l-.72-.623L95.422 99.38l.448.395-.246.272c-2.547 2.82-2.767 5.403-2.503 7.072.342 2.188 1.73 4.129 3.795 5.324l3.347 1.933a7.73 7.73 0 0 0 3.883 1.045 7.779 7.779 0 0 0 6.729-3.883l8.012-13.871c.896-1.634 1.16-3.075 1.142-4.27a5.854 5.854 0 0 0 3.154-1.072v31.503h-24.3c-6.298 0-11.429 5.122-11.429 11.43v118.589c0 6.299 5.13 11.429 11.43 11.429h24.44v24.721c0 4.981 4.076 9.058 9.057 9.058h21.049l1.669-2.891a.61.61 0 0 1 .474-.272h5.113a.61.61 0 0 1 .475.272l1.669 2.891h17.675l-.298 4.164a3.805 3.805 0 0 0 1.001 2.89c.72.782 1.722 1.203 2.811 1.203h2.609c1.09 0 2.083-.43 2.812-1.203.729-.782 1.08-1.801 1.001-2.89l-.298-4.164h61.161l1.669-2.891a.61.61 0 0 1 .474-.272h5.113a.61.61 0 0 1 .475.272l1.669 2.891h21.049c4.99-.009 9.066-4.085 9.066-9.075zM105.745 91.587l1.397 1.222-6.598 7.546-1.397-1.221 6.598-7.547zm8.548 3.488l-7.977 13.819c-.668 1.151-2.24 1.59-3.409.914l-3.347-1.933c-.676-.387-1.133-.975-1.23-1.581-.15-.976.571-2.012 1.213-2.715.096-.105.202-.228.307-.343l.949.826 10.067-11.517-.65-.571c.624-.51 1.265-.79 1.845-.79.343 0 .677.096 1.019.298l.246.123c.009.009 1.072.545 1.362 1.406.184.562.035 1.265-.395 2.064zm193.665 164.913h-16.981v-15.734h16.981v15.734zm13.459-6.159a6.166 6.166 0 0 1-6.158 6.159h-4.674v-15.734h10.832v9.575zm0-12.211h-60.318v-4.911h60.318v4.911zm-134.771 51.735a4.347 4.347 0 0 0-.896-.105h-.852a4.34 4.34 0 0 0-.896.105v-27.805h2.635v27.805h.009zm-71.615-113.054l-.062.035-5.043 2.908a4.633 4.633 0 0 0-2.178 2.837 4.627 4.627 0 0 0 .465 3.541 4.687 4.687 0 0 0 4.041 2.336c.817 0 1.626-.219 2.329-.623l1.748-1.011v2.759h-10.138v-25.257h10.155v11.93c-.518.088-.957.334-1.317.545zm1.317 1.282v6.703l-2.626 1.52a2.897 2.897 0 0 1-3.971-1.063 2.911 2.911 0 0 1 1.063-3.971l5.042-2.908c.158-.105.325-.202.492-.281zm6.826 14.135v38.365h-16.981v-38.365h16.981zm0-2.635h-4.199v-25.257h4.199v25.257zm5.271-25.257h24.598v66.248h-24.598v-66.248zm0-44.004V92.08c7.538 5.683 15.822 10.401 24.598 14.135v8.697h-3.979v7.01h1.317c.334 0 .677.158 1.002.413-1.098.887-1.836 2.495-1.871 4.357v3.347h-.448v12.95h3.979v14.662h-24.598V123.82zm32.145-30.08v22.56h-4.911V93.74h4.911zm2.635 25.195v-1.388h1.344v1.959c-2.187.747-3.751 3.321-3.751 6.475 0 3.154 1.573 5.728 3.751 6.474v3.233h-12.87v-3.233c2.188-.746 3.751-3.32 3.751-6.474 0-3.154-1.572-5.728-3.751-6.475v-1.959h1.344v1.388h10.182zm18.809 139.076v4.832h-1.511v-4.832h1.511zm9.751 4.832h-7.994v-4.832h7.994v4.832zm-4.05-6.589h-3.628c-1.168-1.467-3.487-3.655-6.905-3.655h-12.773v-1.757h12.773c4.577 0 7.441 3.11 8.662 4.815 1.502-1.652 5.025-4.815 9.787-4.815h54.063v1.757h-54.063c-3.567 0-6.387 2.161-7.916 3.655zm-36.036-118.817h2.284v1.317h8.311v-1.317h2.284v2.907h-12.879v-2.907zm-.439-7.714v-3.013c.018-1.239.483-2.346 1.133-2.925.255.623.413 1.361.413 2.196.009 1.774-.703 3.154-1.546 3.742zm15.945 13.257v-12.949h-.448v-3.356c-.027-1.863-.765-3.461-1.871-4.349.325-.255.667-.413 1.001-.413h1.318v-7.01h-3.98v-4.858c13.995 4.603 28.92 6.914 43.846 6.914 14.926 0 29.852-2.311 43.846-6.905v4.858h-3.979v7.01h1.317c.334 0 .677.158 1.002.413-1.098.887-1.836 2.486-1.871 4.357v3.347h-.448v12.95h3.979v29.482a3.073 3.073 0 0 0-1.203-.246h-35.237v-7.353c2.17-1.608 3.479-3.892 3.479-6.422v-1.397c0-1.704-.993-3.294-2.662-4.234a1.987 1.987 0 0 0-.826-.255v-1.642h-14.803v1.642a2.123 2.123 0 0 0-.825.255c-1.669.949-2.662 2.53-2.662 4.234v1.397c0 2.53 1.318 4.823 3.479 6.422v7.353h-35.228a3.04 3.04 0 0 0-1.204.246v-29.482h3.98v-.009zm-3.751-16.999c0-.835.167-1.581.421-2.196.65.579 1.116 1.678 1.134 2.916v3.031c-.844-.597-1.555-1.977-1.555-3.751zm90.108-27.603V93.74h4.902v22.55h-4.911V98.378h.009zm8.89 21.128c-2.187.747-3.751 3.321-3.751 6.475 0 3.154 1.572 5.728 3.751 6.474v3.233h-12.87v-3.233c2.187-.746 3.751-3.32 3.751-6.474 0-3.154-1.572-5.728-3.751-6.475v-1.959h1.344v1.388h10.182v-1.388h1.353v1.959h-.009zm.431 7.186v3.031c-.844-.588-1.555-1.968-1.555-3.742 0-.835.166-1.573.412-2.196.651.579 1.116 1.678 1.143 2.907zm-13.74 3.031v-3.013c.017-1.239.483-2.337 1.133-2.925a5.75 5.75 0 0 1 .413 2.196c0 1.774-.712 3.154-1.546 3.742zm-49.478 99.218l-35.465-9.312.448-1.695 35.017 9.198v1.809zm49.829-43.96l.448 1.696-35.465 9.312v-1.819l35.017-9.189zm-49.829 14.908l-35.017 9.198-.448-1.695 35.465-9.312v1.809zm-36.018 5.368c-.149.035-.29.097-.431.158v-16.771c.141.062.273.123.422.159l31.319 8.222-31.31 8.232zm3.312 5.491l32.715-8.592v22.691l-32.715-8.591v-5.508zm47.518-8.592l32.715 8.592v5.508l-32.715 8.591v-22.691zm35.017 6.922l-35.017-9.198v-1.818l35.465 9.312-.448 1.704zm-49.829-13.081l-35.465-9.312.448-1.695 35.017 9.198v1.809zm-36.018 25.749l31.318 8.223-31.318 8.223c-.149.035-.29.097-.422.158v-16.771c.141.071.273.132.422.167zm50.83 5.377l35.017-9.198.448 1.695-35.465 9.313v-1.81zm36.019-5.377c.149-.035.29-.096.421-.158v16.771c-.14-.062-.272-.123-.421-.158l-31.319-8.223 31.319-8.232zm0-16.489l-31.319-8.223 31.319-8.223c.149-.035.29-.096.421-.158v16.771a2.225 2.225 0 0 0-.421-.167zm-3.304-21.945l-32.715 8.592v-13.547h32.715v4.955zm-47.527 8.592l-32.715-8.592v-4.955h32.715v13.547zm-35.008 50.118l-.448-1.695 35.465-9.312v1.818l-35.017 9.189zm49.82-11.007l35.465 9.312-.448 1.695-35.017-9.198v-1.809zm35.237-54.845h-35.237v-1.757h35.237v1.757zm-50.049 0h-35.236v-1.757h35.236v1.757zm-32.706 67.521l32.715-8.591v12.264h14.812V235.1l32.715 8.591v4.955h-51.542c-4.181 0-7.511 2.029-9.628 3.822-1.818-1.81-4.744-3.822-8.82-3.822h-10.252v-4.955zm38.18-79.328c1.326.237 2.556.237 3.874 0 3.654-.659 6.307-3.145 6.307-5.93v-1.397c0-.747-.492-1.467-1.326-1.942a.444.444 0 0 1-.167-.597c.149-.264.422-.264.597-.167 1.107.624 1.766 1.643 1.766 2.706v1.397c0 3.259-2.899 6.044-7.037 6.791a11.615 11.615 0 0 1-4.19 0c-4.147-.747-7.037-3.532-7.037-6.791v-1.397c0-1.063.659-2.082 1.775-2.706a.467.467 0 0 1 .21-.053c.123 0 .29.062.387.22a.436.436 0 0 1-.167.597c-.826.466-1.326 1.195-1.326 1.942v1.397c.017 2.785 2.67 5.279 6.334 5.93zm45.787-24.019h-1.344v-2.907h2.284v1.317h8.311v-1.317h2.284v2.907h-11.535zm14.162 2.636v-12.949h-.448v-3.356c-.027-1.863-.765-3.461-1.863-4.349.325-.255.668-.413 1.002-.413h1.317v-7.01h-3.988v-8.68c8.776-3.733 17.06-8.46 24.598-14.144v65.563h-24.598V142.98h3.98zm-14.162-35.676c-27.936 9.409-59.764 9.409-87.701-.009v-8.917h87.701v8.926zm-95.247 126.768v-66.248h.026v-10.182h-.026V142.98h4.911v149.626h-4.911v-48.361h.026v-10.182h-.026v.009zm7.546 20.478c.369.158.782.246 1.204.246h12.773c1.634 0 2.926.676 3.874 1.458h-2.31v3.786h-15.541v-5.49zm27.989 1.704c1.213-.799 2.732-1.458 4.445-1.458h54.064c.43 0 .834-.088 1.203-.246v5.49h-57.384v-3.786h-2.328zm67.25 36.361h-4.911V142.98h4.911v14.662h-.018v10.182h.018v66.248h-.018v10.182h.018v48.361zm2.635-124.791h24.598v66.248h-24.598v-66.248zm46.859 27.892v38.365h-16.981v-38.365h16.981zm-16.99-2.635v-25.257h4.199v25.257h-4.199zm8.583-1.748a4.623 4.623 0 0 0 2.328.623 4.674 4.674 0 0 0 4.041-2.336 4.678 4.678 0 0 0-1.713-6.378l-5.042-2.908-.062-.035c-.36-.211-.799-.457-1.318-.545v-11.93h10.156v25.257h-10.156v-2.759l1.766 1.011zm-1.748-3.04v-6.703c.158.079.334.176.501.272l5.042 2.908a2.903 2.903 0 0 1 1.063 3.971 2.915 2.915 0 0 1-2.521 1.458c-.492 0-.993-.123-1.45-.395l-2.635-1.511zm23.614 45.779h-10.832v-66.248h10.832v66.248zm0-68.884h-60.318v-4.91h60.318v4.91zm-10.823-36.097h4.674c.298 0 1.924.957 3.777 5.359 1.546 3.672 2.381 7.678 2.381 9.584v13.608h-10.832v-28.551zm-12.791 0h10.155v28.551h-10.155v-28.551zm-6.835 0h4.199v28.551h-4.199v-28.551zm-5.587-40.086c-7.415 5.771-15.593 10.568-24.282 14.363V91.104h-3.066V51.782c0-6.369 7.713-13.792 10.077-15.918l17.271 53.14zm-40.095-61.987v9.154h-4.911V22.608h4.911v4.41zm-71.519 0v9.154h-4.911V22.608h4.911v4.41zm-18.492 0h10.946v11.789h10.182v-11.79h61.346v11.79h10.181v-11.79h10.947c3.399 0 7.3 2.847 8.345 6.088-.474.396-11.824 9.954-11.824 18.678v39.321h-4.472v4.63h-87.701v-4.63h-4.471V51.782c0-8.714-11.342-18.281-11.816-18.685 1.036-3.233 4.928-6.08 8.337-6.08zm-9.242 8.846c2.363 2.126 10.076 9.558 10.076 15.919v39.321h-3.066v12.247c-8.688-3.804-16.876-8.575-24.281-14.346l17.271-53.141zM119.81 90.762c-.132 0-.264-.027-.387-.035-.712-1.582-1.889-2.636-2.785-3.242a3.182 3.182 0 0 1 3.172-3.084 3.18 3.18 0 1 1 0 6.36zm-.826 38.329h4.199v28.551h-4.199v-28.551zm-12.791 0h10.155v28.551h-10.155v-28.551zm-13.468 6.158a6.165 6.165 0 0 1 6.159-6.158h4.673v28.551H92.725v-22.393zm0 25.029h60.318v4.91H92.725v-4.91zm0 7.546h10.832v66.248H92.725v-66.248zm0 68.883h60.318v4.911H92.725v-4.911zm10.832 23.281h-4.673a6.166 6.166 0 0 1-6.159-6.159v-9.584h10.832v15.743zm19.617 0h-16.981v-15.734h16.981v15.734zm5.271.052v-15.786h24.598v15.786h-24.598zm59.712 44.857c-.386.413-.931.65-1.52.65h-2.609a2.027 2.027 0 0 1-1.52-.65 2.052 2.052 0 0 1-.536-1.564l.431-5.992c.088-1.265 1.239-2.336 2.512-2.336h.853c1.273 0 2.424 1.071 2.512 2.336l.431 5.992a2.133 2.133 0 0 1-.554 1.564zm72.942-44.857v-15.786h24.598v15.786h-24.598z" fill="#3C2F29"/><path d="M207.053 76.346c1.652 0 3.268-.3 4.806-.888l1.265-.483-12.053-12.062 12.053-12.062-1.265-.483a13.392 13.392 0 0 0-4.806-.887c-5.525 0-10.559 3.47-12.536 8.636a13.311 13.311 0 0 0-.878 4.796c0 1.652.298 3.26.878 4.797 1.968 5.166 7.011 8.636 12.536 8.636zm-6.351-23.202a11.648 11.648 0 0 1 6.351-1.906c.967 0 1.924.114 2.847.351l-9.207 9.207v-7.652h.009zm0 11.887l9.207 9.206c-.923.237-1.88.352-2.847.352-2.301 0-4.498-.695-6.351-1.907v-7.651h-.009zm-5.306-2.118c0-1.44.254-2.837.764-4.164a11.524 11.524 0 0 1 2.785-4.2v16.728a11.639 11.639 0 0 1-2.785-4.2 11.573 11.573 0 0 1-.764-4.164z" fill="#3C2F29"/><path d="M207.071 81.889c10.463 0 18.976-8.513 18.976-18.976s-8.513-18.975-18.976-18.975-18.976 8.512-18.976 18.975c0 10.463 8.513 18.976 18.976 18.976zm0-36.194c9.497 0 17.219 7.721 17.219 17.218s-7.722 17.219-17.219 17.219c-9.496 0-17.219-7.722-17.219-17.219 0-9.496 7.723-17.218 17.219-17.218z" fill="#3C2F29"/><path d="M209.68 57.695a2.85 2.85 0 0 0-.966.562c-.36.351-.624.73-.8 1.142a5.146 5.146 0 0 0-.263 1.485h1.924c-.009-.519.096-.931.334-1.239.228-.308.588-.466 1.071-.466.422 0 .756.123.984.378.237.255.352.58.352.975 0 .615-.229 1.028-.686 1.23-.263.123-.729.185-1.396.194v1.475c.685 0 1.186.062 1.502.194.553.228.834.694.834 1.388 0 .518-.149.922-.456 1.203a1.488 1.488 0 0 1-1.063.413c-.659 0-1.116-.255-1.362-.764-.132-.272-.202-.624-.202-1.046h-2.029c.035.835.202 1.511.509 2.03.58.975 1.608 1.458 3.101 1.458 1.212 0 2.117-.334 2.732-1.01a3.58 3.58 0 0 0 .633-.975c.79.623 1.695.93 2.723.93 1.274 0 2.267-.386 2.97-1.15.456-.483.711-.958.764-1.423h-2.109a1.83 1.83 0 0 1-.421.544c-.29.246-.677.36-1.142.36-.448 0-.826-.096-1.142-.298-.519-.316-.791-.87-.826-1.67h5.754c.009-.684-.009-1.203-.07-1.572a3.888 3.888 0 0 0-.633-1.634 3.219 3.219 0 0 0-1.361-1.168 4.51 4.51 0 0 0-1.854-.37c-1.116 0-2.021.343-2.732 1.02-.097-.659-.378-1.204-.879-1.625-.615-.519-1.423-.782-2.424-.782-.545.017-1.002.079-1.371.21zm6.176 3.347c.29-.299.703-.448 1.23-.448.483 0 .896.14 1.221.422.334.28.51.702.553 1.247h-3.557c.079-.51.263-.914.553-1.221zm136.598-24.686c1.037.597 2.293.896 3.787.896a8.79 8.79 0 0 0 1.853-.21 4.903 4.903 0 0 0 1.81-.8 3.747 3.747 0 0 0 1.423-1.906c.15-.466.238-1.037.246-1.731v-4.832h-11.201v4.832c-.008 1.687.686 2.943 2.082 3.751zm-.14-6.316h7.309v2.16c0 1.064-.307 1.775-.914 2.136-.615.36-1.484.535-2.626.535-.826 0-1.538-.114-2.135-.36-1.089-.439-1.634-1.212-1.634-2.31V30.04zm9.251 8.776h-11.201v2.328h11.201v-2.328zm-7.925 13.256c1.002 0 1.757-.333 2.285-1.001.342-.43.615-1.072.817-1.942l.465-1.967c.176-.756.334-1.257.466-1.485.193-.36.492-.545.896-.545.439 0 .773.185 1.019.554.246.369.36.86.36 1.476 0 .553-.097 1.019-.281 1.396-.281.563-.764.861-1.441.905v2.25c1.195-.045 2.1-.484 2.724-1.327.623-.844.94-1.863.94-3.058 0-1.431-.334-2.512-.993-3.259-.668-.738-1.494-1.107-2.504-1.107-1.098 0-1.906.378-2.425 1.134-.307.448-.597 1.265-.86 2.46l-.264 1.212c-.149.711-.325 1.23-.527 1.555-.202.325-.492.492-.861.492-.633 0-1.063-.334-1.3-1.002-.123-.351-.185-.808-.185-1.37 0-.94.229-1.608.694-1.994.255-.211.633-.352 1.151-.431v-2.231c-1.168 0-2.082.421-2.75 1.265-.667.843-1.001 2.003-1.001 3.479 0 1.44.343 2.565 1.019 3.355.685.791 1.537 1.186 2.556 1.186zm.536 10.991v-2.328c-.579-.15-1.01-.343-1.3-.58-.536-.422-.808-1.037-.808-1.836 0-.782.316-1.432.94-1.942.624-.51 1.564-.764 2.82-.764 1.256 0 2.231.237 2.917.72.685.483 1.027 1.142 1.027 1.977 0 .817-.246 1.432-.729 1.854-.272.237-.676.421-1.212.57v2.346c.703-.035 1.397-.29 2.091-.764 1.238-.861 1.853-2.223 1.853-4.094 0-1.397-.456-2.539-1.379-3.444-1.063-1.036-2.565-1.555-4.524-1.555-1.81 0-3.233.457-4.27 1.37-1.036.914-1.546 2.162-1.546 3.76 0 1.292.387 2.346 1.151 3.172.756.826 1.757 1.336 2.969 1.538zm1.81 1.475c-2.012 0-3.549.571-4.621 1.705-.87.843-1.309 2.073-1.309 3.672 0 1.599.439 2.828 1.309 3.672 1.072 1.133 2.609 1.695 4.621 1.695 2.056 0 3.593-.562 4.621-1.695.87-.844 1.309-2.073 1.309-3.672 0-1.6-.439-2.829-1.309-3.672-1.037-1.134-2.574-1.705-4.621-1.705zm2.908 7.582c-.685.544-1.66.817-2.917.817-1.265 0-2.231-.272-2.916-.817-.686-.545-1.028-1.283-1.028-2.205 0-.931.342-1.67 1.028-2.223.685-.553 1.66-.826 2.916-.826 1.265 0 2.232.273 2.917.826.685.554 1.028 1.292 1.028 2.223.009.922-.334 1.66-1.028 2.205zm-8.53 13.985h11.201v-2.178h-7.81l7.81-4.446v-2.46h-11.201v2.188h7.95l-7.95 4.56v2.336zm0 11.245h11.201v-2.178h-7.81l7.81-4.454v-2.451h-11.201v2.178h7.95l-7.95 4.569v2.336zm0 10.753h2.012v-6.202h2.881v5.447h1.95v-5.447h2.381v5.93h1.977v-8.214h-11.201v8.486zm5.508 1.336c-1.81 0-3.233.457-4.27 1.37-1.036.914-1.546 2.17-1.546 3.76 0 1.292.387 2.346 1.151 3.172.764.825 1.757 1.335 2.978 1.537v-2.328c-.58-.149-1.01-.343-1.3-.58-.536-.422-.808-1.037-.808-1.836 0-.782.316-1.432.94-1.941.623-.51 1.563-.765 2.82-.765 1.256 0 2.231.237 2.916.721.686.483 1.028 1.142 1.028 1.976 0 .817-.246 1.441-.729 1.854-.272.237-.676.422-1.212.571v2.337c.702-.035 1.396-.29 2.091-.765 1.238-.86 1.853-2.222 1.853-4.093 0-1.397-.457-2.539-1.379-3.444-1.063-1.028-2.574-1.546-4.533-1.546zm3.716 14.161h-9.224v2.355h9.224v3.356h1.977v-9.075h-1.977v3.364zm-8.302 79.997c.185-.044.527-.062 1.046-.062h.755c.782 0 1.371-.105 1.748-.325.387-.22.677-.58.888-1.098.21.615.579 1.063 1.089 1.326a3.319 3.319 0 0 0 1.572.405c.44 0 .835-.071 1.178-.211.342-.141.659-.325.94-.563a2.78 2.78 0 0 0 .782-1.045c.175-.413.272-1.001.289-1.766v-5.359h-11.2v2.285h4.392v2.284c0 .65-.123 1.098-.36 1.335-.237.237-.712.36-1.432.369l-1.045.017a5.89 5.89 0 0 0-.967.097 6.47 6.47 0 0 0-.597.149v2.583h.281a.981.981 0 0 1 .641-.421zm5.324-6.405h3.013v2.583c0 .483-.061.843-.193 1.081-.237.43-.685.641-1.371.641-.623 0-1.045-.22-1.265-.668-.123-.254-.184-.623-.184-1.124v-2.513zm-4.234 11.254h2.881v5.446h1.95v-5.446h2.381v5.93h1.977v-8.214h-11.201v8.486h2.012v-6.202zm1.8 17.377v-2.328c-.579-.15-1.01-.352-1.3-.58-.536-.422-.808-1.037-.808-1.836 0-.782.316-1.432.94-1.933.624-.51 1.564-.764 2.82-.764 1.256 0 2.231.237 2.917.72.685.483 1.027 1.142 1.027 1.977 0 .817-.246 1.432-.729 1.853-.272.238-.676.422-1.212.571v2.337c.703-.035 1.397-.29 2.091-.764 1.238-.861 1.853-2.223 1.853-4.094 0-1.397-.456-2.539-1.379-3.444-1.063-1.036-2.565-1.555-4.524-1.555-1.81 0-3.233.457-4.27 1.371-1.036.914-1.546 2.161-1.546 3.76 0 1.291.387 2.345 1.151 3.171.756.826 1.757 1.336 2.969 1.538zm1.81 12.211c2.056 0 3.593-.562 4.621-1.696.87-.843 1.309-2.073 1.309-3.672 0-1.599-.439-2.82-1.309-3.672-1.028-1.133-2.565-1.704-4.621-1.704-2.012 0-3.549.571-4.621 1.704-.87.843-1.309 2.073-1.309 3.672 0 1.599.439 2.829 1.309 3.672 1.063 1.134 2.609 1.696 4.621 1.696zm-2.925-7.582c.685-.553 1.66-.825 2.916-.825 1.265 0 2.232.272 2.917.825.685.554 1.028 1.292 1.028 2.223 0 .931-.343 1.66-1.028 2.205-.685.545-1.66.817-2.917.817-1.265 0-2.231-.272-2.916-.817-.686-.545-1.028-1.283-1.028-2.205.009-.931.342-1.669 1.028-2.223zm8.504 9.33h-11.201v2.179h7.95l-7.95 4.568v2.337h11.201v-2.179h-7.81l7.81-4.454v-2.451zm0 11.245h-11.201v2.179h7.95l-7.95 4.559v2.337h11.201v-2.179h-7.81l7.81-4.445v-2.451zm0 19.564v-8.223h-11.201v8.495h2.012v-6.202h2.881v5.438h1.95v-5.438h2.381v5.93h1.977zm-7.389 11.447v-2.328c-.579-.149-1.01-.351-1.3-.58-.536-.421-.808-1.036-.808-1.836 0-.782.316-1.432.94-1.932.624-.51 1.564-.765 2.82-.765 1.256 0 2.231.237 2.917.721.685.483 1.027 1.142 1.027 1.976 0 .817-.246 1.432-.729 1.854-.272.237-.676.422-1.212.571v2.337c.703-.035 1.397-.29 2.091-.765 1.238-.86 1.853-2.222 1.853-4.093 0-1.397-.456-2.539-1.379-3.444-1.063-1.037-2.565-1.555-4.524-1.555-1.81 0-3.233.457-4.27 1.37-1.036.914-1.546 2.162-1.546 3.76 0 1.292.387 2.346 1.151 3.172.756.817 1.757 1.335 2.969 1.537zm5.412 4.322h-9.224v2.355h9.224v3.356h1.977v-9.084h-1.977v3.373zm-9.259-119.318h1.897v4.928h1.652v-4.928h1.897v-1.423h-5.446v1.423zm9.066-1.555c-2.003 0-3.136 1.467-3.136 3.312 0 1.845 1.133 3.312 3.136 3.312s3.136-1.467 3.136-3.312c0-1.845-1.133-3.312-3.136-3.312zm0 5.192c-1.072 0-1.476-.94-1.476-1.889 0-.94.413-1.888 1.476-1.888 1.072 0 1.476.94 1.476 1.888 0 .949-.404 1.889-1.476 1.889zM99.955 320.806c2.768 0 4.762 1.353 5.113 3.91h6.607c-.176-6.106-6.106-9.594-11.579-9.594-7.67 0-12.642 5.86-12.642 13.213 0 7.353 4.973 13.213 12.642 13.213 6.431 0 11.218-3.839 11.579-10.367h-6.607c-.246 2.908-2.02 4.683-5.113 4.683-4.26 0-5.894-3.76-5.894-7.529s1.634-7.529 5.894-7.529zm22.121-5.148l-9.479 25.354h6.782l1.599-4.542h8.838l1.563 4.542h6.888l-9.479-25.354h-6.712zm.43 15.91l2.873-8.882h.07l2.803 8.882h-5.746zm31.89.993h-.079l-4.366-16.903h-9.725v25.354h6.211v-19.248h.07l5.333 19.248h5.033l5.333-19.248h.07v19.248h6.211v-25.354h-9.725l-4.366 16.903zm30.713-16.903h-12.036v25.354h6.607v-8.451h5.429c5.578 0 9.163-2.451 9.163-8.732 0-6.009-4.437-8.171-9.163-8.171zm-.993 11.79h-4.436v-6.501h4.436c2.021 0 3.549.958 3.549 3.338 0 2.311-1.485 3.163-3.549 3.163zm36.431-11.79h-8.196l-8.346 9.725v-9.725h-6.606v25.354h6.606v-7.81l2.697-2.846 6.817 10.656h8.206l-10.551-15.374 9.373-9.98zm18.466 15.269c0 3.268-1.203 4.937-4.436 4.937-3.233 0-4.436-1.669-4.436-4.937v-15.269h-6.607v14.882c0 7.353 3.374 11.008 11.043 11.008 7.669 0 11.043-3.655 11.043-11.008v-14.882h-6.607v15.269zm25.222 1.634h-.079l-4.366-16.903h-9.725v25.354h6.211v-19.248h.07l5.324 19.248h5.043l5.332-19.248h.07v19.248h6.211v-25.354h-9.733l-4.358 16.903zm36.362-5.438c1.985-.993 3.338-2.838 3.338-5.113 0-5.289-4.797-6.431-9.163-6.352h-11.86v25.354h12.185c5.429 0 9.875-1.845 9.875-7.88-.009-2.882-1.678-5.227-4.375-6.009zm-11.078-6.352h5.113c1.388 0 2.697.606 2.697 2.451 0 1.81-1.564 2.416-2.697 2.416h-5.113v-4.867zm5.288 14.952h-5.288v-5.824h5.288c1.986 0 3.549.747 3.549 2.987 0 2.091-1.458 2.837-3.549 2.837zm20.627-20.065l-9.479 25.354h6.782l1.599-4.542h8.838l1.564 4.542h6.887l-9.479-25.354h-6.712zm.431 15.91l2.881-8.882h.071l2.802 8.882h-5.754zm29.684-15.91l-5.042 10.296-5.043-10.296h-7.494l9.234 15.91v9.444h6.606v-9.444l9.233-15.91h-7.494zm20.03 0h-6.712l-9.479 25.354h6.782l1.599-4.542h8.847l1.564 4.542h6.887l-9.488-25.354zm-6.281 15.91l2.873-8.882h.07l2.802 8.882h-5.745zm-59.87-45.313v2.249h7.845v-2.829h-1.941v.747h-2.548v-.035c2.451-1.722 4.05-3.295 4.05-5.509 0-1.853-1.221-3.294-3.699-3.294-1.388 0-2.337.255-3.698.791v2.266h1.959v-.729a4.202 4.202 0 0 1 1.186-.158c.65 0 1.739.176 1.739 1.616 0 1.134-.887 2.399-4.893 4.885zm9.962-3.207c0 3.066.791 5.614 4.094 5.614 3.303 0 4.094-2.548 4.094-5.614s-.791-5.455-4.094-5.455c-3.303-.009-4.094 2.381-4.094 5.455zm5.684 0c0 2.056-.351 3.655-1.581 3.655s-1.581-1.599-1.581-3.655c0-2.055.351-3.496 1.581-3.496s1.581 1.441 1.581 3.496zm4.059 3.497v1.959h5.693v-1.959h-1.661v-8.882h-1.107l-2.89.668v1.678l1.625-.035v6.571h-1.66zm9.206-2.522c.51-.412.888-.614 1.661-.614 1.309 0 1.678.904 1.678 1.625 0 .905-.519 1.66-1.801 1.66a5.51 5.51 0 0 1-1.458-.176v-.773h-1.96v2.118c1.362.614 2.372.79 3.558.79 2.61 0 4.173-1.265 4.173-3.751 0-2.328-1.309-3.532-3.338-3.532-.949 0-1.546.255-2.056.615l-.035-.017.114-2.135h3.022v.729h1.942v-2.829h-7.011l-.193 6.141 1.704.149zm-225.669 1.722a2.067 2.067 0 0 0 .474 2.162 2.04 2.04 0 0 0 2.17.474l3.567 3.558a.862.862 0 0 0 .624.255.875.875 0 0 0 .623-1.494l-3.566-3.558a2.068 2.068 0 0 0-.475-2.161c-.562-.562-1.423-.711-2.152-.465l-3.576-3.576a.875.875 0 1 0-1.238 1.239l3.549 3.566zm1.722.475a.308.308 0 0 1 .219-.088.28.28 0 0 1 .22.097.307.307 0 0 1 0 .439c-.158.158-.29.158-.439 0a.318.318 0 0 1 0-.448z" fill="#3C2F29"/><path d="M91.232 286.448c0 7.38 6 13.38 13.379 13.38 7.38 0 13.38-6 13.38-13.38 0-6.501-4.656-11.93-10.814-13.133.237-.422.377-.905.377-1.415a2.958 2.958 0 0 0-2.952-2.952 2.958 2.958 0 0 0-2.951 2.952c0 .519.149.993.377 1.415-6.132 1.203-10.796 6.632-10.796 13.133zm13.388-15.743c.659 0 1.195.536 1.195 1.195a1.19 1.19 0 0 1-1.01 1.177c-.062 0-.123-.008-.185-.008-.061 0-.123.008-.184.008a1.191 1.191 0 0 1-1.011-1.177c0-.659.536-1.195 1.195-1.195zm-.184 4.121c.061 0 .123.017.184.017.062 0 .123-.017.185-.017 6.334.096 11.446 5.253 11.446 11.613 0 6.422-5.2 11.623-11.622 11.623s-11.623-5.201-11.623-11.623c-.017-6.351 5.096-11.508 11.43-11.613z" fill="#3C2F29"/><path d="M104.62 296.867c5.746 0 10.419-4.674 10.419-10.419s-4.673-10.419-10.419-10.419c-5.745 0-10.419 4.674-10.419 10.419s4.674 10.419 10.419 10.419zm-.878-19.037v.87a.88.88 0 0 0 .878.878.881.881 0 0 0 .879-.878v-.87a8.68 8.68 0 0 1 7.739 7.74h-.861a.88.88 0 0 0-.878.878c0 .483.395.879.878.879h.861a8.679 8.679 0 0 1-7.739 7.739v-.87a.881.881 0 0 0-.879-.878.88.88 0 0 0-.878.878v.87a8.68 8.68 0 0 1-7.74-7.739h.861a.882.882 0 0 0 .879-.879.88.88 0 0 0-.879-.878h-.86a8.68 8.68 0 0 1 7.739-7.74zm-6.37-239.27l-4.366-1.809a.882.882 0 0 0-1.15.475.882.882 0 0 0 .474 1.15l4.366 1.81a11.364 11.364 0 0 0-.562 3.514c0 1.23.202 2.407.562 3.514l-4.366 1.81a.882.882 0 0 0 .334 1.695.737.737 0 0 0 .333-.07l4.367-1.81a11.425 11.425 0 0 0 4.972 4.973l-1.81 4.366a.885.885 0 0 0 .808 1.221.873.873 0 0 0 .809-.545l1.809-4.366c1.107.36 2.284.562 3.514.562s2.407-.202 3.514-.562l1.81 4.366a.886.886 0 0 0 .808.545.737.737 0 0 0 .334-.07.882.882 0 0 0 .474-1.151l-1.809-4.366a11.422 11.422 0 0 0 4.972-4.973l4.366 1.81a.861.861 0 0 0 1.142-.474.882.882 0 0 0-.474-1.151l-4.366-1.81a11.37 11.37 0 0 0 .562-3.514c0-1.23-.202-2.407-.562-3.514l4.366-1.81a.882.882 0 0 0 .474-1.15.882.882 0 0 0-1.151-.475l-4.366 1.81a11.423 11.423 0 0 0-4.972-4.972l1.81-4.366a.886.886 0 0 0-.475-1.151.883.883 0 0 0-1.151.474l-1.809 4.366a11.365 11.365 0 0 0-3.514-.562c-1.23 0-2.407.202-3.514.562l-1.784-4.357a.881.881 0 0 0-1.15-.475.882.882 0 0 0-.475 1.151l1.81 4.366a11.385 11.385 0 0 0-4.964 4.964zm10.103-4.453c5.289 0 9.593 4.305 9.593 9.593 0 5.289-4.304 9.593-9.593 9.593s-9.593-4.304-9.593-9.593c0-5.288 4.304-9.593 9.593-9.593z" fill="#3C2F29"/><path d="M106.597 58.196v7.177a.88.88 0 0 0 .878.878.882.882 0 0 0 .879-.878v-7.177a.882.882 0 0 0-.879-.879.88.88 0 0 0-.878.879zm.878-28.104a.882.882 0 0 0 .879-.878v-7.177a.882.882 0 0 0-.879-.879.88.88 0 0 0-.878.878v7.178a.88.88 0 0 0 .878.878zM96.608 53.329l-5.078 5.078a.875.875 0 0 0 .624 1.493.9.9 0 0 0 .624-.255l5.078-5.078a.875.875 0 0 0 0-1.238.886.886 0 0 0-1.248 0zm21.119-18.993a.9.9 0 0 0 .624-.255l5.078-5.078a.876.876 0 1 0-1.239-1.239l-5.078 5.078a.876.876 0 0 0 .615 1.494zm-.623 18.993a.874.874 0 0 0 0 1.238l5.077 5.078a.864.864 0 0 0 .624.255.9.9 0 0 0 .624-.255.876.876 0 0 0 0-1.239l-5.078-5.077a.885.885 0 0 0-1.247 0zM96.608 34.08a.863.863 0 0 0 .624.256.875.875 0 0 0 .624-1.494l-5.078-5.078a.875.875 0 1 0-1.239 1.239l5.07 5.078zm24.484 9.62c0 .483.395.879.879.879h7.177a.88.88 0 0 0 .878-.879.88.88 0 0 0-.878-.878h-7.177a.881.881 0 0 0-.879.878zm-27.225 0a.881.881 0 0 0-.878-.878H85.81a.881.881 0 0 0-.878.878c0 .483.395.879.878.879h7.178a.875.875 0 0 0 .878-.879zm226.531 13.661a1.166 1.166 0 0 0 1.177-1.15c0-.642-.509-1.17-1.16-1.178a1.166 1.166 0 0 0-1.177 1.15c0 .651.519 1.178 1.16 1.178zm-3.945-.035a1.166 1.166 0 0 0 1.178-1.15 1.167 1.167 0 0 0-1.151-1.178 1.167 1.167 0 0 0-1.177 1.16 1.152 1.152 0 0 0 1.15 1.168zm-3.944-.026a1.166 1.166 0 0 0 1.177-1.151 1.168 1.168 0 1 0-2.337-.017c0 .64.519 1.159 1.16 1.168zm-3.944-.036a1.166 1.166 0 0 0 1.177-1.15c0-.642-.51-1.169-1.16-1.178a1.166 1.166 0 0 0-1.177 1.151 1.156 1.156 0 0 0 1.16 1.177zm-3.954-.026a1.166 1.166 0 0 0 1.178-1.151 1.165 1.165 0 1 0-1.178 1.15zm12.633 2.882a1.166 1.166 0 0 0 1.151 1.177 1.166 1.166 0 0 0 1.177-1.151 1.166 1.166 0 0 0-1.151-1.177 1.155 1.155 0 0 0-1.177 1.15zm-3.953-.036a1.166 1.166 0 0 0 1.151 1.177 1.166 1.166 0 0 0 1.177-1.15 1.164 1.164 0 0 0-2.328-.026zm-3.945-.026a1.167 1.167 0 0 0 1.151 1.177c.641 0 1.169-.51 1.177-1.16a1.165 1.165 0 0 0-1.15-1.177 1.18 1.18 0 0 0-1.178 1.16zm-3.944-.035a1.166 1.166 0 0 0 1.151 1.177c.641 0 1.168-.51 1.177-1.16a1.166 1.166 0 0 0-1.151-1.177c-.65 0-1.177.519-1.177 1.16zm10.99 5.201a1.166 1.166 0 0 0 1.177-1.151 1.166 1.166 0 0 0-1.151-1.177 1.166 1.166 0 0 0-1.177 1.15 1.16 1.16 0 0 0 1.151 1.178zm4.691-1.151a1.166 1.166 0 0 0-1.151-1.177 1.166 1.166 0 0 0-1.177 1.15 1.166 1.166 0 0 0 1.151 1.178 1.166 1.166 0 0 0 1.177-1.151zm-8.635 1.124a1.166 1.166 0 0 0 1.177-1.15 1.166 1.166 0 0 0-1.151-1.178 1.168 1.168 0 0 0-1.177 1.16c-.009.632.5 1.16 1.151 1.168zm-3.954-.035a1.167 1.167 0 0 0 1.177-1.16 1.165 1.165 0 0 0-1.15-1.177 1.168 1.168 0 0 0-1.178 1.16c-.008.65.51 1.168 1.151 1.177zm-2.337-1.16a1.165 1.165 0 0 0-1.15-1.177 1.168 1.168 0 0 0-.027 2.337c.65.009 1.169-.51 1.177-1.16zm13.354 4.033a1.166 1.166 0 0 0-1.151-1.177 1.168 1.168 0 0 0-.018 2.336c.633 0 1.16-.518 1.169-1.16zm1.247-7.915a1.166 1.166 0 0 0 1.151 1.177 1.166 1.166 0 0 0 1.177-1.151 1.166 1.166 0 0 0-1.151-1.177 1.155 1.155 0 0 0-1.177 1.15zm1.107 6.738a1.168 1.168 0 0 0-.018 2.336 1.155 1.155 0 0 0 1.169-1.16 1.16 1.16 0 0 0-1.151-1.177zM315.557 68a1.165 1.165 0 0 0-1.15-1.178 1.166 1.166 0 0 0-1.178 1.151 1.167 1.167 0 0 0 1.151 1.177c.65.01 1.177-.51 1.177-1.15zm-3.944-.027a1.166 1.166 0 0 0-1.151-1.177 1.166 1.166 0 0 0-1.177 1.15 1.167 1.167 0 0 0 1.159 1.178 1.153 1.153 0 0 0 1.169-1.15zm-3.945-.035a1.167 1.167 0 1 0-2.336-.017 1.167 1.167 0 1 0 2.336.017zm-4.629-6.738c.641 0 1.168-.51 1.177-1.16a1.166 1.166 0 0 0-1.151-1.177 1.168 1.168 0 0 0-.026 2.337zm-.062 7.89a1.166 1.166 0 0 0 1.177-1.152 1.168 1.168 0 1 0-2.337-.018c0 .642.519 1.17 1.16 1.17zm17.316 1.73a1.166 1.166 0 0 0-1.178 1.15 1.167 1.167 0 0 0 1.151 1.178 1.167 1.167 0 0 0 1.177-1.16 1.158 1.158 0 0 0-1.15-1.168zm-3.945-.027a1.166 1.166 0 0 0-1.177 1.151 1.166 1.166 0 0 0 1.151 1.177 1.168 1.168 0 0 0 1.177-1.16 1.153 1.153 0 0 0-1.151-1.168zm-3.944-.035c-.642 0-1.169.51-1.178 1.151a1.169 1.169 0 0 0 2.337.018c0-.642-.518-1.16-1.159-1.169zm-3.954-.035a1.166 1.166 0 0 0-1.177 1.15 1.166 1.166 0 0 0 1.151 1.178 1.166 1.166 0 0 0 1.177-1.15 1.16 1.16 0 0 0-1.151-1.178zm-3.944-.026a1.166 1.166 0 0 0-1.177 1.15 1.166 1.166 0 0 0 1.151 1.178 1.168 1.168 0 0 0 1.177-1.16 1.153 1.153 0 0 0-1.151-1.168z" fill="#3C2F29"/><path d="M292.523 39.95c1.063 0 2.724.017 4.902.034 1.423.018 3.084.035 4.929.044-2.53 1.564-4.261 4.358-4.261 7.476v66.6a4.394 4.394 0 0 0 4.392 4.392h19.811a4.394 4.394 0 0 0 4.392-4.392v-66.6c0-3.408-2.064-6.43-4.981-7.88l.035-4.902-1.353-.009.053-6.21a4.838 4.838 0 0 0-4.788-4.867l-6.325-.053c-2.636 0-4.805 2.143-4.823 4.788l-.053 6.21-1.353-.008-.026 3.18c-1.397-1.02-2.1-2.96-2.873-5.166-1.265-3.584-2.837-8.047-8.591-8.047-4.244 0-7.723 3.427-7.758 7.643-.017 2.082.721 3.989 2.091 5.36 1.546 1.572 3.822 2.406 6.58 2.406zm29.773 76.789h-19.811c-1.142 0-2.108-.738-2.477-1.757h24.756a2.607 2.607 0 0 1-2.468 1.757zm2.635-3.514H299.85V76.943h25.081v36.282zm0-38.039H299.85V52.872h25.081v22.314zm-18.677-46.798c.009-1.678 1.388-3.04 3.093-3.04l6.29.053a3.063 3.063 0 0 1 3.039 3.093l-.052 6.21-1.512-.008.036-4.911a.887.887 0 0 0-.87-.887h-.009a.873.873 0 0 0-.878.87l-.036 4.91-2.064-.017.035-4.911a.887.887 0 0 0-.87-.887h-.008a.873.873 0 0 0-.879.87l-.035 4.91-2.065-.017.036-4.911a.887.887 0 0 0-.87-.888h-.009a.873.873 0 0 0-.878.87l-.036 4.911-1.511-.009.053-6.21zm-1.423 7.96l7.573.06 7.572.062-.017 1.96-15.146-.123.018-1.96zm2.056 4.128h11.025c3.813 0 7.028 3.216 7.028 7.028v3.602h-25.081v-3.602c0-3.803 3.215-7.028 7.028-7.028zm-15.286-14.179c4.506 0 5.684 3.339 6.931 6.87.65 1.845 1.318 3.734 2.495 5.096-1.309-.01-2.504-.027-3.575-.036a427.545 427.545 0 0 0-4.92-.035c-2.275 0-4.12-.65-5.35-1.889-1.046-1.054-1.59-2.477-1.573-4.11.009-3.251 2.706-5.896 5.992-5.896zm50.856 275.253h28.112V189.716h4.155v-25.389h-1.432l-.008-8.029c-.062-4.015-1.819-7.379-4.349-8.882 1.098-1.476 2.504-2.389 4.032-2.389h1.757v-12.791h-4.155V18.452h-28.112v113.784h-4.155v12.791h1.757c1.52 0 2.934.913 4.023 2.389-2.521 1.511-4.278 4.876-4.348 8.9l-.009 8.011h-1.423v25.389h4.155V301.55zm22.841-5.271h-17.57V189.716h17.57v106.563zm5.35-139.963l.009 7.282c-2.258-1.458-3.901-4.954-3.901-8.925 0-1.801.343-3.497.923-4.964 1.695 1.072 2.917 3.628 2.969 6.607zm-22.92-132.593h17.57v108.513h-17.57V23.723zm-5.35 132.619c.044-2.987 1.274-5.552 2.969-6.624.58 1.458.923 3.163.923 4.964 0 3.97-1.634 7.467-3.901 8.925l.009-7.265zm-.562 11.289c4.586-1.09 7.959-6.387 7.959-12.958 0-6.571-3.382-11.869-7.959-12.958v-5.965h29.394v5.965c-4.585 1.089-7.968 6.387-7.968 12.958 0 6.571 3.383 11.868 7.968 12.958v8.618h-29.394v-8.618zm0 18.571v-8.196h2.398v3.909h24.598v-3.909h2.398v8.196h-29.394z" fill="#3C2F29"/></svg>