<svg width="180" height="198" viewBox="0 0 180 198" fill="none" xmlns="http://www.w3.org/2000/svg"><path d="M175.432 150.273H4.574v45.535h170.858v-45.535z" fill="#51545A"/><path fill-rule="evenodd" clip-rule="evenodd" d="M122.801 143.212H63.267s.13-3.006-1.816-5.093c-1.945-2.087-11.104-4.805-9.503-10.654 1.602-5.848 5.127-6.102 2.6-10.05-2.532-3.948-3.04-.034-3.762-3.463-.721-3.434 3.396-7.794-2.532-13.733-5.927-5.944-10.665-6.801-11.753-10.208-1.089-3.406-5.008-4.14-8.42-5.995-3.412-1.855-8.776-2.2-8.973-6.367-.198-4.168 2.52-13.863 2.52-18.296s-4.263-3.547-3.631-7.72c.637-4.174 13.383-7.67 13.383-11.77 0-4.101-.265-14.805 1.534-17.682 1.805-2.87 2.854 2.933 7.224-.293 4.371-3.232 18.386-6.615 20.09-6.615 1.703 0-8.601 9.892-2.832 9.976 5.77.085 6.232-1.393 6.232-1.393l9.56 5.922s-2.369 2.572 1.9 3.993c4.27 1.421 22.17 6.373 23.795 7.22 1.624.845 4.021-.982 8.392.366 4.371 1.353 6.367 2.86 5.893 5.685-.468 2.825 3.446 1.11 5.725 3.197 2.278 2.087.135 4.727.135 7.501 0 2.775.536 4.106 3.017 2.623 2.482-1.483-.908 4.703.7 7.027 1.601 2.324 1.895 4.055-.553 4.692-2.453.638-8.838 10.626-6.001 12.239 2.837 1.613 5.386-2.16 7.484-4.913 2.098-2.752 2.33-6.265 4.084-5.126 1.759 1.14 2.363 3.344.84 6.762-1.523 3.412-2.583 8.578-2.583 11.64 0 3.063-2.843 3.627-2.843 6.65 0 3.023.079 9.706.079 12.729 0 3.023-3.953 5.86-3.722 11.466.231 5.606 3.373 8.73 3.756 11.753.395 3.034-.485 7.93-.485 7.93z" fill="#DF4828"/><path d="M122.801 145.185H63.267a1.976 1.976 0 0 1-1.974-2.058c0-.011.051-2.228-1.285-3.655-.333-.355-1.427-.987-2.397-1.545-3.418-1.968-9.137-5.262-7.569-10.975.716-2.617 1.788-4.258 2.572-5.454 1.043-1.601 1.105-1.697.27-3.006-.4-.631-.67-.902-.795-1.015-2.52.26-3.023-2.098-3.237-3.107-.31-1.467-.011-2.899.276-4.281.547-2.634 1.066-5.115-2.273-8.465-2.605-2.612-4.996-4.208-6.914-5.488-2.527-1.686-4.523-3.023-5.318-5.51-.52-1.613-2.115-2.391-4.687-3.53-.914-.407-1.855-.824-2.797-1.337-.824-.451-1.833-.812-2.9-1.201-3.073-1.112-6.897-2.493-7.1-6.808-.112-2.397.576-6.057 1.297-9.931.598-3.204 1.219-6.514 1.219-8.46 0-1.28-.44-1.664-1.326-2.425-1.105-.953-2.769-2.397-2.284-5.595.451-2.978 3.97-5.036 7.699-7.213 1.692-.987 5.656-3.305 5.656-4.258 0-.412 0-.897-.005-1.427-.04-7.202.067-14.472 1.844-17.297.603-.96 1.32-1.517 2.194-1.692 1.274-.26 2.239.406 2.944.89.959.66 1.314.909 2.588-.033 4.738-3.502 19.215-7 21.262-7 .83 0 1.568.447 1.93 1.157.699 1.37-.125 2.51-1.76 4.777-.672.93-2.081 2.876-2.606 4.05 2.86.016 3.954-.424 4.224-.565.226-.315.547-.57.92-.705a1.962 1.962 0 0 1 1.725.17l9.56 5.921c.502.31.835.83.913 1.41a1.999 1.999 0 0 1-.501 1.608c-.029.04-.08.118-.108.186.119.107.435.344 1.185.592 1.709.57 5.724 1.737 9.965 2.972 8.827 2.566 13.096 3.835 14.117 4.371.175.056.868-.045 1.376-.124 1.489-.22 3.739-.553 6.683.355 2.374.733 7.851 2.431 7.32 7.473.181.028.384.056.553.085 1.286.18 3.046.423 4.495 1.754 2.386 2.188 1.698 4.805 1.19 6.711-.214.806-.412 1.562-.412 2.245 0 .389.012.688.029.924 1.443-.862 2.459-.428 2.932-.09 1.365.97 1.032 2.6.683 4.326-.175.857-.587 2.87-.277 3.367.931 1.348 2.087 3.367 1.371 5.285-.305.823-1.077 1.911-3.006 2.425-.468.23-1.918 1.658-3.429 4.162-1.405 2.329-1.833 3.908-1.861 4.562 1.066.153 2.6-1.76 4.218-3.908l.44-.58c.66-.864 1.122-1.879 1.534-2.776.666-1.455 1.292-2.825 2.741-3.243.564-.163 1.45-.225 2.459.429 1.325.863 4.134 3.48 1.568 9.221-1.489 3.333-2.408 8.223-2.408 10.84 0 2.222-1.072 3.581-1.85 4.574-.671.851-.993 1.291-.993 2.08 0 1.507.017 3.932.04 6.351.017 2.431.039 4.867.039 6.384 0 1.766-.829 3.26-1.709 4.839-1.049 1.878-2.126 3.824-2.019 6.548.124 2.972 1.202 5.206 2.155 7.174.716 1.483 1.393 2.888 1.59 4.405.417 3.288-.468 8.307-.507 8.516a1.962 1.962 0 0 1-1.935 1.618zm-57.735-3.947h56.032c.22-1.709.434-4.106.231-5.697-.113-.879-.632-1.951-1.229-3.186-1.066-2.2-2.386-4.941-2.544-8.73-.158-3.836 1.387-6.61 2.51-8.635.648-1.167 1.212-2.177 1.212-2.916 0-1.506-.017-3.931-.039-6.35-.017-2.431-.04-4.867-.04-6.379 0-2.188 1.061-3.536 1.839-4.523.677-.863 1.004-1.314 1.004-2.132 0-3.52 1.207-8.99 2.752-12.447.671-1.506.863-2.662.57-3.457-.045.102-.096.209-.141.305-.474 1.026-1.061 2.306-1.98 3.519l-.428.564c-2.172 2.876-5.449 7.23-9.605 4.867-.761-.434-1.991-1.54-1.658-4.072.502-3.813 5.126-11.015 8.132-11.799.119-.028.209-.062.282-.09-.073-.248-.282-.739-.851-1.573-1.1-1.596-.857-3.711-.508-5.567a3.042 3.042 0 0 1-1.737-.378c-1.602-.908-1.821-2.853-1.821-4.822 0-1.195.287-2.29.547-3.254.496-1.883.49-2.3-.04-2.792-.547-.502-1.432-.626-2.374-.755-1.202-.17-2.561-.356-3.424-1.534-.53-.722-.71-1.63-.535-2.685.141-.835.327-1.974-4.535-3.474-2.087-.643-3.604-.417-4.94-.22-1.241.186-2.521.372-3.785-.282-.941-.457-8.138-2.55-13.388-4.078-4.287-1.246-8.33-2.425-10.113-3.017-2.126-.705-3.4-1.838-3.79-3.355a3.723 3.723 0 0 1-.022-1.76l-6.898-4.275c-1.224.598-3.203 1.02-6.39.964-2.064-.028-2.983-.992-3.383-1.799-1.06-2.109.547-4.765 2.43-7.416-4.698 1.14-12.26 3.361-15.097 5.46-3.34 2.47-5.713 1.105-6.966.253-1.071 2.803-1.02 11.336-1.003 14.68.005.542.005 1.032.005 1.45 0 3.22-3.7 5.38-7.614 7.67-2.103 1.23-5.617 3.282-5.786 4.399-.158 1.043.056 1.23.964 2.013 1.072.925 2.69 2.324 2.69 5.409 0 2.312-.625 5.651-1.285 9.187-.654 3.48-1.326 7.078-1.235 9.018.073 1.523 1.427 2.172 4.494 3.283 1.157.417 2.358.851 3.446 1.444.801.434 1.67.823 2.51 1.195 2.702 1.196 5.764 2.555 6.847 5.939.36 1.122 1.534 1.945 3.75 3.429 2.07 1.382 4.642 3.096 7.518 5.984 4.845 4.856 3.942 9.193 3.345 12.058-.226 1.077-.418 2.007-.282 2.662 1.297.186 2.38 1.071 3.49 2.808 2.217 3.457.886 5.493-.287 7.292-.71 1.089-1.511 2.318-2.07 4.343-.417 1.517-.27 3.057 5.73 6.508 1.438.829 2.578 1.484 3.31 2.273 1.36 1.45 1.935 3.159 2.183 4.473zM122.7 73.994h-.006.006zm-60.944-50.73c0 .006 0 .006 0 0 0 .006 0 .006 0 0zm0-.005zm.005-.012c0 .006 0 .006-.005.012 0 0 .005-.006.005-.012zm0-.005s0 .005 0 0c0 .005 0 0 0 0z" fill="#101D32"/><path fill-rule="evenodd" clip-rule="evenodd" d="M137.668 60.43c1.5.384 2.069-.372 2.645-2.126.575-1.754.519-6.21-1.737-6.057-2.256.152-4.129 7.355-.908 8.184z" fill="#DF4828"/><path d="M138.401 62.506c-.372 0-.778-.05-1.224-.164-2.228-.575-3.44-2.774-3.17-5.752.271-2.933 1.912-6.142 4.433-6.311 1.179-.08 2.228.4 2.967 1.353 1.579 2.03 1.286 5.747.778 7.287-.338 1.038-1.179 3.587-3.784 3.587zm-.277-3.88l-.451 1.805.463-1.805h-.012zm.418-3.83a6.142 6.142 0 0 0-.615 2.318c-.051.846.124 1.264.203 1.376a7.6 7.6 0 0 0 .31-.806c.254-.767.254-2.053.102-2.888z" fill="#101D32"/><path fill-rule="evenodd" clip-rule="evenodd" d="M135.947 62.1c.886-.508-.265 6.581-.964 7.856-.705 1.275-3.435 5.087-4.094 5.86-.66.772-1.788.79-1.41-3.412.378-4.207 1.517-7.456 6.468-10.304z" fill="#DF4828"/><path d="M130.212 78.185c-.322 0-.643-.062-.948-.192-1.928-.818-1.974-3.373-1.754-5.77.435-4.777 1.861-8.623 7.451-11.838a2.095 2.095 0 0 1 2.537.316c.739.722 1.01 1.76.446 5.392-.13.84-.603 3.666-1.235 4.816-.79 1.433-3.627 5.375-4.326 6.193-.609.705-1.387 1.083-2.171 1.083zm3.739-12.132c-1.5 1.574-2.109 3.328-2.403 5.522.728-1.038 1.416-2.059 1.698-2.578.214-.434.491-1.669.705-2.944zm41.481 131.724H4.574a1.976 1.976 0 0 1-1.974-1.974v-52.591c0-1.089.885-1.974 1.974-1.974h170.858c1.088 0 1.974.885 1.974 1.974v52.591a1.973 1.973 0 0 1-1.974 1.974zM6.548 193.829h166.91v-48.644H6.548v48.644z" fill="#101D32"/><path d="M159.68 143.212h-3.948V118.87c0-1.41.547-2.735 1.545-3.733a5.24 5.24 0 0 1 3.734-1.546h4.952c6.305 0 11.437 5.133 11.437 11.438v7.264a5.286 5.286 0 0 1-5.279 5.279h-9.227v-3.948h9.227c.733 0 1.331-.598 1.331-1.331v-7.264c0-4.129-3.361-7.49-7.489-7.49h-4.952c-.356 0-.688.141-.942.389a1.318 1.318 0 0 0-.389.942v24.342z" fill="#101D32"/><path fill-rule="evenodd" clip-rule="evenodd" d="M75.63 143.212s-3.418-8.263-5.533-11.81c-2.115-3.548-5.77-9.244-4.737-11.426 1.026-2.183 2.695-5.759.925-6.672-1.771-.908-5.59-8.212-5.127-11.133.468-2.922 3.215-13.372 2.775-16.13-.44-2.764-8.449-.35-9.464-3.83-1.015-3.48-11.894-4.703-10.97-8.657.926-3.948 1.879-11.635 3.729-14.9 1.85-3.271 8.956-3.553 8.335-6.407-.62-2.848-.851-11.855-.851-11.855s7.518 4.27 7.822 6.79c.305 2.522 2.47 7.096 1.168 10.75-1.303 3.655-1.974 6.835-.683 7.044 1.292.203 5.527 2.724 10.033 4.021 4.512 1.292 13.023 4.63 13.023 7.411 0 2.78-5.234 7.247-4.41 11.2.823 3.954-.57 10.547 3.084 9.82 3.655-.728 11.398-15.335 11.139-19.475-.26-4.14-3.937-13.033-3.937-13.71 0-.677-.953-2.425 0-4.969.954-2.543 2.256-5.99 2.256-5.99s1.405 8.365 2.33 10.271c.924 1.906 3.897 7.005 3.998 10.422.102 3.412 2.386 8.556 1.472 14.698-.908 6.136-3.39 14.77-2.617 17.776.773 3.001 6.565 3.773 6.565 6.554 0 2.78-.045 4.517.13 9.057s1.054 7.975 1.054 9.413c0 1.438 3.018 11.782 3.018 11.782l-34.527-.045z" fill="#D1B565"/><mask id="a" maskUnits="userSpaceOnUse" x="43" y="40" width="68" height="104"><path fill-rule="evenodd" clip-rule="evenodd" d="M75.63 143.212s-3.418-8.263-5.533-11.81c-2.115-3.548-5.77-9.244-4.737-11.426 1.026-2.183 2.695-5.759.925-6.672-1.771-.908-5.59-8.212-5.127-11.133.468-2.922 3.215-13.372 2.775-16.13-.44-2.764-8.449-.35-9.464-3.83-1.015-3.48-11.894-4.703-10.97-8.657.926-3.948 1.879-11.635 3.729-14.9 1.85-3.271 8.956-3.553 8.335-6.407-.62-2.848-.851-11.855-.851-11.855s7.518 4.27 7.822 6.79c.305 2.522 2.47 7.096 1.168 10.75-1.303 3.655-1.974 6.835-.683 7.044 1.292.203 5.527 2.724 10.033 4.021 4.512 1.292 13.023 4.63 13.023 7.411 0 2.78-5.234 7.247-4.41 11.2.823 3.954-.57 10.547 3.084 9.82 3.655-.728 11.398-15.335 11.139-19.475-.26-4.14-3.937-13.033-3.937-13.71 0-.677-.953-2.425 0-4.969.954-2.543 2.256-5.99 2.256-5.99s1.405 8.365 2.33 10.271c.924 1.906 3.897 7.005 3.998 10.422.102 3.412 2.386 8.556 1.472 14.698-.908 6.136-3.39 14.77-2.617 17.776.773 3.001 6.565 3.773 6.565 6.554 0 2.78-.045 4.517.13 9.057s1.054 7.975 1.054 9.413c0 1.438 3.018 11.782 3.018 11.782l-34.527-.045z" fill="#D1B565"/></mask><g mask="url(#a)"><path opacity=".5" d="M54.419 34.657c.022 0 .045 0 .067.005.942.203.987 1.8-.13 1.884h-.005s-.547-.045-.795-.434c-.367-.57.056-1.455.851-1.455h.012zm3.756 0c.022 0 .045 0 .067.005.93.203 1.111 1.788-.13 1.884h-.005s-.547-.045-.795-.434c-.367-.57.056-1.455.851-1.455h.012zm3.79 0h.067c.93.203 1.111 1.787-.13 1.883h-.005s-.84-.152-.936-.812c-.08-.558.383-1.077.998-1.077l.005.006zm-1.89 2.52c.023 0 .045 0 .068.006.93.203 1.11 1.788-.13 1.884h-.005s-.74-.107-.909-.682c-.169-.576.294-1.207.97-1.207h.006zm3.784 0c.023 0 .046 0 .068.006.93.203 1.111 1.788-.13 1.884h-.005s-.547-.045-.795-.434c-.367-.57.056-1.455.851-1.455h.011zm-7.551 0c.022 0 .05 0 .073.006.914.198 1.184 1.782-.13 1.884h-.005s-.451-.023-.717-.327c-.473-.547-.073-1.557.767-1.562h.012zm-3.807-.005c.028 0 .062 0 .096.006.93.203 1.11 1.787-.13 1.883h-.005s-1.67-.75-.62-1.663a.982.982 0 0 1 .653-.226h.006zm9.531 2.504c.93.203 1.111 1.793-.135 1.884 0 0-.547-.045-.795-.434-.378-.593.084-1.512.93-1.45zm-3.784 0c.942.203.987 1.805-.136 1.884 0 0-.738-.107-.907-.683-.18-.598.327-1.252 1.043-1.201zm-3.762 0c.93.203 1.111 1.793-.135 1.884 0 0-.451-.023-.716-.327-.491-.57-.046-1.625.851-1.557zm-1.89 2.515c.915.198 1.05 1.8-.134 1.884 0 0-.548-.045-.796-.434-.383-.587.08-1.506.93-1.45zm3.785 0c.936.203 1.05 1.8-.135 1.884 0 0-.547-.045-.795-.434-.378-.587.084-1.506.93-1.45zm3.762 0c.92.198 1.184 1.788-.136 1.884 0 0-.642-.073-.862-.553-.282-.609.23-1.381.998-1.33zm3.784 0c.936.203 1.05 1.8-.135 1.884 0 0-.739-.107-.908-.682-.175-.593.333-1.252 1.043-1.202zm-9.44 2.499c.93.203 1.11 1.793-.136 1.884 0 0-.739-.108-.908-.683-.175-.598.333-1.252 1.043-1.201zm3.76 0c.937.203 1.05 1.799-.135 1.884 0 0-.642-.08-.862-.553-.282-.61.23-1.388.998-1.331zm3.785 0c.93.203 1.111 1.793-.135 1.884 0 0-1.67-.756-.62-1.664.203-.175.468-.243.755-.22zm-9.435 2.52c.913.198 1.049 1.8-.136 1.884 0 0-1.799-.913-.513-1.742.186-.124.412-.158.649-.141zm11.33 0c.93.204 1.015 1.806-.135 1.884 0 0-.739-.107-.908-.682-.175-.598.333-1.252 1.043-1.201zm-7.546 0c.92.198 1.184 1.789-.135 1.884 0 0-1.67-.75-.62-1.663.202-.175.468-.243.755-.22zm3.762 0c.936.204.959 1.806-.136 1.884 0 0-.45-.022-.716-.327-.49-.57-.05-1.624.852-1.556zm43.562 2.494c.93.203 1.111 1.793-.136 1.883 0 0-.547-.045-.795-.434-.378-.587.085-1.506.931-1.45zm-45.457 0c.92.197 1.184 1.787-.136 1.883 0 0-.738-.107-.907-.682-.18-.592.327-1.252 1.043-1.201zm3.784 0c.942.203.987 1.804-.135 1.883 0 0-1.8-.913-.513-1.742a1.07 1.07 0 0 1 .648-.141zm3.79 0c.936.203 1.05 1.799-.135 1.883 0 0-.739-.107-.908-.682-.175-.592.327-1.252 1.043-1.201zm3.79 0c.93.203 1.111 1.793-.135 1.883 0 0-.74-.107-.908-.682-.175-.592.327-1.252 1.043-1.201zm3.784 0c.942.203.987 1.804-.135 1.883 0 0-.547-.045-.795-.434-.378-.587.084-1.506.93-1.45zm3.79 0c.937.203 1.05 1.799-.135 1.883 0 0-.739-.107-.908-.682-.175-.592.333-1.252 1.043-1.201zm3.79 0c.93.203 1.111 1.793-.135 1.883 0 0-1.8-.913-.513-1.742.186-.119.417-.158.648-.141zm3.79 0c.936.203 1.05 1.799-.135 1.883 0 0-.547-.045-.795-.434-.384-.587.079-1.506.93-1.45zm3.785 0c.93.203 1.015 1.799-.136 1.883 0 0-.739-.107-.908-.682-.175-.592.333-1.252 1.044-1.201zm3.79 0c.93.203 1.11 1.793-.136 1.883 0 0-1.67-.75-.62-1.664.203-.169.468-.236.756-.22zm3.79 0c.93.203 1.11 1.793-.136 1.883 0 0-.451-.022-.716-.327-.49-.564-.05-1.618.852-1.556zm3.784 0c.93.203 1.111 1.793-.136 1.883 0 0-.738-.107-.908-.682-.174-.592.333-1.252 1.044-1.201zm-45.429 0c.936.203.959 1.804-.135 1.883 0 0-.739-.107-.908-.682-.175-.592.333-1.252 1.043-1.201zm-1.89 2.52c.92.198 1.185 1.788-.134 1.884 0 0-.548-.045-.796-.434-.383-.587.08-1.511.93-1.45zm3.785 0c.942.204.987 1.805-.135 1.884 0 0-.547-.045-.795-.434-.378-.587.084-1.511.93-1.45zm7.546 0c.93.204 1.111 1.794-.135 1.884 0 0-.547-.045-.795-.434-.378-.587.084-1.511.93-1.45zm37.883 0c.942.204.987 1.805-.136 1.884 0 0-.547-.045-.795-.434-.378-.587.085-1.511.931-1.45zm-3.785 0c.931.204 1.111 1.794-.135 1.884 0 0-.451-.022-.716-.327-.49-.564-.05-1.618.851-1.556zm-3.79 0c.937.204 1.05 1.8-.135 1.884 0 0-.547-.045-.795-.434-.378-.587.084-1.511.93-1.45zm-3.79 0c.942.204.988 1.805-.135 1.884 0 0-.547-.045-.795-.434-.378-.587.085-1.511.93-1.45zm-3.784 0c.93.204 1.111 1.794-.135 1.884 0 0-.739-.107-.908-.682-.18-.592.327-1.252 1.043-1.201zm-26.518 0c.93.204 1.11 1.794-.136 1.884 0 0-.45-.022-.716-.327-.49-.564-.05-1.618.852-1.556zm22.728 0c.937.204 1.05 1.8-.135 1.884 0 0-.547-.045-.795-.434-.378-.587.079-1.511.93-1.45zm-3.79 0c.92.198 1.185 1.788-.135 1.884 0 0-.739-.107-.908-.682-.175-.592.333-1.252 1.043-1.201zm-3.79 0c.931.204 1.111 1.794-.135 1.884 0 0-.739-.107-.908-.682-.175-.592.333-1.252 1.043-1.201zm-3.784 0c.936.204 1.05 1.8-.135 1.884 0 0-.451-.022-.716-.327-.491-.564-.051-1.618.851-1.556zm-3.79 0c.93.204 1.111 1.794-.135 1.884 0 0-.739-.107-.908-.682-.175-.592.327-1.252 1.043-1.201zm-13.23 2.499c.913.197 1.048 1.8-.136 1.884 0 0-.739-.107-.908-.683-.175-.597.333-1.252 1.043-1.201zm-3.785 0c.93.203 1.11 1.794-.136 1.884 0 0-.738-.107-.908-.683-.18-.597.328-1.252 1.044-1.201zm-3.79 0c.92.197 1.184 1.788-.136 1.884 0 0-.738-.107-.908-.683-.174-.597.328-1.252 1.044-1.201zm-3.79 0c.93.203 1.111 1.794-.135 1.884 0 0-.452-.023-.717-.327-.49-.57-.045-1.625.852-1.557zm22.7 0c.92.197 1.184 1.788-.135 1.884 0 0-.643-.074-.863-.553-.276-.615.237-1.387.998-1.331zm3.79 0c.93.203 1.015 1.805-.135 1.884 0 0-.74-.107-.908-.683-.175-.597.327-1.252 1.043-1.201zm3.784 0c.942.203.987 1.805-.135 1.884 0 0-.739-.107-.908-.683-.175-.597.333-1.252 1.043-1.201zm3.79 0c.92.197 1.185 1.788-.135 1.884 0 0-.643-.074-.863-.553-.276-.615.237-1.387.998-1.331zm3.79 0c.936.203.965 1.805-.135 1.884 0 0-1.67-.75-.62-1.664.203-.175.468-.242.755-.22zm3.79 0c.93.203 1.111 1.794-.135 1.884 0 0-.547-.045-.795-.435-.384-.592.079-1.511.93-1.449zm7.575 0c.919.197 1.184 1.788-.136 1.884 0 0-.451-.023-.716-.327-.49-.57-.05-1.625.852-1.557zm3.79 0c.93.203 1.11 1.794-.136 1.884 0 0-.451-.023-.716-.327-.49-.57-.05-1.625.852-1.557zm3.784 0c.919.197 1.184 1.788-.136 1.884 0 0-.738-.107-.908-.683-.174-.597.333-1.252 1.044-1.201zm3.79 0c.93.203 1.111 1.794-.136 1.884 0 0-.738-.107-.908-.683-.174-.597.333-1.252 1.044-1.201zm-45.457 0c.92.197 1.184 1.788-.136 1.884 0 0-.642-.074-.862-.553-.282-.615.23-1.387.998-1.331zm30.303 0c.93.203 1.11 1.794-.136 1.884 0 0-.739-.107-.908-.683-.175-.597.333-1.252 1.044-1.201zm-26.519 0c.942.203.987 1.805-.135 1.884 0 0-1.67-.75-.62-1.664.203-.175.468-.242.755-.22zm5.685 2.521c.93.203 1.111 1.794-.135 1.884 0 0-.547-.045-.795-.435-.378-.592.078-1.511.93-1.449zm3.79 0c.936.203 1.05 1.8-.135 1.884 0 0-1.67-.756-.62-1.664.197-.175.468-.242.755-.22zm3.784 0c.937.203 1.05 1.8-.135 1.884 0 0-.451-.023-.716-.327-.485-.57-.045-1.625.851-1.557zm3.79 0c.93.203 1.111 1.794-.135 1.884 0 0-.739-.108-.908-.683-.175-.598.333-1.257 1.043-1.201zm3.79 0c.937.203 1.05 1.8-.135 1.884 0 0-.739-.108-.908-.683-.175-.598.327-1.257 1.043-1.201zm3.79 0c.942.203.987 1.805-.135 1.884 0 0-.547-.045-.795-.435-.384-.592.079-1.511.93-1.449zm3.784 0c.942.203.988 1.805-.135 1.884 0 0-1.67-.756-.62-1.664.203-.175.468-.242.755-.22zm3.79 0c.931.203 1.112 1.794-.135 1.884 0 0-.547-.045-.795-.435-.378-.592.084-1.511.93-1.449zm3.79 0c.931.203 1.111 1.794-.135 1.884 0 0-1.67-.756-.62-1.664.197-.175.468-.242.755-.22zm3.785 0c.936.203.959 1.805-.136 1.884 0 0-1.669-.756-.62-1.664.203-.175.468-.242.756-.22zm-37.883 0c.942.203.987 1.805-.135 1.884 0 0-.739-.108-.908-.683-.175-.598.333-1.257 1.043-1.201zm-18.91 0c.93.203 1.111 1.794-.135 1.884 0 0-1.67-.756-.62-1.664.202-.175.467-.242.755-.22zm3.79 0c.936.203.959 1.805-.136 1.884 0 0-1.669-.756-.62-1.664.197-.175.468-.242.756-.22zm3.79 0c.92.197 1.184 1.788-.136 1.884 0 0-.738-.108-.907-.683-.181-.598.327-1.257 1.043-1.201zm3.784 0c.92.197 1.184 1.788-.135 1.884 0 0-.451-.023-.717-.327-.49-.57-.045-1.625.852-1.557zm3.762 0c.93.203 1.11 1.794-.136 1.884 0 0-.642-.074-.862-.553-.282-.615.23-1.387.998-1.331zm-17.021 2.493c.93.203 1.111 1.793-.135 1.883 0 0-.643-.073-.863-.552-.277-.61.237-1.388.998-1.331zm3.79 0c.936.203 1.049 1.799-.136 1.883 0 0-.547-.045-.795-.434-.383-.586.08-1.511.93-1.45zm3.79 0c.93.203 1.11 1.793-.136 1.883 0 0-.45-.022-.716-.327-.49-.564-.05-1.618.852-1.556zm3.784 0c.93.203 1.015 1.804-.135 1.883 0 0-.739-.107-.908-.682-.175-.598.333-1.252 1.043-1.201zm26.49 0c.92.197 1.185 1.788-.135 1.883 0 0-1.67-.75-.62-1.663.203-.17.468-.243.755-.22zm-22.728 0c.92.197 1.184 1.788-.136 1.883 0 0-.642-.073-.862-.552-.282-.61.23-1.388.998-1.331zm3.784 0c.92.197 1.185 1.788-.135 1.883 0 0-.451-.022-.716-.327-.491-.564-.045-1.618.851-1.556zm3.79 0c.93.203 1.111 1.793-.135 1.883 0 0-.643-.073-.863-.552-.276-.61.237-1.388.998-1.331zm3.79 0c.93.203 1.015 1.804-.135 1.883 0 0-.74-.107-.908-.682-.175-.598.327-1.252 1.043-1.201zm3.784 0c.92.197 1.185 1.788-.135 1.883 0 0-.739-.107-.908-.682-.175-.598.333-1.252 1.043-1.201zm3.79 0c.93.203 1.111 1.793-.135 1.883 0 0-.643-.073-.863-.552-.276-.61.237-1.388.998-1.331zm7.58 0c.93.203 1.111 1.793-.135 1.883 0 0-.739-.107-.908-.682-.18-.598.327-1.252 1.043-1.201zm3.785 0c.93.203 1.11 1.793-.136 1.883 0 0-.739-.107-.908-.682-.175-.598.333-1.252 1.044-1.201zm3.79 0c.93.203 1.11 1.793-.136 1.883 0 0-.451-.022-.716-.327-.49-.564-.05-1.618.852-1.556zm3.79 0c.93.203 1.11 1.793-.136 1.883 0 0-.643-.073-.863-.552-.276-.61.237-1.388.998-1.331zm3.784 0c.936.203 1.049 1.799-.136 1.883 0 0-.547-.045-.795-.434-.378-.586.085-1.511.93-1.45zm3.79 0c.93.203 1.111 1.793-.136 1.883 0 0-.451-.022-.716-.327-.491-.564-.045-1.618.852-1.556zm-58.688 2.52c.93.204 1.111 1.794-.135 1.884 0 0-.452-.022-.717-.327-.49-.564-.045-1.624.852-1.556zm3.79 0c.942.204.987 1.806-.136 1.884 0 0-.45-.022-.716-.327-.49-.564-.05-1.624.852-1.556zm3.79 0c.92.198 1.184 1.789-.136 1.884 0 0-.738-.107-.907-.682-.181-.598.327-1.252 1.043-1.201zm3.784 0c.92.198 1.184 1.789-.135 1.884 0 0-.451-.022-.717-.327-.49-.564-.045-1.624.852-1.556zm3.762 0c.93.204 1.11 1.794-.136 1.884 0 0-.642-.073-.862-.552-.282-.61.23-1.388.998-1.331zm41.667 0c.942.204.987 1.806-.136 1.884 0 0-.451-.022-.716-.327-.485-.564-.045-1.624.852-1.556zm-3.785 0c.931.204 1.111 1.794-.135 1.884 0 0-.451-.022-.716-.327-.49-.564-.05-1.624.851-1.556zm-3.79 0c.937.204 1.05 1.8-.135 1.884 0 0-1.67-.75-.62-1.663.203-.175.468-.243.755-.22zm-3.79 0c.92.198 1.185 1.789-.135 1.884 0 0-.451-.022-.716-.327-.49-.564-.045-1.624.852-1.556zm-3.784 0c.92.198 1.185 1.789-.135 1.884 0 0-.547-.045-.795-.434-.384-.592.079-1.511.93-1.45zm-3.79 0c.937.204 1.05 1.8-.135 1.884 0 0-.643-.073-.863-.552-.276-.61.237-1.388.998-1.331zm-3.79 0c.936.204 1.05 1.8-.135 1.884 0 0-.547-.045-.795-.434-.378-.592.084-1.511.93-1.45zm-3.79 0c.937.204 1.05 1.8-.135 1.884 0 0-.84-.152-.936-.812-.08-.58.423-1.116 1.071-1.071zm-3.784 0c.93.204 1.111 1.794-.135 1.884 0 0-1.67-.75-.62-1.663.197-.175.468-.243.755-.22zm-3.79 0c.93.204 1.111 1.794-.135 1.884 0 0-.547-.045-.795-.434-.378-.592.078-1.511.93-1.45zm-3.79 0c.936.204 1.05 1.8-.135 1.884 0 0-.643-.073-.863-.552-.276-.61.237-1.388.998-1.331zm1.895 2.494c.93.203 1.111 1.793-.135 1.883 0 0-.643-.079-.863-.552-.276-.61.237-1.382.998-1.331zm3.79 0c.936.203 1.05 1.799-.135 1.883 0 0-.547-.045-.796-.434-.383-.587.08-1.506.931-1.45zm3.784 0c.931.203 1.111 1.793-.135 1.883 0 0-.947-.197-.947-.947.005-.536.485-.976 1.082-.936zm3.79 0c.93.203 1.111 1.793-.135 1.883 0 0-.948-.197-.948-.947 0-.536.486-.976 1.083-.936zm3.79 0c.936.203 1.05 1.799-.135 1.883 0 0-.643-.079-.863-.552-.276-.61.237-1.382.998-1.331zm-22.728 0c.93.203 1.11 1.793-.136 1.883 0 0-.947-.197-.947-.947 0-.536.48-.976 1.083-.936zm26.518 0c.93.203 1.111 1.793-.135 1.883 0 0-.547-.045-.795-.434-.384-.587.079-1.506.93-1.45zm3.785 0c.941.203.986 1.804-.136 1.883 0 0-.547-.045-.795-.434-.378-.587.085-1.506.93-1.45zm3.79 0c.93.203 1.11 1.793-.136 1.883 0 0-.739-.107-.908-.682-.175-.592.327-1.252 1.044-1.201zm3.79 0c.93.203 1.11 1.793-.136 1.883 0 0-.739-.107-.908-.682-.175-.592.327-1.252 1.043-1.201zm3.784 0c.93.203 1.111 1.793-.136 1.883 0 0-.547-.045-.795-.434-.378-.587.085-1.506.93-1.45zm3.79 0c.93.203 1.111 1.793-.136 1.883 0 0-.547-.045-.795-.434-.378-.587.085-1.506.931-1.45zm-53.003 0c.93.203 1.11 1.793-.136 1.883 0 0-.547-.045-.795-.434-.383-.587.08-1.506.93-1.45zm3.784 0c.942.203.987 1.804-.135 1.883 0 0-.547-.045-.795-.434-.378-.587.084-1.506.93-1.45zm-7.574 0c.93.203 1.11 1.793-.136 1.883 0 0-.547-.045-.795-.434-.383-.587.08-1.506.93-1.45zm-3.79 0c.93.203 1.111 1.793-.135 1.883 0 0-.74-.107-.908-.682-.175-.592.327-1.252 1.043-1.201zm18.91 0c.936.203 1.05 1.799-.135 1.883 0 0-.643-.079-.863-.552-.276-.61.237-1.382.998-1.331zm39.778 2.52c.93.204 1.111 1.794-.136 1.884 0 0-.84-.152-.936-.812-.079-.58.423-1.117 1.072-1.071zm-3.785 0c.937.204 1.05 1.8-.135 1.884 0 0-.451-.022-.716-.327-.49-.564-.05-1.618.851-1.556zm-3.79 0c.937.204 1.05 1.8-.135 1.884 0 0-.547-.045-.795-.434-.378-.587.084-1.506.93-1.45zm-7.574 0c.942.204.987 1.805-.135 1.884 0 0-.739-.107-.908-.682-.18-.592.327-1.252 1.043-1.201zm-3.79 0c.937.204 1.05 1.8-.135 1.884 0 0-.547-.045-.795-.434-.378-.587.079-1.506.93-1.45zm-3.79 0c.93.204 1.111 1.794-.135 1.884 0 0-.739-.107-.908-.682-.175-.592.333-1.252 1.043-1.201zm-3.79 0c.937.204.96 1.805-.135 1.884 0 0-1.67-.75-.62-1.663.203-.17.468-.237.755-.22zm-3.784 0c.93.204 1.111 1.794-.135 1.884 0 0-.74-.107-.908-.682-.175-.592.327-1.252 1.043-1.201zm-3.79 0c.942.204.987 1.805-.135 1.884 0 0-.739-.107-.908-.682-.175-.592.327-1.252 1.043-1.201zm-3.79 0c.936.204 1.05 1.8-.135 1.884 0 0-.547-.045-.795-.434-.378-.587.084-1.506.93-1.45zm26.518 0c.92.198 1.185 1.788-.135 1.884 0 0-.451-.022-.716-.327-.49-.564-.045-1.618.852-1.556zm-30.302 0c.942.204.987 1.805-.136 1.884 0 0-.947-.197-.947-.947 0-.536.48-.976 1.083-.936zm-7.546 0c.936.204 1.049 1.8-.136 1.884 0 0-.45-.022-.716-.327-.49-.564-.05-1.618.852-1.556zm-3.79 0c.93.204 1.11 1.794-.136 1.884 0 0-.84-.152-.936-.812-.084-.58.418-1.117 1.072-1.071zm-3.79 0c.936.204 1.049 1.8-.135 1.884 0 0-.452-.022-.717-.327-.49-.564-.045-1.618.852-1.556zm11.364 0c.93.204 1.111 1.794-.135 1.884 0 0-.451-.022-.717-.327-.49-.564-.045-1.618.852-1.556zm-13.26 2.499c.931.203 1.112 1.794-.134 1.884 0 0-.452-.023-.717-.327-.49-.564-.045-1.625.852-1.557zm3.79 0c.937.203 1.05 1.8-.135 1.884 0 0-.547-.045-.795-.435-.383-.592.08-1.511.93-1.449zm3.79 0c.931.203 1.112 1.794-.135 1.884 0 0-.547-.045-.795-.435-.383-.592.08-1.511.93-1.449zm3.785 0c.93.203 1.111 1.794-.135 1.884 0 0-1.67-.75-.62-1.664.202-.175.468-.242.755-.22zm3.762 0c.93.203 1.11 1.794-.136 1.884 0 0-.947-.192-.947-.948 0-.541.48-.981 1.083-.936zm3.784 0c.942.203.987 1.805-.135 1.884 0 0-.643-.074-.863-.553-.276-.61.237-1.387.998-1.331zm3.79 0c.936.203 1.05 1.8-.135 1.884 0 0-.948-.192-.948-.948 0-.541.485-.981 1.083-.936zm3.79 0c.93.203 1.111 1.794-.135 1.884 0 0-.547-.045-.796-.435-.383-.592.08-1.511.931-1.449zm3.784 0c.931.203 1.111 1.794-.135 1.884 0 0-.547-.045-.795-.435-.378-.592.084-1.511.93-1.449zm3.79 0c.937.203 1.05 1.8-.135 1.884 0 0-.948-.192-.948-.948 0-.541.486-.981 1.083-.936zm3.79 0c.942.203.987 1.805-.135 1.884 0 0-.643-.074-.863-.553-.276-.61.237-1.387.998-1.331zm7.575 0c.93.203 1.11 1.794-.136 1.884 0 0-1.67-.75-.62-1.664.203-.175.468-.242.756-.22zm3.79 0c.936.203 1.049 1.8-.136 1.884 0 0-.739-.107-.908-.683-.175-.597.327-1.252 1.044-1.201zm3.79 0c.93.203 1.11 1.794-.136 1.884 0 0-.451-.023-.716-.327-.49-.564-.05-1.625.852-1.557zm3.784 0c.936.203 1.049 1.8-.136 1.884 0 0-.547-.045-.795-.435-.378-.592.085-1.511.93-1.449zm3.79 0c.93.203 1.111 1.794-.136 1.884 0 0-.547-.045-.795-.435-.378-.592.085-1.511.931-1.449zm-18.939 0c.93.203 1.111 1.794-.135 1.884 0 0-.547-.045-.795-.435-.384-.592.079-1.511.93-1.449zm1.895 2.521c.93.203 1.111 1.794-.135 1.884 0 0-.739-.108-.908-.683-.18-.598.327-1.252 1.043-1.201zm-30.28 0c.93.203 1.111 1.794-.135 1.884 0 0-.948-.198-.948-.948 0-.541.485-.981 1.083-.936zm-3.784 0c.93.203 1.11 1.794-.136 1.884 0 0-.45-.023-.716-.327-.49-.57-.05-1.625.852-1.557zm-3.79 0c.891.197 1.11 1.794-.136 1.884 0 0-.947-.198-.947-.948 0-.541.48-.981 1.083-.936zm-3.79 0c.936.203.959 1.805-.135 1.884 0 0-.948-.198-.948-.948 0-.541.485-.981 1.083-.936zm15.126 0c.92.197 1.184 1.788-.136 1.884 0 0-.738-.108-.907-.683-.181-.598.327-1.252 1.043-1.201zm3.784 0c.936.203.965 1.805-.135 1.884 0 0-.643-.08-.863-.553-.276-.615.237-1.387.998-1.331zm3.79 0c.93.203 1.111 1.794-.135 1.884 0 0-1.67-.756-.62-1.664.202-.175.468-.243.755-.22zm3.79 0c.891.197 1.111 1.794-.135 1.884 0 0-.74-.108-.908-.683-.175-.598.327-1.252 1.043-1.201zm3.784 0c.92.197 1.185 1.788-.135 1.884 0 0-1.67-.756-.62-1.664.203-.175.468-.243.755-.22zm3.79 0c.93.203 1.111 1.794-.135 1.884 0 0-.643-.08-.863-.553-.276-.615.237-1.387.998-1.331zm3.79 0c.92.197 1.185 1.788-.135 1.884 0 0-1.67-.756-.62-1.664.203-.175.468-.243.755-.22zm7.575 0c.93.203 1.11 1.794-.136 1.884 0 0-.947-.198-.947-.948 0-.541.485-.981 1.082-.936zm3.79 0c.93.203 1.11 1.794-.136 1.884 0 0-.547-.045-.795-.435-.378-.592.084-1.511.93-1.449zm3.79 0c.936.203.958 1.805-.136 1.884 0 0-.947-.198-.947-.948 0-.541.479-.981 1.082-.936zm3.784 0c.891.197 1.111 1.794-.136 1.884 0 0-.947-.198-.947-.948.006-.541.485-.981 1.083-.936zm-51.108 2.493c.93.203 1.11 1.793-.136 1.883 0 0-.738-.107-.908-.682-.18-.592.328-1.252 1.044-1.201zm-3.79 0c.942.203.987 1.804-.136 1.883 0 0-.45-.022-.716-.327-.49-.564-.05-1.618.852-1.556zm-3.79 0c.93.203 1.111 1.793-.135 1.883 0 0-.74-.107-.908-.682-.175-.592.327-1.252 1.043-1.201zm11.364 0c.891.192 1.111 1.793-.135 1.883 0 0-.948-.197-.948-.947 0-.536.485-.976 1.083-.936zm7.546 0c.93.203 1.111 1.793-.135 1.883 0 0-.739-.107-.908-.682-.175-.592.333-1.252 1.043-1.201zm3.79 0c.92.197 1.184 1.788-.135 1.883 0 0-.547-.045-.795-.434-.378-.586.079-1.511.93-1.45zm3.79 0c.93.203 1.015 1.799-.135 1.883 0 0-.74-.107-.908-.682-.175-.592.327-1.252 1.043-1.201zm3.784 0c.897.192 1.111 1.793-.135 1.883 0 0-1.67-.75-.62-1.663.203-.17.468-.237.755-.22zm3.79 0c.92.197 1.185 1.788-.135 1.883 0 0-.739-.107-.908-.682-.175-.592.333-1.252 1.043-1.201zm3.79 0c.92.197 1.185 1.788-.135 1.883 0 0-.739-.107-.908-.682-.175-.592.327-1.252 1.043-1.201zm3.79 0c.942.203.987 1.804-.135 1.883 0 0-.547-.045-.795-.434-.384-.586.079-1.511.93-1.45zm3.785 0c.93.203 1.11 1.793-.136 1.883 0 0-.947-.197-.947-.947 0-.536.485-.976 1.083-.936zm3.79 0c.941.203.987 1.804-.136 1.883 0 0-.739-.107-.908-.682-.175-.592.327-1.252 1.044-1.201zm3.79 0c.93.203 1.11 1.793-.136 1.883 0 0-.739-.107-.908-.682-.175-.592.327-1.252 1.043-1.201zm3.784 0c.942.203.987 1.804-.136 1.883 0 0-.45-.022-.716-.327-.485-.564-.045-1.618.852-1.556zm3.79 0c.93.203 1.111 1.793-.136 1.883 0 0-.738-.107-.908-.682-.174-.592.333-1.252 1.044-1.201zm-45.457 0c.93.203 1.015 1.799-.136 1.883 0 0-.738-.107-.907-.682-.18-.592.327-1.252 1.043-1.201zm-5.651 2.52c.93.204 1.11 1.794-.136 1.885 0 0-.547-.046-.795-.435-.383-.586.08-1.511.93-1.45zm-3.79 0c.93.204 1.11 1.794-.136 1.885 0 0-.45-.023-.716-.328-.49-.564-.05-1.618.852-1.556zm-3.79 0c.93.204 1.111 1.794-.135 1.885 0 0-.643-.074-.863-.553-.277-.61.236-1.388.998-1.331zm15.126 0c.93.204 1.11 1.794-.136 1.885 0 0-.546-.046-.795-.435-.383-.586.08-1.511.93-1.45zm3.784 0c.936.204 1.05 1.8-.135 1.885 0 0-.451-.023-.716-.328-.491-.564-.045-1.618.851-1.556zm3.79 0c.92.198 1.184 1.789-.135 1.885 0 0-.739-.108-.908-.683-.175-.598.327-1.252 1.043-1.201zm3.79 0c.92.198 1.184 1.789-.135 1.885 0 0-.547-.046-.796-.435-.383-.586.08-1.511.931-1.45zm3.784 0c.931.204 1.016 1.805-.135 1.885 0 0-.547-.046-.795-.435-.378-.586.084-1.511.93-1.45zm3.79 0c.92.198 1.185 1.789-.135 1.885 0 0-.547-.046-.795-.435-.378-.586.084-1.511.93-1.45zm3.79 0c.92.198 1.185 1.789-.135 1.885 0 0-.451-.023-.716-.328-.491-.564-.051-1.618.851-1.556zm3.79 0c.93.204 1.111 1.794-.135 1.885 0 0-.643-.074-.863-.553-.282-.61.231-1.388.998-1.331zm3.784 0c.92.198 1.185 1.789-.135 1.885 0 0-.451-.023-.716-.328-.49-.564-.045-1.618.852-1.556zm3.79 0c.931.204 1.112 1.794-.135 1.885 0 0-.547-.046-.795-.435-.378-.586.084-1.511.93-1.45zm3.79 0c.931.204 1.111 1.794-.135 1.885 0 0-.643-.074-.863-.553-.276-.61.237-1.388.998-1.331zm3.785 0c.93.204 1.111 1.794-.136 1.885 0 0-.451-.023-.716-.328-.485-.564-.045-1.618.852-1.556zm-45.429 0c.92.198 1.184 1.789-.135 1.885 0 0-.948-.192-.948-.948 0-.541.485-.981 1.083-.936zm-1.895 2.5c.936.202.959 1.804-.135 1.883 0 0-.948-.197-.948-.948 0-.541.485-.98 1.083-.936zm-3.784 0c.913.197 1.049 1.798-.136 1.883 0 0-.738-.107-.908-.683-.18-.597.328-1.252 1.044-1.2zm-3.79 0c.942.202.987 1.804-.136 1.883 0 0-1.669-.756-.62-1.664.198-.175.468-.242.756-.22zm-3.79 0c.914.197 1.049 1.798-.135 1.883 0 0-.74-.107-.908-.683-.175-.597.327-1.252 1.043-1.2zm37.854 0c.92.197 1.185 1.787-.135 1.883 0 0-.547-.045-.795-.434-.378-.593.079-1.512.93-1.45zm-22.728 0c.93.202 1.015 1.804-.136 1.883 0 0-.738-.107-.907-.683-.18-.597.327-1.252 1.043-1.2zm3.784 0c.93.202 1.111 1.793-.135 1.883 0 0-.547-.045-.795-.434-.378-.593.084-1.512.93-1.45zm3.79 0c.93.202 1.111 1.793-.135 1.883 0 0-.739-.107-.908-.683-.175-.597.327-1.252 1.043-1.2zm3.79 0c.93.202 1.015 1.804-.135 1.883 0 0-.451-.023-.717-.327-.49-.57-.05-1.624.852-1.557zm3.784 0c.931.202 1.111 1.793-.135 1.883 0 0-.451-.023-.716-.327-.485-.57-.045-1.624.851-1.557zm3.79 0c.93.202 1.111 1.793-.135 1.883 0 0-.739-.107-.908-.683-.175-.597.333-1.252 1.043-1.2zm7.58 0c.936.202 1.05 1.798-.135 1.883 0 0-1.67-.756-.62-1.664.197-.175.462-.242.755-.22zm3.785 0c.93.202 1.015 1.804-.136 1.883 0 0-1.67-.756-.62-1.664.203-.175.468-.242.756-.22zm3.79 0c.93.202 1.11 1.793-.136 1.883 0 0-.547-.045-.795-.434-.378-.593.085-1.512.93-1.45zm3.79 0c.913.197 1.049 1.798-.136 1.883 0 0-.739-.107-.908-.683-.175-.597.327-1.252 1.043-1.2zm3.784 0c.942.202.987 1.804-.136 1.883 0 0-1.669-.756-.62-1.664.203-.175.468-.242.756-.22zm3.79 0c.913.197 1.049 1.798-.136 1.883 0 0-.738-.107-.908-.683-.174-.597.333-1.252 1.044-1.2zm-58.688 2.515c.93.203 1.111 1.793-.135 1.883 0 0-.74-.107-.908-.682-.175-.592.327-1.252 1.043-1.201zm3.79 0c.93.203 1.11 1.793-.136 1.883 0 0-.547-.045-.795-.434-.383-.587.08-1.506.93-1.45zm3.79 0c.93.203 1.11 1.793-.136 1.883 0 0-1.799-.913-.513-1.742a1.05 1.05 0 0 1 .649-.141zm3.784 0c.914.197 1.05 1.799-.135 1.883 0 0-.547-.045-.795-.434-.378-.587.084-1.506.93-1.45zm26.49 0c.937.203 1.05 1.799-.135 1.883 0 0-.84-.152-.936-.812-.085-.575.417-1.117 1.071-1.071zm3.79 0c.914.197 1.05 1.799-.135 1.883 0 0-.451-.022-.716-.327-.491-.564-.051-1.618.851-1.556zm3.784 0c.92.197 1.185 1.787-.135 1.883 0 0-.739-.107-.908-.682-.175-.592.333-1.252 1.043-1.201zm3.79 0c.931.203 1.112 1.793-.135 1.883 0 0-.547-.045-.795-.434-.378-.587.084-1.506.93-1.45zm3.79 0c.931.203 1.111 1.793-.135 1.883 0 0-.739-.107-.908-.682-.175-.592.327-1.252 1.043-1.201zm3.785 0c.93.203 1.111 1.793-.136 1.883 0 0-.547-.045-.795-.434-.378-.587.085-1.506.931-1.45zm-22.729 0c.936.203.96 1.804-.135 1.883 0 0-.84-.152-.936-.812-.085-.575.423-1.117 1.071-1.071zm-3.79 0c.914.197 1.05 1.799-.135 1.883 0 0-1.8-.913-.513-1.742a1.07 1.07 0 0 1 .648-.141zm-3.784 0c.936.203 1.05 1.799-.135 1.883 0 0-.74-.107-.908-.682-.175-.592.327-1.252 1.043-1.201zm-3.79 0c.936.203 1.05 1.799-.135 1.883 0 0-1.67-.75-.62-1.663.202-.17.468-.237.755-.22zm-3.79 0c.936.203 1.05 1.799-.135 1.883 0 0-.643-.073-.863-.552-.276-.61.237-1.382.998-1.331zm-3.784 0c.936.203 1.049 1.799-.136 1.883 0 0-.738-.107-.907-.682-.181-.592.327-1.252 1.043-1.201zm43.562 2.498c.919.197 1.184 1.788-.136 1.884 0 0-.738-.107-.908-.683-.174-.597.333-1.252 1.044-1.201zm-3.79 0c.93.203 1.111 1.794-.136 1.884 0 0-.642-.08-.862-.553-.277-.61.236-1.387.998-1.331zm-3.785 0c.931.203 1.112 1.794-.135 1.884 0 0-.739-.107-.908-.683-.175-.597.327-1.252 1.043-1.201zm-3.79 0c.937.203 1.05 1.8-.135 1.884 0 0-.739-.107-.908-.683-.175-.597.327-1.252 1.044-1.201zm-3.79 0c.931.203 1.112 1.794-.135 1.884 0 0-.739-.107-.908-.683-.175-.597.333-1.252 1.044-1.201zm-3.784 0c.936.203 1.05 1.8-.135 1.884 0 0-.84-.153-.936-.812-.085-.581.417-1.117 1.071-1.072zm-3.79 0c.93.203 1.016 1.805-.135 1.884 0 0-.739-.107-.908-.683-.175-.597.327-1.252 1.043-1.201zm-3.79 0c.93.203 1.111 1.794-.135 1.884 0 0-.948-.198-.948-.948 0-.541.486-.981 1.083-.936zm-3.79 0c.931.203 1.111 1.794-.135 1.884 0 0-.451-.023-.716-.327-.485-.564-.045-1.619.851-1.557zm-3.784 0c.936.203 1.05 1.8-.135 1.884 0 0-.451-.023-.717-.327-.49-.564-.05-1.619.852-1.557zm-3.79 0c.936.203 1.05 1.8-.135 1.884 0 0-.948-.198-.948-.948 0-.541.485-.981 1.083-.936zm-3.79 0c.93.203 1.111 1.794-.135 1.884 0 0-.739-.107-.908-.683-.175-.597.333-1.252 1.043-1.201zm-3.784 0c.93.203 1.11 1.794-.136 1.884 0 0-.947-.198-.947-.948 0-.541.48-.981 1.083-.936zm-3.762 0c.93.203 1.111 1.794-.135 1.884 0 0-.547-.045-.795-.435-.378-.586.084-1.511.93-1.449zm-3.784 0c.92.197 1.184 1.788-.136 1.884 0 0-.738-.107-.908-.683-.18-.597.328-1.252 1.044-1.201zm-3.79 0c.93.203 1.11 1.794-.136 1.884 0 0-.642-.08-.862-.553-.277-.61.236-1.387.998-1.331zm-3.79 0c.93.203 1.111 1.794-.135 1.884 0 0-.74-.107-.908-.683-.175-.597.327-1.252 1.043-1.201zm5.685 2.521c.913.197 1.049 1.8-.136 1.884 0 0-.738-.107-.907-.683-.175-.597.327-1.252 1.043-1.201zm-3.79 0c.93.203 1.111 1.794-.135 1.884 0 0-1.67-.756-.62-1.664.202-.175.467-.243.755-.22zm7.58 0c.93.203 1.015 1.805-.136 1.884 0 0-.547-.045-.795-.435-.383-.592.08-1.511.93-1.449zm49.213 0c.913.197 1.049 1.8-.136 1.884 0 0-.738-.107-.908-.683-.174-.597.333-1.252 1.044-1.201zm-3.785 0c.931.203 1.111 1.794-.135 1.884 0 0-1.67-.756-.62-1.664.197-.175.468-.243.755-.22zm-3.79 0c.92.197 1.185 1.788-.135 1.884 0 0-.547-.045-.795-.435-.378-.592.084-1.511.93-1.449zm-3.79 0c.92.197 1.185 1.788-.135 1.884 0 0-.947-.198-.947-.948 0-.541.485-.981 1.082-.936zm-3.784 0c.93.203 1.111 1.794-.135 1.884 0 0-.547-.045-.795-.435-.384-.592.079-1.511.93-1.449zm-3.79 0c.937.203 1.05 1.8-.135 1.884 0 0-.739-.107-.908-.683-.175-.597.327-1.252 1.043-1.201zm-3.79 0c.93.203 1.111 1.794-.135 1.884 0 0-.547-.045-.795-.435-.378-.592.084-1.511.93-1.449zm-3.79 0c.92.197 1.185 1.788-.135 1.884 0 0-.547-.045-.795-.435-.378-.592.084-1.511.93-1.449zm-3.784 0c.92.197 1.184 1.788-.135 1.884 0 0-.643-.08-.863-.553-.276-.61.237-1.387.998-1.331zm-3.79 0c.942.203.987 1.805-.135 1.884 0 0-.547-.045-.795-.435-.378-.592.078-1.511.93-1.449zm-3.79 0c.914.197 1.05 1.8-.135 1.884 0 0-.739-.107-.908-.683-.175-.597.333-1.252 1.043-1.201zm-3.784 0c.936.203.959 1.805-.136 1.884 0 0-.642-.08-.862-.553-.282-.61.23-1.387.998-1.331zm-3.762 0c.92.197 1.184 1.788-.135 1.884 0 0-.547-.045-.795-.435-.378-.592.084-1.511.93-1.449zm-1.895 2.493c.93.203 1.111 1.793-.135 1.883 0 0-1.8-.913-.513-1.742a1.07 1.07 0 0 1 .648-.141zm-11.364 0c.93.203 1.111 1.793-.135 1.883 0 0-.74-.107-.908-.682-.175-.592.327-1.252 1.043-1.201zm3.79 0c.936.203 1.049 1.799-.136 1.883 0 0-.642-.073-.862-.552-.277-.61.236-1.382.998-1.331zm34.064 0c.93.203 1.016 1.799-.135 1.883 0 0-.643-.073-.863-.552-.276-.61.237-1.382.998-1.331zm-22.728 0c.93.203 1.11 1.793-.136 1.883 0 0-.738-.107-.907-.682-.18-.592.327-1.252 1.043-1.201zm3.784 0c.93.203 1.111 1.793-.135 1.883 0 0-.643-.073-.863-.552-.276-.61.237-1.382.998-1.331zm3.79 0c.936.203 1.05 1.799-.135 1.883 0 0-.739-.107-.908-.682-.175-.592.327-1.252 1.043-1.201zm3.79 0c.936.203 1.05 1.799-.135 1.883 0 0-.451-.022-.717-.327-.49-.564-.05-1.618.852-1.556zm3.784 0c.931.203 1.111 1.793-.135 1.883 0 0-1.67-.755-.62-1.663.203-.17.468-.237.755-.22zm3.79 0c.914.197 1.05 1.799-.135 1.883 0 0-.739-.107-.908-.682-.175-.592.333-1.252 1.043-1.201zm7.58 0c.936.203 1.05 1.799-.135 1.883 0 0-.84-.152-.936-.812-.085-.575.417-1.116 1.071-1.071zm3.785 0c.93.203 1.11 1.793-.136 1.883 0 0-.739-.107-.908-.682-.175-.592.333-1.252 1.044-1.201zm3.79 0c.936.203 1.049 1.799-.136 1.883 0 0-.739-.107-.908-.682-.175-.592.327-1.252 1.044-1.201zm3.79 0c.93.203 1.11 1.793-.136 1.883 0 0-.739-.107-.908-.682-.175-.592.327-1.252 1.043-1.201zm3.784 0c.936.203 1.049 1.799-.136 1.883 0 0-.642-.073-.862-.552-.277-.61.236-1.382.998-1.331zm3.79 0c.919.197 1.184 1.788-.136 1.883 0 0-.738-.107-.908-.682-.174-.592.333-1.252 1.044-1.201zm-53.003 0c.92.197 1.184 1.788-.136 1.883 0 0-.738-.107-.908-.682-.18-.592.328-1.252 1.044-1.201zm9.44 2.52c.931.204 1.112 1.794-.135 1.885 0 0-.45-.023-.716-.328-.49-.564-.05-1.618.852-1.556zm41.668 0c.93.204 1.111 1.794-.136 1.885 0 0-.643-.08-.862-.553-.277-.61.236-1.382.998-1.331zm-3.785 0c.92.198 1.185 1.789-.135 1.885 0 0-.643-.08-.863-.553-.276-.61.237-1.382.998-1.331zm-3.79 0c.92.198 1.185 1.789-.135 1.885 0 0-.547-.046-.795-.435-.378-.586.084-1.511.93-1.45zm-3.79 0c.937.204 1.05 1.8-.135 1.885 0 0-.451-.023-.716-.328-.49-.564-.045-1.618.852-1.556zm-3.784 0c.92.198 1.185 1.789-.135 1.885 0 0-1.67-.756-.62-1.664.197-.17.462-.237.755-.22zm-3.79 0c.937.204 1.05 1.8-.135 1.885 0 0-.739-.108-.908-.683-.175-.592.327-1.252 1.043-1.201zm-3.79 0c.914.198 1.05 1.8-.135 1.885 0 0-.643-.08-.863-.553-.276-.61.237-1.382.998-1.331zm-3.79 0c.937.204.96 1.805-.135 1.885 0 0-1.8-.914-.513-1.743a1.07 1.07 0 0 1 .648-.141zm-3.784 0c.914.198 1.05 1.8-.135 1.885 0 0-.643-.08-.863-.553-.276-.61.237-1.382.998-1.331zm-3.79 0c.914.198 1.05 1.8-.135 1.885 0 0-.739-.108-.908-.683-.175-.592.327-1.252 1.043-1.201zm-3.79 0c.93.204 1.015 1.805-.135 1.885 0 0-.739-.108-.908-.683-.175-.592.333-1.252 1.043-1.201zm-7.546 0c.936.204 1.05 1.8-.135 1.885 0 0-.84-.153-.936-.813-.085-.58.422-1.116 1.071-1.071zm-3.784 0c.92.198 1.184 1.789-.136 1.885 0 0-.45-.023-.716-.328-.49-.564-.05-1.618.852-1.556zm-3.79 0c.93.204 1.11 1.794-.136 1.885 0 0-.642-.08-.862-.553-.277-.61.236-1.382.998-1.331zm-3.79 0c.92.198 1.184 1.789-.135 1.885 0 0-.643-.08-.863-.553-.277-.61.236-1.382.998-1.331zm35.892 2.64c.022 0 .045 0 .067.006.936.203 1.05 1.793-.13 1.884h-.005s-.84-.153-.936-.813c-.08-.558.383-1.077.998-1.077h.006zm-22.734 0c.022 0 .045 0 .067.006.93.203 1.111 1.788-.13 1.884h-.005s-.547-.046-.795-.435c-.367-.57.056-1.455.851-1.45h.012v-.005zm3.79 0c.022 0 .045 0 .067.006.93.203 1.111 1.788-.13 1.884h-.005s-.84-.153-.936-.813c-.08-.558.383-1.077.998-1.077h.005zm3.79 0c.022 0 .045 0 .067.006.93.203 1.111 1.788-.13 1.884h-.005s-.739-.108-.908-.683c-.17-.575.293-1.207.97-1.207h.005zm3.784 0c.022 0 .05 0 .073.006.925.203 1.111 1.788-.13 1.884h-.005s-.451-.023-.717-.328c-.473-.547-.073-1.556.767-1.562h.012zm3.761 0c.034 0 .068 0 .096.006.931.203 1.111 1.788-.13 1.884h-.005s-1.799-.914-.513-1.743a.982.982 0 0 1 .536-.147h.016zm3.819 0c.022 0 .045 0 .067.006.93.203 1.111 1.788-.13 1.884h-.005s-.739-.108-.908-.683c-.17-.575.293-1.207.97-1.207h.006zm7.58 0c.022 0 .045 0 .067.006.936.203 1.05 1.793-.13 1.884h-.005s-.739-.108-.908-.683c-.17-.575.293-1.207.97-1.207h.006zm3.778 0c.023 0 .051 0 .08.006.93.203 1.11 1.788-.13 1.884h-.006s-.948-.192-.948-.948c0-.513.44-.942.999-.942h.005zm3.79 0c.023 0 .051 0 .074.006.941.203.987 1.799-.13 1.884h-.006s-.451-.023-.716-.328c-.474-.547-.073-1.556.767-1.562h.011zm3.796 0c.022 0 .045 0 .067.006.931.203 1.112 1.788-.13 1.884h-.005s-.739-.108-.908-.683c-.17-.575.293-1.207.97-1.207h.006zm3.784 0c.023 0 .045 0 .068.006.942.203.987 1.799-.13 1.884h-.006s-.547-.046-.795-.435c-.366-.57.057-1.455.852-1.45h.011v-.005zm3.784 0a.33.33 0 0 1 .074.006c.925.203 1.111 1.788-.13 1.884h-.006s-.451-.023-.716-.328c-.474-.547-.073-1.556.767-1.562h.011zm-1.889 2.521c.023 0 .045 0 .068.006.93.203 1.111 1.788-.13 1.884h-.006s-.643-.074-.862-.553c-.271-.587.197-1.331.919-1.331h.011v-.006zm-3.79 0c.023 0 .045 0 .068.006.93.203 1.11 1.788-.13 1.884h-.006s-.642-.074-.862-.553c-.271-.587.197-1.331.919-1.331h.011v-.006zm-3.79 0a.3.3 0 0 1 .073.006c.931.203 1.112 1.788-.13 1.884H94.1s-.451-.023-.716-.328c-.474-.547-.073-1.556.767-1.562h.011zm-3.784 0c.022 0 .045 0 .067.006.914.197 1.185 1.782-.13 1.884h-.005s-.547-.046-.795-.435c-.367-.57.056-1.455.852-1.45h.01v-.005zm-3.784 0c.022 0 .045 0 .067.006.925.203 1.111 1.788-.13 1.884h-.005s-.739-.108-.908-.683c-.17-.575.293-1.207.97-1.207h.006zm-3.796 0c.022 0 .05 0 .073.006.93.203 1.111 1.788-.13 1.884h-.005s-.451-.023-.716-.328c-.474-.547-.074-1.556.767-1.562h.011zm-3.784 0c.022 0 .045 0 .067.006.936.203 1.05 1.793-.13 1.884h-.005s-.643-.074-.863-.553c-.27-.587.198-1.331.92-1.331h.01v-.006zm-3.813 0c.034 0 .062 0 .096.006.942.203.987 1.799-.13 1.884h-.005s-1.67-.75-.62-1.664a.982.982 0 0 1 .653-.226h.006zm-3.762 0c.023 0 .046 0 .068.006.914.197 1.184 1.782-.13 1.884h-.005s-.74-.108-.908-.683c-.17-.575.293-1.207.97-1.207h.005zm-3.795 0c.022 0 .045 0 .073.006.925.203 1.111 1.788-.13 1.884h-.005s-.643-.074-.863-.553c-.27-.587.197-1.331.92-1.331h.005v-.006zm-3.785 0c.023 0 .046 0 .068.006.93.203 1.111 1.788-.13 1.884h-.005s-.547-.046-.795-.435c-.367-.57.056-1.455.851-1.45h.011v-.005zm-3.784 0c.023 0 .045 0 .068.006.93.203 1.11 1.788-.13 1.884h-.005s-.74-.108-.909-.683c-.169-.575.294-1.207.97-1.207h.006zm43.63 2.499c.919.197 1.184 1.787-.136 1.883 0 0-.547-.045-.795-.434-.378-.586.085-1.511.931-1.449zm-3.79 0c.942.203.987 1.804-.136 1.883 0 0-.45-.022-.716-.327-.485-.564-.045-1.618.852-1.556zm-3.785 0c.931.203 1.112 1.793-.135 1.883 0 0-.643-.079-.863-.552-.276-.609.237-1.382.998-1.331zm-3.79 0c.942.203.987 1.804-.135 1.883 0 0-.547-.045-.795-.434-.378-.586.085-1.511.93-1.449zm-3.79 0c.931.203 1.112 1.793-.135 1.883 0 0-.451-.022-.716-.327-.49-.564-.045-1.618.852-1.556zm-3.784 0c.936.203 1.05 1.799-.135 1.883 0 0-.643-.079-.863-.552-.282-.609.231-1.382.998-1.331zm-3.79 0c.936.203 1.05 1.799-.135 1.883 0 0-.947-.197-.947-.947 0-.536.484-.976 1.082-.936zm-3.79 0c.93.203 1.111 1.793-.135 1.883 0 0-.739-.107-.908-.682-.175-.592.333-1.252 1.043-1.201zm-3.79 0c.931.203 1.111 1.793-.135 1.883 0 0-.643-.079-.863-.552-.276-.609.237-1.382.998-1.331zm-3.784 0c.93.203 1.111 1.793-.135 1.883 0 0-.451-.022-.717-.327-.49-.564-.05-1.618.852-1.556zm-3.79 0c.92.197 1.184 1.787-.135 1.883 0 0-.739-.107-.908-.682-.175-.592.327-1.252 1.043-1.201zm-7.574 0c.942.203.987 1.804-.136 1.883 0 0-.738-.107-.907-.682-.18-.592.327-1.252 1.043-1.201zm3.784 0c.93.203 1.111 1.793-.135 1.883 0 0-.547-.045-.795-.434-.378-.586.084-1.511.93-1.449zm24.63 2.521c.93.203 1.11 1.793-.136 1.883 0 0-.739-.107-.908-.682-.18-.598.327-1.252 1.043-1.201zm15.148 0c.93.203 1.015 1.799-.136 1.883 0 0-.947-.191-.947-.947.006-.542.485-.981 1.083-.936zm-3.785 0c.92.197 1.185 1.787-.135 1.883 0 0-1.67-.75-.62-1.663.197-.17.468-.243.755-.22zm-3.79 0c.914.197 1.05 1.799-.135 1.883 0 0-.643-.073-.863-.552-.276-.609.237-1.388.999-1.331zm-3.79 0c.937.203 1.05 1.799-.135 1.883 0 0-.947-.191-.947-.947 0-.542.485-.981 1.082-.936zm-7.574 0c.937.203 1.05 1.799-.135 1.883 0 0-.739-.107-.908-.682-.175-.598.327-1.252 1.043-1.201zm-3.79 0c.936.203 1.05 1.799-.135 1.883 0 0-.739-.107-.908-.682-.175-.598.333-1.252 1.043-1.201zm-3.79 0c.92.197 1.185 1.787-.135 1.883 0 0-.739-.107-.908-.682-.175-.598.333-1.252 1.043-1.201zm-3.784 0c.92.197 1.184 1.787-.135 1.883 0 0-.643-.073-.863-.552-.276-.609.237-1.388.998-1.331zm-3.79 0c.936.203 1.05 1.799-.135 1.883 0 0-.451-.022-.716-.327-.491-.564-.051-1.618.851-1.556zm-7.574 0c.92.197 1.184 1.787-.136 1.883 0 0-.642-.073-.862-.552-.282-.609.23-1.388.998-1.331zm3.784 0c.936.203 1.05 1.799-.135 1.883 0 0-.739-.107-.908-.682-.175-.598.333-1.252 1.043-1.201zm32.203 2.498c.931.203 1.112 1.794-.135 1.884 0 0-.451-.023-.716-.327-.49-.57-.05-1.625.852-1.557zm-3.79 0c.937.203 1.05 1.799-.135 1.884 0 0-.84-.153-.936-.812-.085-.581.417-1.123 1.072-1.072zm-3.79 0c.914.197 1.05 1.799-.135 1.884 0 0-.739-.107-.908-.683-.175-.597.333-1.252 1.044-1.201zm-3.784 0c.93.203 1.111 1.794-.135 1.884 0 0-.547-.045-.795-.434-.384-.593.079-1.512.93-1.45zm-3.79 0c.93.203 1.111 1.794-.135 1.884 0 0-1.67-.756-.62-1.664.203-.175.468-.242.755-.22zm-3.79 0c.942.203.987 1.805-.135 1.884 0 0-.643-.079-.863-.553-.276-.615.237-1.387.998-1.331zm-3.79 0c.931.203 1.111 1.794-.135 1.884 0 0-.947-.198-.947-.948.005-.541.485-.981 1.082-.936zm-3.784 0c.914.197 1.05 1.799-.135 1.884 0 0-.74-.107-.908-.683-.175-.597.327-1.252 1.043-1.201zm-3.79 0c.942.203.987 1.805-.135 1.884 0 0-.643-.079-.863-.553-.276-.615.237-1.387.998-1.331zm-3.79 0c.93.203 1.111 1.794-.135 1.884 0 0-1.67-.756-.62-1.664.203-.175.468-.242.755-.22zm-3.784 0c.936.203 1.049 1.799-.136 1.884 0 0-.642-.079-.862-.553-.282-.615.23-1.387.998-1.331zm45.457 0c.93.203 1.111 1.794-.136 1.884 0 0-.547-.045-.795-.434-.378-.593.085-1.512.931-1.45zm-3.79 0c.936.203 1.049 1.799-.136 1.884 0 0-.738-.107-.908-.683-.174-.597.333-1.252 1.044-1.201zm5.685 2.515c.913.198 1.049 1.8-.136 1.884 0 0-1.799-.914-.513-1.743a1.08 1.08 0 0 1 .649-.141zm-3.79 0c.913.198 1.049 1.8-.136 1.884 0 0-1.669-.756-.62-1.664.203-.169.468-.236.756-.22zm-3.785 0c.931.203 1.111 1.794-.135 1.884 0 0-1.67-.756-.62-1.664.197-.169.468-.236.755-.22zm-3.79 0c.897.198 1.112 1.794-.135 1.884 0 0-.547-.045-.795-.434-.378-.587.084-1.506.93-1.45zm-3.79 0c.92.198 1.185 1.788-.135 1.884 0 0-.84-.152-.936-.812-.085-.575.423-1.117 1.072-1.072zm-3.784 0c.92.198 1.185 1.788-.135 1.884 0 0-.547-.045-.795-.434-.384-.587.079-1.506.93-1.45zm-3.79 0c.93.203 1.016 1.805-.135 1.884 0 0-.739-.107-.908-.682-.175-.592.327-1.252 1.043-1.202zm-3.79 0c.93.203 1.111 1.794-.135 1.884 0 0-.947-.197-.947-.947 0-.536.485-.976 1.082-.937zm-3.79 0c.92.198 1.185 1.788-.135 1.884 0 0-.547-.045-.795-.434-.378-.587.084-1.506.93-1.45zm-3.784 0c.92.198 1.184 1.788-.135 1.884 0 0-.84-.152-.936-.812-.085-.575.417-1.117 1.071-1.072zm-3.79 0c.93.203 1.111 1.794-.135 1.884 0 0-.84-.152-.936-.812-.085-.575.417-1.117 1.071-1.072zm-3.79 0c.93.203 1.015 1.805-.135 1.884 0 0-.739-.107-.908-.682-.175-.592.333-1.252 1.043-1.202zm-3.784 0c.936.203.959 1.805-.136 1.884 0 0-.45-.022-.716-.327-.49-.564-.05-1.619.852-1.557zm49.247 0c.919.198 1.184 1.788-.136 1.884 0 0-1.669-.756-.62-1.664.203-.169.468-.236.756-.22zm-9.475 2.499c.93.203 1.111 1.793-.136 1.884 0 0-.738-.108-.908-.683-.174-.598.333-1.252 1.044-1.201zm-3.785 0c.931.203 1.112 1.793-.135 1.884 0 0-.451-.023-.716-.328-.49-.564-.05-1.618.852-1.556zm-3.79 0c.931.203 1.112 1.793-.135 1.884 0 0-1.67-.756-.62-1.664.203-.175.468-.243.756-.22zm-3.79 0c.931.203 1.016 1.799-.135 1.884 0 0-.739-.108-.908-.683-.175-.598.333-1.252 1.044-1.201zm-3.784 0c.936.203 1.05 1.799-.135 1.884 0 0-.547-.046-.795-.435-.384-.592.079-1.511.93-1.449zm-3.79 0c.93.203 1.111 1.793-.135 1.884 0 0-1.8-.914-.513-1.743.186-.119.417-.158.648-.141zm-3.79 0c.937.203 1.05 1.799-.135 1.884 0 0-.739-.108-.908-.683-.175-.598.333-1.252 1.043-1.201zm-3.79 0c.942.203.987 1.805-.135 1.884 0 0-.547-.046-.795-.435-.378-.592.084-1.511.93-1.449zm-3.784 0c.93.203 1.111 1.793-.135 1.884 0 0-.74-.108-.908-.683-.175-.598.327-1.252 1.043-1.201zm-3.79 0c.936.203 1.05 1.799-.135 1.884 0 0-.739-.108-.908-.683-.175-.598.327-1.252 1.043-1.201zm-3.79 0c.942.203.987 1.805-.135 1.884 0 0-1.8-.914-.513-1.743.191-.119.417-.158.648-.141zm-3.784 0c.92.197 1.184 1.788-.136 1.884 0 0-.738-.108-.907-.683-.18-.598.327-1.252 1.043-1.201zm45.457 0c.93.203 1.111 1.793-.136 1.884 0 0-.547-.046-.795-.435-.378-.592.085-1.511.931-1.449zm3.79 0c.936.203.958 1.805-.136 1.884 0 0-.738-.108-.908-.683-.175-.598.327-1.252 1.044-1.201zm-43.568 2.521c.93.203 1.111 1.793-.135 1.884 0 0-.547-.046-.795-.435-.378-.592.084-1.511.93-1.449zm3.79 0c.93.203 1.111 1.793-.135 1.884 0 0-.739-.108-.908-.683-.175-.598.327-1.252 1.043-1.201zm3.79 0c.936.203 1.05 1.799-.135 1.884 0 0-.451-.023-.716-.328-.491-.564-.051-1.624.851-1.556zm3.784 0c.931.203 1.111 1.793-.135 1.884 0 0-.739-.108-.908-.683-.175-.598.333-1.252 1.043-1.201zm3.79 0c.92.197 1.185 1.788-.135 1.884 0 0-.739-.108-.908-.683-.175-.598.333-1.252 1.043-1.201zm3.79 0c.937.203 1.05 1.799-.135 1.884 0 0-.547-.046-.795-.435-.378-.592.079-1.511.93-1.449zm-22.728 0c.93.203 1.11 1.793-.136 1.884 0 0-.45-.023-.716-.328-.49-.564-.05-1.624.852-1.556zm26.518 0c.93.203 1.111 1.793-.135 1.884 0 0-.739-.108-.908-.683-.18-.598.327-1.252 1.043-1.201zm3.784 0c.942.203.988 1.805-.135 1.884 0 0-.547-.046-.795-.435-.378-.592.085-1.511.93-1.449zm3.79 0c.937.203 1.05 1.799-.135 1.884 0 0-.547-.046-.795-.435-.378-.592.084-1.511.93-1.449zm3.79 0c.931.203 1.111 1.793-.135 1.884 0 0-.451-.023-.716-.328-.49-.564-.05-1.624.851-1.556zm3.785 0c.942.203.987 1.805-.136 1.884 0 0-.547-.046-.795-.435-.378-.592.085-1.511.931-1.449zm3.79 0c.919.197 1.184 1.788-.136 1.884 0 0-.547-.046-.795-.435-.378-.592.085-1.511.931-1.449zm3.79 0c.942.203.987 1.805-.136 1.884 0 0-.547-.046-.795-.435-.378-.592.079-1.511.931-1.449zm-43.568 2.493c.92.197 1.184 1.787-.135 1.883 0 0-.643-.073-.863-.552-.276-.609.237-1.382.998-1.331zm3.79 0c.93.203 1.015 1.799-.135 1.883 0 0-.74-.107-.908-.682-.175-.592.327-1.252 1.043-1.201zm3.784 0c.942.203.987 1.804-.135 1.883 0 0-.739-.107-.908-.682-.175-.592.333-1.252 1.043-1.201zm3.79 0c.92.197 1.185 1.787-.135 1.883 0 0-.643-.073-.863-.552-.276-.609.237-1.382.998-1.331zm3.79 0c.936.203.965 1.804-.135 1.883 0 0-1.67-.755-.62-1.663.203-.17.468-.237.755-.22zm3.79 0c.93.203 1.111 1.793-.135 1.883 0 0-.547-.045-.795-.434-.384-.586.079-1.506.93-1.449zm7.575 0c.919.197 1.184 1.787-.136 1.883 0 0-.451-.022-.716-.327-.49-.564-.05-1.618.852-1.556zm3.79 0c.93.203 1.11 1.793-.136 1.883 0 0-.451-.022-.716-.327-.49-.564-.05-1.618.852-1.556zm3.784 0c.919.197 1.184 1.787-.136 1.883 0 0-.738-.107-.908-.682-.174-.592.333-1.252 1.044-1.201zm3.79 0c.93.203 1.111 1.793-.136 1.883 0 0-.738-.107-.908-.682-.174-.592.333-1.252 1.044-1.201zm3.79 0c.913.197 1.049 1.799-.136 1.883 0 0-.738-.107-.908-.682-.175-.592.327-1.252 1.044-1.201zm-49.247 0c.92.197 1.184 1.787-.136 1.883 0 0-.642-.073-.862-.552-.282-.609.23-1.382.998-1.331zm30.303 0c.93.203 1.11 1.793-.136 1.883 0 0-.739-.107-.908-.682-.175-.592.333-1.252 1.044-1.201zm-26.519 0c.942.203.987 1.804-.135 1.883 0 0-1.67-.755-.62-1.663.203-.17.468-.237.755-.22zm1.895 2.521c.942.203.987 1.804-.135 1.883 0 0-.739-.107-.908-.682-.175-.592.333-1.252 1.043-1.201zm45.463 0c.919.197 1.184 1.787-.136 1.883 0 0-.451-.022-.716-.327-.491-.564-.051-1.618.852-1.556zm-3.79 0c.919.197 1.184 1.787-.136 1.883 0 0-.738-.107-.908-.682-.174-.592.333-1.252 1.044-1.201zm-3.79 0c.936.203.959 1.804-.136 1.883 0 0-1.669-.755-.62-1.663.203-.17.468-.243.756-.22zm-3.785 0c.931.203 1.111 1.793-.135 1.883 0 0-1.67-.755-.62-1.663.197-.17.468-.243.755-.22zm-3.79 0c.931.203 1.112 1.793-.135 1.883 0 0-.547-.045-.795-.434-.378-.586.084-1.511.93-1.449zm-3.79 0c.942.203.988 1.804-.135 1.883 0 0-1.67-.755-.62-1.663.203-.17.468-.243.755-.22zm-3.784 0c.942.203.987 1.804-.135 1.883 0 0-.547-.045-.795-.434-.384-.586.079-1.511.93-1.449zm-3.79 0c.937.203 1.05 1.799-.135 1.883 0 0-.739-.107-.908-.682-.175-.592.327-1.252 1.043-1.201zm-3.79 0c.93.203 1.111 1.793-.135 1.883 0 0-.739-.107-.908-.682-.175-.592.333-1.252 1.043-1.201zm-3.79 0c.937.203 1.05 1.799-.135 1.883 0 0-.451-.022-.716-.327-.485-.564-.045-1.618.851-1.556zm-3.784 0c.936.203 1.05 1.799-.135 1.883 0 0-1.67-.755-.62-1.663.197-.17.468-.243.755-.22zm-11.364 0c.93.203 1.11 1.793-.136 1.883 0 0-.642-.073-.862-.552-.282-.609.23-1.388.998-1.331zm7.574 0c.93.203 1.111 1.793-.135 1.883 0 0-.547-.045-.795-.434-.378-.586.078-1.511.93-1.449zm39.778 2.498c.93.203 1.015 1.805-.136 1.884 0 0-.738-.107-.908-.683-.175-.597.327-1.252 1.044-1.201zm-3.79 0c.93.203 1.111 1.794-.136 1.884 0 0-.451-.023-.716-.327-.491-.57-.045-1.625.852-1.557zm-3.79 0c.936.203 1.049 1.799-.136 1.884 0 0-.547-.045-.795-.434-.378-.593.085-1.512.93-1.45zm-3.785 0c.931.203 1.112 1.794-.135 1.884 0 0-.643-.079-.863-.553-.276-.615.237-1.387.998-1.331zm-3.79 0c.931.203 1.112 1.794-.135 1.884 0 0-.451-.023-.716-.327-.49-.57-.05-1.625.852-1.557zm-3.79 0c.931.203 1.112 1.794-.135 1.884 0 0-.739-.107-.908-.683-.175-.597.333-1.252 1.044-1.201zm-3.784 0c.93.203 1.111 1.794-.135 1.884 0 0-.739-.107-.908-.683-.18-.597.327-1.252 1.043-1.201zm-7.58 0c.93.203 1.111 1.794-.135 1.884 0 0-.643-.079-.863-.553-.276-.615.237-1.387.998-1.331zm-3.79 0c.92.197 1.185 1.788-.135 1.884 0 0-.739-.107-.908-.683-.175-.597.333-1.252 1.043-1.201zm-3.784 0c.93.203 1.015 1.805-.135 1.884 0 0-.74-.107-.908-.683-.175-.597.327-1.252 1.043-1.201zm-3.79 0c.93.203 1.111 1.794-.135 1.884 0 0-.643-.079-.863-.553-.276-.615.237-1.387.998-1.331zm-3.79 0c.92.197 1.185 1.788-.135 1.884 0 0-.451-.023-.716-.327-.491-.57-.045-1.625.851-1.557zm-3.784 0c.92.197 1.184 1.788-.136 1.884 0 0-.642-.079-.862-.553-.282-.615.23-1.387.998-1.331zm22.728 0c.92.197 1.185 1.788-.135 1.884 0 0-1.67-.756-.62-1.664.203-.175.468-.242.755-.22zm-20.833 2.521c.93.203 1.11 1.794-.136 1.884 0 0-.642-.074-.862-.553-.282-.615.23-1.387.998-1.331zm49.247 0c.919.197 1.184 1.788-.136 1.884 0 0-.451-.023-.716-.327-.491-.57-.051-1.625.852-1.557zm-3.79 0c.919.197 1.184 1.788-.136 1.884 0 0-.738-.107-.908-.683-.174-.597.333-1.257 1.044-1.201zm-3.79 0c.942.203.987 1.805-.136 1.884 0 0-.451-.023-.716-.327-.485-.57-.045-1.625.852-1.557zm-3.785 0c.931.203 1.111 1.794-.135 1.884 0 0-.451-.023-.716-.327-.49-.57-.05-1.625.851-1.557zm-3.79 0c.937.203 1.05 1.799-.135 1.884 0 0-1.67-.756-.62-1.664.203-.175.468-.242.755-.22zm-3.79 0c.92.197 1.185 1.788-.135 1.884 0 0-.451-.023-.716-.327-.49-.57-.045-1.625.852-1.557zm-3.784 0c.92.197 1.185 1.788-.135 1.884 0 0-.547-.045-.795-.435-.384-.592.079-1.511.93-1.449zm-3.79 0c.937.203 1.05 1.799-.135 1.884 0 0-.643-.074-.863-.553-.276-.615.237-1.387.998-1.331zm-3.79 0c.936.203 1.05 1.799-.135 1.884 0 0-.547-.045-.795-.435-.378-.592.084-1.511.93-1.449zm-3.79 0c.937.203 1.05 1.799-.135 1.884 0 0-.84-.153-.936-.812-.08-.581.423-1.123 1.071-1.072zm-3.784 0c.93.203 1.111 1.794-.135 1.884 0 0-1.67-.756-.62-1.664.197-.175.468-.242.755-.22zm-3.79 0c.93.203 1.111 1.794-.135 1.884 0 0-.547-.045-.795-.435-.378-.592.078-1.511.93-1.449zm-3.79 0c.936.203 1.05 1.799-.135 1.884 0 0-.643-.074-.863-.553-.276-.615.237-1.387.998-1.331zm-1.895 2.493c.936.203 1.05 1.799-.135 1.884 0 0-.643-.074-.863-.553-.276-.609.237-1.388.998-1.331zm3.79 0c.93.203 1.111 1.793-.135 1.884 0 0-.643-.074-.863-.553-.276-.609.237-1.388.998-1.331zm3.79 0c.936.203 1.05 1.799-.135 1.884 0 0-.547-.046-.796-.435-.383-.586.08-1.511.931-1.449zm3.784 0c.931.203 1.111 1.793-.135 1.884 0 0-.947-.198-.947-.948.005-.536.485-.981 1.082-.936zm3.79 0c.93.203 1.111 1.793-.135 1.884 0 0-.948-.198-.948-.948 0-.536.486-.981 1.083-.936zm3.79 0c.936.203 1.05 1.799-.135 1.884 0 0-.643-.074-.863-.553-.276-.609.237-1.388.998-1.331zm-22.728 0c.93.203 1.11 1.793-.136 1.884 0 0-.947-.198-.947-.948 0-.536.48-.981 1.083-.936zm26.518 0c.93.203 1.111 1.793-.135 1.884 0 0-.547-.046-.795-.435-.384-.586.079-1.511.93-1.449zm3.785 0c.941.203.986 1.805-.136 1.884 0 0-.547-.046-.795-.435-.378-.586.085-1.511.93-1.449zm3.79 0c.93.203 1.11 1.793-.136 1.884 0 0-.739-.108-.908-.683-.175-.592.327-1.252 1.044-1.201zm3.79 0c.93.203 1.11 1.793-.136 1.884 0 0-.739-.108-.908-.683-.175-.592.327-1.252 1.043-1.201zm3.784 0c.93.203 1.111 1.793-.136 1.884 0 0-.547-.046-.795-.435-.378-.586.085-1.511.93-1.449zm7.58 0c.942.203.987 1.805-.136 1.884 0 0-.547-.046-.795-.435-.378-.586.079-1.511.931-1.449zm-3.79 0c.93.203 1.111 1.793-.136 1.884 0 0-.547-.046-.795-.435-.378-.586.085-1.511.931-1.449zm5.685 2.521c.93.203 1.111 1.793-.136 1.884 0 0-.451-.023-.716-.328-.491-.564-.051-1.624.852-1.556zm-3.79 0c.936.203 1.049 1.799-.136 1.884 0 0-.451-.023-.716-.328-.491-.564-.045-1.624.852-1.556zm-3.79 0c.93.203 1.111 1.793-.136 1.884 0 0-.84-.153-.936-.813-.079-.58.423-1.116 1.072-1.071zm-3.785 0c.937.203 1.05 1.799-.135 1.884 0 0-.451-.023-.716-.328-.49-.564-.05-1.624.851-1.556zm-3.79 0c.937.203 1.05 1.799-.135 1.884 0 0-.547-.046-.795-.435-.378-.592.084-1.511.93-1.449zm-7.574 0c.942.203.987 1.805-.135 1.884 0 0-.739-.108-.908-.683-.18-.598.327-1.252 1.043-1.201zm-3.79 0c.937.203 1.05 1.799-.135 1.884 0 0-.547-.046-.795-.435-.378-.592.079-1.511.93-1.449zm-3.79 0c.93.203 1.111 1.793-.135 1.884 0 0-.739-.108-.908-.683-.175-.598.333-1.252 1.043-1.201zm-3.79 0c.937.203.96 1.805-.135 1.884 0 0-1.67-.751-.62-1.664.203-.175.468-.243.755-.22zm-3.784 0c.93.203 1.111 1.793-.135 1.884 0 0-.74-.108-.908-.683-.175-.598.327-1.252 1.043-1.201zm-3.79 0c.942.203.987 1.805-.135 1.884 0 0-.739-.108-.908-.683-.175-.598.327-1.252 1.043-1.201zm-3.79 0c.936.203 1.05 1.799-.135 1.884 0 0-.547-.046-.795-.435-.378-.592.084-1.511.93-1.449zm26.518 0c.92.197 1.185 1.788-.135 1.884 0 0-.451-.023-.716-.328-.49-.564-.045-1.624.852-1.556zm-30.302 0c.942.203.987 1.805-.136 1.884 0 0-.947-.198-.947-.948 0-.541.48-.981 1.083-.936zm47.352 2.493c.93.203 1.111 1.793-.136 1.883 0 0-1.669-.75-.62-1.663.203-.17.468-.237.756-.22zm-3.79 0c.93.203 1.111 1.793-.136 1.883 0 0-.547-.045-.795-.434-.378-.586.085-1.506.931-1.449zm-3.79 0c.936.203 1.049 1.799-.136 1.883 0 0-.547-.045-.795-.434-.378-.586.085-1.506.93-1.449zm-3.785 0c.931.203 1.112 1.793-.135 1.883 0 0-.451-.022-.716-.327-.49-.564-.05-1.618.852-1.556zm-3.79 0c.937.203 1.05 1.799-.135 1.883 0 0-.739-.107-.908-.682-.175-.592.327-1.252 1.044-1.201zm-3.79 0c.931.203 1.112 1.793-.135 1.883 0 0-1.67-.75-.62-1.663.203-.17.468-.237.756-.22zm-7.574 0c.942.203.987 1.804-.135 1.883 0 0-.643-.073-.863-.552-.276-.609.237-1.382.998-1.331zm-3.79 0c.937.203 1.05 1.799-.135 1.883 0 0-.948-.197-.948-.947 0-.536.486-.976 1.083-.936zm-3.79 0c.931.203 1.111 1.793-.135 1.883 0 0-.547-.045-.795-.434-.378-.586.084-1.506.93-1.449zm-3.784 0c.93.203 1.111 1.793-.135 1.883 0 0-.547-.045-.796-.434-.383-.586.08-1.506.931-1.449zm-3.79 0c.936.203 1.05 1.799-.135 1.883 0 0-.948-.197-.948-.947 0-.536.485-.976 1.083-.936zm-3.79 0c.942.203.987 1.804-.135 1.883 0 0-.643-.073-.863-.552-.276-.609.237-1.382.998-1.331zm-3.784 0c.93.203 1.11 1.793-.136 1.883 0 0-.947-.197-.947-.947 0-.536.48-.976 1.083-.936zm26.518 0c.93.203 1.111 1.793-.135 1.883 0 0-.547-.045-.795-.434-.384-.586.079-1.506.93-1.449zm1.895 2.521c.93.203 1.111 1.793-.135 1.883 0 0-.739-.107-.908-.682-.18-.592.327-1.252 1.043-1.201zm22.729 0c.93.203 1.111 1.793-.136 1.883 0 0-.947-.197-.947-.947 0-.536.485-.976 1.083-.936zm-3.79 0c.93.203 1.111 1.793-.136 1.883 0 0-.451-.022-.716-.327-.491-.564-.045-1.618.852-1.556zm-3.79 0c.891.197 1.111 1.793-.136 1.883 0 0-.947-.197-.947-.947.006-.536.485-.976 1.083-.936zm-3.785 0c.937.203.96 1.804-.135 1.883 0 0-.947-.197-.947-.947 0-.536.479-.976 1.082-.936zm-3.79 0c.931.203 1.112 1.793-.135 1.883 0 0-.547-.045-.795-.434-.378-.586.084-1.506.93-1.449zm-3.79 0c.931.203 1.112 1.793-.135 1.883 0 0-.947-.197-.947-.947 0-.536.485-.976 1.082-.936zm-7.574 0c.92.197 1.185 1.787-.135 1.883 0 0-1.67-.755-.62-1.663.203-.17.468-.237.755-.22zm-3.79 0c.93.203 1.111 1.793-.135 1.883 0 0-.643-.073-.863-.552-.276-.609.237-1.382.998-1.331zm-3.79 0c.92.197 1.185 1.787-.135 1.883 0 0-1.67-.755-.62-1.663.203-.17.468-.237.755-.22zm-3.784 0c.891.197 1.111 1.793-.135 1.883 0 0-.74-.107-.908-.682-.175-.592.327-1.252 1.043-1.201zm-3.79 0c.93.203 1.111 1.793-.135 1.883 0 0-1.67-.755-.62-1.663.202-.17.468-.237.755-.22zm-3.79 0c.936.203.965 1.804-.135 1.883 0 0-.643-.073-.863-.552-.276-.609.237-1.382.998-1.331zm-3.784 0c.92.197 1.184 1.787-.136 1.883 0 0-.738-.107-.907-.682-.181-.592.327-1.252 1.043-1.201zm1.89 2.498c.93.203 1.11 1.794-.136 1.884 0 0-.739-.107-.908-.683-.175-.597.333-1.252 1.043-1.201zm3.79 0c.918.197 1.184 1.788-.136 1.884 0 0-.547-.045-.795-.434-.378-.593.079-1.512.93-1.45zm3.79 0c.93.203 1.014 1.805-.136 1.884 0 0-.74-.107-.908-.683-.175-.597.327-1.252 1.043-1.201zm3.783 0c.897.197 1.111 1.794-.135 1.884 0 0-1.67-.756-.62-1.664.203-.175.468-.242.755-.22zm3.79 0c.92.197 1.185 1.788-.135 1.884 0 0-.739-.107-.908-.683-.175-.597.333-1.252 1.043-1.201zm3.79 0c.92.197 1.185 1.788-.135 1.884 0 0-.739-.107-.908-.683-.175-.597.327-1.252 1.043-1.201zm3.79 0c.942.203.987 1.805-.135 1.884 0 0-.547-.045-.795-.434-.384-.593.079-1.512.93-1.45zm3.785 0c.93.203 1.11 1.794-.136 1.884 0 0-.947-.198-.947-.948 0-.541.485-.981 1.083-.936zm3.79 0c.941.203.987 1.805-.136 1.884 0 0-.739-.107-.908-.683-.175-.597.327-1.252 1.044-1.201zm3.79 0c.93.203 1.11 1.794-.136 1.884 0 0-.739-.107-.908-.683-.175-.597.327-1.252 1.043-1.201zm3.784 0c.942.203.987 1.805-.136 1.884 0 0-.45-.023-.716-.327-.485-.564-.045-1.625.852-1.557zm3.79 0c.93.203 1.111 1.794-.136 1.884 0 0-.738-.107-.908-.683-.174-.597.333-1.252 1.044-1.201zm3.79 0c.891.197 1.111 1.794-.136 1.884 0 0-.947-.198-.947-.948 0-.541.485-.981 1.083-.936zm-49.247 0c.93.203 1.015 1.805-.136 1.884 0 0-.738-.107-.907-.683-.18-.597.327-1.252 1.043-1.201zm43.562 2.521c.93.203 1.111 1.794-.136 1.884 0 0-.451-.023-.716-.327-.485-.57-.045-1.625.852-1.557zm-3.785 0c.931.203 1.111 1.794-.135 1.884 0 0-.643-.074-.863-.553-.276-.615.237-1.387.998-1.331zm-3.79 0c.931.203 1.112 1.794-.135 1.884 0 0-.547-.045-.795-.435-.378-.592.084-1.511.93-1.449zm-3.79 0c.92.197 1.185 1.788-.135 1.884 0 0-.451-.023-.716-.327-.49-.57-.045-1.625.852-1.557zm-3.784 0c.93.203 1.111 1.794-.135 1.884 0 0-.643-.074-.863-.553-.282-.615.231-1.387.998-1.331zm18.939 0c.93.203 1.111 1.794-.136 1.884 0 0-.547-.045-.795-.435-.378-.592.085-1.511.931-1.449zm3.79 0c.919.197 1.184 1.788-.136 1.884 0 0-.947-.198-.947-.948 0-.541.485-.981 1.083-.936zm-49.247 0c.93.203 1.11 1.794-.136 1.884 0 0-.546-.045-.795-.435-.383-.592.08-1.511.93-1.449zm3.784 0c.936.203 1.05 1.799-.135 1.884 0 0-.451-.023-.716-.327-.491-.57-.045-1.625.851-1.557zm3.79 0c.92.197 1.184 1.788-.135 1.884 0 0-.739-.107-.908-.683-.175-.597.327-1.252 1.043-1.201zm3.79 0c.92.197 1.184 1.788-.135 1.884 0 0-.547-.045-.796-.435-.383-.592.08-1.511.931-1.449zm3.784 0c.931.203 1.016 1.805-.135 1.884 0 0-.547-.045-.795-.435-.378-.592.084-1.511.93-1.449zm3.79 0c.92.197 1.185 1.788-.135 1.884 0 0-.547-.045-.795-.435-.378-.592.084-1.511.93-1.449zm3.79 0c.92.197 1.185 1.788-.135 1.884 0 0-.451-.023-.716-.327-.491-.57-.051-1.625.851-1.557zm9.47 2.493c.93.203 1.11 1.793-.136 1.884 0 0-.547-.046-.795-.435-.378-.586.085-1.511.93-1.449zm3.79 0c.913.197 1.049 1.799-.136 1.884 0 0-.739-.108-.908-.683-.175-.592.327-1.252 1.043-1.201zm3.784 0c.942.203.987 1.805-.136 1.884 0 0-1.669-.756-.62-1.664.203-.169.468-.237.756-.22zm3.79 0c.913.197 1.049 1.799-.136 1.884 0 0-.738-.108-.908-.683-.174-.592.333-1.252 1.044-1.201zm3.79 0c.936.203.958 1.805-.136 1.884 0 0-.947-.192-.947-.948 0-.536.485-.976 1.083-.936zm-18.944 0c.93.203 1.015 1.805-.136 1.884 0 0-1.67-.756-.62-1.664.203-.169.468-.237.756-.22zm-3.785 0c.936.203 1.05 1.799-.135 1.884 0 0-1.67-.756-.62-1.664.197-.169.462-.237.755-.22zm-7.58 0c.93.203 1.111 1.793-.135 1.884 0 0-.739-.108-.908-.683-.175-.592.333-1.252 1.043-1.201zm-3.79 0c.931.203 1.111 1.793-.135 1.884 0 0-.451-.023-.716-.328-.485-.564-.045-1.618.851-1.556zm-3.784 0c.93.203 1.015 1.805-.135 1.884 0 0-.451-.023-.717-.328-.49-.564-.05-1.618.852-1.556zm-3.79 0c.93.203 1.111 1.793-.135 1.884 0 0-.739-.108-.908-.683-.175-.592.327-1.252 1.043-1.201zm-3.79 0c.93.203 1.111 1.793-.135 1.884 0 0-.547-.046-.795-.435-.378-.586.084-1.511.93-1.449zm-3.784 0c.93.203 1.015 1.805-.136 1.884 0 0-.738-.108-.907-.683-.18-.592.327-1.252 1.043-1.201zm22.728 0c.92.197 1.185 1.788-.135 1.884 0 0-.547-.046-.795-.435-.378-.586.079-1.511.93-1.449zm28.414 2.521c.913.197 1.049 1.799-.136 1.884 0 0-.547-.046-.795-.435-.378-.586.079-1.511.931-1.449zm-3.79 0c.93.203 1.111 1.793-.136 1.884 0 0-1.799-.914-.513-1.743.192-.119.417-.158.649-.141zm-3.79 0c.93.203 1.111 1.793-.136 1.884 0 0-.547-.046-.795-.435-.378-.586.085-1.511.931-1.449zm-3.785 0c.931.203 1.111 1.793-.135 1.884 0 0-.739-.108-.908-.683-.175-.598.327-1.252 1.043-1.201zm-3.79 0c.931.203 1.112 1.793-.135 1.884 0 0-.547-.046-.795-.435-.378-.586.084-1.511.93-1.449zm-3.79 0c.92.197 1.185 1.788-.135 1.884 0 0-.739-.108-.908-.683-.175-.598.333-1.252 1.043-1.201zm-3.784 0c.914.197 1.05 1.799-.135 1.884 0 0-.451-.023-.716-.328-.491-.564-.051-1.618.851-1.556zm-3.79 0c.937.203 1.05 1.799-.135 1.884 0 0-.84-.153-.936-.813-.085-.58.417-1.116 1.071-1.071zm-3.79 0c.936.203.96 1.805-.135 1.884 0 0-.84-.153-.936-.813-.085-.58.423-1.116 1.071-1.071zm-3.79 0c.914.197 1.05 1.799-.135 1.884 0 0-1.8-.914-.513-1.743.192-.119.417-.158.648-.141zm-3.784 0c.936.203 1.05 1.799-.135 1.884 0 0-.74-.108-.908-.683-.175-.598.327-1.252 1.043-1.201zm-3.79 0c.936.203 1.05 1.799-.135 1.884 0 0-1.67-.751-.62-1.664.202-.169.468-.243.755-.22zm-3.79 0c.936.203 1.05 1.799-.135 1.884 0 0-.643-.074-.863-.553-.276-.609.237-1.388.998-1.331zm-3.784 0c.936.203 1.049 1.799-.136 1.884 0 0-.738-.108-.907-.683-.181-.598.327-1.252 1.043-1.201zm47.352 2.498c.93.203 1.111 1.794-.136 1.884 0 0-.547-.045-.795-.434-.378-.592.079-1.512.931-1.45zm-3.79 0c.919.198 1.184 1.788-.136 1.884 0 0-.738-.107-.908-.682-.174-.598.333-1.252 1.044-1.202zm-3.79 0c.93.203 1.111 1.794-.136 1.884 0 0-.642-.073-.862-.553-.277-.614.236-1.387.998-1.331zm-3.785 0c.931.203 1.112 1.794-.135 1.884 0 0-.739-.107-.908-.682-.175-.598.327-1.252 1.043-1.202zm-3.79 0c.937.203 1.05 1.799-.135 1.884 0 0-.739-.107-.908-.682-.175-.598.327-1.252 1.044-1.202zm-3.79 0c.931.203 1.112 1.794-.135 1.884 0 0-.739-.107-.908-.682-.175-.598.333-1.252 1.044-1.202zm-3.784 0c.936.203 1.05 1.799-.135 1.884 0 0-.84-.152-.936-.812-.085-.581.417-1.122 1.071-1.072zm-3.79 0c.93.203 1.016 1.805-.135 1.884 0 0-.739-.107-.908-.682-.175-.598.327-1.252 1.043-1.202zm-3.79 0c.93.203 1.111 1.794-.135 1.884 0 0-.948-.192-.948-.948 0-.541.486-.981 1.083-.936zm-3.79 0c.931.203 1.111 1.794-.135 1.884 0 0-.451-.023-.716-.327-.485-.57-.045-1.624.851-1.557zm-3.784 0c.936.203 1.05 1.799-.135 1.884 0 0-.451-.023-.717-.327-.49-.57-.05-1.624.852-1.557zm-3.79 0c.936.203 1.05 1.799-.135 1.884 0 0-.948-.192-.948-.948 0-.541.485-.981 1.083-.936zm-3.79 0c.93.203 1.111 1.794-.135 1.884 0 0-.739-.107-.908-.682-.175-.598.333-1.252 1.043-1.202zm-3.784 0c.93.203 1.11 1.794-.136 1.884 0 0-.947-.192-.947-.948 0-.541.48-.981 1.083-.936z" fill="#111D32"/></g><path d="M110.162 144.661l-34.532-.04c-.57 0-1.083-.344-1.303-.868-.034-.079-3.4-8.212-5.437-11.624l-.58-.964c-3.108-5.16-5.392-9.306-4.225-11.787 1.68-3.57 1.675-4.568 1.523-4.85-2.352-1.19-6.379-9.188-5.843-12.572.141-.896.485-2.436.88-4.213.8-3.62 2.137-9.66 1.906-11.42-.39-.288-1.94-.412-2.882-.485-2.56-.203-5.741-.451-6.548-3.226-.276-.953-2.825-2.093-4.68-2.922-3.317-1.483-7.079-3.158-6.306-6.446.254-1.077.513-2.476.79-3.953.767-4.106 1.635-8.765 3.085-11.32 1.105-1.95 3.4-2.943 5.425-3.812.92-.395 2.628-1.134 2.764-1.556-.649-2.984-.88-11.788-.892-12.16a1.416 1.416 0 0 1 .683-1.246 1.42 1.42 0 0 1 1.421-.017c2.448 1.387 8.172 4.934 8.527 7.845.08.626.31 1.494.564 2.42.717 2.65 1.613 5.955.536 8.972-1.19 3.339-1.314 4.766-1.297 5.296.637.192 1.478.575 2.786 1.184 1.844.857 4.377 2.025 6.92 2.758 2.346.671 14.043 4.258 14.043 8.764 0 1.58-1.049 3.243-2.16 4.997-1.24 1.963-2.645 4.185-2.284 5.916.276 1.32.322 2.832.367 4.292.045 1.5.124 4.005.665 4.433.04.028.175.045.395 0 2.673-.536 10.248-14.161 10.005-18.002-.17-2.668-1.951-7.721-3.017-10.738-.796-2.245-.92-2.64-.92-3.057-.01-.056-.05-.186-.09-.35-.242-.975-.694-2.786.175-5.115.953-2.55 2.262-5.99 2.262-5.99a1.41 1.41 0 0 1 2.707.266c.53 3.158 1.596 8.629 2.21 9.886.147.299.344.688.576 1.134 1.297 2.498 3.468 6.683 3.564 9.864.034 1.06.31 2.374.637 3.897.649 3.023 1.45 6.79.818 11.048-.31 2.098-.801 4.484-1.274 6.79-.846 4.1-1.805 8.748-1.371 10.429.231.902 1.551 1.68 2.82 2.436 1.777 1.049 3.79 2.245 3.79 4.467v1.398c-.006 2.093-.011 3.892.13 7.603.101 2.667.462 4.985.727 6.672.192 1.229.327 2.115.327 2.791.029.869 1.529 6.475 2.961 11.387.124.429.04.886-.225 1.241-.26.338-.677.547-1.123.547zm-33.59-2.859l31.712.039c-.964-3.384-2.549-9.119-2.549-10.372 0-.456-.135-1.336-.293-2.357-.271-1.76-.649-4.168-.756-6.999-.147-3.767-.141-5.6-.135-7.721v-1.387c0-.621-1.275-1.376-2.403-2.042-1.686-.998-3.592-2.126-4.117-4.162-.598-2.312.299-6.661 1.337-11.697.468-2.267.953-4.613 1.252-6.632.558-3.756-.158-7.1-.79-10.045-.355-1.658-.66-3.09-.7-4.399-.078-2.538-2.137-6.514-3.248-8.651-.242-.474-.457-.88-.609-1.196-.485-1.004-1.054-3.4-1.522-5.674-.164.435-.328.863-.48 1.27-.564 1.51-.287 2.627-.085 3.44.08.321.153.603.17.896.079.316.445 1.343.761 2.25 1.19 3.362 2.983 8.443 3.175 11.5.282 4.433-7.563 20.005-12.266 20.946-1.326.265-2.2-.157-2.702-.558-1.562-1.24-1.64-3.818-1.731-6.548-.045-1.342-.085-2.724-.31-3.807-.593-2.848 1.133-5.583 2.662-7.997.806-1.28 1.725-2.73 1.725-3.49-.073-1.197-5.628-4.23-12.001-6.058-2.752-.79-5.397-2.013-7.326-2.91-.981-.457-2.2-1.021-2.544-1.072a2.081 2.081 0 0 1-1.477-1.015c-.508-.857-.852-2.532 1.06-7.896.778-2.188.011-5.014-.604-7.286-.276-1.021-.535-1.985-.637-2.815-.096-.755-2.244-2.628-4.923-4.393.112 2.843.35 7.225.733 8.984.575 2.645-2.183 3.83-4.4 4.788-1.618.7-3.445 1.49-4.088 2.612-1.218 2.148-2.076 6.75-2.764 10.45-.282 1.512-.547 2.944-.817 4.083-.237 1.021 2.622 2.296 4.709 3.232 2.876 1.286 5.6 2.499 6.243 4.71.265.902 2.369 1.065 4.066 1.2 2.37.187 5.054.401 5.437 2.798.327 2.053-.637 6.689-1.929 12.532-.383 1.737-.716 3.231-.846 4.049-.383 2.397 3.249 9.024 4.377 9.655 2.989 1.54.93 5.911-.293 8.522-.62 1.314 2.803 6.993 4.088 9.131l.587.976c1.748 2.938 4.303 8.877 5.25 11.116z" fill="#101D32"/><path d="M157.706 133.63H16.508v3.947h141.198v-3.947zm20.32 11.555H1.974A1.976 1.976 0 0 1 0 143.212c0-1.089.885-1.974 1.974-1.974h176.052c1.089 0 1.974.885 1.974 1.974 0 1.088-.88 1.973-1.974 1.973zm-2.6 3.661H5.211v2.82h170.215v-2.82z" fill="#101D32"/><path d="M30.308 169.166a7.943 7.943 0 0 0-2.464-2.087c-.953-.519-1.9-.778-2.832-.778a5.552 5.552 0 0 0-2.938.806c-.885.536-1.579 1.281-2.087 2.222-.507.942-.76 1.997-.76 3.153s.253 2.205.76 3.153c.508.942 1.202 1.686 2.087 2.222a5.557 5.557 0 0 0 2.938.806c.875 0 1.788-.225 2.741-.671a8.714 8.714 0 0 0 2.561-1.827l3.26 3.502a13.013 13.013 0 0 1-4.129 2.91c-1.596.722-3.17 1.083-4.737 1.083-2.11 0-4.021-.485-5.724-1.46a10.746 10.746 0 0 1-4.022-3.988c-.975-1.686-1.46-3.575-1.46-5.662 0-2.07.496-3.937 1.494-5.606.998-1.67 2.358-2.972 4.095-3.931 1.737-.953 3.682-1.433 5.831-1.433 1.585 0 3.147.328 4.693.993 1.545.66 2.853 1.557 3.93 2.696l-3.237 3.897zm14.5 6.057h5.91l-2.92-7.614-2.99 7.614zm9.013 8.042l-1.461-3.778h-9.227l-1.494 3.778h-5.725l9.165-21.346h5.724l8.956 21.346h-5.938zm10.292-21.352h6.063l6.181 12.487 6.153-12.487h6.057v21.352h-4.929l-.034-13.524-5.448 11.393h-3.598l-5.482-11.393v13.524h-4.963v-21.352zm40.139 10.998c1.139 0 2.013-.282 2.634-.852.62-.569.93-1.393.93-2.464 0-1.038-.31-1.833-.93-2.392-.621-.558-1.495-.834-2.634-.834h-3.531v6.547h3.531v-.005zm.276-10.998c2.719 0 4.833.654 6.334 1.963 1.5 1.308 2.256 3.152 2.256 5.527 0 2.515-.751 4.472-2.256 5.86-1.501 1.393-3.615 2.086-6.334 2.086h-3.807v5.911h-5.572v-21.347h9.379zm44.859 0h5.725l-7.214 21.352h-5.73l-4.049-14.528-4.112 14.528h-5.724l-7.185-21.352h5.995l4.207 15.594 4.202-15.594h5.448l4.264 15.594 4.173-15.594zm15.746 0h-5.572v21.347h5.572v-21.347z" fill="#E3E4E6"/><path d="M67.435 12.814a2.904 2.904 0 1 0 0-5.81 2.904 2.904 0 0 0 0 5.81z" fill="#DF4828"/><path d="M67.435 14.224a4.318 4.318 0 0 1-4.314-4.315 4.318 4.318 0 0 1 4.314-4.314 4.315 4.315 0 0 1 0 8.629zm0-5.815c-.823 0-1.494.671-1.494 1.494 0 .824.67 1.495 1.494 1.495s1.495-.671 1.495-1.495c0-.823-.666-1.494-1.495-1.494z" fill="#101D32"/><path fill-rule="evenodd" clip-rule="evenodd" d="M72.472 0A2.63 2.63 0 0 1 75.1 2.628a2.63 2.63 0 0 1-2.628 2.628 2.63 2.63 0 0 1-2.629-2.628A2.63 2.63 0 0 1 72.472 0z" fill="#101D32"/><path d="M130.793 113.123v1.156h2.385v1.281h-2.385v1.319h2.825v1.326h-4.466v-6.413h4.483v1.331h-2.842zm6.062 2.499a6.869 6.869 0 0 1-1.122-.48 2.306 2.306 0 0 1-.772-.66c-.204-.265-.305-.586-.305-.964 0-.372.107-.694.321-.964.215-.277.514-.485.897-.632a3.58 3.58 0 0 1 1.292-.22c.468 0 .885.079 1.246.237.367.158.649.389.857.688.209.299.311.66.311 1.077h-1.642c0-.22-.067-.389-.208-.519-.141-.129-.344-.192-.604-.192-.175 0-.327.023-.451.074a.698.698 0 0 0-.288.197.424.424 0 0 0-.095.265c0 .164.095.299.281.412.187.113.474.237.858.361.705.231 1.24.513 1.607.857.361.339.542.778.542 1.303 0 .389-.096.716-.294.993-.197.27-.474.479-.834.62-.356.141-.779.214-1.264.214-.474 0-.913-.079-1.325-.237-.412-.158-.75-.4-1.01-.738-.259-.333-.389-.756-.389-1.258h1.653c0 .237.039.429.118.564a.663.663 0 0 0 .35.293c.158.057.355.085.603.085.254 0 .446-.051.564-.153a.458.458 0 0 0 .181-.372.652.652 0 0 0-.079-.321c-.051-.085-.158-.175-.31-.26a6.07 6.07 0 0 0-.689-.27zm9.064-2.499h-1.918v5.082h-1.647v-5.082h-1.861v-1.331h5.426v1.331zm.801 3.503c.169 0 .315.033.445.107a.803.803 0 0 1 .305 1.122.803.803 0 0 1-.305.293.89.89 0 0 1-.445.107.892.892 0 0 1-.446-.107.803.803 0 0 1-.417-.71.803.803 0 0 1 .417-.705.877.877 0 0 1 .446-.107zm-15.843 10.602v-4.551l-1.443.384v-1.236l2.881-.998h.136v6.401h-1.574zm6.165-1.184a.649.649 0 0 0 .485-.197c.124-.13.186-.311.186-.531 0-.231-.062-.411-.181-.535a.667.667 0 0 0-.496-.186c-.209 0-.378.062-.502.186s-.186.299-.186.535c0 .226.062.401.192.531a.676.676 0 0 0 .502.197zm-.017-4.044c-.181 0-.316.057-.406.164-.091.113-.141.27-.141.474 0 .208.045.372.141.496.095.118.231.18.417.18.18 0 .321-.062.412-.18a.814.814 0 0 0 .141-.496c0-.204-.045-.361-.141-.474-.091-.107-.232-.164-.423-.164zm1.308 1.929c.305.147.542.355.711.615.169.259.254.564.254.913 0 .406-.096.745-.288 1.027a1.734 1.734 0 0 1-.795.626c-.339.141-.728.209-1.173.209-.446 0-.835-.068-1.179-.209a1.776 1.776 0 0 1-.807-.626c-.197-.282-.293-.621-.293-1.027 0-.349.085-.648.26-.913a1.85 1.85 0 0 1 .721-.621 1.713 1.713 0 0 1-.626-.575 1.497 1.497 0 0 1-.22-.806c0-.389.091-.717.271-.993.181-.271.434-.479.756-.62a2.75 2.75 0 0 1 1.111-.209c.423 0 .795.068 1.117.209.321.141.575.344.755.62.181.271.271.604.271.993 0 .304-.073.569-.22.806a1.72 1.72 0 0 1-.626.581zm4.563.694v-1.658l-.096.169-.936 1.494h1.032v-.005zm2.194 1.28h-.615v1.331h-1.579v-1.331h-2.414l-.107-1.026 2.521-4.033v-.028h1.579v3.807h.615v1.28zm3.355.141a.647.647 0 0 0 .485-.197c.124-.13.186-.311.186-.531 0-.231-.062-.411-.18-.535a.668.668 0 0 0-.496-.186c-.209 0-.378.062-.502.186s-.186.299-.186.535c0 .226.062.401.191.531.13.129.299.197.502.197zm-.011-4.044c-.18 0-.316.057-.406.164-.09.113-.141.27-.141.474 0 .208.045.372.141.496.096.118.231.18.417.18.181 0 .322-.062.412-.18a.814.814 0 0 0 .141-.496c0-.204-.045-.361-.141-.474-.096-.107-.237-.164-.423-.164zm1.303 1.929c.304.147.541.355.71.615.17.259.254.564.254.913 0 .406-.096.745-.287 1.027a1.732 1.732 0 0 1-.796.626 3.042 3.042 0 0 1-1.173.209c-.445 0-.834-.068-1.178-.209a1.776 1.776 0 0 1-.807-.626c-.197-.282-.293-.621-.293-1.027 0-.349.084-.648.259-.913.175-.26.412-.468.722-.621a1.705 1.705 0 0 1-.626-.575 1.488 1.488 0 0 1-.22-.806c0-.389.09-.717.271-.993.18-.271.434-.479.756-.62a2.736 2.736 0 0 1 1.105-.209c.423 0 .795.068 1.117.209.321.141.575.344.755.62.181.271.271.604.271.993 0 .304-.073.569-.22.806a1.612 1.612 0 0 1-.62.581z" fill="#111D32"/></svg>