<svg width="178" height="132" viewBox="0 0 178 132" fill="none" xmlns="http://www.w3.org/2000/svg"><path d="M20.75 114.889a8.92 8.92 0 0 0-2.769-2.344c-1.07-.582-2.135-.874-3.18-.874a6.24 6.24 0 0 0-3.3.906c-.995.602-1.774 1.438-2.344 2.496-.57 1.058-.856 2.242-.856 3.541s.286 2.477.856 3.541c.57 1.058 1.349 1.894 2.344 2.496a6.24 6.24 0 0 0 3.3.906c.982 0 2.008-.253 3.079-.754a9.792 9.792 0 0 0 2.876-2.052l3.661 3.934c-1.298 1.368-2.844 2.458-4.637 3.269-1.793.81-3.566 1.216-5.321 1.216-2.37 0-4.517-.545-6.43-1.641a12.067 12.067 0 0 1-4.517-4.479c-1.096-1.887-1.64-4.016-1.64-6.36 0-2.325.557-4.422 1.678-6.297 1.122-1.875 2.648-3.338 4.6-4.415 1.95-1.077 4.13-1.609 6.55-1.609 1.78 0 3.535.367 5.27 1.108 1.736.742 3.206 1.749 4.416 3.029l-3.636 4.383zm15.596 6.804h6.639l-3.282-8.552-3.357 8.552zm10.123 9.033l-1.64-4.244H34.464l-1.68 4.244h-6.43l10.295-23.977h6.43l10.06 23.977h-6.67zm10.883-23.983h6.804l6.943 14.025 6.911-14.025h6.81v23.983h-5.543l-.031-15.191-6.126 12.797h-4.035l-6.158-12.797v15.191h-5.575v-23.983zm44.402 12.353c1.279 0 2.261-.317 2.958-.957.697-.64 1.045-1.565 1.045-2.768 0-1.166-.348-2.059-1.045-2.686-.697-.627-1.679-.944-2.958-.944h-3.966v7.355h3.966zm.304-12.353c3.053 0 5.429.734 7.114 2.204 1.685 1.47 2.534 3.541 2.534 6.208 0 2.826-.843 5.024-2.534 6.589-1.685 1.564-4.061 2.343-7.114 2.343h-4.276v6.639h-6.26v-23.983h10.536zm37.394 0h5.816v23.983h-5.474l-10.883-14.335v14.335h-5.847v-23.983h5.505l10.915 14.437-.032-14.437zm11.523 0h18.923v4.998h-12.657v4.479h11.421v4.96l-11.421.038v4.51h12.999v4.998h-19.265v-23.983zm4.682-103.392V4.65h2.68v1.438h-2.68V7.57h3.174v1.495h-5.018V1.856h5.037v1.495h-3.193zm6.804 2.806a7.69 7.69 0 0 1-1.261-.538 2.598 2.598 0 0 1-.868-.741 1.742 1.742 0 0 1-.342-1.083c0-.419.12-.78.361-1.084.241-.304.577-.544 1.007-.71a4.032 4.032 0 0 1 1.451-.246c.526 0 .995.088 1.4.266.412.177.729.437.963.773.234.335.348.74.348 1.21h-1.843c0-.241-.076-.437-.235-.583-.158-.146-.386-.216-.677-.216-.197 0-.368.026-.507.083a.829.829 0 0 0-.323.222.476.476 0 0 0-.108.297c0 .184.108.336.317.463.209.126.532.266.963.405.798.26 1.393.577 1.805.957.406.38.608.874.608 1.463 0 .437-.107.805-.329 1.115a2.047 2.047 0 0 1-.938.697c-.405.158-.874.24-1.419.24a4.173 4.173 0 0 1-1.495-.266 2.543 2.543 0 0 1-1.134-.83c-.291-.373-.437-.848-.437-1.418h1.856c0 .266.045.481.133.633a.722.722 0 0 0 .393.33c.178.063.399.095.678.095.285 0 .5-.057.633-.172a.514.514 0 0 0 .203-.418.719.719 0 0 0-.088-.36c-.058-.096-.178-.197-.349-.292-.171-.095-.418-.177-.766-.292zm10.18-2.806h-2.148v5.714h-1.85V3.351h-2.096V1.856h6.094v1.495zm.906 3.934c.19 0 .354.038.5.12.146.083.26.19.342.324a.89.89 0 0 1 .127.468.895.895 0 0 1-.469.798 1.01 1.01 0 0 1-.5.12c-.184 0-.355-.037-.501-.12a.895.895 0 0 1-.469-.798c0-.17.045-.33.127-.468a.837.837 0 0 1 .342-.324c.146-.076.311-.12.501-.12zm-17.801 11.916v-5.112l-1.616.424v-1.387l3.231-1.121h.158V19.2h-1.773zm6.924-1.337a.724.724 0 0 0 .544-.221c.14-.146.209-.349.209-.602 0-.26-.069-.463-.202-.602-.14-.14-.323-.21-.558-.21-.234 0-.424.07-.563.21-.14.14-.21.336-.21.602 0 .253.07.45.216.602a.77.77 0 0 0 .564.221zm-.013-4.542c-.203 0-.355.064-.456.184-.101.127-.159.304-.159.532 0 .235.051.418.159.557.108.134.26.203.469.203.202 0 .361-.07.462-.203.101-.133.158-.316.158-.557 0-.228-.05-.405-.158-.532-.108-.12-.266-.184-.475-.184zm1.463 2.167c.342.164.608.399.799.69.19.292.285.634.285 1.027 0 .456-.108.842-.323 1.152a1.95 1.95 0 0 1-.894.704c-.38.158-.823.234-1.317.234-.501 0-.938-.076-1.324-.234a1.984 1.984 0 0 1-.906-.704c-.222-.31-.33-.696-.33-1.152 0-.387.095-.729.292-1.027a2.09 2.09 0 0 1 .811-.697 1.926 1.926 0 0 1-.704-.646 1.682 1.682 0 0 1-.247-.906c0-.437.102-.804.304-1.115.203-.31.488-.538.849-.696.361-.159.78-.235 1.242-.235.475 0 .893.076 1.254.235.361.158.646.386.849.696.203.305.304.678.304 1.115 0 .343-.082.64-.247.906a1.782 1.782 0 0 1-.697.653zm5.03 2.375a.653.653 0 0 0 .425-.145.939.939 0 0 0 .297-.393 1.39 1.39 0 0 0 .108-.545c0-.348-.082-.608-.253-.792a.84.84 0 0 0-.653-.272.95.95 0 0 0-.494.12.806.806 0 0 0-.317.317v.52c0 .411.07.715.216.905.139.19.367.285.671.285zm.57-3.566c.425 0 .786.107 1.096.317.304.209.539.506.703.88.165.38.241.811.241 1.305 0 .469-.108.893-.329 1.273-.222.38-.526.678-.919.894-.393.215-.83.323-1.311.323-.513 0-.976-.108-1.381-.33a2.42 2.42 0 0 1-.969-.988c-.241-.443-.355-.982-.355-1.615v-.672c0-.83.184-1.533.545-2.11a3.485 3.485 0 0 1 1.425-1.292 4.233 4.233 0 0 1 1.869-.43h.298v1.457h-.095c-.577 0-1.071.12-1.476.367-.406.247-.659.64-.754 1.178.171-.17.38-.31.614-.412.241-.095.507-.145.798-.145zm5.632 4.903h-1.875l2.661-5.771h-3.377v-1.438H178v.994l-2.648 6.215z" fill="#111D32"/><path fill-rule="evenodd" clip-rule="evenodd" d="M39.862 51.914l-37.28.355V2.217h104.265s4.783 5.632 8.077 5.892c3.288.26 3.25-2.11 5.239-2.11 1.995 0 12.821.133 15.083 2.103 2.255 1.977 8.831 6.633 10.826 6.893 1.989.26 1.603 4.776 1.989 5.549.425.855 4.935 3.776 4.663 10.079-.209 4.713 2.496 8.336 3.275 10.896.779 2.559.348 9.4.691 13.582.348 4.18 2.825 10.788 5.08 12.866 2.249 2.078 5.79 10.009 5.79 10.009H39.862V51.914z" fill="#E3E4E6"/><path d="M167.566 80.2H39.862a2.22 2.22 0 0 1-2.217-2.218V54.151l-35.039.335a2.293 2.293 0 0 1-1.583-.64 2.23 2.23 0 0 1-.66-1.577V2.217A2.22 2.22 0 0 1 2.582 0h104.266c.652 0 1.267.285 1.691.78 1.761 2.064 5.017 4.991 6.557 5.111.937.076 1.134-.107 1.723-.64.652-.589 1.641-1.482 3.345-1.482 5.042 0 13.898.342 16.54 2.655 2.496 2.185 8.305 6.094 9.673 6.366 3.161.412 3.497 4.143 3.675 6.151.019.19.038.425.057.608l.215.216c1.457 1.482 4.871 4.954 4.612 10.953-.121 2.787 1.007 5.194 2.008 7.323.462.988.899 1.926 1.178 2.825.57 1.863.596 5.087.621 8.495.013 1.964.032 3.991.158 5.543.336 4.042 2.788 9.952 4.371 11.416 2.465 2.274 5.689 9.344 6.31 10.737a2.229 2.229 0 0 1-.165 2.11 2.161 2.161 0 0 1-1.85 1.032zM42.079 75.764h121.978c-1.318-2.61-2.857-5.309-3.782-6.164-2.806-2.59-5.41-9.819-5.784-14.31-.139-1.717-.158-3.833-.177-5.879-.025-2.806-.051-5.986-.431-7.24-.184-.603-.538-1.363-.95-2.237-1.096-2.331-2.591-5.53-2.42-9.4.177-4.068-2.109-6.4-3.345-7.653-.488-.5-.842-.856-1.089-1.343-.298-.596-.355-1.267-.444-2.192-.051-.539-.152-1.692-.342-2.25-3.3-.867-10.186-6.17-11.51-7.322-1.09-.856-7.19-1.559-13.595-1.559-.089.064-.266.222-.399.336-.824.748-2.211 1.99-5.043 1.768-3.376-.267-7.228-4.061-8.9-5.886H4.798v45.593l35.038-.336c.577.012 1.16.228 1.584.64.418.418.659.981.659 1.577v23.857z" fill="#111D32"/><path d="M108.828 83.323a9.262 9.262 0 1 0-18.518-.468 9.262 9.262 0 0 0 18.518.468z" fill="#B5B7BC"/><path d="M99.568 94.573c-6.329 0-11.479-5.15-11.479-11.478 0-6.329 5.15-11.48 11.479-11.48 6.328 0 11.479 5.151 11.479 11.48 0 6.328-5.151 11.478-11.479 11.478zm0-18.523c-3.883 0-7.044 3.161-7.044 7.044 0 3.884 3.16 7.045 7.044 7.045 3.883 0 7.044-3.161 7.044-7.044 0-3.884-3.161-7.045-7.044-7.045z" fill="#111D32"/><path fill-rule="evenodd" clip-rule="evenodd" d="M99.568 80.27a2.821 2.821 0 0 1 2.819 2.818 2.817 2.817 0 0 1-2.819 2.82 2.821 2.821 0 0 1-2.819-2.82 2.817 2.817 0 0 1 2.819-2.819z" fill="#111D32"/><path d="M130.903 83.327a9.262 9.262 0 1 0-18.518-.468 9.262 9.262 0 0 0 18.518.468z" fill="#B5B7BC"/><path d="M121.639 94.573c-6.329 0-11.479-5.15-11.479-11.478 0-6.329 5.15-11.48 11.479-11.48 6.328 0 11.478 5.151 11.478 11.48 0 6.328-5.143 11.478-11.478 11.478zm0-18.523c-3.884 0-7.045 3.161-7.045 7.044 0 3.884 3.161 7.045 7.045 7.045 3.883 0 7.044-3.161 7.044-7.044 0-3.884-3.161-7.045-7.044-7.045z" fill="#111D32"/><path fill-rule="evenodd" clip-rule="evenodd" d="M121.639 80.27a2.821 2.821 0 0 1 2.819 2.818 2.817 2.817 0 0 1-2.819 2.82 2.82 2.82 0 0 1-2.819-2.82 2.82 2.82 0 0 1 2.819-2.819z" fill="#111D32"/><path d="M134.929 79.566c-.874 0-1.583-.71-1.583-1.584 0-4.143-3.371-7.507-7.507-7.507H95.368c-4.143 0-7.507 3.37-7.507 7.507a1.584 1.584 0 0 1-3.167 0c0-5.885 4.789-10.674 10.674-10.674h30.471c5.885 0 10.674 4.79 10.674 10.674 0 .874-.71 1.584-1.584 1.584zM40.8 77.982h-3.168v13.74h3.167v-13.74z" fill="#111D32"/><path d="M44.163 90.139h-9.895v3.167h9.895V90.14z" fill="#111D32"/><path fill-rule="evenodd" clip-rule="evenodd" d="M17.462 52.598v4.999S7.459 61.499 1.118 63.969a.784.784 0 0 0-.482.913c.089.38.444.64.836.608 10.054-.855 30.49-2.597 30.49-2.597V52.579l-14.5.02z" fill="#111D32"/><path d="M5.387 68.651a1.27 1.27 0 0 1-1.267-1.267v-3.37c0-.697.57-1.267 1.267-1.267s1.267.57 1.267 1.267v3.37c0 .703-.57 1.267-1.267 1.267z" fill="#111D32"/><path fill-rule="evenodd" clip-rule="evenodd" d="M68.077 34.044c0-.716-.582-1.293-1.292-1.293h-10.89a1.29 1.29 0 0 0-1.292 1.293v15.938a1.29 1.29 0 0 0 1.292 1.292H66.78c.716 0 1.292-.582 1.292-1.292V34.044h.006z" fill="#B5B7BC"/><path fill-rule="evenodd" clip-rule="evenodd" d="M57.77 48.107h7.133V35.919H57.77v12.188zm9.047-15.356h.095l.031.007.032.006.032.006.031.007.032.006.032.006.031.007.032.006.032.013.031.012.032.013.032.013.025.012.026.013.025.013.025.012.025.013.026.013.025.019.026.019.025.019.025.019.025.019.026.019.025.019.026.019.025.019.019.019.025.025.02.025.018.026.02.025.018.025.02.026.018.025.02.025.018.026.02.025.018.025.013.026.013.025.012.026.013.025.013.025.012.032.013.032.013.031.012.032.007.031.006.032.006.032.007.032.006.031.006.032.007.032.006.031V50.11l-.006.032-.007.031-.006.032-.006.032-.007.031-.006.032-.006.032-.007.031-.012.032-.013.032-.013.031-.012.032-.013.025-.013.026-.012.025-.013.025-.013.026-.019.025-.019.038-.019.025-.019.026-.019.025-.019.025-.019.026-.019.025-.019.025-.019.026-.025.019-.02.019-.025.019-.025.019-.025.019-.026.019-.025.019-.025.019-.025.019-.026.019-.025.019-.026.019-.025.012-.025.013-.025.013-.026.012-.025.013-.032.013-.032.012-.031.013-.032.013-.032.006-.031.006-.032.007-.032.006-.031.006-.032.007-.032.006-.031.006H55.769l-.032-.006-.032-.006-.031-.007-.032-.006-.032-.006-.031-.007-.032-.006-.032-.006-.031-.013-.032-.013-.032-.012-.031-.013-.032-.013-.026-.012-.025-.013-.025-.013-.026-.012-.025-.02-.025-.018-.026-.02-.025-.018-.025-.02-.026-.018-.025-.02-.025-.018-.025-.02-.026-.018-.025-.02-.02-.018-.018-.026-.02-.025-.018-.025-.02-.026-.018-.025-.02-.025-.018-.026-.013-.025-.019-.025-.019-.026-.013-.025-.012-.025-.013-.026-.013-.025-.012-.025-.013-.032-.013-.032-.012-.031-.013-.032-.006-.032-.007-.032-.006-.031-.006-.032-.007-.031-.006-.032-.006-.032-.007-.032V33.917l.007-.032.006-.032.006-.031.007-.032.006-.032.006-.031.007-.032.006-.032.013-.031.012-.032.013-.032.013-.031.012-.026.013-.025.013-.025.012-.026.013-.025.02-.025.018-.026.02-.025.018-.025.02-.026.018-.025.02-.025.018-.026.02-.025.018-.025.02-.026.024-.019.026-.019.025-.019.026-.019.025-.019.025-.019.026-.019.025-.019.025-.019.026-.019.025-.012.025-.013.026-.013.025-.012.025-.013.032-.013.032-.012.031-.013.032-.013.032-.012.031-.007.032-.006.032-.006.031-.007.032-.006.032-.006.031-.007.032-.006h11.042v-.013z" fill="#101D32"/><path fill-rule="evenodd" clip-rule="evenodd" d="M81.818 72.712H43.492s39.124-36.179 103.416-36.179C98.244 49.85 81.343 72.914 81.818 72.712z" fill="#D44629"/><mask id="a" maskUnits="userSpaceOnUse" x="43" y="36" width="104" height="37"><path fill-rule="evenodd" clip-rule="evenodd" d="M81.818 72.712H43.492s39.124-36.179 103.416-36.179C98.244 49.85 81.343 72.914 81.818 72.712z" fill="#D44629"/></mask><g mask="url(#a)"><path opacity=".5" d="M128.613 37.63c1.172.24 1.413 2.311-.164 2.42 0 0-1.027-.166-1.191-.97-.159-.754.494-1.508 1.355-1.45zm-14.583 0c1.179.246 1.369 2.311-.164 2.42 0 0-1.027-.166-1.191-.97-.152-.754.494-1.508 1.355-1.45zm4.859 0c1.179.246 1.369 2.311-.164 2.42 0 0-1.027-.166-1.191-.97-.152-.754.494-1.508 1.355-1.45zm4.865 0c1.191.246 1.324 2.318-.164 2.42 0 0-.779-.077-1.077-.66-.406-.766.234-1.83 1.241-1.76zm9.718 0c1.197.246 1.286 2.318-.165 2.42 0 0-1.019-.166-1.19-.97-.153-.754.494-1.508 1.355-1.45zm4.859 0c1.172.24 1.413 2.311-.165 2.42 0 0-1.026-.166-1.191-.97-.152-.754.494-1.508 1.356-1.45zm-7.044 3.496c1.191.247 1.324 2.319-.165 2.42 0 0-1.153-.254-1.21-1.134-.051-.71.583-1.343 1.375-1.286zm-4.859 0c1.197.247 1.324 2.319-.165 2.42 0 0-1.153-.254-1.21-1.134-.051-.71.583-1.343 1.375-1.286zm-4.859 0c1.172.24 1.413 2.312-.165 2.42 0 0-.906-.14-1.146-.811-.273-.767.158-1.685 1.311-1.609zm-4.865 0c1.184.247 1.412 2.312-.165 2.42 0 0-1.419-.38-1.191-1.463.127-.596.691-1.001 1.356-.957zm-4.859 0c1.172.24 1.413 2.312-.165 2.42 0 0-2.046-.805-.887-2.046.222-.241.368-.418 1.052-.374zm-4.859 0c1.185.247 1.413 2.312-.165 2.42 0 0-1.026-.165-1.191-.97-.158-.753.495-1.507 1.356-1.45zm-4.865 0c1.172.24 1.413 2.312-.165 2.42 0 0-.779-.076-1.077-.659-.399-.773.241-1.83 1.242-1.761zm2.192 3.529c1.178.247 1.368 2.312-.165 2.42 0 0-1.413-.38-1.191-1.464.12-.595.691-1 1.356-.956zm4.859 0c1.178.247 1.368 2.312-.165 2.42 0 0-1.026-.165-1.191-.97-.158-.754.494-1.508 1.356-1.45zm4.858 0c1.172.24 1.413 2.312-.164 2.42 0 0-.906-.14-1.147-.811-.272-.767.165-1.692 1.311-1.61zm4.859 0c1.172.24 1.413 2.312-.164 2.42 0 0-1.153-.235-1.21-1.135-.051-.696.335-1.355 1.374-1.285zm-7.044 3.496c1.172.241 1.413 2.313-.165 2.42 0 0-1.153-.234-1.21-1.134-.05-.697.33-1.362 1.375-1.286zm-9.724 0c1.197.247 1.286 2.319-.165 2.42 0 0-.684-.076-.994-.513-.526-.76-.121-1.995 1.159-1.907zm-4.434 0c1.171.241 1.412 2.313-.165 2.42 0 0-.786-.088-1.077-.652-.406-.786.013-1.856 1.242-1.768zm-4.866 0c1.172.241 1.413 2.313-.164 2.42 0 0-.685-.076-.995-.513-.526-.76-.12-1.995 1.16-1.907zm-4.858 0c1.197.247 1.285 2.319-.165 2.42 0 0-.684-.076-.995-.513-.532-.76-.126-1.995 1.16-1.907zm-4.86 0c1.179.247 1.369 2.313-.164 2.42 0 0-.684-.076-.995-.513-.532-.76-.126-1.995 1.16-1.907zm23.883 0c1.197.247 1.286 2.319-.165 2.42 0 0-.684-.076-.994-.513-.532-.76-.127-1.995 1.159-1.907zM75.571 51.68c1.172.24 1.413 2.312-.164 2.42 0 0-1.153-.254-1.21-1.134-.057-.716.583-1.343 1.374-1.286zm4.86 0c1.197.247 1.323 2.318-.165 2.42 0 0-.78-.076-1.077-.659-.406-.773.234-1.83 1.241-1.761zm4.858 0c1.21.253 1.248 2.325-.165 2.42 0 0-1.412-.38-1.19-1.464.126-.595.69-1.007 1.355-.956zm4.859 0c1.197.247 1.324 2.318-.165 2.42 0 0-2.318-1.223-.633-2.255.234-.146.513-.19.798-.165zm4.865 0c1.197.247 1.286 2.318-.165 2.42 0 0-2.318-1.223-.633-2.255.234-.146.513-.19.798-.165zm9.3 0c1.191.247 1.324 2.318-.165 2.42 0 0-.906-.14-1.147-.811-.272-.767.159-1.692 1.312-1.61zm-4.441 0c1.178.247 1.368 2.312-.165 2.42 0 0-.684-.076-.994-.513-.532-.76-.127-1.996 1.159-1.907zm-31.351 3.49c1.222.254 1.324 2.319-.165 2.42 0 0-1.413-.38-1.19-1.463.126-.596.69-1 1.355-.957zm4.859 0c1.222.254 1.324 2.319-.165 2.42 0 0-1.413-.38-1.191-1.463.127-.596.69-1 1.356-.957zm4.865 0c1.222.254 1.324 2.319-.165 2.42 0 0-1.419-.38-1.19-1.463.12-.596.69-1 1.355-.957zm4.859 0c1.21.254 1.248 2.325-.165 2.42 0 0-1.413-.38-1.191-1.463.12-.596.69-1 1.356-.957zm4.859 0c1.21.254 1.247 2.325-.165 2.42 0 0-1.42-.38-1.191-1.463.127-.596.69-1 1.356-.957zm4.858 0c1.223.254 1.324 2.319-.164 2.42 0 0-2.047-.804-.887-2.046.228-.24.374-.418 1.051-.374zm4.865 0c1.172.247 1.413 2.313-.164 2.42 0 0-1.42-.38-1.191-1.463.12-.596.69-1 1.355-.957zM60.99 58.7c1.21.253 1.248 2.325-.165 2.42 0 0-1.413-.38-1.191-1.463.12-.596.69-1.001 1.356-.957zm4.858 0c1.23.253 1.248 2.325-.164 2.42 0 0-1.027-.165-1.191-.97-.159-.753.494-1.507 1.355-1.45zm4.86 0c1.21.253 1.247 2.325-.165 2.42 0 0-.78-.076-1.077-.659-.4-.773.24-1.83 1.241-1.761zm4.864 0c1.198.247 1.324 2.319-.164 2.42 0 0-1.02-.165-1.191-.97-.159-.753.488-1.507 1.355-1.45zm4.86 0c1.203.247 1.456 2.306-.165 2.42 0 0-1.02-.165-1.191-.97-.159-.753.494-1.507 1.355-1.45zm4.858 0c1.191.247 1.324 2.319-.165 2.42 0 0-1.412-.38-1.19-1.463.126-.596.69-1.001 1.355-.957zm4.859 0c1.197.247 1.324 2.319-.165 2.42 0 0-1.02-.165-1.19-.97-.153-.753.493-1.507 1.355-1.45zm4.865 0c1.21.253 1.248 2.325-.165 2.42 0 0-1.026-.165-1.19-.97-.159-.753.487-1.507 1.355-1.45zm-26.492 3.497c1.153.24 1.412 2.312-.165 2.42 0 0-1.413-.38-1.19-1.464.126-.595.69-1 1.355-.956zm-9.718 0c1.178.247 1.368 2.312-.165 2.42 0 0-1.412-.38-1.19-1.464.12-.595.69-1 1.355-.956zm4.859 0c1.197.247 1.286 2.318-.165 2.42 0 0-1.413-.38-1.19-1.464.12-.595.69-1 1.355-.956zm9.718 0c1.153.24 1.412 2.312-.165 2.42 0 0-1.153-.254-1.21-1.134-.05-.71.59-1.343 1.375-1.286zm4.865 0c1.153.24 1.412 2.312-.165 2.42 0 0-1.957-.9-.887-2.047.222-.24.368-.424 1.052-.373zm4.859 0c1.178.247 1.368 2.312-.165 2.42 0 0-2.046-.805-.887-2.047.222-.24.367-.424 1.052-.373zm4.859 0c1.152.24 1.412 2.312-.165 2.42 0 0-2.046-.805-.887-2.047.228-.24.374-.424 1.052-.373zm4.858 0c1.172.247 1.413 2.312-.164 2.42 0 0-2.047-.805-.887-2.047.228-.24.374-.424 1.051-.373zm-41.556 3.528c1.21.254 1.248 2.325-.165 2.42 0 0-1.153-.253-1.21-1.134-.05-.716.589-1.343 1.374-1.286zm4.865 0c1.19.247 1.324 2.319-.165 2.42 0 0-1.153-.253-1.21-1.134-.057-.716.583-1.343 1.375-1.286zm4.859 0c1.19.247 1.324 2.319-.165 2.42 0 0-.78-.076-1.077-.659-.405-.772.234-1.83 1.242-1.76zm4.858 0c1.198.247 1.324 2.319-.164 2.42 0 0-1.027-.165-1.191-.969-.159-.754.494-1.514 1.355-1.45zm4.86 0c1.19.247 1.323 2.319-.165 2.42 0 0-.78-.076-1.077-.659-.4-.772.24-1.83 1.241-1.76zm4.864 0c1.198.247 1.324 2.319-.164 2.42 0 0-1.02-.165-1.191-.969-.159-.754.488-1.514 1.355-1.45zm4.86 0c1.197.247 1.285 2.319-.165 2.42 0 0-1.02-.165-1.191-.969-.159-.754.494-1.514 1.355-1.45zm4.858 0c1.197.247 1.286 2.319-.165 2.42 0 0-1.152-.253-1.21-1.134-.05-.716.59-1.343 1.375-1.286zm-2.185 3.49c1.172.242 1.412 2.313-.165 2.42 0 0-1.958-.899-.887-2.045.222-.241.367-.418 1.052-.374zm-4.86 0c1.185.248 1.413 2.313-.164 2.42 0 0-1.957-.899-.887-2.045.222-.241.368-.418 1.052-.374zm-4.864 0c1.184.248 1.412 2.313-.165 2.42 0 0-2.319-1.222-.634-2.255.235-.139.513-.183.799-.164zm-4.86 0c1.185.248 1.413 2.313-.164 2.42 0 0-.78-.075-1.077-.658-.399-.767.24-1.825 1.242-1.761zm-4.858 0c1.178.248 1.368 2.313-.165 2.42 0 0-1.957-.899-.887-2.045.222-.241.368-.418 1.052-.374zm-4.859 0c1.223.254 1.324 2.32-.165 2.42 0 0-.779-.075-1.077-.658-.405-.767.235-1.825 1.242-1.761zm-4.865 0c1.153.242 1.412 2.313-.165 2.42 0 0-1.02-.164-1.19-.969-.153-.753.493-1.507 1.355-1.45zm-4.859 0c1.153.242 1.413 2.313-.165 2.42 0 0-.779-.075-1.077-.658-.405-.767.241-1.825 1.242-1.761z" fill="#111D32"/></g><path d="M105.649 63.989c2.997 1.197-5.631 1.533-6.759-1.11-1.127-2.647 8.362-8.824 11.72-10.255 3.37-1.432-14.298 7.633-4.961 11.364z" fill="#D44629"/><path d="M109.919 36.54c0-.729-.589-1.318-1.318-1.318H82.223c-.728 0-1.318.589-1.318 1.317v11.093c0 .728.59 1.318 1.318 1.318h26.378c.729 0 1.318-.59 1.318-1.318V36.539z" fill="#B5B7BC"/><path d="M84.073 45.776h22.672v-7.387H84.073v7.387zm24.56-10.554h.063l.032.006.032.007.032.006.031.006.032.007.032.006.031.006.032.007.032.006.031.013.032.012.032.013.031.013.032.012.032.013.025.013.025.012.026.013.025.013.025.019.026.019.025.019.025.019.026.019.025.019.025.019.026.019.025.019.025.019.019.025.019.025.019.026.019.025.019.025.019.026.019.025.019.025.019.026.019.025.019.025.013.026.013.025.012.025.013.032.013.032.012.031.013.032.013.032.012.032.007.031.006.032.006.032.007.031.006.032.006.032.007.031.006.032V47.74l-.006.031-.007.032-.006.032-.006.031-.007.032-.006.032-.006.031-.007.032-.012.032-.013.031-.013.032-.012.032-.013.031-.013.032-.012.032-.013.025-.013.025-.019.026-.019.025-.019.025-.019.026-.019.025-.019.025-.019.026-.019.025-.019.025-.019.026-.019.025-.025.02-.025.018-.026.02-.025.018-.025.02-.026.018-.025.02-.025.018-.026.02-.025.018-.025.013-.026.013-.025.012-.025.013-.032.013-.032.012-.031.013-.032.013-.032.012-.031.007-.032.012-.032.007-.031.006-.032.006-.032.006-.031.007-.032.006-.032.007-.032.006H82.128l-.032-.006-.031-.007-.032-.006-.032-.007-.031-.006-.032-.006-.032-.007-.031-.006-.032-.012-.032-.007-.031-.012-.032-.013-.032-.013-.031-.013-.032-.012-.032.019-.025-.013-.025-.012-.026-.013-.025-.02-.025-.018-.026-.02-.025-.018-.026-.02-.025-.018-.025-.02-.025-.018-.026-.02-.025-.018-.02-.026-.018-.025-.02-.025-.018-.026-.02-.025-.018-.025-.02-.026-.018-.025-.02-.025-.018-.026-.02-.025-.012-.025-.013-.026-.012-.031-.013-.032-.013-.032-.012-.031-.02-.038-.012-.032-.006-.032-.007-.031-.006-.032-.006-.032-.007-.031-.006-.032-.006-.032-.007-.031-.006-.032-.006-.032V36.444l.006-.031.006-.032.007-.032.006-.031.006-.032.007-.032.006-.031.006-.032.007-.032.006-.031.013-.032.012-.032.013-.031.013-.032.012-.032.013-.025.013-.025.012-.026.02-.025.019-.025.019-.026.019-.025.018-.025.02-.026.019-.025.019-.025.019-.026.018-.025.02-.025.025-.02.025-.018.026-.02.025-.018.025-.02.025-.018.026-.02.025-.018.026-.02.025-.018.025-.013.026-.013.025-.012.025-.013.032-.013.032-.012.031-.013.032-.013.032-.012.031-.013.032-.006.032-.007.031-.006.032-.006.032-.007.031-.006.032-.006.032-.007.031-.006h26.474l.044-.02zm20.791 27.398h17.763V51.465h-17.763V62.62zm18.264-13.056h.076l.038.006.038.007.038.006.038.006.038.007.038.006.031.006.032.007.032.012.031.013.032.013.032.012.031.013.032.013.032.012.031.013.032.02.032.018.031.02.032.018.032.02.031.018.026.02.025.018.026.02.025.024.025.026.026.025.025.026.025.025.026.025.025.026.025.025.019.025.019.026.019.025.019.025.019.026.019.031.019.032.019.032.013.031.013.032.012.032.013.031.013.032.012.032.013.031.013.032.012.032.007.031.006.038.006.038.007.038.006.038.006.038.007.038.006.038V63.21l-.006.038-.007.038-.006.038-.006.038-.007.038-.006.038-.006.038-.007.032-.012.032-.013.031-.013.032-.012.032-.013.032-.013.031-.012.032-.013.032-.013.031-.019.032-.019.032-.019.031-.019.026-.019.025-.019.025-.019.026-.019.025-.025.025-.025.025-.026.026-.025.025-.025.026-.026.025-.025.025-.025.026-.026.019-.025.019-.026.019-.031.019-.032.019-.032.019-.031.019-.032.019-.032.019-.031.012-.032.013-.032.013-.031.012-.032.013-.032.013-.031.012-.032.013-.032.006-.031.007-.038.006-.038.006-.038.007-.038.006-.038.006H128.81l-.038-.006-.038-.006-.038-.007-.038-.006-.032-.006-.038-.007-.032-.006-.031-.013-.032-.012-.032-.013-.031-.013-.032-.012-.032-.013-.031-.013-.032-.012-.032-.02-.031-.018-.032-.02-.032-.018-.031-.02-.026-.018-.025-.02-.025-.018-.026-.02-.025-.025-.025-.025-.026-.025-.025-.026-.026-.025-.025-.026-.025-.025-.026-.025-.019-.025-.019-.026-.019-.025-.019-.026-.019-.025-.019-.032-.019-.031-.019-.032-.019-.032-.012-.031-.013-.032-.013-.032-.012-.031-.013-.032-.013-.032-.012-.031-.013-.032-.006-.032-.007-.038-.006-.038-.006-.038-.007-.038-.006-.038-.006-.038-.007-.038V50.882l.007-.038.006-.038.006-.038.007-.038.006-.038.006-.038.007-.038.006-.032.013-.032.012-.031.013-.032.013-.032.012-.031.013-.032.013-.032.012-.032.019-.031.019-.032.019-.032.019-.031.019-.026.019-.025.019-.025.019-.026.019-.025.026-.025.025-.026.025-.025.026-.025.025-.026.026-.025.025-.025.025-.026.026-.019.025-.019.025-.019.026-.019.031-.019.032-.019.032-.019.031-.019.032-.019.032-.012.031-.013.032-.013.032-.012.031-.013.032-.013.032-.012.031-.013.032-.006.038-.007.032-.006.038-.006.038-.007.038-.006.038-.006.038-.007h18.802l.038.013z" fill="#101D32"/><path d="M144.799 61.182h-13.164a.949.949 0 0 1-.95-.95c0-.526.424-.95.95-.95h13.164c.526 0 .95.424.95.95s-.424.95-.95.95zm0-3.218h-13.164a.949.949 0 0 1-.95-.95c0-.526.424-.95.95-.95h13.164c.526 0 .95.424.95.95s-.424.95-.95.95zm-13.164-3.471a.881.881 0 1 0 0-1.763.881.881 0 0 0 0 1.763zm13.164 0a.88.88 0 1 0 0-1.761.88.88 0 0 0 0 1.76zM96.996 36.54h-3.167v11.086h3.167V36.539z" fill="#101D32"/><path d="M50.232 28.849H4.767v3.168h45.465v-3.168zm100.275 0H72.531v3.168h77.976v-3.168z" fill="#D44629"/><path d="M39.754 19.81c0-.983-.798-1.781-1.78-1.781H12.521c-.982 0-1.78.798-1.78 1.78v14.97c0 .981.798 1.78 1.78 1.78h25.453c.982 0 1.78-.799 1.78-1.78v-14.97z" fill="#B5B7BC"/><path opacity=".5" d="M20.49 19.942c1.045.228 1.248 2.015-.152 2.116 0 0-.83-.12-1.02-.767-.197-.671.367-1.406 1.172-1.349zm-4.257 0c1.045.228 1.248 2.015-.152 2.116 0 0-.723-.082-.97-.62-.31-.685.266-1.56 1.122-1.496zm6.385 2.832c1.052.228 1.179 2.02-.152 2.116 0 0-.83-.12-1.02-.767-.196-.671.368-1.406 1.172-1.35zm-4.257 0c1.033.222 1.33 2.008-.152 2.116 0 0-.83-.12-1.02-.767-.196-.671.374-1.406 1.172-1.35zm-4.257 0c1.033.222 1.33 2.008-.152 2.116 0 0-.722-.089-.97-.621-.31-.69.267-1.558 1.122-1.495zm6.386 2.8c1.058.228 1.108 2.027-.152 2.116 0 0-.723-.089-.97-.621-.31-.684.267-1.552 1.122-1.495zm-4.257 0c1.045.228 1.248 2.014-.152 2.116 0 0-1.065-.222-1.065-1.065 0-.601.545-1.096 1.217-1.051zm6.385 2.832c1.046.228 1.248 2.014-.152 2.115 0 0-1.064-.221-1.064-1.064 0-.608.545-1.102 1.216-1.051zm-4.257 0c1.033.221 1.33 2.008-.152 2.115 0 0-.614-.05-.893-.487-.424-.66.095-1.698 1.045-1.628zm-4.257 0c1.033.221 1.33 2.008-.152 2.115 0 0-.944-.17-1.051-.912-.095-.652.475-1.254 1.203-1.203zm6.386 2.806c1.051.228 1.178 2.02-.152 2.116 0 0-.83-.12-1.02-.767-.197-.671.367-1.406 1.172-1.35zm-4.257 0c1.058.228 1.108 2.027-.152 2.116 0 0-.615-.05-.893-.488-.425-.665.095-1.698 1.045-1.628zm-2.129 2.825c1.052.228 1.179 2.021-.152 2.116 0 0-.507-.025-.804-.367-.545-.634-.051-1.818.956-1.749zm4.257 0c1.046.228 1.248 2.015-.152 2.116 0 0-.83-.12-1.02-.766-.196-.666.374-1.407 1.172-1.35zm4.257 0c1.033.222 1.33 2.008-.152 2.116 0 0-.83-.12-1.02-.766-.196-.666.368-1.407 1.172-1.35z" fill="#111D32"/><path d="M13.908 33.391H36.58V21.197H13.908V33.39zm24.11-15.362h.089l.044.006.045.007.044.006.044.006.045.007.044.006.044.013.045.012.044.013.038.02.038.012.038.012.038.02.038.018.038.02.038.018.038.02.038.018.038.026.038.025.038.026.038.025.032.025.032.026.031.025.032.025.032.025.031.032.032.032.032.032.031.031.026.032.025.032.025.031.026.032.025.038.025.032.026.038.025.038.019.038.019.038.019.038.019.038.019.038.019.038.019.038.013.044.012.038.013.044.013.045.012.044.013.044.006.045.007.044.006.044.006.045.007.044.006.044v15.229l-.006.045-.007.044-.006.044-.006.045-.007.044-.006.044-.013.045-.012.044-.013.045-.013.044-.012.044-.013.038-.019.038-.019.038-.019.038-.019.038-.019.038-.019.038-.019.038-.025.038-.026.038-.025.038-.025.032-.026.032-.025.031-.025.032-.026.032-.031.031-.032.032-.032.032-.031.031-.032.026-.032.025-.031.026-.032.025-.032.025-.038.026-.038.025-.038.025-.038.02-.038.018-.038.02-.038.018-.038.02-.038.018-.038.02-.038.012-.038.013-.044.012-.045.013-.044.013-.044.012-.045.006-.044.007-.044.006-.045.006-.044.007-.044.006-.045.007H12.432l-.045-.007-.044-.006-.044-.007-.045-.006-.044-.006-.044-.007-.045-.006-.044-.013-.044-.012-.045-.013-.044-.012-.038-.013-.038-.013-.038-.019-.038-.019-.038-.019-.038-.019-.038-.019-.038-.019-.038-.019-.038-.025-.038-.026-.038-.025-.032-.025-.031-.026-.032-.025-.032-.025-.032-.026-.031-.031-.032-.032-.031-.032-.032-.031-.025-.032-.026-.032-.025-.031-.026-.032-.025-.032-.025-.038-.026-.038-.025-.038-.019-.038-.019-.038-.019-.038-.019-.038-.019-.038-.019-.038-.019-.038-.013-.038-.012-.044-.013-.044-.013-.045-.019-.044-.012-.044-.007-.045-.006-.044-.006-.044-.007-.045-.006-.044-.006-.045V19.676l.006-.044.006-.045.007-.044.006-.044.006-.045.007-.044.012-.044.013-.045.013-.044.012-.044.013-.038.013-.045.019-.038.019-.038.019-.038.019-.038.019-.038.019-.038.019-.038.025-.038.025-.038.026-.031.025-.038.025-.032.026-.032.025-.032.026-.031.031-.032.032-.031.031-.032.032-.032.032-.025.031-.026.032-.025.032-.025.032-.026.038-.025.038-.025.038-.026.038-.025.038-.019.038-.019.038-.019.038-.019.038-.019.038-.019.038-.013.038-.012.044-.013.044-.013.045-.012.044-.013.044-.006.045-.007.044-.006.044-.006.045-.007.044-.006h25.637z" fill="#101D32"/><path d="M26.83 19.81h-3.166v14.968h3.167V19.81z" fill="#101D32"/><path d="M72.53 79.705H50.233c-.95 0-1.723-.772-1.723-1.723V28.044c0-.95.773-1.723 1.723-1.723h22.299c.95 0 1.723.773 1.723 1.723v49.932c0 .957-.767 1.73-1.723 1.73zm-20.575-3.452h18.853v-46.48H51.955v46.48z" fill="#111D32"/><path d="M65.094 21.532a.862.862 0 0 0-.862-.861h-5.695a.862.862 0 0 0-.861.861v1.723c0 .475.386.862.861.862h5.695a.862.862 0 0 0 .862-.862v-1.723z" fill="#101D32"/><path d="M156.436 70.323a.862.862 0 0 0-.861-.861h-5.696a.862.862 0 0 0-.861.861v1.73c0 .475.386.861.861.861h5.696a.862.862 0 0 0 .861-.861v-1.73z" fill="#D44629"/></svg>