<svg width="844" height="190" fill="none" xmlns="http://www.w3.org/2000/svg"><path d="M94.5 169.553c-41.025 0-74.402-33.329-74.402-74.293 0-40.965 33.377-74.294 74.403-74.294 19.731 0 37.688 7.715 51.022 20.279 1.124 1.124 2.666.878 3.794-.245l8.692-8.682c1.128-1.123 1.128-2.974-.067-4.261l-1.033-.958C140.46 12.069 118.553 2.895 94.501 2.895 43.412 2.895 2 44.249 2 95.26c0 51.01 41.412 92.365 92.5 92.365a90.16 90.16 0 0 0 8.107-.37c1.122-.098 3.277-1.227 3.269-3.566-.008-2.339-.187-10.373-.307-12.463-.121-2.091-2.484-2.157-3.708-2.036a75.228 75.228 0 0 1-7.36.363z" stroke="#fff" stroke-width="4"/><path d="M103.879 107.491s1.042 41.102 1.042 44.105c0 2.67-1.718 3.139-2.648 3.263a59.603 59.603 0 0 1-7.85.525c-33.185 0-60.182-26.97-60.182-60.124s26.997-60.125 60.182-60.125c29.414 0 53.949 21.196 59.148 49.1.181.969-.028 2.886-2.975 2.67-2.95-.217-25.436-1.942-25.436-1.942-1.189-.088-2.226-1.135-2.308-2.321l-1.9-27.724c-.083-1.188-1.123-2.16-2.314-2.16h-10.414c-1.191 0-2.232.972-2.314 2.16l-1.911 27.724c-.082 1.186-1.119 2.233-2.308 2.322L67.289 87.59c-1.187.09-2.157 1.135-2.157 2.327v10.403c0 1.189.972 2.237 2.16 2.323l34.373 2.526c1.189.086 2.184 1.134 2.214 2.322z" stroke="#fff" stroke-width="4"/><path d="M123.148 107.856c.028-1.162 1.001-2.112 2.166-2.14h58.165c2.642 0 2.452 2.021 2.308 3.028-2.716 18.919-11.37 37.158-26.008 51.714-.499.498-1.011.973-1.523 1.449a65.54 65.54 0 0 0-.386.359c-.018.02-.024.046-.044.068l-1.029.949a92.116 92.116 0 0 1-32.18 19.028c-1.099.376-3.285-.504-3.239-2.327l.005-.188c.052-2.158.247-10.246.3-12.26.068-2.568 1.743-3.964 2.564-4.322a74.244 74.244 0 0 0 21.215-13.957c.031-.031.064-.055.097-.08.025-.019.051-.038.075-.06l.461-.429c.318-.296.636-.59.947-.901a73.128 73.128 0 0 0 15.434-22.476c.38-.862.066-2.608-1.938-2.608h-10.257c-2.336 0-3.327 1.326-3.692 1.981-5.222 9.32-12.393 17.117-21.537 22.526-.949.562-2.801.088-2.823-1.899-.024-1.987.919-37.455.919-37.455zm408.78 61.697c-41.026 0-74.403-33.329-74.403-74.293 0-40.965 33.377-74.294 74.403-74.294 19.731 0 37.688 7.715 51.022 20.279 1.124 1.124 2.667.878 3.795-.245l8.691-8.682c1.128-1.123 1.128-2.974-.066-4.261l-1.034-.958c-16.449-15.03-38.356-24.204-62.408-24.204-51.088 0-92.501 41.354-92.501 92.365 0 51.01 41.413 92.365 92.501 92.365 2.733 0 5.436-.129 8.106-.37 1.122-.098 3.278-1.227 3.27-3.566-.008-2.339-.187-10.373-.308-12.463-.121-2.091-2.483-2.157-3.708-2.036a75.207 75.207 0 0 1-7.36.363z" stroke="#fff" stroke-width="4"/><path d="M541.306 107.491s1.043 41.102 1.043 44.105c0 2.67-1.718 3.139-2.649 3.263a59.59 59.59 0 0 1-7.849.525c-33.185 0-60.183-26.97-60.183-60.124s26.998-60.125 60.183-60.125c29.413 0 53.949 21.196 59.148 49.1.18.969-.029 2.886-2.976 2.67-2.949-.217-25.436-1.942-25.436-1.942-1.189-.088-2.225-1.135-2.307-2.321l-1.901-27.724c-.082-1.188-1.123-2.16-2.314-2.16h-10.414c-1.191 0-2.231.972-2.314 2.16l-1.91 27.724c-.083 1.186-1.119 2.233-2.308 2.322l-34.402 2.626c-1.187.09-2.158 1.135-2.158 2.327v10.403c0 1.189.973 2.237 2.16 2.323l34.374 2.526c1.189.086 2.183 1.134 2.213 2.322z" stroke="#fff" stroke-width="4"/><path d="M560.575 107.856c.028-1.162 1.001-2.112 2.166-2.14h58.165c2.643 0 2.453 2.021 2.308 3.028-2.716 18.919-11.37 37.158-26.007 51.714-.499.498-1.011.973-1.524 1.449l-.386.359c-.018.02-.024.046-.044.068l-1.029.949a92.102 92.102 0 0 1-32.179 19.028c-1.099.376-3.285-.504-3.239-2.327l.004-.188c.052-2.158.248-10.246.3-12.26.068-2.568 1.744-3.964 2.564-4.322a74.262 74.262 0 0 0 21.216-13.957c.03-.031.063-.055.096-.08.026-.019.051-.038.076-.06l.46-.429c.319-.296.637-.59.947-.901a73.11 73.11 0 0 0 15.434-22.476c.381-.862.066-2.608-1.938-2.608h-10.257c-2.336 0-3.327 1.326-3.691 1.981-5.223 9.32-12.394 17.117-21.538 22.526-.949.562-2.8.088-2.823-1.899-.024-1.987.919-37.455.919-37.455zm190.067 61.697c-41.026 0-74.403-33.329-74.403-74.293 0-40.965 33.377-74.294 74.403-74.294 19.731 0 37.688 7.715 51.022 20.279 1.124 1.124 2.666.878 3.795-.245l8.691-8.682c1.128-1.123 1.128-2.974-.067-4.261l-1.033-.958c-16.449-15.03-38.356-24.204-62.408-24.204-51.089 0-92.501 41.354-92.501 92.365 0 51.01 41.412 92.365 92.501 92.365 2.733 0 5.435-.129 8.106-.37 1.122-.098 3.277-1.227 3.269-3.566-.008-2.339-.187-10.373-.307-12.463-.121-2.091-2.484-2.157-3.708-2.036a75.222 75.222 0 0 1-7.36.363z" stroke="#fff" stroke-width="4"/><path d="M760.02 107.491s1.042 41.102 1.042 44.105c0 2.67-1.718 3.139-2.648 3.263a59.606 59.606 0 0 1-7.85.525c-33.185 0-60.182-26.97-60.182-60.124s26.997-60.125 60.182-60.125c29.414 0 53.949 21.196 59.148 49.1.181.969-.028 2.886-2.975 2.67-2.95-.217-25.436-1.942-25.436-1.942-1.189-.088-2.225-1.135-2.308-2.321l-1.9-27.724c-.083-1.188-1.123-2.16-2.314-2.16h-10.414c-1.191 0-2.232.972-2.314 2.16l-1.911 27.724c-.082 1.186-1.119 2.233-2.308 2.322L723.43 87.59c-1.187.09-2.157 1.135-2.157 2.327v10.403c0 1.189.972 2.237 2.159 2.323l34.374 2.526c1.189.086 2.184 1.134 2.214 2.322z" stroke="#fff" stroke-width="4"/><path d="M779.289 107.856c.028-1.162 1.001-2.112 2.166-2.14h58.165c2.642 0 2.452 2.021 2.308 3.028-2.716 18.919-11.37 37.158-26.008 51.714-.499.498-1.011.973-1.523 1.449a65.54 65.54 0 0 0-.386.359c-.018.02-.024.046-.044.068l-1.029.949a92.116 92.116 0 0 1-32.18 19.028c-1.099.376-3.285-.504-3.239-2.327l.005-.188c.052-2.158.247-10.246.3-12.26.068-2.568 1.743-3.964 2.564-4.322a74.244 74.244 0 0 0 21.215-13.957c.031-.031.064-.055.097-.08a.857.857 0 0 0 .075-.06l.461-.429c.318-.296.636-.59.947-.901a73.11 73.11 0 0 0 15.434-22.476c.38-.862.066-2.608-1.938-2.608h-10.257c-2.336 0-3.327 1.326-3.692 1.981-5.222 9.32-12.393 17.117-21.537 22.526-.949.562-2.801.088-2.823-1.899-.024-1.987.919-37.455.919-37.455z" stroke="#fff" stroke-width="4"/><path fill-rule="evenodd" clip-rule="evenodd" d="M322.593 107.491s1.042 41.103 1.042 44.105c0 2.67-1.718 3.139-2.648 3.263a59.606 59.606 0 0 1-7.85.525c-33.185 0-60.183-26.97-60.183-60.124s26.998-60.125 60.183-60.125c29.413 0 53.949 21.196 59.148 49.1.18.969-.028 2.886-2.976 2.67-2.949-.217-25.435-1.941-25.435-1.941-1.189-.089-2.226-1.136-2.308-2.322l-1.901-27.724c-.082-1.188-1.123-2.16-2.314-2.16h-10.414c-1.191 0-2.231.972-2.313 2.16l-1.911 27.724c-.082 1.186-1.119 2.233-2.308 2.322l-34.402 2.626c-1.187.09-2.157 1.135-2.157 2.327v10.403c0 1.19.972 2.237 2.159 2.323l34.374 2.526c1.189.086 2.183 1.134 2.214 2.322z" fill="#60BCDC"/><path fill-rule="evenodd" clip-rule="evenodd" d="M313.214 169.553c-41.026 0-74.402-33.328-74.402-74.293s33.376-74.294 74.402-74.294c19.731 0 37.688 7.715 51.023 20.279 1.124 1.124 2.666.878 3.794-.245l8.691-8.682c1.128-1.123 1.128-2.974-.066-4.261l-1.034-.958c-16.449-15.03-38.355-24.204-62.408-24.204-51.088 0-92.5 41.354-92.5 92.365 0 51.01 41.412 92.365 92.5 92.365 2.733 0 5.436-.129 8.106-.37 1.122-.098 3.278-1.227 3.27-3.566-.008-2.339-.187-10.373-.308-12.463-.12-2.091-2.483-2.157-3.708-2.036a75.207 75.207 0 0 1-7.36.363z" fill="#0082AE"/><path fill-rule="evenodd" clip-rule="evenodd" d="M344.028 105.716c-1.165.028-2.138.978-2.166 2.14 0 0-.943 35.468-.919 37.455.022 1.987 1.873 2.46 2.822 1.899 9.145-5.409 16.315-13.206 21.538-22.526.364-.655 1.355-1.981 3.691-1.981h10.258c2.004 0 2.318 1.746 1.937 2.608a73.094 73.094 0 0 1-15.434 22.476c-.46.46-.936.886-1.407 1.33-.056.05-.118.086-.172.14a74.258 74.258 0 0 1-21.215 13.957c-.821.358-2.497 1.754-2.565 4.322-.054 2.078-.26 10.624-.304 12.447-.046 1.824 2.14 2.704 3.239 2.328a92.102 92.102 0 0 0 32.179-19.028l1.029-.95c.02-.021.026-.047.044-.067.641-.598 1.285-1.185 1.91-1.808 14.637-14.556 23.291-32.795 26.008-51.714.144-1.007.334-3.028-2.308-3.028h-58.165z" fill="#0082AE"/></svg>