<svg xmlns="http://www.w3.org/2000/svg" width="24" height="24" viewBox="0 0 24 24"><path fill="#FFF" fill-rule="evenodd" d="M12 23.968c-6.617 0-12-5.376-12-11.984S5.383 0 12 0s12 5.376 12 11.984-5.383 11.984-12 11.984zm10.12-10.344c-.35-.11-3.172-.95-6.384-.437 1.34 3.679 1.886 6.675 1.991 7.298a10.252 10.252 0 0 0 4.393-6.86zm-6.116 7.798c-.153-.898-.748-4.028-2.187-7.762l-.067.023c-5.782 2.011-7.857 6.015-8.041 6.392A10.208 10.208 0 0 0 12 22.235c1.42 0 2.773-.29 4.004-.813zM4.385 18.844c.232-.397 3.045-5.049 8.332-6.755.133-.043.268-.084.404-.122a34.346 34.346 0 0 0-.831-1.737c-5.12 1.53-10.086 1.466-10.535 1.457a10.188 10.188 0 0 0 2.63 7.157zm-2.418-8.94c.458.005 4.681.023 9.476-1.248a65.32 65.32 0 0 0-3.8-5.92 10.276 10.276 0 0 0-5.676 7.167zm7.631-7.856c.283.379 2.145 2.91 3.825 5.992 3.644-1.364 5.187-3.435 5.372-3.697a10.253 10.253 0 0 0-9.196-2.295zm10.336 3.479c-.216.291-1.934 2.49-5.723 4.035a31.552 31.552 0 0 1 .9 2.011c3.41-.428 6.8.259 7.138.33a10.18 10.18 0 0 0-2.315-6.376z"/></svg>