<svg width="943" height="426" viewBox="0 0 943 426" fill="none" xmlns="http://www.w3.org/2000/svg"><path stroke="#AAA" d="M.5.5h116v197.842H.5z"/><path stroke="#AAA" d="M6.5 6.342h104V192.5H6.5z"/><path fill="#D0D5D6" d="M411 9h282v281H411z"/><path stroke="#AAA" d="M165.5.5h537v299h-537zm586 0h191v212.126h-191z"/><path fill="#D0D5D6" stroke="#AAA" d="M751.5 212.626h191v106.063h-191zm0 106.064h191v106.063h-191z"/><path stroke="#AAA" d="M175.5 9.5h517v280h-517z"/><path stroke="#383F48" d="M410.5 290V9M179.931 60.798h44.789m-44.789 41.75h44.789m-44.789 44.61h44.789m-44.789 60h44.789m-44.789 15h44.789m-44.789 30.5h44.789"/><g clip-path="url(#a)"><rect x="226.569" y="60.158" width="179" height="19" rx="2.5" fill="#D0D5D6" stroke="#383F48"/><path d="M226.069 62.658a3 3 0 0 1 3-3v20a3 3 0 0 1-3-3v-14z" fill="#383F48"/><path d="M398.159 66.726l2.738 2.695-2.738 2.696" stroke="#383F48" stroke-linecap="round"/></g><g clip-path="url(#b)"><rect x="226.569" y="81.158" width="179" height="19" rx="2.5" fill="#D0D5D6" stroke="#383F48"/><path d="M226.069 83.658a3 3 0 0 1 3-3v20a3 3 0 0 1-3-3v-14z" fill="#383F48"/><path d="M398.159 87.726l2.738 2.695-2.738 2.696" stroke="#383F48" stroke-linecap="round"/></g><g clip-path="url(#c)" stroke="#383F48"><rect x="226.569" y="102.158" width="179" height="13" rx="2.5"/><path d="M398.159 105.726l2.738 2.696-2.738 2.695" stroke-linecap="round"/></g><g clip-path="url(#d)" stroke="#383F48"><rect x="226.569" y="117.158" width="179" height="13" rx="2.5"/><path d="M398.159 120.726l2.738 2.696-2.738 2.695" stroke-linecap="round"/></g><g clip-path="url(#e)" stroke="#383F48"><rect x="226.569" y="132.158" width="179" height="13" rx="2.5"/><path d="M398.159 135.726l2.738 2.696-2.738 2.695" stroke-linecap="round"/></g><g clip-path="url(#f)" stroke="#383F48"><rect x="226.569" y="147.158" width="179" height="13" rx="2.5"/><path d="M398.159 150.726l2.738 2.696-2.738 2.695" stroke-linecap="round"/></g><g clip-path="url(#g)" stroke="#383F48"><rect x="226.569" y="162.158" width="179" height="13" rx="2.5"/><path d="M398.159 165.726l2.738 2.696-2.738 2.695" stroke-linecap="round"/></g><g clip-path="url(#h)" stroke="#383F48"><rect x="226.569" y="177.158" width="179" height="13" rx="2.5"/><path d="M398.159 180.726l2.738 2.696-2.738 2.695" stroke-linecap="round"/></g><g clip-path="url(#i)" stroke="#383F48"><rect x="226.569" y="192.158" width="179" height="13" rx="2.5"/><path d="M398.159 195.726l2.738 2.696-2.738 2.695" stroke-linecap="round"/></g><g clip-path="url(#j)" stroke="#383F48"><rect x="226.569" y="207.158" width="179" height="13" rx="2.5"/><path d="M398.159 210.726l2.738 2.696-2.738 2.695" stroke-linecap="round"/></g><g clip-path="url(#k)" stroke="#383F48"><rect x="226.569" y="222.158" width="179" height="13" rx="2.5"/><path d="M398.159 225.726l2.738 2.696-2.738 2.695" stroke-linecap="round"/></g><g clip-path="url(#l)" stroke="#383F48"><rect x="226.569" y="237.158" width="179" height="13" rx="2.5"/><path d="M398.159 240.726l2.738 2.696-2.738 2.695" stroke-linecap="round"/></g><g clip-path="url(#m)" stroke="#383F48"><rect x="226.569" y="252.158" width="179" height="13" rx="2.5"/><path d="M398.159 255.726l2.738 2.696-2.738 2.695" stroke-linecap="round"/></g><g clip-path="url(#n)" stroke="#383F48"><rect x="226.569" y="267.158" width="179" height="13" rx="2.5"/><path d="M398.159 270.726l2.738 2.696-2.738 2.695" stroke-linecap="round"/></g><g clip-path="url(#o)" stroke="#383F48"><path d="M229 282.5h174a2.5 2.5 0 0 1 2.5 2.5v4.5h-179V285a2.5 2.5 0 0 1 2.5-2.5z"/><path d="M398.09 285.068l2.737 2.696-2.737 2.695" stroke-linecap="round"/></g><path stroke="#383F48" d="M757.317 30.277h44.789m-44.789 41.75h44.789m-44.789 44.61h44.789m-44.789 60h44.789m-44.789 15h44.789"/><rect x="803.5" y="29.5" width="134" height="19" rx="2.5" fill="#D0D5D6" stroke="#383F48"/><path d="M803 32a3 3 0 0 1 3-3v20a3 3 0 0 1-3-3V32z" fill="#383F48"/><path d="M930.09 36.068l2.737 2.696-2.737 2.695" stroke="#383F48" stroke-linecap="round"/><rect x="803.5" y="50.5" width="134" height="19" rx="2.5" fill="#D0D5D6" stroke="#383F48"/><path d="M803 53a3 3 0 0 1 3-3v20a3 3 0 0 1-3-3V53z" fill="#383F48"/><path d="M930.09 57.068l2.737 2.696-2.737 2.695" stroke="#383F48" stroke-linecap="round"/><rect x="803.5" y="71.5" width="134" height="13" rx="2.5" stroke="#383F48"/><path d="M930.09 75.068l2.737 2.695-2.737 2.696" stroke="#383F48" stroke-linecap="round"/><rect x="803.5" y="86.5" width="134" height="13" rx="2.5" stroke="#383F48"/><path d="M930.09 90.068l2.737 2.695-2.737 2.696" stroke="#383F48" stroke-linecap="round"/><rect x="803.5" y="101.5" width="134" height="13" rx="2.5" stroke="#383F48"/><path d="M930.09 105.068l2.737 2.696-2.737 2.695" stroke="#383F48" stroke-linecap="round"/><rect x="803.5" y="116.5" width="134" height="13" rx="2.5" stroke="#383F48"/><path d="M930.09 120.068l2.737 2.696-2.737 2.695" stroke="#383F48" stroke-linecap="round"/><rect x="803.5" y="131.5" width="134" height="13" rx="2.5" stroke="#383F48"/><path d="M930.09 135.068l2.737 2.696-2.737 2.695" stroke="#383F48" stroke-linecap="round"/><rect x="803.5" y="146.5" width="134" height="13" rx="2.5" stroke="#383F48"/><path d="M930.09 150.068l2.737 2.696-2.737 2.695" stroke="#383F48" stroke-linecap="round"/><rect x="803.5" y="161.5" width="134" height="13" rx="2.5" stroke="#383F48"/><path d="M930.09 165.068l2.737 2.696-2.737 2.695" stroke="#383F48" stroke-linecap="round"/><rect x="803.5" y="176.5" width="134" height="13" rx="2.5" stroke="#383F48"/><path d="M930.09 180.068l2.737 2.696-2.737 2.695" stroke="#383F48" stroke-linecap="round"/><rect x="803.5" y="191.5" width="134" height="13" rx="2.5" stroke="#383F48"/><path d="M930.09 195.068l2.737 2.696-2.737 2.695" stroke="#383F48" stroke-linecap="round"/><g clip-path="url(#p)" stroke="#383F48"><path d="M806 206.5h129a2.5 2.5 0 0 1 2.5 2.5v3.5h-134V209a2.5 2.5 0 0 1 2.5-2.5z"/><path d="M930.09 210.068l2.737 2.696-2.737 2.695" stroke-linecap="round"/></g><path d="M186.658 15.82h-2.285v6.338h-.933V15.82h-2.28v-.771h5.498v.771zm.186 3.648c0-.518.101-.983.302-1.397.205-.413.489-.732.85-.957.365-.225.78-.337 1.245-.337.719 0 1.301.25 1.743.747.446.498.669 1.16.669 1.988v.063c0 .514-.099.977-.298 1.387a2.226 2.226 0 0 1-.844.952 2.33 2.33 0 0 1-1.26.342c-.716 0-1.297-.25-1.743-.747-.443-.498-.664-1.158-.664-1.978v-.063zm.908.107c0 .586.135 1.056.405 1.411.274.355.638.532 1.094.532a1.3 1.3 0 0 0 1.094-.537c.27-.361.405-.866.405-1.513 0-.58-.138-1.049-.415-1.407a1.304 1.304 0 0 0-1.094-.542c-.446 0-.806.178-1.079.533-.273.354-.41.862-.41 1.523zm4.814-.103c0-.81.192-1.461.576-1.953.385-.494.888-.742 1.509-.742.619 0 1.109.212 1.47.635v-2.754h.903v7.5h-.83l-.044-.566c-.361.442-.864.664-1.509.664-.611 0-1.111-.251-1.499-.752-.384-.502-.576-1.156-.576-1.963v-.069zm.904.103c0 .599.123 1.068.371 1.406.247.339.589.508 1.025.508.573 0 .991-.257 1.255-.771V18.29c-.27-.498-.685-.747-1.245-.747-.443 0-.788.17-1.035.512-.248.342-.371.848-.371 1.519zm8.222 2.583c-.052-.104-.094-.29-.127-.557-.42.437-.921.655-1.504.655-.52 0-.948-.147-1.284-.44a1.44 1.44 0 0 1-.498-1.123c0-.55.209-.976.625-1.28.42-.305 1.009-.458 1.768-.458h.879v-.415c0-.316-.095-.567-.284-.752-.188-.189-.467-.283-.835-.283-.322 0-.592.081-.81.244-.218.163-.327.36-.327.59h-.908c0-.263.092-.517.278-.761.189-.247.443-.443.762-.586a2.575 2.575 0 0 1 1.059-.215c.609 0 1.086.153 1.431.46.345.302.524.72.537 1.254v2.432c0 .485.062.87.186 1.157v.078h-.948zm-1.499-.689c.283 0 .552-.073.806-.22a1.33 1.33 0 0 0 .552-.57v-1.084h-.708c-1.107 0-1.661.323-1.661.971 0 .283.095.505.284.664.189.16.431.24.727.24zm5.327-.634l1.231-3.96h.967l-2.124 6.098c-.329.88-.852 1.319-1.568 1.319l-.171-.015-.337-.063v-.733l.245.02c.306 0 .543-.062.712-.186.173-.123.315-.35.425-.678l.2-.538-1.884-5.224h.986l1.318 3.96zm3.15-3.785l-.513-.351c.303-.423.459-.87.469-1.338v-.703h.893v.635a2.244 2.244 0 0 1-.244.976 2.23 2.23 0 0 1-.605.782zm4.468 3.707a.656.656 0 0 0-.279-.567c-.182-.137-.503-.254-.962-.351-.455-.098-.818-.215-1.089-.352-.266-.137-.465-.3-.595-.488a1.179 1.179 0 0 1-.191-.674c0-.433.183-.8.547-1.099.368-.3.837-.449 1.406-.449.599 0 1.084.155 1.456.464.374.31.561.705.561 1.186h-.908c0-.247-.106-.46-.318-.64-.208-.178-.472-.268-.791-.268-.328 0-.585.072-.771.215a.675.675 0 0 0-.278.562c0 .218.086.382.258.493.173.11.484.216.933.317.453.101.819.222 1.099.362.28.14.486.309.62.507.137.196.205.435.205.718 0 .472-.189.851-.567 1.138-.377.283-.867.425-1.469.425-.423 0-.798-.075-1.123-.225a1.852 1.852 0 0 1-.767-.625 1.534 1.534 0 0 1-.273-.874h.903a.947.947 0 0 0 .361.723c.228.175.528.263.899.263.342 0 .615-.068.82-.205.208-.14.313-.325.313-.556zm6.796-1.768c-.804-.231-1.39-.514-1.757-.85a1.637 1.637 0 0 1-.547-1.25c0-.56.223-1.022.669-1.386.449-.368 1.032-.552 1.748-.552.488 0 .923.094 1.303.283.385.189.681.45.889.781.212.332.318.695.318 1.09h-.943c0-.43-.137-.767-.41-1.012-.273-.247-.659-.37-1.157-.37-.462 0-.824.102-1.084.307-.257.202-.386.483-.386.845 0 .29.122.535.366.737.248.199.666.381 1.255.547.593.166 1.055.35 1.387.552.335.198.583.431.742.698.163.267.244.581.244.942 0 .576-.224 1.039-.674 1.387-.449.345-1.049.518-1.801.518a3.37 3.37 0 0 1-1.368-.279c-.423-.189-.75-.446-.981-.771a1.885 1.885 0 0 1-.342-1.109h.943c0 .43.157.77.473 1.021.319.247.744.371 1.275.371.494 0 .874-.1 1.137-.303a.983.983 0 0 0 .396-.825c0-.348-.122-.617-.366-.806-.245-.192-.687-.38-1.329-.566zm5.821 2.529c.322 0 .604-.097.844-.293.241-.195.375-.44.401-.732h.854c-.016.303-.12.59-.312.864a2.05 2.05 0 0 1-.772.655 2.201 2.201 0 0 1-1.015.244c-.72 0-1.293-.24-1.719-.718-.423-.482-.635-1.14-.635-1.973v-.151c0-.515.095-.972.283-1.372.189-.4.459-.712.811-.933.355-.221.773-.332 1.255-.332.592 0 1.084.177 1.474.532.394.355.604.816.63 1.382H227a1.229 1.229 0 0 0-.391-.84 1.193 1.193 0 0 0-.859-.332c-.459 0-.816.166-1.069.498-.251.33-.376.806-.376 1.431v.17c0 .61.125 1.078.376 1.407.25.329.608.493 1.074.493zm4.018-4.004a1.924 1.924 0 0 1 1.563-.737c1.116 0 1.68.63 1.689 1.89v3.491h-.903v-3.496c-.003-.381-.091-.662-.264-.845-.169-.182-.434-.273-.796-.273-.293 0-.55.078-.771.234a1.598 1.598 0 0 0-.518.615v3.765h-.903v-7.5h.903v2.856zm6.797 4.742c-.716 0-1.299-.235-1.748-.704-.449-.471-.674-1.101-.674-1.89v-.165c0-.524.1-.991.298-1.401.202-.414.482-.736.84-.967a2.112 2.112 0 0 1 1.172-.352c.687 0 1.221.226 1.601.679.381.452.572 1.1.572 1.943v.376h-3.579c.013.521.164.943.454 1.265.293.319.664.478 1.113.478.319 0 .589-.065.811-.195.221-.13.415-.303.581-.518l.551.43c-.442.68-1.106 1.02-1.992 1.02zm-.112-4.737a1.2 1.2 0 0 0-.918.4c-.247.264-.4.636-.459 1.114h2.646v-.068c-.026-.46-.149-.814-.371-1.065-.221-.254-.521-.38-.898-.38zm3.003 1.953c0-.81.192-1.461.576-1.953a1.82 1.82 0 0 1 1.509-.742c.618 0 1.108.212 1.47.635v-2.754h.903v7.5h-.83l-.044-.566c-.362.442-.864.664-1.509.664-.612 0-1.112-.251-1.499-.752-.384-.502-.576-1.156-.576-1.963v-.069zm.903.103c0 .599.124 1.068.371 1.406.248.339.589.508 1.026.508.573 0 .991-.257 1.255-.771V18.29c-.271-.498-.686-.747-1.246-.747-.442 0-.787.17-1.035.512-.247.342-.371.848-.371 1.519zm8.223 2.061c-.352.413-.868.62-1.548.62-.563 0-.993-.163-1.289-.489-.293-.328-.441-.813-.444-1.455v-3.437h.903v3.413c0 .8.325 1.201.976 1.201.691 0 1.15-.257 1.377-.771v-3.843h.904v5.283h-.86l-.019-.523zm3.237.522h-.903v-7.5h.903v7.5zm3.643.098c-.716 0-1.299-.235-1.748-.704-.45-.471-.674-1.101-.674-1.89v-.165c0-.524.099-.991.298-1.401.201-.414.481-.736.839-.967a2.114 2.114 0 0 1 1.172-.352c.687 0 1.221.226 1.602.679.381.452.571 1.1.571 1.943v.376h-3.579c.013.521.165.943.454 1.265.293.319.664.478 1.114.478.319 0 .589-.065.81-.195.221-.13.415-.303.581-.518l.552.43c-.443.68-1.107 1.02-1.992 1.02zm-.113-4.737c-.364 0-.67.134-.918.4-.247.264-.4.636-.459 1.114h2.647v-.068c-.026-.46-.15-.814-.371-1.065-.222-.254-.521-.38-.899-.38zm124.151-.581c0 .345-.086.651-.259.918-.172.267-.41.48-.713.64.345.166.619.395.821.688.201.29.302.632.302 1.026 0 .631-.215 1.13-.644 1.499-.43.364-1.014.547-1.753.547-.739 0-1.325-.184-1.758-.552-.433-.368-.649-.866-.649-1.494 0-.394.101-.738.302-1.03.202-.293.474-.521.816-.684a1.857 1.857 0 0 1-.713-.64 1.68 1.68 0 0 1-.254-.918c0-.605.202-1.087.605-1.445.404-.361.953-.542 1.646-.542.69 0 1.237.179 1.641.537.406.355.61.838.61 1.45zm-1.265 3.17c0-.31-.089-.557-.268-.743-.179-.185-.42-.278-.723-.278-.299 0-.539.093-.718.278-.179.182-.268.43-.268.742 0 .303.088.547.263.733.176.185.42.278.733.278.306 0 .545-.09.718-.269.175-.179.263-.426.263-.742zm-.146-3.101c0-.277-.073-.498-.22-.664-.146-.17-.353-.254-.62-.254-.264 0-.469.081-.615.244-.147.163-.22.387-.22.674 0 .283.073.51.22.683.146.173.353.259.62.259s.472-.086.615-.259c.147-.172.22-.4.22-.683zm2.646 4.458c0-.225.075-.407.225-.547a.813.813 0 0 1 .571-.21c.231 0 .422.07.571.21.153.14.23.322.23.547a.708.708 0 0 1-.225.542.819.819 0 0 1-.576.205.815.815 0 0 1-.571-.205.708.708 0 0 1-.225-.542zm0-4c0-.224.075-.406.225-.546a.814.814 0 0 1 .571-.21c.231 0 .422.07.571.21.153.14.23.322.23.547a.708.708 0 0 1-.225.542.819.819 0 0 1-.576.205.815.815 0 0 1-.571-.205.708.708 0 0 1-.225-.542zm6.123 4.693h-1.411v-5.44l-1.684.523v-1.148l2.944-1.054h.151v7.119zm6.949-5.22c0 .345-.087.651-.259.918-.173.267-.41.48-.713.64.345.166.618.395.82.688.202.29.303.632.303 1.026 0 .631-.215 1.13-.645 1.499-.429.364-1.014.547-1.753.547-.738 0-1.324-.184-1.757-.552-.433-.368-.65-.866-.65-1.494 0-.394.101-.738.303-1.03.202-.293.474-.521.815-.684a1.86 1.86 0 0 1-.712-.64 1.671 1.671 0 0 1-.254-.918c0-.605.201-1.087.605-1.445.404-.361.952-.542 1.646-.542.69 0 1.237.179 1.64.537.407.355.611.838.611 1.45zm-1.265 3.17c0-.31-.09-.557-.269-.743-.179-.185-.42-.278-.722-.278-.3 0-.539.093-.718.278-.179.182-.269.43-.269.742 0 .303.088.547.264.733.176.185.42.278.732.278.306 0 .546-.09.718-.269.176-.179.264-.426.264-.742zm-.147-3.101c0-.277-.073-.498-.219-.664-.147-.17-.353-.254-.62-.254-.264 0-.469.081-.616.244-.146.163-.219.387-.219.674 0 .283.073.51.219.683.147.173.354.259.62.259.267 0 .472-.086.616-.259.146-.172.219-.4.219-.683zm7.368 4.038h-1.787l-.402 1.113h-.58l1.629-4.266h.492l1.632 4.266h-.577l-.407-1.113zm-1.618-.463h1.451l-.727-1.995-.724 1.995zm3.903-2.69l1.394 3.48 1.395-3.48h.729v4.266h-.562v-1.661l.053-1.793-1.401 3.454h-.43l-1.398-3.445.056 1.784v1.661h-.563v-4.266h.727zm361.618-9.285h-2.285v6.338h-.933V8.607h-2.28v-.772h5.498v.772zm.186 3.647c0-.517.101-.983.303-1.396.205-.414.488-.733.849-.957.365-.225.78-.337 1.245-.337.72 0 1.301.249 1.743.747.446.498.669 1.16.669 1.987v.064c0 .514-.099.976-.297 1.386a2.228 2.228 0 0 1-.845.952 2.33 2.33 0 0 1-1.26.342c-.716 0-1.297-.249-1.743-.747-.443-.498-.664-1.157-.664-1.977v-.064zm.908.108c0 .585.135 1.056.405 1.41.274.355.638.533 1.094.533a1.3 1.3 0 0 0 1.094-.537c.27-.362.405-.866.405-1.514 0-.58-.138-1.048-.415-1.406a1.303 1.303 0 0 0-1.094-.542c-.446 0-.805.177-1.079.532-.273.355-.41.863-.41 1.524zm4.814-.103c0-.81.193-1.462.577-1.953.384-.495.887-.742 1.508-.742.619 0 1.109.211 1.47.634V7.445h.903v7.5h-.83l-.044-.567c-.361.443-.864.664-1.508.664-.612 0-1.112-.25-1.499-.752-.384-.501-.577-1.155-.577-1.963v-.068zm.904.103c0 .598.123 1.067.371 1.406.247.338.589.508 1.025.508.573 0 .991-.258 1.255-.772v-2.427c-.27-.498-.685-.747-1.245-.747-.443 0-.788.171-1.035.513-.248.342-.371.848-.371 1.519zm8.222 2.583c-.052-.105-.094-.29-.127-.557-.419.436-.921.654-1.503.654-.521 0-.949-.146-1.285-.44a1.44 1.44 0 0 1-.498-1.122c0-.55.209-.977.625-1.28.42-.306 1.009-.458 1.768-.458h.879v-.416c0-.315-.095-.566-.283-.752-.189-.188-.467-.283-.835-.283-.323 0-.593.082-.811.244-.218.163-.327.36-.327.591h-.908c0-.263.093-.517.278-.761.189-.248.443-.443.762-.586a2.576 2.576 0 0 1 1.059-.215c.609 0 1.086.153 1.431.459.345.302.524.72.537 1.255v2.431c0 .485.062.871.186 1.158v.078h-.948zm-1.499-.689c.284 0 .552-.073.806-.22a1.33 1.33 0 0 0 .552-.57V12.38h-.708c-1.107 0-1.66.324-1.66.972 0 .283.094.504.283.664.189.16.431.24.727.24zm5.328-.635l1.23-3.96h.967l-2.124 6.099c-.329.879-.851 1.318-1.568 1.318l-.17-.014-.337-.064v-.732l.244.02c.306 0 .543-.063.713-.186.172-.124.314-.35.424-.679l.201-.537-1.885-5.225h.986l1.319 3.96zm3.149-3.784l-.513-.351c.303-.424.459-.87.469-1.338v-.703h.894v.634a2.26 2.26 0 0 1-.245.977 2.23 2.23 0 0 1-.605.781zm4.468 3.706a.656.656 0 0 0-.279-.566c-.182-.137-.502-.254-.961-.352-.456-.097-.819-.215-1.089-.351-.267-.137-.466-.3-.596-.489a1.178 1.178 0 0 1-.19-.673c0-.433.182-.8.546-1.1.368-.299.837-.448 1.407-.448.599 0 1.084.154 1.455.464.374.309.561.704.561 1.186h-.908c0-.247-.106-.46-.317-.64-.209-.179-.472-.268-.791-.268-.329 0-.586.072-.772.215a.677.677 0 0 0-.278.561c0 .218.086.383.259.493.172.111.483.217.932.318.453.1.819.221 1.099.361.28.14.487.31.62.508.137.195.205.434.205.718 0 .472-.189.851-.566 1.137-.378.284-.868.425-1.47.425a2.67 2.67 0 0 1-1.123-.224 1.852 1.852 0 0 1-.767-.625 1.535 1.535 0 0 1-.273-.874h.903a.944.944 0 0 0 .362.722c.227.176.527.264.898.264.342 0 .615-.068.82-.205.209-.14.313-.326.313-.557zm6.797-1.767c-.804-.232-1.39-.515-1.758-.85a1.637 1.637 0 0 1-.547-1.25c0-.56.223-1.022.669-1.387.449-.368 1.032-.551 1.748-.551a2.9 2.9 0 0 1 1.304.283c.384.189.68.449.888.781.212.332.318.695.318 1.089h-.943c0-.43-.136-.767-.41-1.01-.273-.248-.659-.372-1.157-.372-.462 0-.824.103-1.084.308-.257.201-.386.483-.386.844 0 .29.122.536.366.738.248.198.666.38 1.255.547.593.166 1.055.35 1.387.551.335.199.583.432.742.699.163.267.244.58.244.942 0 .576-.224 1.038-.673 1.387-.45.345-1.05.517-1.802.517-.489 0-.944-.092-1.367-.278-.424-.189-.751-.446-.982-.772a1.885 1.885 0 0 1-.342-1.108h.943c0 .43.158.77.473 1.02.319.248.744.372 1.275.372.495 0 .874-.101 1.137-.303a.983.983 0 0 0 .396-.825c0-.349-.122-.617-.366-.806-.244-.192-.687-.38-1.328-.566zm5.82 2.529c.322 0 .604-.098.845-.293a1.03 1.03 0 0 0 .4-.732h.855c-.017.302-.121.59-.313.864a2.054 2.054 0 0 1-.771.654 2.205 2.205 0 0 1-1.016.244c-.719 0-1.292-.239-1.719-.717-.423-.482-.635-1.14-.635-1.973V12.2c0-.514.095-.971.284-1.372.188-.4.459-.71.81-.932.355-.222.773-.332 1.255-.332.593 0 1.084.177 1.475.532.394.355.604.815.63 1.382h-.855a1.229 1.229 0 0 0-.391-.84 1.193 1.193 0 0 0-.859-.332c-.459 0-.815.166-1.069.498-.251.329-.376.806-.376 1.43v.171c0 .61.125 1.078.376 1.407.25.329.608.493 1.074.493zm4.018-4.004c.401-.492.922-.737 1.563-.737 1.117 0 1.68.63 1.689 1.89v3.49h-.903v-3.496c-.003-.38-.091-.662-.264-.844-.169-.182-.434-.274-.795-.274a1.3 1.3 0 0 0-.772.235 1.598 1.598 0 0 0-.518.615v3.765h-.903v-7.5h.903V10.3zm6.797 4.741c-.716 0-1.298-.234-1.748-.703-.449-.472-.674-1.102-.674-1.89v-.166c0-.524.1-.99.298-1.4.202-.414.482-.737.84-.968a2.115 2.115 0 0 1 1.172-.351c.687 0 1.221.226 1.602.678.38.453.571 1.1.571 1.944v.376h-3.579c.013.52.164.942.454 1.264.293.32.664.479 1.113.479.319 0 .589-.065.811-.195a2.04 2.04 0 0 0 .581-.518l.552.43c-.443.68-1.107 1.02-1.993 1.02zm-.112-4.736a1.2 1.2 0 0 0-.918.4c-.247.264-.4.635-.459 1.114h2.647v-.069c-.026-.459-.15-.814-.371-1.064-.222-.254-.521-.381-.899-.381zm3.003 1.953c0-.81.192-1.462.576-1.953a1.82 1.82 0 0 1 1.509-.742c.618 0 1.108.211 1.47.634V7.445h.903v7.5h-.83l-.044-.567c-.361.443-.864.664-1.509.664-.612 0-1.111-.25-1.499-.752-.384-.501-.576-1.155-.576-1.963v-.068zm.903.103c0 .598.124 1.067.371 1.406.248.338.59.508 1.026.508.573 0 .991-.258 1.255-.772v-2.427c-.27-.498-.686-.747-1.245-.747-.443 0-.788.171-1.036.513-.247.342-.371.848-.371 1.519zm8.223 2.06c-.352.413-.868.62-1.548.62-.563 0-.993-.162-1.289-.488-.293-.329-.441-.814-.444-1.455V9.66h.903v3.414c0 .8.326 1.2.977 1.2.69 0 1.149-.257 1.377-.77V9.66h.903v5.284h-.859l-.02-.523zm3.237.523h-.903v-7.5h.903v7.5zm3.643.097c-.716 0-1.299-.234-1.748-.703-.449-.472-.674-1.102-.674-1.89v-.166c0-.524.099-.99.298-1.4.202-.414.482-.737.84-.968a2.112 2.112 0 0 1 1.172-.351c.686 0 1.22.226 1.601.678.381.453.571 1.1.571 1.944v.376h-3.579c.013.52.165.942.454 1.264.293.32.664.479 1.114.479.319 0 .589-.065.81-.195.222-.13.415-.303.581-.518l.552.43c-.443.68-1.107 1.02-1.992 1.02zm-.112-4.736a1.2 1.2 0 0 0-.918.4c-.248.264-.401.635-.459 1.114h2.646v-.069c-.026-.459-.15-.814-.371-1.064-.221-.254-.521-.381-.898-.381zm79.068-.581c0 .345-.087.65-.259.918-.173.267-.41.48-.713.64.345.165.618.395.82.688.202.29.303.631.303 1.025 0 .632-.215 1.131-.645 1.5-.429.364-1.014.546-1.753.546-.738 0-1.324-.184-1.757-.551-.433-.368-.65-.866-.65-1.495 0-.394.101-.737.303-1.03a2.03 2.03 0 0 1 .815-.683 1.862 1.862 0 0 1-.712-.64 1.671 1.671 0 0 1-.254-.918c0-.606.201-1.087.605-1.445.404-.362.952-.542 1.646-.542.69 0 1.237.179 1.64.537.407.354.611.838.611 1.45zm-1.265 3.169c0-.31-.09-.557-.269-.742-.179-.186-.42-.279-.722-.279-.3 0-.539.093-.718.279-.179.182-.269.43-.269.742 0 .303.088.547.264.732.176.186.42.279.732.279.306 0 .546-.09.718-.269.176-.18.264-.426.264-.742zm-.147-3.1c0-.277-.073-.499-.219-.665-.147-.17-.354-.254-.62-.254-.264 0-.469.082-.616.244-.146.163-.219.388-.219.674 0 .283.073.511.219.684.147.172.354.259.62.259.267 0 .472-.087.616-.26.146-.172.219-.4.219-.683zm2.647 4.457c0-.224.075-.407.225-.547a.814.814 0 0 1 .571-.21c.231 0 .421.07.571.21.153.14.23.323.23.547a.708.708 0 0 1-.225.542.822.822 0 0 1-.576.205.813.813 0 0 1-.571-.205.708.708 0 0 1-.225-.542zm0-3.999c0-.224.075-.407.225-.547a.814.814 0 0 1 .571-.21c.231 0 .421.07.571.21.153.14.23.323.23.547a.708.708 0 0 1-.225.542.822.822 0 0 1-.576.205.813.813 0 0 1-.571-.205.708.708 0 0 1-.225-.542zm6.123 4.693h-1.411v-5.44l-1.685.523V8.88l2.945-1.055h.151v7.12zm6.948-5.22c0 .345-.086.65-.259.918-.172.267-.41.48-.712.64.345.165.618.395.82.688.202.29.303.631.303 1.025 0 .632-.215 1.131-.645 1.5-.43.364-1.014.546-1.753.546-.739 0-1.325-.184-1.758-.551-.433-.368-.649-.866-.649-1.495 0-.394.101-.737.303-1.03.201-.293.473-.52.815-.683a1.865 1.865 0 0 1-.713-.64 1.68 1.68 0 0 1-.254-.918c0-.606.202-1.087.606-1.445.403-.362.952-.542 1.645-.542.69 0 1.237.179 1.641.537.407.354.61.838.61 1.45zm-1.264 3.169c0-.31-.09-.557-.269-.742-.179-.186-.42-.279-.723-.279-.299 0-.538.093-.717.279-.179.182-.269.43-.269.742 0 .303.088.547.264.732.175.186.42.279.732.279.306 0 .545-.09.718-.269.176-.18.264-.426.264-.742zm-.147-3.1c0-.277-.073-.499-.22-.665-.146-.17-.353-.254-.62-.254-.263 0-.469.082-.615.244-.147.163-.22.388-.22.674 0 .283.073.511.22.684.146.172.353.259.62.259s.472-.087.615-.26c.147-.172.22-.4.22-.683zm7.367 4.037h-1.787l-.401 1.114h-.58l1.629-4.266h.492l1.632 4.266h-.578l-.407-1.114zm-1.617-.463h1.45l-.726-1.995-.724 1.995zm3.902-2.689l1.395 3.48 1.394-3.48h.73v4.266h-.563v-1.662l.053-1.792-1.4 3.454h-.431l-1.397-3.446.055 1.784v1.662h-.562v-4.266h.726z" fill="#383F48"/><circle cx="252.584" cy="42.026" r="6.79" fill="#383F48"/><circle cx="267.163" cy="42.026" r="6.29" stroke="#383F48"/><circle cx="281.742" cy="42.026" r="6.29" stroke="#383F48"/><circle cx="296.321" cy="42.026" r="6.29" stroke="#383F48"/><circle cx="310.901" cy="42.026" r="6.29" stroke="#383F48"/><circle cx="325.48" cy="42.026" r="6.29" stroke="#383F48"/><circle cx="340.059" cy="42.026" r="6.29" stroke="#383F48"/><path fill-rule="evenodd" clip-rule="evenodd" d="M552 117.158c15.741 0 28.5 12.761 28.5 28.499 0 15.74-12.759 28.501-28.5 28.501s-28.5-12.761-28.5-28.501c0-15.738 12.759-28.499 28.5-28.499zm-.068 51.3c12.552 0 22.728-10.173 22.728-22.732 0-12.549-10.176-22.728-22.728-22.728-12.556 0-22.732 10.179-22.732 22.728 0 12.559 10.176 22.732 22.732 22.732zm-4.639-11.877v-21.11c0-1.023 1.291-1.585 2.146-.935l13.224 10.052c.983.75.983 2.138 0 2.887l-13.224 10.041c-.855.649-2.146.088-2.146-.935zM847 248.658c9.389 0 17 7.612 17 16.999 0 9.389-7.611 17.001-17 17.001s-17-7.612-17-17.001c0-9.387 7.611-16.999 17-16.999zm-.041 30.6c7.488 0 13.558-6.068 13.558-13.559 0-7.486-6.07-13.558-13.558-13.558-7.489 0-13.559 6.072-13.559 13.558 0 7.491 6.07 13.559 13.559 13.559zm-2.767-7.085v-12.592c0-.61.77-.945 1.28-.557l7.888 5.996a1.062 1.062 0 0 1 0 1.722l-7.888 5.989c-.51.388-1.28.053-1.28-.558zM847 354.722c9.389 0 17 7.612 17 16.999 0 9.389-7.611 17.001-17 17.001s-17-7.612-17-17.001c0-9.387 7.611-16.999 17-16.999zm-.041 30.6c7.488 0 13.558-6.069 13.558-13.56 0-7.485-6.07-13.557-13.558-13.557-7.489 0-13.559 6.072-13.559 13.557 0 7.491 6.07 13.56 13.559 13.56zm-2.767-7.085v-12.592c0-.61.77-.945 1.28-.558l7.888 5.996a1.062 1.062 0 0 1 0 1.722l-7.888 5.99c-.51.387-1.28.052-1.28-.558z" fill="#fff"/><rect x="179.931" y="39.089" width="19.704" height="5.875" rx="2.938" fill="#383F48"/><path fill="#383F48" d="M203.75 41h16.875v1.75H203.75z"/><circle r="2.758" transform="matrix(1 0 0 -1 40.73 28.006)" fill="#383F48"/><circle r="2.258" transform="matrix(1 0 0 -1 46.654 28.006)" stroke="#383F48"/><circle r="2.258" transform="matrix(1 0 0 -1 52.577 28.006)" stroke="#383F48"/><circle r="2.258" transform="matrix(1 0 0 -1 58.5 28.006)" stroke="#383F48"/><circle r="2.258" transform="matrix(1 0 0 -1 64.423 28.006)" stroke="#383F48"/><circle r="2.258" transform="matrix(1 0 0 -1 70.346 28.006)" stroke="#383F48"/><circle r="2.258" transform="matrix(1 0 0 -1 76.27 28.006)" stroke="#383F48"/><rect width="8.005" height="2.387" rx="1.193" transform="matrix(1 0 0 -1 10 29.137)" fill="#383F48"/><path fill="#383F48" d="M19.677 28.361h6.856v-.711h-6.856z"/><rect x="26.5" y="35.737" width="80.25" height="8.727" rx="1.5" fill="#D0D5D6" stroke="#383F48"/><rect x="26.5" y="46.452" width="80.25" height="8.727" rx="1.5" fill="#D0D5D6" stroke="#383F48"/><rect x="26.5" y="57.294" width="80.25" height="5.727" rx="1.5" stroke="#383F48"/><rect x="26.5" y="65.022" width="80.25" height="5.727" rx="1.5" stroke="#383F48"/><rect x="26.5" y="72.749" width="80.25" height="5.727" rx="1.5" stroke="#383F48"/><rect x="26.5" y="80.476" width="80.25" height="5.727" rx="1.5" stroke="#383F48"/><rect x="26.5" y="88.203" width="80.25" height="5.727" rx="1.5" stroke="#383F48"/><rect x="26.5" y="95.93" width="80.25" height="5.727" rx="1.5" stroke="#383F48"/><rect x="26.5" y="103.657" width="80.25" height="5.727" rx="1.5" stroke="#383F48"/><rect x="26.5" y="111.384" width="80.25" height="5.727" rx="1.5" stroke="#383F48"/><rect x="26.5" y="119.111" width="80.25" height="5.727" rx="1.5" stroke="#383F48"/><rect x="26.5" y="126.838" width="80.25" height="5.727" rx="1.5" stroke="#383F48"/><rect x="26.5" y="134.566" width="80.25" height="5.727" rx="1.5" stroke="#383F48"/><rect x="26.5" y="142.293" width="80.25" height="5.727" rx="1.5" stroke="#383F48"/><rect x="26.5" y="150.02" width="80.25" height="5.727" rx="1.5" stroke="#383F48"/><rect x="26.5" y="157.747" width="80.25" height="5.727" rx="1.5" stroke="#383F48"/><rect x="26.5" y="165.474" width="80.25" height="5.727" rx="1.5" stroke="#383F48"/><rect x="26.5" y="173.201" width="80.25" height="5.727" rx="1.5" stroke="#383F48"/><rect x="26.5" y="180.928" width="80.25" height="5.727" rx="1.5" stroke="#383F48"/><path d="M28 188.655h77.25a1.5 1.5 0 0 1 1.5 1.5v2.345H26.5v-2.345a1.5 1.5 0 0 1 1.5-1.5zM10 35.737h14.375M10 57.362h14.375M10 80.987h14.375M10 96.237h14.375M10 127.112h14.375m-14.375 8h14.375M10 157.987h14.375" stroke="#383F48"/><path fill="#383F48" d="M9.106 9.21h30.538v5.468H9.106zm85.472 0h12.672v5.468H94.578z"/><defs><clipPath id="a"><path fill="#fff" transform="translate(226.069 59.658)" d="M0 0h180v20H0z"/></clipPath><clipPath id="b"><path fill="#fff" transform="translate(226.069 80.658)" d="M0 0h180v20H0z"/></clipPath><clipPath id="c"><path fill="#fff" transform="translate(226.069 101.658)" d="M0 0h180v14H0z"/></clipPath><clipPath id="d"><path fill="#fff" transform="translate(226.069 116.658)" d="M0 0h180v14H0z"/></clipPath><clipPath id="e"><path fill="#fff" transform="translate(226.069 131.658)" d="M0 0h180v14H0z"/></clipPath><clipPath id="f"><path fill="#fff" transform="translate(226.069 146.658)" d="M0 0h180v14H0z"/></clipPath><clipPath id="g"><path fill="#fff" transform="translate(226.069 161.658)" d="M0 0h180v14H0z"/></clipPath><clipPath id="h"><path fill="#fff" transform="translate(226.069 176.658)" d="M0 0h180v14H0z"/></clipPath><clipPath id="i"><path fill="#fff" transform="translate(226.069 191.658)" d="M0 0h180v14H0z"/></clipPath><clipPath id="j"><path fill="#fff" transform="translate(226.069 206.658)" d="M0 0h180v14H0z"/></clipPath><clipPath id="k"><path fill="#fff" transform="translate(226.069 221.658)" d="M0 0h180v14H0z"/></clipPath><clipPath id="l"><path fill="#fff" transform="translate(226.069 236.658)" d="M0 0h180v14H0z"/></clipPath><clipPath id="m"><path fill="#fff" transform="translate(226.069 251.658)" d="M0 0h180v14H0z"/></clipPath><clipPath id="n"><path fill="#fff" transform="translate(226.069 266.658)" d="M0 0h180v14H0z"/></clipPath><clipPath id="o"><path fill="#fff" transform="translate(226 282)" d="M0 0h180v8H0z"/></clipPath><clipPath id="p"><path fill="#fff" transform="translate(803 206)" d="M0 0h135v7H0z"/></clipPath></defs></svg>