<svg width="202" height="186" viewBox="0 0 202 186" fill="none" xmlns="http://www.w3.org/2000/svg"><path d="M157.096 71.802c-2.744-1.147-8.093 1.877-8.979-2.573-.278-1.373 1.563-1.755 1.441-2.485-.225-1.251-6.043.678-6.981-.556-.139-.191 1.059-1.234 1.042-1.773-.035-1.79-2.31-1.408-2.727-2.486-.156-.417-.243-1.147-.278-1.929.851-3.146 1.338-6.691 1.338-10.445 0-9.282-2.935-17.294-7.173-21.014-.59-.747-1.25-1.338-1.997-1.581-.799-.278-8.076-2.364-5.453 1.442.833 1.217 3.16 2.347 4.254 3.685.018.017 3.7 3.076 1.598 3.372-.451.07-3.421-2.99-4.411-3.615-.868-.556-1.111-3.216-2.084-3.528-.677-.226-.834.486-1.528.486-1.303 0-3.456-4.64-4.412-3.441-.347.434.903 2.155 1.129 2.416 3.196 3.493 5.731 6.848 6.582 13.557.452 3.528-1.25-.053-1.684-.887-1.459-2.729-2.657-6.587-4.724-8.586-1.146-1.095-6.982-6.24-9.222-3.528-1.077 1.32 2.067 3.441 2.24 4.171.296 1.165-.521 1.182-.156 2.642.538 2.138 2.814 4.502 3.126 7.63.122 1.2.764 4.658.156 4.815-1.024.26-1.372-3.65-1.354-3.616-1.303-5.353-4.429-8.55-6.496-12.6-1.198-2.347-3.23-7.683-6.252-7.544-1.997.087-2.118.33-.399 1.356 4.95 2.937 3.873 10.776 6.738 15.886.382.678 1.303 1.164 1.529 1.999.416 1.581 2.518 9.09 1.528 9.941-2.449 2.12-2.987-1.981-3.126-3.285-.625-5.614-2.015-12.096-4.325-16.685-1.042-2.05-2.761-3.146-3.925-4.901-.173-.278-2.709-5.475-3.768-3.372-.47.939 2.779 3.25 3.369 4.102 1.407 1.981 3.96 7.178 4.012 9.298.017.73.104 6.275-.486 6.344-1.234.14-1.824-5.249-2.484-6.987-.573-1.495-2.223-3.476-3.282-5.614-.59-1.164-3.856-6.152-4.967-5.944-1.998.383.416 2.016.799 2.33 2.535 1.98 4.15 6.743 3.212 9.472-.955 2.728 1.807 5.805 2.085 8.499.138 1.425-.782 2.572-.8 3.615-.017.59 1.755 6.309-.642 4.658-.452-.313.226-3.65.087-4.502-1.459-8.812-2.935-19.692-10.108-22.23-5.193-1.824 2.084 5.406 2.397 6.814.59 2.572 1.893 4.293 1.928 6.743.052 4.52-1.598-2.555-1.841-3.285-.243-.764-1.494-2.989-1.998-3.684-1.128-1.53-7.728-.852-6.651-4.571.156-.522 2.64-.765 2.397-1.93-.244-1.216-3.196-.173-3.283-.156-2.119.209-5.314-.66-7.537.4-3.404 1.634-10.855 4.692-12.505 20.213-.069.73-1.163 1.095-1.285 1.6-.416 1.946.539 7.543 1.355 8.742 1.111 1.633 2.71-1.547 4.411-.713 1.338.643.487 4.64 1.285 6.414 1.147 2.537 3.734 6.97 6.652 7.386 4.707.66.504-4.119 0-4.727-2.692-3.216-2.727-5.423-3.682-10.759-1.302-7.247-.365-21.1 5.94-23.585 3.3-1.304 5.575 3.041 6.582 4.727 5.61 9.56 6.686 26.819-1.355 34.014-.868.782-.972 2.016-1.528 2.572-.521.504-5.749-.677-6.495-.886-1.233-.348-3.613-1.773-4.082-2.729-1.632-3.25-3.994-3.98-4.724-7.786-.625-3.233-3.438-2.92-3.681.4-.122 1.65 2.153 3.51 1.441 4.97-.52 1.078-2.952.07-3.282 1.443-.191.747.434 1.564.156 1.999-.886 1.477-7.294-1.113-8.093 1.286-.677 2.068 4.411 5.336 5.696 5.77 2.31.8 6.617.504 8.493 1.686.85.539.417 1.93 1.684 2.173 2.345.417 4.1-1.651 6.739-1.443 1.146.087 2.292 1.808 3.439 1.999 3.89.66 8.18-2.433 12.434-1.443.904.209 1.181 1.182 2.24 1.443 2.19.539 5.645-1.304 6.809-.33.608.504.33 1.772 1.042 2.085 1.823.782 5.036-1.199 6.096-1.53 8.492-2.572 21.188-3.18 30.305-5.37 3.231-.782 11.185 1.877 12.435.157.417-.574-.139-1.582.243-2.173 1.355-2.016 7.555.348 8.58-1.686.347-.765-.209-2.016-.799-2.26zm-53.543-.087c-1.025.643.816-.504 0 0zm10.264-11.871c.087-.383.226-.313.642-.4 3.873-.869-1.441 3.754-.642.4zm5.766-23.672c-.712-1.373-4.915-6.814-4.255-7.144 1.563-.782 2.622 1.686 3.126 2.486 1.441 2.294 3.63 5.996 3.925 8.742.434 3.963-2.24-3.007-2.796-4.084zm3.768 17.658c-.399.4.66-.66 0 0zm4.655-8.186c2.761-1.026.886 4.084-.4 2.485-.555-.677.087-2.363.4-2.485zm-90.934 91.978l.903 2.016-8.667.817-.903-2.016 4.481-3.719-5.766.834-.903-2.016 6.391-5.892.938 2.12-4.845 3.928 6.165-.973.851 1.929-4.828 3.963 6.183-.991zm2.048 3.442l1.13 1.842-7.034 4.31-1.129-1.842 7.034-4.31zm2.606 4.136l1.268 1.738-5.158 3.806 2.066 2.816-1.476 1.095-3.352-4.554 6.652-4.901zm8.214 10.706a3.676 3.676 0 0 1 0 2.121c-.208.695-.59 1.32-1.18 1.877-.59.556-1.233.903-1.945 1.06a3.91 3.91 0 0 1-2.137-.139c-.712-.261-1.372-.713-1.98-1.339l-2.379-2.52 6.01-5.648 2.43 2.589c.591.609.99 1.286 1.182 1.999zM45.027 159c.364.104.73.087 1.129-.018a2.77 2.77 0 0 0 1.076-.643 2.71 2.71 0 0 0 .712-1.06c.14-.382.157-.765.07-1.147a2.226 2.226 0 0 0-.573-1.043l-.92-.99-3.457 3.25 1.008 1.06c.277.295.59.487.955.591zm11.131 1.982l1.91 1.355-.833 5.319 4.724-2.572 1.91 1.355-4.741 6.744-1.563-1.112 3.004-4.276-4.255 2.381-1.129-.799.8-4.815-3.005 4.276-1.563-1.113 4.741-6.743zm10.09 6.656l1.893 1.025-3.942 7.248-1.893-1.026 3.942-7.247zm9.431 4.484l1.84.765-3.16 7.613-1.737-.73-1.563-5.997-1.893 4.554-1.858-.765 3.16-7.612 1.755.73 1.563 6.031 1.893-4.589zm9.812 3.563c.556.504.938 1.095 1.129 1.79.191.696.191 1.443 0 2.225a4.364 4.364 0 0 1-1.077 1.947 3.667 3.667 0 0 1-1.893 1.008c-.747.156-1.545.139-2.396-.087l-3.352-.869 2.084-7.978 3.438.904c.834.191 1.529.556 2.067 1.06zm-2.518 5.232c.365-.104.677-.313.938-.626.26-.295.451-.678.573-1.13.122-.452.139-.886.035-1.286-.087-.4-.278-.73-.556-1.008a2.189 2.189 0 0 0-1.042-.573l-1.303-.348-1.198 4.606 1.407.365c.416.104.799.104 1.146 0zm16.03 4.31l-.47-1.495-3.56-.226-.66 1.408-2.205-.139 4.064-7.995 2.206.139 2.917 8.447-2.292-.139zm-3.265-3.32l2.275.139-.938-3.006-1.337 2.867zm13.303 3.06l-1.355-2.19h-.052l-1.545.104.156 2.277-2.154.139-.555-8.238 3.699-.244c1.094-.069 1.945.122 2.588.591.625.47.972 1.147 1.042 2.069.034.625-.053 1.164-.261 1.633-.226.47-.556.835-1.025 1.13l1.893 2.572-2.431.157zm-3.057-3.807l1.563-.104c.435-.035.765-.156.99-.4.226-.243.33-.556.296-.973-.035-.4-.174-.695-.417-.904-.261-.191-.591-.278-1.042-.26l-1.563.104.173 2.537zm6.357-4.797l6.947-1.321.33 1.738-2.432.469 1.216 6.362-2.119.399-1.216-6.361-2.396.452-.33-1.738zm8.84-1.894l2.066-.591 2.275 7.925-2.066.591-2.275-7.925zm9.343-1.217c-.521.035-.938.104-1.25.226-.243.104-.434.226-.539.365a.486.486 0 0 0-.052.486c.07.174.174.279.348.348.173.07.364.104.573.087.208 0 .521-.017.92-.052.591-.052 1.094-.07 1.494-.052.399.017.799.139 1.163.365.365.226.66.591.851 1.095.209.504.243 1.008.104 1.46-.121.469-.399.886-.798 1.251-.4.365-.886.66-1.459.886a6.603 6.603 0 0 1-2.032.418c-.712.017-1.39-.07-1.997-.279l.156-1.877a5.346 5.346 0 0 0 1.702.313c.608.018 1.129-.069 1.528-.226.295-.121.521-.26.643-.434a.594.594 0 0 0 .069-.591.627.627 0 0 0-.364-.365 1.285 1.285 0 0 0-.591-.087c-.226 0-.521.035-.92.069-.591.053-1.077.087-1.477.07a2.493 2.493 0 0 1-1.146-.33c-.365-.209-.642-.556-.833-1.061a2.141 2.141 0 0 1-.105-1.39c.105-.452.365-.869.747-1.251.382-.383.886-.678 1.494-.922a5.901 5.901 0 0 1 1.736-.399c.608-.052 1.164-.035 1.668.069l-.122 1.895a6.19 6.19 0 0 0-1.511-.087zm12.539.921l-1.198-1.008-3.126 1.721.191 1.564-1.945 1.06-.851-8.934 1.945-1.06 6.999 5.562-2.015 1.095zm-4.533-1.043l1.998-1.095-2.397-2.033.399 3.128zm8.51-11.627l1.598-1.199 4.915 6.622-1.511 1.129-5.939-1.72 2.935 3.962-1.616 1.2-4.914-6.622 1.51-1.13 5.975 1.738-2.953-3.98zm16.569-4.45l-1.459-.573-2.397 2.624.695 1.408-1.494 1.634-3.699-8.169 1.494-1.634 8.423 3.007-1.563 1.703zm-4.637.487l1.545-1.686-2.952-1.165 1.407 2.851zm1.111-9.194l1.251-1.756 5.21 3.72 2.032-2.851 1.493 1.06-3.282 4.606-6.704-4.779zm4.359-6.31l3.144-5.701 1.493.835-2.101 3.806 1.354.747 1.893-3.441 1.494.834-1.893 3.442 1.355.747 2.171-3.911 1.493.835-3.213 5.787-7.19-3.98zm7.503-11.193c-.348.4-.573.765-.695 1.078-.104.243-.139.452-.104.643.035.174.139.295.313.382.173.07.33.07.486-.017.156-.087.312-.191.451-.348.139-.156.348-.382.591-.695.365-.469.695-.852.99-1.13a2.572 2.572 0 0 1 1.059-.608c.417-.122.886-.07 1.39.122.503.208.885.521 1.146.938.243.417.365.887.365 1.443a4.607 4.607 0 0 1-.365 1.668 6.452 6.452 0 0 1-1.094 1.756c-.469.539-.99.956-1.563 1.269l-1.251-1.408c.504-.244.955-.591 1.39-1.026.434-.434.729-.869.885-1.268.122-.296.157-.557.122-.765-.035-.209-.174-.365-.382-.452a.607.607 0 0 0-.521.017c-.174.087-.33.209-.469.365-.139.174-.33.4-.573.713-.365.469-.678.834-.973 1.112a2.562 2.562 0 0 1-1.024.609c-.4.121-.851.086-1.355-.122a2.304 2.304 0 0 1-1.094-.887c-.261-.399-.382-.869-.382-1.407 0-.539.121-1.113.364-1.721a6.34 6.34 0 0 1 .903-1.547c.383-.469.782-.869 1.199-1.164l1.285 1.39c-.382.295-.747.66-1.094 1.06z" fill="#383F48"/><path d="M8.503 111.099c0 .991.225 1.217 1.111 1.356l.625.104v.713s-1.771-.087-3.178-.087c-1.598 0-3.056.087-3.056.087v-.713l.486-.104c.799-.157 1.268-.713 1.268-1.825v-10.255H4.317c-1.32 0-2.24.452-2.744 1.86L1 102.131l.243-3.111h.452c.139.26.434.313.816.313h9.535c.364 0 .625-.087.764-.313h.451l-.226 3.198-.573-.105c0-1.147-.816-1.755-2.396-1.755H8.503v10.741zM26.13 99.315s1.772.087 3.178.087c1.58 0 3.04-.087 3.04-.087v.712l-.487.105c-.799.156-1.268.712-1.268 1.824v9.125c0 .991.226 1.217 1.112 1.356l.625.104v.713s-1.771-.087-3.178-.087c-1.58 0-3.04.087-3.04.087v-.713l.47-.087c.799-.156 1.267-.712 1.267-1.825v-3.98h-6.46v4.467c0 .991.226 1.217 1.111 1.356l.626.104v.713s-1.772-.087-3.178-.087c-1.581 0-3.04.087-3.04.087v-.713l.47-.122c.798-.156 1.267-.712 1.267-1.825v-9.124c0-.991-.226-1.217-1.112-1.356l-.625-.104v-.713s1.772.087 3.178.087c1.58 0 3.04-.087 3.04-.087v.713l-.487.104c-.799.156-1.267.713-1.267 1.825v3.459h6.46v-3.946c0-.99-.226-1.216-1.111-1.355l-.626-.105v-.712h.035zm19.834 0v3.267h-.66c-.192-1.408-1.286-2.45-3.37-2.45-.694 0-1.06.052-1.233.121v5.423h1.268c.955 0 1.546-.417 1.72-1.408l.138-.921h.712s-.086 1.303-.086 2.555c0 1.112.086 2.346.086 2.346h-.729l-.122-.504c-.156-.678-.573-1.008-1.458-1.008H40.7v4.415c0 .956.626 1.286 1.615 1.286 1.859 0 2.988-1.321 3.543-2.972l.66.087-.66 3.702s-4.376-.087-6.495-.087c-1.58 0-3.16.087-3.16.087v-.713l.486-.104c.798-.156 1.267-.713 1.267-1.825v-9.125c0-.99-.226-1.216-1.111-1.355l-.625-.105v-.712s1.893.087 3.3.087c2.188 0 6.443-.087 6.443-.087zm16.099 11.784c0 .99.573 1.199 1.58 1.355l.643.105v.712s-2.24-.087-3.665-.087c-1.58 0-3.039.087-3.039.087v-.712l.486-.105c.8-.156 1.268-.712 1.268-1.825v-9.124c0-.991-.225-1.217-1.111-1.356l-.626-.104v-.713s1.894.087 3.3.087c2.171 0 6.426-.087 6.426-.087v3.267h-.66c-.19-1.407-1.285-2.45-3.37-2.45-.694 0-1.058.052-1.232.121v5.614h1.268c.955 0 1.545-.417 1.719-1.407l.139-.922h.712s-.087 1.287-.087 2.555c0 1.113.087 2.347.087 2.347h-.73l-.121-.504c-.156-.678-.573-1.008-1.459-1.008h-1.528v4.154zm23.862-5.127c0 3.91-2.761 7.612-7.884 7.612-3.821 0-6.965-2.589-6.965-6.935 0-3.91 2.762-7.612 7.885-7.612 3.82 0 6.964 2.589 6.964 6.935zm-2.952.625c0-3.945-2.154-6.552-4.88-6.552-2.987 0-4.047 2.694-4.047 5.996 0 3.945 2.154 6.553 4.88 6.553 2.987 0 4.047-2.694 4.047-5.997zm11.15 4.502c0 .99.225 1.216 1.111 1.355l.625.105v.712s-1.771-.087-3.178-.087c-1.58 0-3.04.087-3.04.087v-.712l.487-.105c.8-.156 1.268-.712 1.268-1.825v-9.124c0-.991-.226-1.217-1.112-1.356l-.625-.104v-.713s1.772.087 3.178.087c1.06 0 2.137-.087 2.953-.087 3.37 0 4.897 1.912 4.897 3.58 0 2.677-2.431 3.598-3.3 3.824.609.296 1.095.921 1.512 1.599l1.493 2.433c.695 1.113 1.754 2.034 3.126 2.034v.573s-.642.226-1.893.226c-2.067 0-3.317-1.042-4.116-2.624l-1.372-2.711c-.382-.765-.73-1.148-1.406-1.148-.365 0-.574.139-.574.139v3.842h-.034zm0-4.693s.486-.313 1.233-.313c.59 0 .972.139.972.139.66-.452 1.477-1.634 1.477-3.181 0-1.911-1.425-2.902-2.866-2.902-.4 0-.643.052-.816.121v6.136zm24.8.852v.712l-.261.052c-.781.174-1.198.8-1.198 1.773v3.024c-2.206 0-3.161.765-5.679.765-4.116 0-7.225-2.468-7.225-6.935 0-3.962 2.901-7.612 7.868-7.612 2.066 0 2.917.538 4.915.538v3.72h-.66c-.4-1.877-1.789-3.268-4.464-3.268-2.987 0-4.689 2.399-4.689 5.997 0 3.441 1.719 6.552 5.367 6.552 1.424 0 2.014-.66 2.014-1.547v-1.686c0-.834-.382-1.129-1.424-1.321l-.365-.052v-.712h5.801zm18.409-1.286c0 3.91-2.761 7.612-7.885 7.612-3.82 0-6.964-2.589-6.964-6.935 0-3.91 2.762-7.612 7.885-7.612 3.821 0 6.964 2.589 6.964 6.935zm-2.97.625c0-3.945-2.153-6.552-4.88-6.552-2.987 0-4.046 2.694-4.046 5.996 0 3.945 2.153 6.553 4.88 6.553 2.987 0 4.046-2.694 4.046-5.997zm13.547 4.502c0 .991.225 1.216 1.111 1.356l.608.104v.712s-1.771-.086-3.178-.086c-1.581 0-3.039.086-3.039.086v-.712l.486-.104c.799-.157 1.268-.713 1.268-1.825v-10.255h-1.442c-1.32 0-2.24.452-2.744 1.86l-.573-.105.243-3.11h.452c.139.26.434.312.816.312h9.535c.364 0 .625-.087.764-.313h.451l-.226 3.198-.573-.104c0-1.147-.816-1.755-2.396-1.755h-1.581v10.741h.018zm15.682 0c0 .991.226 1.216 1.112 1.356l.625.104v.712s-1.772-.086-3.178-.086c-1.581 0-3.04.086-3.04.086v-.712l.487-.104c.799-.157 1.267-.713 1.267-1.825v-10.255h-1.441c-1.32 0-2.24.452-2.744 1.86l-.573-.105.243-3.11h.452c.139.26.434.312.816.312h9.534c.365 0 .626-.087.765-.313h.451l-.226 3.198-.573-.104c0-1.147-.816-1.755-2.396-1.755h-1.581v10.741zm18.149-11.784v3.267h-.66c-.191-1.408-1.303-2.45-3.369-2.45-.695 0-1.06.052-1.233.121v5.423h1.267c.956 0 1.546-.417 1.72-1.408l.139-.921h.712s-.087 1.303-.087 2.555c0 1.112.087 2.346.087 2.346h-.73l-.121-.504c-.157-.678-.573-1.008-1.459-1.008h-1.528v4.415c0 .956.625 1.286 1.615 1.286 1.858 0 2.987-1.321 3.543-2.972l.66.087-.66 3.702s-4.377-.087-6.496-.087c-1.58 0-3.161.087-3.161.087v-.713l.487-.087c.799-.156 1.268-.712 1.268-1.825v-9.124c0-.991-.226-1.217-1.112-1.356l-.625-.104v-.713s1.893.087 3.3.087c2.188-.017 6.443-.104 6.443-.104zm19.26 0v.712l-.417.105c-.816.191-1.25.608-1.25 1.964v11.227l-1.008.122-9.534-10.289v7.421c0 1.408.608 1.651 1.789 1.86l.573.104v.713s-1.615-.087-2.762-.087c-1.441 0-2.726.087-2.726.087v-.713l.434-.104c.99-.226 1.337-.713 1.337-1.808v-9.142c0-.904-.26-1.216-1.146-1.355l-.59-.105v-.712s1.945.104 4.15.104c.122.713.434 1.234 1.181 2.033l7.017 7.544v-7.248c0-1.217-.591-1.425-1.65-1.616l-.678-.105v-.712s1.737.087 3.109.087c1.355 0 2.171-.087 2.171-.087zM56.679 138.143v-.712l.486-.105c.8-.156 1.268-.712 1.268-1.825v-9.142c0-.99-.226-1.216-1.111-1.355l-.626-.105v-.712s1.772.087 3.179.087c.833 0 1.719-.087 2.361-.087 2.78 0 4.672 1.251 4.672 3.25 0 2.068-1.789 2.833-2.9 3.146 2.067.313 3.994 1.79 3.994 3.737 0 2.085-1.632 3.806-5.105 3.806-.852 0-1.998-.087-3.179-.087a71.99 71.99 0 0 0-3.039.104zm4.498-7.63s.365-.104.851-.104c.4 0 .556 0 .973.052.712-.556 1.128-1.755 1.128-2.92 0-1.46-.781-2.537-2.153-2.537-.382 0-.643.052-.816.121v5.388h.017zm0 5.649c0 .678.4 1.147 1.372 1.147 1.476 0 2.553-1.095 2.553-2.833 0-2.451-1.876-3.25-3.421-3.25-.226 0-.4.017-.504.035v4.901zm17.367-12.289L82.8 135.64c.4 1.112.99 1.495 1.685 1.668l.4.105v.712s-1.078-.087-2.849-.087c-2.032 0-3.3.087-3.3.087v-.712l.4-.105c.625-.156.972-.521.972-1.095 0-.225-.052-.434-.139-.677l-.85-2.538h-4.394l-.852 2.468a2.963 2.963 0 0 0-.173.869c0 .522.312.817 1.18.956l.591.104v.713s-1.337-.087-2.674-.087c-1.112 0-2.328.087-2.328.087v-.713l.365-.104c.8-.226 1.442-.834 1.806-1.877l4.238-11.367 1.667-.174zm-3.421 8.03h3.63l-1.79-5.231-1.84 5.231zm17.68 4.068c0 .99.225 1.216 1.111 1.355l.608.105v.712s-1.771-.087-3.178-.087c-1.58 0-3.04.087-3.04.087v-.712l.487-.105c.799-.156 1.268-.712 1.268-1.825v-9.142c0-.99-.226-1.216-1.112-1.355l-.625-.105v-.712s1.771.087 3.178.087c1.06 0 2.136-.087 2.953-.087 3.369 0 4.897 1.912 4.897 3.58 0 2.677-2.431 3.598-3.3 3.824.626.295 1.094.921 1.511 1.599l1.494 2.433c.695 1.112 1.754 2.034 3.126 2.034v.573s-.643.226-1.893.226c-2.067 0-3.317-1.043-4.116-2.624L94.8 133.12c-.382-.764-.73-1.147-1.407-1.147-.365 0-.573.139-.573.139v3.859h-.017zm0-4.693s.469-.313 1.233-.313c.59 0 .972.139.972.139.66-.452 1.477-1.634 1.477-3.181 0-1.911-1.425-2.902-2.866-2.902-.4 0-.643.052-.816.122v6.135zm16.29 4.693c0 .99.226 1.216 1.112 1.355l.607.105v.712s-1.771-.087-3.178-.087c-1.58 0-3.039.087-3.039.087v-.712l.486-.105c.799-.156 1.268-.712 1.268-1.825v-9.142c0-.99-.226-1.216-1.111-1.355l-.626-.105v-.712s1.772.087 3.179.087c1.059 0 2.136-.087 2.952-.087 3.369 0 4.897 1.912 4.897 3.58 0 2.677-2.431 3.598-3.299 3.824.625.295 1.094.921 1.511 1.599l1.493 2.433c.695 1.112 1.754 2.034 3.126 2.034v.573s-.642.226-1.893.226c-2.066 0-3.317-1.043-4.116-2.624l-1.372-2.712c-.382-.764-.729-1.147-1.406-1.147-.365 0-.574.139-.574.139v3.859h-.017zm0-4.693s.486-.313 1.233-.313c.591 0 .973.139.973.139.66-.452 1.476-1.634 1.476-3.181 0-1.911-1.424-2.902-2.866-2.902-.399 0-.642.052-.816.122v6.135zm21.553-7.091v3.267h-.66c-.191-1.408-1.285-2.45-3.369-2.45-.695 0-1.06.052-1.234.121v5.423h1.268c.955 0 1.546-.417 1.72-1.408l.139-.921h.712s-.087 1.303-.087 2.555c0 1.112.087 2.346.087 2.346h-.73l-.121-.504c-.157-.678-.574-1.008-1.459-1.008h-1.529v4.415c0 .956.608 1.286 1.616 1.286 1.858 0 2.987-1.321 3.542-2.972l.66.087-.66 3.702s-4.376-.087-6.495-.087c-1.58 0-3.161.087-3.161.087v-.713l.487-.104c.799-.156 1.267-.713 1.267-1.825v-9.125c0-.99-.225-1.216-1.111-1.355l-.625-.105v-.712s1.893.087 3.299.087c2.189 0 6.444-.087 6.444-.087zm4.237 13.956v-.712l.487-.105c.798-.156 1.267-.712 1.267-1.825v-9.142c0-.99-.225-1.216-1.111-1.355l-.625-.105v-.712s1.771.087 3.178.087c1.58 0 3.126-.087 3.126-.087v.712l-.521.105c-.799.156-1.32.712-1.32 1.824v9.125c0 1.147.834 1.356 1.771 1.356 1.893 0 3.057-1.53 3.7-3.337l.625.087-.452 4.084s-4.932-.087-7.085-.087c-1.581 0-3.04.087-3.04.087z" fill="#383F48" stroke="#383F48" stroke-width=".5" stroke-miterlimit="10"/><path d="M81.618 151.058h-.52a4.69 4.69 0 0 0 .069-.626c0-1.043-.8-1.86-2.293-1.86-1.285 0-2.084.869-2.084 1.912 0 2.677 3.873 3.007 3.873 6.779 0 1.894-1.441 3.823-4.376 3.823-1.32 0-2.05-.538-3.318-.538l.539-2.955h.451v.295c0 1.773.92 2.486 2.501 2.486 1.667 0 2.762-.974 2.762-2.277 0-2.85-3.873-3.511-3.873-6.883 0-1.807 1.424-3.337 3.82-3.337 1.32 0 2.05.383 3.3.383l-.85 2.798zm1.39 7.49c0-2.676 2.153-6.205 4.932-6.205 1.285 0 2.119.921 2.119 2.538 0 2.676-2.154 6.187-4.95 6.187-1.268 0-2.101-.921-2.101-2.52zm5.557-3.493c0-1.321-.382-2.034-1.146-2.034-1.65 0-2.953 3.285-2.953 5.319 0 1.32.383 2.05 1.147 2.05 1.65.018 2.952-3.284 2.952-5.335zm8.788-1.095c0-.452-.295-.748-.92-.748-2.102 0-3.353 3.303-3.353 5.475 0 .887.435 1.356 1.164 1.356 1.146 0 2.136-.904 2.727-1.738l.278.191c-.487.991-1.58 2.572-3.37 2.572-1.563 0-2.275-.747-2.275-2.19 0-2.954 2.536-6.535 5.749-6.535.625 0 1.32.278 1.32.991 0 .695-.573 1.164-1.181 1.164-.087 0-.191-.017-.26-.034a1.31 1.31 0 0 0 .12-.504zm4.481 3.963c-.33.869-.487 1.407-.487 1.703 0 .174.07.261.243.261.452 0 1.737-1.217 2.119-1.756l.278.174c-.573 1.06-2.136 2.763-3.387 2.763-.434 0-.694-.156-.694-.695 0-.504.104-1.043.451-1.999l1.32-3.719c.052-.139.122-.365.122-.574 0-.417-.4-.504-1.164-.504v-.399s1.754-.07 3.335-.835l-2.136 5.58zm1.493-8.969c0-.521.434-1.112 1.025-1.112.451 0 .764.33.764.782 0 .521-.434 1.112-1.025 1.112-.451 0-.764-.33-.764-.782zm4.186 7.943c-.174.608-.278 1.147-.278 1.773 0 .678.312 1.356 1.25 1.356 1.146 0 2.275-1.113 2.709-1.739l.278.192c-.26.452-1.511 2.572-3.508 2.572-1.441 0-2.205-.817-2.205-2.19 0-2.59 2.101-6.535 5.47-6.535 1.025 0 1.39.66 1.39 1.251 0 1.426-1.72 2.434-5.106 3.32zm3.091-3.824c-1.511 0-2.57 2.277-2.952 3.355 1.233-.365 3.56-1.147 3.56-2.694 0-.435-.226-.661-.608-.661zm7.398-.487h2.293l-.33.8h-2.241l-1.215 3.302c-.521 1.408-.799 2.26-.799 2.677 0 .26.139.347.312.347.626 0 1.616-1.181 2.189-2.033l.312.174c-.538 1.042-2.032 3.215-3.352 3.215-.607 0-.937-.4-.937-1.13 0-.399.069-.903.295-1.529l1.771-5.093-.972-.017.052-.521 1.216-.261.468-1.286c.261-.73.695-1.026 1.286-1.026.278 0 .538.122.608.191-.417.435-.956 2.19-.956 2.19zm.765 12.601c-.73 0-1.181-.382-1.181-.955 0-.557.399-.887.816-.991.104.365.382.573.955.573 1.858 0 3.612-1.286 4.012-2.12.087-.191.104-.8.104-1.564 0-2.294-.382-5.579-.434-6.17-.018-.261-.052-.417-.226-.417-.677 0-1.25 1.668-1.268 1.72l-.295-.035c.104-.712.851-2.885 2.414-2.885.643 0 .729.539.764 1.13.087 1.599.191 4.293.191 7.265 1.563-1.477 3.178-4.38 3.178-6.135 0-.556-.243-1.078-.798-1.182.104-.661.573-1.043 1.128-1.043.73 0 1.164.539 1.164 1.251.017 3.251-6.374 11.558-10.524 11.558z" fill="#DD4A29" stroke="#DD4A29" stroke-width=".75" stroke-miterlimit="10"/><path fill-rule="evenodd" clip-rule="evenodd" d="M121.458 4.87c-.138.364-.607.225-.798.225-.903 0-1.876-.33-2.866-.226-.313.035-.677.191-1.025.296-.347.104-.694.208-1.024.295-1.841.522-2.744 1.286-4.255 2.277-.209.14-.452.452-.799.435-.486 0-1.094-.574-1.181-1.095-.052-.348.104-.765.226-1.252.052-.174.312-1.06.139-1.182-.261-.19-.765.348-1.025.591a13.37 13.37 0 0 0-.886.887c-.052.07-.087.156-.139.226-.121.121-.382.677-.521.956-.191.4-.382.955-.59 1.477-.122.313-.295.573-.434.886-.33.713-.417 1.13-.886 1.843-.347.521-.973 1.234-1.685 1.025-.295-.087-.555-.539-.59-1.025-.035-.383.173-1.043.295-1.617.087-.469.174-.817.278-1.199.121-.417.313-.73.59-1.095.052-.07.174-.087.226-.14.052-.051.018-.155.07-.225.069-.104.225-.191.295-.295.226-.383.434-1.026.66-1.547.26-.609.677-1.46.365-1.686-.278-.209-.678.434-.886.66-.382.435-.469.487-.886 1.026-.017.017-.139.052-.139.07-.191.434-.677.99-.955 1.39-.33.469-.816 1.147-1.181 1.842-.191.365-.347.73-.521 1.025-.191.365-.417.713-.521.956-.104.278-.139.643-.226.956-.087.33-.26.643-.295.887-.07.556.052 1.112-.139 1.39-.226.33-1.823.678-2.206.365-.503-.417.157-2.52.365-3.233.052-.19.104-.365.139-.521.226-.8.677-1.512 1.025-2.277.208-.452.416-.938.59-1.39.191-.504.278-.626.591-1.095.139-.209 1.094-1.617.816-1.912-.122-.122-.295-.104-.591.156-.104.087-.312.435-.364.522-.104.173-.157.365-.296.59-.034.053-.069.157-.156.296-.017.035-.139.052-.139.07a7.85 7.85 0 0 1-.66 1.181c-.052.087-.173.14-.226.226-.138.209-.295.557-.434.817-.208.348-.451.643-.642.991-.14.278-.226.574-.365.956-.139.365-.33 1.043-.434 1.616-.087.47-.104.956-.226 1.478-.174.747-.868 2.277-1.546 2.798-.052.052-.225.07-.364.139-.348.174-.834.504-1.39.504-.555.017-1.32-.243-1.615-.504-.26-.226-.66-1.095-.73-1.686-.103-.817.227-2.52-.52-2.711-.278-.07-.487.19-.73.295-.243.087-.538.244-.816.226-.26-.017-.434-.243-.66-.434-.417-.383-.556-.66-.66-1.478-.035-.313-.104-.643-.07-.956.053-.382.313-.764.522-1.251.087-.191.139-.435.225-.66.278-.817.747-2.33.66-3.529-.034-.626-.277-1.356-1.024-1.477-.851-.122-1.511.486-1.98 1.182-.087.139-.174.33-.295.521-.122.174-.209.26-.365.435-.122.121-.573.764-.955.59-.417-.19 0-1.407.226-1.755.104-.156.312-.295.52-.521.14-.157.261-.365.435-.522.121-.104.33-.173.52-.295.296-.209.591-.452.956-.66.868-.487 1.806.121 2.414.73.191.19.434.347.521.59.313.87.382 1.964.295 2.938-.104 1.199-.85 2.38-.66 3.597.382.122.382-.243.504-.434.087-.122.174-.104.226-.226.052-.122.017-.243.07-.365.19-.4.433-.8.66-1.182.468-.8 1.006-2.19 2.413-1.912.521.104.712.539.66 1.39-.035.644-.347 1.287-.59 1.913-.26.677-.434 1.877-.365 2.867.07 1.06.382 1.912 1.094.66.365-.642.677-1.79 1.025-2.641.486-1.165 1.146-2.277 1.684-3.163.278-.452.643-.956 1.025-1.478.747-1.025 1.129-1.894 1.98-2.867.556-.626 1.059-1.27 1.91-1.39.886-.123 1.285.33 1.685.799.243.295.434.747.886.816.555.087.972-.4 1.458-.52.244-.053.938-.123 1.251-.001.295.104.538.487.66.73.035.052.156.295.226.521.052.157.034.452.156.522.26.139.642-.209.799-.296.625-.33.851-.504 1.615-.226.469.174.625.296.799.73.087.226.191.54.139 1.026-.018.174-.487 1.477-.226 1.686.382.295 1.667-.87 1.841-.956.608-.296 1.528-.452 2.501-.591 1.441-.209 3.039-.243 4.324.07.452.138.903.26 1.198.538z" fill="#DD4A29"/><path d="M27.693 48.65h4.498v1.183h-3.004v1.06h2.727v1.182l-2.727.017v1.078h3.091v1.182h-4.585V48.65zm9.431 1.27c-.348-.122-.626-.174-.869-.174-.19 0-.33.035-.434.104a.342.342 0 0 0-.156.295c0 .122.052.226.139.313a.974.974 0 0 0 .347.209c.14.052.33.122.608.191.4.122.73.226.973.348.26.121.486.295.66.521.19.244.277.539.277.921 0 .383-.104.713-.295.974-.208.26-.469.469-.833.608a3.22 3.22 0 0 1-1.164.209c-.469 0-.938-.087-1.407-.244a4.322 4.322 0 0 1-1.215-.678l.573-1.164c.295.26.625.47 1.024.625.4.157.747.244 1.042.244.226 0 .4-.035.521-.122a.41.41 0 0 0 .191-.365.475.475 0 0 0-.139-.33.917.917 0 0 0-.364-.209 6.669 6.669 0 0 0-.608-.19 7.805 7.805 0 0 1-.973-.331c-.26-.104-.469-.278-.66-.504-.173-.226-.278-.521-.278-.904 0-.347.087-.66.278-.921.191-.26.452-.47.8-.608.347-.14.746-.209 1.198-.209a4.1 4.1 0 0 1 1.215.174c.4.122.747.278 1.06.47l-.556 1.181a4.819 4.819 0 0 0-.955-.434zm2.779-1.27H44.8v1.235h-1.702v4.484h-1.494v-4.484H39.92V48.65h-.017zm11.271 2.017c.243.243.364.556.364.938 0 .383-.121.696-.364.939a1.256 1.256 0 0 1-.92.365c-.365 0-.678-.122-.921-.365s-.365-.556-.365-.938c0-.383.122-.696.365-.94.243-.242.538-.364.92-.364s.678.122.92.365zm105.297 2.486v1.199h-4.342l-.018-.99 2.067-2.139c.156-.173.295-.33.4-.504.104-.174.156-.313.156-.434 0-.157-.052-.278-.174-.365-.121-.087-.278-.122-.486-.122-.226 0-.486.07-.764.191a3.3 3.3 0 0 0-.816.54l-.574-1.096c.782-.574 1.581-.852 2.362-.852.382 0 .73.07 1.025.192.295.121.538.295.712.521.174.226.261.487.261.782 0 .296-.087.591-.296.904-.191.313-.469.643-.816.99l-1.164 1.165h2.467v.018zm5.991-3.807c.434.504.66 1.217.66 2.155 0 .939-.226 1.652-.66 2.156-.434.504-1.059.747-1.875.747-.817 0-1.442-.26-1.893-.748-.435-.503-.66-1.216-.66-2.155 0-.938.225-1.65.66-2.155.434-.504 1.059-.747 1.893-.747.816 0 1.441.243 1.875.747zm-2.64.782c-.156.278-.243.73-.243 1.373s.07 1.095.243 1.373c.157.279.417.417.782.417.347 0 .608-.138.764-.417.156-.278.243-.747.243-1.373 0-.643-.087-1.095-.243-1.373s-.417-.417-.764-.417c-.365 0-.625.14-.782.417zm4.464-1.477h2.587v5.718h-1.493v-4.484h-1.094v-1.234zm4.498 0h4.55v1.043l-2.153 4.675H169.6l2.067-4.519h-1.581l-.017.8h-1.302v-2h.017z" fill="#383F48"/></svg>