<svg width="217" height="201" viewBox="0 0 217 201" fill="none" xmlns="http://www.w3.org/2000/svg"><path d="M115.731 93.722l-4.802 3.495 1.849 5.666-4.812-3.496-4.822 3.496 1.848-5.666-4.791-3.495h5.927l1.848-5.646 1.838 5.646h5.917zm-21.417 26.037h5.294v4.048h-5.304v7.634h-4.831V111.07h10.838v4.048h-6.007v4.641h.01zm16.565 2.531v9.141h-4.852V111.06h4.862v11.23h-.01zm16.585 3.767c0 3.395-2.873 5.696-6.841 5.696-1.406 0-3.084-.231-4.079-.703.031-1.517.051-2.04.131-4.31h.05c.342.181.683.312 1.045.442.623.211 1.386.342 2.3.342 1.256 0 2.17-.573 2.17-1.748 0-.703-.492-1.356-1.336-2.039a24.774 24.774 0 0 1-2.039-1.829c-1.125-1.125-2.3-2.712-2.3-4.962 0-3.054 2.039-6.007 7.001-6.007.944 0 2.17.131 2.903.362-.05 1.597-.08 2.039-.13 4.279h-.051a9.448 9.448 0 0 0-1.014-.311 5.575 5.575 0 0 0-1.256-.131c-1.386 0-2.381.653-2.381 1.778 0 .683.292 1.095.734 1.597.442.492 1.336 1.206 2.431 2.22 1.617 1.517 2.662 3.004 2.662 5.304v.02zM73.43 151.723h-.33c-2.471-4.752-2.742-5.405-2.973-6.048h-.01c-.231.653-.523 1.306-3.014 6.048h-.332l-1.928-6.299c-1.045-3.385-1.206-3.917-1.236-4.058v-.03h2.481v.03c.04.141.252.663.955 3.054.19.663.341 1.215.472 1.738h.04c.231-.553.552-1.226.874-1.839.753-1.446 1.316-2.4 1.607-2.913h.342c.27.492.793 1.386 1.687 2.994.231.432.573 1.165.814 1.728h.04c.13-.573.221-.945.392-1.558.703-2.571.944-3.073.984-3.204v-.03h2.28v.03c-.04.171-.201.683-1.216 4.048l-1.928 6.309zm15.44-5.344c0 3.003-2.26 5.303-5.344 5.303-3.034 0-5.354-2.3-5.354-5.233s2.34-5.234 5.444-5.234c3.054 0 5.254 2.23 5.254 5.164zm-2.471.04c0-1.668-1.186-2.994-2.833-2.994-1.708 0-2.923 1.276-2.923 3.014 0 1.697 1.185 3.013 2.923 3.013 1.728 0 2.833-1.336 2.833-3.033zm5.103-.774v-4.279c.22-.03.582-.05.924-.06.291-.01.914-.03 1.266-.03.833 0 1.486.08 2.079.231.874.231 2.08.984 2.08 2.863 0 1.125-.533 1.928-.945 2.26-.23.211-.512.402-.683.472v.04c.09.131.261.402 2.19 3.255.271.401.683.994.743 1.095v.03h-2.712c-.733-1.176-1.597-2.572-2.43-3.918h-.232v3.928h-2.28v-5.887zm4.008-1.085c0-.793-.482-1.265-1.266-1.265-.22 0-.341.01-.462.03v2.602c.09.01.221.01.342.01.341 0 .642-.101.864-.262.23-.16.522-.532.522-1.094v-.021zm5.705 1.085v-4.309h2.421v8.086c0 .051 0 .061.051.061h2.963v2.039h-5.435v-5.877zm16.354.593c0 1.949-.834 3.476-2.31 4.44-.904.603-2.1.884-3.456.884-.653 0-1.276-.01-1.697-.03-.272-.01-.663-.04-.945-.061v-10.075c.261-.03.583-.06 1.186-.09a32.36 32.36 0 0 1 1.607-.04c1.557 0 2.692.311 3.536.833 1.577.985 2.079 2.642 2.079 4.129v.01zm-2.511.05c0-.924-.312-1.758-.965-2.28-.462-.352-1.074-.563-1.858-.563-.251 0-.492.031-.663.041v5.826c0 .03.01.03.03.03.191.03.402.04.603.04.583 0 1.165-.171 1.647-.512.704-.513 1.216-1.346 1.216-2.562v-.02h-.01zm8.438.101c0-2.873 2.119-5.184 6.037-5.184.341 0 .562.01.844.04.261.031.562.061.773.121-.03.653-.04 1.205-.08 2.17h-.04a4.883 4.883 0 0 0-.523-.101 6.409 6.409 0 0 0-.924-.06c-2.139 0-3.486 1.216-3.486 3.044 0 1.858 1.226 3.104 3.225 3.104.432 0 .773 0 1.135-.061.201-.03.382-.06.603-.13h.03c.01.422.06 1.667.08 2.119a8.674 8.674 0 0 1-.823.171c-.513.06-.814.081-1.236.081-3.214 0-5.605-2.05-5.605-5.274v-.04h-.01zm10.326-.744v-4.309h2.461v5.434c0 .904.071 1.477.292 1.879.301.532.944.824 1.627.824s1.246-.292 1.557-.784c.261-.422.321-1.035.321-1.919v-5.434h2.391v5.434c0 1.256-.09 2.06-.422 2.793-.492 1.105-1.878 2.16-3.797 2.16-1.999 0-3.445-.844-4.058-2.23-.311-.693-.382-1.487-.382-2.692v-1.156h.01zm11.683 0v-4.279c.341-.04 1.125-.08 1.707-.08.402 0 .945.01 1.427.06.562.06 1.215.221 1.778.532.904.513 1.647 1.427 1.647 2.873a3.71 3.71 0 0 1-.432 1.778 3.28 3.28 0 0 1-1.295 1.276 4.634 4.634 0 0 1-1.136.402 8.4 8.4 0 0 1-1.406.161v3.144h-2.28v-5.867h-.01zm4.219-.864c0-.492-.231-.914-.603-1.165a1.68 1.68 0 0 0-.944-.261c-.101 0-.231 0-.392.01v2.973c.06 0 .311 0 .422-.01.352-.03.683-.13.914-.291.171-.12.342-.291.442-.512.1-.221.161-.462.161-.744zm-63.807 16.977h2.641v2.029h-2.651v3.807h-2.411v-10.186h5.424v2.029h-3.013v2.321h.01zm8.277 1.265v4.571h-2.431v-10.186h2.431v5.615zm12.024 4.702h-.311c-2.13-1.788-3.406-2.903-4.28-3.697a35.746 35.746 0 0 1-1.968-1.878h-.03c.03.532.03.874.03 1.205v4.249h-2.241v-10.276h.312c2.22 1.878 3.526 3.003 4.4 3.827.582.553 1.175 1.095 1.838 1.778h.03c-.01-.663-.01-1.055-.01-1.466v-4.049h2.25v10.307h-.02zm5.173-1.587c-.311.753-.552 1.336-.582 1.426v.04h-2.482v-.04c.041-.09.302-.663 2.03-4.54l2.561-5.787h.342l2.531 5.787 1.989 4.54v.04h-2.722v-.04c-.03-.09-.261-.663-.563-1.426h-3.104zm2.391-1.939v-.03c-.522-1.316-.713-1.919-.814-2.26h-.01c-.09.341-.301.944-.833 2.26v.03h1.657zm6.218-2.481v-4.31h2.421v8.087c0 .05 0 .06.05.06h2.963v2.039H120v-5.876zm13.019 3.184c0 1.698-1.437 2.843-3.426 2.843-.703 0-1.537-.121-2.039-.352.01-.753.03-1.014.07-2.16h.03c.171.091.342.161.523.221a3.7 3.7 0 0 0 1.145.171c.623 0 1.085-.291 1.085-.874 0-.351-.251-.683-.663-1.014a14.85 14.85 0 0 1-1.015-.914c-.562-.563-1.145-1.357-1.145-2.482 0-1.526 1.015-3.003 3.496-3.003.472 0 1.085.06 1.446.181-.03.793-.04 1.014-.06 2.139h-.03a4.523 4.523 0 0 0-.512-.16 2.796 2.796 0 0 0-.623-.061c-.693 0-1.185.332-1.185.884 0 .342.14.553.361.794.221.251.663.603 1.216 1.105.813.753 1.336 1.507 1.336 2.652v.03h-.01zm-65.837-46.73c1.567 0 2.411.914 2.411 2.099 0 1.125-.572 1.989-1.185 2.732-.251.322-.633.684-.934.945h2.42v1.406h-4.912v-.984c.292-.242.925-.814 1.407-1.316.341-.352.603-.673.884-1.045.291-.402.502-.894.502-1.326 0-.663-.492-.964-1.075-.964-.452 0-.773.08-1.095.201-.13.04-.281.11-.382.17h-.02c0-.241-.02-1.054-.04-1.537.643-.271 1.346-.381 2.02-.381zm8.77.04c1.617 0 2.792 1.537 2.792 3.566 0 1.999-1.054 3.666-2.812 3.666-1.849 0-2.903-1.697-2.903-3.636 0-2.049 1.125-3.596 2.923-3.596zm-.03 5.776c.864 0 1.105-1.266 1.105-2.22 0-.894-.272-2.13-1.115-2.13-.884 0-1.136 1.206-1.136 2.17-.01.874.212 2.18 1.146 2.18zm67.363-1.798v3.164h-1.668v-5.304c0-.11.02-.12-.04-.1-.181.05-.854.301-1.205.412l-.302-.834c.663-.271 2.09-.995 2.562-1.226h.663v3.888h-.01zm3.757-2.441h-.995v-1.447h4.963c-.01.04.01.523 0 .553-1.266 2.611-2.351 4.862-3.094 6.499h-1.678c1.035-2.099 1.607-3.305 2.722-5.605h-1.918z" fill="#000"/><path d="M216.113 84.129c0 .351-2.04.451-3.245.482-.191 1.064-.633 1.828-1.115 1.798-.472-.03-.814-.814-.884-1.849l-43.476-2.531c-.03.522-.1.984-.261 1.306-.613 1.215-3.445 3.235-5.163 3.646-1.718.412-3.747.503-5.063-1.818-1.316-2.33-2.632-6.178-2.129-7.895.502-1.718 2.23-8.71 2.23-8.71s-1.306-2.842-1.306-3.254c0-.402 1.316-1.316 1.717-1.316.402 0 .503-6.178-.502-7.996-1.014-1.818-4.761-7.393-5.766-9.01-1.014-1.618-2.732-4.662-3.546-4.963-.813-.301-2.23 1.014-2.23 1.014s-2.833 4.963-3.244 5.867c-.402.914-1.216 3.446-2.03 6.278-.813 2.833-3.545 10.728-5.976 13.36-2.431 2.632-7.996 7.283-18.725 2.934 0 0-3.445 2.15-6.72 4.38.352.682.904 1.727 1.075 1.948.251.332.171.964-.382 1.175-.542.211-2.511 1.216-3.094 1.387-.582.17-.884-.462-.964-.673a37.45 37.45 0 0 0-.553-1.055c-3.556 2.531-7.855 4.31-9.402 4.892-1.617.603-4.761.703-4.761.703s-3.446.603-4.35 2.03c-.914 1.415-2.732 4.349-4.35 4.961-1.617.603-2.732.814-2.732.814l-2.33.814s.603 1.717.2 3.546c-.401 1.818-1.717 2.33-2.631 3.033-.914.714-2.431.814-3.647-1.215-1.215-2.02-2.832-3.747-3.345-5.967-.502-2.23.1-3.345.1-3.345l2.432-1.517s.813-2.632 1.316-2.632c.502 0 2.33-.914 2.833-1.115.502-.2 4.56-3.033 5.062-3.646.502-.603 1.316-1.919 1.818-1.919.503 0 3.135-1.316 3.135-1.316l1.818-2.029s-6.379 2.13-11.844 4.048c-5.464 1.93-13.872 6.68-15.59 7.796-1.718 1.115-4.66 1.115-5.665 1.115-1.015 0-2.13.502-2.13.502s-4.862 2.13-5.665 2.13c-.814 0-2.431 2.129-4.149 2.43-1.718.302-3.134 0-3.134 0s-4.862 1.718-7.293 3.546c-2.43 1.818-4.35 3.456-5.063 3.596-.713.141-1.516 1.467-2.732-.562l-2.632-9.714c.603-.402 2.833.302 5.666-.502 2.832-.814 10.326-3.446 10.326-3.446s3.345-4.761 6.278-5.766c2.934-1.014 7.695-2.33 7.695-2.33s.1-1.818 1.015-1.818h1.416s5.756-4.772 11.894-7.243a77.817 77.817 0 0 1-.874-1.396c-.252-.422-.583-1.175.17-1.627.754-.463 1.97-1.085 2.431-1.387.462-.291.713-.17 1.005.292.22.341 1.075 1.788 1.506 2.511 6.831-2.521 16.264-5.826 16.264-5.826s2.531-1.617 3.646-3.134c1.115-1.517 6.58-6.58 8.81-7.896 2.23-1.316 15.389-10.126 15.389-10.126s1.818-2.43 1.929-3.033c.1-.603.402-6.078.402-6.078s-.503-.803-1.216-.803-2.13.914-2.13.914 1.216 1.416 1.216 2.732c0 1.316-.613 4.963-3.847 5.666-3.235.713-6.68 1.115-6.68 1.115s-3.134.914-4.762.713c-1.406-.17-6.61-1.798-8.096-3.807L67.885 40.12l-22.54 2.793-22.542 2.793-11.251 1.366-5.635.693-.744.09c-.01 1.005-.311 1.778-.783 1.839-.482.06-.975-.623-1.226-1.608-.964.08-1.938.12-2.913.06-.15-.01-.261-.13-.251-.27a.26.26 0 0 1 .18-.232c.925-.311 1.87-.512 2.813-.673-.05-1.125.272-2.029.784-2.09.512-.06 1.045.714 1.276 1.799l.713-.09 5.625-.734 11.261-1.466 22.521-2.934 22.522-2.933 21.416-2.692c.16-2.32 2.441-4.992 4.129-5.836 1.818-.914 6.368-3.446 8.096-4.45 1.718-1.015 7.695-6.379 10.527-7.293 2.833-.914 7.183-1.416 7.183-1.416s.402.08 1.075.21l-.262-6.479c0-5.826 4.732-10.537 10.578-10.537 5.846 0 10.578 4.721 10.578 10.537 0 6.108-1.125 10.277-1.125 10.277.341.06.622.12.823.15 2.833.503 6.178 1.929 7.996 3.546 1.818 1.618 7.082 7.695 8.498 10.729 1.417 3.033 5.164 9.512 6.58 13.159 1.416 3.646 3.134 7.393 0 20.04 0 0 1.015.713 1.015 1.416v1.517s1.416-.1 1.416 2.733c0 2.832.914 4.56.914 4.56s.151.834.221 1.828l43.606 2.542c.201-1.005.633-1.718 1.095-1.688.472.03.824.824.884 1.878 1.186.161 3.175.523 3.175.874zm-85.264-63.416c1.416 0 2.129 1.969 3.415 1.969 1.296 0 4.762-2.632 4.762-4.35 0-1.717.03-3.184-1.648-3.184-1.667 0-4.48.553-6.529.553-2.049 0-4.862-.553-6.53-.553-1.667 0-1.647 1.467-1.647 3.184 0 1.718 3.466 4.35 4.761 4.35 1.286.01 1.999-1.969 3.416-1.969zm-11.482 1.055c-.251.974-.562 2.2-.773 3.003-.402 1.517-1.768 3.546-2.13 4.812-.351 1.266-.402 4.099-.452 5.113-.05 1.015-.351 2.682-.914 3.596-.553.914-1.266 2.431-1.416 3.596-.151 1.166.502 2.13 1.416 3.597.914 1.466 5.716 6.177 10.628 8.297 4.912 2.13 10.879-.452 12.506-1.467 1.617-1.014 3.847-6.63 4.762-8.398.532-1.044 1.426-2.119 2.059-2.832.442-.492.351-.603-.271-.613a2.74 2.74 0 0 1-.985-.2c-1.115-.453-1.014-3.185 0-7.143.784-3.054 2.421-6.077 3.114-7.293.201-.351.191-.723-.06-.974a7.955 7.955 0 0 0-1.276-1.045c-.633-.412-1.487-.743-2.029-.934-.332-.12-.663.04-.854.412-.763 1.476-2.732 5.273-3.134 6.288-.502 1.266-1.718 3.395-4.299 5.264-2.582 1.868-3.034.552-7.544-2.08-3.476-2.029-6.309-8.387-7.434-11.19-.341-.844-.693-.693-.914.19zM87.403 79.327c1.849-1.055 7.665-4.45 11.713-7.042 4.661-2.983 15.791-12.295 16.354-12.858.552-.552.864-.864.552-1.466-.301-.603-.151-.502-1.065-1.366-.914-.864-2.029.2-3.646 1.366-1.617 1.165-10.427 8.046-14.927 10.98-4.5 2.932-6.48 4.098-7.594 4.71-1.115.603-2.482 2.733-2.733 3.597-.2.672.13 1.597.553 2.069.11.13.512.17.793.01zm10.749-40.774c2.149.221 2.963-.15 5.464-.753 2.502-.613 4.782-1.065 6.228-1.597 1.447-.533 1.979-1.447 1.668-2.582-.302-1.135-1.095-4.932-7.062-4.63-3.516.18-5.696 1.134-7.363 2.812-1.668 1.668-2.13 3.184-1.668 4.4.453 1.215 1.588 2.24 2.733 2.35zM55.73 84.882c.422.21 1.677.502 2.682 0 1.004-.502 9.422-4.772 12.135-6.027 2.722-1.256 14.314-5.143 16.283-5.565 1.969-.422 1.677-2.391 1.677-3.396 0-1.004-.381-1.004-1.838-.622-1.467.381-11.09 3.053-17.077 5.313-5.987 2.26-12.386 5.897-14.525 7.203-1.718 1.045.24 2.883.663 3.094zm20.362 107.694c-.351.362-.622.633-.673.674l-.01.02-.683-.282-.733-.301.01-.02c.04-.04.332-.312 2.22-2.11l2.813-2.692.19.081.08 3.887c.061 2.602.061 2.994.061 3.054l-.01.02-.713-.291-.834-.342.01-.02c.01-.06.01-.442.01-.944l-1.738-.734zm1.819-.542l.01-.02c.01-.874.04-1.256.07-1.477h-.01c-.13.171-.392.462-1.005 1.085l-.01.01.945.402zm8.569 3.405c-.302 1.005-1.357 1.427-2.522 1.075-.412-.12-.884-.341-1.135-.572.14-.442.19-.593.422-1.256h.02c.08.08.17.151.27.221.172.12.383.221.644.301.371.111.693.02.793-.321.06-.211-.03-.442-.21-.713-.181-.262-.322-.513-.442-.724-.232-.432-.432-1.004-.242-1.667.272-.904 1.135-1.587 2.592-1.145.281.08.623.231.824.361-.161.462-.201.593-.422 1.246h-.02c-.07-.05-.181-.131-.272-.181-.1-.06-.21-.11-.361-.151-.412-.12-.754-.02-.854.312-.06.201-.01.351.07.532.08.181.282.472.523.874.341.593.522 1.115.321 1.808zm4.258-.954l.513-2.561v-.02c.21.02.683.09 1.044.16.241.05.563.121.854.211.332.111.703.281 1.005.533.482.411.823 1.054.653 1.928-.08.422-.261.764-.472 1.025a1.934 1.934 0 0 1-.935.613c-.23.07-.482.1-.733.11a5.15 5.15 0 0 1-.874-.07l-.05.231-.332 1.647v.02l-.743-.15-.643-.131v-.02l.543-2.742.17-.784zm2.642-.01a.842.842 0 0 0-.22-.773 1.041 1.041 0 0 0-.533-.272c-.06-.01-.14-.03-.241-.04l-.352 1.798c.04.01.191.04.251.04.211.031.422 0 .583-.06.12-.05.241-.13.331-.251.09-.131.151-.261.181-.442zm4.983 1.316l.27-2.622v-.02l1.749.181 1.577.161-.121 1.235h-.02l-.964-.1-.854-.091-.12 1.226.924.09.683.071h.02l-.06.602-.061.643h-.02l-.663-.07-.944-.101-.11 1.125-.02.161 1.265.131.613.06h.02l-.131 1.246-1.517-.151-1.848-.191v-.02l.281-2.782.05-.784zm12.717 4.229h-.191a116.938 116.938 0 0 1-2.672-2.23 28.062 28.062 0 0 1-1.226-1.135h-.02c.02.331.02.542.031.743l.04 2.592v.02l-.734.01-.653.01v-.02l-.04-2.793-.05-3.505h.191c1.386 1.135 2.2 1.818 2.742 2.31.372.331.734.663 1.145 1.075h.021c-.011-.412-.021-.653-.021-.904l-.04-2.471v-.02l.744-.01.642-.011v.021l.041 2.631.05 3.687zm9.061-4.551l-.493-2.591v-.02l.744-.141.753-.141v.021l.492 2.591.131.683c.1.543.211.884.392 1.105.241.292.663.392 1.085.312.411-.081.713-.312.853-.653.111-.282.081-.663-.02-1.196l-.13-.683-.492-2.591v-.02l.733-.141.713-.131v.02l.492 2.592.131.683c.141.754.181 1.256.07 1.738-.171.723-.884 1.517-2.049 1.738-1.205.231-2.18-.121-2.712-.884-.271-.382-.402-.854-.543-1.587l-.15-.704zm12.586-1.024c.302 1.004-.341 1.929-1.506 2.28-.412.121-.925.201-1.266.151-.131-.452-.161-.603-.342-1.286h.02c.121.02.231.03.352.04.201.01.442-.02.703-.1.372-.111.583-.362.482-.703-.06-.211-.271-.352-.572-.483a6.855 6.855 0 0 1-.764-.361c-.432-.231-.914-.593-1.115-1.256-.271-.904.071-1.949 1.527-2.391.281-.08.653-.15.884-.15.131.472.161.602.342 1.275h-.02a1.837 1.837 0 0 0-.332 0 2.38 2.38 0 0 0-.382.071c-.412.12-.643.402-.542.733.06.201.181.301.351.402.171.11.503.241.915.442.622.311 1.064.653 1.265 1.336zm5.194-1.075v.944l.01.02-.683.282-.734.301-.01-.02c0-.06.01-.452.081-3.064l.1-3.897.191-.081 2.803 2.702c1.878 1.809 2.149 2.08 2.199 2.12l.011.02-.714.291-.833.342-.01-.02c-.041-.05-.302-.322-.653-.673l-1.758.733zm.904-1.657l-.01-.01c-.603-.633-.864-.925-.995-1.095h-.01c.03.211.05.602.05 1.486l.01.01.955-.391zm-28.9-12.085c-1.286 0-1.939.161-2.572.312-.593.14-1.145.271-2.29.271-.914 0-1.457-.09-1.939-.191v1.236c.482.09 1.065.17 1.939.17 1.286 0 1.939-.16 2.571-.311.593-.141 1.146-.271 2.291-.271s1.697.13 2.29.271c.191.04.382.09.593.131v-1.236c-.101-.02-.211-.05-.312-.07-.633-.161-1.286-.312-2.571-.312zm0 2.411c-1.286 0-1.939.161-2.572.311-.593.141-1.145.272-2.29.272a8.714 8.714 0 0 1-1.939-.191v1.235a9.902 9.902 0 0 0 1.939.171c1.286 0 1.939-.161 2.571-.311.593-.141 1.146-.271 2.291-.271s1.697.13 2.29.271c.191.04.382.09.593.13v-1.235c-.101-.02-.211-.05-.312-.071-.633-.15-1.286-.311-2.571-.311zm2.561-4.52c-.633-.151-1.286-.312-2.571-.312-1.286 0-1.939.161-2.572.312-.593.14-1.145.271-2.29.271-.914 0-1.457-.09-1.939-.191v1.236c.482.09 1.065.17 1.939.17 1.286 0 1.938-.16 2.571-.311.593-.141 1.145-.271 2.291-.271 1.145 0 1.697.13 2.29.271.191.04.382.09.593.131v-1.236c-.101-.02-.201-.05-.312-.07z" fill="#000"/><path d="M117.057 180.351h15.811m-50.658 0h15.811" stroke="#000" stroke-miterlimit="10"/></svg>