<svg width="460" height="360" viewBox="0 0 460 360" fill="none" xmlns="http://www.w3.org/2000/svg"><path fill="url(#a)" d="M0 0h460v360H0z"/><g opacity=".8"><path opacity=".301" fill-rule="evenodd" clip-rule="evenodd" d="M388 281.126c-.141-18.505-70.878-33.516-158-33.516-87.209 0-158 15.044-158 33.571h316v-.055z" fill="#8EA9AD"/><path d="M184.357 160.101h-2.631v76.982h2.631v-76.982zm94.167 0h-2.631v76.982h2.631v-76.982z" fill="#7BA6AA"/><path fill-rule="evenodd" clip-rule="evenodd" d="M152.892 214.028c.674 0 1.229.555 1.229 1.23 0 .675-.555 1.23-1.229 1.23a1.235 1.235 0 0 1-1.229-1.23 1.222 1.222 0 0 1 1.229-1.23zm0 3.865s1.229 2.024 1.229 4.517c0 2.493-1.229 4.518-1.229 4.518s-1.229-2.025-1.229-4.518c-.01-2.493 1.229-4.517 1.229-4.517zm2.251 12.148h-1.033a1.224 1.224 0 0 0-1.229-1.209c-.663 0-1.207.534-1.228 1.209h-1.033v-17.243h4.512v17.243h.011z" fill="#7BA6AA"/><path fill-rule="evenodd" clip-rule="evenodd" d="M157.175 214.028c.675 0 1.229.555 1.229 1.23 0 .675-.554 1.23-1.229 1.23a1.234 1.234 0 0 1-1.228-1.23c0-.675.543-1.23 1.228-1.23zm0 3.865s1.229 2.024 1.229 4.517c0 2.493-1.229 4.518-1.229 4.518s-1.228-2.025-1.228-4.518 1.228-4.517 1.228-4.517zm2.251 12.148h-1.033a1.224 1.224 0 0 0-1.228-1.209c-.664 0-1.207.534-1.229 1.209h-1.033v-17.243h4.512v17.243h.011z" fill="#7BA6AA"/><path fill-rule="evenodd" clip-rule="evenodd" d="M161.459 214.028c.675 0 1.229.555 1.229 1.23 0 .675-.554 1.23-1.229 1.23a1.234 1.234 0 0 1-1.228-1.23c0-.675.544-1.23 1.228-1.23zm0 3.865s1.229 2.024 1.229 4.517c0 2.493-1.229 4.518-1.229 4.518s-1.228-2.025-1.228-4.518 1.228-4.517 1.228-4.517zm2.251 12.148h-1.033a1.23 1.23 0 0 0-1.228-1.209c-.664 0-1.207.534-1.229 1.209h-1.022v-17.243h4.512v17.243z" fill="#7BA6AA"/><path fill-rule="evenodd" clip-rule="evenodd" d="M165.743 214.028c.674 0 1.229.555 1.229 1.23 0 .675-.555 1.23-1.229 1.23a1.235 1.235 0 0 1-1.229-1.23c0-.675.544-1.23 1.229-1.23zm0 3.865s1.229 2.024 1.229 4.517c0 2.493-1.229 4.518-1.229 4.518s-1.229-2.025-1.229-4.518 1.229-4.517 1.229-4.517zm2.251 12.148h-1.033a1.224 1.224 0 0 0-1.229-1.209c-.663 0-1.207.534-1.228 1.209h-1.033v-17.243h4.512v17.243h.011z" fill="#7BA6AA"/><path fill-rule="evenodd" clip-rule="evenodd" d="M170.027 214.028c.674 0 1.229.555 1.229 1.23 0 .675-.555 1.23-1.229 1.23a1.235 1.235 0 0 1-1.229-1.23c0-.675.544-1.23 1.229-1.23zm0 3.865s1.229 2.024 1.229 4.517c0 2.493-1.229 4.518-1.229 4.518s-1.229-2.025-1.229-4.518 1.229-4.517 1.229-4.517zm2.251 12.148h-1.033a1.224 1.224 0 0 0-1.229-1.209c-.663 0-1.207.534-1.228 1.209h-1.033v-17.243h4.512v17.243h.011z" fill="#7BA6AA"/><path fill-rule="evenodd" clip-rule="evenodd" d="M174.311 214.028c.674 0 1.228.555 1.228 1.23 0 .675-.554 1.23-1.228 1.23a1.235 1.235 0 0 1-1.229-1.23c0-.675.544-1.23 1.229-1.23zm0 3.865s1.228 2.024 1.228 4.517c0 2.493-1.228 4.518-1.228 4.518s-1.229-2.025-1.229-4.518 1.229-4.517 1.229-4.517zm2.25 12.148h-1.033a1.223 1.223 0 0 0-1.228-1.209c-.663 0-1.207.534-1.229 1.209h-1.033v-17.243h4.512v17.243h.011z" fill="#7BA6AA"/><path fill-rule="evenodd" clip-rule="evenodd" d="M178.594 214.028c.674 0 1.229.555 1.229 1.23 0 .675-.555 1.23-1.229 1.23a1.234 1.234 0 0 1-1.228-1.23c0-.675.543-1.23 1.228-1.23zm0 3.865s1.229 2.024 1.229 4.517c0 2.493-1.229 4.518-1.229 4.518s-1.228-2.025-1.228-4.518 1.228-4.517 1.228-4.517zm2.251 12.148h-1.033a1.224 1.224 0 0 0-1.228-1.209c-.664 0-1.207.534-1.229 1.209h-1.033v-17.243h4.512v17.243h.011z" fill="#7BA6AA"/><path fill-rule="evenodd" clip-rule="evenodd" d="M182.878 214.028c.675 0 1.229.555 1.229 1.23 0 .675-.554 1.23-1.229 1.23a1.234 1.234 0 0 1-1.228-1.23c0-.675.543-1.23 1.228-1.23zm0 3.865s1.229 2.024 1.229 4.517c0 2.493-1.229 4.518-1.229 4.518s-1.228-2.025-1.228-4.518 1.228-4.517 1.228-4.517zm2.251 12.148h-1.033a1.224 1.224 0 0 0-1.228-1.209c-.664 0-1.207.534-1.229 1.209h-1.022v-17.243h4.512v17.243z" fill="#7BA6AA"/><path fill-rule="evenodd" clip-rule="evenodd" d="M187.162 214.028c.674 0 1.229.555 1.229 1.23 0 .675-.555 1.23-1.229 1.23a1.234 1.234 0 0 1-1.228-1.23c0-.675.543-1.23 1.228-1.23zm0 3.865s1.229 2.024 1.229 4.517c0 2.493-1.229 4.518-1.229 4.518s-1.228-2.025-1.228-4.518 1.228-4.517 1.228-4.517zm2.251 12.148h-1.033a1.224 1.224 0 0 0-1.229-1.209 1.23 1.23 0 0 0-1.228 1.209h-1.033v-17.243h4.512v17.243h.011z" fill="#7BA6AA"/><path fill-rule="evenodd" clip-rule="evenodd" d="M191.446 214.028c.674 0 1.229.555 1.229 1.23 0 .675-.555 1.23-1.229 1.23a1.235 1.235 0 0 1-1.229-1.23c0-.675.544-1.23 1.229-1.23zm0 3.865s1.229 2.024 1.229 4.517c0 2.493-1.229 4.518-1.229 4.518s-1.229-2.025-1.229-4.518 1.229-4.517 1.229-4.517zm2.251 12.148h-1.033a1.224 1.224 0 0 0-1.229-1.209c-.663 0-1.207.534-1.229 1.209h-1.032v-17.243h4.512v17.243h.011z" fill="#7BA6AA"/><path fill-rule="evenodd" clip-rule="evenodd" d="M195.73 214.028c.674 0 1.228.555 1.228 1.23 0 .675-.554 1.23-1.228 1.23a1.235 1.235 0 0 1-1.229-1.23c0-.675.544-1.23 1.229-1.23zm0 3.865s1.228 2.024 1.228 4.517c0 2.493-1.228 4.518-1.228 4.518s-1.229-2.025-1.229-4.518 1.229-4.517 1.229-4.517zm2.25 12.148h-1.033a1.223 1.223 0 0 0-1.228-1.209c-.663 0-1.207.534-1.229 1.209h-1.033v-17.243h4.512v17.243h.011z" fill="#7BA6AA"/><path fill-rule="evenodd" clip-rule="evenodd" d="M200.013 214.028c.674 0 1.229.555 1.229 1.23 0 .675-.555 1.23-1.229 1.23a1.234 1.234 0 0 1-1.228-1.23c0-.675.543-1.23 1.228-1.23zm0 3.865s1.229 2.024 1.229 4.517c0 2.493-1.229 4.518-1.229 4.518s-1.228-2.025-1.228-4.518 1.228-4.517 1.228-4.517zm2.251 12.148h-1.033a1.224 1.224 0 0 0-1.229-1.209 1.23 1.23 0 0 0-1.228 1.209h-1.033v-17.243h4.512v17.243h.011z" fill="#7BA6AA"/><path fill-rule="evenodd" clip-rule="evenodd" d="M204.297 214.028c.674 0 1.229.555 1.229 1.23 0 .675-.555 1.23-1.229 1.23a1.234 1.234 0 0 1-1.228-1.23c0-.675.543-1.23 1.228-1.23zm0 3.865s1.229 2.024 1.229 4.517c0 2.493-1.229 4.518-1.229 4.518s-1.228-2.025-1.228-4.518 1.228-4.517 1.228-4.517zm2.251 12.148h-1.033a1.238 1.238 0 0 0-1.229-1.209c-.663 0-1.206.534-1.228 1.209h-1.033v-17.243h4.512v17.243h.011z" fill="#7BA6AA"/><path fill-rule="evenodd" clip-rule="evenodd" d="M208.581 214.028c.674 0 1.229.555 1.229 1.23 0 .675-.555 1.23-1.229 1.23a1.234 1.234 0 0 1-1.228-1.23c0-.675.543-1.23 1.228-1.23zm0 3.865s1.229 2.024 1.229 4.517c0 2.493-1.229 4.518-1.229 4.518s-1.228-2.025-1.228-4.518 1.228-4.517 1.228-4.517zm2.251 12.148h-1.033a1.238 1.238 0 0 0-1.229-1.209c-.663 0-1.207.534-1.228 1.209h-1.033v-17.243h4.512v17.243h.011z" fill="#7BA6AA"/><path fill-rule="evenodd" clip-rule="evenodd" d="M212.865 214.028c.674 0 1.228.555 1.228 1.23 0 .675-.554 1.23-1.228 1.23a1.235 1.235 0 0 1-1.229-1.23c0-.675.544-1.23 1.229-1.23zm0 3.865s1.228 2.024 1.228 4.517c0 2.493-1.228 4.518-1.228 4.518s-1.229-2.025-1.229-4.518 1.229-4.517 1.229-4.517zm2.25 12.148h-1.033a1.237 1.237 0 0 0-1.228-1.209c-.663 0-1.207.534-1.229 1.209h-1.033v-17.243h4.512v17.243h.011z" fill="#7BA6AA"/><path fill-rule="evenodd" clip-rule="evenodd" d="M217.149 214.028c.674 0 1.228.555 1.228 1.23 0 .675-.554 1.23-1.228 1.23a1.235 1.235 0 0 1-1.229-1.23c0-.675.544-1.23 1.229-1.23zm0 3.865s1.228 2.024 1.228 4.517c0 2.493-1.228 4.518-1.228 4.518s-1.229-2.025-1.229-4.518 1.229-4.517 1.229-4.517zm2.25 12.148h-1.033a1.237 1.237 0 0 0-1.228-1.209c-.664 0-1.207.534-1.229 1.209h-1.033v-17.243h4.512v17.243h.011z" fill="#7BA6AA"/><path fill-rule="evenodd" clip-rule="evenodd" d="M221.433 214.028c.674 0 1.228.555 1.228 1.23 0 .675-.554 1.23-1.228 1.23a1.235 1.235 0 0 1-1.229-1.23c0-.675.544-1.23 1.229-1.23zm0 3.865s1.228 2.024 1.228 4.517c0 2.493-1.228 4.518-1.228 4.518s-1.229-2.025-1.229-4.518 1.229-4.517 1.229-4.517zm2.25 12.148h-1.033a1.238 1.238 0 0 0-1.228-1.209c-.664 0-1.207.534-1.229 1.209h-1.033v-17.243h4.512v17.243h.011z" fill="#7BA6AA"/><path fill-rule="evenodd" clip-rule="evenodd" d="M225.716 214.028c.674 0 1.229.555 1.229 1.23 0 .675-.555 1.23-1.229 1.23a1.234 1.234 0 0 1-1.228-1.23c0-.675.543-1.23 1.228-1.23zm0 3.865s1.229 2.024 1.229 4.517c0 2.493-1.229 4.518-1.229 4.518s-1.228-2.025-1.228-4.518 1.228-4.517 1.228-4.517zm2.251 12.148h-1.033a1.232 1.232 0 0 0-1.229-1.209 1.23 1.23 0 0 0-1.228 1.209h-1.033v-17.243h4.512v17.243h.011z" fill="#7BA6AA"/><path fill-rule="evenodd" clip-rule="evenodd" d="M230 214.028c.674 0 1.229.555 1.229 1.23 0 .675-.555 1.23-1.229 1.23a1.235 1.235 0 0 1-1.229-1.23c0-.675.544-1.23 1.229-1.23zm0 3.865s1.229 2.024 1.229 4.517c0 2.493-1.229 4.518-1.229 4.518s-1.229-2.025-1.229-4.518 1.229-4.517 1.229-4.517zm2.251 12.148h-1.033a1.232 1.232 0 0 0-1.229-1.209c-.674 0-1.207.534-1.229 1.209h-1.032v-17.243h4.512v17.243h.011z" fill="#7BA6AA"/><path fill-rule="evenodd" clip-rule="evenodd" d="M234.284 214.028c.674 0 1.228.555 1.228 1.23 0 .675-.554 1.23-1.228 1.23a1.235 1.235 0 0 1-1.229-1.23c0-.675.544-1.23 1.229-1.23zm0 3.865s1.228 2.024 1.228 4.517c0 2.493-1.228 4.518-1.228 4.518s-1.229-2.025-1.229-4.518 1.229-4.517 1.229-4.517zm2.25 12.148h-1.033a1.23 1.23 0 0 0-1.228-1.209c-.674 0-1.207.534-1.229 1.209h-1.033v-17.243h4.512v17.243h.011z" fill="#7BA6AA"/><path fill-rule="evenodd" clip-rule="evenodd" d="M238.568 214.028c.674 0 1.228.555 1.228 1.23 0 .675-.554 1.23-1.228 1.23a1.235 1.235 0 0 1-1.229-1.23c0-.675.544-1.23 1.229-1.23zm0 3.865s1.228 2.024 1.228 4.517c0 2.493-1.228 4.518-1.228 4.518s-1.229-2.025-1.229-4.518 1.229-4.517 1.229-4.517zm2.25 12.148h-1.033a1.224 1.224 0 0 0-1.228-1.209c-.664 0-1.207.534-1.229 1.209h-1.033v-17.243h4.512v17.243h.011z" fill="#7BA6AA"/><path fill-rule="evenodd" clip-rule="evenodd" d="M242.851 214.028c.675 0 1.229.555 1.229 1.23 0 .675-.554 1.23-1.229 1.23a1.234 1.234 0 0 1-1.228-1.23c0-.675.543-1.23 1.228-1.23zm0 3.865s1.229 2.024 1.229 4.517c0 2.493-1.229 4.518-1.229 4.518s-1.228-2.025-1.228-4.518 1.228-4.517 1.228-4.517zm2.251 12.148h-1.033a1.224 1.224 0 0 0-1.228-1.209c-.664 0-1.207.534-1.229 1.209h-1.033v-17.243h4.512v17.243h.011z" fill="#7BA6AA"/><path fill-rule="evenodd" clip-rule="evenodd" d="M247.135 214.028c.674 0 1.229.555 1.229 1.23 0 .675-.555 1.23-1.229 1.23a1.235 1.235 0 0 1-1.229-1.23c0-.675.544-1.23 1.229-1.23zm0 3.865s1.229 2.024 1.229 4.517c0 2.493-1.229 4.518-1.229 4.518s-1.229-2.025-1.229-4.518 1.229-4.517 1.229-4.517zm2.251 12.148h-1.033a1.239 1.239 0 0 0-1.229-1.209c-.663 0-1.207.534-1.228 1.209h-1.022v-17.243h4.512v17.243z" fill="#7BA6AA"/><path fill-rule="evenodd" clip-rule="evenodd" d="M251.419 214.028c.674 0 1.228.555 1.228 1.23 0 .675-.554 1.23-1.228 1.23a1.235 1.235 0 0 1-1.229-1.23c0-.675.544-1.23 1.229-1.23zm0 3.865s1.228 2.024 1.228 4.517c0 2.493-1.228 4.518-1.228 4.518s-1.229-2.025-1.229-4.518 1.229-4.517 1.229-4.517zm2.25 12.148h-1.032a1.239 1.239 0 0 0-1.229-1.209c-.663 0-1.207.534-1.229 1.209h-1.033v-17.243h4.513v17.243h.01z" fill="#7BA6AA"/><path fill-rule="evenodd" clip-rule="evenodd" d="M255.703 214.028c.674 0 1.228.555 1.228 1.23 0 .675-.554 1.23-1.228 1.23a1.235 1.235 0 0 1-1.229-1.23c0-.675.544-1.23 1.229-1.23zm0 3.865s1.228 2.024 1.228 4.517c0 2.493-1.228 4.518-1.228 4.518s-1.229-2.025-1.229-4.518 1.229-4.517 1.229-4.517zm2.25 12.148h-1.032a1.239 1.239 0 0 0-1.229-1.209c-.663 0-1.207.534-1.229 1.209h-1.033v-17.243h4.513v17.243h.01z" fill="#7BA6AA"/><path fill-rule="evenodd" clip-rule="evenodd" d="M259.986 214.028c.675 0 1.229.555 1.229 1.23 0 .675-.554 1.23-1.229 1.23a1.234 1.234 0 0 1-1.228-1.23c0-.675.544-1.23 1.228-1.23zm0 3.865s1.229 2.024 1.229 4.517c0 2.493-1.229 4.518-1.229 4.518s-1.228-2.025-1.228-4.518 1.228-4.517 1.228-4.517zm2.251 12.148h-1.033a1.23 1.23 0 0 0-1.228-1.209c-.674 0-1.207.534-1.229 1.209h-1.033v-17.243h4.512v17.243h.011z" fill="#7BA6AA"/><path fill-rule="evenodd" clip-rule="evenodd" d="M264.27 214.028c.674 0 1.229.555 1.229 1.23 0 .675-.555 1.23-1.229 1.23a1.234 1.234 0 0 1-1.228-1.23c0-.675.543-1.23 1.228-1.23zm0 3.865s1.229 2.024 1.229 4.517c0 2.493-1.229 4.518-1.229 4.518s-1.228-2.025-1.228-4.518 1.228-4.517 1.228-4.517zm2.251 12.148h-1.033a1.23 1.23 0 0 0-1.228-1.209c-.675 0-1.207.534-1.229 1.209h-1.033v-17.243h4.512v17.243h.011z" fill="#7BA6AA"/><path fill-rule="evenodd" clip-rule="evenodd" d="M268.554 214.028c.674 0 1.229.555 1.229 1.23 0 .675-.555 1.23-1.229 1.23a1.235 1.235 0 0 1-1.229-1.23c0-.675.555-1.23 1.229-1.23zm0 3.865s1.229 2.024 1.229 4.517c0 2.493-1.229 4.518-1.229 4.518s-1.229-2.025-1.229-4.518 1.229-4.517 1.229-4.517zm2.251 12.148h-1.033a1.232 1.232 0 0 0-1.229-1.209 1.23 1.23 0 0 0-1.228 1.209h-1.033v-17.243h4.512v17.243h.011z" fill="#7BA6AA"/><path fill-rule="evenodd" clip-rule="evenodd" d="M272.838 214.028c.674 0 1.228.555 1.228 1.23 0 .675-.554 1.23-1.228 1.23a1.235 1.235 0 0 1-1.229-1.23c0-.675.555-1.23 1.229-1.23zm0 3.865s1.228 2.024 1.228 4.517c0 2.493-1.228 4.518-1.228 4.518s-1.229-2.025-1.229-4.518 1.229-4.517 1.229-4.517zm2.25 12.148h-1.032a1.224 1.224 0 0 0-1.229-1.209c-.674 0-1.207.534-1.229 1.209h-1.033v-17.243h4.513v17.243h.01z" fill="#7BA6AA"/><path fill-rule="evenodd" clip-rule="evenodd" d="M277.122 214.028c.674 0 1.228.555 1.228 1.23 0 .675-.554 1.23-1.228 1.23a1.235 1.235 0 0 1-1.229-1.23c0-.675.555-1.23 1.229-1.23zm0 3.865s1.228 2.024 1.228 4.517c0 2.493-1.228 4.518-1.228 4.518s-1.229-2.025-1.229-4.518 1.229-4.517 1.229-4.517zm2.25 12.148h-1.033a1.223 1.223 0 0 0-1.228-1.209c-.663 0-1.207.534-1.229 1.209h-1.033v-17.243h4.512v17.243h.011z" fill="#7BA6AA"/><path fill-rule="evenodd" clip-rule="evenodd" d="M281.405 214.028c.675 0 1.229.555 1.229 1.23 0 .675-.554 1.23-1.229 1.23a1.234 1.234 0 0 1-1.228-1.23c0-.675.554-1.23 1.228-1.23zm0 3.865s1.229 2.024 1.229 4.517c0 2.493-1.229 4.518-1.229 4.518s-1.228-2.025-1.228-4.518 1.228-4.517 1.228-4.517zm2.251 12.148h-1.033a1.224 1.224 0 0 0-1.228-1.209c-.664 0-1.207.534-1.229 1.209h-1.033v-17.243h4.512v17.243h.011z" fill="#7BA6AA"/><path fill-rule="evenodd" clip-rule="evenodd" d="M285.689 214.028c.674 0 1.229.555 1.229 1.23 0 .675-.555 1.23-1.229 1.23a1.234 1.234 0 0 1-1.228-1.23c0-.675.554-1.23 1.228-1.23zm0 3.865s1.229 2.024 1.229 4.517c0 2.493-1.229 4.518-1.229 4.518s-1.228-2.025-1.228-4.518 1.228-4.517 1.228-4.517zm2.251 12.148h-1.033a1.224 1.224 0 0 0-1.229-1.209c-.663 0-1.206.534-1.228 1.209h-1.033v-17.243h4.512v17.243h.011z" fill="#7BA6AA"/><path fill-rule="evenodd" clip-rule="evenodd" d="M289.973 214.028c.674 0 1.228.555 1.228 1.23 0 .675-.554 1.23-1.228 1.23a1.235 1.235 0 0 1-1.229-1.23c0-.675.555-1.23 1.229-1.23zm0 3.865s1.228 2.024 1.228 4.517c0 2.493-1.228 4.518-1.228 4.518s-1.229-2.025-1.229-4.518 1.229-4.517 1.229-4.517zm2.25 12.148h-1.032a1.239 1.239 0 0 0-1.229-1.209c-.663 0-1.207.534-1.229 1.209H287.7v-17.243h4.513v17.243h.01z" fill="#7BA6AA"/><path fill-rule="evenodd" clip-rule="evenodd" d="M294.257 214.028c.674 0 1.228.555 1.228 1.23 0 .675-.554 1.23-1.228 1.23a1.235 1.235 0 0 1-1.229-1.23c0-.675.555-1.23 1.229-1.23zm0 3.865s1.228 2.024 1.228 4.517c0 2.493-1.228 4.518-1.228 4.518s-1.229-2.025-1.229-4.518 1.229-4.517 1.229-4.517zm2.25 12.148h-1.033a1.237 1.237 0 0 0-1.228-1.209c-.663 0-1.207.534-1.229 1.209h-1.033v-17.243h4.512v17.243h.011z" fill="#7BA6AA"/><path fill-rule="evenodd" clip-rule="evenodd" d="M298.541 214.028c.674 0 1.228.555 1.228 1.23 0 .675-.554 1.23-1.228 1.23a1.235 1.235 0 0 1-1.229-1.23c0-.675.555-1.23 1.229-1.23zm0 3.865s1.228 2.024 1.228 4.517c0 2.493-1.228 4.518-1.228 4.518s-1.229-2.025-1.229-4.518 1.229-4.517 1.229-4.517zm2.25 12.148h-1.033a1.23 1.23 0 0 0-1.228-1.209c-.674 0-1.207.534-1.229 1.209h-1.033v-17.243h4.512v17.243h.011z" fill="#7BA6AA"/><path fill-rule="evenodd" clip-rule="evenodd" d="M302.824 214.028c.674 0 1.229.555 1.229 1.23 0 .675-.555 1.23-1.229 1.23a1.234 1.234 0 0 1-1.228-1.23c0-.675.554-1.23 1.228-1.23zm0 3.865s1.229 2.024 1.229 4.517c0 2.493-1.229 4.518-1.229 4.518s-1.228-2.025-1.228-4.518 1.228-4.517 1.228-4.517zm2.251 12.148h-1.033a1.231 1.231 0 0 0-1.229-1.209 1.23 1.23 0 0 0-1.228 1.209h-1.033v-17.243h4.512v17.243h.011z" fill="#7BA6AA"/><path fill-rule="evenodd" clip-rule="evenodd" d="M307.108 214.028c.674 0 1.229.555 1.229 1.23 0 .675-.555 1.23-1.229 1.23a1.235 1.235 0 0 1-1.229-1.23c0-.675.555-1.23 1.229-1.23zm0 3.865s1.229 2.024 1.229 4.517c0 2.493-1.229 4.518-1.229 4.518s-1.229-2.025-1.229-4.518 1.229-4.517 1.229-4.517zm2.251 12.148h-1.033a1.232 1.232 0 0 0-1.229-1.209 1.23 1.23 0 0 0-1.228 1.209h-1.033v-17.243h4.512v17.243h.011z" fill="#7BA6AA"/><path d="M308.108 230.041H151.892v2.133h156.216v-2.133zm0-18.897H151.892v2.133h156.216v-2.133z" fill="#7BA6AA"/><path d="M149.021 236.42h-15.265v12.692h15.265V236.42z" fill="#DFBF51"/><path d="M214.691 93.22h-5.218v11.496h5.218V93.221z" fill="#DBB65F"/><path d="M250.516 93.22h-5.218v11.496h5.218V93.221z" fill="#FCF4DF"/><path fill-rule="evenodd" clip-rule="evenodd" d="M214.691 104.716h-5.218l-79.153 45.969h18.527l65.844-45.969z" fill="#006891"/><path d="M326.244 236.42h-15.265v12.692h15.265V236.42z" fill="#FFFBF0"/><path d="M149.021 249.177h-12.395v6.543h12.395v-6.543z" fill="#DFBF51"/><path d="M323.373 249.177h-12.394v6.543h12.394v-6.543z" fill="#FFFBF0"/><path d="M230 236.42h-85.6v1.393H230v-1.393z" fill="#DFBF51"/><path d="M315.6 236.42H230v1.393h85.6v-1.393z" fill="#FAF0D9"/><path d="M230 245.368h-90.819v1.393H230v-1.393z" fill="#DFBF51"/><path d="M320.818 245.368H230v1.393h90.818v-1.393z" fill="#FAF0D9"/><path d="M230 254.326h-96.037v1.394H230v-1.394z" fill="#DFBF51"/><path d="M326.037 254.326H230v1.394h96.037v-1.394z" fill="#FAF0D9"/><path d="M230 263.274H128.744v1.394H230v-1.394z" fill="#DFBF51"/><path d="M331.256 263.274H230v1.394h101.256v-1.394z" fill="#FAF0D9"/><path d="M230 272.233H115.697v1.393H230v-1.393z" fill="#DFBF51"/><path d="M344.303 272.233H230v1.393h114.303v-1.393z" fill="#FAF0D9"/><path d="M230 237.813h-84.034v7.565H230v-7.565z" fill="#006891"/><path d="M314.034 237.813H230v7.565h84.034v-7.565z" fill="#DCBC46"/><path d="M230 246.761h-89.253v7.565H230v-7.565z" fill="#006891"/><path d="M319.253 246.761H230v7.565h89.253v-7.565z" fill="#DCBC46"/><path d="M230 255.72h-94.472v7.565H230v-7.565z" fill="#006891"/><path d="M324.472 255.72H230v7.565h94.472v-7.565z" fill="#DCBC46"/><path d="M230 264.667h-99.691v7.566H230v-7.566z" fill="#006891"/><path d="M329.69 264.667H230v7.566h99.69v-7.566z" fill="#DCBC46"/><path d="M230 273.626H117.262v7.566H230v-7.566z" fill="#006891"/><path d="M342.738 273.626H230v7.566h112.738v-7.566z" fill="#DCBC46"/><path d="M139.366 161.027h-3.577v17.297h3.577v-17.297z" fill="#DFBF51"/><path d="M324.472 161.027h-3.577v17.297h3.577v-17.297z" fill="#FFFBF0"/><path d="M139.366 207.301h-3.577v29.053h3.577v-29.053z" fill="#DFBF51"/><path d="M324.211 207.301h-3.577v29.053h3.577v-29.053z" fill="#FFFBF0"/><path d="M145.901 208.607h-6.535v25.102h6.535v-25.102z" fill="#E9CD9B"/><path d="M320.634 208.607h-6.535v25.102h6.535v-25.102z" fill="#FFFBF0"/><path d="M145.901 210.784h-6.535v.719h6.535v-.719z" fill="#DFBF51"/><path d="M320.634 210.784h-6.535v.719h6.535v-.719z" fill="#F3EAC7"/><path d="M145.901 233.252h-6.535v.457h6.535v-.457z" fill="#DFBF51"/><path d="M320.634 233.252h-6.535v.457h6.535v-.457z" fill="#F3EAC7"/><path d="M138.899 178.389h-2.631v28.912h2.631v-28.912z" fill="#DFBF51"/><path d="M323.993 178.389h-2.631v28.912h2.631v-28.912z" fill="#FFFBF0"/><path fill-rule="evenodd" clip-rule="evenodd" d="M230 104.716h-15.309l-65.844 45.969H230v-45.969z" fill="#3C96B9"/><path fill-rule="evenodd" clip-rule="evenodd" d="M230 104.716h15.298l65.855 45.969H230v-45.969z" fill="#7BA6AA"/><path fill-rule="evenodd" clip-rule="evenodd" d="M245.298 104.716h5.218l79.164 45.969h-18.527l-65.855-45.969z" fill="#8ABDC0"/><path d="M230 93.22h-15.309v11.496H230V93.221zm0 59.969h-81.153v7.838H230v-7.838z" fill="#E9CD9B"/><path d="M311.153 153.189H230v7.838h81.153v-7.838z" fill="#F3EAC7"/><path d="M148.847 153.189h-16.972v7.838h16.972v-7.838z" fill="#DFBF51"/><path d="M328.125 153.189h-16.972v7.838h16.972v-7.838z" fill="#FCF4DF"/><path d="M245.309 93.22H230v11.496h15.309V93.221z" fill="#F3EAC7"/><path fill-rule="evenodd" clip-rule="evenodd" d="M214.691 90.717H230v2.504h-.522c0 .87-.707 1.567-1.566 1.567a1.567 1.567 0 0 1-1.565-1.567h-.707c0 .87-.707 1.567-1.566 1.567a1.567 1.567 0 0 1-1.565-1.567h-.707c0 .87-.707 1.567-1.566 1.567a1.567 1.567 0 0 1-1.565-1.567h-.707c0 .87-.707 1.567-1.566 1.567a1.567 1.567 0 0 1-1.565-1.567h-.12v-2.504h-.022z" fill="#F3EAC7"/><path fill-rule="evenodd" clip-rule="evenodd" d="M245.298 90.717h-15.309v2.504h.522a1.566 1.566 0 0 0 3.131 0h.707a1.566 1.566 0 0 0 3.131 0h.707a1.566 1.566 0 0 0 3.131 0h.707a1.566 1.566 0 0 0 3.131 0h.12v-2.504h.022z" fill="#FCF4DF"/><path d="M230.946 78.808h-1.903v.414h1.903v-.414z" fill="#757C81"/><path fill-rule="evenodd" clip-rule="evenodd" d="M207.646 90.717h7.045v2.504h-.489c0 .87-.424 1.567-.946 1.567s-.946-.707-.946-1.567h-.424c0 .87-.424 1.567-.946 1.567s-.946-.707-.946-1.567h-.424c0 .87-.424 1.567-.945 1.567-.522 0-.946-.707-.946-1.567v-2.504h-.033z" fill="#E9CD9B"/><path fill-rule="evenodd" clip-rule="evenodd" d="M252.343 90.717h-7.045v2.504h.489c0 .87.424 1.567.946 1.567s.946-.707.946-1.567h.424c0 .87.424 1.567.946 1.567s.946-.707.946-1.567h.424c0 .87.424 1.567.945 1.567.522 0 .946-.707.946-1.567v-2.504h.033z" fill="#FFFBF0"/><path fill-rule="evenodd" clip-rule="evenodd" d="M230 155.018h-.522a1.964 1.964 0 0 1-1.957 1.959 1.964 1.964 0 0 1-1.957-1.959h-.881c0 1.077-.88 1.959-1.957 1.959a1.964 1.964 0 0 1-1.957-1.959h-.881c0 1.077-.88 1.959-1.957 1.959a1.964 1.964 0 0 1-1.957-1.959h-.88a1.964 1.964 0 0 1-1.957 1.959 1.964 1.964 0 0 1-1.957-1.959h-.881a1.964 1.964 0 0 1-1.957 1.959 1.964 1.964 0 0 1-1.957-1.959h-.881a1.964 1.964 0 0 1-1.957 1.959 1.964 1.964 0 0 1-1.957-1.959h-.881c0 1.077-.88 1.959-1.957 1.959a1.964 1.964 0 0 1-1.957-1.959h-.881c0 1.077-.88 1.959-1.957 1.959a1.964 1.964 0 0 1-1.957-1.959h-.88a1.964 1.964 0 0 1-1.957 1.959 1.964 1.964 0 0 1-1.957-1.959h-.881a1.964 1.964 0 0 1-1.957 1.959 1.964 1.964 0 0 1-1.957-1.959h-.881a1.964 1.964 0 0 1-1.957 1.959 1.964 1.964 0 0 1-1.957-1.959h-.881c0 1.077-.88 1.959-1.957 1.959a1.964 1.964 0 0 1-1.957-1.959h-.881c0 1.077-.88 1.959-1.957 1.959a1.964 1.964 0 0 1-1.957-1.959h-.88a1.964 1.964 0 0 1-1.957 1.959 1.964 1.964 0 0 1-1.957-1.959h-.881a1.964 1.964 0 0 1-1.957 1.959 1.964 1.964 0 0 1-1.957-1.959h-.881a1.964 1.964 0 0 1-1.957 1.959 1.964 1.964 0 0 1-1.957-1.959h-.881c0 1.077-.88 1.959-1.957 1.959a1.964 1.964 0 0 1-1.957-1.959v-4.333H230v4.333z" fill="#F3EAC7"/><path fill-rule="evenodd" clip-rule="evenodd" d="M230 155.018h.522c0 1.077.881 1.959 1.957 1.959a1.964 1.964 0 0 0 1.957-1.959h.881c0 1.077.88 1.959 1.957 1.959a1.964 1.964 0 0 0 1.957-1.959h.88c0 1.077.881 1.959 1.958 1.959a1.964 1.964 0 0 0 1.957-1.959h.88c0 1.077.881 1.959 1.957 1.959a1.964 1.964 0 0 0 1.957-1.959h.881c0 1.077.881 1.959 1.957 1.959a1.964 1.964 0 0 0 1.957-1.959h.881c0 1.077.881 1.959 1.957 1.959a1.964 1.964 0 0 0 1.957-1.959h.881c0 1.077.88 1.959 1.957 1.959a1.964 1.964 0 0 0 1.957-1.959h.88c0 1.077.881 1.959 1.958 1.959a1.964 1.964 0 0 0 1.957-1.959h.88c0 1.077.881 1.959 1.957 1.959a1.964 1.964 0 0 0 1.957-1.959h.881c0 1.077.881 1.959 1.957 1.959a1.964 1.964 0 0 0 1.957-1.959h.881c0 1.077.881 1.959 1.957 1.959a1.964 1.964 0 0 0 1.957-1.959h.881c0 1.077.88 1.959 1.957 1.959a1.964 1.964 0 0 0 1.957-1.959h.88c0 1.077.881 1.959 1.958 1.959a1.964 1.964 0 0 0 1.957-1.959h.88c0 1.077.881 1.959 1.957 1.959a1.964 1.964 0 0 0 1.957-1.959h.881c0 1.077.881 1.959 1.957 1.959a1.964 1.964 0 0 0 1.957-1.959h.881c0 1.077.881 1.959 1.957 1.959a1.964 1.964 0 0 0 1.957-1.959h.881c0 1.077.88 1.959 1.957 1.959a1.964 1.964 0 0 0 1.957-1.959v-4.333H230v4.333z" fill="#FCF4DF"/><path fill-rule="evenodd" clip-rule="evenodd" d="M131.875 150.685h16.972v4.333h-.696c0 1.077-.511 1.959-1.141 1.959-.631 0-1.142-.882-1.142-1.959h-.511c0 1.077-.511 1.959-1.141 1.959-.631 0-1.142-.882-1.142-1.959h-.511c0 1.077-.511 1.959-1.142 1.959-.63 0-1.141-.882-1.141-1.959h-.511c0 1.077-.511 1.959-1.142 1.959-.631 0-1.142-.882-1.142-1.959h-.511c0 1.077-.511 1.959-1.141 1.959-.631 0-1.142-.882-1.142-1.959h-.511c0 1.077-.511 1.959-1.141 1.959-.631 0-1.142-.882-1.142-1.959v-4.333h-.022z" fill="#E9CD9B"/><path d="M232.957 161.027h-5.925v17.297h5.925v-17.297zm81.338 0h-5.926v17.297h5.926v-17.297z" fill="#F3EAC7"/><path d="M151.892 161.027h-5.926v17.297h5.926v-17.297z" fill="#E9CD9B"/><path d="M232.957 207.301h-5.925v29.053h5.925v-29.053z" fill="#F3EAC7"/><path d="M151.892 207.301h-5.926v29.053h5.926v-29.053z" fill="#E9CD9B"/><path d="M314.034 207.301h-5.926v29.053h5.926v-29.053z" fill="#F3EAC7"/><path d="M231.392 210.773h-2.795v25.592h2.795v-25.592z" fill="#DCBC46"/><path d="M232.174 178.389h-4.36v28.912h4.36v-28.912z" fill="#FCF4DF"/><path d="M151.109 178.389h-4.36v28.912h4.36v-28.912z" fill="#F3EAC7"/><path fill-rule="evenodd" clip-rule="evenodd" d="M232.957 237.171h-5.871l-1.022 2.971h7.861l-.968-2.971z" fill="#FCF4DF"/><path fill-rule="evenodd" clip-rule="evenodd" d="M230 240.371a1.969 1.969 0 1 0-3.936 0v31.819H230v-31.819z" fill="#DFBF51"/><path fill-rule="evenodd" clip-rule="evenodd" d="M233.925 240.371a1.969 1.969 0 1 0-3.936 0v31.819h3.936v-31.819zm-6.839-3.2a3.927 3.927 0 0 1-1.022-2.645 3.944 3.944 0 0 1 3.936-3.941 3.945 3.945 0 0 1 3.936 3.941 3.932 3.932 0 0 1-1.022 2.645h-5.828z" fill="#FFFBF0"/><path fill-rule="evenodd" clip-rule="evenodd" d="M334.833 237.171h-5.871l-1.022 2.971h7.861l-.968-2.971z" fill="#FCF4DF"/><path fill-rule="evenodd" clip-rule="evenodd" d="M331.876 240.371a1.969 1.969 0 1 0-3.936 0v31.819h3.936v-31.819z" fill="#DFBF51"/><path fill-rule="evenodd" clip-rule="evenodd" d="M335.801 240.371a1.969 1.969 0 1 0-3.936 0v31.819h3.936v-31.819zm-6.839-3.2a3.927 3.927 0 0 1-1.022-2.645 3.944 3.944 0 0 1 3.936-3.941 3.937 3.937 0 0 1 2.914 6.586h-5.828z" fill="#FFFBF0"/><path fill-rule="evenodd" clip-rule="evenodd" d="M131.081 237.171h-5.871l-1.022 2.971h7.861l-.968-2.971z" fill="#FCF4DF"/><path fill-rule="evenodd" clip-rule="evenodd" d="M128.124 240.371a1.969 1.969 0 1 0-3.936 0v31.819h3.936v-31.819z" fill="#DFBF51"/><path fill-rule="evenodd" clip-rule="evenodd" d="M132.049 240.371a1.969 1.969 0 1 0-3.936 0v31.819h3.925c.011 0 .011-24.602.011-31.819zm-6.839-3.2a3.932 3.932 0 0 1-1.022-2.645 3.944 3.944 0 0 1 3.936-3.941 3.934 3.934 0 0 1 3.925 3.941 3.927 3.927 0 0 1-1.022 2.645h-5.817z" fill="#FFFBF0"/><path d="M313.512 178.389h-4.36v28.912h4.36v-28.912z" fill="#FCF4DF"/><path fill-rule="evenodd" clip-rule="evenodd" d="M201.59 161.092h8.644l16.798 11.43v5.878s-2.371-1.611-3.545-2.417a1.464 1.464 0 0 1-.641-1.208v-1.6a.598.598 0 0 0-.587-.588h-3.762v-3.364c0-.794-.642-1.437-1.436-1.437h-5.631v-2.046c0-.294-.12-.566-.316-.773a1.092 1.092 0 0 0-.772-.316h-3.522l-5.23-3.559z" fill="#E9CD9B"/><path fill-rule="evenodd" clip-rule="evenodd" d="M137.007 161.092h3.044l5.926 11.43v5.878s-.924-1.785-1.316-2.537a1.443 1.443 0 0 1-.163-.674v-2.014a.594.594 0 0 0-.587-.588h-.946v-3.364c0-.794-.641-1.437-1.435-1.437h-1.055v-2.046c0-.61-.489-1.1-1.098-1.1h-.532l-1.838-3.548z" fill="#DFBF51"/><path fill-rule="evenodd" clip-rule="evenodd" d="M323.254 161.092h-3.044l-5.926 11.43v5.878s.924-1.785 1.316-2.537c.108-.206.163-.435.163-.674v-2.014a.594.594 0 0 1 .587-.588h.946v-3.364c0-.794.641-1.437 1.435-1.437h1.055v-2.046c0-.61.489-1.1 1.098-1.1h.533l1.837-3.548z" fill="#FFFBF0"/><path fill-rule="evenodd" clip-rule="evenodd" d="M258.399 161.092h-8.644l-16.798 11.43v5.878s2.371-1.611 3.545-2.417c.402-.272.641-.729.641-1.208v-1.6a.594.594 0 0 1 .587-.588h3.762v-3.364c0-.794.642-1.437 1.435-1.437h5.632v-2.046c0-.294.12-.566.316-.773.206-.207.489-.316.772-.316h3.522l5.23-3.559z" fill="#F3EAC7"/><path fill-rule="evenodd" clip-rule="evenodd" d="M168.679 161.092h-5.708l-11.09 11.43v5.878s1.576-1.622 2.348-2.428c.261-.272.413-.642.413-1.023v-1.774a.594.594 0 0 1 .587-.588h2.284v-3.364c0-.381.152-.751.424-1.012.271-.272.63-.425 1.011-.425h3.229v-2.046c0-.294.12-.566.315-.773.207-.207.489-.316.772-.316h1.957l3.458-3.559z" fill="#E9CD9B"/><path fill-rule="evenodd" clip-rule="evenodd" d="M291.571 161.092h5.698l11.09 11.43v5.878s-1.577-1.622-2.349-2.428a1.487 1.487 0 0 1-.413-1.023v-1.774a.594.594 0 0 0-.587-.588h-2.294v-3.364a1.41 1.41 0 0 0-.424-1.012 1.426 1.426 0 0 0-1.012-.425h-3.229v-2.046c0-.294-.119-.566-.326-.773a1.092 1.092 0 0 0-.772-.316h-1.957l-3.425-3.559z" fill="#F3EAC7"/><path fill-rule="evenodd" clip-rule="evenodd" d="M145.966 210.371l-17.842 32.395v5.552l17.842-32.396v-5.551zm168.057 0l17.853 32.395v5.552l-17.853-32.396v-5.551z" fill="#DCBC46"/><path fill-rule="evenodd" clip-rule="evenodd" d="M230 79.222h-.957l-14.352 11.495H230V79.222z" fill="#3C96B9"/><path fill-rule="evenodd" clip-rule="evenodd" d="M229.043 79.222L206.7 90.717h7.992l14.351-11.495z" fill="#006891"/><path fill-rule="evenodd" clip-rule="evenodd" d="M230.946 79.222L253.3 90.717h-8.002l-14.352-11.495z" fill="#8ABDC0"/><path fill-rule="evenodd" clip-rule="evenodd" d="M230 79.222h.946l14.352 11.495H230V79.222z" fill="#7BA6AA"/><path fill-rule="evenodd" clip-rule="evenodd" d="M328.125 150.685h-16.972v4.333h.696c0 1.077.511 1.959 1.141 1.959.631 0 1.142-.882 1.142-1.959h.511c0 1.077.511 1.959 1.142 1.959.63 0 1.141-.882 1.141-1.959h.511c0 1.077.511 1.959 1.142 1.959.63 0 1.141-.882 1.141-1.959h.511c0 1.077.511 1.959 1.142 1.959.631 0 1.142-.882 1.142-1.959h.511c0 1.077.511 1.959 1.141 1.959.631 0 1.142-.882 1.142-1.959h.511c0 1.077.511 1.959 1.142 1.959.63 0 1.141-.882 1.141-1.959v-4.333h.022z" fill="#FFFBF0"/><path d="M227.38 95.833h-10.079v6.27h10.079v-6.27zm-13.765 0h-3.044v6.27h3.044v-6.27zm29.073 0h-10.079v6.27h10.079v-6.27zm6.752 0h-3.044v6.27h3.044v-6.27z" fill="#006891"/></g><defs><radialGradient id="a" cx="0" cy="0" r="1" gradientUnits="userSpaceOnUse" gradientTransform="matrix(0 169 -215.944 0 230 115)"><stop stop-color="#E2EBD4"/><stop offset="1" stop-color="#ABCFC3"/></radialGradient></defs></svg>