<svg width="164" height="164" viewBox="0 0 164 164" fill="none" xmlns="http://www.w3.org/2000/svg"><path d="M82 164c45.287 0 82-36.713 82-82S127.287 0 82 0 0 36.713 0 82s36.713 82 82 82z" fill="#061333"/><path d="M86.132 38.02H42.498v87.965h43.634V38.021z" fill="url(#a)"/><path d="M42.264 125.938c19.315 0 35.48-12.332 41.521-29.89h-41.52v29.89z" fill="url(#b)"/><path d="M86.162 125.938c19.314 0 35.562-12.332 41.608-29.89H86.162v29.89z" fill="url(#c)"/><path d="M42.264 96.047h41.521c1.621-3.512 2.511-8.908 2.511-14.047 0-5.139-.884-10.535-2.51-14.047H42.263v28.094z" fill="url(#d)"/><path d="M86.162 96.047h41.608c1.621-3.512 2.511-8.908 2.511-14.047 0-5.139-.884-10.535-2.511-14.047H86.162v28.094z" fill="url(#e)"/><path d="M42.264 37.974v29.979h41.521C77.74 50.394 61.58 37.974 42.265 37.974z" fill="url(#f)"/><path d="M86.162 37.974v29.979h41.608c-6.046-17.559-22.294-29.979-41.608-29.979z" fill="url(#g)"/><path d="M115.192 127.29c-1.767.463-3.588.545-5.273.545-1.253 0-3.588-.053-4.513-.053-.977 0-2.88.053-3.289.029-.299 0-.299-.216-.299-.492 0-.491 0-.515.463-.597 1.275-.193 1.872-.298 1.954-2.475.112-2.066.112-5.303.112-7.475 0-2.61-.03-3.154-.112-3.833-.134-1.224-.626-1.276-1.902-1.387-.351-.03-.351-.082-.351-.574 0-.328 0-.597.246-.597.193 0 .41.029.79.053.351.029.872.052 1.633.052.872 0 2.476-.029 3.945-.052 1.492-.03 2.88-.053 3.342-.053 5.765 0 9.488 2.716 9.488 8.264-.006 6.802-5.116 8.376-6.234 8.645zm-.328-14.462c-.761-.545-1.955-1.142-4.378-1.142-1.984 0-2.148.492-2.253 1.387-.082.843-.082 6.497-.082 7.855 0 .872.029 3.863.217 4.565.193.761 1.141.978 2.312.978 1.275 0 2.557-.246 3.64-.954 2.037-1.305 2.962-3.588 2.962-6.69.006-1.376-.24-4.396-2.418-5.999zm21.967 14.462c-1.768.463-3.588.545-5.274.545-1.253 0-3.588-.053-4.513-.053-.977 0-2.879.053-3.289.029-.298 0-.298-.216-.298-.492 0-.491 0-.515.462-.597 1.276-.193 1.873-.298 1.955-2.475.111-2.066.111-5.303.111-7.475 0-2.61-.029-3.154-.111-3.833-.135-1.224-.626-1.276-1.902-1.387-.352-.03-.352-.082-.352-.574 0-.328 0-.597.246-.597.193 0 .41.029.79.053.352.029.872.052 1.633.052.872 0 2.476-.029 3.939-.052 1.493-.03 2.88-.053 3.342-.053 5.766 0 9.488 2.716 9.488 8.264 0 6.802-5.115 8.376-6.227 8.645zm-.328-14.462c-.761-.545-1.955-1.142-4.378-1.142-1.984 0-2.148.492-2.254 1.387-.082.843-.082 6.497-.082 7.855 0 .872.03 3.863.217 4.565.187.761 1.141.978 2.312.978 1.276 0 2.558-.246 3.64-.954 2.037-1.305 2.962-3.588 2.962-6.69.006-1.376-.24-4.396-2.417-5.999z" fill="#fff"/><defs><linearGradient id="a" x1="64.314" y1="38.53" x2="64.314" y2="129.305" gradientUnits="userSpaceOnUse"><stop stop-color="#11838E"/><stop offset="1" stop-color="#68A294"/></linearGradient><linearGradient id="b" x1="63.024" y1="96.222" x2="63.024" y2="127.069" gradientUnits="userSpaceOnUse"><stop stop-color="#F3EAA1"/><stop offset="1" stop-color="#FDB87F"/></linearGradient><linearGradient id="c" x1="106.963" y1="96.222" x2="106.963" y2="127.069" gradientUnits="userSpaceOnUse"><stop stop-color="#063E69"/><stop offset="1" stop-color="#05677E"/></linearGradient><linearGradient id="d" x1="64.278" y1="68.116" x2="64.278" y2="96.211" gradientUnits="userSpaceOnUse"><stop stop-color="#F3EAA1"/><stop offset="1" stop-color="#FDB87F"/></linearGradient><linearGradient id="e" x1="108.218" y1="68.116" x2="108.218" y2="96.211" gradientUnits="userSpaceOnUse"><stop stop-color="#063E69"/><stop offset="1" stop-color="#05677E"/></linearGradient><linearGradient id="f" x1="63.024" y1="37.72" x2="63.024" y2="69.151" gradientUnits="userSpaceOnUse"><stop stop-color="#F3EAA1"/><stop offset="1" stop-color="#FDB87F"/></linearGradient><linearGradient id="g" x1="106.963" y1="37.72" x2="106.963" y2="69.151" gradientUnits="userSpaceOnUse"><stop stop-color="#063E69"/><stop offset="1" stop-color="#05677E"/></linearGradient></defs></svg>