<svg width="414" height="112" viewBox="0 0 414 112" fill="none" xmlns="http://www.w3.org/2000/svg"><path d="M28.673 9.443H83.71L111.23 57l-27.518 47.557H28.673L1.155 57 28.673 9.443z" stroke="#3A4345" stroke-width="2"/><path d="M33.05 17.119h46.284L102.47 57 79.333 96.881H33.052L9.912 57 33.05 17.119z" stroke="#3A4345" stroke-width="2"/><path fill-rule="evenodd" clip-rule="evenodd" d="M65.076 48.994c.337-.337.337-.897-.023-1.209-2.724-2.358-6.448-3.588-10.454-2.923-5.258.876-9.498 5.116-10.373 10.375-.667 4.005.563 7.73 2.922 10.454.311.36.872.358 1.208.023l16.72-16.72zm13.55-11.445a.836.836 0 0 1 0 1.184l-10.95 10.95a.84.84 0 0 0-.106 1.044c1.55 2.498 2.263 5.564 1.725 8.815-.873 5.276-5.115 9.516-10.39 10.39-3.251.538-6.318-.175-8.816-1.724a.84.84 0 0 0-1.043.106l-11.73 11.73a.84.84 0 0 1-1.184 0l-.461-.46a.837.837 0 0 1 0-1.185l5.758-5.758a.833.833 0 0 0 .012-1.16c-4.092-4.435-6.317-10.611-5.29-17.332 1.355-8.885 8.477-16.006 17.363-17.362 6.574-1.002 12.626 1.105 17.037 5.028.502.446 1.256.448 1.73-.026l4.7-4.7a.837.837 0 0 1 1.185 0l.46.46zm142.2 1.061c.337-.336.337-.896-.023-1.208-2.725-2.358-6.449-3.589-10.454-2.923-5.259.876-9.499 5.116-10.374 10.375-.666 4.005.564 7.73 2.922 10.453.312.36.873.36 1.209.024l16.72-16.72zm13.55-11.444a.835.835 0 0 1 0 1.184l-10.95 10.95a.839.839 0 0 0-.106 1.044c1.549 2.497 2.262 5.564 1.724 8.815-.872 5.276-5.114 9.516-10.39 10.39-3.251.538-6.317-.175-8.815-1.724a.84.84 0 0 0-1.044.106l-11.729 11.73a.84.84 0 0 1-1.185 0l-.46-.46a.837.837 0 0 1 0-1.185l5.757-5.758a.833.833 0 0 0 .013-1.16c-4.092-4.435-6.318-10.612-5.291-17.332 1.356-8.886 8.478-16.006 17.364-17.363 6.574-1.002 12.625 1.106 17.037 5.029.502.445 1.256.448 1.73-.027l4.7-4.7a.837.837 0 0 1 1.185 0l.46.461z" fill="#3A4345"/><path d="M254.696 91.51V1.112h-74.12c-6.627 0-12 5.373-12 12v89.696" stroke="#3A4345" stroke-width="2"/><path d="M255.918 92.73h-78.207a9.135 9.135 0 0 0 0 18.27h78.207m-79.174-97.47a5 5 0 0 1 5-5h66.006v76.174h-71.006V13.529z" stroke="#3A4345" stroke-width="2"/><path fill-rule="evenodd" clip-rule="evenodd" d="M374.132 46.55c.337-.336.337-.896-.023-1.208-2.724-2.358-6.448-3.588-10.453-2.923-5.259.876-9.499 5.116-10.374 10.375-.667 4.005.563 7.73 2.922 10.454.311.36.872.358 1.208.023l16.72-16.72zm13.551-11.444a.837.837 0 0 1 0 1.184l-10.95 10.95a.84.84 0 0 0-.107 1.044c1.55 2.498 2.263 5.564 1.725 8.815-.873 5.276-5.114 9.516-10.39 10.39-3.251.538-6.318-.175-8.815-1.724a.84.84 0 0 0-1.044.106l-11.729 11.73a.84.84 0 0 1-1.185 0l-.461-.46a.838.838 0 0 1 0-1.185l5.758-5.758a.834.834 0 0 0 .012-1.16c-4.092-4.435-6.317-10.612-5.291-17.332 1.357-8.885 8.478-16.006 17.364-17.362 6.574-1.003 12.626 1.105 17.037 5.028.503.446 1.256.448 1.731-.027l4.699-4.7a.837.837 0 0 1 1.185 0l.461.461z" fill="#3A4345"/><path stroke="#3A4345" stroke-width="2" d="M361.362 3.946h8.994v8.994h-8.994z"/><path d="M411.278 54.862c0 25.085-20.335 45.42-45.419 45.42v2c26.189 0 47.419-21.23 47.419-47.42h-2zm-45.419 45.42c-25.085 0-45.42-20.335-45.42-45.42h-2c0 26.19 21.231 47.42 47.42 47.42v-2zm-45.42-45.42c0-23.673 18.113-43.118 41.235-45.23l-.181-1.99c-24.143 2.204-43.054 22.503-43.054 47.22h2zm49.604-45.23c23.123 2.112 41.235 21.557 41.235 45.23h2c0-24.717-18.91-45.016-43.053-47.22l-.182 1.99z" fill="#3A4345"/><circle cx="365.859" cy="54.862" r="38.522" stroke="#3A4345" stroke-width="2"/><path d="M370.134 8.443h40.007" stroke="#3A4345" stroke-width="2"/><circle cx="410.446" cy="8.443" r="3.054" fill="#3A4345"/><path d="M361.583 8.443h-40.006" stroke="#3A4345" stroke-width="2"/><circle r="3.054" transform="matrix(-1 0 0 1 321.272 8.443)" fill="#3A4345"/></svg>