<svg width="488" height="105" viewBox="0 0 488 105" fill="none" xmlns="http://www.w3.org/2000/svg"><path clip-rule="evenodd" d="M150.917 36.809a4.16 4.16 0 0 0-5.881 5.882l25.631 25.631a4.161 4.161 0 0 0 5.882 0 4.161 4.161 0 0 0 0-5.882l-25.632-25.63z" stroke="#3A4345" stroke-width="2"/><path d="M143.822 60.182a4.147 4.147 0 0 0 1.214 3.106l5.033 5.034a4.161 4.161 0 0 0 5.882 0 4.161 4.161 0 0 0 0-5.882l-12.129-12.13m33.929-5.178a4.15 4.15 0 0 0-1.202-3.29l-5.034-5.033a4.161 4.161 0 0 0-5.882 0 4.161 4.161 0 0 0 0 5.882l12.133 12.132-.015-9.691z" stroke="#3A4345" stroke-width="2" stroke-linecap="round"/><path d="M143.818 40.036V60.35m33.948-15.283V65.38 45.067z" stroke="#3A4345" stroke-width="2"/><path d="M176.549 35.591l1.499 1.499m-34.23 31.232l1.499 1.499m15.475-45.27c15.461 0 28.014 12.553 28.014 28.014 0 15.461-12.553 28.014-28.014 28.014-15.461 0-28.013-12.553-28.013-28.014 0-15.461 12.552-28.013 28.013-28.013z" stroke="#3A4345" stroke-width="2" stroke-linecap="round"/><path clip-rule="evenodd" d="M160.792 8.352c24.405 0 44.219 19.814 44.219 44.22 0 24.405-19.814 44.22-44.219 44.22s-44.219-19.815-44.219-44.22c0-24.406 19.814-44.22 44.219-44.22z" stroke="#3A4345" stroke-width="2" stroke-linecap="round"/><path d="M189.218 52.565h15.798" stroke="#3A4345" stroke-width="2"/><path fill-rule="evenodd" clip-rule="evenodd" d="M110.565 51.672a1.164 1.164 0 1 0-1.645 1.647 1.164 1.164 0 0 0 1.645-1.647zm100.458 0a1.164 1.164 0 1 1 1.646 1.645 1.164 1.164 0 0 1-1.646-1.645z" fill="#3A4345"/><path d="M110.266 45.022c3.66-24.665 24.97-43.59 50.637-43.537 25.579.053 46.754 18.937 50.42 43.493M110.266 60.121c3.66 24.665 24.97 43.59 50.637 43.537 25.579-.053 46.754-18.937 50.42-43.493" stroke="#3A4345" stroke-width="2" stroke-linecap="round"/><path d="M116.573 52.565h15.798M27.733 87.19v14.325c7.934-.001 14.375-6.419 14.375-14.325H27.733zm0 0a44.468 44.468 0 0 0 14.815-9.239h28.15l3.585 3.573v-3.696c0-.775-.28-1.486-.744-2.036l-.027-.032a3.17 3.17 0 0 0-.332-.331l-18.214-18.15a44.097 44.097 0 0 0 1.517-11.503c0-18.931-11.957-35.102-28.75-41.413v25.779L1.27 3.772V43.71c0 16.19 11.3 29.77 26.463 33.33v10.15z" stroke="#3A4345" stroke-width="2"/><path fill-rule="evenodd" clip-rule="evenodd" d="M62.507 70.896a1.963 1.963 0 1 1-.001 3.927 1.963 1.963 0 0 1 .001-3.927z" fill="#3A4345"/><path d="M424.441 87.83s-7.831.802-9.588 1.013c-1.757.207-3.911 1.61-3.911 4.115 0 2.506 2.365 4.116 4.485 4.653 2.121.537 5.264.83 6.446 1.01 1.182.178 1.891-.323 2.255-1.01.178-.333 1.852-4.42 1.852-4.42m4.812-79.344c-1.218-.802-5.399-.802-6.617 0m6.351 73.983s7.831.802 9.588 1.013c1.757.207 3.91 1.61 3.91 4.115 0 2.506-2.364 4.116-4.485 4.653-2.12.537-5.263.83-6.445 1.01-1.182.178-1.892-.323-2.255-1.01-.179-.333-1.852-4.42-1.852-4.42" stroke="#3A4345" stroke-width="2" stroke-miterlimit="10"/><path d="M427.483 7.384c.837.314 3.113 4.093 3.113 5.875l-.008.34.265.224c.826.74 2.391 3.698 2.391 9.584 0 2.592 0 5.82 2.959 5.82h42.842c3.934 0 6.941.358 6.941 4.855 0 8.982-7.722 10.958-8.055 11.04-.336.082-33.564 8.165-35.967 8.781l-.313.079c-2.661.668-8.896 2.237-9.767 8.919-.396 3.044-.859 9.984-1.266 16.105-.321 4.807-.62 9.349-.781 10.182-.276 1.427-1.711 4.176-2.35 5.333-.635-1.154-2.073-3.906-2.35-5.333-.16-.83-.463-5.371-.781-10.182-.407-6.121-.866-13.061-1.266-16.105-.871-6.682-7.106-8.25-9.766-8.92l-.314-.078c-2.406-.616-35.635-8.699-35.971-8.78-.086-.023-8.055-2.025-8.055-11.041 0-4.497 3.008-4.856 6.942-4.856h42.841c2.959 0 2.959-3.227 2.959-5.819 0-5.886 1.562-8.845 2.384-9.577l.265-.224v-.347c-.004-1.778 2.272-5.561 3.108-5.875zm0-.755c-1.244 0-3.859 4.64-3.859 6.63 0 0-2.645 2.241-2.645 10.148 0 2.614 0 5.072-2.212 5.072h-42.841c-3.269 0-7.689.03-7.689 5.603 0 9.71 8.623 11.765 8.623 11.765s33.531 8.153 35.959 8.777c2.429.624 8.687 1.931 9.527 8.374.721 5.535 1.682 24.4 2.055 26.332.374 1.93 2.586 5.853 2.739 6.099.123.198.269.22.321.22h.045c.052 0 .198-.018.321-.22.157-.25 2.365-4.172 2.739-6.1.373-1.926 1.333-20.796 2.054-26.331.841-6.443 7.099-7.75 9.527-8.374 2.429-.624 35.96-8.777 35.96-8.777s8.623-2.054 8.623-11.765c0-5.573-4.42-5.603-7.689-5.603H436.2c-2.212 0-2.212-2.457-2.212-5.072 0-7.907-2.645-10.148-2.645-10.148.003-1.99-2.612-6.63-3.86-6.63z" stroke="#3A4345"/><path d="M427.483 95.324V61.04m-5.112-.277h10.225m-7.819 34.887h-8.922v-3.008h-4.913m19.248 3.008h8.922v-3.008h4.912" stroke="#3A4345" stroke-miterlimit="10"/><path d="M424.777 10.238h-13.835m33.684 0h-13.834" stroke="#3A4345" stroke-width="2" stroke-miterlimit="10"/><path d="M395.905 48.132l17.99 2.406h7.874m-25.864-.602v-3.074l-20.45-2.94v1.193m83.606 3.017l-17.985 2.406h-7.878m25.863-.602v-3.074l20.451-2.94v1.193" stroke="#3A4345" stroke-miterlimit="10"/><path d="M403.123 28.884v-4.812m6.015 4.812v-4.812m37.292 4.812v-4.812m5.414 4.812v-4.812m-10.226 26.466V28.884M413.95 50.538V28.884" stroke="#3A4345" stroke-width="2" stroke-miterlimit="10"/><path d="M453.047 34.298l1.08 3.325h3.496l-2.828 2.055 1.08 3.325-2.828-2.055-2.829 2.054 1.08-3.324-2.828-2.055h3.496l1.081-3.325z" fill="#3A4345"/><path d="M305.011 64.474c7.307 8.36 18.658 11.262 18.658 11.262s4.16-14.844-2.476-26.338m-45.492 15.076c-7.307 8.36-18.658 11.262-18.658 11.262s-4.16-14.844 2.476-26.338" stroke="#3A4345" stroke-width="2"/><path d="M310.465 69.553c2.572 7.072.583 14.758.583 14.758s-8.727-2.046-13.711-8.466m-27.09-6.292c-2.572 7.072-.583 14.758-.583 14.758s8.727-2.046 13.711-8.466" stroke="#3A4345" stroke-width="2"/><path d="M269.041 13.8c-4.295-2.6-9.529-4.89-9.529-4.89s18.009-5.361 30.844-1.078m21.315 5.968c4.295-2.6 9.529-4.89 9.529-4.89s-18.009-5.361-30.844-1.078l21.315 5.968z" stroke="#3A4345" stroke-width="2" stroke-linecap="square"/><path clip-rule="evenodd" d="M290.356 7.832c11.764 0 21.315 15.88 21.315 35.44 0 19.559-21.315 40.153-21.315 40.153S269.041 62.83 269.041 43.27c0-19.56 9.551-35.439 21.315-35.439z" stroke="#3A4345" stroke-width="2" stroke-linecap="square"/><path d="M308.672 68.265c0 16.807-18.316 34.504-18.316 34.504S272.04 85.072 272.04 68.265m18.316-60.433c0 23.897-19.401 43.298-43.298 43.298 0-23.897 19.401-43.298 43.298-43.298zm0 0c23.897 0 43.298 19.401 43.298 43.298-23.897 0-43.298-19.4-43.298-43.298z" stroke="#3A4345" stroke-width="2"/><path d="M268.97 13.786c12.793 7.528 21.386 21.44 21.386 37.344m0 0c-15.904 0-29.816-8.593-37.344-21.385m37.344 21.385c15.981 0 29.951-8.676 37.453-21.572M290.241 51.13c0-15.892 8.581-29.797 21.359-37.328" stroke="#3A4345" stroke-width="2" stroke-linecap="round" stroke-linejoin="round"/><path d="M285.911 58.621h5.021v13.38" stroke="#3A4345" stroke-width="4"/><path d="M290.356 7.832V.342" stroke="#3A4345" stroke-width="2"/></svg>