<svg width="433" height="104" viewBox="0 0 433 104" fill="none" xmlns="http://www.w3.org/2000/svg"><path d="M66.59 85.712c35.95 0 65.092-33.971 65.092-33.971S102.54 17.769 66.591 17.769" stroke="#3A4345" stroke-width="2"/><path d="M66.59 85.712c18.763 0 33.973-15.21 33.973-33.971 0-18.762-15.21-33.972-33.972-33.972" stroke="#3A4345" stroke-width="2"/><path d="M66.59 69.634c9.883 0 17.894-8.011 17.894-17.893 0-9.883-8.01-17.894-17.893-17.894" stroke="#3A4345" stroke-width="2"/><path d="M66.59 85.712c-35.948 0-65.09-33.971-65.09-33.971s29.142-33.972 65.09-33.972" stroke="#3A4345" stroke-width="2" stroke-dasharray="2 4"/><path d="M66.59 85.712c-18.761 0-33.97-15.21-33.97-33.971 0-18.762 15.209-33.972 33.97-33.972" stroke="#3A4345" stroke-width="2" stroke-dasharray="2 4"/><path d="M66.59 69.634c-9.881 0-17.893-8.011-17.893-17.893 0-9.883 8.012-17.894 17.894-17.894" stroke="#3A4345" stroke-width="2" stroke-dasharray="2 4"/><path stroke="#3A4345" stroke-width="2" d="M66.294.653v102.694m156.152-51.435c0-12.193-7.65-22.6-18.412-26.68m34.49 26.68c0-16.512-8.972-30.928-22.307-38.64m38.904 38.64c0-21.12-10.698-39.74-26.97-50.74"/><path d="M222.446 51.912c0 12.193-7.65 22.6-18.412 26.681m34.49-26.681c0 16.512-8.972 30.928-22.307 38.64m38.904-38.64c0 21.12-10.698 39.74-26.97 50.74" stroke="#3A4345" stroke-width="2" stroke-dasharray="2 4"/><path stroke="#3A4345" stroke-width="2" d="M284.684 53.519H181.991"/><path d="M432.5 6.877h-45.123V52" stroke="#3A4345" stroke-width="2" stroke-dasharray="2 4"/><path d="M387.377 52h-45.122v45.123m77.613-13.295l-72.615-72.615" stroke="#3A4345" stroke-width="2"/></svg>