<svg width="489" height="110" viewBox="0 0 489 110" fill="none" xmlns="http://www.w3.org/2000/svg"><path d="M54.518 97.984c-23.736 0-43.047-19.283-43.047-42.984s19.31-42.984 43.047-42.984c11.416 0 21.805 4.464 29.52 11.733.65.65 1.543.507 2.196-.142l5.028-5.023c.653-.65.653-1.721-.038-2.466l-.598-.554C81.109 6.868 68.434 1.56 54.518 1.56 24.96 1.56 1 25.487 1 55c0 29.513 23.96 53.44 53.518 53.44a52.32 52.32 0 0 0 4.69-.214c.65-.057 1.897-.71 1.892-2.063-.005-1.354-.108-6.002-.178-7.211-.07-1.21-1.437-1.248-2.145-1.178a43.44 43.44 0 0 1-4.259.21z" stroke="#3A4345" stroke-width="2"/><path d="M59.944 62.077s.603 23.78.603 25.518c0 1.545-.994 1.816-1.532 1.888a34.533 34.533 0 0 1-4.542.303c-19.2 0-34.82-15.604-34.82-34.786 0-19.182 15.62-34.786 34.82-34.786 17.018 0 31.214 12.263 34.222 28.407.104.561-.016 1.67-1.722 1.545s-14.716-1.123-14.716-1.123c-.688-.051-1.288-.657-1.335-1.343l-1.1-16.04a1.365 1.365 0 0 0-1.339-1.25h-6.025c-.69 0-1.291.562-1.339 1.25L60.014 47.7c-.048.686-.648 1.292-1.335 1.343l-19.904 1.52a1.375 1.375 0 0 0-1.249 1.346v6.019c0 .688.563 1.294 1.25 1.344l19.887 1.461c.688.05 1.264.656 1.281 1.344z" stroke="#3A4345" stroke-width="2"/><path d="M71.093 62.288a1.287 1.287 0 0 1 1.253-1.238h33.652c1.529 0 1.419 1.169 1.336 1.752-1.572 10.946-6.579 21.498-15.047 29.92-.29.288-.585.563-.882.838l-.223.208c-.01.011-.014.026-.026.039l-.595.55a53.285 53.285 0 0 1-18.618 11.008c-.636.218-1.9-.291-1.874-1.346l.002-.109c.03-1.248.144-5.927.174-7.093.04-1.486 1.009-2.293 1.484-2.5a42.957 42.957 0 0 0 12.274-8.076.593.593 0 0 1 .056-.046.667.667 0 0 0 .044-.034c.088-.084.177-.167.266-.249.184-.17.368-.341.548-.52a42.31 42.31 0 0 0 8.93-13.005c.22-.499.038-1.509-1.121-1.509H86.79c-1.352 0-1.925.767-2.136 1.146-3.022 5.392-7.17 9.903-12.46 13.033-.55.325-1.621.05-1.634-1.099-.014-1.15.532-21.67.532-21.67zm236.508 35.696c-23.736 0-43.047-19.283-43.047-42.984s19.311-42.984 43.047-42.984c11.416 0 21.805 4.464 29.52 11.733.651.65 1.543.507 2.196-.142l5.028-5.023c.653-.65.653-1.721-.038-2.466l-.598-.554C334.192 6.868 321.517 1.56 307.601 1.56c-29.558 0-53.518 23.927-53.518 53.44 0 29.513 23.96 53.44 53.518 53.44a52.32 52.32 0 0 0 4.69-.214c.649-.057 1.897-.71 1.892-2.063-.005-1.354-.108-6.002-.178-7.211-.07-1.21-1.437-1.248-2.146-1.178-1.4.138-2.821.21-4.258.21z" stroke="#3A4345" stroke-width="2"/><path d="M313.027 62.077s.603 23.78.603 25.518c0 1.545-.994 1.816-1.532 1.888a34.533 34.533 0 0 1-4.542.303c-19.199 0-34.819-15.604-34.819-34.786 0-19.182 15.62-34.786 34.819-34.786 17.018 0 31.214 12.263 34.222 28.407.104.561-.017 1.67-1.722 1.545-1.706-.125-14.716-1.123-14.716-1.123-.688-.051-1.288-.657-1.335-1.343l-1.1-16.04a1.366 1.366 0 0 0-1.339-1.25h-6.025c-.689 0-1.291.562-1.339 1.25l-1.105 16.04c-.048.686-.648 1.292-1.335 1.343l-19.904 1.52a1.376 1.376 0 0 0-1.249 1.346v6.019c0 .688.563 1.294 1.25 1.344l19.887 1.461c.688.05 1.264.656 1.281 1.344z" stroke="#3A4345" stroke-width="2"/><path d="M324.176 62.288a1.287 1.287 0 0 1 1.253-1.238h33.652c1.529 0 1.419 1.169 1.336 1.752-1.572 10.946-6.579 21.498-15.047 29.92-.289.288-.585.563-.882.838l-.223.208c-.011.011-.014.026-.026.039l-.595.55a53.285 53.285 0 0 1-18.618 11.008c-.636.218-1.901-.291-1.874-1.346l.003-.109c.03-1.248.143-5.927.173-7.093.039-1.486 1.009-2.293 1.484-2.5a42.95 42.95 0 0 0 12.274-8.076.593.593 0 0 1 .056-.046.47.47 0 0 0 .044-.034c.088-.084.177-.167.266-.249.184-.17.368-.341.548-.52a42.32 42.32 0 0 0 8.93-13.005c.22-.499.038-1.509-1.121-1.509h-5.935c-1.352 0-1.925.767-2.136 1.146-3.022 5.392-7.17 9.903-12.461 13.033-.549.325-1.62.05-1.633-1.099-.014-1.15.532-21.67.532-21.67zm109.967 35.696c-23.737 0-43.048-19.283-43.048-42.984s19.311-42.984 43.048-42.984c11.415 0 21.805 4.464 29.52 11.733.65.65 1.542.507 2.195-.142l5.029-5.023c.652-.65.652-1.721-.039-2.466l-.598-.554C460.733 6.868 448.059 1.56 434.143 1.56c-29.559 0-53.518 23.927-53.518 53.44 0 29.513 23.959 53.44 53.518 53.44a52.32 52.32 0 0 0 4.69-.214c.649-.057 1.896-.71 1.891-2.063-.004-1.354-.108-6.002-.178-7.211-.069-1.21-1.436-1.248-2.145-1.178a43.42 43.42 0 0 1-4.258.21z" stroke="#3A4345" stroke-width="2"/><path d="M439.569 62.077s.603 23.78.603 25.518c0 1.545-.994 1.816-1.533 1.888a34.53 34.53 0 0 1-4.541.303c-19.2 0-34.82-15.604-34.82-34.786 0-19.182 15.62-34.786 34.82-34.786 17.018 0 31.213 12.263 34.221 28.407.105.561-.016 1.67-1.721 1.545-1.707-.125-14.717-1.123-14.717-1.123-.688-.051-1.287-.657-1.335-1.343l-1.1-16.04a1.364 1.364 0 0 0-1.338-1.25h-6.025c-.69 0-1.292.562-1.339 1.25l-1.106 16.04c-.047.686-.647 1.292-1.335 1.343l-19.904 1.52a1.375 1.375 0 0 0-1.248 1.346v6.019c0 .688.562 1.294 1.249 1.344l19.888 1.461c.688.05 1.263.656 1.281 1.344z" stroke="#3A4345" stroke-width="2"/><path d="M450.717 62.288a1.287 1.287 0 0 1 1.253-1.238h33.653c1.529 0 1.419 1.169 1.335 1.752-1.571 10.946-6.578 21.498-15.047 29.92a34.6 34.6 0 0 1-.881.838l-.224.208c-.01.011-.014.026-.025.039l-.596.55a53.276 53.276 0 0 1-18.618 11.008c-.636.218-1.9-.291-1.874-1.346l.003-.109c.03-1.248.143-5.927.173-7.093.04-1.486 1.009-2.293 1.484-2.5a42.969 42.969 0 0 0 12.275-8.076.395.395 0 0 1 .056-.046l.043-.034.267-.249c.184-.17.368-.341.547-.52a42.302 42.302 0 0 0 8.93-13.005c.22-.499.038-1.509-1.121-1.509h-5.935c-1.351 0-1.924.767-2.135 1.146-3.022 5.392-7.171 9.903-12.461 13.033-.549.325-1.621.05-1.633-1.099-.014-1.15.531-21.67.531-21.67z" stroke="#3A4345" stroke-width="2"/><path fill-rule="evenodd" clip-rule="evenodd" d="M186.486 62.077s.603 23.78.603 25.518c0 1.545-.994 1.816-1.533 1.888a34.53 34.53 0 0 1-4.541.303c-19.2 0-34.82-15.604-34.82-34.786 0-19.182 15.62-34.786 34.82-34.786 17.018 0 31.213 12.263 34.221 28.407.105.561-.016 1.67-1.721 1.545-1.707-.125-14.717-1.123-14.717-1.123-.688-.051-1.287-.657-1.335-1.343l-1.1-16.04a1.364 1.364 0 0 0-1.338-1.25h-6.026c-.689 0-1.291.562-1.338 1.25l-1.106 16.04c-.047.686-.647 1.292-1.335 1.343l-19.904 1.52a1.375 1.375 0 0 0-1.248 1.346v6.019c0 .688.562 1.294 1.249 1.344l19.888 1.461c.688.05 1.263.656 1.281 1.344z" fill="#3A4345"/><path fill-rule="evenodd" clip-rule="evenodd" d="M181.06 97.984c-23.737 0-43.048-19.283-43.048-42.984s19.311-42.984 43.048-42.984c11.415 0 21.805 4.464 29.52 11.733.65.65 1.542.507 2.195-.142l5.028-5.023c.653-.65.653-1.721-.038-2.466l-.598-.554C207.65 6.868 194.976 1.56 181.06 1.56c-29.559 0-53.519 23.927-53.519 53.44 0 29.513 23.96 53.44 53.519 53.44 1.581 0 3.144-.074 4.69-.214.649-.057 1.896-.71 1.891-2.063-.004-1.354-.108-6.002-.178-7.211-.07-1.21-1.437-1.248-2.145-1.178a43.42 43.42 0 0 1-4.258.21z" fill="#3A4345"/><path fill-rule="evenodd" clip-rule="evenodd" d="M198.887 61.05a1.287 1.287 0 0 0-1.253 1.238s-.545 20.52-.531 21.67c.012 1.15 1.084 1.424 1.633 1.099 5.29-3.13 9.439-7.64 12.461-13.033.211-.379.784-1.146 2.135-1.146h5.935c1.159 0 1.341 1.01 1.121 1.509a42.316 42.316 0 0 1-8.929 13.004c-.267.266-.543.513-.815.77-.032.028-.068.05-.099.08a42.971 42.971 0 0 1-12.275 8.075c-.475.207-1.444 1.015-1.484 2.501-.031 1.203-.15 6.147-.176 7.202-.026 1.055 1.239 1.564 1.874 1.346a53.276 53.276 0 0 0 18.618-11.008l.596-.55c.011-.013.015-.028.025-.04.371-.345.744-.684 1.105-1.045 8.469-8.422 13.476-18.975 15.047-29.92.084-.583.194-1.752-1.335-1.752h-33.653z" fill="#3A4345"/></svg>