<svg width="447" height="162" viewBox="0 0 447 162" fill="none" xmlns="http://www.w3.org/2000/svg"><path stroke="#3A4345" stroke-width="2" d="M1 1.429h138.35v159.142H1zm152.825 0h138.35v159.142h-138.35zm152.825 0H445v159.142H306.65z"/><rect x="192.331" y="122.065" width="61.338" height="18.713" rx="3" fill="#3A4345"/><rect x="40.506" y="123.065" width="59.338" height="16.713" rx="2" stroke="#3A4345" stroke-width="2"/><rect x="346.156" y="123.065" width="59.338" height="16.713" rx="2" stroke="#3A4345" stroke-width="2"/><rect x="201.168" y="56.049" width="43.664" height="10.396" rx="5.198" fill="#3A4345"/><path fill="#3A4345" d="M38.466 20.702h62.378v10.396H38.466zm152.825 0h62.378v10.396h-62.378zm153.345 0h62.378v10.396h-62.378zM22.872 39.415h93.566v4.159H22.872zm153.345 0h93.566v4.159h-93.566zm152.825 0h93.566v4.159h-93.566z"/></svg>