<svg width="489" height="98" viewBox="0 0 489 98" fill="none" xmlns="http://www.w3.org/2000/svg"><rect x="114" y="1" width="374" height="46" rx="3" stroke="#3A4345" stroke-width="2"/><path d="M113 4a4 4 0 0 1 4-4h4v48h-4a4 4 0 0 1-4-4V4z" fill="#3A4345"/><path d="M117 51h3v46h-3a3 3 0 0 1-3-3V54a3 3 0 0 1 3-3z" stroke="#3A4345" stroke-width="2"/><rect x="114" y="51" width="374" height="46" rx="3" stroke="#3A4345" stroke-width="2"/><path stroke="#3A4345" stroke-width="2" d="M0 1h108"/><path d="M472.625 17.5l6.5 6.5-6.5 6.5m0 37l6.5 6.5-6.5 6.5" stroke="#3A4345" stroke-width="2" stroke-linecap="round"/><path fill="#3A4345" d="M135 18h57v12.5h-57zm103 3h33v6.5h-33zm47 0h49v6.5h-49zm93.812 0h49v6.5h-49zM238 70.75h33v6.5h-33zm47 0h49v6.5h-49zm93.812 0h49v6.5h-49zM135 67.5h57V80h-57zM10.02 18.031c0 .697-.18 1.319-.538 1.866a3.74 3.74 0 0 1-1.464 1.279c.742.345 1.311.817 1.709 1.416.403.599.605 1.276.605 2.031 0 1.25-.423 2.243-1.27 2.979-.846.729-1.972 1.093-3.378 1.093-1.413 0-2.546-.367-3.399-1.103-.846-.736-1.27-1.726-1.27-2.969 0-.762.202-1.445.606-2.05.404-.606.97-1.072 1.7-1.397a3.757 3.757 0 0 1-1.456-1.28c-.351-.546-.527-1.168-.527-1.865 0-1.21.39-2.171 1.172-2.88.781-.71 1.836-1.065 3.164-1.065 1.334 0 2.392.355 3.174 1.064.78.71 1.171 1.67 1.171 2.881zm-2.061 6.475c0-.703-.212-1.27-.635-1.7-.416-.436-.97-.654-1.66-.654s-1.243.215-1.66.645c-.41.43-.615 1-.615 1.709 0 .697.201 1.253.605 1.67.41.416.973.625 1.69.625.716 0 1.272-.202 1.67-.606.403-.403.605-.966.605-1.69zm-.303-6.387c0-.618-.179-1.126-.537-1.523-.358-.404-.84-.606-1.445-.606-.606 0-1.084.192-1.436.576-.351.378-.527.896-.527 1.553 0 .651.176 1.169.527 1.553.358.384.84.576 1.446.576.605 0 1.084-.192 1.435-.576.358-.384.537-.902.537-1.553zM14.014 26c.442 0 .784.127 1.025.38.24.248.361.56.361.938 0 .371-.12.68-.36.928-.242.241-.584.361-1.026.361-.423 0-.759-.12-1.006-.36-.248-.242-.371-.551-.371-.929 0-.377.12-.69.361-.937.24-.254.58-.381 1.016-.381zm0-8.291c.442 0 .784.127 1.025.38.24.248.361.56.361.938 0 .371-.12.68-.36.928-.242.241-.584.361-1.026.361-.423 0-.759-.12-1.006-.36-.248-.242-.371-.551-.371-.929 0-.377.12-.69.361-.937.24-.254.58-.381 1.016-.381zm6.474 2.598h1.446c.729-.007 1.305-.196 1.728-.567.43-.37.645-.908.645-1.611 0-.677-.18-1.201-.537-1.572-.352-.378-.892-.567-1.622-.567-.638 0-1.162.186-1.572.557-.41.364-.615.843-.615 1.435h-2.373c0-.729.192-1.393.576-1.992.39-.599.931-1.064 1.621-1.396.697-.339 1.475-.508 2.334-.508 1.42 0 2.533.358 3.34 1.074.814.71 1.22 1.7 1.22 2.969 0 .638-.204 1.24-.614 1.806-.404.56-.928.984-1.573 1.27.781.267 1.374.687 1.777 1.26.41.573.616 1.256.616 2.05 0 1.277-.44 2.292-1.319 3.047-.872.756-2.021 1.133-3.447 1.133-1.367 0-2.487-.364-3.36-1.093-.872-.73-1.308-1.7-1.308-2.91h2.373c0 .624.209 1.132.625 1.523.423.39.99.586 1.7.586.735 0 1.314-.195 1.738-.586.423-.39.634-.957.634-1.7 0-.748-.22-1.324-.664-1.728-.442-.403-1.1-.605-1.972-.605h-1.397v-1.875zm17.891 2.207c0 2.044-.384 3.587-1.152 4.629-.762 1.035-1.924 1.552-3.487 1.552-1.536 0-2.695-.504-3.476-1.513-.775-1.016-1.172-2.517-1.192-4.502v-2.461c0-2.045.381-3.578 1.143-4.6.768-1.022 1.937-1.533 3.506-1.533 1.556 0 2.715.498 3.476 1.494.768.996 1.162 2.487 1.182 4.473v2.46zm-2.373-2.657c0-1.334-.182-2.31-.547-2.93-.365-.624-.944-.937-1.738-.937-.775 0-1.345.296-1.71.889-.364.586-.556 1.504-.576 2.754v3.223c0 1.328.186 2.317.557 2.968.371.651.954.977 1.748.977.762 0 1.325-.3 1.69-.899.364-.605.556-1.55.576-2.832v-3.213zm12.039 6.657H44.74l-.69 1.986h-1.541l3.222-8.531h1.33l3.23 8.531h-1.548l-.697-1.986zm-2.889-1.196h2.473l-1.236-3.539-1.237 3.54zm8.028-5.349l2.46 6.539 2.456-6.54h1.916V28.5h-1.477v-2.813l.146-3.761-2.519 6.574h-1.06l-2.514-6.568.146 3.756V28.5h-1.476v-8.531h1.922z"/></svg>