<svg width="493" height="96" viewBox="0 0 493 96" fill="none" xmlns="http://www.w3.org/2000/svg"><g clip-path="url(#a)"><path d="M150.686 56.608l.584-.585-.464-.684a166.376 166.376 0 0 0-3.122-4.44l-.17-.234.001-.001-.151-.205-.369-.507-.003.003a166.017 166.017 0 0 0-3.278-4.293l-.696-.883-.517.517a154.668 154.668 0 0 0-5.806-6.96l.473-.473-.637-.705a165.917 165.917 0 0 0-3.691-3.955l-.707-.733-.458.458a153.423 153.423 0 0 0-2.942-2.943l.458-.458-.733-.707a169.329 169.329 0 0 0-3.955-3.69l-.706-.637-.472.473a154.546 154.546 0 0 0-6.96-5.807l.516-.516-.883-.697a165.316 165.316 0 0 0-4.293-3.278l.003-.002-.526-.384-.184-.136-.002.002-.234-.17a166.492 166.492 0 0 0-4.44-3.123l-.685-.465-.584.585-.629.629-26.593 26.593-.629.628-.585.585.465.684a168.972 168.972 0 0 0 3.123 4.44l.17.235-.001.001.159.216.36.495.003-.003a169.02 169.02 0 0 0 3.278 4.292l.697.883.515-.515a155.085 155.085 0 0 0 5.807 6.96l-.472.471.637.706a169.396 169.396 0 0 0 3.69 3.955l.706.734.459-.459a156.99 156.99 0 0 0 2.942 2.943l-.458.458.734.707a169.2 169.2 0 0 0 3.955 3.69l.705.637.472-.472a155.386 155.386 0 0 0 6.96 5.806l-.516.516.883.697a169.757 169.757 0 0 0 4.293 3.278l-.003.003.495.36.213.158.002-.002.236.172a166.543 166.543 0 0 0 4.441 3.123l.684.464.584-.585 27.851-27.85z" stroke="#3A4345" stroke-width="2"/><path fill-rule="evenodd" clip-rule="evenodd" d="M132.956 37.63l-1.487-1.583-14.45 14.45c.518.506 1.635 1.435 1.635 1.435l14.302-14.302zm-7.579-7.675l-1.582-1.486-14.303 14.302s.929 1.117 1.435 1.635l14.45-14.451zm18.586 20.505l-1.349-1.703-11.868 11.869c.534.483 1.726 1.324 1.726 1.324l11.491-11.49zm3.917 5.154l-1.263-1.773-7.737 7.737c.53.483 1.059.966 1.589 1.447l7.411-7.411zM113.126 19.27l-1.702-1.35-11.49 11.491s.84 1.192 1.324 1.727l11.868-11.869zm-5.156-4.584l-1.772-1.263-7.411 7.41c.48.53.963 1.06 1.447 1.59l7.736-7.737z" fill="#3A4345"/><path d="M247.397 43.15l-8.121-7.356.04-.04.743-.743-.778-.705-3.803-3.445-.706-.64-.673.674-.11.11-1.959-1.774.04-.04.743-.744-.779-.705-3.803-3.444-.705-.639-.673.673-.109.11-1.96-1.775.04-.04.743-.743-.779-.706-3.802-3.444-.706-.639-.673.673-.11.11-1.959-1.774.04-.04.743-.743-.778-.706-3.803-3.444-.706-.64-.673.674-.11.11-1.958-1.775.04-.04.743-.743-.779-.705-3.804-3.445-.706-.638-.672.673-.783.782-34.049 34.049-.783.783-.673.673.639.705 3.445 3.804.705.778.743-.743.04-.04 1.775 1.96-.11.109-.673.673.639.705 3.445 3.803.706.778.743-.742.039-.04 1.775 1.959-.11.11-.673.673.639.705 3.444 3.803.705.778.743-.743.04-.04 1.775 1.96-.11.11-.673.673.639.705 3.445 3.803.705.778.743-.743.039-.04 1.775 1.96-.11.11-.673.673.639.705 3.446 3.803.705.778.743-.742.039-.04 7.357 8.12-.11.11-.673.673.639.706 6.769 7.472.705.779.743-.743.782-.782 2.068-2.069 2.03 1.237.672.409.555-.556 2.013-2.013.556-.556-.409-.671-1.236-2.03 26.248-26.248 2.03 1.236.672.409.555-.556 2.014-2.014.556-.555-.409-.672-1.237-2.03 2.068-2.067.783-.783.742-.743-.778-.705-7.473-6.769-.705-.639-.673.673-.11.11z" stroke="#3A4345" stroke-width="2"/><path d="M219.965 55.106c.58-.58 1.53-.842 2.739-.614 1.204.227 2.556.93 3.725 2.099s1.872 2.521 2.099 3.725c.227 1.21-.034 2.159-.614 2.74-.581.58-1.53.84-2.739.612-1.203-.227-2.555-.93-3.725-2.099-1.169-1.17-1.871-2.521-2.098-3.725-.229-1.209.032-2.158.613-2.738z" stroke="#3A4345" stroke-width="2"/><path fill-rule="evenodd" clip-rule="evenodd" d="M234.939 62.122l14.697-14.697-1.476-1.477-14.697 14.697 1.476 1.477zm3.498 3.497l15.023-15.024-1.476-1.476-15.024 15.023 1.477 1.477zm-36.988-36.987L214.43 15.65l-1.476-1.476-12.982 12.981 1.477 1.477zm6.905 6.904l13.424-13.423-1.477-1.477-13.424 13.424 1.477 1.476zm6.905 6.905l13.742-13.742-1.477-1.476-13.742 13.742 1.477 1.476zm6.904 6.905l14.036-14.036-1.477-1.477-14.036 14.037 1.477 1.476zm-27.228-28.01l12.237-12.238-1.476-1.476-12.238 12.237 1.477 1.477z" fill="#3A4345"/><path clip-rule="evenodd" d="M289.403 25.754a8.992 8.992 0 0 1 .336-.314 6.474 6.474 0 0 1 2.044-1.204 6.55 6.55 0 0 1 4.318-.052 6.486 6.486 0 0 1 1.641.826 6.523 6.523 0 0 1 2.447 3.236 6.546 6.546 0 0 1-.156 4.652 6.49 6.49 0 0 1-.635 1.162l-.033.047a1.048 1.048 0 0 0 .157 1.378 1.93 1.93 0 0 0 1.92.472c2.666-.744 9.869-1.906 16.385 4.61l7.869 7.868s6.899 7.31 3.354 15.313c2.017 2.52-3.046 8.638-7.006 12.599-3.96 3.96-10.079 9.024-12.599 7.006-8.002 3.544-15.313-3.354-15.313-3.354l-7.868-7.87c-6.516-6.515-5.354-13.718-4.604-16.381a1.943 1.943 0 0 0-.473-1.928 95.349 95.349 0 0 1-1.838-2.056 2.677 2.677 0 0 1-.66-2.112c1.101-9.016-5.362-15.092-6.42-16.02-.559-.47-1.343.705-1.936.047l-5.394-5.975c-.701-.78.24-.782-.463-1.485-.466-.466.128-.822-.284-1.235l-2.296-1.408a.691.691 0 0 1-.126-1.068l6.434-6.434a.692.692 0 0 1 1.069.125l1.408 2.295c.413.413.769-.18 1.235.285.701.702.709-.237 1.485.463 1.369 1.236 4.894 4.418 5.976 5.393.655.596-.521 1.382-.048 1.937.258.294.914 1.005 1.918 1.858.476.406 1.144.5 1.715.242l6.441-2.918z" stroke="#3A4345" stroke-width="2"/><path fill-rule="evenodd" clip-rule="evenodd" d="M276.884 24.985l-4.1-3.738a.402.402 0 0 0-.556.013l-1.892 1.892a.402.402 0 0 0-.001.569l3.92 3.92a.402.402 0 0 0 .569 0l2.074-2.074a.403.403 0 0 0-.014-.582zm14.879 3.367a2.87 2.87 0 0 0-.637 1.025 2.935 2.935 0 0 0-.054 1.783 2.9 2.9 0 0 0 .32.718 2.918 2.918 0 0 0 1.492 1.195 2.916 2.916 0 0 0 2.079-.062 2.86 2.86 0 0 0 .933-.634 2.862 2.862 0 0 0 .83-1.974 2.836 2.836 0 0 0-.576-1.785 2.898 2.898 0 0 0-.826-.745 2.845 2.845 0 0 0-.757-.315 2.928 2.928 0 0 0-1.731.088 2.822 2.822 0 0 0-1.02.65l-.053.056z" fill="#3A4345"/><path d="M305.392 53.896c-4.621-4.621-4.048-9.596-3.495-11.756l1.592-1.578c2.13-.539 7.115-1.105 11.728 3.508l7.032 7.033c.177.198 1.358 1.565 2.222 3.533.877 1.997 1.38 4.495.332 7.015l-1.831 1.831c-2.515 1.046-5.007.548-7.002-.326-1.972-.864-3.344-2.048-3.547-2.229l-7.031-7.031z" stroke="#3A4345" stroke-width="2"/><path clip-rule="evenodd" d="M414.285 63.77c2.069 2.07-.255 7.75-5.192 12.686-4.938 4.937-10.617 7.262-12.686 5.193-1.899-1.898-.096-6.836 4.027-11.451l-16.683-16.683a3.39 3.39 0 0 0-2.503-.993l-13.293.43a7.577 7.577 0 0 1-6.325-3.063l-17.335-23.351 14.879-14.879 23.352 17.334a7.58 7.58 0 0 1 3.061 6.325l-.428 13.293a3.39 3.39 0 0 0 .992 2.504l16.683 16.683c4.616-4.123 9.553-5.926 11.451-4.028z" stroke="#3A4345" stroke-width="2"/><path d="M375.288 38.335l-17.655-18.041 2.445-2.445 18.989 16.707-3.779 3.78zM3.563 37.493l-.303-.608L21.545 18.6l.61.302 5.031 2.503c.151.075.288.173.406.291 2.856 2.856 25.665 25.665 31.867 31.872a1.83 1.83 0 0 1 .282 2.207l-.267.466.24.48c.28.555.26 1.24-.09 1.802-4.221 6.703-9.705 12.172-16.44 16.436a1.848 1.848 0 0 1-1.807.092l-.48-.24-.465.267a1.832 1.832 0 0 1-2.21-.283L6.358 42.931a1.524 1.524 0 0 1-.29-.403l-.002-.003-2.503-5.032z" stroke="#3A4345" stroke-width="2"/><path d="M22.905 29.134l2.887-2.887 29.674 29.674c.074.074.15.146.217.21l.024.023.168.16c.108.106.18.186.23.25l-.094.188c-.24.482-.428.86-.765 1.347-.32.463-.78 1.032-1.542 1.834L22.905 29.134zm-3.638-2.282l3.348-3.515" stroke="#3A4345" stroke-width="2"/><path clip-rule="evenodd" d="M456.381 36.506l31.749 31.75c2.06 2.059 2.05 5.408-.02 7.478l-10.087 10.087c-2.072 2.072-5.419 2.08-7.479.02l-31.749-31.748a11.367 11.367 0 0 1-2.419-3.577l-6.167-14.427a14.857 14.857 0 0 0-2.711-4.202l-9.012-9.822-.351.015a1.396 1.396 0 0 1-1.455-1.307l-.086-1.337a.601.601 0 0 0-.391-.528l-.518-.193a.902.902 0 0 1-.318-1.484l4.151-4.151a.901.901 0 0 1 1.484.317l.194.518c.083.223.29.376.528.392l1.337.085a1.398 1.398 0 0 1 1.307 1.455l-.016.352 9.823 9.01a14.832 14.832 0 0 0 4.201 2.712l14.428 6.167a11.385 11.385 0 0 1 3.577 2.418z" stroke="#3A4345" stroke-width="2"/><path d="M451.324 37.311a7.75 7.75 0 0 1 2.451 1.657l30.047 30.047c.779.779.781 2.06-.011 2.853l-.727.726a5.618 5.618 0 0 0-1.169-1.672l-30.046-30.047a15.381 15.381 0 0 0-2.76-2.199l-12.005-7.455c.187.088.376.172.566.254l13.654 5.836z" stroke="#3A4345" stroke-width="2"/></g><defs><clipPath id="a"><path fill="#fff" d="M0 0h493v96H0z"/></clipPath></defs></svg>