<svg width="474" height="92" viewBox="0 0 474 92" fill="none" xmlns="http://www.w3.org/2000/svg"><path fill-rule="evenodd" clip-rule="evenodd" d="M187.642 19.077c-1.413-.922-3.305-.614-4.497.579l-.246.246a.375.375 0 0 1-.53 0l-.246-.246c-1.193-1.193-3.084-1.5-4.497-.579a3.53 3.53 0 0 0-.586 5.455l4.91 4.91a.967.967 0 0 0 1.368 0l4.91-4.91a3.53 3.53 0 0 0-.586-5.455z" fill="#3A4345"/><path fill-rule="evenodd" clip-rule="evenodd" d="M147.832 80.49l-.071-.075c-7.38-7.983-10.817-21.247-10.817-34.065 0-12.817 3.437-26.082 10.817-34.064l.071-.076.076-.07c7.982-7.38 21.246-10.817 34.063-10.817 12.818 0 26.082 3.436 34.065 10.817l.076.07.071.076C223.563 20.268 227 33.533 227 46.35c0 12.818-3.437 26.082-10.817 34.065l-.071.076-.076.07c-7.983 7.38-21.247 10.818-34.064 10.818s-26.082-3.437-34.064-10.818l-.076-.07zm1.874-66.405c-13.484 14.583-13.484 49.947 0 64.532 14.585 13.484 49.947 13.484 64.532 0 13.484-14.585 13.484-49.949 0-64.532C199.653.6 164.29.6 149.706 14.085z" fill="#3A4345"/><path d="M173.465 73.5h2.172c1.272 0 2.16-.598 2.16-1.73 0-.814-.458-1.407-1.336-1.53v-.031c.584-.186.978-.625.978-1.367 0-.96-.688-1.521-1.697-1.521h-2.277V73.5zm.719-5.527h1.453c.598 0 1.069.294 1.069.991 0 .747-.53 1.032-1.553 1.032h-.969v-2.023zm0 2.675h1.544c.783 0 1.331.367 1.331 1.14 0 .901-.765 1.055-1.775 1.055h-1.1v-2.195zm5.544-3.327V73.5h.72v-2.381h1.494c1.154 0 1.946-.743 1.946-1.897 0-1.145-.792-1.901-1.946-1.901h-2.214zm.72.652h1.467c.783 0 1.231.462 1.231 1.25 0 1.045-.634 1.249-1.729 1.249h-.969v-2.5zm5.888 5.527v-4.604h.036l1.775 4.129h.647l1.77-4.129h.041V73.5h.656v-6.18h-.697l-2.078 4.948h-.027l-2.087-4.948h-.692v6.18h.656zM125.074 6.868c0-3.078 1.122-4.97 2.906-4.97 1.783 0 2.906 1.892 2.906 4.97v.408c0 3.078-1.123 4.952-2.906 4.952-1.784 0-2.906-1.874-2.906-4.952v-.408zm-1.431.426c0 3.748 1.576 6.21 4.337 6.21 2.77 0 4.327-2.462 4.327-6.21v-.435c0-3.757-1.557-6.237-4.318-6.237-2.77 0-4.346 2.49-4.346 6.237v.435zm12.711-3.042v-.045c0-1.232.878-2.318 2.39-2.318 1.331 0 2.327.833 2.327 2.19 0 1.16-.733 2.038-1.421 2.826l-4.69 5.422v.915h7.822v-1.286h-5.749v-.1l3.422-3.956c1.186-1.367 2.092-2.408 2.092-3.91 0-1.929-1.494-3.368-3.767-3.368-2.489 0-3.838 1.71-3.838 3.585v.045h1.412zm34.515 52.693V38.41h-2.132l-4.414 3.3v2.268l4.305-3.137h.109v16.105h2.132zm12.52 0V38.41h-2.132l-4.413 3.3v2.268l4.305-3.137h.108v16.105h2.132zm7.877-13.485v-.067c0-1.847 1.317-3.477 3.585-3.477 1.996 0 3.49 1.25 3.49 3.287 0 1.738-1.1 3.055-2.132 4.236l-7.035 8.135v1.371h11.733v-1.928h-8.623v-.15l5.133-5.934c1.779-2.05 3.137-3.612 3.137-5.866 0-2.893-2.24-5.052-5.649-5.052-3.734 0-5.758 2.567-5.758 5.378v.068h2.119z" fill="#3A4345"/><path fill-rule="evenodd" clip-rule="evenodd" d="M198.866 15.589a1.26 1.26 0 0 1-.082-.042 35.096 35.096 0 0 0-42.996 7.44 35.09 35.09 0 0 0-1.73 44.63 35.086 35.086 0 0 0 26.588 13.8 1.443 1.443 0 0 1 .093.007 1.364 1.364 0 0 1 1.233 1.345 1.29 1.29 0 0 1-1.326 1.302 37.744 37.744 0 1 1 19.496-70.803 1.29 1.29 0 0 1 .472 1.797 1.364 1.364 0 0 1-1.747.524h-.001zM24.475 80.49l-.07-.075c-7.38-7.983-10.818-21.247-10.818-34.065 0-12.817 3.437-26.082 10.818-34.064l.07-.076.076-.07C32.533 4.76 45.798 1.323 58.615 1.323c12.818 0 26.082 3.436 34.065 10.817l.076.07.07.076c7.381 7.982 10.818 21.247 10.818 34.064 0 12.818-3.437 26.082-10.818 34.065l-.07.076-.076.07c-7.983 7.38-21.247 10.818-34.065 10.818-12.817 0-26.081-3.437-34.064-10.818l-.076-.07zm1.874-66.405c-13.484 14.583-13.484 49.947 0 64.532 14.585 13.484 49.948 13.484 64.533 0 13.484-14.585 13.484-49.949 0-64.532C76.297.6 40.933.6 26.349 14.085z" fill="#3A4345"/><path d="M50.108 73.5h2.173c1.272 0 2.16-.598 2.16-1.73 0-.814-.458-1.407-1.336-1.53v-.031c.584-.186.978-.625.978-1.367 0-.96-.688-1.521-1.698-1.521h-2.277V73.5zm.72-5.527h1.453c.598 0 1.068.294 1.068.991 0 .747-.53 1.032-1.552 1.032h-.969v-2.023zm0 2.675h1.544c.783 0 1.33.367 1.33 1.14 0 .901-.764 1.055-1.774 1.055h-1.1v-2.195zm5.544-3.327V73.5h.72v-2.381h1.494c1.154 0 1.946-.743 1.946-1.897 0-1.145-.792-1.901-1.946-1.901h-2.214zm.72.652h1.467c.783 0 1.23.462 1.23 1.25 0 1.045-.633 1.249-1.728 1.249h-.97v-2.5zM62.98 73.5v-4.604h.036l1.775 4.129h.647l1.77-4.129h.04V73.5h.657v-6.18h-.697l-2.078 4.948h-.027l-2.087-4.948h-.692v6.18h.656zM1.718 6.868c0-3.078 1.122-4.97 2.906-4.97 1.783 0 2.906 1.892 2.906 4.97v.408c0 3.078-1.123 4.952-2.906 4.952-1.784 0-2.906-1.874-2.906-4.952v-.408zm-1.43.426c0 3.748 1.574 6.21 4.336 6.21 2.77 0 4.327-2.462 4.327-6.21v-.435c0-3.757-1.557-6.237-4.318-6.237-2.77 0-4.346 2.49-4.346 6.237v.435zm15.806 5.948V.884h-1.421l-2.943 2.2v1.512l2.87-2.091h.073v10.737h1.421zm29.409 25.167v1.928H54.9v.15l-7.673 16.458h2.268L57.1 40.432V38.41H45.503zm17.246 5.051v-.067c0-1.847 1.317-3.477 3.585-3.477 1.996 0 3.49 1.25 3.49 3.287 0 1.738-1.1 3.055-2.132 4.236l-7.034 8.135v1.371H72.39v-1.928h-8.624v-.15l5.134-5.934c1.779-2.05 3.136-3.612 3.136-5.866 0-2.893-2.24-5.052-5.649-5.052-3.734 0-5.758 2.567-5.758 5.378v.068h2.119z" fill="#3A4345"/><path fill-rule="evenodd" clip-rule="evenodd" d="M64.285 19.077c-1.412-.922-3.304-.614-4.496.579l-.246.246a.375.375 0 0 1-.53 0l-.246-.246c-1.194-1.193-3.085-1.5-4.497-.579a3.53 3.53 0 0 0-.587 5.455l4.91 4.91a.968.968 0 0 0 1.369 0l4.91-4.91a3.53 3.53 0 0 0-.587-5.455zm-34.58 7.378a1.491 1.491 0 0 1-.05.077A35.092 35.092 0 0 0 57.29 81.418a1.364 1.364 0 0 1 1.326 1.35 1.29 1.29 0 0 1-1.326 1.303 37.745 37.745 0 0 1-29.767-59.12 1.29 1.29 0 0 1 1.837-.288c.563.417.698 1.195.345 1.79v.002zm281.293-7.378c-1.412-.922-3.304-.614-4.497.579l-.245.246a.376.376 0 0 1-.531 0l-.245-.246c-1.194-1.193-3.085-1.5-4.497-.579a3.53 3.53 0 0 0-.587 5.455l4.91 4.91a.968.968 0 0 0 1.369 0l4.91-4.91a3.531 3.531 0 0 0-.587-5.455z" fill="#3A4345"/><path fill-rule="evenodd" clip-rule="evenodd" d="M271.188 80.49l-.071-.075c-7.38-7.983-10.817-21.247-10.817-34.065 0-12.817 3.437-26.082 10.818-34.064l.07-.076.076-.07c7.982-7.38 21.247-10.817 34.064-10.817s26.082 3.436 34.064 10.817l.077.07.07.076c7.38 7.982 10.817 21.247 10.817 34.064 0 12.818-3.437 26.082-10.817 34.065l-.07.076-.077.07c-7.982 7.38-21.246 10.818-34.064 10.818-12.817 0-26.081-3.437-34.064-10.818l-.076-.07zm1.874-66.405c-13.484 14.583-13.484 49.947 0 64.532 14.585 13.484 49.948 13.484 64.532 0 13.485-14.585 13.485-49.949 0-64.532C323.01.6 287.646.6 273.062 14.085z" fill="#3A4345"/><path d="M296.821 73.5h2.173c1.272 0 2.159-.598 2.159-1.73 0-.814-.457-1.407-1.335-1.53v-.031c.584-.186.977-.625.977-1.367 0-.96-.688-1.521-1.697-1.521h-2.277V73.5zm.72-5.527h1.453c.597 0 1.068.294 1.068.991 0 .747-.53 1.032-1.553 1.032h-.968v-2.023zm0 2.675h1.543c.783 0 1.331.367 1.331 1.14 0 .901-.765 1.055-1.774 1.055h-1.1v-2.195zm5.544-3.327V73.5h.72v-2.381h1.493c1.155 0 1.947-.743 1.947-1.897 0-1.145-.792-1.901-1.947-1.901h-2.213zm.72.652h1.466c.783 0 1.231.462 1.231 1.25 0 1.045-.633 1.249-1.729 1.249h-.968v-2.5zm5.888 5.527v-4.604h.036l1.774 4.129h.648l1.77-4.129h.04V73.5h.657v-6.18h-.697l-2.078 4.948h-.027l-2.087-4.948h-.693v6.18h.657zM248.43 6.868c0-3.078 1.123-4.97 2.906-4.97 1.784 0 2.906 1.892 2.906 4.97v.408c0 3.078-1.122 4.952-2.906 4.952-1.783 0-2.906-1.874-2.906-4.952v-.408zm-1.43.426c0 3.748 1.575 6.21 4.336 6.21 2.771 0 4.328-2.462 4.328-6.21v-.435c0-3.757-1.557-6.237-4.319-6.237-2.77 0-4.345 2.49-4.345 6.237v.435zm13.715.217h1.34c1.567 0 2.68.924 2.698 2.327.018 1.394-1.077 2.417-2.788 2.408-1.485-.01-2.544-.806-2.662-1.802h-1.367c.1 1.72 1.621 3.07 3.984 3.07 2.562 0 4.345-1.585 4.3-3.694-.045-2.01-1.693-2.87-2.707-2.988v-.081c.941-.163 2.336-1.24 2.281-2.988-.054-1.765-1.539-3.16-3.829-3.141-2.408.018-3.658 1.548-3.703 3.032h1.385c.082-.941.978-1.765 2.327-1.765 1.394 0 2.345.87 2.354 2.119.009 1.294-1.005 2.218-2.345 2.218h-1.268V7.51zm31.011 49.434V38.41h-2.132l-4.413 3.3v2.268l4.305-3.137h.108v16.105h2.132zm13.01-18.536c-2.689 4.237-5.513 8.46-7.863 12.67v1.955h9.017v3.911h2.078v-3.91h2.444v-1.942h-2.444V38.409h-3.232zM299.1 51.093v-.136c2.01-3.477 4.427-7.28 6.668-10.593h.122v10.729h-6.79zm16.527-3.708c0-4.617 1.684-7.455 4.359-7.455s4.359 2.838 4.359 7.455v.611c0 4.617-1.684 7.428-4.359 7.428s-4.359-2.81-4.359-7.428v-.61zm-2.146.639c0 5.621 2.363 9.315 6.505 9.315 4.155 0 6.491-3.694 6.491-9.316v-.651c0-5.636-2.336-9.357-6.477-9.357-4.156 0-6.519 3.735-6.519 9.357v.651z" fill="#3A4345"/><path fill-rule="evenodd" clip-rule="evenodd" d="M331.002 70.279c.019-.024.039-.047.06-.07a35.094 35.094 0 0 0-15.547-57.44 35.093 35.093 0 1 0-11.421 68.655h.001a1.364 1.364 0 0 1 1.233 1.345 1.29 1.29 0 0 1-1.326 1.302 37.742 37.742 0 0 1-35.692-30.357 37.743 37.743 0 1 1 64.628 18.372 1.29 1.29 0 0 1-1.858.016 1.364 1.364 0 0 1-.078-1.823zm103.353-51.202c-1.413-.922-3.305-.614-4.497.579l-.246.246a.375.375 0 0 1-.53 0l-.246-.246c-1.193-1.193-3.084-1.5-4.497-.579a3.53 3.53 0 0 0-.586 5.455l4.91 4.91a.967.967 0 0 0 1.368 0l4.91-4.91a3.53 3.53 0 0 0-.586-5.455z" fill="#3A4345"/><path fill-rule="evenodd" clip-rule="evenodd" d="M394.545 80.49l-.071-.075c-7.38-7.983-10.817-21.247-10.817-34.065 0-12.817 3.437-26.082 10.817-34.064l.071-.076.076-.07c7.982-7.38 21.246-10.817 34.063-10.817 12.818 0 26.082 3.436 34.065 10.817l.076.07.071.076c7.38 7.982 10.817 21.247 10.817 34.064 0 12.818-3.437 26.082-10.817 34.065l-.071.076-.076.07c-7.983 7.38-21.247 10.818-34.064 10.818s-26.082-3.437-34.064-10.818l-.076-.07zm1.874-66.405c-13.485 14.583-13.485 49.947 0 64.532 14.585 13.484 49.947 13.484 64.532 0 13.484-14.585 13.484-49.949 0-64.532C446.366.6 411.002.6 396.419 14.085z" fill="#3A4345"/><path d="M420.178 73.5h2.172c1.272 0 2.16-.598 2.16-1.73 0-.814-.458-1.407-1.336-1.53v-.031c.584-.186.978-.625.978-1.367 0-.96-.688-1.521-1.698-1.521h-2.276V73.5zm.719-5.527h1.453c.598 0 1.069.294 1.069.991 0 .747-.53 1.032-1.553 1.032h-.969v-2.023zm0 2.675h1.544c.783 0 1.331.367 1.331 1.14 0 .901-.765 1.055-1.775 1.055h-1.1v-2.195zm5.544-3.327V73.5h.72v-2.381h1.494c1.154 0 1.946-.743 1.946-1.897 0-1.145-.792-1.901-1.946-1.901h-2.214zm.72.652h1.467c.783 0 1.231.462 1.231 1.25 0 1.045-.634 1.249-1.729 1.249h-.969v-2.5zm5.888 5.527v-4.604h.036l1.775 4.129h.647l1.77-4.129h.041V73.5h.656v-6.18h-.697l-2.078 4.948h-.027l-2.087-4.948h-.692v6.18h.656zM371.787 6.868c0-3.078 1.122-4.97 2.906-4.97 1.783 0 2.906 1.892 2.906 4.97v.408c0 3.078-1.123 4.952-2.906 4.952-1.784 0-2.906-1.874-2.906-4.952v-.408zm-1.431.426c0 3.748 1.576 6.21 4.337 6.21 2.77 0 4.327-2.462 4.327-6.21v-.435c0-3.757-1.557-6.237-4.318-6.237-2.77 0-4.346 2.49-4.346 6.237v.435zm16.133-6.41c-1.792 2.825-3.675 5.64-5.242 8.447v1.303h6.012v2.608h1.385v-2.608h1.629V9.34h-1.629V.884h-2.155zm-3.757 8.456v-.09a123.346 123.346 0 0 1 4.445-7.062h.082V9.34h-4.527zm34.076 47.605V38.41h-2.132l-4.414 3.3v2.268l4.305-3.137h.109v16.105h2.132zm5.35-18.536v1.928h9.397v.15l-7.672 16.458h2.267l7.605-16.513V38.41h-11.597zm21.021 0c-2.688 4.237-5.513 8.46-7.862 12.67v1.955h9.017v3.911h2.077v-3.91h2.445v-1.942h-2.445V38.409h-3.232zm-5.635 12.684v-.136c2.01-3.477 4.427-7.28 6.668-10.593h.122v10.729h-6.79z" fill="#3A4345"/><path fill-rule="evenodd" clip-rule="evenodd" d="M428.685 84.095c20.845 0 37.744-16.899 37.744-37.744 0-20.846-16.899-37.744-37.744-37.744-20.846 0-37.744 16.898-37.744 37.744 0 20.845 16.898 37.744 37.744 37.744zm0-2.652c-19.381 0-35.092-15.712-35.092-35.092 0-19.381 15.711-35.093 35.092-35.093s35.092 15.712 35.092 35.093c0 19.38-15.711 35.092-35.092 35.092z" fill="#3A4345"/></svg>