<svg width="853" height="184" viewBox="0 0 853 184" fill="none" xmlns="http://www.w3.org/2000/svg"><path clip-rule="evenodd" d="M263.804 64.609a7.279 7.279 0 0 0-10.29 0 7.28 7.28 0 0 0 0 10.29l44.842 44.842a7.279 7.279 0 0 0 10.29 0 7.279 7.279 0 0 0 0-10.29l-44.842-44.842z" stroke="#FD760A" stroke-width="4"/><path d="M251.391 105.5a7.254 7.254 0 0 0 2.123 5.435l8.807 8.806a7.279 7.279 0 0 0 10.29 0 7.279 7.279 0 0 0 0-10.29l-21.22-21.22m59.359-9.06a7.264 7.264 0 0 0-2.104-5.757l-8.806-8.805a7.279 7.279 0 0 0-10.29 0 7.279 7.279 0 0 0 0 10.29l21.226 21.226-.026-16.955z" stroke="#FD760A" stroke-width="4" stroke-linecap="round"/><path d="M251.384 70.254v35.54m59.391-26.738v35.54-35.54z" stroke="#FD760A" stroke-width="4"/><path d="M308.646 62.479l2.622 2.622m-59.884 54.64l2.623 2.622m27.073-79.198c27.049 0 49.01 21.96 49.01 49.01 0 27.048-21.961 49.009-49.01 49.009-27.048 0-49.009-21.961-49.009-49.01s21.961-49.009 49.009-49.009z" stroke="#fff" stroke-width="4" stroke-linecap="round"/><path clip-rule="evenodd" d="M281.08 14.825c42.697 0 77.361 34.665 77.361 77.36 0 42.697-34.664 77.362-77.361 77.362-42.696 0-77.36-34.665-77.36-77.361 0-42.697 34.664-77.36 77.36-77.36z" stroke="#fff" stroke-width="4" stroke-linecap="round"/><path d="M330.81 92.175h27.638" stroke="#fff" stroke-width="4"/><path fill-rule="evenodd" clip-rule="evenodd" d="M193.209 90.612a2.036 2.036 0 0 0-2.878 2.878 2.036 2.036 0 0 0 2.878-2.878zm175.75 0a2.036 2.036 0 0 1 2.878 2.878 2.036 2.036 0 0 1-2.878-2.878z" fill="#fff"/><path d="M192.685 78.978c6.403-43.15 43.686-76.26 88.59-76.167 44.75.092 81.793 33.13 88.207 76.09m-176.797 26.493c6.403 43.15 43.686 76.259 88.59 76.166 44.75-.092 81.793-33.129 88.207-76.09" stroke="#fff" stroke-width="4" stroke-linecap="round"/><path d="M203.72 92.175h27.638M48.297 152.75v25.061c13.88-.001 25.148-11.23 25.148-25.061H48.297zm0 0a77.788 77.788 0 0 0 25.917-16.163h49.249l6.272 6.25v-6.466c0-1.356-.49-2.599-1.303-3.562l-.047-.056a5.68 5.68 0 0 0-.581-.58L95.939 100.42a77.145 77.145 0 0 0 2.655-20.122c0-33.12-20.92-61.41-50.297-72.453v45.1L2 6.811v69.873c0 28.324 19.77 52.083 46.297 58.31v17.756z" stroke="#fff" stroke-width="4"/><path fill-rule="evenodd" clip-rule="evenodd" d="M109.133 124.244a3.435 3.435 0 0 1 0 6.868 3.435 3.435 0 0 1-3.434-3.434 3.435 3.435 0 0 1 3.434-3.434z" fill="#FFDC21"/><path d="M742.328 153.869s-13.701 1.403-16.775 1.772c-3.073.363-6.841 2.818-6.841 7.201 0 4.382 4.137 7.2 7.847 8.139 3.71.939 9.208 1.453 11.276 1.766 2.068.313 3.309-.564 3.946-1.766.311-.582 3.239-7.732 3.239-7.732m8.418-138.811c-2.131-1.403-9.445-1.403-11.575 0m11.11 129.431s13.701 1.403 16.774 1.772c3.074.363 6.841 2.818 6.841 7.201 0 4.382-4.136 7.2-7.846 8.139-3.71.939-9.208 1.453-11.276 1.766-2.069.313-3.309-.564-3.946-1.766-.312-.582-3.239-7.732-3.239-7.732" stroke="#fff" stroke-width="4" stroke-miterlimit="10"/><path d="M747.65 13.13c1.464.55 5.445 7.162 5.445 10.279l-.013.595.464.392c1.444 1.293 4.183 6.469 4.183 16.767 0 4.534 0 10.18 5.177 10.18h74.95c6.882 0 12.144.627 12.144 8.495 0 15.715-13.51 19.171-14.092 19.315-.588.144-58.721 14.284-62.924 15.362l-.549.137c-4.653 1.17-15.562 3.915-17.085 15.604-.693 5.326-1.503 17.467-2.216 28.176-.562 8.41-1.085 16.356-1.366 17.813-.484 2.496-2.993 7.305-4.111 9.331-1.111-2.019-3.628-6.835-4.111-9.331-.281-1.451-.811-9.397-1.366-17.813-.713-10.709-1.517-22.85-2.216-28.176-1.523-11.69-12.432-14.434-17.086-15.604l-.549-.137c-4.209-1.078-62.342-15.218-62.93-15.362-.15-.04-14.092-3.541-14.092-19.315 0-7.868 5.262-8.495 12.144-8.495h74.95c5.177 0 5.177-5.646 5.177-10.18 0-10.298 2.732-15.474 4.17-16.754l.464-.392v-.608c-.006-3.11 3.974-9.73 5.438-10.278zm0-1.32c-2.176 0-6.752 8.116-6.752 11.599 0 0-4.627 3.92-4.627 17.754 0 4.574 0 8.873-3.87 8.873h-74.95c-5.719 0-13.451.053-13.451 9.802 0 16.989 15.085 20.583 15.085 20.583s58.662 14.264 62.911 15.355c4.248 1.092 15.196 3.379 16.667 14.65 1.262 9.684 2.941 42.689 3.595 46.067.654 3.378 4.523 10.239 4.791 10.671.216.346.471.385.562.385h.079c.091 0 .346-.033.562-.385.274-.438 4.137-7.299 4.791-10.671.653-3.372 2.333-36.383 3.595-46.067 1.47-11.271 12.418-13.558 16.667-14.65 4.248-1.09 62.91-15.355 62.91-15.355s15.086-3.594 15.086-20.583c0-9.75-7.733-9.802-13.452-9.802h-74.95c-3.869 0-3.869-4.3-3.869-8.873 0-13.833-4.628-17.754-4.628-17.754.007-3.483-4.569-11.598-6.752-11.598z" fill="#fff" stroke="#fff" stroke-width="3"/><path d="M747.65 166.98V107m-8.944-.484h17.889m-13.68 61.033h-15.609v-5.261h-8.594m33.674 5.261h15.609v-5.261h8.593" stroke="#fff" stroke-width="2" stroke-miterlimit="10"/><path d="M742.915 18.124h-24.203m58.929 0h-24.203" stroke="#fff" stroke-width="4" stroke-miterlimit="10"/><path d="M692.405 84.418l31.472 4.21h13.777m-45.249-1.053v-5.378l-35.778-5.145v2.088m146.268 5.278l-31.465 4.21h-13.783m45.248-1.053v-5.378l35.778-5.145v2.088" stroke="#fff" stroke-width="2" stroke-miterlimit="10"/><path d="M705.033 50.745v-8.418m10.523 8.418v-8.418m65.241 8.418v-8.418m9.471 8.418v-8.418m-17.889 46.301V50.745m-48.405 37.883V50.745" stroke="#fff" stroke-width="4" stroke-miterlimit="10"/><path d="M792.373 60.216l1.89 5.817h6.116l-4.948 3.595 1.89 5.817-4.948-3.595-4.949 3.595 1.89-5.817-4.948-3.595h6.117l1.89-5.817z" fill="#FA3535"/><path d="M533.387 113.008c12.785 14.625 32.642 19.703 32.642 19.703s7.278-25.969-4.331-46.078m-79.587 26.375c-12.784 14.625-32.642 19.703-32.642 19.703s-7.278-25.969 4.332-46.078" stroke="#fff" stroke-width="4"/><path d="M542.929 121.895c4.5 12.371 1.021 25.818 1.021 25.818s-15.269-3.58-23.988-14.812m-47.393-11.006c-4.5 12.371-1.02 25.818-1.02 25.818s15.268-3.58 23.988-14.812" stroke="#fff" stroke-width="4"/><path d="M470.459 24.355c-7.514-4.548-16.67-8.555-16.67-8.555s31.505-9.379 53.96-1.885m37.29 10.44c7.514-4.548 16.671-8.555 16.671-8.555s-31.506-9.379-53.961-1.885l37.29 10.44z" stroke="#fff" stroke-width="4" stroke-linecap="square"/><path clip-rule="evenodd" d="M507.749 13.915c20.581 0 37.29 27.781 37.29 62 0 34.218-37.29 70.248-37.29 70.248s-37.29-36.03-37.29-70.248c0-34.219 16.709-62 37.29-62z" stroke="#fff" stroke-width="4" stroke-linecap="square"/><path d="M539.792 119.641c0 29.404-32.043 60.363-32.043 60.363s-32.043-30.959-32.043-60.363m32.043-105.726c0 41.807-33.942 75.75-75.749 75.75 0-41.808 33.942-75.75 75.749-75.75zm0 0c41.807 0 75.749 33.942 75.749 75.75-41.807 0-75.749-33.943-75.749-75.75z" stroke="#fff" stroke-width="4"/><path d="M470.336 24.331c22.38 13.17 37.413 37.51 37.413 65.333m0 0c-27.823 0-52.163-15.033-65.333-37.414m65.333 37.414c27.959 0 52.399-15.18 65.524-37.74m-65.725 37.74c0-27.804 15.013-52.13 37.367-65.305" stroke="#fff" stroke-width="4" stroke-linecap="round" stroke-linejoin="round"/><path d="M499.973 102.769h8.783v23.406" stroke="#00CD21" stroke-width="6"/><path d="M507.749 13.915V.81" stroke="#fff" stroke-width="4"/></svg>