<svg xmlns="http://www.w3.org/2000/svg" width="24" height="23" viewBox="0 0 24 23">
  <path fill="#FFFFFF" fill-rule="evenodd" d="M125.303611,95.9407044 L130.446277,95.9407044 L130.446277,80.4618814 L125.303611,80.4618814 L125.303611,95.9407044 Z M127.875613,78.3486402 C129.669193,78.3486402 130.784663,77.1609452 130.784663,75.6749889 C130.753901,74.1569327 129.669193,73 127.90905,73 C126.148908,73 125,74.1569327 125,75.6749889 C125,77.1609452 126.11547,78.3486402 127.840838,78.3486402 L127.875613,78.3486402 L127.875613,78.3486402 Z M133.29514,95.9407044 C133.29514,95.9407044 133.363353,81.9144004 133.29514,80.4632189 L138.440481,80.4632189 L138.440481,82.7061971 L138.405707,82.7061971 C139.082479,81.650914 140.300936,80.0994204 143.076237,80.0994204 C146.460098,80.0994204 149,82.3102987 149,87.0664289 L149,95.9407044 L143.854659,95.9407044 L143.854659,87.6602764 C143.854659,85.5791351 143.109675,84.1600535 141.247882,84.1600535 C139.827463,84.1600535 138.980829,85.116362 138.610343,86.0419082 C138.471244,86.3722693 138.440481,86.8350424 138.440481,87.2978154 L138.440481,95.9407044 L133.29514,95.9407044 L133.29514,95.9407044 Z" transform="translate(-125 -73)"/>
</svg>
