<svg xmlns="http://www.w3.org/2000/svg" width="200" height="120" viewBox="0 0 200 120" xmlns:xlink="http://www.w3.org/1999/xlink"><defs><circle id="a" cx="21" cy="21" r="21"/><mask id="i" width="42" height="42" x="0" y="0" fill="#fff"><use xlink:href="#a"/></mask><rect id="b" width="8" height="16" x="41.485" y="37.485" rx="4"/><mask id="j" width="8" height="16" x="0" y="0" fill="#fff"><use xlink:href="#b"/></mask><rect id="c" width="50" height="50" rx="3"/><mask id="k" width="50" height="50" x="0" y="0" fill="#fff"><use xlink:href="#c"/></mask><circle id="d" cx="45.5" cy="5.5" r="1.5"/><mask id="l" width="3" height="3" x="0" y="0" fill="#fff"><use xlink:href="#d"/></mask><circle id="e" cx="41.5" cy="5.5" r="1.5"/><mask id="m" width="3" height="3" x="0" y="0" fill="#fff"><use xlink:href="#e"/></mask><circle id="f" cx="37.5" cy="5.5" r="1.5"/><mask id="n" width="3" height="3" x="0" y="0" fill="#fff"><use xlink:href="#f"/></mask><rect id="g" width="58" height="21" rx="3"/><mask id="o" width="58" height="21" x="0" y="0" fill="#fff"><use xlink:href="#g"/></mask><circle id="h" cx="47.5" cy="10.5" r="5.5"/><mask id="p" width="11" height="11" x="0" y="0" fill="#fff"><use xlink:href="#h"/></mask></defs><g fill="none" fill-rule="evenodd"><path fill="#00CBED" d="M0 94h200v2H0z"/><g transform="translate(135 34)"><use fill="#DFF8FC" stroke="#00CBED" stroke-width="4" mask="url(#i)" xlink:href="#a"/><circle cx="21" cy="21" r="17" fill="#FFF" stroke="#00CBED"/><path fill="#00CBED" d="M20 15h2v45h-2z"/><path fill="#00CBED" d="M21 31.364L27.364 25l.708.708-6.364 6.364zM15.707 19l4.95 4.95-.708.706-4.95-4.95zM35 36.414L36.414 35l7.778 7.778-1.414 1.414z"/><use fill="#FFF" stroke="#00CBED" stroke-width="4" mask="url(#j)" transform="rotate(-45 45.485 45.485)" xlink:href="#b"/></g><g transform="translate(73 24)"><path fill="#00CBED" d="M24 19h2v51h-2z"/><path fill="#00CBED" d="M25 34h9v1h-9zm-8-6h7v1h-7z"/><use stroke="#00CBED" stroke-width="4" mask="url(#k)" xlink:href="#c"/><rect width="50" height="10" fill="#00CBED" fill-opacity=".124" rx="3"/><path fill="#00CBED" d="M2 9h46v1H2z"/><use fill="#FFF" stroke="#00CBED" stroke-width="2" mask="url(#l)" xlink:href="#d"/><use fill="#FFF" stroke="#00CBED" stroke-width="2" mask="url(#m)" xlink:href="#e"/><use fill="#FFF" stroke="#00CBED" stroke-width="2" mask="url(#n)" xlink:href="#f"/></g><g transform="translate(7 42)"><path fill="#00CBED" d="M28 21h2v31h-2z"/><use stroke="#00CBED" stroke-width="4" mask="url(#o)" xlink:href="#g"/><use stroke="#00CBED" stroke-width="2" mask="url(#p)" xlink:href="#h"/><path fill="#00CBED" d="M47.5 9.875L45.625 8 45 8.625l1.875 1.875L45 12.375l.625.625 1.875-1.875L49.375 13l.625-.625-1.875-1.875L50 8.625 49.375 8 47.5 9.875z"/></g></g></svg>