<svg width="237" height="171" viewBox="0 0 237 171" fill="none" xmlns="http://www.w3.org/2000/svg"><path d="M23.951 0l25.087 24.622V60.8h2.886V23.422L31.018 2.885h174.173l-20.672 20.474-.031 37.44h2.886l.016-36.223L212.242 0H23.951zm160.521 109.639l-.015 27.273-66.259 30.907-66.274-30.86v-27.32l-2.886-1.918v31.078L118.198 171l69.145-32.248.015-31.031-2.886 1.918z" fill="#D60000"/><path d="M236.066 63.466h-95.371s-2.371 1.809-3.541 6.128c9.048 6.113 14.992 16.467 14.992 28.21 0 .608-.015 1.496-.046 2.12h-8.94v-4.226c-.015-7.765-3.557-14.705-9.111-19.29v-1.215a26.037 26.037 0 0 0-8.971-4.46v.935a24.978 24.978 0 0 0-6.942-.982 24.9 24.9 0 0 0-6.943.982v-.935a26.037 26.037 0 0 0-8.971 4.46v1.216c-5.522 4.553-9.048 11.414-9.11 19.102v4.398h-8.94a49.168 49.168 0 0 1-.047-2.121c0-11.742 5.944-22.08 14.993-28.21-1.186-4.303-3.542-6.127-3.542-6.127H.206s10.281 9.84 13.604 9.84h70.627a35.41 35.41 0 0 0-2.23 3.757H16.415s7.863 7.516 10.406 7.516h52.545a38.726 38.726 0 0 0-.75 3.899h-48.02s7.863 7.516 10.406 7.516h37.334c.062 1.481.203 2.791.312 3.898H44.201s7.864 7.516 10.407 7.516h32.887l10.5 8.936 2.309 8.342 3.697 3.197-1.701-8.405 2.434 1.98-3.292-5.161-1.123-6.316 1.981-.233 7.099 3.96 3.448-.67 2.902-3.478s.92-.405 1.997-.467h.281v.031c.046 0 .093-.016.14-.016.047 0 .094 0 .14.016v-.031h.266a6.495 6.495 0 0 1 1.997.467l2.901 3.478 3.448.67 7.099-3.96 1.981.233-1.123 6.316-3.292 5.161 2.434-1.98-1.701 8.405 3.698-3.197 2.309-8.342 10.499-8.936h32.888c2.543 0 10.406-7.516 10.406-7.516h-34.448c.125-1.107.25-2.432.312-3.898h37.334c2.543 0 10.406-7.516 10.406-7.516h-48.02a38.208 38.208 0 0 0-.749-3.899h52.56c2.543 0 10.406-7.516 10.406-7.516h-65.79a35.478 35.478 0 0 0-2.231-3.758h70.627c3.26.016 13.542-9.824 13.542-9.824zm-97.773 36.24c-.484 1.466-1.217 2.807-2.2 3.929a8.796 8.796 0 0 1-2.309 1.903 8 8 0 0 1-3.963 1.045 6.13 6.13 0 0 1-2.09-.375 7.407 7.407 0 0 1-1.779-.935l-.187-.141h-15.352a7.049 7.049 0 0 1-1.607.936 6.37 6.37 0 0 1-2.449.515 8.089 8.089 0 0 1-3.058-.593 8.538 8.538 0 0 1-2.527-1.622c-1.467-1.356-2.465-3.15-3.058-5.13-.39-1.326-.578-2.745-.593-4.226 0-.92.156-1.84.515-2.682a6.377 6.377 0 0 1 1.513-2.183 8.67 8.67 0 0 1 1.357-1.03c.64-.39 1.326-.685 2.029-.935.951-.327 1.95-.561 3.011-.764 1.357-.25 2.73-.421 4.087-.437.655 0 1.311.047 1.981.172a6.657 6.657 0 0 1 2.013.717c.437.25.874.593 1.248 1.014.281.327.515.701.702 1.107h4.961a4.5 4.5 0 0 1 1.28-1.653c.358-.296.733-.53 1.123-.702a6.667 6.667 0 0 1 1.529-.483c.671-.14 1.342-.172 2.012-.172 1.358 0 2.746.188 4.088.437 1.045.187 2.028.421 2.964.748.936.328 1.81.733 2.621 1.31a6.848 6.848 0 0 1 1.467 1.388c.577.718.983 1.59 1.201 2.526.125.53.172 1.076.172 1.622a13.352 13.352 0 0 1-.702 4.694zm-23.34 24.076l1.935.577-1.046-3.617-3.307-1.154-.078-.796-2.262.577-1.139 4.413s-.234-3.976.483-5.208c.734-1.232 4.275-2.245 4.275-2.245v1.949l2.98 1.731h2.59l2.98-1.731v-1.949s3.557 1.013 4.274 2.245c.734 1.232.484 5.208.484 5.208l-1.139-4.413-2.262-.577-.078.796-3.307 1.154-1.046 3.617 1.935-.577 6.131 1.669-1.373.359-6.131-.655-.889 1.512h-1.779l-.889-1.512-6.131.655-1.373-.359 6.162-1.669zm8.284 4.99l3.713-1.154-.234 1.669-2.979 2.386-.406-.515-5.211-1.076-5.211 1.076-.405.515-2.996-2.386-.249-1.669 3.713 1.154s3.479-.452 5.133-.436c1.653 0 5.132.436 5.132.436zm-9.766-36.567c0 4.959-3.167 11.758-7.083 11.758-3.916 0-6.615-4.023-6.615-8.966 0-2.995 2.418-4.32 6.272-5.022 3.76-.67 7.426-.764 7.426 2.23zm13.323-18.12a19.147 19.147 0 0 1 4.525 2.34v7.578l-4.525-.873v-9.045zm-21.904 2.34a19.147 19.147 0 0 1 4.525-2.34v9.045l-4.525.873v-7.579zm17.099 23.733c.312.671.671 1.325 1.077 1.934h-9.923c.905-1.404 1.592-2.979 2.091-4.616.187-.608.343-1.216.468-1.84h4.805c.078.39.172.78.265 1.154.312 1.17.718 2.292 1.217 3.368zm14.447-5.162c0 4.96-2.699 8.967-6.615 8.967-3.916 0-7.098-6.815-7.098-11.758 0-2.994 3.666-2.9 7.426-2.214 3.869.686 6.287 2.011 6.287 5.005zm18.971 14.752h5.305l-33.184 31.172h-18.847l-33.199-31.172h5.304l31.78 27.024s2.372-.577 5.492-.577h.062c3.12.016 5.492.577 5.492.577l31.795-27.024z" fill="#001379"/><path d="M145.017 19.133h-1.685v6.612h1.685v-6.612zm24.057-.499l-.733 4.756h1.435l-.702-4.756z" fill="#00199F"/><path d="M36.822 5.286l17.505 17.122v38.485h127.758l.016-38.532 17.286-17.075H36.822zm127.4 20.475h.842l1.56-8.982h4.93l1.592 8.982h.764v2.354h-3.479l-.406-2.76h-1.918l-.39 2.76h-3.495v-2.354zm-12.637-8.982h9.735v4.195h-2.184v-1.825h-1.139v6.612h.749v2.354h-4.571v-2.354h.733v-6.612h-1.139v1.825h-2.184v-4.195zm-22.996 2.354c.015-.608.031-1.2.546-1.73.592-.609 1.388-.624 2.028-.624h4.992v3.337h-2.746v-.983h-1.731v2.074h2.075c.624.016 1.341.016 1.934.406.811.53.811 1.388.811 2.058v1.809c-.015.78-.015 1.793-1.045 2.355-.53.28-1.061.28-1.622.28h-5.071v-3.477h2.918v1.107h1.731v-2.277h-2.262c-.655-.015-1.373-.015-1.95-.608-.562-.561-.593-1.2-.608-1.855v-1.872zm-11.92 6.628h.734v-6.612h-.734v-2.355h8.004v3.712h-2.59v-1.357h-1.638v2.152h2.309v2.09h-2.309v2.37h1.638v-1.466h2.761v3.82h-8.175v-2.354zm-36.273 0h.734v-6.612h-.734v-2.355h4.587v2.355h-.749v6.612h.75v2.354h-4.588v-2.354zm-18.097 0h.749l1.435-8.982h3.854l1.045 5.348c.11.64.14.858.234 1.513.11-.702.156-.982.312-1.7l.998-5.161h3.823l1.497 8.982h.734v2.354h-3.37l-1.046-7.36-1.638 7.36h-2.714l-1.592-7.188-.951 7.188h-3.37v-2.354zm21.826 10.884h-1.123L80.88 49.993h-5.726l-1.56-7.953a48.242 48.242 0 0 1-.359-2.245c-.171 1.045-.234 1.45-.452 2.526l-1.482 7.657h-5.679l-2.215-13.349h-1.092v-3.508h4.992l1.544 10.947 2.465-10.947h4.041l2.356 10.682 1.404-10.682h5.024v3.524h-.016zm7.66 0h-1.123v9.84h1.123v3.508h-6.833v-3.508h1.092v-9.84h-1.092v-3.509h6.833v3.51zm.39-14.05l.063 5.52h-3.526v-2.354h.733v-6.612h-.733v-2.355h3.635l2.543 4.975c.406.764.468.967.686 1.653-.093-.967-.093-1.201-.093-2.09V16.78h3.479v2.354h-.749v6.612h.749V28.1h-3.62l-2.309-4.413c-.593-1.185-.67-1.42-.92-2.168.047.453.047.64.062 1.076zm16.522 14.05h-1.092v9.84h1.092v3.508h-5.367l-3.432-6.565c-.89-1.762-.999-2.105-1.357-3.228.078.671.078.936.093 1.575l.094 8.203H93.5v-3.509h1.093v-9.824H93.5v-3.509h5.4l3.776 7.407c.593 1.139.686 1.435 1.03 2.464-.141-1.434-.141-1.793-.141-3.103v-6.752h5.164v3.493h-.031zm-1.701-12.943c-.592-1.185-.67-1.419-.92-2.167.047.452.047.624.062 1.06l.063 5.52h-3.51v-2.354h.733v-6.612h-.733v-2.355h3.635l2.543 4.975c.405.764.468.967.686 1.653-.094-.967-.094-1.201-.094-2.09V16.78h3.464v2.354h-.733v6.612h.733V28.1h-3.62l-2.309-4.398zm14.993 26.291h-7.598c-.904 0-1.856 0-2.777-.592-1.185-.796-1.263-1.965-1.263-3.384v-8.733c0-.95 0-2.073.546-2.916.842-1.247 2.262-1.247 3.635-1.247h7.254v4.912h-4.149v-1.404h-2.621v9.856h2.621v-3.181h-1.389v-3.509h5.726v10.198h.015zm21.031-13.348h-1.092v9.84h1.092v3.508h-5.445v-7.797c0-.623 0-.764.047-1.294l-3.947 7.236-4.057-7.298c.031.499.047.592.047 1.17v7.999h-5.367V46.5h1.124v-9.855h-1.124v-3.509h5.367l3.37 6.16c.312.64.39.78.671 1.497.312-.67.405-.858.749-1.497l3.292-6.16h5.273v3.51zm-2.075-9.06c-.702-.592-.702-1.466-.702-2.198V19.85c0-.655 0-1.31.249-1.871.484-1.186 1.607-1.186 2.465-1.186h2.216c1.076 0 2.09.047 2.621.983.343.592.343 1.356.343 2.276v4.694c0 .64 0 1.326-.14 1.887-.406 1.497-1.717 1.512-2.699 1.512h-2.06c-.749-.03-1.669-.046-2.293-.56zm15.944 22.408h-12.153v-3.508h1.092v-9.84h-1.092v-3.509h11.888v5.52h-3.853v-2.01h-2.434v3.196h3.448v3.103h-3.448v3.524h2.434v-2.167h4.103v5.691h.015zm17.021-13.348h-1.092v9.84h1.092v3.508h-5.367l-3.432-6.565c-.889-1.762-.998-2.105-1.357-3.228.062.671.062.936.093 1.575l.094 8.203h-5.226v-3.509h1.092v-9.824h-1.092v-3.509h5.398l3.775 7.407c.593 1.139.687 1.435 1.03 2.464-.141-1.434-.141-1.793-.141-3.103v-6.752h5.164v3.493h-.031zm-9.735 72.947l-36.616 33.683H108.65l-36.616-33.683H54.327v25.839l63.856 29.737 63.856-29.784.015-25.792h-17.879zm-41.718 49.479l-4.352-3.166-4.369 3.166 1.67-5.13-4.338-3.166h5.367l1.67-5.099 1.669 5.099h5.367l-4.353 3.166 1.669 5.13z" fill="#001379"/></svg>