<svg width="197" height="159" viewBox="0 0 197 159" fill="none" xmlns="http://www.w3.org/2000/svg"><path d="M2.672 116.58c-.093-.92-.561-1.981-1.388-3.213-.827-1.231-1.248-1.964-1.28-2.167-.03-.265.094-.374.422-.343 3.65.452 7.317.889 10.968 1.294.53.063.842.468.951 1.216a6149.618 6149.618 0 0 0 4.244 32.186c.031.187.062.327.125.452.078-.187.124-.343.14-.468.765-6.409 1.513-12.755 2.278-19.024a9.03 9.03 0 0 0 .031-2.152c-.328-2.136-.67-4.288-.998-6.44-.125-.842-.609-1.825-1.42-2.963-.812-1.138-1.233-1.809-1.264-1.98-.031-.25.125-.359.468-.312 3.65.39 7.286.748 10.937 1.076.561.046.873.421.951 1.122a6087.291 6087.291 0 0 0 4.244 30.003c.031.171.093.312.171.421a1.53 1.53 0 0 0 .14-.437 7430.974 7430.974 0 0 1 3.901-29.3c.094-.655.421-.967.983-.92 1.404.109 2.808.218 4.212.311.39.032.609.234.671.624.016.172-1.81 12.506-5.491 38.61-.094.671-.422 1.029-.983 1.076-3.65.296-7.302.608-10.952.951-.562.047-.89-.265-1.014-.951-.453-2.885-.905-5.785-1.358-8.701 0-.172-.031-.328-.125-.437-.078 0-.124.156-.14.452-.343 2.963-.67 5.942-1.014 8.935-.063.718-.375 1.108-.936 1.154-3.666.359-7.317.765-10.983 1.17-.562.062-.874-.281-.952-1.029a7949.036 7949.036 0 0 1-5.539-40.216zm42.483 37.939c-.344.031-.562-.125-.624-.452-.016-.078-.032-.125-.032-.156 0-7.594-.015-15.188-.015-22.782a3.748 3.748 0 0 1-.047-.265c-.094-.437-.421-.952-.983-1.544-.577-.593-.858-.951-.89-1.061-.03-.187.063-.265.313-.265 3.307.078 6.615.156 9.922.219.328 0 .515.187.593.53.016.031.016.093.031.156.016 8.155.032 16.295.063 24.451-.016.421-.234.639-.64.67-2.574.172-5.133.328-7.691.499zm11.435-24.965c-.577-.562-.873-.905-.889-1.014-.031-.171.063-.265.312-.249 3.292.062 6.6.109 9.891.156.437 0 .75.202.968.577a1310.83 1310.83 0 0 0 8.424 15.718.668.668 0 0 0 .219.249c.078 0 .109-.109.093-.296-.03-5.161-.078-10.323-.109-15.469-.015-.436.187-.655.624-.639 1.077.015 2.153.015 3.214.031.343 0 .562.172.624.499 0 .031 0 .078-.016.14l.047 23.095c0 .389-.203.608-.64.608-2.558.062-5.117.14-7.69.218-.438.016-.734-.156-.921-.53a1309.882 1309.882 0 0 1-8.472-15.718.423.423 0 0 0-.203-.203c-.062 0-.093.109-.093.312.047 5.302.109 10.603.156 15.905-.016.421-.234.624-.64.655-1.076.047-2.137.094-3.214.156-.343.016-.561-.125-.624-.437a.908.908 0 0 1-.03-.156c0-7.282-.017-14.58-.017-21.862-.015-.062-.03-.156-.062-.265-.062-.437-.39-.92-.952-1.481zm40.97 10.089c-.344 0-.562-.156-.625-.484-.125-.561-.125-1.84 0-3.836.125-1.996.11-3.321-.031-3.976-.063-.296-.265-.452-.577-.452h-3.23c-.437 0-.64.202-.64.592 0 6.16.016 12.319.016 18.463.016.063.031.109.031.14.078.328.281.484.624.484 1.061 0 2.122-.016 3.168-.016.42 0 .64-.218.624-.639v-5.941c-1.264-1.248-1.904-1.903-1.92-1.965-.03-.125.079-.203.313-.203 3.307 0 6.63 0 9.938.016.343 0 .561.171.624.499v.14c.015 3.244.015 6.472.031 9.715-.016.39-.234.593-.64.593a795.4 795.4 0 0 0-17.27.031 4.443 4.443 0 0 1-2.808-.92c-.827-.624-1.342-1.45-1.576-2.48a3.668 3.668 0 0 1-.078-.935l-.047-15.422c.016-1.185.437-2.215 1.295-3.088.858-.873 1.919-1.294 3.183-1.294 4.461.015 8.939.031 13.401.015 1.045 0 1.981.328 2.808.983a4.284 4.284 0 0 1 1.576 2.51c.062.297.109.593.109.889 0 1.996.016 3.977.016 5.973-.016.421-.219.639-.624.639-2.575-.031-5.133-.031-7.692-.031zm34.322 13.816c-.328-.016-.515-.172-.577-.484a.838.838 0 0 1-.031-.156c-.032-4.88-.063-9.746-.11-14.626-.015-.063-.031-.125-.031-.172-.016-.047-.015-.094-.031-.125a.75.75 0 0 1-.109.25c-1.077 4.881-2.153 9.73-3.214 14.533-.109.405-.375.593-.796.577-2.824-.109-5.663-.187-8.487-.265-.437-.016-.718-.218-.858-.624-1.373-3.82-2.761-7.625-4.15-11.399-.031-.125-.078-.218-.14-.249-.032.093-.047.187-.063.249.047 3.774.078 7.532.125 11.306-.016.389-.234.592-.64.577l-3.213-.047c-.344 0-.562-.156-.625-.452-.015-.063-.031-.11-.031-.156 0-6.924-.015-13.832-.015-20.756.015-.062 0-.14-.016-.249-.078-.39-.421-.858-1.014-1.372-.593-.53-.889-.842-.905-.936-.031-.171.063-.249.312-.249 3.308-.016 6.631-.032 9.938-.063.406 0 .671.187.811.593a2751.95 2751.95 0 0 1 6.459 17.73c.047.171.094.249.172.249.078 0 .14-.078.187-.249 1.342-5.895 2.668-11.82 4.01-17.808.093-.437.359-.671.78-.671 3.292-.046 6.599-.093 9.891-.156.343 0 .562.172.624.515v.156l.047 24.264c0 .421-.203.623-.64.592-2.527-.093-5.086-.218-7.66-.327zm31.951-25.73c.344-.015.562.172.64.546.25 1.325.047 1.996-.624 1.996-3.292.062-6.584.125-9.876.171-.421.016-.639.234-.639.671 0 5.598.015 8.436.031 8.514.078.374.281.546.64.561 3.291.063 6.583.125 9.875.203.219 0 .328.063.359.187.016.078-.047.172-.187.281l-1.311 1.497a1.281 1.281 0 0 1-1.061.468l-7.675-.234c-.422-.016-.64.218-.625.686.016 5.598.016 8.421.016 8.452.062.374.281.561.624.592 3.292.203 6.584.437 9.876.671.218.015.327.078.359.203.015.078-.047.187-.172.327-.437.468-.889.92-1.326 1.372-.281.312-.624.453-1.03.421a736.445 736.445 0 0 0-16.631-1.169c-.343-.016-.561-.187-.624-.515-.015-.078-.031-.125-.031-.156-.016-7.407-.016-14.829-.016-22.236-.015-.063-.031-.156-.062-.265-.078-.421-.406-.905-.983-1.466-.577-.546-.874-.873-.889-.983-.031-.171.062-.265.312-.265a3139.6 3139.6 0 0 0 21.03-.53zm1.795-11.726c-.749-.858-1.124-1.357-1.155-1.528-.047-.281.094-.437.406-.453 4.306-.374 8.612-.779 12.917-1.216.562-.062.983.234 1.264.858a860.597 860.597 0 0 1 10.999 28.614c.062.187.156.359.281.483.109 0 .14-.187.125-.561l-.141-29.55c-.015-.826.25-1.279.812-1.341l4.196-.514c.453-.063.734.233.827.888.016.063 0 .156-.015.297.015 15.235.046 30.47.062 45.72 0 .795-.265 1.154-.827 1.076a726.49 726.49 0 0 0-10.016-1.185c-.562-.062-.967-.452-1.201-1.154a881.656 881.656 0 0 0-11.046-28.567.613.613 0 0 0-.265-.343c-.062 0-.109.187-.125.53.062 9.044.125 18.104.203 27.179-.031.702-.297 1.03-.827.983a371.742 371.742 0 0 0-4.197-.39c-.452-.047-.717-.327-.811-.842a2.894 2.894 0 0 0-.047-.265c-.015-12.007-.015-24.014-.031-36.006-.016-.109-.047-.249-.062-.421-.141-.67-.578-1.435-1.326-2.292z" fill="#00199F"/><path d="M49.71 116.33c.765.047 1.53.094 2.294.125.561 1.403 1.123 2.807 1.684 4.195.562-1.341 1.124-2.682 1.685-4.008.765.031 1.53.078 2.294.109v6.3l-1.451-.047v-4.553H56.2a383.846 383.846 0 0 0-1.95 4.475l-1.108-.046a416.715 416.715 0 0 1-1.95-4.679h-.015v4.616l-1.451-.047c-.016-2.136-.016-4.288-.016-6.44zm15.102.749c.5.015.999.047 1.498.062v6.175c-.5-.015-.999-.031-1.498-.031v-6.206zm8.643.312c.765.031 1.545.046 2.31.062a956.056 956.056 0 0 0 2.808 4.46h.015v-4.382c.5.016.999.016 1.498.031v6.019c-.78-.015-1.545-.031-2.31-.031-.935-1.481-1.871-2.963-2.807-4.46h-.016v4.413c-.5-.015-.998-.015-1.498-.031v-6.081zm13.698.296c.78.015 1.545.015 2.31.031.935 1.45 1.871 2.916 2.808 4.366h.015v-4.335c.5 0 .998.016 1.498.016v5.957c-.78 0-1.545 0-2.31-.016l-2.808-4.351h-.015v4.335c-.5 0-.999 0-1.498-.015v-5.988zm13.698.062c1.779 0 3.557-.015 5.336-.031v1.388c-1.28.015-2.559.015-3.838.031v.951c1.217 0 2.418-.015 3.635-.031v1.232c-1.217.016-2.418.016-3.635.031v.951c1.31 0 2.621-.015 3.931-.015v1.434c-1.809.016-3.619.016-5.413.032-.016-1.996-.016-3.992-.016-5.973zm12.294 3.899c.499 0 .998-.016 1.498-.016 0 .639.218.686.639.686.609-.015 1.217-.015 1.826-.031.312 0 .639-.047.639-.515 0-.53-.171-.561-2.09-.514-2.247.031-2.512-.296-2.512-1.762 0-1.092.078-1.918 1.966-1.965l2.09-.047c1.716-.047 1.888.686 1.888 1.747v.187c-.499.015-.999.015-1.498.031 0-.437-.031-.624-.717-.608-.546.015-1.108.031-1.654.031-.328 0-.562.156-.562.468 0 .53.187.546 1.779.499 2.324-.047 2.855.109 2.855 1.871 0 1.637-.437 1.902-2.434 1.934-.608.015-1.201.015-1.81.031-1.357.015-1.903-.296-1.903-1.591v-.436zm13.011-2.23c0-1.794.796-2.246 2.153-2.293l2.403-.093c1.342-.047 2.153.343 2.153 2.167v1.856c0 1.825-.796 2.277-2.153 2.308-.796.016-1.592.047-2.403.062-1.341.032-2.153-.374-2.153-2.167v-1.84zm1.545 1.2c0 .889.14 1.232.858 1.217l1.903-.047c.702-.016.858-.374.858-1.263v-.671c0-.764-.14-1.232-.936-1.2-.577.015-1.17.046-1.747.062-.78.031-.936.499-.936 1.263v.639zm11.748-3.898c1.887-.093 3.791-.203 5.694-.312v1.591c-.702.031-1.404.078-2.091.109v4.803l-1.497.047v-4.772l-2.091.093c-.015-.514-.015-1.044-.015-1.559zm14.041-.842c.639-.047 1.295-.094 1.95-.14.889 2.152 1.778 4.335 2.668 6.533-.546.032-1.108.047-1.654.078-.156-.389-.312-.779-.468-1.154-1.014.047-2.013.11-3.027.141-.14.39-.296.795-.437 1.185-.561.031-1.107.047-1.669.078a469.921 469.921 0 0 0 2.637-6.721zm.031 4.023a71.71 71.71 0 0 0 1.903-.109c-.327-.811-.639-1.622-.967-2.433-.312.842-.624 1.7-.936 2.542zm-51.032-65.134s-3.526-6.721.219-14.861c-11.062-14.16-43.403-3.571-65.26-27.164.733 6.003 2.636 12.163 5.444 18.088l14.837 6.721-11.591-.624a78.083 78.083 0 0 0 5.491 8.062l15.102 4.772-10.421.686c10.203 10.822 23.355 18.291 36.647 18.167 1.139 1.31 5.055 5.208 6.521 6.097-9.563-14.315 3.011-19.944 3.011-19.944z" fill="#D60000"/><path d="M98.105 12.757c-9.407 0-18.128 2.838-25.414 7.672C58.462 18.84 43.173 14.441 33.22.002c-.032-.063-.578 1.715-1.061 4.927-1.654 10.105.14 30.61 19.938 53.86.031 25.371 20.61 45.924 46.008 45.924 25.399 0 46.008-20.584 46.008-45.986-.015-25.37-20.609-45.97-46.008-45.97zM34.717 6.676c21.514 27.772 58.77 14.018 72.359 29.877 7.551-1.902 14.072-.42 14.072-.42l3.448 3.243c-2.746-.421-11.748-1.56-15.882.826-1.607.92-2.215 5.723-1.794 8.592.421 2.87 2.715 8.343 6.911 8.234 4.181-.125 9.174-4.117 11.592-8.998 1.669-.374 2.418.265 2.418.265s-1.373 7.095-1.107 9.886c-.125.328-.5.64-.765.687-.796-1.887.281-7.906.281-7.906s-.203-.125-.702-.047c-1.685 3.368-3.386 5.177-7.582 8.592.249 1.014 3.884 3.275 3.884 3.275s-1.887 1.465-2.652 1.17c-.764-.297-2.683-2.855-7.02-4.118-5.383.655-9.158 4.897-9.158 4.897l4.742-.218s-.171 1.746 1.498 3.804c1.67 2.059 5.008.421 5.663.234-.171.967.515 3.244.702 4.678-1.357 1.232-8.44 1.497-8.845 2.714-.406 1.216-.125 5.676-.125 5.676s-1.373 1.824-1.311 3.618c.063 1.793 3.074 2.136 3.838 2.432.359.14.702 1.59.78 2.994-.546 1.123-.967 2.012-1.217 2.495-1.373-.748-8.19-2.51-11.529-2.666-.92-1.638-5.102-6.44-5.679-16.639-24.416 2.168-58.645-36.224-56.82-67.177zm63.388 93.28c-20.812 0-38.004-15.406-40.813-35.428.094.094.188.187.281.296 1.982 1.903 13.12 12.117 26.96 14.97.296.749 1.2 3.447 1.2 3.447s-6.022-1.139-12.98-4.85c6.038 4.74 12.902 9.496 20.734 14.237-.015-.016-.015-.031-.03-.031.483.265.592.25.592.25s11.248.623 15.367 3.352c2.528-1.497 4.805-4.522 4.805-4.522s-1.575-1.747-1.263-2.667c.312-.92 1.435-1.544 1.887-1.746.453-.203.312-3.493.312-3.493s2.091-1.295 2.731-1.544c-.11-.81-1.42-2.012-.687-3.025.858-1.201 4.556-.827 5.258-.858-.172-5.676-1.373-11.212-1.373-11.212s3.105-3.134 3.261-3.4c.156-.264.093-2.946.093-2.946s1.358.109 2.278-.468c.92-.577 6.849-6.924 2.496-21.488a119.564 119.564 0 0 0-3.448-1.794l-.686-.452s-8.16-10.494-22.825-13.894c-5.008-1.154-12.528-1.091-21-1.543A40.983 40.983 0 0 1 98.09 17.56c22.762 0 41.234 18.447 41.234 41.214 0 22.736-18.457 41.183-41.219 41.183z" fill="#00199F"/><path d="M98.105 8.375a50.096 50.096 0 0 0-26.07 7.283c-4.118.514-8.72.296-13.26-.078 2.386.732 7.207 1.45 10.468 1.886.047 0 .094.016.125.016 1.872.25 3.214.405 3.214.405a47.938 47.938 0 0 1 25.523-7.313c26.616 0 48.177 21.566 48.177 48.169 0 26.603-21.577 48.169-48.177 48.169-26.303 0-47.677-21.067-48.16-47.25-.422-.483-.812-.981-1.218-1.465-1.856-2.292-5.413-6.861-7.473-10.931 1.732 6.16 3.308 8.701 6.522 13.55 1.092 26.853 23.199 48.294 50.33 48.294 27.832 0 50.391-22.548 50.391-50.367-.015-27.82-22.575-50.368-50.392-50.368z" fill="#00199F"/></svg>