<svg fill="none" height="128" viewBox="0 0 128 128" width="128" xmlns="http://www.w3.org/2000/svg"><path clip-rule="evenodd" d="M94.248 93.106c-.068-.058-.136-.119-.214-.17l-.21-.16-1.986-1.46-60.065-44.163c-2.818-2.072-5.127-.958-5.127 2.478v14.057c0 3.43 2.316 7.945 5.127 10.017l45.889 33.716 3.714 2.736c2.299 1.691 2.757 4.91 1.009 7.148l-.418.543c-1.742 2.241-5.052 2.682-7.354.985l-4.611-3.402c-.998-.734-2.435-.544-3.185.431l-1.901 2.438a2.172 2.172 0 0 0 .44 3.096l3.872 2.852c8.36 6.166 20.392 4.56 26.732-3.558l1.541-1.969c6.227-7.979 4.737-19.374-3.246-25.619m7.089-28.864l-.01-26.171c0-1.603-1.086-3.701-2.397-4.666l-4.53-3.32c-1.313-.965-3.235-.353-3.235 1.782l.01 16.139c0 1.038-.686 2.111-2.173 1.008-1.392-1.029-9.185-6.743-12.203-8.964-1.4-1.035-1.199-2.662-1.199-2.662l-.007-8.679c0-1.493-1.005-3.442-2.223-4.339l-4.218-3.09c-1.222-.9-3.008-.329-3.008 1.657 0 0 .024 5.857.007 6.696-.017.839-.635 2.122-2.126 1.029L50.335 20.59l-3.718-2.75c-2.302-1.697-2.757-4.91-1.008-7.147l.421-.543c1.745-2.241 5.06-2.683 7.361-.985L58 12.567c.998.727 2.43.537 3.185-.431l1.901-2.445a2.165 2.165 0 0 0-.441-3.09L58.773 3.74c-8.37-6.15-20.396-4.547-26.739 3.574l-1.528 1.97c-6.237 7.979-4.743 19.377 3.236 25.615.068.06.136.122.214.176l.204.153.006.01 62.051 45.62c2.818 2.072 5.127.951 5.127-2.478z" fill="#000" fill-rule="evenodd"/></svg>