<svg width="164" height="164" viewBox="0 0 164 164" fill="none" xmlns="http://www.w3.org/2000/svg"><path fill-rule="evenodd" clip-rule="evenodd" d="M82.5.002l.527.005.527.008.539.011.515.016.527.019.527.02.527.026.528.028.515.031.528.036.515.037.516.042.527.044.515.047.516.052.516.054.515.057.516.06.515.064.505.067.515.07.504.073.516.076.504.08.504.082.516.086.504.088.504.092.505.095.492.098.504.101.504.103.493.108.504.11.493.112.493.117.493.12.492.12.493.126.493.128.481.13.493.135.492.136.482.14.481.142.481.145.481.15.482.15.481.154.481.157.47.16.481.163.47.165.481.169.47.17.47.175.469.176.47.18.459.182.469.185.459.188.458.19.47.193.458.196.458.199.448.201.458.204.458.206.447.21.447.212.458.214.436.218.447.22.446.222.447.226.436.227.447.23.435.234.435.235.436.238.435.241.424.243.435.245.425.249.435.25.424.254.424.255.412.258.424.26.413.264.424.266.412.267.413.27.412.273.413.275.401.278.412.28.401.282.401.285.401.286.401.29.402.291.389.295.401.295.39.3.389.3.39.303.378.306.39.309.378.309.389.313.379.314.378.316.366.32.378.32.367.324.367.325.366.328.367.33.367.332.355.334.367.336.355.338.355.34.355.343.344.345.355.346.344.35.344.35.343.353.344.355.333.357.343.36.332.36.333.364.332.364.321.368.332.369.321.37.321.373.321.375.309.377.321.378.309.38.31.384.309.383.309.388.298.387.298.39.298.392.298.393.298.396.287.397.297.4.275.4.287.404.286.404.287.406.275.408.275.41.275.411.263.414.264.415.275.416.263.419.252.42.264.42.252.425.252.425.252.426.252.429.241.43.241.431.24.434.241.434.24.436.23.438.229.44.229.441.229.442.218.445.218.445.217.448.218.448.206.45.218.452.206.453.206.455.195.456.195.457.206.459.195.46.183.462.184.463.195.465.183.467.172.466.183.47.172.47.172.47.16.474.172.473.161.475.16.477.16.48.149.478.149.48.149.483.149.482.138.485.149.485.137.486.126.488.138.49.126.49.126.492.114.492.126.494.115.495.115.496.103.498.114.498.103.5.103.5.092.502.092.503.091.504.092.505.092.506.08.507.08.508.069.509.08.51.069.511.069.512.057.514.069.514.045.514.058.517.057.517.046.518.046.518.034.52.046.52.034.522.023.522.035.524.023.523.023.525.023.526.011.527.011.527.012.529v2.117l-.012.528-.011.527-.011.527-.023.526-.023.525-.023.524-.035.523-.023.523-.034.521-.046.52-.034.52-.046.519-.046.517-.057.518-.058.516-.045.514-.069.515-.057.513-.069.513-.069.51-.08.51-.069.51-.08.508-.08.506-.092.507-.092.504-.091.504-.092.503-.092.502-.103.5-.103.5-.114.499-.103.497-.115.496-.115.495-.126.494-.114.493-.126.491-.126.491-.138.489-.126.488-.137.486-.149.486-.138.485-.149.482-.149.482-.149.48-.149.481-.16.477-.16.477-.161.476-.172.473-.16.473-.172.471-.172.471-.183.469-.172.466-.183.466-.195.465-.184.463-.183.462-.195.461-.206.458-.195.457-.195.456-.206.455-.206.454-.218.451-.206.451-.218.448-.217.448-.218.445-.218.444-.229.442-.229.441-.229.44-.23.438-.24.437-.241.434-.24.433-.241.432-.241.43-.252.428-.252.426-.252.426-.252.424-.264.421-.252.421-.263.418-.275.416-.264.415-.263.413-.275.412-.275.41-.275.408-.287.405-.286.405-.287.403-.275.401-.297.399-.287.398-.298.395-.298.394-.298.391-.298.391-.298.388-.309.386-.309.384-.31.383-.309.38-.321.378-.309.377-.321.375-.321.373-.321.372-.332.369-.321.366-.332.365-.333.363-.332.361-.343.36-.333.356-.344.355-.343.353-.344.351-.344.349-.355.346-.344.345-.355.343-.355.34-.355.338-.367.337-.355.333-.367.333-.367.33-.366.327-.367.326-.367.323-.378.321-.366.319-.378.317-.379.315-.389.312-.378.31-.39.307-.378.306-.39.303-.389.301-.39.299-.401.296-.389.294-.402.291-.401.29-.401.286-.401.286-.401.282-.412.279-.401.279-.413.275-.412.272-.413.271-.412.267-.424.266-.413.263-.424.26-.412.258-.424.256-.424.253-.435.251-.425.248-.435.246-.424.243-.435.24-.436.239-.435.234-.435.234-.447.23-.436.227-.447.226-.446.222-.447.22-.436.218-.458.214-.447.212-.447.21-.458.206-.458.204-.448.202-.458.198-.458.196-.47.194-.458.19-.459.188-.469.184-.459.182-.47.18-.469.177-.47.174-.47.171-.481.168-.47.165-.481.163-.47.16-.481.157-.481.154-.482.151-.481.149-.481.146-.481.142-.482.139-.492.137-.493.134-.481.13-.493.129-.493.125-.492.122-.493.118-.493.117-.493.112-.504.11-.493.108-.504.103-.504.101-.492.099-.505.095-.504.091-.504.089-.516.086-.504.082-.504.079-.516.077-.504.072-.515.07-.505.068-.515.063-.516.06-.515.058-.516.054-.516.051-.515.047-.527.045-.516.041-.516.038-.527.035-.515.031-.528.029-.526.025-.528.021-.527.018-.515.016-.539.012-.527.008-.527.005-.527.001-.527-.001-.527-.005-.539-.008-.527-.012-.527-.016-.516-.018-.527-.021-.527-.025-.527-.029-.516-.031-.527-.035-.515-.038-.516-.041-.527-.045-.516-.047-.515-.051-.516-.054-.515-.058-.516-.06-.516-.063-.504-.068-.515-.07-.516-.072-.504-.077-.504-.079-.516-.082-.504-.086-.505-.089-.504-.091-.504-.095-.492-.099-.505-.101-.504-.103-.492-.108-.505-.11-.492-.112-.493-.117-.493-.118-.492-.122-.493-.125-.493-.129-.492-.13-.482-.134-.492-.137-.482-.139-.48-.142-.482-.146-.493-.149-.47-.151-.481-.154-.481-.157-.481-.16-.47-.163-.47-.165-.481-.168-.47-.171-.47-.174-.47-.177-.47-.18-.458-.182-.47-.184-.458-.188-.47-.19-.458-.194-.458-.196-.459-.198-.447-.202-.458-.204-.458-.206-.447-.21-.447-.212-.458-.214-.447-.218-.436-.22-.446-.222-.447-.226-.436-.227-.447-.23-.435-.234-.436-.234-.435-.239-.435-.24-.424-.243-.436-.246-.424-.248-.435-.251-.424-.253-.424-.256-.412-.258-.424-.26-.424-.263-.413-.266-.413-.267-.412-.271-.413-.272-.412-.275-.413-.279-.4-.279-.402-.282-.4-.286-.413-.286-.39-.29-.4-.291-.402-.294-.39-.296-.389-.299-.39-.301-.39-.303-.389-.306-.378-.307-.39-.31-.378-.312-.378-.315-.378-.317-.366-.319-.379-.321-.366-.323-.367-.326-.378-.327-.355-.33-.367-.333-.366-.333-.356-.337-.355-.338-.355-.34-.355-.343-.356-.345-.343-.346-.344-.349-.344-.351-.344-.353-.343-.355-.333-.356-.344-.36-.332-.361-.332-.363-.332-.365-.321-.366-.332-.369-.321-.372-.321-.373-.321-.375-.31-.377-.32-.378-.31-.38-.309-.383-.31-.384-.309-.386-.297-.388-.298-.391-.298-.391-.298-.394-.298-.395-.287-.398-.298-.399-.286-.401-.287-.403-.274-.405-.287-.405-.275-.408-.275-.41-.275-.412-.263-.413-.275-.415-.264-.416-.264-.418-.252-.421-.263-.421-.252-.424-.252-.426-.253-.426-.252-.428-.24-.43-.252-.432-.24-.433-.23-.434-.24-.437-.23-.438-.229-.44-.229-.441-.23-.442-.217-.444-.23-.445-.205-.448-.218-.448-.218-.451-.206-.451-.206-.454-.207-.455-.194-.456-.207-.457-.194-.458-.195-.461-.184-.462-.194-.463-.184-.465-.183-.466-.172-.466-.183-.469-.172-.471-.172-.471-.172-.473-.16-.473-.16-.476-.161-.477-.16-.477-.15-.481-.148-.48-.15-.482-.148-.482-.15-.485-.137-.486-.137-.486-.126-.488-.138-.489-.126-.491-.126-.491-.126-.493-.115-.494-.114-.495-.115-.496-.103-.497-.114-.499-.104-.5-.103-.5-.091-.502-.092-.503-.092-.504-.091-.504-.092-.507-.08-.506-.08-.509-.07-.509-.08-.51-.068-.51-.069-.513-.057-.513-.069-.514-.057-.515-.046-.516-.057-.517-.046-.518-.046-.518-.046-.52-.034-.52-.035-.522-.034-.523-.023-.523-.023-.524-.023-.525-.023-.526-.011-.527-.012-.527L0 83.035v-2.117l.011-.529.012-.527.011-.527.023-.526.023-.525.023-.523.023-.524.034-.522.035-.522.034-.52.046-.52.046-.518.046-.518.057-.517.046-.517.057-.514.069-.514.057-.514.069-.512.069-.511.08-.51.069-.509.08-.508.08-.507.092-.506.091-.505.092-.504.092-.503.091-.502.103-.5.104-.5.114-.498.103-.498.115-.496.114-.495.115-.494.126-.492.126-.492.126-.49.138-.49.126-.488.137-.486.138-.485.149-.485.149-.483.149-.482.149-.48.148-.479.161-.479.16-.477.16-.475.161-.473.172-.474.172-.47.172-.47.183-.47.172-.466.183-.467.184-.465.194-.463.184-.462.195-.46.194-.459.207-.457.194-.456.207-.455.206-.453.206-.452.218-.45.218-.448.206-.448.229-.445.218-.445.229-.442.23-.44.228-.44.23-.439.24-.436.23-.434.24-.434.252-.431.24-.43.252-.429.253-.426.252-.425.252-.424.263-.422.252-.42.264-.419.264-.415.275-.415.263-.414.275-.411.275-.41.275-.408.287-.406.274-.404.287-.404.286-.4.298-.4.287-.397.298-.396.298-.393.298-.391.297-.391.298-.387.31-.388.31-.383.309-.383.309-.38.32-.379.31-.377.32-.374.322-.374.32-.37.333-.37.32-.367.333-.364.332-.364.332-.36.344-.36.333-.357.343-.355.344-.353.344-.35.344-.35.343-.346.356-.345.355-.342.355-.34.355-.339.356-.337.366-.333.367-.332.355-.33.378-.328.367-.325.366-.324.379-.32.366-.32.378-.316.378-.314.379-.313.39-.31.377-.308.39-.306.39-.302.39-.301.389-.3.39-.295.4-.295.401-.29.39-.29.412-.287.401-.285.402-.282.4-.28.413-.278.412-.275.413-.273.412-.27.413-.267.413-.266.424-.264.424-.26.412-.258.424-.255.424-.253.435-.251.424-.249.436-.245.424-.243.435-.24.435-.239.436-.235.435-.234.447-.23.436-.227.447-.226.446-.222.436-.22.447-.218.458-.214.447-.212.447-.21.458-.206.458-.204.447-.201.459-.199.458-.196.458-.193.47-.19.458-.188.47-.185.459-.182.47-.18.47-.176.469-.175.47-.17.48-.169.47-.165.47-.162.482-.16.48-.158.482-.153.47-.152.493-.149.481-.145.481-.142.482-.14.492-.136.481-.134.493-.131.493-.128.493-.125.492-.122.493-.119.493-.117.492-.112.505-.11.492-.108.504-.103.505-.1.492-.1.504-.094.504-.092.505-.088.504-.086.516-.083.504-.079.504-.076.516-.073.515-.07.504-.067.516-.063.516-.06.515-.058.516-.054.515-.052.516-.047.527-.044.516-.042.515-.037.527-.036.516-.03.527-.03.527-.025.527-.02.516-.019.527-.016.527-.011.539-.008.527-.005.527-.002.527.002zm-.997 9.166l-.47.004-.47.008-.47.01-.47.014-.469.016-.47.02-.47.022-.458.025-.47.027-.458.031-.458.035-.47.036-.458.04-.459.042-.458.046-.459.048-.458.05-.458.054-.458.056-.447.06-.459.062-.458.065-.447.068-.447.07-.458.073-.447.076-.447.079-.447.082-.447.084-.446.087-.447.09-.436.09-.447.096-.435.097-.447.101-.435.103-.436.106-.447.109-.435.11-.435.113-.424.117-.436.118-.435.121-.435.124-.425.127-.423.129-.436.131-.424.134-.424.138-.424.139-.424.142-.424.144-.424.147-.412.149-.424.152-.413.155-.412.155-.412.16-.425.162-.412.164-.401.166-.413.169-.412.172-.401.174-.413.176-.4.18-.402.18-.412.183-.401.186-.39.188-.4.191-.402.193-.39.196-.4.197-.39.2-.39.202-.39.204-.389.206-.39.21-.39.212-.377.213-.39.216-.378.218-.378.22-.378.224-.378.224-.378.227-.379.23-.366.23-.378.235-.367.236-.367.237-.366.24-.367.243-.367.244-.366.247-.356.247-.355.252-.366.254-.356.254-.355.258-.355.259-.344.261-.355.264-.344.264-.344.268-.343.268-.344.273-.344.274-.343.275-.333.277-.343.28-.333.28-.332.286-.332.285-.333.287-.332.29-.32.29-.322.294-.32.294-.333.299-.31.297-.32.302-.32.302-.31.305-.31.307-.309.307-.31.31-.309.314-.297.312-.31.317-.298.316-.298.318-.298.322-.298.325-.297.323-.287.325-.287.328-.286.331-.286.331-.287.334-.275.334-.286.336-.275.34-.275.338-.275.343-.275.342-.264.345-.275.349-.263.346-.264.35-.264.353-.252.352-.263.355-.252.357-.252.357-.252.359-.24.36-.253.365-.24.362-.241.367-.241.367-.24.368-.241.37-.23.37-.229.375-.229.376-.229.375-.229.377-.218.38-.229.38-.218.382-.206.383-.217.384-.218.386-.206.387-.207.39-.206.39-.195.392-.206.393-.195.393-.195.396-.194.397-.184.4-.195.399-.183.4-.183.402-.184.403-.171.406-.184.406-.172.408-.171.409-.172.41-.16.41-.173.411-.16.415-.16.414-.15.415-.16.419-.149.418-.149.42-.149.42-.137.422-.15.422-.137.423-.137.427-.138.425-.126.428-.126.43-.137.43-.115.43-.126.431-.115.434-.114.433-.115.435-.114.437-.103.437-.115.44-.103.437-.092.439-.103.443-.091.444-.092.442-.092.443-.092.446-.08.446-.08.447-.08.449-.069.449-.08.45-.069.453-.069.45-.068.452-.058.456-.057.453-.057.455-.058.459-.045.457-.046.458-.057.46-.035.46-.046.46-.034.462-.035.463-.023.465-.034.463-.023.464-.023.467-.022.469-.012.465-.011.469-.012.47-.011.47v1.884l.011.469.012.47.011.47.012.465.022.468.023.468.023.464.034.463.023.465.035.463.034.46.046.462.035.46.057.46.046.458.045.457.058.458.057.455.057.455.058.455.068.451.07.45.068.453.08.45.069.45.08.449.08.447.08.445.092.446.092.444.092.442.091.443.103.444.092.439.103.437.115.44.103.437.114.436.115.436.114.434.115.432.126.432.115.43.137.429.126.43.126.429.138.425.137.426.138.424.149.422.137.421.15.421.148.419.15.418.16.42.149.415.16.413.16.415.172.411.16.411.173.41.171.409.172.408.184.407.171.404.184.403.183.403.183.399.195.399.184.4.194.398.195.395.195.393.206.393.195.393.206.39.207.389.206.388.218.386.217.384.206.382.218.382.23.381.217.38.23.377.228.374.23.376.229.375.229.37.24.37.241.369.24.367.241.366.241.362.252.365.24.361.253.358.252.358.252.356.263.355.252.352.264.353.264.351.263.346.275.348.264.345.275.343.275.342.275.339.275.34.286.335.275.335.287.334.286.33.287.332.286.327.287.326.297.324.298.323.298.322.298.319.298.316.31.316.297.314.31.312.31.31.308.307.31.307.31.305.32.303.32.301.31.298.333.298.32.294.321.294.32.291.333.29.333.286.332.285.332.286.333.28.343.28.333.279.343.273.344.274.344.273.343.268.344.268.344.266.355.262.344.262.355.259.355.257.356.255.366.253.355.252.356.248.366.246.367.245.367.242.366.241.367.238.367.235.378.234.366.231.379.229.378.227.378.225.378.223.378.22.378.219.39.215.378.213.39.212.39.21.389.206.39.204.389.203.39.2.4.197.39.196.401.192.401.191.39.188.4.186.413.183.401.181.401.179.413.177.401.174.412.172.413.168.4.166.413.164.425.163.412.159.413.156.412.155.424.152.412.149.424.147.424.144.424.142.424.139.424.137.424.134.436.132.423.128.425.127.435.124.435.122.436.118.424.117.435.113.436.111.446.108.436.105.435.103.447.101.435.098.447.095.436.091.447.09.447.087.446.085.447.081.447.078.447.077.458.072.447.071.447.068.458.065.459.062.447.059.458.056.458.054.459.051.458.048.458.046.459.042.458.039.47.037.458.034.458.031.47.027.459.026.47.021.47.02.469.016.47.014.47.01.47.008.469.005.47.001.47-.001.47-.005.47-.008.469-.01.47-.014.47-.016.47-.02.458-.021.47-.026.458-.027.47-.031.458-.034.47-.037.458-.039.458-.042.459-.046.458-.048.459-.051.458-.054.458-.056.447-.059.458-.062.447-.065.459-.068.447-.07.458-.073.447-.077.447-.078.446-.081.447-.085.447-.087.436-.09.446-.091.448-.095.435-.098.447-.101.435-.103.435-.105.436-.108.435-.111.436-.113.435-.117.436-.118.435-.122.424-.124.435-.127.424-.128.436-.132.424-.134.424-.137.424-.139.423-.142.425-.144.412-.147.424-.149.413-.152.423-.154.413-.157.412-.159.424-.163.401-.164.413-.166.412-.17.413-.17.401-.174.412-.177.402-.179.4-.181.402-.183.401-.186.401-.188.401-.191.401-.192.389-.196.401-.197.39-.2.39-.202.389-.205.39-.207.389-.209.39-.212.378-.213.39-.215.378-.219.378-.22.378-.223.378-.225.378-.226.378-.23.367-.231.378-.234.367-.235.367-.238.366-.241.367-.242.367-.245.366-.246.355-.249.356-.251.366-.253.356-.255.355-.257.343-.258.356-.261.355-.265.343-.265.344-.268.344-.269.344-.272.344-.272.343-.277.333-.277.343-.28.333-.281.332-.283.332-.286.332-.288.321-.289.333-.29.32-.295.321-.294.321-.298.321-.298.321-.301.309-.304.321-.304.309-.305.31-.309.309-.31.309-.312.298-.314.31-.316.298-.318.298-.318.298-.321.298-.322.286-.324.298-.327.286-.327.287-.332.286-.332.287-.332.275-.335.286-.335.275-.338.275-.342.275-.341.275-.343.264-.345.263-.346.275-.351.252-.348.264-.35.263-.356.252-.354.264-.355.252-.359.252-.359.241-.36.252-.362.24-.366.241-.365.241-.367.24-.369.241-.37.229-.371.229-.373.229-.374.23-.377.229-.378.217-.379.218-.379.218-.384.218-.382.217-.384.207-.386.217-.388.207-.389.194-.39.206-.393.207-.393.195-.393.194-.396.195-.397.184-.397.194-.402.184-.399.183-.403.183-.403.172-.407.184-.404.172-.408.171-.409.172-.408.161-.413.16-.411.172-.415.149-.416.16-.412.161-.417.149-.421.149-.419.149-.421.137-.421.149-.424.138-.422.137-.424.126-.43.138-.426.126-.427.126-.432.126-.43.126-.432.114-.432.115-.434.115-.436.114-.436.103-.438.115-.439.091-.437.104-.442.103-.44.091-.442.092-.444.092-.444.08-.446.092-.445.08-.447.08-.45.069-.448.08-.45.069-.453.068-.45.069-.452.058-.455.057-.457.057-.455.057-.456.046-.457.046-.456.046-.462.046-.46.034-.46.046-.464.034-.461.023-.463.035-.465.022-.466.023-.466.012-.466.023-.47.011-.466.012-.469.011-.473v-1.881l-.011-.473-.012-.468-.011-.467-.023-.47-.012-.466-.023-.465-.022-.466-.035-.466-.023-.462-.034-.461-.046-.465-.034-.459-.046-.46-.046-.462-.046-.456-.046-.457-.057-.456-.057-.455-.057-.456-.058-.456-.069-.452-.068-.45-.069-.453-.08-.45-.069-.45-.08-.448-.08-.447-.092-.446-.08-.446-.092-.443-.092-.445-.091-.44-.103-.442-.104-.441-.091-.438-.115-.439-.103-.437-.114-.437-.115-.435-.115-.434-.114-.433-.126-.432-.126-.43-.126-.43-.126-.429-.138-.426-.126-.43-.137-.424-.138-.421-.149-.424-.137-.422-.149-.42-.149-.42-.149-.42-.161-.417-.16-.413-.149-.416-.172-.415-.16-.411-.161-.413-.172-.407-.171-.41-.172-.407-.184-.405-.172-.407-.183-.403-.183-.402-.184-.4-.194-.401-.184-.398-.195-.396-.194-.397-.195-.393-.207-.393-.206-.392-.194-.39-.207-.39-.217-.387-.207-.386-.217-.384-.218-.383-.218-.384-.218-.379-.217-.378-.229-.378-.23-.377-.229-.375-.229-.372-.229-.372-.241-.37-.24-.368-.241-.367-.241-.366-.24-.365-.252-.362-.241-.36-.252-.36-.252-.359-.264-.355-.252-.354-.263-.355-.264-.35-.252-.349-.275-.35-.263-.347-.264-.345-.275-.342-.275-.342-.275-.341-.275-.338-.286-.336-.275-.334-.287-.333-.286-.332-.287-.331-.286-.328-.298-.326-.286-.325-.298-.322-.298-.32-.298-.319-.298-.317-.31-.317-.298-.313-.309-.312-.309-.31-.31-.309-.309-.306-.321-.304-.309-.303-.321-.302-.321-.297-.321-.299-.321-.294-.32-.294-.333-.29-.321-.29-.332-.288-.332-.285-.332-.283-.333-.282-.343-.28-.333-.277-.343-.276-.344-.273-.344-.271-.344-.27-.344-.268-.343-.264-.355-.264-.356-.262-.343-.258-.355-.258-.356-.254-.366-.254-.356-.25-.355-.25-.366-.245-.367-.245-.367-.243-.366-.24-.367-.237-.367-.236-.378-.234-.367-.232-.378-.23-.378-.226-.378-.224-.378-.224-.378-.22-.378-.218-.39-.216-.378-.213-.39-.212-.389-.209-.39-.207-.389-.204-.39-.203-.39-.199-.401-.197-.389-.196-.401-.193-.401-.19-.401-.189-.401-.186-.402-.183-.4-.18-.402-.18-.412-.176-.401-.174-.413-.17-.412-.17-.413-.167-.401-.164-.424-.162-.412-.16-.413-.156-.423-.154-.413-.152-.424-.15-.412-.146-.425-.144-.423-.143-.424-.138-.424-.138-.424-.134-.436-.131-.424-.129-.435-.127-.424-.124-.435-.121-.436-.118-.435-.117-.436-.114-.435-.11-.436-.108-.435-.106-.436-.103-.446-.1-.435-.098-.448-.095-.446-.092-.436-.09-.447-.086-.447-.085-.446-.081-.448-.079-.446-.076-.458-.072-.448-.071-.458-.068-.447-.065-.458-.062-.447-.06-.458-.056-.458-.054-.459-.05-.458-.048-.459-.046-.458-.043-.458-.039-.47-.036-.458-.035-.47-.03-.459-.028-.47-.025-.458-.022-.47-.02-.469-.016-.47-.013-.47-.01-.47-.009-.47-.004-.469-.001h-.47z" fill="#A5C5B6"/><path fill-rule="evenodd" clip-rule="evenodd" d="M121.122 54.325c0-10.636-8.491-19.304-19.058-19.59v22.04a11.631 11.631 0 0 0-.238-.244c-4.784-4.784-12.502-4.864-17.384-.24l17.622 17.623h.001c10.567-.286 19.057-8.954 19.057-19.59z" fill="#484659"/><path fill-rule="evenodd" clip-rule="evenodd" d="M100.879 98.415H70.758c.367-13.585 11.51-24.5 25.182-24.5 13.671 0 24.818 10.915 25.185 24.5v6.462c0 5.586-4.537 10.122-10.121 10.122-5.588 0-10.125-4.536-10.125-10.122v-6.462z" fill="url(#a)"/><path d="M111.01 108.741a2.034 2.034 0 1 0 0-4.068 2.034 2.034 0 0 0 0 4.068z" fill="#DCDDCB"/><path fill-rule="evenodd" clip-rule="evenodd" d="M70.763 98.416v19.403c-10.467-.283-18.878-8.869-18.878-19.403h18.878z" fill="#484659"/><path d="M112.168 114.283h-2.325v20.07h2.325v-20.07zM33.144 63.337v9.626h4.812v-8.25h.493c1.764 2.832 3.575 5.775 5.11 8.25h5.73v-.055c-.138-.22-.998-1.458-1.57-2.31-4.068-5.995-4.435-6.573-4.618-6.848v-.083c.355-.137.928-.55 1.42-.99.86-.687 1.983-2.392 1.983-4.757 0-3.96-2.532-5.527-4.366-6.022-1.237-.33-2.612-.495-4.377-.495-.745 0-2.062.027-2.67.055-.71.027-1.478.082-1.947.137v11.742zm8.444-5.004c0 1.182-.607 1.98-1.1 2.31-.47.33-1.1.55-1.822.55-.24 0-.515 0-.71-.028v-5.472c.24-.028.493-.055.963-.055 1.65 0 2.67.99 2.67 2.667v.028zm10.63 5.004v9.626h4.812v-8.25h.505c1.753 2.832 3.574 5.775 5.11 8.25h5.717v-.055a176.46 176.46 0 0 0-1.57-2.31c-4.067-5.995-4.422-6.573-4.617-6.848v-.083c.355-.137.94-.55 1.432-.99.848-.687 1.983-2.392 1.983-4.757 0-3.96-2.533-5.527-4.377-6.022-1.238-.33-2.613-.495-4.366-.495-.745 0-2.063.027-2.67.055a28.27 28.27 0 0 0-1.96.137v11.742zm8.445-5.004c0 1.182-.608 1.98-1.1 2.31-.47.33-1.1.55-1.81.55-.253 0-.528 0-.723-.028v-5.472a7.71 7.71 0 0 1 .963-.055c1.65 0 2.67.99 2.67 2.667v.028z" fill="#484659"/><path fill-rule="evenodd" clip-rule="evenodd" d="M66.49 39.001h.023l.003.001h.014l.003.001h.006l.003.001h.007l.003.001h.003l.003.001h.006l.003.001h.003l.003.001.003.001h.003l.003.001h.003l.003.001h.004l.003.002h.006l.003.002h.003l.003.001h.002l.003.002h.003l.003.001.003.001h.003l.003.002h.003l.003.002h.003l.003.001.003.001.003.001.002.001.003.001.003.001.003.001.003.001.003.002h.003l.002.002h.003l.003.002.003.001.003.001.002.001.003.002h.003l.003.002.003.001.002.002h.003l.003.002.002.002h.003l.003.002.002.002.003.001.003.001.002.002.003.001.003.002.002.001.003.002.003.001.002.002.003.001.002.002.003.001.002.002.003.001.002.002.003.002.003.001.002.002.003.001.002.002.002.002.003.002.002.001.003.002.002.002.003.001.002.002.002.002.003.002.002.002.003.001.002.002.002.002.003.002.002.002.002.002.003.002.002.002.002.002.002.001.003.002.002.002.002.002.002.002.002.002.003.002.002.002.002.002.002.003.002.002.002.002.003.002.002.002.002.002.002.002.002.002.002.002.002.003.002.002.002.002.002.002.002.003.002.002.002.002.002.002.002.003.002.002.002.002.002.002.001.003.002.002.002.002.002.003.002.002.002.003.001.002.002.002.002.003.002.002.001.003.002.002.002.002.002.003.001.002.002.003.002.002.001.003.002.002.001.003.002.002.002.003.001.002.002.003.001.003.002.002.001.003.002.002.001.003.002.003.001.002.002.003.001.003.001.002.002.003.001.003.002.002v.003l.002.003.001.002.002.003.001.003.001.003.002.002v.003l.002.003.001.003.001.002.001.003.001.003.002.003v.003l.002.003.001.002.001.003.001.003.001.003.001.003.001.003.001.003.001.002v.003l.002.003v.003l.002.003v.003l.001.003.001.003v.003l.002.003v.003l.001.003.001.003v.003l.001.003.001.003v.003l.002.003v.006l.001.003v.003l.001.003v.003l.002.003v.01l.001.003v.003l.001.003v.003l.001.003v.009l.001.003v.007l.001.003v.019l.001.003v.045l-.001.003v.009l-.001.004v.006l-.001.003v.006l-.001.003v.004l-.001.003v.003l-.001.003v.003l-.001.003v.003l-.001.003v.003l-.001.003v.003l-.001.003-.001.003v.003l-.002.003v.003l-.001.003v.003l-.001.003-.001.003-.001.003v.003l-.002.003v.003l-.001.003-.001.003-.001.003-.001.003-.001.002-.001.003-.001.003v.003l-.002.003v.003l-.002.003-.001.003-.001.003-.001.002-.001.003-.002.003v.003l-.002.002v.003l-.002.003-.001.003-.001.003-.002.002-.001.003-.001.003-.002.003v.002l-.002.003-.001.003-.002.002-.001.003-.002.003-.001.003-.001.002-.002.003-.001.002-.002.003-.001.003-.002.002-.001.003-.002.002-.001.003-.002.003-.001.002-.002.003-.002.002-.001.003-.002.002-.001.003-.002.002-.002.003-.001.002-.002.003-.002.002-.002.002-.001.003-.002.002-.002.003-.002.002-.001.003-.002.002-.002.002-.002.003-.002.002-.002.002-.001.003-.002.002-.002.002-.002.002-.002.003-.002.002-.002.002-.002.003-.002.002-.002.002-.002.002-.002.002-.002.003-.002.002-.002.002-.002.002-.002.002-.002.002-.003.002-.002.002-.002.002-.002.003-.002.002-.002.002-.002.002-.003.002-.002.002-.002.002-.002.002-.003.002-.002.002-.002.002-.002.001-.003.002-.002.002-.002.002-.003.002-.002.002-.002.002-.003.002-.002.001-.003.002-.002.002-.002.002-.003.001-.002.002-.003.002-.002.002-.002.001-.003.002-.002.002-.003.001-.002.002-.003.002-.002.001-.003.002-.003.001-.002.002-.003.001-.002.002-.003.002-.002.001-.003.002h-.003l-.002.002-.003.002-.003.001-.002.002-.003.001-.002.002h-.003l-.003.002-.003.002h-.002l-.003.002-.003.001-.002.002h-.003l-.003.002-.003.001-.003.002h-.002l-.003.002-.003.001-.003.001-.003.001-.002.002h-.003l-.003.002h-.003l-.003.002h-.003l-.002.002h-.003l-.003.002h-.003l-.003.002h-.003l-.003.001-.003.001-.003.001-.003.001h-.003l-.003.002h-.003l-.003.001h-.002l-.003.002h-.003l-.003.001h-.003l-.003.002h-.007l-.003.001h-.003l-.003.002h-.006l-.003.001h-.003l-.003.001h-.003l-.003.001h-.006l-.004.001h-.006l-.003.001h-.006l-.003.001h-.01l-.003.001h-.071l-.003-.001h-.006l-.004-.001h-.006l-.003-.001h-.003l-.003-.001h-.006l-.003-.001h-.004l-.002-.001h-.004l-.003-.002h-.006l-.003-.001h-.003l-.003-.002h-.006l-.003-.002h-.003l-.003-.001h-.003l-.003-.002h-.003l-.003-.001-.003-.001h-.002l-.004-.002h-.002l-.003-.002h-.003l-.003-.001-.003-.001-.003-.001-.003-.001-.003-.001-.003-.001-.002-.001-.003-.001-.003-.001-.003-.002h-.003l-.003-.002H66.3l-.003-.002-.003-.001-.003-.001-.002-.002h-.003l-.003-.002-.003-.001-.002-.002h-.003l-.003-.002-.003-.002h-.002l-.003-.002-.003-.002h-.002l-.003-.002-.003-.002-.002-.001-.003-.002-.003-.001-.002-.002-.003-.001-.002-.002-.003-.001-.003-.002-.002-.001-.003-.002-.002-.001-.003-.002-.002-.002-.003-.001-.002-.002-.003-.001-.002-.002-.003-.002-.002-.001-.003-.002-.002-.002-.003-.002-.002-.001-.002-.002-.003-.002-.002-.002-.003-.002-.002-.001-.002-.002-.003-.002-.002-.002-.002-.002-.003-.002-.002-.002-.002-.002-.002-.001-.003-.002-.002-.002-.002-.002-.002-.002-.003-.002-.002-.002-.002-.002-.002-.002-.002-.002-.002-.002-.003-.003-.002-.002-.002-.002-.002-.002-.002-.002-.002-.002-.002-.002-.002-.002-.002-.003-.002-.002-.002-.002-.002-.002-.002-.002-.002-.003-.002-.002-.002-.002-.002-.002-.002-.003-.002-.002-.002-.002-.002-.003-.002-.002-.001-.002-.002-.003-.002-.002-.002-.002-.002-.003-.001-.002-.002-.003-.002-.002-.002-.002-.001-.003-.002-.002-.002-.003-.002-.002-.001-.003-.002-.002-.002-.003-.001-.002-.002-.003-.001-.002-.002-.003-.001-.002-.002-.003-.002-.003-.001-.002-.002-.003-.001-.002-.002-.003-.001-.003-.002-.002v-.003l-.002-.002-.002-.003-.001-.003-.002-.003v-.002l-.002-.003-.001-.003-.002-.002-.001-.003-.001-.003-.002-.003V39.7l-.002-.003-.001-.003-.001-.003-.002-.003v-.002l-.002-.003-.001-.003-.001-.003-.001-.002-.001-.003-.001-.003-.001-.003-.001-.003-.001-.003-.001-.003-.001-.003-.001-.003-.001-.002-.001-.003-.001-.003v-.003l-.002-.003v-.003l-.002-.003v-.003l-.001-.003v-.003l-.002-.003v-.003l-.001-.003v-.003l-.001-.003-.001-.003v-.003L66 39.598v-.006l-.001-.003v-.003l-.001-.003v-.003l-.001-.003v-.003l-.001-.003v-.003l-.001-.004v-.006l-.001-.003v-.006l-.001-.003v-.007l-.001-.003v-.012l-.001-.004v-.06l.001-.003v-.007l.001-.003v-.006l.001-.003v-.006l.001-.003v-.004l.001-.003v-.003l.001-.003v-.003l.001-.003v-.003l.001-.003.001-.003v-.003l.001-.003v-.003l.002-.003v-.006l.002-.003v-.003l.001-.003v-.003l.002-.003v-.003l.001-.003.001-.003.001-.003.001-.003v-.003l.002-.003v-.003l.002-.002v-.003l.002-.003v-.003l.002-.003v-.003l.002-.003v-.002l.002-.003.001-.003.001-.003.001-.003.001-.003.002-.002v-.003l.002-.003.001-.003.001-.002.002-.003v-.003l.002-.003.002-.002v-.003l.002-.003.001-.002.002-.003.001-.003.002-.002.001-.003.001-.003.002-.002.001-.003.002-.003.001-.002.002-.003.001-.002.002-.003.001-.003.002-.002.002-.003.001-.002.002-.003.001-.002.002-.003.002-.002.001-.003.002-.002.002-.003.002-.002.001-.002.002-.003.002-.002.002-.003.001-.002.002-.002.002-.003.002-.002.002-.003.001-.002.002-.002.002-.003.002-.002.002-.002.002-.002.002-.003.002-.002.002-.002.002-.002.002-.003.002-.002.002-.002.002-.002.002-.002.002-.003.002-.002.002-.002.002-.002.002-.002.002-.002.002-.002.002-.002.003-.003.002-.002.002-.002.002-.002.002-.002.002-.002.003-.002.002-.002.002-.002.003-.002.002-.002.002-.001.002-.002.003-.002.002-.002.002-.002.003-.002.002-.002.002-.001.003-.002.002-.002.003-.002.002-.002.002-.001.003-.002.002-.002.003-.002.002-.001.003-.002.002-.002.003-.001.002-.002.003-.002.002-.001.003-.002.002-.001.003-.002.002-.001.003-.002.003-.001.002-.002.003-.001.002-.002.003-.001.003-.002.002-.001.003-.002.003-.001.002-.001.003-.002.003-.001.002-.002h.003l.003-.002.002-.001.003-.002h.003l.003-.002.002-.001.003-.002h.003l.003-.002.003-.001.002-.001.003-.001.003-.001.003-.002h.003l.003-.002h.002l.003-.002h.003l.003-.002h.003l.003-.002h.003l.003-.002h.003l.002-.001.004-.001h.002l.003-.002h.003l.003-.001.003-.001h.003l.003-.002h.003l.003-.001h.003l.003-.001.003-.001h.003l.003-.001h.003l.003-.002h.007l.002-.001h.004l.003-.001h.003l.003-.001h.006l.003-.001h.006l.004-.001h.006l.003-.001h.01l.003-.001h.032zm-.005.056h-.029l-.003.001h-.008l-.003.001h-.005l-.003.001h-.006l-.002.001h-.006l-.003.001h-.002l-.003.001h-.003l-.003.001h-.002l-.003.001h-.003l-.002.001h-.003l-.003.001-.002.001h-.003l-.003.001-.002.001h-.003l-.003.001-.002.001h-.003l-.002.002h-.003l-.003.001h-.002l-.003.002h-.002l-.003.001-.002.001h-.003l-.003.002h-.002l-.003.002h-.002l-.003.002h-.002l-.003.001-.002.001-.003.001-.002.001-.003.001-.002.001-.003.002h-.002l-.003.002h-.002l-.003.002-.002.001-.002.001-.003.001-.002.001-.003.002h-.002l-.002.002-.003.001-.002.002h-.002l-.003.002-.002.001-.003.002h-.002l-.002.002-.002.002h-.003l-.002.002-.002.002-.003.001-.002.001-.002.002-.002.001-.003.002-.002.001-.002.002-.002.001-.002.002-.003.001-.002.002-.002.001-.002.002-.002.001-.002.002-.002.001-.003.002-.002.002-.002.001-.002.002-.002.002-.002.001-.002.002-.002.002-.002.001-.002.002-.002.002-.002.001-.002.002-.002.002-.002.002-.002.001-.002.002-.002.002-.002.002-.002.002-.002.002-.002.001-.002.002-.002.002-.001.002-.002.002-.002.002-.002.002-.002.002-.002.002-.001.001-.002.002-.002.002-.002.002-.001.002-.002.002-.002.002-.002.002-.001.002-.002.002-.002.002-.001.002-.002.003-.002.002-.001.002-.002.002-.002.002-.001.002-.002.002-.001.002-.002.002-.002.003-.001.002-.002.002-.001.002-.002.002-.001.003-.002.002v.002l-.002.002-.002.003-.001.002-.002.002-.001.002-.001.003-.002.002-.001.002-.001.002-.002.003-.001.002-.001.002-.002.003-.001.002-.001.002-.001.003-.002.002v.003l-.002.002-.001.002-.001.003-.002.002v.003l-.002.002v.002l-.002.003-.001.002-.001.003-.001.002-.001.003-.001.002-.001.003-.001.002-.001.003-.001.002-.001.003-.001.002-.001.003-.001.003v.002l-.002.003v.002l-.001.003-.001.002-.001.003v.002l-.002.003v.003l-.001.002v.003l-.002.002v.003l-.001.003v.002l-.001.003-.001.003v.002l-.001.003v.003l-.001.002v.003l-.001.003-.001.002v.003l-.001.003v.005l-.001.003v.003l-.001.003v.002l-.001.003v.005l-.001.003v.006l-.001.003v.011l-.001.003v.068l.001.002v.01l.001.002v.003l.001.003v.005l.001.003v.003l.001.003v.002l.001.003v.006l.002.002v.006l.001.002v.003l.001.003.001.002v.003l.001.003.001.002v.003l.001.003.001.002v.003l.002.002v.003l.001.003v.002l.002.003v.002l.001.003.001.002.001.003.001.003v.002l.002.003v.002l.002.003v.002l.002.003v.002l.002.003v.002l.002.003v.002l.002.003v.002l.002.002.001.003.001.002.001.003.002.002v.003l.002.002.001.002.001.003.002.002v.002l.002.003.001.002.002.003v.002l.002.002.002.002v.003l.002.002.002.002.001.003.001.002.002.002.001.002.002.003.001.002.001.002.002.002.001.003.002.002.001.002.002.002.001.002.002.002.002.003.001.002.002.002.001.002.002.002.002.002.001.002.002.002.002.003.001.002.002.002.002.002.001.002.002.002.002.002.002.002.001.002.002.002.002.002.002.002.001.002.002.002.002.001.002.002.002.002.002.002.001.002.002.002.002.002.002.002.002.001.002.002.002.002.002.002.002.002.002.001.002.002.002.002.002.002.002.001.002.002.002.002.002.002.002.001.002.002.002.002.002.001.002.002.002.001.002.002.002.002.002.001.003.002.002.001.002.002.002.001.002.002.002.001.003.002.002.001.002.002.002.001.003.002.002.001.002.002.002.001.003.001.002.002.002.001.002.002h.003l.002.002.002.002h.003l.002.002.002.001.003.002h.002l.003.002.002.001.002.001.003.002h.002l.003.002.002.001.002.001.003.001.002.001.003.002h.002l.003.002h.002l.003.002h.002l.003.002h.002l.003.002h.002l.003.002h.002l.003.001.002.001.003.001.002.001h.003l.003.002h.002l.003.001.002.001h.003l.003.002h.002l.003.001h.002l.003.001.003.001h.002l.003.001.003.001h.002l.003.001h.003l.002.001h.003l.003.001h.002l.003.001h.003l.003.001h.002l.003.001h.003l.003.001h.005l.003.001h.005l.003.001h.009l.002.001h.014l.003.001h.048l.003-.001h.009l.002-.001h.009l.003-.001h.002l.003-.001h.006l.002-.001h.003l.003-.001h.002l.003-.001h.003l.003-.001h.002l.003-.001h.003l.002-.001.003-.001h.003l.002-.001h.003l.003-.002h.002l.003-.001h.003l.002-.002h.003l.002-.001h.003l.002-.002h.003l.003-.001.002-.001h.003l.002-.002h.003l.002-.002h.003l.002-.001.003-.001.002-.001.003-.001.002-.001.003-.001.002-.001.003-.001.002-.001.003-.002h.002l.003-.002h.002l.003-.002.002-.001.002-.001.003-.001.002-.002h.003l.002-.002.002-.001.003-.001.002-.002.003-.001.002-.001.002-.002h.003l.002-.002.002-.002h.002l.003-.002.002-.002.002-.001.002-.001.003-.002.002-.001.002-.002.002-.001.003-.002.002-.001.002-.002.002-.001.002-.002.003-.001.002-.002.002-.001.002-.002.002-.001.002-.002.002-.002.003-.001.002-.002.002-.002.002-.001.002-.002.002-.002.002-.001.002-.002.002-.002.002-.001.002-.002.002-.002.002-.002.002-.001.002-.002.002-.002.002-.002.002-.002.002-.002.002-.001.001-.002.002-.002.002-.002.002-.002.002-.002.002-.002.001-.002.002-.002.002-.001.002-.002.002-.002.001-.002.002-.002.002-.002.002-.002.001-.002.002-.002.002-.002.001-.002.002-.002.002-.003.002-.002.001-.002.002-.002.001-.002.002-.002.002-.002.001-.002.002-.003.001-.002.002-.002.001-.002.002-.002.001-.002.002-.003.001-.002.002-.002.001-.002.002-.002v-.003l.002-.002.002-.002.001-.003.002-.002v-.002l.002-.002.001-.003.002-.002.001-.002.001-.003.002-.002v-.003l.002-.002.001-.002.002-.003v-.002l.002-.002.001-.003.001-.002.001-.003.001-.002.002-.003v-.002l.002-.002v-.003l.002-.002.001-.003.001-.002.001-.003.001-.002.001-.003v-.002l.002-.003v-.002l.002-.003v-.002l.002-.003v-.003l.001-.002.001-.003.001-.002v-.003l.002-.002v-.003l.001-.003v-.002l.002-.003v-.002l.001-.003v-.003l.001-.002.001-.003V39.6l.001-.002v-.003l.001-.003.001-.002v-.003l.001-.003v-.002l.001-.003v-.003l.001-.003v-.002l.001-.003v-.005l.001-.003v-.003l.001-.003v-.005l.001-.003v-.008l.001-.003v-.011l.001-.003v-.061l-.001-.003v-.005l-.001-.003v-.008l-.001-.003v-.003l-.001-.002v-.006l-.001-.003v-.002l-.001-.003v-.003l-.001-.003v-.002l-.001-.003v-.003l-.002-.002v-.006l-.001-.002-.001-.003v-.003l-.001-.002-.001-.003v-.002l-.001-.003-.001-.003v-.002l-.002-.003v-.003l-.001-.002-.001-.003v-.002l-.002-.003v-.002l-.001-.003-.001-.002-.001-.003-.001-.003-.001-.002-.001-.003-.001-.002-.001-.003-.001-.002-.001-.003-.001-.002-.001-.003-.001-.002-.001-.003-.001-.002-.001-.003-.002-.002v-.002l-.002-.003v-.002l-.002-.003-.001-.002-.001-.002-.002-.003v-.002l-.002-.003-.001-.002-.002-.002v-.002l-.002-.003-.002-.002v-.002l-.002-.003-.001-.002-.002-.002-.001-.003-.002-.002-.001-.002-.001-.002-.002-.003-.001-.002-.002-.002-.001-.002-.002-.003-.001-.002-.002-.002-.001-.002-.002-.002-.001-.003-.002-.002-.001-.002-.002-.002-.002-.002-.001-.002-.002-.002-.001-.002-.002-.002-.002-.002-.002-.003-.001-.002-.002-.002-.002-.002-.001-.002-.002-.002-.002-.002-.002-.002-.001-.002-.002-.002-.002-.002-.002-.002-.002-.001-.001-.002-.002-.002-.002-.002-.002-.002-.002-.002-.002-.002-.001-.002-.002-.002-.002-.001-.002-.002-.002-.002-.002-.002-.002-.002-.002-.001-.002-.002-.002-.002-.002-.002-.002-.001-.002-.002-.002-.002-.002-.002-.002-.001-.002-.002-.002-.002-.002-.001-.002-.002-.002-.001-.003-.002-.002-.002-.002-.001-.002-.002-.002-.001-.002-.002-.002-.001-.003-.002-.002-.001-.002-.002-.002-.001-.002-.002-.003-.001-.002-.002-.002-.001-.002-.002-.003-.001-.002-.001-.002-.002-.003-.001-.002-.002h-.002l-.002-.002-.003-.001-.002-.002-.002-.001-.003-.001-.002-.002h-.002l-.003-.002-.002-.001-.003-.001-.002-.002h-.002l-.003-.002-.002-.001-.003-.001-.002-.001-.003-.001-.002-.002h-.003l-.002-.002h-.003l-.002-.002h-.002l-.003-.002h-.002l-.003-.002h-.003l-.002-.002h-.003l-.002-.001-.003-.001-.002-.001h-.003l-.002-.002h-.003l-.002-.001-.003-.001-.003-.001h-.002l-.003-.002h-.002l-.003-.001H66.6l-.002-.001-.003-.001h-.003l-.002-.001h-.003l-.003-.002h-.005l-.003-.001h-.002l-.003-.001h-.003l-.002-.001h-.003l-.003-.001h-.003l-.002-.001h-.003l-.003-.001h-.005l-.003-.001h-.006l-.002-.001h-.01l-.003-.001h-.016l-.002-.001h-.017z" fill="#A5C5B6"/><path fill-rule="evenodd" clip-rule="evenodd" d="M66.61 39.212a.119.119 0 0 1 0 .237v-.237z" fill="#484659"/><path fill-rule="evenodd" clip-rule="evenodd" d="M66.502 39.342a.076.076 0 0 1 .107.107l-.107-.107z" fill="#484659"/><path fill-rule="evenodd" clip-rule="evenodd" d="M66.602 39.598h-.183a.153.153 0 0 1 .306 0v.039a.061.061 0 1 1-.123 0v-.04z" fill="url(#b)"/><path d="M66.663 39.66a.012.012 0 0 0 .013-.012.012.012 0 0 0-.025 0c0 .007.005.012.012.012z" fill="#DCDDCB"/><path fill-rule="evenodd" clip-rule="evenodd" d="M66.42 39.598v.117a.118.118 0 0 1-.115-.117h.114z" fill="#484659"/><path d="M66.67 39.694h-.014v.121h.014v-.121zm-.479-.309v.058h.03v-.05h.003l.03.05h.035l-.01-.014-.027-.041v-.001a.038.038 0 0 0 .02-.035c0-.024-.015-.033-.026-.036a.1.1 0 0 0-.027-.003.761.761 0 0 0-.028 0v.072zm.052-.03a.017.017 0 0 1-.007.014.019.019 0 0 1-.011.003h-.004v-.033a.04.04 0 0 1 .005 0c.01 0 .017.005.017.016zm.064.03v.058h.03v-.05h.002l.031.05h.035l-.01-.014c-.024-.036-.026-.04-.028-.041v-.001a.038.038 0 0 0 .02-.035c.001-.024-.014-.033-.025-.036a.1.1 0 0 0-.027-.003.749.749 0 0 0-.028 0v.072zm.051-.03a.017.017 0 0 1-.007.014.019.019 0 0 1-.01.003h-.005v-.033h.006c.01 0 .016.005.016.016z" fill="#484659"/><defs><radialGradient id="a" cx="0" cy="0" r="1" gradientUnits="userSpaceOnUse" gradientTransform="matrix(13.17392 -13.17387 11.66378 11.66382 100.626 97.473)"><stop stop-color="#BF3B40"/><stop offset="1" stop-color="#484659"/></radialGradient><radialGradient id="b" cx="0" cy="0" r="1" gradientUnits="userSpaceOnUse" gradientTransform="matrix(.07984 -.07984 .07069 .07069 66.6 39.591)"><stop stop-color="#BF3B40"/><stop offset="1" stop-color="#484659"/></radialGradient></defs></svg>