<svg width="182" height="188" viewBox="0 0 182 188" fill="none" xmlns="http://www.w3.org/2000/svg"><path fill-rule="evenodd" clip-rule="evenodd" d="M122.027 17.853C122.027 8.16 114.288.26 104.658 0v20.092a10.514 10.514 0 0 0-.224-.23c-4.36-4.36-11.394-4.432-15.843-.218l16.061 16.061.006-.006v.007c9.63-.26 17.369-8.16 17.369-17.853z" fill="#484659"/><path fill-rule="evenodd" clip-rule="evenodd" d="M103.574 58.035H76.123c.334-12.38 10.49-22.329 22.949-22.329 12.46 0 22.618 9.948 22.953 22.329v5.89c0 5.09-4.135 9.223-9.224 9.223-5.093 0-9.227-4.133-9.227-9.224v-5.89z" fill="url(#a)"/><path d="M112.807 67.446a1.854 1.854 0 1 0 0-3.708 1.854 1.854 0 0 0 0 3.708z" fill="#DCDDCB"/><path fill-rule="evenodd" clip-rule="evenodd" d="M76.126 58.036v17.683c-9.539-.257-17.204-8.082-17.204-17.683h17.204z" fill="#484659"/><path d="M113.858 72.497h-2.118v18.29h2.118v-18.29zM0 118.093v9.6h4.8v-8.228h.497c1.754 2.825 3.566 5.76 5.103 8.228h5.703v-.054c-.137-.22-.989-1.454-1.566-2.304-4.057-5.98-4.411-6.556-4.606-6.83v-.082c.355-.138.932-.549 1.429-.988.846-.686 1.971-2.386 1.971-4.745 0-3.95-2.52-5.513-4.36-6.007-1.234-.329-2.605-.494-4.36-.494-.742 0-2.057.028-2.662.055-.715.028-1.48.083-1.949.137v11.712zm8.423-4.992c0 1.18-.606 1.975-1.097 2.304a3.149 3.149 0 0 1-1.812.549c-.245 0-.52 0-.714-.027v-5.459c.251-.027.497-.055.96-.055 1.646 0 2.663.988 2.663 2.661v.027zm9.655 4.663c0 2.524.137 4.197.795 5.651 1.285 2.907 4.331 4.69 8.531 4.69 4.029 0 6.937-2.194 7.977-4.526.686-1.536.88-3.236.88-5.869v-11.411h-5.017v11.411c0 1.865-.137 3.154-.686 4.032-.663 1.042-1.84 1.645-3.268 1.645-1.452 0-2.794-.603-3.429-1.728-.463-.85-.6-2.057-.6-3.949v-11.411h-5.183v11.465zm36.865 3.894c0-2.77-1.949-4.69-4.063-5.129v-.055c2.057-.603 3.183-2.523 3.183-4.443 0-3.703-2.743-4.91-4.029-5.294-1.126-.329-2.634-.521-3.897-.521-1.017 0-2.252 0-3.046.055-.714.027-1.4.082-1.863.137v21.202c.737.028 1.4.11 1.697.11.91.028 1.458.055 2.309.055 3.617 0 5.429-.411 6.909-1.289 1.48-.878 2.8-2.661 2.8-4.8v-.028zm-5.76-9.133a2.006 2.006 0 0 1-1.343 1.947c-.469.165-.8.192-1.126.192-.223 0-.497 0-.794-.027v-4.169c.245-.028.708-.055.96-.055 1.394 0 2.303.74 2.303 2.084v.028zm.6 8.503c0 1.152-.686 1.81-1.343 2.112-.492.246-1.069.329-1.537.329-.326 0-.709 0-.96-.028-.023 0-.023-.027-.023-.055v-4.69c.245 0 .737-.027.931-.027.383 0 .932.082 1.315.192.822.247 1.617 1.015 1.617 2.139v.028zm20.465-5.677c4.388-7.571 5.045-8.695 5.183-8.969v-.083h-5.4v.055c-.109.165-.852 1.454-1.978 3.374-.874 1.508-1.674 2.88-2.194 4.004h-.051c-.526-1.124-1.372-2.633-2.195-4.114-1.017-1.81-1.702-3.017-1.84-3.264v-.055h-5.702v.055c.16.302.845 1.454 5.182 8.997l2.029 3.538v8.805h5.074v-9.079l1.892-3.264zm14.349 2.742v9.6h4.8v-8.229h.491c1.754 2.825 3.566 5.76 5.103 8.229h5.703v-.055c-.137-.219-.989-1.454-1.56-2.304-4.063-5.979-4.418-6.555-4.612-6.83v-.082c.36-.137.932-.549 1.429-.987.851-.686 1.971-2.387 1.971-4.746 0-3.949-2.52-5.513-4.36-6.006-1.234-.33-2.605-.494-4.36-.494a76.6 76.6 0 0 0-2.663.055c-.708.027-1.48.082-1.942.137v11.712zm8.417-4.992c0 1.179-.6 1.975-1.097 2.304-.463.329-1.098.548-1.812.548-.246 0-.52 0-.709-.027v-5.458c.246-.028.492-.055.96-.055 1.646 0 2.658.987 2.658 2.66v.028zm15.716 2.25v-9.052h-5.103v21.395h5.103v-12.343zm23.042 1.206c0-3.127-1.046-6.61-4.366-8.667-1.782-1.097-4.165-1.756-7.428-1.756-1.017 0-2.057.028-3.377.083-1.263.055-1.949.137-2.497.192v21.175c.577.054 1.399.109 1.977.137.88.027 2.194.055 3.565.055 2.852 0 5.378-.604 7.269-1.866 3.097-2.029 4.857-5.238 4.857-9.325v-.028zm-5.269.165c0 2.551-1.068 4.306-2.548 5.376a5.997 5.997 0 0 1-3.457 1.07 9.73 9.73 0 0 1-1.263-.083c-.029 0-.057 0-.057-.055v-12.233c.36-.027.88-.082 1.4-.082 1.646 0 2.937.439 3.897 1.179 1.371 1.098 2.028 2.853 2.028 4.8v.028zm9.385 1.372v9.6h11.543v-4.279h-6.469v-4.416h5.566v-4.252h-5.566v-4.196h6.309v-4.252h-11.383v11.795zm16.26-.001v9.6h4.8v-8.229h.491c1.76 2.825 3.566 5.76 5.103 8.229h5.708v-.055c-.137-.219-.988-1.454-1.565-2.304-4.057-5.979-4.417-6.555-4.606-6.83v-.082c.354-.137.931-.549 1.423-.987.851-.686 1.977-2.387 1.977-4.746 0-3.949-2.526-5.513-4.36-6.006-1.234-.33-2.606-.494-4.366-.494-.737 0-2.057.027-2.657.055-.714.027-1.48.082-1.948.137v11.712zm8.422-4.992c0 1.179-.605 1.975-1.097 2.304a3.154 3.154 0 0 1-1.811.548c-.246 0-.52 0-.714-.027v-5.458c.245-.028.491-.055.96-.055 1.645 0 2.662.987 2.662 2.66v.028zm21.279 8.914c0-2.413-1.097-3.977-2.794-5.568-1.154-1.069-2.086-1.81-2.554-2.331-.463-.521-.766-.96-.766-1.673 0-1.18 1.04-1.865 2.497-1.865.52 0 .932.055 1.314.137a8 8 0 0 1 1.069.329h.057c.057-2.359.08-2.825.137-4.498-.765-.247-2.057-.384-3.045-.384-5.212 0-7.349 3.099-7.349 6.308 0 2.359 1.234 4.032 2.411 5.212a27.405 27.405 0 0 0 2.143 1.92c.875.713 1.395 1.399 1.395 2.139 0 1.234-.96 1.838-2.275 1.838-.96 0-1.754-.137-2.411-.357a7.375 7.375 0 0 1-1.097-.466h-.057c-.08 2.386-.109 2.935-.138 4.526 1.04.493 2.8.74 4.28.74 4.166 0 7.183-2.413 7.183-5.979v-.028z" fill="#484659"/><path d="M33.374 149.374c0-.905-.412-1.491-1.052-2.088-.434-.401-.783-.679-.954-.874-.177-.196-.291-.36-.291-.628 0-.442.394-.699.937-.699.194 0 .348.02.491.051.137.031.303.083.406.124h.017c.023-.885.034-1.06.051-1.687-.285-.093-.771-.144-1.142-.144-1.955 0-2.755 1.162-2.755 2.366 0 .884.463 1.512.903 1.954.217.216.486.463.806.72.325.267.526.524.526.802 0 .463-.36.689-.858.689a2.8 2.8 0 0 1-.902-.134 2.802 2.802 0 0 1-.412-.174h-.023c-.028.894-.04 1.1-.051 1.697.394.185 1.051.278 1.605.278 1.566 0 2.698-.906 2.698-2.243v-.01zm12.619-2.686c.806-2.654.926-3.055.96-3.189v-.02h-1.8v.02c-.034.103-.217.494-.771 2.52a20.67 20.67 0 0 0-.309 1.224h-.034a17.318 17.318 0 0 0-.635-1.358c-.702-1.265-1.114-1.964-1.33-2.355h-.264c-.228.401-.668 1.152-1.268 2.294a18.85 18.85 0 0 0-.686 1.45h-.034a33.797 33.797 0 0 0-.372-1.368c-.554-1.882-.72-2.294-.748-2.407v-.02h-1.954v.02c.028.113.154.535.977 3.199l1.52 4.958h.257c1.965-3.734 2.194-4.248 2.377-4.763h.011c.183.504.4 1.019 2.343 4.763h.257l1.503-4.968zm6.605.185v-3.394h-1.915v8.022h1.915v-4.628zm6.489-1.8h2.365v-1.594h-4.268v8.022h1.903v-3.003h2.085v-1.594h-2.086v-1.831zm8.186 2.828v3.6h1.903v-6.418h2.068v-1.604H65.21v1.604h2.063v2.818zm8.881-4.463a.84.84 0 0 0-.846.844c0 .421.228.699.548.792.04.02.109.031.109.092 0 .196-.091.473-.257.741a3.13 3.13 0 0 1-.349.452l.217.237c.32-.185.692-.514.955-.885.24-.318.457-.822.457-1.296 0-.689-.423-.977-.823-.977h-.011zm12.092 3.435v-3.394h-1.771v3.188c0 .319 0 .628.011 1.152h-.023a45.3 45.3 0 0 0-1.451-1.398c-.686-.648-1.714-1.533-3.463-3.014h-.246v8.095h1.766v-3.343c0-.257 0-.525-.017-.946h.017a32.1 32.1 0 0 0 1.554 1.481c.692.627 1.697 1.501 3.372 2.911h.251v-4.732zm14.647 2.5c0-.905-.412-1.491-1.052-2.088-.428-.401-.783-.678-.954-.874-.177-.195-.291-.36-.291-.627 0-.443.394-.7.937-.7a2.341 2.341 0 0 1 .897.175h.017c.023-.884.034-1.059.051-1.687-.285-.092-.771-.144-1.137-.144-1.954 0-2.76 1.163-2.76 2.366 0 .885.463 1.512.909 1.954.211.216.48.463.8.72.331.268.526.525.526.803 0 .462-.36.689-.858.689-.36 0-.657-.052-.902-.134a2.8 2.8 0 0 1-.412-.175h-.023c-.028.895-.04 1.101-.051 1.697.394.185 1.051.278 1.606.278 1.565 0 2.697-.905 2.697-2.242v-.011zm5.775-1.472v3.6h1.903v-6.418h2.062v-1.604h-6.034v1.604h2.069v2.818zm8.006 0v3.6h4.331v-1.604h-2.428v-1.656h2.085v-1.594h-2.085v-1.574h2.365v-1.594h-4.268v4.422zm12.665 2.449c.235.597.418 1.049.44 1.121v.031h2.138v-.031c-.029-.072-.223-.524-1.56-3.579l-1.995-4.557h-.268l-2.018 4.557c-1.36 3.055-1.565 3.507-1.594 3.579v.031h1.955v-.031c.028-.072.217-.524.462-1.121h2.44zm-1.862-1.522v-.021c.422-1.039.582-1.512.657-1.779h.011c.069.267.223.74.634 1.779v.021h-1.302zm14.879-1.503c0-1.172-.389-2.478-1.634-3.25-.669-.411-1.56-.658-2.789-.658-.377 0-.771.01-1.263.031-.474.02-.731.051-.937.072v7.94c.217.021.526.041.743.052.326.01.823.02 1.337.02 1.069 0 2.017-.226 2.726-.699 1.16-.761 1.817-1.965 1.817-3.497v-.011zm-1.971.062c0 .957-.4 1.615-.96 2.016a2.222 2.222 0 0 1-1.292.401c-.154 0-.32-.01-.474-.031-.012 0-.023 0-.023-.02v-4.588c.137-.01.331-.03.526-.03.617 0 1.103.164 1.463.442.514.411.76 1.07.76 1.8v.01zm10.198-.514c1.646-2.839 1.897-3.261 1.948-3.364v-.03h-2.028v.02c-.04.062-.32.545-.743 1.265-.326.566-.623 1.08-.823 1.502h-.017c-.194-.422-.514-.987-.823-1.543-.383-.679-.64-1.131-.691-1.224v-.02h-2.137v.02c.062.113.32.545 1.942 3.374l.76 1.327v3.301h1.903v-3.404l.709-1.224z" fill="#B63A41"/><path d="M78.317 179.569c-2.12 4.059-4.715 6.4-6.726 6.4-1.32 0-2.709-1.39-2.709-4.535 0-2.194.697-5.193 2.303-7.79 3.034-4.9 8.229-8.082 9.109-7.131.44.475 0 1.646-.514 2.926-.218.548-.475 1.133-.623 1.682a4.644 4.644 0 0 0-.218 1.353c0 1.061.515 1.865 1.246 2.341.732.438 1.24.073 1.423-.549.257-.805.771-2.048 1.389-3.291a4.749 4.749 0 0 0 .514-2.122c0-1.426-.949-2.852-2.194-3.949-.623-.512-1.463-.768-2.378-.768-.914 0-1.937.256-2.89.621-4.132 1.866-10.675 8.485-10.532 15.872.074 2.999 1.571 5.303 3.291 6.218.914.512 2.011.768 3.217.768a8.08 8.08 0 0 0 4.72-1.5c1.314-.987 3.292-3.108 3.292-5.23 0-.365-.075-.804-.257-1.206-.366-.842-1.206-.622-1.463-.11zm15.328-11.885c0-.951-.406-1.975-1.206-2.67-.697-.658-1.354-.439-2.051.256-3.583 3.767-7.715 10.532-9.143 16.603a8.77 8.77 0 0 0-.257 2.085c0 2.523 1.394 3.803 3.623 3.803 3.074 0 5.777-2.999 6.325-4.096.475-.987.515-1.828.366-2.377-.257-.951-1.057-.951-1.537-.036-1.389 2.633-3.509 5.083-5.189 5.083-.48 0-.697-.622-.697-1.499 0-1.28.474-2.926 1.206-4.791 3.217-2.158 7.206-6.473 8.337-10.825a4.874 4.874 0 0 0 .223-1.536zm-2.051.914c.222.146-.252 1.755-1.498 3.84a22.977 22.977 0 0 1-3.657 4.644c.257-.621 1.863-3.364 2.817-4.973 1.24-2.158 2.195-3.584 2.338-3.511z" fill="#484659"/><path d="M104.617 183.995c.548-1.061.4-2.122.257-2.451-.297-.695-.915-.585-1.28.037-1.32 2.304-3.183 4.827-4.389 4.827-.48 0-.697-.365-.697-1.024 0-1.426 1.428-3.913 2.486-5.632 1.28-2.121 2.051-3.73 2.051-4.973 0-.805-.183-1.39-.548-1.902-.44-.622-1.029-.476-1.538.219-1.32 1.683-2.268 4.169-4.428 7.68-1.863 2.926-3.8 5.413-4.754 5.413-.8 0-.692-1.353-.035-2.816 1.28-2.816 3.949-7.058 3.949-8.558 0-.548-.143-1.17-.549-1.682-.44-.549-1.097-.622-1.571 0-2.269 3.182-4.132 6.839-4.937 9.143a7.083 7.083 0 0 0-.475 2.523c0 1.573.732 2.962 2.595 2.962 1.868 0 3.514-1.133 4.754-2.523.148 1.646 1.246 2.706 3.4 2.706 2.269 0 4.646-1.865 5.709-3.949z" fill="#484659"/><path d="M113.207 176.021c0 1.061-.406 2.634-1.463 4.718-1.829 3.73-3.257 4.864-4.28 4.864-.731 0-1.354-1.097-1.429-2.158 1.355-2.779 3-5.705 4.538-7.314.988-.951 1.68-1.353 2.12-1.353.405 0 .514.439.514 1.243zm3.108.403c0-2.085-.88-3.548-2.891-3.548-.583 0-1.389.293-2.046.659 1.057-1.866 1.972-3.255 2.52-4.243.88-1.572 1.28-2.999 1.28-3.986 0-.585-.108-1.097-.365-1.536-.475-.841-.983-.841-1.532-.037-3.074 4.535-9.44 16.458-10.497 19.676-.771 2.34-.366 3.328.217 4.132.474.622.914.512 1.246-.182l.731-1.61c.732 1.207 1.972 1.939 3.732 1.939 2.263 0 4.571-2.121 6.285-5.925.915-1.975 1.32-3.876 1.32-5.339z" fill="#484659"/><defs><radialGradient id="a" cx="0" cy="0" r="1" gradientUnits="userSpaceOnUse" gradientTransform="rotate(-45 120.69 -96.158) scale(16.9792 15.0329)"><stop stop-color="#BF3B40"/><stop offset="1" stop-color="#484659"/></radialGradient></defs></svg>