<svg width="804" height="149" viewBox="0 0 804 149" fill="none" xmlns="http://www.w3.org/2000/svg"><rect x="168.57" y="4" width="632.902" height="66.531" rx="2" stroke="#fff" stroke-width="4"/><path d="M166.57 6a4 4 0 0 1 4-4h7.755v70.53h-7.755a4 4 0 0 1-4-4V6z" fill="#FF6726"/><rect x="168.57" y="80.469" width="632.902" height="66.531" rx="2" stroke="#fff" stroke-width="4"/><path d="M166.57 82.47a4 4 0 0 1 4-4h7.755V149h-7.755a4 4 0 0 1-4-4V82.47z" fill="#81569C"/><path stroke="#fff" stroke-width="4" d="M.529 2.939h158.694"/><path d="M774.998 27.714l9.551 9.551-9.551 9.551m0 57.368l9.551 9.551-9.551 9.551" stroke="#fff" stroke-width="2" stroke-linecap="round"/><path fill="#BDCBD7" d="M198.896 28.449h131.755v18.367H198.896zm231.347 4.408h48.49v9.551h-48.49zm69.061 0h72v9.551h-72zm137.847 0h72v9.551h-72zm-206.908 76.102h48.49v9.551h-48.49zm69.061 0h72v9.551h-72zm137.847 0h72v9.551h-72zm-438.255-4.775h131.755v18.367H198.896z"/><path d="M15.251 28.495c0 1.023-.263 1.937-.789 2.74-.526.795-1.243 1.421-2.152 1.88 1.09.508 1.927 1.201 2.51 2.081.594.88.89 1.875.89 2.985 0 1.837-.621 3.296-1.865 4.376-1.244 1.072-2.899 1.608-4.965 1.608-2.076 0-3.74-.54-4.993-1.622-1.244-1.08-1.866-2.535-1.866-4.362 0-1.12.297-2.124.89-3.014.593-.89 1.425-1.573 2.497-2.052-.9-.459-1.612-1.085-2.138-1.88-.517-.803-.775-1.716-.775-2.74 0-1.78.574-3.19 1.722-4.233 1.148-1.043 2.697-1.564 4.649-1.564 1.961 0 3.516.521 4.663 1.564 1.148 1.043 1.722 2.454 1.722 4.233zm-3.027 9.514c0-1.034-.311-1.866-.933-2.497-.612-.641-1.425-.962-2.44-.962-1.014 0-1.827.316-2.439.948-.603.63-.904 1.468-.904 2.51 0 1.024.297 1.842.89 2.454.602.613 1.43.919 2.482.919 1.052 0 1.87-.297 2.454-.89.593-.593.89-1.42.89-2.482zm-.445-9.385c0-.909-.263-1.655-.79-2.238-.526-.593-1.233-.89-2.123-.89-.89 0-1.593.282-2.11.847-.516.554-.774 1.315-.774 2.281 0 .957.258 1.717.774 2.282.527.564 1.235.846 2.124.846.89 0 1.593-.282 2.11-.846.526-.565.789-1.325.789-2.282zm9.341 11.58c.65 0 1.153.187 1.507.56.354.363.53.822.53 1.377 0 .546-.176 1-.53 1.364-.354.353-.856.53-1.507.53-.622 0-1.114-.176-1.478-.53-.363-.354-.545-.809-.545-1.364 0-.554.177-1.014.531-1.377.354-.373.851-.56 1.492-.56zm0-12.183c.65 0 1.153.187 1.507.56.354.364.53.823.53 1.378 0 .545-.176 1-.53 1.363-.354.354-.856.53-1.507.53-.622 0-1.114-.176-1.478-.53-.363-.354-.545-.809-.545-1.363 0-.555.177-1.014.531-1.378.354-.373.851-.56 1.492-.56zm9.514 3.817h2.124c1.071-.01 1.918-.287 2.54-.832.631-.545.947-1.334.947-2.368 0-.995-.263-1.765-.79-2.31-.516-.555-1.31-.832-2.382-.832-.937 0-1.707.273-2.31.818-.603.535-.904 1.239-.904 2.11h-3.487a5.31 5.31 0 0 1 .847-2.928c.574-.88 1.368-1.564 2.382-2.052 1.024-.497 2.167-.746 3.43-.746 2.085 0 3.72.526 4.907 1.578 1.196 1.043 1.794 2.497 1.794 4.362 0 .938-.302 1.823-.904 2.655a5.594 5.594 0 0 1-2.31 1.865c1.147.393 2.018 1.01 2.61 1.852.604.842.905 1.846.905 3.013 0 1.875-.646 3.367-1.937 4.477-1.282 1.11-2.97 1.665-5.066 1.665-2.009 0-3.654-.536-4.936-1.608-1.282-1.071-1.923-2.496-1.923-4.276h3.487c0 .919.306 1.665.919 2.239.621.574 1.454.86 2.496.86 1.081 0 1.933-.286 2.555-.86.621-.574.932-1.406.932-2.497 0-1.1-.325-1.947-.975-2.54-.65-.593-1.617-.89-2.899-.89h-2.052v-2.755zm26.288 3.243c0 3.004-.564 5.271-1.693 6.802-1.12 1.521-2.827 2.282-5.123 2.282-2.257 0-3.96-.742-5.108-2.225-1.139-1.492-1.722-3.697-1.75-6.615V31.71c0-3.004.559-5.256 1.678-6.758 1.129-1.502 2.846-2.253 5.152-2.253 2.286 0 3.989.732 5.108 2.195 1.129 1.464 1.708 3.655 1.736 6.572v3.616zm-3.487-3.903c0-1.96-.268-3.396-.803-4.305-.536-.918-1.387-1.377-2.554-1.377-1.139 0-1.976.435-2.512 1.306-.535.86-.818 2.21-.846 4.046v4.736c0 1.951.273 3.405.818 4.362.545.957 1.401 1.435 2.568 1.435 1.12 0 1.947-.44 2.483-1.32.535-.89.818-2.277.846-4.162v-4.72zm17.69 9.781H66.27l-1.016 2.919h-2.265l4.736-12.536h1.954l4.744 12.536H72.15l-1.025-2.92zm-4.244-1.757h3.633l-1.816-5.2-1.817 5.2zm11.795-7.86l3.616 9.608 3.608-9.608h2.815v12.536h-2.17v-4.133l.216-5.527-3.703 9.66H81.5l-3.694-9.652.216 5.519v4.133h-2.17V31.342h2.824z" fill="#fff"/></svg>