<svg width="197" height="182" viewBox="0 0 197 182" fill="none" xmlns="http://www.w3.org/2000/svg"><path d="M86.99 133.61v-2.548h-8.6v13.844h8.6v-2.549h-5.871v-3.033h4.661v-2.469h-4.66v-3.254h5.87v.009zm6.833-.238c1.165 0 3.955.282 3.955.282l.08-2.328s-2.252-.502-4.203-.502c-2.993 0-4.661 1.367-4.661 4.012 0 2.248.91 3.192 3.92 4.329 1.906.723 2.613 1.023 2.613 1.843 0 1.261-.883 1.587-2.287 1.587-1.227 0-3.858-.282-3.858-.282l-.141 2.372s2.313.459 4.238.459c3.354 0 4.785-1.305 4.785-4.215 0-2.328-.963-2.91-3.797-3.994-2.145-.821-2.736-1.2-2.736-2.126 0-.996.803-1.437 2.092-1.437zm12.254 11.542v-11.18h3.257v-2.672h-9.322v2.672h3.337v11.18h2.728zm12.298-9.232c0-3.165-.795-4.611-3.947-4.611h-3.089v9.585h3.089c3.249 0 3.947-1.72 3.947-4.974zm-3.885 2.734h-1.015v-5.114h1.015c1.457 0 1.66.767 1.66 2.407 0 1.666-.212 2.707-1.66 2.707zm-36.037 19.275v1.896h6.577v-1.993h-3.805l1.58-1.463c1.571-1.579 2.057-2.425 2.057-4.004 0-1.895-1.068-2.918-3.249-2.918-1.439 0-3.09.405-3.09.405l.124 1.87s1.377-.23 2.428-.23c1.112 0 1.589.397 1.589 1.191 0 .987-.707 1.781-2.022 3.121l-2.19 2.125zm14.31 2.081c2.384 0 3.903-1.199 3.903-5.22 0-4.012-1.519-5.343-3.903-5.343-2.383 0-3.902 1.331-3.902 5.343 0 4.021 1.519 5.22 3.902 5.22zm.018-8.597c1.157 0 1.59.882 1.59 3.377 0 2.504-.433 3.263-1.59 3.263-1.156 0-1.624-.759-1.624-3.263 0-2.495.459-3.377 1.624-3.377zm10.956 8.597c2.375 0 3.894-1.199 3.894-5.22 0-4.012-1.51-5.343-3.894-5.343-2.383 0-3.902 1.331-3.902 5.343 0 4.021 1.519 5.22 3.902 5.22zm.009-8.597c1.165 0 1.589.882 1.589 3.377 0 2.504-.432 3.263-1.589 3.263-1.156 0-1.616-.759-1.616-3.263 0-2.495.46-3.377 1.616-3.377zm7.231 6.763h4.264v1.808h2.136v-1.808h.945v-1.975h-.945v-2.654h-2.136v2.654h-1.854l2.489-6.56h-2.322l-2.577 6.842v1.693zM98.378 23.398c6.286 0 11.38-5.087 11.38-11.366 0-6.269-5.094-11.357-11.38-11.357-6.277 0-11.38 5.088-11.38 11.366.01 6.27 5.103 11.357 11.38 11.357zm0-19.178a4.673 4.673 0 0 1 4.679 4.673 4.665 4.665 0 0 1-4.679 4.665 4.67 4.67 0 1 1 0-9.338zm14.329 139.284c0 .908.742 1.649 1.642 1.649.909 0 1.651-.732 1.651-1.649a1.64 1.64 0 0 0-1.651-1.64c-.9 0-1.642.731-1.642 1.64zM29.384 97.052l-.159-6.366.46-.38c2.065.239 3.928.45 5.994.697l-.521-1.737a.793.793 0 0 1 .274-.829l6.012-4.92-1.245-.59c-.547-.203-.388-.503-.194-1.253l.918-3.36-3.487.741a.53.53 0 0 1-.618-.379l-.45-1.578-2.764 3.121c-.388.494-1.192.494-.936-.661l1.175-6.313-1.58.828c-.442.247-.884.291-1.14-.158l-2.224-4.11-2.225 4.11c-.247.45-.698.405-1.13.158l-1.58-.828 1.183 6.313c.247 1.155-.557 1.155-.945.661l-2.763-3.121-.45 1.578c-.054.212-.274.424-.619.38l-3.496-.741.919 3.36c.203.749.353 1.057-.195 1.251l-1.245.591 6.013 4.92c.238.186.362.52.273.83l-.53 1.736c2.066-.238 3.92-.458 5.995-.696l.46.379-.16 6.366h.98zm138.43-28.578l-3.116 9.497h-9.994l8.087 5.881-3.117 9.55 8.131-5.9 8.114 5.9-3.117-9.55 8.096-5.881h-10.003l-3.081-9.497zm27.845 12.715a19.79 19.79 0 0 0-.035-.688c.388-.3.635-.767.573-1.287a27.326 27.326 0 0 0-.538-3.157 1.43 1.43 0 0 0-.971-1.049c-.062-.22-.106-.45-.168-.67.3-.37.424-.873.256-1.358a28.89 28.89 0 0 0-1.227-2.954c-.221-.467-.671-.74-1.148-.793-.115-.212-.238-.406-.362-.609.221-.432.23-.961-.044-1.402a28.515 28.515 0 0 0-1.854-2.61 1.442 1.442 0 0 0-1.121-.538c-.062 0-.133.027-.185.035a13.528 13.528 0 0 0-.468-.51c.114-.477.017-.997-.354-1.368a28.665 28.665 0 0 0-2.383-2.134 1.44 1.44 0 0 0-.901-.317c-.167 0-.335.053-.503.115-.185-.141-.371-.291-.565-.424 0-.476-.212-.952-.644-1.225a29.99 29.99 0 0 0-2.808-1.552 1.443 1.443 0 0 0-1.404.088c-.211-.088-.432-.167-.644-.256a1.411 1.411 0 0 0-.909-1.067 28.614 28.614 0 0 0-3.082-.881 1.402 1.402 0 0 0-1.341.423c-.23-.035-.46-.07-.68-.106-.203-.45-.609-.794-1.13-.846a29.727 29.727 0 0 0-3.196-.177h-.062c-.53 0-.971.3-1.218.723-.23.01-.459.018-.689.035-.265-.343-.662-.581-1.121-.581-.053 0-.106 0-.168.008a29.7 29.7 0 0 0-3.16.538c-.512.115-.874.503-1.025.97-.22.062-.459.106-.679.168a1.445 1.445 0 0 0-.901-.326 1.5 1.5 0 0 0-.477.079 27.15 27.15 0 0 0-2.957 1.234c-.459.22-.724.67-.777 1.138-.203.106-.397.238-.6.353a1.437 1.437 0 0 0-1.422.062c-.9.563-1.774 1.19-2.604 1.86-.406.326-.565.829-.503 1.314-.177.15-.345.308-.512.467-.115-.026-.23-.062-.345-.062-.37 0-.741.141-1.015.423a30.628 30.628 0 0 0-2.128 2.39c-.326.406-.37.935-.194 1.393-.132.185-.282.362-.406.547h-.018c-.476 0-.944.238-1.227.679-.097.15-.167.317-.256.476l2.967-29.724c.238-1.79 1.236-3.413 3.752-4.26 4.423-1.49 10.815-4.681 14.628-7.406 1.74-1.305 1.81-3.219.142-4.277a122.356 122.356 0 0 1-3.964-2.698c-1.766-1.252-4.874-1.649-6.825-.75l-6.665 3.096c-1.942.917-3.629 3.544-3.805 5.705-.133 1.657-.804 8.711-.954 10.237l-.229 2.319h-5.253c-2.446.732-6.03 1.376-10.471 1.905h15.53l-.115 1.146H54.695l-.114-1.146H70.11c-4.44-.53-8.034-1.173-10.47-1.905h-5.245l-.23-2.319c-.15-1.526-.83-8.58-.953-10.237-.185-2.16-1.872-4.788-3.814-5.705-1.474-.688-5.182-2.408-6.656-3.095-1.951-.9-5.05-.494-6.825.75-1.35.96-2.675 1.869-3.964 2.697-1.668 1.058-1.607 2.972.141 4.277 3.806 2.716 10.206 5.908 14.63 7.407 2.507.846 3.504 2.469 3.743 4.259l2.966 29.733c-.097-.159-.168-.326-.265-.485a1.43 1.43 0 0 0-1.218-.68h-.018c-.132-.184-.274-.36-.406-.546.168-.458.132-.987-.194-1.393a30.245 30.245 0 0 0-2.128-2.39 1.445 1.445 0 0 0-1.024-.423c-.115 0-.23.036-.344.062-.168-.159-.345-.309-.521-.467.062-.485-.088-.988-.503-1.314a30.298 30.298 0 0 0-2.605-1.86 1.456 1.456 0 0 0-.768-.221c-.23 0-.45.062-.653.159-.203-.115-.389-.247-.592-.353-.053-.476-.318-.917-.777-1.138a27.16 27.16 0 0 0-2.957-1.234 1.501 1.501 0 0 0-.477-.08c-.335 0-.644.124-.9.327-.221-.07-.45-.106-.68-.168a1.423 1.423 0 0 0-1.024-.97 29.176 29.176 0 0 0-3.16-.538c-.054-.008-.107-.008-.169-.008-.459 0-.856.238-1.12.581-.23-.017-.46-.026-.69-.035-.247-.423-.688-.723-1.218-.723h-.062c-1.068 0-2.136.062-3.195.177-.521.061-.927.405-1.13.846-.23.035-.46.062-.68.106a1.439 1.439 0 0 0-1.024-.459c-.106 0-.212.01-.318.036a30.738 30.738 0 0 0-3.081.881c-.495.168-.804.591-.91 1.067-.22.088-.441.159-.644.256a1.429 1.429 0 0 0-1.395-.088c-.962.467-1.898.987-2.807 1.552-.442.273-.654.75-.645 1.225-.194.133-.37.283-.565.424a1.395 1.395 0 0 0-.503-.115 1.44 1.44 0 0 0-.9.317 28.773 28.773 0 0 0-2.384 2.134c-.371.37-.477.89-.353 1.367-.16.168-.31.335-.468.511-.062-.008-.124-.035-.186-.035a1.46 1.46 0 0 0-1.13.538 28.494 28.494 0 0 0-1.854 2.61c-.282.441-.265.961-.044 1.402-.115.203-.247.397-.362.609a1.424 1.424 0 0 0-1.148.793A22.76 22.76 0 0 0 1.99 72.98c-.177.485-.045.988.256 1.358-.071.22-.115.45-.177.67a1.43 1.43 0 0 0-.971 1.05 29.094 29.094 0 0 0-.539 3.156c-.053.52.186.996.583 1.287-.018.23-.026.459-.035.688-.424.247-.724.688-.724 1.217v.018c0 1.058.062 2.125.176 3.174.062.53.398.944.857 1.146.035.22.062.45.106.67-.345.336-.539.83-.424 1.34.238 1.041.53 2.073.883 3.078.176.494.591.82 1.068.917.088.22.168.441.256.662-.256.405-.327.917-.097 1.384.459.952.98 1.896 1.545 2.804.274.432.741.67 1.218.67h.027c.132.185.273.362.406.547-.168.458-.133.987.194 1.393a30.362 30.362 0 0 0 2.128 2.39c.282.282.653.423 1.024.423.115 0 .23-.035.344-.071.168.159.336.318.512.468-.062.485.097.987.503 1.313a31.52 31.52 0 0 0 2.605 1.861 1.433 1.433 0 0 0 1.421.062c.203.114.397.238.6.352.053.477.318.917.777 1.138.963.467 1.96.882 2.958 1.234a1.5 1.5 0 0 0 .477.08c.335 0 .644-.133.9-.335.22.07.45.105.68.167.115.362.362.67.706.847-.141.132-.3.255-.441.396a1.12 1.12 0 0 0-.283 1.067c-.114.133-.238.265-.362.397-.053-.009-.097-.026-.15-.026a1.08 1.08 0 0 0-.874.423 21.69 21.69 0 0 0-1.448 2.028c-.22.344-.203.75-.035 1.093-.088.159-.185.309-.274.477a1.08 1.08 0 0 0-.891.617 21.888 21.888 0 0 0-.963 2.31c-.132.379-.026.767.203 1.058-.053.168-.088.353-.132.52-.37.115-.662.415-.76.812a20.715 20.715 0 0 0-.414 2.46c-.044.405.15.776.45 1.005a178.2 178.2 0 0 0-.026.538c-.327.194-.566.538-.566.952v.009c0 .829.045 1.658.142 2.478.044.414.309.74.662.89.026.177.053.353.08.521a1.1 1.1 0 0 0-.327 1.04c.185.802.415 1.614.688 2.398.133.388.46.635.84.715.07.167.123.344.193.511-.194.318-.256.714-.08 1.076.363.741.769 1.481 1.21 2.187.212.335.583.52.954.52h.017c.106.15.212.282.318.432-.132.361-.097.767.16 1.084.511.644 1.076 1.27 1.659 1.861.22.22.503.326.794.326a.922.922 0 0 0 .265-.053c.133.124.265.247.406.362-.053.379.071.767.389 1.023a23.633 23.633 0 0 0 2.03 1.446c.186.114.398.176.6.176.177 0 .345-.044.513-.123.159.088.309.185.468.273.044.37.247.714.609.891.75.361 1.518.687 2.313.961.115.044.247.062.37.062.257 0 .504-.097.707-.256.168.053.353.088.53.132.114.362.397.661.794.75a21.11 21.11 0 0 0 2.463.414c.044 0 .089.009.133.009.362 0 .67-.185.874-.459l.538.027c.195.326.539.555.945.564h.026c.822 0 1.651-.044 2.464-.141.406-.044.724-.309.883-.661.176-.027.361-.053.53-.08a1.1 1.1 0 0 0 .803.362.85.85 0 0 0 .247-.035 20.904 20.904 0 0 0 2.401-.688c.389-.132.627-.459.706-.829.168-.071.345-.124.512-.194.177.115.389.176.61.176.167 0 .326-.035.485-.106.75-.361 1.483-.767 2.19-1.208a1.11 1.11 0 0 0 .503-.952c.15-.106.291-.22.441-.326a.996.996 0 0 0 .389.088c.247 0 .494-.079.697-.247a23.5 23.5 0 0 0 1.863-1.658 1.12 1.12 0 0 0 .282-1.066c.124-.133.248-.265.362-.397.053.009.106.026.15.026.327 0 .654-.141.875-.423a21.823 21.823 0 0 0 1.447-2.028 1.08 1.08 0 0 0 .036-1.093c.088-.159.194-.309.282-.468.371-.035.724-.256.892-.617.362-.75.688-1.517.962-2.301.133-.38.035-.768-.194-1.067.053-.168.088-.353.132-.521.062-.017.097-.07.16-.097l1.88 18.817a1.195 1.195 0 0 0 1.183 1.076c.035 0 .08 0 .114-.009l3.69-.37c.319-.027.601-.185.804-.432.203-.247.291-.556.265-.873l-3.293-32.934a1.188 1.188 0 0 0-1.183-1.076c-.044 0-.08 0-.124.009l-7.071-70.876c.75 1.922 2.154 3.818 4.114 5.44l6.286 65.118 33.062 9.876 33.063-9.876 6.286-65.118c1.959-1.622 3.363-3.518 4.114-5.44l-7.072 70.858c-.035 0-.079-.009-.115-.009-.609 0-1.121.459-1.183 1.076l-3.284 32.934c-.035.318.062.626.265.873s.485.397.803.432l3.691.371a1.186 1.186 0 0 0 1.297-1.067l1.881-18.817c.053.026.097.079.159.097.044.176.079.352.132.52a1.153 1.153 0 0 0-.203 1.067c.274.785.6 1.552.962 2.301.177.362.521.573.892.618.088.158.185.308.283.467-.168.335-.177.749.035 1.093a21.47 21.47 0 0 0 1.448 2.028c.22.274.547.424.874.424.053 0 .106-.018.15-.027.115.132.238.265.362.397-.088.37-.009.776.274 1.067a23.89 23.89 0 0 0 1.862 1.658c.212.167.459.246.698.246a.993.993 0 0 0 .388-.088c.15.106.292.23.442.327 0 .37.167.74.503.952a23.06 23.06 0 0 0 2.189 1.208 1.159 1.159 0 0 0 1.095-.071c.168.071.336.124.503.194.08.371.327.697.707.829.785.274 1.589.503 2.401.688.088.018.168.035.247.035.309 0 .592-.141.803-.361l.53.079c.159.344.477.617.883.661.812.089 1.642.141 2.463.141h.027c.406 0 .75-.238.944-.564l.539-.026a1.1 1.1 0 0 0 .874.458c.035 0 .079 0 .132-.009a26.202 26.202 0 0 0 2.463-.414c.398-.088.68-.388.795-.75.176-.044.353-.079.53-.132.203.159.441.256.706.256.123 0 .247-.018.371-.062a19.603 19.603 0 0 0 2.304-.961c.362-.176.565-.511.609-.891.159-.088.309-.185.468-.273.159.079.335.124.512.124.203 0 .415-.062.6-.177a21.806 21.806 0 0 0 2.031-1.446c.318-.256.441-.644.388-1.023.142-.114.265-.238.406-.361.089.017.177.053.265.053.292 0 .574-.106.795-.327a23.313 23.313 0 0 0 1.66-1.86c.256-.318.291-.723.159-1.085.105-.141.22-.282.317-.432h.018c.38 0 .742-.185.953-.52.442-.705.848-1.437 1.21-2.187.177-.361.115-.758-.079-1.076.07-.167.132-.343.194-.511a1.14 1.14 0 0 0 .838-.714c.274-.785.504-1.587.689-2.399.088-.396-.062-.776-.327-1.04.027-.168.053-.344.08-.52.353-.159.618-.485.662-.891a23.12 23.12 0 0 0 .141-2.478v-.008c0-.415-.229-.759-.565-.953l-.026-.538c.3-.229.494-.599.45-1.005a21.05 21.05 0 0 0-.415-2.46 1.089 1.089 0 0 0-.759-.811c-.053-.168-.08-.353-.133-.52.23-.291.336-.679.203-1.059-.273-.784-.6-1.56-.962-2.31a1.125 1.125 0 0 0-.892-.617c-.088-.159-.185-.317-.273-.476.168-.335.176-.75-.036-1.094a21.908 21.908 0 0 0-1.447-2.028 1.105 1.105 0 0 0-.874-.423c-.053 0-.098.018-.15.027-.115-.133-.239-.265-.362-.397a1.14 1.14 0 0 0-.274-1.067c-.141-.141-.3-.256-.442-.397.336-.176.583-.485.698-.846.221-.062.45-.106.68-.168.256.203.565.335.9.335a1.5 1.5 0 0 0 .477-.079 27.074 27.074 0 0 0 2.957-1.235c.46-.22.724-.661.777-1.137.203-.106.398-.238.601-.353a1.432 1.432 0 0 0 1.421-.062 26.67 26.67 0 0 0 2.604-1.86c.407-.326.565-.829.504-1.314.176-.15.344-.309.512-.467.114.026.229.07.344.07.371 0 .742-.141 1.024-.423a27.334 27.334 0 0 0 2.128-2.39c.326-.405.371-.934.194-1.393.132-.185.283-.361.406-.547h.027c.476 0 .944-.238 1.218-.67.565-.9 1.086-1.843 1.554-2.804.22-.467.15-.978-.097-1.384.088-.22.167-.44.256-.661a1.425 1.425 0 0 0 1.068-.917c.353-1.006.644-2.037.883-3.078.114-.502-.071-.996-.424-1.34.044-.22.071-.45.106-.67.45-.203.794-.626.856-1.147a29.24 29.24 0 0 0 .177-3.174v-.018c0-.51-.292-.952-.724-1.199zm-35.34-56.68a.793.793 0 0 1-.389 1.058L148.895 30.7a.743.743 0 0 1-.336.07.78.78 0 0 1-.715-.458.792.792 0 0 1 .389-1.058l11.035-5.132a.802.802 0 0 1 1.051.388zm-13.64 1.447l11.035-5.132a.794.794 0 0 1 1.06.388.787.787 0 0 1-.389 1.049L147.35 27.4a.743.743 0 0 1-.336.071.793.793 0 0 1-.724-.458.804.804 0 0 1 .389-1.058zM48.93 30.31a.792.792 0 0 1-.724.459.88.88 0 0 1-.335-.07l-11.036-5.133a.8.8 0 0 1-.388-1.058.802.802 0 0 1 1.05-.388l11.036 5.132a.791.791 0 0 1 .397 1.058zm1.545-3.306a.792.792 0 0 1-.724.458.741.741 0 0 1-.335-.07l-11.036-5.14a.79.79 0 0 1-.388-1.05.806.806 0 0 1 1.06-.388l11.035 5.132a.795.795 0 0 1 .388 1.058zm11.707 90.963l3.16 31.673-1.518.15-3.16-31.673 1.518-.15zM12 82.415c0-9.338 7.61-16.93 16.95-16.93 9.35 0 16.951 7.6 16.951 16.93 0 9.338-7.61 16.93-16.95 16.93C19.602 99.354 12 91.762 12 82.415zm25.54 57.024c-7.283 0-13.207-5.917-13.207-13.191 0-7.275 5.924-13.201 13.208-13.201 7.283 0 13.216 5.917 13.216 13.201 0 7.283-5.933 13.191-13.216 13.191zm18.152-49.07l.026.264c-.026-.035-.044-.07-.07-.106a.533.533 0 0 0 .044-.159zm.168 1.648l2.445 24.505a1.18 1.18 0 0 0-.644.299c-.018-.07-.01-.132-.036-.194a22.936 22.936 0 0 0-1.21-2.186 1.14 1.14 0 0 0-.953-.529h-.017c-.097-.15-.212-.283-.318-.432a1.121 1.121 0 0 0-.15-1.085 23.558 23.558 0 0 0-1.66-1.861 1.125 1.125 0 0 0-.794-.326c-.089 0-.177.027-.274.053-.133-.123-.265-.247-.397-.361a1.094 1.094 0 0 0-.389-1.023 21.627 21.627 0 0 0-2.03-1.446 1.13 1.13 0 0 0-.6-.177c-.177 0-.354.044-.513.124-.159-.088-.309-.185-.468-.274a1.093 1.093 0 0 0-.609-.89 21.72 21.72 0 0 0-2.304-.961h-.018c.133-.097.265-.203.406-.3.16.062.327.106.504.106.317 0 .635-.097.891-.309a30.13 30.13 0 0 0 2.393-2.125c.37-.37.477-.891.353-1.367.159-.167.309-.335.468-.511.062.009.123.035.194.035a1.43 1.43 0 0 0 1.121-.538 30.189 30.189 0 0 0 1.863-2.601c.282-.44.265-.961.053-1.402.115-.203.247-.397.362-.608a1.427 1.427 0 0 0 1.148-.794c.441-.908.838-1.86 1.183-2.822zm40.937 29.09l-12.554-3.748h9.5v-2.38h-17.48l-7.24-2.161-.168-1.737h24.879V108.7H68.627l-.38-3.897h25.488v-2.381H68.017l-.38-3.897h26.089v-2.381H67.417l-.38-3.897h26.698v-2.381H66.808l-.38-3.897h27.307v-2.381H66.208l-.38-3.898h27.907v-2.38H65.598l-.38-3.898h28.517v-2.38H64.989l-.38-3.898h29.126v-2.38H64.389l-.38-3.898h29.726v-2.381H63.78l-.362-3.774h33.38v66.406zM60.752 50.733v-.062h.008V46.73h3.152v4.003h-3.16zm4.811 0V46.73h3.152v4.003h-3.152zm4.803 0V46.73h3.151v4.003h-3.151zm4.811 0V46.73h3.152v4.003h-3.152zm4.812 0V46.73h3.151v4.003h-3.15zm4.802 0V46.73h3.152v4.003h-3.152zm4.803 0V46.73h3.152v4.003h-3.152zm7.963 0h-3.151V46.73h3.151v4.003zm2.42 70.374v-2.557h8.563l-8.564 2.557zm-.76-70.374V46.73h3.152v4.003h-3.152zm28.525 62.076l-3.249.97H99.976v-1.507h27.819l-.053.537zm.512-5.308H99.976v-1.508h28.428l-.15 1.508zm.609-6.278H99.976v-1.508h29.028l-.141 1.508zm.609-6.278H99.976v-1.508h29.637l-.141 1.508zm.6-6.278H99.976v-1.508h30.247l-.151 1.508zm.61-6.27H99.976V80.89h30.847l-.141 1.508zm.609-6.278H99.985v-1.508h31.456l-.15 1.508zm.6-6.278H99.976v-1.508h32.065l-.15 1.508zm.609-6.278H99.976v-1.517h32.666l-.142 1.517zm.609-6.278H99.985V54.7h33.38l-.256 2.584zm-29.089-6.552V46.73h3.152v4.003h-3.152zm4.802 0V46.73h3.152v4.003h-3.152zm4.812 0V46.73h3.152v4.003h-3.152zm4.803 0V46.73h3.151v4.003h-3.151zm4.811 0V46.73h3.161v4.003h-3.161zm4.812 0V46.73h3.151v4.003h-3.151zm7.963 0h-3.161V46.73h3.152v3.941h.009v.062zm4.511-5.864H56.24c-.106-.3-.194-.6-.265-.908h84.833c-.08.309-.168.609-.274.908zm-7.592 104.922l-1.51-.15 3.161-31.673 1.518.15-3.169 31.673zm8.131-59.414a.903.903 0 0 0 .035.15c-.026.035-.035.07-.062.097l.027-.247zm4.229 18.5a1.094 1.094 0 0 0-.389 1.023c-.132.114-.265.238-.397.361-.089-.018-.177-.053-.265-.053-.291 0-.574.106-.795.326a23.69 23.69 0 0 0-1.659 1.861 1.077 1.077 0 0 0-.15 1.085c-.106.141-.221.282-.318.432h-.018c-.371 0-.742.185-.953.529a22.809 22.809 0 0 0-1.21 2.186c-.035.062-.018.133-.035.194a1.183 1.183 0 0 0-.645-.299l2.446-24.496a27.2 27.2 0 0 0 1.183 2.822c.229.467.671.74 1.147.793.115.212.248.397.362.609-.22.44-.229.961.053 1.402a26.78 26.78 0 0 0 1.863 2.601c.283.362.706.538 1.121.538.062 0 .133-.027.195-.035.15.167.309.335.468.511-.115.476-.018.996.353 1.367a28.878 28.878 0 0 0 2.392 2.125c.265.212.583.309.892.309.168 0 .335-.053.503-.106.141.097.274.203.406.299h-.009c-.785.283-1.553.6-2.304.962-.362.176-.565.52-.609.89-.159.088-.309.185-.468.274a1.119 1.119 0 0 0-.512-.124 1.13 1.13 0 0 0-.591.176c-.724.433-1.404.917-2.057 1.438zm13.922 30.562c-7.284 0-13.216-5.917-13.216-13.191 0-7.275 5.924-13.201 13.216-13.201 7.283 0 13.207 5.917 13.207 13.201 0 7.283-5.915 13.191-13.207 13.191zm8.59-40.085c-9.349 0-16.951-7.592-16.951-16.93 0-9.338 7.611-16.93 16.951-16.93 9.349 0 16.951 7.6 16.951 16.93 0 9.338-7.602 16.93-16.951 16.93zm-8.59 24.619a2.434 2.434 0 0 0-2.437 2.433 2.44 2.44 0 0 0 2.437 2.434 2.435 2.435 0 0 0 2.437-2.434 2.428 2.428 0 0 0-2.437-2.433zm0 4.47a2.046 2.046 0 0 1-2.048-2.037 2.048 2.048 0 0 1 4.096 0c0 1.12-.918 2.037-2.048 2.037zm0-10.034c.971 0 1.748-.785 1.748-1.755a1.753 1.753 0 1 0-3.505 0c0 .97.795 1.755 1.757 1.755zm0 15.986a1.755 1.755 0 1 0 0 3.509c.971 0 1.748-.784 1.748-1.754a1.742 1.742 0 0 0-1.748-1.755zm8.149-13.65a1.744 1.744 0 0 0 0-2.477 1.75 1.75 0 0 0-2.481 0 1.743 1.743 0 0 0 0 2.477 1.75 1.75 0 0 0 2.481 0zm-16.289 11.313a1.746 1.746 0 0 0 0 2.478 1.75 1.75 0 0 0 2.481 0 1.744 1.744 0 0 0 0-2.478 1.75 1.75 0 0 0-2.481 0zm16.147-5.661c0 .97.786 1.755 1.757 1.755a1.76 1.76 0 0 0 1.757-1.755c0-.961-.786-1.745-1.757-1.745-.971 0-1.757.784-1.757 1.745zm-16.014 0a1.75 1.75 0 0 0-1.748-1.745c-.972 0-1.757.784-1.757 1.745a1.753 1.753 0 0 0 3.505 0zm13.675 5.661a1.744 1.744 0 0 0 0 2.478 1.75 1.75 0 0 0 2.481 0 1.746 1.746 0 0 0 0-2.478 1.75 1.75 0 0 0-2.481 0zm-11.327-11.313a1.743 1.743 0 0 0 0-2.477 1.75 1.75 0 0 0-2.481 0 1.744 1.744 0 0 0 0 2.477 1.75 1.75 0 0 0 2.481 0zm5.659 2.443a.708.708 0 0 0 .706-.706.707.707 0 0 0-1.412 0 .713.713 0 0 0 .706.706zm0 6.428a.707.707 0 0 0-.706.705c0 .388.309.706.706.706a.708.708 0 0 0 .706-.706.708.708 0 0 0-.706-.705zm3.275-5.485a.706.706 0 0 0 0-.996.71.71 0 0 0-.997 0 .706.706 0 0 0 0 .996.707.707 0 0 0 .997 0zm-6.542 4.541a.71.71 0 0 0 0 .997.71.71 0 0 0 .998 0 .707.707 0 0 0 0-.997.71.71 0 0 0-.998 0zm7.187-2.971a.708.708 0 0 0-.707.705c0 .388.318.706.707.706a.708.708 0 0 0 .706-.706.696.696 0 0 0-.706-.705zm-7.134.705a.707.707 0 0 0-1.412 0c0 .388.318.706.706.706a.714.714 0 0 0 .706-.706zm5.492 2.266a.707.707 0 0 0 0 .997.71.71 0 0 0 .997 0 .707.707 0 0 0 0-.997.71.71 0 0 0-.997 0zm-4.547-4.541a.695.695 0 0 0 0-.987.709.709 0 0 0-.998 0 .708.708 0 0 0 0 .996.717.717 0 0 0 .998-.009zm2.269-4.62a6.898 6.898 0 0 0-6.904 6.895 6.9 6.9 0 0 0 6.904 6.896 6.9 6.9 0 0 0 6.904-6.896 6.898 6.898 0 0 0-6.904-6.895zm0 13.173c-3.47 0-6.295-2.821-6.295-6.278 0-3.465 2.825-6.287 6.295-6.287 3.47 0 6.295 2.822 6.295 6.287 0 3.457-2.825 6.278-6.295 6.278zm-121.682-8.711a2.434 2.434 0 0 0-2.437 2.433 2.44 2.44 0 0 0 2.437 2.434 2.435 2.435 0 1 0 0-4.867zm0 4.47a2.047 2.047 0 0 1-2.049-2.037 2.048 2.048 0 0 1 4.097 0c0 1.12-.918 2.037-2.048 2.037zm0-10.034a1.755 1.755 0 1 0 0-3.51c-.971 0-1.748.785-1.748 1.755 0 .97.785 1.755 1.748 1.755zm0 15.986c-.971 0-1.748.785-1.748 1.755a1.752 1.752 0 1 0 3.505 0c0-.97-.786-1.755-1.757-1.755zm-5.66-13.65a1.743 1.743 0 0 0 0-2.477 1.749 1.749 0 0 0-2.48 0 1.743 1.743 0 0 0 0 2.477 1.749 1.749 0 0 0 2.48 0zm11.327 11.313a1.744 1.744 0 0 0 0 2.478 1.749 1.749 0 0 0 2.481 0 1.744 1.744 0 0 0 0-2.478 1.75 1.75 0 0 0-2.48 0zm-13.675-5.661a1.752 1.752 0 0 0-3.505 0 1.753 1.753 0 1 0 3.505 0zm16.015 0a1.753 1.753 0 1 0 3.505 0 1.752 1.752 0 0 0-3.505 0zm-16.147 5.661a1.744 1.744 0 0 0 0 2.478 1.749 1.749 0 0 0 2.48 0 1.744 1.744 0 0 0 0-2.478 1.75 1.75 0 0 0-2.48 0zm16.288-11.313a1.743 1.743 0 0 0 0-2.477 1.749 1.749 0 0 0-2.48 0 1.743 1.743 0 0 0 0 2.477c.68.688 1.792.688 2.48 0zm-8.148 2.443a.708.708 0 0 0 .706-.706.708.708 0 0 0-1.413 0 .714.714 0 0 0 .707.706zm0 6.428a.708.708 0 0 0-.707.705c0 .388.318.706.707.706a.708.708 0 0 0 .706-.706.702.702 0 0 0-.706-.705zm-2.27-5.485a.707.707 0 0 0 0-.996.71.71 0 0 0-.997 0 .707.707 0 0 0 0 .996.708.708 0 0 0 .998 0zm4.547 4.541a.708.708 0 0 0 0 .997.71.71 0 0 0 .998 0 .708.708 0 0 0 0-.997.71.71 0 0 0-.998 0zm-5.49-2.266a.708.708 0 0 0-.707-.705.708.708 0 0 0-.706.705c0 .388.317.706.706.706a.714.714 0 0 0 .706-.706zm7.141-.705a.708.708 0 0 0-.706.705c0 .388.318.706.706.706a.708.708 0 0 0 .707-.706.707.707 0 0 0-.707-.705zm-7.195 2.971a.708.708 0 0 0 0 .997.71.71 0 0 0 .998 0 .708.708 0 0 0 0-.997.71.71 0 0 0-.998 0zm6.542-4.541a.707.707 0 0 0 0-.996.71.71 0 0 0-.998 0 .696.696 0 0 0 0 .987.7.7 0 0 0 .998.009zm-3.275-4.62a6.898 6.898 0 0 0-6.904 6.895 6.899 6.899 0 0 0 6.904 6.896 6.899 6.899 0 0 0 6.904-6.896 6.898 6.898 0 0 0-6.904-6.895zm0 13.173c-3.47 0-6.295-2.821-6.295-6.278 0-3.465 2.825-6.287 6.295-6.287 3.47 0 6.294 2.822 6.294 6.287 0 3.457-2.825 6.278-6.294 6.278zm79.067 31.356c-1.086 0-1.96.873-1.96 1.958a5.12 5.12 0 0 1-5.12 5.114h-3.699v-5.114a1.96 1.96 0 0 0-3.92 0v5.114h-7.054v-5.114a1.96 1.96 0 0 0-3.92 0v5.114h-3.7a5.121 5.121 0 0 1-5.12-5.114 1.96 1.96 0 0 0-3.92 0c0 4.973 4.053 9.02 9.032 9.02h3.7v4.709a1.96 1.96 0 0 0 3.919 0v-4.709h7.063v4.709a1.96 1.96 0 0 0 3.92 0v-4.709h3.699c4.979 0 9.031-4.047 9.031-9.02a1.953 1.953 0 0 0-1.951-1.958zm-25.002-132c1.978 1.684 3.85 3.465 5.491 5.043-2.366 2.46-3.964 4.206-3.434 4.691.486.538 2.242-1.075 4.723-3.447 2.472 2.38 4.229 3.985 4.715 3.447.538-.485-1.06-2.23-3.435-4.69 1.642-1.579 3.514-3.369 5.492-5.044 5.597-5.07 12.086-9.241 12.306-8.933l1.669-1.666-5.112-5.106-1.668 1.667c.318.22-3.867 6.701-8.935 12.292-1.677 1.966-3.451 3.827-5.032 5.458-1.58-1.631-3.355-3.492-5.032-5.458-5.076-5.59-9.252-12.072-8.934-12.292l-1.669-1.667-5.112 5.106 1.669 1.666c.212-.3 6.7 3.871 12.298 8.933zm22.901-14.135l1.033 1.032-1.024 1.022-1.033-1.031 1.024-1.023zm-10.356 13.059c2.993-3.298 5.368-6.552 6.524-8.2.945-1.35 1.581-2.328 2.004-3.043l1.086 1.085c-2.013 3.35-11.344 12.221-12.554 13.43.062-.054.115-.098.177-.142-.097.088-.212.185-.309.282 1.015-1.084 2.066-2.222 3.072-3.412zm-18.063-8.2c1.157 1.648 3.532 4.902 6.524 8.2a98.479 98.479 0 0 0 3.073 3.412c-.097-.088-.212-.185-.31-.282.063.053.115.097.177.141C94.343 33.02 85.013 24.148 83 20.806l1.086-1.085c.424.724 1.06 1.693 2.004 3.043zm-3.823-4.859l1.025 1.023-1.033 1.031-1.024-1.022 1.032-1.032z" fill="#000"/></svg>