<svg width="177" height="200" viewBox="0 0 177 200" fill="none" xmlns="http://www.w3.org/2000/svg"><path fill-rule="evenodd" clip-rule="evenodd" d="M115.351 49.512V37.556l-36.316 31.84 8.892.747s3.615-4.28 7.986-8.95c2.008-2.134 3.534-4.36 6.082-6.277 4.073-3.086 8.697-5.404 13.356-5.404z" fill="#00F"/><path d="M108.81 81.204c-7.619 0-13.815-6.196-13.815-13.815 0-7.62 6.196-13.815 13.815-13.815s13.815 6.196 13.815 13.815c0 7.607-6.196 13.815-13.815 13.815z" fill="#F0F0EB"/><path d="M108.81 54.285c7.218 0 13.092 5.875 13.092 13.092 0 7.218-5.874 13.092-13.092 13.092-7.217 0-13.092-5.874-13.092-13.092 0-7.217 5.875-13.092 13.092-13.092zm0-1.457c-8.032 0-14.549 6.517-14.549 14.55 0 8.031 6.517 14.549 14.549 14.549s14.55-6.518 14.55-14.55-6.518-14.549-14.55-14.549z" fill="#00F"/><path d="M54.01 86.287l56.258-49.305v9.81L59.827 86.287h-5.818z" fill="#F0F0EB"/><path d="M109.533 38.588v7.86L59.574 85.576h-3.637l53.596-46.988zm1.458-3.212L52.071 87.02h7.997l50.911-39.873V35.376h.012z" fill="#00F"/><path fill-rule="evenodd" clip-rule="evenodd" d="M70.98 23.006H56.442a1.46 1.46 0 0 0-1.457 1.458v1.457c0 .803.585 1.732 1.308 2.077 0 0 1.767 1.02 3.775.93v1.364H45.53v-.722l-3.638.723v2.914l3.638.723v-.723h6.552l5.794 16.821h3.798L55.88 33.196h7.837V30.28h-.723v-2.65c.986-.804 1.824-1.699 2.639-1.71 1.411-.023 6.093 0 6.093 0a.722.722 0 0 0 .722-.735v-.722a1.469 1.469 0 0 0-1.468-1.458z" fill="#00F"/><path fill-rule="evenodd" clip-rule="evenodd" d="M60.309 45.978l.952 2.742 3.672-.493-1.423-4.12-3.201 1.87z" fill="#00F"/><path d="M63.648 67.676L55.27 43.373h4.28l8.365 24.303h-4.268z" fill="#F0F0EB"/><path d="M59.035 44.108l7.86 22.845h-2.742L56.28 44.107h2.754zm1.044-1.458h-5.817l8.87 25.76h5.817l-8.87-25.76z" fill="#00F"/><path d="M108.81 77.922c-5.817 0-10.544-4.727-10.544-10.545 0-5.817 4.727-10.544 10.544-10.544 5.818 0 10.545 4.727 10.545 10.544 0 5.818-4.727 10.545-10.545 10.545z" fill="#F0F0EB"/><path d="M108.81 57.2c5.611 0 10.178 4.566 10.178 10.177s-4.567 10.178-10.178 10.178c-5.611 0-10.177-4.567-10.177-10.178 0-5.61 4.566-10.177 10.177-10.177zm0-.735c-6.024 0-10.912 4.888-10.912 10.912 0 6.024 4.888 10.912 10.912 10.912 6.024 0 10.912-4.888 10.912-10.912 0-6.024-4.888-10.912-10.912-10.912z" fill="#00F"/><path fill-rule="evenodd" clip-rule="evenodd" d="M109.43 63.063l-34.056-6.368a10.674 10.674 0 0 0-2.191-.218c-6.024 0-10.912 4.888-10.912 10.912 0 6.024 4.888 10.912 10.912 10.912.665 0 1.308-.058 1.939-.172l34.549-6.46a4.36 4.36 0 0 0 3.523-4.28c-.023-2.215-1.653-4.028-3.764-4.326z" fill="#00F"/><path d="M73.171 73.93a6.552 6.552 0 1 0 0-13.104 6.552 6.552 0 0 0 0 13.103zm39.793 12.357L98.185 43.373h4.292l14.767 42.914h-4.28z" fill="#F0F0EB"/><path d="M101.949 44.108l14.274 41.456h-2.743L99.206 44.108h2.743zm1.044-1.458h-5.817l15.272 44.371h5.817l-15.272-44.37zM62.248 84.841H52.07v2.915h10.178V84.84z" fill="#00F"/><path fill-rule="evenodd" clip-rule="evenodd" d="M120.445 81.927c-1.205 0-2.18.975-2.18 2.18 0 .252.058.493.138.723h-7.413v2.914h8.732v-1.583c.23.08.471.137.723.137 1.205 0 2.18-.975 2.18-2.18a2.181 2.181 0 0 0-2.18-2.191z" fill="#00F"/><path d="M57.9 30.281H47.71v2.915H57.9V30.28z" fill="#F0F0EB"/><path d="M57.165 31.015v1.458h-8.732v-1.458h8.732zm1.457-1.457H46.987v4.36h11.635v-4.36z" fill="#00F"/><path fill-rule="evenodd" clip-rule="evenodd" d="M115.351 37.556l3.637-.723v4.36l-3.637-.723v-2.914z" fill="#00F"/><path fill-rule="evenodd" clip-rule="evenodd" d="M124.794 22.169a1.465 1.465 0 0 0-1.985.505c-.046.08-1.285 2.042-4.636 2.042h-1.365v-2.433l-7.275 1.458v.986h-4.681a1.46 1.46 0 0 0-1.457 1.458 1.46 1.46 0 0 0 1.457 1.457h5.404v12.105h4.36V27.631h3.546c5.117 0 7.08-3.351 7.16-3.489.401-.7.16-1.572-.528-1.973zM98.621 43.373l-.723-3.637h4.361l-.723 3.637h-2.915z" fill="#00F"/><path d="M114.628 32.461h-4.36v14.55h4.36V32.46z" fill="#F0F0EB"/><path d="M113.905 33.196v13.092h-2.915V33.196h2.915zm1.446-1.458h-5.818v16.007h5.818V31.738z" fill="#00F"/><path fill-rule="evenodd" clip-rule="evenodd" d="M71.714 55.559h-.183v11.83c0 .906.734 1.63 1.64 1.63.907 0 1.641-.735 1.641-1.63v-11.83h-3.098z" fill="#F0F0EB" stroke="#00F" stroke-width=".634" stroke-miterlimit="10"/><path d="M73.171 53.562v-2.914h4.372c.803 0 1.446.642 1.446 1.457 0 .803-.654 1.457-1.446 1.457h-4.372z" stroke="#00F" stroke-width=".634" stroke-miterlimit="10"/><path d="M76.809 53.562h-7.275v2.18h7.275v-2.18z" fill="#00F"/><path d="M75.34 50.648h-.723v2.914h.723v-2.914zM0 109.729l1.687-3.798h9.856l.7 3.901-1.446.471c-.378-1.492-1.101-2.571-2.363-2.685l-1.17 6.54c-.081.47-.116.723-.116.906 0 .574.345.792 1.194.895l-.287 1.687H1.606l.287-1.687c.999-.046 1.343-.378 1.446-.998l1.32-7.343c-1.32.137-2.284.929-3.374 2.685L0 109.729zm14.194-.78a3.81 3.81 0 0 0 .103-.723c0-.345-.172-.574-1.136-.608l.275-1.584c1.48-.069 2.56-.206 3.546-.551h1.365l-.791 4.211c.63-.378 1.732-.723 2.753-.723 1.389 0 2.56.551 2.56 2.123 0 .815-.747 3.523-.747 3.993 0 .39.195.551.46.551.344 0 .665-.195 1.02-.482l.804 1.033c-1.033 1.101-2.077 1.675-3.695 1.675-1.377 0-2.306-.665-2.306-1.859 0-.723.734-3.545.734-4.234 0-.505-.206-.688-.723-.688-.287 0-.757.137-1.136.287l-1.239 6.265h-3.614l1.767-8.686zm20.194 6.368c-1.881 2.157-4.165 2.547-5.232 2.547-1.893 0-4.624-.574-4.624-3.637 0-2.651 2.513-5.256 6.242-5.256 2.111 0 3.385.85 3.385 2.1 0 2.054-2.593 2.777-5.714 3.11v.436c0 .883.688 1.342 1.514 1.342 1.067 0 2.226-.55 3.305-1.652l1.124 1.01zm-4.05-4.751c-.666 0-1.343.941-1.687 2.249.976-.206 2.238-.791 2.238-1.606 0-.344-.241-.643-.551-.643zm30.223 11.096H54.4l-4.67-7.321h-.045v7.321h-4.946v-19.036h7.401c3.764 0 6.62 1.79 6.62 5.852 0 2.628-1.468 4.9-4.165 5.382l5.967 7.802zm-10.877-10.51h.481c1.618 0 3.431-.299 3.431-2.376 0-2.065-1.813-2.375-3.43-2.375h-.482v4.751zm34.836.631c0 6.161-4.418 10.499-10.534 10.499-6.116 0-10.533-4.349-10.533-10.499 0-5.76 5.048-9.799 10.533-9.799 5.485.011 10.533 4.05 10.533 9.799zm-15.915.023c0 3.281 2.42 5.679 5.381 5.679 2.949 0 5.381-2.398 5.381-5.679 0-2.628-2.42-5.026-5.381-5.026-2.949.011-5.381 2.41-5.381 5.026zm25.575 6.54l-1.307 3.305h-5.256l7.321-19.036h5.404l7.172 19.036h-5.278l-1.24-3.305h-6.815zm3.466-9.845H97.6l-2.042 6.058h4.119l-2.031-6.058zm13.93-5.875h7.022c5.301 0 9.673 4.165 9.673 9.512s-4.395 9.513-9.673 9.513h-7.022v-19.025zm4.945 14.836h1.113c2.96 0 5.485-1.617 5.485-5.324 0-3.407-2.249-5.324-5.428-5.324h-1.158v10.648h-.012zm31.784 4.2h-4.946v-14.848h-4.084v-4.188h13.126v4.188h-4.085v14.848h-.011zm28.502-9.879c0 6.161-4.418 10.499-10.534 10.499-6.104 0-10.521-4.349-10.521-10.499 0-5.76 5.048-9.799 10.521-9.799 5.485.011 10.534 4.05 10.534 9.799zm-15.903.023c0 3.281 2.421 5.679 5.381 5.679 2.96 0 5.381-2.398 5.381-5.679 0-2.628-2.421-5.026-5.381-5.026-2.96 0-5.381 2.41-5.381 5.026zM13.322 131.082h4.945l9.065 11.635h.046v-11.635h4.945v19.036h-4.945l-9.065-11.669h-.046v11.669h-4.945v-19.036zm44.864 9.157c0 6.162-4.418 10.499-10.533 10.499-6.116 0-10.534-4.349-10.534-10.499 0-5.76 5.049-9.799 10.534-9.799 5.484 0 10.533 4.05 10.533 9.799zm-15.915.023c0 3.281 2.421 5.68 5.382 5.68 2.949 0 5.381-2.399 5.381-5.68 0-2.628-2.421-5.026-5.381-5.026-2.95.012-5.382 2.41-5.382 5.026zm27.194 3.109h.046l3.993-12.289h3.936l3.74 12.289h.046l3.58-12.289h5.152l-6.081 19.036h-5.049l-3.327-11.038h-.046l-3.74 11.038h-5.027l-5.68-19.036h5.152l3.305 12.289zm36.351-4.945v-7.344h4.945v19.036h-4.945v-7.802h-7.149v7.802h-4.945v-19.036h4.945v7.344h7.149zm15.65-3.156v3.179h5.577v4.188h-5.577v3.282h5.887v4.188h-10.832v-19.036h10.832v4.188h-5.887v.011zm27.286 14.848h-6.161l-4.67-7.32h-.046v7.32h-4.946v-19.036h7.401c3.764 0 6.609 1.79 6.609 5.852 0 2.628-1.468 4.9-4.165 5.382l5.978 7.802zm-10.877-10.51h.482c1.617 0 3.43-.299 3.43-2.375 0-2.066-1.813-2.376-3.43-2.376h-.482v4.751zm19.69-4.338v3.179h5.576v4.188h-5.576v3.282h5.886v4.188h-10.832v-19.036h10.832v4.188h-5.886v.011zm-78.691 34.297c-1.457 2.685-3.855 3.718-6.3 3.718-2.443 0-5.668-1.113-5.668-5.118 0-4.096 3.397-7.056 6.793-7.056 1.033 0 2.123.172 3.03.768l.32-.665h1.527l.264 4.681-1.63.149c-.47-1.812-1.273-2.937-2.72-2.937-2.099 0-3.453 2.662-3.453 5.141 0 1.973.907 2.925 2.34 2.925 1.343 0 2.824-.654 4.028-2.535l1.469.929zm2.123-8.101c1.48-.069 2.559-.206 3.545-.551h1.366l-1.618 8.686c-.069.414-.115.723-.115.953 0 .287.115.482.436.482.264 0 .528-.092.998-.517l.907 1.033c-1.216 1.216-2.582 1.733-3.787 1.733-1.572 0-2.272-.723-2.272-1.756 0-.287.035-.597.196-1.434l1.124-5.726a3.81 3.81 0 0 0 .103-.723c0-.344-.172-.573-1.136-.608l.253-1.572zm13.402 3.167h3.51l-.848 4.785c-.046.275-.15.86-.15 1.101s.138.471.448.471c.218 0 .585-.172.895-.516l.884 1.09a4.873 4.873 0 0 1-3.672 1.732c-.826 0-1.618-.275-2.066-.952-.745.482-1.973.952-3.155.952-1.262 0-2.444-.528-2.444-2.134 0-.757.39-2.306.528-2.903.069-.31.103-.608.103-.895 0-.436-.39-.528-.872-.62l.275-1.583c1.343-.069 2.422-.172 3.408-.516h1.251l-.826 4.532c-.046.333-.15.86-.15 1.101 0 .414.15.723.735.723.344 0 .62-.103 1.01-.436l1.136-5.932zm7.171-.264c.069-.31.103-.574.103-.688 0-.379-.172-.597-1.136-.631l.276-1.584c1.48-.069 2.57-.206 3.545-.551h1.354l-.86 4.303c1.136-.757 1.767-.814 2.272-.814 2.191 0 3.304 1.48 3.304 3.568 0 2.731-2.157 5.313-4.83 5.313-.872 0-1.756-.345-2.318-.792l-.31.574h-3.144l1.744-8.698zm4.165 2.134c-1.48 0-1.755 3.718-1.755 4.189 0 .355.275.699.665.699 1.205 0 1.962-2.111 1.962-3.511 0-.631-.08-1.377-.872-1.377z" fill="#00F"/><path d="M30.2 175.752l-.803.895-4.429-3.97.803-.895 4.43 3.97zm4.682 7.55l-1.572-1.171.195-2.753-.012-.012-1.388 1.87-1.262-.941 3.603-4.876 1.893 1.4c.964.711 1.354 1.709.585 2.754-.493.665-1.296.975-2.088.585l.046 3.144zm-.803-4.751l.126.092c.413.31.94.574 1.33.046.39-.528-.01-.952-.424-1.262l-.126-.092-.906 1.216zm6.54 2.846l-.54.861 1.504.952-.712 1.124-1.503-.952-.562.884 1.583.998-.711 1.124-2.914-1.836 3.235-5.117 2.915 1.836-.712 1.124-1.583-.998zm6.563 4.039a1.655 1.655 0 0 0-.734-.849c-.253-.138-.677-.172-.838.126-.172.31.138.631.344.838l.299.298c.62.62.998 1.308.528 2.169-.287.527-.712 1.009-1.331 1.136-.609.126-1.251-.023-1.79-.31a3.764 3.764 0 0 1-1.55-1.618l1.194-.803c.183.493.459.964.93 1.216.32.172.757.195.963-.172.207-.39-.264-.815-.516-1.067-.735-.712-1.182-1.251-.631-2.284.585-1.078 1.732-1.377 2.8-.803a4.13 4.13 0 0 1 1.434 1.343l-1.102.78zm2.387 6.162l-1.423-.666 2.547-5.496 1.423.665-2.547 5.497zm7.331-1.825c-.183-.333-.47-.619-.825-.757-.264-.103-.689-.092-.815.218-.126.333.218.608.436.792l.333.264c.688.539 1.147 1.17.78 2.088-.218.562-.585 1.078-1.182 1.285-.585.195-1.239.126-1.813-.103-.711-.276-1.308-.792-1.732-1.423l1.09-.93c.24.471.573.895 1.067 1.091.344.137.78.103.93-.287.16-.413-.356-.781-.632-.999-.815-.619-1.33-1.101-.895-2.191.448-1.148 1.56-1.572 2.685-1.125.574.218 1.194.677 1.584 1.159l-1.01.918zm3.937 6.07l-1.504-.47 1.423-4.51-1.239-.39.402-1.273 3.993 1.25-.402 1.274-1.24-.39-1.434 4.509zm4.865.264l-.654.929-1.63-.39 3.66-5.347 1.676.402.814 6.414-1.629-.39-.138-1.113-2.1-.505zm1.79-2.788h-.012l-1.079 1.721 1.274.298-.183-2.019zm5.301-.758l1.56.218 2.33 4.074h.01l.529-3.66 1.56.218-.86 5.989-1.56-.218-2.33-4.085h-.012l-.527 3.672-1.56-.218.86-5.99zm12.644 3.339c-.298-.447-.803-.711-1.342-.745-.964-.058-1.653.642-1.71 1.583-.057.952.562 1.675 1.538 1.733a1.793 1.793 0 0 0 1.388-.563l-.103 1.882c-.528.126-.918.23-1.4.207a3.333 3.333 0 0 1-2.215-1.021c-.63-.643-.895-1.446-.837-2.341a3.101 3.101 0 0 1 1.021-2.157 3.295 3.295 0 0 1 2.352-.849c.505.034.964.172 1.423.39l-.115 1.881zm4.073-.699l.012 1.009 1.779-.023.023 1.331-1.779.023.012 1.044 1.87-.023.023 1.332-3.442.057-.092-6.059 3.442-.057.023 1.331-1.87.035zm10.798 3.97l-1.56.183-.723-6.001 1.56-.195.723 6.013zm5.29-5.405c-.333-.183-.723-.275-1.102-.206-.287.046-.631.287-.574.619.058.345.505.402.792.448l.413.046c.872.091 1.595.39 1.767 1.354.103.596.08 1.227-.321 1.709-.39.482-.987.758-1.584.872-.745.138-1.526.012-2.214-.298l.436-1.365c.447.275.952.459 1.48.367.367-.069.711-.321.643-.735-.081-.436-.712-.47-1.067-.504-1.022-.104-1.71-.241-1.917-1.389-.218-1.205.494-2.157 1.687-2.375a4.037 4.037 0 0 1 1.951.149l-.39 1.308zm8.72-2.432l.298.964 1.653-.505.39 1.273-1.652.505.688 2.272-1.503.459-1.767-5.794 3.327-1.022.39 1.274-1.824.574zm8.502-4.464l1.24 3.167c.287.723.539 1.457.183 2.215-.287.642-.964 1.101-1.618 1.354-.654.252-1.468.378-2.111.103-.769-.321-1.09-1.033-1.365-1.756l-1.24-3.167 1.469-.573 1.159 2.972c.287.734.654 1.514 1.595 1.147s.677-1.193.39-1.916l-1.159-2.972 1.457-.574zm6.977 3.408l-1.423.689-2.054-4.257-1.17.562-.585-1.205 3.763-1.824.585 1.204-1.17.563 2.054 4.268zm4.658-2.467l-1.377.769-2.948-5.29 1.376-.769 2.949 5.29zm3.064-3.385l1.595-1.01.711 1.125-2.926 1.836-3.224-5.118 1.331-.837 2.513 4.004zm2.765-5.955l.597.826 1.434-1.044.78 1.079-1.434 1.044.608.849 1.515-1.102.78 1.079-2.8 2.019-3.545-4.911 2.788-2.019.78 1.079-1.503 1.101zm9.398-5.622l.791.906-4.497 3.89-.792-.907 4.498-3.889zM22.03 65.38h1.332l1.055 2.778 1.113-2.777h1.343l.78 5.186h-1.354l-.379-2.983h-.011l-1.25 2.983h-.54l-1.194-2.983h-.01l-.437 2.983h-1.342l.895-5.186zm7.849 0h2.065c1.113 0 1.882.517 1.882 1.71 0 1.228-.665 1.767-1.836 1.767h-.768v1.722h-1.355V65.38h.012zm1.354 2.387h.23c.493 0 .975 0 .975-.63 0-.655-.448-.666-.976-.666h-.23v1.296zm6.196 1.664h1.618v1.148h-2.96v-5.187h1.353v4.04h-.011zm6.563-2.719a1.425 1.425 0 0 0-.895-.344c-.252 0-.573.149-.573.436 0 .298.367.424.596.493l.345.103c.722.218 1.285.574 1.285 1.412 0 .516-.127 1.044-.54 1.4-.401.344-.952.493-1.468.493a3.152 3.152 0 0 1-1.825-.597l.574-1.09c.333.299.734.54 1.193.54.322 0 .654-.161.654-.528 0-.379-.528-.505-.814-.597-.85-.241-1.4-.459-1.4-1.469 0-1.055.746-1.744 1.79-1.744.528 0 1.159.16 1.63.425l-.552 1.067zm90.475 2.719v1.148h-4.165l2.122-2.307c.299-.332.597-.803.597-1.273 0-.333-.229-.677-.597-.677-.367 0-.562.287-.562.63 0 .07.012.15.023.219h-1.48c.046-1.194.803-1.997 2.019-1.997 1.09 0 2.008.712 2.008 1.848 0 .745-.309 1.181-.837 1.663l-.803.746h1.675zm6.54-1.457c0 1.354-.654 2.8-2.203 2.8s-2.203-1.446-2.203-2.8c0-1.354.666-2.8 2.203-2.8 1.538 0 2.203 1.457 2.203 2.8zm-3.063 0c0 .505.16 1.618.86 1.618s.861-1.113.861-1.618c0-.505-.161-1.606-.861-1.606s-.86 1.101-.86 1.606zm5.978-1.446v-1.147h2.088v5.186h-1.343v-4.05h-.745v.011zm5.76 0v-1.147h4.257l-2.984 5.186h-1.48l2.364-4.05h-2.157v.011z" fill="#F0F"/><path fill-rule="evenodd" clip-rule="evenodd" d="M93.63 4.269h-4.028L88.294.47A.66.66 0 0 0 87.63 0a.689.689 0 0 0-.654.481l-1.24 3.787h-3.912a.703.703 0 0 0-.666.482.686.686 0 0 0 .253.769l3.258 2.317-1.181 3.707a.686.686 0 0 0 .252.768.688.688 0 0 0 .413.138.723.723 0 0 0 .402-.126l3.201-2.25 3.075 2.204a.707.707 0 0 0 .815 0 .71.71 0 0 0 .264-.769L90.784 7.86l3.259-2.329a.692.692 0 0 0 .252-.769.71.71 0 0 0-.665-.493zM76.373 5.784l-1.95.71-1.297-1.605a.354.354 0 0 0-.402-.115.344.344 0 0 0-.23.344l.07 2.054-1.894.688a.37.37 0 0 0-.241.345c0 .149.115.286.264.332l1.985.551.08 2.008c.012.15.115.287.264.321.08.023.15.023.218-.011a.332.332 0 0 0 .172-.138l1.16-1.652 1.881.528c.15.046.31-.012.39-.138a.344.344 0 0 0-.011-.413l-1.217-1.572 1.17-1.698a.362.362 0 0 0-.01-.425c-.093-.114-.265-.16-.402-.114zm28.421 2.088l-1.95-.712.034-2.065c0-.15-.08-.298-.241-.344a.354.354 0 0 0-.401.115l-1.274 1.617-1.893-.688a.338.338 0 0 0-.402.115.361.361 0 0 0-.011.424l1.17 1.698-1.228 1.584a.345.345 0 0 0-.011.413.332.332 0 0 0 .172.138c.069.023.15.034.218.011l1.951-.528 1.101 1.607a.373.373 0 0 0 .39.149.367.367 0 0 0 .264-.321l.103-1.962 1.985-.551a.368.368 0 0 0 .264-.333.394.394 0 0 0-.241-.367zm6.001 4.808l-.872-.735.413-1.055a.175.175 0 0 0-.057-.219.19.19 0 0 0-.229-.01l-.976.584-.849-.711a.19.19 0 0 0-.229-.012.195.195 0 0 0-.081.218l.287 1.09-.929.586a.195.195 0 0 0-.08.218c.011.046.034.08.068.103.035.023.069.046.115.046l1.102.092.264 1.032a.21.21 0 0 0 .172.15c.08.01.16-.046.195-.115l.424-.999 1.136.092c.081.012.161-.046.195-.126a.274.274 0 0 0-.069-.23zm-43.59-2.146l-.872.734-.976-.585a.176.176 0 0 0-.23.023c-.068.057-.09.15-.056.218l.424 1.044-.85.712a.196.196 0 0 0-.056.229c.034.08.114.126.195.126l1.124-.092.413 1.022c.035.08.115.126.195.114.046 0 .08-.023.115-.046a.167.167 0 0 0 .069-.103l.287-1.067 1.067-.08c.08-.012.16-.069.172-.15a.202.202 0 0 0-.08-.217l-.907-.586.287-1.101a.202.202 0 0 0-.08-.218c-.08-.034-.184-.034-.241.023z" fill="#F0F"/></svg>