<svg width="200" height="116" viewBox="0 0 200 116" fill="none" xmlns="http://www.w3.org/2000/svg"><path fill-rule="evenodd" clip-rule="evenodd" d="M98.325 16.999c-.445.428-1.068.698-1.589 1.194-.185.176-1.06.454-1.589.664-1.228.48-2.733 1.127-4.238 1.454-1-.042-2.01-.487-2.909-.26-.958.244-1.026 1.135-1.589 1.723 0 .774-.21 1.463-.395 2.12-.168.596-.32 1.235-.665 1.723.236.647-.302 1.16-.395 1.59-.202.916-.176 1.891-.664 2.648-.143.496.328.378.26.79-.167.404-.252.9-.394 1.32.361 1.362.126 2.901.664 3.969.067.134.21.168.26.26.32.547.606 1.203 1.06 1.724.84.093 1.354.437 2.253.135.58-.202 1.211-.723 1.716-1.194a7.996 7.996 0 0 0 1.32-1.59c-.261-.966-.152-2.143 0-3.438.1-.866.185-1.674.53-2.38-.068-1.749.462-2.892.53-4.498.52-.63.663-1.631 1.058-2.38.555-.193.892-.614 1.59-.664.748.227 1.135.807 1.589 1.32-.034 1.379-.387 2.38-.664 3.573-.135.59-.261 1.245-.396 1.85-.277 1.228-.698 2.506-.664 3.969 1.16-.353 1.362-1.43 2.514-1.59 1.95-.26 2.632 1.472 3.305 3.045.227 2.076-.606 4.464.269 5.953.218-.06.689-.16.79-.396.025-.058-.042-.218 0-.26.412-.463.824-.925 1.194-1.59.177-.319.387-.638.395-.924.034-.774-.588-1.505-.925-2.38-.202-.513-.084-1.564 0-2.38.202-2 .673-3.11 1.85-4.363 1.068-.362 2.346-1.312 3.834-1.32.345 0 .673.185 1.06.26.471.093.883.009 1.194.135.344.143 1.479 1.051 1.589 1.59.16.773-.303 1.546-.664 2.118-.101.16-.228.488-.27.53-.084.084-.311.05-.395.134-.05.05-.075.227-.134.27-.185.125-.522.159-.665.26-.403.294-.571.597-.924.79-.757.438-1.632.749-2.514 1.06-.143 1.95 1.799 1.816 2.774 2.648 1.194-.353 2.111-.975 2.909-1.715.219-.706.614-1.345.925-1.984.295-.622.53-1.287.925-1.85.631.025 1.455-.135 1.724.269.353 1.925-1.598 2.615-1.455 4.759a2.53 2.53 0 0 0-.79.79c-.185.295-.353.564-.664.925-.665.782-1.589 1.665-2.38 2.514-1.261.362-2.11.068-3.044-.26-.353-.127-.782-.127-1.059-.261-.597-.303-.959-.967-1.589-1.06-.58.127-.597.816-.925 1.194-.58.345-.841 1.119-1.32 1.724-.833 1.043-1.707 1.715-3.574 1.06-.647-.58-.941-1.186-1.32-2.245-.092-.253-.244-.58-.26-.8-.06-.722.437-1.479.134-2.244.278-1.102.698-2.724.395-3.969-1.16-.31-1.572 1.127-2.514 1.455.11.378-.26.614-.395.925-.084.193-.05.32-.134.53a5.423 5.423 0 0 0-.396 1.723c-.075 1.102.16 2.043.135 3.178.076.564-.353.614-.664.8.025.596.16.664-.135 1.059-.656-.093-1.177-.328-1.32-.925-.277-.43-.832-.58-1.06-1.06-.226-.353-.016-1.135-.26-1.454-1.186.302-1.96 1.395-3.304 1.454-.589.026-1.094-.344-1.85-.269-.69-.706-1.463-.454-2.245-.925-.05-.033-.084-.243-.135-.269-1.025-.462-1.656-2.514-2.119-3.834-.117-.336-.344-.656-.395-.925-.26-1.295 0-2.598 0-3.968 0-.446-.126-.909-.134-1.32a11.412 11.412 0 0 1 1.454-5.819c.06-1.438.614-2.388.925-3.573-.017-.623-.79-.58-1.32-.79-.437-.177-.942-.472-1.454-.53-.58-.06-1.354.025-1.985.134-.521.084-1.194.134-1.455.53-.201.714.597 1.084.925 1.715.093.185.068.387.135.53.294.69.681 1.866.53 3.304-.21.185-.337.454-.395.79-.547.253-1.068.522-1.455.925-1.169.009-2.085.253-3.178 0-1.035-.714-2.422-1.454-2.91-2.648-.252-.614-.067-1.051.135-1.85.1-.387.143-.874.26-1.194.236-.605.782-1.085.925-1.724-.16-.698-.933-.563-1.589-.664-.656-.1-1.295-.202-1.984-.134-.605.016-1.488.849-1.984.134-.068-.866.706-.874 1.32-1.06.672-.495 2.018-1.025 3.043-.395.27.16.715.06 1.194 0 .648.017.505.816 1.194.79.841-.092 1.413-.436 1.985-.79.933.009 1.286-.563 1.984-.79.488-.143.967.135 1.455.135.824 0 1.681-.076 2.648.134.471.101.9.303 1.32.395.993.219 2.01.244 2.775.8 1.076-.018 1.968.42 2.91.529 1.16.134 2.396-.05 3.833.134.673-.21 1.178-.588 1.985-.664 1-.454 1.875-1.034 2.909-1.454.546-.337.959-.808 1.455-1.194.033-.143.26-.093.26-.27.732.051 1.026.438 1.06.79.084.716-1.278 1.044-1.573 1.54zm-22.492 5.423c-.353-.311-.462-.866-.924-1.06-.244-.462-.505-.908-1.06-1.059h-.26c-.757 1.009-1.413 2.993-.665 4.364.538.504 1.74.723 2.514.269.463-.505.42-1.514.395-2.514zm31.228 6.483c-.529.622-1.168 1.118-1.32 2.118.194.11.194.43.261.665.151.017.378-.025.395.134.58.009.547-.597 1.06-.664 1.084-.454 1.908-1.177 1.984-2.649-.824-.68-1.556.286-2.38.396z" fill="#383F48"/><path fill-rule="evenodd" clip-rule="evenodd" d="M146.496 50.472c-.563.328-.572 1.067-.79 1.85-.236.832-.69 2.101-1.06 3.043.538 1.303-.252 2.447-.395 3.574-.101.748-.126 1.934-.135 2.648 0 .286.143.538.135.79-.034.825-.202 1.59-.135 2.246.034.31.202.571.261.79.05.16-.05.37 0 .53.025.075.244.21.261.26.176.48.176 1.16.664 1.455 2.127-.076 2.876-1.53 4.238-2.38.302-.798.723-1.488 1.059-2.253 0-.614-.538-1.127-.664-1.715-.076-.353.059-.858 0-1.32-.093-.816-.303-1.026-.135-2.12.126-.815.421-2.135.791-2.774.353-.597 1.446-1.623 2.119-2.253.176-.16.437-.32.664-.53.218-.21.521-.244.925-.395.647-.252 2.304-.622 3.304-.53.698.067 1.32.362 1.984.664-.033.337.354.606.396.925.075.496-.244 1.203-.665 2.12-.294.638-.546 1.361-.925 1.723-.109.1-.269.042-.395.134-.269.202-.689.64-1.32.664-.723.026-1.774-.277-2.379-.924.193-.85 1.253-.64 1.849-.925.85-.412 1.27-.976 1.59-1.85-.169-.277-.32-.555-.53-.799-.404.076-.58-.1-.925 0-.244.076-.202.294-.395.395-1.337.715-2.161 2.094-2.775 3.708-.134 1.993.437 3.271 1.32 4.238 1.598.933 4.078.437 5.423-.53 1.186-.84 1.884-2.253 2.91-3.043-.068-.446.353-.841.529-1.194.421-.841.824-1.85 2.38-1.724.74-.034.37 1.043.664 1.455.572-.042.505-.732.791-1.06 1.194-.387 2.152-2.16 3.708-2.38 1.816-.26 2.825.707 3.573 2.12-.361 2.169-1.244 4.153-1.984 6.222-.278.782-.488 2.034-.135 3.043 1.303-.109 1.396-1.43 2.245-1.984.37-.336.782-.622 1.06-1.06.319-.336.622-.958 1.194-.664.504.379-.16.69-.269 1.194-.219 1.505-.976 2.464-1.724 3.44-.681.335-1.278.756-1.984 1.059h-1.59c-.58-.395-1.252-.69-1.589-1.32-.353-2.144-.05-4.55.53-6.618.277-.992 1.017-2.135.395-3.043-2.043.252-2.648 1.942-3.573 3.304.101.933-.463 1.37-.53 2.119-.143 1.656 1.27 2.926.79 4.633-.765.37-1.799-.017-2.514-.135-.21-.437-.723-.748-.925-1.32-.319-.908-.016-2.093-.529-2.91-.858.085-1.245 1.153-1.985 1.716-.109.084-.286.067-.395.135-.118.067-.176.21-.261.269-.218.143-.454.143-.664.26-.429.253-.782.589-1.194.79-.445.228-.992.32-1.454.53-.538.244-.917.606-1.32.665-1.253.185-2.557-.37-3.708-.925-.429.26-.455.824-.665 1.32-.025.067-.252.218-.26.269-.084.278-.093.757-.269 1.06-.219.386-.925.933-1.321 1.454-.075.093-.05.294-.134.395-.034.042-.227-.042-.269 0-.076.076-.101.37-.261.53-.37.345-.908.639-1.32.925-.925.63-1.488 1.101-2.909.79-.622-.134-1.741-.336-2.38-.79-.613-.446-.773-1.118-1.32-1.85-2.11-.227-3.481-1.194-4.633-2.38-.218-.823-.563-1.378-.664-2.648-.067-.832-.092-1.64-.134-2.783-.017-.395-.143-.875-.135-1.194.009-.286.236-.64.261-.925.042-.429-.051-.832 0-1.194.033-.21.218-.446.26-.664.059-.294-.05-.64 0-.925.084-.454.328-.9.396-1.32.084-.513.05-1.093.134-1.59.084-.512.328-.958.269-1.454-.454.008-.58.521-.79.79-.597.766-1.354 1.623-1.985 2.514.017 1.472-.084 2.691-.529 3.97-.025.066-.252.218-.261.26-.101.328-.067.37-.261.664-.269.395-.899.765-1.454 1.194-.042.034-.093.252-.135.26-1.135.514-2.102.96-3.178.53-.731-.294-1.446-.605-2.119-1.06-.471-.588-.664-1.454-1.194-1.983-.664.033-.916.824-1.32 1.32-.378.462-.908.857-1.194 1.32-.101.168-.042.344-.134.53-.143.277-.244.554-.396 1.193-.058.261-.21.555-.26.79-.135.598-.118 1.279-.261 1.85-.067.261-.311.53-.395.791-.269.807-.463 1.85-.79 2.775-.093.269-.278.521-.396.79-.26.605-.428 1.11-.664 1.724-.202.53-.353.84-.664 1.32-.118.185-.151.361-.261.53-.218.319-.563.613-.79.924-.908 1.236-1.539 2.044-3.044 2.775-.53.26-1.127.513-1.715.664-1.354-.714-2.632-1.387-2.38-3.439.068-.563.429-.992.791-1.589.143-.235.227-.546.395-.79.134-.194.387-.328.53-.53.327-.454.571-.984.924-1.454.791-1.06 1.775-2.002 2.775-3.044.16-.168.387-.362.53-.53.193-.227.235-.58.395-.79.303-.387.799-.74 1.194-1.194.555-.64 1.345-1.867 1.059-3.044-1.034.151-1.311 1.076-2.253 1.32-.631.101-.908-.151-1.455-.134-.428.227-.319 1.009-.529 1.454-.362.412-.715.942-1.194 1.455-.37.403-.824.975-1.32 1.194-.345.143-.959.16-1.455.26-.496.11-.95.311-1.32.261-.446-.05-.916-.429-1.455-.79-.807-.547-1.194-.833-1.723-1.455-.379-1.43-.513-2.766-.395-4.238.05-.622.008-1.303.134-1.85.118-.554.53-1.118.664-1.723.135-.614.387-1.22-.134-1.724-.917-.075-.934.74-1.455 1.06-.698.933-1.623 1.64-2.775 2.118-.344 1.329-.571 2.775-.79 4.238-.673 1.547-2.396 2.69-4.498 2.514-1.177-.1-2.085-.773-3.044-1.06-1.21.43-1.522 1.741-2.649 2.246-.697.933-1.749 1.513-2.648 2.253-.9-.151-1.716.522-2.649.664-1.909.278-3.548-.437-4.767-1.194-.824-1.16-1.615-2.354-2.12-3.834-.142-2.236.32-3.893.396-5.557-.42-.79-1.48-.497-2.245-.79-.773-.303-1.53-.968-1.724-1.985 1.489-.353 2.346.832 3.708.53 1.455-.328 1.228-2.002 2.12-3.044.176-1.253.638-2.186 1.059-3.178.395-.925.992-1.825 1.06-3.044-.085-.446-.825-.227-1.06-.53-.564.034-.715-.345-1.32-.26-.236.512-.11 1.067-.261 1.589-.025.067-.252.218-.27.26-.033.11.051.294 0 .395-.083.169-.37.303-.529.53-.134.193-.151.513-.26.664-.303.412-.715.892-.925 1.06-.152.117-.555.193-.925.395-.252.143-.42.42-.665.53-.134.059-.454.067-.664.134-.378.118-1.21.58-1.715.664-1.858.295-3.044-.285-4.238-.79-.344-.538-.832-.933-1.32-1.32-.227-1.076-.807-1.623-.664-2.649.084-.58.42-.731.79-1.194.64-.798 1.026-1.236 2.12-1.715.899-.395 2.345-.504 3.312-1.06.69.034 1.32 0 1.85-.134-.202-1.169-1.505-1.227-1.985-2.119-1.185-.269-2.144-.765-3.178-1.194-1.261-.227-2.648.471-3.439-.134.05-.79 1-.673 1.32-1.194.992-.126 2.346-.252 3.313 0 .84.437 1.749.807 2.514 1.32.824.412 1.413 1.06 2.245 1.455.143.042.042.294.135.395.134.151.479.168.664.395.311.404.748 1.085 1.32 1.32.58.235 1.96.219 3.178.395.85.126 1.69.446 2.514.53.446.042 1-.067 1.455 0 .605.084 1.253.403 1.85.53.37.075.731.059 1.06.134.68.143 1.74.513 2.648.664.387.068.698.068 1.06.135 2 .353 4.49-.286 6.221-.664.463-.068.698-.362 1.06-.53.899.008 1.791-.513 2.648-.799.824-.269 1.682-.748 2.245.27-.193 1.303-1.925 1.076-2.648 1.85-1.421.125-2.514.57-3.44 1.193-.554.034-.621-.21-1.059 0-2.875 1.017-6.667.446-10.317.53-.983.454-1.379 1.589-1.85 2.514-.462.908-1.042 1.925-1.193 3.044.092.479.967.184 1.454.26 1.01-.05 2.077-.176 3.044.135.572.185.833.193.925.664.143.706-.26.79-.664.925-.404.134-.74-.126-1.194-.135-.395 0-.984.143-1.32.261-1.539.547-3.666 1.539-4.238 2.119-.395 2.489-.959 5.381-.135 7.677.328.605 1.127.647 1.85.79.707.143 1.657.37 2.38.26.588-.084 1.253-.52 1.715-.79.58-.336 1.118-.622 1.32-1.06.933-.655 1.766-1.412 2.38-2.379-.093-1.505.193-2.783.53-3.968.201-.698.386-1.472.924-1.85 1.32-.126 1.858.521 2.38 1.194-.042 1.833-.37 3.573.664 4.767.462.404.614-.361 1.194-.26.32-.21.715-.345.925-.665.311-.706-.042-2.076.26-2.774-.437-1.068-2.446-1.724-2.909-3.044-.74-2.102.446-4.499 2.649-4.238 1.581.194 2.043 1.732 2.775 3.044.05.572.1 1.127.395 1.455 1.48-.37 1.488-2.22 2.648-2.91 1.472-.151 2.304.311 3.305.79.185.085.353.034.529.135.059.034.085.244.135.26.252.11.446.245.664.53.11.143.429 1.548.395 2.254-.016.42-.26.883-.395 1.454-.227.942-.504 1.91-.664 2.91-.193 1.253-.235 2.758.925 2.909.622.084 1.076-.555 1.589-.925.362-.26.605-.303.925-.664.126-.143.177-.446.261-.53.311-.294.765-.269.924-.664-.311-1.085-.832-2.212-.79-3.574.025-.857.378-1.673.395-2.514.547-.571.639-1.446 1.06-2.119.033-.05.244-.092.26-.134.118-.27.337-.462.53-.79.051-.093.059-.295.135-.396.075-.109.319-.15.395-.26.092-.126.042-.278.134-.395.396-.53.892-1.27 1.59-1.716.47-.31.966-.572 1.723-.53.917 1.11-.008 2.834-.664 3.574-.513 1.16-1.026 2.33-1.724 3.305-.017 1.076-.639 2.32.261 2.909.883.092.891-.698 1.32-1.06 1.051-.428.942-1.438 1.059-3.044.118-1.597.572-3.153.925-4.237 1.085-.395 2.271.059 2.91.53.639 1.547.159 3.716.395 5.423.698.084.908-.547 1.194-.925.294-.404.471-.933.79-1.32.101-1.135.387-2.085 1.194-2.514.488.042 1.169-.11 1.455.134.773.824.244 2.296.395 3.44.084.605.353 1.151.53 1.588.201.505.218.967.664 1.32 1.227-.53 2.026-1.681 2.245-3.304-.244-.42-1.034-.286-1.455-.53-.378-.504-.883-.883-1.194-1.454-.067-.9.025-1.657.395-2.12 1.8-.58 3.002.497 3.835 1.32.782-.36 1.269-1.151 1.723-1.849.227-.361.446-.799.664-1.194.194-.353.497-.773.53-1.194-.849-.757-2.144-.723-3.304-1.194-.505-.21-.917-.563-1.455-.79-.269-.11-.63-.151-.925-.26-.563-.22-.984-.497-1.589-.665-.849-.236-1.824-.328-2.775-.53-1.732-.37-2.875-.933-5.028-.79-.605.042-1.421.176-2.119.26-.714.093-1.454.118-1.984.261-1.017.286-1.799 1.169-2.909 1.59-.622.395-.875 1.16-1.85 1.193-.429.589-.858 1.169-1.455 1.59-.327.504-.47 1.908-1.059 1.723-.891-.26-.135-1.404 0-1.984.109-.48.084-.664.269-1.06.37-.798 1.236-1.294 1.32-1.984.572-.32.917-.992 1.455-1.455.101-.092.277-.042.395-.134.092-.067.202-.303.395-.395.547-.26 1.253-.412 1.984-.664.623-.21 1.321-.513 1.985-.665.74-.168 1.572-.176 2.379-.26 2.447-.253 5.272-.261 7.803.134 1.018.16 2.153.168 3.044.395.244.06.538.311.799.395.538.185 1.261.32 1.849.53 1.262.454 2.969 1.01 4.238 1.455.479.11.404-.395.53-.664.126-.261.294-.42.395-.665.118-.269.151-.639.261-.925.101-.243.328-.445.395-.664.143-.47.118-1.068.261-1.589.134-.47.277-.942.529-1.32.538-.21 1.194-.303 1.985-.26.269.436.824.588 1.059 1.059-.126 1.185-.698 2.11-1.059 3.044-.37.95-.841 1.858-.925 3.043.605.496 1.707.496 2.648.664.311-.15.353-.554.53-.924.555-1.194.79-3.22 1.32-4.633.656-.101.992-.505 1.589-.665.715.084 1.463.118 1.85.53-.084 2.346-1.16 3.683-1.589 5.693 2.548.26 4.608-.757 6.483-1.59.529-.235 1.025-.395 1.454-.664 1.144-.706 2.321-1.875 3.574-2.648.168-.413.437-.707.79-.925.53-1.438 1.295-2.128 1.32-4.104.009-.798-.168-1.723-.26-2.648-.093-.908-.093-1.884-.261-2.514-.135-.505-.622-1.345-.925-1.985a4.738 4.738 0 0 0-.79-1.194c-.143-.16-.354-.201-.53-.395-.093-.1-.042-.302-.135-.395-.706-.765-2.068-1.303-3.043-1.984-1.43-.194-2.741-.446-4.104-.27-.697.093-1.421.345-2.118.53-.69.177-1.396.303-1.985.53-.992.387-1.808.984-2.648 1.32-.387.185-.496.648-1.06.665-.328.47-.807.781-1.059 1.32-.572.218-.681.908-1.32 1.059-.774.807-1.245 1.934-2.775 1.984-1.068-.412-.673-1.908.395-2.253.32-.521.858-.824 1.32-1.194.126-.404.269-.79.395-1.194.429-.1.875-.185 1.194-.395 1.009-.69 2.153-1.59 3.439-2.38.564-.344 1.186-.773 1.85-1.06.336-.142.69-.251 1.06-.394.285-.11.647-.328.924-.395 1.337-.354 2.935-.354 4.238-.27 1.9.127 3.498.79 5.028 1.32.244.404.69.656 1.06.925.925.69 1.95 1.38 2.774 2.38.093.11.042.294.135.395.42.454.647 1.404 1.194 2.119.765 3.035.437 6.735-.395 9.526-.042.438-.387.589-.261 1.194-.277.084-.311.43-.53.665-.218.227-.555 1.093-.79 1.454-.673 1.018-2.136 2.086-2.909 3.179-.959.277-1.648.958-2.514 1.454-2.43 1.472-5.6 2.279-9.493 2.439zm-72.252-4.23c-.908.253-1.26.824-1.85 1.455-.588.63-1.084 1.034-1.059 1.715.034 1.017 1.127 1.69 2.119 1.724.504.017 1.144-.311 1.32-.395.244-.11.488-.042.664-.135.42-.21.808-.521.925-.664.303-.353.387-.959.53-1.32.269-.681 1.034-1.514.53-2.38-.942-.235-2.514-.185-3.179 0zm66.164 3.17c-.529 1.236-.471 3.06-.925 4.364-.084.53.354.53.261 1.06-.21.353-.437.689-.53 1.193-.1.547.118 1.287 0 1.985-.075.428-.353.79-.395 1.194-.067.588.093 1.43.135 2.245.084 1.749.101 3.06 1.059 3.573.16.463.244.992.791 1.06.58-1.489.252-3.103.395-4.768.059-.698.286-1.396.395-2.119.118-.773.336-1.538.395-2.119.042-.454-.067-.882 0-1.32.067-.487.32-.992.395-1.454.126-.732.118-1.447.261-2.12.151-.68.454-1.294.395-1.983-.782-.345-1.412-.858-2.632-.79zm-8.206 4.372c.008-.756-.168-1.328-.925-1.32-.37.648.143 1.404.925 1.32zm-32.683-.134c-1.017-.37-1.328.68-1.194 1.85.513.504.875 1.16 1.85 1.194.278-1.043-.109-2.397-.656-3.044zm13.361 19.852c-.143.244-.605.597-.664.925-.084.512-.059.849.395 1.32.891-.126 1.211-.816 1.724-1.32 1.421-1.665 2.631-3.54 3.043-6.223.076 0 .152-.109 0-.134-1.622 1.362-3.355 3.498-4.498 5.432z" fill="#383F48"/><path fill-rule="evenodd" clip-rule="evenodd" d="M175.471 85.012c-.345.875-.286 1.707-.53 2.514-.337 1.127-1.034 2.069-1.32 3.179-.866.68-1.707 1.387-3.044 1.589-2.951-.706-4.725-2.598-6.483-4.498-.681.025-.832.58-1.194.924-.227.093-.42.21-.664.396-.151.117-.345.42-.53.53-.378.226-1.042.42-1.589.664-.799.353-1.295.697-2.379.79-1.051.093-2.598.151-3.574 0-.58-.093-.857-.362-1.454-.53-.85.295-1.018 1.278-1.321 2.12-1.017 1.008-1.437 2.614-2.909 3.177-.546.152-.933.53-1.589.53-.681 0-1.354-.412-1.715-.799-.353-.445-.917-.672-1.06-1.32-.454-.336-.731-.916-.925-1.454-.243-.665-.218-1.32-.395-1.985-.277-1.05-.899-1.959-1.059-2.909-.656.008-.446.874-.664 1.32-.303 1.59-.799 2.75-1.06 4.499-.168 1.118-.218 2.32-.395 3.304-.118.639-.992 1.379-1.059 2.119-.412.21-.782.454-1.06.79-.731.067-1.312.278-1.984.395-.471-.243-.791-.285-1.194-.664-.353-.328-1.194-.68-1.589-1.194-.084-.11-.042-.176-.135-.26-.176-.186-.496-.942-.664-1.32-.244-.547-.412-1.186-.664-1.716-.236-.513-.53-.95-.791-1.454 0-.908.421-1.875.53-2.91.109-1.042-.084-2.068-.135-3.178-.058-1.362.194-2.817-.26-3.969-.572.463-.69 1.287-.925 1.985-.236.69-.555 1.395-.79 2.118-.48 1.43-.74 2.977-1.455 4.238-.261.463-.824.816-1.194 1.32-.21.286-.235.665-.395.925-.362.58-.875.707-1.455 1.194h-2.119c-.286-.445-.681-.53-.925-.925-.428-.69-.639-1.959-.79-2.909-.084-.488.118-1.068-.261-1.455-.47-.05-.647.43-.925.665-.798.68-1.849 1.278-2.648 2.119-1.093.277-2.018 1.025-3.574.53-.655-.21-1.959-1.413-2.379-2.12-.345-.58-.488-1.362-.664-2.118-.185-.816-.379-1.69-.261-2.514-.824.058-1.118.647-1.85.79-.42.151-.336.807-.664 1.06-1.127.327-2.262.655-2.909 1.454.387 1.286 1.311 2.16 1.715 3.573.042 2.371-.244 4.087-1.194 5.424-.092.134-.025.16-.135.26-.748.749-1.816 1.623-2.774 2.38-1.699.454-3.843 1.286-5.953 1.059-1.505-.159-2.666-1.059-3.708-1.589-.118-.454-.32-.824-.53-1.194.042-1.362.345-2.48.53-3.708.588-.58.807-1.362 1.32-1.984.773-.942 1.867-1.657 2.91-2.38a94.747 94.747 0 0 1 3.177-2.118c.042-.337-.277-.438-.53-.665-.167-.151-.344-.37-.529-.53-.177-.15-.47-.243-.664-.395-.286-.218-.43-.47-.79-.664-.892-.462-2.64-.563-2.65-1.59 0-.773.707-.705 1.32-1.058.707-.404 1.632-1.237 2.515-1.455.546-.37 1.228-.824 1.85-1.32.286-.236.504-.547.798-.79.312-.261.665-.37.925-.665.118-.126.253-.462.396-.664.058-.084.218-.185.26-.27.067-.1.051-.277.135-.394.277-.412.731-.79.925-1.194.067-.143.067-.488.134-.664.118-.312.337-.64.395-1.06.219-1.539-.008-3.582-.529-5.028-.37-.202-.749-.404-1.06-.664-1.488.201-3.144.32-4.237.925-.362.201-.867.428-.925.925a2.6 2.6 0 0 0-1.194.53c-.631.554-.976 1.403-1.85 1.723-.522 1.286-1.388 2.228-1.984 3.439.084 1.623-.438 2.657-.925 3.708-.042.891-.177 1.227-.53 1.984-.084 1.463-.236 2.817-.53 4.103-.437 1.934-.799 4.928-.79 7.543 0 1.345.294 2.707-.395 3.834.059.269-.169.285-.261.395-.278.319-.715.504-.925 1.059-.496.21-.824.589-1.32.799-.538.303-.614.841-1.32.79-.715-.05-1.093-.807-1.194-1.715-.067-.63.059-1.875.135-2.775a88.58 88.58 0 0 1 .26-2.648c.101-.824.387-1.564.395-2.38.009-.361-.143-1.177-.134-1.454.025-.908.143-1.825.26-2.775.101-.84.387-1.724.396-2.648.016-1.968-.95-3.717-1.724-5.163-.463-.875-.79-1.774-1.59-2.38-.1-.075-.285-.05-.394-.134-.362-.286-.64-.984-1.32-.79-.362 1.496.487 1.698.395 2.909-.05.647-.404 1.101-.925 1.589-.866.807-1.774 1.177-3.305.664-.504-.168-.967-.311-1.194-.664-.336-.547-.479-2.237-.26-2.91.344-1.067 1.774-1.454 2.245-2.253-.522-1.11-.984-2.245-1.985-2.91-.277-.184-1.025-.73-1.059-1.32.891-1.31 2.354-.1 3.044.665.47 1.11 1.522 1.774 2.253 2.775.883.076 1.707-.11 2.38 0 .597.1 1.227.454 1.85.79.689.379.857.74 1.454 1.59.328.462.782.916.925 1.32.185.512.143 1.16.269 1.715.11.504.27.967.395 1.454.589-.235.698-.958.925-1.589.21-.588.303-1.278.664-1.724-.143-1.404.496-2.244.925-3.178.244-.521.43-1.135.665-1.589.16-.311.437-.681.664-1.06.244-.428.975-.983 1.194-1.589.883-.378 1.623-1 2.38-1.589.193-.151.336-.395.529-.53.193-.134.462-.126.664-.26.37-.252.665-.622 1.06-.79.588-.261 1.505-.48 2.38-.665.386-.084.874-.059 1.319-.134.984-.16 1.261-.303 2.38 0 .857.235 1.16.378 1.85.79.563.337 1.908 1.034 2.253 1.455.084.1.05.176.134.269.429.454.774 1.866.665 3.178-.034.37-.227.774-.261 1.194-.042.547.109.866 0 1.455-.168.925-.622 1.908-1.059 2.774-.32.64-.707 1.228-1.06 1.85-.126.227-.151.513-.26.664-.387.53-1.144 1.094-1.724 1.59-.463.395-.891.639-1.455 1.059-.403.294-.866.597-1.454.925-.328.177-.85.168-.925.664 0 .437.555.404.79.53.74.378 1.421.942 2.254 1.32.42.076.706-.202 1.059-.395.16-.093.345-.16.53-.26.05-.035.084-.245.134-.27 1.842-.832 3.843-1.976 5.953-2.775.606-.496.858-1.345 1.32-1.984.488-.034.765-.597 1.32-.79.673-.244 1.749-.311 2.514-.261.892.059 1.699.362 2.245.79.648.06 1.312.093 1.455.665-.395 1.311-2.741.412-3.834.395-.404-.093-.538.387-.799.664-.294.303-.631.53-.79 1.06-.438 1.437.033 4.162.925 5.162.504.11.84.395 1.32.53 1.068-.252 1.665-1.102 2.245-1.85.58-.748 1.059-1.597 1.589-2.38.151-1.126.521-2.034.925-2.909-.017-.723-.017-1.43.134-1.984.597-.47 2.237-.816 3.044-.26.723.933.387 2.32.395 3.707 0 .53.152 1.16.135 1.724-.017.513-.236 1.068-.261 1.59-.008.251.109.621.135.924.075.95.025 1.724.925 1.984.504-.109.487-.748.664-1.194.311-.26.218-.924.53-1.194.1-.546-.202-.68-.135-1.194.454-1.042 1.085-2.387 1.32-3.834.244-1.488-.059-3.144.79-4.237.715-.143 1.463-.227 1.85.26.564.185.942.555 1.194 1.06.387.092.816.151 1.06.395.479.58.958 1.16 1.454 1.724.16 1.025.723 2.245.664 3.438-.042.825-.319 1.489-.664 2.12-.319 1.773.017 3.22.261 4.893.118.773.219 1.597.53 2.245.479.185.74.58 1.32.664.908-.286 1-1.9 1.32-2.909.353-1.102.824-2.127 1.194-3.044.252-2.48.672-4.8.925-7.281.168-.538.723-.681 1.059-1.06.471.21.984.177 1.455.395.403.194.664.572 1.059.79.109.06.345.11.395.135.58.27 1.413.681 1.85 1.194.093.101.042.295.135.395.134.143.428.404.529.79-.403 2.136.051 4.289 1.194 5.29 2.363 0 3.843-2.161 2.775-4.364.286-1.118.008-2.212.135-3.178.185-1.464 1.051-2.346 1.589-3.305 1.765-1.06 2.791-2.859 5.953-2.514.916.858 2.842 1.244 2.379 3.439-.042.219-.294.42-.395.664-.202.488-.471 1.144-.79 1.455-.16.151-.48.151-.665.395-1.017.32-2.85.53-3.178-.53.126-.857 1.236-.748 1.85-1.194.555-.395 1.261-1.244.925-2.253-.353-.505-1.001-.168-1.455 0-.328.118-.614.32-.925.53a3.85 3.85 0 0 0-.925.925c-.563.849-1.547 1.933-1.194 3.834.085.437.387.79.665 1.194.412.597.664.89 1.194 1.32.672.546 2.203 1.143 3.304 1.454.538-.269 1.076-.378 1.589-.664.547-.311 1.001-.765 1.455-1.194.42-.395 1.017-.74 1.194-1.32-.051-.866-.311-1.648-.53-2.648-.219-1.001-.656-2.792-.664-4.238 0-.866.429-1.842-.135-2.649-.496.034-.933.034-1.454.135-.353.067-.791.328-1.194.395-.892.151-1.833.134-2.775.26-.437.06-.883.236-1.32.27-.505.033-.975-.076-1.455 0-.874.142-1.648.597-2.514.664-1.143.084-2.346-.26-3.573-.395-1.287-.143-2.598-.076-3.708-.261-.757-.126-1.488-.353-2.254-.53-.706-.16-1.463-.328-2.118-.53-1.245-.386-2.372-1.025-3.439-1.454-3.818-.387-7.854-1.068-10.847.53-.942.504-1.581 1.48-2.775 1.06-.319-.758.345-1.565.53-2.254a38.938 38.938 0 0 1 3.969-1.59c2.009-.109 3.859.144 5.692 0 .58-.041 1.144-.243 1.724-.26a9.258 9.258 0 0 1 2.379.26c.69.169 1.261.631 1.985.79.664.144 1.404-.016 2.118.136.488.1.976.42 1.455.53 1.152.251 2.447.319 3.708.529 1.186.202 2.405.47 3.574.53 1.109.058 2.152-.068 3.304-.135 3.33-.193 6.197-.361 8.862-1.454.698-1.295.622-3.154 1.32-4.364.034-.05.244-.085.269-.135.194-.429.454-.58 1.06-.925.731-.42 1.732-1.278 3.304-.925-.008 0 .362.185.53.26.605.295 1.833 1.506 1.85 2.515.025 1.093-.732 1.387-1.194 2.245-.892 1.093-1.892 2.077-3.439 2.514-.454 1.9-.202 4.801.26 6.878.143.63.328 1.16.53 1.724.109.294.278.68.395 1.059.194.63.496 1.488.925 2.253.126.227.362.404.53.665.538.807 1.017 1.807 1.85 2.514.244.21.639.521 1.194.53 2.068.025 2.245-2.843 2.514-4.894-.614-.706-1.808-.841-2.38-1.59-.252-1-.176-2.463.261-3.178 1.328-.47 2.951-.403 3.573.53.084.126.253.311.396.53.1.16.21.647.529.79.639.143.992-.336 1.455-.53.092-.033.361-.058.53-.134 1.74-.765 3.195-1.934 4.498-3.304.269-.749.706-1.32 1.194-1.85.353-.623.689-1.253 1.194-1.724-.177-.336.168-.504.261-.79.218-.656.327-1.026.664-1.59.403-.689.765-1.538 1.32-2.244.126-1.505 1.043-2.85 1.194-4.633.067-.841-.126-1.716-.135-2.649-.008-2.085.454-4.481 0-6.348-.05-.194-.21-.32-.26-.53-.328-1.202-.564-2.598-1.06-3.708-.714-1.538-1.261-3.052-2.119-4.364-.807-1.227-1.875-2.262-2.379-3.708-.227-.218-.53-.353-.79-.53-.614-.411-1.329-1.093-2.245-1.32-.656.185-.858.682-1.194 1.194-.16.244-.227.522-.396.79-.075.127-.185.16-.26.262-.076.1-.051.294-.135.395-.218.277-.74.698-1.194 1.06-.42.335-.925.747-1.32.924-.479.21-1.497.353-2.379.53-1.522.31-2.187.479-3.305-.27-.58-.386-1.269-1.042-1.32-1.984-.067-1.27.799-1.833 1.194-2.909.664-.32 1.152-.984 1.85-1.32.765-.37 1.614-.345 2.379-.79.454.201 1.203.117 1.85.134.185-.21 1.119.236 1.32-.26-.294-2.313-1.807-3.397-3.708-4.104-.487.084-1.362-.126-1.454 0-.58.009-1.236.093-1.32-.395-.068-.412.168-.538.395-.664 1.042-.32 2.917-.034 4.103.26.303.076.757.144 1.059.27.816.328 1.337.874 1.59 1.723.571.387.966.48 1.32 1.06.218.353.243.925.395 1.32.412 1.042.891 1.538 2.379 1.724.261.218.505.454.791.664.151.109.386.176.529.26.051.034.093.244.135.261.067.034.202-.042.269 0 .277.193.479.429.79.664.253.185.589.328.791.53.563.538 1.059 1.295 1.589 1.984.496.64.958 1.337 1.455 1.985.092.656.605.89.79 1.454.303.496.63.925.925 1.455.639 1.177 1.126 2.598 1.589 4.103.261.85.202 2.43.395 3.708.126.816.454 1.631.53 2.775.084 1.353-.244 2.9-.53 4.103-.168.698-.454 1.917-.664 2.775-.16.672-.194 1.337-.395 1.85-.101.26-.387.538-.53.79-.16.277-.277.546-.395.79-.765 1.606-1.455 3.313-2.254 4.894-.639.639-1.126 1.42-1.723 2.119-.034.042-.244.1-.261.134-.16.353-.345.698-.664 1.06-.328.378-.816.748-1.194 1.194-.034.033-.252.092-.261.134-.286.63-1.227 1.38-1.723 1.85-.11.11-.286.16-.396.26-.126.118-.74.362-1.059.53-.572.303-1.152.589-1.724.925-.689.11-1.396.194-1.95.437zm-4.238-42.083c-.37.606-.866 1.077-.791 2.12.463.462 1.236.621 2.245.529 1.152-.614 2.094-1.463 2.649-2.514.202-.387.547-.706.395-1.194-1.799-.462-3.119.664-4.498 1.06zm-3.834 26.47c-1.573-1.598-2.128 1.513-2.119 2.648 1.286-.294 2.438-1.152 2.119-2.649zM77.952 81.833c.21-.185.42-.378.665-.53-.085-1.11-.043-2.337-.8-2.774-.958.572-1.723 3.128.135 3.304zm23.686 9.527c-1.463.832-2.766 1.824-4.103 2.774-.673 1.051-1.497 1.951-2.119 3.044.135.345.16.816.135 1.32.353.219.588.564.925.79 1.202.144 1.706-.412 2.648-.53.664-.798 2.052-.958 2.775-1.849.16-.193.378-.597.53-.925.487-1.043.479-1.959.134-3.178-.143-.513-.353-1.32-.79-1.455-.051.009-.093.009-.135.009z" fill="#383F48"/><path fill-rule="evenodd" clip-rule="evenodd" d="M154.433 20.219c-.143.395-.664.244-.891.244-1.001.008-2.068-.37-3.162-.244-.336.042-.739.21-1.135.32-.386.109-.765.218-1.135.327-2.026.572-3.018 1.413-4.7 2.514-.227.143-.496.488-.891.488-.53-.008-1.203-.639-1.295-1.22-.059-.378.109-.848.244-1.378.05-.202.336-1.16.16-1.295-.295-.219-.85.387-1.136.647-.504.455-.765.757-.975.968-.067.067-.101.176-.16.243-.134.143-.428.757-.563 1.051-.202.446-.42 1.06-.647 1.623-.135.336-.328.63-.488.975-.37.782-.463 1.253-.975 2.027-.379.572-1.068 1.354-1.859 1.135-.328-.093-.613-.597-.647-1.135-.034-.42.193-1.152.319-1.783.101-.496.202-.874.328-1.295.126-.454.345-.815.648-1.21.05-.068.185-.093.244-.16.05-.067.025-.168.084-.244.084-.118.252-.21.328-.328.252-.429.479-1.127.731-1.698.294-.665.74-1.615.404-1.858-.303-.228-.749.479-.976.731-.428.488-.513.53-.975 1.135-.017.025-.151.059-.16.084-.21.48-.748 1.093-1.051 1.539-.353.521-.899 1.261-1.295 2.026-.21.404-.395.807-.563 1.135-.219.412-.462.782-.563 1.051-.118.303-.143.707-.244 1.051-.101.354-.286.707-.32.976-.084.613.051 1.227-.159 1.538-.244.362-2.018.749-2.43.404-.547-.462.176-2.783.403-3.565.067-.219.118-.404.16-.572.244-.874.74-1.673 1.135-2.514.235-.496.462-1.034.647-1.539.211-.555.303-.689.648-1.21.16-.236 1.211-1.783.891-2.102-.134-.143-.319-.11-.647.16-.11.092-.345.479-.404.563-.118.185-.176.403-.319.647-.042.067-.068.177-.16.32-.017.033-.151.058-.16.084a8.034 8.034 0 0 1-.731 1.295c-.068.092-.185.16-.244.243-.152.227-.32.623-.488.892-.252.42-.53.74-.731 1.135-.152.302-.244.63-.404 1.05a11.31 11.31 0 0 0-.488 1.783c-.092.522-.109 1.051-.244 1.623-.193.833-.958 2.514-1.698 3.078-.067.05-.252.084-.404.16-.378.201-.924.546-1.538.563-.614.017-1.446-.27-1.783-.564-.286-.26-.723-1.202-.807-1.866-.118-.9.252-2.775-.572-2.994-.311-.084-.546.219-.807.32-.261.11-.589.269-.891.244-.278-.026-.488-.27-.732-.488-.471-.42-.605-.723-.731-1.623-.051-.345-.118-.706-.084-1.05.05-.421.353-.833.563-1.38.093-.218.16-.479.244-.731.303-.892.815-2.573.731-3.885-.042-.698-.294-1.488-1.135-1.623-.941-.142-1.673.53-2.186 1.295-.101.152-.193.37-.319.564-.126.193-.227.294-.404.487-.134.143-.631.841-1.051.648-.454-.21.008-1.556.244-1.942.109-.177.345-.329.563-.564.16-.168.294-.412.488-.563.143-.118.361-.194.563-.32.337-.227.648-.496 1.051-.731.95-.547 2.001.143 2.674.807.219.218.479.395.563.647.337.95.429 2.161.32 3.246-.126 1.32-.942 2.615-.732 3.969.429.142.421-.27.564-.488.092-.135.185-.126.244-.244.058-.126.016-.277.084-.403.218-.446.487-.883.731-1.295.521-.883 1.11-2.422 2.674-2.102.572.117.782.588.731 1.538-.042.698-.378 1.413-.647 2.102-.286.74-.471 2.077-.404 3.162.076 1.168.421 2.11 1.22.731.412-.714.748-1.976 1.135-2.917.529-1.278 1.253-2.514 1.866-3.481.311-.496.707-1.043 1.135-1.623.824-1.118 1.253-2.094 2.187-3.162.605-.69 1.16-1.404 2.102-1.538.983-.143 1.412.37 1.858.891.277.32.488.824.975.891.606.084 1.068-.445 1.615-.563.269-.059 1.034-.126 1.379 0 .336.118.588.53.731.807a3.3 3.3 0 0 1 .244.563c.05.177.034.505.16.564.294.143.714-.236.891-.32.698-.37.933-.555 1.782-.244.513.185.69.32.892.808.101.252.21.597.159 1.135-.016.201-.529 1.64-.243 1.858.42.328 1.833-.959 2.026-1.051.673-.328 1.69-.488 2.758-.648 1.597-.235 3.355-.26 4.776.085.471.109.958.26 1.286.563z" fill="#DD4A29"/><path fill-rule="evenodd" clip-rule="evenodd" d="M189.748 31.234c.454.084.529-.21.983-.127.606.749 1.127 1.581 1.354 2.708.16.21.488.244.614.496.059.387-.269.48 0 .74-.034.404.387.353.496.614-.042.656.345.891.488 1.354.412.37.824.731 1.353.983.219.723.85 1.034 1.228 1.598-.168.269.034.597 0 .857-.059.404-.219.589-.37.984-.034.563.446.622.614.984-.059.589.26.807.487 1.11.051.294-.227.269-.126.614.337.849.942 1.437 1.48 2.093.101.345-.176.32-.126.614.185.227.513.311.614.614-.21 1.009.496 1.261.244 1.967-.059.278.286.396.37.614.101.27.025.555.126.858.075.235.16.429.244.74.168.622.235.992.126 1.967-.076.673-.101 1.32-.37 1.842-.025 1.79.311 3.767-.244 5.532.395 1.404-.622 2.354-.126 3.691-.059.522-.58.564-.74.984-.093.463.151.589.126.984-.227.47-.563.832-.74 1.354-.034.445.017.798.126 1.11-.26.15-.479.336-.74.487.118.976-.597 1.127-.37 2.212-.277.454-.639.84-.983 1.227-.505 1.421-1.077 2.775-1.842 3.935v.858c-.63.395-.563 1.488-1.227 1.841-.068 1.085-.639 1.657-1.228 2.212.059.672-.395.832-.37 1.48-.277.176-.504.395-.74.613-.269 1.169-1.194 1.673-1.471 2.834-.85.874-1.674 1.766-2.212 2.951-.639.547-1.269 1.11-1.967 1.598-.135.235-.16.58-.244.857-.933.379-1.648.976-2.211 1.724.252 1.32-.833 1.295-.984 2.211-.572-.084-.79.194-1.228.244-.672.757-1.496 1.37-2.337 1.968h-.858c-.277.168-.395.504-.614.74-.521.05-.807.344-1.11.613-.882.06-1.437.446-1.967.858-.748.076-1.345.294-1.841.614-.387.059-.48-.269-.74 0-.522.017-.589.479-1.11.487-.21.16-.244.488-.496.614-.9.278-1.791.976-2.825.74-.555.067-.539.698-.984.858-.891.008-1.682.126-2.094.614-.143-.101-.328-.16-.614-.127-.471.059-.471.589-.857.74-.614.202-1.421.219-2.094.37-.656.211-1 .723-1.841.74-.421.236-.749.564-1.11.858-.622-.143-1.118.269-1.48 0a12.29 12.29 0 0 1-2.951 1.11c-.353.218-.69.462-.984.74-1.194.159-2.119.588-3.077.983-.387.017-.412-.327-.858-.243-1.034.302-1.993.529-3.195.37-.479-.068-.505.311-.858.37-.462.092-.588-.152-.984-.127-.479.219-1.084.312-1.479.614-.875-.16-1.161.269-2.094 0-.463-.05-.437.387-.74.496-.841-.092-1.101-.042-1.968 0-.462.126-.395-.26-.613-.37-.404.084-.412.572-.858.614-1.169-.37-2.136.252-2.951.614-.934-.311-1.968.235-2.708-.244-.538-.084-.546.353-.983.37-.934-.286-1.8.042-2.708.244-.563.126-1.026.05-1.724.126-.731.084-1.488.269-2.463.37-.883.092-1.732-.034-2.708 0-.428.017-.538.202-.857.244-.202.025-.395-.135-.614-.126-.521.017-1.194.311-1.724.487-.748.118-1.303-.126-1.841-.126-.597 0-1.152.295-1.85.126-.555.227-1.27.286-1.724.614-.832-.067-1.95.143-2.581-.126-.975.547-2.396.639-3.447 1.11-1.631.042-3.372.034-5.289 0-.219 0-.26-.135-.488-.126-.067 0-.285.143-.496.126-.622-.059-1.244-.37-1.841-.37-.244 0-.496.135-.74.126-1.026-.05-2.026-.479-2.951 0-.959-.336-2.582-.042-3.565-.614-.875.353-1.817.051-2.826.37-.52-.252-1.177-.361-1.723-.244-.698.152-.925.757-1.354.984-1.194-.462-2.884-.302-4.061-.244-1.43-.689-3.49-.538-5.289-.857-.294-.051-.572-.219-.858-.244-.849-.084-1.64.025-2.21-.37-.211-.328-.287-.782-.488-1.11-.539-.05-.32.664-.74.74-.724.067-.993-.32-1.724-.244-.505-.277-.975-.588-1.48-.858-.429-.1-.47.185-.858.127-.496.05-.378-.522-.74-.614-.454.042-.496.487-1.11.37-.613.117-.487-.496-.857-.614-.975.109-1.614-.109-2.094-.488-.555.185-1.042.438-1.597.614-.572-.168-.799-.673-1.354-.858-.395-.109-.773-1.059-1.597-.487-.286.202-.337.891-.984.857-.513-.025-.63-.437-.74-.857-.875-.11-1.303-.664-1.842-1.11-.563-.093-1.294-.538-1.841-.244-.505-.151-.706-.605-1.48-.488-.605-.706-1.732-.891-2.463-1.471-.396-.067-.572.084-.858.126-.454.051-.32-.496-.858-.37-.286-.21-.395-.588-.614-.858-.849.076-1.345-.21-1.85-.487-.571.319-.958.067-1.47.37-.43.017-.387-.429-.614-.614-.387.017-.42-.32-.488-.614-.311-.101-.488-.336-.858-.37-.033-.462-.286-.698-.487-.984-.614-.042-1.01-.302-1.724-.243-.572-.169-.732-.749-1.598-.614-.084-.328-.353-.471-.487-.74-1.144-.252-1.522-1.27-2.464-1.724-.437-.235-.706 0-1.228 0-.655 0-.698-.614-1.227-.74-3.33.009-5.415-1.227-6.769-3.195-.294 0-.361.21-.74.126-.395-.798-1.219-1.16-1.471-2.093-.286-.295-.757-.395-1.11-.614-.303-.723-1-1.051-1.354-1.724-.42-.597-.967-1.084-1.354-1.724-.277-.134-.613-.201-.857-.37-.328-.697-1.22-.832-1.354-1.723-.765-.135-.79-1.017-1.597-1.11-.101-.227-.202-.454-.244-.74-.816-.42-1.303-1.16-2.094-1.597-.118-.539-.597-.715-.74-1.228-1.606-1.018-2.564-2.682-3.691-4.179.328-1-.446-1.37-.614-2.211-.05-.42.05-.69.126-.984-.655-1.228-1.437-2.33-2.093-3.565-.034-.824-.37-1.354-.74-1.85.126-.782-.27-1.043-.244-1.724-.135-.353-.395-.588-.614-.857.017-1.043-.656-1.396-.614-2.464-.151-.387-.294-.765-.487-1.11.042-1.496-.782-3.178 0-4.305-.042-.53.059-.967 0-1.471-.034-.311-.21-.572-.244-.858-.093-.849.084-1.681-.244-2.463.177-.808.37-1.598.37-2.582.69-.832.715-2.32 1.354-3.195-.093-.546.168-.74.126-1.227.48-.631.874-1.85.74-2.708.395-.134.462-.605.74-.858.302-1.538.95-2.74 1.723-3.817v-.857c1.59-1.405 2.102-3.885 3.935-5.045.101-.311.337-.48.37-.858 1.034-.647 1.447-1.917 2.464-2.581.076-.379.26-.64.37-.984 1.043-.521 1.74-1.488 2.581-2.211.79-.69 1.909-1.152 2.464-2.212.925-.546 1.656-1.295 2.337-2.093.438-.06.673-.311.984-.497.63-.554 1.076-1.303 2.094-1.48 1.143-1.067 2.278-2.143 3.817-2.825.294-.235.488-.58.74-.857 1.345-.496 2.144-1.547 3.447-2.094.538-.378.74-.925 1.48-1.227.16-.068.48-.05.614-.127.488-.26.765-.815 1.227-.983.387.059.438-.219.858-.126.505-.396 1.21-.597 1.598-1.11 1.53-.185 2.64-1.236 3.935-1.842 2.043-.252 3.035-1.555 4.918-1.967.875-.64 2.203-.833 3.196-1.354h1.227c.454-.202.824-.488 1.228-.74 1.076-.16 2.051-.412 2.707-.984.463.093.589-.15.984-.126.58-.386 1.303-.521 1.968-.74.689-.218 1.336-.563 2.093-.613.303-.488.891-.345 1.48-.614.126-.059.21-.185.37-.244.673-.244 1.379-.404 1.968-.74 1.093.067 1.723-.328 2.463-.614.379.076 1.06-.16 1.228.126.95-.454 2.262-.126 3.447-.126.715-.227 1.379-.622 2.581-.614.597 0 1.136.185 1.85 0 .227-.058.412-.218.614-.243.773-.101 1.698-.042 2.455 0 .286.016.572.143.866.126.463-.034.917-.311 1.354-.37.891-.11 1.79-.017 2.464.244.773-.328 2.068-.143 2.707-.614.706-.025 1.387.033 1.968 0 .395-.025.748-.21 1.11-.244.167-.017.47.126.613.126.765-.008 1.8-.269 2.581-.496.076-.025.169.017.244 0 .681-.11.698.454 1.228.496 1.564.009 3.422-.126 5.045.126.344-.11.605-.294.984-.37 1.816.194 3.497-.386 5.044.37 1.119-.429 3.288-.31 4.432 0 .462.05.58-.244.857-.37.58.05 1.026-.042 1.472-.126.277.219.689.294.983.488 1.127.067 2.271-.093 3.322 0 .26.025.496.202.74.244.294.05.664-.042.983 0 .278.033.505.227.74.244.69.067 1.421.05 2.094 0 .681-.05 1.429-.295 2.094.126 1.925-.042 3.741.126 5.902.243.328.085.622.194.858.37.773-.31 1.597.42 2.463 0 .749.438 1.867.513 2.952.614.336.194.571.496.983.614.362.168.538-.076 1.11 0 .53.084.757.48 1.228.614.378-.076 1.059.16 1.227-.126.387.185.673.479 1.11.614.379.092.446-.127.74-.127.152.244.454.261.74.37.269.101.488.286.74.37.193.068.53-.05.74 0 .319.084.563.395 1.11.496.378.068.799-.05 1.227 0 .522.06.976.32 1.724.127.58.37 1.354.53 1.842.983.647-.252 1 .126 1.479.37 1.085-.1 1.674.303 2.708.244.37.37.824.647 1.227.984.589.1 1.161.235 1.724.37.538.126 1.11.168 1.598.37.311.126.622.563.983.74.631.31 1.32.353 1.724.983 1.118.034 1.572.723 2.708.74.344.396.84.631 1.109 1.11.951-.05 1.236.564 1.842.858.403.008.614.21 1.11.126.529.58 1.437.774 1.967 1.354.833.059 1.329.731 1.968 1.11.63.37 1.513.479 1.841 1.227 1.472.126 1.741 1.463 3.195 1.598.076.252.261.395.37.613.69.043.849.623 1.598.614.21.404.647.58.857.984.345.067.639.177.984.244 0 .37.32.42.37.74.875.252 1.438.925 2.094 1.48.033.033.092.227.126.243.218.101.849.27.857.74.455.043.682.303 1.11.37.227.303.387.681.614.984.429.143.824.328 1.228.496.185.513.538.858 1.11.984a18.02 18.02 0 0 0 2.707 2.951c.067.522.555.723.774 1.203zM65.634 107.252c.395.21.64.446 1.11.614.648.235 1.404.269 2.212.37.328.202.361.706.857.74 1.59.134 2.371 1.076 4.18.984.672.277.974.605 1.597.739.857.185 2.261.034 3.32.127 1.683.134 3.381.168 5.046.243 4.17.194 8.879.724 12.789.488 6.222-.361 12.427-.79 18.447-1.11 2.893-.151 5.701-.664 8.484-.984 4.389-.504 8.795-.941 12.789-1.597 2.724-.446 5.272-1.228 7.752-1.842 1.766-.437 3.464-1 5.415-1.109.975-.631 2.161-.816 3.321-1.11 1.211-.303 2.447-.538 3.692-.858 1.135-.294 2.572-.723 3.565-.984.378-.101.832-.134 1.227-.243.74-.211 1.463-.623 2.212-.858.782-.252 1.555-.437 2.337-.74.765-.294 1.53-.63 2.338-.74.437-.412 1.126-.782 1.479-.984.404-.235.665-.429.984-.614.446-.26.917-.47 1.354-.74.21-.126.395-.235.614-.37.227-.134.496-.226.74-.37.815-.479 1.614-1.1 2.463-1.597.437-.26.908-.47 1.354-.74.294-.176.95-.462 1.11-.614.403-.386.984-.9 1.353-1.227.169-.152.337-.227.488-.37.135-.126.101-.362.244-.488.16-.134.362-.126.496-.244 1.362-1.278 2.472-2.69 3.935-3.817.168-.462.252-1.043.496-1.48.101-.176.37-.32.488-.487.084-.11.05-.27.126-.37.227-.303.429-.564.614-.858.328-.53.572-.85.857-1.228.48-.622.841-1.244 1.228-1.841.261-.404.462-.832.74-1.228.269-.386.664-.714.984-1.11.075-.092.059-.277.126-.37.151-.193.37-.361.488-.487a7.269 7.269 0 0 0 1.109-1.598c.454-.866.766-1.858 1.228-2.833.311-.648.774-1.421.984-1.968.117-.311.134-.555.244-.858.168-.47.336-.983.496-1.47.639-2.036 1.463-3.801 1.597-6.03.202-3.186-.067-7.693-.126-10.821-.53-1.034-.715-2.119-.984-3.195-.201-.807-.513-1.471-.74-2.211-.126-.42-.126-.841-.243-1.228-.017-.042-.219-.185-.244-.244-.093-.235-.126-.488-.244-.74-.109-.244-.236-.47-.37-.74-.9-1.816-1.69-3.607-2.581-5.415-.858-1.732-2.06-3.253-3.195-4.8-.572-.774-1.152-1.581-1.724-2.338-.589-.782-1.278-1.472-1.724-2.338-.437-.142-.748-.479-1.11-.74-.361-.26-.756-.487-1.11-.74-.058-.041-.058-.201-.126-.243-.101-.076-.277-.06-.37-.126-.319-.227-.605-.454-.857-.614-.076-.042-.168-.194-.244-.244-3.187-2.211-6.374-4.473-9.468-6.642-.479-.337-.95-.749-1.353-.984-.387-.219-.656-.328-.984-.488-.917-.462-2.027-.95-2.952-1.228-.042-.016-.185-.218-.243-.243-1.194-.488-2.329-.934-3.322-1.354-1.412-.597-2.682-1.135-4.061-1.724-3.708-1.589-7.903-3.052-11.687-4.43-.387-.144-.791-.438-.984-.497-.151-.042-.345.05-.496 0-.227-.084-.387-.311-.614-.37-1.059-.277-2.32-.32-3.447-.496-2.901-.446-6.088-.79-8.61-1.354-.303-.067-.555-.025-.858-.126-.244-.076-.462-.311-.74-.37-.311-.067-.723-.075-1.11-.126-1.109-.143-2.614-.143-3.447-.126-.21.008-.437-.118-.614-.126-.513-.017-.992.042-1.48 0-.63-.059-1.202-.286-1.849-.37-1.447-.194-3.414-.362-4.431-.244-.202.025-.438-.126-.497-.126-.361 0-.647.143-.983.126-.765-.034-1.573-.185-2.338-.244-.866-.067-1.757-.017-2.581-.126-.967-.118-1.833-.63-2.951-.74-.227-.025-.269.126-.496.126-.236 0-.27-.126-.488-.126-1.051.017-2.153.126-3.195.126-1.287 0-2.615-.109-3.935-.126-.387 0-.715.126-1.11.126-.395 0-.715-.126-1.11-.126-.547 0-1 .177-1.48.126-1.539-.168-3.725-.075-5.415 0-1.37.06-2.69.395-4.06.488-2.851.202-5.752-.05-8.61.37-.413.361-.993.546-1.599.74-.605.193-1.328.429-1.967.496-.345.034-.656-.05-.984 0-.353.05-.63.235-.983.244-.892.033-1.716-.244-2.582-.126-1.017.143-1.623.706-2.463.983-.547.185-1.11.169-1.598.37-.748.303-1.328.992-2.094 1.11-.016.547.43.64.37 1.228-.168.698-.454 1.27-.74 1.841-.058 1.547.312 2.514 0 3.817.143.312.488.412.488.858-.176.513-.614 1.303-.244 1.968-.378.193-.143 1.009-.613 1.11-.026.513.605.378.487.983.025.513-.605.379-.488.984.076.908.379 1.59.614 2.337-.235.564-.656.698-.74 1.354-.059.488.118.866.244 1.354.118.454.143.917.37 1.228-.63.117-1.085.462-.74 1.227.917.337.824-.832 1.48-.37-.336.42-.076 1.06-.126 1.598-.025.336-.336.605-.126.857-.244.446-.538.766-.614 1.354-.025.219.118.563.126.858.009.345 0 .639-.126.983-1.076.732-2.455.127-3.077-.613-.084-.463.344-.723-.244-.74-.37-.278-1.051-.05-1.48 0-.723-.673-2.682-.101-3.447-.74-1.253.672-3.036.824-5.045.74-.606-.068-1.17-.866-1.598-.37-.059.387.11.546.488.487.176.194.26.48.37.74.303.068.437.303.614.488.033.42.546.286.554.64.656.159.631-.354 1.228-.245.9.412 1 1.623 1.11 2.834.824.773 1.421 1.782 2.094 2.707.84.068 1.48.328 1.723.984-.428.748-.84 1.925-.496 3.077.437.53 1.345.782 1.48 1.598.101.639-.252.883-.37 1.598.235.294.69.378.74.857.16.732.614 1.48.614 2.338 0 .513-.26.908-.244 1.48-.118.378-.597.386-.614.857.059.353.437.387.37.858-.025.47-.521.47-.496.983.58.362 1.169.724 1.228 1.598.21.362-.58.959-.127 1.598.362-.034.379.277.74.243.597.143.328-.571.74-.613.665.571 1.547.908 2.338 1.353.227 1.085 1.538 1.43 1.597 2.464.034.597-.37.757-.487 1.354-.06.31.143.521-.126.857-.127.572.496.412.37.984-.06.303-.227.387-.244.74-.025.387.26.933.244 1.354-.009.294-.009.656-.244.857-.067.438.437.303.37.74.185 2.893.016 5.802.243 8.24-.243.379-.277.95-.243 1.598-.017.437-.454.445-.37.984.454.588.26 1.471.37 2.337.05.429.26.757.243 1.11-.025.496-.26.959-.37 1.354.169.538.101.824-.126 1.227.11.219.454.202.496.488-.227.311-.798.27-.74.858.202.58.766.79.74 1.597-.033.58-.47.757-.495 1.354.092.404.546.437.613.858.135.462-.303.353-.244.74.261.1.438.302.37.74-.176.31-.16.823-.37 1.11-.437.529-1.11.075-1.353.74-.438.478.437.378.37.857-.076.252-.261.395-.37.614.412.328.218 1.252.487 1.723-.05.395-.235.665-.244 1.11.127.572-.496.412-.37.984.328.698.825 1.228 1.11 1.967-.227.656-.285 1.085.127 1.598-.673.807-.572 2.598.126 3.321.016.379-.387.353-.244.858.277.303.858.303 1.101.622zm-7.87-95.206c-.033-.034-.185.059-.126.126.034.034.185-.059.126-.126zm2.582 3.204c-.127-.362-.623-.362-.496-.984-.564.017-.85.294-1.11.614.016.765.201 1.353.126 2.211.252.16.227.597.74.488.37-.648.597-1.447.74-2.33zm-24.233 5.776c.597-.059 1.774.69 1.968-.126-.253-.336-1.892-.47-1.968.126zm13.529.984c-.034-.034-.185.059-.126.126.042.034.193-.059.126-.126zm-1.472 1.11c.295.235.993.075 1.48.126.026-.353.017-.673-.37-.614.034.832-1.067-.1-1.11.488zm-6.642 10.577c-1.017.093-2.136-.193-2.581.244-.295-.286-1.262-.437-1.228.244.42.21.723-.093 1.354 0 1.06.294 1.597 1.11 2.337 1.724.522.025.278-.707.984-.496.404.126.437.63.614.983.378.337.723-.008.984.496.269.261-.06.353 0 .74.21.362.286.858.244 1.48.344.563.983.824 1.227 1.48.681.143.959.681 1.354 1.11.017.303-.194.378-.244.614.521.294 1.16.479 1.48.983.008.404.21.614.126 1.11.63.564 1.278 1.102 1.227 2.338.253.235.682.303.984.487.278.959 1.211 1.253 1.472 2.212.075.605-.278.79-.37 1.227.017.438.353.547.37.984-.126.286-.48.345-.614.614.336.277.622.605.858.984.285 1.513-1.354 1.11-1.354 2.337.715-.32 2.312-.445 2.581.37-.05 1.303-.95 1.749-1.597 2.464-.026-.185-.295-.11-.488-.126-.05.74.874.52.984 1.11.092.378-.127.445-.127.74.295.075.564.176.984.126.286.168.412.496.984.37-.193-.993-.235-2.111.858-2.338.731.168.95.85 1.723.984.06-.589-.748-.311-.613-.984.504.1.63-.185 1.11-.126.117-.69-.463-.681-.858-.858.328-2.077-1.295-3.775-.74-5.785-.084-.243-.69.034-.74-.243-.193-.908-.622-1.598-.74-2.582-.034-.361.277-.378.244-.74-.227-.672.11-1.311 0-1.841-.135-.63-.488-.891-.74-1.354-.193-.353-.294-.748-.496-1.11 0-.328-.042-.706.126-.857-.42.05-.69-.05-.984-.126-.395-1.16-1.303-1.817-1.597-3.078-.463-.353-.807-.84-1.11-1.353.176-.152.235-.42.244-.74-.278-.135-.614-.202-.858-.37.11-.724-.698-.53-.858-.984-.134-.446-.386-.765-.613-1.11-1.203-.311-2.136-.9-3.818-.74-.21-.235-.277-.622-.496-.858-.496-.143-1.034.194-1.589.244zm-15.135.74c-.47.471-1.396.488-1.471 1.354.572.042.68-.378 1.11-.496.302-.27.942-.202.983-.74-.294.042-.479-.017-.622-.118zM16.06 36.28c-.093-.026-.244 0-.244-.127-.816.169-1.825.143-2.094.867.168.277.454.453.858.487.218.194.252.563.614.614.201.042.857.151 1.48.126.252.093.487.387.74.126-.194-.95-1.22-1.068-1.354-2.093zm4.8 22.508h.127c.202-.201.151-.773-.244-.74-.092.379.118.454.118.74-.404-.277-1.48-.403-1.598.244-.059.547.715.27.858.614.059.395.47.437.488.858-.707.193-1.741.26-2.338.613-.244.143-.622.177-.37.488.16.521.614-.008 1.11.126.723.177 1.757-.32 1.967.126-.252.79-1.9.353-2.463.496-.404.866.05 1.909-.37 2.825.336.076.58.244.74.488.487.034.378-.521.857-.488.152.295.967-.067 1.11.244-.487.538-1.387.665-1.85 1.228.017.504-.21.773-.126 1.354.261.353.589.647.74 1.11.05.462-.597.597-.244.983.471.757 2.12.345 2.338 1.354 0 .53-.286.782-.244 1.354.328.244.799.353.614 1.11.185.143.504.151.614.37v.983c.302.328.387.757.614 1.11.193.303.664.496.613.984.303.227.698.37.858.74.681 1.244 1.724 2.127 2.581 3.195.42.034.707.193 1.228.126 1.034.891 2.943.908 4.549 1.228.344.109.294.613.74.613.664-.386 1.799-.277 2.21.244-.176.395-.672-.092-.613.37.353.606 1.102.454 1.85.37.698-.075 1.194-.1 1.724.126.445-.252.74-.647.857-1.227.37-.286.21-1.102.74-1.228.555.017.597.547 1.228.496.622-.656.824-1.715 1.48-2.337-.034-.42.092-1-.127-1.228-.672-.353-2.11.06-2.093-.984.303-.639.84-1.042 1.597-1.227-.243-.463-.42-.774-.487-1.354-.042-.387.26-.925 0-1.354.269-.546.613-1.025 1.11-1.353.227-1.043 1.042-1.505 1.227-2.582-.16-.294-.538-.361-.487-.857.084-1.026.31-1.9.857-2.464.009-.723.177-1.303.37-1.841v-1.228c.412-.572.177-1.8.37-2.581-.017-.395-.277-.538-.244-.984.294-.773.294-1.841.488-2.707-.353-.63-.563-1.404-.488-2.464-.538-.118-.95-.361-1.11-.858-.092-.378.21-.361.127-.74-.16-.327-.328-.655-.497-.983-.008-1.875-.605-3.17-1.227-4.431 0-.286.21-.362.126-.74-.395-.8-.58-1.8-1.11-2.464-.504-1.665-1.497-2.85-2.464-4.061v-.37c-.235-.219-.571-.336-.74-.614-.142-.143-.142-.437-.126-.74-.185-.143-.504-.151-.613-.37.042-.285-.017-.47-.127-.613-.588-.05-.89.176-1.353.243-.37-.117-.547-.437-1.11-.37-.656.169-.757.883-1.471.984-.555.017-1.152-.513-1.48 0 .126.37.874.11 1.11.37-.143.681-.53 1.11-.984 1.48-.942-.16-1.287.269-1.968.37-.26.723-.664 1.303-1.227 1.724.176.63-.16.69-.37.983-.16.227-.21.79-.614.858-.454.084-.53-.21-.984-.126-.294.311.311.412.244.857-.286.21-.294.69-.37 1.11-.219.311-.757.311-.858.74-.672 1.547.261 4.272-1.723 4.675v1.228c-.21.773-1.16.807-.984 1.967.269.261 1 .068.984.614-.202.866-1.11 1.026-1.11 2.094.252.277.63.437.74.857-.168.328-.042.942-.37 1.11-1.026.42-1.833-.437-2.825-.126-.118-.143-.118-.429-.101-.74zm-2.463-18.203c-.445.109-.656-.22-.857 0 .067.546.37.857.243 1.597.715.05 1.261-.059 1.598-.37-.194-.53-.807-.656-.984-1.227zm.984 1.723c-.05.463.1.723.496.74.488-.134.723-.504.74-1.11-.488.042-.799.27-1.236.37zm1.724 1.85c.563.084.958-.429.613-.858-.412.05-.824.555-.613.858zm-4.55 13.773c0-.068-.1-.143-.125 0 0 .067.1.143.126 0zm1.228.126c.253-.076.858.202.74-.244h-.74v.244zm43.546 4.179c.093-.631.395-2.195-.126-2.582-.378-.285-.58.026-1.11.244.093.622.286 1.438-.244 1.724-.025.513.606.378.497.984-.21.487-.589.807-.984 1.11 0 .411.403.42.37.857-.093.446-.614.597-.126.984.479-.05.597-.471 1.11-.488.227-.387.395-.832.496-1.353.143-.186.512-.144.487-.497.16-.613-.378-.52-.37-.983zm-7.626.496c-.832-.547-1.976.084-2.834-.126-.235.05-.31.269-.613.243-.42-.176-1.06-.05-1.11.496.37.085.757.152.858.488-.22.11-.471.278-.244.488.336.252 1.093.092 1.227-.244-.185-.143-.504-.151-.614-.37.471-.378.825.177 1.228.244.69-.194 1.808.017 2.581.126.387-.269 1.018-.294 1.598-.37.143.311.622.286.74.614-.37.303-.547.16-1.11.126-.429.664-1.379.076-1.598.858.782.731 2.49.513 3.196-.127.142-.63-.253-.731-.37-1.11.084-.36.37-.537.243-1.11-.84-.285-2.22-.764-3.178-.226zm-.74 2.699c-.033-.034-.185.059-.126.126.042.034.193-.059.126-.126zm-2.085.252v.244c.076.008.143.017.126.126h.244c.008-.076.017-.143.126-.126v-.244c-.076-.008-.143-.017-.126-.126h-.244c-.017.076-.025.143-.126.126zm.858.858c-.64-.387-1.623-.43-2.464-.614-.42.168-.647.715-.37 1.227.614.354 1.37-.058 1.968 0 .622.06.975.311 1.48.488.403-.168.983-.168 1.48-.244.193.177.571.168.74.37.193.177.243.496.74.37.31-.639-.295-1.311-.74-1.597-.867.26-1.741-.127-2.834 0zm7.87.37c-.06.513.31.588.74.613.067-.185.185-.31.243-.487-.235-.143-.69-.404-.983-.126zm-7.997.857h-.857c-.143.53 1 .53.857 0zm7.997.496c.042 1.026-1.287.681-1.724 1.228.454.622-.521.942-.244 1.354h.614c.311-.8 1.051-1.16 1.597-1.724.312.193.413.496.858.244.244-.303.151-1.06-.126-1.228-.446-.084-.513.21-.975.126zm-7.383.858c-.21.118-.244.412-.487.488-.404 0-.538.033-.74.126-.328.151-.875.244-.984.496.42.118.723.345 1.354.244.336.437 1.185.37 1.841.496.042-.774-1.051-.42-.984-1.228.37-.454.992.21 1.842 0 .16.294.092.816.614.74.134-.37-.034-.79.126-1.354-1.119-.227-1.556.219-2.582-.008zm-2.329.984c-.244 0-.16-.337-.496-.244-.126.311.412.546.496.244zm10.082.866c.059-.387-.261-.395-.614-.37-.059.387.26.395.614.37zm-11.932 5.045c-.563-.127-1.252-.143-1.597-.496-.471.639 1.387 1.328 1.597.496zm101.731 31.236c-.378-.008-.807-.067-.74.37.37.008.622-.109.74-.37.32.034.53-.042.488-.37-.303-.017-.387.194-.488.37zm-1.48.37c-.033-.034-.185.059-.126.126.042.034.193-.059.126-.126z" fill="#383F48"/><path fill-rule="evenodd" clip-rule="evenodd" d="M25.41 62.605v.983c.277.538.538 1.102.74 1.724.16.412.697.454.983.74.093.336-.244.244-.244.488.37.454.749.89.984 1.471.404.538.942.95 1.11 1.724.168.361.597.462.614.984.336.117.521.378.857.496-.016.302.194.378.244.613.648.589 1.16 1.304 1.842 1.842 1.168-.219 2.253-.067 3.077.37.555.059 1.01.218.984.857-.244.21-1 .177-1.11-.126-.731.278-1.446-.075-2.211.244.142.597.773.698.983 1.228.227.017.412.084.497.244h.613c.311.016.43.227.614.37.572-.286 1.514-.202 2.211-.37.219.395.766.47 1.11.74.084.588.185 1.042 0 1.597-.807.757-2.228 1.102-4.179.984-1.034-.06-1.984-.202-2.707-.614-.32-.664-.412-1.556-1.598-1.354-.344.017-.31-.344-.487-.487-.362.033-.379-.278-.74-.244 0-.37-.32-.42-.37-.74-2.01-1.068-2.876-3.28-4.549-4.675-.076-.488.328-.496.244-.984 0-.37-.58-.16-.74-.37.034-.597-.336-1.143.126-1.48.135-.462-.303-.353-.244-.74-.059-.555.438-.546.496-.983-.361-.505.101-1.077-.496-1.354-.496-.042-.193.715-.74.614-.218-.261-.277-.362-.126-.74.101-.27.58-.16.614-.488-.025-.546-.706-.437-.984-.74-.025-.68.236-1.076.37-1.597.009-.496-.748-.034-.74-.244-.386-.27-1.009-.311-1.11-.858.303-.235.648-.496 1.11-.244.564-.134.858-.479 1.48-.243.27.68.622 1.27 1.472 1.362z" fill="#383F48"/></svg>