<svg xmlns="http://www.w3.org/2000/svg" width="24" height="20" viewBox="0 0 24 20"><path fill="#FFF" fill-rule="evenodd" d="M21.557 5.496c0 6.506-4.952 14.008-14.008 14.008-2.78 0-5.369-.814-7.549-2.211.386.045.777.068 1.175.068 2.307 0 4.43-.787 6.115-2.108a4.927 4.927 0 0 1-4.599-3.42c.3.059.608.09.926.09.448 0 .884-.061 1.297-.173A4.926 4.926 0 0 1 .965 6.922V6.86a4.92 4.92 0 0 0 2.23.616 4.922 4.922 0 0 1-2.19-4.098A4.9 4.9 0 0 1 1.67.902a13.98 13.98 0 0 0 10.15 5.145 4.982 4.982 0 0 1-.127-1.123 4.924 4.924 0 0 1 8.518-3.368A9.861 9.861 0 0 0 23.337.36a4.934 4.934 0 0 1-2.165 2.723A9.81 9.81 0 0 0 24 2.31a10.012 10.012 0 0 1-2.456 2.549c.008.211.013.424.013.638z"/></svg>