<svg xmlns="http://www.w3.org/2000/svg" width="24" height="20" viewBox="0 0 24 20">
  <path fill="#FFFFFF" fill-rule="evenodd" d="M96.5574671,79.495699 C96.5574671,86.0024873 91.6052441,93.5041973 82.5489688,93.5041973 C79.7681625,93.5041973 77.1801223,92.6896051 75,91.2929837 C75.3855322,91.3377552 75.7772826,91.3613846 76.1752513,91.3613846 C78.4822261,91.3613846 80.6051404,90.5741528 82.2902891,89.2533941 C80.1350399,89.2135973 78.3168204,87.7896155 77.6912633,85.8333506 C77.9909835,85.8918023 78.2994093,85.9228936 78.6165406,85.9228936 C79.065499,85.9228936 79.5007773,85.8619546 79.9136698,85.7500259 C77.6614157,85.2973365 75.9650741,83.307493 75.9650741,80.9221681 L75.9650741,80.8599855 C76.6291844,81.2281065 77.3878122,81.4494766 78.1949425,81.4755933 C76.8741839,80.5926003 76.004871,79.0852938 76.004871,77.3777594 C76.004871,76.4748679 76.2473831,75.6291844 76.6714685,74.9016478 C79.1003213,77.8801948 82.7280547,79.8414343 86.8196704,80.046637 C86.7363457,79.6859778 86.6928179,79.3103949 86.6928179,78.923619 C86.6928179,76.2049953 88.8965696,74 91.6164369,74 C93.0329568,74 94.3126749,74.5981967 95.2105918,75.5558089 C96.332366,75.3344388 97.3857395,74.9252772 98.3371334,74.3606591 C97.970256,75.5097938 97.1892424,76.4748679 96.1719349,77.0842574 C97.1681003,76.9661105 98.1170069,76.7012126 99,76.3094621 C98.3396207,77.296922 97.5051301,78.1637475 96.5437869,78.8577055 C96.5524925,79.0691263 96.5574671,79.2817909 96.5574671,79.495699 Z" transform="translate(-75 -74)"/>
</svg>
