<svg width="128" height="139" viewBox="0 0 128 139" fill="none" xmlns="http://www.w3.org/2000/svg"><path fill-rule="evenodd" clip-rule="evenodd" d="M57.594 123.665a1.313 1.313 0 0 0-1.34-.647c-.54.08-.968.487-1.088 1.014a9.071 9.071 0 0 0-.187 1.761c0 3.562 5.403 9.858 7.67 12.339a1.31 1.31 0 0 0 1.962 0c2.267-2.481 7.67-8.777 7.67-12.339 0-.607-.067-1.194-.2-1.761a1.31 1.31 0 0 0-1.074-1 1.294 1.294 0 0 0-1.32.64 45.342 45.342 0 0 1-5.09 7.063 1.307 1.307 0 0 1-1.92 0 43.895 43.895 0 0 1-5.083-7.07zm6.043 2.995c.127-.127 3.682-3.688 5.416-8.711a1.3 1.3 0 0 1 .847-.84c.4-.127.84-.053 1.174.193a14.123 14.123 0 0 0 4.115 2.041.523.523 0 0 0 .647-.347v-.006c.92-3.428.5-6.897-.947-9.852a.544.544 0 0 0-.374-.286h-.013a17.08 17.08 0 0 1-2.261-.721 22.27 22.27 0 0 1-1.307-.573l-.047-.02-.094-.047a.322.322 0 0 0-.046-.02l-.153-.08c-.087.233-.174.467-.274.7a22.179 22.179 0 0 1-2.301 4.182 24.476 24.476 0 0 1-1.18 1.568c-.334.4-.674.793-1.034 1.174-.047.046-.047.046-.087.093l-.014.013-1.133 1.134a1.328 1.328 0 0 1-.934.387c-.347 0-.687-.14-.934-.387l-1.134-1.134-.007-.006a16.68 16.68 0 0 1-.973-1.088 24.13 24.13 0 0 1-2.108-2.948 21.01 21.01 0 0 1-1.714-3.475.213.213 0 0 0-.12-.12.206.206 0 0 0-.167.007 17.834 17.834 0 0 1-3.382 1.267c-.38.1-.7.36-.867.721a14.104 14.104 0 0 0-.78 9.504v.013a.513.513 0 0 0 .64.347 14.246 14.246 0 0 0 4.116-2.047 1.29 1.29 0 0 1 1.18-.194c.4.127.714.44.847.847 1.734 5.023 5.29 8.584 5.416 8.711h-.013zm.013-35.924l-.02-.02-.02.02v-.02c-8.377.007-15.174 6.817-15.174 15.194v.007a.563.563 0 0 0 .174.387c.106.1.253.153.4.153a15.143 15.143 0 0 0 7.87-2.554c.36-.254.827-.307 1.234-.14.407.166.707.526.794.96.747 3.195 2.588 5.829 3.735 7.243a1.303 1.303 0 0 0 1.974 0c1.154-1.414 2.995-4.048 3.749-7.243a1.29 1.29 0 0 1 .787-.947c.407-.16.867-.107 1.227.14a15.244 15.244 0 0 0 7.877 2.548.516.516 0 0 0 .394-.154c.106-.1.166-.24.173-.386v-.007c0-8.377-6.803-15.18-15.174-15.194v.013zm.7-3.561a.72.72 0 0 0 .72-.72V77.13a.72.72 0 0 0-.72-.72h-1.433a.716.716 0 0 0-.714.72v9.324c0 .394.32.72.713.72h1.434zm43.861-51.185a1.32 1.32 0 0 1-1.234-.833c-.2-.507-.066-1.08.334-1.454.44-.387.914-.74 1.434-1.04 3.081-1.782 11.239-.248 14.52.473a1.302 1.302 0 0 1 .981 1.694c-1.014 3.201-3.769 11.032-6.85 12.813a7.97 7.97 0 0 1-1.628.707 1.3 1.3 0 1 1-1.507-1.894 44.664 44.664 0 0 0 3.568-7.938 1.32 1.32 0 0 0-.96-1.667 44.04 44.04 0 0 0-8.658-.86zm5.616 3.735c-.046.167-1.354 5.036-4.835 9.045a1.32 1.32 0 0 0-.307 1.154c.093.413.373.753.76.92a14.15 14.15 0 0 1 3.822 2.541c.1.094.16.227.16.36a.513.513 0 0 1-.14.374l-.007.007a14.025 14.025 0 0 1-9.004 4.102.53.53 0 0 1-.44-.18c0-.007-.007-.007-.007-.014a18.92 18.92 0 0 0-1.747-1.594 17.69 17.69 0 0 0-.814-.613l-.333-.234-.04-.027-.087-.053c-.014-.007-.027-.02-.04-.027a1.816 1.816 0 0 0-.147-.093c.16-.194.314-.387.467-.58a22.092 22.092 0 0 0 2.474-4.082c.281-.594.534-1.194.767-1.808.181-.487.354-.98.501-1.48.02-.06.02-.067.033-.12 0-.007 0-.014.007-.014.02-.08.227-.84.413-1.547.094-.34.047-.7-.133-1.007a1.299 1.299 0 0 0-.801-.614c-.72-.194-1.487-.4-1.554-.414h-.006a20.904 20.904 0 0 0-3.282-.553c-.58-.06-1.167-.094-1.754-.107a21.465 21.465 0 0 0-3.868.254h-.007a.2.2 0 0 1-.16-.047.204.204 0 0 1-.08-.147 18.123 18.123 0 0 0-.594-3.575 1.327 1.327 0 0 1 .187-1.107 14.105 14.105 0 0 1 7.844-5.43h.013a.51.51 0 0 1 .393.06.513.513 0 0 1 .234.32 14.29 14.29 0 0 1 .287 4.583 1.313 1.313 0 0 0 1.574 1.434c5.216-1.034 10.085.26 10.251.313 0-.006 0-.006 0 0zM82.726 57.701c-.02-.007-.027-.007-.027-.007s0-.007.007-.027l-.013.007c-4.182-7.257-1.688-16.548 5.569-20.743 0 0 .007 0 .007-.007a.557.557 0 0 1 .426-.047c.14.04.26.14.327.267a15.179 15.179 0 0 1 1.721 8.09 1.301 1.301 0 0 0 1.72 1.348c3.142-.954 6.344-.674 8.145-.387.373.074.7.3.887.627.193.327.227.727.1 1.087-.647 1.701-2.014 4.616-4.396 6.87a1.304 1.304 0 0 0 .307 2.154 15.219 15.219 0 0 1 6.143 5.55c.08.127.1.273.067.42a.558.558 0 0 1-.247.34s-.007 0-.007.007c-7.256 4.189-16.547 1.7-20.743-5.55h.007zm-2.735 2.388c.2.34.08.78-.26.98l-8.077 4.662a.72.72 0 0 1-.98-.26l-.72-1.24a.72.72 0 0 1 .26-.981l8.076-4.662c.34-.2.78-.08.98.26l.721 1.24zM13.02 90.957a1.32 1.32 0 0 0-.107-1.488c-.34-.427-.907-.6-1.42-.433a9.182 9.182 0 0 0-1.622.72c-3.081 1.78-5.836 9.611-6.85 12.813a1.3 1.3 0 0 0 .107 1.067 1.3 1.3 0 0 0 .874.627c3.281.72 11.432 2.254 14.52.473.52-.3 1-.66 1.42-1.053a1.303 1.303 0 0 0-.887-2.255 44.825 44.825 0 0 1-8.657-.88 1.293 1.293 0 0 1-.84-.627 1.32 1.32 0 0 1-.12-1.04 43.057 43.057 0 0 1 3.582-7.924zm.42 6.73c.166.046 5.035 1.34 10.251.333.414-.087.84.026 1.154.313.314.28.467.7.42 1.114a14.44 14.44 0 0 0 .287 4.582.518.518 0 0 0 .627.381h.007a14.06 14.06 0 0 0 8.057-5.743.53.53 0 0 0 .06-.467c0-.007 0-.007-.007-.013a18.374 18.374 0 0 1-.667-3.736l-.006-.053-.007-.1c0-.02 0-.033-.007-.053-.007-.06-.007-.114-.007-.174-.246.04-.493.08-.74.114-1.58.213-3.188.233-4.769.1a23.86 23.86 0 0 1-1.947-.24 20.122 20.122 0 0 1-1.534-.314h-.007c-.06-.013-.067-.013-.12-.033-.007 0-.014 0-.014-.007-.08-.02-.84-.227-1.547-.413a1.327 1.327 0 0 1-.8-.614 1.361 1.361 0 0 1-.134-1.007c.194-.72.4-1.48.414-1.554v-.007c.127-.467.287-.934.454-1.387.213-.587.453-1.16.713-1.728.24-.533.507-1.054.787-1.567a21.315 21.315 0 0 1 2.148-3.222.203.203 0 0 0 .04-.16.186.186 0 0 0-.093-.14 15.99 15.99 0 0 1-1.028-.74c-.62-.48-1.214-1-1.76-1.554a1.32 1.32 0 0 0-1.054-.394 14.114 14.114 0 0 0-8.624 4.076l-.007.006a.516.516 0 0 0 .02.727 14.285 14.285 0 0 0 3.828 2.541c.387.167.667.514.76.927a1.32 1.32 0 0 1-.306 1.154c-3.488 4.009-4.802 8.878-4.842 9.051-.007-.006 0-.006 0 0zm31.121-17.95c.007-.02.007-.026.007-.026s-.007 0-.027-.007l.02-.006c-4.195-7.25-13.486-9.738-20.743-5.55 0 0-.007 0-.007.007a.583.583 0 0 0-.253.347.576.576 0 0 0 .067.42 15.11 15.11 0 0 0 6.15 5.536 1.31 1.31 0 0 1 .307 2.168c-2.396 2.24-3.756 5.156-4.403 6.856a1.303 1.303 0 0 0 .987 1.714c1.8.294 5.002.567 8.144-.373.413-.14.873-.067 1.214.207.346.273.527.694.493 1.134a15.177 15.177 0 0 0 1.734 8.09.543.543 0 0 0 .747.22s.007 0 .007-.006c7.257-4.189 9.751-13.48 5.57-20.743l-.014.013zm3.435-1.18c.2.34.64.46.98.26l8.078-4.662c.34-.2.46-.64.26-.98l-.72-1.24a.72.72 0 0 0-.981-.261l-8.077 4.662a.72.72 0 0 0-.26.98l.72 1.241zm66.252 12.4a1.32 1.32 0 0 1 .106-1.488c.34-.427.901-.6 1.421-.433.554.186 1.094.42 1.621.72 3.081 1.78 5.836 9.611 6.85 12.813a1.3 1.3 0 0 1-.107 1.067 1.3 1.3 0 0 1-.874.627c-3.281.72-11.432 2.254-14.52.473a7.802 7.802 0 0 1-1.427-1.053 1.302 1.302 0 0 1 .887-2.255 44.825 44.825 0 0 0 8.657-.88c.354-.08.66-.307.84-.627a1.32 1.32 0 0 0 .121-1.04 42.578 42.578 0 0 0-3.575-7.924zm-.421 6.73c-.173.046-5.035 1.34-10.251.333a1.305 1.305 0 0 0-1.154.313 1.3 1.3 0 0 0-.42 1.114 14.44 14.44 0 0 1-.287 4.582.514.514 0 0 1-.627.381h-.007a14.06 14.06 0 0 1-8.057-5.743.554.554 0 0 1-.067-.467c0-.007.007-.007.007-.013a18.374 18.374 0 0 0 .667-3.736v-.053l.007-.1c0-.02 0-.033.006-.053.007-.06.007-.114.007-.174.247.04.494.08.74.114a21.94 21.94 0 0 0 4.77.1c.653-.054 1.3-.134 1.947-.24a20.09 20.09 0 0 0 1.534-.314c.06-.013.067-.013.12-.033.007 0 .007 0 .013-.007.08-.02.841-.227 1.548-.413.34-.094.627-.314.8-.614.174-.307.22-.667.134-1.007-.194-.72-.401-1.48-.414-1.554v-.007a17.225 17.225 0 0 0-.453-1.387 23.215 23.215 0 0 0-.714-1.728 22.913 22.913 0 0 0-.787-1.567 21.273 21.273 0 0 0-2.148-3.222.18.18 0 0 1-.04-.16.187.187 0 0 1 .093-.14c.354-.233.694-.48 1.028-.74.62-.48 1.214-1 1.76-1.554a1.33 1.33 0 0 1 1.054-.394 14.113 14.113 0 0 1 8.624 4.076l.007.006a.518.518 0 0 1-.02.727 14.29 14.29 0 0 1-3.828 2.541 1.324 1.324 0 0 0-.761.927c-.087.414.027.84.307 1.154 3.508 4.009 4.822 8.878 4.862 9.051.007-.006 0-.006 0 0zm-31.121-17.95c-.007-.02-.007-.026-.007-.026s.007 0 .027-.007l-.02-.006c4.195-7.25 13.486-9.738 20.743-5.55 0 0 .007 0 .007.007.126.08.213.2.253.347a.57.57 0 0 1-.067.42 15.107 15.107 0 0 1-6.15 5.536c-.4.187-.68.56-.74 1-.06.434.1.874.434 1.168 2.395 2.24 3.755 5.156 4.402 6.856.127.36.094.754-.1 1.088a1.28 1.28 0 0 1-.887.627c-1.8.293-5.002.566-8.144-.374a1.282 1.282 0 0 0-1.214.207 1.306 1.306 0 0 0-.493 1.134 15.178 15.178 0 0 1-1.734 8.09.543.543 0 0 1-.748.22s-.006 0-.006-.006c-7.257-4.189-9.751-13.48-5.57-20.743l.014.013zm-3.435-1.18a.72.72 0 0 1-.98.26l-8.078-4.662a.72.72 0 0 1-.26-.98l.72-1.24a.72.72 0 0 1 .981-.261l8.077 4.662c.34.2.46.64.26.98l-.72 1.241zM19.056 35.99c.54 0 1.034-.326 1.234-.833.2-.507.066-1.08-.334-1.454a8.947 8.947 0 0 0-1.434-1.04c-3.081-1.782-11.239-.248-14.52.473a1.303 1.303 0 0 0-.98 1.694c1.013 3.201 3.768 11.032 6.85 12.813.52.3 1.066.533 1.627.707a1.301 1.301 0 0 0 1.507-1.894 44.724 44.724 0 0 1-3.568-7.938 1.32 1.32 0 0 1 .96-1.667 44.03 44.03 0 0 1 8.658-.86zm-5.616 3.735c.046.167 1.354 5.036 4.835 9.045.28.313.394.74.307 1.154a1.295 1.295 0 0 1-.76.92A14.148 14.148 0 0 0 14 53.385a.501.501 0 0 0-.16.36.513.513 0 0 0 .14.374l.007.007a14.029 14.029 0 0 0 9.004 4.102.531.531 0 0 0 .44-.18c0-.007.007-.007.007-.014a18.85 18.85 0 0 1 1.747-1.594c.267-.213.54-.42.814-.613l.333-.234.04-.027.087-.053c.014-.007.027-.02.04-.027.047-.033.1-.066.147-.093-.16-.194-.314-.387-.467-.58a22.122 22.122 0 0 1-2.474-4.082 25.306 25.306 0 0 1-.767-1.808c-.18-.487-.354-.98-.5-1.48-.02-.06-.02-.067-.034-.12 0-.007 0-.014-.007-.014-.02-.08-.226-.84-.413-1.547-.094-.34-.04-.7.133-1.007a1.3 1.3 0 0 1 .8-.614c.72-.194 1.481-.4 1.554-.414h.007c.467-.12.947-.22 1.428-.306a21.722 21.722 0 0 1 1.854-.247c.58-.06 1.167-.094 1.754-.107a21.465 21.465 0 0 1 3.868.254.2.2 0 0 0 .16-.047.177.177 0 0 0 .074-.147 18.123 18.123 0 0 1 .594-3.575 1.33 1.33 0 0 0-.187-1.107 14.128 14.128 0 0 0-7.844-5.43h-.013a.49.49 0 0 0-.387.06.542.542 0 0 0-.234.32 14.248 14.248 0 0 0-.286 4.583c.046.42-.107.834-.42 1.12-.314.287-.741.4-1.154.314-5.21-1.034-10.079.26-10.245.313 0-.006 0-.006 0 0zm31.1 17.976c.02-.007.027-.007.027-.007s0-.007-.007-.027l.02.007c4.182-7.257 1.688-16.548-5.57-20.743 0 0-.006 0-.006-.007a.556.556 0 0 0-.76.22 15.179 15.179 0 0 0-1.721 8.09 1.3 1.3 0 0 1-1.72 1.348c-3.136-.954-6.344-.674-8.145-.387-.373.074-.7.3-.887.627a1.295 1.295 0 0 0-.1 1.087c.647 1.701 2.014 4.616 4.395 6.87a1.304 1.304 0 0 1-.307 2.154 15.222 15.222 0 0 0-6.142 5.55.546.546 0 0 0-.067.42.559.559 0 0 0 .254.347c7.256 4.189 16.547 1.7 20.743-5.55h-.007zm2.735 2.388c-.2.34-.08.78.26.98l8.077 4.662c.34.2.78.08.98-.26l.72-1.24a.72.72 0 0 0-.26-.981l-8.076-4.662a.72.72 0 0 0-.981.26l-.72 1.24zM33.396 20.35c.24.066.5-.02.654-.22a.616.616 0 0 0 .046-.687 2832.43 2832.43 0 0 0-2.928-5.07.622.622 0 0 1 .227-.847c.247-.146.54-.313.794-.453a.622.622 0 0 1 .847.227c.627 1.08 2.047 3.548 2.928 5.069.126.213.367.34.62.306a.63.63 0 0 0 .52-.453c.267-.994.607-2.254.8-2.988a.6.6 0 0 1 .287-.374.603.603 0 0 1 .467-.06c.28.074.607.16.88.234a.617.617 0 0 1 .434.76c-.393 1.48-1.407 5.256-1.68 6.263a.63.63 0 0 0 .06.467c.173.3.493.847.793 1.374a.639.639 0 0 0 .62.307.63.63 0 0 0 .52-.454c.268-.994.608-2.254.801-2.981a.602.602 0 0 1 .287-.374.604.604 0 0 1 .467-.06c.28.074.607.16.88.234a.616.616 0 0 1 .434.76 2104.79 2104.79 0 0 1-1.681 6.263c-.04.16-.02.327.06.474.16.273.44.753.707 1.227a.639.639 0 0 0 .62.307.63.63 0 0 0 .52-.454c.267-.994.607-2.254.8-2.988a.601.601 0 0 1 .288-.373.604.604 0 0 1 .467-.06c.28.073.607.16.88.233a.616.616 0 0 1 .434.76 2096.6 2096.6 0 0 1-1.681 6.263.63.63 0 0 0 .06.467c.513.887 2.42 4.196 3.181 5.503.08.14.107.313.06.473a.601.601 0 0 1-.286.374c-.247.14-.54.313-.794.453a.604.604 0 0 1-.467.06.602.602 0 0 1-.374-.286c-.753-1.308-2.667-4.616-3.181-5.503a.62.62 0 0 0-.374-.287c-1-.267-4.782-1.28-6.263-1.674a.616.616 0 0 1-.434-.76l.234-.88a.602.602 0 0 1 .287-.374.604.604 0 0 1 .467-.06c.734.193 1.994.533 2.988.8.24.067.5-.02.654-.22a.615.615 0 0 0 .046-.687c-.273-.474-.553-.954-.707-1.227a.62.62 0 0 0-.373-.287c-1-.267-4.782-1.28-6.263-1.674a.616.616 0 0 1-.434-.76c.074-.28.16-.607.234-.88a.601.601 0 0 1 .287-.374.604.604 0 0 1 .467-.06c.733.193 1.994.533 2.988.8.24.067.5-.02.653-.22a.615.615 0 0 0 .047-.687c-.3-.527-.62-1.074-.794-1.374a.62.62 0 0 0-.373-.287c-1-.267-4.782-1.28-6.263-1.674a.616.616 0 0 1-.434-.76c.074-.274.16-.607.234-.88a.6.6 0 0 1 .287-.374.603.603 0 0 1 .466-.06c.747.146 2.015.486 3.002.747zm56.667 98.146a.621.621 0 0 1 1.14-.147c.88 1.528 2.308 3.989 2.928 5.07a.62.62 0 0 0 .847.226c.247-.14.54-.313.794-.453a.62.62 0 0 0 .227-.847 2045.63 2045.63 0 0 0-2.928-5.069.615.615 0 0 1 .047-.687.614.614 0 0 1 .653-.22c.994.266 2.254.606 2.988.8.16.04.327.02.467-.06s.247-.22.287-.374l.233-.88a.63.63 0 0 0-.06-.467.62.62 0 0 0-.373-.287 1788.63 1788.63 0 0 1-6.263-1.681.6.6 0 0 1-.374-.286c-.173-.301-.493-.847-.793-1.374a.615.615 0 0 1 .046-.687.617.617 0 0 1 .654-.22c.994.266 2.254.607 2.981.8.16.04.327.02.474-.06a.595.595 0 0 0 .287-.374c.073-.28.16-.607.233-.88a.63.63 0 0 0-.06-.467.62.62 0 0 0-.373-.287c-1.481-.393-5.256-1.407-6.263-1.681a.6.6 0 0 1-.374-.286c-.16-.274-.44-.754-.707-1.228a.62.62 0 1 1 .7-.907c.994.267 2.255.607 2.989.801.16.04.326.02.473-.06.14-.08.247-.22.287-.374l.233-.88a.63.63 0 0 0-.06-.467.62.62 0 0 0-.373-.287 1818.82 1818.82 0 0 1-6.263-1.681.598.598 0 0 1-.374-.287c-.513-.887-2.42-4.195-3.174-5.502a.619.619 0 0 0-.848-.227c-.246.14-.54.314-.787.454a.62.62 0 0 0-.226.84c.753 1.307 2.668 4.616 3.181 5.503.08.14.107.313.06.467-.267 1-1.28 4.782-1.674 6.263-.04.16-.02.326.06.466s.22.247.374.287c.28.074.607.16.88.234.16.04.327.02.474-.06.14-.08.246-.22.286-.374.194-.734.534-1.994.8-2.988a.624.624 0 0 1 1.141-.147c.274.474.554.954.707 1.228a.6.6 0 0 1 .06.466c-.266 1.001-1.28 4.783-1.674 6.263a.63.63 0 0 0 .06.467c.08.14.22.247.374.287.28.073.607.16.88.234.16.04.327.02.474-.06a.6.6 0 0 0 .287-.374c.193-.734.533-1.994.8-2.988a.624.624 0 0 1 1.14-.147c.3.527.62 1.074.794 1.374.08.14.107.314.06.467-.267 1.001-1.28 4.782-1.674 6.263a.63.63 0 0 0 .06.467c.08.14.22.247.374.287.28.073.606.16.88.233.16.04.327.02.474-.06.14-.08.246-.22.286-.373.154-.747.494-2.008.76-3.002zm-52.973 0a.621.621 0 0 0-1.14-.147 2136.5 2136.5 0 0 1-2.928 5.07.62.62 0 0 1-.847.226c-.247-.14-.54-.313-.793-.453a.62.62 0 0 1-.227-.847c.627-1.081 2.047-3.549 2.928-5.069a.615.615 0 0 0-.047-.687.614.614 0 0 0-.654-.22c-.993.266-2.254.606-2.988.8a.63.63 0 0 1-.466-.06.618.618 0 0 1-.287-.374c-.074-.273-.16-.607-.234-.88a.63.63 0 0 1 .06-.467.62.62 0 0 1 .374-.287c1.48-.393 5.256-1.407 6.263-1.681a.6.6 0 0 0 .373-.286c.174-.301.494-.847.794-1.374a.615.615 0 0 0-.047-.687.614.614 0 0 0-.653-.22c-.994.266-2.255.607-2.988.8a.63.63 0 0 1-.467-.06.619.619 0 0 1-.287-.374c-.074-.28-.16-.607-.234-.88a.63.63 0 0 1 .06-.467.62.62 0 0 1 .374-.287c1.48-.393 5.256-1.407 6.263-1.681a.6.6 0 0 0 .373-.286c.16-.274.44-.754.707-1.228a.616.616 0 0 0-.046-.687.615.615 0 0 0-.654-.22c-.994.267-2.254.607-2.988.801a.63.63 0 0 1-.467-.06.618.618 0 0 1-.287-.374l-.233-.88a.63.63 0 0 1 .06-.467.62.62 0 0 1 .373-.287c1.481-.393 5.256-1.407 6.263-1.681a.598.598 0 0 0 .374-.287c.514-.887 2.421-4.195 3.181-5.502a.619.619 0 0 1 .84-.227c.248.14.541.314.795.454a.62.62 0 0 1 .226.84c-.753 1.307-2.668 4.616-3.181 5.503a.603.603 0 0 0-.06.467c.267 1 1.28 4.782 1.68 6.263.04.16.02.326-.06.466a.62.62 0 0 1-.373.287c-.28.074-.607.16-.88.234a.63.63 0 0 1-.467-.06.618.618 0 0 1-.287-.374c-.194-.734-.534-1.994-.8-2.988a.624.624 0 0 0-1.141-.147c-.273.474-.554.954-.707 1.228a.601.601 0 0 0-.06.466c.267 1.001 1.28 4.783 1.68 6.263a.63.63 0 0 1-.06.467.62.62 0 0 1-.373.287c-.28.073-.607.16-.88.234a.63.63 0 0 1-.467-.06.624.624 0 0 1-.287-.374c-.193-.734-.533-1.994-.8-2.988a.624.624 0 0 0-1.14-.147c-.301.527-.621 1.074-.794 1.374a.604.604 0 0 0-.06.467c.266 1.001 1.28 4.782 1.68 6.263a.63.63 0 0 1-.06.467.62.62 0 0 1-.373.287c-.28.073-.607.16-.88.233a.63.63 0 0 1-.468-.06.619.619 0 0 1-.286-.373c-.207-.747-.547-2.008-.814-3.002zM93.758 20.35a.618.618 0 0 1-.654-.22.616.616 0 0 1-.046-.687c.88-1.528 2.307-3.989 2.928-5.07a.622.622 0 0 0-.227-.847c-.247-.146-.54-.313-.794-.453a.622.622 0 0 0-.847.227c-.62 1.08-2.048 3.548-2.928 5.069a.627.627 0 0 1-.62.306.63.63 0 0 1-.52-.453c-.267-.994-.6-2.254-.801-2.988a.616.616 0 0 0-.76-.434c-.274.074-.607.16-.88.234a.617.617 0 0 0-.434.76c.393 1.48 1.407 5.256 1.674 6.263a.63.63 0 0 1-.06.467c-.174.3-.494.847-.794 1.374a.639.639 0 0 1-.62.307.63.63 0 0 1-.52-.454c-.267-.994-.6-2.254-.8-2.981a.617.617 0 0 0-.76-.434c-.275.074-.608.16-.882.234a.616.616 0 0 0-.433.76c.393 1.48 1.407 5.256 1.674 6.263.04.16.02.327-.06.474-.16.273-.44.753-.707 1.227a.64.64 0 0 1-.62.307.63.63 0 0 1-.52-.454c-.267-.994-.6-2.254-.801-2.988a.616.616 0 0 0-.76-.434c-.28.074-.607.16-.88.234a.616.616 0 0 0-.434.76c.393 1.481 1.407 5.256 1.674 6.263a.63.63 0 0 1-.06.467c-.514.887-2.421 4.196-3.182 5.503a.617.617 0 0 0-.06.473c.04.16.147.294.287.374.247.14.54.313.787.453.14.08.314.107.474.06a.601.601 0 0 0 .373-.286c.754-1.308 2.668-4.616 3.175-5.503a.62.62 0 0 1 .373-.287c1.001-.267 4.783-1.28 6.264-1.674a.616.616 0 0 0 .434-.76l-.234-.88a.617.617 0 0 0-.76-.433c-.734.192-1.995.532-2.989.8a.618.618 0 0 1-.653-.22.628.628 0 0 1-.047-.688c.273-.474.553-.954.707-1.227a.62.62 0 0 1 .373-.287c1-.267 4.783-1.28 6.263-1.674a.617.617 0 0 0 .434-.76c-.073-.28-.16-.607-.234-.88a.616.616 0 0 0-.76-.433c-.734.192-1.994.532-2.981.799a.618.618 0 0 1-.654-.22.628.628 0 0 1-.047-.687c.3-.527.62-1.074.794-1.374a.62.62 0 0 1 .373-.287c1.008-.267 4.783-1.28 6.264-1.674a.617.617 0 0 0 .433-.76l-.233-.88a.6.6 0 0 0-.287-.374.603.603 0 0 0-.467-.06c-.694.146-1.954.486-2.948.747zM6.917 70.493a.607.607 0 0 0 .133-.673.61.61 0 0 0-.574-.38H.62c-.34 0-.62-.28-.62-.62v-.914c0-.34.28-.62.62-.62h5.856a.628.628 0 0 0 .574-.38.626.626 0 0 0-.133-.675l-2.188-2.187a.626.626 0 0 1 0-.88l.647-.648a.6.6 0 0 1 .44-.18c.167 0 .32.067.44.18l4.582 4.583a.63.63 0 0 0 .44.18h1.588a.628.628 0 0 0 .574-.38.626.626 0 0 0-.134-.674l-2.187-2.188a.626.626 0 0 1 0-.88l.647-.647a.599.599 0 0 1 .44-.18c.167 0 .32.066.44.18l4.582 4.582a.63.63 0 0 0 .44.18h1.421a.628.628 0 0 0 .574-.38.626.626 0 0 0-.134-.674l-2.187-2.188a.626.626 0 0 1 0-.88l.646-.647a.599.599 0 0 1 .44-.18c.168 0 .32.067.44.18 1.082 1.08 3.85 3.849 4.583 4.582.113.114.274.18.44.18h6.357a.64.64 0 0 1 .44.18.63.63 0 0 1 .18.44v.914c0 .167-.067.32-.18.44a.626.626 0 0 1-.44.18H23.89a.638.638 0 0 0-.44.18l-4.582 4.583a.626.626 0 0 1-.88 0l-.647-.647a.626.626 0 0 1 0-.88l2.187-2.188a.607.607 0 0 0 .134-.674.611.611 0 0 0-.574-.38h-1.42a.638.638 0 0 0-.44.18 4241630413300113 4241630413300113 0 0 0-5.023 4.762.638.638 0 0 1-.44-.18l-.647-.647a.626.626 0 0 1 0-.88l2.187-2.188a.607.607 0 0 0 .134-.674.61.61 0 0 0-.574-.38H11.28a.638.638 0 0 0-.44.18l-4.583 4.582a.626.626 0 0 1-.88 0l-.647-.647a.626.626 0 0 1 0-.88c.534-.5 1.46-1.427 2.188-2.148zm113.327 0a.607.607 0 0 1-.134-.673.611.611 0 0 1 .574-.38h5.856c.34 0 .62-.28.62-.62v-.914c0-.34-.273-.62-.62-.62h-5.856a.628.628 0 0 1-.574-.38.626.626 0 0 1 .134-.675l2.187-2.187a.624.624 0 0 0 0-.88l-.647-.648a.598.598 0 0 0-.44-.18.637.637 0 0 0-.44.18l-4.582 4.583a.628.628 0 0 1-.44.18h-1.588a.627.627 0 0 1-.573-.38.613.613 0 0 1 .133-.674l2.188-2.188a.627.627 0 0 0 0-.88l-.647-.647a.61.61 0 0 0-.44-.18.64.64 0 0 0-.441.18l-4.582 4.582a.624.624 0 0 1-.44.18h-1.421a.627.627 0 0 1-.573-.38.626.626 0 0 1 .133-.674l2.188-2.188a.628.628 0 0 0 0-.88l-.647-.647a.6.6 0 0 0-.44-.18.64.64 0 0 0-.441.18l-4.582 4.582a.624.624 0 0 1-.44.18h-6.356a.638.638 0 0 0-.44.18.626.626 0 0 0-.18.44v.914c0 .167.066.32.18.44.113.114.273.18.44.18h6.356c.167 0 .32.067.44.18l4.582 4.583a.64.64 0 0 0 .441.18.64.64 0 0 0 .44-.18l.647-.647a.628.628 0 0 0 0-.88l-2.188-2.188a.62.62 0 0 1-.133-.674c.1-.227.32-.38.573-.38h1.421c.167 0 .32.067.44.18l4.582 4.582a.628.628 0 0 0 .881 0l.647-.647a.628.628 0 0 0 0-.88l-2.188-2.188a.607.607 0 0 1-.133-.674.61.61 0 0 1 .573-.38h1.588a.64.64 0 0 1 .44.18l4.582 4.582a.624.624 0 0 0 .88 0l.647-.647a.624.624 0 0 0 0-.88c-.54-.5-1.46-1.427-2.187-2.148zM59.348 26.052c.54-.16.907-.66.907-1.22v-4.77c0-.2-.046-.4-.14-.58-.967-1.894-6.723-13.132-9.024-17.628-.2-.393-.187-.867.047-1.247A1.29 1.29 0 0 1 52.225 0h4.362c.5 0 .954.293 1.16.747.88 1.948 3.275 7.237 4.723 10.432a1.277 1.277 0 0 0 2.32 0c1.448-3.202 3.843-8.484 4.723-10.432.207-.454.66-.747 1.16-.747h4.363c.447 0 .853.233 1.087.607.233.38.247.847.046 1.247-2.3 4.496-8.05 15.734-9.024 17.629-.093.18-.14.38-.14.58v4.549c0 .587.4 1.094.967 1.234.747.186 1.454.433 2.128.747 1.727.8 3.068 1.927 4.015 3.375a8.61 8.61 0 0 1 1.32 3.535 1.267 1.267 0 0 1-1.247 1.434c-1.227.013-3.028.013-4.181.013a1.272 1.272 0 0 1-1.248-1.02 3.55 3.55 0 0 0-1.114-2.088c-.827-.774-2.04-1.16-3.641-1.16-1.02 0-1.888.146-2.602.446-.713.3-1.253.707-1.614 1.22a2.953 2.953 0 0 0-.54 1.735c0 .947.487 1.754 1.468 2.414.98.66 2.494 1.308 4.548 1.948 3.469 1.06 6.05 2.388 7.744 3.982 1.694 1.594 2.541 3.635 2.541 6.13 0 1.8-.46 3.348-1.38 4.642-.92 1.294-2.228 2.28-3.922 2.961-1.694.68-3.682 1.02-5.957 1.02-2.18 0-4.228-.373-6.15-1.127-1.92-.753-3.48-1.9-4.681-3.455-.94-1.214-1.514-2.634-1.721-4.275-.047-.36.067-.72.307-.987s.58-.427.94-.427c1.227-.013 3.028-.013 4.196-.013.627 0 1.16.46 1.26 1.08.147 1.227.634 2.141 1.44 2.755 1.028.787 2.495 1.18 4.41 1.18 1.514 0 2.66-.306 3.428-.913.774-.607 1.16-1.408 1.16-2.402 0-.733-.153-1.354-.467-1.847-.313-.494-.887-.967-1.72-1.42-.834-.454-2.068-.941-3.695-1.468-2.095-.68-3.902-1.434-5.41-2.261-1.507-.827-2.714-1.868-3.621-3.115s-1.361-2.728-1.361-4.442.494-3.228 1.474-4.536c.987-1.307 2.348-2.32 4.089-3.034.38-.16.773-.3 1.18-.42z" fill="#27235E"/></svg>