<svg width="178" height="109" viewBox="0 0 178 109" fill="none" xmlns="http://www.w3.org/2000/svg"><path fill-rule="evenodd" clip-rule="evenodd" d="M43.72 12.117c-.32.51-.93.75-1.51.58a1.33 1.33 0 0 1-.97-1.29h-.01c0-2.51 3.59-6.84 5.42-8.89.26-.31.65-.49 1.06-.49.41 0 .8.18 1.06.49 1.84 2.05 5.42 6.38 5.42 8.89v.01c0 .6-.4 1.13-.98 1.3-.58.16-1.2-.08-1.52-.59a32.204 32.204 0 0 0-2.95-4.05c-.27-.29-.65-.46-1.04-.46-.4 0-.78.17-1.04.46-.75.89-1.85 2.28-2.94 4.04zm4-1.36c.11.11 2.54 2.56 3.89 6.06.14.4.47.72.87.85.41.13.85.07 1.21-.16.82-.53 1.72-.96 2.69-1.26a.391.391 0 0 1 .49.26c.69 2.57.37 5.17-.71 7.39a.38.38 0 0 1-.28.21h-.01c-.57.14-1.14.32-1.69.54-.24.09-.47.19-.71.3-.09.04-.18.09-.28.13l-.03.02-.07.03c-.01.01-.02.01-.03.02l-.12.06c-.06-.18-.13-.35-.2-.52-.46-1.11-1.04-2.16-1.72-3.14-.28-.4-.57-.8-.89-1.17-.25-.3-.5-.6-.78-.88-.03-.03-.03-.04-.06-.06l-.01-.01-.56-.56c-.55-.55-1.44-.55-2 0l-.55.55-.01.01c-.26.26-.5.53-.73.81-.3.36-.59.73-.86 1.11-.25.36-.5.72-.72 1.1a17 17 0 0 0-1.29 2.6c-.02.04-.05.07-.09.09-.04.02-.09.01-.13-.01-.28-.14-.57-.27-.87-.39-.49-.2-.99-.37-1.5-.51-.41-.11-.74-.4-.92-.78a10.57 10.57 0 0 1-.49-6.93.394.394 0 0 1 .49-.26c.97.3 1.87.73 2.69 1.26.36.24.8.3 1.21.16.41-.13.73-.45.88-.85 1.35-3.53 3.8-5.98 3.89-6.07zm.01 26.94l-.01.01-.01-.01v.01c-6.28-.01-11.38-5.11-11.38-11.39v-.01c0-.11.05-.22.13-.29.08-.08.19-.12.3-.11 2 .08 3.86.67 5.47 1.64.38.24.85.28 1.26.12.41-.17.72-.52.83-.96.53-1.88 1.54-3.46 2.32-4.49a1.389 1.389 0 0 1 2.18 0c.78 1.03 1.79 2.61 2.33 4.49.11.43.41.78.82.95.41.17.88.12 1.25-.12 1.61-.97 3.48-1.56 5.48-1.63.11 0 .22.04.3.11.08.08.13.18.13.29v.01c0 6.28-5.1 11.38-11.38 11.39l-.02-.01zm.53 2.67c.3 0 .54.24.54.54v6.99c0 .3-.24.54-.54.54h-1.08c-.3 0-.54-.24-.54-.54v-6.99c0-.3.24-.54.54-.54h1.08zm-4.54 55.95c-.32-.51-.93-.75-1.51-.58-.58.16-.97.69-.97 1.29-.01 0-.01 0-.01.01 0 2.51 3.59 6.84 5.42 8.89.26.31.65.49 1.06.49.41 0 .8-.18 1.06-.49 1.84-2.05 5.42-6.38 5.42-8.89v-.01c0-.6-.4-1.13-.98-1.3-.58-.16-1.2.08-1.52.59a32.194 32.194 0 0 1-2.95 4.05c-.27.3-.65.46-1.04.46-.4 0-.78-.17-1.04-.46-.75-.9-1.85-2.29-2.94-4.05zm4 1.37s0-.01 0 0c.11-.11 2.54-2.56 3.89-6.06.14-.4.47-.72.87-.85.41-.13.85-.07 1.21.16.82.53 1.72.96 2.69 1.26a.391.391 0 0 0 .49-.26c.69-2.57.37-5.17-.71-7.39a.38.38 0 0 0-.28-.21h-.01c-.57-.14-1.14-.32-1.69-.54-.24-.09-.47-.19-.71-.3-.09-.04-.18-.09-.28-.13l-.03-.02-.07-.03c-.01-.01-.02-.01-.03-.02l-.12-.06c-.06.18-.13.35-.2.52a17.097 17.097 0 0 1-2.61 4.31c-.25.3-.5.6-.78.88-.03.03-.03.04-.06.06l-.01.01-.56.56c-.55.55-1.44.55-2 0l-.55-.55-.01-.01c-.26-.26-.5-.53-.73-.81-.3-.36-.59-.73-.86-1.11-.25-.36-.5-.72-.72-1.1a17 17 0 0 1-1.29-2.6.196.196 0 0 0-.09-.09c-.04-.02-.09-.01-.13.01-.28.14-.57.27-.87.39-.49.2-.99.37-1.5.51-.41.11-.74.4-.92.78a10.57 10.57 0 0 0-.49 6.93.394.394 0 0 0 .49.26c.97-.3 1.87-.73 2.69-1.26.36-.24.8-.3 1.21-.16.41.13.73.45.88.85 1.35 3.52 3.8 5.98 3.89 6.07zm.01-26.94l-.01-.01-.01.01v-.01c-6.28.01-11.38 5.11-11.38 11.39v.01c0 .11.05.22.13.29.08.08.19.12.3.11 2-.08 3.86-.67 5.47-1.64.38-.24.85-.28 1.26-.12.41.17.72.52.83.96.53 1.88 1.54 3.46 2.32 4.49a1.389 1.389 0 0 0 2.18 0c.78-1.03 1.79-2.61 2.33-4.49.11-.43.41-.78.82-.95.41-.17.88-.12 1.25.12 1.61.97 3.48 1.56 5.48 1.63.11 0 .22-.04.3-.11a.41.41 0 0 0 .13-.29v-.01c0-6.28-5.1-11.38-11.38-11.39l-.02.01zm.53-2.68c.3 0 .54-.24.54-.54v-6.99c0-.3-.24-.54-.54-.54h-1.08c-.3 0-.54.24-.54.54v6.99c0 .3.24.54.54.54h1.08zm33.92-38.36c-.6-.02-1.11-.43-1.26-1.01-.15-.58.11-1.19.63-1.49v-.01c2.18-1.26 7.71-.31 10.41.25.4.07.75.32.96.67.2.35.24.78.11 1.16-.86 2.62-2.81 7.89-4.99 9.14-.52.3-1.18.22-1.61-.2-.43-.42-.53-1.08-.25-1.61.98-1.82 1.64-3.46 2.03-4.58.12-.38.08-.79-.12-1.14-.2-.34-.53-.59-.92-.67-1.17-.19-2.92-.45-4.99-.51zm3.18 2.78c-.04.15-.94 3.48-3.3 6.4-.28.33-.39.76-.3 1.18.09.42.36.78.75.96.87.44 1.69 1.01 2.44 1.7.08.07.12.17.12.27s-.04.2-.11.28a10.548 10.548 0 0 1-6.75 3.08.39.39 0 0 1-.32-.13l-.01-.01a13.5 13.5 0 0 0-1.92-1.66c-.08-.06-.17-.12-.25-.17l-.03-.02-.06-.04c-.01-.01-.02-.01-.03-.02-.04-.02-.07-.05-.11-.07a16.727 16.727 0 0 0 2.2-3.5c.21-.44.4-.9.57-1.35.14-.37.26-.74.37-1.11.01-.04.01-.05.02-.09v-.02c.01-.04.1-.37.2-.76.2-.75-.25-1.53-1-1.73-.38-.1-.71-.19-.76-.2h-.01c-.35-.09-.71-.16-1.07-.23-.46-.08-.92-.14-1.39-.19-.44-.04-.88-.07-1.31-.08-.97-.02-1.94.03-2.9.19-.04.01-.09-.01-.12-.03a.238.238 0 0 1-.06-.11c-.02-.32-.05-.63-.09-.95-.07-.52-.17-1.04-.3-1.55-.11-.41-.03-.84.22-1.19 1.38-1.84 3.36-3.25 5.76-3.89.1-.02.21-.01.29.05.09.05.15.14.17.24.23.99.3 1.99.25 2.96-.03.43.14.85.46 1.13.32.29.75.41 1.18.33 3.73-.6 7.08.29 7.2.33zm-23.32 13.48c-.01 0-.02-.01-.02-.01s0-.01.01-.02l-.01.01c-3.13-5.44-1.27-12.41 4.17-15.55h.01c.1-.05.21-.07.32-.03.11.03.19.1.25.2a11.29 11.29 0 0 1 1.31 5.56c-.02.45.18.87.53 1.15.35.28.81.36 1.24.24 1.89-.48 3.77-.4 5.05-.23.42.06.79.31 1 .68.21.37.24.81.09 1.21-.5 1.19-1.37 2.86-2.72 4.26-.32.31-.47.75-.41 1.19.06.44.33.82.73 1.02 1.64.91 3.09 2.24 4.15 3.93.06.09.08.21.05.31-.03.11-.09.2-.19.26 0 0-.01 0-.01.01-5.44 3.14-12.41 1.27-15.55-4.16v-.03zm-2.06 1.79c.15.26.06.59-.2.73l-6.06 3.5c-.26.15-.59.06-.73-.2l-.54-.93a.527.527 0 0 1 .2-.73l6.06-3.5c.26-.15.59-.06.73.2l.54.93zM9.26 71.807c.28-.53.18-1.18-.25-1.6a1.33 1.33 0 0 0-1.6-.2c-.01-.01-.01-.01-.01 0-2.18 1.26-4.13 6.52-4.99 9.14-.14.38-.1.81.11 1.16.2.35.55.6.96.67 2.7.57 8.24 1.51 10.41.25h.01c.52-.3.78-.91.63-1.5-.15-.58-.66-1-1.27-1.02-2.07-.06-3.82-.31-4.98-.53-.39-.08-.72-.33-.92-.67-.2-.34-.24-.76-.12-1.14.38-1.09 1.04-2.74 2.02-4.56zm.82 4.15c.15.04 3.49.92 7.19.34a1.388 1.388 0 0 1 1.63 1.46c-.05.97.03 1.97.26 2.96.02.1.09.19.17.24.09.05.19.07.29.05 2.57-.69 4.67-2.26 6.04-4.31.07-.1.09-.23.05-.35v-.01c-.16-.57-.29-1.15-.38-1.73-.04-.25-.07-.51-.09-.76l-.03-.31v-.16c0-.04 0-.09-.01-.13l-.55.09c-1.19.16-2.39.17-3.58.07a17.634 17.634 0 0 1-2.61-.41c-.04-.01-.05-.01-.09-.02h-.02c-.04-.01-.37-.1-.76-.2-.75-.2-1.2-.98-1-1.73.1-.38.19-.71.2-.76v-.01c.1-.35.21-.7.34-1.04.16-.44.34-.87.53-1.3a16.954 16.954 0 0 1 2.2-3.6c.03-.03.04-.08.03-.12a.19.19 0 0 0-.07-.11c-.26-.18-.52-.36-.77-.55-.42-.32-.82-.67-1.19-1.04-.3-.3-.72-.44-1.14-.4-2.29.27-4.5 1.29-6.25 3.04-.07.07-.11.17-.11.28 0 .1.05.2.12.27.75.69 1.57 1.26 2.44 1.7.38.19.66.55.75.97.09.42-.02.86-.3 1.18-2.36 2.92-3.26 6.27-3.29 6.4 0-.01 0-.01 0 0zm23.33-13.46c0-.01.01-.02.01-.02s-.01 0-.02-.01l.01-.01c-3.15-5.44-10.11-7.3-15.56-4.16h-.01c-.09.06-.16.15-.19.26-.03.11-.01.22.05.31 1.06 1.69 2.51 3.01 4.16 3.92.4.21.67.59.73 1.03.06.44-.09.89-.41 1.2-1.36 1.4-2.23 3.06-2.73 4.26-.16.39-.13.84.08 1.21.21.37.58.62 1 .68 1.28.16 3.16.24 5.05-.22.43-.12.88-.04 1.23.24.35.27.54.7.52 1.14-.03 1.88.39 3.79 1.33 5.56.05.1.14.17.25.2.11.03.22.02.32-.03 0 0 .01 0 .01-.01 5.44-3.14 7.31-10.11 4.17-15.55zm2.58-.89c.15.26.48.35.73.2l6.06-3.5c.26-.15.35-.48.2-.73l-.54-.93a.532.532 0 0 0-.73-.2l-6.06 3.5c-.26.15-.35.48-.2.73l.54.93zm50.19 10.2c-.28-.53-.18-1.18.25-1.6.43-.42 1.08-.5 1.6-.2.01-.01.01-.01.01 0 2.18 1.26 4.13 6.52 4.99 9.14.14.38.1.81-.11 1.16-.2.35-.55.6-.96.67-2.7.57-8.24 1.51-10.41.25h-.01c-.52-.3-.78-.91-.63-1.5.15-.58.66-1 1.27-1.02 2.07-.06 3.82-.31 4.98-.53.39-.08.72-.33.92-.67.2-.34.24-.76.12-1.14-.39-1.09-1.04-2.74-2.02-4.56zm-.82 4.15c-.15.04-3.49.92-7.19.34a1.388 1.388 0 0 0-1.63 1.46c.05.97-.03 1.97-.26 2.96-.02.1-.09.19-.17.24-.09.05-.19.07-.29.05-2.57-.69-4.67-2.26-6.04-4.31a.394.394 0 0 1-.05-.35v-.01c.16-.57.29-1.15.38-1.73.04-.25.07-.51.09-.76l.03-.31v-.16c0-.04 0-.09.01-.13l.55.09c1.19.16 2.39.17 3.58.07a17.634 17.634 0 0 0 2.61-.41c.04-.01.05-.01.09-.02h.02c.04-.01.37-.1.76-.2.75-.2 1.2-.98 1-1.73-.1-.38-.19-.71-.2-.76v-.01c-.1-.35-.21-.7-.34-1.04-.16-.44-.34-.87-.53-1.3a16.954 16.954 0 0 0-2.2-3.6c-.03-.03-.04-.08-.03-.12a.19.19 0 0 1 .07-.11c.26-.18.52-.36.77-.55.42-.32.82-.67 1.19-1.04.3-.3.72-.44 1.14-.4 2.29.27 4.5 1.29 6.25 3.04.07.07.11.17.11.28 0 .1-.05.2-.12.27-.75.69-1.57 1.26-2.44 1.7-.38.19-.66.55-.75.97-.09.42.02.86.3 1.18 2.36 2.92 3.26 6.27 3.29 6.4 0-.01 0-.01 0 0zm-23.34-13.46c0-.01-.01-.02-.01-.02s.01 0 .02-.01l-.01-.01c3.15-5.44 10.11-7.3 15.56-4.16h.01c.09.06.16.15.19.26.03.11.01.22-.05.31a11.381 11.381 0 0 1-4.16 3.92c-.4.21-.67.59-.73 1.03-.06.44.09.89.41 1.2 1.36 1.4 2.23 3.06 2.73 4.26.16.39.13.84-.08 1.21-.21.37-.58.62-1 .68-1.28.16-3.16.24-5.05-.22a1.36 1.36 0 0 0-1.23.24c-.35.27-.54.7-.52 1.14.03 1.88-.39 3.79-1.33 5.56-.05.1-.14.17-.25.2-.11.03-.22.02-.32-.03 0 0-.01 0-.01-.01-5.44-3.14-7.31-10.11-4.17-15.55zm-2.57-.89c-.15.26-.48.35-.73.2l-6.06-3.5a.532.532 0 0 1-.2-.73l.54-.93c.15-.26.48-.35.73-.2l6.06 3.5c.26.15.35.48.2.73l-.54.93zm-46.19-31.9c.6-.02 1.11-.43 1.26-1.01.15-.58-.11-1.19-.63-1.49v-.01c-2.18-1.26-7.71-.31-10.41.25-.4.07-.75.32-.96.67-.2.35-.24.78-.11 1.16.86 2.62 2.81 7.89 4.99 9.14.52.3 1.18.22 1.61-.2.43-.42.53-1.08.25-1.61-.98-1.82-1.64-3.46-2.03-4.58-.12-.38-.08-.79.12-1.14.2-.34.53-.59.92-.67 1.17-.19 2.92-.45 4.99-.51zm-3.18 2.78c.04.15.94 3.48 3.3 6.4.28.33.39.76.3 1.18-.09.42-.36.78-.75.96-.87.44-1.69 1.01-2.44 1.7-.08.07-.12.17-.12.27s.04.2.11.28c1.88 1.88 4.29 2.91 6.75 3.08.12.01.24-.04.32-.13l.01-.01a13.5 13.5 0 0 1 1.92-1.66c.08-.06.17-.12.25-.17l.03-.02.06-.04c.01-.01.02-.01.03-.02.04-.02.07-.05.11-.07a16.727 16.727 0 0 1-2.2-3.5c-.21-.44-.4-.9-.57-1.35-.14-.37-.26-.74-.37-1.11-.01-.04-.01-.05-.02-.09v-.02c-.01-.04-.1-.37-.2-.76-.2-.75.25-1.53 1-1.73.38-.1.71-.19.76-.2h.01c.35-.09.71-.16 1.07-.23.46-.08.92-.14 1.39-.19.44-.04.88-.07 1.31-.08.97-.02 1.94.03 2.9.19.04.01.09-.01.12-.03.03-.03.05-.07.06-.11.02-.32.05-.63.09-.95.07-.52.17-1.04.3-1.55.11-.41.03-.84-.22-1.19a10.578 10.578 0 0 0-5.76-3.89.366.366 0 0 0-.29.05c-.09.05-.15.14-.17.24-.23.99-.3 1.99-.25 2.96.03.43-.14.85-.46 1.13-.32.29-.75.41-1.18.33-3.73-.6-7.08.29-7.2.33zm23.32 13.48c.01 0 .02-.01.02-.01s0-.01-.01-.02l.01.01c3.13-5.44 1.26-12.41-4.17-15.55h-.01a.397.397 0 0 0-.32-.03c-.11.03-.19.1-.25.2a11.29 11.29 0 0 0-1.31 5.56c.02.45-.18.87-.53 1.15-.35.28-.81.36-1.24.24-1.89-.48-3.77-.4-5.05-.23-.42.06-.79.31-1 .68-.21.37-.24.81-.09 1.21.5 1.19 1.37 2.86 2.72 4.26.32.31.47.75.41 1.19-.06.44-.33.82-.73 1.02a11.46 11.46 0 0 0-4.15 3.93.38.38 0 0 0-.05.31c.03.11.09.2.19.26 0 0 .01 0 .01.01 5.44 3.14 12.41 1.27 15.55-4.16v-.03zm2.05 1.79c-.15.26-.06.59.2.73l6.06 3.5c.26.15.59.06.73-.2l.54-.93c.15-.26.06-.59-.2-.73l-6.06-3.5a.527.527 0 0 0-.73.2l-.54.93zm-11.49-30.09c.36.1.75-.03.98-.33.23-.3.26-.7.07-1.03-.51-.89-1.09-1.89-1.46-2.54a.774.774 0 0 1-.08-.61c.06-.21.19-.38.38-.49.19-.11.41-.14.61-.08.21.06.38.19.49.38.37.65.95 1.65 1.46 2.54.19.33.55.51.93.46.37-.05.68-.32.78-.68.08-.29.16-.58.22-.83.06-.21.19-.38.38-.49.19-.11.41-.14.61-.08.21.06.38.19.49.38.11.19.14.41.08.61l-1.14 4.24c-.05.2-.03.41.08.59.18.32.54.49.9.44.36-.05.66-.31.76-.66.08-.32.17-.62.24-.88.06-.21.19-.38.38-.49.19-.11.41-.14.61-.08.21.06.38.19.49.38.11.19.14.41.08.61-.33 1.23-.95 3.56-1.16 4.31-.04.15-.02.32.06.45.18.31.53.48.88.43.35-.05.64-.3.74-.65.09-.33.18-.66.25-.94.06-.21.19-.38.38-.49.19-.11.41-.14.61-.08.21.06.38.19.49.38.11.19.14.41.08.61-.31 1.17-.89 3.32-1.12 4.18-.06.24-.03.49.09.7.44.76 1.52 2.64 2.12 3.67.11.19.14.41.08.61-.06.21-.19.38-.38.49-.19.11-.41.14-.61.08a.812.812 0 0 1-.49-.38c-.59-1.03-1.68-2.91-2.12-3.67a.928.928 0 0 0-.56-.43c-.86-.23-3.01-.81-4.18-1.12a.812.812 0 0 1-.49-.38.774.774 0 0 1-.08-.61c.06-.21.19-.38.38-.49.19-.11.41-.14.61-.08.28.07.6.16.94.25.34.09.71-.03.93-.31.22-.28.24-.67.06-.98a.592.592 0 0 0-.36-.28c-.75-.2-3.08-.83-4.31-1.16a.812.812 0 0 1-.49-.38.774.774 0 0 1-.08-.61c.06-.21.19-.38.38-.49.19-.11.41-.14.61-.08.26.07.57.15.88.24.35.09.73-.03.95-.32.22-.29.25-.69.07-1a.743.743 0 0 0-.47-.36l-4.24-1.14a.812.812 0 0 1-.49-.38.774.774 0 0 1-.08-.61c.06-.21.19-.38.38-.49.19-.11.41-.14.61-.08.21.08.5.16.79.23zm43.29 74.98a.933.933 0 0 1 1.71-.22c.51.89 1.09 1.89 1.46 2.54.11.19.28.32.49.38.21.06.43.03.61-.08.19-.11.32-.28.38-.49.06-.21.03-.43-.08-.61-.37-.65-.95-1.65-1.46-2.54a.923.923 0 0 1 .07-1.03c.23-.3.61-.43.98-.33.29.08.58.16.83.22.21.06.43.03.61-.08.19-.11.32-.28.38-.49.06-.21.03-.43-.08-.61a.812.812 0 0 0-.49-.38l-4.24-1.14a.743.743 0 0 1-.47-.36.892.892 0 0 1 .07-1c.22-.29.6-.42.95-.32.32.08.62.17.88.24.21.06.43.03.61-.08.19-.11.32-.28.38-.49.06-.21.03-.43-.08-.61a.85.85 0 0 0-.49-.38c-1.23-.33-3.56-.95-4.31-1.16a.592.592 0 0 1-.36-.28.896.896 0 0 1 .06-.98c.22-.28.58-.41.93-.32.33.09.66.18.94.25.21.06.43.03.61-.08.19-.11.32-.28.38-.49.06-.21.03-.43-.08-.61a.812.812 0 0 0-.49-.38l-4.18-1.12a.901.901 0 0 1-.56-.43c-.44-.76-1.52-2.64-2.12-3.67a.812.812 0 0 0-.49-.38.764.764 0 0 0-.61.08c-.19.11-.32.28-.38.49-.06.21-.03.43.08.61.59 1.03 1.68 2.91 2.12 3.67.12.21.16.47.09.7-.23.86-.81 3.01-1.12 4.18-.06.21-.03.43.08.61.11.19.28.32.49.38.21.06.43.03.61-.08.19-.11.32-.28.38-.49.07-.28.16-.6.25-.94.09-.34.38-.6.74-.65.35-.05.7.12.88.43.08.14.1.3.06.45-.2.75-.83 3.08-1.16 4.31-.06.21-.03.43.08.61.11.19.28.32.49.38.21.06.43.03.61-.08.19-.11.32-.28.38-.49.07-.26.15-.57.24-.88a.9.9 0 0 1 .76-.66c.36-.05.72.13.9.44.1.18.13.39.08.59l-1.14 4.24c-.06.21-.03.43.08.61.11.19.28.32.49.38.21.06.43.03.61-.08.19-.11.32-.28.38-.49.02-.23.1-.52.18-.81zm-39.14 0a.933.933 0 0 0-1.71-.22c-.51.89-1.09 1.89-1.46 2.54-.11.19-.28.32-.49.38-.21.06-.43.03-.61-.08a.812.812 0 0 1-.38-.49.764.764 0 0 1 .08-.61c.37-.65.95-1.65 1.46-2.54.19-.33.16-.73-.07-1.03a.92.92 0 0 0-.98-.33c-.29.08-.58.16-.83.22-.21.06-.43.03-.61-.08a.812.812 0 0 1-.38-.49.764.764 0 0 1 .08-.61c.11-.19.28-.32.49-.38l4.24-1.14c.2-.05.37-.18.47-.36.18-.32.16-.71-.07-1a.892.892 0 0 0-.95-.32c-.32.08-.62.17-.88.24-.21.06-.43.03-.61-.08a.812.812 0 0 1-.38-.49.764.764 0 0 1 .08-.61c.11-.19.28-.32.49-.38 1.23-.33 3.56-.95 4.31-1.16.15-.04.28-.14.36-.28.18-.31.15-.69-.06-.98a.896.896 0 0 0-.93-.32c-.33.09-.66.18-.94.25-.21.06-.43.03-.61-.08a.812.812 0 0 1-.38-.49.764.764 0 0 1 .08-.61c.11-.19.28-.32.49-.38 1.17-.31 3.32-.89 4.18-1.12.24-.06.44-.22.56-.43.44-.76 1.52-2.64 2.12-3.67.11-.19.28-.32.49-.38.21-.06.43-.03.61.08.19.11.32.28.38.49.06.21.03.43-.08.61-.59 1.03-1.68 2.91-2.12 3.67-.12.21-.16.47-.09.7.23.86.81 3.01 1.12 4.18.06.21.03.43-.08.61-.11.19-.28.32-.49.38-.21.06-.43.03-.61-.08a.812.812 0 0 1-.38-.49c-.07-.28-.16-.6-.25-.94a.89.89 0 0 0-.74-.65c-.35-.05-.7.12-.88.43-.08.14-.1.3-.06.45.2.75.83 3.08 1.16 4.31.06.21.03.43-.08.61-.11.19-.28.32-.49.38-.21.06-.43.03-.61-.08a.812.812 0 0 1-.38-.49c-.07-.26-.15-.57-.24-.88a.9.9 0 0 0-.76-.66.907.907 0 0 0-.9.44.81.81 0 0 0-.08.59l1.14 4.24c.06.21.03.43-.08.61-.11.19-.28.32-.49.38-.21.06-.43.03-.61-.08a.812.812 0 0 1-.38-.49c-.03-.23-.1-.52-.18-.81zm43.28-74.98c-.36.1-.75-.03-.98-.33-.23-.3-.26-.7-.07-1.03.51-.89 1.09-1.89 1.46-2.54.11-.19.14-.41.08-.61a.812.812 0 0 0-.38-.49.774.774 0 0 0-.61-.08c-.21.06-.38.19-.49.38-.37.65-.95 1.65-1.46 2.54-.19.33-.55.51-.93.46a.945.945 0 0 1-.78-.68c-.08-.29-.16-.58-.22-.83a.812.812 0 0 0-.38-.49.774.774 0 0 0-.61-.08c-.21.06-.38.19-.49.38-.11.19-.14.41-.08.61l1.14 4.24c.05.2.03.41-.08.59a.89.89 0 0 1-.9.44.925.925 0 0 1-.76-.66c-.08-.32-.17-.62-.24-.88a.812.812 0 0 0-.38-.49.774.774 0 0 0-.61-.08c-.21.06-.38.19-.49.38-.11.19-.14.41-.08.61.33 1.23.95 3.56 1.16 4.31.04.15.02.32-.06.45-.18.31-.53.48-.88.43a.901.901 0 0 1-.74-.65c-.09-.33-.18-.66-.25-.94a.812.812 0 0 0-.38-.49.774.774 0 0 0-.61-.08c-.21.06-.38.19-.49.38-.11.19-.14.41-.08.61.31 1.17.89 3.32 1.12 4.18.06.24.03.49-.09.7-.44.76-1.52 2.64-2.12 3.67-.11.19-.14.41-.08.61.06.21.19.38.38.49.19.11.41.14.61.08.21-.06.38-.19.49-.38.59-1.03 1.68-2.91 2.12-3.67.12-.21.33-.37.56-.43.86-.23 3.01-.81 4.18-1.12.21-.06.38-.19.49-.38.11-.19.14-.41.08-.61a.812.812 0 0 0-.38-.49.774.774 0 0 0-.61-.08c-.28.07-.6.16-.94.25a.896.896 0 0 1-.93-.31.876.876 0 0 1-.06-.98c.08-.14.21-.24.36-.28.75-.2 3.08-.83 4.31-1.16.21-.06.38-.19.49-.38.11-.19.14-.41.08-.61a.812.812 0 0 0-.38-.49.774.774 0 0 0-.61-.08c-.26.07-.57.15-.88.24a.91.91 0 0 1-.95-.32.912.912 0 0 1-.07-1c.1-.18.27-.31.47-.36l4.24-1.14c.21-.06.38-.19.49-.38.11-.19.14-.41.08-.61a.812.812 0 0 0-.38-.49.774.774 0 0 0-.61-.08c-.21.08-.49.16-.79.23zm-67 38.69a.91.91 0 0 0 .2-1.01.921.921 0 0 0-.85-.58H.81c-.21 0-.42-.08-.57-.24a.802.802 0 0 1-.24-.57.82.82 0 0 1 .81-.81h2.93c.38 0 .71-.23.86-.57.14-.35.06-.75-.2-1.01l-.6-.6a.82.82 0 0 1-.24-.57.82.82 0 0 1 .81-.81c.21 0 .42.09.57.24l3.1 3.1c.15.15.34.23.55.23a.905.905 0 0 0 .64-1.55l-.65-.65a.82.82 0 0 1-.24-.57c0-.21.08-.42.24-.57a.82.82 0 0 1 .57-.24c.21 0 .42.09.57.24l3.16 3.16c.11.11.26.17.42.17.36 0 .68-.21.81-.54.13-.33.06-.71-.19-.96l-.68-.68a.779.779 0 0 1-.24-.57.82.82 0 0 1 .81-.81c.21 0 .42.09.57.24l3.06 3.06c.17.17.41.27.66.27h4.23c.21 0 .42.08.57.24.15.15.24.36.24.57 0 .21-.08.42-.24.57a.82.82 0 0 1-.57.24H18.1a3790820744078716 3790820744078716 0 0 0-4.29 3.57c-.21 0-.42-.08-.57-.24a.801.801 0 0 1-.24-.58c0-.21.09-.42.24-.57l.68-.68a.877.877 0 0 0-.62-1.5.59.59 0 0 0-.42.17l-3.16 3.16a.82.82 0 0 1-.57.24c-.21 0-.42-.08-.57-.24a.82.82 0 0 1-.24-.57c0-.21.08-.42.24-.57l.65-.65a.905.905 0 1 0-.64-1.55c-.21 0-.4.08-.55.23l-3.1 3.1a.82.82 0 0 1-.57.24c-.21 0-.42-.08-.57-.24a.82.82 0 0 1-.24-.57c0-.21.09-.42.24-.57.17-.18.38-.39.59-.6zm86.57 0a.91.91 0 0 1-.2-1.01c.14-.35.48-.57.86-.57h2.93c.21 0 .42-.08.57-.24a.82.82 0 0 0 .24-.57c0-.21-.08-.42-.24-.57a.82.82 0 0 0-.57-.24h-2.93c-.38 0-.71-.23-.86-.57a.939.939 0 0 1 .2-1.01l.6-.6a.82.82 0 0 0 .24-.57c0-.21-.08-.42-.24-.57a.82.82 0 0 0-.57-.24.82.82 0 0 0-.57.24l-3.1 3.1c-.15.15-.34.23-.55.23a.905.905 0 0 1-.64-1.55l.65-.65a.82.82 0 0 0 .24-.57c0-.21-.08-.42-.24-.57a.82.82 0 0 0-.57-.24.82.82 0 0 0-.57.24l-3.16 3.16a.59.59 0 0 1-.42.17.86.86 0 0 1-.81-.54.877.877 0 0 1 .19-.96l.68-.68a.82.82 0 0 0 .24-.57c0-.21-.08-.42-.24-.57a.82.82 0 0 0-.57-.24.82.82 0 0 0-.57.24l-3.06 3.06c-.17.17-.41.27-.66.27h-4.23c-.21 0-.42.08-.57.24a.82.82 0 0 0-.24.57c0 .21.08.42.24.57.15.15.36.24.57.24h4.23c.25 0 .48.1.66.27l3.06 3.06c.15.15.36.24.57.24.21 0 .42-.08.57-.24a.82.82 0 0 0 .24-.57c0-.21-.08-.42-.24-.57l-.68-.68a.877.877 0 0 1 .62-1.5c.16 0 .31.06.42.17l3.16 3.16c.15.15.36.24.57.24.21 0 .42-.08.57-.24a.82.82 0 0 0 .24-.57c0-.21-.08-.42-.24-.57l-.65-.65a.905.905 0 1 1 .64-1.55c.21 0 .4.08.55.23l3.1 3.1c.15.15.36.24.57.24.21 0 .42-.08.57-.24a.82.82 0 0 0 .24-.57c0-.21-.08-.42-.24-.57-.17-.2-.38-.41-.6-.62zm28.16-5.03c.29-.07.49-.33.49-.63v-5.9c0-.1-.02-.2-.07-.3-.82-1.6-8.4-16.42-10.41-20.34a.69.69 0 0 1 .02-.64c.12-.19.33-.31.56-.31h6.4c.26 0 .49.15.59.38.84 1.86 4.53 10 5.99 13.22a.65.65 0 0 0 1.18 0c1.46-3.21 5.14-11.36 5.98-13.22a.66.66 0 0 1 .59-.38h6.4c.23 0 .44.12.56.31.12.19.13.43.02.64-2.01 3.92-9.59 18.75-10.41 20.34-.05.09-.07.19-.07.3v5.69c0 .31.22.57.52.64 1.01.22 1.95.53 2.84.94 1.87.87 3.33 2.09 4.36 3.66.91 1.39 1.42 2.97 1.52 4.72.01.18-.05.35-.18.48-.12.13-.29.2-.47.2h-5.93c-.34 0-.62-.26-.65-.59-.1-1.14-.54-2.07-1.31-2.79-.9-.84-2.22-1.26-3.95-1.26-1.11 0-2.05.16-2.82.48-.78.32-1.36.76-1.75 1.33-.39.56-.59 1.19-.59 1.88 0 1.03.53 1.9 1.59 2.62 1.06.72 2.7 1.42 4.93 2.11 3.76 1.15 6.56 2.59 8.4 4.32 1.84 1.73 2.75 3.94 2.75 6.65 0 1.95-.5 3.63-1.5 5.04-1 1.41-2.42 2.48-4.25 3.21-1.84.74-3.99 1.11-6.46 1.11-2.37 0-4.59-.41-6.67-1.22s-3.77-2.06-5.08-3.74c-1.18-1.52-1.83-3.36-1.94-5.51-.01-.18.06-.35.18-.48s.29-.2.47-.2h5.97c.34 0 .63.26.65.61.1 1.61.65 2.79 1.65 3.55 1.11.85 2.71 1.28 4.78 1.28 1.64 0 2.88-.33 3.72-.99.84-.66 1.26-1.53 1.26-2.6 0-.8-.17-1.47-.51-2-.34-.54-.96-1.05-1.87-1.54-.91-.49-2.24-1.02-4.01-1.59-2.27-.74-4.23-1.56-5.87-2.45-1.64-.9-2.95-2.02-3.93-3.38-.98-1.35-1.47-2.96-1.47-4.82 0-1.86.53-3.5 1.6-4.92s2.55-2.52 4.44-3.3c.54-.25 1.14-.45 1.76-.61z" fill="#27235E"/><path d="M123.5.027c23.12.22 45.17 16.63 51.69 39.04 5.27 18.12.2 38.87-12.82 52.53-10.1 10.59-24.49 16.76-39.22 16.81H63.19v-4c20.1 0 40.19.06 60.29 0 21.5-.2 41.87-15.5 47.88-36.16 4.88-16.78.19-36-11.88-48.66-9.34-9.79-22.64-15.53-36.33-15.57H63.19v-4c20.1.01 40.21-.05 60.31.01z" fill="#27235E"/></svg>