<svg width="109" height="200" viewBox="0 0 109 200" fill="none" xmlns="http://www.w3.org/2000/svg"><path d="M24.578 116.471h4.282l-5.956 11.644v6.585h-3.986v-6.585l-5.957-11.644h4.282l3.672 8.103 3.663-8.103zm19.598 15.063v3.166H31.869v-18.229h12.29v3.184h-8.356v4.143h7.117v3.061h-7.117v4.675h8.373zm9.507-4.431c-1.239-.401-2.294-.846-3.184-1.334-.89-.489-1.596-1.099-2.137-1.832-.532-.733-.802-1.605-.802-2.616 0-1.012.288-1.902.872-2.669.576-.777 1.387-1.37 2.407-1.788 1.03-.419 2.198-.628 3.515-.628 1.326 0 2.504.235 3.515.706 1.02.471 1.806 1.134 2.364 1.989.558.854.837 1.831.837 2.939h-3.916c0-.768-.244-1.378-.733-1.832-.488-.453-1.203-.68-2.145-.68-.602 0-1.108.087-1.535.262-.419.174-.742.418-.95.724a1.77 1.77 0 0 0-.323 1.02c0 .558.287 1.029.863 1.422.576.384 1.465.767 2.677 1.142 2.041.628 3.568 1.405 4.562 2.347.994.941 1.5 2.145 1.5 3.61 0 1.064-.27 1.971-.811 2.739-.54.768-1.308 1.343-2.311 1.744-.995.402-2.172.602-3.515.602-1.282 0-2.495-.218-3.62-.663-1.134-.444-2.05-1.116-2.756-2.032-.706-.916-1.064-2.032-1.064-3.358h3.942c0 1.047.306 1.797.907 2.259.602.462 1.474.698 2.6.698.89 0 1.57-.183 2.023-.541.454-.357.68-.828.68-1.413 0-.436-.096-.793-.279-1.09-.183-.288-.523-.576-1.011-.837-.489-.297-1.213-.585-2.172-.89zm25.18-7.448h-5.565V134.7h-3.916v-15.045h-5.469v-3.184h14.95v3.184zm15.795 11.879v3.166H82.36v-18.229h12.288v3.184h-8.364v4.143h7.126v3.061h-7.126v4.675h8.373zm-76.211 19.039h2.956c.934 0 1.64-.235 2.129-.697.488-.471.723-1.108.723-1.928 0-.837-.235-1.483-.723-1.954-.48-.471-1.195-.697-2.137-.697h-2.957v5.276h.009zm10.405 9.568v.192h-4.204l-3.358-6.585h-2.843v6.585h-3.934v-18.229h6.882c1.413 0 2.625.21 3.637.628 1.011.419 1.788 1.047 2.337 1.867.54.82.811 1.823.811 3.009 0 1.291-.279 2.355-.837 3.175-.558.82-1.36 1.474-2.407 1.945l3.916 7.413zm13.606-9.35c0-1.805-.375-3.174-1.117-4.108-.74-.933-1.831-1.404-3.253-1.404h-1.753v11.879h1.727c1.43 0 2.512-.471 3.27-1.421.75-.951 1.126-2.32 1.126-4.126v-.82zm-4.37-8.687c1.631 0 3.07.367 4.335 1.099a7.626 7.626 0 0 1 2.957 3.079c.706 1.326 1.064 2.835 1.064 4.536v.802c0 1.709-.358 3.227-1.064 4.544a7.618 7.618 0 0 1-2.966 3.07c-1.264.733-2.721 1.099-4.352 1.099h-5.66v-18.229h5.686zm20.383 11.435l-2.19-6.646-2.18 6.646h4.37zm1.055 3.175h-6.463l-1.186 3.619H47.7l6.759-18.229h3.654l6.795 18.229h-4.195l-1.187-3.619zm15.892-14.61H79.7l-5.957 11.644v6.585h-3.977v-6.585L63.8 142.104h4.282l3.672 8.103 3.664-8.103zm11.486 10.633c-1.238-.402-2.294-.846-3.183-1.335-.89-.488-1.596-1.099-2.137-1.831-.532-.733-.803-1.605-.803-2.617s.288-1.901.873-2.669c.584-.776 1.386-1.369 2.407-1.788 1.03-.419 2.198-.628 3.515-.628 1.326 0 2.494.236 3.515.707 1.02.471 1.805 1.133 2.363 1.988.559.855.838 1.832.838 2.939h-3.916c0-.767-.245-1.378-.733-1.831-.489-.454-1.204-.68-2.146-.68-.602 0-1.116.087-1.535.261-.418.175-.741.419-.95.724-.21.305-.323.646-.323 1.021 0 .558.288 1.029.863 1.421.576.384 1.466.768 2.678 1.143 2.05.628 3.567 1.404 4.561 2.346.995.942 1.492 2.146 1.492 3.611 0 1.064-.27 1.971-.811 2.738-.541.768-1.308 1.344-2.311 1.745-.995.401-2.172.602-3.515.602-1.282 0-2.495-.218-3.62-.663-1.134-.445-2.05-1.117-2.756-2.032-.706-.916-1.064-2.033-1.064-3.358h3.942c0 1.046.305 1.796.907 2.259.602.462 1.474.697 2.6.697.889 0 1.57-.183 2.023-.54.453-.358.68-.829.68-1.413 0-.436-.096-.794-.279-1.091-.183-.287-.523-.575-1.012-.837-.48-.296-1.203-.584-2.163-.889zM20.488 178.37c-1.239-.401-2.294-.846-3.184-1.334-.89-.489-1.596-1.099-2.137-1.832-.532-.733-.802-1.605-.802-2.617 0-1.011.288-1.901.872-2.668.584-.768 1.387-1.37 2.407-1.788 1.03-.419 2.198-.628 3.515-.628 1.326 0 2.503.235 3.515.706 1.02.471 1.806 1.134 2.364 1.989.558.854.837 1.831.837 2.939h-3.916c0-.768-.244-1.378-.733-1.832-.488-.453-1.203-.68-2.145-.68-.602 0-1.108.087-1.535.262-.419.174-.742.418-.951.724a1.77 1.77 0 0 0-.323 1.02c0 .558.288 1.029.864 1.422.575.383 1.465.767 2.677 1.142 2.041.628 3.568 1.404 4.562 2.346.994.942 1.5 2.146 1.5 3.611 0 1.064-.27 1.971-.811 2.739-.54.767-1.308 1.343-2.311 1.744-.995.401-2.172.602-3.515.602a9.85 9.85 0 0 1-3.629-.663c-1.134-.445-2.05-1.116-2.756-2.032-.706-.916-1.064-2.032-1.064-3.358h3.943c0 1.047.305 1.797.907 2.259.601.462 1.474.698 2.599.698.89 0 1.57-.183 2.023-.541.454-.358.68-.829.68-1.413 0-.436-.095-.794-.279-1.09-.183-.288-.523-.576-1.011-.837-.48-.288-1.204-.576-2.163-.89zm23.967 7.597l-7.09-11.749v11.749H33.44v-18.22h3.924l7.091 11.748v-11.748h3.916v18.22h-3.916zm21.273-9.525c0-1.849-.332-3.27-1.003-4.247-.672-.977-1.614-1.474-2.844-1.474-1.238 0-2.18.488-2.843 1.465-.663.977-.986 2.399-.986 4.256v.811c0 1.841.332 3.262 1.003 4.257.672.994 1.623 1.491 2.852 1.491 1.23 0 2.172-.497 2.826-1.491.663-.995.986-2.416.986-4.257v-.811h.009zm3.977.811c0 1.823-.332 3.402-.986 4.754-.654 1.352-1.57 2.39-2.747 3.114-1.178.723-2.53 1.09-4.064 1.09-1.536 0-2.896-.367-4.082-1.09-1.187-.724-2.111-1.762-2.765-3.114-.663-1.352-.986-2.939-.986-4.754v-.784c0-1.823.332-3.411.986-4.763.663-1.351 1.578-2.398 2.756-3.122 1.177-.724 2.53-1.09 4.064-1.09 1.535 0 2.896.366 4.073 1.09 1.178.724 2.102 1.771 2.757 3.122.662 1.352.985 2.948.985 4.763v.784h.009zm25.11-9.506l-3.995 18.22h-3.986l-2.826-11.836-2.817 11.836h-3.977l-4.012-18.22h3.908l2.363 12.664 2.87-12.664h3.331l2.879 12.664 2.355-12.664h3.907z" fill="#27235E"/><path fill-rule="evenodd" clip-rule="evenodd" d="M50.177 94.841a.865.865 0 0 0-.873-.427.845.845 0 0 0-.706.662 5.607 5.607 0 0 0-.122 1.152c0 2.32 3.523 6.428 4.998 8.041a.855.855 0 0 0 .636.288c.244 0 .48-.105.637-.288 1.474-1.613 4.998-5.721 4.998-8.041 0-.393-.044-.776-.131-1.151a.857.857 0 0 0-.698-.655.846.846 0 0 0-.864.419 30.017 30.017 0 0 1-3.314 4.605.865.865 0 0 1-1.256 0 28.94 28.94 0 0 1-3.305-4.605zm3.933 1.945c.079-.079 2.399-2.407 3.532-5.678a.862.862 0 0 1 .55-.55.835.835 0 0 1 .767.131 9.024 9.024 0 0 0 2.678 1.326.345.345 0 0 0 .428-.227 9.144 9.144 0 0 0-.62-6.419.385.385 0 0 0-.244-.192h-.009a12.579 12.579 0 0 1-1.474-.462 7.576 7.576 0 0 1-.61-.262c-.079-.035-.157-.078-.244-.113l-.027-.017-.06-.027c-.01 0-.018-.008-.027-.017l-.105-.052a9.692 9.692 0 0 1-.174.453 14.34 14.34 0 0 1-1.5 2.73c-.244.349-.497.69-.768 1.02-.218.262-.436.524-.671.768-.026.026-.026.035-.061.061l-.009.009-.741.741a.858.858 0 0 1-.61.253.858.858 0 0 1-.611-.253l-.742-.741-.008-.009a12.237 12.237 0 0 1-.637-.706 15.8 15.8 0 0 1-1.37-1.928 13.674 13.674 0 0 1-1.116-2.268.172.172 0 0 0-.078-.078c-.035-.017-.079-.009-.114.009a11.636 11.636 0 0 1-2.206.828.853.853 0 0 0-.567.471 9.157 9.157 0 0 0-.506 6.193v.008a.344.344 0 0 0 .166.201.324.324 0 0 0 .252.026 9.167 9.167 0 0 0 2.678-1.334.833.833 0 0 1 .768-.122.843.843 0 0 1 .55.55c1.142 3.279 3.462 5.599 3.54 5.677 0 .009 0 .009 0 0zm.018-23.41l-.01-.008-.008.009v-.01c-5.46.01-9.89 4.44-9.89 9.9v.009c0 .096.043.192.113.253.07.07.166.105.262.096a9.796 9.796 0 0 0 5.128-1.666.842.842 0 0 1 1.317.532c.488 2.085 1.683 3.803 2.433 4.718a.85.85 0 0 0 1.29 0c.751-.924 1.955-2.642 2.443-4.718a.826.826 0 0 1 .515-.62.852.852 0 0 1 .802.097 9.892 9.892 0 0 0 5.129 1.657.403.403 0 0 0 .261-.096.358.358 0 0 0 .114-.253v-.009c0-5.46-4.43-9.9-9.89-9.9l-.01.01zm.453-2.328a.47.47 0 0 0 .471-.471v-6.08a.47.47 0 0 0-.47-.47h-.934a.469.469 0 0 0-.471.47v6.08c0 .262.21.47.47.47h.934zm28.59-33.361a.865.865 0 0 1-.802-.54.847.847 0 0 1 .218-.943c.288-.253.593-.48.933-.68 2.015-1.16 7.326-.157 9.463.305a.851.851 0 0 1 .637 1.108c-.663 2.084-2.45 7.187-4.466 8.347-.34.2-.697.349-1.064.462a.844.844 0 1 1-.986-1.23 29.44 29.44 0 0 0 2.33-5.172.848.848 0 0 0-.079-.68.845.845 0 0 0-.55-.41 28.103 28.103 0 0 0-5.634-.567zm3.663 2.433c-.026.114-.88 3.28-3.148 5.896a.84.84 0 0 0-.2.75c.06.27.243.489.496.602a9.43 9.43 0 0 1 2.495 1.657.345.345 0 0 1 .105.236.375.375 0 0 1-.096.244 9.166 9.166 0 0 1-5.87 2.678.369.369 0 0 1-.288-.114s0-.009-.009-.009a10.669 10.669 0 0 0-1.142-1.037 12.01 12.01 0 0 0-.532-.402 3.21 3.21 0 0 0-.218-.148l-.027-.017-.052-.035c-.009-.009-.017-.009-.026-.018-.035-.017-.061-.043-.096-.06a14.82 14.82 0 0 0 1.919-3.044c.183-.384.349-.777.497-1.178.122-.323.227-.637.323-.968.008-.035.008-.044.026-.079v-.008c.017-.053.148-.55.27-1.012a.861.861 0 0 0-.61-1.056c-.471-.122-.968-.261-1.012-.27h-.009c-.305-.078-.62-.14-.933-.2-.401-.07-.803-.123-1.212-.166a16.434 16.434 0 0 0-1.143-.07 13.566 13.566 0 0 0-2.52.166.114.114 0 0 1-.105-.026.208.208 0 0 1-.052-.096c-.018-.28-.044-.55-.079-.82a10.9 10.9 0 0 0-.305-1.5.855.855 0 0 1 .122-.724 9.175 9.175 0 0 1 5.11-3.541h.01a.325.325 0 0 1 .252.043.308.308 0 0 1 .149.21 9.157 9.157 0 0 1 .183 2.991.87.87 0 0 0 .27.733c.2.183.48.261.75.2 3.42-.689 6.594.157 6.707.192zM66.556 51.842c-.009 0-.017-.008-.017-.008s0-.009.008-.018l-.008.009c-2.721-4.736-1.1-10.789 3.628-13.519h.009a.385.385 0 0 1 .279-.026.361.361 0 0 1 .218.174 9.944 9.944 0 0 1 1.125 5.277.838.838 0 0 0 .323.741.879.879 0 0 0 .802.14c2.05-.62 4.134-.436 5.312-.253a.822.822 0 0 1 .575.41.872.872 0 0 1 .07.706c-.418 1.108-1.308 3.01-2.87 4.475a.826.826 0 0 0-.279.759.855.855 0 0 0 .48.645 9.955 9.955 0 0 1 4.004 3.62c.052.078.07.183.043.27a.364.364 0 0 1-.166.227h-.008c-4.728 2.73-10.79 1.107-13.52-3.62l-.008-.009zm-1.788 1.553a.462.462 0 0 1-.174.637l-5.268 3.035a.462.462 0 0 1-.637-.175l-.47-.81a.46.46 0 0 1 .173-.638l5.277-3.026a.462.462 0 0 1 .637.175l.462.802zM21.116 73.516a.872.872 0 0 0-.07-.968.856.856 0 0 0-.925-.288c-.357.122-.715.27-1.055.471-2.015 1.16-3.803 6.262-4.466 8.347a.852.852 0 0 0 .637 1.108c2.137.47 7.457 1.473 9.463.305.34-.2.654-.427.925-.69a.867.867 0 0 0 .218-.932.842.842 0 0 0-.794-.532 28.812 28.812 0 0 1-5.643-.576.845.845 0 0 1-.55-.41.848.848 0 0 1-.078-.68 29.597 29.597 0 0 1 2.338-5.155zm.279 4.387c.113.035 3.279.872 6.68.218.27-.06.55.018.75.2a.84.84 0 0 1 .271.725 9.109 9.109 0 0 0 .192 2.983.336.336 0 0 0 .148.209.368.368 0 0 0 .253.043 9.165 9.165 0 0 0 5.25-3.741.343.343 0 0 0 .044-.305v-.01a12.963 12.963 0 0 1-.331-1.508 8.55 8.55 0 0 1-.079-.663l-.026-.261v-.131c0-.035 0-.079-.009-.114l-.48.079c-1.029.14-2.075.148-3.113.06a15.848 15.848 0 0 1-2.276-.357c-.044-.008-.044-.008-.079-.017h-.009c-.052-.018-.55-.148-1.011-.27a.863.863 0 0 1-.61-1.056c.121-.47.26-.968.27-1.012v-.008c.087-.306.183-.61.296-.907.14-.384.297-.76.462-1.126a13.9 13.9 0 0 1 .515-1.02c.401-.741.872-1.448 1.404-2.102.026-.026.035-.07.026-.105a.166.166 0 0 0-.06-.096 11.855 11.855 0 0 1-1.824-1.491.856.856 0 0 0-.689-.253 9.169 9.169 0 0 0-5.616 2.66l-.01.009a.337.337 0 0 0-.095.235c0 .088.043.175.105.236a9.281 9.281 0 0 0 2.494 1.657.866.866 0 0 1 .497.602.84.84 0 0 1-.2.75c-2.26 2.599-3.114 5.774-3.14 5.887zm20.287-11.705c0-.008.008-.017.008-.017h-.017l.009-.009c-2.74-4.727-8.792-6.34-13.52-3.62h-.008a.4.4 0 0 0-.166.227.326.326 0 0 0 .044.27 9.871 9.871 0 0 0 4.003 3.612.833.833 0 0 1 .48.654.856.856 0 0 1-.28.759c-1.56 1.465-2.45 3.358-2.869 4.474a.87.87 0 0 0 .061.706.821.821 0 0 0 .576.41c1.169.192 3.262.367 5.312-.244a.839.839 0 0 1 .793.131.838.838 0 0 1 .323.741 9.96 9.96 0 0 0 1.125 5.277.34.34 0 0 0 .218.174.386.386 0 0 0 .28-.026h.008c4.727-2.73 6.358-8.783 3.628-13.519h-.008zm2.232-.767a.47.47 0 0 0 .637.174l5.268-3.044a.471.471 0 0 0 .174-.636l-.47-.811a.472.472 0 0 0-.637-.175l-5.268 3.044a.471.471 0 0 0-.175.637l.471.81zm43.191 8.085a.872.872 0 0 1 .07-.968.856.856 0 0 1 .924-.288c.358.122.715.27 1.055.471 2.015 1.16 3.803 6.262 4.466 8.347a.852.852 0 0 1-.637 1.108c-2.136.47-7.457 1.473-9.463.305-.34-.2-.654-.427-.924-.69a.867.867 0 0 1-.218-.932.842.842 0 0 1 .793-.532 28.86 28.86 0 0 0 5.643-.576.845.845 0 0 0 .55-.41.848.848 0 0 0 .078-.68 28.315 28.315 0 0 0-2.337-5.155zm-.28 4.387c-.113.035-3.279.872-6.68.218a.839.839 0 0 0-.75.2.84.84 0 0 0-.27.725c.095.976.043 1.98-.192 2.983a.336.336 0 0 1-.149.209c-.078.043-.166.06-.253.043a9.165 9.165 0 0 1-5.25-3.741.344.344 0 0 1-.044-.305v-.01c.14-.496.253-1.002.332-1.508a8.55 8.55 0 0 0 .078-.663l.026-.261v-.131c0-.035 0-.079.009-.114l.48.079c1.029.14 2.075.148 3.113.06a15.848 15.848 0 0 0 2.277-.357c.043-.008.043-.008.078-.017h.009c.052-.018.55-.148 1.012-.27a.864.864 0 0 0 .61-1.056c-.122-.47-.261-.968-.27-1.012v-.008c-.087-.306-.183-.61-.297-.907-.14-.384-.296-.76-.462-1.126a13.926 13.926 0 0 0-.515-1.02 13.567 13.567 0 0 0-1.404-2.102c-.026-.026-.035-.07-.026-.105a.166.166 0 0 1 .061-.096 11.82 11.82 0 0 0 1.823-1.491.856.856 0 0 1 .689-.253 9.169 9.169 0 0 1 5.617 2.66l.009.009a.337.337 0 0 1 .096.235.346.346 0 0 1-.105.236 9.281 9.281 0 0 1-2.495 1.657.866.866 0 0 0-.497.602c-.06.27.018.55.2.75 2.26 2.599 3.115 5.774 3.14 5.887.01 0 .01 0 0 0zM66.548 66.198c0-.008-.008-.017-.008-.017h.017l-.008-.009c2.738-4.727 8.791-6.34 13.518-3.62h.009a.4.4 0 0 1 .166.227.326.326 0 0 1-.044.27 9.87 9.87 0 0 1-4.003 3.612.834.834 0 0 0-.48.654.856.856 0 0 0 .28.759c1.56 1.465 2.45 3.358 2.869 4.474a.87.87 0 0 1-.061.706.821.821 0 0 1-.576.41c-1.169.192-3.262.367-5.312-.244a.839.839 0 0 0-.793.131.838.838 0 0 0-.323.741 9.887 9.887 0 0 1-1.134 5.277.339.339 0 0 1-.218.174.386.386 0 0 1-.279-.026h-.009c-4.727-2.73-6.358-8.783-3.628-13.519h.017zm-2.241-.767a.471.471 0 0 1-.637.174l-5.268-3.044a.471.471 0 0 1-.174-.636l.47-.811a.471.471 0 0 1 .637-.175l5.269 3.044a.473.473 0 0 1 .174.637l-.471.81zM25.05 37.687a.865.865 0 0 0 .802-.54.847.847 0 0 0-.219-.943 6.097 6.097 0 0 0-.933-.68c-2.015-1.16-7.326-.157-9.463.305a.879.879 0 0 0-.567.41.848.848 0 0 0-.07.698c.663 2.084 2.451 7.187 4.466 8.347.34.2.698.349 1.064.462a.844.844 0 1 0 .986-1.23 29.44 29.44 0 0 1-2.33-5.172.848.848 0 0 1 .08-.68.845.845 0 0 1 .549-.41 28.103 28.103 0 0 1 5.634-.567zm-3.655 2.433c.026.114.88 3.28 3.148 5.896.183.2.262.48.2.75a.866.866 0 0 1-.496.602 9.43 9.43 0 0 0-2.495 1.657.346.346 0 0 0-.104.236.37.37 0 0 0 .096.244 9.166 9.166 0 0 0 5.87 2.678.369.369 0 0 0 .287-.114s0-.009.009-.009c.357-.375.741-.723 1.142-1.037.175-.14.35-.27.532-.402a3.21 3.21 0 0 1 .218-.148l.027-.017.052-.035c.009-.009.017-.009.026-.018.035-.017.061-.043.096-.06a14.82 14.82 0 0 1-1.919-3.044 14 14 0 0 1-.497-1.178 12.579 12.579 0 0 1-.323-.968c-.008-.035-.008-.044-.026-.079v-.008c-.017-.053-.148-.55-.27-1.012a.861.861 0 0 1 .61-1.056c.471-.122.969-.261 1.012-.27h.009c.305-.078.62-.14.933-.2.401-.07.802-.123 1.212-.166.384-.035.76-.061 1.143-.07a13.55 13.55 0 0 1 2.52.166c.036.009.08 0 .105-.026a.209.209 0 0 0 .053-.096 10.884 10.884 0 0 1 .384-2.32.855.855 0 0 0-.123-.724 9.175 9.175 0 0 0-5.11-3.541h-.01a.325.325 0 0 0-.252.043.306.306 0 0 0-.149.21 9.157 9.157 0 0 0-.183 2.991.87.87 0 0 1-.27.733.839.839 0 0 1-.75.2c-3.428-.689-6.603.157-6.707.192zm20.27 11.722c.008 0 .017-.008.017-.008s0-.009-.01-.018l.01.009c2.72-4.736 1.099-10.789-3.629-13.519h-.008a.385.385 0 0 0-.28-.026.361.361 0 0 0-.218.174 9.944 9.944 0 0 0-1.125 5.277.838.838 0 0 1-.322.741.879.879 0 0 1-.803.14c-2.05-.62-4.134-.436-5.311-.253a.822.822 0 0 0-.576.41.872.872 0 0 0-.07.706c.419 1.108 1.308 3.01 2.87 4.475a.826.826 0 0 1 .279.759.853.853 0 0 1-.48.645 9.955 9.955 0 0 0-4.003 3.62.332.332 0 0 0-.044.27.364.364 0 0 0 .166.227h.009c4.727 2.73 10.788 1.107 13.518-3.62l.01-.009zm1.787 1.553a.462.462 0 0 0 .175.637l5.267 3.035c.227.13.506.052.637-.175l.471-.81a.46.46 0 0 0-.174-.638L44.56 52.41a.462.462 0 0 0-.637.175l-.47.81zm-9.995-26.157a.808.808 0 0 0 .855-.288c.2-.261.226-.61.06-.898-.444-.767-.941-1.64-1.273-2.198a.667.667 0 0 1-.07-.532.728.728 0 0 1 .323-.427.703.703 0 0 1 .96.253c.322.567.82 1.43 1.273 2.198.166.287.48.444.811.4a.824.824 0 0 0 .68-.592c.07-.253.131-.497.192-.715a.728.728 0 0 1 .323-.428.666.666 0 0 1 .532-.07.728.728 0 0 1 .428.323.666.666 0 0 1 .07.532c-.28 1.038-.803 2.983-.986 3.69a.683.683 0 0 0 .07.505c.156.28.47.428.784.384a.785.785 0 0 0 .655-.576c.07-.27.148-.54.209-.767a.728.728 0 0 1 .323-.427.666.666 0 0 1 .532-.07.708.708 0 0 1 .427.331.666.666 0 0 1 .07.532c-.288 1.073-.829 3.105-1.003 3.75a.492.492 0 0 0 .052.384.76.76 0 0 0 .768.375.786.786 0 0 0 .645-.566c.078-.288.148-.567.218-.812a.728.728 0 0 1 .323-.427.666.666 0 0 1 .532-.07.729.729 0 0 1 .427.323.666.666 0 0 1 .07.532c-.27 1.012-.776 2.878-.977 3.628a.852.852 0 0 0 .079.62l1.84 3.183a.707.707 0 0 1-.253.96.707.707 0 0 1-.96-.254l-1.84-3.183a.81.81 0 0 0-.488-.375c-.75-.2-2.617-.707-3.628-.977a.695.695 0 0 1-.498-.855.728.728 0 0 1 .323-.427.666.666 0 0 1 .532-.07c.236.061.524.14.811.218a.77.77 0 0 0 .864-1.134.544.544 0 0 0-.306-.235c-.645-.174-2.677-.715-3.75-1.003a.708.708 0 0 1-.427-.332.667.667 0 0 1-.07-.532.728.728 0 0 1 .323-.427.666.666 0 0 1 .532-.07c.227.061.497.131.767.21a.793.793 0 0 0 .829-.28.795.795 0 0 0 .06-.872.721.721 0 0 0-.4-.314c-.707-.192-2.652-.706-3.69-.985a.678.678 0 0 1-.427-.332.666.666 0 0 1-.07-.532.728.728 0 0 1 .323-.427.666.666 0 0 1 .532-.07c.192.087.436.149.689.218zm37.626 65.178a.814.814 0 0 1 1.491-.191c.445.776.942 1.64 1.274 2.197.096.166.244.28.427.332a.695.695 0 0 0 .855-.497.67.67 0 0 0-.07-.532c-.323-.558-.82-1.43-1.273-2.198a.806.806 0 0 1 .06-.899.803.803 0 0 1 .855-.287c.253.07.498.13.716.192a.695.695 0 0 0 .855-.497.667.667 0 0 0-.07-.533.708.708 0 0 0-.428-.331c-1.038-.28-2.983-.802-3.69-.986a.632.632 0 0 1-.4-.314.778.778 0 0 1 .06-.872.778.778 0 0 1 .83-.279c.27.07.54.14.767.21a.703.703 0 0 0 .532-.07.695.695 0 0 0 .323-.428.695.695 0 0 0-.497-.855c-1.073-.287-3.106-.828-3.751-1.002a.492.492 0 0 1-.305-.236.782.782 0 0 1 .052-.855.781.781 0 0 1 .811-.279c.288.079.567.157.811.218a.704.704 0 0 0 .532-.07.695.695 0 0 0 .323-.427.666.666 0 0 0-.07-.532.741.741 0 0 0-.427-.331 508.55 508.55 0 0 1-3.628-.977.786.786 0 0 1-.489-.375l-1.84-3.184a.698.698 0 0 0-.96-.253.698.698 0 0 0-.252.96l1.84 3.183c.105.183.14.41.078.62-.2.75-.697 2.616-.977 3.628a.666.666 0 0 0 .07.532.742.742 0 0 0 .428.331.695.695 0 0 0 .855-.497c.06-.235.139-.523.217-.811a.765.765 0 0 1 .646-.567.766.766 0 0 1 .767.375.49.49 0 0 1 .053.384c-.175.645-.715 2.677-1.003 3.75a.695.695 0 0 0 .497.855.695.695 0 0 0 .855-.497c.06-.227.13-.489.209-.768a.785.785 0 0 1 1.439-.192.683.683 0 0 1 .07.506c-.192.707-.707 2.652-.986 3.69a.666.666 0 0 0 .07.532.74.74 0 0 0 .427.331.695.695 0 0 0 .855-.497c.035-.21.096-.454.166-.707zm-34.015 0a.814.814 0 0 0-1.492-.191c-.444.776-.942 1.64-1.273 2.197a.709.709 0 0 1-.427.332.695.695 0 0 1-.855-.497.67.67 0 0 1 .07-.532c.322-.558.82-1.43 1.273-2.198a.806.806 0 0 0-.061-.899.803.803 0 0 0-.855-.287c-.253.07-.497.13-.715.192a.695.695 0 0 1-.855-.497.666.666 0 0 1 .07-.533.708.708 0 0 1 .427-.331c1.038-.28 2.983-.802 3.69-.986a.632.632 0 0 0 .4-.314.778.778 0 0 0-.06-.872.783.783 0 0 0-.829-.279c-.27.07-.54.14-.767.21a.703.703 0 0 1-.532-.07.695.695 0 0 1-.323-.428.695.695 0 0 1 .497-.855c1.073-.287 3.105-.828 3.75-1.002a.492.492 0 0 0 .306-.236.782.782 0 0 0-.052-.855.76.76 0 0 0-.812-.279c-.288.079-.567.157-.81.218a.704.704 0 0 1-.533-.07.695.695 0 0 1-.322-.427.666.666 0 0 1 .07-.532.742.742 0 0 1 .427-.331c1.011-.27 2.878-.768 3.628-.977a.786.786 0 0 0 .488-.375l1.84-3.184a.698.698 0 0 1 .96-.253.7.7 0 0 1 .253.96l-1.84 3.183a.807.807 0 0 0-.079.62c.2.75.698 2.616.977 3.628a.666.666 0 0 1-.07.532.741.741 0 0 1-.427.331.695.695 0 0 1-.855-.497c-.06-.235-.14-.523-.218-.811a.765.765 0 0 0-.645-.567.766.766 0 0 0-.768.375.492.492 0 0 0-.052.384c.174.645.715 2.677 1.003 3.75a.695.695 0 0 1-.497.855.695.695 0 0 1-.855-.497c-.061-.227-.13-.489-.21-.768a.785.785 0 0 0-1.438-.192.683.683 0 0 0-.07.506c.192.707.706 2.652.985 3.69a.666.666 0 0 1-.07.532.741.741 0 0 1-.427.331.695.695 0 0 1-.855-.497 7.299 7.299 0 0 0-.165-.707zm37.626-65.178a.808.808 0 0 1-.855-.288.805.805 0 0 1-.061-.898c.445-.767.942-1.64 1.273-2.198a.666.666 0 0 0 .07-.532.728.728 0 0 0-.323-.427.703.703 0 0 0-.96.253c-.322.567-.819 1.43-1.272 2.198a.806.806 0 0 1-.812.4.824.824 0 0 1-.68-.592c-.07-.253-.13-.497-.192-.715a.728.728 0 0 0-.323-.428.666.666 0 0 0-.531-.07.728.728 0 0 0-.428.323.666.666 0 0 0-.07.532c.28 1.038.803 2.983.986 3.69a.645.645 0 0 1-.07.505.776.776 0 0 1-.785.384.785.785 0 0 1-.654-.576c-.07-.27-.148-.54-.21-.767a.728.728 0 0 0-.322-.427.666.666 0 0 0-.532-.07.708.708 0 0 0-.427.331.666.666 0 0 0-.07.532c.288 1.073.828 3.105 1.003 3.75a.494.494 0 0 1-.052.384.759.759 0 0 1-.768.375.786.786 0 0 1-.645-.566c-.079-.288-.149-.567-.218-.812a.728.728 0 0 0-.323-.427.666.666 0 0 0-.532-.07.728.728 0 0 0-.428.323.667.667 0 0 0-.07.532c.271 1.012.777 2.878.978 3.628a.852.852 0 0 1-.079.62c-.384.662-1.326 2.293-1.84 3.183a.707.707 0 0 0 .253.96.707.707 0 0 0 .959-.254l1.84-3.183a.81.81 0 0 1 .489-.375c.75-.2 2.616-.707 3.628-.977a.695.695 0 0 0 .497-.855.728.728 0 0 0-.323-.427.666.666 0 0 0-.532-.07c-.235.061-.523.14-.81.218a.771.771 0 0 1-.864-1.134c.07-.113.183-.2.305-.235.645-.174 2.678-.715 3.75-1.003a.708.708 0 0 0 .428-.332.666.666 0 0 0 .07-.532.728.728 0 0 0-.323-.427.666.666 0 0 0-.532-.07c-.227.061-.497.131-.768.21a.793.793 0 0 1-.828-.28.795.795 0 0 1-.061-.872.721.721 0 0 1 .4-.314c.707-.192 2.652-.706 3.69-.985a.678.678 0 0 0 .428-.332.666.666 0 0 0 .07-.532.728.728 0 0 0-.323-.427.666.666 0 0 0-.532-.07c-.192.087-.436.149-.69.218zM16.45 60.87a.794.794 0 0 0 .174-.881.821.821 0 0 0-.75-.497h-2.538a.679.679 0 0 1-.498-.21.7.7 0 0 1-.209-.497.68.68 0 0 1 .21-.497c.13-.13.313-.21.497-.21h2.538a.82.82 0 0 0 .75-.497.806.806 0 0 0-.175-.88l-.523-.524a.7.7 0 0 1-.21-.497.68.68 0 0 1 .21-.497c.13-.13.314-.21.497-.21s.367.08.497.21l2.704 2.704a.674.674 0 0 0 .471.192.786.786 0 0 0 .55-1.344l-.559-.558a.7.7 0 0 1-.209-.497.68.68 0 0 1 .21-.497c.13-.13.313-.21.497-.21a.72.72 0 0 1 .497.21l2.747 2.747a.509.509 0 0 0 .358.149.75.75 0 0 0 .706-.471.764.764 0 0 0-.166-.838l-.593-.593a.699.699 0 0 1 0-.994.72.72 0 0 1 .497-.21.72.72 0 0 1 .498.21l2.66 2.66a.818.818 0 0 0 .575.236h3.68a.7.7 0 0 1 .699.697.7.7 0 0 1-.698.698h-3.68a.834.834 0 0 0-.576.236c-.55.55-1.92 1.918-2.66 2.66a.714.714 0 0 1-.498.21.714.714 0 0 1-.706-.707c0-.192.07-.367.21-.497l.592-.594a.764.764 0 0 0-.54-1.308.509.509 0 0 0-.358.148l-2.747 2.748a.715.715 0 0 1-.497.21.715.715 0 0 1-.707-.707c0-.192.07-.367.21-.497l.558-.559a.786.786 0 0 0-.55-1.343.674.674 0 0 0-.47.192L16.92 62.37a.715.715 0 0 1-.497.21.715.715 0 0 1-.706-.707c0-.192.07-.367.209-.497.157-.14.332-.323.523-.506zm75.251 0a.81.81 0 0 1 .576-1.378h2.538c.183 0 .366-.07.497-.21a.699.699 0 0 0 0-.994.715.715 0 0 0-.497-.21h-2.538a.812.812 0 0 1-.75-.497.819.819 0 0 1 .174-.88l.524-.524a.7.7 0 0 0 .209-.497.679.679 0 0 0-.21-.497.7.7 0 0 0-.497-.21.715.715 0 0 0-.497.21l-2.704 2.704a.674.674 0 0 1-.47.192.777.777 0 0 1-.724-.489.79.79 0 0 1 .165-.855l.558-.558a.7.7 0 0 0 .21-.497.68.68 0 0 0-.21-.497.715.715 0 0 0-.497-.21.715.715 0 0 0-.497.21c-.785.785-2.276 2.268-2.747 2.747a.508.508 0 0 1-.358.149.75.75 0 0 1-.706-.471.764.764 0 0 1 .165-.838l.594-.593a.7.7 0 0 0 .209-.497.68.68 0 0 0-.21-.497.715.715 0 0 0-.497-.21.715.715 0 0 0-.497.21l-2.66 2.66a.818.818 0 0 1-.576.236h-3.68a.7.7 0 0 0-.698.697.7.7 0 0 0 .698.698h3.68a.83.83 0 0 1 .576.236l2.66 2.66a.72.72 0 0 0 .497.21.715.715 0 0 0 .707-.707.68.68 0 0 0-.21-.497l-.593-.594a.764.764 0 0 1 .541-1.308.51.51 0 0 1 .358.148l2.747 2.748a.72.72 0 0 0 .497.21.715.715 0 0 0 .707-.707.665.665 0 0 0-.21-.497l-.558-.559a.765.765 0 0 1-.165-.855.786.786 0 0 1 .724-.488c.174 0 .348.07.47.192l2.704 2.704a.72.72 0 0 0 .497.21.715.715 0 0 0 .707-.707.665.665 0 0 0-.21-.497c-.157-.14-.33-.323-.523-.506zM51.32 31.207a.832.832 0 0 0 .592-.794v-3.105a.909.909 0 0 0-.087-.375c-.637-1.238-4.378-8.565-5.879-11.487a.816.816 0 0 1 .035-.81.835.835 0 0 1 .707-.402h2.843c.323 0 .62.192.759.488.576 1.265 2.137 4.71 3.079 6.803a.835.835 0 0 0 1.518 0c.941-2.084 2.503-5.53 3.078-6.803a.826.826 0 0 1 .759-.488h2.843c.288 0 .559.148.707.401.148.244.166.55.035.811L56.43 26.933a.815.815 0 0 0-.087.375v2.965c0 .384.262.716.628.803.488.122.95.288 1.387.488 1.125.524 1.997 1.256 2.616 2.207a5.67 5.67 0 0 1 .864 2.302.816.816 0 0 1-.811.934c-.803.008-1.972.008-2.722.008a.83.83 0 0 1-.81-.663 2.315 2.315 0 0 0-.725-1.36c-.54-.506-1.334-.759-2.372-.759-.663 0-1.23.096-1.7.288-.463.192-.82.462-1.056.794a1.93 1.93 0 0 0-.349 1.125c0 .619.323 1.142.96 1.57.636.427 1.622.854 2.965 1.264 2.259.69 3.942 1.562 5.05 2.6 1.099 1.037 1.657 2.372 1.657 3.994 0 1.169-.297 2.18-.898 3.026-.602.846-1.448 1.492-2.556 1.928-1.099.445-2.398.663-3.881.663a10.96 10.96 0 0 1-4.012-.733c-1.256-.488-2.268-1.238-3.053-2.25-.61-.794-.985-1.718-1.116-2.791a.825.825 0 0 1 .81-.925c.803-.008 1.972-.008 2.74-.008.41 0 .758.296.82.706.095.794.418 1.396.941 1.797.672.515 1.631.767 2.87.767.985 0 1.735-.2 2.233-.593.505-.4.758-.915.758-1.56 0-.48-.104-.882-.305-1.204-.2-.323-.576-.637-1.125-.925-.54-.297-1.352-.61-2.407-.96-1.37-.444-2.538-.933-3.524-1.473-.985-.541-1.77-1.213-2.363-2.032-.593-.812-.89-1.78-.89-2.896 0-1.117.323-2.102.96-2.957.645-.855 1.526-1.517 2.668-1.98.2-.087.454-.174.724-.261z" fill="#27235E"/><path d="M3.489 196.511h101.173V3.489H3.489V196.51zM108.15 200H0V0h108.151v200z" fill="#27235E"/></svg>